<?xml version="1.0" encoding="UTF-8" standalone="no"?>
<!-- Created with Inkscape (http://www.inkscape.org/) -->

<svg
   xmlns:dc="http://purl.org/dc/elements/1.1/"
   xmlns:cc="http://creativecommons.org/ns#"
   xmlns:rdf="http://www.w3.org/1999/02/22-rdf-syntax-ns#"
   xmlns:svg="http://www.w3.org/2000/svg"
   xmlns="http://www.w3.org/2000/svg"
   xmlns:xlink="http://www.w3.org/1999/xlink"
   xmlns:sodipodi="http://sodipodi.sourceforge.net/DTD/sodipodi-0.dtd"
   xmlns:inkscape="http://www.inkscape.org/namespaces/inkscape"
   width="48"
   height="48"
   id="svg2"
   version="1.1"
   inkscape:version="0.91 r13725"
   sodipodi:docname="accessories-text-editor.svg">
  <defs
     id="defs4">
    <linearGradient
       id="linearGradient1374">
      <stop
         style="stop-color:#fef3c8;stop-opacity:1"
         offset="0"
         id="stop1376" />
      <stop
         style="stop-color:#ffffff;stop-opacity:1;"
         offset="1"
         id="stop1378" />
    </linearGradient>
    <linearGradient
       id="linearGradient2180"
       inkscape:collect="always">
      <stop
         id="stop2182"
         offset="0"
         style="stop-color:#532c0f;stop-opacity:1" />
      <stop
         style="stop-color:#8b430f;stop-opacity:1"
         offset="0.20973869"
         id="stop2184" />
      <stop
         id="stop2186"
         offset="0.54495704"
         style="stop-color:#d57026;stop-opacity:1" />
      <stop
         id="stop2188"
         offset="1"
         style="stop-color:#ef9828;stop-opacity:1" />
    </linearGradient>
    <linearGradient
       y2="-537.47601"
       x2="428.86081"
       y1="-537.87738"
       x1="374.84741"
       gradientTransform="matrix(0.83333333,0,0,0.83309926,-313.29165,-584.76487)"
       gradientUnits="userSpaceOnUse"
       id="linearGradient1089"
       xlink:href="#linearGradient2180"
       inkscape:collect="always" />
    <linearGradient
       inkscape:collect="always"
       xlink:href="#linearGradient1374"
       id="linearGradient3230"
       gradientUnits="userSpaceOnUse"
       gradientTransform="matrix(0.79804648,0,0,0.79541597,4.8288707,210.31964)"
       x1="2.9999988"
       y1="1029.4122"
       x2="45.000134"
       y2="1029.4122" />
  </defs>
  <sodipodi:namedview
     id="base"
     pagecolor="#ffffff"
     bordercolor="#666666"
     borderopacity="1.0"
     inkscape:pageopacity="0.0"
     inkscape:pageshadow="2"
     inkscape:zoom="16"
     inkscape:cx="22.348109"
     inkscape:cy="19.442017"
     inkscape:document-units="px"
     inkscape:current-layer="layer1"
     showgrid="true"
     inkscape:window-width="1366"
     inkscape:window-height="744"
     inkscape:window-x="0"
     inkscape:window-y="24"
     inkscape:window-maximized="1">
    <inkscape:grid
       type="xygrid"
       id="grid3232" />
  </sodipodi:namedview>
  <metadata
     id="metadata7">
    <rdf:RDF>
      <cc:Work
         rdf:about="">
        <dc:format>image/svg+xml</dc:format>
        <dc:type
           rdf:resource="http://purl.org/dc/dcmitype/StillImage" />
        <dc:title></dc:title>
      </cc:Work>
    </rdf:RDF>
  </metadata>
  <g
     inkscape:label="Capa 1"
     inkscape:groupmode="layer"
     id="layer1"
     transform="translate(0,-1004.3622)">
    <rect
       style="fill:url(#linearGradient1089);fill-opacity:1;stroke:none"
       id="rect2991-1"
       width="40"
       height="39.988766"
       x="4"
       y="-1048.3622"
       ry="0"
       transform="scale(1,-1)" />
    <path
       style="fill:url(#linearGradient3230);fill-opacity:1;stroke:none"
       d="m 8.5799203,1011.5916 c -0.7522525,0 -1.3569099,0.6027 -1.3569099,1.3524 l 0,30.7028 c 0,0.7498 0.6046574,1.3525 1.3569099,1.3525 l 30.8042367,0 c 0.752253,0 1.356911,-0.6027 1.356911,-1.3525 l 0,-30.7027 c 0,-0.7498 -0.604658,-1.3525 -1.356911,-1.3525 z"
       id="rect839"
       inkscape:connector-curvature="0"
       sodipodi:nodetypes="sssssssss" />
    <path
       style="fill:#dadbe4;fill-opacity:1"
       d="m 7.2230091,1018.0662 0,0.2088 33.5180599,0 0,-0.2088 -33.5180599,0 z m 0,5.0109 0,0.2088 33.5180599,0 0,-0.2088 -33.5180599,0 z m 0,5.0108 0,0.2088 33.5180599,0 0,-0.2088 -33.5180599,0 z m 0,5.0108 0,0.2087 33.5180599,0 0,-0.2087 -33.5180599,0 z m 0,5.0107 0,0.2088 33.5180599,0 0,-0.2088 -33.5180599,0 z"
       id="rect2274"
       inkscape:connector-curvature="0" />
    <path
       style="fill:#ffffff;fill-opacity:0.33187776"
       d="m 7.2230091,1018.275 0,0.2088 33.5180599,0 0,-0.2088 -33.5180599,0 z m 0,5.0109 0,0.2088 33.5180599,0 0,-0.2088 -33.5180599,0 z m 0,5.0108 0,0.2087 33.5180599,0 0,-0.2087 -33.5180599,0 z m 0,5.0107 0,0.2088 33.5180599,0 0,-0.2088 -33.5180599,0 z m 0,5.0108 0,0.2088 33.5180599,0 0,-0.2088 -33.5180599,0 z"
       id="rect2276"
       inkscape:connector-curvature="0" />
    <path
       style="opacity:0.5;fill:#000000;fill-opacity:1;stroke:none"
       d="m 4,1048.3622 0,0 c 20,-1 20,-1 40,0 z"
       id="path3257"
       inkscape:connector-curvature="0"
       sodipodi:nodetypes="cccc" />
    <path
       sodipodi:nodetypes="cccc"
       inkscape:connector-curvature="0"
       id="path4027"
       d="m 4.0390625,1008.37 0,0 c 19.9999995,1 19.9999995,1 39.9999995,0 z"
       style="opacity:0.75;fill:#ffffff;fill-opacity:1;stroke:none" />
    <g
       transform="matrix(0.734375,0,0,0.88392857,0.375,61.179696)"
       id="g4166">
      <rect
         ry="0"
         y="1085.5197"
         x="44"
         height="19.000053"
         width="4"
         id="rect4312"
         style="fill:#a790bc;fill-opacity:1;stroke:none" />
      <path
         inkscape:connector-curvature="0"
         id="path4316"
         d="m 46,1110.5196 -2,-6 4,0 z"
         style="fill:#e8bb3e;fill-opacity:1;fill-rule:evenodd;stroke:none;stroke-width:1px;stroke-linecap:butt;stroke-linejoin:miter;stroke-opacity:1" />
      <path
         inkscape:connector-curvature="0"
         id="path4318"
         transform="translate(0,1058.5196)"
         d="M 45.333984,50 46,52 l 0.666016,-2 -1.332032,0 z"
         style="fill:#5b450b;fill-opacity:1;fill-rule:evenodd;stroke:none;stroke-width:1px;stroke-linecap:butt;stroke-linejoin:miter;stroke-opacity:1" />
      <path
         inkscape:connector-curvature="0"
         id="rect4325"
         transform="translate(0,1058.5196)"
         d="m 46,24 c -1.107985,0 -2,0.892015 -2,2 l 4,0 c 0,-1.107985 -0.892015,-2 -2,-2 z"
         style="fill:#ffaaaa;fill-opacity:1;stroke:none" />
      <rect
         y="1084.5197"
         x="44"
         height="1"
         width="4"
         id="rect4332"
         style="fill:#bdc3c7;fill-opacity:1;stroke:none" />
    </g>
    <rect
       style="fill:#ffdbdb;fill-opacity:1;stroke:none"
       id="rect4336"
       width="1.125"
       height="33.312447"
       x="12.25"
       y="1011.6747" />
  </g>
</svg>
