<?xml version="1.0" encoding="UTF-8" standalone="no"?>
<!-- Created with Inkscape (http://www.inkscape.org/) -->

<svg
   xmlns:dc="http://purl.org/dc/elements/1.1/"
   xmlns:cc="http://creativecommons.org/ns#"
   xmlns:rdf="http://www.w3.org/1999/02/22-rdf-syntax-ns#"
   xmlns:svg="http://www.w3.org/2000/svg"
   xmlns="http://www.w3.org/2000/svg"
   xmlns:xlink="http://www.w3.org/1999/xlink"
   xmlns:sodipodi="http://sodipodi.sourceforge.net/DTD/sodipodi-0.dtd"
   xmlns:inkscape="http://www.inkscape.org/namespaces/inkscape"
   width="48"
   height="48"
   id="svg2"
   version="1.1"
   inkscape:version="0.91 r13725"
   sodipodi:docname="calligradevtools.svg">
  <defs
     id="defs4">
    <linearGradient
       id="linearGradient1374">
      <stop
         style="stop-color:#fef3c8;stop-opacity:1"
         offset="0"
         id="stop1376" />
      <stop
         style="stop-color:#ffffff;stop-opacity:1;"
         offset="1"
         id="stop1378" />
    </linearGradient>
    <linearGradient
       inkscape:collect="always"
       xlink:href="#linearGradient3832"
       id="linearGradient3838"
       x1="24.913139"
       y1="44.287907"
       x2="86.445389"
       y2="44.287907"
       gradientUnits="userSpaceOnUse" />
    <linearGradient
       id="linearGradient3832">
      <stop
         style="stop-color:#1a1a1a;stop-opacity:1;"
         offset="0"
         id="stop3834" />
      <stop
         style="stop-color:#474747;stop-opacity:1;"
         offset="1"
         id="stop3836" />
    </linearGradient>
    <linearGradient
       inkscape:collect="always"
       xlink:href="#linearGradient3832"
       id="linearGradient3536"
       gradientUnits="userSpaceOnUse"
       x1="24.913139"
       y1="44.287907"
       x2="86.445389"
       y2="44.287907" />
    <linearGradient
       inkscape:collect="always"
       xlink:href="#linearGradient3832"
       id="linearGradient3538"
       gradientUnits="userSpaceOnUse"
       x1="24.913139"
       y1="44.287907"
       x2="86.445389"
       y2="44.287907" />
    <linearGradient
       inkscape:collect="always"
       xlink:href="#linearGradient3832"
       id="linearGradient3540"
       gradientUnits="userSpaceOnUse"
       x1="24.913139"
       y1="44.287907"
       x2="86.445389"
       y2="44.287907" />
  </defs>
  <sodipodi:namedview
     id="base"
     pagecolor="#ffffff"
     bordercolor="#666666"
     borderopacity="1.0"
     inkscape:pageopacity="0.0"
     inkscape:pageshadow="2"
     inkscape:zoom="16"
     inkscape:cx="23.212694"
     inkscape:cy="19.504517"
     inkscape:document-units="px"
     inkscape:current-layer="layer1"
     showgrid="true"
     inkscape:window-width="1366"
     inkscape:window-height="744"
     inkscape:window-x="0"
     inkscape:window-y="24"
     inkscape:window-maximized="1">
    <inkscape:grid
       type="xygrid"
       id="grid3232" />
  </sodipodi:namedview>
  <metadata
     id="metadata7">
    <rdf:RDF>
      <cc:Work
         rdf:about="">
        <dc:format>image/svg+xml</dc:format>
        <dc:type
           rdf:resource="http://purl.org/dc/dcmitype/StillImage" />
        <dc:title></dc:title>
      </cc:Work>
    </rdf:RDF>
  </metadata>
  <g
     inkscape:label="Capa 1"
     inkscape:groupmode="layer"
     id="layer1"
     transform="translate(0,-1004.3622)">
    <rect
       style="fill:#34495e;fill-opacity:1;stroke:none"
       id="rect2991-1"
       width="40"
       height="39.988766"
       x="4"
       y="-1048.3622"
       ry="0"
       transform="scale(1,-1)" />
    <path
       style="fill:#ecf0f1;fill-opacity:1;stroke:none"
       d="m 8.5799203,1011.5916 c -0.7522525,0 -1.3569099,0.6027 -1.3569099,1.3524 l 0,30.7028 c 0,0.7498 0.6046574,1.3525 1.3569099,1.3525 l 30.8042367,0 c 0.752253,0 1.356911,-0.6027 1.356911,-1.3525 l 0,-30.7027 c 0,-0.7498 -0.604658,-1.3525 -1.356911,-1.3525 z"
       id="rect839"
       inkscape:connector-curvature="0"
       sodipodi:nodetypes="sssssssss" />
    <path
       style="opacity:0.5;fill:#2c3e50;fill-opacity:1;stroke:none"
       d="m 4,1048.3622 0,0 c 20,-1 20,-1 40,0 z"
       id="path3257"
       inkscape:connector-curvature="0"
       sodipodi:nodetypes="cccc" />
    <path
       sodipodi:nodetypes="cccc"
       inkscape:connector-curvature="0"
       id="path4027"
       d="m 4.0390625,1008.37 0,0 c 19.9999995,1 19.9999995,1 39.9999995,0 z"
       style="opacity:1;fill:#bdc3c7;fill-opacity:1;stroke:none" />
    <g
       style="fill:url(#linearGradient3838);fill-opacity:1"
       id="g3108"
       transform="matrix(0.46086779,0,0,0.4856206,-1.8482793,1006.6051)">
      <rect
         transform="matrix(0.68248578,-0.73089887,0.74219586,0.67018304,0,0)"
         width="12.697566"
         height="16.121679"
         x="-1.5317034"
         y="59.150291"
         id="rect2921"
         style="fill:url(#linearGradient3536);fill-opacity:1;stroke:none" />
      <path
         d="m 25.653305,25.227707 c -1.780994,5.445104 -0.338621,11.668239 4.226673,15.790578 6.254647,5.647778 15.980871,5.240109 21.724129,-0.910556 5.743259,-6.150665 5.328697,-15.715193 -0.925949,-21.362972 -4.565294,-4.122339 -10.993417,-5.006052 -16.358945,-2.797686 l 8.405303,7.589763 -8.665908,9.280637 -8.405303,-7.589764 z"
         inkscape:connector-curvature="0"
         id="path2917"
         style="fill:url(#linearGradient3538);fill-opacity:1;stroke:none" />
      <path
         id="rect2928"
         d="m 50.758117,49.487356 c -0.648315,0.976429 -0.404389,2.210454 1.109657,3.630732 l 13.876046,13.006522 0.974364,0.907083 4.822456,4.403522 c 3.728643,3.431487 9.366671,3.104346 12.654652,-0.772791 3.287979,-3.877335 2.930755,-9.780471 -0.797886,-13.21196 L 78.618384,53.000781 77.600586,52.13986 64.472837,40.00325 c -2.155421,-1.981435 -3.564982,-0.887899 -4.5815,0.149881 l -8.785742,8.964517 c -0.127131,0.129897 -0.254869,0.229818 -0.347478,0.369308 z m 7.845134,0.637097 3.08389,-3.276612 c 0.637928,-0.677863 1.795303,-0.579741 2.660455,0.225822 l 15.543421,14.472166 c 0.865151,0.805563 1.086157,1.991026 0.448228,2.668691 l -3.08389,3.27661 c -0.637927,0.677665 -1.841701,0.536577 -2.706854,-0.268986 L 59.005082,52.749778 c -0.865154,-0.805563 -1.039759,-1.947661 -0.401831,-2.625325 z"
         style="fill:url(#linearGradient3540);fill-opacity:1;stroke:none"
         inkscape:connector-curvature="0" />
    </g>
  </g>
</svg>
