<?xml version="1.0" encoding="UTF-8" standalone="no"?>
<!-- Created with Inkscape (http://www.inkscape.org/) -->

<svg
   xmlns:dc="http://purl.org/dc/elements/1.1/"
   xmlns:cc="http://creativecommons.org/ns#"
   xmlns:rdf="http://www.w3.org/1999/02/22-rdf-syntax-ns#"
   xmlns:svg="http://www.w3.org/2000/svg"
   xmlns="http://www.w3.org/2000/svg"
   xmlns:sodipodi="http://sodipodi.sourceforge.net/DTD/sodipodi-0.dtd"
   xmlns:inkscape="http://www.inkscape.org/namespaces/inkscape"
   width="48"
   height="48"
   id="svg2"
   version="1.1"
   inkscape:version="0.91 r13725"
   sodipodi:docname="calligrakrita.svg">
  <defs
     id="defs4">
    <linearGradient
       id="linearGradient1374">
      <stop
         style="stop-color:#fef3c8;stop-opacity:1"
         offset="0"
         id="stop1376" />
      <stop
         style="stop-color:#ffffff;stop-opacity:1;"
         offset="1"
         id="stop1378" />
    </linearGradient>
  </defs>
  <sodipodi:namedview
     id="base"
     pagecolor="#ffffff"
     bordercolor="#666666"
     borderopacity="1.0"
     inkscape:pageopacity="0.0"
     inkscape:pageshadow="2"
     inkscape:zoom="16"
     inkscape:cx="23.212694"
     inkscape:cy="19.504517"
     inkscape:document-units="px"
     inkscape:current-layer="layer1"
     showgrid="true"
     inkscape:window-width="1366"
     inkscape:window-height="744"
     inkscape:window-x="0"
     inkscape:window-y="24"
     inkscape:window-maximized="1">
    <inkscape:grid
       type="xygrid"
       id="grid3232" />
  </sodipodi:namedview>
  <metadata
     id="metadata7">
    <rdf:RDF>
      <cc:Work
         rdf:about="">
        <dc:format>image/svg+xml</dc:format>
        <dc:type
           rdf:resource="http://purl.org/dc/dcmitype/StillImage" />
        <dc:title></dc:title>
      </cc:Work>
    </rdf:RDF>
  </metadata>
  <g
     inkscape:label="Capa 1"
     inkscape:groupmode="layer"
     id="layer1"
     transform="translate(0,-1004.3622)">
    <rect
       style="fill:#34495e;fill-opacity:1;stroke:none"
       id="rect2991-1"
       width="40"
       height="39.988766"
       x="4"
       y="-1048.3622"
       ry="0"
       transform="scale(1,-1)" />
    <path
       style="fill:#ecf0f1;fill-opacity:1;stroke:none"
       d="m 8.5799203,1011.5916 c -0.7522525,0 -1.3569099,0.6027 -1.3569099,1.3524 l 0,30.7028 c 0,0.7498 0.6046574,1.3525 1.3569099,1.3525 l 30.8042367,0 c 0.752253,0 1.356911,-0.6027 1.356911,-1.3525 l 0,-30.7027 c 0,-0.7498 -0.604658,-1.3525 -1.356911,-1.3525 z"
       id="rect839"
       inkscape:connector-curvature="0"
       sodipodi:nodetypes="sssssssss" />
    <path
       style="opacity:0.5;fill:#2c3e50;fill-opacity:1;stroke:none"
       d="m 4,1048.3622 0,0 c 20,-1 20,-1 40,0 z"
       id="path3257"
       inkscape:connector-curvature="0"
       sodipodi:nodetypes="cccc" />
    <path
       sodipodi:nodetypes="cccc"
       inkscape:connector-curvature="0"
       id="path4027"
       d="m 4.0390625,1008.37 0,0 c 19.9999995,1 19.9999995,1 39.9999995,0 z"
       style="opacity:1;fill:#bdc3c7;fill-opacity:1;stroke:none" />
    <g
       id="g4700"
       transform="matrix(0.78437501,0,0,0.78437501,5.1376933,1009.5327)">
      <path
         id="shape1"
         d="M 26.64172,6.5450949 10.329752,16.258636 34.339309,21.440969 Z"
         inkscape:connector-curvature="0"
         style="fill:#c0392b;fill-rule:evenodd;stroke:none" />
      <path
         id="shape2"
         d="m 10.842421,14.488446 c 16.951785,3.954821 25.377069,5.920421 25.275769,5.89672 -0.101327,-0.02382 -1.957038,5.934953 -5.567159,17.876184 z"
         inkscape:connector-curvature="0"
         style="fill:#f39c12;fill-rule:evenodd;stroke:none" />
      <path
         id="shape3"
         d="m 11.953125,12.21875 1.962891,29.050781 c 1.781808,1.039429 3.73302,1.817978 5.814453,2.267578 2.382227,-2.236461 5.955824,-4.550726 10.748047,-6.943359 l -18.525391,-24.375 z"
         style="fill:#75a039;fill-rule:evenodd;stroke:none"
         inkscape:connector-curvature="0" />
      <path
         id="shape4"
         d="M 14.183594,13.050781 4.65625,29.025391 c 1.5513477,6.025955 5.807883,10.938804 11.427734,13.351562 l -1.90039,-29.326172 z"
         style="fill:#1abc9c;fill-rule:evenodd;stroke:none"
         inkscape:connector-curvature="0" />
      <path
         id="shape5"
         d="M 7.7558594,12.335938 C 5.4002406,15.617239 4,19.634815 4,24 c 0,2.617772 0.5132566,5.107049 1.4199219,7.394531 L 15.193359,13.777344 7.7558594,12.335938 Z"
         style="fill:#3498db;fill-rule:evenodd;stroke:none"
         inkscape:connector-curvature="0" />
      <path
         id="shape6"
         d="M 23.615234,4.0097656 C 16.304452,4.1470438 9.9874232,8.1712262 6.6132812,14.109375 l 7.6406248,1.152344 12.03711,-6.1191409 -2.675782,-5.1328125 z"
         style="fill:#8e44ad;fill-rule:evenodd;stroke:none"
         inkscape:connector-curvature="0" />
      <path
         id="shape7"
         d="M 24,4 C 23.062298,4 22.140944,4.069682 21.238281,4.1933594 L 24.517578,10.130859 34.792969,7.1601562 C 31.681268,5.1669878 27.985002,4 24,4 Z"
         style="fill:#9b59b6;fill-rule:evenodd;stroke:none"
         inkscape:connector-curvature="0" />
      <path
         id="shape8"
         d="M 30.726562,32.808594 18.857422,43.3125 C 20.499883,43.74602 22.217605,44 24,44 c 4.466829,0 8.568822,-1.467309 11.890625,-3.923828 l -5.164063,-7.267578 z"
         style="fill:#8bc941;fill-rule:evenodd;stroke:none"
         inkscape:connector-curvature="0" />
      <path
         id="shape9"
         d="m 33.042969,6.1640625 -8.511719,3.9531255 9.232422,11.359374 9.794922,-1.660156 C 42.292013,13.823283 38.354004,8.8517169 33.042969,6.1640625 Z"
         style="fill:#e74c3c;fill-rule:evenodd;stroke:none"
         inkscape:connector-curvature="0" />
      <path
         id="shape10"
         d="m 43.050781,17.896484 -10.859375,1.591797 -3.339844,15.019531 5.316407,6.710938 C 40.055053,37.745452 44,31.357513 44,24 44,21.868685 43.662769,19.81984 43.050781,17.896484 Z"
         style="fill:#f1c40f;fill-rule:evenodd;stroke:none"
         inkscape:connector-curvature="0" />
      <path
         id="shape01"
         stroke-miterlimit="2.00000000000"
         d="M 4.000001,5.2100381 5.2158945,4.000001 29.822671,27.982489 27.688323,30.138386 Z"
         inkscape:connector-curvature="0"
         style="fill:#34495e;fill-rule:evenodd;stroke:none;stroke-miterlimit:2" />
      <path
         id="shape1111"
         stroke-miterlimit="2.00000000000"
         d="m 27.643556,30.093181 2.134358,-2.155896 5.831226,6.531727 -1.629844,1.61321 z"
         inkscape:connector-curvature="0"
         style="fill:#bdc3c7;fill-rule:evenodd;stroke:none;stroke-miterlimit:2" />
      <path
         id="shape21"
         stroke-miterlimit="2.00000000000"
         d="m 28.608038,29.149852 1.145447,-1.218181 5.711042,6.343567 -0.840388,0.589643 z"
         inkscape:connector-curvature="0"
         style="fill:#ecf0f1;fill-rule:evenodd;stroke:none;stroke-miterlimit:2" />
      <path
         id="shape31"
         d="m 34.563385,34.763768 c 4.356246,-4.317537 3.272559,4.085531 9.436616,8.746863 -6.509917,2.234227 -14.612612,-3.616854 -9.436616,-8.746863 z"
         inkscape:connector-curvature="0"
         style="fill:#4d4d4d;fill-rule:evenodd;stroke:none" />
    </g>
  </g>
</svg>
