<?xml version="1.0" standalone="no"?>
<!DOCTYPE svg PUBLIC "-//W3C//DTD SVG 20010904//EN" "http://www.w3.org/TR/2001/REC-SVG-20010904/DTD/svg10.dtd">
<!-- Created using Karbon, part of Calligra: http://www.calligra.org/karbon -->
<svg xmlns="http://www.w3.org/2000/svg" xmlns:xlink="http://www.w3.org/1999/xlink" width="38.4pt" height="38.4pt">
<defs>
  <linearGradient id="gradient0" gradientTransform="translate(36.9903, -398.974)" gradientUnits="objectBoundingBox" x1="-3.27669679865" y1="35.84219744051" x2="-2.27669679865" y2="35.84219744051" spreadMethod="pad">
   <stop stop-color="#2c3e50" offset="0.00000000000" stop-opacity="1.00000000000"/>
   <stop stop-color="#677481" offset="1.00000000000" stop-opacity="1.00000000000"/>
  </linearGradient>
 </defs>
<g id="layer1">
  <rect id="rect4118" transform="matrix(3.54331 0 0 3.54331 3.99997 3.99986)" fill="url(#gradient0)" width="9.03111280000pt" height="9.03110320000pt" rx="0.00002449391pt" ry="0.00002449391pt"/>
  <path id="path3800" transform="matrix(3.54331 0 0 3.54331 4 43.2498)" fill="#2f3e52" d="M0 0.211595L11.2889 0.211665C5.64444 -0.070555 5.64444 -0.070555 0 0.211665Z"/>
  <path id="path3804" transform="matrix(3.54331 0 0 3.54331 4 3.99954)" fill="#ffffff" opacity="0.75000000000" d="M0 7e-05L11.2889 0C5.64444 0.28222 5.64444 0.28222 0 0Z"/>
  <path id="path52" transform="matrix(3.54331 0 0 3.54331 9.84278 9.05371)" fill="#ecf0f1" d="M0.00706558 3.83568C-0.125274 6.08393 1.61743 8.02491 3.89185 8.16243C6.16627 8.29991 8.12429 6.58274 8.25662 4.33448C8.38896 2.08621 6.64626 0.145232 4.37184 0.00771202C2.09743 -0.129768 0.139403 1.5874 0.00706558 3.83568Z"/>
  <g id="g56" transform="translate(15.0697, 12.9708)" fill="none">
   <path id="path58" transform="matrix(0.279143 -0.0509596 0.0726675 0.184764 -5.1361 3.02734)" fill="#34495e" d="M56.4066 0.20652C52.2246 6.92942 51.2446 15.7825 48.2526 23.2925L36.3126 61.0505C25.3136 48.5545 1.68264 56.3025 0.312639 73.0095C-2.62376 88.6995 15.7236 102.895 30.2186 95.7065C43.8936 88.5185 44.2676 71.0805 49.2016 58.2105L59.9066 22.7385C63.5657 32.3054 68.768 45.7675 59.0899 53.5345C53.0519 56.3845 54.8049 67.5685 62.3129 65.2695C75.4539 59.8105 80.3259 41.8635 74.3679 29.4095C69.9489 20.1165 64.3569 11.2425 59.1479 2.32652C58.3849 1.64372 57.8819 -0.70348 56.4069 0.20702Z"/>
  </g>
 </g>
</svg>
