<?xml version="1.0" encoding="UTF-8" standalone="no"?>
<!-- Created with Inkscape (http://www.inkscape.org/) -->

<svg
   xmlns:dc="http://purl.org/dc/elements/1.1/"
   xmlns:cc="http://creativecommons.org/ns#"
   xmlns:rdf="http://www.w3.org/1999/02/22-rdf-syntax-ns#"
   xmlns:svg="http://www.w3.org/2000/svg"
   xmlns="http://www.w3.org/2000/svg"
   xmlns:sodipodi="http://sodipodi.sourceforge.net/DTD/sodipodi-0.dtd"
   xmlns:inkscape="http://www.inkscape.org/namespaces/inkscape"
   width="48"
   height="48"
   id="svg2"
   version="1.1"
   inkscape:version="0.91 r13725"
   sodipodi:docname="darktable.svg">
  <defs
     id="defs4">
    <linearGradient
       id="linearGradient1374">
      <stop
         style="stop-color:#fef3c8;stop-opacity:1"
         offset="0"
         id="stop1376" />
      <stop
         style="stop-color:#ffffff;stop-opacity:1;"
         offset="1"
         id="stop1378" />
    </linearGradient>
  </defs>
  <sodipodi:namedview
     id="base"
     pagecolor="#ffffff"
     bordercolor="#666666"
     borderopacity="1.0"
     inkscape:pageopacity="0.0"
     inkscape:pageshadow="2"
     inkscape:zoom="16"
     inkscape:cx="12.306444"
     inkscape:cy="19.567017"
     inkscape:document-units="px"
     inkscape:current-layer="layer1"
     showgrid="true"
     inkscape:window-width="1366"
     inkscape:window-height="744"
     inkscape:window-x="0"
     inkscape:window-y="24"
     inkscape:window-maximized="1">
    <inkscape:grid
       type="xygrid"
       id="grid3232" />
  </sodipodi:namedview>
  <metadata
     id="metadata7">
    <rdf:RDF>
      <cc:Work
         rdf:about="">
        <dc:format>image/svg+xml</dc:format>
        <dc:type
           rdf:resource="http://purl.org/dc/dcmitype/StillImage" />
        <dc:title />
      </cc:Work>
    </rdf:RDF>
  </metadata>
  <g
     inkscape:label="Capa 1"
     inkscape:groupmode="layer"
     id="layer1"
     transform="translate(0,-1004.3622)">
    <rect
       style="fill:#34495e;fill-opacity:1;stroke:none"
       id="rect2991-1"
       width="40"
       height="39.988766"
       x="4"
       y="-1048.3622"
       ry="0"
       transform="scale(1,-1)" />
    <path
       style="opacity:0.5;fill:#2c3e50;fill-opacity:1;stroke:none"
       d="m 4,1048.3622 0,0 c 20,-1 20,-1 40,0 z"
       id="path3257"
       inkscape:connector-curvature="0"
       sodipodi:nodetypes="cccc" />
    <path
       sodipodi:nodetypes="cccc"
       inkscape:connector-curvature="0"
       id="path4027"
       d="m 4.0390625,1008.37 0,0 c 19.9999995,1 19.9999995,1 39.9999995,0 z"
       style="opacity:1;fill:#bdc3c7;fill-opacity:1;stroke:none" />
    <g
       transform="matrix(0.73411721,0,0,0.73151518,6.365767,615.16115)"
       id="layer1-0"
       inkscape:label="Livello 1">
      <path
         inkscape:connector-curvature="0"
         id="path3755"
         d="m 24.313249,543.19552 c -6.616121,0 -12.547627,2.92013 -16.5810245,7.54167 l 10.2588035,12.0939 6.896427,-19.62669 c -0.190944,-0.005 -0.382081,-0.009 -0.574206,-0.009 z"
         style="fill:#e74c3c;fill-opacity:1;stroke:none" />
      <path
         inkscape:connector-curvature="0"
         id="path3753"
         d="m 28.406704,543.57733 -5.253716,14.95608 20.689284,-3.48078 c -3.064439,-5.88509 -8.709861,-10.20964 -15.435568,-11.4753 z"
         style="fill:#f39c12;fill-opacity:1;fill-rule:nonzero;stroke:none" />
      <path
         inkscape:connector-curvature="0"
         id="path3749"
         d="m 44.460875,558.31438 -15.598353,2.62538 13.360718,15.91802 c 2.115434,-3.3803 3.338698,-7.37437 3.338698,-11.65585 0,-2.40601 -0.387344,-4.72045 -1.101063,-6.88755 z"
         style="fill:#f1c40f;fill-opacity:1;fill-rule:nonzero;stroke:none" />
      <path
         inkscape:connector-curvature="0"
         id="path3747"
         d="m 29.848146,566.52498 -0.02367,0.0651 0.0444,0.0177 -1.317131,3.46893 0.02663,0.17167 -0.09767,0.0177 -6.064715,15.96537 c 0.377818,0.0193 0.756922,0.0297 1.139538,0.0297 6.600416,0 12.520773,-2.90663 16.554388,-7.50911 L 29.848153,566.5251 Z"
         style="fill:#2ecc71;fill-opacity:1;fill-rule:nonzero;stroke:none" />
      <path
         inkscape:connector-curvature="0"
         id="path3714"
         d="m 25.112403,570.92626 -20.5324123,3.45117 c 2.9763315,5.73669 8.4048043,9.99673 14.8968763,11.39241 l 5.635536,-14.84358 z"
         style="fill:#2980b9;fill-opacity:1;fill-rule:nonzero;stroke:none" />
      <path
         inkscape:connector-curvature="0"
         id="path3751"
         d="m 5.6277771,552.82092 c -2.102402,3.37334 -3.31798,7.35562 -3.31798,11.62328 0,2.39552 0.3845964,4.70198 1.09218,6.86092 L 19.071369,568.67086 5.6277771,552.82092 Z"
         style="fill:#9b59b6;fill-opacity:1;fill-rule:nonzero;stroke:none" />
    </g>
  </g>
</svg>
