<?xml version="1.0" encoding="UTF-8" standalone="no"?>
<!-- Created with Inkscape (http://www.inkscape.org/) -->

<svg
   xmlns:dc="http://purl.org/dc/elements/1.1/"
   xmlns:cc="http://creativecommons.org/ns#"
   xmlns:rdf="http://www.w3.org/1999/02/22-rdf-syntax-ns#"
   xmlns:svg="http://www.w3.org/2000/svg"
   xmlns="http://www.w3.org/2000/svg"
   xmlns:sodipodi="http://sodipodi.sourceforge.net/DTD/sodipodi-0.dtd"
   xmlns:inkscape="http://www.inkscape.org/namespaces/inkscape"
   width="48"
   height="48"
   id="svg2"
   version="1.1"
   inkscape:version="0.91 r13725"
   sodipodi:docname="karbon.svg">
  <defs
     id="defs4">
    <linearGradient
       id="linearGradient1374">
      <stop
         style="stop-color:#fef3c8;stop-opacity:1"
         offset="0"
         id="stop1376" />
      <stop
         style="stop-color:#ffffff;stop-opacity:1;"
         offset="1"
         id="stop1378" />
    </linearGradient>
  </defs>
  <sodipodi:namedview
     id="base"
     pagecolor="#ffffff"
     bordercolor="#666666"
     borderopacity="1.0"
     inkscape:pageopacity="0.0"
     inkscape:pageshadow="2"
     inkscape:zoom="16"
     inkscape:cx="12.306444"
     inkscape:cy="19.567017"
     inkscape:document-units="px"
     inkscape:current-layer="layer1"
     showgrid="true"
     inkscape:window-width="1366"
     inkscape:window-height="744"
     inkscape:window-x="0"
     inkscape:window-y="24"
     inkscape:window-maximized="1">
    <inkscape:grid
       type="xygrid"
       id="grid3232" />
  </sodipodi:namedview>
  <metadata
     id="metadata7">
    <rdf:RDF>
      <cc:Work
         rdf:about="">
        <dc:format>image/svg+xml</dc:format>
        <dc:type
           rdf:resource="http://purl.org/dc/dcmitype/StillImage" />
        <dc:title></dc:title>
      </cc:Work>
    </rdf:RDF>
  </metadata>
  <g
     inkscape:label="Capa 1"
     inkscape:groupmode="layer"
     id="layer1"
     transform="translate(0,-1004.3622)">
    <rect
       style="fill:#34495e;fill-opacity:1;stroke:none"
       id="rect2991-1"
       width="40"
       height="39.988766"
       x="4"
       y="-1048.3622"
       ry="0"
       transform="scale(1,-1)" />
    <path
       style="fill:#ecf0f1;fill-opacity:1;stroke:none"
       d="m 8.5799203,1011.5916 c -0.7522525,0 -1.3569099,0.6027 -1.3569099,1.3524 l 0,30.7028 c 0,0.7498 0.6046574,1.3525 1.3569099,1.3525 l 30.8042367,0 c 0.752253,0 1.356911,-0.6027 1.356911,-1.3525 l 0,-30.7027 c 0,-0.7498 -0.604658,-1.3525 -1.356911,-1.3525 z"
       id="rect839"
       inkscape:connector-curvature="0"
       sodipodi:nodetypes="sssssssss" />
    <path
       style="opacity:0.5;fill:#2c3e50;fill-opacity:1;stroke:none"
       d="m 4,1048.3622 0,0 c 20,-1 20,-1 40,0 z"
       id="path3257"
       inkscape:connector-curvature="0"
       sodipodi:nodetypes="cccc" />
    <path
       sodipodi:nodetypes="cccc"
       inkscape:connector-curvature="0"
       id="path4027"
       d="m 4.0390625,1008.37 0,0 c 19.9999995,1 19.9999995,1 39.9999995,0 z"
       style="opacity:1;fill:#bdc3c7;fill-opacity:1;stroke:none" />
    <g
       transform="matrix(0.7824672,0,0,0.77600748,5.1370108,1010.1465)"
       id="layer1-8">
      <path
         style="fill:#34495e;fill-rule:evenodd;stroke:#003bc3;stroke-width:0;stroke-linecap:square;stroke-linejoin:bevel"
         inkscape:connector-curvature="0"
         id="shape0"
         d="m 16.611424,5.0858487 c 10.0917,4.36861 11.4594,10.4980993 4.103,18.3883993 -7.35638,7.8902 -2.122,13.2034 15.7032,15.9394 -9.2114,7.5085 -25.28166,5.5183 -31.1485496,-8.5282 -3.51727,-9.5852 0.26351,-21.0206298 11.3423496,-25.7995993 z" />
      <path
         style="fill:#34495e;fill-rule:evenodd;stroke:#003bc3;stroke-width:0;stroke-linecap:square;stroke-linejoin:bevel"
         inkscape:connector-curvature="0"
         id="shape1"
         transform="matrix(-1,0,0,-1,44.0141,37.3782)"
         d="M 5.13214,0 C 22.8278,1.33995 28.0518,5.96138 20.804,13.8643 13.5562,21.7672 15.0954,28.0456 25.4217,32.6997 19.4065,34.3557 6.81649,33.8943 1.30778,20.5346 -1.90008,12.2674 1.3414,3.003 5.13214,0 Z" />
      <path
         style="fill:#ecf0f1;fill-rule:evenodd;stroke:#003bc3;stroke-width:0;stroke-linecap:square;stroke-linejoin:miter;stroke-miterlimit:2.01260185"
         inkscape:connector-curvature="0"
         id="shape2"
         transform="translate(33.3833,35.0825)"
         stroke-miterlimit="2.01260185242"
         d="M 3.50962,1.60883e-4 C 1.55719,0.0187043 -0.01229,1.6132 7.25341e-5,3.56565 0.0124351,5.51809 1.60198,7.09259 3.55449,7.08641 5.50699,7.08023 7.0864,5.47326 7.0864,3.52078 7.06167,1.56845 5.46205,-0.0183825 3.50962,1.60883e-4 Z" />
      <path
         style="fill:#ecf0f1;fill-rule:evenodd;stroke:#003bc3;stroke-width:0;stroke-linecap:square;stroke-linejoin:miter;stroke-miterlimit:2"
         inkscape:connector-curvature="0"
         id="shape3"
         transform="translate(15.7706,28.1281)"
         stroke-miterlimit="2.00000000000"
         d="M 3.50974,1.60888e-4 C 1.55723,0.0187049 -0.0122904,1.61325 7.25374e-5,3.56578 0.0124354,5.51828 1.60203,7.09284 3.5546,7.08667 5.50716,7.08048 7.08663,5.47346 7.08663,3.5209 7.0619,1.5685 5.46222,-0.0183831 3.50974,1.60888e-4 Z" />
      <path
         style="fill:#ecf0f1;fill-rule:evenodd;stroke:#003bc3;stroke-width:0;stroke-linecap:square;stroke-linejoin:miter;stroke-miterlimit:2"
         inkscape:connector-curvature="0"
         id="shape4"
         transform="translate(15.0372,1.82714)"
         stroke-miterlimit="2.00000000000"
         d="M 3.50974,1.60888e-4 C 1.55723,0.0187049 -0.0122904,1.61325 7.25374e-5,3.56578 0.0124354,5.51828 1.60203,7.09284 3.5546,7.08667 5.50716,7.08048 7.08663,5.47346 7.08663,3.5209 7.0619,1.5685 5.46222,-0.0183831 3.50974,1.60888e-4 Z" />
      <path
         style="fill:#ecf0f1;fill-rule:evenodd;stroke:#003bc3;stroke-width:0;stroke-linecap:square;stroke-linejoin:miter;stroke-miterlimit:2"
         inkscape:connector-curvature="0"
         id="shape31"
         transform="translate(22.7788,12.9278)"
         stroke-miterlimit="2.00000000000"
         d="M 3.50973,1.62494e-4 C 1.55723,0.0188917 -0.0122904,1.62937 7.25373e-5,3.6014 0.0124354,5.57342 1.60203,7.1637 3.55461,7.15747 5.50715,7.15122 7.08663,5.52814 7.08663,3.55607 7.0619,1.58418 5.46221,-0.0185667 3.50973,1.62494e-4 Z" />
    </g>
  </g>
</svg>
