<?xml version="1.0" encoding="UTF-8" standalone="no"?>
<!-- Created with Inkscape (http://www.inkscape.org/) -->

<svg
   xmlns:dc="http://purl.org/dc/elements/1.1/"
   xmlns:cc="http://creativecommons.org/ns#"
   xmlns:rdf="http://www.w3.org/1999/02/22-rdf-syntax-ns#"
   xmlns:svg="http://www.w3.org/2000/svg"
   xmlns="http://www.w3.org/2000/svg"
   xmlns:sodipodi="http://sodipodi.sourceforge.net/DTD/sodipodi-0.dtd"
   xmlns:inkscape="http://www.inkscape.org/namespaces/inkscape"
   version="1.0"
   width="48"
   height="48"
   id="svg2408"
   style="display:inline"
   inkscape:version="0.48.4 r9939"
   sodipodi:docname="kmouth.svg">
  <defs
     id="defs128" />
  <sodipodi:namedview
     pagecolor="#ffffff"
     bordercolor="#666666"
     borderopacity="1"
     objecttolerance="10"
     gridtolerance="10"
     guidetolerance="10"
     inkscape:pageopacity="0"
     inkscape:pageshadow="2"
     inkscape:window-width="632"
     inkscape:window-height="691"
     id="namedview68"
     showgrid="false"
     inkscape:zoom="8.822647"
     inkscape:cx="26.924948"
     inkscape:cy="20.953952"
     inkscape:window-x="1119"
     inkscape:window-y="62"
     inkscape:window-maximized="0"
     inkscape:current-layer="svg2408" />
  <metadata
     id="metadata2413">
    <rdf:RDF>
      <cc:Work
         rdf:about="">
        <dc:format>image/svg+xml</dc:format>
        <dc:type
           rdf:resource="http://purl.org/dc/dcmitype/StillImage" />
        <dc:title />
      </cc:Work>
    </rdf:RDF>
  </metadata>
  <g
     transform="matrix(0.18005215,0,0,0.20362404,-3.8861957,-4.0742514)"
     id="g4107"
     style="fill:#2c3e50">
    <g
       transform="matrix(0.84804,0,0,0.84804,5.1164,20.417)"
       id="g4109"
       style="fill:#2c3e50">
      <path
         d="m 265.81,47.328 c -0.45,10e-4 -0.9,-0.001 -1.36,0.01 -10.39,0.232 -15.83,4.15 -20.01,8.009 -5.11,4.711 -12.61,3.194 -22.43,-2.598 -32.97,-6.559 -67.32,6.186 -97.49,27.224 -26.368,18.386 -49.484,38.067 -69.264,48.247 -10.556,5.43 -18.994,7.52 -19.019,12.41 -6.028,6.82 -3.164,10.07 -2.924,10.33 5.663,6.07 55.461,27.21 81.527,45.86 22.91,16.39 51.94,29.39 70.5,30.29 18.27,0.89 64.77,7.15 93.71,-15 21.62,-15.16 42.58,-62.93 10.47,-86.92 21.98,-6.84 30.09,-25.253 25.77,-42.414 C 311.05,65.884 294.23,47.281 265.81,47.328 z M 249.22,100.5 c 4.27,3.65 8.78,4.26 13.31,4.5 2.71,6.15 4.77,11.45 4.71,16.72 -0.06,6.43 -4.73,6.78 -7.16,7.19 9.25,3.15 -1.02,-2.72 -7.2,8.17 0.61,9.93 -0.72,17.78 -7.29,19.45 -4.8,1.22 -14.69,1.57 -21.89,0.63 -8.57,-0.92 -16.95,-2.41 -27.02,-1.01 -10.19,1.42 -20.56,2.08 -32.54,-5.61 -8.63,-5.54 -21.38,-3.83 -30.58,-4.26 -5.34,-2.22 -10.69,-1.77 -14.24,-1.99 -3.72,-1.73 -7.43,-4.32 -14.85,-5.52 -4.3,-2.02 -8.716,-3.98 -13.757,-5.63 -0.19,-0.44 -0.661,-0.92 1.462,-1.11 5.446,-0.26 8.855,-3.94 8.815,-3.91 12.97,-2.61 23.02,-8.49 33.73,-13.61 9.9,0.47 20.21,0.7 47.34,-9.01 6.19,1.49 11.61,-0.63 17.02,-2.8 4.6,1.94 11.02,0.83 18.01,-1.2 4.84,1.03 9.64,1.61 14.21,0 11.6,1.75 17.92,-1.04 17.92,-1 z"
         id="path4155"
         inkscape:connector-curvature="0"
         style="fill:#2c3e50;fill-rule:evenodd" />
    </g>
  </g>
  <g
     transform="matrix(0.15196236,0,0,0.16558143,-3.0793668,0.41916465)"
     id="g2525">
    <path
       d="m 293.08,134.99 c 0,32.82 -47.43,59.45 -105.88,59.45 -58.45,0 -105.88,-26.63 -105.88,-59.45 -0.004,-32.82 47.43,-59.451 105.88,-59.451 58.45,0 105.88,26.631 105.88,59.451 z"
       id="path3329"
       inkscape:connector-curvature="0"
       style="fill:#2c3e50;fill-rule:evenodd" />
    <g
       transform="matrix(0.29804,0,0,0.29804,21.297,35.348)"
       id="g3238"
       style="fill-rule:evenodd">
      <path
         style="fill:#ecf0f1;stroke:#7f8c8d;stroke-width:1.48700321;stroke-miterlimit:4;stroke-opacity:1;stroke-dasharray:none"
         d="m 707.21,345.73 c -3.51,-7.31 35.82,-35.16 50.34,-26.12 l 25.17,15.67 -1.42,60.32 -35.15,25.65 L 707.21,407 v -61.27 z"
         id="path3218"
         inkscape:connector-curvature="0" />
    </g>
    <path
       style="fill:#ecf0f1;fill-rule:evenodd;stroke:#7f8c8d;stroke-width:0.44318646;stroke-miterlimit:4;stroke-opacity:1;stroke-dasharray:none"
       d="m 218.44,146.32 c 0.57,-0.9 9.54,-18.38 20.77,-8.67 3.95,3.41 2.26,13.44 1.74,19.28 l -23.36,8.21 0.85,-18.82 z"
       id="path3406"
       inkscape:connector-curvature="0" />
    <path
       style="fill:#ecf0f1;fill-rule:evenodd;stroke:#7f8c8d;stroke-width:0.44318646;stroke-miterlimit:4;stroke-opacity:1;stroke-dasharray:none"
       d="m 220.03,138.79 c 4.1,2.12 2.79,11.23 2,19.67 l -27.43,-0.15 0.15,-11.26 c -0.59,-0.26 0.18,-6.01 4.46,-6.11 0,0 5.61,-0.4 8.81,-1.5 2.43,-0.84 12.01,-0.65 12.01,-0.65 z"
       id="path3404"
       inkscape:connector-curvature="0" />
    <path
       style="fill:#ecf0f1;fill-opacity:1;fill-rule:evenodd;stroke:#7f8c8d;stroke-miterlimit:4;stroke-opacity:1;stroke-dasharray:none"
       d="m 130.86,145.56 c 3.99,-2.27 8.3,-4.1 14.01,-4 5.14,0.59 12.6,0.62 15.42,1.8 4.84,2.04 3.91,7.45 3.95,7.51 l -33.38,-5.31 z"
       id="path3400"
       inkscape:connector-curvature="0" />
    <path
       style="fill:#ecf0f1;fill-rule:evenodd;stroke:#7f8c8d;stroke-width:0.44318646;stroke-miterlimit:4;stroke-opacity:1;stroke-dasharray:none"
       d="m 161.79,153.41 c 1.65,-4.11 -0.17,-10.65 6.06,-11.41 9.85,-1.2 25.29,0.29 26.42,1.15 0.81,0.63 1.45,9.51 0.2,13.87 -11.99,1.67 -22.05,-1.7 -32.68,-3.61 z"
       id="path3402"
       inkscape:connector-curvature="0" />
    <g
       transform="matrix(0.29804,0,0,0.29804,21.297,35.348)"
       id="g3587"
       style="fill-rule:evenodd">
      <path
         sodipodi:nodetypes="cccccc"
         d="m 303.75,287.69 55.24,19.14 c 13.6109,2.82494 21.94047,6.31808 37.57086,-0.7065 30.33557,-4.79376 44.46086,-20.78145 46.43086,-25.94145 -9.15082,-13.11471 15.06214,-17.6553 13.48824,-32.73387 C 392.68996,230.74818 342.6,262 303.75,287.69 z"
         id="path3386"
         inkscape:connector-curvature="0"
         style="fill:#ecf0f1;fill-opacity:1;stroke:none" />
      <path
         d="m 403.72,251.25 c -40.34,0.23 -70.83,17.17 -99.97,36.44 l 47.97,16.62 61.03,-43.12 -0.63,-9.72 c -2.84,-0.15 -5.65,-0.24 -8.4,-0.22 z"
         id="path3582"
         inkscape:connector-curvature="0"
         style="fill:#ecf0f1" />
    </g>
    <g
       transform="matrix(0.29804,0,0,0.29804,21.297,35.348)"
       id="g3624"
       style="fill-rule:evenodd">
      <path
         d="m 735.1,288.02 c 10.02,9.84 19.57,8.93 28.97,4.28 3.56,3.6 9.43,4.45 16.15,4.27 11.49,-11.61 15.81,-34.14 14.01,-66.01 l -25.18,-19.24 -25.41,2.85 -8.54,73.85 z"
         id="path3396"
         inkscape:connector-curvature="0"
         style="fill:#ecf0f1;stroke:#7f8c8d;stroke-width:1.48700321;stroke-miterlimit:4;stroke-opacity:1;stroke-dasharray:none" />
      <path
         d="m 769.06,211.31 -25.4,2.85 -1.88,16.25 c 16.94,7.35 33.66,16.29 46.53,53.68 5.38,-12.66 7.2,-30.7 5.91,-53.53 l -25.16,-19.25 z"
         id="path3612"
         inkscape:connector-curvature="0"
         style="fill:#ecf0f1" />
      <path
         d="m 779.41,219.22 c 5.14,19.42 10.14,38.8 11.56,57.16 3.3,-11.91 4.3,-27.28 3.25,-45.82 l -14.81,-11.34 z"
         id="path3619"
         inkscape:connector-curvature="0"
         style="fill:#ecf0f1" />
    </g>
    <path
       d="m 249.11,122.2 c 4.6,-7.62 5.34,-15.44 4.91,-23.322"
       id="path3196"
       inkscape:connector-curvature="0"
       style="fill:#ecf0f1;fill-opacity:1;stroke:none" />
    <g
       transform="matrix(0.29804,0,0,0.29804,21.297,35.348)"
       id="g3192"
       style="fill-rule:evenodd">
      <path
         style="fill:#ecf0f1;stroke:#7f8c8d;stroke-width:1.48700321;stroke-miterlimit:4;stroke-opacity:1;stroke-dasharray:none"
         d="m 624.81,211.45 -16.45,63.47 c 22.48,19.8 42.54,42.03 68.51,29.56 14.73,-4.14 27.52,-9.57 57.76,-3.36 8.07,-0.37 14.98,-12.96 17.8,-28.21 4.09,-22.09 4.31,-45.19 1.01,-64.15 l -128.63,2.69 z"
         id="path3394"
         inkscape:connector-curvature="0" />
      <path
         d="m 753.44,208.75 -128.63,2.69 -13.22,51 c 3.27,-1.06 5.5,-13.88 61.9,-29.28 69.57,-19 77.31,7.86 81.95,14.09 0.71,-13.59 0.02,-26.84 -2,-38.5 z"
         id="path3567"
         inkscape:connector-curvature="0"
         style="fill:#ecf0f1" />
    </g>
    <path
       d="m 265.81,47.328 c -0.45,10e-4 -0.9,-0.001 -1.36,0.01 -10.39,0.232 -15.83,4.15 -20.01,8.009 -5.11,4.711 -12.61,3.194 -22.43,-2.598 -32.97,-6.559 -67.32,6.186 -97.49,27.224 -26.368,18.386 -49.484,38.067 -69.264,48.247 -10.556,5.43 -18.994,7.52 -19.019,12.41 -6.028,6.82 -3.164,10.07 -2.924,10.33 5.663,6.07 55.461,27.21 81.527,45.86 22.91,16.39 51.94,29.39 70.5,30.29 18.27,0.89 64.77,7.15 93.71,-15 21.62,-15.16 42.58,-62.93 10.47,-86.92 21.98,-6.84 30.09,-25.253 25.77,-42.414 C 311.05,65.884 294.23,47.281 265.81,47.328 z M 249.22,100.5 c 4.27,3.65 8.78,4.26 13.31,4.5 2.71,6.15 4.77,11.45 4.71,16.72 -0.06,6.43 -4.73,6.78 -7.16,7.19 9.25,3.15 -1.02,-2.72 -7.2,8.17 0.61,9.93 -0.72,17.78 -7.29,19.45 -4.8,1.22 -14.69,1.57 -21.89,0.63 -8.57,-0.92 -16.95,-2.41 -27.02,-1.01 -10.19,1.42 -20.56,2.08 -32.54,-5.61 -8.63,-5.54 -21.38,-3.83 -30.58,-4.26 -5.34,-2.22 -10.69,-1.77 -14.24,-1.99 -3.72,-1.73 -7.43,-4.32 -14.85,-5.52 -4.3,-2.02 -8.716,-3.98 -13.757,-5.63 -0.19,-0.44 -0.661,-0.92 1.462,-1.11 5.446,-0.26 8.855,-3.94 8.815,-3.91 12.97,-2.61 23.02,-8.49 33.73,-13.61 9.9,0.47 20.21,0.7 47.34,-9.01 6.19,1.49 11.61,-0.63 17.02,-2.8 4.6,1.94 11.02,0.83 18.01,-1.2 4.84,1.03 9.64,1.61 14.21,0 11.6,1.75 17.92,-1.04 17.92,-1 z"
       id="path3388"
       inkscape:connector-curvature="0"
       style="fill:#e74c3c;fill-rule:evenodd" />
    <path
       d="m 103.43,138.92 c -0.93,-1.55 7.13,-6.35 12.81,-0.57 2.55,1.2 3.3,1.17 8.1,3.91 2.82,0.4 3.79,1.98 5.25,3.25 l -9.66,3.3 -16.5,-9.89 z"
       id="path3398"
       inkscape:connector-curvature="0"
       style="fill:#bdc3c7;fill-rule:evenodd;stroke:#7f8c8d;stroke-width:1.68022978" />
    <g
       transform="matrix(0.29804,0,0,0.29804,21.297,35.348)"
       id="g3561"
       style="fill-rule:evenodd">
      <path
         sodipodi:nodetypes="ccccccc"
         style="fill:#ecf0f1;stroke:#7f8c8d;stroke-width:1.48700321;stroke-miterlimit:4;stroke-opacity:1;stroke-dasharray:none"
         d="m 419.25,242.67 c 29.40043,67.51931 42.31399,66.26312 85.49,72.66 38.58,6.92 45.26086,4.72675 57.40086,0.78675 C 614.34219,309.33662 609.77,296.53 617.31,284.94 c 1.54,-18.88 1.77,-39.55 -0.48,-62.22 L 495.72,208.94 z"
         id="path3392"
         inkscape:connector-curvature="0" />
      <path
         sodipodi:nodetypes="cccccccc"
         d="m 495.72,208.94 -84.13953,37.86506 c 10.79,11.93 17.62176,25.03832 28.69176,37.98832 9.11,-18.27 33.03777,-45.44338 79.78777,-38.32338 28.82,4.39 69.27,-4.66 96.91,-6.66 l 1.12,0.31 c -0.27,-5.67 -0.66,-11.46 -1.25,-17.4 z"
         id="path3556"
         inkscape:connector-curvature="0"
         style="fill:#ecf0f1" />
    </g>
    <path
       d="m 92.536,136.18 c 4.158,-2 8.244,-4.14 12.014,-9.81 -6.931,0.36 -22.073,1.31 -12.014,9.81 z"
       id="path3380"
       inkscape:connector-curvature="0"
       style="fill:#bdc3c7;fill-rule:evenodd;stroke:#bdc3c7;stroke-width:1.12015295px;stroke-linecap:round;stroke-linejoin:round" />
    <path
       d="m 256.56,128.2 -4.67,4.81 c -0.33,0.23 1.35,11.45 0.42,14.44 -0.73,2.38 -4.67,8.07 -4.67,8.07 6.08,-2.15 11.71,-6.8 16.28,-11.04 -1.04,-11.37 5.27,-17.46 13.59,-22.09 -5.6,-5.84 -8.51,-12.09 -9.2,-18.68 -3.97,-0.76 -7.53,-1.11 -9.63,0 l -2.12,24.49 z"
       id="path3252"
       inkscape:connector-curvature="0"
       style="fill:#c0392b;fill-rule:evenodd" />
    <path
       style="fill:#c0392b;fill-opacity:1;fill-rule:evenodd"
       d="m 251.89,123.67 c 0.51,0 0.86,1.98 2.55,3.25 5.07,3.83 10.61,0.85 11.6,-3.11 1,-3.96 -0.7,-20.38 -2.69,-20.81 -1.98,-0.42 -5.23,1.42 -5.23,1.42 -1.06,7.27 0.52,16.43 -6.23,19.25 z"
       id="path3254"
       inkscape:connector-curvature="0" />
    <path
       style="fill:#2c3e50;fill-opacity:0.99215686;fill-rule:evenodd"
       d="m 80.5,131.94 c -5.568,-1.01 -19.625,1.36 -33.805,5.84 l 0.028,0.08 c 18.896,-5.96 33.671,-5.16 45.846,-4.03 0.463,-2.06 -6.5,-0.89 -12.069,-1.89 z"
       id="path3263"
       inkscape:connector-curvature="0" />
    <path
       d="m 274.8,139.01 c -7.93,3.4 -14.87,8.28 -26.51,17.28 l -0.74,-0.64 c 11.64,-9 18.7,-13.92 27.29,-16.46 l -0.04,-0.18 z"
       id="path3269"
       inkscape:connector-curvature="0"
       style="fill-rule:evenodd" />
    <path
       d="m 284.04,91.311 c -3.92,2.557 -7.19,5.526 -11.31,7.905 -4.12,2.374 -9.08,4.174 -16.42,4.374 l 0.18,0.74 c 7.39,-0.2 12.27,-2.26 16.43,-4.661 l 11.12,-8.358 z"
       id="path3275"
       inkscape:connector-curvature="0"
       style="fill-rule:evenodd" />
    <path
       d="m 256.64,161.46 -0.25,0.16 c 13.71,13.45 10.3,20.79 10.99,29.17 l 0.29,-0.05 c -1.71,-8.16 -1.69,-15 -11.03,-29.28 z"
       id="path3281"
       inkscape:connector-curvature="0"
       style="fill:#2c3e50;fill-rule:evenodd" />
    <path
       d="m 233.92,162.52 -0.15,0.08 c 4.76,16.94 1.89,22.92 0.92,31.12 l 0.15,0.04 c 0.43,-8.3 1.52,-14.82 -0.92,-31.24 z"
       id="path3287"
       inkscape:connector-curvature="0"
       style="fill:#2c3e50;fill-rule:evenodd" />
    <path
       d="m 245.46,163.46 -0.11,0.11 c 6.67,15.67 5.31,22.1 5.86,30.33 h 0.13 c -1.01,-8.22 -1.2,-14.82 -5.88,-30.44 z"
       id="path3289"
       inkscape:connector-curvature="0"
       style="fill:#2c3e50;fill-rule:evenodd" />
    <path
       d="m 272.53,156.3 -0.16,0.15 c 11.1,8.24 9.54,14.03 10.98,20.09 l 0.19,-0.08 c -2.11,-5.78 -2.87,-10.79 -11.01,-20.16 z"
       id="path3291"
       inkscape:connector-curvature="0"
       style="fill:#2c3e50;fill-rule:evenodd" />
    <path
       d="m 291.74,136.28 -0.15,0.15 c 11.1,8.24 9.54,14.03 10.98,20.09 l 0.19,-0.07 c -2.12,-5.79 -2.88,-10.8 -11.02,-20.17 z"
       id="path3293"
       inkscape:connector-curvature="0"
       style="fill:#2c3e50;fill-rule:evenodd" />
    <path
       d="m 118.43,144.29 0.16,0.15 c -11.11,8.24 -9.55,14.03 -10.98,20.09 l -0.2,-0.08 c 2.12,-5.78 2.88,-10.8 11.02,-20.16 z"
       id="path3295"
       inkscape:connector-curvature="0"
       style="fill:#2c3e50;fill-rule:evenodd" />
    <path
       d="m 140.03,145.89 0.18,0.19 c -12.9,10.44 -11.08,17.77 -12.75,25.45 l -0.23,-0.09 c 2.46,-7.33 3.34,-13.68 12.8,-25.55 z"
       id="path3297"
       inkscape:connector-curvature="0"
       style="fill:#2c3e50;fill-rule:evenodd" />
    <path
       d="m 254.84,100.91 -0.25,-0.17 c 14.94,-7.949 10.54,-24.66 10.99,-29.169 l 0.29,0.055 c -1.56,8.125 0.06,14.562 -11.03,29.284 z"
       id="path3299"
       inkscape:connector-curvature="0"
       style="fill:#2c3e50;fill-rule:evenodd" />
    <path
       d="m 185.38,104.71 -0.25,-0.17 c 13.71,-13.443 10.29,-20.786 10.99,-29.166 l 0.29,0.056 c -1.72,8.161 -1.7,14.999 -11.03,29.28 z"
       id="path3301"
       inkscape:connector-curvature="0"
       style="fill:#2c3e50;fill-rule:evenodd" />
    <path
       d="m 195.39,102.91 -0.25,-0.17 c 13.71,-13.444 10.29,-20.788 10.99,-29.168 l 0.28,0.056 c -1.71,8.162 -1.69,14.999 -11.02,29.282 z"
       id="path3303"
       inkscape:connector-curvature="0"
       style="fill:#2c3e50;fill-rule:evenodd" />
    <path
       d="m 130.49,114.92 0.25,-0.17 C 117.03,101.31 120.45,93.964 119.75,85.584 l -0.29,0.056 c 1.72,8.161 1.7,15 11.03,29.28 z"
       id="path3305"
       inkscape:connector-curvature="0"
       style="fill:#2c3e50;fill-rule:evenodd" />
    <path
       d="m 276.78,122.56 v 0.1 c 6.57,0.18 10.04,1.07 13.03,2.55 -0.93,-2.44 -8.48,-3.12 -13.03,-2.65 z"
       id="path3537"
       inkscape:connector-curvature="0"
       style="fill-rule:evenodd" />
  </g>
</svg>
