<?xml version="1.0" encoding="UTF-8" standalone="no"?>
<!-- Created with Inkscape (http://www.inkscape.org/) -->

<svg
   xmlns:dc="http://purl.org/dc/elements/1.1/"
   xmlns:cc="http://creativecommons.org/ns#"
   xmlns:rdf="http://www.w3.org/1999/02/22-rdf-syntax-ns#"
   xmlns:svg="http://www.w3.org/2000/svg"
   xmlns="http://www.w3.org/2000/svg"
   xmlns:sodipodi="http://sodipodi.sourceforge.net/DTD/sodipodi-0.dtd"
   xmlns:inkscape="http://www.inkscape.org/namespaces/inkscape"
   width="48"
   height="48"
   id="svg2"
   version="1.1"
   inkscape:version="0.91 r13725"
   sodipodi:docname="octopi_yellow.svg">
  <defs
     id="defs4">
    <linearGradient
       id="linearGradient1374">
      <stop
         style="stop-color:#fef3c8;stop-opacity:1"
         offset="0"
         id="stop1376" />
      <stop
         style="stop-color:#ffffff;stop-opacity:1;"
         offset="1"
         id="stop1378" />
    </linearGradient>
    <linearGradient
       id="linearGradient3832">
      <stop
         style="stop-color:#1a1a1a;stop-opacity:1;"
         offset="0"
         id="stop3834" />
      <stop
         style="stop-color:#474747;stop-opacity:1;"
         offset="1"
         id="stop3836" />
    </linearGradient>
  </defs>
  <sodipodi:namedview
     id="base"
     pagecolor="#ffffff"
     bordercolor="#666666"
     borderopacity="1.0"
     inkscape:pageopacity="0.0"
     inkscape:pageshadow="2"
     inkscape:zoom="16"
     inkscape:cx="16.442708"
     inkscape:cy="19.567017"
     inkscape:document-units="px"
     inkscape:current-layer="layer1"
     showgrid="true"
     inkscape:window-width="1366"
     inkscape:window-height="744"
     inkscape:window-x="0"
     inkscape:window-y="24"
     inkscape:window-maximized="1">
    <inkscape:grid
       type="xygrid"
       id="grid3232" />
  </sodipodi:namedview>
  <metadata
     id="metadata7">
    <rdf:RDF>
      <cc:Work
         rdf:about="">
        <dc:format>image/svg+xml</dc:format>
        <dc:type
           rdf:resource="http://purl.org/dc/dcmitype/StillImage" />
        <dc:title></dc:title>
      </cc:Work>
    </rdf:RDF>
  </metadata>
  <g
     inkscape:label="Capa 1"
     inkscape:groupmode="layer"
     id="layer1"
     transform="translate(0,-1004.3622)">
    <rect
       style="fill:#4d4d4d;fill-opacity:1;stroke:none"
       id="rect2991-1"
       width="40"
       height="39.988766"
       x="4"
       y="-1048.3622"
       ry="0"
       transform="scale(1,-1)" />
    <path
       style="opacity:0.5;fill:#2c3e50;fill-opacity:1;stroke:none"
       d="m 4,1048.3622 0,0 c 20,-1 20,-1 40,0 z"
       id="path3257"
       inkscape:connector-curvature="0"
       sodipodi:nodetypes="cccc" />
    <path
       sodipodi:nodetypes="cccc"
       inkscape:connector-curvature="0"
       id="path4027"
       d="m 4.0390625,1008.37 0,0 c 19.9999995,1 19.9999995,1 39.9999995,0 z"
       style="opacity:1;fill:#bdc3c7;fill-opacity:1;stroke:none" />
    <g
       transform="matrix(-0.18963677,0,0,0.19457651,130.88494,1013.4361)"
       id="g4003"
       style="fill:#000000;fill-opacity:0.49803922">
      <path
         inkscape:connector-curvature="0"
         id="path3084"
         d="m 564.47212,-8.415978 c -34.65662,0 -63.48959,23.838358 -66.83614,54.39621 l 0,6.071446 0,96.748242 c 0,6.67815 5.98574,12.09354 13.36722,12.09354 7.38149,0 13.36723,-5.41539 13.36723,-12.09354 0,-6.67811 5.98575,-12.09353 13.36722,-12.09353 7.38149,0 13.36724,5.41542 13.36724,12.09353 0,6.67815 5.98575,12.09354 13.36723,12.09354 7.3815,0 13.36722,-5.41539 13.36722,-12.09354 0,-6.67811 5.98575,-12.09353 13.36722,-12.09353 7.38149,0 13.36724,5.41542 13.36724,12.09353 0,6.67815 5.98575,12.09354 13.36723,12.09354 7.38147,0 13.36722,-5.41539 13.36722,-12.09354 l 0,-96.748242 C 627.96168,21.493811 599.12874,-8.415978 564.47212,-8.415978 Z m -33.39079,48.374126 c 11.07221,0 20.02356,8.098415 20.02356,18.115614 0,10.017201 -8.95135,18.164979 -20.02356,18.164979 -11.07221,0 -20.07813,-8.147778 -20.07813,-18.164979 0,-10.017199 9.00592,-18.115614 20.07813,-18.115614 z m 63.45341,0 c 11.07221,0 20.02356,8.098415 20.02356,18.115614 0,10.017201 -8.95135,18.164979 -20.02356,18.164979 -11.07221,0 -20.02357,-8.147778 -20.02357,-18.164979 0,-10.017199 8.95136,-18.115614 20.02357,-18.115614 z"
         style="fill:#f1c40f;fill-opacity:1;fill-rule:evenodd;stroke:none" />
      <ellipse
         transform="matrix(0.11447383,0,0,0.07345487,545.01322,27.520312)"
         id="path4035"
         style="fill:#ecf0f1;fill-opacity:1;fill-rule:evenodd;stroke:none"
         cx="385"
         cy="433.00003"
         rx="45"
         ry="65" />
      <ellipse
         style="fill:#ecf0f1;fill-opacity:1;fill-rule:evenodd;stroke:none"
         id="path4001"
         transform="matrix(0.11447384,0,0,0.07636866,480.60154,26.448038)"
         cx="385"
         cy="433.00003"
         rx="45"
         ry="65" />
    </g>
  </g>
</svg>
