<?xml version="1.0" encoding="UTF-8" standalone="no"?>
<!-- Created with Inkscape (http://www.inkscape.org/) -->

<svg
   xmlns:dc="http://purl.org/dc/elements/1.1/"
   xmlns:cc="http://creativecommons.org/ns#"
   xmlns:rdf="http://www.w3.org/1999/02/22-rdf-syntax-ns#"
   xmlns:svg="http://www.w3.org/2000/svg"
   xmlns="http://www.w3.org/2000/svg"
   xmlns:sodipodi="http://sodipodi.sourceforge.net/DTD/sodipodi-0.dtd"
   xmlns:inkscape="http://www.inkscape.org/namespaces/inkscape"
   width="48"
   height="48"
   id="svg2"
   version="1.1"
   inkscape:version="0.91 r13725"
   sodipodi:docname="okular.svg">
  <defs
     id="defs4">
    <linearGradient
       id="linearGradient1374">
      <stop
         style="stop-color:#fef3c8;stop-opacity:1"
         offset="0"
         id="stop1376" />
      <stop
         style="stop-color:#ffffff;stop-opacity:1;"
         offset="1"
         id="stop1378" />
    </linearGradient>
  </defs>
  <sodipodi:namedview
     id="base"
     pagecolor="#ffffff"
     bordercolor="#666666"
     borderopacity="1.0"
     inkscape:pageopacity="0.0"
     inkscape:pageshadow="2"
     inkscape:zoom="16"
     inkscape:cx="20.330882"
     inkscape:cy="19.567017"
     inkscape:document-units="px"
     inkscape:current-layer="layer1"
     showgrid="true"
     inkscape:window-width="1366"
     inkscape:window-height="744"
     inkscape:window-x="0"
     inkscape:window-y="24"
     inkscape:window-maximized="1">
    <inkscape:grid
       type="xygrid"
       id="grid3232" />
  </sodipodi:namedview>
  <metadata
     id="metadata7">
    <rdf:RDF>
      <cc:Work
         rdf:about="">
        <dc:format>image/svg+xml</dc:format>
        <dc:type
           rdf:resource="http://purl.org/dc/dcmitype/StillImage" />
        <dc:title />
      </cc:Work>
    </rdf:RDF>
  </metadata>
  <g
     inkscape:label="Capa 1"
     inkscape:groupmode="layer"
     id="layer1"
     transform="translate(0,-1004.3622)">
    <rect
       style="fill:#2980b9;fill-opacity:1;stroke:none"
       id="rect2991-1"
       width="40"
       height="39.988766"
       x="4"
       y="-1048.3622"
       ry="0"
       transform="scale(1,-1)" />
    <path
       style="opacity:0.5;fill:#2c3e50;fill-opacity:1;stroke:none"
       d="m 4,1048.3622 0,0 c 20,-1 20,-1 40,0 z"
       id="path3257"
       inkscape:connector-curvature="0"
       sodipodi:nodetypes="cccc" />
    <path
       sodipodi:nodetypes="cccc"
       inkscape:connector-curvature="0"
       id="path4027"
       d="m 4.0390625,1008.37 0,0 c 19.9999995,1 19.9999995,1 39.9999995,0 z"
       style="opacity:1;fill:#bdc3c7;fill-opacity:1;stroke:none" />
    <g
       id="g6126"
       transform="matrix(0.73737736,0,0,0.79034008,39.940218,1040.8563)">
      <g
         id="g2385"
         transform="matrix(0.17375457,0,0,0.17375457,-57.328327,-59.707603)" />
      <rect
         style="fill:#2c3e50;fill-opacity:1;fill-rule:evenodd;stroke-width:50pt"
         id="rect2317"
         y="29.891415"
         x="14.797669"
         ry="1.8134522"
         rx="0.023337612"
         height="3.6269045"
         width="1.1635927" />
      <path
         inkscape:connector-curvature="0"
         style="fill:#e67e22;fill-opacity:1;fill-rule:evenodd;stroke-width:2.25"
         id="path2295"
         d="m 7.7596465,27.723996 -0.265304,1.061222 c -0.127295,0.509173 0.448645,1.210855 0.972785,1.238082 l 6.8094795,0.353741 c 0.645636,0.03355 1.432904,-0.680261 1.414956,-1.326519 l -0.08844,-3.183651 c -0.01003,-0.359692 0.259662,-0.902323 0.619044,-0.884349 l 5.306088,0.265304 -2.033999,-5.836702 -4.156437,3.625828 c -0.75527,0.65886 -1.446265,1.65127 -1.414955,2.653045 l 0.08844,2.829917 c 0.0085,0.271641 -0.258862,0.614654 -0.530608,0.619044 l -5.4829545,0.08843 c -0.278063,0.0046 -0.79542,-0.178348 -0.707474,-0.44217 l 0.353733,-1.061222 -0.884348,0 z" />
      <path
         inkscape:connector-curvature="0"
         style="fill:#e67e22;fill-opacity:1;fill-rule:evenodd;stroke:#e67e22;stroke-width:0.17375457pt"
         id="path2280"
         d="M 25.800347,2.8738215 C 33.051998,0.27973319 39.419301,7.6493026 42.072345,14.016606 44.725389,20.560782 44.371648,30.347559 37.827472,33.649128 30.929562,36.950698 23.32417,30.465477 20.494259,22.860085 17.664341,15.431561 18.725563,5.2910432 25.800347,2.8738215 Z" />
      <path
         inkscape:connector-curvature="0"
         style="fill:#d35400;fill-opacity:1;fill-rule:evenodd;stroke-width:0.90176554pt"
         id="path2281"
         d="M 26.301814,4.8212589 C 32.841102,2.4820026 38.58292,9.1276236 40.975338,14.869434 43.367764,20.770747 43.048774,29.596128 37.14746,32.573367 30.927163,35.550611 24.068884,29.702467 21.516963,22.844182 18.965049,16.145399 19.922015,7.0010259 26.301814,4.8212589 Z" />
      <path
         inkscape:connector-curvature="0"
         style="fill:#2c3e50;fill-opacity:1;fill-rule:evenodd;stroke-width:1pt"
         id="path2315"
         d="m 7.8565235,32.642865 1.750918,0.875456 17.9469235,0.06252 -4.87756,-1.063056 -14.8202815,0.125066 z" />
      <path
         inkscape:connector-curvature="0"
         style="fill:#2c3e50;fill-opacity:1;fill-rule:evenodd;stroke-width:1pt"
         id="path2307"
         d="m 9.4823805,33.330727 6.8160785,0.125068 0.562796,-3.064116 0.750395,3.001582 10.067781,0.1876 -0.875455,2.06358 0.12506,7.316346 3.001575,2.063579 0.187601,1.188124 -22.3242215,0.125067 -1.4382515,-3.37677 0.1875942,-1.188129 2.2511863,-1.313184 0.250127,-5.940623 -1.31319,-1.875986 1.750924,0.687862 z" />
      <path
         inkscape:connector-curvature="0"
         style="fill:#2c3e50;fill-opacity:1;fill-rule:evenodd;stroke-width:1pt"
         id="path2459"
         d="m 10.105494,26.400708 c 0,0.472097 -0.8843015,1.539459 -1.7790425,1.539459 -0.894741,0 -1.462765,-1.067362 -1.462765,-1.539459 0,-0.472097 0.568024,-0.171055 1.462765,-0.171055 0.894741,0 1.7790425,-0.301042 1.7790425,0.171055 z" />
      <path
         inkscape:connector-curvature="0"
         style="fill:#e67e22;fill-opacity:1;fill-rule:evenodd;stroke-width:1pt"
         id="path2534"
         d="m 23.943541,14.275435 c -1.677552,1.239432 -2.226048,5.035732 -0.713457,9.143527 1.505202,4.048754 7.14661,4.09174 8.664281,2.812369 1.525062,-1.220337 3.803639,-4.393845 0.574826,-9.425966 -3.214031,-4.914046 -6.797259,-3.775731 -8.52565,-2.52993 z" />
    </g>
    <g
       id="g6273"
       transform="matrix(0.71998157,0,0,0.715769,7.172489,1010.8524)">
      <path
         inkscape:connector-curvature="0"
         inkscape:export-ydpi="1800.0059"
         inkscape:export-xdpi="1800.0059"
         inkscape:export-filename="/home/pinheiro/pics/oxygen/scalable/apps/rect2875.png"
         style="fill:#ecf0f1;fill-opacity:1"
         id="path3856"
         d="M 5.2863583,8.4705871 C 5.4143563,9.1102189 12.645229,45.244218 12.773163,45.883517 13.403906,45.75732 32.346576,41.96722 32.616,41.913315 L 41.555678,39.318736 40.310017,29.98706 C 40.257792,29.726485 34.949387,3.1990724 34.821719,2.5610839 34.186382,2.6882033 5.9213693,8.3435335 5.2863583,8.4705871 Z" />
      <path
         inkscape:connector-curvature="0"
         id="path6210"
         d="m 24.717024,4.5897415 c -2.248342,0.4498554 -2.596622,0.5168682 -5.079912,1.0137305 -1.698081,2.3635576 -2.982908,5.169823 -3.852171,8.413955 -1.342228,5.009249 -1.1277,8.98161 0.664556,11.928216 1.792242,2.946611 4.889386,4.415353 9.281255,4.415353 4.616333,0 8.618923,-1.443256 12.007063,-4.347772 0.518271,-0.444304 1.015603,-0.922713 1.486802,-1.419221 -0.317193,-1.585062 -0.543628,-2.719465 -1.013728,-5.068647 -1.011018,2.164562 -2.204315,3.991007 -3.593115,5.474138 -2.457021,2.623889 -5.265382,3.931019 -8.436475,3.931019 -3.016783,0 -5.041809,-1.324122 -6.071112,-3.976072 -1.011535,-2.665975 -0.895304,-6.315111 0.349172,-10.959543 1.020466,-3.808447 2.436137,-6.9471411 4.257665,-9.4051565 z"
         style="fill:#2980b9;fill-opacity:1" />
      <g
         transform="matrix(0.02443697,-0.00654786,0.00654786,0.02443697,47.135479,17.753597)"
         id="g4954">
        <path
           inkscape:connector-curvature="0"
           sodipodi:nodetypes="csssssccsssss"
           id="path4046"
           d="m -1954.2626,594.89081 c -1.9878,1.28631 -1.2854,4.74881 -0.9206,7.09444 3.1999,20.57609 12.771,39.7751 26.6949,56.64393 1.374,1.66463 3.6003,4.60805 5.4602,3.53592 101.1694,-58.31867 201.265,-117.09842 317.1502,-168.18574 81.9683,-36.13524 163.1406,-59.55617 248.6747,-73.28092 235.2218,-37.74356 503.6309,-38.94642 753.9166,-61.22361 9.724,0 17.3351,-7.01063 17.3351,-14.45998 0,-10.3204 -1.0555,-18.89875 -1.0555,-28.68609 0,-5.33863 -6.9195,-12.39222 -14.5617,-12.15901 -250.5313,7.6452 -515.1514,33.50667 -761.6412,54.0597 -113.7596,9.48561 -191.8738,34.5294 -271.4998,67.27429 -112.4549,46.2452 -220.9684,105.5941 -319.5529,169.38707 z"
           style="fill:#2c3e50;fill-opacity:1;fill-rule:evenodd;stroke:none" />
        <path
           inkscape:connector-curvature="0"
           style="fill:none;stroke:#2c3e50;stroke-width:20.10000038;stroke-linecap:butt;stroke-linejoin:miter;stroke-miterlimit:4;stroke-dasharray:none;stroke-opacity:1"
           d="m -2127.6998,482.33267 c 11.385,16.00223 30.2107,14.50896 38.023,14.04444 93.2473,-11.3528 181.809,-7.68439 253.3257,-6.40608 28.5779,0.51081 51.8154,-4.65464 66.5606,-4.25192 l 1.7593,-25.45128 c -15.241,-0.34657 -38.8745,-6.24493 -67.2886,-6.33919 -71.7731,-0.2381 -171.4672,15.99403 -249.5827,4.37749 l -42.6471,0 -0.1502,24.02654 z"
           id="path3956"
           sodipodi:nodetypes="ccsccsccc"
           clip-path=""
           transform="translate(174.99005,-141.0114)" />
        <path
           inkscape:connector-curvature="0"
           style="fill:#2c3e50;fill-opacity:1;fill-rule:evenodd;stroke:none"
           d="m -234.578,594.89081 c 1.9878,1.28631 1.2854,4.74881 0.9206,7.09444 -3.1999,20.57609 -12.77099,39.7751 -26.69489,56.64393 -1.374,1.66463 -3.6003,4.60805 -5.4602,3.53592 -101.1694,-58.31867 -201.265,-117.09842 -317.1502,-168.18574 -81.9683,-36.13524 -163.1406,-59.55617 -248.6747,-73.28092 -235.22181,-37.74356 -503.63091,-38.94642 -753.91661,-61.22361 -9.724,0 -17.3351,-7.01063 -17.3351,-14.45998 0,-10.3204 1.0555,-18.89875 1.0555,-28.68609 0,-5.33863 6.9195,-12.39222 14.5617,-12.15901 250.5313,7.6452 515.1514,33.50667 761.64121,54.0597 113.7596,9.48561 191.8738,34.5294 271.4998,67.27429 112.4549,46.2452 220.9684,105.5941 319.55289,169.38707 z"
           id="path2264"
           sodipodi:nodetypes="csssssccsssss" />
        <path
           inkscape:connector-curvature="0"
           transform="translate(723.83411,1.3241336e-6)"
           style="fill:#2c3e50;stroke:#2c3e50;stroke-width:35;stroke-linecap:butt;stroke-linejoin:miter;stroke-miterlimit:4;stroke-dasharray:none;stroke-opacity:1"
           d="m -2267.1314,169.8125 c -105.1198,-0.10643 -198.8702,24.50147 -281.5,62.03125 -25.425,11.54786 -47.4158,30.53273 -52.8437,54.0625 -9.2126,39.93605 -8.8832,82.67109 7.1875,134.5625 12.0312,38.84835 31.2606,62.62651 55.2812,79.28125 120.1169,83.28332 415.3055,103.19353 564.625,-19.21875 41.3,-33.85778 44.606,-93.18742 46.8438,-150.15625 0.9113,-23.20056 -6.4775,-50.94062 -15.625,-61.28125 -33.0048,-37.30936 -69.4682,-65.49363 -205.4063,-88.90625 -41.0076,-7.06274 -80.5404,-10.3365 -118.5625,-10.375 z m 0,12.625 c 36.1833,0.0366 73.7568,3.15382 112.7813,9.875 129.364,22.28036 161.0913,49.0887 192.5,84.59375 8.7051,9.84055 15.7422,33.23396 14.875,55.3125 -2.1295,54.21375 -5.2911,107.68587 -44.5938,139.90625 -142.0982,116.49228 -417.0046,97.53689 -531.3125,18.28125 -22.8589,-15.8493 -41.1443,-38.46791 -52.5937,-75.4375 -15.2936,-49.38188 -15.6108,-87.05781 -6.8438,-125.0625 5.1654,-22.39184 26.0858,-37.44811 50.2813,-48.4375 78.6337,-35.7148 164.8701,-59.13254 264.9062,-59.03125 z"
           id="path3582"
           sodipodi:nodetypes="cssssssssccssssssssc"
           clip-path="" />
        <path
           inkscape:connector-curvature="0"
           sodipodi:nodetypes="csccscc"
           id="path4042"
           d="m -1875.6215,342.20839 c 0,0 144.4092,3.8226 215.7644,3.39787 71.3552,-0.42473 69.6563,-5.0968 69.6563,-5.0968 l -3.3979,-16.98932 c 0,0 8.9194,-6.371 -61.1616,-5.0968 -70.081,1.2742 -219.1623,10.19359 -219.1623,10.19359 l -1.6989,13.59146 z"
           style="fill:#ecf0f1;fill-opacity:1;fill-rule:evenodd;stroke:#2c3e50;stroke-width:17px;stroke-linecap:butt;stroke-linejoin:miter;stroke-opacity:1;filter:url(#filter3902)"
           transform="matrix(-1,0,0,1,-2188.8406,0)" />
        <path
           inkscape:connector-curvature="0"
           transform="matrix(-1,0,0,1,-2555.7983,0)"
           clip-path=""
           sodipodi:nodetypes="cccccs"
           id="path4066"
           d="m -2318.8543,305.64517 c 10.6678,-4.33384 53.7173,-14.57613 79.692,-15.25421 -6.2348,15.29219 -4.0893,27.79094 -0.8495,39.92491 l -67.1078,2.5484 c -3.9642,2.25002 -7.9283,3.33133 -11.8925,9.34413 -8.3229,-8.35753 -8.6597,-32.98108 0.1578,-36.56323 z"
           style="fill:none;stroke:#2c3e50;stroke-width:30.20000076;stroke-linecap:butt;stroke-linejoin:miter;stroke-miterlimit:4;stroke-dasharray:none;stroke-opacity:1;filter:url(#filter3848)" />
        <path
           inkscape:connector-curvature="0"
           sodipodi:nodetypes="cccsscc"
           id="path2869"
           d="m -1216.7186,297.33167 c 64.1461,-48.45971 225.20277,-36.79153 246.27197,-1.20132 l -7.0872,4.98856 c -0.6359,-0.93106 -3.9242,-3.29904 -9.108,-6.99688 -36.47777,-26.02127 -169.69057,-24.08497 -211.36017,3.16745 -5.3043,3.46907 -10.5607,10.37235 -11.4961,11.97223 l -7.2205,-11.93004 z"
           style="fill:#2c3e50;fill-opacity:1;fill-rule:evenodd;stroke:#2c3e50;stroke-width:35px;stroke-linecap:butt;stroke-linejoin:miter;stroke-opacity:1" />
        <path
           inkscape:connector-curvature="0"
           sodipodi:nodetypes="cccccc"
           id="path4182"
           d="m -316.67745,273.27856 c -145.6266,-97.10725 -299.4748,-111.99814 -457.8615,-81.50413 -89.7445,26.11925 -203.7418,27.98562 -196.5688,151.02236 1.0305,65.94344 17.3318,127.18819 100.6816,167.80263 152.2984,68.905 311.9624,60.47048 477.0389,-4.79436 112.1456,-87.45935 72.3184,-139.36449 76.7098,-232.5265 z"
           style="fill:none;stroke:#2c3e50;stroke-width:50px;stroke-linecap:butt;stroke-linejoin:miter;stroke-opacity:1" />
      </g>
    </g>
  </g>
</svg>
