<?xml version="1.0" encoding="UTF-8" standalone="no"?>
<!-- Created using Karbon, part of Calligra: http://www.calligra.org/karbon -->

<svg
   xmlns:dc="http://purl.org/dc/elements/1.1/"
   xmlns:cc="http://creativecommons.org/ns#"
   xmlns:rdf="http://www.w3.org/1999/02/22-rdf-syntax-ns#"
   xmlns:svg="http://www.w3.org/2000/svg"
   xmlns="http://www.w3.org/2000/svg"
   xmlns:sodipodi="http://sodipodi.sourceforge.net/DTD/sodipodi-0.dtd"
   xmlns:inkscape="http://www.inkscape.org/namespaces/inkscape"
   width="38.4pt"
   height="38.4pt"
   id="svg2"
   version="1.1"
   inkscape:version="0.91 r13725"
   sodipodi:docname="qtdesigner.svg">
  <metadata
     id="metadata12">
    <rdf:RDF>
      <cc:Work
         rdf:about="">
        <dc:format>image/svg+xml</dc:format>
        <dc:type
           rdf:resource="http://purl.org/dc/dcmitype/StillImage" />
        <dc:title></dc:title>
      </cc:Work>
    </rdf:RDF>
  </metadata>
  <sodipodi:namedview
     pagecolor="#ffffff"
     bordercolor="#666666"
     borderopacity="1"
     objecttolerance="10"
     gridtolerance="10"
     guidetolerance="10"
     inkscape:pageopacity="0"
     inkscape:pageshadow="2"
     inkscape:window-width="1366"
     inkscape:window-height="673"
     id="namedview10"
     showgrid="false"
     inkscape:zoom="6.9532164"
     inkscape:cx="11.050909"
     inkscape:cy="15.223377"
     inkscape:window-x="0"
     inkscape:window-y="27"
     inkscape:window-maximized="1"
     inkscape:current-layer="svg2"
     inkscape:showpageshadow="false"
     borderlayer="true">
    <sodipodi:guide
       position="9.5367432e-07,48.000001"
       orientation="47.999999,0"
       id="guide4062" />
    <sodipodi:guide
       position="9.5367432e-07,1.9073486e-06"
       orientation="0,47.999999"
       id="guide4064" />
    <sodipodi:guide
       position="48,1.9073486e-06"
       orientation="-47.999999,0"
       id="guide4066" />
    <sodipodi:guide
       position="48,48.000001"
       orientation="0,-47.999999"
       id="guide4068" />
    <sodipodi:guide
       position="4.000001,44.000001"
       orientation="39.999999,0"
       id="guide4072" />
    <sodipodi:guide
       position="4.000001,4.0000019"
       orientation="0,39.999999"
       id="guide4074" />
    <sodipodi:guide
       position="44,4.0000019"
       orientation="-39.999999,0"
       id="guide4076" />
    <sodipodi:guide
       position="44,44.000001"
       orientation="0,-39.999999"
       id="guide4078" />
    <sodipodi:guide
       position="15.000001,33.000001"
       orientation="17.999999,0"
       id="guide4080" />
    <sodipodi:guide
       position="15.000001,15.000002"
       orientation="0,17.999999"
       id="guide4082" />
    <sodipodi:guide
       position="33,15.000002"
       orientation="-17.999999,0"
       id="guide4084" />
    <sodipodi:guide
       position="33,33.000001"
       orientation="0,-17.999999"
       id="guide4086" />
  </sodipodi:namedview>
  <defs
     id="defs4">
    <linearGradient
       id="linearGradient3766">
      <stop
         style="stop-color:#1cb65d;stop-opacity:1;"
         offset="0"
         id="stop3768" />
      <stop
         style="stop-color:#39ea84;stop-opacity:1;"
         offset="1"
         id="stop3770" />
    </linearGradient>
  </defs>
  <rect
     ry="0"
     y="3.9999523"
     x="3.9999998"
     height="40.000004"
     width="40.000004"
     id="rect3282"
     style="fill:#2ecc71;fill-opacity:1;fill-rule:evenodd;stroke:none" />
  <path
     style="fill:#ecf0f1;fill-opacity:1;fill-rule:evenodd;stroke:none"
     d="m 5.9003913,4.0000038 0,1.9003906 -1.9003906,0 0,0.1992188 1.9003906,0 0,5.8007818 -1.9003906,0 0,0.199218 1.9003906,0 0,5.800782 -1.9003906,0 0,0.199218 1.9003906,0 0,5.800782 -1.9003906,0 0,0.199218 1.9003906,0 0,5.800782 -1.9003906,0 0,0.199218 1.9003906,0 0,5.800782 -1.9003906,0 0,0.199218 1.9003906,0 0,5.800782 -1.9003906,0 0,0.199218 1.9003906,0 0,1.900391 0.1992188,0 0,-1.900391 5.8007819,0 0,1.900391 0.199218,0 0,-1.900391 5.800782,0 0,1.900391 0.199218,0 0,-1.900391 5.800782,0 0,1.900391 0.199218,0 0,-1.900391 5.800782,0 0,1.900391 0.199218,0 0,-1.900391 5.800782,0 0,1.900391 0.199218,0 0,-1.900391 5.800782,0 0,1.900391 0.199218,0 0,-1.900391 1.900391,0 0,-0.199218 -1.900391,0 0,-5.800782 1.900391,0 0,-0.199218 -1.900391,0 0,-5.800782 1.900391,0 0,-0.199218 -1.900391,0 0,-5.800782 1.900391,0 0,-0.199218 -1.900391,0 0,-5.800782 1.900391,0 0,-0.199218 -1.900391,0 0,-5.800782 1.900391,0 0,-0.199218 -1.900391,0 0,-5.8007818 1.900391,0 0,-0.1992188 -1.900391,0 0,-1.9003906 -0.199218,0 0,1.9003906 -5.800782,0 0,-1.9003906 -0.199218,0 0,1.9003906 -5.800782,0 0,-1.9003906 -0.199218,0 0,1.9003906 -5.800782,0 0,-1.9003906 -0.199218,0 0,1.9003906 -5.800782,0 0,-1.9003906 -0.199218,0 0,1.9003906 -5.800782,0 0,-1.9003906 -0.199218,0 0,1.9003906 -5.8007819,0 0,-1.9003906 -0.1992188,0 z m 0.1992188,2.0996094 5.8007819,0 0,5.8007818 -5.8007819,0 0,-5.8007818 z m 5.9999999,0 5.800782,0 0,5.8007818 -5.800782,0 0,-5.8007818 z m 6,0 5.800782,0 0,5.8007818 -5.800782,0 0,-5.8007818 z m 6,0 5.800782,0 0,5.8007818 -5.800782,0 0,-5.8007818 z m 6,0 5.800782,0 0,5.8007818 -5.800782,0 0,-5.8007818 z m 6,0 5.800782,0 0,5.8007818 -5.800782,0 0,-5.8007818 z m -29.9999999,5.9999998 5.8007819,0 0,5.800782 -5.8007819,0 0,-5.800782 z m 5.9999999,0 5.800782,0 0,5.800782 -5.800782,0 0,-5.800782 z m 6,0 5.800782,0 0,5.800782 -5.800782,0 0,-5.800782 z m 6,0 5.800782,0 0,5.800782 -5.800782,0 0,-5.800782 z m 6,0 5.800782,0 0,5.800782 -5.800782,0 0,-5.800782 z m 6,0 5.800782,0 0,5.800782 -5.800782,0 0,-5.800782 z m -29.9999999,6 5.8007819,0 0,5.800782 -5.8007819,0 0,-5.800782 z m 5.9999999,0 5.800782,0 0,5.800782 -5.800782,0 0,-5.800782 z m 6,0 5.800782,0 0,5.800782 -5.800782,0 0,-5.800782 z m 6,0 5.800782,0 0,5.800782 -5.800782,0 0,-5.800782 z m 6,0 5.800782,0 0,5.800782 -5.800782,0 0,-5.800782 z m 6,0 5.800782,0 0,5.800782 -5.800782,0 0,-5.800782 z m -29.9999999,6 5.8007819,0 0,5.800782 -5.8007819,0 0,-5.800782 z m 5.9999999,0 5.800782,0 0,5.800782 -5.800782,0 0,-5.800782 z m 6,0 5.800782,0 0,5.800782 -5.800782,0 0,-5.800782 z m 6,0 5.800782,0 0,5.800782 -5.800782,0 0,-5.800782 z m 6,0 5.800782,0 0,5.800782 -5.800782,0 0,-5.800782 z m 6,0 5.800782,0 0,5.800782 -5.800782,0 0,-5.800782 z m -29.9999999,6 5.8007819,0 0,5.800782 -5.8007819,0 0,-5.800782 z m 5.9999999,0 5.800782,0 0,5.800782 -5.800782,0 0,-5.800782 z m 6,0 5.800782,0 0,5.800782 -5.800782,0 0,-5.800782 z m 6,0 5.800782,0 0,5.800782 -5.800782,0 0,-5.800782 z m 6,0 5.800782,0 0,5.800782 -5.800782,0 0,-5.800782 z m 6,0 5.800782,0 0,5.800782 -5.800782,0 0,-5.800782 z m -29.9999999,6 5.8007819,0 0,5.800782 -5.8007819,0 0,-5.800782 z m 5.9999999,0 5.800782,0 0,5.800782 -5.800782,0 0,-5.800782 z m 6,0 5.800782,0 0,5.800782 -5.800782,0 0,-5.800782 z m 6,0 5.800782,0 0,5.800782 -5.800782,0 0,-5.800782 z m 6,0 5.800782,0 0,5.800782 -5.800782,0 0,-5.800782 z m 6,0 5.800782,0 0,5.800782 -5.800782,0 0,-5.800782 z"
     id="rect3299"
     inkscape:connector-curvature="0" />
  <path
     style="opacity:0.35;fill:#000000;fill-opacity:1;stroke:none"
     d="M 4.0000043,43.999698 44,43.999998 c -19.999997,-1 -19.999997,-1 -39.9999971,0 z"
     id="path3800"
     inkscape:connector-curvature="0"
     sodipodi:nodetypes="cccc" />
  <path
     sodipodi:nodetypes="cccc"
     inkscape:connector-curvature="0"
     id="path3804"
     d="M 4.0000078,3.9998979 44,3.9996979 c -19.999993,1 -19.999993,1 -39.9999936,0 z"
     style="opacity:0.75;fill:#ffffff;fill-opacity:1;stroke:none" />
  <path
     style="fill:#f2f2f2"
     inkscape:connector-curvature="0"
     id="path2400"
     d="m 22.585475,40.116498 c 0.501372,0 0.527764,-0.07577 0.527764,-1.516128 0,-1.348586 -0.04796,-1.516227 -0.434017,-1.516227 -0.823101,0 -1.522657,-0.52281 -1.911835,-1.428729 -0.214738,-0.499742 -0.34973,-0.941515 -0.300066,-0.981487 0.04966,-0.03987 0.562861,-0.35656 1.140384,-0.703873 2.867374,-1.723144 4.152778,-5.589232 4.161008,-12.514522 0.0098,-8.329688 -1.988271,-12.2784821 -6.725856,-13.2920881 -1.489688,-0.318723 -3.179368,-0.147684 -4.505137,0.456055 -1.980361,0.901822 -3.488657,3.3157551 -4.230914,6.7712601 -0.5278683,2.457524 -0.5214793,9.184727 0.01122,11.779685 0.781456,3.806927 2.625671,6.627594 4.83953,7.402063 0.819876,0.28686 0.934179,0.428848 1.278801,1.588217 0.535948,1.803086 1.014842,2.678081 1.778043,3.248421 0.763373,0.570636 2.274677,0.951158 3.20439,0.806486 0.351339,-0.0545 0.87636,-0.09913 1.166683,-0.09913 z M 17.561172,31.41467 c -0.677561,-0.354473 -1.490985,-1.594581 -1.774242,-2.70493 -0.926127,-3.630236 -0.848566,-12.618088 0.131086,-15.1881 0.444698,-1.166607 1.471658,-2.096329 2.315609,-2.096329 0.933876,0 2.108353,1.181999 2.544736,2.561011 0.77164,2.438572 0.901617,10.624761 0.223346,14.065482 -0.539306,2.735752 -1.968791,4.132961 -3.440535,3.362866 z m 14.885529,1.692618 c 2.102829,-0.490096 2.222307,-0.598576 2.222307,-2.015372 0,-1.100705 -0.05194,-1.254028 -0.388894,-1.149128 -1.332798,0.415523 -1.643365,0.418506 -2.064517,0.0184 -0.411125,-0.390665 -0.435531,-0.751402 -0.435531,-6.442451 l 0,-6.028619 1.333365,0 1.33327,0 0,-1.369418 0,-1.369447 -1.33327,-0.158353 -1.333365,-0.158336 0,-2.19064 c 0,-1.204858 -0.07502,-2.238556 -0.166682,-2.2971611 -0.09166,-0.05858 -0.659163,-0.143489 -1.260808,-0.18871 l -1.094221,-0.08219 -0.381421,1.6328301 c -0.209441,0.898055 -0.444046,1.92149 -0.521049,2.274293 -0.119761,0.54881 -0.251631,0.641471 -0.913442,0.641471 l -0.773626,0 0,1.516198 0,1.516207 0.666729,0 0.666636,0 0,6.773847 c 0,8.276859 0.08864,8.594641 2.555672,9.164383 0.709393,0.163862 0.834453,0.157996 1.888847,-0.0878 z" />
  <g
     transform="matrix(0.27110581,0,0,0.27984183,29.170463,28.202818)"
     id="layer1-4">
    <path
       style="fill:#d35400;fill-rule:evenodd;stroke:#000000;stroke-width:0;stroke-linecap:square;stroke-linejoin:miter;stroke-miterlimit:2"
       inkscape:connector-curvature="0"
       id="shape0-6"
       transform="matrix(-0.707107,-0.707107,0.707107,-0.707107,15.8976,42.1376)"
       stroke-miterlimit="2.00000000000"
       d="m 0,0 14.6551,0 0,34.9127 -14.6551,0 z" />
    <path
       style="fill:#e6dc22;fill-rule:evenodd;stroke:#000000;stroke-width:0;stroke-linecap:square;stroke-linejoin:miter;stroke-miterlimit:0"
       inkscape:connector-curvature="0"
       id="shape1"
       transform="matrix(-0.707107,-0.707107,0.707107,-0.707107,6.93942,51.1563)"
       stroke-miterlimit="0.00000000000"
       d="M 7.34768,0 0,12.727 3.688,14.9852 7.34175,12.727 11.064,14.9812 14.752,12.719 Z" />
    <path
       style="fill:#4d4d4d;fill-rule:evenodd;stroke:#000000;stroke-width:0;stroke-linecap:square;stroke-linejoin:miter;stroke-miterlimit:2.01260185"
       inkscape:connector-curvature="0"
       id="shape2"
       transform="matrix(-0.707107,-0.707107,0.707107,-0.707107,3.63159,47.8679)"
       stroke-miterlimit="2.01260191180"
       d="M 2.68657,0 0,4.67246 l 5.41457,0 z" />
    <rect
       style="fill:#de4567;fill-rule:evenodd;stroke:#000000;stroke-width:0;stroke-linecap:square;stroke-linejoin:miter;stroke-miterlimit:2.01260185"
       y="0"
       x="0"
       id="shape3"
       transform="matrix(-0.707107,-0.707107,0.707107,-0.707107,42.0276,15.4031)"
       stroke-miterlimit="2.01260191180"
       width="13.763355"
       height="9.5576601"
       rx="4.3250175"
       ry="3.2626743" />
    <path
       style="fill:#f39c12;fill-rule:evenodd;stroke:#000000;stroke-width:0;stroke-linecap:square;stroke-linejoin:miter;stroke-miterlimit:2"
       inkscape:connector-curvature="0"
       id="shape4"
       transform="matrix(-0.707107,-0.707107,-0.707107,0.707107,45.0723,13.2048)"
       stroke-miterlimit="2.00000000000"
       d="m 0,0 15.0282,0 0,7.76426 -15.0282,0 z" />
  </g>
</svg>
