<?xml version="1.0" encoding="UTF-8" standalone="no"?>
<!-- Created with Inkscape (http://www.inkscape.org/) -->

<svg
   xmlns:dc="http://purl.org/dc/elements/1.1/"
   xmlns:cc="http://creativecommons.org/ns#"
   xmlns:rdf="http://www.w3.org/1999/02/22-rdf-syntax-ns#"
   xmlns:svg="http://www.w3.org/2000/svg"
   xmlns="http://www.w3.org/2000/svg"
   xmlns:xlink="http://www.w3.org/1999/xlink"
   xmlns:sodipodi="http://sodipodi.sourceforge.net/DTD/sodipodi-0.dtd"
   xmlns:inkscape="http://www.inkscape.org/namespaces/inkscape"
   width="48"
   height="48"
   id="svg2"
   version="1.1"
   inkscape:version="0.91 r13725"
   viewBox="0 0 13.546668 13.546667"
   sodipodi:docname="quassel.svg">
  <defs
     id="defs4">
    <linearGradient
       id="linearGradient3810">
      <stop
         style="stop-color:#000000;stop-opacity:1;"
         offset="0"
         id="stop3812" />
      <stop
         style="stop-color:#ffffff;stop-opacity:0;"
         offset="1"
         id="stop3814" />
    </linearGradient>
    <linearGradient
       id="linearGradient3792">
      <stop
         style="stop-color:#7f8c8d;stop-opacity:1;"
         offset="0"
         id="stop3794" />
      <stop
         style="stop-color:#a7b4b5;stop-opacity:1;"
         offset="1"
         id="stop3796" />
    </linearGradient>
    <linearGradient
       id="linearGradient3784">
      <stop
         style="stop-color:#bdc3c7;stop-opacity:1;"
         offset="0"
         id="stop3786" />
      <stop
         style="stop-color:#e2e9ed;stop-opacity:1;"
         offset="1"
         id="stop3788" />
    </linearGradient>
    <linearGradient
       inkscape:collect="always"
       xlink:href="#linearGradient3784"
       id="linearGradient3790"
       x1="1.1288886"
       y1="290.22662"
       x2="12.417778"
       y2="290.22662"
       gradientUnits="userSpaceOnUse" />
  </defs>
  <sodipodi:namedview
     id="base"
     pagecolor="#ffffff"
     bordercolor="#666666"
     borderopacity="1.0"
     inkscape:pageopacity="0.0"
     inkscape:pageshadow="2"
     inkscape:zoom="5.6416356"
     inkscape:cx="22.278759"
     inkscape:cy="32.209007"
     inkscape:document-units="px"
     inkscape:current-layer="layer1"
     showgrid="true"
     units="px"
     inkscape:showpageshadow="false"
     borderlayer="true"
     inkscape:window-width="1301"
     inkscape:window-height="744"
     inkscape:window-x="65"
     inkscape:window-y="24"
     inkscape:window-maximized="1"
     showguides="true"
     inkscape:guide-bbox="true"
     inkscape:snap-nodes="true">
    <sodipodi:guide
       position="8.999999,39.000153"
       orientation="30.000026,0"
       id="guide3293" />
    <sodipodi:guide
       position="8.999999,9.0001268"
       orientation="0,29.999999"
       id="guide3295" />
    <sodipodi:guide
       position="38.999998,9.0001268"
       orientation="-30.000026,0"
       id="guide3297" />
    <sodipodi:guide
       position="38.999998,39.000153"
       orientation="0,-29.999999"
       id="guide3299" />
    <sodipodi:guide
       position="3.9999986,44.000229"
       orientation="39.999962,0"
       id="guide3303" />
    <sodipodi:guide
       position="3.9999986,4.0002667"
       orientation="0,39.999998"
       id="guide3305" />
    <sodipodi:guide
       position="43.999997,4.0002667"
       orientation="-39.999962,0"
       id="guide3307" />
    <sodipodi:guide
       position="43.999997,44.000229"
       orientation="0,-39.999998"
       id="guide3309" />
    <sodipodi:guide
       position="8.999999,39.000153"
       orientation="30.000026,0"
       id="guide3313" />
    <sodipodi:guide
       position="8.999999,9.0001268"
       orientation="0,29.999999"
       id="guide3315" />
    <sodipodi:guide
       position="38.999998,9.0001268"
       orientation="-30.000026,0"
       id="guide3317" />
    <sodipodi:guide
       position="38.999998,39.000153"
       orientation="0,-29.999999"
       id="guide3319" />
    <inkscape:grid
       type="xygrid"
       id="grid3009" />
    <sodipodi:guide
       orientation="1,0"
       position="24,23"
       id="guide3802" />
  </sodipodi:namedview>
  <metadata
     id="metadata7">
    <rdf:RDF>
      <cc:Work
         rdf:about="">
        <dc:format>image/svg+xml</dc:format>
        <dc:type
           rdf:resource="http://purl.org/dc/dcmitype/StillImage" />
        <dc:title></dc:title>
      </cc:Work>
    </rdf:RDF>
  </metadata>
  <g
     inkscape:label="Capa 1"
     inkscape:groupmode="layer"
     id="layer1"
     transform="translate(0,-283.45336)">
    <rect
       ry="0"
       y="284.58218"
       x="1.1288886"
       height="11.28889"
       width="11.28889"
       id="rect3289"
       style="fill:url(#linearGradient3790);fill-opacity:1.0;fill-rule:evenodd;stroke:none" />
    <path
       style="fill:#666666;fill-opacity:1;stroke:none"
       d="M 4,43.999733 43.999997,44 C 24,42.999998 24,42.999998 3.9999986,43.999998 z"
       id="path3800"
       inkscape:connector-curvature="0"
       transform="matrix(0.28222225,0,0,0.28222225,0,283.45336)"
       sodipodi:nodetypes="cccc" />
    <path
       sodipodi:nodetypes="cccc"
       inkscape:connector-curvature="0"
       id="path3804"
       d="m 1.12889,284.58225 11.288889,-7e-5 c -5.644444,0.28222 -5.644444,0.28222 -11.2888894,0 z"
       style="fill:#ececec;fill-opacity:1;stroke:none" />
    <g
       transform="matrix(0.20714644,0,0,0.20718768,-91.837039,67.158803)"
       id="layer1-9"
       inkscape:label="Camada 1">
      <g
         transform="matrix(0.34637023,0,0,0.34637023,297.00769,690.60109)"
         id="g13566">
        <path
           inkscape:connector-curvature="0"
           style="overflow:visible;fill:#2980b9;fill-opacity:1;stroke:none"
           d="m 516.39123,1052.7346 c -17.41639,0 -32.67603,8.0968 -41.1337,20.2223 -0.70298,1.0079 -1.359,2.0436 -1.96533,3.1048 l -12.41335,22.7435 c -0.80119,1.4563 -1.52963,2.949 -2.18115,4.4741 -2.49881,5.8498 -3.86607,12.1805 -3.86607,18.7944 0,29.729 27.58355,53.8477 61.5596,53.8477 33.97602,0 61.55957,-24.1186 61.55957,-53.8477 0,-8.1532 -2.07782,-15.8764 -5.79188,-22.7986 l -12.21663,-22.4006 c -7.7179,-14.2675 -24.31964,-24.1399 -43.55106,-24.1399 z m -0.0676,32.4034 c 14.48026,0 27.38334,5.859 35.81956,15.0177 -1.552,16.1168 -17.00123,28.7843 -35.81956,28.7843 -18.81752,0 -34.26644,-12.6684 -35.81957,-28.7843 8.43645,-9.1517 21.34592,-15.0177 35.81957,-15.0177 z"
           id="path3585"
           sodipodi:nodetypes="csccsssscccccscc" />
        <path
           inkscape:connector-curvature="0"
           style="fill:#3498db;fill-opacity:1;fill-rule:evenodd;stroke:none"
           d="M 13.25,46.375 C 37.558865,7.4261035 99.571677,12.408004 117.875,47.03125 94.671842,14.29931 42.494497,8.4965424 13.25,46.375 Z"
           id="path6533"
           transform="matrix(1.0328906,0,0,1.0328906,448.86895,1048.0635)"
           sodipodi:nodetypes="ccc" />
        <path
           inkscape:connector-curvature="0"
           style="fill:#3498db;fill-opacity:1;fill-rule:evenodd;stroke:none"
           d="m 100.25,55 c 17.35412,18.781701 4.96176,57.93934 -33.5,57.93934 -38.280561,0 -52.243351,-39.06434 -33.59375,-59.03309 C 11.495494,76.53125 26.107068,115.75 66.75,115.75 c 40.76793,0 53.53949,-39.058418 33.5,-60.75 z"
           id="path6024"
           transform="matrix(1.0823666,0,0,1.0823666,444.5728,1041.8866)"
           sodipodi:nodetypes="czczc" />
      </g>
      <g
         transform="matrix(0.44990096,0,0,0.44990096,242.4386,573.74302)"
         id="g12962">
        <circle
           style="fill:#34495e;fill-opacity:1;stroke:none"
           id="path2285"
           transform="matrix(0.2264337,0,0,0.2264337,497.0898,1095.8911)"
           cx="138.80981"
           cy="147.785"
           r="92.351021" />
      </g>
    </g>
  </g>
</svg>
