<?xml version="1.0" encoding="UTF-8" standalone="no"?>
<!-- Created with Inkscape (http://www.inkscape.org/) -->

<svg
   xmlns:dc="http://purl.org/dc/elements/1.1/"
   xmlns:cc="http://creativecommons.org/ns#"
   xmlns:rdf="http://www.w3.org/1999/02/22-rdf-syntax-ns#"
   xmlns:svg="http://www.w3.org/2000/svg"
   xmlns="http://www.w3.org/2000/svg"
   xmlns:xlink="http://www.w3.org/1999/xlink"
   xmlns:sodipodi="http://sodipodi.sourceforge.net/DTD/sodipodi-0.dtd"
   xmlns:inkscape="http://www.inkscape.org/namespaces/inkscape"
   width="48px"
   height="48px"
   id="svg2985"
   version="1.1"
   inkscape:version="0.91 r13725"
   sodipodi:docname="quassel.svg">
  <defs
     id="defs2987">
    <linearGradient
       id="linearGradient3872">
      <stop
         style="stop-color:#ffcc00;stop-opacity:1;"
         offset="0"
         id="stop3874" />
      <stop
         style="stop-color:#ffe41c;stop-opacity:1;"
         offset="1"
         id="stop3876" />
    </linearGradient>
    <linearGradient
       id="linearGradient3832">
      <stop
         style="stop-color:#1a1a1a;stop-opacity:1;"
         offset="0"
         id="stop3834" />
      <stop
         style="stop-color:#474747;stop-opacity:1;"
         offset="1"
         id="stop3836" />
    </linearGradient>
    <linearGradient
       id="linearGradient3792">
      <stop
         style="stop-color:#e02323;stop-opacity:1;"
         offset="0"
         id="stop3794" />
      <stop
         style="stop-color:#ff3e3e;stop-opacity:1;"
         offset="1"
         id="stop3796" />
    </linearGradient>
    <linearGradient
       id="linearGradient3782">
      <stop
         style="stop-color:#f2f2f2;stop-opacity:1;"
         offset="0"
         id="stop3784" />
      <stop
         style="stop-color:#fefefe;stop-opacity:1;"
         offset="1"
         id="stop3786" />
    </linearGradient>
    <linearGradient
       inkscape:collect="always"
       xlink:href="#linearGradient3832"
       id="linearGradient3838"
       x1="24.913139"
       y1="44.287905"
       x2="86.44539"
       y2="44.287905"
       gradientUnits="userSpaceOnUse" />
    <linearGradient
       id="linearGradient1374">
      <stop
         id="stop1376"
         offset="0"
         style="stop-color:#fef3c8;stop-opacity:1" />
      <stop
         id="stop1378"
         offset="1"
         style="stop-color:#ffffff;stop-opacity:1;" />
    </linearGradient>
  </defs>
  <sodipodi:namedview
     id="base"
     pagecolor="#ffffff"
     bordercolor="#666666"
     borderopacity="1.0"
     inkscape:pageopacity="0.0"
     inkscape:pageshadow="2"
     inkscape:zoom="9.8994949"
     inkscape:cx="24.886546"
     inkscape:cy="25.185335"
     inkscape:current-layer="layer1"
     showgrid="true"
     inkscape:grid-bbox="true"
     inkscape:document-units="px"
     showguides="true"
     inkscape:guide-bbox="true"
     inkscape:window-width="1366"
     inkscape:window-height="744"
     inkscape:window-x="0"
     inkscape:window-y="24"
     inkscape:window-maximized="1">
    <inkscape:grid
       type="xygrid"
       id="grid2993" />
    <sodipodi:guide
       orientation="0,1"
       position="23,44"
       id="guide2995" />
    <sodipodi:guide
       orientation="1,0"
       position="4,35"
       id="guide2997" />
    <sodipodi:guide
       orientation="0,1"
       position="27,4"
       id="guide2999" />
    <sodipodi:guide
       orientation="1,0"
       position="44,19"
       id="guide3001" />
  </sodipodi:namedview>
  <metadata
     id="metadata2990">
    <rdf:RDF>
      <cc:Work
         rdf:about="">
        <dc:format>image/svg+xml</dc:format>
        <dc:type
           rdf:resource="http://purl.org/dc/dcmitype/StillImage" />
        <dc:title></dc:title>
      </cc:Work>
    </rdf:RDF>
  </metadata>
  <g
     id="layer1"
     inkscape:label="Layer 1"
     inkscape:groupmode="layer">
    <path
       sodipodi:nodetypes="cccc"
       inkscape:connector-curvature="0"
       id="path4027"
       d="M 4,4 4,4 C 24,5 24,5 44,4 z"
       style="opacity:1;fill:#ffffff;fill-opacity:1;stroke:none" />
    <g
       transform="matrix(1.1715584,0,0,1.1742853,-3.8598284,-1183.5179)"
       id="layer1-4"
       inkscape:label="Capa 1">
      <rect
         transform="scale(1,-1)"
         ry="0"
         y="-1048.3622"
         x="4"
         height="39.988766"
         width="40"
         id="rect2991-1"
         style="fill:#34495e;fill-opacity:1;stroke:none" />
      <path
         sodipodi:nodetypes="cccc"
         inkscape:connector-curvature="0"
         id="path3257"
         d="m 4,1048.3622 0,0 c 20,-1 20,-1 40,0 z"
         style="opacity:0.5;fill:#2c3e50;fill-opacity:1;stroke:none" />
      <path
         style="opacity:1;fill:#bdc3c7;fill-opacity:1;stroke:none"
         d="m 4.0390625,1008.37 0,0 c 19.9999995,1 19.9999995,1 39.9999995,0 z"
         id="path4027-1"
         inkscape:connector-curvature="0"
         sodipodi:nodetypes="cccc" />
      <g
         inkscape:label="Camada 1"
         id="layer1-9"
         transform="matrix(0.73544899,0,0,0.73852383,-325.82299,233.38967)">
        <g
           id="g13566"
           transform="matrix(0.34637023,0,0,0.34637023,297.00769,690.60109)">
          <path
             sodipodi:nodetypes="csccsssscccccscc"
             id="path3585"
             d="m 516.39123,1052.7346 c -17.41639,0 -32.67603,8.0968 -41.1337,20.2223 -0.70298,1.0079 -1.359,2.0436 -1.96533,3.1048 l -12.41335,22.7435 c -0.80119,1.4563 -1.52963,2.949 -2.18115,4.4741 -2.49881,5.8498 -3.86607,12.1805 -3.86607,18.7944 0,29.729 27.58355,53.8477 61.5596,53.8477 33.97602,0 61.55957,-24.1186 61.55957,-53.8477 0,-8.1532 -2.07782,-15.8764 -5.79188,-22.7986 l -12.21663,-22.4006 c -7.7179,-14.2675 -24.31964,-24.1399 -43.55106,-24.1399 z m -0.0676,32.4034 c 14.48026,0 27.38334,5.859 35.81956,15.0177 -1.552,16.1168 -17.00123,28.7843 -35.81956,28.7843 -18.81752,0 -34.26644,-12.6684 -35.81957,-28.7843 8.43645,-9.1517 21.34592,-15.0177 35.81957,-15.0177 z"
             style="overflow:visible;fill:#2980b9;fill-opacity:1;stroke:none"
             inkscape:connector-curvature="0" />
          <path
             sodipodi:nodetypes="ccc"
             transform="matrix(1.0328906,0,0,1.0328906,448.86895,1048.0635)"
             id="path6533"
             d="M 13.25,46.375 C 37.558865,7.4261035 99.571677,12.408004 117.875,47.03125 94.671842,14.29931 42.494497,8.4965424 13.25,46.375 Z"
             style="fill:#3498db;fill-opacity:1;fill-rule:evenodd;stroke:none"
             inkscape:connector-curvature="0" />
          <path
             sodipodi:nodetypes="czczc"
             transform="matrix(1.0823666,0,0,1.0823666,444.5728,1041.8866)"
             id="path6024"
             d="m 100.25,55 c 17.35412,18.781701 4.96176,57.93934 -33.5,57.93934 -38.280561,0 -52.243351,-39.06434 -33.59375,-59.03309 C 11.495494,76.53125 26.107068,115.75 66.75,115.75 c 40.76793,0 53.53949,-39.058418 33.5,-60.75 z"
             style="fill:#3498db;fill-opacity:1;fill-rule:evenodd;stroke:none"
             inkscape:connector-curvature="0" />
        </g>
        <g
           id="g12962"
           transform="matrix(0.44990096,0,0,0.44990096,242.4386,573.74302)">
          <circle
             r="92.351021"
             cy="147.785"
             cx="138.80981"
             transform="matrix(0.2264337,0,0,0.2264337,497.0898,1095.8911)"
             id="path2285"
             style="fill:#3498db;fill-opacity:1;stroke:none" />
        </g>
      </g>
      <ellipse
         cy="1032.7299"
         cx="27.479847"
         id="path2285-6"
         style="fill:#34495e;fill-opacity:1;stroke:none"
         rx="5.9816418"
         ry="6.0730705" />
    </g>
  </g>
</svg>
