<?xml version="1.0" encoding="UTF-8" standalone="no"?>
<!-- Created with Inkscape (http://www.inkscape.org/) -->

<svg
   xmlns:dc="http://purl.org/dc/elements/1.1/"
   xmlns:cc="http://creativecommons.org/ns#"
   xmlns:rdf="http://www.w3.org/1999/02/22-rdf-syntax-ns#"
   xmlns:svg="http://www.w3.org/2000/svg"
   xmlns="http://www.w3.org/2000/svg"
   xmlns:xlink="http://www.w3.org/1999/xlink"
   xmlns:sodipodi="http://sodipodi.sourceforge.net/DTD/sodipodi-0.dtd"
   xmlns:inkscape="http://www.inkscape.org/namespaces/inkscape"
   width="48"
   height="48"
   id="svg2"
   version="1.1"
   inkscape:version="0.91 r13725"
   sodipodi:docname="scribus.svg">
  <defs
     id="defs4">
    <linearGradient
       id="linearGradient1374">
      <stop
         style="stop-color:#fef3c8;stop-opacity:1"
         offset="0"
         id="stop1376" />
      <stop
         style="stop-color:#ffffff;stop-opacity:1;"
         offset="1"
         id="stop1378" />
    </linearGradient>
    <linearGradient
       id="linearGradient3732"
       inkscape:collect="always">
      <stop
         id="stop3734"
         offset="0"
         style="stop-color:#ffffff;stop-opacity:1;" />
      <stop
         id="stop3736"
         offset="1"
         style="stop-color:#ffffff;stop-opacity:0;" />
    </linearGradient>
    <linearGradient
       id="linearGradient3724"
       inkscape:collect="always">
      <stop
         id="stop3726"
         offset="0"
         style="stop-color:#2b1100;stop-opacity:1;" />
      <stop
         id="stop3728"
         offset="1"
         style="stop-color:#2b1100;stop-opacity:0;" />
    </linearGradient>
    <linearGradient
       id="linearGradient3661"
       inkscape:collect="always">
      <stop
         id="stop3663"
         offset="0"
         style="stop-color:#000000;stop-opacity:1;" />
      <stop
         id="stop3665"
         offset="1"
         style="stop-color:#000000;stop-opacity:0;" />
    </linearGradient>
    <inkscape:perspective
       id="perspective10"
       inkscape:persp3d-origin="372.04724 : 350.78739 : 1"
       inkscape:vp_z="744.09448 : 526.18109 : 1"
       inkscape:vp_y="0 : 1000 : 0"
       inkscape:vp_x="0 : 526.18109 : 1"
       sodipodi:type="inkscape:persp3d" />
    <inkscape:perspective
       sodipodi:type="inkscape:persp3d"
       inkscape:vp_x="0 : 0.5 : 1"
       inkscape:vp_y="0 : 1000 : 0"
       inkscape:vp_z="1 : 0.5 : 1"
       inkscape:persp3d-origin="0.5 : 0.33333333 : 1"
       id="perspective2824" />
    <radialGradient
       r="296.59143"
       fy="602.36218"
       fx="410"
       cy="602.36218"
       cx="410"
       gradientUnits="userSpaceOnUse"
       id="radialGradient3674"
       xlink:href="#linearGradient3732"
       inkscape:collect="always" />
    <linearGradient
       y2="602.36218"
       x2="410"
       y1="898.85999"
       x1="706.68634"
       gradientUnits="userSpaceOnUse"
       id="linearGradient3676"
       xlink:href="#linearGradient3661"
       inkscape:collect="always" />
    <linearGradient
       gradientTransform="translate(-587.25113,-470.04931)"
       gradientUnits="userSpaceOnUse"
       y2="343.49902"
       x2="108.79504"
       y1="1018.0864"
       x1="462.14429"
       id="linearGradient3711"
       xlink:href="#linearGradient3732"
       inkscape:collect="always" />
    <linearGradient
       gradientTransform="translate(-117.23316,-78.4866)"
       gradientUnits="userSpaceOnUse"
       y2="637.41406"
       x2="507.67914"
       y1="742.72516"
       x1="664.66107"
       id="linearGradient3730"
       xlink:href="#linearGradient3724"
       inkscape:collect="always" />
    <linearGradient
       gradientTransform="translate(175.84972,58.616573)"
       gradientUnits="userSpaceOnUse"
       y2="478.45386"
       x2="236.4446"
       y1="414.86978"
       x1="112.27435"
       id="linearGradient3738"
       xlink:href="#linearGradient3732"
       inkscape:collect="always" />
    <radialGradient
       r="296.59143"
       fy="602.36218"
       fx="410"
       cy="602.36218"
       cx="410"
       gradientUnits="userSpaceOnUse"
       id="radialGradient3904"
       xlink:href="#linearGradient3732"
       inkscape:collect="always" />
    <radialGradient
       r="296.59143"
       fy="602.36218"
       fx="410"
       cy="602.36218"
       cx="410"
       gradientUnits="userSpaceOnUse"
       id="radialGradient3934"
       xlink:href="#linearGradient3732"
       inkscape:collect="always" />
    <inkscape:perspective
       sodipodi:type="inkscape:persp3d"
       inkscape:vp_x="0 : 0.5 : 1"
       inkscape:vp_y="0 : 1000 : 0"
       inkscape:vp_z="1 : 0.5 : 1"
       inkscape:persp3d-origin="0.5 : 0.33333333 : 1"
       id="perspective3952" />
  </defs>
  <sodipodi:namedview
     id="base"
     pagecolor="#ffffff"
     bordercolor="#666666"
     borderopacity="1.0"
     inkscape:pageopacity="0.0"
     inkscape:pageshadow="2"
     inkscape:zoom="16"
     inkscape:cx="23.212694"
     inkscape:cy="19.504517"
     inkscape:document-units="px"
     inkscape:current-layer="layer1"
     showgrid="true"
     inkscape:window-width="1366"
     inkscape:window-height="744"
     inkscape:window-x="0"
     inkscape:window-y="24"
     inkscape:window-maximized="1">
    <inkscape:grid
       type="xygrid"
       id="grid3232" />
  </sodipodi:namedview>
  <metadata
     id="metadata7">
    <rdf:RDF>
      <cc:Work
         rdf:about="">
        <dc:format>image/svg+xml</dc:format>
        <dc:type
           rdf:resource="http://purl.org/dc/dcmitype/StillImage" />
        <dc:title></dc:title>
      </cc:Work>
    </rdf:RDF>
  </metadata>
  <g
     inkscape:label="Capa 1"
     inkscape:groupmode="layer"
     id="layer1"
     transform="translate(0,-1004.3622)">
    <rect
       style="fill:#34495e;fill-opacity:1;stroke:none"
       id="rect2991-1"
       width="40"
       height="39.988766"
       x="4"
       y="-1048.3622"
       ry="0"
       transform="scale(1,-1)" />
    <path
       style="fill:#ecf0f1;fill-opacity:1;stroke:none"
       d="m 8.5799203,1011.5916 c -0.7522525,0 -1.3569099,0.6027 -1.3569099,1.3524 l 0,30.7028 c 0,0.7498 0.6046574,1.3525 1.3569099,1.3525 l 30.8042367,0 c 0.752253,0 1.356911,-0.6027 1.356911,-1.3525 l 0,-30.7027 c 0,-0.7498 -0.604658,-1.3525 -1.356911,-1.3525 z"
       id="rect839"
       inkscape:connector-curvature="0"
       sodipodi:nodetypes="sssssssss" />
    <path
       style="opacity:0.5;fill:#2c3e50;fill-opacity:1;stroke:none"
       d="m 4,1048.3622 0,0 c 20,-1 20,-1 40,0 z"
       id="path3257"
       inkscape:connector-curvature="0"
       sodipodi:nodetypes="cccc" />
    <path
       sodipodi:nodetypes="cccc"
       inkscape:connector-curvature="0"
       id="path4027"
       d="m 4.0390625,1008.37 0,0 c 19.9999995,1 19.9999995,1 39.9999995,0 z"
       style="opacity:1;fill:#bdc3c7;fill-opacity:1;stroke:none" />
    <g
       id="g5883"
       transform="matrix(0.72549682,0,0,0.73205519,6.513489,1010.7442)">
      <g
         transform="translate(0,-552.36218)"
         id="layer1-6"
         inkscape:label="Layer 1" />
      <g
         transform="translate(0,-552.36218)"
         inkscape:label="CIRCLE"
         id="layer2" />
      <g
         transform="translate(0,-552.36218)"
         inkscape:label="SMOKE"
         id="layer3" />
      <g
         transform="translate(0,-552.36218)"
         inkscape:label="PEN"
         id="layer4">
        <g
           transform="matrix(0.06335908,0,0,0.06335908,0.52315579,537.7027)"
           id="g3916">
          <g
             id="g3897"
             transform="translate(588.70462,474.89775)">
            <g
               transform="translate(-848.73957,165.39329)"
               id="g3669">
              <circle
                 transform="matrix(1.0853852,0,0,1.1168771,171.30595,-701.84133)"
                 id="path3659"
                 style="fill:#3498db;fill-opacity:1;fill-rule:evenodd;stroke:#2c3e50;stroke-width:13.18284702;stroke-dasharray:none;stroke-opacity:1"
                 cx="410"
                 cy="602.36218"
                 r="290" />
            </g>
            <path
               inkscape:connector-curvature="0"
               sodipodi:nodetypes="czczszczc"
               id="path3703"
               d="m -527.64105,46.815701 c 0,0 -8.85636,46.25901 65.57108,153.992689 74.42745,107.73369 191.74575,183.79773 191.74575,183.79773 0,0 -40.72225,-79.77456 -43.71407,-131.14216 -2.99182,-51.36759 4.37679,-105.77419 27.81805,-152.00569 27.50519,-54.246549 48.34191,-128.660819 48.68155,-175.849719 0.33964,-47.188901 -25.18879,-101.748651 -25.18879,-101.748651 0,0 -81.99169,1.52891 -163.86744,69.54509 -81.87575,68.016178 -101.04613,153.410711 -101.04613,153.410711 z"
               style="fill:#bdc3c7;fill-opacity:1;stroke:#ecf0f1;stroke-width:1px;stroke-opacity:1" />
          </g>
          <g
             id="g3809"
             transform="translate(-218.07993,56.94756)">
            <g
               id="g3811"
               transform="translate(220.92656,-57.382009)">
              <ellipse
                 transform="matrix(1.091593,0.78411578,-0.47247827,0.6577523,107.7007,-367.89375)"
                 id="path3813"
                 style="fill:#2c3e50;fill-rule:evenodd;stroke:#2c3e50;stroke-width:1px;stroke-opacity:1"
                 cx="623.8302"
                 cy="357.57834"
                 rx="73.061195"
                 ry="72.358681" />
              <g
                 transform="translate(113.25914,27.818035)"
                 id="g3815">
                <path
                   inkscape:connector-curvature="0"
                   style="fill:#f39c12;fill-opacity:1"
                   d="m 215.07677,831.68264 13.62046,-2.19132 c 0,0 33.51842,-53.28184 100.61502,-115.8341 67.0966,-62.55227 149.07491,-75.56368 149.07491,-75.56368 0,0 2.40983,-94.91258 22.02001,-150.19091 21.08133,-59.42531 65.40804,-108.22369 65.40804,-108.22369 0,0 -3.77944,-56.44493 -46.09248,-80.87438 -42.03888,-24.27116 -68.35975,-6.09983 -68.35975,-6.09983 0,0 -18.49977,48.40515 -57.4234,113.59365 -27.96224,46.8306 -73.27413,121.14304 -73.27413,121.14304 0,0 -35.55677,85.37713 -53.33709,136.05734 -17.78032,50.68021 -52.25159,168.18388 -52.25159,168.18388 z"
                   id="path3817"
                   sodipodi:nodetypes="cczcsczcsczc" />
                <path
                   style="fill:#9d7100;fill-opacity:0;stroke:#2c3e50;stroke-width:4.91757822;stroke-dasharray:none;stroke-opacity:1"
                   inkscape:connector-curvature="0"
                   d="m 215.07677,831.68264 13.62046,-2.19132 c 0,0 33.51842,-53.28184 100.61502,-115.8341 67.0966,-62.55227 149.07491,-75.56368 149.07491,-75.56368 0,0 2.40983,-94.91258 22.02001,-150.19091 21.08133,-59.42531 65.40804,-108.22369 65.40804,-108.22369 0,0 -3.77944,-56.44493 -46.09248,-80.87438 -42.03888,-24.27116 -68.35975,-6.09983 -68.35975,-6.09983 0,0 -18.49977,48.40515 -57.4234,113.59365 -27.96224,46.8306 -73.27413,121.14304 -73.27413,121.14304 0,0 -35.55677,85.37713 -53.33709,136.05734 -17.78032,50.68021 -52.25159,168.18388 -52.25159,168.18388 z"
                   id="path3821"
                   sodipodi:nodetypes="cczcsczcsczc" />
              </g>
            </g>
            <g
               id="g3823">
              <ellipse
                 inkscape:transform-center-y="-4.194559"
                 inkscape:transform-center-x="-15.21893"
                 transform="matrix(0.75697815,0.46515404,-0.46515404,0.75697815,609.84148,-135.65843)"
                 id="path3825"
                 style="fill:#4d4d4d;fill-rule:evenodd;stroke:#4d4d4d;stroke-width:1px;stroke-opacity:1"
                 cx="444.3385"
                 cy="587.29956"
                 rx="9.4839048"
                 ry="28.100458" />
              <path
                 inkscape:connector-curvature="0"
                 sodipodi:nodetypes="czc"
                 id="path3827"
                 d="m 666.68338,524.77607 c 0,0 -29.39375,49.75349 -57.60593,118.72444 -28.21218,68.97095 -54.09339,155.95755 -54.09339,155.95755"
                 style="fill:none;stroke:#4d4d4d;stroke-width:2;stroke-dasharray:none;stroke-opacity:1" />
            </g>
          </g>
        </g>
      </g>
    </g>
  </g>
</svg>
