<?xml version="1.0" encoding="UTF-8" standalone="no"?>
<!-- Created with Inkscape (http://www.inkscape.org/) -->

<svg
   xmlns:dc="http://purl.org/dc/elements/1.1/"
   xmlns:cc="http://creativecommons.org/ns#"
   xmlns:rdf="http://www.w3.org/1999/02/22-rdf-syntax-ns#"
   xmlns:svg="http://www.w3.org/2000/svg"
   xmlns="http://www.w3.org/2000/svg"
   xmlns:sodipodi="http://sodipodi.sourceforge.net/DTD/sodipodi-0.dtd"
   xmlns:inkscape="http://www.inkscape.org/namespaces/inkscape"
   width="48"
   height="48"
   id="svg2"
   version="1.1"
   inkscape:version="0.48.4 r9939"
   sodipodi:docname="minitube.svg"
   inkscape:export-filename="/home/uri/workspace/NitruxforAndroid/res/drawable-xhdpi/youtube.png"
   inkscape:export-xdpi="180"
   inkscape:export-ydpi="180">
  <defs
     id="defs23" />
  <sodipodi:namedview
     id="base"
     pagecolor="#ffffff"
     bordercolor="#666666"
     borderopacity="1.0"
     inkscape:pageopacity="0.0"
     inkscape:pageshadow="2"
     inkscape:zoom="5.6989127"
     inkscape:cx="27.857501"
     inkscape:cy="20.198291"
     inkscape:document-units="px"
     inkscape:current-layer="layer1"
     showgrid="false"
     inkscape:window-width="662"
     inkscape:window-height="633"
     inkscape:window-x="1063"
     inkscape:window-y="106"
     inkscape:window-maximized="0">
    <inkscape:grid
       type="xygrid"
       id="grid3850" />
  </sodipodi:namedview>
  <metadata
     id="metadata7">
    <rdf:RDF>
      <cc:Work
         rdf:about="">
        <dc:format>image/svg+xml</dc:format>
        <dc:type
           rdf:resource="http://purl.org/dc/dcmitype/StillImage" />
        <dc:title></dc:title>
      </cc:Work>
    </rdf:RDF>
  </metadata>
  <g
     inkscape:label="Capa 1"
     inkscape:groupmode="layer"
     id="layer1"
     transform="translate(0,-1004.3622)">
    <rect
       style="fill:#2c3e50;fill-opacity:1;stroke:none"
       id="rect4095"
       width="44.848595"
       height="33.636448"
       x="1.7834845"
       y="1006.257"
       ry="0" />
    <path
       sodipodi:type="star"
       style="color:#ecf0f1;fill:#ecf0f1;fill-opacity:1;fill-rule:nonzero;stroke:none;stroke-width:0.5;marker:none;visibility:visible;display:inline;overflow:visible;enable-background:accumulate"
       id="path1132"
       sodipodi:sides="3"
       sodipodi:cx="-102.625"
       sodipodi:cy="-1.375"
       sodipodi:r1="2.8152764"
       sodipodi:r2="1.4076382"
       sodipodi:arg1="0"
       sodipodi:arg2="1.0471976"
       inkscape:flatsided="true"
       inkscape:rounded="0"
       inkscape:randomized="0"
       d="m -99.809724,-1.375 -4.222916,2.4381009 0,-4.8762018 z"
       transform="matrix(3.4515958,0,0,3.6789779,376.55911,1028.1337)"
       inkscape:transform-center-x="-2.4292523"
       inkscape:transform-center-y="0.00034787934" />
    <path
       inkscape:connector-curvature="0"
       id="path4139"
       d="m 2.0076255,1045.0796 c 0.2721772,-1.0722 0.9196102,-1.8231 1.6797502,-1.8231 l 41.2162863,0 c 0.760141,0 1.407573,0.7509 1.67975,1.8231 l -44.5757865,0 z"
       style="color:#7f8c8d;fill:#7f8c8d;fill-opacity:1;fill-rule:nonzero;stroke:none;stroke-width:0.5;marker:none;visibility:visible;display:inline;overflow:visible;enable-background:accumulate" />
    <path
       style="color:#7f8c8d;fill:#e74c3c;fill-opacity:1;fill-rule:nonzero;stroke:none;stroke-width:0.5;marker:none;visibility:visible;display:inline;overflow:visible;enable-background:accumulate"
       d="m 3.601079,1043.2565 c -0.7600866,0 -1.4074748,0.7509 -1.6796326,1.8231 l 21.5855766,0 0,-1.8231 -19.905944,0 z"
       id="rect4134"
       inkscape:connector-curvature="0" />
    <g
       id="g4165"
       transform="matrix(0.13801491,0,0,0.13801491,4.2501573,1045.499)"
       style="fill:#d6d6d6;fill-opacity:1">
      <g
         id="Layer_1"
         style="fill:#d6d6d6;fill-opacity:1" />
      <g
         id="last"
         style="fill:#7f8c8d;fill-opacity:1">
        <g
           id="g4153"
           style="fill:#d6d6d6;fill-opacity:1">
          <polygon
             id="polygon4155"
             points="24,16 0,32 0,0 "
             style="fill:#7f8c8d;fill-opacity:1" />
          <rect
             id="rect4157"
             height="24"
             width="8"
             style="fill:#7f8c8d;fill-opacity:1"
             y="4"
             x="24" />
        </g>
      </g>
    </g>
    <g
       id="g4184"
       transform="matrix(0.14349841,0,0,0.14349841,39.573459,1045.499)"
       style="fill:#7f8c8d;fill-opacity:1">
      <g
         id="Layer_1-9"
         style="fill:#7f8c8d;fill-opacity:1" />
      <g
         id="cog"
         style="fill:#7f8c8d;fill-opacity:1">
        <path
           id="path4176"
           d="m 32,17.969 0,-4 -4.781,-1.992 C 27.086,11.602 26.946,11.239 26.774,10.883 L 28.704,6.078 25.875,3.25 21.113,5.211 C 20.75,5.035 20.379,4.887 19.996,4.75 L 17.969,0 l -4,0 -1.977,4.734 c -0.398,0.141 -0.781,0.289 -1.16,0.469 L 6.078,3.293 3.25,6.121 5.188,10.832 C 5,11.219 4.848,11.613 4.703,12.02 L 0,14.031 l 0,4 4.707,1.961 c 0.145,0.406 0.301,0.801 0.488,1.188 l -1.902,4.742 2.828,2.828 4.723,-1.945 c 0.379,0.18 0.766,0.324 1.164,0.461 l 2.023,4.734 4,0 1.98,-4.758 c 0.379,-0.141 0.754,-0.289 1.113,-0.461 l 4.797,1.922 2.828,-2.828 -1.969,-4.773 c 0.168,-0.359 0.305,-0.723 0.438,-1.094 L 32,17.969 z M 15.969,22 c -3.312,0 -6,-2.688 -6,-6 0,-3.312 2.688,-6 6,-6 3.312,0 6,2.688 6,6 0,3.312 -2.688,6 -6,6 z"
           style="fill:#7f8c8d;fill-opacity:1"
           inkscape:connector-curvature="0" />
      </g>
    </g>
    <path
       sodipodi:type="arc"
       style="fill:#7f8c8d;fill-opacity:1;stroke:none"
       id="path4201"
       sodipodi:cx="22.804193"
       sodipodi:cy="37.305012"
       sodipodi:rx="1.8119612"
       sodipodi:ry="1.8119612"
       d="m 24.616155,37.305012 c 0,1.000718 -0.811243,1.811961 -1.811962,1.811961 -1.000718,0 -1.811961,-0.811243 -1.811961,-1.811961 0,-1.000719 0.811243,-1.811961 1.811961,-1.811961 1.000719,0 1.811962,0.811242 1.811962,1.811961 z"
       transform="matrix(1.5469632,0,0,1.5469632,-12.330832,986.10771)" />
    <path
       transform="matrix(0.587846,0,0,0.587846,9.5410619,1021.8875)"
       d="m 24.616155,37.305012 c 0,1.000718 -0.811243,1.811961 -1.811962,1.811961 -1.000718,0 -1.811961,-0.811243 -1.811961,-1.811961 0,-1.000719 0.811243,-1.811961 1.811961,-1.811961 1.000719,0 1.811962,0.811242 1.811962,1.811961 z"
       sodipodi:ry="1.8119612"
       sodipodi:rx="1.8119612"
       sodipodi:cy="37.305012"
       sodipodi:cx="22.804193"
       id="path4203"
       style="fill:#bdc3c7;fill-opacity:1;stroke:none"
       sodipodi:type="arc" />
  </g>
</svg>
