<svg xmlns="http://www.w3.org/2000/svg" viewBox="0 0 48 48"><defs><linearGradient gradientUnits="userSpaceOnUse" y2="544.83" x2="0" y1="546.95" id="2"><stop stop-color="#040404"/><stop offset="1" stop-color="#121212" stop-opacity=".908"/></linearGradient><linearGradient gradientUnits="userSpaceOnUse" y2="518.41" x2="449.55" y1="540.75" x1="449.43" id="3"><stop stop-color="#bec1c7"/><stop offset="1" stop-color="#dddfe2"/></linearGradient><linearGradient gradientTransform="matrix(.5054 0 0 1 229.15 2.167)" gradientUnits="userSpaceOnUse" y2="543.09" x2="0" y1="544.15" id="1"><stop stop-color="#197cf1"/><stop offset="1" stop-color="#20bcfa"/></linearGradient><linearGradient gradientTransform="matrix(.24842 0 0 .24428 433.38 517.17)" x2="122.72" x1="10.09" gradientUnits="userSpaceOnUse" id="0"><stop stop-color="#1a1a1a"/><stop offset=".111" stop-color="#2c2c2e"/><stop offset=".29" stop-color="#2b2b2d"/><stop offset=".512" stop-color="#2a2b2d"/><stop offset=".752" stop-color="#2b2b2d"/><stop offset=".897" stop-color="#323232"/><stop offset="1" stop-color="#171717"/></linearGradient><linearGradient x1="57.29" x2="319.02" gradientUnits="userSpaceOnUse"><stop stop-color="#c8c8c8"/><stop offset="1" stop-color="#969696"/></linearGradient></defs><g transform="matrix(.88443 0 0 .88443-337.35-439.13)"><g transform="matrix(1.88452 0 0 1.88452-346.02-478.72)"><flowRoot transform="translate(389.57 520.8)" font-family="sans-serif" text-align="start" word-spacing="0" line-height="125%" letter-spacing="0" font-size="10"><flowRegion><path d="m22 3h27v15h-27z"/></flowRegion><flowPara>Plasm</flowPara></flowRoot><g transform="translate(-56.14-2.138)"><g transform="translate(6.68 2.113)"><path d="m435.89 541.07l.248 3.915c0 .406.332.733.745.733h25.99c.413 0 .745-.327.745-.733l.248-3.915h-27.978" fill="url(#0)"/><path d="m438.13 518.12h23.26c.413 0 .745.327.745.733l1.739 22.1c0 .406-.332.733-.745.733h-26.489c-.413 0-.745-.327-.745-.733l1.49-22.1c0-.406.332-.733.745-.733" fill="url(#3)"/></g><rect width="11.463" height=".769" x="450.87" y="545.61" fill="url(#1)" rx=".384"/><ellipse ry="1.061" rx="1.061" cy="546.02" cx="467.09" opacity=".452" fill="url(#2)"/><g transform="matrix(.00848 0 0 .00848 466.55 545.43)" opacity=".668" fill="#e3e8ea"><path d="m63 73.22c2.824 0 5.27-1.031 7.332-3.096 2.064-2.063 3.098-4.508 3.098-7.332v-52.14c0-2.825-1.033-5.269-3.098-7.332-2.062-2.065-4.507-3.097-7.332-3.097-2.825 0-5.269 1.033-7.333 3.097-2.064 2.063-3.096 4.508-3.096 7.332v52.14c0 2.824 1.032 5.269 3.096 7.332 2.064 2.065 4.509 3.096 7.333 3.096"/><path d="m119.01 45.27c-4.373-8.744-10.523-16.08-18.453-21.997-2.281-1.738-4.861-2.417-7.74-2.037-2.879.38-5.16 1.738-6.844 4.073-1.738 2.281-2.403 4.847-1.996 7.699.406 2.853 1.752 5.147 4.03 6.885 5.321 4.02 9.438 8.935 12.342 14.747 2.906 5.811 4.358 12 4.358 18.575 0 5.65-1.1 11.04-3.299 16.17-2.2 5.133-5.174 9.573-8.922 13.321-3.748 3.747-8.187 6.721-13.32 8.921-5.133 2.2-10.524 3.301-16.17 3.301-5.648 0-11.04-1.101-16.17-3.301-5.133-2.2-9.573-5.174-13.321-8.921-3.747-3.748-6.721-8.188-8.921-13.321-2.2-5.133-3.3-10.523-3.3-16.17 0-6.571 1.453-12.763 4.359-18.575 2.906-5.811 7.02-10.727 12.343-14.747 2.281-1.739 3.625-4.03 4.03-6.885.407-2.851-.258-5.418-1.996-7.699-1.684-2.335-3.951-3.693-6.803-4.073-2.852-.38-5.446.299-7.781 2.037-7.931 5.92-14.08 13.253-18.454 21.997-4.373 8.745-6.559 18.06-6.559 27.945 0 8.474 1.657 16.566 4.97 24.279 3.314 7.713 7.767 14.366 13.362 19.961 5.594 5.594 12.248 10.05 19.961 13.36 7.713 3.314 15.806 4.972 24.279 4.972 8.473 0 16.566-1.658 24.279-4.972 7.713-3.312 14.367-7.766 19.961-13.36 5.594-5.594 10.05-12.248 13.361-19.961 3.313-7.713 4.969-15.806 4.969-24.279 0-9.885-2.183-19.2-6.556-27.945"/></g></g></g><path d="m481.1 209.44l-47.955-47.979c-1.832-1.823-4.301-2.852-6.881-2.852-2.582 0-5.05 1.02-6.883 2.844l-47.971 47.986c-3.809 3.791-3.809 9.956 0 13.749l6.691 6.683-36.563 36.548-84.964-16.617 139.67-139.67 17.684 17.684c1.897 1.897 4.65 2.669 7.248 2.031 2.614-.638 4.7-2.581 5.514-5.139l32.533-102.52c.859-2.732.127-5.727-1.898-7.759-2.039-2.023-5.02-2.757-7.757-1.888l-102.52 32.525c-2.55.813-4.509 2.9-5.146 5.504-.638 2.614.143 5.361 2.039 7.257l17.699 17.701-193.46 193.45-17.923-91.67 29.03-29.03c14.1 2.868 29.31-1.141 40.24-12.07 17.35-17.334 17.35-45.44-.017-62.794-17.317-17.334-45.42-17.31-62.771.024-10.945 10.929-14.943 26.15-12.07 40.25l-38.22 38.22c-5.768 5.761-8.284 14-6.707 22l26.75 136.76-59.664 59.655c-17.699-5.313-37.631-1.202-51.618 12.785-20.265 20.282-20.282 53.14-.017 73.42 20.297 20.296 53.16 20.296 73.44.016 13.989-13.98 18.08-33.895 12.777-51.603l113.45-113.44 130.07 25.441c1.562.304 3.139.455 4.7.455 6.42 0 12.667-2.533 17.301-7.17l45.756-45.756 6.692 6.692c1.832 1.823 4.301 2.843 6.883 2.843 2.58 0 5.05-1.027 6.881-2.852l47.955-47.978c3.809-3.799 3.809-9.949.002-13.748z" stroke-width="2.042" transform="matrix(.03864-.03103.03851.03113 389.79 518.18)" fill="#a1a7ae" stroke="#909296"/></g></svg>