<svg xmlns="http://www.w3.org/2000/svg" viewBox="0 0 48 48"><defs><clipPath><path d="m69.63 12.145h-.052c-22.727-.292-46.47 4.077-46.709 4.122-2.424.451-4.946 2.974-5.397 5.397-.044.237-4.414 23.983-4.122 46.71-.292 22.777 4.078 46.523 4.122 46.761.451 2.423 2.974 4.945 5.398 5.398.237.044 23.982 4.413 46.709 4.121 22.779.292 46.524-4.077 46.761-4.121 2.423-.452 4.946-2.976 5.398-5.399.044-.236 4.413-23.981 4.121-46.709.292-22.777-4.077-46.523-4.121-46.761-.453-2.423-2.976-4.946-5.398-5.397-.238-.045-23.984-4.414-46.71-4.122"/></clipPath><linearGradient gradientUnits="userSpaceOnUse" y2="-8.868" x2="68.07" y1="157.34" x1="72.03" id="0"><stop stop-color="#ff9300"/><stop offset="1" stop-color="#ffd702"/></linearGradient></defs><path d="m135.78 50.46c0-2.01-1.52-3.259-4.564-3.748l-40.897-5.947-18.331-37.07c-1.031-2.227-2.363-3.34-3.992-3.34-1.629 0-2.96 1.113-3.992 3.34l-18.332 37.07-40.899 5.947c-3.041.489-4.562 1.738-4.562 3.748 0 1.141.679 2.445 2.037 3.911l29.656 28.841-7.01 40.736c-.109.761-.163 1.305-.163 1.63 0 1.141.285 2.104.855 2.893.57.788 1.425 1.181 2.566 1.181.978 0 2.064-.324 3.259-.977l36.58-19.229 36.583 19.229c1.142.652 2.228.977 3.258.977 1.089 0 1.916-.392 2.486-1.181.569-.788.854-1.752.854-2.893 0-.706-.027-1.249-.082-1.63l-7.01-40.736 29.574-28.841c1.414-1.412 2.119-2.716 2.119-3.911" transform="matrix(.35406 0 0 .35406-.081.982)" fill="url(#0)"/></svg>