<?xml version="1.0" encoding="UTF-8" standalone="no"?>
<svg
   xmlns:osb="http://www.openswatchbook.org/uri/2009/osb"
   xmlns:dc="http://purl.org/dc/elements/1.1/"
   xmlns:cc="http://creativecommons.org/ns#"
   xmlns:rdf="http://www.w3.org/1999/02/22-rdf-syntax-ns#"
   xmlns:svg="http://www.w3.org/2000/svg"
   xmlns="http://www.w3.org/2000/svg"
   xmlns:xlink="http://www.w3.org/1999/xlink"
   xmlns:sodipodi="http://sodipodi.sourceforge.net/DTD/sodipodi-0.dtd"
   xmlns:inkscape="http://www.inkscape.org/namespaces/inkscape"
   width="64"
   viewBox="0 0 64 64"
   height="64"
   id="svg2"
   version="1.1"
   inkscape:version="0.91 r13725"
   sodipodi:docname="application-msword-template.svg"
   inkscape:export-filename="E:\Usuarios\David\Desktop\android.png"
   inkscape:export-xdpi="90"
   inkscape:export-ydpi="90">
  <metadata
     id="metadata14">
    <rdf:RDF>
      <cc:Work
         rdf:about="">
        <dc:format>image/svg+xml</dc:format>
        <dc:type
           rdf:resource="http://purl.org/dc/dcmitype/StillImage" />
        <dc:title />
      </cc:Work>
    </rdf:RDF>
  </metadata>
  <defs
     id="defs12">
    <linearGradient
       osb:paint="gradient"
       id="linearGradient4207">
      <stop
         id="stop3371"
         offset="0"
         style="stop-color:#3498db;stop-opacity:1;" />
      <stop
         id="stop3373"
         offset="1"
         style="stop-color:#3498db;stop-opacity:0;" />
    </linearGradient>
    <linearGradient
       inkscape:collect="always"
       xlink:href="#linearGradient4422-1"
       id="linearGradient4182"
       x1="-74.929466"
       y1="52.199436"
       x2="-75.259552"
       y2="2.3564887"
       gradientUnits="userSpaceOnUse"
       gradientTransform="matrix(1.0749904,0,0,1.0292896,56.688954,-0.01528455)" />
    <linearGradient
       id="linearGradient4422-1">
      <stop
         style="stop-color:#8798a9;stop-opacity:1"
         offset="0"
         id="stop4424-78" />
      <stop
         style="stop-color:#aeb6be;stop-opacity:1"
         offset="1"
         id="stop4426-8" />
    </linearGradient>
  </defs>
  <sodipodi:namedview
     pagecolor="#747474"
     bordercolor="#666666"
     borderopacity="1"
     objecttolerance="10"
     gridtolerance="10"
     guidetolerance="10"
     inkscape:pageopacity="1"
     inkscape:pageshadow="2"
     inkscape:window-width="1366"
     inkscape:window-height="687"
     id="namedview10"
     showgrid="false"
     inkscape:zoom="5.2716365"
     inkscape:cx="-11.520242"
     inkscape:cy="34.842076"
     inkscape:window-x="0"
     inkscape:window-y="0"
     inkscape:window-maximized="1"
     inkscape:current-layer="svg2"
     inkscape:snap-bbox="true"
     inkscape:bbox-nodes="true"
     inkscape:object-nodes="true"
     borderlayer="false"
     showguides="true"
     inkscape:snap-nodes="true"
     inkscape:object-paths="false"
     inkscape:showpageshadow="false"
     showborder="true">
    <inkscape:grid
       type="xygrid"
       id="grid4160"
       visible="true" />
    <sodipodi:guide
       position="28.888657,63.404975"
       orientation="0,35.2"
       id="guide6108" />
    <sodipodi:guide
       position="54,55.679691"
       orientation="51.200004,0"
       id="guide6112" />
    <sodipodi:guide
       position="58.527669,62"
       orientation="0,1"
       id="guide6114"
       inkscape:label=""
       inkscape:color="rgb(0,0,255)" />
    <sodipodi:guide
       position="10,4"
       orientation="-56,0"
       id="guide6116" />
    <sodipodi:guide
       position="11,4"
       orientation="-2.8421709e-014,0"
       id="guide6118" />
    <sodipodi:guide
       position="12,62"
       orientation="0,35.2"
       id="guide6120" />
    <sodipodi:guide
       position="12,62"
       orientation="0,35.2"
       id="guide6138" />
    <sodipodi:guide
       position="55,3"
       orientation="0,-40"
       id="guide6156" />
    <sodipodi:guide
       position="53,4.3973202"
       orientation="-56,0"
       id="guide6158" />
    <sodipodi:guide
       position="43,48"
       orientation="22,0"
       id="guide4240" />
    <sodipodi:guide
       position="43,26"
       orientation="0,-22"
       id="guide4242" />
    <sodipodi:guide
       position="21,26"
       orientation="-22,0"
       id="guide4244" />
  </sodipodi:namedview>
  <g
     id="g4186"
     transform="translate(56.391766,-0.17677736)">
    <g
       id="g4239"
       transform="translate(0,0.26550102)">
      <rect
         style="opacity:1;fill:url(#linearGradient4182);fill-opacity:1;stroke:none;stroke-width:0.30000001;stroke-linecap:round;stroke-linejoin:round;stroke-miterlimit:4;stroke-dasharray:none;stroke-dashoffset:0;stroke-opacity:1"
         id="rect4174"
         width="44"
         height="60.531002"
         x="-46.391766"
         y="1.6457753"
         ry="2.5" />
    </g>
    <g
       inkscape:transform-center-y="-9.4924686"
       inkscape:transform-center-x="5.4653607"
       inkscape:label="Capa 1"
       id="layer1-4"
       transform="translate(-509.70748,-515.64674)">
      <g
         id="layer1-3-65"
         inkscape:label="Capa 1"
         transform="translate(0.41988239,0.03484499)" />
    </g>
  </g>
  <g
     id="g4654"
     transform="matrix(1.0909091,0,0,1.0909091,-46.223079,17.037906)">
    <g
       id="g4186-6-7"
       transform="translate(49.221254,-13.568495)">
      <path
         inkscape:connector-curvature="0"
         d="m 24.054663,16.283748 -13.357143,2.357143 0,17.285714 13.357143,2.357143 0,-22 z m 0.785714,2.357143 0,2.357143 7.071429,0 0,0.785714 -7.071429,0 0,1.571429 7.071429,0 0,0.785714 -7.071429,0 0,1.571428 7.071429,0 0,0.785715 -7.071429,0 0,1.571428 7.071429,0 0,0.785715 -7.071429,0 0,1.571428 7.071429,0 0,0.785714 -7.071429,0 0,1.571429 7.071429,0 0,0.785714 -7.071429,0 0,2.357143 9.428572,0 0,-17.285714 -9.428572,0 z m -4.616071,4.640625 0.76116,0 c 0.69812,0 0.742317,0.04668 0.662947,0.392857 -0.04725,0.206101 -0.447072,2.037785 -0.883929,4.075893 l -0.785714,3.707589 -0.810268,0 c -0.441821,0 -0.801801,-0.02621 -0.810268,-0.04911 -0.0085,-0.0229 -0.262254,-1.235287 -0.564732,-2.700893 -0.302477,-1.465606 -0.589363,-2.568204 -0.638393,-2.430803 -0.04903,0.137401 -0.306974,1.342374 -0.564732,2.651785 l -0.466518,2.381697 -0.736607,-0.04911 -0.761161,-0.04911 -0.613839,-3.265625 c -0.342487,-1.786207 -0.665762,-3.440666 -0.712053,-3.683035 -0.07659,-0.400995 -0.02411,-0.452614 0.515625,-0.515625 0.752026,-0.08779 0.784223,-0.01014 1.227678,2.872768 0.18945,1.231615 0.342604,2.257784 0.368304,2.283482 0.0257,0.0257 0.295703,-1.142196 0.589285,-2.578125 0.293583,-1.435929 0.623433,-2.653562 0.736608,-2.725447 0.325722,-0.206885 1.240693,-0.155587 1.325892,0.07366 0.04256,0.114501 0.306608,1.353094 0.564733,2.75 0.431857,2.337113 0.735298,3.18833 0.736607,2.0625 5.01e-4,-0.449645 0.345353,-2.596564 0.6875,-4.321429 l 0.171875,-0.883928 z"
         id="rect3139"
         style="color:#000000;display:inline;overflow:visible;visibility:visible;fill:#3d434a;fill-opacity:1;fill-rule:nonzero;stroke:none;stroke-width:0.99999994;marker:none;enable-background:accumulate" />
    </g>
  </g>
</svg>
