<?xml version="1.0" encoding="UTF-8" standalone="no"?>
<svg
   xmlns:osb="http://www.openswatchbook.org/uri/2009/osb"
   xmlns:dc="http://purl.org/dc/elements/1.1/"
   xmlns:cc="http://creativecommons.org/ns#"
   xmlns:rdf="http://www.w3.org/1999/02/22-rdf-syntax-ns#"
   xmlns:svg="http://www.w3.org/2000/svg"
   xmlns="http://www.w3.org/2000/svg"
   xmlns:xlink="http://www.w3.org/1999/xlink"
   xmlns:sodipodi="http://sodipodi.sourceforge.net/DTD/sodipodi-0.dtd"
   xmlns:inkscape="http://www.inkscape.org/namespaces/inkscape"
   width="64"
   viewBox="0 0 64 64"
   height="64"
   id="svg2"
   version="1.1"
   inkscape:version="0.91 r13725"
   sodipodi:docname="application-x-arj.svg"
   inkscape:export-filename="E:\Usuarios\David\Desktop\android.png"
   inkscape:export-xdpi="90"
   inkscape:export-ydpi="90">
  <metadata
     id="metadata14">
    <rdf:RDF>
      <cc:Work
         rdf:about="">
        <dc:format>image/svg+xml</dc:format>
        <dc:type
           rdf:resource="http://purl.org/dc/dcmitype/StillImage" />
        <dc:title />
      </cc:Work>
    </rdf:RDF>
  </metadata>
  <defs
     id="defs12">
    <linearGradient
       osb:paint="gradient"
       id="linearGradient4207">
      <stop
         id="stop3371"
         offset="0"
         style="stop-color:#3498db;stop-opacity:1;" />
      <stop
         id="stop3373"
         offset="1"
         style="stop-color:#3498db;stop-opacity:0;" />
    </linearGradient>
    <linearGradient
       inkscape:collect="always"
       xlink:href="#linearGradient4422-6"
       id="linearGradient4182"
       x1="-74.929466"
       y1="52.199436"
       x2="-75.259552"
       y2="2.3564887"
       gradientUnits="userSpaceOnUse"
       gradientTransform="matrix(1.0749904,0,0,1.0292896,56.688954,-0.01528526)" />
    <linearGradient
       id="linearGradient4422-6">
      <stop
         id="stop4424-383"
         offset="0"
         style="stop-color:#fa883c;stop-opacity:1" />
      <stop
         id="stop4426-9"
         offset="1"
         style="stop-color:#ff923c;stop-opacity:1" />
    </linearGradient>
  </defs>
  <sodipodi:namedview
     pagecolor="#747474"
     bordercolor="#666666"
     borderopacity="1"
     objecttolerance="10"
     gridtolerance="10"
     guidetolerance="10"
     inkscape:pageopacity="1"
     inkscape:pageshadow="2"
     inkscape:window-width="1366"
     inkscape:window-height="687"
     id="namedview10"
     showgrid="false"
     inkscape:zoom="7.4552198"
     inkscape:cx="13.80826"
     inkscape:cy="33.265505"
     inkscape:window-x="0"
     inkscape:window-y="0"
     inkscape:window-maximized="1"
     inkscape:current-layer="g4186"
     inkscape:snap-bbox="true"
     inkscape:bbox-nodes="true"
     inkscape:object-nodes="true"
     borderlayer="false"
     showguides="false"
     inkscape:snap-nodes="true"
     inkscape:object-paths="false"
     inkscape:showpageshadow="false"
     showborder="true">
    <inkscape:grid
       type="xygrid"
       id="grid4160"
       visible="true" />
    <sodipodi:guide
       position="28.888657,63.404975"
       orientation="0,35.2"
       id="guide6108" />
    <sodipodi:guide
       position="54,55.679691"
       orientation="51.200004,0"
       id="guide6112" />
    <sodipodi:guide
       position="58.527669,62"
       orientation="0,1"
       id="guide6114"
       inkscape:label=""
       inkscape:color="rgb(0,0,255)" />
    <sodipodi:guide
       position="10,4"
       orientation="-56,0"
       id="guide6116" />
    <sodipodi:guide
       position="11,4"
       orientation="-2.8421709e-014,0"
       id="guide6118" />
    <sodipodi:guide
       position="12,62"
       orientation="0,35.2"
       id="guide6120" />
    <sodipodi:guide
       position="52,2"
       orientation="0,-40"
       id="guide6126" />
    <sodipodi:guide
       position="12,62"
       orientation="0,35.2"
       id="guide6138" />
    <sodipodi:guide
       position="55,3"
       orientation="0,-40"
       id="guide6156" />
    <sodipodi:guide
       position="53,4.3973202"
       orientation="-56,0"
       id="guide6158" />
    <sodipodi:guide
       position="43,48"
       orientation="22,0"
       id="guide4240" />
    <sodipodi:guide
       position="43,26"
       orientation="0,-22"
       id="guide4242" />
    <sodipodi:guide
       position="21,26"
       orientation="-22,0"
       id="guide4244" />
  </sodipodi:namedview>
  <g
     id="g4186"
     transform="translate(56.391766,-0.17677665)">
    <g
       inkscape:transform-center-y="-9.4924686"
       inkscape:transform-center-x="5.4653607"
       inkscape:label="Capa 1"
       id="layer1-4"
       transform="translate(-509.70748,-515.64674)">
      <g
         id="layer1-3-65"
         inkscape:label="Capa 1"
         transform="translate(0.41988239,0.03484499)" />
    </g>
    <g
       id="g4176"
       transform="translate(0,0.26550102)">
      <rect
         style="opacity:1;fill:url(#linearGradient4182);fill-opacity:1;stroke:none;stroke-width:0.30000001;stroke-linecap:round;stroke-linejoin:round;stroke-miterlimit:4;stroke-dasharray:none;stroke-dashoffset:0;stroke-opacity:1"
         id="rect4174"
         width="44"
         height="60.531002"
         x="-46.391766"
         y="1.6457746"
         ry="2.5" />
      <g
         transform="matrix(0.84688321,0,0,0.84688321,-417.85022,-413.60435)"
         id="layer1-5"
         inkscape:label="Capa 1">
        <g
           id="g4414"
           transform="matrix(1.5263052,0,0,1.5263052,376.49864,-1040.1735)">
          <g
             transform="matrix(0.42549858,0,0,0.42549858,-116.82388,804.06163)"
             id="layer1-0"
             inkscape:label="Capa 1">
            <path
               style="opacity:1;fill:#6d3c1a;fill-opacity:1;stroke:none;stroke-width:2.79999995;stroke-miterlimit:4;stroke-dasharray:none;stroke-opacity:0.55026455"
               d="m 392.75248,500.16186 c -1.20872,0 -2.18104,0.97232 -2.18104,2.18104 l 0,39.27425 c 0,1.20872 0.97232,2.18104 2.18104,2.18104 l 34.90829,0 c 1.20872,0 2.18492,-0.97232 2.18492,-2.18104 l 0,-39.27425 c 0,-1.20872 -0.9762,-2.18104 -2.18492,-2.18104 l -34.90829,0 z m 16.32101,1.21255 2.4251,0 c 0.53707,0 0.96849,0.43142 0.96849,0.96849 l 0,0.24406 c 0,0.53707 -0.43142,0.96849 -0.96849,0.96849 l -2.4251,0 c -0.53707,0 -0.96849,-0.43142 -0.96849,-0.96849 l 0,-0.24406 c 0,-0.53707 0.43142,-0.96849 0.96849,-0.96849 z m -0.008,3.15341 2.4251,0 c 0.53707,0 0.96849,0.43529 0.96849,0.97236 l 0,0.24019 c 0,0.53706 -0.43142,0.97236 -0.96849,0.97236 l -2.4251,0 c -0.53706,0 -0.97236,-0.4353 -0.97236,-0.97236 l 0,-0.24019 c 0,-0.53707 0.4353,-0.97236 0.97236,-0.97236 z m -0.0271,3.11854 2.4251,0 c 0.53706,0 0.96849,0.43142 0.96849,0.96849 l 0,0.24406 c 0,0.53707 -0.43143,0.96849 -0.96849,0.96849 l -2.4251,0 c -0.53707,0 -0.97237,-0.43142 -0.97237,-0.96849 l 0,-0.24406 c 0,-0.53707 0.4353,-0.96849 0.97237,-0.96849 z m 0.0465,3.24638 2.4251,0 c 0.53707,0 0.9685,0.43142 0.9685,0.96849 l 0,0.24406 c 0,0.53707 -0.43143,0.96849 -0.9685,0.96849 l -2.4251,0 c -0.53706,0 -0.96849,-0.43142 -0.96849,-0.96849 l 0,-0.24406 c 0,-0.53707 0.43143,-0.96849 0.96849,-0.96849 z m 0,3.18827 2.4251,0 c 0.53707,0 0.9685,0.43143 0.9685,0.96849 l 0,0.24406 c 0,0.53707 -0.43143,0.96849 -0.9685,0.96849 l -2.4251,0 c -0.53706,0 -0.96849,-0.43142 -0.96849,-0.96849 l 0,-0.24406 c 0,-0.53706 0.43143,-0.96849 0.96849,-0.96849 z m 0,3.26188 2.4251,0 c 0.53707,0 0.9685,0.4353 0.9685,0.97236 l 0,0.24019 c 0,0.53707 -0.43143,0.97237 -0.9685,0.97237 l -2.4251,0 c -0.53706,0 -0.96849,-0.4353 -0.96849,-0.97237 l 0,-0.24019 c 0,-0.53706 0.43143,-0.97236 0.96849,-0.97236 z m 0.1937,3.30062 1.92536,0 c 0.38222,0 0.68957,0.30983 0.68957,0.69344 l 0,1.37913 1.06921,3.1534 c 0.2992,0.87836 0.15577,1.85414 -0.38352,2.61106 -0.53929,0.75553 -1.41352,1.20867 -2.33988,1.20867 -0.92617,0 -1.80057,-0.45314 -2.33987,-1.20867 -0.53929,-0.75692 -0.68281,-1.73201 -0.38352,-2.61106 l 1.06921,-3.1534 0,-1.37913 c 0,-0.38353 0.31122,-0.69344 0.69344,-0.69344 z m -0.0852,4.61776 -0.3564,1.05759 c -0.15371,0.45387 -0.0806,0.95768 0.19757,1.34814 0.555,0.77944 1.85857,0.77944 2.41348,0 0.27812,-0.39046 0.35135,-0.89496 0.19757,-1.34814 l -0.3564,-1.05759 -2.09582,0 z"
               id="rect4319"
               inkscape:connector-curvature="0" />
            <g
               transform="translate(-0.71741557,0.01714041)"
               inkscape:label="Capa 1"
               id="layer1-7"
               style="fill:#ffffff;fill-opacity:1" />
          </g>
        </g>
      </g>
    </g>
  </g>
</svg>
