<svg xmlns="http://www.w3.org/2000/svg" viewBox="0 0 16 16"><path transform="matrix(.29167 0 0 .29167 18.716 5.738)" d="m-35.28711-9.06836a16.818401 16.818401 0 0 0 -7.783203 1.917969h-7.229v-.615c0-.511-.412-.924-.924-.924h-3.691c-.511 0-.924.412-.924.924v.615h-3.527c-.767 0-1.385.618-1.385 1.385v26.82c0 .767.618 1.385 1.385 1.385h15.898a16.818401 16.818401 0 0 0 8.179688 2.128906 16.818401 16.818401 0 0 0 8.15039 -2.128906h13c.767 0 1.385-.618 1.385-1.385v-26.82c0-.767-.618-1.385-1.385-1.385h-13.381a16.818401 16.818401 0 0 0 -7.771484 -1.917969m0 3.603516A13.214467 13.214467 0 0 1 -22.07227 7.75 13.214467 13.214467 0 0 1 -35.28711 20.964844 13.214467 13.214467 0 0 1 -48.50195 7.75 13.214467 13.214467 0 0 1 -35.28711 -5.464844m-20.0918 1.037109a2.391408 2.391408 0 0 1 2.392578 2.390625 2.391408 2.391408 0 0 1 -2.392578 2.392578 2.391408 2.391408 0 0 1 -2.390625 -2.392578 2.391408 2.391408 0 0 1 2.390625 -2.390625z" fill="#fff"/></svg>