<?xml version="1.0" encoding="UTF-8" standalone="no"?>
<!-- Created with Inkscape (http://www.inkscape.org/) -->

<svg
   xmlns:dc="http://purl.org/dc/elements/1.1/"
   xmlns:cc="http://creativecommons.org/ns#"
   xmlns:rdf="http://www.w3.org/1999/02/22-rdf-syntax-ns#"
   xmlns:svg="http://www.w3.org/2000/svg"
   xmlns="http://www.w3.org/2000/svg"
   xmlns:sodipodi="http://sodipodi.sourceforge.net/DTD/sodipodi-0.dtd"
   xmlns:inkscape="http://www.inkscape.org/namespaces/inkscape"
   width="16"
   height="16"
   id="svg2"
   version="1.1"
   inkscape:version="0.91 r13725"
   viewBox="0 0 16 16"
   sodipodi:docname="folder-image.svg">
  <defs
     id="defs4" />
  <sodipodi:namedview
     id="base"
     pagecolor="#9e9e9e"
     bordercolor="#666666"
     borderopacity="1.0"
     inkscape:pageopacity="0"
     inkscape:pageshadow="2"
     inkscape:zoom="15.839192"
     inkscape:cx="-6.3590508"
     inkscape:cy="7.028701"
     inkscape:document-units="px"
     inkscape:current-layer="layer1-46"
     showgrid="true"
     inkscape:showpageshadow="false"
     borderlayer="true"
     units="px"
     inkscape:window-width="1366"
     inkscape:window-height="688"
     inkscape:window-x="0"
     inkscape:window-y="0"
     inkscape:window-maximized="1"
     inkscape:snap-global="true"
     inkscape:snap-bbox="true">
    <inkscape:grid
       type="xygrid"
       id="grid4062" />
    <sodipodi:guide
       position="2,2.0000174"
       orientation="0,12"
       id="guide4068" />
    <sodipodi:guide
       position="12,8"
       orientation="-12,0"
       id="guide4070" />
  </sodipodi:namedview>
  <metadata
     id="metadata7">
    <rdf:RDF>
      <cc:Work
         rdf:about="">
        <dc:format>image/svg+xml</dc:format>
        <dc:type
           rdf:resource="http://purl.org/dc/dcmitype/StillImage" />
        <dc:title />
      </cc:Work>
    </rdf:RDF>
  </metadata>
  <g
     inkscape:label="Capa 1"
     inkscape:groupmode="layer"
     id="layer1"
     transform="translate(0,-1036.3622)">
    <g
       transform="matrix(0.90537551,0,0,0.90537551,-365.91682,562.06022)"
       id="layer1-0"
       inkscape:label="Capa 1"
       style="fill:none;fill-opacity:1;stroke:#4f96d1;stroke-opacity:1" />
    <g
       transform="translate(-401.01229,510.63371)"
       id="layer1-00"
       inkscape:label="Capa 1">
      <g
         transform="translate(5.05585,-5.251147)"
         id="layer1-4"
         inkscape:label="Capa 1">
        <g
           transform="translate(-11.317,5.8824915)"
           id="layer1-9"
           inkscape:label="Capa 1"
           style="stroke:#000000;stroke-opacity:0.8">
          <g
             transform="translate(1.8733025,-0.28410538)"
             id="layer1-79"
             inkscape:label="Capa 1">
            <g
               transform="translate(-2.0518724,-0.97858527)"
               id="layer1-2"
               inkscape:label="Capa 1">
              <g
                 transform="translate(0.22097092,0.44194173)"
                 id="layer1-26"
                 inkscape:label="Capa 1">
                <g
                   transform="translate(1.3573925,-1.2626907)"
                   id="layer1-46"
                   inkscape:label="Capa 1">
                  <g
                     id="g4457"
                     transform="matrix(0.24609832,0,0,0.24609832,407.61106,528.918)"
                     style="fill:#ffffff;fill-opacity:1;stroke:none">
                    <g
                       id="g4405"
                       style="fill:#ffffff;fill-opacity:1;stroke:none">
                      <g
                         id="g4407"
                         style="fill:#ffffff;fill-opacity:1;stroke:none">
                        <path
                           id="path4409"
                           d="m 15.271,12.384 c 0.116,0.064 0.222,0.152 0.308,0.264 l 8.286,10.84 c 0.172,-0.058 0.34,-0.123 0.52,-0.162 l 0,-4.013 c 0,-0.553 0.447,-1 1,-1 0.553,0 1,0.447 1,1 l 0,4.014 c 0.306,0.065 0.6,0.159 0.88,0.28 l 8.263,-11.396 c 0.038,-0.225 0.069,-0.452 0.098,-0.687 C 35.77,10.298 35.049,7.774 32.741,6.043 31.803,5.466 26.251,2.077 25.385,1.067 24.52,2.077 18.967,5.466 18.029,6.043 15.721,7.774 15,10.298 15.144,11.524 c 0.035,0.296 0.074,0.578 0.127,0.86 z"
                           style="fill:#ffffff;fill-opacity:1;stroke:none"
                           inkscape:connector-curvature="0" />
                        <path
                           id="path4411"
                           d="M 7.582,32.751 20.674,28.34 c -0.01,-0.126 -0.038,-0.246 -0.038,-0.374 0,-0.163 0.032,-0.318 0.048,-0.477 l -3.837,-1.246 c -0.525,-0.171 -0.813,-0.734 -0.643,-1.26 0.17,-0.526 0.736,-0.812 1.26,-0.643 l 3.835,1.245 c 0.231,-0.394 0.507,-0.755 0.837,-1.066 L 13.99,13.862 C 13.902,13.746 13.846,13.617 13.815,13.484 13.586,13.362 13.354,13.248 13.109,13.136 11.988,12.62 9.364,12.526 7.005,14.186 6.167,14.899 1.227,19.133 0,19.644 c 0.693,1.135 2.2,7.464 2.459,8.533 0.933,2.73 3.111,4.195 4.321,4.437 0.273,0.055 0.537,0.101 0.802,0.137 z"
                           style="fill:#ffffff;fill-opacity:1;stroke:none"
                           inkscape:connector-curvature="0" />
                        <path
                           id="path4413"
                           d="m 21.108,35.555 c -0.195,0.271 -0.5,0.412 -0.81,0.412 -0.204,0 -0.409,-0.062 -0.587,-0.191 -0.446,-0.323 -0.546,-0.948 -0.221,-1.396 l 2.369,-3.26 c -0.236,-0.263 -0.437,-0.552 -0.61,-0.863 L 7.994,34.723 c -0.104,0.106 -0.206,0.215 -0.31,0.328 -0.837,0.907 -1.738,3.373 -0.888,6.129 0.419,1.018 2.92,7.024 3.026,8.35 1.294,-0.309 7.778,0.214 8.876,0.298 2.884,-0.044 4.951,-1.662 5.555,-2.738 0.125,-0.223 0.24,-0.44 0.349,-0.661 l 0,-13.79 c -0.396,-0.066 -0.776,-0.175 -1.133,-0.332 l -2.361,3.248 z"
                           style="fill:#ffffff;fill-opacity:1;stroke:none"
                           inkscape:connector-curvature="0" />
                        <path
                           id="path4415"
                           d="m 42.912,34.421 -13.236,-4.45 c -0.197,0.422 -0.457,0.805 -0.764,1.147 l 2.369,3.261 c 0.325,0.447 0.227,1.072 -0.221,1.396 -0.178,0.129 -0.383,0.19 -0.588,0.19 -0.31,0 -0.613,-0.144 -0.81,-0.412 L 27.3,32.302 c -0.223,0.1 -0.459,0.17 -0.7,0.234 l 0,13.984 c 0.079,0.151 0.16,0.303 0.247,0.457 0.604,1.076 2.671,2.694 5.555,2.738 1.097,-0.084 7.582,-0.605 8.876,-0.298 0.105,-1.326 2.607,-7.332 3.025,-8.349 0.851,-2.758 -0.049,-5.223 -0.888,-6.131 -0.165,-0.178 -0.332,-0.349 -0.503,-0.516 z"
                           style="fill:#ffffff;fill-opacity:1;stroke:none"
                           inkscape:connector-curvature="0" />
                        <path
                           id="path4417"
                           d="m 43.892,14.012 c -2.358,-1.66 -4.982,-1.566 -6.104,-1.05 -0.177,0.082 -0.348,0.165 -0.516,0.25 l -8.389,11.569 c 0.226,0.247 0.42,0.517 0.588,0.806 l 3.836,-1.246 c 0.522,-0.171 1.088,0.117 1.26,0.643 0.171,0.524 -0.117,1.089 -0.643,1.26 l -3.838,1.247 c 0.016,0.159 0.049,0.312 0.049,0.476 0,0.016 -0.006,0.031 -0.006,0.047 l 13.455,4.524 c 0.176,-0.029 0.352,-0.06 0.531,-0.097 1.211,-0.242 3.389,-1.707 4.32,-4.438 0.26,-1.07 1.767,-7.398 2.46,-8.533 -1.225,-0.511 -6.164,-4.745 -7.003,-5.458 z"
                           style="fill:#ffffff;fill-opacity:1;stroke:none"
                           inkscape:connector-curvature="0" />
                        <path
                           id="path4419"
                           d="m 28.028,28.684 c 0.006,-0.021 0.014,-0.039 0.019,-0.061 0.053,-0.212 0.088,-0.43 0.088,-0.658 0,-0.906 -0.444,-1.703 -1.121,-2.205 -0.018,-0.013 -0.032,-0.028 -0.049,-0.04 -0.449,-0.316 -0.991,-0.505 -1.58,-0.505 -0.067,0 -0.13,0.015 -0.195,0.02 -0.462,0.033 -0.892,0.174 -1.263,0.408 -0.018,0.011 -0.039,0.019 -0.056,0.031 -0.19,0.126 -0.357,0.279 -0.51,0.447 -0.445,0.489 -0.724,1.132 -0.724,1.845 0,0.251 0.045,0.489 0.108,0.72 0.006,0.021 0.013,0.041 0.019,0.062 0.339,1.135 1.38,1.969 2.623,1.969 0.022,0 0.043,-0.006 0.065,-0.007 0.022,0 0.042,-0.005 0.064,-0.006 1.207,-0.057 2.204,-0.893 2.512,-2.02 z"
                           style="fill:#ffffff;fill-opacity:1;stroke:none"
                           inkscape:connector-curvature="0" />
                      </g>
                    </g>
                    <g
                       id="g4421"
                       style="fill:#ffffff;fill-opacity:1;stroke:none" />
                    <g
                       id="g4423"
                       style="fill:#ffffff;fill-opacity:1;stroke:none" />
                    <g
                       id="g4425"
                       style="fill:#ffffff;fill-opacity:1;stroke:none" />
                    <g
                       id="g4427"
                       style="fill:#ffffff;fill-opacity:1;stroke:none" />
                    <g
                       id="g4429"
                       style="fill:#ffffff;fill-opacity:1;stroke:none" />
                    <g
                       id="g4431"
                       style="fill:#ffffff;fill-opacity:1;stroke:none" />
                    <g
                       id="g4433"
                       style="fill:#ffffff;fill-opacity:1;stroke:none" />
                    <g
                       id="g4435"
                       style="fill:#ffffff;fill-opacity:1;stroke:none" />
                    <g
                       id="g4437"
                       style="fill:#ffffff;fill-opacity:1;stroke:none" />
                    <g
                       id="g4439"
                       style="fill:#ffffff;fill-opacity:1;stroke:none" />
                    <g
                       id="g4441"
                       style="fill:#ffffff;fill-opacity:1;stroke:none" />
                    <g
                       id="g4443"
                       style="fill:#ffffff;fill-opacity:1;stroke:none" />
                    <g
                       id="g4445"
                       style="fill:#ffffff;fill-opacity:1;stroke:none" />
                    <g
                       id="g4447"
                       style="fill:#ffffff;fill-opacity:1;stroke:none" />
                    <g
                       id="g4449"
                       style="fill:#ffffff;fill-opacity:1;stroke:none" />
                  </g>
                </g>
              </g>
            </g>
          </g>
        </g>
      </g>
    </g>
  </g>
</svg>
