<?xml version="1.0" encoding="UTF-8" standalone="no"?>
<!-- Created with Inkscape (http://www.inkscape.org/) -->

<svg
   xmlns:sketch="http://www.bohemiancoding.com/sketch/ns"
   xmlns:dc="http://purl.org/dc/elements/1.1/"
   xmlns:cc="http://creativecommons.org/ns#"
   xmlns:rdf="http://www.w3.org/1999/02/22-rdf-syntax-ns#"
   xmlns:svg="http://www.w3.org/2000/svg"
   xmlns="http://www.w3.org/2000/svg"
   xmlns:sodipodi="http://sodipodi.sourceforge.net/DTD/sodipodi-0.dtd"
   xmlns:inkscape="http://www.inkscape.org/namespaces/inkscape"
   width="22"
   height="22"
   id="svg3760"
   version="1.1"
   inkscape:version="0.91 r13725"
   sodipodi:docname="audio-volume-low.svg">
  <defs
     id="defs3762">
    <linearGradient
       id="linearGradient5263">
      <stop
         offset="0"
         style="stop-color:#a0d5ff;stop-opacity:1"
         id="stop5265" />
      <stop
         offset="1"
         style="stop-color:#a0d5ff;stop-opacity:1"
         id="stop5267" />
    </linearGradient>
  </defs>
  <sodipodi:namedview
     id="base"
     pagecolor="#6a6a6a"
     bordercolor="#666666"
     borderopacity="1.0"
     inkscape:pageopacity="0"
     inkscape:pageshadow="2"
     inkscape:zoom="16"
     inkscape:cx="1.2643176"
     inkscape:cy="11.742431"
     inkscape:document-units="px"
     inkscape:current-layer="g5548"
     showgrid="true"
     fit-margin-top="0"
     fit-margin-left="0"
     fit-margin-right="0"
     fit-margin-bottom="0"
     inkscape:window-width="1366"
     inkscape:window-height="687"
     inkscape:window-x="0"
     inkscape:window-y="0"
     inkscape:window-maximized="1"
     inkscape:showpageshadow="false"
     showguides="true"
     inkscape:guide-bbox="true">
    <inkscape:grid
       type="xygrid"
       id="grid4106"
       originx="-0.99998557px"
       originy="-1.0000252px" />
    <sodipodi:guide
       position="2.00001,19.99997"
       orientation="0,18"
       id="guide4229" />
    <sodipodi:guide
       position="20.00001,19.99997"
       orientation="18,0"
       id="guide4231" />
    <sodipodi:guide
       position="20.00001,1.99997"
       orientation="0,-18"
       id="guide4233" />
    <sodipodi:guide
       position="2.00001,1.99997"
       orientation="-18,0"
       id="guide4235" />
    <sodipodi:guide
       position="19.00001,2.99997"
       orientation="0,-16"
       id="guide4241" />
    <sodipodi:guide
       position="2.9999956,18.999992"
       orientation="6,0"
       id="guide4155" />
    <sodipodi:guide
       position="18.999996,12.999992"
       orientation="-6,0"
       id="guide4167" />
    <sodipodi:guide
       position="18.999996,18.999992"
       orientation="0,-6"
       id="guide4169" />
    <sodipodi:guide
       position="11.000014,9.9999748"
       orientation="0,1"
       id="guide4149" />
  </sodipodi:namedview>
  <metadata
     id="metadata3765">
    <rdf:RDF>
      <cc:Work
         rdf:about="">
        <dc:format>image/svg+xml</dc:format>
        <dc:type
           rdf:resource="http://purl.org/dc/dcmitype/StillImage" />
        <dc:title></dc:title>
      </cc:Work>
    </rdf:RDF>
  </metadata>
  <g
     inkscape:label="Capa 1"
     inkscape:groupmode="layer"
     id="layer1"
     transform="translate(-551.28571,-607.64788)">
    <g
       id="g5548"
       sketch:type="MSShapeGroup"
       transform="matrix(0.14300539,0,0,0.14300539,554.04072,610.29161)"
       style="fill:#000000;fill-opacity:0.80000001">
      <g
         id="g4218"
         transform="matrix(6.2934691,0,0,6.2934691,-13.805372,-10.794908)">
        <g
           id="g4198-2-5"
           transform="matrix(1.1763322,0,0,1.1763322,1.0011763,1.5893721)"
           style="fill:#ffffff;fill-opacity:1;stroke:#000000;stroke-width:0.72975963;stroke-miterlimit:4;stroke-dasharray:none;stroke-opacity:0.85" />
        <g
           transform="translate(16,4.0000002)"
           id="g4216">
          <path
             style="fill:#ffffff;fill-opacity:0;stroke:none;stroke-width:0.5;stroke-miterlimit:4;stroke-dasharray:none;stroke-opacity:0.84959352"
             d="m 1.360428,14.537022 c -0.225856,0 -0.45171103,-0.08587 -0.62345603,-0.258793 -0.344665,-0.344665 -0.344665,-0.903423 0,-1.248089 C 2.347371,11.419742 3.234325,9.277641 3.234325,6.9990853 c 0,-2.2785555 -0.886954,-4.4194801 -2.49735303,-6.03105519 -0.344665,-0.3446654 -0.344665,-0.9034232 0,-1.2480885 0.34466603,-0.34466534 0.90342303,-0.34466534 1.24808903,0 C 3.929538,1.6644187 5,4.2488206 5,6.9979089 5,9.746997 3.929538,12.331399 1.985061,14.275876 1.813316,14.447621 1.58746,14.534669 1.361605,14.534669 Z"
             id="path4258-0-3"
             inkscape:connector-curvature="0" />
          <path
             style="fill:#ffffff;fill-opacity:0;stroke:none;stroke-width:0.5;stroke-miterlimit:4;stroke-dasharray:none;stroke-opacity:0.84959352"
             d="m -1.773321,12.873688 c -0.225856,0 -0.451711,-0.08587 -0.623456,-0.258793 -0.344665,-0.344665 -0.344665,-0.903423 0,-1.248088 2.40795197,-2.407952 2.40795197,-6.3263149 0,-8.7342669 -0.344665,-0.3446653 -0.344665,-0.9034231 0,-1.2480884 0.344666,-0.3446654 0.903423,-0.3446654 1.248089,0 1.49982297,1.4998235 2.325608,3.4937066 2.325608,5.6146336 0,2.1209267 -0.82578503,4.1148097 -2.325608,5.6146337 -0.171745,0.171744 -0.397601,0.258793 -0.623456,0.258793 l 0,0 z"
             id="path4256-2-4"
             inkscape:connector-curvature="0" />
          <path
             style="fill:#ffffff;fill-opacity:1;stroke:none;stroke-width:0.5;stroke-miterlimit:4;stroke-dasharray:none;stroke-opacity:0.84959352"
             d="m -4.908246,11.209178 c -0.225856,0 -0.4517116,-0.08587 -0.6234561,-0.258793 -0.3446654,-0.344665 -0.3446654,-0.903423 0,-1.248088 1.4904131,-1.4904132 1.4904131,-3.9160102 0,-5.4064231 -0.3446654,-0.3446654 -0.3446654,-0.9034232 0,-1.2480885 0.3446651,-0.3446653 0.9034231,-0.3446653 1.2480881,0 2.178568,2.1785672 2.178568,5.7228566 0,7.9025996 -0.171744,0.171745 -0.3976,0.258793 -0.623456,0.258793 z"
             id="path4188-4-3-8"
             inkscape:connector-curvature="0" />
          <path
             style="fill:#ffffff;fill-opacity:1;stroke:none;stroke-width:0.5;stroke-miterlimit:4;stroke-dasharray:none;stroke-opacity:0.84959352"
             inkscape:connector-curvature="0"
             d="m -7.3526644,15.234587 c -0.1529232,0 -0.3034937,-0.05999 -0.4164216,-0.171745 l -4.533584,-4.533584 -2.109164,0 C -14.736502,10.529258 -15,10.26576 -15,9.941092 l 0,-5.8816609 c 0,-0.3246677 0.263498,-0.5881661 0.588166,-0.5881661 l 2.109164,0 4.533584,-4.5335843 c 0.1682155,-0.1682155 0.421127,-0.2187978 0.6411011,-0.1270439 0.2199741,0.091754 0.3634866,0.30584639 0.3634866,0.54346549 l 0,15.29231871 c 0,0.237619 -0.1435125,0.452888 -0.3634866,0.543465 -0.072933,0.03059 -0.1493942,0.0447 -0.2246795,0.0447 z"
             id="path4190-4-2-8" />
        </g>
      </g>
    </g>
  </g>
</svg>
