<svg xmlns="http://www.w3.org/2000/svg" viewBox="0 0 22 22"><path d="M11.00195 3A8.00033 8.00031 0 0 0 3 11.00195 8.00033 8.00031 0 0 0 11.00195 19 8.00033 8.00031 0 0 0 19 11.00195 8.00033 8.00031 0 0 0 11.00195 3M7.807 6.301H14.193C14.525 6.301 14.795 6.57 14.795 6.902V15.697C14.795 16.03 14.525 16.301 14.193 16.301H7.807C7.475 16.301 7.205 16.03 7.205 15.697V6.902C7.205 6.57 7.475 6.301 7.807 6.301M11 14.871C10.704 14.871 10.465 15.11 10.465 15.406 10.465 15.702 10.704 15.943 11 15.943 11.296 15.943 11.535 15.702 11.535 15.406 11.535 15.11 11.296 14.871 11 14.871" fill="#fff" fill-rule="evenodd"/></svg>