<?xml version="1.0" encoding="UTF-8" standalone="no"?>
<!-- Created with Inkscape (http://www.inkscape.org/) -->

<svg
   xmlns:osb="http://www.openswatchbook.org/uri/2009/osb"
   xmlns:dc="http://purl.org/dc/elements/1.1/"
   xmlns:cc="http://creativecommons.org/ns#"
   xmlns:rdf="http://www.w3.org/1999/02/22-rdf-syntax-ns#"
   xmlns:svg="http://www.w3.org/2000/svg"
   xmlns="http://www.w3.org/2000/svg"
   xmlns:xlink="http://www.w3.org/1999/xlink"
   xmlns:sodipodi="http://sodipodi.sourceforge.net/DTD/sodipodi-0.dtd"
   xmlns:inkscape="http://www.inkscape.org/namespaces/inkscape"
   width="32"
   height="32"
   id="svg5453"
   version="1.1"
   inkscape:version="0.91 r13725"
   sodipodi:docname="user-trash-full.svg">
  <defs
     id="defs5455">
    <linearGradient
       id="linearGradient4207"
       osb:paint="gradient">
      <stop
         style="stop-color:#3498db;stop-opacity:1;"
         offset="0"
         id="stop3371" />
      <stop
         style="stop-color:#3498db;stop-opacity:0;"
         offset="1"
         id="stop3373" />
    </linearGradient>
    <linearGradient
       gradientTransform="matrix(0.19047636,0,0,0.19047636,395.40325,522.95967)"
       inkscape:collect="always"
       xlink:href="#linearGradient4139-0"
       id="linearGradient4351"
       x1="61.633888"
       y1="119.00579"
       x2="57.819611"
       y2="31.098898"
       gradientUnits="userSpaceOnUse" />
    <linearGradient
       inkscape:collect="always"
       id="linearGradient4139-0">
      <stop
         style="stop-color:#ff5a4e;stop-opacity:1"
         offset="0"
         id="stop4141-9" />
      <stop
         style="stop-color:#ff8077;stop-opacity:1"
         offset="1"
         id="stop4143-9" />
    </linearGradient>
  </defs>
  <sodipodi:namedview
     id="base"
     pagecolor="#ffffff"
     bordercolor="#666666"
     borderopacity="1.0"
     inkscape:pageopacity="0"
     inkscape:pageshadow="2"
     inkscape:zoom="11.313708"
     inkscape:cx="21.266661"
     inkscape:cy="16.911287"
     inkscape:document-units="px"
     inkscape:current-layer="layer1"
     showgrid="true"
     fit-margin-top="0"
     fit-margin-left="0"
     fit-margin-right="0"
     fit-margin-bottom="0"
     inkscape:window-width="1366"
     inkscape:window-height="687"
     inkscape:window-x="0"
     inkscape:window-y="0"
     inkscape:window-maximized="1"
     inkscape:showpageshadow="false"
     borderlayer="true"
     showguides="false"
     inkscape:guide-bbox="true"
     inkscape:object-nodes="true"
     inkscape:snap-bbox="true">
    <inkscape:grid
       type="xygrid"
       id="grid4063" />
    <sodipodi:guide
       position="2.0000117,30.000026"
       orientation="28,0"
       id="guide4167" />
    <sodipodi:guide
       position="17,5"
       orientation="0,28"
       id="guide4169" />
    <sodipodi:guide
       position="30.000012,2.0000264"
       orientation="-28,0"
       id="guide4171" />
    <sodipodi:guide
       position="30.000012,30.000026"
       orientation="0,-28"
       id="guide4173" />
    <sodipodi:guide
       position="2.0000117,30.000026"
       orientation="28,0"
       id="guide4181" />
    <sodipodi:guide
       position="16.000012,30.000026"
       orientation="0,-14"
       id="guide4187" />
    <sodipodi:guide
       position="5.0000117,30.000026"
       orientation="28,0"
       id="guide4143" />
    <sodipodi:guide
       position="5.0000117,2.0000264"
       orientation="0,22"
       id="guide4145" />
    <sodipodi:guide
       position="27.000012,2.0000264"
       orientation="-28,0"
       id="guide4147" />
    <sodipodi:guide
       position="27.000012,30.000026"
       orientation="0,-22"
       id="guide4149" />
    <sodipodi:guide
       position="27,30"
       orientation="0,-7"
       id="guide4155" />
    <sodipodi:guide
       position="27.00001,23"
       orientation="-7,-1e-05"
       id="guide4162" />
    <sodipodi:guide
       position="24,27"
       orientation="0,1"
       id="guide3378" />
  </sodipodi:namedview>
  <metadata
     id="metadata5458">
    <rdf:RDF>
      <cc:Work
         rdf:about="">
        <dc:format>image/svg+xml</dc:format>
        <dc:type
           rdf:resource="http://purl.org/dc/dcmitype/StillImage" />
        <dc:title />
      </cc:Work>
    </rdf:RDF>
  </metadata>
  <g
     inkscape:label="Capa 1"
     inkscape:groupmode="layer"
     id="layer1"
     transform="translate(-384.57143,-515.798)">
    <g
       id="g4266"
       transform="matrix(1.2810887,0,0,1.2810887,-121.5923,-153.84393)">
      <path
         style="opacity:1;fill:#e85145;fill-opacity:1;stroke:#ce4940;stroke-width:0.19047636;stroke-linecap:butt;stroke-linejoin:miter;stroke-miterlimit:4;stroke-dasharray:none;stroke-dashoffset:0;stroke-opacity:1"
         d="m 399.97468,525.15016 15.23811,0 c 0.4221,0 0.61894,0.36476 0.76191,0.7619 l 0.68571,1.90475 c 0.14297,0.39714 -0.33981,0.7619 -0.7619,0.7619 l -16.60954,0 c -0.4221,0 -0.90488,-0.36476 -0.76191,-0.7619 l 0.68572,-1.90475 c 0.14297,-0.39714 0.33981,-0.7619 0.7619,-0.7619 z"
         id="rect4290-8"
         inkscape:connector-curvature="0"
         sodipodi:nodetypes="sssssssss" />
      <path
         style="opacity:0.3;fill:#ff7269;fill-opacity:1;stroke:none;stroke-width:0.99999994;stroke-linecap:butt;stroke-linejoin:miter;stroke-miterlimit:4;stroke-dasharray:none;stroke-dashoffset:0;stroke-opacity:1"
         d="m 415.21279,525.24539 -2.4,16.39694 c -0.0598,0.40874 -0.33981,0.74532 -0.76191,0.74532 l -8.91429,0 c -0.4221,0 -0.70208,-0.33658 -0.76191,-0.74532 l -2.4,-16.39694 z"
         id="rect4203-7-6"
         inkscape:connector-curvature="0"
         sodipodi:nodetypes="csssscc" />
      <path
         style="opacity:1;fill:url(#linearGradient4351);fill-opacity:1;stroke:#ce4940;stroke-width:0.39999998;stroke-linecap:butt;stroke-linejoin:miter;stroke-miterlimit:4;stroke-dasharray:none;stroke-dashoffset:0;stroke-opacity:1"
         d="m 416.66041,528.19779 -1.63809,16.21531 c -0.0411,0.40649 -0.33981,0.73706 -0.76191,0.73706 l -13.33335,0 c -0.42209,0 -0.72084,-0.33057 -0.7619,-0.73706 l -1.6381,-16.21531 z"
         id="rect4203-8"
         inkscape:connector-curvature="0"
         sodipodi:nodetypes="csssscc" />
      <path
         sodipodi:nodetypes="csccsccccccccsccccccsccccccccsccccccccccsccccccccscscccc"
         inkscape:connector-curvature="0"
         id="path4226-1-8-9-0"
         d="m 404.47433,539.16026 c -0.0975,0.17508 -0.17508,0.43852 -0.17508,0.60451 0,0.0385 0,0.0876 0.01,0.15554 l -1.21845,-2.0955 c -0.039,-0.068 -0.0681,-0.16554 -0.0681,-0.25343 0,-0.088 0.0291,-0.19497 0.0681,-0.26309 l 0.58495,-1.02346 -0.653,-0.37008 2.12495,-0.0393 1.03301,1.86151 -0.66254,-0.38008 z m 0.93594,-6.135 c 0.18504,-0.32198 0.48746,-0.49741 0.85754,-0.49741 0.39991,0 0.71189,0.18543 0.93592,0.56505 l 0.33147,0.55551 -1.15042,2.21745 -1.86151,-1.31063 z m 0.13608,7.82107 c -0.55551,0 -1.01353,-0.45807 -1.01353,-1.01357 0,-0.156 0.0684,-0.41941 0.16593,-0.58495 l 0.31158,-0.55551 2.31037,0 0,2.15405 -1.77435,0 z m 1.85237,-7.87996 c -0.14605,-0.25309 -0.34103,-0.42898 -0.57501,-0.52652 l 2.39752,0 c 0.21448,0 0.38002,0.088 0.47792,0.25387 l 0.59451,1.01357 0.6431,-0.38042 -1.03348,1.85229 -2.1146,-0.0298 0.653,-0.37008 z m 3.69443,5.74547 c 0.29207,0 0.536,-0.078 0.74054,-0.23364 l -1.2089,2.10504 c -0.0975,0.16553 -0.27269,0.26991 -0.47717,0.26308 l -1.14087,0 0,0.75049 -1.09152,-1.82251 1.09152,-1.82297 0,0.7605 2.0864,0 z m 0.93513,-1.75451 c 0.0879,0.15599 0.13688,0.32152 0.13688,0.49706 0,0.35097 -0.22443,0.72138 -0.53601,0.89649 -0.14643,0.0784 -0.35173,0.13939 -0.5555,0.12733 l -0.64385,0 -1.14967,-1.98885 1.86156,-1.06246 z"
         style="opacity:1;fill:#ffc9c6;fill-opacity:1;stroke:none" />
    </g>
  </g>
</svg>
