<?xml version="1.0" encoding="UTF-8" standalone="no"?>
<!-- Created with Inkscape (http://www.inkscape.org/) -->

<svg
   xmlns:dc="http://purl.org/dc/elements/1.1/"
   xmlns:cc="http://creativecommons.org/ns#"
   xmlns:rdf="http://www.w3.org/1999/02/22-rdf-syntax-ns#"
   xmlns:svg="http://www.w3.org/2000/svg"
   xmlns="http://www.w3.org/2000/svg"
   xmlns:sodipodi="http://sodipodi.sourceforge.net/DTD/sodipodi-0.dtd"
   xmlns:inkscape="http://www.inkscape.org/namespaces/inkscape"
   width="16"
   height="16"
   id="svg2"
   version="1.1"
   inkscape:version="0.91 r13725"
   viewBox="0 0 16 16"
   sodipodi:docname="message-news.svg">
  <defs
     id="defs4" />
  <sodipodi:namedview
     id="base"
     pagecolor="#ffffff"
     bordercolor="#666666"
     borderopacity="1.0"
     inkscape:pageopacity="0.0"
     inkscape:pageshadow="2"
     inkscape:zoom="22.4"
     inkscape:cx="-17.920348"
     inkscape:cy="9.5379723"
     inkscape:document-units="px"
     inkscape:current-layer="layer1"
     showgrid="true"
     inkscape:showpageshadow="false"
     borderlayer="true"
     inkscape:window-width="1366"
     inkscape:window-height="687"
     inkscape:window-x="0"
     inkscape:window-y="0"
     inkscape:window-maximized="1"
     units="px"
     inkscape:snap-bbox="true"
     inkscape:snap-global="true"
     showguides="true">
    <inkscape:grid
       type="xygrid"
       id="grid4101" />
    <sodipodi:guide
       position="2,14.000017"
       orientation="12,0"
       id="guide4071" />
    <sodipodi:guide
       position="2,2.0000174"
       orientation="0,12"
       id="guide4073" />
    <sodipodi:guide
       position="14,2.0000174"
       orientation="-12,0"
       id="guide4075" />
    <sodipodi:guide
       position="14,14.000017"
       orientation="0,-12"
       id="guide4077" />
  </sodipodi:namedview>
  <metadata
     id="metadata7">
    <rdf:RDF>
      <cc:Work
         rdf:about="">
        <dc:format>image/svg+xml</dc:format>
        <dc:type
           rdf:resource="http://purl.org/dc/dcmitype/StillImage" />
        <dc:title />
      </cc:Work>
    </rdf:RDF>
  </metadata>
  <g
     inkscape:label="Capa 1"
     inkscape:groupmode="layer"
     id="layer1"
     transform="translate(0,-1036.3622)">
    <path
       style="fill:#ffffff;fill-opacity:1"
       inkscape:connector-curvature="0"
       id="path8"
       d="m 6.6446007,1041.0213 c -0.633754,0.045 -1.1706715,0.5782 -1.1706715,1.3299 l 0,3.5762 c 0,0.1295 -0.095879,0.2407 -0.2358608,0.2407 l -1.1169797,0 c -2.4180457,0 -2.2032792,-3.0873 -0.1447758,-3.0911 l 1.2349096,0 0,-0.8984 -1.2799727,0 c -0.8197579,0 -1.4276248,0.3059 -1.8379836,0.7622 -0.4103579,0.4564 -0.6164956,1.071 -0.6174543,1.6837 -9.588e-4,0.6126 0.2023027,1.2234 0.6222481,1.6797 0.4199463,0.4554 1.0546599,0.7622 1.9242738,0.7622 l 2.1064428,0 c 0.1390225,0 0.254077,-0.1198 0.254077,-0.2588 l 0,-4.3615 c -9.587e-4,-0.2243 0.1256,-0.3988 0.2905105,-0.4496 0.1649105,-0.051 0.3585836,0.013 0.4717197,0.1773 l 0.00479,0.01 c 0.5992381,0.9798 2.9779742,4.7957 2.9818092,4.8024 0.0652,0.093 0.142859,0.1094 0.199427,0.091 0.05657,-0.019 0.114095,-0.08 0.113136,-0.232 l 0,-4.3941 c -9.59e-4,-0.2243 0.1256,-0.3988 0.29051,-0.4496 0.164911,-0.051 0.35379,0.013 0.467885,0.1774 l 0,0.01 0.0086,0 c 0.599238,0.9798 2.977974,4.7957 2.981809,4.8024 0.06424,0.092 0.139983,0.1104 0.199427,0.091 0.05944,-0.019 0.118889,-0.077 0.11793,-0.2272 l 0,-5.8006 -0.903172,0 0,3.3855 c 0,0 -0.538835,-0.9205 -1.461183,-2.5053 -0.90413,-1.5523 -2.6098015,-0.9099 -2.6098015,0.4266 l 0,2.0787 c 0,0 -0.5292477,-0.9205 -1.4525543,-2.5053 -0.3950171,-0.6789 -0.9463167,-0.9387 -1.4391298,-0.9032 z m -2.5551525,0.023 c -5.02688828,0 -4.97799105,7.1631 0.068071,7.1669 l 1.9741306,0 c 0.8485214,0 1.3902327,-0.5024 1.3892739,-1.4296 l 0,-1.8158 c 0,0 1.1083509,1.8321 1.5436375,2.5503 0.7382614,1.2205 2.5235118,0.9799 2.5187178,-0.5446 l 0,-2.0057 c 0,0 1.104516,1.8321 1.538844,2.5503 0.738261,1.2205 2.528306,0.9799 2.523512,-0.5446 l 0,-5.9282 -0.903172,0 0,5.8007 c 9.59e-4,0.2224 -0.116012,0.3874 -0.277088,0.4401 -0.161075,0.052 -0.34612,-0.013 -0.458298,-0.1726 l -0.0048,0 0,-0.01 c 0,0 -2.379694,-3.8054 -2.986602,-4.7978 -0.0019,0 -0.0029,0 -0.0048,0 -9.59e-4,0 9.58e-4,-0.01 0,-0.01 -0.06232,-0.084 -0.142859,-0.1016 -0.209015,-0.081 -0.06807,0.021 -0.132311,0.079 -0.131353,0.2272 l 0,4.3931 c 9.59e-4,0.2215 -0.113136,0.396 -0.272294,0.4497 -0.159157,0.054 -0.342285,-0.017 -0.4535033,-0.1773 l 0,-0.01 -0.00479,0 c 0,0 -2.3816126,-3.8131 -2.9866032,-4.8025 -0.063278,-0.09 -0.1447759,-0.1122 -0.2128499,-0.091 -0.068071,0.021 -0.1323121,0.079 -0.1313533,0.2272 l 0,0.01 0,4.3615 c 0,0.2647 -0.2176427,0.4862 -0.4813081,0.4862 l -2.1064419,0 c -0.9242645,0 -1.6251338,-0.3328 -2.0882248,-0.8352 -0.4630918,-0.5024 -0.6912817,-1.1687 -0.6903229,-1.8341 9.587e-4,-0.6645 0.2291494,-1.3356 0.6807345,-1.838 0.451586,-0.5024 1.1294444,-0.8341 2.0057704,-0.8351 l 1.2799727,0 0,-0.908 -1.1208156,0 z" />
  </g>
</svg>
