<svg xmlns="http://www.w3.org/2000/svg" viewBox="0 0 48 48"><defs><linearGradient id="0" y1="546.78" x2="0" y2="500.8" gradientUnits="userSpaceOnUse"><stop stop-color="#212121"/><stop stop-color="#3f3f41" offset="1"/></linearGradient><linearGradient id="1" y1="546.78" x2="0" y2="500.8" gradientUnits="userSpaceOnUse"><stop stop-color="#dce2ff"/><stop stop-color="#f8feff" offset="1"/></linearGradient></defs><g enable-background="new"><path d="m408.51 500.8c-3.118 0-6.084.618-8.93 1.839-5.654 2.426-9.795 6.539-12.225 12.203-1.217 2.838-1.808 5.805-1.808 8.923 0 3.119.59 6.115 1.808 8.953 2.429 5.664 6.571 9.799 12.225 12.226 2.847 1.221 5.808 1.839 8.93 1.839 3.118 0 6.104-.625 8.953-1.839 5.701-2.432 9.821-6.572 12.247-12.226 1.221-2.847 1.838-5.834 1.838-8.953 0-3.118-.616-6.076-1.838-8.923-2.426-5.655-6.545-9.772-12.247-12.203-2.849-1.216-5.833-1.839-8.953-1.839" opacity=".99" fill="url(#0)" transform="matrix(1.04347 0 0 1.04384-402.31-522.76)"/><path d="m408.51 500.8c-3.118 0-6.084.618-8.93 1.839-5.654 2.426-9.795 6.539-12.225 12.203-1.217 2.838-1.808 5.805-1.808 8.923 0 3.119.59 6.115 1.808 8.953 2.429 5.664 6.571 9.799 12.225 12.226 2.847 1.221 5.808 1.839 8.93 1.839 3.118 0 6.104-.625 8.953-1.839 5.701-2.432 9.821-6.572 12.247-12.226 1.221-2.847 1.838-5.834 1.838-8.953 0-3.118-.616-6.076-1.838-8.923-2.426-5.655-6.545-9.772-12.247-12.203-2.849-1.216-5.833-1.839-8.953-1.839" opacity=".99" fill="url(#1)" transform="matrix(.43478 0 0 .43493-153.63-203.81)"/></g><path d="m362.58 527.08q-2.68 2.36-6.6 2.36-3.92 0-6.6-2.36-2.68-2.36-2.68-5.84 0-2.28 1.24-4 1.24-1.76 3.24-2.76v-.16q-1.56-1-2.56-2.52-1-1.56-1-3.24 0-3.32 2.36-5.52 2.36-2.24 6-2.24 3.64 0 6 2.24 2.36 2.2 2.36 5.52 0 1.68-1 3.24-1 1.52-2.56 2.52v.16q2 1 3.24 2.76 1.24 1.72 1.24 4 0 3.48-2.68 5.84m-9.92-15.48q1.32 1.16 3.32 1.16 2 0 3.28-1.16 1.32-1.2 1.32-3.12 0-1.92-1.32-3.04-1.28-1.12-3.28-1.12-2 0-3.32 1.12-1.28 1.12-1.28 3.04 0 1.92 1.28 3.12m-.6 12.96q1.6 1.36 3.92 1.36 2.32 0 3.92-1.36 1.6-1.36 1.6-3.52 0-2.12-1.6-3.48-1.6-1.36-3.92-1.36-2.32 0-3.92 1.36-1.6 1.36-1.6 3.48 0 2.16 1.6 3.52" fill-opacity=".992" transform="matrix(.41899 0 0 .41899-125.15-191.83)" fill="#2f2f30"/></svg>