<svg xmlns="http://www.w3.org/2000/svg" viewBox="0 0 48 48"><defs><linearGradient id="0" gradientUnits="userSpaceOnUse" y1="1052.61" x2="0" y2="1003.81"><stop stop-color="#008e93"/><stop offset="1" stop-color="#00bfc5"/></linearGradient></defs><g transform="translate(0-1004.36)"><circle cx="24" cy="1028.36" r="24" fill="url(#0)"/><path d="m17.484 1017.79c-3.876 0-6.318 2.231-6.318 5.153 0 2.577 1.885 4.147 4.831 5.209 2.283.824 3.186 1.619 3.186 2.974 0 1.462-1.169 2.446-3.266 2.446-1.672 0-3.264-.533-4.326-1.143l-.718 2.712c.983.584 2.946 1.141 4.831 1.141 4.619 0 6.796-2.523 6.796-5.393 0-2.577-1.513-4.146-4.619-5.314-2.389-.93-3.425-1.568-3.425-2.949 0-1.036.903-2.153 2.973-2.153 1.672 0 2.92.505 3.557.85l.796-2.629c-.929-.478-2.361-.904-4.299-.904m12.875 4.968c-3.106 0-5.866 2.578-5.866 6.829 0 3.666 2.283 6.324 5.495 6.324 1.698 0 3.03-.77 3.769-1.913h.051v1.114c0 2.79-1.592 3.907-3.716 3.907-1.566 0-2.946-.505-3.769-.983l-.718 2.47c1.115.691 2.868 1.036 4.514 1.036 1.779 0 3.636-.373 4.99-1.569 1.354-1.222 1.911-3.161 1.911-5.872v-7.333c0-1.78.052-2.842.105-3.719h-2.839l-.132 1.725h-.054c-.611-1.062-1.778-2.02-3.742-2.02m.637 2.5c1.38 0 2.309.903 2.654 2.099.08.265.107.582.107.875v2.099c0 .372-.055.825-.134 1.17-.372 1.169-1.432 1.965-2.654 1.965-2.044 0-3.159-1.779-3.159-3.985 0-2.63 1.354-4.222 3.186-4.222" fill="#fff" fill-opacity=".85"/></g></svg>