<svg xmlns="http://www.w3.org/2000/svg" viewBox="0 0 48 48"><defs><linearGradient id="0" gradientUnits="userSpaceOnUse" y1="1052.61" x2="0" y2="1003.81"><stop stop-color="#03adc9"/><stop offset="1" stop-color="#01e1f1"/></linearGradient></defs><g transform="translate(0-1004.36)"><circle cx="24" cy="1028.36" r="24" fill="url(#0)"/><path d="m29.796 1018.72v19.277h3.368v-19.277h-3.368m-9.857.843c-2.253 0-3.908.162-5.103.379v18.05h3.313v-6.895c.435.082 1 .108 1.629.108 2.363 0 4.453-.625 5.783-1.955 1.032-.978 1.574-2.416 1.574-4.154 0-1.71-.706-3.147-1.792-4.04-1.167-.977-2.96-1.493-5.404-1.493m.138 2.553c2.308 0 3.717 1.084 3.717 3.12 0 2.145-1.518 3.369-4.02 3.369-.679 0-1.221-.028-1.629-.136v-6.192c.353-.082 1.01-.16 1.928-.16" fill="#00252e" fill-opacity=".774"/></g></svg>