<svg xmlns="http://www.w3.org/2000/svg" viewBox="0 0 48 48"><defs><linearGradient id="0" gradientUnits="userSpaceOnUse" y1="1052.61" x2="0" y2="1003.81"><stop stop-color="#7737c5"/><stop offset="1" stop-color="#9371ff"/></linearGradient></defs><g transform="translate(0-1004.36)"><circle cx="24" cy="1028.36" r="24" fill="url(#0)"/><path d="m17.535 1018.36c-2.444 0-4.239.179-5.535.414v19.586h3.593v-7.481c.471.09 1.09.117 1.768.117 2.561 0 4.829-.679 6.271-2.122 1.119-1.06 1.708-2.62 1.708-4.504 0-1.855-.767-3.418-1.945-4.39-1.266-1.06-3.21-1.62-5.86-1.62m.148 2.771c2.502 0 4.04 1.176 4.04 3.385 0 2.327-1.649 3.653-4.358 3.653-.736 0-1.325-.03-1.768-.149v-6.715c.383-.088 1.089-.175 2.09-.175m17.46 2.563c-1.531 0-3.209 1.03-3.915 3.062h-.117l-.117-2.739h-3.153c.088 1.296.12 2.681.12 4.624v9.72h3.621v-7.424c0-.413.058-.795.117-1.119.324-1.62 1.501-2.737 3.238-2.737.442 0 .767.059 1.062.117v-3.419c-.295-.059-.503-.085-.856-.085" fill="#ece4f9"/></g></svg>