<svg xmlns="http://www.w3.org/2000/svg" xmlns:xlink="http://www.w3.org/1999/xlink" viewBox="0 0 48 48"><defs><linearGradient gradientUnits="userSpaceOnUse" y2="517.3" x2="0" y1="546.3"><stop stop-color="#00cafe"/><stop offset="1" stop-color="#1460f3"/></linearGradient><linearGradient gradientUnits="userSpaceOnUse" y2="517.62" x2="0" y1="545.62"><stop stop-color="#d3d3d3"/><stop offset="1" stop-color="#fcf9f9"/></linearGradient><linearGradient gradientUnits="userSpaceOnUse" y1="545.62" x2="0" y2="517.62"><stop stop-color="#e3e3e3"/><stop offset="1" stop-color="#fcf9f9"/></linearGradient><linearGradient gradientUnits="userSpaceOnUse" x2="11.758" x1="2.819" xlink:href="#1"/><linearGradient id="1"><stop stop-color="#333538"/><stop offset="1" stop-color="#566069"/></linearGradient><linearGradient gradientUnits="userSpaceOnUse" y2="505.33" x2="355.69" y1="547" x1="355.73" id="0"><stop stop-color="#1074f5"/><stop offset="1" stop-color="#02befd"/></linearGradient><linearGradient gradientUnits="userSpaceOnUse" y2="517.22" x2="0" y1="545.22" xlink:href="#1"/></defs><g transform="translate(-384.57-499.8)"><g transform="matrix(.9746 0 0 .9746 62.24 10.299)"><path d="m372.72 511.01c-4.644-3.779-10.81-5.86-17.362-5.86-6.552 0-12.718 2.081-17.362 5.86-4.684 3.812-7.264 8.892-7.264 14.306 0 5.167 2.351 10.03 6.638 13.776-.077.174-.139.357-.178.549l-1.409 6.928c-.167.823.058 1.314.276 1.581.252.308.626.478 1.052.478.322 0 .668-.095 1.029-.283l8.193-4.256c2.836.913 5.886 1.392 9.02 1.392 6.552 0 12.718-2.081 17.362-5.86 4.684-3.812 7.264-8.892 7.264-14.306 0-5.413-2.58-10.494-7.264-14.306" fill="url(#0)"/><path d="m324.91 302.99v-173.33c0-10.372-9.04-18.738-19.41-18.738-9.701 0-18.403 8.366-18.403 18.738v176c0 .336.671 1.678.671 2.678-.671 6.02 1.01 11.04 5.02 15.06l100.05 100.05c6.695 6.695 19.07 6.695 25.763 0 7.694-7.695 7.188-18.86 0-26.1l-93.69-94.36z" fill="#1da1f6" stroke="#1da0f6" stroke-width="31.911" transform="matrix(.03536 0 0 .03536 344.53 515.41)" opacity=".742" stroke-opacity=".8"/></g><g transform="matrix(.15154 0 0 .15154 378.42 489.05)" fill="#fff" fill-opacity=".85"><path d="m120.32 192.71h59.12c-1.666 10.675-7.326 22.05-16.84 33.827-6.06-9.714-9.964-19.13-12.188-25.408-.562-1.583-2.058-2.641-3.736-2.641h-9.728c-1.264 0-2.453.603-3.2 1.623-.746 1.021-.961 2.335-.579 3.542 2.305 7.258 7.614 21.507 17.429 35.986-11.594 11.271-23.14 19.394-27.611 22.387-1.778 1.192-2.289 3.581-1.153 5.396l4.882 7.808c.565.903 1.473 1.542 2.515 1.771.28.063.564.093.846.093.769 0 1.527-.224 2.178-.651 4.601-3.02 16.538-11.28 29.04-23.255 4.625 4.82 15.499 13.268 21.942 17.954.983.715 2.242.938 3.415.607 1.172-.334 2.124-1.188 2.586-2.312l3.642-8.903c.732-1.789.065-3.85-1.579-4.867-4.198-2.604-12.1-7.952-18.552-14.902 14.163-16.575 22.24-32.734 24.02-48.05h3.121c2.189 0 3.964-1.775 3.964-3.965v-10.567c0-2.189-1.774-3.964-3.964-3.964h-30.872v-5.426c0-2.19-1.774-3.965-3.964-3.965h-9.89c-2.189 0-3.964 1.774-3.964 3.965v5.426h-30.872c-2.189 0-3.964 1.774-3.964 3.964v10.567c-.0001 2.184 1.774 3.959 3.963 3.959"/><path d="m256.1 180.1c-.516-1.66-2.049-2.791-3.787-2.791h-22.03c-1.743 0-3.281 1.139-3.791 2.805l-26.318 86.05c-.369 1.202-.145 2.508.604 3.521.748 1.01 1.93 1.604 3.188 1.604h13.664c1.779 0 3.342-1.188 3.819-2.901l5.9-21.23h26.923l6.389 21.307c.502 1.678 2.047 2.825 3.797 2.825h14.523c1.262 0 2.444-.599 3.19-1.61.748-1.015.969-2.323.594-3.526l-26.669-86.06m-25.697 51.19l9.917-38.07h.27l10.604 38.07h-20.791"/></g></g></svg>