<?xml version="1.0" encoding="UTF-8" standalone="no"?>
<!-- Created with Inkscape (http://www.inkscape.org/) -->

<svg
   xmlns:dc="http://purl.org/dc/elements/1.1/"
   xmlns:cc="http://creativecommons.org/ns#"
   xmlns:rdf="http://www.w3.org/1999/02/22-rdf-syntax-ns#"
   xmlns:svg="http://www.w3.org/2000/svg"
   xmlns="http://www.w3.org/2000/svg"
   xmlns:xlink="http://www.w3.org/1999/xlink"
   xmlns:sodipodi="http://sodipodi.sourceforge.net/DTD/sodipodi-0.dtd"
   xmlns:inkscape="http://www.inkscape.org/namespaces/inkscape"
   width="48"
   height="48"
   id="svg5453"
   version="1.1"
   inkscape:version="0.91 r13725"
   sodipodi:docname="amazon-store.svg">
  <defs
     id="defs5455">
    <linearGradient
       inkscape:collect="always"
       xlink:href="#linearGradient4191"
       id="linearGradient5237"
       x1="423.61047"
       y1="577.75421"
       x2="422.89008"
       y2="530.68433"
       gradientUnits="userSpaceOnUse"
       gradientTransform="matrix(0.9542984,0,0,0.9542984,-341.85445,-521.51779)" />
    <linearGradient
       inkscape:collect="always"
       id="linearGradient4191">
      <stop
         style="stop-color:#2e3e46;stop-opacity:1"
         offset="0"
         id="stop4193" />
      <stop
         style="stop-color:#435a64;stop-opacity:1"
         offset="1"
         id="stop4195" />
    </linearGradient>
  </defs>
  <sodipodi:namedview
     id="base"
     pagecolor="#ffffff"
     bordercolor="#666666"
     borderopacity="1.0"
     inkscape:pageopacity="0"
     inkscape:pageshadow="2"
     inkscape:zoom="4"
     inkscape:cx="-39.601104"
     inkscape:cy="15.968792"
     inkscape:document-units="px"
     inkscape:current-layer="g4370"
     showgrid="true"
     fit-margin-top="0"
     fit-margin-left="0"
     fit-margin-right="0"
     fit-margin-bottom="0"
     inkscape:window-width="1366"
     inkscape:window-height="634"
     inkscape:window-x="0"
     inkscape:window-y="36"
     inkscape:window-maximized="1"
     inkscape:showpageshadow="false"
     borderlayer="true"
     showguides="false">
    <inkscape:grid
       type="xygrid"
       id="grid4063" />
    <sodipodi:guide
       position="1.1650391e-05,32.000026"
       orientation="32,0"
       id="guide4157" />
    <sodipodi:guide
       position="1.1650391e-05,2.6367188e-05"
       orientation="0,32"
       id="guide4159" />
    <sodipodi:guide
       position="32.000012,2.6367188e-05"
       orientation="-32,0"
       id="guide4161" />
    <sodipodi:guide
       position="32.000012,32.000026"
       orientation="0,-32"
       id="guide4163" />
    <sodipodi:guide
       position="2.0000117,30.000026"
       orientation="28,0"
       id="guide4167" />
    <sodipodi:guide
       position="2.0000117,2.0000264"
       orientation="0,28"
       id="guide4169" />
    <sodipodi:guide
       position="30.000012,2.0000264"
       orientation="-28,0"
       id="guide4171" />
    <sodipodi:guide
       position="30.000012,30.000026"
       orientation="0,-28"
       id="guide4173" />
    <sodipodi:guide
       position="2.0000117,30.000026"
       orientation="28,0"
       id="guide4181" />
    <sodipodi:guide
       position="2.0000117,2.0000264"
       orientation="0,14"
       id="guide4183" />
    <sodipodi:guide
       position="16.000012,2.0000264"
       orientation="-28,0"
       id="guide4185" />
    <sodipodi:guide
       position="16.000012,30.000026"
       orientation="0,-14"
       id="guide4187" />
    <sodipodi:guide
       position="9.0000117,23.000026"
       orientation="14,0"
       id="guide4193" />
    <sodipodi:guide
       position="9.0000117,9.0000264"
       orientation="0,14.000031"
       id="guide4195" />
    <sodipodi:guide
       position="23.000042,9.0000264"
       orientation="-14,0"
       id="guide4197" />
    <sodipodi:guide
       position="23.000042,23.000026"
       orientation="0,-14.000031"
       id="guide4199" />
  </sodipodi:namedview>
  <metadata
     id="metadata5458">
    <rdf:RDF>
      <cc:Work
         rdf:about="">
        <dc:format>image/svg+xml</dc:format>
        <dc:type
           rdf:resource="http://purl.org/dc/dcmitype/StillImage" />
        <dc:title></dc:title>
      </cc:Work>
    </rdf:RDF>
  </metadata>
  <g
     inkscape:label="Capa 1"
     inkscape:groupmode="layer"
     id="layer1"
     transform="translate(-384.57143,-499.798)">
    <g
       style="display:inline;enable-background:new"
       id="g4238"
       transform="translate(225.81911,462.44565)">
      <g
         style="display:inline"
         id="layer1-8"
         transform="matrix(0.22655187,0,0,0.22655187,106.94841,54.31088)">
        <g
           style="display:none"
           id="layer6" />
        <g
           id="g4027" />
        <g
           id="g4061" />
        <g
           id="g3751" />
        <g
           id="g3782" />
        <g
           id="g3725" />
        <g
           id="g4370"
           transform="matrix(4.4140002,0,0,4.4140002,59.275211,39.357303)">
          <g
             id="g4186"
             transform="translate(1.3509339e-7,-9.9999987)">
            <circle
               r="24"
               cy="8.1249981"
               cx="62.375"
               id="path4834"
               style="opacity:1;fill:url(#linearGradient5237);fill-opacity:1;fill-rule:evenodd;stroke:none;stroke-width:0.55507404;stroke-linecap:round;stroke-linejoin:round;stroke-miterlimit:4;stroke-dasharray:none;stroke-dashoffset:0;stroke-opacity:1" />
            <path
               id="path4390-4"
               d="m 64.235744,6.2954974 c 0,1.367 0.035,2.504 -0.625,3.7149996 -0.531,0.984 -1.375,1.59 -2.316,1.59 -1.285,0 -2.031,-1.023 -2.031,-2.5349996 0,-2.984 2.555,-3.527 4.973,-3.527 l 0,0.758 m 3.375,8.5309996 c -0.219,0.207 -0.539,0.223 -0.789,0.086 -1.109,-0.965 -1.309,-1.414 -1.922,-2.336 -1.836,1.961 -3.133,2.547 -5.516,2.547 -2.816,0 -5.01,-1.816 -5.01,-5.4529996 0,-2.84 1.473,-4.777 3.566,-5.723 1.813,-0.836 4.352,-0.984 6.293,-1.215 l 0,-0.453 c 0,-0.832 0.063,-1.816 -0.402,-2.5350004 -0.41,-0.645 -1.191,-0.91 -1.879,-0.91 -1.277,0 -2.414,0.684 -2.691,2.1020004 -0.059,0.316 -0.277,0.625 -0.582,0.641 l -3.246,-0.363 c -0.273,-0.066 -0.574,-0.297 -0.5,-0.734 0.75,-4.1090004 4.305,-5.3520004 7.484,-5.3520004 1.629,0 3.758,0.453 5.04,1.742 1.629,1.59 1.473,3.7110004 1.473,6.0200004 l 0,5.453 c 0,1.641 0.648,2.3589996 1.262,3.2459996 0.215,0.313 0.262,0.695 -0.008,0.93 -0.684,0.602 -1.898,1.703 -2.566,2.324 l -0.012,-0.012"
               inkscape:connector-curvature="0"
               style="fill:#ffffff;fill-opacity:0.85;fill-rule:evenodd;stroke:none" />
            <path
               id="path4392-0"
               d="m 72.875744,17.823497 c -2.848,2.148 -6.973,3.297 -10.527,3.297 -4.98,0 -9.465,-1.887 -12.859,-5.03 -0.266,-0.246 -0.027,-0.582 0.293,-0.391 3.66,2.184 8.191,3.496 12.867,3.496 3.152,0 6.625,-0.668 9.813,-2.059 0.484,-0.207 0.887,0.324 0.414,0.684"
               inkscape:connector-curvature="0"
               style="fill:#ffffff;fill-opacity:0.85;fill-rule:evenodd;stroke:none" />
            <path
               id="path4394-7"
               d="m 74.059744,16.435497 c -0.363,-0.477 -2.406,-0.227 -3.32,-0.113 -0.281,0.035 -0.324,-0.215 -0.07,-0.395 1.625,-1.172 4.297,-0.836 4.605,-0.441 0.313,0.395 -0.078,3.137 -1.609,4.445 -0.234,0.203 -0.457,0.094 -0.352,-0.172 0.34,-0.879 1.113,-2.848 0.746,-3.324"
               inkscape:connector-curvature="0"
               style="fill:#ffffff;fill-opacity:0.85;fill-rule:evenodd;stroke:none" />
          </g>
        </g>
      </g>
    </g>
  </g>
</svg>
