<?xml version="1.0" encoding="UTF-8" standalone="no"?>
<!-- Created with Inkscape (http://www.inkscape.org/) -->

<svg
   xmlns:sketch="http://www.bohemiancoding.com/sketch/ns"
   xmlns:dc="http://purl.org/dc/elements/1.1/"
   xmlns:cc="http://creativecommons.org/ns#"
   xmlns:rdf="http://www.w3.org/1999/02/22-rdf-syntax-ns#"
   xmlns:svg="http://www.w3.org/2000/svg"
   xmlns="http://www.w3.org/2000/svg"
   xmlns:xlink="http://www.w3.org/1999/xlink"
   xmlns:sodipodi="http://sodipodi.sourceforge.net/DTD/sodipodi-0.dtd"
   xmlns:inkscape="http://www.inkscape.org/namespaces/inkscape"
   width="48"
   height="48"
   id="svg5453"
   version="1.1"
   inkscape:version="0.91 r13725"
   sodipodi:docname="android-sdk.svg">
  <defs
     id="defs5455">
    <linearGradient
       gradientTransform="matrix(1.7142908,0,0,1.7142908,-639.32083,-918.53127)"
       inkscape:collect="always"
       xlink:href="#linearGradient4422"
       id="linearGradient4181"
       gradientUnits="userSpaceOnUse"
       x1="399.9939"
       y1="545.13873"
       x2="399.9939"
       y2="518.13873" />
    <linearGradient
       id="linearGradient4422">
      <stop
         style="stop-color:#30cf41;stop-opacity:1"
         offset="0"
         id="stop4424" />
      <stop
         style="stop-color:#47f383;stop-opacity:1"
         offset="1"
         id="stop4426" />
    </linearGradient>
  </defs>
  <sodipodi:namedview
     id="base"
     pagecolor="#ffffff"
     bordercolor="#666666"
     borderopacity="1.0"
     inkscape:pageopacity="0"
     inkscape:pageshadow="2"
     inkscape:zoom="4"
     inkscape:cx="-39.601104"
     inkscape:cy="15.968792"
     inkscape:document-units="px"
     inkscape:current-layer="g4370"
     showgrid="true"
     fit-margin-top="0"
     fit-margin-left="0"
     fit-margin-right="0"
     fit-margin-bottom="0"
     inkscape:window-width="1366"
     inkscape:window-height="634"
     inkscape:window-x="0"
     inkscape:window-y="36"
     inkscape:window-maximized="1"
     inkscape:showpageshadow="false"
     borderlayer="true"
     showguides="false">
    <inkscape:grid
       type="xygrid"
       id="grid4063" />
    <sodipodi:guide
       position="1.1650391e-05,32.000026"
       orientation="32,0"
       id="guide4157" />
    <sodipodi:guide
       position="1.1650391e-05,2.6367188e-05"
       orientation="0,32"
       id="guide4159" />
    <sodipodi:guide
       position="32.000012,2.6367188e-05"
       orientation="-32,0"
       id="guide4161" />
    <sodipodi:guide
       position="32.000012,32.000026"
       orientation="0,-32"
       id="guide4163" />
    <sodipodi:guide
       position="2.0000117,30.000026"
       orientation="28,0"
       id="guide4167" />
    <sodipodi:guide
       position="2.0000117,2.0000264"
       orientation="0,28"
       id="guide4169" />
    <sodipodi:guide
       position="30.000012,2.0000264"
       orientation="-28,0"
       id="guide4171" />
    <sodipodi:guide
       position="30.000012,30.000026"
       orientation="0,-28"
       id="guide4173" />
    <sodipodi:guide
       position="2.0000117,30.000026"
       orientation="28,0"
       id="guide4181" />
    <sodipodi:guide
       position="2.0000117,2.0000264"
       orientation="0,14"
       id="guide4183" />
    <sodipodi:guide
       position="16.000012,2.0000264"
       orientation="-28,0"
       id="guide4185" />
    <sodipodi:guide
       position="16.000012,30.000026"
       orientation="0,-14"
       id="guide4187" />
    <sodipodi:guide
       position="9.0000117,23.000026"
       orientation="14,0"
       id="guide4193" />
    <sodipodi:guide
       position="9.0000117,9.0000264"
       orientation="0,14.000031"
       id="guide4195" />
    <sodipodi:guide
       position="23.000042,9.0000264"
       orientation="-14,0"
       id="guide4197" />
    <sodipodi:guide
       position="23.000042,23.000026"
       orientation="0,-14.000031"
       id="guide4199" />
  </sodipodi:namedview>
  <metadata
     id="metadata5458">
    <rdf:RDF>
      <cc:Work
         rdf:about="">
        <dc:format>image/svg+xml</dc:format>
        <dc:type
           rdf:resource="http://purl.org/dc/dcmitype/StillImage" />
        <dc:title></dc:title>
      </cc:Work>
    </rdf:RDF>
  </metadata>
  <g
     inkscape:label="Capa 1"
     inkscape:groupmode="layer"
     id="layer1"
     transform="translate(-384.57143,-499.798)">
    <g
       style="display:inline;enable-background:new"
       id="g4238"
       transform="translate(225.81911,462.44565)">
      <g
         style="display:inline"
         id="layer1-8"
         transform="matrix(0.22655187,0,0,0.22655187,106.94841,54.31088)">
        <g
           style="display:none"
           id="layer6" />
        <g
           id="g4027" />
        <g
           id="g4061" />
        <g
           id="g3751" />
        <g
           id="g3782" />
        <g
           id="g3725" />
        <g
           id="g4370"
           transform="matrix(4.4140002,0,0,4.4140002,59.275211,39.357303)">
          <g
             id="g4250"
             transform="translate(15,4.999998)">
            <circle
               style="opacity:1;fill:url(#linearGradient4181);fill-opacity:1;stroke:none;stroke-width:0.94059104;stroke-miterlimit:4;stroke-dasharray:none;stroke-dashoffset:0;stroke-opacity:1"
               id="path3377"
               cx="47.375"
               cy="-6.8749986"
               r="24" />
            <path
               style="opacity:0.725;fill:#000000;fill-opacity:1"
               inkscape:connector-curvature="0"
               sketch:type="MSShapeGroup"
               id="path4463"
               d="m 65.766428,-13.596479 c -0.07546,-0.09883 -0.173944,-0.157675 -0.296137,-0.176367 l -2.580423,-0.394792 c -0.141059,-0.451214 -0.333868,-0.911776 -0.578254,-1.381856 0.169097,-0.23504 0.42283,-0.566312 0.761198,-0.994161 0.338368,-0.42785 0.578081,-0.740256 0.71914,-0.937738 0.07529,-0.103501 0.112674,-0.211502 0.112674,-0.324349 0,-0.131539 -0.03271,-0.234867 -0.09866,-0.310156 -0.338368,-0.4796 -1.113932,-1.278529 -2.326691,-2.397307 -0.112501,-0.09398 -0.230194,-0.140885 -0.352214,-0.140885 -0.141059,0 -0.253906,0.04223 -0.338541,0.126693 l -2.002169,1.508896 c -0.385613,-0.197482 -0.808616,-0.371426 -1.269178,-0.521831 l -0.394791,-2.594442 c -0.0093,-0.122193 -0.06352,-0.223271 -0.162174,-0.303233 -0.09883,-0.07996 -0.213752,-0.11977 -0.345637,-0.11977 l -3.130293,0 c -0.272599,0 -0.441869,0.131539 -0.507639,0.394791 -0.122193,0.469907 -0.258579,1.344125 -0.408984,2.622654 -0.441868,0.141232 -0.869545,0.319849 -1.283202,0.536023 l -1.945918,-1.508896 c -0.122193,-0.09398 -0.244387,-0.140885 -0.36658,-0.140885 -0.206828,0 -0.650947,0.335944 -1.332529,1.00818 -0.681582,0.672236 -1.144393,1.177452 -1.388953,1.515819 -0.08463,0.122194 -0.126866,0.230368 -0.126866,0.324349 0,0.112847 0.0469,0.225694 0.140885,0.338368 0.629832,0.761544 1.132797,1.410068 1.508896,1.946092 -0.23504,0.432349 -0.41833,0.864872 -0.549869,1.297221 l -2.622828,0.394791 c -0.103327,0.01887 -0.192636,0.07996 -0.267925,0.183463 -0.07529,0.103328 -0.112847,0.211502 -0.112847,0.324176 l 0,3.130466 c 0,0.122366 0.03756,0.2326174 0.112847,0.3312724 0.07529,0.09883 0.173944,0.157847 0.296137,0.176539 l 2.580596,0.380772 c 0.13154,0.460562 0.324176,0.925796 0.578082,1.395703 -0.169098,0.235041 -0.423003,0.566312 -0.761371,0.994162 -0.338368,0.427849 -0.578255,0.740255 -0.71914,0.937737 -0.07529,0.103674 -0.112847,0.211502 -0.112847,0.324349 0,0.122193 0.03288,0.230194 0.09865,0.324176 0.36658,0.507811 1.142143,1.297567 2.326691,2.369094 0.103501,0.103501 0.221021,0.155079 0.35256,0.155079 0.141059,0 0.258579,-0.04223 0.352561,-0.126694 l 1.988322,-1.509069 c 0.385619,0.197482 0.808622,0.371426 1.269183,0.522004 l 0.394791,2.594443 c 0.0095,0.122193 0.06352,0.223271 0.162175,0.303233 0.09865,0.08014 0.213924,0.11976999 0.345464,0.11976999 l 3.130466,0 c 0.272944,0 0.442042,-0.13153899 0.507984,-0.39479099 0.12202,-0.470081 0.258233,-1.344126 0.408638,-2.622655 0.441869,-0.141059 0.869718,-0.319848 1.283202,-0.536023 l 1.946092,1.523088 c 0.131539,0.08446 0.253905,0.126694 0.366579,0.126694 0.206656,0 0.648524,-0.333522 1.32526,-1.001085 0.677082,-0.66739 1.142317,-1.175201 1.395876,-1.523088 0.08464,-0.09398 0.12704,-0.201983 0.12704,-0.324176 0,-0.122193 -0.0469,-0.240059 -0.141059,-0.35256 -0.676732,-0.827314 -1.179697,-1.475838 -1.508892,-1.945919 0.187963,-0.347887 0.371426,-0.775563 0.550043,-1.283202 l 2.608635,-0.394618 c 0.112674,-0.01887 0.207001,-0.08014 0.282117,-0.183636 0.07512,-0.103501 0.112501,-0.2116754 0.112501,-0.3243494 l 0,-3.130293 c 1.73e-4,-0.122193 -0.03721,-0.232444 -0.112674,-0.331271 z"
               sodipodi:nodetypes="ccccscsccscccccssccccsscscccccssccccscsccscccccssccccsccsccccssccc" />
            <path
               style="opacity:0.725;fill:#000000;fill-opacity:1"
               inkscape:connector-curvature="0"
               sketch:type="MSShapeGroup"
               id="path4463-0"
               d="m 47.254176,-2.0994226 c -0.05982,-0.07834 -0.137881,-0.124985 -0.234741,-0.139802 l -2.045441,-0.312942 c -0.111814,-0.357667 -0.264649,-0.722743 -0.458369,-1.095365 0.13404,-0.186311 0.335168,-0.448902 0.603384,-0.788048 0.268216,-0.339147 0.458232,-0.586784 0.570046,-0.743323 0.05968,-0.08204 0.08931,-0.167653 0.08931,-0.257104 0,-0.104268 -0.02593,-0.186173 -0.0782,-0.245853 -0.268216,-0.380168 -0.882987,-1.01346 -1.844313,-1.900289 -0.08918,-0.0745 -0.182469,-0.111677 -0.279192,-0.111677 -0.111814,0 -0.201265,0.03348 -0.268353,0.100427 l -1.587072,1.196066 c -0.305669,-0.156539 -0.640974,-0.29442 -1.00605,-0.413643 l -0.312942,-2.056553 c -0.0074,-0.09686 -0.05035,-0.176982 -0.128551,-0.240366 -0.07834,-0.06338 -0.169436,-0.09494 -0.273979,-0.09494 l -2.48131,0 c -0.216082,0 -0.350259,0.104268 -0.402393,0.312942 -0.09686,0.372484 -0.204969,1.065457 -0.324192,2.078916 -0.350259,0.111952 -0.689268,0.253537 -1.017164,0.424893 l -1.542484,-1.196065 c -0.09686,-0.0745 -0.193719,-0.111677 -0.290579,-0.111677 -0.163948,0 -0.51599,0.266296 -1.056264,0.799161 -0.540274,0.532866 -0.907134,0.933338 -1.100991,1.201555 -0.06709,0.09686 -0.100564,0.182606 -0.100564,0.257103 0,0.08945 0.03718,0.178903 0.111677,0.268217 0.499253,0.603658 0.897942,1.117728 1.196067,1.542621 -0.186311,0.342713 -0.331601,0.685563 -0.435869,1.028277 l -2.079054,0.312941 c -0.0819,0.01496 -0.152698,0.06339 -0.212378,0.145427 -0.05968,0.08191 -0.08945,0.167653 -0.08945,0.256967 l 0,2.48144599 c 0,0.097 0.02977,0.184391 0.08945,0.262592 0.05968,0.07834 0.137881,0.125122 0.234741,0.13993901 l 2.045578,0.301829 c 0.104268,0.365076 0.256966,0.733856 0.458232,1.106341 -0.13404,0.186311 -0.335305,0.448902 -0.603521,0.788048 -0.268217,0.339146 -0.458369,0.586783 -0.570046,0.743323 -0.05968,0.08218 -0.08945,0.167652 -0.08945,0.257103 0,0.09686 0.02607,0.18247 0.0782,0.256967 0.290579,0.40253 0.90535,1.0285506 1.844313,1.8779256 0.08204,0.08204 0.175198,0.122926 0.279466,0.122926 0.111814,0 0.20497,-0.03348 0.279467,-0.100426 l 1.576096,-1.196204 c 0.305671,0.156539 0.640976,0.29442 1.006052,0.41378 l 0.312942,2.056554 c 0.0075,0.09686 0.05035,0.176982 0.128551,0.240366 0.0782,0.06352 0.169574,0.09494 0.273842,0.09494 l 2.481447,0 c 0.216356,0 0.350396,-0.104269 0.402667,-0.312942 0.09672,-0.372622 0.204695,-1.065457 0.323918,-2.078917 0.350259,-0.111814 0.689405,-0.253536 1.017164,-0.424893 l 1.542621,1.207317 c 0.104268,0.06695 0.201265,0.100426 0.290579,0.100426 0.163811,0 0.51407,-0.264375 1.050502,-0.793536 0.536707,-0.529024 0.905488,-0.9315536 1.106479,-1.2073156 0.06709,-0.0745 0.100701,-0.160107 0.100701,-0.256967 0,-0.09686 -0.03718,-0.190289 -0.111814,-0.279466 -0.536433,-0.655792 -0.935122,-1.169862 -1.196067,-1.542484 0.148994,-0.275762 0.294421,-0.614771 0.436006,-1.017164 l 2.067804,-0.312805 c 0.08931,-0.01495 0.164085,-0.06352 0.223628,-0.14556401 0.05954,-0.08204 0.08918,-0.167789 0.08918,-0.257103 l 0,-2.48130999 c 1.37e-4,-0.09686 -0.0295,-0.184253 -0.08931,-0.262591 z"
               sodipodi:nodetypes="ccccscsccscccccssccccsscscccccssccccscsccscccccssccccsccsccccssccc" />
            <path
               style="opacity:1;fill:#3de467;fill-opacity:1;fill-rule:evenodd;stroke:none;stroke-width:0.9148109px;stroke-linecap:butt;stroke-linejoin:miter;stroke-opacity:1"
               d="m 49.436868,-7.9166256 c 3.02766,1.93821 8.039378,1.832803 11.148073,0.06987 1.118031,-8.7284304 -11.775954,-9.4221564 -11.148073,-0.06987 z"
               id="path4517"
               inkscape:connector-curvature="0"
               sodipodi:nodetypes="ccc" />
            <rect
               style="opacity:1;fill:#3de467;fill-opacity:1;stroke:none;stroke-width:1.5;stroke-linecap:round;stroke-linejoin:round;stroke-miterlimit:4;stroke-dasharray:none;stroke-opacity:1"
               id="rect4519"
               width="0.63501656"
               height="4.4451156"
               x="51.973145"
               y="11.15493"
               ry="0.31750828"
               transform="matrix(0.8617256,-0.5073746,0.5073746,0.8617256,0,0)" />
            <rect
               style="opacity:1;fill:#3de467;fill-opacity:1;stroke:none;stroke-width:1.5;stroke-linecap:round;stroke-linejoin:round;stroke-miterlimit:4;stroke-dasharray:none;stroke-opacity:1"
               id="rect4519-2"
               width="0.63501656"
               height="4.4451156"
               x="-42.70977"
               y="-44.579617"
               ry="0.31750828"
               transform="matrix(-0.8617256,-0.5073746,-0.5073746,0.8617256,0,0)" />
            <circle
               r="0.91313493"
               cy="-10.771544"
               cx="52.849152"
               id="path4500"
               style="opacity:1;fill:#154e22;fill-opacity:1;stroke:none;stroke-width:1.5;stroke-linecap:round;stroke-linejoin:round;stroke-miterlimit:4;stroke-dasharray:none;stroke-opacity:1" />
            <circle
               r="0.91313493"
               cy="-10.798044"
               cx="57.167549"
               id="path4500-8"
               style="opacity:1;fill:#144e22;fill-opacity:1;stroke:none;stroke-width:1.5;stroke-linecap:round;stroke-linejoin:round;stroke-miterlimit:4;stroke-dasharray:none;stroke-opacity:1" />
            <path
               style="opacity:0.725;fill:#000000;fill-opacity:1"
               inkscape:connector-curvature="0"
               sketch:type="MSShapeGroup"
               id="path4463-0-2"
               d="m 56.699762,5.443903 c -0.03841,-0.0503 -0.08853,-0.08025 -0.150725,-0.08977 l -1.31336,-0.200937 c -0.0718,-0.2296546 -0.169929,-0.4640676 -0.294314,-0.7033246 0.08606,-0.119628 0.215208,-0.288236 0.387427,-0.505999 0.17222,-0.217763 0.294227,-0.376768 0.366021,-0.477281 0.03832,-0.05268 0.05735,-0.107648 0.05735,-0.165084 0,-0.06695 -0.01665,-0.119541 -0.05021,-0.15786 -0.17222,-0.244103 -0.566959,-0.650734 -1.184218,-1.220159 -0.05726,-0.04783 -0.117162,-0.07171 -0.179266,-0.07171 -0.07179,0 -0.129231,0.02149 -0.172308,0.06448 l -1.019045,0.767984 c -0.196273,-0.100503 -0.411569,-0.189035 -0.645981,-0.265587 l -0.200938,-1.320495 c -0.0048,-0.06219 -0.03233,-0.11363901 -0.08254,-0.15433701 -0.0503,-0.0407 -0.108793,-0.06096 -0.175919,-0.06096 l -1.593227,0 c -0.138745,0 -0.224899,0.06695 -0.258373,0.20093701 -0.06219,0.239169 -0.13161,0.684121 -0.208161,1.334854 -0.224899,0.07188 -0.442573,0.162794 -0.653113,0.272821 l -0.990415,-0.767984 c -0.06219,-0.04783 -0.124386,-0.07171 -0.186579,-0.07171 -0.105269,0 -0.331313,0.170986 -0.678218,0.513134 -0.346905,0.342149 -0.582463,0.599289 -0.706936,0.771508 -0.04308,0.06219 -0.06457,0.11725 -0.06457,0.165084 0,0.05744 0.02387,0.114872 0.07171,0.172219 0.320566,0.387604 0.576561,0.717684 0.767984,0.990504 -0.119629,0.220053 -0.212918,0.440195 -0.279868,0.6602476 l -1.334942,0.200937 c -0.05259,0.0096 -0.09805,0.0407 -0.136366,0.09338 -0.03832,0.05259 -0.05744,0.107649 -0.05744,0.164996 l 0,1.593316 c 0,0.06228 0.01912,0.118395 0.05744,0.168608 0.03832,0.0503 0.08853,0.08034 0.150725,0.08985 l 1.313448,0.193802 c 0.06695,0.234412 0.164996,0.471203 0.294226,0.710372 -0.08607,0.119629 -0.215296,0.288236 -0.387515,0.505999 -0.17222,0.217763 -0.294315,0.376769 -0.366021,0.477281 -0.03832,0.05277 -0.05744,0.107648 -0.05744,0.165084 0,0.06219 0.01674,0.117162 0.05021,0.164996 0.186578,0.258461 0.581318,0.660424 1.184218,1.2058 0.05268,0.05268 0.112493,0.07893 0.179442,0.07893 0.0718,0 0.13161,-0.02149 0.179443,-0.06448 l 1.011999,-0.768072 c 0.196268,0.100513 0.411564,0.189045 0.645976,0.265685 l 0.200938,1.320495 c 0.0048,0.06219 0.03233,0.113639 0.08254,0.154337 0.05021,0.04079 0.108881,0.06096 0.175831,0.06096 l 1.593315,0 c 0.138921,0 0.224987,-0.06695 0.25855,-0.200938 0.0621,-0.239257 0.131433,-0.68412 0.207984,-1.334854 0.224899,-0.0718 0.442662,-0.162794 0.653113,-0.27282 l 0.990504,0.775207 c 0.06695,0.04299 0.12923,0.06448 0.186578,0.06448 0.105181,0 0.33008,-0.169753 0.674518,-0.509522 0.344615,-0.339682 0.581406,-0.598144 0.710461,-0.775208 0.04308,-0.04783 0.06466,-0.102803 0.06466,-0.164996 0,-0.06219 -0.02387,-0.122183 -0.0718,-0.179443 -0.344439,-0.421078 -0.600433,-0.751158 -0.767984,-0.990415 0.09567,-0.177065 0.189045,-0.39474 0.279956,-0.653113 l 1.327719,-0.200849 c 0.05735,-0.0096 0.105357,-0.04079 0.143589,-0.09347 0.03823,-0.05268 0.05726,-0.107736 0.05726,-0.165084 l 0,-1.593228 c 8.8e-5,-0.06219 -0.01894,-0.118307 -0.05735,-0.168607 z"
               sodipodi:nodetypes="ccccscsccscccccssccccsscscccccssccccscsccscccccssccccsccsccccssccc" />
            <path
               style="opacity:0.725;fill:#000000;fill-opacity:1"
               inkscape:connector-curvature="0"
               sketch:type="MSShapeGroup"
               id="path4463-0-2-3"
               d="m 46.917887,-21.501243 c -0.02791,-0.03655 -0.06432,-0.05831 -0.10951,-0.06522 l -0.954233,-0.145993 c -0.05216,-0.166858 -0.123463,-0.337172 -0.213836,-0.511006 0.06253,-0.08692 0.156361,-0.20942 0.281488,-0.367638 0.125128,-0.158217 0.213773,-0.273744 0.265936,-0.346772 0.02784,-0.03827 0.04167,-0.07821 0.04167,-0.119944 0,-0.04864 -0.0121,-0.08685 -0.03648,-0.114694 -0.125127,-0.177355 -0.411928,-0.472796 -0.860403,-0.886517 -0.0416,-0.03475 -0.08513,-0.0521 -0.130247,-0.0521 -0.05216,0 -0.09389,0.01562 -0.125192,0.04685 l -0.740402,0.557985 c -0.1426,-0.07303 -0.299026,-0.137352 -0.46934,-0.192972 l -0.145992,-0.959417 c -0.0035,-0.04519 -0.02349,-0.08256 -0.05997,-0.112134 -0.03655,-0.02957 -0.07905,-0.04429 -0.127816,-0.04429 l -1.157572,0 c -0.100806,0 -0.163402,0.04864 -0.187723,0.145992 -0.04519,0.173771 -0.09562,0.497054 -0.151241,0.96985 -0.163402,0.05223 -0.321555,0.118279 -0.474525,0.19822 l -0.719596,-0.557985 c -0.04519,-0.03475 -0.09037,-0.0521 -0.13556,-0.0521 -0.07649,0 -0.240719,0.124231 -0.492766,0.372822 -0.252047,0.248591 -0.423193,0.435418 -0.51363,0.560545 -0.0313,0.04519 -0.04691,0.08519 -0.04691,0.119944 0,0.04173 0.01734,0.08346 0.0521,0.125127 0.23291,0.281617 0.418905,0.521439 0.557985,0.719659 -0.08692,0.159881 -0.154697,0.319827 -0.20334,0.479708 l -0.969913,0.145993 c -0.03821,0.007 -0.07124,0.02957 -0.09908,0.06784 -0.02784,0.03821 -0.04173,0.07821 -0.04173,0.119879 l 0,1.157636 c 0,0.04525 0.01389,0.08602 0.04173,0.122504 0.02784,0.03655 0.06432,0.05837 0.10951,0.06528 l 0.954297,0.140809 c 0.04864,0.170314 0.119879,0.342356 0.213773,0.516126 -0.06253,0.08692 -0.156426,0.209421 -0.281553,0.367639 -0.125127,0.158218 -0.213837,0.273745 -0.265936,0.346773 -0.02784,0.03834 -0.04173,0.07821 -0.04173,0.119943 0,0.04519 0.01216,0.08512 0.03648,0.119879 0.13556,0.187787 0.422361,0.479837 0.860403,0.876084 0.03827,0.03827 0.08173,0.05735 0.130376,0.05735 0.05216,0 0.09562,-0.01562 0.130375,-0.04685 l 0.735276,-0.558049 c 0.142601,0.07303 0.299026,0.137352 0.46934,0.193035 l 0.145993,0.959417 c 0.0035,0.04519 0.02349,0.08256 0.05997,0.112135 0.03648,0.02963 0.07911,0.04429 0.127752,0.04429 l 1.157637,0 c 0.100933,0 0.163465,-0.04864 0.187851,-0.145992 0.04512,-0.173835 0.09549,-0.497054 0.151113,-0.96985 0.163401,-0.05216 0.321619,-0.118279 0.474524,-0.19822 l 0.719659,0.563234 c 0.04864,0.03123 0.09389,0.04685 0.13556,0.04685 0.07642,0 0.239822,-0.123336 0.490077,-0.370198 0.250383,-0.246799 0.422425,-0.434586 0.51619,-0.563234 0.0313,-0.03475 0.04698,-0.07469 0.04698,-0.119879 0,-0.04519 -0.01734,-0.08877 -0.05216,-0.130376 -0.250255,-0.305938 -0.43625,-0.545761 -0.557985,-0.719595 0.06951,-0.128648 0.137352,-0.286802 0.203404,-0.474525 l 0.964665,-0.145928 c 0.04167,-0.007 0.07655,-0.02963 0.104326,-0.06791 0.02778,-0.03828 0.0416,-0.07828 0.0416,-0.119943 l 0,-1.157573 c 6.4e-5,-0.04519 -0.01376,-0.08596 -0.04167,-0.122503 z"
               sodipodi:nodetypes="ccccscsccscccccssccccsscscccccssccccscsccscccccssccccsccsccccssccc" />
            <path
               style="opacity:0.725;fill:#000000;fill-opacity:1"
               inkscape:connector-curvature="0"
               sketch:type="MSShapeGroup"
               id="path4463-0-2-3-6"
               d="m 64.07866,1.1998464 c -0.02729,-0.03574 -0.06291,-0.05703 -0.107101,-0.06379 L 63.038318,0.99327539 c -0.05102,-0.163187 -0.120747,-0.329755 -0.209133,-0.499765 0.06116,-0.08501 0.152922,-0.204814 0.275297,-0.359551 0.122374,-0.154736 0.20907,-0.267722 0.260085,-0.339144 0.02723,-0.03743 0.04075,-0.07649 0.04075,-0.117304 0,-0.04757 -0.01183,-0.08494 -0.03568,-0.112172 -0.122375,-0.173453 -0.402867,-0.462395 -0.841476,-0.86701499 -0.04069,-0.03399 -0.08325,-0.05095 -0.127383,-0.05095 -0.05101,0 -0.09183,0.01527 -0.122437,0.04582 l -0.724108,0.54571099 c -0.139464,-0.07142 -0.292448,-0.134331 -0.459016,-0.188727 L 60.952436,-1.8881326 c -0.0034,-0.04419 -0.02297,-0.08075 -0.05865,-0.109668 -0.03574,-0.02892 -0.07731,-0.04332 -0.125004,-0.04332 l -1.132108,0 c -0.09859,0 -0.159807,0.04757 -0.183593,0.142781 -0.04419,0.169948 -0.09352,0.486119 -0.147914,0.94851399 -0.159807,0.05108 -0.314482,0.115677 -0.464086,0.19386 L 58.137317,-1.3016766 c -0.04419,-0.03399 -0.08839,-0.05095 -0.132578,-0.05095 -0.0748,0 -0.235423,0.121499 -0.481926,0.36462099 -0.246502,0.243122 -0.413883,0.425839 -0.502331,0.548214 -0.03061,0.04419 -0.04588,0.08331 -0.04588,0.117305 0,0.04081 0.01696,0.08162 0.05095,0.122375 0.227786,0.275421 0.40969,0.509968 0.545711,0.703827 -0.08501,0.156364 -0.151295,0.312791 -0.198867,0.469156 L 56.423819,1.1156524 c -0.03737,0.0068 -0.06967,0.02892 -0.0969,0.06635 -0.02723,0.03737 -0.04081,0.07649 -0.04081,0.117242 l 0,1.132171 c 0,0.04425 0.01358,0.08413 0.04081,0.119808 0.02723,0.03574 0.06291,0.05709 0.107102,0.06385 l 0.933303,0.137711 c 0.04757,0.166567 0.117242,0.334825 0.20907,0.504772 -0.06116,0.08501 -0.152984,0.204814 -0.275359,0.359551 -0.122374,0.154737 -0.209132,0.267722 -0.260085,0.339144 -0.02723,0.03749 -0.04081,0.07649 -0.04081,0.117305 0,0.04419 0.01189,0.08325 0.03568,0.117241 0.132578,0.183657 0.41307,0.469281 0.841475,0.8568116 0.03743,0.03743 0.07993,0.05609 0.127508,0.05609 0.05102,0 0.09352,-0.01527 0.127508,-0.04582 l 0.719101,-0.5457726 c 0.139463,0.07142 0.292447,0.13433 0.459015,0.188789 l 0.142781,0.9383106 c 0.0034,0.04419 0.02297,0.08075 0.05865,0.109668 0.03568,0.02898 0.07737,0.04332 0.124941,0.04332 l 1.132171,0 c 0.09871,0 0.15987,-0.04757 0.183719,-0.142781 0.04413,-0.17001 0.09339,-0.486119 0.147788,-0.9485136 0.159808,-0.05102 0.314544,-0.115677 0.464086,-0.193859 L 62.26839,5.057883 c 0.04757,0.03055 0.09183,0.04582 0.132578,0.04582 0.07474,0 0.234547,-0.1206216 0.479296,-0.3620536 0.244875,-0.24137 0.413133,-0.425026 0.504836,-0.550844 0.03061,-0.03399 0.04595,-0.07305 0.04595,-0.117241 0,-0.04419 -0.01696,-0.08682 -0.05102,-0.127508 -0.244749,-0.299208 -0.426653,-0.533755 -0.54571,-0.703765 0.06798,-0.125818 0.134331,-0.280492 0.19893,-0.464085 l 0.943444,-0.142719 c 0.04075,-0.0068 0.07486,-0.02898 0.102031,-0.06641 0.02717,-0.03743 0.04069,-0.07655 0.04069,-0.117305 l 0,-1.132108 c 6.3e-5,-0.04419 -0.01346,-0.08407 -0.04075,-0.119808 z"
               sodipodi:nodetypes="ccccscsccscccccssccccsscscccccssccccscsccscccccssccccsccsccccssccc" />
            <path
               style="opacity:0.725;fill:#000000;fill-opacity:1"
               inkscape:connector-curvature="0"
               sketch:type="MSShapeGroup"
               id="path4463-0-2-1"
               d="m 40.409209,-15.372582 c -0.03841,-0.0503 -0.08853,-0.08025 -0.150725,-0.08977 l -1.31336,-0.200937 c -0.07179,-0.229655 -0.169929,-0.464068 -0.294315,-0.703325 0.08607,-0.119628 0.215208,-0.288236 0.387428,-0.505999 0.172219,-0.217763 0.294226,-0.376768 0.366021,-0.477281 0.03832,-0.05268 0.05735,-0.107648 0.05735,-0.165084 0,-0.06695 -0.01665,-0.119541 -0.05021,-0.15786 -0.172219,-0.244103 -0.566958,-0.650734 -1.184217,-1.220159 -0.05726,-0.04783 -0.117162,-0.07171 -0.179267,-0.07171 -0.07179,0 -0.12923,0.02149 -0.172307,0.06448 l -1.019046,0.767984 c -0.196268,-0.100513 -0.411564,-0.189045 -0.645977,-0.265597 l -0.200937,-1.320495 c -0.0048,-0.06219 -0.03233,-0.113639 -0.08254,-0.154337 -0.0503,-0.0407 -0.108793,-0.06096 -0.175919,-0.06096 l -1.593228,0 c -0.138744,0 -0.224898,0.06695 -0.258373,0.200937 -0.06219,0.239169 -0.131609,0.684121 -0.208161,1.334854 -0.224898,0.07188 -0.442573,0.162794 -0.653112,0.272821 l -0.990423,-0.767973 c -0.06219,-0.04783 -0.124385,-0.07171 -0.186578,-0.07171 -0.10527,0 -0.331313,0.170986 -0.678218,0.513134 -0.346906,0.342149 -0.582463,0.599289 -0.706937,0.771508 -0.04308,0.06219 -0.06457,0.11725 -0.06457,0.165084 0,0.05744 0.02387,0.114872 0.07171,0.172219 0.320566,0.387604 0.576561,0.717684 0.767984,0.990504 -0.119628,0.220053 -0.212918,0.440195 -0.279867,0.660248 l -1.334943,0.200937 c -0.05259,0.0096 -0.09805,0.0407 -0.136366,0.09338 -0.03832,0.05259 -0.05744,0.107649 -0.05744,0.164996 l 0,1.593316 c 0,0.06228 0.01912,0.118395 0.05744,0.168608 0.03832,0.0503 0.08853,0.08034 0.150725,0.08985 l 1.313448,0.193802 c 0.06695,0.234412 0.164996,0.471203 0.294227,0.710372 -0.08607,0.119629 -0.215297,0.288236 -0.387516,0.505999 -0.172219,0.217763 -0.294315,0.376769 -0.366021,0.477281 -0.03832,0.05277 -0.05744,0.107648 -0.05744,0.165084 0,0.06219 0.01674,0.117162 0.05021,0.164996 0.186578,0.258461 0.581317,0.660424 1.184217,1.2058004 0.05268,0.05268 0.112493,0.07893 0.179443,0.07893 0.07179,0 0.131609,-0.02149 0.179443,-0.06448 l 1.011998,-0.7680724 c 0.196269,0.100513 0.411565,0.189045 0.645977,0.265685 l 0.200937,1.3204954 c 0.0048,0.06219 0.03233,0.113639 0.08254,0.154337 0.05021,0.04079 0.108882,0.06096 0.175831,0.06096 l 1.593316,0 c 0.138921,0 0.224986,-0.06695 0.258549,-0.200938 0.06211,-0.239257 0.131433,-0.68412 0.207985,-1.3348544 0.224898,-0.07179 0.442661,-0.162794 0.653112,-0.27282 l 0.990504,0.7752074 c 0.06695,0.04299 0.129231,0.06448 0.186578,0.06448 0.105182,0 0.33008,-0.1697534 0.674519,-0.5095224 0.344615,-0.339682 0.581406,-0.598144 0.71046,-0.775208 0.04308,-0.04783 0.06466,-0.102803 0.06466,-0.164996 0,-0.06219 -0.02387,-0.122183 -0.07179,-0.179443 -0.344439,-0.421078 -0.600434,-0.751158 -0.767984,-0.990415 0.09567,-0.177065 0.189045,-0.39474 0.279955,-0.653113 l 1.327719,-0.200849 c 0.05735,-0.0096 0.105358,-0.04079 0.14359,-0.09347 0.03823,-0.05268 0.05726,-0.107736 0.05726,-0.165084 l 0,-1.593228 c 8.8e-5,-0.06219 -0.01894,-0.118307 -0.05735,-0.168607 z"
               sodipodi:nodetypes="ccccscsccscccccssccccsscscccccssccccscsccscccccssccccsccsccccssccc" />
            <path
               style="opacity:1;fill:#3de467;fill-opacity:1;fill-rule:evenodd;stroke:none;stroke-width:0.9148109px;stroke-linecap:butt;stroke-linejoin:miter;stroke-opacity:1"
               d="m 34.896974,2.0342564 c 2.139104,1.369384 5.679985,1.294912 7.876341,0.04937 0.789912,-6.166814 -8.319952,-6.656946 -7.876341,-0.04937 z"
               id="path4517-2"
               inkscape:connector-curvature="0"
               sodipodi:nodetypes="ccc" />
            <rect
               style="opacity:1;fill:#3de467;fill-opacity:1;stroke:none;stroke-width:1.5;stroke-linecap:round;stroke-linejoin:round;stroke-miterlimit:4;stroke-dasharray:none;stroke-opacity:1"
               id="rect4519-6"
               width="0.44865218"
               height="3.1405649"
               x="32.823204"
               y="14.438185"
               ry="0.22432609"
               transform="matrix(0.86172561,-0.50737459,0.50737459,0.86172561,0,0)" />
            <rect
               style="opacity:1;fill:#3de467;fill-opacity:1;stroke:none;stroke-width:1.5;stroke-linecap:round;stroke-linejoin:round;stroke-miterlimit:4;stroke-dasharray:none;stroke-opacity:1"
               id="rect4519-2-5"
               width="0.44865218"
               height="3.1405649"
               x="-34.018459"
               y="-24.907766"
               ry="0.22432609"
               transform="matrix(-0.86172561,-0.50737459,-0.50737459,0.86172561,0,0)" />
            <circle
               r="0.64514852"
               cy="0.017198166"
               cx="37.307823"
               id="path4500-9"
               style="opacity:1;fill:#154e22;fill-opacity:1;stroke:none;stroke-width:1.5;stroke-linecap:round;stroke-linejoin:round;stroke-miterlimit:4;stroke-dasharray:none;stroke-opacity:1" />
            <circle
               r="0.64514852"
               cy="-0.0015262755"
               cx="40.358864"
               id="path4500-8-9"
               style="opacity:1;fill:#144e22;fill-opacity:1;stroke:none;stroke-width:1.5;stroke-linecap:round;stroke-linejoin:round;stroke-miterlimit:4;stroke-dasharray:none;stroke-opacity:1" />
            <path
               style="opacity:1;fill:#3de467;fill-opacity:1;fill-rule:evenodd;stroke:none;stroke-width:0.9148109px;stroke-linecap:butt;stroke-linejoin:miter;stroke-opacity:1"
               d="m 32.475093,-12.859489 c 1.392983,0.891742 3.698803,0.843246 5.129068,0.03215 0.51439,-4.015826 -5.417947,-4.334999 -5.129068,-0.03215 z"
               id="path4517-2-8"
               inkscape:connector-curvature="0"
               sodipodi:nodetypes="ccc" />
            <rect
               style="opacity:1;fill:#3de467;fill-opacity:1;stroke:none;stroke-width:1.5;stroke-linecap:round;stroke-linejoin:round;stroke-miterlimit:4;stroke-dasharray:none;stroke-opacity:1"
               id="rect4519-6-0"
               width="0.292162"
               height="2.0451338"
               x="36.973156"
               y="2.1262541"
               ry="0.146081"
               transform="matrix(0.8617256,-0.5073746,0.5073746,0.8617256,0,0)" />
            <rect
               style="opacity:1;fill:#3de467;fill-opacity:1;stroke:none;stroke-width:1.5;stroke-linecap:round;stroke-linejoin:round;stroke-miterlimit:4;stroke-dasharray:none;stroke-opacity:1"
               id="rect4519-2-5-5"
               width="0.292162"
               height="2.0451338"
               x="-23.358091"
               y="-33.389816"
               ry="0.146081"
               transform="matrix(-0.8617256,-0.5073746,-0.5073746,0.8617256,0,0)" />
            <circle
               r="0.42012027"
               cy="-14.172996"
               cx="34.045036"
               id="path4500-9-2"
               style="opacity:1;fill:#154e22;fill-opacity:1;stroke:none;stroke-width:1.5;stroke-linecap:round;stroke-linejoin:round;stroke-miterlimit:4;stroke-dasharray:none;stroke-opacity:1" />
            <circle
               r="0.42012027"
               cy="-14.185189"
               cx="36.031872"
               id="path4500-8-9-0"
               style="opacity:1;fill:#144e22;fill-opacity:1;stroke:none;stroke-width:1.5;stroke-linecap:round;stroke-linejoin:round;stroke-miterlimit:4;stroke-dasharray:none;stroke-opacity:1" />
            <path
               style="opacity:1;fill:#3de467;fill-opacity:1;fill-rule:evenodd;stroke:none;stroke-width:0.9148109px;stroke-linecap:butt;stroke-linejoin:miter;stroke-opacity:1"
               d="m 48.765333,8.148451 c 1.392983,0.891742 3.698803,0.843246 5.129068,0.03215 0.51439,-4.0158256 -5.417947,-4.3349986 -5.129068,-0.03215 z"
               id="path4517-2-8-6"
               inkscape:connector-curvature="0"
               sodipodi:nodetypes="ccc" />
            <rect
               style="opacity:1;fill:#3de467;fill-opacity:1;stroke:none;stroke-width:1.5;stroke-linecap:round;stroke-linejoin:round;stroke-miterlimit:4;stroke-dasharray:none;stroke-opacity:1"
               id="rect4519-6-0-9"
               width="0.292162"
               height="2.0451338"
               x="40.351978"
               y="28.494589"
               ry="0.146081"
               transform="matrix(0.8617256,-0.5073746,0.5073746,0.8617256,0,0)" />
            <rect
               style="opacity:1;fill:#3de467;fill-opacity:1;stroke:none;stroke-width:1.5;stroke-linecap:round;stroke-linejoin:round;stroke-miterlimit:4;stroke-dasharray:none;stroke-opacity:1"
               id="rect4519-2-5-5-1"
               width="0.292162"
               height="2.0451338"
               x="-48.054707"
               y="-23.551989"
               ry="0.146081"
               transform="matrix(-0.8617256,-0.5073746,-0.5073746,0.8617256,0,0)" />
            <circle
               r="0.42012027"
               cy="6.8349428"
               cx="50.335281"
               id="path4500-9-2-7"
               style="opacity:1;fill:#154e22;fill-opacity:1;stroke:none;stroke-width:1.5;stroke-linecap:round;stroke-linejoin:round;stroke-miterlimit:4;stroke-dasharray:none;stroke-opacity:1" />
            <circle
               r="0.42012027"
               cy="6.822751"
               cx="52.322113"
               id="path4500-8-9-0-0"
               style="opacity:1;fill:#144e22;fill-opacity:1;stroke:none;stroke-width:1.5;stroke-linecap:round;stroke-linejoin:round;stroke-miterlimit:4;stroke-dasharray:none;stroke-opacity:1" />
            <path
               style="opacity:1;fill:#3de467;fill-opacity:1;fill-rule:evenodd;stroke:none;stroke-width:0.9148109px;stroke-linecap:butt;stroke-linejoin:miter;stroke-opacity:1"
               d="m 40.987138,-19.58955 c 1.058502,0.677619 2.810652,0.640768 3.897485,0.02443 0.390876,-3.051552 -4.116999,-3.294086 -3.897485,-0.02443 z"
               id="path4517-2-8-6-6"
               inkscape:connector-curvature="0"
               sodipodi:nodetypes="ccc" />
            <rect
               style="opacity:1;fill:#3de467;fill-opacity:1;stroke:none;stroke-width:1.5;stroke-linecap:round;stroke-linejoin:round;stroke-miterlimit:4;stroke-dasharray:none;stroke-opacity:1"
               id="rect4519-6-0-9-9"
               width="0.22200859"
               height="1.55406"
               x="47.131226"
               y="1.4306327"
               ry="0.11100429"
               transform="matrix(0.8617256,-0.5073746,0.5073746,0.8617256,0,0)" />
            <rect
               style="opacity:1;fill:#3de467;fill-opacity:1;stroke:none;stroke-width:1.5;stroke-linecap:round;stroke-linejoin:round;stroke-miterlimit:4;stroke-dasharray:none;stroke-opacity:1"
               id="rect4519-2-5-5-1-4"
               width="0.22200859"
               height="1.55406"
               x="-26.822718"
               y="-42.107845"
               ry="0.11100429"
               transform="matrix(-0.8617256,-0.5073746,-0.5073746,0.8617256,0,0)" />
            <circle
               r="0.31924176"
               cy="-20.58766"
               cx="42.180111"
               id="path4500-9-2-7-0"
               style="opacity:1;fill:#154e22;fill-opacity:1;stroke:none;stroke-width:1.5;stroke-linecap:round;stroke-linejoin:round;stroke-miterlimit:4;stroke-dasharray:none;stroke-opacity:1" />
            <circle
               r="0.31924176"
               cy="-20.596926"
               cx="43.689869"
               id="path4500-8-9-0-0-7"
               style="opacity:1;fill:#144e22;fill-opacity:1;stroke:none;stroke-width:1.5;stroke-linecap:round;stroke-linejoin:round;stroke-miterlimit:4;stroke-dasharray:none;stroke-opacity:1" />
            <path
               style="opacity:1;fill:#3de467;fill-opacity:1;fill-rule:evenodd;stroke:none;stroke-width:0.9148109px;stroke-linecap:butt;stroke-linejoin:miter;stroke-opacity:1"
               d="m 58.264268,3.0502404 c 1.058502,0.677619 2.810652,0.640768 3.897485,0.02443 0.390876,-3.05155201 -4.116999,-3.29408701 -3.897485,-0.02443 z"
               id="path4517-2-8-6-6-8"
               inkscape:connector-curvature="0"
               sodipodi:nodetypes="ccc" />
            <rect
               style="opacity:1;fill:#3de467;fill-opacity:1;stroke:none;stroke-width:1.5;stroke-linecap:round;stroke-linejoin:round;stroke-miterlimit:4;stroke-dasharray:none;stroke-opacity:1"
               id="rect4519-6-0-9-9-1"
               width="0.22200859"
               height="1.55406"
               x="50.532516"
               y="29.705896"
               ry="0.11100429"
               transform="matrix(0.8617256,-0.5073746,0.5073746,0.8617256,0,0)" />
            <rect
               style="opacity:1;fill:#3de467;fill-opacity:1;stroke:none;stroke-width:1.5;stroke-linecap:round;stroke-linejoin:round;stroke-miterlimit:4;stroke-dasharray:none;stroke-opacity:1"
               id="rect4519-2-5-5-1-4-8"
               width="0.22200859"
               height="1.55406"
               x="-53.197716"
               y="-31.364534"
               ry="0.11100429"
               transform="matrix(-0.8617256,-0.5073746,-0.5073746,0.8617256,0,0)" />
            <circle
               r="0.31924176"
               cy="2.0521293"
               cx="59.45723"
               id="path4500-9-2-7-0-2"
               style="opacity:1;fill:#154e22;fill-opacity:1;stroke:none;stroke-width:1.5;stroke-linecap:round;stroke-linejoin:round;stroke-miterlimit:4;stroke-dasharray:none;stroke-opacity:1" />
          </g>
        </g>
      </g>
    </g>
  </g>
</svg>
