<?xml version="1.0" encoding="UTF-8" standalone="no"?>
<!-- Created with Inkscape (http://www.inkscape.org/) -->

<svg
   xmlns:dc="http://purl.org/dc/elements/1.1/"
   xmlns:cc="http://creativecommons.org/ns#"
   xmlns:rdf="http://www.w3.org/1999/02/22-rdf-syntax-ns#"
   xmlns:svg="http://www.w3.org/2000/svg"
   xmlns="http://www.w3.org/2000/svg"
   xmlns:xlink="http://www.w3.org/1999/xlink"
   xmlns:sodipodi="http://sodipodi.sourceforge.net/DTD/sodipodi-0.dtd"
   xmlns:inkscape="http://www.inkscape.org/namespaces/inkscape"
   width="48"
   height="48"
   id="svg5453"
   version="1.1"
   inkscape:version="0.91 r13725"
   sodipodi:docname="apparmor_view_profile.svg">
  <defs
     id="defs5455">
    <linearGradient
       inkscape:collect="always"
       xlink:href="#linearGradient4143"
       id="linearGradient4194"
       gradientUnits="userSpaceOnUse"
       x1="34.902462"
       y1="490.62549"
       x2="946.34857"
       y2="490.62549" />
    <linearGradient
       id="linearGradient4143"
       inkscape:collect="always">
      <stop
         id="stop4145"
         offset="0"
         style="stop-color:#197cf1;stop-opacity:1" />
      <stop
         id="stop4147"
         offset="1"
         style="stop-color:#20bcfa;stop-opacity:1" />
    </linearGradient>
    <linearGradient
       inkscape:collect="always"
       xlink:href="#linearGradient4143"
       id="linearGradient4340"
       gradientUnits="userSpaceOnUse"
       x1="487.74164"
       y1="985.34576"
       x2="493.5094"
       y2="11.610633" />
    <linearGradient
       inkscape:collect="always"
       xlink:href="#linearGradient5017"
       id="linearGradient4976"
       x1="490.05225"
       y1="550.49976"
       x2="490.12595"
       y2="535.12195"
       gradientUnits="userSpaceOnUse"
       gradientTransform="matrix(1.2174881,0,0,1.2174881,-106.41565,-117.73131)" />
    <linearGradient
       inkscape:collect="always"
       id="linearGradient5017">
      <stop
         style="stop-color:#1c94f4;stop-opacity:1"
         offset="0"
         id="stop5019" />
      <stop
         style="stop-color:#1ea5f7;stop-opacity:1"
         offset="1"
         id="stop5021" />
    </linearGradient>
  </defs>
  <sodipodi:namedview
     id="base"
     pagecolor="#ffffff"
     bordercolor="#666666"
     borderopacity="1.0"
     inkscape:pageopacity="0"
     inkscape:pageshadow="2"
     inkscape:zoom="4"
     inkscape:cx="-80.941894"
     inkscape:cy="15.968792"
     inkscape:document-units="px"
     inkscape:current-layer="g4370"
     showgrid="true"
     fit-margin-top="0"
     fit-margin-left="0"
     fit-margin-right="0"
     fit-margin-bottom="0"
     inkscape:window-width="1366"
     inkscape:window-height="634"
     inkscape:window-x="0"
     inkscape:window-y="36"
     inkscape:window-maximized="1"
     inkscape:showpageshadow="false"
     borderlayer="true"
     showguides="false">
    <inkscape:grid
       type="xygrid"
       id="grid4063" />
    <sodipodi:guide
       position="1.1650391e-05,32.000026"
       orientation="32,0"
       id="guide4157" />
    <sodipodi:guide
       position="1.1650391e-05,2.6367188e-05"
       orientation="0,32"
       id="guide4159" />
    <sodipodi:guide
       position="32.000012,2.6367188e-05"
       orientation="-32,0"
       id="guide4161" />
    <sodipodi:guide
       position="32.000012,32.000026"
       orientation="0,-32"
       id="guide4163" />
    <sodipodi:guide
       position="2.0000117,30.000026"
       orientation="28,0"
       id="guide4167" />
    <sodipodi:guide
       position="2.0000117,2.0000264"
       orientation="0,28"
       id="guide4169" />
    <sodipodi:guide
       position="30.000012,2.0000264"
       orientation="-28,0"
       id="guide4171" />
    <sodipodi:guide
       position="30.000012,30.000026"
       orientation="0,-28"
       id="guide4173" />
    <sodipodi:guide
       position="2.0000117,30.000026"
       orientation="28,0"
       id="guide4181" />
    <sodipodi:guide
       position="2.0000117,2.0000264"
       orientation="0,14"
       id="guide4183" />
    <sodipodi:guide
       position="16.000012,2.0000264"
       orientation="-28,0"
       id="guide4185" />
    <sodipodi:guide
       position="16.000012,30.000026"
       orientation="0,-14"
       id="guide4187" />
    <sodipodi:guide
       position="9.0000117,23.000026"
       orientation="14,0"
       id="guide4193" />
    <sodipodi:guide
       position="9.0000117,9.0000264"
       orientation="0,14.000031"
       id="guide4195" />
    <sodipodi:guide
       position="23.000042,9.0000264"
       orientation="-14,0"
       id="guide4197" />
    <sodipodi:guide
       position="23.000042,23.000026"
       orientation="0,-14.000031"
       id="guide4199" />
  </sodipodi:namedview>
  <metadata
     id="metadata5458">
    <rdf:RDF>
      <cc:Work
         rdf:about="">
        <dc:format>image/svg+xml</dc:format>
        <dc:type
           rdf:resource="http://purl.org/dc/dcmitype/StillImage" />
        <dc:title></dc:title>
      </cc:Work>
    </rdf:RDF>
  </metadata>
  <g
     inkscape:label="Capa 1"
     inkscape:groupmode="layer"
     id="layer1"
     transform="translate(-384.57143,-499.798)">
    <g
       style="display:inline;enable-background:new"
       id="g4238"
       transform="translate(225.81911,462.44565)">
      <g
         style="display:inline"
         id="layer1-8"
         transform="matrix(0.22655187,0,0,0.22655187,106.94841,54.31088)">
        <g
           style="display:none"
           id="layer6" />
        <g
           id="g4027" />
        <g
           id="g4061" />
        <g
           id="g3751" />
        <g
           id="g3782" />
        <g
           id="g3725" />
        <g
           id="g4370"
           transform="matrix(4.4140002,0,0,4.4140002,59.275211,39.357303)">
          <g
             transform="matrix(0.94332554,0,0,0.94332555,-399.34614,-513.3058)"
             style="opacity:1;fill:url(#linearGradient4194);fill-opacity:1;stroke:none;stroke-width:9.51243782;stroke-miterlimit:4;stroke-dasharray:none;stroke-opacity:1"
             id="g4191">
            <path
               style="opacity:1;fill:url(#linearGradient4340);fill-opacity:1;stroke:none;stroke-width:9.51243782;stroke-miterlimit:4;stroke-dasharray:none;stroke-opacity:1"
               inkscape:connector-curvature="0"
               d="m 946.23,206.651 c -0.3,-23 -18,-42 -40.899,-44.101 -190.3,-17.8 -345.601,-119.5 -396.8,-156.7 -10.7,-7.8 -25.2,-7.8 -35.9,0 -51.1,37.2 -206.4,138.9 -396.7,156.7 -22.9,2.101 -40.5,21.101 -40.9,44.101 -2.3,150.1 21.8,659.699 444.1,773.1 7.5,2 15.4,2 22.9,0 422.3,-113.3 446.399,-623.001 444.199,-773.1 z"
               id="path4168"
               transform="matrix(0.05185606,0,0,0.05185606,464.01918,516.71536)" />
            <path
               style="opacity:0.675;fill:#ffffff;fill-opacity:1;stroke:none;stroke-width:9.51243782;stroke-miterlimit:4;stroke-dasharray:none;stroke-opacity:1"
               inkscape:connector-curvature="0"
               d="m 946.23,206.651 c -0.3,-23 -18,-42 -40.899,-44.101 -190.3,-17.8 -345.601,-119.5 -396.8,-156.7 -10.7,-7.8 -25.2,-7.8 -35.9,0 -51.1,37.2 -206.4,138.9 -396.7,156.7 -22.9,2.101 -40.5,21.101 -40.9,44.101 -2.3,150.1 21.8,659.699 444.1,773.1 7.5,2 15.4,2 22.9,0 422.3,-113.3 446.399,-623.001 444.199,-773.1 z"
               id="path4168-0"
               transform="matrix(0.03985431,0,0,0.04023645,469.87887,522.85863)" />
            <path
               d="m 494.95602,541.07091 0,-2.27474 c 0,-3.08705 -2.51167,-5.59941 -5.599,-5.59941 -3.08733,0 -5.59902,2.51236 -5.59902,5.59941 l 0,2.27474 c -0.44123,0.0918 -0.77368,0.48473 -0.77368,0.95336 l 0,8.52389 c 0,0.53676 0.4369,0.97388 0.97392,0.97388 l 10.79751,0 c 0.53701,0 0.97392,-0.43712 0.97392,-0.97388 l 0,-8.52389 c 0,-0.46863 -0.3324,-0.86046 -0.77365,-0.95336 z m -4.29094,7.26628 c 0.0199,0.10689 -0.0515,0.19142 -0.15864,0.19142 l -2.27298,0 c -0.10711,0 -0.17852,-0.0846 -0.15867,-0.19142 l 0.36193,-1.91798 c -0.27397,-0.24977 -0.44591,-0.60937 -0.44591,-1.00947 0,-0.7549 0.61166,-1.36663 1.36621,-1.36663 0.75453,0 1.36622,0.61173 1.36622,1.36663 0,0.38908 -0.16294,0.73972 -0.42401,0.98866 z m 2.34311,-7.2869 -7.30234,0 0,-2.25412 c 0,-2.01332 1.63788,-3.65113 3.65117,-3.65113 2.01328,0 3.65117,1.63791 3.65117,3.65113 z"
               id="path3"
               inkscape:connector-curvature="0"
               style="opacity:1;fill:url(#linearGradient4976);fill-opacity:1;stroke:none;stroke-width:9.51243782;stroke-miterlimit:4;stroke-dasharray:none;stroke-opacity:1"
               sodipodi:nodetypes="cssscssssssccssccsssccccsssc" />
          </g>
        </g>
      </g>
    </g>
  </g>
</svg>
