<?xml version="1.0" encoding="UTF-8" standalone="no"?>
<!-- Created with Inkscape (http://www.inkscape.org/) -->

<svg
   xmlns:dc="http://purl.org/dc/elements/1.1/"
   xmlns:cc="http://creativecommons.org/ns#"
   xmlns:rdf="http://www.w3.org/1999/02/22-rdf-syntax-ns#"
   xmlns:svg="http://www.w3.org/2000/svg"
   xmlns="http://www.w3.org/2000/svg"
   xmlns:xlink="http://www.w3.org/1999/xlink"
   xmlns:sodipodi="http://sodipodi.sourceforge.net/DTD/sodipodi-0.dtd"
   xmlns:inkscape="http://www.inkscape.org/namespaces/inkscape"
   width="48"
   height="48"
   id="svg5453"
   version="1.1"
   inkscape:version="0.91 r13725"
   sodipodi:docname="appgrid.svg">
  <defs
     id="defs5455">
    <linearGradient
       gradientTransform="matrix(0.13837079,0,0,0.13837079,77.468291,-48.119557)"
       inkscape:collect="always"
       xlink:href="#linearGradient4501-1"
       id="linearGradient5299"
       gradientUnits="userSpaceOnUse"
       x1="-318.57867"
       y1="653.95679"
       x2="-318.57867"
       y2="301.29816" />
    <linearGradient
       id="linearGradient4501-1">
      <stop
         id="stop4503-2"
         offset="0"
         style="stop-color:#ff6835;stop-opacity:1" />
      <stop
         id="stop4505-2"
         offset="1"
         style="stop-color:#ff956f;stop-opacity:1" />
    </linearGradient>
  </defs>
  <sodipodi:namedview
     id="base"
     pagecolor="#ffffff"
     bordercolor="#666666"
     borderopacity="1.0"
     inkscape:pageopacity="0"
     inkscape:pageshadow="2"
     inkscape:zoom="4"
     inkscape:cx="-39.601104"
     inkscape:cy="15.968792"
     inkscape:document-units="px"
     inkscape:current-layer="g4370"
     showgrid="true"
     fit-margin-top="0"
     fit-margin-left="0"
     fit-margin-right="0"
     fit-margin-bottom="0"
     inkscape:window-width="1366"
     inkscape:window-height="634"
     inkscape:window-x="0"
     inkscape:window-y="36"
     inkscape:window-maximized="1"
     inkscape:showpageshadow="false"
     borderlayer="true"
     showguides="false">
    <inkscape:grid
       type="xygrid"
       id="grid4063" />
    <sodipodi:guide
       position="1.1650391e-05,32.000026"
       orientation="32,0"
       id="guide4157" />
    <sodipodi:guide
       position="1.1650391e-05,2.6367188e-05"
       orientation="0,32"
       id="guide4159" />
    <sodipodi:guide
       position="32.000012,2.6367188e-05"
       orientation="-32,0"
       id="guide4161" />
    <sodipodi:guide
       position="32.000012,32.000026"
       orientation="0,-32"
       id="guide4163" />
    <sodipodi:guide
       position="2.0000117,30.000026"
       orientation="28,0"
       id="guide4167" />
    <sodipodi:guide
       position="2.0000117,2.0000264"
       orientation="0,28"
       id="guide4169" />
    <sodipodi:guide
       position="30.000012,2.0000264"
       orientation="-28,0"
       id="guide4171" />
    <sodipodi:guide
       position="30.000012,30.000026"
       orientation="0,-28"
       id="guide4173" />
    <sodipodi:guide
       position="2.0000117,30.000026"
       orientation="28,0"
       id="guide4181" />
    <sodipodi:guide
       position="2.0000117,2.0000264"
       orientation="0,14"
       id="guide4183" />
    <sodipodi:guide
       position="16.000012,2.0000264"
       orientation="-28,0"
       id="guide4185" />
    <sodipodi:guide
       position="16.000012,30.000026"
       orientation="0,-14"
       id="guide4187" />
    <sodipodi:guide
       position="9.0000117,23.000026"
       orientation="14,0"
       id="guide4193" />
    <sodipodi:guide
       position="9.0000117,9.0000264"
       orientation="0,14.000031"
       id="guide4195" />
    <sodipodi:guide
       position="23.000042,9.0000264"
       orientation="-14,0"
       id="guide4197" />
    <sodipodi:guide
       position="23.000042,23.000026"
       orientation="0,-14.000031"
       id="guide4199" />
  </sodipodi:namedview>
  <metadata
     id="metadata5458">
    <rdf:RDF>
      <cc:Work
         rdf:about="">
        <dc:format>image/svg+xml</dc:format>
        <dc:type
           rdf:resource="http://purl.org/dc/dcmitype/StillImage" />
        <dc:title></dc:title>
      </cc:Work>
    </rdf:RDF>
  </metadata>
  <g
     inkscape:label="Capa 1"
     inkscape:groupmode="layer"
     id="layer1"
     transform="translate(-384.57143,-499.798)">
    <g
       style="display:inline;enable-background:new"
       id="g4238"
       transform="translate(225.81911,462.44565)">
      <g
         style="display:inline"
         id="layer1-8"
         transform="matrix(0.22655187,0,0,0.22655187,106.94841,54.31088)">
        <g
           style="display:none"
           id="layer6" />
        <g
           id="g4027" />
        <g
           id="g4061" />
        <g
           id="g3751" />
        <g
           id="g3782" />
        <g
           id="g3725" />
        <g
           id="g4370"
           transform="matrix(4.4140002,0,0,4.4140002,59.275211,39.357303)">
          <g
             id="g4182"
             transform="translate(30,-20.000001)">
            <circle
               style="opacity:1;fill:url(#linearGradient5299);fill-opacity:1;stroke:none;stroke-width:15.44461155;stroke-linecap:round;stroke-linejoin:round;stroke-miterlimit:4;stroke-dasharray:none;stroke-opacity:1"
               id="path4217"
               cx="32.375"
               cy="18.125"
               r="24" />
            <path
               sodipodi:nodetypes="ssccscsssssscssscsssscsssccsscssccccscscscsccccccscccsccsssscsscccsssssscsssscsssssscscs"
               style="fill:#ffffff;fill-opacity:0.85185188;stroke:none;stroke-opacity:1"
               d="m 19.897053,28.997271 c 0.943924,-0.852347 1.929042,-1.737255 2.189149,-1.966463 0.260108,-0.229198 0.47446,-0.440174 0.476328,-0.468822 0.0032,-0.05231 -2.762539,-1.913528 -2.887913,-1.943274 -0.03711,-0.0084 -0.0913,0.06079 -0.12161,0.156272 -0.0675,0.212679 -0.92895,3.434813 -1.409022,5.270543 -0.102407,0.391697 -0.103979,0.501474 -0.0074,0.501474 0.0241,0 0.816117,-0.697378 1.760051,-1.54973 z m 26.132472,1.378237 c 0.502614,-0.658963 0.784273,-2.084853 0.66433,-3.36318 -0.136463,-1.454264 -0.532185,-2.460711 -1.290894,-3.283171 -0.562739,-0.610012 -1.039486,-0.742963 -1.584354,-0.441842 -0.849524,0.469484 -1.655476,0.967203 -1.775303,1.09634 -0.357443,0.385229 -0.332884,1.012423 0.07107,1.813688 0.408438,0.810302 0.852332,1.272939 1.84007,1.917791 1.01908,0.665306 1.432695,1.17393 1.655987,2.036377 0.0717,0.276723 0.145458,0.392367 0.251934,0.394694 0.02002,5.56e-4 0.09528,-0.07641 0.167216,-0.170697 z M 23.96452,24.396309 c 1.927668,-3.436722 4.387141,-7.701111 5.914642,-10.255176 0.333147,-0.557027 0.605707,-1.02891 0.605707,-1.048627 0,-0.06373 -2.868112,-1.826557 -2.944283,-1.809693 -0.07662,0.01698 -2.640894,4.333424 -4.461436,7.5099 -0.577134,1.006951 -1.434885,2.440293 -1.90614,3.185197 -0.471252,0.744914 -0.928031,1.467104 -1.015074,1.604867 -0.0913,0.144546 -0.138612,0.269302 -0.11181,0.295002 0.129075,0.123729 3.022865,1.975917 3.066365,1.962647 0.02788,-0.0084 0.411288,-0.658357 0.852029,-1.444117 z m 18.73586,-1.220783 c 0.744916,-0.423594 1.399162,-0.812145 1.453886,-0.863455 0.09738,-0.0913 0.0936,-0.103454 -0.181356,-0.578357 -0.15448,-0.266794 -0.529837,-0.918747 -0.834137,-1.448782 -0.304299,-0.530036 -0.588379,-0.9706 -0.631291,-0.979039 -0.113654,-0.02232 -2.929293,1.620414 -2.948528,1.720295 -0.01604,0.08312 1.462681,2.68994 1.626892,2.867996 0.04717,0.05115 0.10251,0.08375 0.122982,0.07232 0.02044,-0.01144 0.646636,-0.367347 1.391552,-0.790942 z m 5.610408,-2.755 c 0.02096,-0.03753 0.03312,-0.839399 0.02683,-1.781887 l -0.01133,-1.713626 -3.16847,-0.01342 c -2.764687,-0.01173 -3.166309,-0.0042 -3.151549,0.0631 0.0094,0.04214 0.450467,0.849944 0.980369,1.795206 l 0.963458,1.71866 0.208602,0.01541 c 0.114745,0.0084 1.087296,0.0084 2.161245,0 1.543645,-0.01205 1.960634,-0.02956 1.990842,-0.08354 z m -10.024163,-0.07348 c 0.0084,-0.0261 -0.393082,-0.783351 -0.892876,-1.682676 l -0.908729,-1.635126 -3.863423,0 -3.863417,0 -0.912247,1.651658 c -0.501725,0.908399 -0.900736,1.670243 -0.886692,1.692978 0.03637,0.0588 11.307751,0.03208 11.327384,-0.02683 z m -16.595329,-0.28346 c 0.103354,-0.179072 0.530131,-0.917204 0.948474,-1.640317 0.418341,-0.723103 0.760627,-1.338617 0.760627,-1.367797 0,-0.03564 -1.0674,-0.04864 -3.242712,-0.03962 l -3.242705,0.01342 -0.01739,0.364643 c -0.0094,0.20055 -0.0011,0.956535 0.01886,1.679961 l 0.03627,1.315305 2.275329,0 2.275329,0 z m 19.107738,-0.664122 c 1.322916,-0.728141 1.302297,-0.715344 1.302297,-0.808442 0,-0.09067 -0.697054,-1.323168 -3.063471,-5.416569 C 36.436691,8.674957 35.291116,6.691547 34.529735,5.369176 33.779245,4.065694 33.601744,3.822765 33.279827,3.658535 33.02627,3.52918 32.620969,3.509076 32.358878,3.612835 c -0.249656,0.09884 -1.129367,0.611104 -1.362013,0.793078 -0.373092,0.291837 -0.514533,0.868917 -0.324468,1.32382 0.102514,0.24539 0.03281,0.123098 2.493448,4.371283 3.873815,6.68788 5.865044,10.060587 5.988216,10.142713 0.0304,0.02034 0.172753,-0.02914 0.316237,-0.109798 0.143469,-0.08071 0.741404,-0.411214 1.328736,-0.734495 z M 31.23082,11.702863 C 31.847689,10.67363 31.938053,10.493519 31.97583,10.217878 32.05434,9.645326 31.753015,9.261669 30.800938,8.72179 30.261195,8.415728 30.173472,8.382546 29.856984,8.364661 c -0.432493,-0.02442 -0.646018,0.06646 -0.943693,0.4018 -0.22294,0.251138 -1.085744,1.786731 -1.084214,1.929653 5.57e-4,0.05104 0.537489,0.411201 1.419498,0.952096 0.780237,0.478489 1.434799,0.871138 1.454567,0.872542 0.01981,8.91e-4 0.257226,-0.366643 0.527678,-0.817889 z"
               id="path3319"
               inkscape:connector-curvature="0" />
          </g>
        </g>
      </g>
    </g>
  </g>
</svg>
