<?xml version="1.0" encoding="UTF-8" standalone="no"?>
<!-- Created with Inkscape (http://www.inkscape.org/) -->

<svg
   xmlns:dc="http://purl.org/dc/elements/1.1/"
   xmlns:cc="http://creativecommons.org/ns#"
   xmlns:rdf="http://www.w3.org/1999/02/22-rdf-syntax-ns#"
   xmlns:svg="http://www.w3.org/2000/svg"
   xmlns="http://www.w3.org/2000/svg"
   xmlns:xlink="http://www.w3.org/1999/xlink"
   xmlns:sodipodi="http://sodipodi.sourceforge.net/DTD/sodipodi-0.dtd"
   xmlns:inkscape="http://www.inkscape.org/namespaces/inkscape"
   width="48"
   height="48"
   id="svg5453"
   version="1.1"
   inkscape:version="0.91 r13725"
   sodipodi:docname="application-sxw.svg">
  <defs
     id="defs5455">
    <linearGradient
       y2="517.79797"
       x2="400.57138"
       y1="545.79797"
       x1="400.57138"
       gradientTransform="matrix(1.7142876,0,0,1.7142876,-659.31962,-903.52957)"
       gradientUnits="userSpaceOnUse"
       id="linearGradient4224"
       xlink:href="#linearGradient4299"
       inkscape:collect="always" />
    <linearGradient
       id="linearGradient4299"
       inkscape:collect="always">
      <stop
         id="stop4301"
         offset="0"
         style="stop-color:#1074f5;stop-opacity:1" />
      <stop
         id="stop4303"
         offset="1"
         style="stop-color:#02befd;stop-opacity:1" />
    </linearGradient>
  </defs>
  <sodipodi:namedview
     id="base"
     pagecolor="#ffffff"
     bordercolor="#666666"
     borderopacity="1.0"
     inkscape:pageopacity="0"
     inkscape:pageshadow="2"
     inkscape:zoom="4"
     inkscape:cx="-39.601104"
     inkscape:cy="15.968792"
     inkscape:document-units="px"
     inkscape:current-layer="g4370"
     showgrid="true"
     fit-margin-top="0"
     fit-margin-left="0"
     fit-margin-right="0"
     fit-margin-bottom="0"
     inkscape:window-width="1366"
     inkscape:window-height="634"
     inkscape:window-x="0"
     inkscape:window-y="36"
     inkscape:window-maximized="1"
     inkscape:showpageshadow="false"
     borderlayer="true"
     showguides="false">
    <inkscape:grid
       type="xygrid"
       id="grid4063" />
    <sodipodi:guide
       position="1.1650391e-05,32.000026"
       orientation="32,0"
       id="guide4157" />
    <sodipodi:guide
       position="1.1650391e-05,2.6367188e-05"
       orientation="0,32"
       id="guide4159" />
    <sodipodi:guide
       position="32.000012,2.6367188e-05"
       orientation="-32,0"
       id="guide4161" />
    <sodipodi:guide
       position="32.000012,32.000026"
       orientation="0,-32"
       id="guide4163" />
    <sodipodi:guide
       position="2.0000117,30.000026"
       orientation="28,0"
       id="guide4167" />
    <sodipodi:guide
       position="2.0000117,2.0000264"
       orientation="0,28"
       id="guide4169" />
    <sodipodi:guide
       position="30.000012,2.0000264"
       orientation="-28,0"
       id="guide4171" />
    <sodipodi:guide
       position="30.000012,30.000026"
       orientation="0,-28"
       id="guide4173" />
    <sodipodi:guide
       position="2.0000117,30.000026"
       orientation="28,0"
       id="guide4181" />
    <sodipodi:guide
       position="2.0000117,2.0000264"
       orientation="0,14"
       id="guide4183" />
    <sodipodi:guide
       position="16.000012,2.0000264"
       orientation="-28,0"
       id="guide4185" />
    <sodipodi:guide
       position="16.000012,30.000026"
       orientation="0,-14"
       id="guide4187" />
    <sodipodi:guide
       position="9.0000117,23.000026"
       orientation="14,0"
       id="guide4193" />
    <sodipodi:guide
       position="9.0000117,9.0000264"
       orientation="0,14.000031"
       id="guide4195" />
    <sodipodi:guide
       position="23.000042,9.0000264"
       orientation="-14,0"
       id="guide4197" />
    <sodipodi:guide
       position="23.000042,23.000026"
       orientation="0,-14.000031"
       id="guide4199" />
  </sodipodi:namedview>
  <metadata
     id="metadata5458">
    <rdf:RDF>
      <cc:Work
         rdf:about="">
        <dc:format>image/svg+xml</dc:format>
        <dc:type
           rdf:resource="http://purl.org/dc/dcmitype/StillImage" />
        <dc:title></dc:title>
      </cc:Work>
    </rdf:RDF>
  </metadata>
  <g
     inkscape:label="Capa 1"
     inkscape:groupmode="layer"
     id="layer1"
     transform="translate(-384.57143,-499.798)">
    <g
       style="display:inline;enable-background:new"
       id="g4238"
       transform="translate(225.81911,462.44565)">
      <g
         style="display:inline"
         id="layer1-8"
         transform="matrix(0.22655187,0,0,0.22655187,106.94841,54.31088)">
        <g
           style="display:none"
           id="layer6" />
        <g
           id="g4027" />
        <g
           id="g4061" />
        <g
           id="g3751" />
        <g
           id="g3782" />
        <g
           id="g3725" />
        <g
           id="g4370"
           transform="matrix(4.4140002,0,0,4.4140002,59.275211,39.357303)">
          <g
             id="g4184"
             transform="translate(34.999999,-10.000001)">
            <rect
               ry="24.000002"
               y="-15.875002"
               x="3.3749993"
               height="48.000004"
               width="48.000004"
               id="rect4222"
               style="opacity:1;fill:url(#linearGradient4224);fill-opacity:1;stroke:none;stroke-width:1.31742239;stroke-miterlimit:4;stroke-dasharray:none" />
            <path
               style="fill:#daeefe;fill-opacity:1;fill-rule:nonzero;stroke:#daeefe;stroke-width:1.00681818;stroke-linecap:round;stroke-linejoin:round;stroke-miterlimit:4;stroke-dasharray:none;stroke-opacity:1"
               inkscape:connector-curvature="0"
               d="m 40.402372,0.6435678 c -1.692758,-0.02461 -3.302056,0.418375 -4.685581,1.212324 -1.082852,-0.609907 -2.315506,-1.006881 -3.6359,-1.133143 -1.817951,-0.166922 -3.561,0.204372 -5.069716,0.986551 -0.01712,0.0086 -0.03317,0.01712 -0.04601,0.02461 -0.03745,0.02889 -0.06313,0.0749 -0.06313,0.125192 0,0.08774 0.07062,0.150871 0.155152,0.150871 0.0086,0 0.0214,0 0.02889,0 0.0043,0 0.0086,-0.0043 0.0086,-0.0043 0.815349,-0.146591 1.659588,-0.188322 2.524157,-0.109141 2.416087,0.225773 4.52615,0.969431 6.005977,2.633299 0.0749,0.07918 0.142311,0.07062 0.217212,-0.0043 1.863961,-2.135743 4.714472,-2.984263 7.778986,-2.69643 0.171202,0.01712 0.342404,0.03317 0.510395,0.06313 0.05885,0.0086 0.150872,0.0214 0.204373,0.02461 0.100581,0.01284 0.155151,-0.06741 0.155151,-0.150871 0,-0.06741 -0.02461,-0.112352 -0.08346,-0.138032 -0.05885,-0.02889 -0.116631,-0.06741 -0.175481,-0.08774 -0.949101,-0.460105 -1.993432,-0.747938 -3.100895,-0.865639 -0.242892,-0.0214 -0.488995,-0.04173 -0.731888,-0.04601 m 0.0043,0.0043"
               id="path4218" />
            <path
               style="fill:#daeefe;fill-opacity:1;fill-rule:nonzero;stroke:#daeefe;stroke-width:1.00681818;stroke-linecap:round;stroke-linejoin:round;stroke-miterlimit:4;stroke-dasharray:none;stroke-opacity:1"
               inkscape:connector-curvature="0"
               d="m 34.79337,7.9624488 c -3.414407,0 -6.570942,1.082852 -9.153951,2.9008022 -1.973101,-0.8774102 -4.154855,-1.3664052 -6.452171,-1.3664052 -3.268886,0 -6.299159,0.9865512 -8.819037,2.6750292 -0.0043,0.0043 -0.01712,0.01284 -0.0214,0.01712 -0.05885,0.04173 -0.08774,0.104861 -0.08774,0.179762 0,0.129471 0.104861,0.234332 0.230053,0.234332 0.01712,0 0.03317,-0.0043 0.04601,-0.0043 0.01284,0 0.0214,-0.0043 0.02461,-0.0086 1.446656,-0.434425 2.979982,-0.664477 4.56895,-0.664477 4.209426,0 7.970517,0.990831 10.796419,3.62841 0.0086,0.0043 0.01712,0.01284 0.02461,0.01712 0.04173,0.03745 0.09202,0.05029 0.155152,0.05029 0.07062,0 0.133751,-0.0214 0.175482,-0.0749 0,0 0.09202,-0.120912 0.138031,-0.192603 2.879402,-3.895912 7.619554,-5.8187242 12.882942,-5.8187242 0.376644,0 0.752218,0.0086 1.124583,0.03745 0.104861,0.0043 0.334913,0.02461 0.338123,0.02461 0.125192,0 0.230053,-0.104861 0.230053,-0.234333 0,-0.09202 -0.05457,-0.166921 -0.133752,-0.201162 -0.0086,-0.0043 -0.01712,-0.0086 -0.02461,-0.01284 -1.86396,-0.760778 -3.895913,-1.190923 -6.027376,-1.190923 m -0.0086,0.0043"
               id="path4220" />
          </g>
        </g>
      </g>
    </g>
  </g>
</svg>
