<?xml version="1.0" encoding="UTF-8" standalone="no"?>
<!-- Created with Inkscape (http://www.inkscape.org/) -->

<svg
   xmlns:dc="http://purl.org/dc/elements/1.1/"
   xmlns:cc="http://creativecommons.org/ns#"
   xmlns:rdf="http://www.w3.org/1999/02/22-rdf-syntax-ns#"
   xmlns:svg="http://www.w3.org/2000/svg"
   xmlns="http://www.w3.org/2000/svg"
   xmlns:xlink="http://www.w3.org/1999/xlink"
   xmlns:sodipodi="http://sodipodi.sourceforge.net/DTD/sodipodi-0.dtd"
   xmlns:inkscape="http://www.inkscape.org/namespaces/inkscape"
   width="48"
   height="48"
   id="svg5453"
   version="1.1"
   inkscape:version="0.91 r13725"
   sodipodi:docname="applications-education-language.svg">
  <defs
     id="defs5455">
    <linearGradient
       gradientTransform="matrix(1.7142871,0,0,1.7142871,-719.3194,-858.52935)"
       inkscape:collect="always"
       xlink:href="#linearGradient4264"
       id="linearGradient4181"
       gradientUnits="userSpaceOnUse"
       x1="400.5119"
       y1="546.07446"
       x2="400.69922"
       y2="517.77289" />
    <linearGradient
       inkscape:collect="always"
       id="linearGradient4264">
      <stop
         style="stop-color:#0a80fd;stop-opacity:1"
         offset="0"
         id="stop4266" />
      <stop
         style="stop-color:#56c5fa;stop-opacity:1"
         offset="1"
         id="stop4268" />
    </linearGradient>
  </defs>
  <sodipodi:namedview
     id="base"
     pagecolor="#ffffff"
     bordercolor="#666666"
     borderopacity="1.0"
     inkscape:pageopacity="0"
     inkscape:pageshadow="2"
     inkscape:zoom="4"
     inkscape:cx="-87.976104"
     inkscape:cy="15.968792"
     inkscape:document-units="px"
     inkscape:current-layer="g4370"
     showgrid="true"
     fit-margin-top="0"
     fit-margin-left="0"
     fit-margin-right="0"
     fit-margin-bottom="0"
     inkscape:window-width="1366"
     inkscape:window-height="634"
     inkscape:window-x="0"
     inkscape:window-y="36"
     inkscape:window-maximized="1"
     inkscape:showpageshadow="false"
     borderlayer="true"
     showguides="false">
    <inkscape:grid
       type="xygrid"
       id="grid4063" />
    <sodipodi:guide
       position="1.1650391e-05,32.000026"
       orientation="32,0"
       id="guide4157" />
    <sodipodi:guide
       position="1.1650391e-05,2.6367188e-05"
       orientation="0,32"
       id="guide4159" />
    <sodipodi:guide
       position="32.000012,2.6367188e-05"
       orientation="-32,0"
       id="guide4161" />
    <sodipodi:guide
       position="32.000012,32.000026"
       orientation="0,-32"
       id="guide4163" />
    <sodipodi:guide
       position="2.0000117,30.000026"
       orientation="28,0"
       id="guide4167" />
    <sodipodi:guide
       position="2.0000117,2.0000264"
       orientation="0,28"
       id="guide4169" />
    <sodipodi:guide
       position="30.000012,2.0000264"
       orientation="-28,0"
       id="guide4171" />
    <sodipodi:guide
       position="30.000012,30.000026"
       orientation="0,-28"
       id="guide4173" />
    <sodipodi:guide
       position="2.0000117,30.000026"
       orientation="28,0"
       id="guide4181" />
    <sodipodi:guide
       position="2.0000117,2.0000264"
       orientation="0,14"
       id="guide4183" />
    <sodipodi:guide
       position="16.000012,2.0000264"
       orientation="-28,0"
       id="guide4185" />
    <sodipodi:guide
       position="16.000012,30.000026"
       orientation="0,-14"
       id="guide4187" />
    <sodipodi:guide
       position="9.0000117,23.000026"
       orientation="14,0"
       id="guide4193" />
    <sodipodi:guide
       position="9.0000117,9.0000264"
       orientation="0,14.000031"
       id="guide4195" />
    <sodipodi:guide
       position="23.000042,9.0000264"
       orientation="-14,0"
       id="guide4197" />
    <sodipodi:guide
       position="23.000042,23.000026"
       orientation="0,-14.000031"
       id="guide4199" />
  </sodipodi:namedview>
  <metadata
     id="metadata5458">
    <rdf:RDF>
      <cc:Work
         rdf:about="">
        <dc:format>image/svg+xml</dc:format>
        <dc:type
           rdf:resource="http://purl.org/dc/dcmitype/StillImage" />
        <dc:title></dc:title>
      </cc:Work>
    </rdf:RDF>
  </metadata>
  <g
     inkscape:label="Capa 1"
     inkscape:groupmode="layer"
     id="layer1"
     transform="translate(-384.57143,-499.798)">
    <g
       style="display:inline;enable-background:new"
       id="g4238"
       transform="translate(225.81911,462.44565)">
      <g
         style="display:inline"
         id="layer1-8"
         transform="matrix(0.22655187,0,0,0.22655187,106.94841,54.31088)">
        <g
           style="display:none"
           id="layer6" />
        <g
           id="g4027" />
        <g
           id="g4061" />
        <g
           id="g3751" />
        <g
           id="g3782" />
        <g
           id="g3725" />
        <g
           id="g4370"
           transform="matrix(4.4140002,0,0,4.4140002,59.275211,39.357303)">
          <g
             id="g4194"
             transform="translate(95.000054,-54.999947)">
            <circle
               style="opacity:1;fill:url(#linearGradient4181);fill-opacity:1;stroke:none;stroke-width:1.19965255;stroke-miterlimit:4;stroke-dasharray:none;stroke-dashoffset:0;stroke-opacity:1"
               id="path3377"
               cx="-32.625053"
               cy="53.124947"
               r="23.999947" />
            <path
               inkscape:connector-curvature="0"
               id="path4290"
               style="fill:#dff1ff;fill-opacity:1"
               d="m -27.547694,68.428739 c -0.217889,0.248956 -0.499842,0.481706 -0.765675,0.696236 -1.717396,-1.774871 -3.73364,-3.741943 -5.650115,-3.741943 -1.188175,0 -2.043954,0.904498 -3.042353,1.542651 -1.38552,0.885593 -3.28605,1.384329 -4.914717,0.734357 -0.876006,-0.332585 -1.724724,-0.822521 -2.358995,-1.618424 1.281893,0.884067 3.201515,1.002889 4.648634,0.402528 1.599565,-0.663606 3.227639,-1.544785 5.050563,-1.544785 2.687165,0 5.241072,1.817688 7.032658,3.52938 z M -47.408417,62.8465 c 1.779132,2.025233 4.680888,1.373661 7.055907,1.87947 0.330585,0.07041 0.641156,0.180189 0.995992,0.125695 -0.282374,-0.179013 -0.656636,-0.199211 -0.982809,-0.322089 -1.842801,-0.694229 -2.130106,-2.666473 -3.138609,-4.02385 1.288106,0.856358 2.355287,2.028769 3.55986,3.130547 0.838354,0.766812 1.88283,1.094903 2.966062,1.315311 -0.260292,0.09513 -0.600801,0.07269 -0.881129,0.142237 -1.945774,0.4827 -4.103096,1.24464 -6.17352,0.561389 -1.336146,-0.440936 -2.726592,-1.485171 -3.401754,-2.80871 z m -2.851868,-4.687341 c 1.109764,2.512565 3.897968,2.709338 5.751848,4.250723 0.352518,0.293096 0.701946,0.562817 1.089193,0.743425 l 0.01998,-0.02023 c -0.4278,-0.387078 -0.890751,-0.848381 -1.222109,-1.329836 -1.059597,-1.539569 -0.706985,-3.643994 -1.523963,-5.276271 0.74225,0.888768 1.438461,1.803955 1.865869,2.821557 0.687796,1.637556 0.92143,3.505702 2.464034,4.750062 -1.669555,-0.550815 -3.595515,-0.441186 -5.098935,-1.425897 -1.580303,-1.035069 -3.044903,-2.668824 -3.345917,-4.513533 z m -1.188775,-5.08332 c 0.160456,2.213651 2.517216,3.396161 3.64097,5.215816 0.240012,0.388643 0.486997,0.789858 0.835535,1.103719 -0.05433,-0.235689 -0.248256,-0.444514 -0.355003,-0.675749 -0.360431,-0.78076 -0.523558,-1.68432 -0.433596,-2.613408 0.109456,-1.13041 0.580702,-2.180065 0.399841,-3.36926 0.968619,2.090726 0.656167,4.704418 1.21598,6.965057 0.123844,0.500105 0.428389,0.93772 0.61605,1.411366 -0.951693,-0.723975 -2.198892,-1.366604 -3.243531,-2.190014 -1.010262,-0.796314 -1.887173,-1.729651 -2.342989,-2.944105 -0.328449,-0.875102 -0.413864,-1.918933 -0.333257,-2.903422 z m 0.06583,-4.078679 c 0.11369,-0.494049 0.200677,-1.005396 0.415627,-1.458638 -0.406978,2.088207 0.982232,3.596647 1.456539,5.40331 0.17874,0.680828 0.239888,1.404229 0.515209,2.039507 0.02569,0.01377 0.04794,-0.01293 0.06381,-0.0335 -0.685405,-1.922712 0.319333,-3.699665 1.298098,-5.215228 0.257272,-0.398371 0.381116,-0.862236 0.50127,-1.33118 0.105796,0.87038 -0.07946,1.877944 -0.240476,2.776132 -0.207297,1.156353 -0.602532,2.2401 -0.916645,3.355741 -0.206805,0.696993 -0.152312,1.483576 -0.04618,2.213819 l -0.09975,-0.0796 c -0.728731,-1.345286 -2.166448,-2.396227 -2.600644,-3.864486 -0.34702,-1.173469 -0.587083,-2.52919 -0.34686,-3.805877 z m 0.768615,-2.246313 c 0,-1.580218 0.615295,-2.869333 1.538237,-4.046185 0.02678,-0.01335 0.04584,-0.04022 0.08044,-0.03392 -1.016059,1.545542 -0.09126,3.496516 -0.221835,5.24957 l -0.134008,1.799201 c 0.0199,0.0131 0.0199,0.06709 0.06709,0.04643 0.06003,-0.200593 0.07826,-0.413958 0.113185,-0.621089 0.244602,-1.450491 1.518289,-2.460084 2.598461,-3.484123 0.255508,-0.24223 0.44258,-0.528643 0.563069,-0.836459 -0.08984,0.722518 -0.291391,1.463189 -0.615715,2.119778 -0.831434,1.683229 -2.43725,3.041965 -2.726089,4.954853 -0.140053,-1.833289 -1.262832,-3.196136 -1.262832,-5.148056 z m 2.678229,-5.330596 c 0.510925,-0.566468 1.083567,-1.007747 1.765278,-1.182311 -1.32379,0.910265 -1.251914,2.53709 -1.657215,3.897316 -0.148197,0.497361 -0.366003,0.96333 -0.481791,1.477363 l 0.0335,0.02679 c 0.22024,-0.581122 0.598121,-1.139728 1.090452,-1.604234 0.931106,-0.878483 2.33095,-1.410191 2.791666,-2.69519 -0.02108,1.785681 -1.543174,3.143081 -2.933399,4.193207 -0.623531,0.470994 -1.153426,1.103384 -1.476774,1.766287 0.05403,-0.493399 0.07857,-0.903827 0.03451,-1.385422 -0.142698,-1.559879 -0.235236,-3.308584 0.833772,-4.493806 z m 5.373083,-3.002165 c -0.982475,0.862067 -1.638021,1.971667 -2.392749,2.969166 -0.627719,0.829637 -1.489033,1.343691 -2.229772,2.039844 0.399841,-0.829573 0.473667,-1.780136 0.981465,-2.582677 0.868325,-1.372325 2.30341,-1.904995 3.641056,-2.426333 z"
               sodipodi:nodetypes="ccssccssccscscscssccsccscscsccscsscscsscccsccscscccscsccsccsscscsscsccscscsscscsc" />
            <path
               sodipodi:nodetypes="ccssccssccscscscssccsccscscsccscsscscsscccsccscscccscsccsccsscscsscsccscscsscscsc"
               d="m -37.702328,68.428739 c 0.217889,0.248956 0.499843,0.481706 0.765676,0.696236 1.717396,-1.774871 3.733639,-3.741943 5.650114,-3.741943 1.188175,0 2.043955,0.904498 3.042353,1.542651 1.385521,0.885593 3.286051,1.384329 4.914718,0.734357 0.876006,-0.332585 1.724723,-0.822521 2.358993,-1.618424 -1.281891,0.884067 -3.201514,1.002889 -4.648632,0.402528 -1.599565,-0.663606 -3.227639,-1.544785 -5.050564,-1.544785 -2.687165,0 -5.241072,1.817688 -7.032658,3.52938 z M -17.841605,62.8465 c -1.779133,2.025233 -4.680888,1.373661 -7.055907,1.87947 -0.330585,0.07041 -0.641156,0.180189 -0.995992,0.125695 0.282374,-0.179013 0.656636,-0.199211 0.982809,-0.322089 1.842802,-0.694229 2.130107,-2.666473 3.138609,-4.02385 -1.288106,0.856358 -2.355287,2.028769 -3.55986,3.130547 -0.838354,0.766812 -1.882829,1.094903 -2.966061,1.315311 0.260291,0.09513 0.6008,0.07269 0.881128,0.142237 1.945774,0.4827 4.103096,1.24464 6.173519,0.561389 1.336147,-0.440936 2.726593,-1.485171 3.401755,-2.80871 z m 2.851868,-4.687341 c -1.109764,2.512565 -3.897967,2.709338 -5.751848,4.250723 -0.352518,0.293096 -0.701946,0.562817 -1.089193,0.743425 l -0.01998,-0.02023 c 0.427802,-0.387078 0.890752,-0.848381 1.22211,-1.329836 1.059597,-1.539569 0.706985,-3.643994 1.523963,-5.276271 -0.74225,0.888768 -1.438462,1.803955 -1.865868,2.821557 -0.687797,1.637556 -0.921431,3.505702 -2.464035,4.750062 1.669558,-0.55081 3.595518,-0.441181 5.098938,-1.425892 1.580303,-1.035069 3.044903,-2.668824 3.345917,-4.513533 z m 1.188775,-5.08332 c -0.160457,2.213651 -2.517215,3.396161 -3.64097,5.215816 -0.240012,0.388643 -0.486997,0.789858 -0.835535,1.103719 0.05432,-0.235689 0.248256,-0.444514 0.355003,-0.675749 0.360431,-0.78076 0.523558,-1.68432 0.433596,-2.613408 -0.109456,-1.13041 -0.580702,-2.180065 -0.399841,-3.36926 -0.968619,2.090726 -0.656167,4.704418 -1.21598,6.965057 -0.123844,0.500105 -0.428389,0.93772 -0.61605,1.411366 0.951693,-0.723975 2.198893,-1.366604 3.243531,-2.190014 1.010262,-0.796314 1.887173,-1.729651 2.342989,-2.944105 0.32845,-0.875102 0.413864,-1.918933 0.333257,-2.903422 z m -0.06583,-4.078679 c -0.113689,-0.494049 -0.200677,-1.005396 -0.415627,-1.458638 0.406978,2.088207 -0.982231,3.596647 -1.456539,5.40331 -0.17874,0.680828 -0.239887,1.404229 -0.515209,2.039507 -0.02569,0.01377 -0.04794,-0.01293 -0.06381,-0.0335 0.685405,-1.922712 -0.319332,-3.699665 -1.298098,-5.215228 -0.257272,-0.398371 -0.381116,-0.862236 -0.501269,-1.33118 -0.105797,0.87038 0.07946,1.877944 0.240475,2.776132 0.207297,1.156353 0.602532,2.2401 0.916645,3.355741 0.206805,0.696993 0.152312,1.483576 0.04618,2.213819 l 0.09975,-0.0796 c 0.728731,-1.345285 2.166449,-2.396226 2.600644,-3.864485 0.34702,-1.173469 0.587083,-2.52919 0.34686,-3.805877 z m -0.768615,-2.246313 c 0,-1.580218 -0.615295,-2.869333 -1.538237,-4.046185 -0.02679,-0.01335 -0.04584,-0.04022 -0.08044,-0.03392 1.01606,1.545542 0.09126,3.496516 0.221836,5.24957 l 0.134008,1.799201 c -0.0199,0.0131 -0.0199,0.06709 -0.06709,0.04643 -0.06004,-0.200593 -0.07826,-0.413958 -0.113185,-0.621089 -0.244602,-1.450491 -1.51829,-2.460084 -2.598462,-3.484123 -0.255507,-0.24223 -0.442579,-0.528643 -0.563068,-0.836459 0.08984,0.722518 0.291391,1.463189 0.615714,2.119778 0.831434,1.683229 2.43725,3.041965 2.726089,4.954853 0.140053,-1.833289 1.262832,-3.196136 1.262832,-5.148056 z m -2.678229,-5.330596 c -0.510925,-0.566468 -1.083567,-1.007747 -1.765278,-1.182311 1.32379,0.910265 1.251914,2.53709 1.657215,3.897316 0.148197,0.497361 0.366004,0.96333 0.481791,1.477363 l -0.0335,0.02679 c -0.22024,-0.581122 -0.598121,-1.139728 -1.090452,-1.604234 -0.931106,-0.878483 -2.33095,-1.410191 -2.791665,-2.69519 0.02107,1.785681 1.543173,3.143081 2.933398,4.193207 0.623531,0.470994 1.153425,1.103384 1.476774,1.766287 -0.05403,-0.493399 -0.07857,-0.903827 -0.03451,-1.385422 0.142699,-1.559874 0.235237,-3.308579 -0.833771,-4.493801 z m -5.37308,-3.002165 c 0.982473,0.862067 1.63802,1.971667 2.392748,2.969166 0.62772,0.829637 1.489033,1.343691 2.229772,2.039844 -0.399841,-0.829573 -0.473667,-1.780136 -0.981466,-2.582677 -0.868324,-1.372325 -2.303409,-1.904995 -3.641054,-2.426333 z"
               style="fill:#dff1ff;fill-opacity:1"
               id="path4301"
               inkscape:connector-curvature="0" />
            <path
               inkscape:connector-curvature="0"
               style="fill:#dff1ff;fill-opacity:1"
               d="m -20.625362,56.267579 -0.290185,-0.158332 c -0.615238,1.268767 -1.42989,2.423405 -2.404397,3.422096 l -1.695275,-1.695275 c 0.83053,-0.855848 1.50018,-1.827281 1.993499,-2.877173 l -0.288857,-0.157896 c -0.487674,1.041075 -1.1438,1.988323 -1.935101,2.804456 l -1.535688,-1.535688 c 0.659255,-0.685358 1.182381,-1.467341 1.559954,-2.312431 l -0.286593,-0.156384 c -0.369759,0.832876 -0.879871,1.590287 -1.503173,2.239472 l -1.697136,-1.697135 c 0.471974,-0.500163 0.836354,-1.075614 1.084349,-1.69835 l -0.286658,-0.156383 c -0.236961,0.60723 -0.587244,1.15852 -1.02603,1.626118 l -1.54038,-1.540137 c 0.438811,-0.489696 0.6933,-1.104085 0.72931,-1.76047 l 2.180345,0 c -0.01854,0.589137 -0.139228,1.152697 -0.343213,1.674569 l 0.286658,0.156384 c 0.229464,-0.576963 0.359042,-1.19411 0.377581,-1.831001 l 2.403508,0 c -0.02163,1.061134 -0.258219,2.070179 -0.665242,2.987014 l 0.286593,0.156384 c 0.437039,-0.978794 0.678547,-2.042436 0.699925,-3.143528 l 2.17622,0 c -0.02289,1.494357 -0.367616,2.911306 -0.965367,4.18711 l 0.288858,0.157896 c 0.631884,-1.344637 0.975315,-2.818449 0.997963,-4.344997 l 2.403345,0 c -0.02396,1.96705 -0.487358,3.829515 -1.295135,5.495349 l 0.290313,0.158268 c 0.868952,-1.789749 1.33024,-3.766182 1.33024,-5.81428 0,-1.741704 -0.333692,-3.431398 -0.967712,-4.998956 l -0.297811,0.128001 c 0.597144,1.479231 0.920798,3.070003 0.940696,4.710276 l -2.403669,0 c -0.01948,-1.308563 -0.276628,-2.577491 -0.747025,-3.760359 l -0.295603,0.126683 c 0.453751,1.143557 0.702133,2.369455 0.721303,3.633693 l -2.176463,0 c -0.01854,-0.963668 -0.206508,-1.898703 -0.545684,-2.773558 l -0.295604,0.126998 c 0.322595,0.834898 0.501489,1.727144 0.520279,2.646567 l -2.40375,0 c -0.01703,-0.587558 -0.128317,-1.158924 -0.325685,-1.697135 l -0.295547,0.126803 c 0.181289,0.498521 0.283188,1.02684 0.300214,1.570308 l -2.180345,0 c -0.036,-0.656481 -0.290499,-1.270789 -0.72931,-1.760469 l 1.541917,-1.541674 c 0.476139,0.506407 0.836273,1.094459 1.067605,1.731916 l 0.295547,-0.126804 c -0.247558,-0.674259 -0.630687,-1.296349 -1.136277,-1.832214 l 1.699643,-1.699481 c 0.725275,0.75491 1.278878,1.631376 1.645774,2.582183 l 0.295603,-0.126998 c -0.383064,-0.98761 -0.959704,-1.898217 -1.714202,-2.682319 l 1.538924,-1.539167 c 0.953072,0.982918 1.685327,2.123482 2.176058,3.361432 l 0.295603,-0.126683 c -0.507037,-1.274914 -1.262215,-2.449612 -2.244486,-3.461568 l 1.6994,-1.699724 c 1.201875,1.231236 2.128983,2.659914 2.755035,4.211375 l 0.297812,-0.128001 c -0.661521,-1.637038 -1.650465,-3.140615 -2.936623,-4.426692 -1.290849,-1.291011 -2.801058,-2.282179 -4.445215,-2.943821 l -0.118416,0.301476 c 1.554859,0.626278 2.986691,1.554453 4.220192,2.758593 l -1.699401,1.699644 c -0.994889,-0.964153 -2.147505,-1.711534 -3.398801,-2.217876 l -0.117284,0.298888 c 1.209964,0.490893 2.325292,1.213765 3.28904,2.148637 l -1.538843,1.538924 c -0.7481,-0.71966 -1.61075,-1.278554 -2.545866,-1.661141 l -0.117478,0.298887 c 0.894754,0.366669 1.719946,0.901467 2.436267,1.589477 l -1.699401,1.699401 c -0.478032,-0.450604 -1.024655,-0.804218 -1.61528,-1.050862 l -0.117534,0.299138 c 0.550416,0.230661 1.059435,0.559751 1.50568,0.978955 l -1.541675,1.541675 c -0.490011,-0.438876 -1.104165,-0.693309 -1.760792,-0.729125 l 0,-2.180264 c 0.626586,0.01929 1.233258,0.152404 1.796787,0.388808 L -30.55,45.487944 c -0.600484,-0.250899 -1.24709,-0.391388 -1.914313,-0.411003 l 0,-2.403588 c 0.973212,0.01955 1.916173,0.217355 2.792809,0.576591 l 0.117477,-0.298888 c -0.913518,-0.373795 -1.896437,-0.579171 -2.910335,-0.598721 l 0,-2.177433 c 1.290607,0.01967 2.541983,0.277073 3.705843,0.748917 l 0.117283,-0.298887 c -1.200904,-0.486477 -2.491511,-0.751441 -3.823206,-0.771177 l 0,-2.403831 c 1.637118,0.0198 3.224978,0.34246 4.701459,0.936976 l 0.118416,-0.301476 c -1.562219,-0.628988 -3.245604,-0.960432 -4.980271,-0.960432 -2.143057,0 -4.16794,0.511324 -5.963595,1.413632 l 0.146484,0.280349 c 1.737579,-0.87065 3.65998,-1.344961 5.656553,-1.369065 l 0,2.403911 c -1.628302,0.02421 -3.166903,0.419326 -4.539041,1.100688 l 0.145974,0.279589 c 1.351836,-0.669221 2.844089,-1.035818 4.393043,-1.059437 l 0,2.176543 c -1.210772,0.02384 -2.356432,0.315033 -3.381815,0.815487 l 0.146855,0.280849 c 0.998206,-0.484527 2.09582,-0.752322 3.235009,-0.775277 l 0,2.403831 c -0.755413,0.02232 -1.471871,0.201275 -2.118791,0.504829 l 0.147615,0.281926 c 0.611962,-0.284449 1.279606,-0.444359 1.971176,-0.465738 l 0,2.180588 c -0.338231,0.01879 -0.660834,0.09597 -0.958168,0.221391 l 0.147365,0.281796 c 0.304121,-0.124539 0.632709,-0.190112 0.971352,-0.190112 0.684856,0 1.328622,0.266662 1.812964,0.750874 0.484276,0.484277 0.750939,1.12827 0.750939,1.813207 0,1.413713 -1.149946,2.564226 -2.563903,2.564226 -0.685042,0 -1.328946,-0.266792 -1.813206,-0.751068 -0.484269,-0.484528 -0.751004,-1.12827 -0.751004,-1.813207 0,-0.684921 0.266727,-1.328946 0.751004,-1.813206 0.244969,-0.244848 0.53068,-0.433384 0.841773,-0.560762 L -33.74362,47.79904 c -0.295482,0.124789 -0.565865,0.297245 -0.801573,0.508364 l -1.542564,-1.542564 c 0.398514,-0.374491 0.847273,-0.677285 1.331049,-0.902114 L -34.904324,45.5808 c -0.520279,0.244217 -0.995456,0.56877 -1.409023,0.958653 l -1.70118,-1.701261 c 0.596578,-0.573057 1.269414,-1.038729 1.994066,-1.390742 l -0.146855,-0.280851 c -0.765313,0.373424 -1.463944,0.862885 -2.071554,1.447039 l -1.541675,-1.541513 c 0.778117,-0.754975 1.656208,-1.370116 2.60192,-1.838119 l -0.145974,-0.279588 c -0.989956,0.491718 -1.894092,1.131667 -2.679731,1.894092 l -1.70296,-1.703041 c 0.976286,-0.953071 2.077863,-1.731431 3.265179,-2.326504 l -0.146483,-0.280349 c -2.595368,1.304276 -4.708335,3.429781 -5.994978,6.035421 l 0.279273,0.150705 c 0.60004,-1.220398 1.393654,-2.351902 2.36994,-3.352292 l 1.703121,1.703121 c -0.792239,0.816214 -1.454156,1.759175 -1.952652,2.795073 l 0.278205,0.150205 c 0.474813,-0.991897 1.111445,-1.910593 1.897893,-2.72163 l 1.541755,1.541594 c -0.621417,0.646451 -1.135549,1.395919 -1.51668,2.219169 l 0.278836,0.150455 c 0.358977,-0.78259 0.849538,-1.507298 1.462325,-2.145159 l 1.70118,1.70126 c -0.434839,0.461322 -0.789019,0.999339 -1.040427,1.591257 l 0.281101,0.152033 c 0.23104,-0.555214 0.562209,-1.068658 0.984617,-1.517975 l 1.542564,1.542402 c -0.423484,0.473365 -0.692355,1.085319 -0.729683,1.759741 l -2.18083,0 c 0.01936,-0.621798 0.150454,-1.22428 0.383315,-1.784249 l -0.281101,-0.152032 c -0.253988,0.59796 -0.40293,1.251215 -0.423297,1.936232 l -2.403507,0 c 0.02163,-1.081679 0.264203,-2.126151 0.703646,-3.083672 l -0.278836,-0.150454 c -0.45735,0.987448 -0.723132,2.081341 -0.745577,3.234199 l -2.176867,0 c 0.02283,-1.503173 0.36768,-2.953285 0.999581,-4.273333 l -0.278205,-0.150204 c -0.646581,1.342696 -1.018427,2.84142 -1.042046,4.423537 l -2.403993,0 c 0.02365,-1.963167 0.482384,-3.854833 1.325468,-5.569359 l -0.279273,-0.150706 c -0.876392,1.77511 -1.371168,3.770794 -1.371168,5.880687 0,1.290607 0.184314,2.552013 0.536416,3.756962 l 0.314838,-0.0792 c -0.331048,-1.129159 -0.511705,-2.309519 -0.526265,-3.517056 l 2.403589,0 c 0.01482,1.006861 0.16994,1.990669 0.454697,2.92991 l 0.311683,-0.07857 c -0.278771,-0.913762 -0.430293,-1.871363 -0.445362,-2.85137 l 2.176462,0 c 0.0157,0.798233 0.147365,1.577102 0.384391,2.318335 l 0.312193,-0.07876 c -0.231105,-0.71556 -0.359672,-1.46823 -0.375307,-2.239553 l 2.403507,0 c 0.01677,0.570848 0.122331,1.126328 0.309289,1.651032 l 0.31238,-0.07888 c -0.181159,-0.498966 -0.28369,-1.028134 -0.300651,-1.572087 l 2.180587,0 c 0.036,0.656417 0.290314,1.270789 0.729117,1.760469 l -1.541755,1.541836 c -0.47563,-0.506213 -0.835707,-1.093489 -1.067363,-1.730218 l -0.31238,0.07888 c 0.246741,0.691852 0.635606,1.33032 1.152616,1.878319 l -1.6994,1.699562 c -0.826648,-0.86062 -1.431671,-1.880584 -1.789993,-2.988713 l -0.312193,0.07876 c 0.372097,1.163617 1.006537,2.234053 1.875812,3.137542 l -1.539167,1.539248 c -1.150998,-1.186911 -1.982337,-2.602809 -2.452039,-4.143917 l -0.311683,0.07857 c 0.484018,1.596433 1.344072,3.063693 2.536564,4.292341 l -1.699482,1.699563 c -1.504143,-1.541187 -2.578462,-3.390954 -3.169087,-5.404675 l -0.314838,0.0792 c 0.619525,2.120085 1.762491,4.063436 3.367903,5.668525 1.08718,1.087422 2.329821,1.962682 3.676967,2.607662 l 0.15953,-0.282937 c -1.274996,-0.607612 -2.454385,-1.426414 -3.493357,-2.440878 l 1.699401,-1.699319 c 0.883267,0.857303 1.890452,1.540946 2.979492,2.038957 l 0.158583,-0.281295 c -1.064208,-0.48295 -2.04842,-1.148733 -2.910739,-1.984684 l 1.539005,-1.539085 c 0.721303,0.693931 1.54952,1.23795 2.446377,1.619 l 0.158462,-0.280793 c -0.871134,-0.365602 -1.676752,-0.891356 -2.37722,-1.564322 l 1.699644,-1.699563 c 0.54613,0.515231 1.181896,0.903247 1.87112,1.150109 l 0.160606,-0.28445 c -0.665241,-0.230345 -1.278797,-0.598721 -1.804552,-1.09268 l 1.541756,-1.541917 c 0.489696,0.439191 1.103761,0.693431 1.760469,0.729441 l 0,2.180587 c -0.517189,-0.01602 -1.020773,-0.110473 -1.497673,-0.275301 l -0.160606,0.284449 c 0.526839,0.188981 1.084511,0.294981 1.658311,0.311878 l 0,2.403345 c -0.994566,-0.01986 -1.958233,-0.225807 -2.851127,-0.600363 l -0.158462,0.280794 c 0.941586,0.40022 1.958638,0.620536 3.009581,0.640838 l 0,2.176543 c -1.432156,-0.02207 -2.815294,-0.336847 -4.084224,-0.912629 l -0.158583,0.281295 c 1.317217,0.601876 2.75463,0.930262 4.242839,0.952505 l 0,2.403265 c -1.909055,-0.02295 -3.751461,-0.455707 -5.428295,-1.254531 l -0.15953,0.282937 c 1.772117,0.848244 3.725578,1.296672 5.748439,1.296672 2.121946,0 4.166404,-0.495811 6.006464,-1.426817 l -0.151967,-0.294721 c -1.715983,0.869032 -3.647767,1.371329 -5.694085,1.396485 l 0,-2.403346 c 1.622479,-0.02396 3.184294,-0.412895 4.595419,-1.122688 l -0.15001,-0.290815 c -1.341321,0.675522 -2.848943,1.067362 -4.445377,1.092194 l 0,-2.176543 c 1.217325,-0.02346 2.388949,-0.315534 3.450326,-0.844928 l -0.149128,-0.289432 c -0.99853,0.498019 -2.117174,0.788963 -3.301173,0.81314 l 0,-2.403346 c 0.775277,-0.0227 1.521615,-0.209282 2.200889,-0.541778 l -0.148117,-0.287725 c -0.623876,0.304501 -1.318511,0.485093 -2.052869,0.5083 l 0,-2.180264 c 0.656603,-0.03601 1.270789,-0.29025 1.760792,-0.729441 l 1.540138,1.5403 c -0.368756,0.346116 -0.78915,0.63706 -1.248061,0.861186 l 0.148117,0.287725 c 0.481179,-0.235643 0.929211,-0.543484 1.328623,-0.920232 l 1.696812,1.696893 c -0.566496,0.544237 -1.215625,1.001603 -1.925232,1.355315 l 0.149128,0.289432 c 0.727798,-0.362828 1.404331,-0.836274 2.005875,-1.414847 l 1.535689,1.535527 c -0.7481,0.725526 -1.606787,1.336064 -2.546432,1.808677 l 0.15001,0.290815 c 0.954204,-0.479795 1.83998,-1.104893 2.626832,-1.868936 l 1.695275,1.695276 c -0.945792,0.923144 -2.033214,1.700533 -3.223361,2.303047 l 0.151968,0.294722 c 1.247171,-0.631067 2.401728,-1.460142 3.419022,-2.477517 1.069466,-1.069223 1.932432,-2.28946 2.574176,-3.611126 z"
               id="path51" />
            <path
               inkscape:connector-curvature="0"
               style="fill:#dff1ff;fill-opacity:1"
               d="m -33.041572,48.249417 -0.147842,0 -0.02693,-0.300149 0.08067,-0.05479 0,-0.150042 -0.47064,0 -0.01343,-0.149978 0.06742,-0.04097 -0.107723,-0.04097 -0.08073,0.109074 -0.02668,0.12284 -0.134528,0.0274 0,0.06811 -0.09404,0 0,0.177374 -0.376602,0.313851 -0.75288,-0.02714 c -0.05399,0.122711 -0.18852,-0.01383 -0.18852,-0.01383 -0.02668,-0.08181 -0.214815,0 -0.214815,0 0,0.150301 -0.255501,-0.06811 -0.255501,-0.06811 l -0.470704,-0.341247 c -0.26887,-0.245609 -0.672213,0.06836 -0.685583,0.136469 0.01337,0.191076 -0.309241,0.04097 -0.309241,0.04097 0,0 -0.268871,-0.08181 -0.309306,0.0274 -0.04024,0.109073 -0.215325,0.08194 -0.215325,0.08194 l -0.02693,0.05454 -0.134529,0.02727 -0.02668,0.08181 -0.161463,0.0274 0.403278,-0.0137 c 0.107666,-0.01363 -0.04043,0.232044 -0.107473,0.218407 l -0.188074,0.01363 -0.06743,0.06811 -0.174769,0 -0.0806,0.109397 -0.255315,-0.0137 c 0,0 -0.148093,0.122776 -0.134464,0.16368 0.01343,0.04097 -0.02693,0.163809 -0.06736,0.163809 -0.04037,0 -0.121037,0.122776 -0.0941,0.163679 0.02706,0.04097 -0.0806,0.177438 -0.0806,0.177438 l -0.0268,0.1366 -0.0806,0.02714 0,0.368513 -0.161463,0.109204 0,0.163679 -0.242195,0.259311 0.02706,0.218212 -0.201575,0.218406 0.02668,0.218342 -0.120972,0.04097 -0.02674,0.0955 -0.05374,0.286448 0.134407,0.01383 c 0.06704,-0.0274 0.05374,0.177374 0,0.204511 -0.05399,0.0274 -0.20189,0.08187 -0.121037,0.136404 0.08073,0.0548 -0.215203,0.04103 -0.215203,-0.0409 0,-0.08168 -0.161399,-0.150042 -0.201574,-0.122647 -0.04043,0.02714 -0.107723,-0.12284 -0.107723,-0.12284 -0.147843,-0.150042 -0.605039,0.01357 -0.605039,0.01357 l -0.06742,0.218342 c -0.147713,0.0274 -0.241815,0.273004 -0.241815,0.273004 -0.121037,0.04097 -0.215139,0.190946 -0.174769,0.231914 0.04024,0.04097 -0.06743,0.05454 -0.06743,0.05454 l 0,0.300343 -0.06711,0.0955 0.01331,0.327416 c 0.0808,0 0.06743,0.150236 0.06743,0.150236 -0.134529,0.01357 -0.107788,0.191075 -0.107788,0.191075 l -0.282241,0.09544 -0.05374,0.08181 -0.349537,-0.0137 -0.0941,0.09563 -0.09435,-0.09563 -0.67227,0 -0.02668,-0.06817 -0.134528,-0.02746 -0.01356,-0.149978 -0.201575,0.01357 -0.0403,0.08187 -0.21526,0.01357 c 0.01344,0.136534 -0.215138,0.341311 -0.241815,0.286835 -0.02725,-0.05467 -0.175019,-0.204963 -0.107666,-0.231979 0.0673,-0.02746 0.242195,-0.05486 0.242195,-0.05486 l 0,-0.09544 -0.497695,-0.01357 -0.05361,0.08194 -0.201954,0.01351 0,0.218406 -0.09397,0.02733 c -0.06736,0.04077 0.01331,0.191076 0.01331,0.191076 0.0941,0.09538 -0.01331,0.245414 -0.01331,0.245414 -0.08079,0.08194 0.06704,0.232238 0.06704,0.232238 0.107723,0.02707 -0.06704,0.109009 -0.06704,0.109009 0.02668,0.136405 0.107473,0.177373 0.107473,0.177373 -0.0808,0.136405 0.05399,0.204519 0.05399,0.204519 l 0.01331,0.23223 0.0941,0.05467 0,0.149783 0.05374,0.09563 0.215139,0 -0.01343,-0.341118 c -0.188333,-0.218406 0.161213,-0.273004 0.174899,-0.191269 0.01356,0.08194 0.161398,0.122905 0.161398,0.122905 0.02693,0.204769 0.255565,0.327416 0.322611,0.122962 0.0673,-0.204964 0.121037,-0.08194 0.161399,0.01344 0.04037,0.09563 0.295547,0.327675 0.295547,0.327675 l 0.201825,0 0.02706,0.191075 c 0.228509,-0.0137 0.295555,0.01389 0.389657,0.327416 0.09435,0.313722 0.349667,0.395651 0.349667,0.395651 l 0.188334,-0.01363 c 0,-0.163486 0.188268,0.02759 0.188268,0.109526 0,0.08155 0.362973,0.395457 0.362973,0.395457 l 0.362908,0.08174 0.336548,0.273262 0.25525,-0.02733 0.107723,0 c 0.06704,-0.23223 0.389908,0.01344 0.416584,0.09538 0.02712,0.08194 0.242194,0.218407 0.26887,0.150042 0.02706,-0.06811 0.174899,-0.02707 0.20189,0.177374 0.0268,0.204963 0.120778,0.16393 0.120778,0.16393 l 0.766567,-0.01363 0.268871,-0.232238 0.685834,-0.01344 c 0.349538,-0.01363 0.134407,-0.491345 0.06736,-0.491345 -0.121037,-0.09538 0.04018,-0.49116 0.04018,-0.49116 l -0.981543,-0.914247 c -0.228509,0 -0.02693,-0.327675 -0.02693,-0.327675 0.174769,-0.109268 -0.04043,-0.286382 -0.04043,-0.286382 0.02706,-0.163996 -0.0941,-0.355006 -0.0941,-0.355006 -0.241814,-0.163745 -0.174768,-0.477717 -0.174768,-0.477717 l 0,-0.218407 c -0.201575,-0.190816 0.08073,-0.218406 0.08073,-0.218406 0.09397,-0.163421 -0.06736,-0.286318 -0.06736,-0.286318 l -0.01337,-0.177438 -0.215204,-0.0274 -0.02668,-0.641388 -0.48401,-0.6958 c -0.09435,-0.02753 -0.02706,-0.191075 -0.02706,-0.191075 0.121036,-0.0683 -0.02706,-0.23185 -0.02706,-0.23185 l -0.01337,-0.300278 0.282241,-0.02746 0.06736,-0.109009 0.134408,0 -0.01337,-0.354876 c 0.06711,-0.177374 0.228444,-0.08194 0.228444,-0.08194 l 0.188269,0.0137 0.107667,-0.204705 0.02668,-0.163809 -0.147713,-0.01351 c -0.161398,-0.09563 -0.08073,-0.45032 -0.08073,-0.45032 0.2555,-0.382216 0.551112,-0.163866 0.551112,-0.163866 l 0.188455,-0.01351 c 0.282241,0.190946 0.02668,0.545757 0.02668,0.545757 -0.05374,0.08194 -0.02668,0.341183 -0.02668,0.341183 l 0.06711,0.436489 -0.174769,0.150302 c -0.147842,0.08194 -0.147842,0.272874 0.01356,0.313842 0.107473,0.01351 0.06711,0.272884 -0.0943,0.09544 -0.241815,0 0.134723,0.218342 0.02706,0.16355 0.24213,0.122905 0.188074,-0.109074 0.188074,-0.109074 l 0.322991,-0.25931 c 0.121038,-0.09545 0.336233,0.204834 0.336233,0.245802 0,0.0409 0.537741,0.01351 0.537741,0.01351 0.147843,0.0955 0.201575,0.341247 0.201575,0.341247 0.148093,-0.191204 0.457204,-0.01383 0.228695,0.09544 0.214945,0.136469 0.214945,0.259245 0.214945,0.259245 0.17502,-0.05454 0.17502,0.08187 0.17502,0.122841 0,0.04097 0.05374,-0.20464 0.05374,-0.20464 -0.201704,-0.150172 0.26887,-0.204705 0.134528,0.06824 l -0.08079,0.122905 0.134528,0.109074 0.01331,0.313973 c 0.295927,-0.0274 0.215204,-0.39591 0.215204,-0.39591 l 0.134464,-0.02714 c 0,-0.122905 0.09397,-0.05467 0.09397,-0.05467 -0.09397,-0.464079 0.21526,-0.545757 0.21526,-0.545757 0.174769,-0.04097 0.188139,-0.409612 0.188139,-0.409612 -0.120777,-0.05454 -0.0538,-0.245479 0.08073,-0.08161 0.134343,0.163485 -0.08073,-0.327739 -0.08073,-0.327739 l -0.107472,-0.09545 -0.147842,-0.01363 -0.01356,-0.150107 -0.241815,0 -0.04043,0.19114 -0.0941,0.02727 -0.02706,-0.05467 -0.04024,0.150107 -0.241944,0 -0.01337,-0.163745 0.147842,-0.0409 0.0538,-0.08187 0.04024,-0.218406 0.174899,0 0.228509,-0.06811 c 0.01331,-0.232044 0.134464,-0.177374 0.134464,-0.177374 l 0.0806,0.06817 0.121037,0.0955 0.0135,0.08174 -0.0808,0.0409 -0.01331,0.109332 0.04037,0.150043 0.107472,0 c 0.0403,-0.218342 0.322862,-0.218342 0.403464,-0.08187 l 0.08073,-0.191011 c -0.188204,-0.0955 -0.0035,-0.245738 0.05025,-0.177438 0.05374,0.0683 0.178255,-0.177374 0.178255,-0.177374 0,0 0.0941,0.122841 0,-0.04097 -0.0941,-0.163808 0.06711,-0.245608 0.06711,-0.245608 -0.02674,-0.16368 0.174899,-0.13647 0.174899,-0.13647 l 0.01356,-0.218212 -0.188455,-0.01383 c -0.04005,0.191076 -0.201509,0.0274 -0.120843,-0.0135 0.08079,-0.04103 0.161213,-0.122906 0.161213,-0.122906 l 0,-0.136469 0.08073,-0.02727 0.01337,-0.13647 0.201825,0 0.174769,-0.08181 0.04043,-0.0683 0.188074,-0.01357 0.268871,-0.245738 -0.02668,-0.109074 c -0.161399,0 0,-0.12284 0,-0.12284 l 0.02655,-0.20426 z"
               id="path81" />
            <path
               inkscape:connector-curvature="0"
               style="fill:#dff1ff;fill-opacity:1"
               d="m -33.270477,50.787599 0,-0.191076 -0.02706,-0.177438 -0.201454,-0.09544 -0.147842,0.13647 -0.02706,0.191076 0,0.122711 -0.134407,0.0274 -0.02706,0.368385 -0.107408,0.04103 0.01343,0.13647 -0.147843,0.0409 -0.147842,0.04097 -0.02693,0.177373 -0.107407,0.06817 -0.05412,0.163801 -0.06711,0.395716 c 0,0 0.121158,0.231979 0.188269,0.122775 0.0673,-0.109074 0.174769,-0.122775 0.174769,-0.122775 l 0.04037,-0.09557 0.363037,0.01363 c 0.02693,-0.150236 0.201704,-0.09544 0.201704,-0.02727 0,0.06824 0.134528,0.01357 0.134528,0.01357 l 0.09404,-0.150042 0.147777,0 0.01343,-0.16368 0.06736,-0.04097 0,-0.245737 c 0.215204,-0.06817 0.188074,-0.272875 0.188074,-0.272875 l 0.05412,-0.06811 -0.02699,-0.09544 c -0.107723,-0.0411 -0.05405,-0.136728 0.01331,-0.109397 0.06742,0.02727 -0.0941,-0.122841 -0.0941,-0.122841 -0.0806,0.06837 -0.147712,-0.08181 -0.147712,-0.08181 l -0.20189,0 z"
               id="path99" />
            <path
               inkscape:connector-curvature="0"
               style="fill:#dff1ff;fill-opacity:1"
               d="m -28.040432,41.016651 c -0.03929,0.119428 -0.05374,0.286642 -0.121037,0.286642 -0.06711,0 -0.04037,0.177567 -0.04037,0.177567 0,0 0.175085,0 0.228825,0.01351 0.05361,0.01351 0.05361,0.149978 0.05361,0.149978 0.201825,-0.01351 0.282556,0.259375 0.2555,0.32761 -0.02693,0.06817 0.08073,0.06817 0.08073,0.06817 0,0 0,0.218406 -0.02706,0.272882 -0.02668,0.05467 0.174898,0.09563 0.22863,0.177439 0.05374,0.08194 -0.02706,0.354811 -0.06723,0.368449 -0.0403,0.0137 0.107408,0.05454 0.0941,0.122775 -0.01362,0.06837 0.04037,0 0.05374,0.109268 0.01337,0.109074 0.04043,0.341054 0.04043,0.341054 l 0.188075,0.01376 c 0.02706,-0.177374 0.373682,-0.184192 0.430334,-0.163809 0.228574,0.08187 0.403594,0.436684 0.403594,0.518491 0,0.08181 -0.148093,0.09563 -0.148093,0.09563 l 0.02706,0.395586 c 0.228444,0.0683 0.416713,0.395909 0.389908,0.45045 -0.02693,0.05454 0.161148,0.04103 0.161148,0.04103 0.02706,-0.245802 0.255565,-0.163865 0.268871,-0.08194 0.01375,0.08194 0.0538,0.25931 0.0538,0.25931 l 0.0673,0.122647 0.0941,0.09557 0.147842,-0.01363 0.04043,0.08194 0.174769,0.0274 c 0,0 0.148093,0.16355 0.161398,0.204639 0.01362,0.04084 0.215204,0.02727 0.268871,0.04084 0.05374,0.0137 0.134529,0.05466 0.147843,0.12284 0.01362,0.0683 0.09435,0.177438 0.09435,0.177438 0,0 0.161212,0.04103 0.174768,0.0955 0.01337,0.05447 0.08073,0.177374 0.08073,0.177374 l 0.134149,0.109203 0.01356,0.122897 0.147842,0.01363 0.04043,0.16355 0.241815,-0.0135 0.134722,-0.0955 c 0.174769,-0.09544 0.295806,-0.218342 0.309306,-0.273004 0.01331,-0.05454 0.04024,-0.259116 0.174769,-0.218213 0.134342,0.04097 0.04036,-0.300279 0.04036,-0.300279 0,0 -0.188204,-0.136469 -0.174898,-0.204833 0.0135,-0.06811 -0.188075,-0.204519 -0.174769,-0.259181 0.01337,-0.05467 -0.174769,-0.16368 -0.161399,-0.218278 0.01331,-0.05466 -0.0941,-0.204833 -0.0941,-0.204833 l -0.201825,-0.190947 -0.02693,-0.122905 -0.161212,-0.01351 -0.322612,-0.39578 0.01337,-0.109268 -0.0941,-0.01357 0,-0.150042 -0.09397,-0.05466 -0.148093,-0.01363 -0.295676,-0.327416 -0.02693,-0.150171 -0.147842,0 0.0268,-0.286642 c 0.09423,-0.122841 0.0403,-0.354812 0.0403,-0.354812 0,0 -0.188399,0.0955 -0.282242,0.05454 -0.0943,-0.04078 0.04018,-0.13647 0.04018,-0.13647 l 0,-0.109073 -0.08054,-0.08187 c 0,0 -0.22876,0.0274 -0.242065,-0.01351 -0.0135,-0.04097 -0.05374,-0.218406 -0.05374,-0.218406 l -0.0135,-0.232044 -0.09397,-0.04078 -0.01369,-0.082 -0.147713,0.01357 0,-0.163679 -0.08079,-0.02727 -0.08061,-0.04097 -0.01343,-0.163809 -0.295806,-0.01351 -0.0941,-0.136471 -0.107472,-0.1638 -0.336168,-0.02727 -0.08073,-0.08174 -0.134408,-0.0274 -0.0941,-0.04097 -0.04037,0.06836 -0.255566,0.01351 -0.01331,0.08187 c -0.134407,0.06824 -0.672213,0.01357 -0.6859,0.05447 z"
               id="path189" />
            <path
               inkscape:connector-curvature="0"
               style="fill:#dff1ff;fill-opacity:1"
               d="m -25.176282,48.658697 c -0.05374,0.05466 -0.174769,0.08194 -0.174769,0.08194 l -0.04043,0.150107 -0.06704,0.05454 c 0,0 0.01331,0.0409 0,0.136469 -0.0135,0.09545 -0.134529,0.150107 -0.134529,0.150107 l -0.05374,0.06824 c 0,0 -0.324132,0.01756 -0.363037,0 -0.121037,-0.05454 -0.04024,-0.218342 0.04043,-0.204705 0.08054,0.0137 -0.01363,-0.232043 -0.01363,-0.232043 l 0.107723,-0.01357 c 0,0 0.01331,-0.245737 0.05374,-0.245737 0.04037,0 -0.01337,-0.08181 -0.06736,-0.122776 -0.05374,-0.04077 -0.120907,-0.177244 -0.174898,-0.163679 -0.05374,0.01357 -0.268871,0 -0.268871,0 l -0.04037,0.08194 -0.147964,0.0272 c 0,0 0.01274,0.105539 -0.01312,0.136534 -0.08098,0.09544 -0.390029,0.300149 -0.255759,-0.04097 l 0.04024,-0.08174 0,-0.122905 -0.24175,-0.0135 c 0,0 -0.121036,-0.04103 -0.121036,-0.09563 0,-0.0546 -0.0135,-0.122711 -0.0135,-0.122711 l -0.282436,-0.313843 -0.335981,-0.0409 -0.02706,-0.06836 -0.201453,-0.02727 c -0.242195,-0.122711 -0.457391,-0.01363 -0.416964,0.191075 0.0403,0.204834 0.107408,0.286642 -0.0268,0.286642 -0.134657,0 -0.161463,-0.109139 -0.161463,-0.109139 0,0 -0.107407,-0.04103 -0.107407,0.0135 0,0.05467 -0.04043,0.16381 0,0.218342 0.04017,0.05454 -0.05399,0.13647 -0.09435,0.0955 -0.04005,-0.04097 -0.147713,-0.16355 -0.120779,-0.204511 0.02681,-0.04097 -0.188454,-0.300343 0.02681,-0.341247 0.215204,-0.04097 -0.01343,-0.163809 0.06736,-0.190946 l 0.107408,-0.05467 0.107473,0 0.0673,-0.05467 -0.174769,-0.02714 -0.107408,-0.0137 -0.201825,-0.01363 c -0.201574,0.13647 -0.241815,0.300279 -0.241815,0.300279 -0.107787,0.20464 -0.363037,-0.08194 -0.26887,-0.191076 0.09397,-0.109203 -0.295927,-0.0137 -0.363224,0.0409 -0.06736,0.05454 -0.269001,0.02727 -0.269001,0.02727 -0.04024,0.122905 -0.228444,-0.0135 -0.174768,-0.09544 0.0538,-0.08187 0.0538,-0.136469 0.0538,-0.136469 l -0.06711,-0.0137 -0.0806,0.150107 c -0.188269,0 -0.242195,0.109074 -0.20189,0.177373 0.0403,0.06811 -0.05374,-0.01364 -0.08073,0.08187 -0.02668,0.0955 0.01362,0.0955 0.09435,0.13647 0.08073,0.04097 -0.04043,0.04097 0.01337,0.109074 0.05374,0.06836 0.215139,0 0.121094,0.09563 -0.0941,0.09545 -0.282557,0.05467 -0.282557,0.05467 -0.01337,0.122581 -0.268871,0.09544 -0.295547,0.05454 -0.02706,-0.04097 -0.228574,-0.286641 -0.228574,-0.286641 l -0.255816,-0.01364 c -0.02668,-0.190946 0.121158,-0.0955 0.174898,-0.245609 0.05405,-0.150171 0.08092,-0.39565 0.08092,-0.39565 0,0 -0.215389,-0.01363 -0.22876,0.05454 -0.01331,0.0683 -0.147842,0.109203 -0.147842,0.109203 0,0 -0.107667,0.04084 -0.0673,0.0955 0.04037,0.05467 -0.08073,0.08174 -0.08073,0.08174 0,0 0.02097,0.08817 -0.01337,0.122841 -0.107407,0.109333 -0.376537,0.01357 -0.416712,-0.02727 l -0.161464,-0.06824 -0.161398,-0.109138 -0.18814,0.08174 -0.05374,0.05466 -0.201825,0 -0.01331,0.16355 0.363037,0.0409 0.02693,0.337769 -0.148093,-0.051 -0.0941,0 -0.04024,-0.08194 -0.08073,-0.0137 0,0.300149 0.08073,0.06837 0.06736,0.06804 0.134463,0.0137 0.02693,0.16368 0.335982,0.01383 0.04037,0.06811 0.201824,0.0137 0.389908,0.395586 -0.02693,0.122905 -0.06736,0.04097 c 0.02706,0.0955 -0.174583,0.04097 -0.174583,0.04097 l 0,0.08174 0.09385,0.01363 0.09435,0.05454 0.134342,-0.231914 c 0.147843,-0.0955 0.214945,0.04097 0.228631,0.12284 0.01331,0.08187 -0.06742,0.06817 -0.06742,0.06817 l 0,0.191205 0.08073,0.02714 c 0.134658,0.163801 -0.05374,0.259375 -0.05374,0.259375 l -0.04043,0.136405 c -0.04037,0.122841 -0.188203,0.09545 -0.188203,0.09545 l -0.05361,0.08194 -0.161592,0.04097 0.319254,0.0409 c 0.03035,-0.109203 0.110829,-0.13647 0.151199,-0.08187 0.04043,0.05467 0.04043,0.150172 0.04043,0.150172 l 0.08098,0.01363 -0.01369,0.150043 0.08073,0.0274 0,0.43662 0.0941,0.109138 c 0.161399,-0.06804 0.161399,0.04103 0.08061,0.0955 -0.08061,0.05447 -0.02693,0.300278 -0.02693,0.300278 l -0.06723,0.06811 0,0.109268 -0.0806,0.05454 0,0.150042 c -0.134529,-0.06817 -0.295927,-0.04103 -0.336362,0 -0.120778,-0.08194 -0.376278,-0.05454 -0.376278,0.01376 0.08054,0.109138 -0.09397,0.136469 -0.09397,0.136469 l -0.09435,0.109139 c 0.06736,0.136534 -0.06704,0.150042 -0.06704,0.150042 l 0,0.259375 -0.161464,0.150107 0.01362,0.354812 c 0,0.0955 0.201574,0.109073 0.24175,0.05454 0.04043,-0.05454 0.201889,0.109268 0.201889,0.109268 l 0.120778,0 0.02706,-0.245737 -0.0808,-0.04097 0,-0.39578 0.134529,-0.150171 c 0.161399,-0.05454 0.107666,0.355005 0.107666,0.395909 0.01337,0.150042 0.08041,0.136469 0.147843,0.109074 0.134407,-0.05454 0.02668,0.150301 -0.08073,0.136469 -0.107472,-0.0135 -0.04043,0.13647 -0.04043,0.13647 l 0.06743,0.0274 -0.121159,0.0955 -0.107286,0.122905 -0.134787,-0.04103 -0.161148,-0.01351 -0.0538,-0.09576 -0.0943,-0.01357 -0.01337,0.190946 -0.06711,0.08187 -0.161399,0.163994 c 0.215204,0 -0.02706,0.149784 -0.08073,0.149784 0.120972,0.04097 -0.01337,0.16393 -0.322611,0.06849 l 0,0.09538 -0.107723,0.0137 0.09435,0.10901 0.107408,0.0137 -0.04037,0.231979 c 0,0.177374 -0.44364,0.05441 -0.484074,0.01364 l -0.01337,0.245673 -0.08073,0.01344 0.01337,0.16393 -0.01337,0.232044 0.147843,-0.02733 0,0.09557 0.363232,0.0137 0.524371,-0.559654 0.309176,-0.06811 c 0.02681,-0.136664 0.161148,0.02733 0.161148,0.02733 0.134528,-0.01396 0.161463,0.08174 0.161463,0.08174 l 0.174899,0.02733 c 0.147712,0.04103 0.05842,0.05537 0.06711,0.109333 0.01331,0.08174 0.0806,0.05441 0.0806,0.05441 l 0.02706,-0.177374 0.08073,0.01363 -0.08073,-0.09557 -0.148093,-0.06837 -0.161212,-0.06811 c -0.107667,-0.150042 0.02687,-0.122711 0.134528,-0.109009 l 0.174769,0 c 0,0 0.201825,0.272753 0.201825,0.341053 0,0.06836 0.0941,0.082 0.0941,0.082 l 0.120778,-0.0137 0.04043,0.09538 0.120972,0 0.04043,0.08174 0.242066,0 0.01343,-0.122711 -0.228825,-0.04071 -0.01331,-0.136665 -0.161213,-0.04097 c -0.05399,-0.231785 0.04018,-0.30015 0.107408,-0.190817 l 0.08067,0.01338 -0.02693,-0.204704 0.09404,-0.02733 -0.0268,-0.286641 -0.08061,-0.02708 0,-0.09563 0.335982,0.01389 c -0.02668,-0.177632 0.01356,-0.259439 0.01356,-0.259439 l 0.0941,0 0.01337,0.06843 0.411391,0.03878 0.290864,-0.333652 c -0.01464,-0.02547 0.02921,-0.04103 -0.0027,-0.07377 -0.04043,-0.0409 -0.09435,0 -0.161844,-0.0409 -0.06704,-0.04071 0,-0.272883 -0.01331,-0.327416 -0.01337,-0.05454 0.228825,-0.136664 0.188455,-0.01364 -0.04036,0.122906 0,0.177438 0,0.177438 0.174769,-0.163809 0.322676,0.0135 0.309306,0.05454 -0.01375,0.0409 0.09397,0.08187 0.161083,0.0409 0.06736,-0.0409 0.148028,0.122905 0.121101,0.204575 -0.02706,0.08187 -0.268806,0.06837 -0.282176,-0.01357 -0.01375,-0.08194 -0.05412,-0.05454 -0.08073,-0.01357 -0.02706,0.04097 -0.147842,0.06811 -0.215203,0.02714 -0.01362,-0.0083 -0.02015,-0.01518 -0.02395,-0.02174 l -0.290863,0.333651 0.01888,0.0019 c 0.161213,0.09563 0.08073,0.218407 0.02706,0.245673 -0.05399,0.02733 -0.148093,0.02733 -0.148093,0.02733 l -0.02668,0.05467 -0.349667,0.02714 -0.02706,0.136599 c -0.174769,-0.02759 -0.241815,0.16368 -0.20151,0.259051 0.04043,0.09538 0,0.177374 0,0.177374 l 0.147899,0.06837 0.188074,-0.05441 c 0.02706,-0.136664 0.147843,-0.163995 0.255565,-0.245673 0.107408,-0.08194 0.282436,0.149783 0.228445,0.259116 -0.05374,0.109009 -0.05374,0.150043 -0.05374,0.150043 l 0.01331,0.122897 -0.134342,0.05447 -0.107473,0.05467 -0.01369,0.0683 -0.362908,0 -0.06711,0.06811 -0.174899,0.01396 -0.05399,0.08174 -0.120778,0.0137 c 0,0 -0.201825,0.09557 -0.121037,0.204704 0.08067,0.109268 -0.336046,0.09557 -0.430399,-0.05466 -0.02693,0.13634 -0.174769,0.01363 -0.174769,0.01363 l -0.147842,-0.04103 -0.01337,-0.204454 c -0.02693,-0.136599 -0.282435,-0.136599 -0.268871,-0.04097 0.01337,0.09557 -0.48426,0.04097 -0.48426,0.04097 l -0.161213,0.07833 -0.148093,0.08541 -0.01331,0.06811 -0.242195,0.02733 -0.107408,0.05466 -0.0403,-0.08194 -0.107472,0 -0.107666,0.150237 c -0.282306,0.0137 -0.551177,0.177437 -0.524372,0.245672 0.02693,0.06811 -0.107407,0.136664 -0.107407,0.136664 l -0.121159,0.04045 -0.08048,0.12297 -0.161399,0.05467 -0.02706,0.286706 -0.08048,0.05441 0,0.122961 -0.0943,0.02708 0,0.06837 -0.134407,0.01363 0.08048,0.20477 0.107918,0.05466 c 0.188204,0.02707 0.107407,0.25931 0.107407,0.25931 l 0.107472,0.01344 0.05399,0.150042 0.107407,0.218342 c 0.04043,0.163995 0.161464,0.12297 0.215204,0.109333 0.05374,-0.01344 0.107408,0.163679 0.107408,0.163679 l 0.537742,0.0137 c 0,0 -0.02668,0.05467 0.06742,0.08194 0.09397,0.02707 0.712519,0.05467 0.739575,0.0137 -0.02706,-0.122961 0.335917,-0.1503 0.484009,-0.04103 0.147713,0.109009 0.349539,0.04103 0.349539,0.04103 l 0.201638,0.245358 0.134723,0.300343 0.228444,0.06811 0.161213,0.04103 0.05399,0.231979 0.120778,0.0137 0.04043,0.150236 c 0.148028,0.109074 -0.04043,0.341118 -0.04043,0.341118 l 0,0.300084 0.107667,0.05467 -0.01356,0.109333 0.17502,0.177114 0.201574,0.01389 0.511066,0.545758 0.403213,0.122711 0.06711,0.218407 0.107788,-0.0137 0.0806,-0.06811 0.322612,-0.01363 0.161463,-0.150301 0.174769,-0.02707 1.492496,-1.269172 -0.134658,-0.08194 0,-0.300085 c 0.242066,-0.177373 0.2555,-0.49141 0.02693,-0.518685 -0.173378,-0.02071 -0.09397,-0.204704 0.06742,-0.231979 l 0.09397,-0.04078 0,-0.122961 0.30924,-0.286383 0,-0.218406 -0.672084,-0.559654 c -0.295927,-0.109009 0,-0.764164 0.201453,-0.75047 0.201825,0.01344 -0.01331,-1.009773 -0.01331,-1.009773 l -0.107723,-0.05447 0.02706,-0.327674 -0.147842,0 -0.24213,0.314037 -0.06711,0.218147 c -0.02693,0.286901 -0.860621,0.23198 -0.901063,0.191011 -0.04037,-0.04097 -0.322611,-0.163679 -0.322611,-0.163679 0,0 -0.215139,-0.177374 -0.255501,-0.122711 -0.04037,0.05466 -0.228444,-0.06837 -0.228444,-0.02733 0,0.04097 -0.174769,-0.09538 -0.174769,-0.09538 l -0.268871,-0.09563 0.201825,-0.04103 -0.04043,-0.163679 0.349287,0.177374 c 0.04043,0.05441 0.215203,0.04103 0.215203,0.04103 l 0.05374,0.0683 c 0,0 0.107723,-0.01389 0.175149,0.06811 0.06711,0.08194 0.416583,0.0137 0.416583,0.0137 l 0.0941,0.08174 0.147842,0.05467 0.416964,0.0137 0.01337,-0.259116 0.08073,-0.08194 -0.0135,-0.16393 0.0941,-0.08174 0,-0.13634 0.08073,-0.02733 0.01337,-0.300084 0.06711,-0.0137 0,-0.65509 -0.201639,-0.191141 c -0.01331,0.06837 -0.228445,0.06837 -0.228445,0.06837 0,0 -0.05374,0.09538 -0.0941,0.09538 -0.04024,0 0.0538,0.122711 0.0268,0.204704 -0.0268,0.08174 -0.134464,0.08174 -0.134464,0.08174 l -0.201825,0.05473 -0.05374,0.0683 -0.215204,0 -0.02668,-0.177373 0.241815,-0.06836 0.134463,-0.06804 0.06736,-0.136663 c 0.01331,-0.136276 0.174769,-0.122776 0.174769,-0.122776 0,0 0.309241,-0.25931 0.322611,-0.381892 0.01369,-0.122897 0.121158,-0.46408 0.309305,-0.46408 l 0.349668,0 c 0.134342,-0.05473 0.09404,-0.232043 0.09404,-0.232043 l 0.174834,-0.02714 0.02693,0.0955 c 0,0 0.24213,0.02727 0.268871,-0.0137 0.02706,-0.04078 0.08073,-0.136469 0.148093,-0.09551 0.06717,0.0409 0.282306,-0.09557 0.282306,-0.09557 0.01337,-0.0955 0.349537,-0.05454 0.349537,-0.05454 l 0.04043,-0.122776 c 0,0 -0.228509,-0.313851 -0.26887,-0.313851 -0.04043,0 -0.255501,-0.191205 -0.2825,-0.122897 -0.214881,-0.05454 -0.201575,-0.354811 -0.201575,-0.354811 l -0.08073,-0.190946 c 0,-0.109333 -0.201446,-0.341248 -0.242066,-0.313844 -0.201825,-0.150107 -0.05374,-0.327545 0,-0.341182 0.05374,-0.01357 0.188398,-0.204705 0.188398,-0.204705 l 0.06711,-0.191075 0.228574,-0.06804 0.02693,-0.177438 -0.120778,-0.0137 c 0,0 0.134213,-0.245673 0.201574,-0.245673 0.06736,0 0.511066,0 0.551112,-0.0274 0.04037,-0.02714 0.120972,-0.245478 0.120972,-0.286447 0,-0.04097 0.107853,-0.05466 0.147899,-0.06836 0.04037,-0.01351 0.134464,-0.122711 0.161399,-0.177374 0.02693,-0.05492 -0.06698,-0.396168 -0.120907,-0.341562 z"
               id="path241" />
          </g>
        </g>
      </g>
    </g>
  </g>
</svg>
