<svg xmlns="http://www.w3.org/2000/svg" xmlns:xlink="http://www.w3.org/1999/xlink" viewBox="0 0 48 48"><defs><linearGradient xlink:href="#1" id="3" y1="525.8" x2="0" y2="503.8" gradientUnits="userSpaceOnUse" gradientTransform="matrix(1.01896 0 0 1.16964-8.472-91.37)"/><linearGradient gradientUnits="userSpaceOnUse" y2="503.8" x2="0" y1="543.8" id="2" xlink:href="#1" gradientTransform="matrix(.67024 0 0 .41636 135.45 294.04)"/><linearGradient id="0" y1="543.8" x2="0" y2="503.8" gradientUnits="userSpaceOnUse" gradientTransform="matrix(1.125 0 0 1-51.07 0)"><stop stop-color="#31d145"/><stop offset="1" stop-color="#4bf082"/></linearGradient><linearGradient id="1"><stop stop-color="#1c6b2a"/><stop offset="1" stop-color="#468e5e"/></linearGradient></defs><g transform="matrix(1.2 0 0 1.2-466.29-604.56)"><rect y="503.8" x="390.57" height="40" width="36" fill="url(#0)" rx="2"/><path d="m405.88 518.11v4.679c-.307 3.01 5.693 3.01 5.375 0v-4.679z" fill="url(#3)" fill-rule="evenodd"/><g transform="translate(-.717.017)"><path fill="url(#2)" d="m406.61 503.8h5.362v16.654h-5.362z"/><g fill="#fff"><rect y="504.89" x="407.36" height="2" width="4" opacity=".929" rx=".889"/><rect y="507.78" x="407.35" height="2" width="4" opacity=".929" rx=".889"/><rect y="510.64" x="407.33" height="2" width="4" opacity=".929" rx=".889"/><rect y="513.62" x="407.37" height="2" width="4" opacity=".929" rx=".889"/><rect y="516.54" x="407.37" height="2" width="4" opacity=".929" rx=".889"/></g></g><rect y="519.55" x="406.65" height="2" width="4" opacity=".929" fill="#fff" rx=".889"/><path d="m410.12 524.47v-1.262c0-.352-.284-.637-.635-.637h-1.763c-.35 0-.635.285-.635.637v1.261l-.981 2.891c-.274.806-.143 1.701.352 2.395.494.693 1.296 1.106 2.145 1.106.849 0 1.651-.414 2.145-1.106.494-.694.626-1.589.352-2.394zm-.41 4.54c-.509.714-1.704.714-2.213 0-.255-.358-.323-.82-.182-1.236l.329-.97h1.919l.329.97c.141.415.073.877-.182 1.235" fill="#f0f5f1"/></g></svg>