<?xml version="1.0" encoding="UTF-8" standalone="no"?>
<!-- Created with Inkscape (http://www.inkscape.org/) -->

<svg
   xmlns:dc="http://purl.org/dc/elements/1.1/"
   xmlns:cc="http://creativecommons.org/ns#"
   xmlns:rdf="http://www.w3.org/1999/02/22-rdf-syntax-ns#"
   xmlns:svg="http://www.w3.org/2000/svg"
   xmlns="http://www.w3.org/2000/svg"
   xmlns:xlink="http://www.w3.org/1999/xlink"
   xmlns:sodipodi="http://sodipodi.sourceforge.net/DTD/sodipodi-0.dtd"
   xmlns:inkscape="http://www.inkscape.org/namespaces/inkscape"
   width="48"
   height="48"
   id="svg5453"
   version="1.1"
   inkscape:version="0.91 r13725"
   sodipodi:docname="atom-text-editor.svg">
  <defs
     id="defs5455">
    <linearGradient
       gradientTransform="matrix(1.6335015,0,0,1.6335015,-513.5839,-816.44264)"
       inkscape:collect="always"
       xlink:href="#linearGradient4320"
       id="linearGradient5027"
       gradientUnits="userSpaceOnUse"
       x1="401.17508"
       y1="546.802"
       x2="401.17508"
       y2="516.92767" />
    <linearGradient
       id="linearGradient4288-0"
       inkscape:collect="always">
      <stop
         id="stop4290-7"
         offset="0"
         style="stop-color:#00a199;stop-opacity:1" />
      <stop
         id="stop4292-0"
         offset="1"
         style="stop-color:#00f89a;stop-opacity:0.98823529" />
    </linearGradient>
    <linearGradient
       inkscape:collect="always"
       id="linearGradient4320">
      <stop
         style="stop-color:#dce2ff;stop-opacity:1"
         offset="0"
         id="stop4322" />
      <stop
         style="stop-color:#f8feff;stop-opacity:1"
         offset="1"
         id="stop4324" />
    </linearGradient>
    <linearGradient
       inkscape:collect="always"
       xlink:href="#linearGradient4288-0"
       id="linearGradient4329"
       x1="78.375053"
       y1="22.12505"
       x2="78.375053"
       y2="52.12505"
       gradientUnits="userSpaceOnUse" />
    <linearGradient
       inkscape:collect="always"
       xlink:href="#linearGradient4288-0"
       id="linearGradient4337"
       x1="83.375053"
       y1="32.12505"
       x2="83.375053"
       y2="47.12505"
       gradientUnits="userSpaceOnUse" />
  </defs>
  <sodipodi:namedview
     id="base"
     pagecolor="#848484"
     bordercolor="#666666"
     borderopacity="1.0"
     inkscape:pageopacity="0"
     inkscape:pageshadow="2"
     inkscape:zoom="8"
     inkscape:cx="1.1313498"
     inkscape:cy="17.917716"
     inkscape:document-units="px"
     inkscape:current-layer="g4182"
     showgrid="true"
     fit-margin-top="0"
     fit-margin-left="0"
     fit-margin-right="0"
     fit-margin-bottom="0"
     inkscape:window-width="1366"
     inkscape:window-height="687"
     inkscape:window-x="0"
     inkscape:window-y="0"
     inkscape:window-maximized="1"
     inkscape:showpageshadow="false"
     borderlayer="true"
     showguides="false"
     showborder="false">
    <inkscape:grid
       type="xygrid"
       id="grid4063" />
    <sodipodi:guide
       position="1.1650391e-05,32.000026"
       orientation="32,0"
       id="guide4157" />
    <sodipodi:guide
       position="1.1650391e-05,2.6367188e-05"
       orientation="0,32"
       id="guide4159" />
    <sodipodi:guide
       position="32.000012,2.6367188e-05"
       orientation="-32,0"
       id="guide4161" />
    <sodipodi:guide
       position="32.000012,32.000026"
       orientation="0,-32"
       id="guide4163" />
    <sodipodi:guide
       position="2.0000117,30.000026"
       orientation="28,0"
       id="guide4167" />
    <sodipodi:guide
       position="2.0000117,2.0000264"
       orientation="0,28"
       id="guide4169" />
    <sodipodi:guide
       position="30.000012,2.0000264"
       orientation="-28,0"
       id="guide4171" />
    <sodipodi:guide
       position="30.000012,30.000026"
       orientation="0,-28"
       id="guide4173" />
    <sodipodi:guide
       position="2.0000117,30.000026"
       orientation="28,0"
       id="guide4181" />
    <sodipodi:guide
       position="2.0000117,2.0000264"
       orientation="0,14"
       id="guide4183" />
    <sodipodi:guide
       position="16.000012,2.0000264"
       orientation="-28,0"
       id="guide4185" />
    <sodipodi:guide
       position="16.000012,30.000026"
       orientation="0,-14"
       id="guide4187" />
    <sodipodi:guide
       position="9.0000117,23.000026"
       orientation="14,0"
       id="guide4193" />
    <sodipodi:guide
       position="9.0000117,9.0000264"
       orientation="0,14.000031"
       id="guide4195" />
    <sodipodi:guide
       position="23.000042,9.0000264"
       orientation="-14,0"
       id="guide4197" />
    <sodipodi:guide
       position="23.000042,23.000026"
       orientation="0,-14.000031"
       id="guide4199" />
  </sodipodi:namedview>
  <metadata
     id="metadata5458">
    <rdf:RDF>
      <cc:Work
         rdf:about="">
        <dc:format>image/svg+xml</dc:format>
        <dc:type
           rdf:resource="http://purl.org/dc/dcmitype/StillImage" />
        <dc:title></dc:title>
      </cc:Work>
    </rdf:RDF>
  </metadata>
  <g
     inkscape:label="Capa 1"
     inkscape:groupmode="layer"
     id="layer1"
     transform="translate(-384.57143,-499.798)">
    <g
       style="display:inline;enable-background:new"
       id="g4238"
       transform="translate(225.81911,462.44565)">
      <g
         style="display:inline"
         id="layer1-8"
         transform="matrix(0.22655187,0,0,0.22655187,106.94841,54.31088)">
        <g
           style="display:none"
           id="layer6" />
        <g
           id="g4027" />
        <g
           id="g4061" />
        <g
           id="g3751" />
        <g
           id="g3782" />
        <g
           id="g3725" />
        <g
           id="g4370"
           transform="matrix(4.4140002,0,0,4.4140002,59.275211,39.357303)">
          <g
             id="g4182"
             transform="translate(-20,-25.000001)">
            <g
               id="g4188"
               transform="translate(-5.3270668e-5,-15.000049)">
              <circle
                 style="opacity:1;fill:url(#linearGradient5027);fill-opacity:1.0;stroke:url(#linearGradient5027);stroke-width:2.26199532;stroke-miterlimit:4;stroke-dasharray:none;stroke-dashoffset:0;stroke-opacity:1"
                 id="circle4174"
                 cx="82.375053"
                 cy="38.12505"
                 r="22.868952" />
              <path
                 style="opacity:0.9;fill:url(#linearGradient4329);fill-opacity:1"
                 inkscape:connector-curvature="0"
                 id="path53"
                 d="m 88.074632,54.069319 c -2.602351,-0.42735 -5.981583,-3.410887 -9.068001,-7.99303 -1.292602,-1.921757 -2.61686,-4.297243 -3.483431,-6.24406 -0.170149,-0.391738 -0.237417,-0.484067 -0.288857,-0.427351 -0.102881,0.108157 -0.859976,1.746332 -1.25699,2.725017 -0.670043,1.648727 -1.138281,3.215678 -1.406034,4.724593 -0.175425,0.948348 -0.185977,2.781733 -0.02638,3.354171 0.370634,1.318982 1.180489,1.875592 2.442754,1.659279 0.911417,-0.154321 2.00881,-0.648939 3.178747,-1.442966 0.515722,-0.350849 0.654215,-0.412841 0.8547,-0.412841 0.308642,0 0.535507,0.164873 0.643663,0.464281 0.07254,0.200486 0.07254,0.262478 0,0.45373 -0.07254,0.191253 -0.191252,0.299409 -0.737311,0.664767 -0.757095,0.515722 -2.056292,1.175213 -2.710507,1.38625 -1.735781,0.55661 -3.086418,0.350849 -4.043999,-0.608051 -0.875804,-0.881079 -1.237205,-2.302942 -1.123773,-4.291967 0.138494,-2.581247 1.288646,-6.110843 3.081142,-9.57317 l 0.448454,-0.865252 -0.340297,-0.921969 c -0.329746,-0.88108 -0.968133,-2.921545 -0.968133,-3.075866 0,-0.113432 -0.195209,-0.08705 -1.06178,0.123985 -1.978473,0.484066 -3.4465,1.107945 -4.497729,1.896696 -2.070801,1.556398 -1.524743,3.308006 1.576184,5.054338 0.494618,0.283581 0.60805,0.432626 0.60805,0.80326 0,0.191253 -0.03561,0.267754 -0.195209,0.42735 -0.340297,0.340298 -0.654215,0.267754 -1.705443,-0.381185 -1.514192,-0.943072 -2.473092,-2.00881 -2.813389,-3.143134 -0.123984,-0.412842 -0.123984,-1.241162 0,-1.659279 0.175425,-0.602775 0.478791,-1.081566 1.024849,-1.627624 1.216101,-1.226653 3.240738,-2.169725 6.013238,-2.802837 0.567163,-0.12926 0.695104,-0.175424 0.675319,-0.247968 -0.01583,-0.05144 -0.0831,-0.370634 -0.149045,-0.721483 -0.37591,-2.019362 -0.386461,-4.338132 -0.02638,-5.626777 0.416798,-1.478578 1.169937,-2.364934 2.37021,-2.776456 0.489342,-0.164873 1.473303,-0.138493 2.143346,0.06199 0.680594,0.200485 1.514191,0.613326 2.256778,1.113221 0.886355,0.592223 1.148833,0.840191 1.184445,1.127728 0.0831,0.659491 -0.592222,1.015616 -1.148833,0.597499 -1.741056,-1.292601 -2.983537,-1.792496 -3.983325,-1.581458 -0.726759,0.154321 -1.278094,0.896907 -1.556399,2.091904 -0.113432,0.473515 -0.12926,0.70038 -0.12926,1.880868 0,1.345362 0.0211,1.556399 0.262477,2.962434 l 0.123985,0.705655 0.288857,-0.03561 c 1.334809,-0.159597 2.483643,-0.27303 3.189298,-0.313918 l 0.840191,-0.04616 0.138494,-0.164872 c 1.421862,-1.824152 3.483431,-3.956946 5.049062,-5.213936 2.994089,-2.400546 5.559509,-3.235462 7.326945,-2.380761 0.999788,0.47879 1.627623,1.468026 1.875592,2.932096 0.159597,0.953624 0.03034,3.215678 -0.216313,3.854065 -0.0831,0.216313 -0.360082,0.37591 -0.659491,0.37591 -0.185976,0 -0.283581,-0.03561 -0.42735,-0.170149 -0.175425,-0.149045 -0.185977,-0.195209 -0.185977,-0.499894 0,-0.180701 0.04617,-0.705655 0.102881,-1.159385 0.170149,-1.318982 0.05144,-2.556187 -0.303366,-3.261842 -0.1807,-0.345574 -0.535507,-0.710932 -0.850743,-0.859976 -0.232141,-0.118708 -0.360082,-0.134536 -0.896908,-0.134536 -0.577714,0 -0.689827,0.0211 -1.246438,0.216312 -1.746332,0.597499 -3.745908,2.029913 -5.899806,4.219423 -0.416798,0.422075 -1.024849,1.081565 -1.365146,1.478579 l -0.633111,0.710931 0.540782,0.01583 c 7.573594,0.180701 13.957467,1.921757 16.966064,4.621713 0.675319,0.60805 1.262266,1.514191 1.427139,2.221165 0.08705,0.360082 0.09233,1.056505 0.0053,1.427139 -0.308642,1.370422 -1.818876,2.725016 -4.024214,3.596863 -0.350849,0.138493 -0.416798,0.149045 -0.613327,0.09233 -0.303366,-0.09233 -0.50517,-0.350849 -0.50517,-0.659491 0,-0.365358 0.170149,-0.540783 0.80326,-0.808536 1.365147,-0.572438 2.426927,-1.375698 2.829216,-2.148621 0.143769,-0.262478 0.159597,-0.365358 0.159597,-0.794028 0,-0.437902 -0.01583,-0.524954 -0.191252,-0.8547 C 97.523841,37.70604 96.715305,36.896185 96.045262,36.453007 92.75836,34.283282 86.560464,32.866695 80.299257,32.866695 l -1.030125,0 -0.391738,0.524955 c -0.581671,0.788751 -1.843937,2.710508 -2.343831,3.570484 l -0.443178,0.757096 0.303366,0.700379 c 3.054762,7.007751 7.795183,12.932617 11.294442,14.117063 0.762372,0.247969 1.340086,0.251926 1.797772,0.02638 0.870529,-0.42735 1.332172,-1.535295 1.402078,-3.380551 0.113433,-3.096969 -0.999788,-7.378385 -3.075866,-11.803569 -0.216313,-0.459006 -0.345573,-0.808536 -0.345573,-0.937796 0,-0.370634 0.308642,-0.664767 0.689828,-0.659491 0.340297,0 0.489342,0.134536 0.751819,0.685871 1.68434,3.524319 2.808113,7.063148 3.230187,10.149565 0.138493,1.035401 0.138493,3.153686 0,3.910782 -0.226865,1.210825 -0.629154,2.081353 -1.237205,2.699956 -0.746544,0.746543 -1.710719,1.030125 -2.854277,0.845467 M 75.965059,35.236896 c 0.216313,-0.356126 0.633111,-0.983961 0.927244,-1.411311 0.294133,-0.432626 0.530231,-0.797984 0.530231,-0.824364 0,-0.07782 -2.699956,0.200486 -2.776457,0.278305 -0.04616,0.05144 0.108157,0.64894 0.468239,1.756884 0.251925,0.80326 0.335021,0.968133 0.391737,0.90746 0.04089,-0.04616 0.247969,-0.360082 0.459006,-0.705655" />
              <path
                 style="opacity:0.9;fill:url(#linearGradient4337);fill-opacity:1"
                 inkscape:connector-curvature="0"
                 id="path55"
                 d="m 84.885334,38.957744 c 0,1.092117 -0.886356,1.978472 -1.978473,1.978472 -1.092117,0 -1.978473,-0.886355 -1.978473,-1.978472 0,-1.092117 0.886356,-1.983749 1.978473,-1.983749 1.092117,0 1.978473,0.891632 1.978473,1.983749" />
            </g>
          </g>
        </g>
      </g>
    </g>
  </g>
</svg>
