<svg xmlns="http://www.w3.org/2000/svg" xmlns:xlink="http://www.w3.org/1999/xlink" width="48" viewBox="0 0 13.546667 13.546667" height="48"><defs><linearGradient gradientUnits="userSpaceOnUse" y2="501.51" x2="0" y1="546.29" id="0" xlink:href="#1"/><linearGradient id="1"><stop stop-color="#197cf1"/><stop offset="1" stop-color="#20bcfa"/></linearGradient><linearGradient gradientUnits="userSpaceOnUse" y2="501.51" x2="407.82" y1="546.29" x1="408.82" id="2" xlink:href="#1"/></defs><text x="3.768" y="6.842" font-family="URW Chancery L" font-style="italic" word-spacing="0" line-height="125%" font-weight="bold" letter-spacing="0" font-size="14.387"><tspan x="3.768" y="6.842"/></text><g transform="matrix(.30253 0 0 .30253-116.61-151.72)"><circle r="22.389" cy="523.9" cx="407.82" fill="url(#0)"/><circle r="21.432" cy="523.9" cx="407.82" fill="none" stroke="url(#2)" stroke-linejoin="round" stroke-linecap="round" stroke-width="1.914"/><path d="m26.428 10.842c-1.55 0-3.715.896-4.811 1.992l-13.1 13.1c-1.096 1.096-1.096 2.89 0 3.986l10.11 10.1c1.096 1.096 2.888 1.096 3.984 0l13.1-13.1c1.096-1.096 1.992-3.261 1.992-4.811v-8.453c0-1.55-1.266-2.818-2.816-2.818h-8.455m4.709 3.75c1.553 0 2.813 1.259 2.813 2.813 0 1.553-1.259 2.813-2.813 2.813-1.553 0-2.813-1.259-2.813-2.813 0-1.553 1.259-2.813 2.813-2.813m-6.375 7.182c.247.044.43.277.43.59l-.021 8.123c-.081.606-.593 1.182-1.334 1.385-.929.255-1.842-.169-2.041-.93-.199-.76.382-1.583 1.311-1.838.515-.141 1.012-.055 1.398.158v-4.924l-4.816 1.361-.021 6.24c-.081.606-.591 1.182-1.332 1.385-.929.255-1.844-.171-2.043-.932-.199-.76.382-1.583 1.311-1.838.515-.141 1.012-.055 1.398.158v-6.602c0-.416.306-.845.688-.953l5.074-1.385" transform="matrix(.93287 0 0 .93287 385.43 501.51)" fill-opacity=".752"/></g></svg>