<svg xmlns="http://www.w3.org/2000/svg" viewBox="0 0 48 48"><defs><linearGradient id="0" x1="423.61" y1="578.01" x2="422.88" y2="530.42" gradientUnits="userSpaceOnUse"><stop stop-color="#197cf1"/><stop offset="1" stop-color="#20bcfa"/></linearGradient></defs><g transform="matrix(.05466 0 0 .0594 7.17 16.46)" fill="#e13e3e"><circle r="25.427" cy="555.01" cx="423.59" transform="matrix(17.26859 0 0 15.88935-7006.85-8691.78)" fill="url(#0)" fill-rule="evenodd"/><g fill="#fff" fill-opacity=".855" transform="matrix(.39827 0 0 .36646 997.76-173.22)"><path d="m-1757.25 420.78c-10.803-37.16-47.11-61.43-104.42-69.802-45.594-6.661-171.66-.065-408.67 21.383-167 15.11-166.77 15.07-176.55 34.407-4.373 8.644-4.599 34.389-3.967 451.31l.67 442.14 6.44 6.855c11.618 12.366 18.637 12.647 106.07 4.239 281.78-27.1 440.81-35.26 490.78-25.18 24.629 4.966 54.19 18.16 68.16 30.427 10.303 9.05 22.348 29.661 23.489 40.2.36 3.321.958-202.82 1.33-458.1.594-407.65.19-465.81-3.322-477.89"/><path d="m-1700.96 1336.11c11.471-22.312 44.581-42.09 83.65-49.969 51.842-10.454 225.7-1.12 518.36 27.828 57.942 5.731 67.41 4.9 78.49-6.886l6.44-6.855.67-442.14c.631-416.92.405-442.67-3.967-451.31-6.25-12.355-17.05-18-40.517-21.2-27.14-3.695-236.2-22.507-327.79-29.496-99.92-7.624-212.55-8.393-238.87-1.631-38.23 9.821-65.07 28.581-77.71 54.31l-7.422 15.11-.405 469.47c-.223 258.21.475 465.9 1.55 461.53 1.075-4.364 4.46-12.808 7.523-18.765"/></g><path d="m244.27 125.29h-40.27v-13.424c0-7.413-6.01-13.424-13.424-13.424-7.414 0-13.424 6.01-13.424 13.424v4.475c0 3.954-4.967 8.949-8.949 8.949-3.981 0-8.949-4.996-8.949-8.949v-40.27c0-7.414-6.01-13.424-13.424-13.424-7.414 0-13.424 6.01-13.424 13.424v4.475c0 3.955-4.967 17.898-8.948 17.898-3.982 0-8.949-13.944-8.949-17.898v-49.22c0-7.414-6.01-13.423-13.425-13.423-7.414 0-13.424 6.01-13.424 13.423v22.373h-.375c-.926 4.944-3.943 8.949-13.546 8.949-8.748 0-11.595-4.01-12.51-8.949h-.416v-5.02c-.019-1.33 0-2.658 0-3.931 0-7.909-2.541-44.747-30.33-44.747-7.963 0-14.418 6.411-14.418 14.318v248.79c0 7.908 6.455 14.319 14.418 14.319 27.788 0 30.33-36.837 30.33-44.745 0-1.273-.019-2.6 0-3.931v-5.02h.416c.915-4.944 3.761-8.95 12.51-8.95 8.865 0 12.276 4.03 13.594 8.95h.327v22.373c0 7.414 6.01 13.424 13.424 13.424 7.414 0 13.425-6.01 13.425-13.424v-49.22c0-3.954 4.967-17.899 8.949-17.899 3.981 0 8.948 13.945 8.948 17.899v4.474c0 7.414 6.01 13.424 13.424 13.424 7.414 0 13.424-6.01 13.424-13.424v-40.27c0-3.955 4.968-8.949 8.949-8.949 3.982 0 8.949 4.995 8.949 8.949v4.474c0 7.414 6.01 13.424 13.424 13.424 7.414 0 13.424-6.01 13.424-13.424v-13.424h40.27c7.414 0 13.424-6.01 13.424-13.424 0-7.414-6.01-13.423-13.423-13.423" fill="#1c9af5" fill-rule="evenodd"/></g></svg>