<?xml version="1.0" encoding="UTF-8" standalone="no"?>
<!-- Created with Inkscape (http://www.inkscape.org/) -->

<svg
   xmlns:osb="http://www.openswatchbook.org/uri/2009/osb"
   xmlns:dc="http://purl.org/dc/elements/1.1/"
   xmlns:cc="http://creativecommons.org/ns#"
   xmlns:rdf="http://www.w3.org/1999/02/22-rdf-syntax-ns#"
   xmlns:svg="http://www.w3.org/2000/svg"
   xmlns="http://www.w3.org/2000/svg"
   xmlns:xlink="http://www.w3.org/1999/xlink"
   xmlns:sodipodi="http://sodipodi.sourceforge.net/DTD/sodipodi-0.dtd"
   xmlns:inkscape="http://www.inkscape.org/namespaces/inkscape"
   width="48"
   height="48"
   id="svg5453"
   version="1.1"
   inkscape:version="0.91 r13725"
   sodipodi:docname="bangarang.svg">
  <defs
     id="defs5455">
    <linearGradient
       id="linearGradient4207"
       osb:paint="gradient">
      <stop
         style="stop-color:#3498db;stop-opacity:1;"
         offset="0"
         id="stop3371" />
      <stop
         style="stop-color:#3498db;stop-opacity:0;"
         offset="1"
         id="stop3373" />
    </linearGradient>
    <linearGradient
       gradientTransform="matrix(1.5992092,0,0,1.5992092,-219.11195,-295.30862)"
       inkscape:collect="always"
       xlink:href="#linearGradient4215"
       id="linearGradient4181"
       gradientUnits="userSpaceOnUse"
       x1="399.9939"
       y1="545.13873"
       x2="399.9939"
       y2="518.13873" />
    <linearGradient
       inkscape:collect="always"
       id="linearGradient4215">
      <stop
         style="stop-color:#00a661;stop-opacity:1"
         offset="0"
         id="stop4217" />
      <stop
         style="stop-color:#37ce97;stop-opacity:1"
         offset="1"
         id="stop4219" />
    </linearGradient>
  </defs>
  <sodipodi:namedview
     id="base"
     pagecolor="#5a5a5a"
     bordercolor="#666666"
     borderopacity="1.0"
     inkscape:pageopacity="0"
     inkscape:pageshadow="2"
     inkscape:zoom="3.0532383"
     inkscape:cx="-49.508253"
     inkscape:cy="18.380012"
     inkscape:document-units="px"
     inkscape:current-layer="g4452"
     showgrid="false"
     fit-margin-top="0"
     fit-margin-left="0"
     fit-margin-right="0"
     fit-margin-bottom="0"
     inkscape:window-width="1366"
     inkscape:window-height="687"
     inkscape:window-x="0"
     inkscape:window-y="0"
     inkscape:window-maximized="1"
     inkscape:showpageshadow="false"
     borderlayer="true"
     showguides="false"
     inkscape:snap-bbox="true"
     inkscape:snap-bbox-edge-midpoints="true"
     showborder="false">
    <inkscape:grid
       type="xygrid"
       id="grid4063" />
    <sodipodi:guide
       position="1.1650391e-05,47.999996"
       orientation="4,0"
       id="guide4146" />
    <sodipodi:guide
       position="1.1650391e-05,43.999996"
       orientation="0,48"
       id="guide4148" />
    <sodipodi:guide
       position="48.000012,43.999996"
       orientation="-4,0"
       id="guide4150" />
    <sodipodi:guide
       position="48.000012,47.999996"
       orientation="0,-48"
       id="guide4152" />
    <sodipodi:guide
       position="1.1650391e-05,4.0000264"
       orientation="4,0"
       id="guide4154" />
    <sodipodi:guide
       position="1.1650391e-05,2.6367188e-05"
       orientation="0,48"
       id="guide4156" />
    <sodipodi:guide
       position="48.000012,2.6367188e-05"
       orientation="-4,0"
       id="guide4158" />
    <sodipodi:guide
       position="48.000012,4.0000264"
       orientation="0,-48"
       id="guide4160" />
    <sodipodi:guide
       position="48.000012,48.000026"
       orientation="0,-4"
       id="guide4162" />
    <sodipodi:guide
       position="44.000012,48.000026"
       orientation="48,0"
       id="guide4164" />
    <sodipodi:guide
       position="44.000012,2.6367188e-05"
       orientation="0,4"
       id="guide4166" />
    <sodipodi:guide
       position="48.000012,2.6367188e-05"
       orientation="-48,0"
       id="guide4168" />
    <sodipodi:guide
       position="4.0000422,48.000026"
       orientation="0,-4"
       id="guide4170" />
    <sodipodi:guide
       position="4.2167969e-05,48.000026"
       orientation="48,0"
       id="guide4172" />
    <sodipodi:guide
       position="4.2167969e-05,2.6367188e-05"
       orientation="0,4"
       id="guide4174" />
    <sodipodi:guide
       position="4.0000422,2.6367188e-05"
       orientation="-48,0"
       id="guide4176" />
  </sodipodi:namedview>
  <metadata
     id="metadata5458">
    <rdf:RDF>
      <cc:Work
         rdf:about="">
        <dc:format>image/svg+xml</dc:format>
        <dc:type
           rdf:resource="http://purl.org/dc/dcmitype/StillImage" />
        <dc:title></dc:title>
      </cc:Work>
    </rdf:RDF>
  </metadata>
  <g
     inkscape:label="Capa 1"
     inkscape:groupmode="layer"
     id="layer1"
     transform="translate(-384.57143,-499.798)">
    <g
       id="g5009"
       transform="matrix(1.0446651,0,0,1.0446651,-17.476872,-23.592927)">
      <g
         id="g4452"
         transform="matrix(1.0261294,0,0,1.0261294,-10.644989,-13.600281)">
        <g
           id="g4179"
           transform="translate(-13.664184,-31.249389)">
          <circle
             style="opacity:1;fill:url(#linearGradient4181);fill-opacity:1;stroke:none;stroke-width:0.94059104;stroke-miterlimit:4;stroke-dasharray:none;stroke-dashoffset:0;stroke-opacity:1"
             id="path3377"
             cx="421.48547"
             cy="555.14752"
             r="22.388863" />
          <path
             sodipodi:nodetypes="sssssssssssssssssssssssssssssssssssssssssssssssssssssssssssssssssssssssssssssssssccscssssccssssccsssscscccccccccccsccc"
             inkscape:connector-curvature="0"
             d="m 428.64914,557.17078 c -0.0813,0 -0.14289,0.0765 -0.14289,0.15298 l 0,1.86765 c 0,0.0877 0.0615,0.15111 0.14289,0.15111 l 1.94324,0 c 0.0814,0 0.14289,-0.0765 0.14289,-0.15111 l 0,-1.86765 c 0,-0.0895 -0.0614,-0.15298 -0.14289,-0.15298 z m -3.65786,0 c -0.0814,0 -0.14288,0.0765 -0.14288,0.15298 l 0,1.86765 c 0,0.0877 0.0615,0.15111 0.14288,0.15111 l 1.94325,0 c 0.0814,0 0.14288,-0.0765 0.14288,-0.15111 l 0,-1.86765 c 0,-0.0895 -0.0615,-0.15298 -0.14288,-0.15298 z m -3.65785,0 c -0.0814,0 -0.14288,0.0765 -0.14288,0.15298 l 0,1.86765 c 0,0.0877 0.0615,0.15111 0.14288,0.15111 l 1.94323,0 c 0.0814,0 0.14289,-0.0765 0.14289,-0.15111 l 0,-1.86765 c 0,-0.0895 -0.0615,-0.15298 -0.14289,-0.15298 z m -3.65786,0 c -0.0814,0 -0.14288,0.0765 -0.14288,0.15298 l 0,1.86765 c 0,0.0877 0.0615,0.15111 0.14288,0.15111 l 1.94324,0 c 0.0814,0 0.14289,-0.0765 0.14289,-0.15111 l 0,-1.86765 c 0,-0.0895 -0.0615,-0.15298 -0.14289,-0.15298 z m 0.23815,-9.10543 c -0.27969,0 -0.50486,0.22462 -0.50486,0.50352 l 0,6.43072 c 0,0.27947 0.22517,0.50465 0.50486,0.50465 l 10.86878,0 c 0.27969,0 0.50486,-0.22518 0.50486,-0.50465 l 0,-6.43072 c 0,-0.2789 -0.22517,-0.50352 -0.50486,-0.50352 z m 10.73542,-3.61105 c -0.0813,0 -0.14289,0.069 -0.14289,0.14365 l 0,1.86634 c 0,0.0896 0.0615,0.15298 0.14289,0.15298 l 1.94324,0 c 0.0814,0 0.14289,-0.0784 0.14289,-0.15298 l 0,-1.86634 c 0,-0.0895 -0.0614,-0.14365 -0.14289,-0.14365 z m -3.65786,0 c -0.0814,0 -0.14288,0.069 -0.14288,0.14365 l 0,1.86634 c 0,0.0896 0.0615,0.15298 0.14288,0.15298 l 1.94325,0 c 0.0814,0 0.14288,-0.0784 0.14288,-0.15298 l 0,-1.86634 c 0,-0.0895 -0.0615,-0.14365 -0.14288,-0.14365 z m -3.65785,0 c -0.0814,0 -0.14288,0.069 -0.14288,0.14365 l 0,1.86634 c 0,0.0896 0.0615,0.15298 0.14288,0.15298 l 1.94323,0 c 0.0814,0 0.14289,-0.0784 0.14289,-0.15298 l 0,-1.86634 c 0,-0.0895 -0.0615,-0.14365 -0.14289,-0.14365 z m -3.65786,0 c -0.0814,0 -0.14288,0.069 -0.14288,0.14365 l 0,1.86634 c 0,0.0896 0.0615,0.15298 0.14288,0.15298 l 1.94324,0 c 0.0814,0 0.14289,-0.0784 0.14289,-0.15298 l 0,-1.86634 c 0,-0.0895 -0.0615,-0.14365 -0.14289,-0.14365 z m 14.83148,-1.72233 0,1.28484 c 0.0212,0.11567 0.0286,0.21268 0.0286,0.32312 l 0,0.1194 -0.22861,0 c -0.0814,0 -0.14288,0.0728 -0.14288,0.14365 l 0,1.86691 c 0,0.0895 0.0614,0.15298 0.14288,0.15298 l 0.22861,0 0,1.44864 -1.20975,0 c -0.27969,0 -0.50486,0.2248 -0.50486,0.50333 l 0,6.43147 c 0,0.27891 0.22517,0.50427 0.50486,0.50427 l 1.20975,0 0,1.66654 -0.22861,0 c -0.0814,0 -0.14288,0.0728 -0.14288,0.15298 l 0,1.86728 c 0,0.0877 0.0614,0.15111 0.14288,0.15111 l 0.22861,0 0,0.0653 c 0,0.11194 -0.008,0.21828 -0.0286,0.32294 l 0,1.26581 c -5.01013,0.0336 -10.03048,0.0186 -15.04994,0.0186 l 0,4.01962 0.003,0.0205 c -0.11919,1.48427 -1.46772,2.95212 -3.30949,3.54202 -2.18978,0.70222 -4.30471,-0.13245 -4.72473,-1.85757 -0.42002,-1.72736 1.02037,-3.6993 3.21015,-4.40058 0.8396,-0.26883 1.66453,-0.30707 2.39094,-0.1623 l 0,-2.76314 0,-0.25708 0,-14.80223 c 0,-0.88821 0.71348,-1.59993 1.60031,-1.59993 5.8258,0.0186 10.49721,-0.028 15.87931,-0.028 z"
             style="fill:#ffffff;fill-opacity:0.83834588;stroke:none"
             id="rect4218" />
        </g>
      </g>
    </g>
  </g>
</svg>
