<svg xmlns="http://www.w3.org/2000/svg" viewBox="0 0 48 48"><defs><linearGradient id="0" gradientUnits="userSpaceOnUse" gradientTransform="matrix(.49433 0 0 .4778 86.64 13.1)" x1="-123.97" y1="73.5" x2="-125.19" y2="-26.05"><stop stop-color="#e1e1e1"/><stop offset="1" stop-color="#f4f4ff"/></linearGradient><linearGradient id="1" gradientUnits="userSpaceOnUse" x1="425.71" y1="517.57" x2="426.43" y2="476.11"><stop stop-color="#c52828"/><stop offset="1" stop-color="#ff5454"/></linearGradient></defs><path d="m2.982 0h42.04c1.652 0 2.982 1.33 2.982 2.982v42.04c0 1.652-1.33 2.982-2.982 2.982h-42.04c-1.652 0-2.982-1.33-2.982-2.982v-42.04c0-1.652 1.33-2.982 2.982-2.982" fill="url(#0)" fill-rule="evenodd"/><g enable-background="new"><path d="m447.34253 497.02077a21.27286 21.27286 0 0 1 -21.27286 21.27286 21.27286 21.27286 0 0 1 -21.27286 -21.27286 21.27286 21.27286 0 0 1 21.27286 -21.27286 21.27286 21.27286 0 0 1 21.27286 21.27286" fill="url(#1)" transform="matrix(.5641 0 0 .5641-216.35-256.37)"/></g></svg>