<svg xmlns="http://www.w3.org/2000/svg" viewBox="0 0 48 48"><defs><linearGradient id="0" x1="406.5" y1="543.69" x2="407.45" y2="503.77" gradientUnits="userSpaceOnUse"><stop stop-color="#f15f19"/><stop offset="1" stop-color="#fbb521"/></linearGradient><linearGradient id="1" x1="-413.59" y1="-531.74" x2="-413.61" y2="-523.63" gradientUnits="userSpaceOnUse"><stop stop-color="#197cf1"/><stop offset="1" stop-color="#21c9fb"/></linearGradient><linearGradient id="2" x1="413.49" y1="537.26" x2="413.7" y2="517.88" gradientUnits="userSpaceOnUse"><stop stop-color="#e8ebec"/><stop offset="1" stop-color="#fdfeff"/></linearGradient></defs><g transform="matrix(1.11468 0 0 1.11468-430.8-559.86)"><path d="m407.44643 503.77261a3.0003 3.0003 0 0 0 -1.70508 5.40234l3.41 2.623h-16.58a3.0003 3.0003 0 1 0 0 6h7.52l-12.283 8.924a3.0003 3.0003 0 1 0 3.52539 4.85351l6.277-4.561a15.999973 15.999973 0 0 0 -.0391 .7832 15.999973 15.999973 0 0 0 16 16 15.999973 15.999973 0 0 0 16 -16 15.999973 15.999973 0 0 0 -6.95508 -13.19727 3.0003 3.0003 0 0 0 -.21679 -.18164l-13-10a3.0003 3.0003 0 0 0 -1.95313 -.64648" fill="url(#0)"/><circle cx="413.57" cy="527.8" r="10" fill="url(#2)"/><circle transform="scale(-1-1)" cx="-413.57" cy="-527.8" r="4" fill="url(#1)"/></g></svg>