<?xml version="1.0" encoding="UTF-8" standalone="no"?>
<!-- Created with Inkscape (http://www.inkscape.org/) -->

<svg
   xmlns:sketch="http://www.bohemiancoding.com/sketch/ns"
   xmlns:dc="http://purl.org/dc/elements/1.1/"
   xmlns:cc="http://creativecommons.org/ns#"
   xmlns:rdf="http://www.w3.org/1999/02/22-rdf-syntax-ns#"
   xmlns:svg="http://www.w3.org/2000/svg"
   xmlns="http://www.w3.org/2000/svg"
   xmlns:xlink="http://www.w3.org/1999/xlink"
   xmlns:sodipodi="http://sodipodi.sourceforge.net/DTD/sodipodi-0.dtd"
   xmlns:inkscape="http://www.inkscape.org/namespaces/inkscape"
   width="48"
   height="48"
   id="svg5453"
   version="1.1"
   inkscape:version="0.91 r13725"
   sodipodi:docname="boot-repair.svg">
  <defs
     id="defs5455">
    <linearGradient
       inkscape:collect="always"
       xlink:href="#linearGradient4201-1"
       id="linearGradient4222"
       x1="409.57144"
       y1="542.79797"
       x2="409.57144"
       y2="507.798"
       gradientUnits="userSpaceOnUse"
       gradientTransform="matrix(1.0909091,0,0,1.0652838,-423.33932,-555.93378)" />
    <linearGradient
       inkscape:collect="always"
       id="linearGradient4201-1">
      <stop
         style="stop-color:#030303;stop-opacity:1"
         offset="0"
         id="stop4203-3" />
      <stop
         style="stop-color:#272727;stop-opacity:1"
         offset="1"
         id="stop4205-6" />
    </linearGradient>
  </defs>
  <sodipodi:namedview
     id="base"
     pagecolor="#ffffff"
     bordercolor="#666666"
     borderopacity="1.0"
     inkscape:pageopacity="0"
     inkscape:pageshadow="2"
     inkscape:zoom="11.313708"
     inkscape:cx="19.789632"
     inkscape:cy="18.509313"
     inkscape:document-units="px"
     inkscape:current-layer="g4196"
     showgrid="true"
     fit-margin-top="0"
     fit-margin-left="0"
     fit-margin-right="0"
     fit-margin-bottom="0"
     inkscape:window-width="1366"
     inkscape:window-height="687"
     inkscape:window-x="0"
     inkscape:window-y="0"
     inkscape:window-maximized="1"
     inkscape:showpageshadow="false"
     borderlayer="true"
     showguides="false">
    <inkscape:grid
       type="xygrid"
       id="grid4063" />
    <sodipodi:guide
       position="1.1650391e-05,32.000026"
       orientation="32,0"
       id="guide4157" />
    <sodipodi:guide
       position="1.1650391e-05,2.6367188e-05"
       orientation="0,32"
       id="guide4159" />
    <sodipodi:guide
       position="32.000012,2.6367188e-05"
       orientation="-32,0"
       id="guide4161" />
    <sodipodi:guide
       position="32.000012,32.000026"
       orientation="0,-32"
       id="guide4163" />
    <sodipodi:guide
       position="2.0000117,30.000026"
       orientation="28,0"
       id="guide4167" />
    <sodipodi:guide
       position="2.0000117,2.0000264"
       orientation="0,28"
       id="guide4169" />
    <sodipodi:guide
       position="30.000012,2.0000264"
       orientation="-28,0"
       id="guide4171" />
    <sodipodi:guide
       position="30.000012,30.000026"
       orientation="0,-28"
       id="guide4173" />
    <sodipodi:guide
       position="2.0000117,30.000026"
       orientation="28,0"
       id="guide4181" />
    <sodipodi:guide
       position="2.0000117,2.0000264"
       orientation="0,14"
       id="guide4183" />
    <sodipodi:guide
       position="16.000012,2.0000264"
       orientation="-28,0"
       id="guide4185" />
    <sodipodi:guide
       position="16.000012,30.000026"
       orientation="0,-14"
       id="guide4187" />
    <sodipodi:guide
       position="9.0000117,23.000026"
       orientation="14,0"
       id="guide4193" />
    <sodipodi:guide
       position="9.0000117,9.0000264"
       orientation="0,14.000031"
       id="guide4195" />
    <sodipodi:guide
       position="23.000042,9.0000264"
       orientation="-14,0"
       id="guide4197" />
    <sodipodi:guide
       position="23.000042,23.000026"
       orientation="0,-14.000031"
       id="guide4199" />
  </sodipodi:namedview>
  <metadata
     id="metadata5458">
    <rdf:RDF>
      <cc:Work
         rdf:about="">
        <dc:format>image/svg+xml</dc:format>
        <dc:type
           rdf:resource="http://purl.org/dc/dcmitype/StillImage" />
        <dc:title />
      </cc:Work>
    </rdf:RDF>
  </metadata>
  <g
     inkscape:label="Capa 1"
     inkscape:groupmode="layer"
     id="layer1"
     transform="translate(-384.57143,-499.798)">
    <g
       style="display:inline;enable-background:new"
       id="g4238"
       transform="translate(225.81911,462.44565)">
      <g
         style="display:inline"
         id="layer1-8"
         transform="matrix(0.22655187,0,0,0.22655187,106.94841,54.31088)">
        <g
           style="display:none"
           id="layer6" />
        <g
           id="g4027" />
        <g
           id="g4061" />
        <g
           id="g3751" />
        <g
           id="g3782" />
        <g
           id="g3725" />
        <g
           id="g4370"
           transform="matrix(4.4140002,0,0,4.4140002,59.275211,39.357303)">
          <g
             id="g4196"
             transform="translate(40.000001,-4.9999996)">
            <rect
               style="opacity:1;fill:url(#linearGradient4222);fill-opacity:1;stroke:none;stroke-width:0.2;stroke-linecap:round;stroke-linejoin:round;stroke-miterlimit:4;stroke-dasharray:none;stroke-opacity:1"
               id="rect4195"
               width="48"
               height="36.219646"
               x="-1.625001"
               y="-14.984824"
               ry="1.7044541" />
            <g
               id="g4173"
               transform="matrix(1.4440626,0,0,1.4545448,-15.937782,-3.3295472)">
              <path
                 style="fill:#ffffff;fill-opacity:0.8508065"
                 inkscape:connector-curvature="0"
                 sketch:type="MSShapeGroup"
                 id="path4463-63"
                 d="m 23.520776,2.0500884 c 0.03484,0.04563 0.08031,0.0728 0.136725,0.08143 l 1.191376,0.182274 c 0.06513,0.208325 0.154147,0.420965 0.266979,0.638 -0.07807,0.108518 -0.195219,0.261465 -0.351443,0.459002 -0.156224,0.197538 -0.266899,0.341775 -0.332026,0.432952 -0.03476,0.04779 -0.05202,0.09765 -0.05202,0.149751 0,0.06073 0.0151,0.108438 0.04555,0.143199 0.156224,0.22143 0.5143,0.590294 1.074229,1.106831 0.05194,0.04339 0.10628,0.06505 0.162616,0.06505 0.06513,0 0.117228,-0.0195 0.156304,-0.05849 l 0.924396,-0.696661 c 0.178039,0.09118 0.373339,0.171486 0.585979,0.240928 l 0.182275,1.197849 c 0.0043,0.05642 0.02933,0.103083 0.07487,0.140002 0.04563,0.03692 0.09869,0.0553 0.15958,0.0553 l 1.44525,0 c 0.125858,0 0.20401,-0.06073 0.234375,-0.182274 0.05642,-0.216955 0.119386,-0.62058 0.188827,-1.210874 0.20401,-0.06521 0.401468,-0.147674 0.592452,-0.247481 l 0.898427,0.696654 c 0.05642,0.04339 0.112832,0.06505 0.169249,0.06505 0.09549,0 0.300541,-0.155105 0.615226,-0.465475 0.314685,-0.31037 0.528364,-0.543627 0.641276,-0.699851 0.03908,-0.05642 0.05857,-0.10636 0.05857,-0.149751 0,-0.0521 -0.02165,-0.104202 -0.06505,-0.156224 -0.290792,-0.351603 -0.52301,-0.651025 -0.696654,-0.898506 0.108517,-0.199615 0.193142,-0.399309 0.253873,-0.598924 l 1.210954,-0.182275 c 0.04771,-0.0087 0.08894,-0.03692 0.123701,-0.0847 0.03476,-0.04771 0.0521,-0.09765 0.0521,-0.149671 l 0,-1.445329 c 0,-0.0565 -0.01734,-0.107399 -0.0521,-0.152948 -0.03476,-0.04563 -0.08031,-0.07288 -0.136726,-0.08151 l -1.191443,-0.175807 c -0.06073,-0.2126404 -0.149671,-0.4274384 -0.266899,-0.6443934 0.07807,-0.108518 0.1953,-0.261465 0.351523,-0.459002 0.156224,-0.197538 0.266979,-0.341775 0.332026,-0.432952 0.03476,-0.04787 0.0521,-0.09765 0.0521,-0.149751 0,-0.05642 -0.01518,-0.10628 -0.04555,-0.149671 -0.169247,-0.234456 -0.527323,-0.599084 -1.074226,-1.093806 -0.04779,-0.04779 -0.102045,-0.0716 -0.162776,-0.0716 -0.06513,0 -0.119385,0.0195 -0.162776,0.05849 l -0.918005,0.696734 c -0.178039,-0.09118 -0.373339,-0.171486 -0.585979,-0.241008 l -0.182274,-1.197849 c -0.0044,-0.05642 -0.02933,-0.103083 -0.07488,-0.140002 -0.04555,-0.037 -0.09877,-0.0553 -0.1595,-0.0553 l -1.44533,0 c -0.126017,0 -0.204089,0.06073 -0.234535,0.182275 -0.05634,0.217035 -0.119226,0.62058 -0.188667,1.210874 -0.20401,0.06513 -0.401547,0.147673 -0.592452,0.247481 l -0.898502,-0.703207 c -0.06073,-0.039 -0.117228,-0.05849 -0.169249,-0.05849 -0.09541,0 -0.299423,0.153987 -0.61187,0.462199 -0.312607,0.308132 -0.527405,0.542588 -0.644473,0.703207 -0.03908,0.04339 -0.05865,0.09325 -0.05865,0.149671 0,0.05642 0.02166,0.110835 0.06513,0.162776 0.312447,0.381969 0.544665,0.681392 0.696654,0.898427 -0.08678,0.160619 -0.171487,0.358076 -0.253954,0.5924524 l -1.204401,0.182194 c -0.05202,0.0087 -0.09557,0.037 -0.130253,0.08478 -0.03468,0.04779 -0.05194,0.09773 -0.05194,0.149751 l 0,1.44525 c -8e-5,0.05642 0.01718,0.107319 0.05202,0.152947 l 0,0 z m 3.769427,-2.040978 c 0.325473,-0.3255534 0.71831,-0.4883294 1.178431,-0.4883294 0.460121,0 0.852878,0.162776 1.178431,0.4883294 0.325473,0.325473 0.488249,0.71823 0.488249,1.178351 0,0.460121 -0.162696,0.852878 -0.488249,1.17843 -0.325553,0.325473 -0.71839,0.48825 -1.178431,0.48825 -0.460121,0 -0.852958,-0.162777 -1.178431,-0.48825 -0.325472,-0.325552 -0.488249,-0.718309 -0.488249,-1.17843 0,-0.460121 0.162777,-0.852878 0.488249,-1.178351 l 0,0 z" />
              <path
                 style="fill:#ffffff;fill-opacity:0.8508065"
                 inkscape:connector-curvature="0"
                 sketch:type="MSShapeGroup"
                 id="path4463-6-4"
                 d="m 19.632118,9.6361658 c 0.02569,0.03365 0.05923,0.05369 0.100835,0.06005 l 0.87864,0.134427 c 0.04803,0.15364 0.113683,0.3104622 0.196897,0.4705262 -0.05758,0.08003 -0.143975,0.19283 -0.25919,0.338514 -0.115215,0.145683 -0.196838,0.252058 -0.244868,0.319302 -0.02564,0.03524 -0.03837,0.07202 -0.03837,0.110441 0,0.04479 0.01114,0.07997 0.03359,0.105609 0.115215,0.163305 0.379296,0.435342 0.792243,0.816288 0.03831,0.032 0.07838,0.04797 0.11993,0.04797 0.04803,0 0.08646,-0.01438 0.115274,-0.04314 l 0.681743,-0.513777 c 0.131304,0.06724 0.275338,0.126472 0.43216,0.177685 l 0.134427,0.883414 c 0.0032,0.04161 0.02163,0.07602 0.05522,0.103251 0.03365,0.02723 0.07278,0.04078 0.11769,0.04078 l 1.065872,0 c 0.09282,0 0.150457,-0.04479 0.172852,-0.134427 0.04161,-0.160005 0.08805,-0.457678 0.13926,-0.89302 0.150457,-0.04809 0.296082,-0.108909 0.436933,-0.182517 l 0.66259,0.513782 c 0.04161,0.032 0.08321,0.04797 0.124821,0.04797 0.07043,0 0.221649,-0.114391 0.453729,-0.343289 0.232081,-0.228897 0.389669,-0.400924 0.472942,-0.516139 0.02882,-0.04161 0.0432,-0.07844 0.0432,-0.110442 0,-0.03843 -0.01597,-0.07685 -0.04797,-0.115215 -0.214459,-0.259303 -0.38572,-0.480127 -0.513782,-0.662645 0.08003,-0.147216 0.142442,-0.2944896 0.187231,-0.4417056 l 0.893079,-0.134428 c 0.03518,-0.0064 0.06559,-0.02723 0.09123,-0.06247 0.02564,-0.03518 0.03843,-0.07202 0.03843,-0.110383 l 0,-1.0659314 c 0,-0.04167 -0.01279,-0.07921 -0.03843,-0.112798 -0.02564,-0.03365 -0.05923,-0.05375 -0.100835,-0.06011 l -0.8787,-0.129655 c -0.04479,-0.156822 -0.110382,-0.315236 -0.196838,-0.47524 0.05758,-0.08003 0.144034,-0.192831 0.259249,-0.338514 0.115215,-0.145684 0.196897,-0.252059 0.244869,-0.319302 0.02564,-0.0353 0.03843,-0.07202 0.03843,-0.110442 0,-0.04161 -0.0112,-0.07838 -0.03359,-0.110382 -0.124822,-0.172911 -0.388903,-0.441825 -0.792244,-0.806682 -0.03524,-0.03524 -0.07526,-0.05281 -0.120047,-0.05281 -0.04803,0 -0.08805,0.01438 -0.120048,0.04314 L 24.553543,6.517697 C 24.422239,6.450457 24.278206,6.391226 24.121383,6.339953 L 23.986956,5.45654 c -0.0032,-0.04161 -0.02163,-0.07602 -0.05522,-0.103252 -0.03359,-0.02729 -0.07284,-0.04078 -0.117631,-0.04078 l -1.065931,0 c -0.09294,0 -0.150516,0.04479 -0.17297,0.134428 -0.04155,0.160063 -0.08793,0.457677 -0.139142,0.893019 -0.150457,0.04803 -0.296141,0.10891 -0.436933,0.182518 L 21.33648,6.0038554 c -0.04479,-0.02876 -0.08646,-0.04314 -0.124821,-0.04314 -0.07037,0 -0.220824,0.113565 -0.451254,0.340872 -0.230548,0.227247 -0.388961,0.400158 -0.475299,0.518615 -0.02882,0.032 -0.04326,0.06878 -0.04326,0.110382 0,0.04161 0.01597,0.08174 0.04803,0.120048 0.23043,0.281702 0.401691,0.502526 0.513783,0.662589 -0.064,0.118457 -0.126472,0.264082 -0.187291,0.436934 l -0.888246,0.134369 c -0.03837,0.0064 -0.07048,0.02729 -0.09606,0.06253 -0.02558,0.03524 -0.03831,0.07207 -0.03831,0.110441 l 0,1.0658724 c -5.9e-5,0.04161 0.01267,0.07915 0.03837,0.112799 l 0,0 z m 2.779953,-1.5052224 c 0.240037,-0.240095 0.529754,-0.360142 0.869093,-0.360142 0.339339,0 0.628998,0.120047 0.869093,0.360142 0.240036,0.240037 0.360084,0.529695 0.360084,0.8690344 0,0.339339 -0.119989,0.628998 -0.360084,0.869093 -0.240095,0.2400362 -0.529813,0.3600842 -0.869093,0.3600842 -0.339339,0 -0.629056,-0.120048 -0.869093,-0.3600842 -0.240036,-0.240095 -0.360084,-0.529754 -0.360084,-0.869093 0,-0.3393394 0.120048,-0.6289974 0.360084,-0.8690344 l 0,0 z" />
            </g>
          </g>
        </g>
      </g>
    </g>
  </g>
</svg>
