<svg xmlns="http://www.w3.org/2000/svg" viewBox="0 0 48 48"><defs><linearGradient id="0" x1="68.69" y1="27.344" x2="68.1" y2="-20.22" gradientUnits="userSpaceOnUse"><stop stop-color="#f2b333"/><stop offset="1" stop-color="#fcde3f"/></linearGradient></defs><g transform="matrix(.99999 0 0 .99999-43.37 20.882)" enable-background="new"><g fill-rule="evenodd"><rect y="-20.875" x="44.18" height="48" width="46.4" fill="url(#0)" rx="2.982"/><g fill="#fcfcfc" fill-opacity=".85"><circle r="1.672" cy="-16.252" cx="49.547"/><circle r="1.672" cy="-16.252" cx="53.964"/><circle r="1.672" cy="-16.252" cx="58.42"/></g></g><g fill="#fff" fill-opacity=".851"><path d="m71.08 13.16h-7.418c-.552 0-1 .448-1 1 0 .552.448 1 1 1h7.418c.552 0 1-.448 1-1 0-.552-.448-1-1-1"/><path d="m65.43 19.07v.545c0 .615.498 1.113 1.113 1.113h1.662c.614 0 1.113-.498 1.113-1.113v-.545c1.26-.09 2.257-1.129 2.257-2.411h-8.404c0 1.282.998 2.322 2.258 2.411"/><path d="m67.38-9.275c-5.535 0-10.02 4.487-10.02 10.02 0 2.336.803 4.48 2.145 6.182 1.187 1.504 2.312 3.149 3.281 4.803h9.191c.98-1.669 2.084-3.283 3.282-4.804 1.341-1.701 2.145-3.846 2.145-6.181 0-5.535-4.487-10.02-10.02-10.02"/></g></g></svg>