<?xml version="1.0" encoding="UTF-8" standalone="no"?>
<!-- Created with Inkscape (http://www.inkscape.org/) -->

<svg
   xmlns:sketch="http://www.bohemiancoding.com/sketch/ns"
   xmlns:dc="http://purl.org/dc/elements/1.1/"
   xmlns:cc="http://creativecommons.org/ns#"
   xmlns:rdf="http://www.w3.org/1999/02/22-rdf-syntax-ns#"
   xmlns:svg="http://www.w3.org/2000/svg"
   xmlns="http://www.w3.org/2000/svg"
   xmlns:xlink="http://www.w3.org/1999/xlink"
   xmlns:sodipodi="http://sodipodi.sourceforge.net/DTD/sodipodi-0.dtd"
   xmlns:inkscape="http://www.inkscape.org/namespaces/inkscape"
   width="48"
   height="48"
   id="svg5453"
   version="1.1"
   inkscape:version="0.91 r13725"
   sodipodi:docname="breeze-settings.svg">
  <defs
     id="defs5455">
    <linearGradient
       inkscape:collect="always"
       xlink:href="#linearGradient5733"
       id="linearGradient4347"
       gradientUnits="userSpaceOnUse"
       x1="3.1467004"
       y1="1041.4948"
       x2="18.771702"
       y2="1041.4948" />
    <linearGradient
       inkscape:collect="always"
       id="linearGradient5733">
      <stop
         style="stop-color:#e6f3ff;stop-opacity:1"
         offset="0"
         id="stop5735" />
      <stop
         style="stop-color:#dcffe7;stop-opacity:1"
         offset="1"
         id="stop5737" />
    </linearGradient>
    <linearGradient
       inkscape:collect="always"
       xlink:href="#linearGradient4143"
       id="linearGradient4222"
       x1="409.57144"
       y1="542.79797"
       x2="409.93887"
       y2="501.2316"
       gradientUnits="userSpaceOnUse"
       gradientTransform="matrix(1.0523327,0,0,1.0276135,-72.567725,-8.6931515)" />
    <linearGradient
       inkscape:collect="always"
       id="linearGradient4143">
      <stop
         style="stop-color:#197cf1;stop-opacity:1"
         offset="0"
         id="stop4145" />
      <stop
         style="stop-color:#20bcfa;stop-opacity:1"
         offset="1"
         id="stop4147" />
    </linearGradient>
  </defs>
  <sodipodi:namedview
     id="base"
     pagecolor="#ffffff"
     bordercolor="#666666"
     borderopacity="1.0"
     inkscape:pageopacity="0"
     inkscape:pageshadow="2"
     inkscape:zoom="4"
     inkscape:cx="-80.941894"
     inkscape:cy="15.968792"
     inkscape:document-units="px"
     inkscape:current-layer="g4182"
     showgrid="true"
     fit-margin-top="0"
     fit-margin-left="0"
     fit-margin-right="0"
     fit-margin-bottom="0"
     inkscape:window-width="1366"
     inkscape:window-height="634"
     inkscape:window-x="0"
     inkscape:window-y="36"
     inkscape:window-maximized="1"
     inkscape:showpageshadow="false"
     borderlayer="true"
     showguides="false">
    <inkscape:grid
       type="xygrid"
       id="grid4063" />
    <sodipodi:guide
       position="1.1650391e-05,32.000026"
       orientation="32,0"
       id="guide4157" />
    <sodipodi:guide
       position="1.1650391e-05,2.6367188e-05"
       orientation="0,32"
       id="guide4159" />
    <sodipodi:guide
       position="32.000012,2.6367188e-05"
       orientation="-32,0"
       id="guide4161" />
    <sodipodi:guide
       position="32.000012,32.000026"
       orientation="0,-32"
       id="guide4163" />
    <sodipodi:guide
       position="2.0000117,30.000026"
       orientation="28,0"
       id="guide4167" />
    <sodipodi:guide
       position="2.0000117,2.0000264"
       orientation="0,28"
       id="guide4169" />
    <sodipodi:guide
       position="30.000012,2.0000264"
       orientation="-28,0"
       id="guide4171" />
    <sodipodi:guide
       position="30.000012,30.000026"
       orientation="0,-28"
       id="guide4173" />
    <sodipodi:guide
       position="2.0000117,30.000026"
       orientation="28,0"
       id="guide4181" />
    <sodipodi:guide
       position="2.0000117,2.0000264"
       orientation="0,14"
       id="guide4183" />
    <sodipodi:guide
       position="16.000012,2.0000264"
       orientation="-28,0"
       id="guide4185" />
    <sodipodi:guide
       position="16.000012,30.000026"
       orientation="0,-14"
       id="guide4187" />
    <sodipodi:guide
       position="9.0000117,23.000026"
       orientation="14,0"
       id="guide4193" />
    <sodipodi:guide
       position="9.0000117,9.0000264"
       orientation="0,14.000031"
       id="guide4195" />
    <sodipodi:guide
       position="23.000042,9.0000264"
       orientation="-14,0"
       id="guide4197" />
    <sodipodi:guide
       position="23.000042,23.000026"
       orientation="0,-14.000031"
       id="guide4199" />
  </sodipodi:namedview>
  <metadata
     id="metadata5458">
    <rdf:RDF>
      <cc:Work
         rdf:about="">
        <dc:format>image/svg+xml</dc:format>
        <dc:type
           rdf:resource="http://purl.org/dc/dcmitype/StillImage" />
        <dc:title></dc:title>
      </cc:Work>
    </rdf:RDF>
  </metadata>
  <g
     inkscape:label="Capa 1"
     inkscape:groupmode="layer"
     id="layer1"
     transform="translate(-384.57143,-499.798)">
    <g
       style="display:inline;enable-background:new"
       id="g4238"
       transform="translate(225.81911,462.44565)">
      <g
         style="display:inline"
         id="layer1-8"
         transform="matrix(0.22655187,0,0,0.22655187,106.94841,54.31088)">
        <g
           style="display:none"
           id="layer6" />
        <g
           id="g4027" />
        <g
           id="g4061" />
        <g
           id="g3751" />
        <g
           id="g3782" />
        <g
           id="g3725" />
        <g
           id="g4370"
           transform="matrix(4.4140002,0,0,4.4140002,59.275211,39.357303)">
          <g
             id="g4182"
             transform="matrix(1.7142857,0,0,1.7142857,-30.839285,-12.375017)">
            <g
               transform="matrix(0.0992248,0,0,0.0992248,48.123992,-0.12610532)"
               style="fill:url(#linearGradient4347);fill-opacity:1"
               id="g4184">
              <rect
                 style="opacity:1;fill:url(#linearGradient4222);fill-opacity:1;stroke:none;stroke-width:0.2;stroke-linecap:round;stroke-linejoin:round;stroke-miterlimit:4;stroke-dasharray:none;stroke-opacity:1"
                 id="rect4195"
                 width="46.302639"
                 height="34.938858"
                 x="334.23404"
                 y="513.12695"
                 ry="1.6441816"
                 transform="matrix(6.0944157,0,0,6.0944157,-2115.0565,-3170.6754)" />
              <path
                 d="m 124.918,52.205 c -0.436,-0.571 -1.005,-0.911 -1.711,-1.019 l -14.909,-2.281 c -0.815,-2.607 -1.929,-5.268 -3.341,-7.984 0.977,-1.358 2.443,-3.272 4.398,-5.744 1.955,-2.472 3.34,-4.277 4.155,-5.418 0.435,-0.598 0.651,-1.222 0.651,-1.874 0,-0.76 -0.189,-1.357 -0.57,-1.792 -1.955,-2.771 -6.436,-7.387 -13.443,-13.851 -0.65,-0.543 -1.33,-0.814 -2.035,-0.814 -0.815,0 -1.467,0.244 -1.956,0.732 L 84.589,20.878 C 82.361,19.737 79.917,18.732 77.256,17.863 L 74.975,2.873 C 74.921,2.167 74.608,1.583 74.038,1.121 73.467,0.659 72.803,0.429 72.041,0.429 l -18.086,0 c -1.575,0 -2.553,0.76 -2.933,2.281 -0.706,2.715 -1.494,7.766 -2.363,15.153 -2.553,0.816 -5.024,1.848 -7.414,3.097 L 30.002,12.242 c -0.706,-0.543 -1.412,-0.814 -2.118,-0.814 -1.195,0 -3.761,1.941 -7.699,5.825 -3.938,3.884 -6.612,6.803 -8.025,8.758 -0.489,0.706 -0.733,1.331 -0.733,1.874 0,0.652 0.271,1.304 0.814,1.955 3.639,4.4 6.545,8.147 8.718,11.244 -1.358,2.498 -2.417,4.997 -3.177,7.495 L 2.628,50.86 C 2.031,50.969 1.515,51.322 1.08,51.92 0.645,52.517 0.428,53.142 0.428,53.793 l 0,18.087 c 0,0.707 0.217,1.344 0.652,1.914 0.435,0.571 1.005,0.912 1.711,1.02 l 14.91,2.2 c 0.76,2.661 1.873,5.349 3.34,8.064 -0.977,1.358 -2.444,3.272 -4.399,5.744 -1.955,2.472 -3.341,4.277 -4.155,5.418 -0.435,0.599 -0.652,1.222 -0.652,1.874 0,0.706 0.19,1.33 0.57,1.873 2.118,2.934 6.599,7.497 13.443,13.688 0.598,0.598 1.277,0.896 2.037,0.896 0.815,0 1.494,-0.244 2.037,-0.732 L 41.41,105.12 c 2.228,1.141 4.672,2.146 7.333,3.016 l 2.281,14.99 c 0.055,0.706 0.367,1.29 0.937,1.752 0.57,0.463 1.236,0.692 1.996,0.692 l 18.087,0 c 1.577,0 2.554,-0.76 2.935,-2.281 0.705,-2.716 1.492,-7.766 2.361,-15.153 2.553,-0.815 5.025,-1.848 7.414,-3.097 l 11.244,8.8 c 0.76,0.488 1.467,0.732 2.118,0.732 1.194,0 3.747,-1.927 7.657,-5.784 3.912,-3.856 6.6,-6.79 8.065,-8.8 0.489,-0.543 0.734,-1.167 0.734,-1.873 0,-0.706 -0.271,-1.387 -0.815,-2.037 -3.91,-4.78 -6.816,-8.527 -8.718,-11.243 1.086,-2.01 2.146,-4.481 3.178,-7.414 l 15.072,-2.28 c 0.651,-0.109 1.196,-0.463 1.63,-1.061 0.434,-0.598 0.65,-1.223 0.65,-1.874 l 0,-18.086 c 10e-4,-0.706 -0.215,-1.343 -0.651,-1.914 l 0,0 z M 77.747,77.746 C 73.674,81.82 68.758,83.857 63,83.857 57.242,83.857 52.327,81.82 48.253,77.746 44.18,73.673 42.143,68.758 42.143,63 c 0,-5.758 2.036,-10.673 6.11,-14.747 4.074,-4.073 8.99,-6.11 14.747,-6.11 5.758,0 10.674,2.037 14.747,6.11 4.073,4.074 6.11,8.989 6.11,14.747 0,5.758 -2.037,10.673 -6.11,14.746 l 0,0 z"
                 id="path4463-5"
                 sketch:type="MSShapeGroup"
                 inkscape:connector-curvature="0"
                 style="fill:#ffffff;fill-opacity:0.85185188" />
            </g>
          </g>
        </g>
      </g>
    </g>
  </g>
</svg>
