<svg xmlns="http://www.w3.org/2000/svg" viewBox="0 0 48 48"><defs><clipPath id="1"><path transform="matrix(15.33333 0 0 11.5 415-125.5)" d="m-24 13c0 1.105-.672 2-1.5 2-.828 0-1.5-.895-1.5-2 0-1.105.672-2 1.5-2 .828 0 1.5.895 1.5 2" fill="#1890d0"/></clipPath><linearGradient id="3" gradientUnits="userSpaceOnUse" x1="24.07" y1="47.593" x2="23.12" y2="-.61"><stop stop-color="#e1e1e1"/><stop stop-color="#f4f4ff" offset="1"/></linearGradient><linearGradient id="2" x1="12" x2="36" gradientUnits="userSpaceOnUse"><stop/><stop offset="1" stop-opacity="0"/></linearGradient><linearGradient gradientUnits="userSpaceOnUse" y2="-26.05" x2="-125.19" y1="73.5" x1="-123.97" id="0" gradientTransform="matrix(.49433 0 0 .4778 86.65 13.11)"><stop stop-color="#c52828"/><stop offset="1" stop-color="#ff5454"/></linearGradient></defs><g enable-background="new"><rect width="48" height="48" x=".0001" y=".007" fill="url(#0)" fill-rule="evenodd" rx="2.982" stroke-width="1"/></g><g transform="matrix(1.33333 0 0 1.33333-8-8)" fill="url(#2)"><g clip-path="url(#1)"><path d="m18.666 8c2.361 7.083 3.673 11.03 3.943 14.617-3.586-.272-7.532-1.581-14.609-3.938v10.666c7.08-2.358 11.02-3.668 14.607-3.941-.274 3.582-1.585 7.527-3.941 14.596h10.668c-2.356-7.07-3.667-11.02-3.941-14.598 3.586.272 7.531 1.584 14.607 3.943v-10.666c-7.078 2.357-11.02 3.666-14.609 3.938.27-3.589 1.582-7.534 3.943-14.617h-10.668" transform="matrix(.75 0 0 .75 6 6)" fill="url(#3)"/></g></g></svg>