<?xml version="1.0" encoding="UTF-8" standalone="no"?>
<!-- Created with Inkscape (http://www.inkscape.org/) -->

<svg
   xmlns:osb="http://www.openswatchbook.org/uri/2009/osb"
   xmlns:dc="http://purl.org/dc/elements/1.1/"
   xmlns:cc="http://creativecommons.org/ns#"
   xmlns:rdf="http://www.w3.org/1999/02/22-rdf-syntax-ns#"
   xmlns:svg="http://www.w3.org/2000/svg"
   xmlns="http://www.w3.org/2000/svg"
   xmlns:xlink="http://www.w3.org/1999/xlink"
   xmlns:sodipodi="http://sodipodi.sourceforge.net/DTD/sodipodi-0.dtd"
   xmlns:inkscape="http://www.inkscape.org/namespaces/inkscape"
   width="48px"
   height="48px"
   id="svg2985"
   version="1.1"
   inkscape:version="0.91 r13725"
   sodipodi:docname="calligraplanwork.svg">
  <defs
     id="defs2987">
    <linearGradient
       id="linearGradient4378">
      <stop
         id="stop4380"
         style="stop-color:#7a8795;stop-opacity:1"
         offset="0" />
      <stop
         id="stop4382"
         style="stop-color:#8998a8;stop-opacity:1"
         offset="1" />
    </linearGradient>
    <linearGradient
       id="linearGradient4372">
      <stop
         offset="0"
         style="stop-color:#636e79;stop-opacity:1"
         id="stop4374" />
      <stop
         offset="1"
         style="stop-color:#8896a6;stop-opacity:1"
         id="stop4376" />
    </linearGradient>
    <linearGradient
       inkscape:collect="always"
       id="linearGradient4551">
      <stop
         style="stop-color:#fefffe;stop-opacity:1"
         offset="0"
         id="stop4553" />
      <stop
         style="stop-color:#f1f1f0;stop-opacity:1"
         offset="1"
         id="stop4555" />
    </linearGradient>
    <linearGradient
       inkscape:collect="always"
       xlink:href="#linearGradient4372"
       id="linearGradient4475"
       x1="468.52368"
       y1="131.21846"
       x2="468.52365"
       y2="-52.903351"
       gradientUnits="userSpaceOnUse"
       gradientTransform="matrix(0.99883047,0,0,0.99883047,0.88417087,-0.7178006)" />
    <linearGradient
       inkscape:collect="always"
       xlink:href="#linearGradient4378"
       id="linearGradient4485"
       x1="468.80545"
       y1="121.34766"
       x2="469.16412"
       y2="38.70599"
       gradientUnits="userSpaceOnUse"
       gradientTransform="matrix(0.99787243,-9.2341385e-6,-9.2341385e-6,0.99999996,0.78966401,0.58090637)" />
    <linearGradient
       inkscape:collect="always"
       xlink:href="#linearGradient4551"
       id="linearGradient4557"
       x1="470.9686"
       y1="81.193069"
       x2="471.3154"
       y2="1.28242"
       gradientUnits="userSpaceOnUse"
       gradientTransform="translate(-1.9214726,-4.3204472)" />
    <linearGradient
       osb:paint="gradient"
       id="linearGradient4207">
      <stop
         id="stop3371"
         offset="0"
         style="stop-color:#3498db;stop-opacity:1;" />
      <stop
         id="stop3373"
         offset="1"
         style="stop-color:#3498db;stop-opacity:0;" />
    </linearGradient>
  </defs>
  <sodipodi:namedview
     id="base"
     pagecolor="#5a5a5a"
     bordercolor="#f0f0f0"
     borderopacity="1"
     inkscape:pageopacity="0"
     inkscape:pageshadow="2"
     inkscape:zoom="8.6599297"
     inkscape:cx="34.097572"
     inkscape:cy="18.298575"
     inkscape:current-layer="g4627"
     showgrid="false"
     inkscape:grid-bbox="true"
     inkscape:document-units="px"
     inkscape:snap-global="true"
     inkscape:window-width="1366"
     inkscape:window-height="633"
     inkscape:window-x="0"
     inkscape:window-y="33"
     inkscape:window-maximized="0"
     inkscape:snap-bbox="true"
     inkscape:bbox-nodes="true"
     inkscape:object-nodes="true"
     inkscape:snap-nodes="true"
     inkscape:snap-others="false"
     inkscape:snap-bbox-edge-midpoints="true"
     showguides="true"
     inkscape:showpageshadow="false"
     showborder="false">
    <inkscape:grid
       type="xygrid"
       id="grid2993" />
  </sodipodi:namedview>
  <metadata
     id="metadata2990">
    <rdf:RDF>
      <cc:Work
         rdf:about="">
        <dc:format>image/svg+xml</dc:format>
        <dc:type
           rdf:resource="http://purl.org/dc/dcmitype/StillImage" />
        <dc:title />
      </cc:Work>
    </rdf:RDF>
  </metadata>
  <g
     id="layer1"
     inkscape:label="Layer 1"
     inkscape:groupmode="layer">
    <g
       id="g4154"
       transform="matrix(1.073476,-0.00305812,0.00305812,1.073476,-1.8214625,-1.6074449)">
      <g
         transform="matrix(0.86413263,-0.00128877,0.00128877,0.86413263,8.0000845,-12.604254)"
         id="g4397">
        <g
           id="g4627"
           transform="matrix(0.24545625,0,0,0.24545625,-96.387322,32.480944)">
          <g
             id="g4322"
             transform="matrix(1.0212766,0,0,1.0212766,-10.310864,-1.096015)">
            <g
               transform="matrix(1.0641747,0,0,1.0641747,-31.118045,-2.7902817)"
               id="g4168">
              <rect
                 ry="11.3587"
                 transform="matrix(0.99999058,0.00434018,-0.00434018,0.99999058,0,0)"
                 y="-53.55928"
                 x="376.79791"
                 height="183.90648"
                 width="184.12398"
                 id="rect4467"
                 style="opacity:1;fill:url(#linearGradient4475);fill-opacity:1.0;stroke:none;stroke-width:0.5;stroke-linecap:round;stroke-linejoin:round;stroke-miterlimit:4;stroke-dasharray:none;stroke-dashoffset:0;stroke-opacity:1" />
              <path
                 sodipodi:nodetypes="ccccccc"
                 inkscape:connector-curvature="0"
                 id="path4477-2"
                 d="m 377.99004,39.711723 183.00252,0.794269 4.69943,70.610628 c 0,0 2.18806,11.54391 -10.98127,11.52293 l -170.4585,-0.26137 c -14.5271,0.19388 -12.26442,-12.18913 -12.26442,-12.18913 z"
                 style="opacity:1;fill:#4c515a;fill-opacity:1;fill-rule:evenodd;stroke:none;stroke-width:1.07801557px;stroke-linecap:butt;stroke-linejoin:miter;stroke-opacity:1" />
              <path
                 sodipodi:nodetypes="ccccccc"
                 inkscape:connector-curvature="0"
                 id="path4477"
                 d="m 376.74431,38.882349 183.8501,0.797946 4.68878,70.610595 c 0,0 2.18329,11.54389 -10.95802,11.52303 l -170.09584,-0.25979 c -14.4962,0.19401 -12.23822,-12.18902 -12.23822,-12.18902 z"
                 style="opacity:1;fill:url(#linearGradient4485);fill-opacity:1.0;fill-rule:evenodd;stroke:none;stroke-width:1.07801557px;stroke-linecap:butt;stroke-linejoin:miter;stroke-opacity:1" />
              <g
                 style="font-style:normal;font-weight:normal;font-size:111.29611206px;line-height:125%;font-family:sans-serif;letter-spacing:0px;word-spacing:0px;fill:url(#linearGradient4557);fill-opacity:1;stroke:none;stroke-width:1px;stroke-linecap:butt;stroke-linejoin:miter;stroke-opacity:1"
                 id="text4367-9-0">
                <path
                   inkscape:connector-curvature="0"
                   d="m 463.01357,75.106071 -48.5251,0 0,-10.239242 q 21.81403,-21.925334 27.93532,-28.603101 5.45351,-6.121286 7.34554,-9.237577 1.89204,-3.227587 1.89204,-7.902024 0,-4.785733 -3.78407,-8.458504 -3.78407,-3.6727721 -10.12795,-3.6727721 -5.78739,0 -9.34887,3.4501791 -3.56148,3.338884 -4.56314,7.234248 l -9.34887,-3.784068 q 1.89203,-6.0099902 7.90202,-11.3522036 6.00999,-5.3422134 15.58146,-5.3422134 10.57313,0 17.36219,6.4551745 6.78906,6.4551745 6.78906,15.4701595 0,11.129611 -12.13127,23.817368 l -22.25923,22.370519 35.28087,0 0,9.794057 z"
                   style="font-style:normal;font-variant:normal;font-weight:normal;font-stretch:normal;font-family:'Product Sans';-inkscape-font-specification:'Product Sans';fill:#ffffff;fill-opacity:0.8508065"
                   id="path4176" />
                <path
                   inkscape:connector-curvature="0"
                   d="m 496.79542,76.886809 q -7.67943,0 -14.91368,-4.785733 -7.23425,-4.785732 -10.01665,-14.245902 l 9.34887,-3.895364 q 1.78074,6.232582 5.8987,9.682762 4.11795,3.450179 9.68276,3.450179 6.23258,0 10.68442,-3.895364 4.56315,-3.895363 4.56315,-9.682761 0,-5.676102 -4.67444,-9.571466 -4.56314,-3.895364 -11.01832,-3.895364 l -6.56647,0 0,-9.571465 5.7874,0 q 6.00999,0 9.90535,-3.338884 4.00666,-3.338883 4.00666,-8.903689 0,-5.230917 -3.89536,-8.2359121 -3.78407,-3.004995 -9.46017,-3.004995 -9.79406,0 -13.24424,9.9053541 l -9.46017,-4.00666 q 2.22593,-6.1212863 7.90203,-10.9070192 5.6761,-4.7857328 14.80238,-4.7857328 10.23924,0 17.02831,6.0099901 6.78906,5.8986939 6.78906,15.0249749 0,11.018315 -10.23924,16.360529 l 0,0.445184 q 5.5648,2.337218 9.12628,7.122951 3.67277,4.785733 3.67277,11.352204 0,10.127946 -7.45684,16.805713 -7.45684,6.56647 -18.25256,6.56647 z"
                   style="font-style:normal;font-variant:normal;font-weight:normal;font-stretch:normal;font-family:'Product Sans';-inkscape-font-specification:'Product Sans';fill:#ffffff;fill-opacity:0.8508065"
                   id="path4178" />
              </g>
            </g>
            <g
               id="text4255"
               style="font-style:normal;font-weight:normal;font-size:109.79711151px;line-height:125%;font-family:sans-serif;letter-spacing:0px;word-spacing:0px;fill:#ffffff;fill-opacity:0.8508065;stroke:none;stroke-width:1px;stroke-linecap:butt;stroke-linejoin:miter;stroke-opacity:1"
               transform="matrix(0.19685665,8.5440135e-4,-8.5440135e-4,0.19685665,386.57302,82.392691)" />
          </g>
        </g>
      </g>
    </g>
  </g>
</svg>
