<svg xmlns="http://www.w3.org/2000/svg" xmlns:xlink="http://www.w3.org/1999/xlink" viewBox="0 0 48 48"><defs><linearGradient xlink:href="#1" id="4" x1="422.75" y1="544.89" x2="422.41" y2="500.74" gradientUnits="userSpaceOnUse"/><linearGradient xlink:href="#0" id="5" gradientUnits="userSpaceOnUse" y1="544.86" x2="0" y2="506.42"/><linearGradient xlink:href="#0" id="3" gradientUnits="userSpaceOnUse" y1="544.86" x2="0" y2="506.42"/><linearGradient id="1"><stop stop-color="#178b6f"/><stop offset="1" stop-color="#489acf"/></linearGradient><linearGradient id="0"><stop stop-color="#178b6f"/><stop offset="1" stop-color="#3ec9d3"/></linearGradient><linearGradient xlink:href="#1" id="2" y1="544.31" x2="0" y2="498.77" gradientUnits="userSpaceOnUse"/></defs><g transform="matrix(1.06887 0 0 1.06887-2.207-1.385)"><circle r="19.217" cy="525.64" cx="458.07" fill="url(#5)" stroke="url(#3)" stroke-linejoin="round" stroke-linecap="round" stroke-width="1.791" transform="matrix(1.11639 0 0 1.11639-486.8-562.97)"/><path d="m32.942 15.08c-1.482-2.198-4.14-3.474-7.894-3.792h-.006c-.277-.031-.543-.047-.79-.047-1.893 0-2.565.948-2.565 1.759v14.12c-.745-.224-1.543-.289-2.332-.19-1.374.173-2.606.819-3.467 1.817-.861.998-1.25 2.23-1.093 3.468.29 2.299 2.441 4.03 5 4.03.241 0 .485-.015.726-.046 2.657-.335 4.585-2.443 4.585-5.01v-13.857c.199-.013.399-.02.594-.02 2.342 0 4.496.98 6.228 2.834.714.764 1.215 1.524 1.51 2.027.072.123.214.189.355.164.141-.025.251-.135.277-.276.284-1.56.515-4.542-1.132-6.985" fill="#fff" fill-opacity=".847" stroke-width="1.317"/></g></svg>