<?xml version="1.0" encoding="UTF-8" standalone="no"?>
<!-- Created with Inkscape (http://www.inkscape.org/) -->

<svg
   xmlns:osb="http://www.openswatchbook.org/uri/2009/osb"
   xmlns:dc="http://purl.org/dc/elements/1.1/"
   xmlns:cc="http://creativecommons.org/ns#"
   xmlns:rdf="http://www.w3.org/1999/02/22-rdf-syntax-ns#"
   xmlns:svg="http://www.w3.org/2000/svg"
   xmlns="http://www.w3.org/2000/svg"
   xmlns:xlink="http://www.w3.org/1999/xlink"
   xmlns:sodipodi="http://sodipodi.sourceforge.net/DTD/sodipodi-0.dtd"
   xmlns:inkscape="http://www.inkscape.org/namespaces/inkscape"
   width="48px"
   height="48px"
   id="svg3057"
   version="1.1"
   inkscape:version="0.91 r13725"
   sodipodi:docname="chrome-ahfgeienlihckogmohjhadlkjgocpleb-Default.svg">
  <defs
     id="defs3059">
    <linearGradient
       inkscape:collect="always"
       xlink:href="#linearGradient4249"
       id="linearGradient4161"
       x1="409.57144"
       y1="543.79797"
       x2="409.57144"
       y2="502.798"
       gradientUnits="userSpaceOnUse"
       gradientTransform="matrix(0.95,0,0,0.95,20.428574,26.189901)" />
    <linearGradient
       inkscape:collect="always"
       id="linearGradient4249">
      <stop
         style="stop-color:#79a8ca;stop-opacity:1"
         offset="0"
         id="stop4251" />
      <stop
         style="stop-color:#9ecbda;stop-opacity:1"
         offset="1"
         id="stop4253" />
    </linearGradient>
    <linearGradient
       inkscape:collect="always"
       id="linearGradient4158">
      <stop
         style="stop-color:#11aa43;stop-opacity:1"
         offset="0"
         id="stop4160" />
      <stop
         style="stop-color:#5be654;stop-opacity:1"
         offset="1"
         id="stop4162" />
    </linearGradient>
    <linearGradient
       id="linearGradient4257"
       inkscape:collect="always">
      <stop
         id="stop4259"
         offset="0"
         style="stop-color:#f23b2a;stop-opacity:1" />
      <stop
         id="stop4261"
         offset="1"
         style="stop-color:#fd5757;stop-opacity:1" />
    </linearGradient>
    <linearGradient
       id="linearGradient4230"
       inkscape:collect="always">
      <stop
         id="stop4232"
         offset="0"
         style="stop-color:#f3b200;stop-opacity:1" />
      <stop
         id="stop4234"
         offset="1"
         style="stop-color:#fee145;stop-opacity:1" />
    </linearGradient>
    <linearGradient
       gradientUnits="userSpaceOnUse"
       y2="15"
       x2="36"
       y1="44"
       x1="36"
       id="linearGradient4236"
       xlink:href="#linearGradient4230"
       inkscape:collect="always" />
    <linearGradient
       gradientTransform="translate(384.57143,499.8605)"
       gradientUnits="userSpaceOnUse"
       y2="13.9375"
       x2="12"
       y1="40.934803"
       x1="12.08334"
       id="linearGradient4255"
       xlink:href="#linearGradient4158"
       inkscape:collect="always" />
    <linearGradient
       gradientTransform="translate(384.56752,499.798)"
       gradientUnits="userSpaceOnUse"
       y2="4.0000038"
       x2="23.00391"
       y1="20"
       x1="23.00391"
       id="linearGradient4263"
       xlink:href="#linearGradient4257"
       inkscape:collect="always" />
    <linearGradient
       gradientUnits="userSpaceOnUse"
       y2="514.79797"
       x2="408.57144"
       y1="532.79797"
       x1="408.57144"
       id="linearGradient4191"
       xlink:href="#linearGradient4180"
       inkscape:collect="always"
       gradientTransform="matrix(1.6666675,0,0,1.6666675,-272.38133,-349.19908)" />
    <linearGradient
       id="linearGradient4180">
      <stop
         style="stop-color:#e7e7e7;stop-opacity:1"
         offset="0"
         id="stop4182" />
      <stop
         style="stop-color:#fcfcfc;stop-opacity:1"
         offset="1"
         id="stop4184" />
    </linearGradient>
    <style
       type="text/css"
       id="current-color-scheme">.ColorScheme-Text {
        color:#31363b;
      }
      .ColorScheme-Background{
        color:#eff0f1;
      }
      .ColorScheme-ViewText {
        color:#31363b;
      }
      .ColorScheme-ViewBackground{
        color:#fcfcfc;
      }
      .ColorScheme-ViewHover {
        color:#3daee9;
      }
      .ColorScheme-ViewFocus{
        color:#3daee9;
      }
      .ColorScheme-ButtonText {
        color:#31363b;
      }
      .ColorScheme-ButtonBackground{
        color:#eff0f1;
      }
      .ColorScheme-ButtonHover {
        color:#3daee9;
      }
      .ColorScheme-ButtonFocus{
        color:#3daee9;
      }</style>
    <style
       type="text/css"
       id="current-color-scheme-8">.ColorScheme-Text {
        color:#31363b;
      }
      .ColorScheme-Background{
        color:#eff0f1;
      }
      .ColorScheme-ViewText {
        color:#31363b;
      }
      .ColorScheme-ViewBackground{
        color:#fcfcfc;
      }
      .ColorScheme-ViewHover {
        color:#3daee9;
      }
      .ColorScheme-ViewFocus{
        color:#3daee9;
      }
      .ColorScheme-ButtonText {
        color:#31363b;
      }
      .ColorScheme-ButtonBackground{
        color:#eff0f1;
      }
      .ColorScheme-ButtonHover {
        color:#3daee9;
      }
      .ColorScheme-ButtonFocus{
        color:#3daee9;
      }</style>
    <style
       type="text/css"
       id="current-color-scheme-7">.ColorScheme-Text {
        color:#31363b;
      }
      .ColorScheme-Background{
        color:#eff0f1;
      }
      .ColorScheme-ViewText {
        color:#31363b;
      }
      .ColorScheme-ViewBackground{
        color:#fcfcfc;
      }
      .ColorScheme-ViewHover {
        color:#3daee9;
      }
      .ColorScheme-ViewFocus{
        color:#3daee9;
      }
      .ColorScheme-ButtonText {
        color:#31363b;
      }
      .ColorScheme-ButtonBackground{
        color:#eff0f1;
      }
      .ColorScheme-ButtonHover {
        color:#3daee9;
      }
      .ColorScheme-ButtonFocus{
        color:#3daee9;
      }</style>
    <linearGradient
       id="linearGradient4207"
       osb:paint="gradient">
      <stop
         style="stop-color:#3498db;stop-opacity:1;"
         offset="0"
         id="stop3371" />
      <stop
         style="stop-color:#3498db;stop-opacity:0;"
         offset="1"
         id="stop3373" />
    </linearGradient>
  </defs>
  <sodipodi:namedview
     id="base"
     pagecolor="#6c6c6c"
     bordercolor="#666666"
     borderopacity="1.0"
     inkscape:pageopacity="0"
     inkscape:pageshadow="2"
     inkscape:zoom="7"
     inkscape:cx="10.866902"
     inkscape:cy="19.136865"
     inkscape:current-layer="g4181"
     showgrid="false"
     inkscape:grid-bbox="true"
     inkscape:document-units="px"
     inkscape:window-width="1366"
     inkscape:window-height="687"
     inkscape:window-x="0"
     inkscape:window-y="0"
     inkscape:window-maximized="1"
     inkscape:snap-nodes="true"
     inkscape:snap-bbox="true"
     inkscape:bbox-paths="true"
     inkscape:bbox-nodes="true"
     inkscape:snap-bbox-edge-midpoints="true"
     inkscape:snap-bbox-midpoints="true"
     inkscape:object-nodes="true"
     inkscape:object-paths="true"
     showborder="false">
    <inkscape:grid
       type="xygrid"
       id="grid3182" />
  </sodipodi:namedview>
  <metadata
     id="metadata3062">
    <rdf:RDF>
      <cc:Work
         rdf:about="">
        <dc:format>image/svg+xml</dc:format>
        <dc:type
           rdf:resource="http://purl.org/dc/dcmitype/StillImage" />
        <dc:title></dc:title>
      </cc:Work>
    </rdf:RDF>
  </metadata>
  <g
     id="layer1"
     inkscape:label="Layer 1"
     inkscape:groupmode="layer">
    <g
       transform="translate(-384.59543,-499.918)"
       id="layer1-5"
       inkscape:label="Capa 1">
      <g
         transform="matrix(1.2,0,0,1.2,-81.690286,-104.6396)"
         id="g4181">
        <rect
           style="opacity:1;fill:url(#linearGradient4161);fill-opacity:1;stroke:none"
           id="rect4145"
           width="37.999996"
           height="37.999989"
           x="389.57144"
           y="504.79797"
           ry="18.999994" />
        <path
           style="opacity:0.8;fill:#649cc1;fill-opacity:1"
           d="M 24.472656,14.699219 C 24.211041,14.699219 24,14.91026 24,15.171875 c 0,0.261615 0.211041,0.472656 0.472656,0.472656 l 17.054688,0 c 0.03442,0 0.06536,-0.0126 0.09766,-0.01953 L 41.857,15 41,14.699219 Z"
           transform="translate(384.57143,499.798)"
           id="rect3345"
           inkscape:connector-curvature="0"
           sodipodi:nodetypes="sssscccs" />
        <path
           style="opacity:1;fill:url(#linearGradient4255);fill-opacity:1;fill-rule:evenodd;stroke:none;stroke-width:1px;stroke-linecap:butt;stroke-linejoin:miter;stroke-opacity:1"
           d="m 392.57534,511.798 c -2.50446,3.34009 -4.00391,7.54795 -4.00391,12.0625 0,11.08 8.92001,19.9375 20,19.9375 l 7,-14.3375 -13,-2.6625 z"
           id="path4217"
           inkscape:connector-curvature="0"
           sodipodi:nodetypes="cscccc" />
        <path
           style="fill:url(#linearGradient4236);fill-opacity:1;fill-rule:evenodd;stroke:none;stroke-width:1px;stroke-linecap:butt;stroke-linejoin:miter;stroke-opacity:1"
           d="M 25,15 31,29.6 24,44 c 11.079995,0 20,-8.920005 20,-20 0,-3.245276 -0.781986,-6.295183 -2.142578,-9 z"
           transform="translate(384.57143,499.798)"
           id="path4209"
           inkscape:connector-curvature="0"
           sodipodi:nodetypes="cccscc" />
        <path
           style="fill:url(#linearGradient4263);fill-opacity:1;fill-rule:evenodd;stroke:none;stroke-width:1px;stroke-linecap:butt;stroke-linejoin:miter;stroke-opacity:1"
           d="m 408.56752,503.798 c -6.56544,0 -12.3539,3.14646 -15.99609,8.00391 l 9.99609,14.99609 13,2.6 -6,-14.6 16.85743,0 c -3.28473,-6.52995 -10.02271,-11 -17.85743,-11 z"
           id="path4219"
           inkscape:connector-curvature="0"
           sodipodi:nodetypes="scccccs" />
        <g
           id="g4294"
           transform="matrix(1.2222222,0,0,1.2222222,-90.793625,-116.39955)">
          <rect
             style="opacity:1;fill:url(#linearGradient4191);fill-opacity:1.0;stroke:none"
             id="rect4211"
             width="30.00001"
             height="30"
             x="393.57141"
             y="508.798"
             ry="14.999998" />
        </g>
        <path
           sodipodi:nodetypes="ssccscsssssscssscsssscsssccsscssccccscscscsccccccscccsccsssscsscccsssssscsssscsssssscscs"
           style="fill:#000000;fill-opacity:0.69776157;stroke:none;stroke-opacity:1"
           d="m 398.36423,532.63774 c 0.75743,-0.68398 1.54793,-1.39409 1.75668,-1.57801 0.20865,-0.18395 0.38072,-0.35324 0.38221,-0.37622 0.003,-0.0421 -2.21679,-1.53551 -2.31741,-1.55938 -0.0296,-0.007 -0.0733,0.0486 -0.0975,0.12545 -0.0541,0.17073 -0.74544,2.75627 -1.13067,4.22937 -0.0822,0.31431 -0.0835,0.4024 -0.006,0.4024 0.0195,0 0.6549,-0.5596 1.41237,-1.24358 z m 20.97006,1.10597 c 0.40336,-0.52879 0.62937,-1.67302 0.53311,-2.69883 -0.10946,-1.16698 -0.42705,-1.9746 -1.03588,-2.63456 -0.45156,-0.48951 -0.83415,-0.5962 -1.27136,-0.35457 -0.68172,0.37674 -1.32844,0.77614 -1.42461,0.87977 -0.28681,0.30912 -0.26713,0.81242 0.0569,1.45539 0.32773,0.65023 0.68396,1.02147 1.47657,1.53896 0.81775,0.53386 1.14966,0.94201 1.32885,1.63408 0.0577,0.22204 0.11674,0.31485 0.20215,0.31672 0.0151,4.5e-4 0.0764,-0.0614 0.13411,-0.13693 z m -17.70613,-4.79803 c 1.54687,-2.75785 3.52048,-6.17983 4.74623,-8.22933 0.26734,-0.44697 0.48607,-0.82564 0.48607,-0.84146 0,-0.0512 -2.30155,-1.46571 -2.36267,-1.45219 -0.0616,0.013 -2.11921,3.47736 -3.5801,6.02633 -0.46312,0.80804 -1.15142,1.95822 -1.52958,2.55597 -0.37816,0.59777 -0.74472,1.17731 -0.81455,1.28784 -0.0733,0.11596 -0.11115,0.21602 -0.0897,0.23673 0.10348,0.0993 2.42571,1.58558 2.46061,1.57492 0.0224,-0.006 0.33005,-0.52828 0.68371,-1.15881 z m 15.03466,-0.97963 c 0.59777,-0.33994 1.12278,-0.65172 1.16667,-0.69289 0.078,-0.0733 0.0751,-0.0829 -0.1456,-0.46412 -0.12389,-0.21407 -0.42517,-0.73724 -0.66937,-1.16256 -0.24419,-0.42535 -0.47213,-0.77887 -0.50658,-0.78565 -0.0913,-0.0174 -2.35061,1.30032 -2.36606,1.38046 -0.013,0.0668 1.17374,2.15857 1.30552,2.30145 0.038,0.0408 0.0822,0.0671 0.0985,0.058 0.0174,-0.008 0.51893,-0.29479 1.11669,-0.63468 z m 4.5021,-2.21077 c 0.0174,-0.0302 0.0267,-0.67358 0.0216,-1.42988 l -0.008,-1.3751 -2.54257,-0.0104 c -2.21852,-0.008 -2.54082,-0.005 -2.52896,0.0507 0.008,0.0338 0.36148,0.68203 0.78669,1.44058 l 0.77312,1.37913 0.1675,0.013 c 0.092,0.006 0.8725,0.006 1.7343,0 1.2387,-0.008 1.57332,-0.0237 1.59757,-0.0668 z m -8.04393,-0.059 c 0.007,-0.0216 -0.31544,-0.62859 -0.71649,-1.35025 l -0.72921,-1.31211 -3.10023,0 -3.10021,0 -0.73203,1.32539 c -0.40261,0.72892 -0.7228,1.34027 -0.71153,1.35851 0.0292,0.0473 9.07395,0.0257 9.0897,-0.0216 z M 399.804,525.46883 c 0.0829,-0.14364 0.42541,-0.73602 0.76112,-1.3163 0.33568,-0.58022 0.61036,-1.07415 0.61036,-1.09758 0,-0.0286 -0.85655,-0.039 -2.60213,-0.0318 l -2.60212,0.0104 -0.013,0.29261 c -0.008,0.16099 -8.1e-4,0.76758 0.0151,1.34809 l 0.0291,1.05547 1.82584,0 1.82584,0 z m 15.33307,-0.53295 c 1.06157,-0.58429 1.04504,-0.57399 1.04504,-0.6487 0,-0.0728 -0.55936,-1.0618 -2.45829,-4.34656 -2.08731,-3.61062 -3.00657,-5.20223 -3.61755,-6.26337 -0.60226,-1.046 -0.74469,-1.24093 -1.003,-1.37272 -0.20345,-0.10374 -0.52871,-0.11986 -0.73902,-0.0367 -0.20041,0.0793 -0.90628,0.49039 -1.09296,0.6364 -0.29939,0.23419 -0.41289,0.69729 -0.26036,1.0623 0.0824,0.19695 0.0263,0.0988 2.00087,3.50776 3.10855,5.36673 4.70643,8.07317 4.80525,8.13905 0.0244,0.0174 0.13867,-0.0234 0.25378,-0.0881 0.11505,-0.0647 0.59495,-0.32999 1.06624,-0.58939 z m -7.67804,-6.17615 c 0.49502,-0.82591 0.56753,-0.97043 0.59783,-1.19162 0.063,-0.45945 -0.17875,-0.76731 -0.94277,-1.20054 -0.43314,-0.2456 -0.50351,-0.27222 -0.75749,-0.28658 -0.34706,-0.0195 -0.5184,0.0533 -0.75727,0.32243 -0.17897,0.20149 -0.87126,1.43376 -0.87003,1.54845 4.3e-4,0.0409 0.4313,0.32996 1.13908,0.76401 0.62611,0.38397 1.15136,0.69905 1.16722,0.70018 0.0151,7e-4 0.2065,-0.29421 0.42343,-0.65633 z"
           id="path3319"
           inkscape:connector-curvature="0" />
      </g>
    </g>
  </g>
</svg>
