<svg xmlns="http://www.w3.org/2000/svg" xmlns:xlink="http://www.w3.org/1999/xlink" viewBox="0 0 48 48"><defs><linearGradient xlink:href="#8" id="9" gradientUnits="userSpaceOnUse" y1="19.402" x2="0" y2="14.94"/><linearGradient id="6" gradientUnits="userSpaceOnUse" y1="5.273" x2="0" y2="8.991"><stop stop-color="#ff4c39"/><stop offset="1" stop-color="#cf3d2e"/></linearGradient><linearGradient id="8"><stop stop-color="#258e52"/><stop offset="1" stop-color="#00c253"/></linearGradient><linearGradient xlink:href="#8" id="7" gradientUnits="userSpaceOnUse" y1="14.197" x2="0" y2="10.478"/><linearGradient xlink:href="#2" id="5" gradientUnits="userSpaceOnUse" y1="13.453" x2="0" y2="10.479"/><linearGradient id="0" gradientUnits="userSpaceOnUse" y1="25.299" x2="0" y2="-1.701"><stop stop-color="#dbdada"/><stop offset="1" stop-color="#fff"/></linearGradient><linearGradient id="4" gradientUnits="userSpaceOnUse" x1="43.42" y1="13.453" x2="42.674" y2="11.222"><stop stop-color="#2574a8"/><stop offset="1" stop-color="#329ee4"/></linearGradient><linearGradient xlink:href="#2" id="1" gradientUnits="userSpaceOnUse" y1="18.658" x2="0" y2="14.967"/><linearGradient xlink:href="#2" id="3" gradientUnits="userSpaceOnUse" y1="19.402" x2="0" y2="14.967"/><linearGradient id="2"><stop stop-color="#d6c240"/><stop offset="1" stop-color="#fff360"/></linearGradient></defs><g transform="matrix(1.71427 0 0 1.71427-49.21 3.512)" enable-background="new"><circle cx="42.708" cy="11.958" r="14" fill="url(#0)"/><g fill="url(#6)"><ellipse cx="37.84" cy="7.207" rx="1.859" ry="1.859"/><ellipse cx="42.823" cy="7.207" rx="1.859" ry="1.859"/><ellipse cx="47.656" cy="7.207" rx="1.859" ry="1.859"/></g><ellipse ry="1.859" rx="1.859" cy="12.338" cx="37.84" fill="url(#7)"/><ellipse ry="1.859" rx="1.859" cy="17.246" cx="37.84" fill="url(#9)"/><ellipse ry="1.859" rx="1.859" cy="12.189" cx="47.656" fill="url(#5)"/><ellipse ry="1.859" rx="1.859" cy="17.1" cx="47.656" fill="url(#1)"/><ellipse cx="42.822" cy="17.246" rx="1.859" ry="1.859" fill="url(#3)"/><ellipse cx="42.822" cy="12.263" rx="1.859" ry="1.859" fill="url(#4)"/></g></svg>