<svg xmlns="http://www.w3.org/2000/svg" viewBox="0 0 48 48"><defs><linearGradient id="0" x1="-28.999" y1="514.82" x2="-15.58" y2="-56.05" gradientUnits="userSpaceOnUse" gradientTransform="matrix(.07843 0 0 .07847 34.475 6.536)"><stop stop-color="#d3d3d3"/><stop offset="1" stop-color="#fcf9f9"/></linearGradient><linearGradient y2="501.79" x2="0" y1="545.79" gradientUnits="userSpaceOnUse" id="1"><stop stop-color="#197cf1"/><stop offset="1" stop-color="#20bcfa"/></linearGradient></defs><g transform="matrix(1.04348 0 0 1.04399-402.34-522.84)"><rect y="501.8" x="386.57" height="44" width="44" fill="url(#1)" rx="21.999" stroke-width="1.15"/><path d="m23.961 0c-3.254 0-6.348.645-9.318 1.92-5.9 2.532-10.221 6.826-12.756 12.738-1.27 2.962-1.887 6.06-1.887 9.314 0 3.256.616 6.383 1.887 9.346 2.535 5.912 6.857 10.229 12.756 12.762 2.971 1.275 6.06 1.92 9.318 1.92 3.254 0 6.369-.652 9.342-1.92 5.949-2.539 10.248-6.86 12.779-12.762 1.274-2.972 1.918-6.09 1.918-9.346 0-3.255-.643-6.342-1.918-9.314-2.531-5.903-6.83-10.2-12.779-12.738-2.973-1.269-6.087-1.92-9.342-1.92m-.42 7c1.224 0 2.227 1 2.227 2.227v15.246l8.641 6.76c1 .742 1.152 2.151.41 3.115-.408.557-1.079.85-1.746.85-.482 0-.961-.184-1.369-.48l-9.529-7.418c-.519-.408-.857-1.043-.857-1.748v-16.324c0-1.224 1-2.227 2.225-2.227z" transform="matrix(.95834 0 0 .958 385.55 500.8)" fill="url(#0)" opacity=".99"/></g></svg>