<?xml version="1.0" encoding="UTF-8" standalone="no"?>
<!-- Created with Inkscape (http://www.inkscape.org/) -->

<svg
   xmlns:dc="http://purl.org/dc/elements/1.1/"
   xmlns:cc="http://creativecommons.org/ns#"
   xmlns:rdf="http://www.w3.org/1999/02/22-rdf-syntax-ns#"
   xmlns:svg="http://www.w3.org/2000/svg"
   xmlns="http://www.w3.org/2000/svg"
   xmlns:xlink="http://www.w3.org/1999/xlink"
   xmlns:sodipodi="http://sodipodi.sourceforge.net/DTD/sodipodi-0.dtd"
   xmlns:inkscape="http://www.inkscape.org/namespaces/inkscape"
   width="48"
   height="48"
   id="svg5453"
   version="1.1"
   inkscape:version="0.91 r13725"
   sodipodi:docname="cuttlefish.svg">
  <defs
     id="defs5455">
    <linearGradient
       gradientTransform="matrix(0.1383708,0,0,0.1383708,62.468287,-83.119561)"
       inkscape:collect="always"
       xlink:href="#linearGradient4422"
       id="linearGradient5299"
       gradientUnits="userSpaceOnUse"
       x1="-318.57867"
       y1="653.95679"
       x2="-318.57867"
       y2="301.29816" />
    <linearGradient
       id="linearGradient4422">
      <stop
         id="stop4424"
         offset="0"
         style="stop-color:#ff9300;stop-opacity:1" />
      <stop
         id="stop4426"
         offset="1"
         style="stop-color:#ffd702;stop-opacity:1" />
    </linearGradient>
  </defs>
  <sodipodi:namedview
     id="base"
     pagecolor="#ffffff"
     bordercolor="#666666"
     borderopacity="1.0"
     inkscape:pageopacity="0"
     inkscape:pageshadow="2"
     inkscape:zoom="4"
     inkscape:cx="-39.601104"
     inkscape:cy="15.968792"
     inkscape:document-units="px"
     inkscape:current-layer="g4370"
     showgrid="true"
     fit-margin-top="0"
     fit-margin-left="0"
     fit-margin-right="0"
     fit-margin-bottom="0"
     inkscape:window-width="1366"
     inkscape:window-height="634"
     inkscape:window-x="0"
     inkscape:window-y="36"
     inkscape:window-maximized="1"
     inkscape:showpageshadow="false"
     borderlayer="true"
     showguides="false">
    <inkscape:grid
       type="xygrid"
       id="grid4063" />
    <sodipodi:guide
       position="1.1650391e-05,32.000026"
       orientation="32,0"
       id="guide4157" />
    <sodipodi:guide
       position="1.1650391e-05,2.6367188e-05"
       orientation="0,32"
       id="guide4159" />
    <sodipodi:guide
       position="32.000012,2.6367188e-05"
       orientation="-32,0"
       id="guide4161" />
    <sodipodi:guide
       position="32.000012,32.000026"
       orientation="0,-32"
       id="guide4163" />
    <sodipodi:guide
       position="2.0000117,30.000026"
       orientation="28,0"
       id="guide4167" />
    <sodipodi:guide
       position="2.0000117,2.0000264"
       orientation="0,28"
       id="guide4169" />
    <sodipodi:guide
       position="30.000012,2.0000264"
       orientation="-28,0"
       id="guide4171" />
    <sodipodi:guide
       position="30.000012,30.000026"
       orientation="0,-28"
       id="guide4173" />
    <sodipodi:guide
       position="2.0000117,30.000026"
       orientation="28,0"
       id="guide4181" />
    <sodipodi:guide
       position="2.0000117,2.0000264"
       orientation="0,14"
       id="guide4183" />
    <sodipodi:guide
       position="16.000012,2.0000264"
       orientation="-28,0"
       id="guide4185" />
    <sodipodi:guide
       position="16.000012,30.000026"
       orientation="0,-14"
       id="guide4187" />
    <sodipodi:guide
       position="9.0000117,23.000026"
       orientation="14,0"
       id="guide4193" />
    <sodipodi:guide
       position="9.0000117,9.0000264"
       orientation="0,14.000031"
       id="guide4195" />
    <sodipodi:guide
       position="23.000042,9.0000264"
       orientation="-14,0"
       id="guide4197" />
    <sodipodi:guide
       position="23.000042,23.000026"
       orientation="0,-14.000031"
       id="guide4199" />
  </sodipodi:namedview>
  <metadata
     id="metadata5458">
    <rdf:RDF>
      <cc:Work
         rdf:about="">
        <dc:format>image/svg+xml</dc:format>
        <dc:type
           rdf:resource="http://purl.org/dc/dcmitype/StillImage" />
        <dc:title></dc:title>
      </cc:Work>
    </rdf:RDF>
  </metadata>
  <g
     inkscape:label="Capa 1"
     inkscape:groupmode="layer"
     id="layer1"
     transform="translate(-384.57143,-499.798)">
    <g
       style="display:inline;enable-background:new"
       id="g4238"
       transform="translate(225.81911,462.44565)">
      <g
         style="display:inline"
         id="layer1-8"
         transform="matrix(0.22655187,0,0,0.22655187,106.94841,54.31088)">
        <g
           style="display:none"
           id="layer6" />
        <g
           id="g4027" />
        <g
           id="g4061" />
        <g
           id="g3751" />
        <g
           id="g3782" />
        <g
           id="g3725" />
        <g
           id="g4370"
           transform="matrix(4.4140002,0,0,4.4140002,59.275211,39.357303)">
          <g
             id="g4184"
             transform="translate(44.999998,14.999999)">
            <circle
               r="24.000002"
               cy="-16.875"
               cx="17.375002"
               id="path4217"
               style="opacity:1;fill:url(#linearGradient5299);fill-opacity:1;stroke:none;stroke-width:15.44461155;stroke-linecap:round;stroke-linejoin:round;stroke-miterlimit:4;stroke-dasharray:none;stroke-opacity:1" />
            <path
               style="fill:#000000;fill-opacity:0.75"
               id="path5"
               d="m 19.305999,-24.530001 c -0.282,-2.796 -2.735,-5.198 -5.341,-5.198 -2.662,0 -5.1089997,0.921 -7.0569997,2.451 -0.517,-0.016 -1.108,0.041 -1.725,0.189 -1.737,0.415 -3.001,1.357 -2.823,2.104 0.118,0.495 0.844,0.774 1.819,0.79 -1.05,1.73 -1.666,3.751 -1.666,5.918 0,4.196 2.277,7.855 5.652,9.8460004 -0.336,0.364 -0.645,0.874 -0.861,1.484 -0.48,1.355 -0.318,2.6459996 0.359,2.8849996 0.677,0.24 1.613,-0.664 2.093,-2.0179996 0.102,-0.292 0.17,-0.579 0.215,-0.855 0.2659997,0.088 0.5509997,0.162 0.8569997,0.206 1.422,0.205 2.657,-0.205 2.76,-0.916 0.102,-0.71 -0.966,-1.454 -2.389,-1.659 -0.609,-0.088 -1.179,-0.058 -1.6449997,0.056 -0.021,-0.074 -0.858,-1.5960004 -0.931,-2.7770004 -0.094,-1.537 0.364,-3.055 1.361,-4.227 0.3899997,-0.456 0.8589997,-0.823 1.3589997,-1.135 -0.09,1.204 0.189,2.143 0.757,2.285 0.745,0.187 1.701,-1.068 2.135,-2.799 0.037,-0.149 0.064,-0.295 0.091,-0.441 l 0.396,-0.069 c 2.811,-0.597 4.881,-3.182 4.584,-6.12 z"
               inkscape:connector-curvature="0" />
            <path
               style="fill:#000000;fill-opacity:0.75"
               id="path7"
               d="m 15.442999,-9.2200006 c 0.282,2.796 2.735,5.1979996 5.341,5.1979996 2.662,0 5.109,-0.921 7.057,-2.4509996 0.518,0.016 1.108,-0.041 1.726,-0.188 1.737,-0.415 3.001,-1.358 2.823,-2.105 -0.118,-0.495 -0.844,-0.774 -1.819,-0.79 1.05,-1.7300004 1.666,-3.7500004 1.666,-5.9170004 0,-4.196 -2.277,-7.855 -5.652,-9.846 0.336,-0.364 0.646,-0.874 0.861,-1.484 0.479,-1.355 0.318,-2.646 -0.359,-2.885 -0.677,-0.24 -1.613,0.664 -2.093,2.018 -0.102,0.292 -0.17,0.579 -0.215,0.854 -0.266,-0.088 -0.551,-0.162 -0.857,-0.206 -1.422,-0.205 -2.657,0.205 -2.76,0.916 -0.102,0.71 0.966,1.454 2.389,1.659 0.609,0.088 1.179,0.058 1.646,-0.056 0.021,0.074 0.858,1.596 0.931,2.777 0.094,1.537 -0.364,3.055 -1.361,4.227 -0.39,0.457 -0.858,0.825 -1.358,1.137 0.09,-1.204 -0.188,-2.143 -0.757,-2.285 -0.745,-0.186 -1.701,1.068 -2.135,2.799 -0.037,0.149 -0.064,0.295 -0.091,0.441 l -0.396,0.069 c -2.815,0.595 -4.884,3.181 -4.587,6.1180004 z"
               inkscape:connector-curvature="0" />
          </g>
        </g>
      </g>
    </g>
  </g>
</svg>
