<?xml version="1.0" encoding="UTF-8" standalone="no"?>
<!-- Created with Inkscape (http://www.inkscape.org/) -->

<svg
   xmlns:osb="http://www.openswatchbook.org/uri/2009/osb"
   xmlns:dc="http://purl.org/dc/elements/1.1/"
   xmlns:cc="http://creativecommons.org/ns#"
   xmlns:rdf="http://www.w3.org/1999/02/22-rdf-syntax-ns#"
   xmlns:svg="http://www.w3.org/2000/svg"
   xmlns="http://www.w3.org/2000/svg"
   xmlns:xlink="http://www.w3.org/1999/xlink"
   xmlns:sodipodi="http://sodipodi.sourceforge.net/DTD/sodipodi-0.dtd"
   xmlns:inkscape="http://www.inkscape.org/namespaces/inkscape"
   width="48"
   height="48"
   id="svg5453"
   version="1.1"
   inkscape:version="0.91 r13725"
   sodipodi:docname="cxmenu-cxoffice-0-cxreset.svg">
  <defs
     id="defs5455">
    <linearGradient
       inkscape:collect="always"
       xlink:href="#linearGradient4422"
       id="linearGradient4265"
       x1="414.54227"
       y1="539.21088"
       x2="414.54227"
       y2="514.12292"
       gradientUnits="userSpaceOnUse"
       gradientTransform="matrix(0.83333285,0,0,0.83333285,68.095439,87.299917)" />
    <linearGradient
       inkscape:collect="always"
       xlink:href="#linearGradient4422-2"
       id="linearGradient4273"
       x1="419.08838"
       y1="533.99121"
       x2="419.08838"
       y2="508.0614"
       gradientUnits="userSpaceOnUse"
       gradientTransform="matrix(0.83333285,0,0,0.83333285,68.095439,87.299917)" />
    <linearGradient
       id="linearGradient4180">
      <stop
         id="stop4182"
         offset="0"
         style="stop-color:#e7e7e7;stop-opacity:1" />
      <stop
         id="stop4184"
         offset="1"
         style="stop-color:#fcfcfc;stop-opacity:1" />
    </linearGradient>
    <style
       id="current-color-scheme"
       type="text/css">.ColorScheme-Text {
        color:#31363b;
      }
      .ColorScheme-Background{
        color:#eff0f1;
      }
      .ColorScheme-ViewText {
        color:#31363b;
      }
      .ColorScheme-ViewBackground{
        color:#fcfcfc;
      }
      .ColorScheme-ViewHover {
        color:#3daee9;
      }
      .ColorScheme-ViewFocus{
        color:#3daee9;
      }
      .ColorScheme-ButtonText {
        color:#31363b;
      }
      .ColorScheme-ButtonBackground{
        color:#eff0f1;
      }
      .ColorScheme-ButtonHover {
        color:#3daee9;
      }
      .ColorScheme-ButtonFocus{
        color:#3daee9;
      }</style>
    <style
       id="current-color-scheme-8"
       type="text/css">.ColorScheme-Text {
        color:#31363b;
      }
      .ColorScheme-Background{
        color:#eff0f1;
      }
      .ColorScheme-ViewText {
        color:#31363b;
      }
      .ColorScheme-ViewBackground{
        color:#fcfcfc;
      }
      .ColorScheme-ViewHover {
        color:#3daee9;
      }
      .ColorScheme-ViewFocus{
        color:#3daee9;
      }
      .ColorScheme-ButtonText {
        color:#31363b;
      }
      .ColorScheme-ButtonBackground{
        color:#eff0f1;
      }
      .ColorScheme-ButtonHover {
        color:#3daee9;
      }
      .ColorScheme-ButtonFocus{
        color:#3daee9;
      }</style>
    <style
       id="current-color-scheme-7"
       type="text/css">.ColorScheme-Text {
        color:#31363b;
      }
      .ColorScheme-Background{
        color:#eff0f1;
      }
      .ColorScheme-ViewText {
        color:#31363b;
      }
      .ColorScheme-ViewBackground{
        color:#fcfcfc;
      }
      .ColorScheme-ViewHover {
        color:#3daee9;
      }
      .ColorScheme-ViewFocus{
        color:#3daee9;
      }
      .ColorScheme-ButtonText {
        color:#31363b;
      }
      .ColorScheme-ButtonBackground{
        color:#eff0f1;
      }
      .ColorScheme-ButtonHover {
        color:#3daee9;
      }
      .ColorScheme-ButtonFocus{
        color:#3daee9;
      }</style>
    <linearGradient
       osb:paint="gradient"
       id="linearGradient4207">
      <stop
         id="stop3371"
         offset="0"
         style="stop-color:#3498db;stop-opacity:1;" />
      <stop
         id="stop3373"
         offset="1"
         style="stop-color:#3498db;stop-opacity:0;" />
    </linearGradient>
    <linearGradient
       gradientTransform="matrix(2.6666671,0,0,2.6666681,-680.95261,-872.99745)"
       inkscape:collect="always"
       xlink:href="#linearGradient4180"
       id="linearGradient4191"
       x1="408.57144"
       y1="532.79797"
       x2="408.57144"
       y2="514.79797"
       gradientUnits="userSpaceOnUse" />
    <linearGradient
       id="linearGradient4422">
      <stop
         id="stop4424"
         offset="0"
         style="stop-color:#197ff1;stop-opacity:1" />
      <stop
         id="stop4426"
         offset="1"
         style="stop-color:#21c6fb;stop-opacity:1" />
    </linearGradient>
    <linearGradient
       id="linearGradient4422-2">
      <stop
         style="stop-color:#ff9300;stop-opacity:1"
         offset="0"
         id="stop4424-9" />
      <stop
         style="stop-color:#ffd702;stop-opacity:1"
         offset="1"
         id="stop4426-7" />
    </linearGradient>
    <linearGradient
       gradientTransform="matrix(0.2889496,0,0,0.28894958,47.406981,786.20848)"
       inkscape:collect="always"
       xlink:href="#linearGradient4454"
       id="linearGradient4155-9-8-4"
       x1="371.47604"
       y1="473.93784"
       x2="371.47604"
       y2="253.9286"
       gradientUnits="userSpaceOnUse" />
    <linearGradient
       inkscape:collect="always"
       id="linearGradient4454">
      <stop
         style="stop-color:#eb4646;stop-opacity:1"
         offset="0"
         id="stop4456" />
      <stop
         style="stop-color:#ff8651;stop-opacity:1"
         offset="1"
         id="stop4458" />
    </linearGradient>
  </defs>
  <sodipodi:namedview
     id="base"
     pagecolor="#3f3f3f"
     bordercolor="#666666"
     borderopacity="1.0"
     inkscape:pageopacity="0"
     inkscape:pageshadow="2"
     inkscape:zoom="5.9391088"
     inkscape:cx="2.7135032"
     inkscape:cy="15.900532"
     inkscape:document-units="px"
     inkscape:current-layer="layer1"
     showgrid="false"
     fit-margin-top="0"
     fit-margin-left="0"
     fit-margin-right="0"
     fit-margin-bottom="0"
     inkscape:window-width="1366"
     inkscape:window-height="687"
     inkscape:window-x="0"
     inkscape:window-y="0"
     inkscape:window-maximized="1"
     inkscape:showpageshadow="false"
     borderlayer="true"
     showguides="false">
    <inkscape:grid
       type="xygrid"
       id="grid3781" />
  </sodipodi:namedview>
  <metadata
     id="metadata5458">
    <rdf:RDF>
      <cc:Work
         rdf:about="">
        <dc:format>image/svg+xml</dc:format>
        <dc:type
           rdf:resource="http://purl.org/dc/dcmitype/StillImage" />
        <dc:title></dc:title>
      </cc:Work>
    </rdf:RDF>
  </metadata>
  <g
     inkscape:label="Capa 1"
     inkscape:groupmode="layer"
     id="layer1"
     transform="translate(-384.57143,-499.798)">
    <rect
       ry="23.999998"
       y="499.798"
       x="384.57144"
       height="48"
       width="48"
       id="rect4211"
       style="opacity:1;fill:url(#linearGradient4191);fill-opacity:1;stroke:none" />
    <g
       id="g4254"
       transform="matrix(1.2467541,0,0,1.2467541,-100.81668,-129.2493)">
      <path
         id="path4079"
         d="m 409.69004,510.96467 c 14.07732,17.11125 10.18727,23.849 -11.67017,20.2133 14.67048,-0.51368 18.56053,-7.25145 11.67017,-20.2133 z"
         style="fill:url(#linearGradient4273);fill-opacity:1.0"
         inkscape:connector-curvature="0" />
      <path
         id="path4081"
         d="m 408.71719,515.45502 c -10.38865,0.17471 -12.26536,5.25034 -5.68915,15.2197 0.61977,-0.10847 1.21324,-0.22255 1.77482,-0.36469 -2.51272,-8.83675 2.25855,-13.48454 14.32013,-13.90681 -4.09826,-0.68171 -7.57086,-0.99589 -10.4058,-0.9482 z m -4.83821,16.48397 c 1.02748,1.46475 2.20827,3.03233 3.57395,4.69233 -0.86131,-1.62022 -1.56647,-3.14505 -2.09089,-4.57077 -0.47867,-0.0287 -0.97703,-0.0771 -1.48306,-0.12156 z"
         style="fill:url(#linearGradient4265);fill-opacity:1.0"
         inkscape:connector-curvature="0" />
    </g>
    <g
       transform="matrix(0.28166564,0,0,0.28166564,338.77475,289.73177)"
       id="g4173">
      <circle
         r="35.590355"
         style="opacity:1;fill:url(#linearGradient4155-9-8-4);fill-opacity:1.0;stroke:none;stroke-width:5.23831511;stroke-linecap:butt;stroke-linejoin:miter;stroke-miterlimit:4;stroke-dasharray:none;stroke-dashoffset:0;stroke-opacity:1"
         id="path3340-8-9-5"
         cx="153.7587"
         cy="892.16669"
         transform="matrix(0.997548,0,0,0.997548,143.52949,-9.631395)" />
      <path
         style="clip-rule:evenodd;fill:#ffffff;fill-opacity:0.93401017;fill-rule:evenodd;stroke-width:1.31742239;stroke-miterlimit:4;stroke-dasharray:none"
         d="m 320.66323,878.07988 c -0.0761,-0.67622 -0.86452,-1.18437 -1.54629,-1.18437 -2.20426,0 -4.16026,-1.29428 -4.98057,-3.29592 -0.83803,-2.05015 -0.29766,-4.4411 1.34511,-5.94801 0.5171,-0.47271 0.57993,-1.26403 0.14623,-1.8137 -1.12817,-1.43264 -2.41045,-2.72673 -3.81051,-3.84828 -0.54825,-0.43996 -1.35263,-0.37875 -1.82802,0.14766 -1.43371,1.58782 -4.00902,2.17795 -5.99903,1.34762 -2.07091,-0.87115 -3.37682,-2.96962 -3.24902,-5.22221 0.0421,-0.70755 -0.47503,-1.32273 -1.18043,-1.40489 -1.7967,-0.20781 -3.60915,-0.21425 -5.41122,-0.0143 -0.69735,0.077 -1.21445,0.67766 -1.191,1.37625 0.0784,2.23039 -1.24326,4.29218 -3.29359,5.132 -1.9662,0.80313 -4.52343,0.21801 -5.95427,-1.35567 -0.4729,-0.51835 -1.26421,-0.58208 -1.81514,-0.15268 -1.44158,1.13104 -2.75268,2.42621 -3.89124,3.84703 -0.44407,0.55236 -0.37874,1.35298 0.14355,1.8282 1.67409,1.51604 2.21464,3.92775 1.34493,6.00153 -0.83033,1.97712 -2.88334,3.25135 -5.23366,3.25135 -0.76267,-0.0245 -1.30591,0.48738 -1.38932,1.18079 -0.21156,1.80708 -0.21407,3.64835 -0.0104,5.47011 0.0755,0.67909 0.88797,1.18276 1.57726,1.18276 2.09454,-0.0535 4.10549,1.24326 4.94907,3.2961 0.84089,2.05015 0.30034,4.43966 -1.34493,5.94783 -0.5146,0.47271 -0.57993,1.26277 -0.14624,1.81245 1.11761,1.4235 2.40007,2.71885 3.80514,3.84971 0.55111,0.44407 1.35299,0.38143 1.83071,-0.14499 1.43908,-1.59175 4.01421,-2.18081 5.99634,-1.34887 2.0761,0.86846 3.38201,2.96676 3.25421,5.2206 -0.0417,0.7079 0.4779,1.32417 1.18044,1.40507 0.91911,0.10722 1.84377,0.16073 2.77094,0.16073 0.88009,0 1.76036,-0.0483 2.64046,-0.14624 0.69752,-0.077 1.21426,-0.67765 1.19081,-1.3775 -0.0807,-2.22914 1.24327,-4.29093 3.29091,-5.12931 1.97945,-0.8085 4.52594,-0.21675 5.95696,1.35531 0.47557,0.51728 1.26134,0.57974 1.81531,0.15179 1.4389,-1.12836 2.74732,-2.42245 3.89124,-3.84721 0.4439,-0.55111 0.38125,-1.35299 -0.14372,-1.82802 -1.67409,-1.51605 -2.21733,-3.92811 -1.34762,-6.00046 0.81763,-1.95081 2.79439,-3.26065 4.92061,-3.26065 l 0.29748,0.008 c 0.68965,0.056 1.32417,-0.47522 1.40776,-1.17919 0.21193,-1.80869 0.21442,-3.64835 0.0108,-5.4701 z m -23.86381,10.74476 c -4.42427,0 -8.02304,-3.59877 -8.02304,-8.02304 0,-4.42409 3.59877,-8.02304 8.02304,-8.02304 4.42409,0 8.02286,3.59895 8.02286,8.02304 0,4.42427 -3.59877,8.02304 -8.02286,8.02304 z"
         id="path6"
         inkscape:connector-curvature="0" />
    </g>
  </g>
</svg>
