<?xml version="1.0" encoding="UTF-8" standalone="no"?>
<!-- Created with Inkscape (http://www.inkscape.org/) -->

<svg
   xmlns:dc="http://purl.org/dc/elements/1.1/"
   xmlns:cc="http://creativecommons.org/ns#"
   xmlns:rdf="http://www.w3.org/1999/02/22-rdf-syntax-ns#"
   xmlns:svg="http://www.w3.org/2000/svg"
   xmlns="http://www.w3.org/2000/svg"
   xmlns:xlink="http://www.w3.org/1999/xlink"
   xmlns:sodipodi="http://sodipodi.sourceforge.net/DTD/sodipodi-0.dtd"
   xmlns:inkscape="http://www.inkscape.org/namespaces/inkscape"
   width="48"
   height="48"
   id="svg5453"
   version="1.1"
   inkscape:version="0.91 r13725"
   sodipodi:docname="darktable.svg">
  <defs
     id="defs5455">
    <linearGradient
       inkscape:collect="always"
       xlink:href="#linearGradient4422-3"
       id="linearGradient4503-8"
       gradientUnits="userSpaceOnUse"
       gradientTransform="matrix(0.84205396,0,0,0.84205396,-307.81647,-432.92729)"
       x1="407.84555"
       y1="531.8902"
       x2="407.50513"
       y2="509.97705" />
    <linearGradient
       id="linearGradient4422-3">
      <stop
         id="stop4424-3"
         offset="0"
         style="stop-color:#197ff1;stop-opacity:1" />
      <stop
         id="stop4426-64"
         offset="1"
         style="stop-color:#21c6fb;stop-opacity:1" />
    </linearGradient>
    <linearGradient
       inkscape:collect="always"
       xlink:href="#linearGradient8311-1-1"
       id="linearGradient4501-7"
       gradientUnits="userSpaceOnUse"
       gradientTransform="matrix(0.66161439,0,0,0.66161439,-234.09401,-339.13522)"
       x1="398.30478"
       y1="509.53143"
       x2="419.77139"
       y2="530.99805" />
    <linearGradient
       id="linearGradient8311-1-1">
      <stop
         offset="0"
         style="stop-color:#222c35;stop-opacity:1"
         id="stop8313-9-9" />
      <stop
         offset="1"
         style="stop-color:#545e67;stop-opacity:1"
         id="stop8315-5-8" />
    </linearGradient>
    <linearGradient
       inkscape:collect="always"
       xlink:href="#linearGradient8311-1-1"
       id="linearGradient4499-3"
       gradientUnits="userSpaceOnUse"
       gradientTransform="matrix(-0.84205396,0,0,-0.84205396,380.26193,442.46861)"
       x1="408.52423"
       y1="506.48495"
       x2="409.26617"
       y2="533.19501" />
    <linearGradient
       inkscape:collect="always"
       xlink:href="#linearGradient8467-5"
       id="linearGradient4497-5"
       gradientUnits="userSpaceOnUse"
       gradientTransform="matrix(0.70094185,0,0,0.8641737,-251.1872,-444.49932)"
       x1="391.57144"
       y1="531.79797"
       x2="390.87775"
       y2="507.6731" />
    <linearGradient
       id="linearGradient8467-5">
      <stop
         id="stop8469-7"
         style="stop-color:#d3d3d3;stop-opacity:1"
         offset="0" />
      <stop
         id="stop8471-0"
         style="stop-color:#fcf9f9;stop-opacity:1"
         offset="1" />
    </linearGradient>
    <linearGradient
       inkscape:collect="always"
       xlink:href="#linearGradient8311-1-1"
       id="linearGradient6593-6"
       x1="369.00659"
       y1="514.79236"
       x2="369.00659"
       y2="509.61096"
       gradientUnits="userSpaceOnUse"
       gradientTransform="matrix(0.64702398,0,0,0.64702398,-218.29239,-333.4958)" />
    <linearGradient
       inkscape:collect="always"
       xlink:href="#linearGradient8311-1-1"
       id="linearGradient4494-1"
       gradientUnits="userSpaceOnUse"
       gradientTransform="matrix(0.64702398,0,0,0.64702398,-252.88954,-331.42746)"
       x1="428.57144"
       y1="504.798"
       x2="428.36069"
       y2="501.38693" />
    <linearGradient
       gradientTransform="matrix(0.50968749,0,0,0.50968749,-319.58725,-245.54174)"
       gradientUnits="userSpaceOnUse"
       y2="427.53772"
       x2="543.74268"
       y1="484.80768"
       x1="543.94849"
       id="linearGradient4496"
       xlink:href="#linearGradient9017"
       inkscape:collect="always" />
    <linearGradient
       id="linearGradient9017">
      <stop
         offset="0"
         style="stop-color:#0ba97d;stop-opacity:1"
         id="stop9019" />
      <stop
         offset="1"
         style="stop-color:#11e19b;stop-opacity:1"
         id="stop9021" />
    </linearGradient>
    <linearGradient
       gradientTransform="matrix(0.50968749,0,0,0.50968749,-318.11509,-247.81856)"
       gradientUnits="userSpaceOnUse"
       y2="421.86777"
       x2="555.29846"
       y1="470.48056"
       x1="556.43549"
       id="linearGradient4496-9"
       xlink:href="#linearGradient4422-3"
       inkscape:collect="always" />
  </defs>
  <sodipodi:namedview
     id="base"
     pagecolor="#ffffff"
     bordercolor="#666666"
     borderopacity="1.0"
     inkscape:pageopacity="0"
     inkscape:pageshadow="2"
     inkscape:zoom="4"
     inkscape:cx="-39.601104"
     inkscape:cy="15.968792"
     inkscape:document-units="px"
     inkscape:current-layer="g4370"
     showgrid="true"
     fit-margin-top="0"
     fit-margin-left="0"
     fit-margin-right="0"
     fit-margin-bottom="0"
     inkscape:window-width="1366"
     inkscape:window-height="634"
     inkscape:window-x="0"
     inkscape:window-y="36"
     inkscape:window-maximized="1"
     inkscape:showpageshadow="false"
     borderlayer="true"
     showguides="false">
    <inkscape:grid
       type="xygrid"
       id="grid4063" />
    <sodipodi:guide
       position="1.1650391e-05,32.000026"
       orientation="32,0"
       id="guide4157" />
    <sodipodi:guide
       position="1.1650391e-05,2.6367188e-05"
       orientation="0,32"
       id="guide4159" />
    <sodipodi:guide
       position="32.000012,2.6367188e-05"
       orientation="-32,0"
       id="guide4161" />
    <sodipodi:guide
       position="32.000012,32.000026"
       orientation="0,-32"
       id="guide4163" />
    <sodipodi:guide
       position="2.0000117,30.000026"
       orientation="28,0"
       id="guide4167" />
    <sodipodi:guide
       position="2.0000117,2.0000264"
       orientation="0,28"
       id="guide4169" />
    <sodipodi:guide
       position="30.000012,2.0000264"
       orientation="-28,0"
       id="guide4171" />
    <sodipodi:guide
       position="30.000012,30.000026"
       orientation="0,-28"
       id="guide4173" />
    <sodipodi:guide
       position="2.0000117,30.000026"
       orientation="28,0"
       id="guide4181" />
    <sodipodi:guide
       position="2.0000117,2.0000264"
       orientation="0,14"
       id="guide4183" />
    <sodipodi:guide
       position="16.000012,2.0000264"
       orientation="-28,0"
       id="guide4185" />
    <sodipodi:guide
       position="16.000012,30.000026"
       orientation="0,-14"
       id="guide4187" />
    <sodipodi:guide
       position="9.0000117,23.000026"
       orientation="14,0"
       id="guide4193" />
    <sodipodi:guide
       position="9.0000117,9.0000264"
       orientation="0,14.000031"
       id="guide4195" />
    <sodipodi:guide
       position="23.000042,9.0000264"
       orientation="-14,0"
       id="guide4197" />
    <sodipodi:guide
       position="23.000042,23.000026"
       orientation="0,-14.000031"
       id="guide4199" />
  </sodipodi:namedview>
  <metadata
     id="metadata5458">
    <rdf:RDF>
      <cc:Work
         rdf:about="">
        <dc:format>image/svg+xml</dc:format>
        <dc:type
           rdf:resource="http://purl.org/dc/dcmitype/StillImage" />
        <dc:title></dc:title>
      </cc:Work>
    </rdf:RDF>
  </metadata>
  <g
     inkscape:label="Capa 1"
     inkscape:groupmode="layer"
     id="layer1"
     transform="translate(-384.57143,-499.798)">
    <g
       style="display:inline;enable-background:new"
       id="g4238"
       transform="translate(225.81911,462.44565)">
      <g
         style="display:inline"
         id="layer1-8"
         transform="matrix(0.22655187,0,0,0.22655187,106.94841,54.31088)">
        <g
           style="display:none"
           id="layer6" />
        <g
           id="g4027" />
        <g
           id="g4061" />
        <g
           id="g3751" />
        <g
           id="g3782" />
        <g
           id="g3725" />
        <g
           id="g4370"
           transform="matrix(4.4140002,0,0,4.4140002,59.275211,39.357303)">
          <g
             id="g4240"
             transform="translate(19.999999,4.9999992)">
            <rect
               ry="1.1722813"
               y="-30.455147"
               x="-61.101765"
               height="30.064716"
               width="39.148827"
               id="rect4473-3"
               style="opacity:1;fill:url(#linearGradient4496-9);fill-opacity:1;stroke:none;stroke-width:2.6671834;stroke-linecap:round;stroke-linejoin:round;stroke-miterlimit:4;stroke-dasharray:none;stroke-opacity:1"
               transform="matrix(-0.99998029,-0.00627816,-0.00627816,0.99998029,0,0)" />
            <rect
               ry="1.1722811"
               y="-28.178316"
               x="-62.573929"
               height="30.064716"
               width="39.148827"
               id="rect4473"
               style="opacity:1;fill:url(#linearGradient4496);fill-opacity:1;stroke:none;stroke-width:2.6671834;stroke-linecap:round;stroke-linejoin:round;stroke-miterlimit:4;stroke-dasharray:none;stroke-opacity:1"
               transform="matrix(-0.98432173,-0.17638237,-0.17638237,0.98432173,0,0)" />
            <path
               inkscape:connector-curvature="0"
               style="fill:#000000;fill-opacity:0.66129037"
               d="m 61.84547,5.5467799 1.481589,-9.287765 0.475546,-3.276806 c 0.0389,-0.09652 0.104896,-0.29181 0.05374,-0.503457 -0.06274,-0.236294 -0.269585,-0.422755 -0.410682,-0.537482 0.08922,-0.635287 0.125212,-1.099335 0.05639,-1.112535 -0.06686,-0.01282 -0.207528,0.422994 -0.353775,1.047345 -0.172776,0.05045 -0.443307,0.153512 -0.591733,0.353386 -0.127791,0.177327 -0.130864,0.38469 -0.1324,0.488371 l -2.832945,12.400678 -2.330203,-0.446905 1.494465,-9.397427 c 0,0 0.07688,-0.358346 0.03483,-0.511161 -0.04092,-0.158715 -0.158874,-0.277159 -0.264413,-0.364678 0.121761,-0.741178 0.16904,-1.317231 0.100216,-1.330431 -0.07669,-0.01471 -0.238937,0.522985 -0.400485,1.248378 -0.133232,0.03561 -0.318776,0.110117 -0.430325,0.2559 -0.08774,0.127925 -0.156751,0.487779 -0.156751,0.487779 l -2.079703,9.281108 -2.021476,-0.387696 1.282261,-6.685817 -0.173206,-0.05361 0.243629,-1.270305 -1.254574,-0.240613 -0.21723,1.132656 -1.19014,-0.236409 -0.137649,-0.0264 0.37261,-1.94282 -0.410981,-0.07882 c 0.02624,-0.158068 0.04709,-0.500655 -0.177726,-0.922979 -0.211643,-0.395333 -0.59757,-0.732348 -0.832246,-0.911913 0.151124,-0.851755 0.195171,-1.53852 0.08702,-1.559262 -0.10422,-0.01999 -0.314281,0.628821 -0.49377,1.469019 -0.276296,0.06934 -0.785842,0.238686 -1.152541,0.545525 -0.07491,0.06107 -0.139536,0.132261 -0.191687,0.191577 l 0.06298,-0.328392 -0.540764,-0.103712 c 0.230584,-0.139264 2.333073,-1.524012 2.395554,-3.4549549 0.06167,-1.884206 -1.512045,-3.35219 -2.734771,-4.630533 -0.846901,-0.878026 -1.279913,-1.458527 -1.48167,-1.894777 l -0.03933,-0.0075 c 0.05299,-0.201867 0.104223,-0.426496 0.149102,-0.6605 0.161414,-0.841626 0.192451,-1.534964 0.110159,-1.711808 l 0.0019,-0.0098 c -0.01824,-0.02185 -0.0209,-0.06109 -0.03663,-0.06411 l -0.0039,-7.54e-4 -0.0039,-7.54e-4 c -0.0098,-0.0019 -0.03311,0.03443 -0.05185,0.04714 l -0.0019,0.0098 c -0.151711,0.131964 -0.369558,0.789474 -0.530972,1.6311 -0.04488,0.234004 -0.0816,0.45734 -0.105841,0.668798 l -0.04326,-0.0083 c -0.344907,0.331406 -0.965894,0.709762 -2.079511,1.211784 -1.60657,0.733678 -3.608175,1.517996 -4.249563,3.288981 -0.656339,1.817048 0.786621,3.8817719 0.947354,4.0960849 l -0.542731,-0.104089 -0.06336,0.330358 c -0.03278,-0.07357 -0.0602,-0.164452 -0.109552,-0.247312 -0.220883,-0.421569 -0.639108,-0.770894 -0.864625,-0.934432 0.151959,-0.8454789 0.189352,-1.5294419 0.08513,-1.5494299 -0.108153,-0.02074 -0.318133,0.638276 -0.497999,1.4804409 -0.283246,0.08431 -0.768818,0.256221 -1.107772,0.545956 -0.365109,0.309183 -0.471729,0.631244 -0.506587,0.791736 l -0.412948,-0.0792 -0.368838,1.923155 -1.334201,-0.22938 0.21723,-1.132656 -1.258506,-0.241367 -0.24363,1.270305 -0.17485,-0.01315 -1.28226,6.685816 -2.027376,-0.388826 1.503543,-9.391609 c 0,0 0.06902,-0.3598539 0.03287,-0.5115379 -0.04773,-0.176331 -0.196478,-0.314952 -0.305116,-0.396949 0.12222,-0.732935 0.166482,-1.293257 0.09176,-1.307588 -0.07669,-0.01471 -0.241954,0.538717 -0.399111,1.273106 -0.132397,0.04189 -0.287772,0.107908 -0.382538,0.240601 -0.09401,0.128759 -0.160684,0.487024 -0.160684,0.487024 l -2.083708,9.2803209 -2.328237,-0.446528 1.955545,-12.5669149 c 0.0389,-0.09652 0.110795,-0.290679 0.05571,-0.503079 -0.06039,-0.237884 -0.273598,-0.433719 -0.417415,-0.54489 0.09512,-0.634156 0.127636,-1.090716 0.05881,-1.103915 -0.06686,-0.01282 -0.210249,0.42655 -0.353317,1.055587 -0.179429,0.05325 -0.439832,0.146024 -0.585915,0.344308 -0.127791,0.177327 -0.136763,0.383559 -0.134366,0.487994 l -0.771264,3.224168 -2.059714,9.1768879 -0.723642,-0.138786 -1.361216,7.4886316 37.620995,6.9894445 c 1.723682,0.381408 1.797919,-1.563868 1.797919,-1.563868 L 62.568355,5.6894985 61.844714,5.5507129 Z m -17.203667,-3.33412 -3.148233,-0.603794 0.639244,-3.333076 c 0,0 0.153899,-0.898114 1.014466,-1.271296 0.368288,-0.155668 0.639223,-0.207682 0.891678,-0.163341 0.250947,0.05221 0.487348,0.201521 0.771911,0.482397 0.659473,0.664709 0.470178,1.556034 0.470178,1.556034 z"
               id="path5"
               sodipodi:nodetypes="cccccsccccccccsccccccccccccccccscccccccccsccscsccscccccccccscccccccccccccccsccccccccscccccccccccccccccccc" />
            <rect
               ry="0.64702398"
               style="opacity:1;fill:url(#linearGradient4494-1);fill-opacity:1;stroke:none"
               id="rect4200-3-6"
               width="3.882134"
               height="1.9410794"
               x="21.818398"
               y="-6.7521195" />
            <rect
               style="opacity:1;fill:url(#linearGradient4497-5);fill-opacity:1;stroke:none;stroke-width:2;stroke-linecap:round;stroke-linejoin:round;stroke-miterlimit:4;stroke-dasharray:none;stroke-opacity:1"
               id="rect4288-3-4"
               width="33.645248"
               height="20.740152"
               x="18.375"
               y="-5.6736155"
               ry="0.97053599" />
            <path
               id="path4286-9-6-5-3"
               d="m 24.433995,4.7706489 a 11.788733,11.788733 0 0 1 11.78873,-11.78873 11.788733,11.788733 0 0 1 11.78873,11.78873 A 11.788733,11.788733 0 0 1 36.222725,16.559387 11.788733,11.788733 0 0 1 24.433995,4.7706489 Z"
               style="opacity:1;fill:url(#linearGradient4499-3);fill-opacity:1;stroke:none;stroke-width:0.24347784;stroke-linecap:round;stroke-linejoin:round;stroke-miterlimit:4;stroke-dasharray:none;stroke-opacity:1"
               inkscape:connector-curvature="0" />
            <circle
               r="9.2625837"
               cy="4.7706652"
               cx="36.222778"
               id="path4286-9-4-4-4-7"
               style="opacity:1;fill:url(#linearGradient4501-7);fill-opacity:1;stroke:none;stroke-width:2;stroke-linecap:round;stroke-linejoin:round;stroke-miterlimit:4;stroke-dasharray:none;stroke-opacity:1" />
            <circle
               cx="36.222778"
               cy="4.7706652"
               r="8.4205303"
               style="opacity:1;fill:url(#linearGradient4503-8);fill-opacity:1;stroke:none;stroke-width:2;stroke-linecap:round;stroke-linejoin:round;stroke-miterlimit:4;stroke-dasharray:none;stroke-opacity:1"
               id="circle4309-9-4-6" />
            <circle
               style="opacity:1;fill:url(#linearGradient6593-6);fill-opacity:1;fill-rule:evenodd;stroke:none;stroke-width:0.2;stroke-linecap:round;stroke-linejoin:round;stroke-miterlimit:4;stroke-dasharray:none;stroke-dashoffset:0;stroke-opacity:1"
               id="path6585-9"
               cx="22.139992"
               cy="-2.0890377"
               r="1.6762396" />
          </g>
        </g>
      </g>
    </g>
  </g>
</svg>
