<svg xmlns="http://www.w3.org/2000/svg" viewBox="0 0 48 48"><defs><filter color-interpolation-filters="sRGB"><feGaussianBlur stdDeviation="1.71"/></filter><linearGradient gradientUnits="userSpaceOnUse" y2="1010.38" x2="83.34" y1="1057.77" x1="83.64" id="1"><stop stop-color="#d3d3d3"/><stop stop-color="#fcf9f9" offset="1"/></linearGradient><linearGradient y1="92.54" x2="0" y2="7.02" gradientUnits="userSpaceOnUse" gradientTransform="matrix(1.0059 0 0 .99417 119.23 972.7)"><stop/><stop offset="1" stop-opacity=".588"/></linearGradient><linearGradient id="0" x1="42.535" y1="57.14" x2="41.721" y2="6.494" gradientUnits="userSpaceOnUse"><stop stop-color="#212121"/><stop stop-color="#3f3f41" offset="1"/></linearGradient></defs><g transform="translate(-19.348-8.325)"><rect rx="2.982" y="8.325" x="19.348" height="48" width="48" fill="url(#0)" fill-rule="evenodd" stroke-width="1" enable-background="new"/><path d="m87.56 1013.85l-6.864.114-1.396 1.05.116.114-4.537.114.349-.467-10.354-.233-.116.7-.116 1.05.698 1.283-.349 2.683-.582 2.333.349 2.216.116 1.75.698 2.333-.233 1.166.116 1.283.814.934.233 1.517-1.512.583.233 4.666.931.7-.582 4.083-.465.233-.349 7.816.411-.055.989.204c0 0 1.193.414 1.44.496.247.081.614-.372.614-.372h.989l.822-.165.454.208.411-.041 1.029-.078.491-.208.207.496.164-.119.454-.208.945-.078.204.288c0 0 1.152.119 1.563.119.411 0 .331-.332.331-.332 0 0 .122-.037.327.168.206.206.494-.08.494-.08l.411-.208.291.292.287.204.782-.163h1.272l.291-.081 1.193 1.691.08-.864h1.934c.165 0 .084.576.084.576l1.272-.412.658.659 1.36-.868.738-.119 1.44-.078h2.058l2.345.163.618-.248.451-.412 1.236.7.902-.371c0 0 .988.374 1.153.416.165.041 1.687-.168 1.687-.168l.945-.248-.614-.452.411-.163 1.727.078 2.301.579-.04-15.06v-.948l-.574.081-.742.12v-.456l.411-.372.331-.492.08-1.775-.124-1.28-.534-1.567-.491-.66-.084-.616.124-.413.04-.12.534-.208.084-.208-.411-.7.371-.211.582-.35.233-2.099.116-1.4v-4.9l-.349-1.4.233-1.516.116-.583-1.047-.467-3.956-.699-.582.816-.233-.933-7.562-.114-.233 1.283-1.861.234-.233-.817-1.629-.233.582-.7zm-14.783 6.587l27.07 18.395-2.141 7.669-5.101.168-23.61-25.24 3.785-.991m21.472.332l2.963 1.564-.825 5.774-.574.168-7.897-6.02 6.333-1.484m-22.21 16.579l8.06 8.08-4.854 1.732-2.549-.163-3.127-2.639 2.469-7.01" fill="url(#1)" transform="translate(-41.07-1001.53)"/></g></svg>