<?xml version="1.0" encoding="UTF-8" standalone="no"?>
<!-- Created with Inkscape (http://www.inkscape.org/) -->

<svg
   xmlns:dc="http://purl.org/dc/elements/1.1/"
   xmlns:cc="http://creativecommons.org/ns#"
   xmlns:rdf="http://www.w3.org/1999/02/22-rdf-syntax-ns#"
   xmlns:svg="http://www.w3.org/2000/svg"
   xmlns="http://www.w3.org/2000/svg"
   xmlns:xlink="http://www.w3.org/1999/xlink"
   xmlns:sodipodi="http://sodipodi.sourceforge.net/DTD/sodipodi-0.dtd"
   xmlns:inkscape="http://www.inkscape.org/namespaces/inkscape"
   width="48"
   height="48"
   id="svg5453"
   version="1.1"
   inkscape:version="0.91 r13725"
   sodipodi:docname="eradio.svg">
  <defs
     id="defs5455">
    <linearGradient
       gradientTransform="matrix(1.7142871,0,0,1.7142871,-624.31935,-913.5293)"
       inkscape:collect="always"
       xlink:href="#linearGradient4299"
       id="linearGradient4181"
       gradientUnits="userSpaceOnUse"
       x1="399.9939"
       y1="545.13873"
       x2="399.9939"
       y2="518.13873" />
    <linearGradient
       id="linearGradient4299"
       inkscape:collect="always">
      <stop
         id="stop4301"
         offset="0"
         style="stop-color:#1074f5;stop-opacity:1" />
      <stop
         id="stop4303"
         offset="1"
         style="stop-color:#02befd;stop-opacity:1" />
    </linearGradient>
  </defs>
  <sodipodi:namedview
     id="base"
     pagecolor="#ffffff"
     bordercolor="#666666"
     borderopacity="1.0"
     inkscape:pageopacity="0"
     inkscape:pageshadow="2"
     inkscape:zoom="4"
     inkscape:cx="-7.286926"
     inkscape:cy="15.968792"
     inkscape:document-units="px"
     inkscape:current-layer="g4192"
     showgrid="true"
     fit-margin-top="0"
     fit-margin-left="0"
     fit-margin-right="0"
     fit-margin-bottom="0"
     inkscape:window-width="1366"
     inkscape:window-height="685"
     inkscape:window-x="0"
     inkscape:window-y="0"
     inkscape:window-maximized="1"
     inkscape:showpageshadow="false"
     borderlayer="true"
     showguides="false">
    <inkscape:grid
       type="xygrid"
       id="grid4063" />
    <sodipodi:guide
       position="1.1650391e-05,32.000026"
       orientation="32,0"
       id="guide4157" />
    <sodipodi:guide
       position="1.1650391e-05,2.6367188e-05"
       orientation="0,32"
       id="guide4159" />
    <sodipodi:guide
       position="32.000012,2.6367188e-05"
       orientation="-32,0"
       id="guide4161" />
    <sodipodi:guide
       position="32.000012,32.000026"
       orientation="0,-32"
       id="guide4163" />
    <sodipodi:guide
       position="2.0000117,30.000026"
       orientation="28,0"
       id="guide4167" />
    <sodipodi:guide
       position="2.0000117,2.0000264"
       orientation="0,28"
       id="guide4169" />
    <sodipodi:guide
       position="30.000012,2.0000264"
       orientation="-28,0"
       id="guide4171" />
    <sodipodi:guide
       position="30.000012,30.000026"
       orientation="0,-28"
       id="guide4173" />
    <sodipodi:guide
       position="2.0000117,30.000026"
       orientation="28,0"
       id="guide4181" />
    <sodipodi:guide
       position="2.0000117,2.0000264"
       orientation="0,14"
       id="guide4183" />
    <sodipodi:guide
       position="16.000012,2.0000264"
       orientation="-28,0"
       id="guide4185" />
    <sodipodi:guide
       position="16.000012,30.000026"
       orientation="0,-14"
       id="guide4187" />
    <sodipodi:guide
       position="9.0000117,23.000026"
       orientation="14,0"
       id="guide4193" />
    <sodipodi:guide
       position="9.0000117,9.0000264"
       orientation="0,14.000031"
       id="guide4195" />
    <sodipodi:guide
       position="23.000042,9.0000264"
       orientation="-14,0"
       id="guide4197" />
    <sodipodi:guide
       position="23.000042,23.000026"
       orientation="0,-14.000031"
       id="guide4199" />
  </sodipodi:namedview>
  <metadata
     id="metadata5458">
    <rdf:RDF>
      <cc:Work
         rdf:about="">
        <dc:format>image/svg+xml</dc:format>
        <dc:type
           rdf:resource="http://purl.org/dc/dcmitype/StillImage" />
        <dc:title />
      </cc:Work>
    </rdf:RDF>
  </metadata>
  <g
     inkscape:label="Capa 1"
     inkscape:groupmode="layer"
     id="layer1"
     transform="translate(-384.57143,-499.798)">
    <g
       style="display:inline;enable-background:new"
       id="g4238"
       transform="translate(225.81911,462.44565)">
      <g
         style="display:inline"
         id="layer1-8"
         transform="matrix(0.22655187,0,0,0.22655187,106.94841,54.31088)">
        <g
           style="display:none"
           id="layer6" />
        <g
           id="g4027" />
        <g
           id="g4061" />
        <g
           id="g3751" />
        <g
           id="g3782" />
        <g
           id="g3725" />
        <g
           id="g4370"
           transform="matrix(4.4140002,0,0,4.4140002,59.275211,39.357303)">
          <g
             id="g4192">
            <circle
               r="23.999947"
               cy="-1.875"
               cx="62.375"
               id="path3377"
               style="display:inline;opacity:1;fill:url(#linearGradient4181);fill-opacity:1.0;stroke:none;stroke-width:1.29999995;stroke-miterlimit:4;stroke-dasharray:none;stroke-dashoffset:0;stroke-opacity:1;enable-background:new" />
            <path
               style="display:inline;fill:#ffffff;fill-opacity:0.85000002;enable-background:new"
               inkscape:connector-curvature="0"
               d="m 55.129763,-13.965576 c 0.436725,-0.436726 0.436725,-1.14482 -1.49e-4,-1.581545 -0.436576,-0.436576 -1.144671,-0.436725 -1.581396,1.49e-4 -4.864962,4.865409 -4.864962,12.7814834 -2.98e-4,17.6464454 0.218437,0.218437 0.504567,0.327581 0.790847,0.327581 0.28613,0 0.57241,-0.109144 0.790698,-0.327432 0.436874,-0.436725 0.436874,-1.14482 1.49e-4,-1.581396 -3.993002,-3.993151 -3.992853,-10.490502 1.49e-4,-14.4838024 z"
               id="path4244" />
            <path
               style="display:inline;fill:#ffffff;fill-opacity:0.85000002;enable-background:new"
               inkscape:connector-curvature="0"
               d="m 71.195707,-15.547569 c -0.436874,-0.436576 -1.14482,-0.436576 -1.581545,0 -0.436725,0.436875 -0.436725,1.14482 0,1.581545 1.934623,1.934474 2.999821,4.5063674 2.999672,7.2419764 0,2.735758 -1.065496,5.307651 -3.000119,7.241976 -0.436875,0.436725 -0.436875,1.14482 -1.49e-4,1.581396 0.218437,0.218437 0.504567,0.327581 0.790847,0.327581 0.28613,0 0.57241,-0.109144 0.790698,-0.327432 2.357183,-2.356885 3.655431,-5.490453 3.655431,-8.82367 0,-3.3327704 -1.29795,-6.4664874 -3.654835,-8.8233724 z"
               id="path4246" />
            <path
               style="display:inline;fill:#ffffff;fill-opacity:0.85000002;enable-background:new"
               inkscape:connector-curvature="0"
               d="m 56.560564,-0.9125746 c 0.218437,0.218438 0.504567,0.327582 0.790847,0.327582 0.28613,0 0.57241,-0.109144 0.790698,-0.327433 0.436874,-0.436725 0.436874,-1.144819 1.49e-4,-1.581395 -2.332134,-2.332433 -2.332134,-6.127574 0,-8.4598574 0.436725,-0.436725 0.436725,-1.14482 -1.49e-4,-1.581545 -0.436875,-0.436874 -1.144969,-0.436725 -1.581396,1.49e-4 -3.203944,3.2042434 -3.203944,8.4182574 -1.49e-4,11.6224994 z"
               id="path4248" />
            <path
               style="display:inline;fill:#ffffff;fill-opacity:0.85000002;enable-background:new"
               inkscape:connector-curvature="0"
               d="m 66.601667,-0.9124256 c 0.218288,0.218289 0.504568,0.327433 0.790698,0.327433 0.28613,0 0.57241,-0.109144 0.790847,-0.327582 1.552172,-1.55232 2.407133,-3.616365 2.407133,-5.811473 0,-2.195406 -0.854812,-4.2591524 -2.407431,-5.8114734 -0.436576,-0.436576 -1.144671,-0.436725 -1.581396,1.49e-4 -0.436725,0.436725 -0.436725,1.14482 1.49e-4,1.581396 1.129909,1.1297604 1.75212,2.6318334 1.75212,4.2297794 0,1.597946 -0.62236,3.100168 -1.752269,4.230226 -0.436725,0.436726 -0.436725,1.14482 1.49e-4,1.581545 z"
               id="path4250" />
            <path
               style="display:inline;fill:#ffffff;fill-opacity:0.85000002;enable-background:new"
               inkscape:connector-curvature="0"
               d="m 62.37159,-3.8839166 c 1.56902,0 2.84028,-1.271707 2.84028,-2.84028 0,-1.568573 -1.271111,-2.839982 -2.84028,-2.839982 -1.568722,0 -2.84028,1.271409 -2.84028,2.839982 1.49e-4,1.568573 1.271558,2.84028 2.84028,2.84028 z"
               id="path4252" />
            <path
               style="display:inline;fill:#ffffff;fill-opacity:0.85000002;enable-background:new"
               inkscape:connector-curvature="0"
               d="m 63.435297,-2.3053536 c -0.149402,-0.461178 -0.57897,-0.773551 -1.063856,-0.773551 -0.484886,0 -0.914454,0.312522 -1.063857,0.773551 L 56.459471,12.661843 c -0.190256,0.58747 0.131659,1.218179 0.719129,1.408436 0.11466,0.03713 0.230663,0.05472 0.344877,0.05472 0.471615,0 0.910279,-0.300892 1.063558,-0.773849 l 0.59075,-1.82369 6.387461,0 0.59075,1.82369 c 0.190256,0.587469 0.820667,0.909384 1.408435,0.719128 0.587469,-0.190257 0.909534,-0.820966 0.719128,-1.408436 L 63.435297,-2.3053536 Z m -1.063707,3.973619 0.936223,2.890378 -1.872596,0 0.936373,-2.890378 z m -2.469161,7.622638 0.808442,-2.495701 3.321438,0 0.808441,2.495701 -4.938321,0 z"
               id="path4254" />
          </g>
        </g>
      </g>
    </g>
  </g>
</svg>
