<?xml version="1.0" encoding="UTF-8" standalone="no"?>
<!-- Created with Inkscape (http://www.inkscape.org/) -->

<svg
   xmlns:dc="http://purl.org/dc/elements/1.1/"
   xmlns:cc="http://creativecommons.org/ns#"
   xmlns:rdf="http://www.w3.org/1999/02/22-rdf-syntax-ns#"
   xmlns:svg="http://www.w3.org/2000/svg"
   xmlns="http://www.w3.org/2000/svg"
   xmlns:xlink="http://www.w3.org/1999/xlink"
   xmlns:sodipodi="http://sodipodi.sourceforge.net/DTD/sodipodi-0.dtd"
   xmlns:inkscape="http://www.inkscape.org/namespaces/inkscape"
   width="48"
   height="48"
   id="svg5453"
   version="1.1"
   inkscape:version="0.91 r13725"
   sodipodi:docname="espeak-gui.svg">
  <defs
     id="defs5455">
    <linearGradient
       inkscape:collect="always"
       xlink:href="#linearGradient4053"
       id="linearGradient4182-9"
       x1="373.61014"
       y1="544.49469"
       x2="373.57144"
       y2="507.798"
       gradientUnits="userSpaceOnUse"
       gradientTransform="matrix(-0.64557641,0,0,0.64557641,295.35701,-334.24021)" />
    <linearGradient
       id="linearGradient4053">
      <stop
         style="stop-color:#ffcdcd;stop-opacity:1"
         offset="0"
         id="stop4055" />
      <stop
         style="stop-color:#fff5f5;stop-opacity:1"
         offset="1"
         id="stop4057" />
    </linearGradient>
    <linearGradient
       id="linearGradient868">
      <stop
         id="stop870"
         offset="0"
         style="stop-color:#aa0000;stop-opacity:1" />
      <stop
         id="stop872"
         offset="1"
         style="stop-color:#ff5555;stop-opacity:1" />
    </linearGradient>
    <linearGradient
       inkscape:collect="always"
       xlink:href="#linearGradient868"
       id="linearGradient4251"
       x1="25"
       y1="38"
       x2="25"
       y2="18"
       gradientUnits="userSpaceOnUse" />
  </defs>
  <sodipodi:namedview
     id="base"
     pagecolor="#ffffff"
     bordercolor="#666666"
     borderopacity="1.0"
     inkscape:pageopacity="0"
     inkscape:pageshadow="2"
     inkscape:zoom="4"
     inkscape:cx="35.841368"
     inkscape:cy="15.968792"
     inkscape:document-units="px"
     inkscape:current-layer="g4182"
     showgrid="true"
     fit-margin-top="0"
     fit-margin-left="0"
     fit-margin-right="0"
     fit-margin-bottom="0"
     inkscape:window-width="1366"
     inkscape:window-height="685"
     inkscape:window-x="0"
     inkscape:window-y="0"
     inkscape:window-maximized="1"
     inkscape:showpageshadow="false"
     borderlayer="true"
     showguides="false">
    <inkscape:grid
       type="xygrid"
       id="grid4063" />
    <sodipodi:guide
       position="1.1650391e-05,32.000026"
       orientation="32,0"
       id="guide4157" />
    <sodipodi:guide
       position="1.1650391e-05,2.6367188e-05"
       orientation="0,32"
       id="guide4159" />
    <sodipodi:guide
       position="32.000012,2.6367188e-05"
       orientation="-32,0"
       id="guide4161" />
    <sodipodi:guide
       position="32.000012,32.000026"
       orientation="0,-32"
       id="guide4163" />
    <sodipodi:guide
       position="2.0000117,30.000026"
       orientation="28,0"
       id="guide4167" />
    <sodipodi:guide
       position="2.0000117,2.0000264"
       orientation="0,28"
       id="guide4169" />
    <sodipodi:guide
       position="30.000012,2.0000264"
       orientation="-28,0"
       id="guide4171" />
    <sodipodi:guide
       position="30.000012,30.000026"
       orientation="0,-28"
       id="guide4173" />
    <sodipodi:guide
       position="2.0000117,30.000026"
       orientation="28,0"
       id="guide4181" />
    <sodipodi:guide
       position="2.0000117,2.0000264"
       orientation="0,14"
       id="guide4183" />
    <sodipodi:guide
       position="16.000012,2.0000264"
       orientation="-28,0"
       id="guide4185" />
    <sodipodi:guide
       position="16.000012,30.000026"
       orientation="0,-14"
       id="guide4187" />
    <sodipodi:guide
       position="9.0000117,23.000026"
       orientation="14,0"
       id="guide4193" />
    <sodipodi:guide
       position="9.0000117,9.0000264"
       orientation="0,14.000031"
       id="guide4195" />
    <sodipodi:guide
       position="23.000042,9.0000264"
       orientation="-14,0"
       id="guide4197" />
    <sodipodi:guide
       position="23.000042,23.000026"
       orientation="0,-14.000031"
       id="guide4199" />
  </sodipodi:namedview>
  <metadata
     id="metadata5458">
    <rdf:RDF>
      <cc:Work
         rdf:about="">
        <dc:format>image/svg+xml</dc:format>
        <dc:type
           rdf:resource="http://purl.org/dc/dcmitype/StillImage" />
        <dc:title></dc:title>
      </cc:Work>
    </rdf:RDF>
  </metadata>
  <g
     inkscape:label="Capa 1"
     inkscape:groupmode="layer"
     id="layer1"
     transform="translate(-384.57143,-499.798)">
    <g
       style="display:inline;enable-background:new"
       id="g4238"
       transform="translate(225.81911,462.44565)">
      <g
         style="display:inline"
         id="layer1-8"
         transform="matrix(0.22655187,0,0,0.22655187,106.94841,54.31088)">
        <g
           style="display:none"
           id="layer6" />
        <g
           id="g4027" />
        <g
           id="g4061" />
        <g
           id="g3751" />
        <g
           id="g3782" />
        <g
           id="g3725" />
        <g
           id="g4370"
           transform="matrix(4.4140002,0,0,4.4140002,59.275211,39.357303)">
          <g
             id="g4182"
             transform="matrix(1.7142857,0,0,1.7142857,-30.839285,-12.375017)">
            <path
               style="fill:url(#linearGradient4182-9);fill-opacity:1.0"
               sodipodi:nodetypes="csssccccccccscscc"
               inkscape:connector-curvature="0"
               id="path3-4"
               d="m 44.504439,-3.189896 c 2.640044,-2.148547 6.14547,-3.331739 9.870478,-3.331739 3.725077,0 7.230509,1.183272 9.87049,3.331739 2.663007,2.167199 4.129592,5.055502 4.129592,8.13295 0,2.93723 -1.336839,5.701688 -3.773855,7.831661 0.04395,0.09884 0.07882,0.202818 0.101082,0.312137 l 0.800763,3.938855 c 0.09522,0.468115 -0.03275,0.74725 -0.156722,0.899083 -0.143345,0.175369 -0.35581,0.272011 -0.598316,0.272011 l 0,0 c -0.183101,0 -0.379887,-0.05401 -0.584939,-0.16061 l -4.657571,-2.41966 c -1.61254,0.519036 -3.346111,0.791201 -5.130427,0.791201 -3.725094,0 -7.230428,-1.183249 -9.870501,-3.331722 -2.662927,-2.16713 -4.129512,-5.05544 -4.129512,-8.132882 0,-3.077522 1.466516,-5.965825 4.129444,-8.133024 z" />
            <g
               id="g4198"
               transform="matrix(0.79999999,0,0,0.79999999,35.795,0.7583351)">
              <path
                 style="color:#000000;clip-rule:nonzero;display:inline;overflow:visible;visibility:visible;opacity:1;isolation:auto;mix-blend-mode:normal;color-interpolation:sRGB;color-interpolation-filters:linearRGB;solid-color:#000000;solid-opacity:1;fill:url(#linearGradient4251);fill-opacity:1;fill-rule:evenodd;stroke:none;stroke-width:1.00999999;stroke-linecap:round;stroke-linejoin:round;stroke-miterlimit:4;stroke-dasharray:none;stroke-dashoffset:0;stroke-opacity:1;color-rendering:auto;image-rendering:auto;shape-rendering:auto;text-rendering:auto;enable-background:accumulate"
                 d="M 12.419922 18.400391 A 4 4 0 0 0 8.4199219 22.400391 A 4 4 0 0 0 12.419922 26.400391 A 4 4 0 0 0 16.419922 22.400391 A 4 4 0 0 0 12.419922 18.400391 z M 24.039062 18.400391 A 4 4 0 0 0 20.039062 22.400391 A 4 4 0 0 0 24.039062 26.400391 A 4 4 0 0 0 28.039062 22.400391 A 4 4 0 0 0 24.039062 18.400391 z M 35.580078 18.400391 A 4 4 0 0 0 31.580078 22.400391 A 4 4 0 0 0 35.580078 26.400391 A 4 4 0 0 0 39.580078 22.400391 A 4 4 0 0 0 35.580078 18.400391 z "
                 transform="matrix(0.72916668,0,0,0.72916668,5.7250001,-10.791657)"
                 id="path4171" />
            </g>
          </g>
        </g>
      </g>
    </g>
  </g>
</svg>
