<svg xmlns="http://www.w3.org/2000/svg" viewBox="0 0 48 48"><defs><linearGradient gradientUnits="userSpaceOnUse" y2="-26.05" x2="-125.19" y1="73.5" x1="-123.97" id="0" gradientTransform="matrix(.49433 0 0 .4778 115.02-17.773)"><stop stop-color="#54b60f"/><stop offset="1" stop-color="#92dc41"/></linearGradient><linearGradient id="1" x1="55.16" y1="7.913" x2="51.574" y2="-23.281" gradientUnits="userSpaceOnUse"><stop stop-color="#e7f0f4"/><stop offset="1" stop-color="#f4faff"/></linearGradient></defs><g transform="matrix(.99999 0 0 .99999-28.371 30.882)" enable-background="new"><rect y="-30.875" x="28.375" height="48" width="48" fill="url(#0)" fill-rule="evenodd" rx="2.982"/><path d="m40.963-16.1l3.076-.176c.176-.011.308-.159.298-.335 0 0-.187-2.602-.229-3.327v-.001c-.034-.594.063-1.122.262-1.567l.091-.2c-.001.0001-.025.006-.032.022l-5.643 6.196c-.009.001-.014.026-.018.04.118-.071.283-.162.308-.174.507-.264 1.128-.426 1.887-.469m23.886-2c-.317-1.281-1.127-1.87-1.848-2.082-.774-.23-2.329-.418-4.269-.533-1.568-.096-3.393.022-4.496.12-.182-.888-.867-1.669-1.594-1.915-1.94-.642-4.861-.294-5.602-.042-.585.195-1.232.573-1.568 1.114-.228.364-.363.822-.328 1.445.02.35.077 1.182.13 1.921.053.749.1 1.406.1 1.406.038.662-.472 1.228-1.143 1.281l-3.076.176c-.657.037-1.153.173-1.522.366-.375.198-.634.441-.822.731-.383.569-.413 1.245-.374 1.93 0 0 .036.549.234 1.632.165.841 1.42 6.658 2.397 8.383.38.677.621.951 1.305 1.219 1.52.543 4.957 1.05 6.555 1.16 1.602.109 2.62.476 3.144-.779.005 0 .105-.313.24-.77.428-1.572.418-2.949.361-3.942-.006-.097.145-.111.151-.008.04.701.046 3.186 1.976 3.745.765.22 2.326.365 3.912.456 1.436.079 2.499.575 2.705 4.192.126 2.2-.325 2.519-2.763 2.658-1.981.113-2.732.21-2.821-1.348-.072-1.261 1.197-1.191 2.127-1.244.414-.024.095-.313.051-1.087-.044-.769.418-1.245-.045-1.227-3.222.097-5.115.287-4.888 4.268.206 3.616 1.646 4.207 6.216 3.947 3.582-.204 4.841-.399 6.06-5.02.24-.912.796-3.688.961-8.307.102-2.916-.923-11.646-1.469-13.843m-5.69 10.04c-.443.006-.87.065-1.27.151.071-.903.379-2.02 1.69-2.045 1.468-.035 1.75 1.321 1.808 2.246-.634-.238-1.399-.369-2.233-.351" fill="url(#1)"/></g></svg>