<?xml version="1.0" encoding="UTF-8" standalone="no"?>
<svg
   xmlns:osb="http://www.openswatchbook.org/uri/2009/osb"
   xmlns:dc="http://purl.org/dc/elements/1.1/"
   xmlns:cc="http://creativecommons.org/ns#"
   xmlns:rdf="http://www.w3.org/1999/02/22-rdf-syntax-ns#"
   xmlns:svg="http://www.w3.org/2000/svg"
   xmlns="http://www.w3.org/2000/svg"
   xmlns:xlink="http://www.w3.org/1999/xlink"
   xmlns:sodipodi="http://sodipodi.sourceforge.net/DTD/sodipodi-0.dtd"
   xmlns:inkscape="http://www.inkscape.org/namespaces/inkscape"
   viewBox="0 0 48 48"
   id="svg2"
   version="1.1"
   inkscape:version="0.91 r13725"
   sodipodi:docname="fityk.svg">
  <metadata
     id="metadata77">
    <rdf:RDF>
      <cc:Work
         rdf:about="">
        <dc:format>image/svg+xml</dc:format>
        <dc:type
           rdf:resource="http://purl.org/dc/dcmitype/StillImage" />
        <dc:title></dc:title>
      </cc:Work>
    </rdf:RDF>
  </metadata>
  <sodipodi:namedview
     pagecolor="#5e5e5e"
     bordercolor="#666666"
     borderopacity="1"
     objecttolerance="10"
     gridtolerance="10"
     guidetolerance="10"
     inkscape:pageopacity="0"
     inkscape:pageshadow="2"
     inkscape:window-width="1366"
     inkscape:window-height="685"
     id="namedview75"
     showgrid="false"
     showborder="false"
     inkscape:zoom="4.9166667"
     inkscape:cx="-30.921576"
     inkscape:cy="3.038754"
     inkscape:window-x="0"
     inkscape:window-y="0"
     inkscape:window-maximized="1"
     inkscape:current-layer="svg2" />
  <defs
     id="defs4">
    <linearGradient
       osb:paint="gradient"
       id="linearGradient4207">
      <stop
         id="stop3371"
         offset="0"
         style="stop-color:#3498db;stop-opacity:1;" />
      <stop
         id="stop3373"
         offset="1"
         style="stop-color:#3498db;stop-opacity:0;" />
    </linearGradient>
    <linearGradient
       gradientTransform="matrix(0.4943315,0,0,0.47780365,99.251683,50.118849)"
       gradientUnits="userSpaceOnUse"
       y2="-26.047026"
       x2="-125.19291"
       y1="73.496605"
       x1="-123.9715"
       id="linearGradient4738-6-8"
       xlink:href="#linearGradient5061"
       inkscape:collect="always" />
    <linearGradient
       id="linearGradient5061"
       inkscape:collect="always">
      <stop
         id="stop5063"
         offset="0"
         style="stop-color:#f15400;stop-opacity:1" />
      <stop
         id="stop5065"
         offset="1"
         style="stop-color:#fa8c00;stop-opacity:1" />
    </linearGradient>
    <clipPath
       id="clipPath-479245054">
      <g
         id="g4167"
         transform="translate(0,-1004.3622)">
        <path
           style="fill:#1890d0"
           inkscape:connector-curvature="0"
           id="path4169"
           transform="matrix(15.333333,0,0,11.5,414.99999,878.8622)"
           d="m -24,13 c 0,1.105 -0.672,2 -1.5,2 -0.828,0 -1.5,-0.895 -1.5,-2 0,-1.105 0.672,-2 1.5,-2 0.828,0 1.5,0.895 1.5,2 z" />
      </g>
    </clipPath>
  </defs>
  <g
     id="g33" />
  <g
     id="g4166"
     transform="translate(-12.61017,-37.016949)">
    <rect
       ry="2.9819367"
       y="37.016949"
       x="12.61017"
       height="48"
       width="48"
       id="rect4177-3-1"
       style="opacity:1;fill:url(#linearGradient4738-6-8);fill-opacity:1.0;fill-rule:evenodd;stroke:none;stroke-width:8;stroke-linecap:round;stroke-linejoin:round;stroke-miterlimit:4;stroke-dasharray:none;stroke-dashoffset:0;stroke-opacity:1" />
  </g>
  <g
     id="g4213"
     transform="matrix(1.2814386,0,0,1.2852438,-6.7551671,-7.4884731)"
     style="fill:#000000;fill-opacity:0.66153848">
    <g
       clip-path="url(#clipPath-479245054)"
       id="g4215"
       style="fill:#000000;fill-opacity:0.66153848">
      <!-- color: #174767 -->
      <g
         id="g4217"
         style="fill:#000000;fill-opacity:0.66153848">
        <path
           style="fill:#000000;fill-opacity:0.66153848;fill-rule:nonzero;stroke:none"
           inkscape:connector-curvature="0"
           d="m 36,14.332 c 0,1.262 -1.02,2.281 -2.281,2.281 -1.258,0 -2.281,-1.02 -2.281,-2.281 0,-1.262 1.023,-2.281 2.281,-2.281 1.262,0 2.281,1.02 2.281,2.281 m 0,0"
           id="path4219" />
        <path
           style="fill:#000000;fill-opacity:0.66153848;fill-rule:nonzero;stroke:none"
           inkscape:connector-curvature="0"
           d="m 31.22,15.773 c 0,1.262 -1.02,2.281 -2.281,2.281 -1.258,0 -2.281,-1.02 -2.281,-2.281 0,-1.262 1.023,-2.281 2.281,-2.281 1.262,0 2.281,1.02 2.281,2.281 m 0,0"
           id="path4221" />
        <path
           style="fill:#000000;fill-opacity:0.66153848;fill-rule:nonzero;stroke:none"
           inkscape:connector-curvature="0"
           d="m 27.371,19.14 c 0,1.262 -1.02,2.281 -2.281,2.281 -1.258,0 -2.281,-1.02 -2.281,-2.281 0,-1.262 1.023,-2.281 2.281,-2.281 1.262,0 2.281,1.02 2.281,2.281 m 0,0"
           id="path4223" />
        <path
           style="fill:#000000;fill-opacity:0.66153848;fill-rule:nonzero;stroke:none"
           inkscape:connector-curvature="0"
           d="m 25.863,24.25 c 0,1.258 -1.023,2.281 -2.281,2.281 -1.262,0 -2.281,-1.023 -2.281,-2.281 0,-1.262 1.02,-2.285 2.281,-2.285 1.258,0 2.281,1.023 2.281,2.285 m 0,0"
           id="path4225" />
        <path
           style="fill:#000000;fill-opacity:0.66153848;fill-rule:nonzero;stroke:none"
           inkscape:connector-curvature="0"
           d="m 25,29.551 c 0,1.262 -1.023,2.285 -2.281,2.285 -1.262,0 -2.281,-1.023 -2.281,-2.285 0,-1.258 1.02,-2.281 2.281,-2.281 1.258,0 2.281,1.023 2.281,2.281 m 0,0"
           id="path4227" />
        <path
           style="fill:#000000;fill-opacity:0.66153848;fill-rule:nonzero;stroke:none"
           inkscape:connector-curvature="0"
           d="m 21.758,33.703 c 0,1.262 -1.023,2.281 -2.281,2.281 -1.258,0 -2.281,-1.02 -2.281,-2.281 0,-1.262 1.023,-2.281 2.281,-2.281 1.258,0 2.281,1.02 2.281,2.281 m 0,0"
           id="path4229" />
        <path
           style="fill:#000000;fill-opacity:0.66153848;fill-rule:nonzero;stroke:none"
           inkscape:connector-curvature="0"
           d="m 16.563,34.668 c 0,1.262 -1.023,2.281 -2.281,2.281 -1.262,0 -2.281,-1.02 -2.281,-2.281 0,-1.262 1.02,-2.281 2.281,-2.281 1.258,0 2.281,1.02 2.281,2.281 m 0,0"
           id="path4231" />
        <path
           style="fill:#000000;fill-opacity:0.66153848;fill-rule:nonzero;stroke:none"
           inkscape:connector-curvature="0"
           d="m 20.734,24.363004 c 0,1.262 -1.02,2.285 -2.277,2.285 -1.262,0 -2.281,-1.023 -2.281,-2.285 0,-1.258 1.02,-2.281 2.281,-2.281 1.258,0 2.277,1.023 2.277,2.281"
           id="path4233"
           sodipodi:nodetypes="csssc" />
        <path
           style="fill:#000000;fill-opacity:0.66153848;fill-rule:nonzero;stroke:none"
           inkscape:connector-curvature="0"
           d="m 31.28,24.258298 c 0,1.262 -1.023,2.281 -2.281,2.281 -1.258,0 -2.281,-1.02 -2.281,-2.281 0,-1.262 1.023,-2.281 2.281,-2.281 1.258,0 2.281,1.02 2.281,2.281"
           id="path4235"
           sodipodi:nodetypes="csssc" />
      </g>
    </g>
  </g>
</svg>
