<svg xmlns="http://www.w3.org/2000/svg" viewBox="0 0 48 48"><defs><linearGradient gradientUnits="userSpaceOnUse" x1="57.29" x2="319.02"><stop stop-color="#c8c8c8"/><stop offset="1" stop-color="#969696"/></linearGradient><linearGradient y2=".063" x2="202.58" y1="385.21" x1="209.55" gradientUnits="userSpaceOnUse" id="2"><stop stop-color="#8645a3"/><stop offset="1" stop-color="#d164ff"/></linearGradient><linearGradient gradientUnits="userSpaceOnUse" y2="16.722" x2="69.5" y1="81.7" x1="70.34" id="3"><stop stop-color="#b6b9bf"/><stop offset="1" stop-color="#dddfe2"/></linearGradient><linearGradient y2=".063" x2="202.58" y1="385.21" x1="209.55" gradientUnits="userSpaceOnUse" id="1"><stop stop-color="#9559b6"/><stop offset="1" stop-color="#8e44ad"/></linearGradient><linearGradient gradientUnits="userSpaceOnUse" x1="57.29" x2="319.02"><stop stop-color="#b9b9b9"/><stop offset="1" stop-color="#d4d4d4"/></linearGradient><linearGradient y2="518.14" x2="0" y1="545.14" gradientUnits="userSpaceOnUse" id="0"><stop stop-color="#ec396c"/><stop offset="1" stop-color="#ff709a"/></linearGradient><linearGradient x1="209.55" y1="385.21" x2="202.58" y2=".063" gradientUnits="userSpaceOnUse"><stop stop-color="#c3c3c3"/><stop offset="1" stop-color="#acacac"/></linearGradient><linearGradient gradientUnits="userSpaceOnUse" y1="545.8" x2="0" y2="517.8"><stop stop-color="#3889e9"/><stop offset="1" stop-color="#5ea5fb"/></linearGradient></defs><g transform="matrix(.97895 0 0 .97895-312.07-485.11)"><g transform="matrix(.90308 0 0 .90308 33.08 50.787)"><circle r="14" cy="531.8" cx="400.57" fill="url(#0)" transform="matrix(1.51949 0 0 1.51949-265.16-282.56)"/><path d="m76.13 102.37c-7.997-2.877-12.747-6.408-17.955-14.288-1.278-2.171-3.628-7.02-3.539-13.34-.208-6.305 2.978-13.57 8.924-17.447 5.742-4.092 13.152-4.153 17.56-2.537 4.547 1.688 6.391 4.5 6.443 4.366-.139.035 2.436 2.201 3.584 6.916 1.279 4.532-.02 12.04-6.271 15.12-2.875 1.541-6.609 1.82-9.537.718-2.928-1.181-5.05-3.774-5.761-6.483-1.543-5.981 2.995-9.296 4.997-9.636 8.145-2.716 12.27 10.03 2.744 11.11 4.342 1.45 8.818-3.01 7.967-7.545-.172-4.54-5.668-9.05-11.73-7.199-1.583.437-3.98 1.548-5.856 4.047-1.924 2.484-2.797 6.377-1.797 10.161.975 3.805 3.94 7.447 8.07 9.08 4.172 1.539 8.817 1.099 12.653-.897 8.189-4.051 9.828-13.922 8.201-19.353-1.436-5.837-4.607-8.51-4.443-8.551-.059.159-2.34-3.309-7.977-5.414-5.512-2.01-14.11-1.868-20.987 2.957-7.04 4.516-10.857 13.39-10.58 20.542-.095 7.263 2.612 12.822 4.089 15.293 5.954 9.08 12.776 11.918 21.2 12.372" ns2:knockout="Off" fill="#fff" fill-opacity=".85" ns2:rgbTrio="#4F008000FFFF" ns2:dimmedPercent="50" ns2:layer="yes" transform="matrix(.54427 0 0 .54427 303.25 484.79)"/></g><g transform="matrix(.91481 0 0 .91481-60.44 49.47)"><flowRoot transform="translate(389.57 520.8)" font-family="sans-serif" text-align="start" word-spacing="0" line-height="125%" letter-spacing="0" font-size="10"><flowRegion><path d="m22 3h27v15h-27z"/></flowRegion><flowPara>Plasm</flowPara></flowRoot><g transform="matrix(.36641 0 0 .36617 415.44 482.38)" fill="url(#2)"><g fill="#a0a3a8" fill-rule="evenodd" transform="matrix(.01622 0 0 .01399-5.336 84.11)"><path d="m3002.18-2197.1l39.3-129.16c14.14-55.57 27.607-44.32 83.78-44.32h1023.71l205.74 238.23-1282.84 10.121c-84.77 1.047-98.71 20.459-69.7-74.871"/><path d="m6383.45-2185.79l-34.28-112.64c-15.673-76.79-25.93-72.15-99.06-72.15h-1016.9l-205.74 238.23 1274.61 10.06c77.25-3.188 109.9 30.23 81.37-63.5"/><path d="m3963.81-4807.73l34.554-106.6c15.673-76.79 25.93-72.15 99.06-72.15l1016.9.036 205.74 238.23h-1318.01c-61.59 3.127-58.988 4.489-38.24-59.51"/><path d="m5444.55-4805.8l-34.554-106.6c-15.673-76.79-25.93-72.15-99.06-72.15l-1016.9.036-205.74 238.23h1318.01c61.59 3.127 58.988 4.489 38.24-59.51"/></g><path d="m69.24 82.35l-24.81-25.485c0 0-3.68-3.794.819-3.794h13.48v-4.416-29.917c-.088-1.776.011-1.926 1.738-1.917h21c1.493-.166 1.842.049 1.841 1.631v29.986 4.632h12.904c4.158 0 1.227 3.172 1.227 3.172 0 0-21.11 23.82-24.05 26.319-2.118 1.811-4.149-.212-4.149-.212" fill="url(#3)"/></g></g></g></svg>