<svg xmlns="http://www.w3.org/2000/svg" viewBox="0 0 48 48"><defs><clipPath id="1"><path transform="matrix(15.33333 0 0 11.5 415-125.5)" d="m-24 13c0 1.105-.672 2-1.5 2-.828 0-1.5-.895-1.5-2 0-1.105.672-2 1.5-2 .828 0 1.5.895 1.5 2" fill="#1890d0"/></clipPath><linearGradient gradientTransform="matrix(1.09091 0 0 1.06528-383.34-560.93)" gradientUnits="userSpaceOnUse" y2="507.8" x2="0" y1="542.8" id="0"><stop stop-color="#197ff1"/><stop offset="1" stop-color="#21c6fb"/></linearGradient></defs><g transform="matrix(.22655 0 0 .22655-51.801 16.962)" enable-background="new"><rect y="-19.985" x="38.38" height="36.22" width="48" fill="url(#0)" rx="1.704" stroke-width="1.714" transform="matrix(4.414 0 0 4.414 59.28 39.36)"/><g clip-path="url(#1)" fill="#fff" fill-opacity=".897" transform="matrix(5.2416 0 0 5.2416 208.8-92.11)"><path d="m34.438 18c-1.156 0-2.133.703-2.531 1.688l-1 3.063v-4.594h-4.875c-.879 0-1.668.348-2.25.938v-.938h-5c-.93 0-1.785.418-2.375 1.063v-1.063h-4.688c-2.031 0-3.715 1.641-3.719 3.813 0 1.012.438 1.918 1.063 2.594h-1.063v4.441h4.75c1.332-.004 2.637-.848 3.094-1.848l.031-.027c.531 1.105 1.625 1.875 2.906 1.875h5v-.973c.586.594 1.367.973 2.25.973h13.969l-3-9.316c-.41-.988-1.402-1.688-2.563-1.688m-.313.781c.109-.016.199 0 .313 0 .902 0 1.676.555 1.906 1.344l2.625 8.094h-5.063v-1.281h3.344l-2.156-6.594c-.105-.258-.367-.438-.656-.438-.289 0-.52.207-.625.469l-2.594 7.844h-5.188c-1.387 0-2.5-1.16-2.5-2.594v-4.125c0-1.434 1.113-2.594 2.5-2.594h4.156v1.313h-4.156c-.691 0-1.25.563-1.25 1.281v4.125c0 .719.59 1.313 1.281 1.313h2.844v-3.531h-2.281v-1.273h3.563v5.148l2.375-7.148c.203-.691.809-1.23 1.563-1.352m-22.438.125h4v1.316h-4c-.934 0-1.688.785-1.688 1.75 0 .969.75 1.75 1.688 1.75h1.031c.773 0 1.406.672 1.406 1.469 0 .801-.633 1.441-1.406 1.441h-4v-1.281h4c.078 0 .156-.074.156-.156 0-.082-.078-.156-.156-.156h-1.031c-1.633 0-2.969-1.371-2.969-3.063 0-1.691 1.336-3.066 2.969-3.066m7.094 0h4.281v1.316h-4.281c-.695 0-1.25.578-1.25 1.281v4.125c0 .727.555 1.313 1.25 1.313h4.25v1.281h-4.25c-1.391 0-2.5-1.16-2.5-2.594v-4.125c0-1.438 1.109-2.598 2.5-2.598m15.656 1.316c.18 0 .352.117.406.281l2 6.125h-2.938v-1.156l-.906 2.75h-1.469l2.531-7.719c.055-.164.195-.281.375-.281m-22.75.313h4v1.281h-4c-.082 0-.156.07-.156.156 0 .086.074.156.156.156h1.031c1.637 0 2.969 1.371 2.969 3.063 0 1.688-1.332 3.063-2.969 3.063h-4v-1.313h4c.938 0 1.719-.785 1.719-1.75 0-.965-.781-1.75-1.719-1.75l-1.031-.031c-.773 0-1.406-.637-1.406-1.438 0-.797.633-1.441 1.406-1.441m7.094 0h4.281v1.281h-3.691c-.297 0-.277.316-.277.316h3.063v1.277h-4.313v-1.902c0-.547.402-.973.938-.973m7.25 0h4.156v1.281h-3.566c-.297.008-.277.316-.277.316v2.902c0 .168.121.316.277.316h.75v-.316h-.75v-1.313h2v2.906h-2.594c-.531 0-.938-.449-.938-1v-4.125c0-.551.406-.973.938-.973m-8.188 3.191h4.313v1.313h-3.063c.004.309.281.316.281.316h3.656v1.281h-4.25c-.527 0-.938-.453-.938-1m16.594-1.785l-.441 1.344h.875" fill="#fff" fill-opacity=".897"/></g></g></svg>