<svg xmlns="http://www.w3.org/2000/svg" viewBox="0 0 48 48"><defs><linearGradient gradientUnits="userSpaceOnUse" y2="17.09" x2="0" y1="30.804" id="3"><stop stop-color="#ef4e06"/><stop offset="1" stop-color="#f9841c"/></linearGradient><linearGradient id="4" gradientUnits="userSpaceOnUse" x1="22.263" y1="31.32" x2="22.366" y2="15.89"><stop stop-color="#fed9a5"/><stop offset="1" stop-color="#fffdfb"/></linearGradient><linearGradient gradientUnits="userSpaceOnUse" y2="13.384" x2="0" y1="34" id="2"><stop stop-color="#ee6708"/><stop offset="1" stop-color="#f9aa2b"/></linearGradient><linearGradient gradientUnits="userSpaceOnUse" y2="10.12" x2="0" y1="36.55" id="0"><stop stop-color="#f7891b"/><stop offset="1" stop-color="#fbc969"/></linearGradient><linearGradient id="1" y1="37.922" x2="0" y2="9.352" gradientUnits="userSpaceOnUse"><stop stop-color="#f7881a"/><stop offset="1" stop-color="#fbc967"/></linearGradient></defs><g transform="matrix(1.71427 0 0 1.71427-14.301-16.568)" enable-background="new"><circle cx="22.345" cy="23.674" r="13.554" fill="url(#0)" stroke="url(#1)" stroke-linejoin="round" stroke-width=".893"/><circle cx="22.355" cy="23.958" r="10.574" fill="url(#2)"/><circle cx="22.18" cy="24.12" r="7.03" fill="url(#3)"/><path d="m27.988 18.483c-.924-1.371-2.581-2.166-4.922-2.364h-.004c-.173-.02-.338-.029-.493-.029-1.18 0-1.599.591-1.599 1.097v8.805c-.464-.14-.962-.18-1.454-.118-.857.108-1.625.51-2.162 1.133-.537.622-.779 1.39-.682 2.162.181 1.433 1.522 2.514 3.12 2.514.15 0 .302-.001.452-.029 1.656-.209 2.859-1.523 2.859-3.124v-8.64c.124-.008.249-.013.37-.013 1.46 0 2.803.611 3.883 1.767.445.476.758.95.941 1.264.045.077.133.118.221.102.088-.016.157-.084.173-.172.177-.973.321-2.832-.706-4.355" fill="url(#4)" stroke-width="1.317"/></g></svg>