<?xml version="1.0" encoding="UTF-8" standalone="no"?>
<!-- Created with Inkscape (http://www.inkscape.org/) -->

<svg
   xmlns:sketch="http://www.bohemiancoding.com/sketch/ns"
   xmlns:dc="http://purl.org/dc/elements/1.1/"
   xmlns:cc="http://creativecommons.org/ns#"
   xmlns:rdf="http://www.w3.org/1999/02/22-rdf-syntax-ns#"
   xmlns:svg="http://www.w3.org/2000/svg"
   xmlns="http://www.w3.org/2000/svg"
   xmlns:xlink="http://www.w3.org/1999/xlink"
   xmlns:sodipodi="http://sodipodi.sourceforge.net/DTD/sodipodi-0.dtd"
   xmlns:inkscape="http://www.inkscape.org/namespaces/inkscape"
   width="48"
   height="48"
   id="svg5453"
   version="1.1"
   inkscape:version="0.91 r13725"
   sodipodi:docname="grub-customizer.svg">
  <defs
     id="defs5455">
    <linearGradient
       inkscape:collect="always"
       xlink:href="#linearGradient4201-1"
       id="linearGradient4222"
       x1="409.57144"
       y1="542.79797"
       x2="409.57144"
       y2="507.798"
       gradientUnits="userSpaceOnUse"
       gradientTransform="matrix(1.0909091,0,0,1.0652838,-423.33932,-555.93378)" />
    <linearGradient
       inkscape:collect="always"
       id="linearGradient4201-1">
      <stop
         style="stop-color:#030303;stop-opacity:1"
         offset="0"
         id="stop4203-3" />
      <stop
         style="stop-color:#272727;stop-opacity:1"
         offset="1"
         id="stop4205-6" />
    </linearGradient>
  </defs>
  <sodipodi:namedview
     id="base"
     pagecolor="#ffffff"
     bordercolor="#666666"
     borderopacity="1.0"
     inkscape:pageopacity="0"
     inkscape:pageshadow="2"
     inkscape:zoom="4"
     inkscape:cx="-39.601104"
     inkscape:cy="15.968792"
     inkscape:document-units="px"
     inkscape:current-layer="g4370"
     showgrid="true"
     fit-margin-top="0"
     fit-margin-left="0"
     fit-margin-right="0"
     fit-margin-bottom="0"
     inkscape:window-width="1366"
     inkscape:window-height="634"
     inkscape:window-x="0"
     inkscape:window-y="36"
     inkscape:window-maximized="1"
     inkscape:showpageshadow="false"
     borderlayer="true"
     showguides="false">
    <inkscape:grid
       type="xygrid"
       id="grid4063" />
    <sodipodi:guide
       position="1.1650391e-05,32.000026"
       orientation="32,0"
       id="guide4157" />
    <sodipodi:guide
       position="1.1650391e-05,2.6367188e-05"
       orientation="0,32"
       id="guide4159" />
    <sodipodi:guide
       position="32.000012,2.6367188e-05"
       orientation="-32,0"
       id="guide4161" />
    <sodipodi:guide
       position="32.000012,32.000026"
       orientation="0,-32"
       id="guide4163" />
    <sodipodi:guide
       position="2.0000117,30.000026"
       orientation="28,0"
       id="guide4167" />
    <sodipodi:guide
       position="2.0000117,2.0000264"
       orientation="0,28"
       id="guide4169" />
    <sodipodi:guide
       position="30.000012,2.0000264"
       orientation="-28,0"
       id="guide4171" />
    <sodipodi:guide
       position="30.000012,30.000026"
       orientation="0,-28"
       id="guide4173" />
    <sodipodi:guide
       position="2.0000117,30.000026"
       orientation="28,0"
       id="guide4181" />
    <sodipodi:guide
       position="2.0000117,2.0000264"
       orientation="0,14"
       id="guide4183" />
    <sodipodi:guide
       position="16.000012,2.0000264"
       orientation="-28,0"
       id="guide4185" />
    <sodipodi:guide
       position="16.000012,30.000026"
       orientation="0,-14"
       id="guide4187" />
    <sodipodi:guide
       position="9.0000117,23.000026"
       orientation="14,0"
       id="guide4193" />
    <sodipodi:guide
       position="9.0000117,9.0000264"
       orientation="0,14.000031"
       id="guide4195" />
    <sodipodi:guide
       position="23.000042,9.0000264"
       orientation="-14,0"
       id="guide4197" />
    <sodipodi:guide
       position="23.000042,23.000026"
       orientation="0,-14.000031"
       id="guide4199" />
  </sodipodi:namedview>
  <metadata
     id="metadata5458">
    <rdf:RDF>
      <cc:Work
         rdf:about="">
        <dc:format>image/svg+xml</dc:format>
        <dc:type
           rdf:resource="http://purl.org/dc/dcmitype/StillImage" />
        <dc:title></dc:title>
      </cc:Work>
    </rdf:RDF>
  </metadata>
  <g
     inkscape:label="Capa 1"
     inkscape:groupmode="layer"
     id="layer1"
     transform="translate(-384.57143,-499.798)">
    <g
       style="display:inline;enable-background:new"
       id="g4238"
       transform="translate(225.81911,462.44565)">
      <g
         style="display:inline"
         id="layer1-8"
         transform="matrix(0.22655187,0,0,0.22655187,106.94841,54.31088)">
        <g
           style="display:none"
           id="layer6" />
        <g
           id="g4027" />
        <g
           id="g4061" />
        <g
           id="g3751" />
        <g
           id="g3782" />
        <g
           id="g3725" />
        <g
           id="g4370"
           transform="matrix(4.4140002,0,0,4.4140002,59.275211,39.357303)">
          <g
             id="g4196"
             transform="translate(40.000001,-4.9999996)">
            <rect
               style="opacity:1;fill:url(#linearGradient4222);fill-opacity:1;stroke:none;stroke-width:0.2;stroke-linecap:round;stroke-linejoin:round;stroke-miterlimit:4;stroke-dasharray:none;stroke-opacity:1"
               id="rect4195"
               width="48"
               height="36.219646"
               x="-1.625001"
               y="-14.984824"
               ry="1.7044541" />
            <path
               inkscape:connector-curvature="0"
               id="path4279"
               style="font-style:normal;font-variant:normal;font-weight:normal;font-stretch:normal;font-size:25px;line-height:125%;font-family:'Product Sans';-inkscape-font-specification:'Product Sans';letter-spacing:0px;word-spacing:0px;fill:#ffffff;fill-opacity:0.8508065;stroke:none;stroke-width:1px;stroke-linecap:butt;stroke-linejoin:miter;stroke-opacity:1"
               d="m 14.688348,8.4217768 q -0.868948,0 -1.418283,-0.439468 -0.549334,-0.42948 -0.789044,-0.988803 l 0.838984,-0.349576 q 0.139831,0.399516 0.509383,0.669189 0.379541,0.269674 0.85896,0.269674 0.759081,0 1.188561,-0.459444 0.439467,-0.449456 0.439467,-1.228512 l 0,-0.469432 -0.03995,0 q -0.23971,0.359565 -0.679178,0.599275 -0.439468,0.239709 -0.988802,0.239709 -0.948851,0 -1.638017,-0.749093 -0.689165,-0.749092 -0.689165,-1.85775 0,-1.108657 0.689165,-1.85775 0.689166,-0.749093 1.638017,-0.749093 0.549334,0 0.988802,0.23971 0.439468,0.23971 0.679178,0.599274 l 0.03995,0 0,-0.679177 0.878936,0 0,4.644375 q 0,1.258476 -0.729117,1.90769 -0.729117,0.659202 -1.777847,0.659202 z m 0.06992,-2.996372 q 0.649214,0 1.09867,-0.479419 0.459443,-0.47942 0.459443,-1.28844 0,-0.80902 -0.459443,-1.288439 -0.449456,-0.47942 -1.09867,-0.47942 -0.639226,0 -1.098669,0.489407 -0.459444,0.47942 -0.459444,1.278452 0,0.799033 0.459444,1.28844 0.459443,0.479419 1.098669,0.479419 z" />
            <path
               inkscape:connector-curvature="0"
               id="path4281"
               style="font-style:normal;font-variant:normal;font-weight:normal;font-stretch:normal;font-size:25px;line-height:125%;font-family:'Product Sans';-inkscape-font-specification:'Product Sans';letter-spacing:0px;word-spacing:0px;fill:#ffffff;fill-opacity:0.8508065;stroke:none;stroke-width:1px;stroke-linecap:butt;stroke-linejoin:miter;stroke-opacity:1"
               d="m 19.234563,6.1045828 -0.918888,0 0,-4.894073 0.878936,0 0,0.799032 0.03995,0 q 0.13983,-0.399516 0.56931,-0.659202 0.439468,-0.259685 0.848972,-0.259685 0.409504,0 0.689165,0.119855 l -0.349576,0.858959 q -0.179783,-0.06991 -0.489408,-0.06991 -0.499395,0 -0.888923,0.399516 -0.37954,0.389528 -0.37954,1.028754 l 0,2.676759 z" />
            <path
               inkscape:connector-curvature="0"
               id="path4283"
               style="font-style:normal;font-variant:normal;font-weight:normal;font-stretch:normal;font-size:25px;line-height:125%;font-family:'Product Sans';-inkscape-font-specification:'Product Sans';letter-spacing:0px;word-spacing:0px;fill:#ffffff;fill-opacity:0.8508065;stroke:none;stroke-width:1px;stroke-linecap:butt;stroke-linejoin:miter;stroke-opacity:1"
               d="m 26.238892,6.1045828 -0.878935,0 0,-0.679178 -0.03995,0 q -0.209746,0.349577 -0.639226,0.599275 -0.42948,0.239709 -0.908899,0.239709 -0.918887,0 -1.398307,-0.559322 -0.469431,-0.559323 -0.469431,-1.498186 l 0,-2.996371 0.918887,0 0,2.846552 q 0,1.368343 1.208536,1.368343 0.569311,0 0.928876,-0.459443 0.359564,-0.459444 0.359564,-1.058718 l 0,-2.696734 0.918887,0 0,4.894073 z" />
            <path
               inkscape:connector-curvature="0"
               id="path4285"
               style="font-style:normal;font-variant:normal;font-weight:normal;font-stretch:normal;font-size:25px;line-height:125%;font-family:'Product Sans';-inkscape-font-specification:'Product Sans';letter-spacing:0px;word-spacing:0px;fill:#ffffff;fill-opacity:0.8508065;stroke:none;stroke-width:1px;stroke-linecap:butt;stroke-linejoin:miter;stroke-opacity:1"
               d="m 29.954081,6.2643888 q -0.559322,0 -1.008778,-0.239709 -0.439468,-0.23971 -0.659202,-0.599275 l -0.03995,0 0,0.679178 -0.878936,0 0,-7.1513404 0.918887,0 0,2.2572674 -0.03995,0.679177 0.03995,0 q 0.219734,-0.359564 0.659202,-0.599274 0.449456,-0.23971 1.008778,-0.23971 0.948851,0 1.638017,0.749093 0.689165,0.749093 0.689165,1.85775 0,1.108658 -0.689165,1.85775 -0.689166,0.749093 -1.638017,0.749093 z m -0.149818,-0.838984 q 0.639226,0 1.098669,-0.479419 0.459444,-0.489407 0.459444,-1.28844 0,-0.799032 -0.459444,-1.278452 -0.459443,-0.489407 -1.098669,-0.489407 -0.649214,0 -1.108658,0.47942 -0.449455,0.479419 -0.449455,1.288439 0,0.80902 0.449455,1.28844 0.459444,0.479419 1.108658,0.479419 z" />
            <path
               d="m 39.229237,12.199923 c -0.03484,-0.04563 -0.08031,-0.0728 -0.136726,-0.08143 l -1.191376,-0.182275 c -0.06513,-0.208325 -0.154146,-0.420965 -0.266978,-0.638 0.07807,-0.108518 0.195219,-0.261465 0.351443,-0.459002 0.156224,-0.197537 0.266899,-0.341775 0.332026,-0.432952 0.03476,-0.04779 0.05202,-0.09765 0.05202,-0.149751 0,-0.06073 -0.0151,-0.108438 -0.04555,-0.143198 -0.156224,-0.2214312 -0.5143,-0.5902952 -1.074228,-1.1068322 -0.05194,-0.04339 -0.10628,-0.06505 -0.162617,-0.06505 -0.06513,0 -0.117227,0.0195 -0.156303,0.05849 l -0.924397,0.696655 c -0.17804,-0.09118 -0.373339,-0.171487 -0.58598,-0.240929 l -0.182272,-1.197839 c -0.0043,-0.05642 -0.02933,-0.103084 -0.07488,-0.140002 -0.04563,-0.03692 -0.09869,-0.0553 -0.15958,-0.0553 l -1.44525,0 c -0.125858,0 -0.20401,0.06073 -0.234376,0.182274 -0.05642,0.216956 -0.119385,0.62058 -0.188827,1.210874 -0.20401,0.06521 -0.401467,0.147674 -0.592451,0.247481 l -0.898422,-0.696652 c -0.05642,-0.04339 -0.112833,-0.06505 -0.169249,-0.06505 -0.09549,0 -0.300541,0.155105 -0.615226,0.465475 -0.314685,0.31037 -0.528364,0.543627 -0.641277,0.6998512 -0.03908,0.05642 -0.05857,0.10636 -0.05857,0.149751 0,0.0521 0.02166,0.104202 0.06505,0.156224 0.290792,0.351603 0.52301,0.651025 0.696654,0.898506 -0.108517,0.199615 -0.193142,0.39931 -0.253874,0.598925 l -1.210954,0.182274 c -0.04771,0.0087 -0.08894,0.03692 -0.1237,0.0847 -0.03476,0.04771 -0.0521,0.09765 -0.0521,0.149671 l 0,1.445329 c 0,0.0565 0.01734,0.107399 0.0521,0.152948 0.03476,0.04563 0.08031,0.07288 0.136726,0.08151 l 1.191456,0.175802 c 0.06073,0.21264 0.149671,0.427437 0.266899,0.644393 -0.07807,0.108517 -0.1953,0.261465 -0.351524,0.459002 -0.156224,0.197537 -0.266979,0.341774 -0.332025,0.432951 -0.03476,0.04787 -0.0521,0.09765 -0.0521,0.149752 0,0.05642 0.01518,0.10628 0.04555,0.149671 0.169249,0.234455 0.527325,0.599084 1.074228,1.093806 0.04779,0.04779 0.102045,0.0716 0.162777,0.0716 0.06513,0 0.119385,-0.0195 0.162776,-0.05849 l 0.918005,-0.696734 c 0.178039,0.09118 0.373339,0.171487 0.585979,0.241008 l 0.182274,1.197849 c 0.0044,0.05642 0.02933,0.103084 0.07488,0.140002 0.04555,0.037 0.09877,0.0553 0.1595,0.0553 l 1.445329,0 c 0.126018,0 0.20409,-0.06073 0.234536,-0.182275 0.05634,-0.217035 0.119225,-0.62058 0.188667,-1.210874 0.20401,-0.06513 0.401547,-0.147673 0.592452,-0.247481 l 0.898506,0.703207 c 0.06073,0.039 0.117228,0.05849 0.169249,0.05849 0.09541,0 0.299422,-0.153986 0.61187,-0.462198 0.312607,-0.308133 0.527405,-0.542588 0.644473,-0.703207 0.03908,-0.04339 0.05865,-0.09326 0.05865,-0.149671 0,-0.05642 -0.02166,-0.110835 -0.06513,-0.162777 -0.312447,-0.381969 -0.544665,-0.681391 -0.696654,-0.898426 0.08678,-0.160619 0.171487,-0.358076 0.253954,-0.592452 l 1.204401,-0.182195 c 0.05202,-0.0087 0.09557,-0.037 0.130253,-0.08478 0.03468,-0.04779 0.05194,-0.09773 0.05194,-0.149751 l 0,-1.44525 c 7.9e-5,-0.05642 -0.01718,-0.107319 -0.05202,-0.152947 l 0,0 z m -3.769428,2.040978 c -0.325473,0.325552 -0.718309,0.488329 -1.17843,0.488329 -0.460121,0 -0.852878,-0.162777 -1.178431,-0.488329 -0.325473,-0.325473 -0.488249,-0.71823 -0.488249,-1.178351 0,-0.460121 0.162696,-0.852878 0.488249,-1.178431 0.325553,-0.325473 0.718389,-0.488249 1.178431,-0.488249 0.460121,0 0.852957,0.162776 1.17843,0.488249 0.325473,0.325553 0.488249,0.71831 0.488249,1.178431 0,0.460121 -0.162776,0.852878 -0.488249,1.178351 l 0,0 z"
               id="path4463"
               sketch:type="MSShapeGroup"
               inkscape:connector-curvature="0"
               style="fill:#ffffff;fill-opacity:0.8508065" />
            <path
               d="m 43.117895,4.6138458 c -0.02569,-0.03365 -0.05923,-0.05369 -0.100835,-0.06005 l -0.87864,-0.134427 c -0.04803,-0.15364 -0.113683,-0.310462 -0.196897,-0.470525 0.05758,-0.08003 0.143974,-0.192831 0.25919,-0.338515 0.115215,-0.145683 0.196838,-0.252058 0.244868,-0.319302 0.02564,-0.03524 0.03837,-0.07202 0.03837,-0.110441 0,-0.04479 -0.01114,-0.07997 -0.03359,-0.105609 -0.115215,-0.163305 -0.379296,-0.435342 -0.792243,-0.816288 -0.03831,-0.032 -0.07838,-0.04797 -0.11993,-0.04797 -0.04803,0 -0.08646,0.01438 -0.115274,0.04314 l -0.681743,0.513783 c -0.131304,-0.06724 -0.275338,-0.126472 -0.43216,-0.177685 l -0.134427,-0.883413 c -0.0032,-0.04161 -0.02163,-0.07603 -0.05522,-0.103252 -0.03365,-0.02723 -0.07278,-0.04078 -0.11769,-0.04078 l -1.065872,0 c -0.09282,0 -0.150457,0.04479 -0.172852,0.134427 -0.04161,0.160005 -0.08805,0.457678 -0.13926,0.89302 -0.150457,0.04809 -0.296082,0.108909 -0.436933,0.182517 l -0.66259,-0.513782 c -0.04161,-0.032 -0.08321,-0.04797 -0.124821,-0.04797 -0.07043,0 -0.221649,0.11439 -0.453729,0.343288 -0.232081,0.228898 -0.389669,0.400925 -0.472942,0.51614 -0.02882,0.04161 -0.0432,0.07844 -0.0432,0.110441 0,0.03843 0.01597,0.07685 0.04797,0.115215 0.214459,0.259308 0.38572,0.480132 0.513782,0.662649 -0.08003,0.147216 -0.142442,0.294491 -0.187232,0.441707 l -0.893078,0.134427 c -0.03518,0.0064 -0.06559,0.02723 -0.09123,0.06247 -0.02564,0.03518 -0.03842,0.07202 -0.03842,0.110383 l 0,1.065931 c 0,0.04167 0.01279,0.07921 0.03842,0.112798 0.02564,0.03365 0.05923,0.05375 0.100835,0.06011 l 0.878699,0.129653 c 0.04479,0.156823 0.110382,0.315236 0.196838,0.47524 -0.05758,0.08003 -0.144034,0.192831 -0.259249,0.338515 -0.115215,0.145683 -0.196897,0.252058 -0.244869,0.319301 -0.02564,0.0353 -0.03842,0.07202 -0.03842,0.110442 0,0.04161 0.0112,0.07838 0.03359,0.110382 0.124821,0.172911 0.388902,0.441825 0.792243,0.806683 0.03524,0.03524 0.07526,0.0528 0.120048,0.0528 0.04803,0 0.08805,-0.01438 0.120047,-0.04314 l 0.677029,-0.513842 c 0.131304,0.06724 0.275337,0.126472 0.432159,0.177744 l 0.134428,0.883413 c 0.0032,0.04161 0.02163,0.07603 0.05522,0.103252 0.03359,0.02729 0.07284,0.04078 0.117631,0.04078 l 1.065931,0 c 0.09294,0 0.150516,-0.04479 0.17297,-0.134427 0.04155,-0.160064 0.08793,-0.457678 0.139142,-0.89302 0.150457,-0.04803 0.296141,-0.108909 0.436933,-0.182517 l 0.662648,0.518615 c 0.04479,0.02876 0.08646,0.04314 0.124822,0.04314 0.07037,0 0.220824,-0.113565 0.451254,-0.340872 0.230548,-0.227247 0.388961,-0.400158 0.475299,-0.518615 0.02882,-0.032 0.04326,-0.06878 0.04326,-0.110382 0,-0.04161 -0.01597,-0.08174 -0.04803,-0.120048 -0.23043,-0.281702 -0.401691,-0.502526 -0.513783,-0.662589 0.064,-0.118457 0.126472,-0.264081 0.187291,-0.436934 l 0.888246,-0.134368 c 0.03837,-0.0064 0.07048,-0.02729 0.09606,-0.06253 0.02558,-0.03524 0.03831,-0.07208 0.03831,-0.110442 l 0,-1.065872 c 5.9e-5,-0.04161 -0.01267,-0.07915 -0.03837,-0.112798 l 0,0 z m -2.779953,1.505221 c -0.240037,0.240095 -0.529754,0.360143 -0.869093,0.360143 -0.33934,0 -0.628998,-0.120048 -0.869093,-0.360143 -0.240036,-0.240036 -0.360084,-0.529695 -0.360084,-0.869034 0,-0.339339 0.119989,-0.628998 0.360084,-0.869093 0.240095,-0.240036 0.529812,-0.360084 0.869093,-0.360084 0.339339,0 0.629056,0.120048 0.869093,0.360084 0.240036,0.240095 0.360083,0.529754 0.360083,0.869093 0,0.339339 -0.120047,0.628998 -0.360083,0.869034 l 0,0 z"
               id="path4463-6"
               sketch:type="MSShapeGroup"
               inkscape:connector-curvature="0"
               style="fill:#ffffff;fill-opacity:0.8508065" />
            <path
               d="m 5.5207761,-5.9499116 c 0.03484,0.04563 0.08031,0.0728 0.136725,0.08143 l 1.191376,0.182274 c 0.06513,0.208325 0.154147,0.420965 0.266979,0.638 -0.07807,0.108518 -0.195219,0.261465 -0.351443,0.459002 -0.156224,0.197538 -0.266899,0.341775 -0.332026,0.432952 -0.03476,0.04779 -0.05202,0.09765 -0.05202,0.149751 0,0.06073 0.0151,0.108438 0.04555,0.143199 0.156224,0.22143 0.5143,0.590294 1.074229,1.106831 0.05194,0.04339 0.10628,0.06505 0.162616,0.06505 0.06513,0 0.117228,-0.0195 0.156304,-0.05849 l 0.924396,-0.696661 c 0.178039,0.09118 0.373339,0.171486 0.585979,0.240928 l 0.182275,1.197849 c 0.0043,0.05642 0.02933,0.103083 0.07487,0.140002 0.04563,0.03692 0.09869,0.0553 0.15958,0.0553 l 1.4452499,0 c 0.125858,0 0.20401,-0.06073 0.234375,-0.182274 0.05642,-0.216955 0.119386,-0.62058 0.188827,-1.210874 0.20401,-0.06521 0.401468,-0.147674 0.592452,-0.247481 l 0.898427,0.696654 c 0.05642,0.04339 0.112832,0.06505 0.169249,0.06505 0.09549,0 0.300541,-0.155105 0.615226,-0.465475 0.314685,-0.31037 0.528364,-0.543627 0.641276,-0.699851 0.03908,-0.05642 0.05857,-0.10636 0.05857,-0.149751 0,-0.0521 -0.02165,-0.104202 -0.06505,-0.156224 -0.290792,-0.351603 -0.52301,-0.651025 -0.696654,-0.898506 0.108517,-0.199615 0.193142,-0.399309 0.253873,-0.598924 l 1.210954,-0.182275 c 0.04771,-0.0087 0.08894,-0.03692 0.123701,-0.0847 0.03476,-0.04771 0.0521,-0.09765 0.0521,-0.149671 l 0,-1.445329 c 0,-0.0565 -0.01734,-0.107399 -0.0521,-0.152948 -0.03476,-0.04563 -0.08031,-0.07288 -0.136726,-0.08151 l -1.191443,-0.175807 c -0.06073,-0.21264 -0.149671,-0.427438 -0.266899,-0.644393 0.07807,-0.108518 0.1953,-0.261465 0.351523,-0.459002 0.156224,-0.197538 0.266979,-0.341775 0.332026,-0.432952 0.03476,-0.04787 0.0521,-0.09765 0.0521,-0.149751 0,-0.05642 -0.01518,-0.10628 -0.04555,-0.149671 -0.169247,-0.2344564 -0.527323,-0.5990844 -1.074226,-1.0938064 -0.04779,-0.04779 -0.102045,-0.0716 -0.162776,-0.0716 -0.06513,0 -0.119385,0.0195 -0.162776,0.05849 l -0.918005,0.696734 c -0.178039,-0.09118 -0.373339,-0.171486 -0.585979,-0.241008 l -0.182274,-1.197849 c -0.0044,-0.05642 -0.02933,-0.103083 -0.07488,-0.140002 -0.04555,-0.037 -0.09877,-0.0553 -0.1595,-0.0553 l -1.4453299,0 c -0.126017,0 -0.204089,0.06073 -0.234535,0.182275 -0.05634,0.217035 -0.119226,0.62058 -0.188667,1.210874 -0.20401,0.06513 -0.401547,0.147673 -0.592452,0.247481 l -0.898502,-0.703207 c -0.06073,-0.039 -0.117228,-0.05849 -0.169249,-0.05849 -0.09541,0 -0.299423,0.153987 -0.61187,0.462199 -0.312607,0.308132 -0.527405,0.5425884 -0.644473,0.7032074 -0.03908,0.04339 -0.05865,0.09325 -0.05865,0.149671 0,0.05642 0.02166,0.110835 0.06513,0.162776 0.312447,0.381969 0.544665,0.681392 0.696654,0.898427 -0.08678,0.160619 -0.171487,0.358076 -0.253954,0.592452 l -1.204401,0.182194 c -0.05202,0.0087 -0.09557,0.037 -0.130253,0.08478 -0.03468,0.04779 -0.05194,0.09773 -0.05194,0.149751 l 0,1.44525 c -8e-5,0.05642 0.01718,0.107319 0.05202,0.152947 l 0,0 z m 3.769427,-2.040978 c 0.325473,-0.325553 0.7183099,-0.488329 1.1784309,-0.488329 0.460121,0 0.852878,0.162776 1.178431,0.488329 0.325473,0.325473 0.488249,0.71823 0.488249,1.178351 0,0.460121 -0.162696,0.852878 -0.488249,1.17843 -0.325553,0.325473 -0.71839,0.48825 -1.178431,0.48825 -0.460121,0 -0.8529579,-0.162777 -1.1784309,-0.48825 -0.325472,-0.325552 -0.488249,-0.718309 -0.488249,-1.17843 0,-0.460121 0.162777,-0.852878 0.488249,-1.178351 l 0,0 z"
               id="path4463-63"
               sketch:type="MSShapeGroup"
               inkscape:connector-curvature="0"
               style="fill:#ffffff;fill-opacity:0.8508065" />
            <path
               d="m 1.6321181,1.6361658 c 0.02569,0.03365 0.05923,0.05369 0.100835,0.06005 l 0.87864,0.134427 c 0.04803,0.15364 0.113683,0.310462 0.196897,0.470526 -0.05758,0.08003 -0.143975,0.19283 -0.25919,0.338514 -0.115215,0.145683 -0.196838,0.252058 -0.244868,0.319302 -0.02564,0.03524 -0.03837,0.07202 -0.03837,0.110441 0,0.04479 0.01114,0.07997 0.03359,0.105609 0.115215,0.163305 0.379296,0.435342 0.792243,0.816288 0.03831,0.032 0.07838,0.04797 0.11993,0.04797 0.04803,0 0.08646,-0.01438 0.115274,-0.04314 l 0.681743,-0.513777 c 0.131304,0.06724 0.275338,0.126472 0.43216,0.177685 l 0.134427,0.883414 c 0.0032,0.04161 0.02163,0.07602 0.05522,0.103251 0.03365,0.02723 0.07278,0.04078 0.11769,0.04078 l 1.065872,0 c 0.09282,0 0.150457,-0.04479 0.172852,-0.134427 0.04161,-0.160005 0.08805,-0.457678 0.13926,-0.89302 0.150457,-0.04809 0.296082,-0.108909 0.436933,-0.182517 l 0.66259,0.513782 c 0.04161,0.032 0.08321,0.04797 0.124821,0.04797 0.07043,0 0.221649,-0.11439 0.453729,-0.343288 0.232081,-0.228897 0.389669,-0.400924 0.472942,-0.516139 0.02882,-0.04161 0.0432,-0.07844 0.0432,-0.110442 0,-0.03843 -0.01597,-0.07685 -0.04797,-0.115215 -0.214459,-0.259303 -0.38572,-0.480127 -0.513782,-0.662645 0.08003,-0.147216 0.142442,-0.29449 0.187231,-0.441706 l 0.893079,-0.134428 c 0.03518,-0.0064 0.06559,-0.02723 0.09123,-0.06247 0.02564,-0.03518 0.03843,-0.07202 0.03843,-0.110383 l 0,-1.0659314 c 0,-0.04167 -0.01279,-0.07921 -0.03843,-0.112798 -0.02564,-0.03365 -0.05923,-0.05375 -0.100835,-0.06011 l -0.8787,-0.129655 c -0.04479,-0.156822 -0.110382,-0.315236 -0.196838,-0.47524 0.05758,-0.08003 0.144034,-0.192831 0.259249,-0.338514 0.115215,-0.145684 0.196897,-0.252059 0.244869,-0.319302 0.02564,-0.0353 0.03843,-0.07202 0.03843,-0.110442 0,-0.04161 -0.0112,-0.07838 -0.03359,-0.110382 -0.124822,-0.172911 -0.388903,-0.441825 -0.792244,-0.806682 -0.03524,-0.03524 -0.07526,-0.05281 -0.120047,-0.05281 -0.04803,0 -0.08805,0.01438 -0.120048,0.04314 l -0.677029,0.513846 c -0.131304,-0.06724 -0.275337,-0.126471 -0.43216,-0.177744 l -0.134427,-0.883413 c -0.0032,-0.04161 -0.02163,-0.07602 -0.05522,-0.103252 -0.03359,-0.02729 -0.07284,-0.04078 -0.117631,-0.04078 l -1.065931,0 c -0.09294,0 -0.150516,0.04479 -0.17297,0.134428 -0.04155,0.160063 -0.08793,0.457677 -0.139142,0.893019 -0.150457,0.04803 -0.296141,0.10891 -0.436933,0.182518 l -0.662649,-0.518618 c -0.04479,-0.02876 -0.08646,-0.04314 -0.124821,-0.04314 -0.07037,0 -0.220824,0.113565 -0.451254,0.340872 -0.230548,0.227247 -0.388961,0.400158 -0.475299,0.518615 -0.02882,0.032 -0.04326,0.06878 -0.04326,0.110382 0,0.04161 0.01597,0.08174 0.04803,0.120048 0.23043,0.281702 0.401691,0.502526 0.513783,0.662589 -0.064,0.118457 -0.126472,0.264082 -0.187291,0.436934 l -0.888246,0.134369 c -0.03837,0.0064 -0.07048,0.02729 -0.09606,0.06253 -0.02558,0.03524 -0.03831,0.07207 -0.03831,0.110441 l 0,1.0658724 c -5.9e-5,0.04161 0.01267,0.07915 0.03837,0.112799 l 0,0 z m 2.779953,-1.5052224 c 0.240037,-0.240095 0.529754,-0.360142 0.869093,-0.360142 0.339339,0 0.628998,0.120047 0.869093,0.360142 0.240036,0.240037 0.360084,0.529695 0.360084,0.8690344 0,0.339339 -0.119989,0.628998 -0.360084,0.869093 -0.240095,0.240036 -0.529813,0.360084 -0.869093,0.360084 -0.339339,0 -0.629056,-0.120048 -0.869093,-0.360084 -0.240036,-0.240095 -0.360084,-0.529754 -0.360084,-0.869093 0,-0.3393394 0.120048,-0.6289974 0.360084,-0.8690344 l 0,0 z"
               id="path4463-6-4"
               sketch:type="MSShapeGroup"
               inkscape:connector-curvature="0"
               style="fill:#ffffff;fill-opacity:0.8508065" />
          </g>
        </g>
      </g>
    </g>
  </g>
</svg>
