<svg xmlns="http://www.w3.org/2000/svg" xmlns:xlink="http://www.w3.org/1999/xlink" viewBox="0 0 48 48"><defs><linearGradient xlink:href="#1" id="3" x1="24.346" y1="18.218" x2="25.856" y2="6.763" gradientUnits="userSpaceOnUse"/><linearGradient xlink:href="#1" id="2" x1="16.488" y1="16.91" x2="17.759" y2="-.326" gradientUnits="userSpaceOnUse"/><linearGradient id="0" y1="543.8" x2="0" y2="503.8" gradientUnits="userSpaceOnUse"><stop stop-color="#030303"/><stop offset="1" stop-color="#383838"/></linearGradient><linearGradient id="1"><stop stop-color="#197cf1"/><stop offset="1" stop-color="#20bcfa"/></linearGradient></defs><g transform="matrix(1.15 0 0 1.15-445.86-578.37)"><rect y="503.8" x="388.57" height="40" width="40" fill="url(#0)" rx="20"/><g transform="matrix(1.21936 0 0 1.21936 382.99 507.86)" fill-opacity="1"><path d="m24.959 16.771h-1.405l2.641-7.415h1.406l-2.642 7.415m3.531-8.934h-4.555l-6.461 18.14h2.799l2.753-7.731h2.8c.619 0 1.399-.185 1.723-1.108.322-.924 2.072-5.767 2.557-7.222.484-1.457-.673-2.082-1.616-2.082" fill="url(#3)"/><path d="m21.447 10.151l-2.757 7.732h-2.774l3.03-8.508h-1.429l-3.03 8.508h-2.799l6.375-17.873h2.799l-2.807 7.871h1.885c1.357 0 1.914 1.064 1.507 2.27" fill="url(#2)"/></g></g></svg>