<svg xmlns="http://www.w3.org/2000/svg" viewBox="0 0 48 48"><defs><linearGradient gradientTransform="matrix(.43355 0 0 .43481 83.78-97.62)" gradientUnits="userSpaceOnUse" y2="154.58" x2="-111.09" y1="260.25" x1="-112.53" id="0"><stop stop-color="#95a9bb"/><stop offset="1" stop-color="#cad3dc"/></linearGradient></defs><g transform="matrix(.99999 0 0 .99999-13.371 30.882)" enable-background="new"><rect y="-30.801" x="13.375" height="47.851" width="48" fill="url(#0)" rx="3.752"/><path d="m32.802-21.455l-10.546 13.583c-4.01 5.03 3.398 3.809 6.287 5.211 1.338.669-3.787 2.309-2.593 3.259 1.165.953 6.522 1.341 7.684 2.265 1.165.953-1.865 2.442-.699 3.395 1.136.956 3.455-.335 4.166 2.049.523 1.76 4.564.39 6.244-1.356 1.047-1.117-2.111-.757-1.19-1.948 2.308-2.933 4.791-1.748 5.47-4.29.373-1.363-4.195-1.782-3.102-2.757 2.612-2.322 12.928-4.523 7.57-8.784l-13.813-11.249c-1.701-1.273-4.221-.986-5.476.623m16.386 21.989c.069.608 4.832.418 4.446-.653-.588-1.811-4.135-1.26-4.446.653m-19.772 5.508c1.178.805 2.672-.51 3.045-1.872-1.198-1.243-4.887.644-3.045 1.872m19.337-4.167c-1.194 1.368.515 2.465 1.724 1.476.321-.271-.184-1.358-1.724-1.476" fill-opacity=".677"/><path d="m37.592-21.665l5.27 4.271c.484.385.586 1.283.355 1.573l-2.565-1.645-.144 2.862-2.06-.822-2.931 2.358-1.521-4.081-1.265 3.841-4.205.449c-.811.092-.791-.761-.046-1.697 1.444-2.01 4.307-5.478 5.199-6.666.921-1.19 2.75-1.369 3.912-.445" fill="#bfcad5"/></g></svg>