<svg xmlns="http://www.w3.org/2000/svg" viewBox="0 0 48 48"><defs><linearGradient gradientUnits="userSpaceOnUse" y2="517.8" x2="0" y1="545.8"><stop stop-color="#3889e9"/><stop offset="1" stop-color="#5ea5fb"/></linearGradient><linearGradient y2="518.14" x2="0" y1="545.14" gradientUnits="userSpaceOnUse" id="0"><stop stop-color="#f16419"/><stop offset="1" stop-color="#feb600"/></linearGradient></defs><g transform="matrix(1.71427 0 0 1.71427-69.21 13.512)" enable-background="new"><g transform="translate(-346.19-525.67)"><circle r="14" cy="531.8" cx="400.57" fill="url(#0)"/><circle cx="400.57" cy="531.8" r="14" fill="#5ea5fb" fill-opacity="0"/></g><path d="m14.257 275.6c-31.31-55.21-10-141.8 54.766-206.59 73.55-73.54 175.26-91.08 227.18-39.16.061.068.112.145.195.214-10.392 30.23-43.486 94.57-142.69 129.35-90.87 31.878-125.93 82.56-139.46 116.19m296.55-226.85c-7.871 18.361-21.57 42.36-45.17 65.957-23.725 23.735-57.44 47.05-105.21 63.8-96.94 33.993-124.02 89.64-131.58 116.61.357.36.664.733 1.01 1.083 51.921 51.918 153.63 34.386 227.18-39.17 65.44-65.44 86.49-153.16 53.775-208.28z" fill="#fff" fill-opacity=".849" transform="matrix(.05009 0 0 .05009 46.21-2.042)"/></g></svg>