<svg xmlns="http://www.w3.org/2000/svg" viewBox="0 0 48 48"><defs><linearGradient id="0" x1="58.688" y1="12.344" x2="58.1" y2="-35.22" gradientUnits="userSpaceOnUse"><stop stop-color="#95a9bb"/><stop offset="1" stop-color="#d1dae3"/></linearGradient></defs><g transform="matrix(.99999 0 0 .99999-33.371 35.882)" enable-background="new"><g fill-rule="evenodd"><rect y="-35.875" x="34.18" height="48" width="46.4" fill="url(#0)" rx="2.982"/><g fill="#5c5c5e"><ellipse cy="-31.25" cx="39.547" rx="1.672" ry="1.672"/><ellipse cy="-31.25" cx="43.964" rx="1.672" ry="1.672"/><ellipse cy="-31.25" cx="48.42" rx="1.672" ry="1.672"/></g></g><path d="m45.858 4.856h9.571v1.238h3.48v-1.238h9.612v1.399h3.48v-3.466h-1.284v-9.694h1.243v-3.466h-1.243v-8.999h1.284v-3.466h-3.48v.705h-9.612v-1.238h-3.48v1.238h-9.571v-.867h-3.48v3.466h1.243v9.161h-1.243v3.466h1.243v9.532h-1.243v3.466h3.48v-1.238m-.994 0v.248h-1.492v-1.486h.249.994.249v.248.99m11.559-26.987v-.248h1.492v.248.518.472.248h-1.492v-.248-.472-.518m1.492 26.987v.248h-1.492v-.248-.518-.472-.248h1.492v.248.472.518m.166-12.936c.097.097.097.253 0 .35-.049.048-.112.072-.176.072-.063 0-.127-.024-.176-.072l-.559-.557-.559.557c-.049.048-.112.072-.176.072-.064 0-.127-.024-.176-.072-.097-.097-.097-.253 0-.35l.559-.557-.559-.557c-.097-.096-.097-.254 0-.35.097-.096.255-.096.352 0l.56.557.559-.557c.097-.096.254-.096.352 0 .097.096.097.254 0 .35l-.559.557.56.557m12.927 13.345h-1.491v-.409-.99-.086h.207.994.29v1.485m-2.486-2.476v1.076h-7.787c4.34-1.225 7.758-4.63 8.988-8.952v7.876h-1.202m2.445-10.684h-.249-.52-.474-.249v-1.486h.249.474.52.249v1.486m-1.45-13.951h1.202.29v1.486h-.29-.994-.207v-.78-.705m-.994.705v1.771h1.202v7.181c-1.23-4.323-4.649-7.727-8.988-8.952h7.787m-25.15-.867h.249 1.243v.867.619h-.249-.994-.249v-1.486m2.486 2.476v-1.609h7.745c-4.34 1.226-7.758 4.629-8.988 8.952v-7.342h1.243m-2.486 10.151h.249.52.474.249v1.486h-.249-.474-.52-.249v-1.486m1.243 4.294c1.231 4.323 4.648 7.727 8.988 8.952h-7.745v-1.238h-1.243v-7.714" fill-opacity=".581"/></g></svg>