<?xml version="1.0" encoding="UTF-8" standalone="no"?>
<!-- Created with Inkscape (http://www.inkscape.org/) -->

<svg
   xmlns:dc="http://purl.org/dc/elements/1.1/"
   xmlns:cc="http://creativecommons.org/ns#"
   xmlns:rdf="http://www.w3.org/1999/02/22-rdf-syntax-ns#"
   xmlns:svg="http://www.w3.org/2000/svg"
   xmlns="http://www.w3.org/2000/svg"
   xmlns:xlink="http://www.w3.org/1999/xlink"
   xmlns:sodipodi="http://sodipodi.sourceforge.net/DTD/sodipodi-0.dtd"
   xmlns:inkscape="http://www.inkscape.org/namespaces/inkscape"
   width="48"
   height="48"
   id="svg5453"
   version="1.1"
   inkscape:version="0.91 r13725"
   sodipodi:docname="keepass.svg">
  <defs
     id="defs5455">
    <linearGradient
       gradientTransform="matrix(0.04882351,0,0,0.04882351,28.420942,-35.829061)"
       inkscape:collect="always"
       xlink:href="#linearGradient4309"
       id="linearGradient4271"
       gradientUnits="userSpaceOnUse"
       x1="487.74164"
       y1="985.34576"
       x2="493.5094"
       y2="11.610633" />
    <linearGradient
       id="linearGradient4309"
       inkscape:collect="always">
      <stop
         id="stop4311"
         offset="0"
         style="stop-color:#14a102;stop-opacity:1" />
      <stop
         id="stop4313"
         offset="1"
         style="stop-color:#80e950;stop-opacity:1" />
    </linearGradient>
  </defs>
  <sodipodi:namedview
     id="base"
     pagecolor="#ffffff"
     bordercolor="#666666"
     borderopacity="1.0"
     inkscape:pageopacity="0"
     inkscape:pageshadow="2"
     inkscape:zoom="4"
     inkscape:cx="-39.601104"
     inkscape:cy="15.968792"
     inkscape:document-units="px"
     inkscape:current-layer="g4370"
     showgrid="true"
     fit-margin-top="0"
     fit-margin-left="0"
     fit-margin-right="0"
     fit-margin-bottom="0"
     inkscape:window-width="1366"
     inkscape:window-height="634"
     inkscape:window-x="0"
     inkscape:window-y="36"
     inkscape:window-maximized="1"
     inkscape:showpageshadow="false"
     borderlayer="true"
     showguides="false">
    <inkscape:grid
       type="xygrid"
       id="grid4063" />
    <sodipodi:guide
       position="1.1650391e-05,32.000026"
       orientation="32,0"
       id="guide4157" />
    <sodipodi:guide
       position="1.1650391e-05,2.6367188e-05"
       orientation="0,32"
       id="guide4159" />
    <sodipodi:guide
       position="32.000012,2.6367188e-05"
       orientation="-32,0"
       id="guide4161" />
    <sodipodi:guide
       position="32.000012,32.000026"
       orientation="0,-32"
       id="guide4163" />
    <sodipodi:guide
       position="2.0000117,30.000026"
       orientation="28,0"
       id="guide4167" />
    <sodipodi:guide
       position="2.0000117,2.0000264"
       orientation="0,28"
       id="guide4169" />
    <sodipodi:guide
       position="30.000012,2.0000264"
       orientation="-28,0"
       id="guide4171" />
    <sodipodi:guide
       position="30.000012,30.000026"
       orientation="0,-28"
       id="guide4173" />
    <sodipodi:guide
       position="2.0000117,30.000026"
       orientation="28,0"
       id="guide4181" />
    <sodipodi:guide
       position="2.0000117,2.0000264"
       orientation="0,14"
       id="guide4183" />
    <sodipodi:guide
       position="16.000012,2.0000264"
       orientation="-28,0"
       id="guide4185" />
    <sodipodi:guide
       position="16.000012,30.000026"
       orientation="0,-14"
       id="guide4187" />
    <sodipodi:guide
       position="9.0000117,23.000026"
       orientation="14,0"
       id="guide4193" />
    <sodipodi:guide
       position="9.0000117,9.0000264"
       orientation="0,14.000031"
       id="guide4195" />
    <sodipodi:guide
       position="23.000042,9.0000264"
       orientation="-14,0"
       id="guide4197" />
    <sodipodi:guide
       position="23.000042,23.000026"
       orientation="0,-14.000031"
       id="guide4199" />
  </sodipodi:namedview>
  <metadata
     id="metadata5458">
    <rdf:RDF>
      <cc:Work
         rdf:about="">
        <dc:format>image/svg+xml</dc:format>
        <dc:type
           rdf:resource="http://purl.org/dc/dcmitype/StillImage" />
        <dc:title></dc:title>
      </cc:Work>
    </rdf:RDF>
  </metadata>
  <g
     inkscape:label="Capa 1"
     inkscape:groupmode="layer"
     id="layer1"
     transform="translate(-384.57143,-499.798)">
    <g
       style="display:inline;enable-background:new"
       id="g4238"
       transform="translate(225.81911,462.44565)">
      <g
         style="display:inline"
         id="layer1-8"
         transform="matrix(0.22655187,0,0,0.22655187,106.94841,54.31088)">
        <g
           style="display:none"
           id="layer6" />
        <g
           id="g4027" />
        <g
           id="g4061" />
        <g
           id="g3751" />
        <g
           id="g3782" />
        <g
           id="g3725" />
        <g
           id="g4370"
           transform="matrix(4.4140002,0,0,4.4140002,59.275211,39.357303)">
          <g
             id="g4182"
             transform="translate(9.9999986,9.9999998)">
            <path
               style="opacity:1;fill:url(#linearGradient4271);fill-opacity:1;stroke:none;stroke-width:9.51243782;stroke-miterlimit:4;stroke-dasharray:none;stroke-opacity:1"
               inkscape:connector-curvature="0"
               d="m 74.619211,-25.739634 c -0.01465,-1.12294 -0.878823,-2.050587 -1.996833,-2.153165 -9.291113,-0.869059 -16.873453,-5.83441 -19.373168,-7.650644 -0.522412,-0.380823 -1.230353,-0.380823 -1.752764,0 -2.494882,1.816234 -10.077173,6.781585 -19.368287,7.650644 -1.118058,0.102578 -1.977352,1.030225 -1.996881,2.153165 -0.112294,7.328409 1.064352,32.2088206 21.682521,37.745456 0.366176,0.09765 0.751882,0.09765 1.118058,0 20.618168,-5.5317044 21.794766,-30.417096 21.687354,-37.745456 z"
               id="path4168" />
            <path
               id="path4168-0"
               d="m 52.345703,-30.044922 c -0.236399,0 -0.473077,0.07296 -0.673828,0.220703 -1.917457,1.409263 -7.74402,5.263174 -14.884766,5.937499 -0.859291,0.07959 -1.520147,0.798603 -1.535156,1.669922 -0.0863,5.686301 0.817835,24.9910916 16.664063,29.2871086 0.281427,0.07577 0.577947,0.07577 0.859375,0 15.846227,-4.292191 16.75052,-23.6008456 16.667968,-29.2871086 -0.01126,-0.871319 -0.673949,-1.590329 -1.533203,-1.669922 -7.140746,-0.674325 -12.969453,-4.528236 -14.890625,-5.937499 -0.200751,-0.147745 -0.437429,-0.220703 -0.673828,-0.220703 z m 2.986328,10.185546 c 2.779823,0 5.027344,2.247552 5.027344,5.027344 0,2.779792 -2.247521,5.027343 -5.027344,5.027343 -0.650577,0 -1.241118,-0.119455 -1.773437,-0.296874 l -2.66211,2.662109 -1.77539,0 0,1.775391 -1.773438,0 0,1.773437 -2.957031,0 0,-2.957031 6.210937,-6.210938 c -0.177419,-0.591448 -0.296874,-1.181989 -0.296874,-1.773437 -10e-7,-2.779792 2.247551,-5.027344 5.027343,-5.027344 z m 1.478516,1.773437 c -1.005478,1e-6 -1.773438,0.769913 -1.773438,1.775391 0,1.005478 0.76796,1.773438 1.773438,1.773438 1.005478,0 1.775391,-0.76796 1.775391,-1.773438 0,-1.005478 -0.769913,-1.775391 -1.775391,-1.775391 z"
               style="opacity:0.675;fill:#ffffff;fill-opacity:1;stroke:none;stroke-width:9.51243782;stroke-miterlimit:4;stroke-dasharray:none;stroke-opacity:1"
               inkscape:connector-curvature="0" />
          </g>
        </g>
      </g>
    </g>
  </g>
</svg>
