<svg xmlns="http://www.w3.org/2000/svg" viewBox="0 0 48 48"><defs><linearGradient id="0" x1="408.13" y1="547.6" x2="407.81" y2="498.89" gradientUnits="userSpaceOnUse"><stop stop-color="#ff9300"/><stop offset="1" stop-color="#ffd702"/></linearGradient></defs><g transform="translate(-384.57-499.8)"><rect y="501.28" x="386" height="45.19" width="45.19" transform="matrix(1.01155 0 0 1.01155-4.746-6.124)" fill="url(#0)" stroke="url(#0)" fill-opacity=".851" stroke-width="2.26" rx="22.596"/><path d="m424.25 518.95c.079.19.13.312-.0001-.004-.304-.732-.123-.296-.002-.004-.854-2.048-3.777-2.887-5.347-1.1-.655.746-.886 1.714-1.303 2.591-.492 1.033-2.054 2.031-3.202 1.453.756-.54 1.49-.899 2.062-1.667.56-.752 1.012-1.894.469-2.774-.459-.743-1.492-1.124-2.33-.937-.967.216-1.315 1.019-1.576 1.877-.312 1.025-.66 1.533-1.805 1.364-.77-.114-2.13-.577-2.067-1.555.064-1.013.785-1.989 1.308-2.822.626-.999 1.343-1.927 1.575-3.111.417-2.128-.626-4.138-2.898-4.433-2.228-.289-3.509 1.578-3.267 3.653.119 1.019.665 1.849.907 2.823.301 1.211.109 2.478-.167 3.673-.205.885-.804 1.838-1.735 2.115-1.022.304-1.524-.593-1.65-1.433-.199-1.33-.816-2.605-2.383-2.236-.946.223-1.651.947-1.902 1.884-.281 1.049.23 1.901.874 2.687.328.401 1.202 1.2 1.11 1.791-.154.997-2.13-.182-2.449-.423-.874-.659-1.755-1.246-2.91-1.107-1.068.128-2.081.91-2.567 1.858-1.049 2.047.478 4.269 2.386 5.067 2.138.894 4.04-.554 6.203-.554.425 0 1.757.035 1.533.781-.295.982-1.398 1.473-2.271 1.801-.907.341-1.773.755-2.191 1.695-.419.945-.118 2.023.568 2.753 1.322 1.411 3.664 1.876 5.074.334.63-.69.887-1.57 1.17-2.437.073-.224.238-.979.616-.82.577.244.101.964-.113 1.281-1.122 1.667-.21 4.01 2.032 3.478.782-.184 1.353-.767 1.463-1.571.133-.969-.423-2.237.699-2.808.912-.464.778 1.427.743 1.861-.09 1.122-.043 2.26.308 3.338.664 2.04 2.972 3.412 4.787 1.729 1.6-1.483 1.466-3.975-.228-5.304-.738-.579-3.975-1.92-2.22-3.102 1.792-1.206 5.387 1.637 6.207-1.281.235-.838-.177-1.732-.959-2.103-.548-.26-1.178-.251-1.765-.165-.325.048-1.128.372-1.29-.062-.696-1.859 2.624-3.542 4.02-3.643 1.298-.094 2.571.125 3.646-.801 1.042-.898 1.354-2.371.833-3.63" fill="#fff" fill-opacity=".849"/></g></svg>