<?xml version="1.0" encoding="UTF-8" standalone="no"?>
<!-- Created with Inkscape (http://www.inkscape.org/) -->

<svg
   xmlns:sketch="http://www.bohemiancoding.com/sketch/ns"
   xmlns:dc="http://purl.org/dc/elements/1.1/"
   xmlns:cc="http://creativecommons.org/ns#"
   xmlns:rdf="http://www.w3.org/1999/02/22-rdf-syntax-ns#"
   xmlns:svg="http://www.w3.org/2000/svg"
   xmlns="http://www.w3.org/2000/svg"
   xmlns:xlink="http://www.w3.org/1999/xlink"
   xmlns:sodipodi="http://sodipodi.sourceforge.net/DTD/sodipodi-0.dtd"
   xmlns:inkscape="http://www.inkscape.org/namespaces/inkscape"
   width="48"
   height="48"
   id="svg5453"
   version="1.1"
   inkscape:version="0.91 r13725"
   sodipodi:docname="kmag.svg">
  <defs
     id="defs5455">
    <linearGradient
       inkscape:collect="always"
       xlink:href="#linearGradient4215"
       id="linearGradient4222"
       x1="409.57144"
       y1="542.79797"
       x2="409.57144"
       y2="507.798"
       gradientUnits="userSpaceOnUse"
       gradientTransform="matrix(1.0909091,0,0,1.0652838,-403.33932,-555.93378)" />
    <linearGradient
       inkscape:collect="always"
       id="linearGradient4215">
      <stop
         style="stop-color:#00a661;stop-opacity:1"
         offset="0"
         id="stop4217" />
      <stop
         style="stop-color:#37ce97;stop-opacity:1"
         offset="1"
         id="stop4219" />
    </linearGradient>
  </defs>
  <sodipodi:namedview
     id="base"
     pagecolor="#ffffff"
     bordercolor="#666666"
     borderopacity="1.0"
     inkscape:pageopacity="0"
     inkscape:pageshadow="2"
     inkscape:zoom="4"
     inkscape:cx="-39.601104"
     inkscape:cy="15.968792"
     inkscape:document-units="px"
     inkscape:current-layer="g4370"
     showgrid="true"
     fit-margin-top="0"
     fit-margin-left="0"
     fit-margin-right="0"
     fit-margin-bottom="0"
     inkscape:window-width="1366"
     inkscape:window-height="634"
     inkscape:window-x="0"
     inkscape:window-y="36"
     inkscape:window-maximized="1"
     inkscape:showpageshadow="false"
     borderlayer="true"
     showguides="false">
    <inkscape:grid
       type="xygrid"
       id="grid4063" />
    <sodipodi:guide
       position="1.1650391e-05,32.000026"
       orientation="32,0"
       id="guide4157" />
    <sodipodi:guide
       position="1.1650391e-05,2.6367188e-05"
       orientation="0,32"
       id="guide4159" />
    <sodipodi:guide
       position="32.000012,2.6367188e-05"
       orientation="-32,0"
       id="guide4161" />
    <sodipodi:guide
       position="32.000012,32.000026"
       orientation="0,-32"
       id="guide4163" />
    <sodipodi:guide
       position="2.0000117,30.000026"
       orientation="28,0"
       id="guide4167" />
    <sodipodi:guide
       position="2.0000117,2.0000264"
       orientation="0,28"
       id="guide4169" />
    <sodipodi:guide
       position="30.000012,2.0000264"
       orientation="-28,0"
       id="guide4171" />
    <sodipodi:guide
       position="30.000012,30.000026"
       orientation="0,-28"
       id="guide4173" />
    <sodipodi:guide
       position="2.0000117,30.000026"
       orientation="28,0"
       id="guide4181" />
    <sodipodi:guide
       position="2.0000117,2.0000264"
       orientation="0,14"
       id="guide4183" />
    <sodipodi:guide
       position="16.000012,2.0000264"
       orientation="-28,0"
       id="guide4185" />
    <sodipodi:guide
       position="16.000012,30.000026"
       orientation="0,-14"
       id="guide4187" />
    <sodipodi:guide
       position="9.0000117,23.000026"
       orientation="14,0"
       id="guide4193" />
    <sodipodi:guide
       position="9.0000117,9.0000264"
       orientation="0,14.000031"
       id="guide4195" />
    <sodipodi:guide
       position="23.000042,9.0000264"
       orientation="-14,0"
       id="guide4197" />
    <sodipodi:guide
       position="23.000042,23.000026"
       orientation="0,-14.000031"
       id="guide4199" />
  </sodipodi:namedview>
  <metadata
     id="metadata5458">
    <rdf:RDF>
      <cc:Work
         rdf:about="">
        <dc:format>image/svg+xml</dc:format>
        <dc:type
           rdf:resource="http://purl.org/dc/dcmitype/StillImage" />
        <dc:title></dc:title>
      </cc:Work>
    </rdf:RDF>
  </metadata>
  <g
     inkscape:label="Capa 1"
     inkscape:groupmode="layer"
     id="layer1"
     transform="translate(-384.57143,-499.798)">
    <g
       style="display:inline;enable-background:new"
       id="g4238"
       transform="translate(225.81911,462.44565)">
      <g
         style="display:inline"
         id="layer1-8"
         transform="matrix(0.22655187,0,0,0.22655187,106.94841,54.31088)">
        <g
           style="display:none"
           id="layer6" />
        <g
           id="g4027" />
        <g
           id="g4061" />
        <g
           id="g3751" />
        <g
           id="g3782" />
        <g
           id="g3725" />
        <g
           id="g4370"
           transform="matrix(4.4140002,0,0,4.4140002,59.275211,39.357303)">
          <g
             id="g4182"
             transform="translate(20,-4.9999996)">
            <rect
               ry="1.7044541"
               y="-14.984824"
               x="18.375"
               height="36.219646"
               width="48"
               id="rect4195"
               style="opacity:1;fill:url(#linearGradient4222);fill-opacity:1;stroke:none;stroke-width:0.2;stroke-linecap:round;stroke-linejoin:round;stroke-miterlimit:4;stroke-dasharray:none;stroke-opacity:1" />
            <path
               style="opacity:0.72100004;fill:#000000;fill-opacity:0.84677423"
               inkscape:connector-curvature="0"
               sketch:type="MSShapeGroup"
               id="path1074"
               d="m 51.944856,10.516186 -4.12879,-4.1287802 c 0.99508,-1.4364 1.49284,-3.03753 1.49284,-4.80295 0,-1.1475504 -0.22281,-2.2450104 -0.66826,-3.2922404 -0.44531,-1.04738 -1.04723,-1.95011 -1.80561,-2.70849 -0.75839,-0.75839 -1.66097,-1.36031 -2.7082,-1.80562 -1.04752,-0.44545 -2.14499,-0.66811 -3.29254,-0.66811 -1.14754,0 -2.24501,0.22266 -3.29224,0.66811 -1.04737,0.44531 -1.9501,1.04723 -2.70849,1.80562 -0.75838,0.75838 -1.3603,1.66126 -1.80561,2.70849 -0.44546,1.04737 -0.66811,2.14469 -0.66811,3.2922404 0,1.14755 0.22265,2.24471 0.66811,3.29224 0.44531,1.04723 1.04723,1.94981 1.80561,2.70819 0.75839,0.75853 1.66127,1.36031 2.70849,1.80576 1.04738,0.44546 2.1447,0.6681102 3.29224,0.6681102 1.76572,0 3.36671,-0.4977502 4.8031,-1.4928302 l 4.12878,4.1166702 c 0.28885,0.30495 0.64964,0.45742 1.08328,0.45742 0.41724,0 0.77863,-0.15247 1.08328,-0.45742 0.30495,-0.3048 0.45742,-0.66604 0.45742,-1.08328 1.5e-4,-0.42507 -0.14819,-0.78631 -0.4453,-1.08313 l 0,0 z m -7.30061,-5.1220802 c -1.05536,1.05535 -2.32524,1.58295 -3.80995,1.58295 -1.48456,0 -2.75444,-0.52775 -3.80979,-1.58295 -1.05536,-1.05536 -1.58296,-2.32509 -1.58296,-3.8098 0,-1.4845604 0.52775,-2.7545904 1.58296,-3.8098004 1.0552,-1.05535 2.32523,-1.58295 3.80979,-1.58295 1.48456,0 2.75445,0.52775 3.80995,1.58295 1.05535,1.05521 1.5831,2.32524 1.5831,3.8098004 0,1.48471 -0.5279,2.75444 -1.5831,3.8098 l 0,0 z" />
          </g>
        </g>
      </g>
    </g>
  </g>
</svg>
