<?xml version="1.0" encoding="UTF-8" standalone="no"?>
<!-- Created with Inkscape (http://www.inkscape.org/) -->

<svg
   xmlns:osb="http://www.openswatchbook.org/uri/2009/osb"
   xmlns:dc="http://purl.org/dc/elements/1.1/"
   xmlns:cc="http://creativecommons.org/ns#"
   xmlns:rdf="http://www.w3.org/1999/02/22-rdf-syntax-ns#"
   xmlns:svg="http://www.w3.org/2000/svg"
   xmlns="http://www.w3.org/2000/svg"
   xmlns:xlink="http://www.w3.org/1999/xlink"
   xmlns:sodipodi="http://sodipodi.sourceforge.net/DTD/sodipodi-0.dtd"
   xmlns:inkscape="http://www.inkscape.org/namespaces/inkscape"
   width="48px"
   height="48px"
   id="svg2985"
   version="1.1"
   inkscape:version="0.91 r13725"
   sodipodi:docname="kmenuedit.svg">
  <defs
     id="defs2987">
    <linearGradient
       id="linearGradient4207"
       osb:paint="gradient">
      <stop
         style="stop-color:#3498db;stop-opacity:1;"
         offset="0"
         id="stop3371" />
      <stop
         style="stop-color:#3498db;stop-opacity:0;"
         offset="1"
         id="stop3373" />
    </linearGradient>
    <linearGradient
       gradientTransform="matrix(1.0523327,0,0,1.0276135,-21.151387,-14.039869)"
       gradientUnits="userSpaceOnUse"
       y2="507.798"
       x2="409.57144"
       y1="542.79797"
       x1="409.57144"
       id="linearGradient4222"
       xlink:href="#linearGradient4215"
       inkscape:collect="always" />
    <linearGradient
       id="linearGradient4215"
       inkscape:collect="always">
      <stop
         id="stop4217"
         offset="0"
         style="stop-color:#00a661;stop-opacity:1" />
      <stop
         id="stop4219"
         offset="1"
         style="stop-color:#37ce97;stop-opacity:1" />
    </linearGradient>
  </defs>
  <sodipodi:namedview
     id="base"
     pagecolor="#5a5a5a"
     bordercolor="#666666"
     borderopacity="1.0"
     inkscape:pageopacity="0"
     inkscape:pageshadow="2"
     inkscape:zoom="3.0323572"
     inkscape:cx="-0.36809695"
     inkscape:cy="27.054775"
     inkscape:current-layer="layer1"
     showgrid="false"
     inkscape:grid-bbox="true"
     inkscape:document-units="px"
     inkscape:snap-global="true"
     inkscape:window-width="1366"
     inkscape:window-height="633"
     inkscape:window-x="0"
     inkscape:window-y="33"
     inkscape:window-maximized="0"
     inkscape:snap-bbox="true"
     inkscape:bbox-nodes="true"
     inkscape:object-nodes="true"
     inkscape:snap-nodes="true"
     inkscape:snap-others="false"
     inkscape:snap-bbox-edge-midpoints="true"
     showborder="false">
    <inkscape:grid
       type="xygrid"
       id="grid2993" />
  </sodipodi:namedview>
  <metadata
     id="metadata2990">
    <rdf:RDF>
      <cc:Work
         rdf:about="">
        <dc:format>image/svg+xml</dc:format>
        <dc:type
           rdf:resource="http://purl.org/dc/dcmitype/StillImage" />
        <dc:title></dc:title>
      </cc:Work>
    </rdf:RDF>
  </metadata>
  <g
     id="layer1"
     inkscape:label="Layer 1"
     inkscape:groupmode="layer">
    <g
       transform="matrix(1.2850259,0,0,1.2850259,-625.00773,141.84117)"
       style="display:inline;fill:#ffffff;fill-opacity:0.84677423;enable-background:new"
       id="g4269">
      <rect
         style="opacity:1;fill:url(#linearGradient4222);fill-opacity:1;stroke:none;stroke-width:0.2;stroke-linecap:round;stroke-linejoin:round;stroke-miterlimit:4;stroke-dasharray:none;stroke-opacity:1"
         id="rect4195"
         width="46.302639"
         height="34.938858"
         x="385.65039"
         y="507.78021"
         ry="1.6441816"
         transform="matrix(0.80672148,0,0,0.80672148,175.26508,-515.43351)" />
      <path
         d="m 272.4667,-343.97203 -75.36569,7.2467 0,310.480869 74.5605,-11.272645 0,-132.373074 100.32655,146.866475 78.58643,-24.960858 -102.7421,-141.230147 103.54729,-133.17826 -80.19681,-18.35831 -99.52136,133.17826 0.80519,-136.39901 z m -170.8611,75.68776 c -0.85221,0.0879 -1.773994,0.32336 -2.415569,0.96623 l -29.630954,29.63095 c -1.244495,1.24835 -1.39651,3.15893 -0.483114,4.6701 l 34.623127,57.16842 c -6.147748,10.33469 -11.139972,21.42066 -14.65444,33.17378 l -63.60993,13.2051 c -1.770122,0.36588 -3.059718,2.05099 -3.059718,3.86491 l 0,41.869826 c 0,1.770117 1.346271,3.286444 3.059718,3.703869 l 61.677476,14.976515 c 3.298034,13.606978 8.393337,26.627989 15.137554,38.488034 L 66.499358,27.864239 c -0.99714,1.520197 -0.802591,3.54799 0.483114,4.831134 l 29.630955,29.63096 c 1.248344,1.244449 3.162787,1.400333 4.670093,0.482856 l 56.04116,-33.978981 c 10.99174,6.346142 22.89192,11.429819 35.42831,14.815478 l 13.04406,62.804744 c 0.36588,1.77528 1.89125,3.05972 3.70387,3.05972 l 41.86983,0 c 1.75724,0 3.28647,-1.18008 3.70387,-2.89868 l 15.45963,-63.126822 c 12.92932,-3.486126 25.11937,-8.661314 36.39454,-15.298591 l 55.23596,36.23351 c 1.52277,0.991993 3.54026,0.800036 4.83114,-0.482856 l 29.46991,-29.63096 c 1.25222,-1.249632 1.56141,-3.162787 0.64416,-4.670096 l -20.12973,-33.1737862 -6.60255,2.0934914 c -0.95335,0.293733 -2.00977,-0.13656 -2.5766,-0.9662268 -1e-5,-5.1e-6 -12.71562,-18.7050114 -29.30888,-42.9970914 -19.84489,38.8317728 -60.31602,65.381345 -106.9291,65.381345 -66.2364,-10e-6 -119.97316,-53.736762 -119.97316,-119.973159 0,-48.722028 29.13519,-90.569058 70.85663,-109.344668 l 0,-30.91925 c -7.59321,2.65774 -14.92888,5.86435 -21.90114,9.66226 -0.0129,-0.008 0.0129,-0.1533 0,-0.16103 l -56.52426,-37.0387 c -0.7601,-0.49728 -1.56336,-0.57104 -2.41557,-0.48311 z"
         style="display:inline;fill:#ffffff;fill-opacity:0.84677423;stroke:none;stroke-opacity:0.8"
         id="path5692_1_"
         inkscape:connector-curvature="0"
         transform="matrix(0.03775292,0,0,0.03775292,488.95219,-86.577163)" />
      <path
         style="opacity:1;fill:#ffffff;fill-opacity:0.84677423;stroke:none"
         sodipodi:nodetypes="cccccccsscccc"
         id="path4-0"
         d="m 505.9931,-87.11922 0,3.12 3.12,0 7.88,-7.88 -3.12,-3.12 z m 13.76,-7.51 c 0.33,-0.33 0.33,-0.85 0,-1.18 l -1.95,-1.95 c -0.33,-0.33 -0.85,-0.33 -1.18,0 l -1.63,1.64 3.12,3.12 z"
         inkscape:connector-curvature="0" />
    </g>
  </g>
</svg>
