<?xml version="1.0" encoding="UTF-8" standalone="no"?>
<!-- Created with Inkscape (http://www.inkscape.org/) -->

<svg
   xmlns:dc="http://purl.org/dc/elements/1.1/"
   xmlns:cc="http://creativecommons.org/ns#"
   xmlns:rdf="http://www.w3.org/1999/02/22-rdf-syntax-ns#"
   xmlns:svg="http://www.w3.org/2000/svg"
   xmlns="http://www.w3.org/2000/svg"
   xmlns:xlink="http://www.w3.org/1999/xlink"
   xmlns:sodipodi="http://sodipodi.sourceforge.net/DTD/sodipodi-0.dtd"
   xmlns:inkscape="http://www.inkscape.org/namespaces/inkscape"
   width="48"
   height="48"
   id="svg5453"
   version="1.1"
   inkscape:version="0.91 r13725"
   sodipodi:docname="knewsticker.svg">
  <defs
     id="defs5455">
    <linearGradient
       gradientTransform="matrix(0.47780364,0,0,0.47780364,47.922109,-7.7730986)"
       inkscape:collect="always"
       xlink:href="#linearGradient4422-1"
       id="linearGradient4738-6-8-3-0-2-7"
       x1="-123.9715"
       y1="73.496605"
       x2="-125.19291"
       y2="-26.047026"
       gradientUnits="userSpaceOnUse" />
    <linearGradient
       id="linearGradient4422-1">
      <stop
         style="stop-color:#8798a9;stop-opacity:1"
         offset="0"
         id="stop4424-78" />
      <stop
         style="stop-color:#aeb6be;stop-opacity:1"
         offset="1"
         id="stop4426-8" />
    </linearGradient>
  </defs>
  <sodipodi:namedview
     id="base"
     pagecolor="#ffffff"
     bordercolor="#666666"
     borderopacity="1.0"
     inkscape:pageopacity="0"
     inkscape:pageshadow="2"
     inkscape:zoom="4"
     inkscape:cx="-80.941894"
     inkscape:cy="15.968792"
     inkscape:document-units="px"
     inkscape:current-layer="g4370"
     showgrid="true"
     fit-margin-top="0"
     fit-margin-left="0"
     fit-margin-right="0"
     fit-margin-bottom="0"
     inkscape:window-width="1366"
     inkscape:window-height="634"
     inkscape:window-x="0"
     inkscape:window-y="36"
     inkscape:window-maximized="1"
     inkscape:showpageshadow="false"
     borderlayer="true"
     showguides="false">
    <inkscape:grid
       type="xygrid"
       id="grid4063" />
    <sodipodi:guide
       position="1.1650391e-05,32.000026"
       orientation="32,0"
       id="guide4157" />
    <sodipodi:guide
       position="1.1650391e-05,2.6367188e-05"
       orientation="0,32"
       id="guide4159" />
    <sodipodi:guide
       position="32.000012,2.6367188e-05"
       orientation="-32,0"
       id="guide4161" />
    <sodipodi:guide
       position="32.000012,32.000026"
       orientation="0,-32"
       id="guide4163" />
    <sodipodi:guide
       position="2.0000117,30.000026"
       orientation="28,0"
       id="guide4167" />
    <sodipodi:guide
       position="2.0000117,2.0000264"
       orientation="0,28"
       id="guide4169" />
    <sodipodi:guide
       position="30.000012,2.0000264"
       orientation="-28,0"
       id="guide4171" />
    <sodipodi:guide
       position="30.000012,30.000026"
       orientation="0,-28"
       id="guide4173" />
    <sodipodi:guide
       position="2.0000117,30.000026"
       orientation="28,0"
       id="guide4181" />
    <sodipodi:guide
       position="2.0000117,2.0000264"
       orientation="0,14"
       id="guide4183" />
    <sodipodi:guide
       position="16.000012,2.0000264"
       orientation="-28,0"
       id="guide4185" />
    <sodipodi:guide
       position="16.000012,30.000026"
       orientation="0,-14"
       id="guide4187" />
    <sodipodi:guide
       position="9.0000117,23.000026"
       orientation="14,0"
       id="guide4193" />
    <sodipodi:guide
       position="9.0000117,9.0000264"
       orientation="0,14.000031"
       id="guide4195" />
    <sodipodi:guide
       position="23.000042,9.0000264"
       orientation="-14,0"
       id="guide4197" />
    <sodipodi:guide
       position="23.000042,23.000026"
       orientation="0,-14.000031"
       id="guide4199" />
  </sodipodi:namedview>
  <metadata
     id="metadata5458">
    <rdf:RDF>
      <cc:Work
         rdf:about="">
        <dc:format>image/svg+xml</dc:format>
        <dc:type
           rdf:resource="http://purl.org/dc/dcmitype/StillImage" />
        <dc:title></dc:title>
      </cc:Work>
    </rdf:RDF>
  </metadata>
  <g
     inkscape:label="Capa 1"
     inkscape:groupmode="layer"
     id="layer1"
     transform="translate(-384.57143,-499.798)">
    <g
       style="display:inline;enable-background:new"
       id="g4238"
       transform="translate(225.81911,462.44565)">
      <g
         style="display:inline"
         id="layer1-8"
         transform="matrix(0.22655187,0,0,0.22655187,106.94841,54.31088)">
        <g
           style="display:none"
           id="layer6" />
        <g
           id="g4027" />
        <g
           id="g4061" />
        <g
           id="g3751" />
        <g
           id="g3782" />
        <g
           id="g3725" />
        <g
           id="g4370"
           transform="matrix(4.4140002,0,0,4.4140002,59.275211,39.357303)">
          <g
             id="g4189"
             transform="translate(75.000004,-5.0000044)">
            <rect
               style="opacity:1;fill:url(#linearGradient4738-6-8-3-0-2-7);fill-opacity:1;fill-rule:evenodd;stroke:none;stroke-width:8;stroke-linecap:round;stroke-linejoin:round;stroke-miterlimit:4;stroke-dasharray:none;stroke-dashoffset:0;stroke-opacity:1"
               id="rect4177-3-1-1-4-8-3"
               width="46.395134"
               height="48"
               x="-35.822571"
               y="-20.874996"
               ry="2.9819367" />
            <circle
               style="opacity:1;fill:#2c3137;fill-opacity:1;fill-rule:evenodd;stroke:none;stroke-width:8;stroke-linecap:round;stroke-linejoin:round;stroke-miterlimit:4;stroke-dasharray:none;stroke-dashoffset:0;stroke-opacity:1"
               id="path4181-0-7-1-5-7-7"
               cx="-30.453148"
               cy="-16.251938"
               r="1.6723127" />
            <circle
               style="opacity:1;fill:#2c3137;fill-opacity:1;fill-rule:evenodd;stroke:none;stroke-width:8;stroke-linecap:round;stroke-linejoin:round;stroke-miterlimit:4;stroke-dasharray:none;stroke-dashoffset:0;stroke-opacity:1"
               id="path4181-5-8-3-7-3-0-2"
               cx="-26.03587"
               cy="-16.251724"
               r="1.6723127" />
            <circle
               style="opacity:1;fill:#2c3137;fill-opacity:1;fill-rule:evenodd;stroke:none;stroke-width:8;stroke-linecap:round;stroke-linejoin:round;stroke-miterlimit:4;stroke-dasharray:none;stroke-dashoffset:0;stroke-opacity:1"
               id="path4181-50-9-0-7-6-2-6"
               cx="-21.577007"
               cy="-16.251724"
               r="1.6723127" />
            <path
               d="m -15.851154,-2.9775612 c -1.32553,0.09425 -2.44852,1.209221 -2.44852,2.781407 l 0,7.479919 c 0,0.270721 -0.200534,0.503341 -0.493314,0.503341 l -2.336221,0 c -5.057468,0.006 -4.608272,-6.457196 -0.302806,-6.465217 l 2.582878,0 0,-1.879004 -2.677129,0 c -1.714566,0 -2.985952,0.639704 -3.844238,1.594246 -0.858285,0.954541 -1.289433,2.239965 -1.291439,3.521377 -0.002,1.281412 0.423127,2.558814 1.301466,3.513356 0.878339,0.952537 2.205874,1.594245 4.024718,1.594245 l 4.405732,0 c 0.290775,0 0.531415,-0.250667 0.531415,-0.541441 l 0,-9.122293 c -0.002,-0.46925 0.2627,-0.834222 0.607619,-0.940505 0.344918,-0.106283 0.749997,0.02808 0.986627,0.370988 l 0.01003,0.01003 c 1.253337,2.049458 6.2285865,10.030712 6.2366085,10.044749 0.136363,0.194518 0.298795,0.228609 0.41711,0.190507 0.118315,-0.04011 0.238636,-0.168448 0.236631,-0.485292 l 0,-9.190474 c -0.002,-0.46925 0.262699,-0.834222 0.607618,-0.940505 0.344918,-0.106283 0.73997,0.02808 0.978606,0.370988 l 0,0.01003 0.01805,0 c 1.253337,2.049458 6.228586,10.030712 6.236608,10.044749 0.134357,0.192513 0.292779,0.230614 0.41711,0.190507 0.124332,-0.04011 0.248663,-0.160427 0.246657,-0.475265 l 0,-12.132308 -1.88903,0 0,7.080856 c 0,0 -1.127001,-1.925127 -3.056139,-5.239954 -1.891035,-3.246646 -5.458536,-1.903068 -5.458536,0.892376 l 0,4.347578 c 0,0 -1.1069475,-1.925127 -3.0380905,-5.239954 -0.8262,-1.419781 -1.979271,-1.963228 -3.010016,-1.889031 z m -5.344231,0.04813 c -10.513999,0 -10.411726,14.9818962 0.142379,14.9899182 l 4.128995,0 c 1.774726,0 2.907744,-1.050799 2.905738,-2.9899632 l 0,-3.798114 c 0,0 2.318174,3.832205 3.228598,5.3342052 1.5441125,2.552798 5.2780555,2.049458 5.2680295,-1.1390332 l 0,-4.195172 c 0,0 2.310152,3.832205 3.218571,5.3342052 1.544112,2.552798 5.288082,2.049458 5.278055,-1.1390332 l 0,-12.399019 -1.88903,0 0,12.132308 c 0.002,0.465239 -0.242647,0.8101582 -0.579544,0.9204522 -0.336897,0.110293 -0.723927,-0.02808 -0.958552,-0.3609622 l -0.01003,0 0,-0.01805 c 0,0 -4.977254,-7.959195 -6.246635,-10.034722 -0.004,-0.004 -0.006,0.004 -0.01003,0 -0.002,0 0.002,-0.01003 0,-0.01003 -0.130348,-0.174464 -0.298796,-0.212566 -0.437165,-0.170454 -0.142379,0.04412 -0.276737,0.166444 -0.274731,0.475266 l 0,9.188469 c 0.002,0.463233 -0.23663,0.8282052 -0.569517,0.9405042 -0.332886,0.112299 -0.715906,-0.0361 -0.948526,-0.3709882 l 0,-0.01003 -0.01003,0 c 0,0 -4.9812655,-7.975238 -6.2466355,-10.044749 -0.132353,-0.188502 -0.302807,-0.234625 -0.445186,-0.190508 -0.142379,0.04412 -0.276737,0.166444 -0.274731,0.475266 l 0,0.0100299965 0,9.1222920035 c 0,0.553474 -0.455213,1.0167082 -1.006681,1.0167082 l -4.405732,0 c -1.933148,0 -3.399052,-0.6958532 -4.367631,-1.7466522 -0.968569,-1.050793 -1.44584,-2.444504 -1.443834,-3.83621 0.002,-1.389701 0.479276,-2.793439 1.423791,-3.844238 0.944515,-1.050798 2.362291,-1.744646 4.195172,-1.746651 l 2.677129,0 0,-1.899057 -2.344243,0 z"
               id="path8"
               inkscape:connector-curvature="0"
               style="fill:#2c3137;fill-opacity:1" />
          </g>
        </g>
      </g>
    </g>
  </g>
</svg>
