<svg xmlns="http://www.w3.org/2000/svg" xmlns:xlink="http://www.w3.org/1999/xlink" viewBox="0 0 48 48"><defs><clipPath><path fill="#1890d0" transform="matrix(15.33333 0 0 11.5 415-125.5)" d="m-24 13c0 1.105-.672 2-1.5 2-.828 0-1.5-.895-1.5-2 0-1.105.672-2 1.5-2 .828 0 1.5.895 1.5 2"/></clipPath><clipPath><path fill="#1890d0" transform="matrix(15.33333 0 0 11.5 415-125.5)" d="m-24 13c0 1.105-.672 2-1.5 2-.828 0-1.5-.895-1.5-2 0-1.105.672-2 1.5-2 .828 0 1.5.895 1.5 2"/></clipPath><linearGradient xlink:href="#0" id="3" x1="96.56" y1="42.796" x2="96.79" y2="11.206" gradientUnits="userSpaceOnUse"/><linearGradient id="0"><stop stop-color="#1584d8"/><stop offset="1" stop-color="#1cb2ff"/></linearGradient><linearGradient id="1" x1="347.75" y1="540.87" x2="347.97" y2="501.65" gradientUnits="userSpaceOnUse"><stop stop-color="#2e3e46"/><stop offset="1" stop-color="#435a64"/></linearGradient><linearGradient xlink:href="#0" id="2" x1="353.1" y1="543.11" x2="352.75" y2="500.26" gradientUnits="userSpaceOnUse"/></defs><circle r="19.218" cy="520.44" cx="348.55" fill="url(#1)" stroke="url(#2)" stroke-linejoin="round" stroke-linecap="round" stroke-width="1.5" transform="matrix(1.20192 0 0 1.20192-394.84-601.5)"/><path d="m96.24 11.527l-6.154 6.154v12.308l12.308-12.308-6.154-6.154m9.846 9.846l-6.154 6.154 6.154 6.154 6.154-6.154-6.154-6.154m-20.923 1.231l-4.923 4.923 4.923 4.923v-9.846m11.08 8.615l-6.154 6.154 6.154 6.154 6.154-6.154-6.154-6.154" fill="url(#3)" transform="translate(-72.23-3.527)"/></svg>