<svg xmlns="http://www.w3.org/2000/svg" viewBox="0 0 48 48"><defs><linearGradient gradientUnits="userSpaceOnUse" y2="-314.9" x2="488.29" y1="1133.61" x1="506.06" id="0"><stop stop-color="#535e66"/><stop offset="1" stop-color="#7d8b98"/></linearGradient></defs><g transform="matrix(.03284 0 0 .03284 8.696 10.996)" fill="#fff" fill-opacity=".873"><g fill-rule="evenodd" fill-opacity="1"><rect y="-334.89" x="-240.41" height="1461.84" width="1412.96" fill="url(#0)" rx="90.81" stroke-width="14.552"/><g fill="#e7e9eb" transform="matrix(14.55151 0 0 14.55151 2310.04 64.12)"><circle r="3.5" cy="-17.745" cx="-164.03"/><circle r="3.5" cy="-17.745" cx="-154.79"/><circle r="3.5" cy="-17.745" cx="-145.46"/></g></g><path d="m24 16.301c-6.751 0-12.569 3.98-15.242 9.723-.082.174-.082.377 0 .555 2.673 5.743 8.491 9.723 15.242 9.723 6.751 0 12.569-3.98 15.242-9.723.082-.174.082-.377 0-.555-2.673-5.743-8.491-9.723-15.242-9.723m0 3.102c3.812 0 6.898 3.09 6.898 6.898 0 3.809-3.09 6.9-6.898 6.9-3.812 0-6.898-3.091-6.898-6.9 0-3.812 3.09-6.898 6.898-6.898m0 2.480468a4.416352 4.416352 0 0 0 -4.416016 4.416016 4.416352 4.416352 0 0 0 4.416016 4.416016 4.416352 4.416352 0 0 0 4.416016 -4.416016 4.416352 4.416352 0 0 0 -4.416016 -4.416016" transform="matrix(30.455 0 0 30.455-264.85-334.89)" fill="#fff" fill-opacity=".847"/></g></svg>