<?xml version="1.0" encoding="UTF-8" standalone="no"?>
<!-- Created with Inkscape (http://www.inkscape.org/) -->

<svg
   xmlns:dc="http://purl.org/dc/elements/1.1/"
   xmlns:cc="http://creativecommons.org/ns#"
   xmlns:rdf="http://www.w3.org/1999/02/22-rdf-syntax-ns#"
   xmlns:svg="http://www.w3.org/2000/svg"
   xmlns="http://www.w3.org/2000/svg"
   xmlns:xlink="http://www.w3.org/1999/xlink"
   xmlns:sodipodi="http://sodipodi.sourceforge.net/DTD/sodipodi-0.dtd"
   xmlns:inkscape="http://www.inkscape.org/namespaces/inkscape"
   width="48"
   height="48"
   id="svg5453"
   version="1.1"
   inkscape:version="0.91 r13725"
   sodipodi:docname="kverbos.svg">
  <defs
     id="defs5455">
    <linearGradient
       inkscape:collect="always"
       xlink:href="#linearGradient4613"
       id="linearGradient4182-9"
       x1="373.61014"
       y1="544.49469"
       x2="373.57144"
       y2="507.798"
       gradientUnits="userSpaceOnUse"
       gradientTransform="matrix(0.64557641,0,0,0.64557641,-221.607,-339.78611)" />
    <linearGradient
       id="linearGradient4613"
       inkscape:collect="always">
      <stop
         id="stop4615"
         offset="0"
         style="stop-color:#dc3c30;stop-opacity:1" />
      <stop
         id="stop4617"
         offset="1"
         style="stop-color:#ff786d;stop-opacity:1" />
    </linearGradient>
  </defs>
  <sodipodi:namedview
     id="base"
     pagecolor="#ffffff"
     bordercolor="#666666"
     borderopacity="1.0"
     inkscape:pageopacity="0"
     inkscape:pageshadow="2"
     inkscape:zoom="4"
     inkscape:cx="-80.941894"
     inkscape:cy="15.968792"
     inkscape:document-units="px"
     inkscape:current-layer="g4182"
     showgrid="true"
     fit-margin-top="0"
     fit-margin-left="0"
     fit-margin-right="0"
     fit-margin-bottom="0"
     inkscape:window-width="1366"
     inkscape:window-height="634"
     inkscape:window-x="0"
     inkscape:window-y="36"
     inkscape:window-maximized="1"
     inkscape:showpageshadow="false"
     borderlayer="true"
     showguides="false">
    <inkscape:grid
       type="xygrid"
       id="grid4063" />
    <sodipodi:guide
       position="1.1650391e-05,32.000026"
       orientation="32,0"
       id="guide4157" />
    <sodipodi:guide
       position="1.1650391e-05,2.6367188e-05"
       orientation="0,32"
       id="guide4159" />
    <sodipodi:guide
       position="32.000012,2.6367188e-05"
       orientation="-32,0"
       id="guide4161" />
    <sodipodi:guide
       position="32.000012,32.000026"
       orientation="0,-32"
       id="guide4163" />
    <sodipodi:guide
       position="2.0000117,30.000026"
       orientation="28,0"
       id="guide4167" />
    <sodipodi:guide
       position="2.0000117,2.0000264"
       orientation="0,28"
       id="guide4169" />
    <sodipodi:guide
       position="30.000012,2.0000264"
       orientation="-28,0"
       id="guide4171" />
    <sodipodi:guide
       position="30.000012,30.000026"
       orientation="0,-28"
       id="guide4173" />
    <sodipodi:guide
       position="2.0000117,30.000026"
       orientation="28,0"
       id="guide4181" />
    <sodipodi:guide
       position="2.0000117,2.0000264"
       orientation="0,14"
       id="guide4183" />
    <sodipodi:guide
       position="16.000012,2.0000264"
       orientation="-28,0"
       id="guide4185" />
    <sodipodi:guide
       position="16.000012,30.000026"
       orientation="0,-14"
       id="guide4187" />
    <sodipodi:guide
       position="9.0000117,23.000026"
       orientation="14,0"
       id="guide4193" />
    <sodipodi:guide
       position="9.0000117,9.0000264"
       orientation="0,14.000031"
       id="guide4195" />
    <sodipodi:guide
       position="23.000042,9.0000264"
       orientation="-14,0"
       id="guide4197" />
    <sodipodi:guide
       position="23.000042,23.000026"
       orientation="0,-14.000031"
       id="guide4199" />
  </sodipodi:namedview>
  <metadata
     id="metadata5458">
    <rdf:RDF>
      <cc:Work
         rdf:about="">
        <dc:format>image/svg+xml</dc:format>
        <dc:type
           rdf:resource="http://purl.org/dc/dcmitype/StillImage" />
        <dc:title></dc:title>
      </cc:Work>
    </rdf:RDF>
  </metadata>
  <g
     inkscape:label="Capa 1"
     inkscape:groupmode="layer"
     id="layer1"
     transform="translate(-384.57143,-499.798)">
    <g
       style="display:inline;enable-background:new"
       id="g4238"
       transform="translate(225.81911,462.44565)">
      <g
         style="display:inline"
         id="layer1-8"
         transform="matrix(0.22655187,0,0,0.22655187,106.94841,54.31088)">
        <g
           style="display:none"
           id="layer6" />
        <g
           id="g4027" />
        <g
           id="g4061" />
        <g
           id="g3751" />
        <g
           id="g3782" />
        <g
           id="g3725" />
        <g
           id="g4370"
           transform="matrix(4.4140002,0,0,4.4140002,59.275211,39.357303)">
          <g
             id="g4182"
             transform="matrix(1.7142857,0,0,1.7142857,-30.839285,-12.375017)">
            <g
               id="g4183"
               transform="translate(35,5.8333361)">
              <path
                 d="m 29.245561,-8.7358061 c -2.640044,-2.1485469 -6.14547,-3.3317389 -9.870478,-3.3317389 -3.725077,0 -7.230509,1.183272 -9.8704905,3.3317389 -2.663007,2.1671995 -4.129592,5.0555026 -4.129592,8.13295053 0,2.93722977 1.336839,5.70168787 3.773855,7.83166117 -0.04395,0.09884 -0.07882,0.202818 -0.101082,0.312137 l -0.800763,3.9388554 c -0.09522,0.468115 0.03275,0.74725 0.156722,0.899083 0.143345,0.175369 0.35581,0.272011 0.598316,0.272011 l 0,0 c 0.183101,0 0.379887,-0.05401 0.584939,-0.16061 l 4.6575715,-2.41966 c 1.61254,0.519036 3.346111,0.791201 5.130427,0.791201 3.725094,0 7.230428,-1.1832494 9.870501,-3.3317224 2.662927,-2.1671308 4.129512,-5.05544 4.129512,-8.13288207 0,-3.07752203 -1.466516,-5.96582513 -4.129444,-8.13302463 z"
                 id="path3-4"
                 inkscape:connector-curvature="0"
                 sodipodi:nodetypes="csssccccccccscscc"
                 style="fill:url(#linearGradient4182-9);fill-opacity:1" />
              <path
                 inkscape:connector-curvature="0"
                 id="path4214"
                 style="font-style:normal;font-variant:normal;font-weight:normal;font-stretch:normal;font-size:34.06028366px;line-height:125%;font-family:'Product Sans';-inkscape-font-specification:'Product Sans';letter-spacing:0px;word-spacing:0px;fill:#ffffff;fill-opacity:0.85663081;stroke:none;stroke-width:1px;stroke-linecap:butt;stroke-linejoin:miter;stroke-opacity:1"
                 d="m 17.118257,-3.0068586 0,1.0972804 0.06454,0 q 0.322732,-0.5647764 1.016599,-0.9520531 0.693867,-0.4034129 1.484557,-0.4034129 1.468415,0 2.242964,0.903644 0.774553,0.9036393 0.774553,2.42046823 l 0,4.84094217 -1.484556,0 0,-4.61502887 q 0,-2.19455953 -1.952511,-2.19455953 -0.91978,0 -1.500693,0.7422759 -0.580913,0.72613923 -0.580913,1.69432903 l 0,4.37298347 -1.484552,0 0,-7.9068688 1.420007,0 z m 3.0982,-1.694329 q -0.419545,0 -1.097276,-0.3550038 -0.661599,-0.3711354 -0.774553,-0.3711354 -0.484095,0 -0.532503,0.5647764 l -1.226371,0 q 0,-0.9359169 0.54864,-1.4200116 0.564776,-0.4840947 1.242507,-0.4840947 0.419549,0 1.09728,0.3711404 0.67773,0.3549995 0.774553,0.3549995 0.48409,0 0.532499,-0.5647766 l 1.226375,0 q 0,0.9359166 -0.564776,1.4200115 -0.54864,0.4840943 -1.226375,0.4840943 z" />
            </g>
          </g>
        </g>
      </g>
    </g>
  </g>
</svg>
