<?xml version="1.0" encoding="UTF-8" standalone="no"?>
<!-- Created with Inkscape (http://www.inkscape.org/) -->

<svg
   xmlns:dc="http://purl.org/dc/elements/1.1/"
   xmlns:cc="http://creativecommons.org/ns#"
   xmlns:rdf="http://www.w3.org/1999/02/22-rdf-syntax-ns#"
   xmlns:svg="http://www.w3.org/2000/svg"
   xmlns="http://www.w3.org/2000/svg"
   xmlns:xlink="http://www.w3.org/1999/xlink"
   xmlns:sodipodi="http://sodipodi.sourceforge.net/DTD/sodipodi-0.dtd"
   xmlns:inkscape="http://www.inkscape.org/namespaces/inkscape"
   width="48"
   height="48"
   id="svg5453"
   version="1.1"
   inkscape:version="0.91 r13725"
   sodipodi:docname="labplot.svg">
  <defs
     id="defs5455">
    <linearGradient
       gradientTransform="matrix(0.27871879,0,0,0.27871879,54.694147,-6.0655494)"
       gradientUnits="userSpaceOnUse"
       y2="-26.047026"
       x2="-125.19291"
       y1="73.496605"
       x1="-123.9715"
       id="linearGradient4738-6-8-3-0-2-7"
       xlink:href="#linearGradient4294"
       inkscape:collect="always" />
    <linearGradient
       id="linearGradient4294"
       inkscape:collect="always">
      <stop
         id="stop4296"
         offset="0"
         style="stop-color:#2f74c8;stop-opacity:1" />
      <stop
         id="stop4298"
         offset="1"
         style="stop-color:#50aff7;stop-opacity:1" />
    </linearGradient>
  </defs>
  <sodipodi:namedview
     id="base"
     pagecolor="#ffffff"
     bordercolor="#666666"
     borderopacity="1.0"
     inkscape:pageopacity="0"
     inkscape:pageshadow="2"
     inkscape:zoom="4"
     inkscape:cx="-80.941894"
     inkscape:cy="15.968792"
     inkscape:document-units="px"
     inkscape:current-layer="g4182"
     showgrid="true"
     fit-margin-top="0"
     fit-margin-left="0"
     fit-margin-right="0"
     fit-margin-bottom="0"
     inkscape:window-width="1366"
     inkscape:window-height="634"
     inkscape:window-x="0"
     inkscape:window-y="36"
     inkscape:window-maximized="1"
     inkscape:showpageshadow="false"
     borderlayer="true"
     showguides="false">
    <inkscape:grid
       type="xygrid"
       id="grid4063" />
    <sodipodi:guide
       position="1.1650391e-05,32.000026"
       orientation="32,0"
       id="guide4157" />
    <sodipodi:guide
       position="1.1650391e-05,2.6367188e-05"
       orientation="0,32"
       id="guide4159" />
    <sodipodi:guide
       position="32.000012,2.6367188e-05"
       orientation="-32,0"
       id="guide4161" />
    <sodipodi:guide
       position="32.000012,32.000026"
       orientation="0,-32"
       id="guide4163" />
    <sodipodi:guide
       position="2.0000117,30.000026"
       orientation="28,0"
       id="guide4167" />
    <sodipodi:guide
       position="2.0000117,2.0000264"
       orientation="0,28"
       id="guide4169" />
    <sodipodi:guide
       position="30.000012,2.0000264"
       orientation="-28,0"
       id="guide4171" />
    <sodipodi:guide
       position="30.000012,30.000026"
       orientation="0,-28"
       id="guide4173" />
    <sodipodi:guide
       position="2.0000117,30.000026"
       orientation="28,0"
       id="guide4181" />
    <sodipodi:guide
       position="2.0000117,2.0000264"
       orientation="0,14"
       id="guide4183" />
    <sodipodi:guide
       position="16.000012,2.0000264"
       orientation="-28,0"
       id="guide4185" />
    <sodipodi:guide
       position="16.000012,30.000026"
       orientation="0,-14"
       id="guide4187" />
    <sodipodi:guide
       position="9.0000117,23.000026"
       orientation="14,0"
       id="guide4193" />
    <sodipodi:guide
       position="9.0000117,9.0000264"
       orientation="0,14.000031"
       id="guide4195" />
    <sodipodi:guide
       position="23.000042,9.0000264"
       orientation="-14,0"
       id="guide4197" />
    <sodipodi:guide
       position="23.000042,23.000026"
       orientation="0,-14.000031"
       id="guide4199" />
  </sodipodi:namedview>
  <metadata
     id="metadata5458">
    <rdf:RDF>
      <cc:Work
         rdf:about="">
        <dc:format>image/svg+xml</dc:format>
        <dc:type
           rdf:resource="http://purl.org/dc/dcmitype/StillImage" />
        <dc:title></dc:title>
      </cc:Work>
    </rdf:RDF>
  </metadata>
  <g
     inkscape:label="Capa 1"
     inkscape:groupmode="layer"
     id="layer1"
     transform="translate(-384.57143,-499.798)">
    <g
       style="display:inline;enable-background:new"
       id="g4238"
       transform="translate(225.81911,462.44565)">
      <g
         style="display:inline"
         id="layer1-8"
         transform="matrix(0.22655187,0,0,0.22655187,106.94841,54.31088)">
        <g
           style="display:none"
           id="layer6" />
        <g
           id="g4027" />
        <g
           id="g4061" />
        <g
           id="g3751" />
        <g
           id="g3782" />
        <g
           id="g3725" />
        <g
           id="g4370"
           transform="matrix(4.4140002,0,0,4.4140002,59.275211,39.357303)">
          <g
             id="g4182"
             transform="matrix(1.7142857,0,0,1.7142857,-30.839285,-12.375017)">
            <g
               id="g4191"
               transform="translate(35.000001,5.8333321)">
              <rect
                 ry="1.7394631"
                 y="-13.708323"
                 x="5.8430858"
                 height="28"
                 width="27.063828"
                 id="rect4177-3-1-1-4-8-3"
                 style="opacity:1;fill:url(#linearGradient4738-6-8-3-0-2-7);fill-opacity:1;fill-rule:evenodd;stroke:none;stroke-width:8;stroke-linecap:round;stroke-linejoin:round;stroke-miterlimit:4;stroke-dasharray:none;stroke-dashoffset:0;stroke-opacity:1" />
              <circle
                 r="0.97551578"
                 cy="-11.011539"
                 cx="8.9752502"
                 id="path4181-0-7-1-5-7-7"
                 style="opacity:1;fill:#fafaff;fill-opacity:0.85;fill-rule:evenodd;stroke:none;stroke-width:8;stroke-linecap:round;stroke-linejoin:round;stroke-miterlimit:4;stroke-dasharray:none;stroke-dashoffset:0;stroke-opacity:1" />
              <circle
                 r="0.97551578"
                 cy="-11.011415"
                 cx="11.551994"
                 id="path4181-5-8-3-7-3-0-2"
                 style="opacity:1;fill:#fafaff;fill-opacity:0.85;fill-rule:evenodd;stroke:none;stroke-width:8;stroke-linecap:round;stroke-linejoin:round;stroke-miterlimit:4;stroke-dasharray:none;stroke-dashoffset:0;stroke-opacity:1" />
              <circle
                 r="0.97551578"
                 cy="-11.011415"
                 cx="14.153"
                 id="path4181-50-9-0-7-6-2-6"
                 style="opacity:1;fill:#fafaff;fill-opacity:0.85;fill-rule:evenodd;stroke:none;stroke-width:8;stroke-linecap:round;stroke-linejoin:round;stroke-miterlimit:4;stroke-dasharray:none;stroke-dashoffset:0;stroke-opacity:1" />
              <path
                 inkscape:connector-curvature="0"
                 style="fill:#ffffff;fill-opacity:0.85483871"
                 d="m 22.220756,-5.8905185 c -0.07706,-0.00478 -0.155104,0.010343 -0.229004,0.030765 a 5.9265833,13.563524 27.49713 0 1 -2.091796,5.15543588 5.9265833,13.563524 27.49713 0 1 -3.975098,5.79231822 c 0.08041,0.05282 0.158635,0.122364 0.275716,0.243814 0.191484,0.198626 0.247002,0.272295 0.448893,0.598145 0.252885,0.4081 0.353266,0.59883 0.447754,0.844239 0.03436,0.08925 0.124515,0.290398 0.199382,0.446614 0.07486,0.156217 0.172537,0.381602 0.217611,0.501302 0.04507,0.119875 0.12191,0.307617 0.170898,0.416992 0.04899,0.109317 0.147581,0.344858 0.21875,0.52295 0.07117,0.177975 0.15963,0.388461 0.195963,0.468261 0.04692,0.102956 0.07595,0.144691 0.100261,0.144691 0.04398,-1.75e-4 0.321947,-0.06665 0.47168,-0.112792 0.112712,-0.03442 0.458801,-0.203144 0.746256,-0.363444 0.07811,-0.04375 0.226422,-0.146696 0.330404,-0.229004 0.216707,-0.171675 0.807038,-0.697942 0.868164,-0.773601 0.02256,-0.02858 0.156763,-0.177224 0.297363,-0.332682 0.140599,-0.155458 0.362006,-0.405109 0.492188,-0.55485 0.130186,-0.149742 0.300902,-0.346088 0.379394,-0.435221 0.07849,-0.08919 0.228631,-0.263501 0.333822,-0.38851 0.261103,-0.310216 0.826481,-0.863615 1.056152,-1.033365 0.418732,-0.309284 0.691335,-0.444878 1.027669,-0.509278 0.250681,-0.04783 0.456258,-0.02958 0.743978,0.06836 0.234586,0.07945 0.30587,0.11392 0.483073,0.233562 0.0729,0.049 0.155512,0.10429 0.184571,0.121907 0.138372,0.08371 0.566798,0.44927 0.865885,0.739421 0.652378,0.632975 1.301664,1.177548 1.347819,1.131347 0.02,-0.02042 -0.05031,-0.194325 -0.259766,-0.648275 -0.06967,-0.151025 -0.163694,-0.372429 -0.208496,-0.492187 -0.04478,-0.119817 -0.142754,-0.363056 -0.217611,-0.540039 -0.07486,-0.1771 -0.172702,-0.424204 -0.21761,-0.549154 -0.04488,-0.12495 -0.141789,-0.372111 -0.216471,-0.549153 C 26.633864,3.8810663 26.527052,3.6171313 26.471571,3.4712979 26.41609,3.3255229 26.310578,3.0526617 26.238009,2.8651784 26.086362,2.4734117 25.744999,1.4958926 25.220593,-0.05034902 24.698241,-1.590699 24.44465,-2.308265 24.146212,-3.0809483 c -0.253969,-0.6575333 -0.727965,-1.6317799 -0.982096,-2.01888 -0.178611,-0.272125 -0.525078,-0.6324698 -0.694987,-0.7234698 -0.07219,-0.038733 -0.158301,-0.06165 -0.248373,-0.06722 z"
                 id="path4722-0" />
              <path
                 inkscape:connector-curvature="0"
                 id="path4717-3"
                 d="m 15.359741,4.9321516 c 0.261031,-0.23065 0.519926,-0.464334 0.765432,-0.711959 0.30401,-0.306658 0.596034,-0.625508 0.876371,-0.9554414 0.280331,-0.3299916 0.548909,-0.67095 0.805718,-1.0213583 0.256809,-0.3502333 0.50194,-0.7100333 0.735369,-1.0777083 0.233429,-0.36773342 0.455118,-0.74351672 0.665318,-1.12560002 0.420405,-0.7641667 0.794508,-1.55405838 1.122895,-2.35795008 0.328386,-0.8038333 0.611155,-1.62155 0.848711,-2.4411917 0.05061,-0.1745916 0.07644,-0.3479 0.122963,-0.5224917 -0.13604,0.1871334 -0.293299,0.4280501 -0.484636,0.7525001 -0.107474,0.1822916 -0.25585,0.4253666 -0.329802,0.5399917 -0.07395,0.11445 -0.158852,0.2503083 -0.188801,0.3018166 -0.121273,0.2084834 -0.523378,0.7571084 -0.840295,1.1466584 -0.268297,0.3297 -0.777091,0.80185 -0.969266,0.8994416 -0.03645,0.018667 -0.100545,0.056583 -0.142202,0.084467 -0.09345,0.062825 -0.266652,0.1316583 -0.498465,0.1978667 -0.196001,0.056 -0.563389,0.2375916 -0.720937,0.3562416 -0.269587,0.20311668 -0.872556,0.85248338 -1.123801,1.21041668 -0.03911,0.055417 -0.09924,0.1317167 -0.133485,0.1689334 -0.03422,0.037917 -0.07881,0.090125 -0.09921,0.11725 -0.02285,0.030333 -0.09904,0.074258 -0.198123,0.1145666 -0.08853,0.036167 -0.237572,0.099225 -0.331306,0.1406417 -0.09374,0.040833 -0.353616,0.1458333 -0.577532,0.2318167 -0.223916,0.086042 -0.496736,0.19751662 -0.606092,0.24774162 -0.109356,0.050167 -0.266928,0.11655 -0.35025,0.1472917 -0.231537,0.085342 -0.725823,0.2844333 -0.802713,0.323575 -0.03768,0.01925 -0.332538,0.138425 -0.655398,0.264775 -0.322855,0.1264667 -0.650942,0.2596417 -0.729055,0.2961583 -0.07811,0.03675 -0.244216,0.1071 -0.369185,0.156975 -0.300143,0.1198167 -0.30257,0.1323584 -0.05682,0.294 0.08557,0.056 0.385545,0.272125 0.679451,0.4884834 0.06135,0.0455 0.168075,0.1206916 0.236903,0.167825 0.06883,0.04725 0.205911,0.1451333 0.304854,0.2179917 0.09894,0.072742 0.215832,0.1554583 0.259753,0.183925 0.07257,0.04725 0.370877,0.261275 0.656601,0.4717413 0.06135,0.0455 0.168076,0.120575 0.236904,0.167709 0.116616,0.07997 0.372075,0.263958 0.634652,0.456983 0.213106,0.156742 0.429658,0.300067 0.453369,0.300067 0.02431,0 0.32977,-0.119467 0.387527,-0.15155 0.07184,-0.03967 0.229063,-0.07968 0.353856,-0.08925 0.02019,0 0.04208,0.0064 0.06073,0.0064 z"
                 style="fill:#ffffff;fill-opacity:0.85483871" />
            </g>
          </g>
        </g>
      </g>
    </g>
  </g>
</svg>
