<svg xmlns="http://www.w3.org/2000/svg" viewBox="0 0 48 48"><defs><linearGradient gradientTransform="matrix(.49433 0 0 .4778 311.21 567.18)" gradientUnits="userSpaceOnUse" y2="-26.05" x2="-125.19" y1="73.5" x1="-123.97" id="0"><stop stop-color="#c52828"/><stop offset="1" stop-color="#ff5454"/></linearGradient></defs><g transform="translate(-224.57-554.08)"><rect y="554.08" x="224.57" height="48" width="48" mix-blend-mode="normal" solid-color="#000000" color-interpolation-filters="linearRGB" color="#000" image-rendering="auto" color-rendering="auto" fill-rule="evenodd" isolation="auto" color-interpolation="sRGB" solid-opacity="1" fill="url(#0)" shape-rendering="auto" rx="2.982"/><path d="m246.68 585.02l-1.173-3.189c0 0-1.906 2.126-4.765 2.126-2.53 0-4.325-2.199-4.325-5.718 0-4.509 2.272-6.121 4.509-6.121 3.225 0 4.252 2.089 5.132 4.765l1.173 3.666c1.173 3.555 3.372 6.414 9.713 6.414 4.546 0 7.624-1.393 7.624-5.058 0-2.969-1.686-4.509-4.839-5.242l-2.346-.513c-1.613-.366-2.089-1.026-2.089-2.126 0-1.246.989-1.979 2.603-1.979 1.759 0 2.712.66 2.859 2.236l3.665-.44c-.293-3.299-2.566-4.655-6.305-4.655-3.299 0-6.524 1.246-6.524 5.242 0 2.493 1.21 4.069 4.252 4.802l2.493.586c1.869.44 2.492 1.21 2.492 2.273 0 1.356-1.319 1.906-3.812 1.906-3.702 0-5.241-1.943-6.121-4.619l-1.21-3.665c-1.539-4.765-3.995-6.525-8.871-6.525-5.388 0-8.247 3.409-8.247 9.2 0 5.572 2.859 8.577 7.991 8.577 4.141 0 6.121-1.943 6.121-1.943" fill="#fff" fill-opacity=".85"/></g></svg>