<?xml version="1.0" encoding="UTF-8" standalone="no"?>
<svg
   xmlns:dc="http://purl.org/dc/elements/1.1/"
   xmlns:cc="http://creativecommons.org/ns#"
   xmlns:rdf="http://www.w3.org/1999/02/22-rdf-syntax-ns#"
   xmlns:svg="http://www.w3.org/2000/svg"
   xmlns="http://www.w3.org/2000/svg"
   xmlns:xlink="http://www.w3.org/1999/xlink"
   xmlns:sodipodi="http://sodipodi.sourceforge.net/DTD/sodipodi-0.dtd"
   xmlns:inkscape="http://www.inkscape.org/namespaces/inkscape"
   viewBox="0 0 48 48"
   id="svg2"
   version="1.1"
   inkscape:version="0.91 r13725"
   sodipodi:docname="lazarus.svg">
  <metadata
     id="metadata23">
    <rdf:RDF>
      <cc:Work
         rdf:about="">
        <dc:format>image/svg+xml</dc:format>
        <dc:type
           rdf:resource="http://purl.org/dc/dcmitype/StillImage" />
        <dc:title />
      </cc:Work>
    </rdf:RDF>
  </metadata>
  <sodipodi:namedview
     pagecolor="#ffffff"
     bordercolor="#666666"
     borderopacity="1"
     objecttolerance="10"
     gridtolerance="10"
     guidetolerance="10"
     inkscape:pageopacity="0"
     inkscape:pageshadow="2"
     inkscape:window-width="1366"
     inkscape:window-height="687"
     id="namedview21"
     showgrid="false"
     inkscape:zoom="4.9166667"
     inkscape:cx="-15.559322"
     inkscape:cy="15.966102"
     inkscape:window-x="0"
     inkscape:window-y="0"
     inkscape:window-maximized="1"
     inkscape:current-layer="svg2" />
  <defs
     id="defs4">
    <linearGradient
       xlink:href="#2"
       id="0"
       y1="546.29"
       x2="0"
       y2="501.51"
       gradientUnits="userSpaceOnUse" />
    <linearGradient
       xlink:href="#2"
       id="1"
       x1="408.82"
       y1="546.29"
       x2="407.82"
       y2="501.51"
       gradientUnits="userSpaceOnUse" />
    <linearGradient
       id="2">
      <stop
         stop-color="#f15f19"
         id="stop9" />
      <stop
         offset="1"
         stop-color="#fbb521"
         id="stop11" />
    </linearGradient>
  </defs>
  <g
     transform="matrix(1.07196 0 0 1.07196-413.17-537.6)"
     id="g13">
    <circle
       cx="407.82"
       cy="523.9"
       r="22.389"
       fill="url(#0)"
       id="circle15" />
    <circle
       cx="407.82"
       cy="523.9"
       r="21.432"
       fill="none"
       stroke="url(#1)"
       stroke-linejoin="round"
       stroke-linecap="round"
       stroke-width="1.914"
       id="circle19" />
  </g>
  <path
     inkscape:connector-curvature="0"
     style="fill:#ffffff;fill-opacity:0.85483871;fill-rule:nonzero;stroke:none"
     d="m 22.103759,38.89349 c -1.425402,-0.292326 -2.562226,-1.224272 -3.191852,-2.615945 -0.297323,-0.649615 -0.3373,-0.85949 -0.292326,-1.46413 0.04372,-0.653362 0.08745,-0.74206 0.493456,-1.093101 1.282988,-1.126831 1.561572,-1.425403 1.800181,-1.961334 0.238608,-0.527187 0.258596,-0.688341 0.194884,-1.742715 -0.06371,-1.044379 -0.04372,-1.229269 0.18489,-1.771447 0.522188,-1.26425 1.674004,-1.98632 4.103811,-2.595958 1.722726,-0.434742 2.986975,-0.439739 3.898932,-0.01999 0.732066,0.337299 1.517849,1.118086 1.898872,1.907616 0.52219,1.068116 1.796433,1.83516 3.054435,1.840157 1.615291,0.01 2.523501,1.261751 2.42481,3.353008 -0.05372,1.093101 -0.361036,1.781441 -1.136825,2.527248 -1.479121,1.4304 -6.651048,3.123144 -11.150875,3.645334 -1.156812,0.131172 -1.600299,0.131172 -2.273649,-0.005 M 13.206547,31.351751 C 11.576266,30.839555 10.142118,28.98066 9.839798,27.004334 9.7710887,26.564595 9.6449134,26.096124 9.5562165,25.959955 9.1951806,25.399038 8.8441394,23.026697 9.0827472,22.783092 c 0.1274241,-0.131172 0.752053,0.550923 0.7558012,0.819513 0,0.127425 0.1074365,0.414753 0.2298636,0.634623 l 0.229863,0.394766 0.366033,-0.381024 c 0.473468,-0.468471 1.044379,-0.63962 1.61529,-0.483463 0.443486,0.131172 0.614634,0.238608 2.229925,1.331709 0.547175,0.371029 1.400418,0.916955 1.893874,1.220525 0.493457,0.297323 1.034385,0.732064 1.215528,0.965676 0.678347,0.868234 0.497205,1.956337 -0.512195,3.049438 -0.48846,0.527187 -0.703333,0.668353 -1.3467,0.868233 -0.780787,0.248603 -1.991318,0.312315 -2.547237,0.13617 m 20.842614,-5.690369 c -1.595301,-0.595896 -2.259907,-1.454136 -2.02005,-2.595957 0.04372,-0.209876 0.429746,-1.103095 0.854493,-1.981323 0.424747,-0.878228 0.775789,-1.664012 0.775789,-1.742715 0.005,-0.371029 0.570911,-1.366687 0.946937,-1.66401 0.317312,-0.248603 0.537181,-0.327306 0.995659,-0.332304 l 0.585902,-0.01499 0.03373,-0.434743 c 0.01999,-0.238607 -0.04872,-0.614634 -0.151161,-0.839501 -0.219869,-0.483462 -0.131172,-1.141821 0.141166,-1.088102 0.263593,0.05372 1.121834,1.688996 1.327961,2.5235 0.102439,0.409757 0.351042,0.985664 0.550923,1.282987 0.649614,0.946938 0.888222,1.776445 0.898216,3.094412 0.005,1.019394 -0.03373,1.239264 -0.283581,1.80018 -0.483463,1.05937 -1.277991,1.707735 -2.523501,2.050032 -0.760798,0.209876 -1.46413,0.189887 -2.13748,-0.06371 m -16.29032,-3.78528 c -1.22927,-0.312315 -2.03504,-0.965676 -2.5235,-2.045035 -0.547175,-1.215527 -0.434742,-3.361752 0.243605,-4.533556 0.204878,-0.356039 0.229863,-0.570911 0.214872,-1.630281 -0.02498,-1.121834 0.156157,-2.317373 0.381024,-2.54224 0.171148,-0.181142 0.502202,0.493457 0.502202,1.015647 0,0.297323 0.102438,0.765795 0.224866,1.049376 0.204878,0.463475 0.248602,0.497204 0.532184,0.429745 0.171148,-0.04373 0.624629,-0.107437 1.015646,-0.141166 0.693338,-0.06371 0.712077,-0.05872 1.073113,0.341047 0.399762,0.439738 0.634622,1.093101 0.634622,1.761454 0,0.547174 0.302321,1.146818 0.946938,1.893874 1.5953,1.830163 1.210529,3.460444 -1.005652,4.294948 -0.809519,0.297324 -1.385427,0.332303 -2.23992,0.107436 m 7.03207,-2.068771 c -0.560916,-0.194883 -1.098097,-0.809519 -1.292981,-1.484118 -0.122427,-0.434741 -0.15116,-0.893219 -0.10244,-1.796433 0.06871,-1.205533 0.06371,-1.220524 -0.273586,-1.776444 -0.96193,-1.58156 -0.67335,-2.62594 0.819512,-2.942002 l 0.624629,-0.131172 -0.0787,-0.37103 c -0.09744,-0.473468 -0.434742,-1.151815 -0.658359,-1.3466989 -0.204879,-0.176146 -0.243605,-0.941941 -0.04872,-0.941941 0.219869,0 2.068771,2.0100559 2.268652,2.4697829 0.146163,0.327306 0.351041,0.522189 0.780786,0.747056 0.814516,0.434741 1.991317,1.683999 2.439801,2.595958 0.468471,0.961928 0.575907,2.058777 0.283581,2.849556 -0.248602,0.678348 -1.141822,1.625285 -1.830162,1.947593 -0.629626,0.292327 -2.317374,0.394766 -2.938254,0.181143 m 0.005,0.005"
     id="path53" />
</svg>
