<svg xmlns="http://www.w3.org/2000/svg" viewBox="0 0 48 48"><defs><linearGradient id="0" x1="-140.87" y1="47.535" x2="-141.43" y2="1.316" gradientUnits="userSpaceOnUse"><stop stop-color="#dce2ff"/><stop offset="1" stop-color="#f8feff"/></linearGradient><linearGradient id="1" gradientUnits="userSpaceOnUse" x1="10.366" y1="50.599" x2="10.11" y2="-.747"><stop stop-color="#5dae33"/><stop offset="1" stop-color="#9be058"/></linearGradient><linearGradient id="2" gradientUnits="userSpaceOnUse" y1="18.758" x2="0" y2="1.078"><stop stop-color="#84cd4a"/><stop offset="1" stop-color="#99de57"/></linearGradient></defs><g transform="matrix(.96853 0 0 .96853 161.67.755)" fill-rule="evenodd"><rect y=".678" x="-164.68" height="46.644" width="45.08" fill="url(#0)" rx="2.898" stroke-width=".464"/><path transform="matrix(.97176 0 0 .97176-165.46.678)" d="m3.784 0h34.14 6.291c1.652 0 2.982 1.33 2.982 2.982v42.04c0 1.652-1.33 2.982-2.982 2.982h-40.43c-1.652 0-2.982-1.33-2.982-2.982v-42.04c0-1.652 1.33-2.982 2.982-2.982" fill="none" stroke="url(#1)" stroke-linejoin="round" stroke-linecap="round" stroke-width="3"/><path d="m26.11 1.091l19.929 17.668.006-17.68" transform="translate(-166.14)" fill="url(#2)"/><path d="m-131.79 16.14l-4.478.003c-.482 0-.869.283-.868.633l.019 20.732c0 .351.388.632.869.632h4.477c.482 0 .87-.283.869-.633l-.019-20.732c0-.351-.388-.634-.869-.633m-9.09 5.666l-4.477.003c-.482 0-.87.283-.869.633l.019 15.02c0 .351.388.634.869.633h4.478c.482 0 .869-.283.868-.633l-.018-15.02c0-.351-.389-.634-.871-.633m-8.757 5.751l-4.477.0001c-.482 0-.869.283-.868.633l.017 9.31c0 .351.389.633.871.633h4.478c.482 0 .869-.283.868-.633l-.018-9.31c0-.351-.389-.634-.871-.633" fill="#70bd3e"/></g></svg>