<?xml version="1.0" encoding="UTF-8" standalone="no"?>
<!-- Created with Inkscape (http://www.inkscape.org/) -->

<svg
   xmlns:osb="http://www.openswatchbook.org/uri/2009/osb"
   xmlns:dc="http://purl.org/dc/elements/1.1/"
   xmlns:cc="http://creativecommons.org/ns#"
   xmlns:rdf="http://www.w3.org/1999/02/22-rdf-syntax-ns#"
   xmlns:svg="http://www.w3.org/2000/svg"
   xmlns="http://www.w3.org/2000/svg"
   xmlns:xlink="http://www.w3.org/1999/xlink"
   xmlns:sodipodi="http://sodipodi.sourceforge.net/DTD/sodipodi-0.dtd"
   xmlns:inkscape="http://www.inkscape.org/namespaces/inkscape"
   width="48px"
   height="48px"
   id="svg2985"
   version="1.1"
   inkscape:version="0.91 r13725"
   sodipodi:docname="libreoffice-calc.svg">
  <defs
     id="defs2987">
    <linearGradient
       id="linearGradient4207"
       osb:paint="gradient">
      <stop
         style="stop-color:#3498db;stop-opacity:1;"
         offset="0"
         id="stop3371" />
      <stop
         style="stop-color:#3498db;stop-opacity:0;"
         offset="1"
         id="stop3373" />
    </linearGradient>
    <linearGradient
       inkscape:collect="always"
       xlink:href="#linearGradient4320"
       id="linearGradient4738-6-1-9-8"
       x1="-123.9715"
       y1="73.496605"
       x2="-125.19291"
       y2="-26.047026"
       gradientUnits="userSpaceOnUse" />
    <linearGradient
       inkscape:collect="always"
       xlink:href="#linearGradient4531-4"
       id="linearGradient4608-3-9"
       gradientUnits="userSpaceOnUse"
       gradientTransform="translate(-28.434456,36.349091)"
       x1="38.800407"
       y1="14.249936"
       x2="38.541626"
       y2="-37.095875" />
    <linearGradient
       id="linearGradient4531-4"
       inkscape:collect="always">
      <stop
         id="stop4533-4"
         offset="0"
         style="stop-color:#5dae33;stop-opacity:1" />
      <stop
         id="stop4535-3"
         offset="1"
         style="stop-color:#9be058;stop-opacity:1" />
    </linearGradient>
    <linearGradient
       inkscape:collect="always"
       xlink:href="#linearGradient5131"
       id="linearGradient5034"
       gradientUnits="userSpaceOnUse"
       gradientTransform="matrix(1.2127051,0,0,1.2127051,-9.7933672,-0.22929607)"
       x1="46.037296"
       y1="15.657343"
       x2="46.042"
       y2="1.0779999" />
    <linearGradient
       inkscape:collect="always"
       id="linearGradient5131">
      <stop
         style="stop-color:#84cd4a;stop-opacity:1"
         offset="0"
         id="stop5133" />
      <stop
         style="stop-color:#99de57;stop-opacity:1"
         offset="1"
         id="stop5135" />
    </linearGradient>
    <linearGradient
       inkscape:collect="always"
       id="linearGradient4320">
      <stop
         style="stop-color:#dce2ff;stop-opacity:1"
         offset="0"
         id="stop4322" />
      <stop
         style="stop-color:#f8feff;stop-opacity:1"
         offset="1"
         id="stop4324" />
    </linearGradient>
  </defs>
  <sodipodi:namedview
     id="base"
     pagecolor="#5a5a5a"
     bordercolor="#666666"
     borderopacity="1.0"
     inkscape:pageopacity="0"
     inkscape:pageshadow="2"
     inkscape:zoom="3.0323572"
     inkscape:cx="-29.78695"
     inkscape:cy="27.054775"
     inkscape:current-layer="layer1"
     showgrid="false"
     inkscape:grid-bbox="true"
     inkscape:document-units="px"
     inkscape:snap-global="true"
     inkscape:window-width="1366"
     inkscape:window-height="687"
     inkscape:window-x="0"
     inkscape:window-y="0"
     inkscape:window-maximized="1"
     inkscape:snap-bbox="true"
     inkscape:bbox-nodes="true"
     inkscape:object-nodes="true"
     inkscape:snap-nodes="true"
     inkscape:snap-others="false"
     inkscape:snap-bbox-edge-midpoints="true"
     showborder="false">
    <inkscape:grid
       type="xygrid"
       id="grid2993" />
  </sodipodi:namedview>
  <metadata
     id="metadata2990">
    <rdf:RDF>
      <cc:Work
         rdf:about="">
        <dc:format>image/svg+xml</dc:format>
        <dc:type
           rdf:resource="http://purl.org/dc/dcmitype/StillImage" />
        <dc:title />
      </cc:Work>
    </rdf:RDF>
  </metadata>
  <g
     id="layer1"
     inkscape:label="Layer 1"
     inkscape:groupmode="layer">
    <g
       transform="matrix(0.96853196,0,0,0.96853196,161.66844,0.75523296)"
       id="g5769">
      <rect
         ry="6.2409248"
         y="-27.421095"
         x="-175.27007"
         height="100.45968"
         width="97.100838"
         id="rect4177-3-0-7-8"
         style="opacity:1;fill:url(#linearGradient4738-6-1-9-8);fill-opacity:1.0;fill-rule:evenodd;stroke:none;stroke-width:8;stroke-linecap:round;stroke-linejoin:round;stroke-miterlimit:4;stroke-dasharray:none;stroke-dashoffset:0;stroke-opacity:1"
         transform="matrix(0.4643084,0,0,0.4643084,-83.304354,13.409708)" />
      <path
         transform="matrix(0.97175572,0,0,0.97175572,-165.46349,0.67786272)"
         sodipodi:nodetypes="scssssssss"
         inkscape:connector-curvature="0"
         id="rect4177-3-2-4-6-7"
         d="m 3.7843714,0 34.1399206,0 6.291337,0 c 1.651992,0 2.981936,1.3299437 2.981936,2.9819365 l 0,42.0361275 C 47.197565,46.670056 45.867621,48 44.215629,48 L 3.7843714,48 C 2.1323786,48 0.80243492,46.670056 0.80243492,45.018064 l 0,-42.0361275 C 0.80243492,1.3299437 2.1323786,0 3.7843714,0 Z"
         style="opacity:1;fill:none;fill-opacity:1;fill-rule:evenodd;stroke:url(#linearGradient4608-3-9);stroke-width:3;stroke-linecap:round;stroke-linejoin:round;stroke-miterlimit:4;stroke-dasharray:none;stroke-dashoffset:0;stroke-opacity:1" />
      <path
         style="fill:url(#linearGradient5034);fill-opacity:1;fill-rule:evenodd;stroke:none;stroke-width:1px;stroke-linecap:butt;stroke-linejoin:miter;stroke-opacity:1"
         d="M 26.107226,1.090828 46.036295,18.758443 46.042,1.078 Z"
         id="path4479-8-1-2"
         inkscape:connector-curvature="0"
         sodipodi:nodetypes="cccc"
         transform="translate(-166.14135,0)" />
      <path
         sodipodi:nodetypes="cccsccccccccccccccccccccccc"
         inkscape:connector-curvature="0"
         id="rect4204-9-8-5-55-7"
         d="m -131.79039,16.144971 -4.47775,0.0027 c -0.48169,1.89e-4 -0.86859,0.282667 -0.86827,0.633409 l 0.019,20.7317 c 3.2e-4,0.35075 0.38777,0.63241 0.86945,0.63222 l 4.47657,-9.2e-4 c 0.48169,-1.8e-4 0.86977,-0.28266 0.86945,-0.63341 l -0.019,-20.73173 c -3.1e-4,-0.350743 -0.38776,-0.633598 -0.86945,-0.633409 z m -9.08836,5.666279 -4.47656,0.0027 c -0.48169,1.38e-4 -0.86988,0.282663 -0.86946,0.63341 l 0.019,15.02034 c 4.1e-4,0.35074 0.38777,0.63355 0.86946,0.63341 l 4.47776,-9.2e-4 c 0.48168,-1.4e-4 0.86869,-0.28266 0.86827,-0.63341 l -0.0178,-15.021559 c -4.1e-4,-0.350742 -0.38896,-0.633546 -0.87065,-0.633409 z m -8.75742,5.751689 -4.47656,0.0013 c -0.48168,1.27e-4 -0.86892,0.282696 -0.86827,0.633439 l 0.0166,9.310172 c 4.1e-4,0.35075 0.38896,0.6335 0.87065,0.63341 l 4.47775,-9.2e-4 c 0.48168,-1.2e-4 0.86893,-0.2827 0.86826,-0.63344 l -0.0178,-9.310174 c -4.1e-4,-0.350747 -0.38896,-0.633501 -0.87064,-0.633408 z"
         style="opacity:1;fill:#70bd3e;fill-opacity:1;fill-rule:evenodd;stroke:none;stroke-width:8;stroke-linecap:round;stroke-linejoin:round;stroke-miterlimit:4;stroke-dasharray:none;stroke-dashoffset:0;stroke-opacity:1" />
    </g>
  </g>
</svg>
