<?xml version="1.0" encoding="UTF-8" standalone="no"?>
<svg
   xmlns:dc="http://purl.org/dc/elements/1.1/"
   xmlns:cc="http://creativecommons.org/ns#"
   xmlns:rdf="http://www.w3.org/1999/02/22-rdf-syntax-ns#"
   xmlns:svg="http://www.w3.org/2000/svg"
   xmlns="http://www.w3.org/2000/svg"
   xmlns:xlink="http://www.w3.org/1999/xlink"
   xmlns:sodipodi="http://sodipodi.sourceforge.net/DTD/sodipodi-0.dtd"
   xmlns:inkscape="http://www.inkscape.org/namespaces/inkscape"
   viewBox="0 0 48 48"
   id="svg2"
   version="1.1"
   inkscape:version="0.91 r13725"
   sodipodi:docname="librecad.svg">
  <metadata
     id="metadata21">
    <rdf:RDF>
      <cc:Work
         rdf:about="">
        <dc:format>image/svg+xml</dc:format>
        <dc:type
           rdf:resource="http://purl.org/dc/dcmitype/StillImage" />
        <dc:title></dc:title>
      </cc:Work>
    </rdf:RDF>
  </metadata>
  <sodipodi:namedview
     pagecolor="#ffffff"
     bordercolor="#666666"
     borderopacity="1"
     objecttolerance="10"
     gridtolerance="10"
     guidetolerance="10"
     inkscape:pageopacity="0"
     inkscape:pageshadow="2"
     inkscape:window-width="1366"
     inkscape:window-height="687"
     id="namedview19"
     showgrid="false"
     inkscape:zoom="9.8333333"
     inkscape:cx="28.904768"
     inkscape:cy="27.61547"
     inkscape:window-x="0"
     inkscape:window-y="0"
     inkscape:window-maximized="1"
     inkscape:current-layer="svg2" />
  <defs
     id="defs4">
    <linearGradient
       gradientTransform="matrix(1.71427,0,0,1.71427,-92.010843,5.9414363)"
       id="0-2"
       x1="42.657001"
       y1="25.16"
       x2="41.705002"
       y2="-1.488"
       gradientUnits="userSpaceOnUse">
      <stop
         stop-color="#74cb32"
         id="stop7-5" />
      <stop
         offset="1"
         stop-color="#abeb6b"
         id="stop9-0" />
    </linearGradient>
    <linearGradient
       inkscape:collect="always"
       xlink:href="#0-2"
       id="linearGradient4188"
       x1="8.7440033"
       y1="84"
       x2="8.5441332"
       y2="37.830509"
       gradientUnits="userSpaceOnUse"
       gradientTransform="translate(15.050847,-37.423729)" />
  </defs>
  <path
     inkscape:connector-curvature="0"
     d="m 2.98021,-0.00176 42.03958,0 c 1.651983,0 2.98197,1.329987 2.98197,2.98197 l 0,42.03958 c 0,1.651983 -1.329987,2.98197 -2.98197,2.98197 l -42.03958,0 c -1.651984,0 -2.98197,-1.329987 -2.98197,-2.98197 l 0,-42.03958 c 0,-1.651983 1.329986,-2.98197 2.98197,-2.98197"
     id="path11-6"
     style="fill:url(#linearGradient4188);fill-opacity:1;fill-rule:evenodd" />
  <circle
     style="opacity:1;fill:none;fill-opacity:0.73200001;stroke:#2c3e1b;stroke-width:3.07692313;stroke-linecap:round;stroke-linejoin:round;stroke-miterlimit:4;stroke-dasharray:none;stroke-opacity:1"
     id="path4155"
     r="18.461538"
     cy="24"
     cx="24" />
  <path
     style="opacity:1;fill:#2c3e1b;fill-opacity:1;stroke:none;stroke-width:4;stroke-linecap:round;stroke-linejoin:round;stroke-miterlimit:4;stroke-dasharray:none;stroke-opacity:1"
     d="m 11.236328,20 c -0.450711,0 -0.8125,0.363741 -0.8125,0.814453 l 0,6.371094 c 0,0.450712 0.361789,0.814453 0.8125,0.814453 l 6.373047,0 c 0.450712,0 0.814453,-0.363741 0.814453,-0.814453 l 0,-1.253906 18.746094,0 c 0.225356,0 0.40625,-0.180895 0.40625,-0.40625 l 0,-2.847657 c 0,-0.225355 -0.180894,-0.40625 -0.40625,-0.40625 l -18.746094,0 0,-1.457031 C 18.423828,20.363741 18.060087,20 17.609375,20 l -6.373047,0 z"
     id="rect4273"
     inkscape:connector-curvature="0" />
</svg>
