<svg xmlns="http://www.w3.org/2000/svg" viewBox="0 0 48 48"><defs><linearGradient id="0" x1="-28.426" y1="40.29" x2="-28.22" y2="-.994" gradientUnits="userSpaceOnUse"><stop stop-color="#2f3f47"/><stop offset="1" stop-color="#425963"/></linearGradient></defs><g transform="translate(51.613 4.045)"><rect width="48" height="43.978" x="-51.613" y="-2.034" rx="2.069" fill="url(#0)"/><g fill="#e2e3e3"><path d="m-20.567 9.959h7.615l5.95-5.265-5.95-5.823h-7.615l5.395 5.823z"/><path d="m-47.737 9.959h7.615l5.95-5.265-5.95-5.823h-7.615l5.395 5.823z"/><path d="m-34.3 9.959h7.615l5.95-5.265-5.95-5.823h-7.615l5.395 5.823z"/><path d="m-33.52 14.841c-.579.0001-1.152.078-1.606.23-1.552.521-2.727 1.677-3.261 3.211-.205.59-.235.803-.235 1.649 0 1.651.366 2.574 1.471 3.686.532.536.83.759 1.338 1 .75.358 1.491.54 2.238.55l.521.011.14-.634c.44-1.977 2.036-3.581 4.044-4.07l.571-.14-.003-.431c-.007-2.118-1.537-4.183-3.579-4.831-.476-.151-1.061-.228-1.64-.227zm11.696.015c-.793 0-1.082.038-1.624.212-2.045.649-3.574 2.71-3.581 4.831v.431l.571.14c2.01.489 3.596 2.091 4.05 4.099l.138.605h.476c.263 0 .745-.059 1.071-.127 3.895-.817 5.435-5.656 2.722-8.557-1.081-1.156-2.196-1.633-3.822-1.633m-6.475 6.828l-.354.059c-.569.091-1.447.604-1.971 1.152-.51.534-.962 1.382-1.037 1.942l-.045.336h1.703 1.703v-1.744-1.744zm1.27 0v1.744 1.744h1.703 1.703l-.056-.359c-.093-.592-.518-1.386-1.026-1.919-.523-.548-1.402-1.061-1.971-1.152l-.354-.059zm5.142 4.767c-.041 0-.082.011-.119.011-.3.027-.305.031-.487.658-.279.963-.686 1.653-1.405 2.376-.717.721-1.51 1.171-2.505 1.422l-.585.145-.024.513c-.032.664.167 1.607.484 2.283 1.048 2.238 3.57 3.431 5.962 2.82 3.257-.832 4.878-4.374 3.375-7.376-.457-.913-1.383-1.817-2.322-2.267-.707-.339-1.757-.593-2.375-.581zm-2.87.011c-.195 0-.407 0-.627.011l-1.603.021-.024 1.636-.021 1.636.275-.056c.152-.03.544-.182.87-.336.722-.34 1.193-.739 1.603-1.356.348-.523.679-1.391.571-1.498-.029-.029-.46-.051-1.045-.052zm-8.263.027l-.664.024c-1.371.044-2.491.528-3.462 1.499-1.046 1.044-1.48 2.112-1.479 3.631.0001 1.055.117 1.592.518 2.413.349.714 1.423 1.801 2.164 2.188 1.123.588 2.484.752 3.687.444 1.979-.506 3.423-2 3.835-3.98.071-.34.117-.848.103-1.128l-.024-.51-.619-.151c-1.473-.361-2.812-1.436-3.473-2.783-.193-.394-.404-.926-.468-1.181l-.119-.465m1.378 0l.026.254c.05.464.524 1.309 1.018 1.813.476.486 1.092.865 1.748 1.073.589.187.557.279.532-1.512l-.024-1.628h-1.651-1.651"/></g></g></svg>