<?xml version="1.0" encoding="UTF-8" standalone="no"?>
<!-- Created with Inkscape (http://www.inkscape.org/) -->

<svg
   xmlns:dc="http://purl.org/dc/elements/1.1/"
   xmlns:cc="http://creativecommons.org/ns#"
   xmlns:rdf="http://www.w3.org/1999/02/22-rdf-syntax-ns#"
   xmlns:svg="http://www.w3.org/2000/svg"
   xmlns="http://www.w3.org/2000/svg"
   xmlns:xlink="http://www.w3.org/1999/xlink"
   xmlns:sodipodi="http://sodipodi.sourceforge.net/DTD/sodipodi-0.dtd"
   xmlns:inkscape="http://www.inkscape.org/namespaces/inkscape"
   width="48"
   height="48"
   id="svg5453"
   version="1.1"
   inkscape:version="0.91 r13725"
   sodipodi:docname="lokalize.svg">
  <defs
     id="defs5455">
    <linearGradient
       gradientTransform="matrix(0.13837079,0,0,0.13837079,127.46829,-43.119557)"
       inkscape:collect="always"
       xlink:href="#linearGradient4264"
       id="linearGradient5299"
       gradientUnits="userSpaceOnUse"
       x1="-318.57867"
       y1="653.95679"
       x2="-318.57867"
       y2="301.29816" />
    <linearGradient
       id="linearGradient4264"
       inkscape:collect="always">
      <stop
         id="stop4266"
         offset="0"
         style="stop-color:#0a80fd;stop-opacity:1" />
      <stop
         id="stop4268"
         offset="1"
         style="stop-color:#56c5fa;stop-opacity:1" />
    </linearGradient>
  </defs>
  <sodipodi:namedview
     id="base"
     pagecolor="#ffffff"
     bordercolor="#666666"
     borderopacity="1.0"
     inkscape:pageopacity="0"
     inkscape:pageshadow="2"
     inkscape:zoom="4"
     inkscape:cx="-39.601104"
     inkscape:cy="15.968792"
     inkscape:document-units="px"
     inkscape:current-layer="g4182"
     showgrid="true"
     fit-margin-top="0"
     fit-margin-left="0"
     fit-margin-right="0"
     fit-margin-bottom="0"
     inkscape:window-width="1366"
     inkscape:window-height="634"
     inkscape:window-x="0"
     inkscape:window-y="36"
     inkscape:window-maximized="1"
     inkscape:showpageshadow="false"
     borderlayer="true"
     showguides="false">
    <inkscape:grid
       type="xygrid"
       id="grid4063" />
    <sodipodi:guide
       position="1.1650391e-05,32.000026"
       orientation="32,0"
       id="guide4157" />
    <sodipodi:guide
       position="1.1650391e-05,2.6367188e-05"
       orientation="0,32"
       id="guide4159" />
    <sodipodi:guide
       position="32.000012,2.6367188e-05"
       orientation="-32,0"
       id="guide4161" />
    <sodipodi:guide
       position="32.000012,32.000026"
       orientation="0,-32"
       id="guide4163" />
    <sodipodi:guide
       position="2.0000117,30.000026"
       orientation="28,0"
       id="guide4167" />
    <sodipodi:guide
       position="2.0000117,2.0000264"
       orientation="0,28"
       id="guide4169" />
    <sodipodi:guide
       position="30.000012,2.0000264"
       orientation="-28,0"
       id="guide4171" />
    <sodipodi:guide
       position="30.000012,30.000026"
       orientation="0,-28"
       id="guide4173" />
    <sodipodi:guide
       position="2.0000117,30.000026"
       orientation="28,0"
       id="guide4181" />
    <sodipodi:guide
       position="2.0000117,2.0000264"
       orientation="0,14"
       id="guide4183" />
    <sodipodi:guide
       position="16.000012,2.0000264"
       orientation="-28,0"
       id="guide4185" />
    <sodipodi:guide
       position="16.000012,30.000026"
       orientation="0,-14"
       id="guide4187" />
    <sodipodi:guide
       position="9.0000117,23.000026"
       orientation="14,0"
       id="guide4193" />
    <sodipodi:guide
       position="9.0000117,9.0000264"
       orientation="0,14.000031"
       id="guide4195" />
    <sodipodi:guide
       position="23.000042,9.0000264"
       orientation="-14,0"
       id="guide4197" />
    <sodipodi:guide
       position="23.000042,23.000026"
       orientation="0,-14.000031"
       id="guide4199" />
  </sodipodi:namedview>
  <metadata
     id="metadata5458">
    <rdf:RDF>
      <cc:Work
         rdf:about="">
        <dc:format>image/svg+xml</dc:format>
        <dc:type
           rdf:resource="http://purl.org/dc/dcmitype/StillImage" />
        <dc:title></dc:title>
      </cc:Work>
    </rdf:RDF>
  </metadata>
  <g
     inkscape:label="Capa 1"
     inkscape:groupmode="layer"
     id="layer1"
     transform="translate(-384.57143,-499.798)">
    <g
       style="display:inline;enable-background:new"
       id="g4238"
       transform="translate(225.81911,462.44565)">
      <g
         style="display:inline"
         id="layer1-8"
         transform="matrix(0.22655187,0,0,0.22655187,106.94841,54.31088)">
        <g
           style="display:none"
           id="layer6" />
        <g
           id="g4027" />
        <g
           id="g4061" />
        <g
           id="g3751" />
        <g
           id="g3782" />
        <g
           id="g3725" />
        <g
           id="g4370"
           transform="matrix(4.4140002,0,0,4.4140002,59.275211,39.357303)">
          <g
             id="g4182"
             transform="translate(-20,-25.000001)">
            <circle
               style="opacity:1;fill:url(#linearGradient5299);fill-opacity:1.0;stroke:none;stroke-width:15.44461155;stroke-linecap:round;stroke-linejoin:round;stroke-miterlimit:4;stroke-dasharray:none;stroke-opacity:1"
               id="path4217"
               cx="82.375"
               cy="23.125"
               r="24" />
            <g
               id="g4206"
               transform="translate(65.068964,-9.1000566)">
              <path
                 id="path4472-8"
                 style="display:inline;opacity:0.9;fill:#ffffff;enable-background:new"
                 d="m 22.117081,47.422594 c -0.203564,0.232589 -0.46698,0.450036 -0.715336,0.650462 -1.604484,-1.65818 -3.488167,-3.495925 -5.278642,-3.495925 -1.110057,0 -1.909572,0.845031 -2.84233,1.441228 -1.294429,0.827369 -3.070006,1.293315 -4.591594,0.686076 -0.818412,-0.310719 -1.61133,-0.768443 -2.2039,-1.512019 1.197613,0.825943 2.991028,0.936953 4.343004,0.376063 1.4944,-0.619976 3.015434,-1.443221 4.718509,-1.443221 2.510495,0 4.896493,1.698181 6.570289,3.297336 z M 3.562121,42.207365 c 1.662162,1.892082 4.373139,1.283349 6.592009,1.755903 0.30885,0.06578 0.599003,0.168342 0.93051,0.117431 -0.263809,-0.167243 -0.613465,-0.186113 -0.918194,-0.300912 -1.721644,-0.648587 -1.99006,-2.491164 -2.932257,-3.759299 1.203418,0.800056 2.200436,1.895385 3.325813,2.924727 0.783236,0.716396 1.759041,1.022917 2.771055,1.228833 -0.243179,0.08888 -0.5613,0.06791 -0.823198,0.132886 -1.817847,0.450965 -3.833334,1.16281 -5.767635,0.52448 -1.2483,-0.411946 -2.54733,-1.387527 -3.178103,-2.624049 z M 0.89775195,37.828199 C 1.934553,40.175573 4.539444,40.359409 6.271439,41.799453 6.60078,42.07328 6.927235,42.325268 7.289022,42.494001 l 0.01867,-0.0189 C 6.908017,42.113467 6.475504,41.682493 6.165931,41.232692 5.175998,39.794344 5.505428,37.828276 4.742163,36.303315 c 0.69345,0.830335 1.343888,1.685352 1.743195,2.636051 0.642576,1.529893 0.86085,3.275216 2.302033,4.437764 C 7.2276,42.862534 5.428264,42.964955 4.023689,42.044985 2.547284,41.077967 1.178976,39.551625 0.89775195,37.828199 Z m -1.110618,-4.749113 c 0.149908,2.068113 2.35171905,3.172878 3.40159105,4.872898 0.224232,0.363091 0.454979,0.737927 0.780602,1.031153 C 3.918574,38.762944 3.737393,38.567849 3.637664,38.351816 3.30093,37.622388 3.148528,36.778234 3.232575,35.910229 c 0.10226,-1.05609 0.542523,-2.036735 0.373554,-3.147744 0.904936,1.953269 0.613026,4.395121 1.136034,6.507132 0.115701,0.467225 0.400224,0.876069 0.575547,1.318574 C 4.428587,39.911815 3.263386,39.311436 2.287428,38.542162 1.343587,37.798203 0.52432895,36.926229 0.09848095,35.791621 c -0.306855,-0.817568 -0.386654,-1.792771 -0.311347,-2.712535 z m 0.0615,-3.810522 c 0.106215,-0.461567 0.187483,-0.939295 0.388301,-1.362738 -0.38022,1.950916 0.91765405,3.360181 1.36077805,5.048063 0.166988,0.636067 0.224116,1.311907 0.481336,1.905418 0.024,0.01287 0.04479,-0.01208 0.05962,-0.0313 -0.640343,-1.796302 0.298338,-3.456427 1.212753,-4.872347 0.240357,-0.37218 0.35606,-0.805548 0.468313,-1.243661 0.09884,0.813157 -0.07424,1.754477 -0.224665,2.593612 -0.193668,1.080328 -0.562917,2.092822 -0.856379,3.135115 -0.193208,0.651169 -0.142298,1.386037 -0.04314,2.06827 l -0.09319,-0.07437 C 1.921532,35.177792 0.57833895,34.195947 0.17268895,32.82422 c -0.324204,-1.096318 -0.548484,-2.362906 -0.324055,-3.555656 z m 0.718082,-2.098626 c 0,-1.476324 0.57484205,-2.680686 1.43710405,-3.780165 0.02502,-0.01247 0.04283,-0.03757 0.07515,-0.03169 -0.949258,1.443929 -0.08526,3.266634 -0.20725,4.904432 l -0.125198,1.68091 c 0.01859,0.01224 0.01859,0.06268 0.06268,0.04338 0.05609,-0.187405 0.07311,-0.386742 0.105744,-0.580255 0.22852,-1.355127 1.418468,-2.298344 2.427623,-3.255056 0.238708,-0.226305 0.413481,-0.493887 0.526049,-0.781465 -0.08394,0.675015 -0.272233,1.366989 -0.575234,1.980411 -0.77677,1.572563 -2.27701,2.841967 -2.546859,4.629091 C 1.61568,30.266772 0.56671895,28.993527 0.56671895,27.169938 Z M 3.068862,22.189808 C 3.546196,21.660582 4.081189,21.248316 4.71808,21.085229 3.481324,21.935647 3.548474,23.455515 3.16982,24.726312 3.031366,25.190974 2.82788,25.626306 2.719705,26.106543 l 0.0313,0.02502 c 0.20576,-0.542914 0.558797,-1.064794 1.018759,-1.498761 0.869889,-0.820727 2.177699,-1.317477 2.608125,-2.517992 -0.01969,1.66828 -1.441717,2.936436 -2.74054,3.917521 -0.582536,0.440027 -1.077592,1.03084 -1.379682,1.65016 0.050476,-0.46096 0.073401,-0.844404 0.032241,-1.294336 -0.133317,-1.457318 -0.219771,-3.091053 0.778954,-4.198351 z m 5.019824,-2.804786 c -0.91788,0.80539 -1.530327,1.842038 -2.235435,2.773956 -0.586449,0.775092 -1.391135,1.255348 -2.083173,1.905733 0.373553,-0.775033 0.442525,-1.6631 0.916938,-2.412876 0.811235,-1.282101 2.151969,-1.77975 3.40167,-2.266813 z"
                 inkscape:connector-curvature="0" />
              <path
                 inkscape:connector-curvature="0"
                 style="display:inline;opacity:0.9;fill:#ffffff;enable-background:new"
                 d="M 28.584298,36.060984 28.313192,35.91306 c -0.574788,1.185351 -1.335881,2.264077 -2.246318,3.197108 L 24.483056,37.52635 c 0.775927,-0.799579 1.40155,-1.707144 1.862436,-2.68801 l -0.269867,-0.147515 c -0.455611,0.972629 -1.068599,1.857599 -1.807875,2.620074 l -1.434724,-1.434723 c 0.615913,-0.640298 1.104645,-1.370869 1.457394,-2.160398 l -0.267751,-0.146102 c -0.345449,0.778118 -0.822022,1.485732 -1.404345,2.092236 l -1.585556,-1.585556 c 0.440944,-0.467279 0.781367,-1.004896 1.013057,-1.586689 l -0.267811,-0.146103 c -0.221382,0.567308 -0.548635,1.082353 -0.958573,1.519208 l -1.439106,-1.438879 c 0.409961,-0.457501 0.647719,-1.031496 0.681361,-1.644726 l 2.036996,0 c -0.01732,0.550403 -0.130074,1.076912 -0.320648,1.564473 l 0.267811,0.146102 c 0.214378,-0.53903 0.335437,-1.115602 0.352757,-1.71062 l 2.245486,0 c -0.02021,0.991369 -0.241241,1.934073 -0.621504,2.79063 l 0.26775,0.146102 c 0.408306,-0.914442 0.633936,-1.908153 0.653908,-2.936853 l 2.033142,0 c -0.02139,1.396108 -0.343446,2.719899 -0.901897,3.911824 l 0.269866,0.147515 c 0.590341,-1.256233 0.911192,-2.633147 0.932351,-4.059331 l 2.245336,0 c -0.02239,1.837724 -0.455317,3.57774 -1.209986,5.134051 l 0.271226,0.147863 c 0.811821,-1.67208 1.242782,-3.518571 1.242782,-5.432014 0,-1.627194 -0.311753,-3.205797 -0.904088,-4.670294 L 28.644752,26.0782 c 0.557884,1.381978 0.86026,2.868162 0.878849,4.400594 l -2.245637,0 c -0.0182,-1.22253 -0.258441,-2.408031 -0.697911,-3.51313 l -0.276169,0.118354 c 0.423918,1.068373 0.655971,2.213672 0.67388,3.394791 l -2.033368,0 c -0.01732,-0.90031 -0.192932,-1.77387 -0.509808,-2.591207 l -0.276169,0.118649 c 0.301385,0.780006 0.468518,1.613591 0.486072,2.472566 l -2.245713,0 c -0.01591,-0.54893 -0.11988,-1.08273 -0.304272,-1.585556 l -0.276116,0.118467 c 0.169369,0.465745 0.264569,0.959329 0.280476,1.467066 l -2.036996,0 c -0.03364,-0.61332 -0.2714,-1.18724 -0.681361,-1.644725 l 1.440542,-1.440315 c 0.444835,0.473113 0.781292,1.022503 0.997414,1.61805 l 0.276116,-0.118468 C 21.8633,28.263406 21.505359,27.682218 21.03301,27.181583 l 1.587899,-1.587747 c 0.67759,0.705278 1.194796,1.524119 1.53757,2.412415 l 0.276169,-0.118649 c -0.35788,-0.922678 -0.896608,-1.773416 -1.601501,-2.505967 l 1.437746,-1.437973 c 0.890411,0.918296 1.574524,1.983872 2.032991,3.140432 l 0.276169,-0.118354 c -0.473702,-1.191094 -1.17923,-2.28856 -2.096921,-3.233984 l 1.587672,-1.587974 c 1.122857,1.150287 1.989011,2.485035 2.573903,3.934494 l 0.278231,-0.119585 C 28.30491,24.429281 27.380985,23.024558 26.179387,21.823036 24.973406,20.616904 23.562486,19.6909 22.026427,19.072759 l -0.110631,0.281655 c 1.452633,0.585103 2.790328,1.452255 3.942731,2.577227 l -1.587671,1.587899 c -0.92948,-0.900764 -2.006316,-1.599007 -3.175344,-2.072059 l -0.109573,0.279236 c 1.130413,0.458619 2.172413,1.133965 3.072799,2.007374 l -1.437671,1.437746 c -0.698915,-0.672346 -1.50485,-1.194495 -2.378485,-1.551929 l -0.109754,0.279237 c 0.835927,0.342563 1.606866,0.842199 2.276091,1.484976 l -1.587672,1.587672 c -0.446603,-0.420979 -0.957288,-0.751344 -1.509082,-0.981772 l -0.109807,0.279471 c 0.514229,0.215495 0.989783,0.522949 1.406688,0.914593 L 19.168731,28.6244 C 18.710936,28.214378 18.13716,27.976674 17.523703,27.943212 l 0,-2.03692 c 0.585391,0.01803 1.152177,0.142384 1.678655,0.363245 l 0.109807,-0.279471 C 18.75116,25.755663 18.147067,25.62441 17.523711,25.606085 l 0,-2.245562 c 0.909227,0.01826 1.790193,0.203065 2.609192,0.538683 l 0.109755,-0.279237 c -0.853459,-0.34922 -1.771755,-0.541093 -2.718992,-0.559358 l 0,-2.034275 c 1.205754,0.01838 2.374857,0.258856 3.462197,0.699679 l 0.109573,-0.279237 c -1.12195,-0.454493 -2.327704,-0.702037 -3.571846,-0.720475 l 0,-2.245789 c 1.529485,0.0185 3.012949,0.319945 4.392357,0.875373 l 0.110631,-0.281655 c -1.459509,-0.587635 -3.032219,-0.897288 -4.652838,-0.897288 -2.00216,0 -3.893915,0.477708 -5.571512,1.320693 l 0.136853,0.261916 c 1.623339,-0.813408 3.419351,-1.256535 5.284657,-1.279054 l 0,2.245864 c -1.521248,0.02262 -2.958692,0.391757 -4.240618,1.028322 l 0.136377,0.261206 c 1.262959,-0.625222 2.657102,-0.967716 4.104219,-0.989782 l 0,2.033444 c -1.131169,0.02227 -2.201507,0.29432 -3.159475,0.761871 l 0.1372,0.262385 c 0.932578,-0.452671 1.958028,-0.70286 3.02232,-0.724306 l 0,2.245789 c -0.705747,0.02085 -1.375101,0.188042 -1.979489,0.471639 l 0.137911,0.26339 c 0.571728,-0.265748 1.195476,-0.415145 1.841578,-0.435117 l 0,2.037222 c -0.315993,0.01756 -0.617386,0.08966 -0.895172,0.206836 l 0.137676,0.263269 c 0.284126,-0.116351 0.591112,-0.177614 0.90749,-0.177614 0.639829,0 1.241271,0.249131 1.693768,0.701508 0.452438,0.452437 0.701569,1.05409 0.701569,1.693995 0,1.320768 -1.074343,2.395639 -2.395337,2.395639 -0.640003,0 -1.241573,-0.249251 -1.693995,-0.701689 -0.45243,-0.452671 -0.701629,-1.05409 -0.701629,-1.693995 0,-0.63989 0.249191,-1.241573 0.701629,-1.693995 0.228863,-0.228751 0.49579,-0.404891 0.78643,-0.523894 l -0.137676,-0.263269 c -0.276056,0.116585 -0.528663,0.277702 -0.748874,0.474941 l -1.441146,-1.441147 c 0.372313,-0.349869 0.791569,-0.632756 1.243537,-0.842803 l -0.13791,-0.26339 c -0.486073,0.22816 -0.930009,0.531375 -1.316385,0.895625 l -1.589334,-1.58941 c 0.557355,-0.53538 1.185955,-0.970437 1.862964,-1.299307 l -0.137201,-0.262385 c -0.714996,0.348872 -1.367695,0.806153 -1.935357,1.351902 l -1.440316,-1.440165 c 0.726959,-0.705339 1.547319,-1.280037 2.430854,-1.71727 l -0.136377,-0.261206 c -0.92487,0.459389 -1.769563,1.057264 -2.503549,1.769563 L 8.888423,21.933092 c 0.912099,-0.890411 1.941252,-1.617597 3.050506,-2.173546 l -0.136852,-0.261917 c -2.424732,1.218525 -4.398781,3.204286 -5.600832,5.638616 l 0.260912,0.140797 C 7.022746,24.13688 7.764184,23.079768 8.676283,22.145149 l 1.591148,1.591148 c -0.740153,0.762551 -1.358552,1.643517 -1.824274,2.611309 l 0.259914,0.140329 c 0.443596,-0.926684 1.038373,-1.784979 1.773115,-2.542694 l 1.440391,1.44024 c -0.580562,0.60395 -1.060892,1.304143 -1.416965,2.073269 l 0.260503,0.140563 c 0.335376,-0.731138 0.793685,-1.4082 1.366184,-2.004125 l 1.589334,1.58941 c -0.40625,0.430992 -0.737145,0.933636 -0.972024,1.486638 l 0.26262,0.142037 c 0.215851,-0.51871 0.525246,-0.998397 0.919882,-1.418174 l 1.441147,1.440995 c -0.395641,0.442243 -0.646835,1.013964 -0.681709,1.644045 l -2.037449,0 c 0.01808,-0.580917 0.140563,-1.143788 0.358114,-1.666942 l -0.26262,-0.142036 c -0.237289,0.558647 -0.376439,1.168952 -0.395467,1.808933 l -2.245486,0 c 0.02021,-1.010563 0.246833,-1.986366 0.657383,-2.880933 l -0.260503,-0.140563 c -0.427281,0.922527 -0.675588,1.944501 -0.696558,3.021564 l -2.033746,0 c 0.02133,-1.404345 0.343506,-2.759118 0.933862,-3.992379 L 8.443165,26.347455 c -0.604071,1.254419 -0.95147,2.654608 -0.973536,4.132707 l -2.245939,0 C 5.245781,28.646065 5.674359,26.878769 6.462013,25.276966 L 6.201101,25.136169 c -0.818773,1.658403 -1.281019,3.522878 -1.281019,5.494055 0,1.205754 0.172196,2.384228 0.501148,3.509956 L 5.715369,34.06619 C 5.406087,33.011267 5.237307,31.908511 5.223705,30.780365 l 2.245562,0 c 0.01384,0.940664 0.158767,1.85979 0.424802,2.737279 l 0.291192,-0.0734 C 7.924817,32.590557 7.783257,31.695914 7.769179,30.780339 l 2.033368,0 c 0.01467,0.745752 0.137677,1.473414 0.359119,2.165914 l 0.291668,-0.07358 c -0.215911,-0.668515 -0.336026,-1.3717 -0.350633,-2.092311 l 2.245487,0 c 0.01567,0.533317 0.114288,1.052277 0.288954,1.542483 l 0.291842,-0.0737 C 12.759735,31.782985 12.663946,31.288608 12.6481,30.780417 l 2.037222,0 c 0.03364,0.61326 0.271227,1.18724 0.68118,1.644725 l -1.440391,1.440467 c -0.444359,-0.47293 -0.780762,-1.021595 -0.997188,-1.616462 l -0.291841,0.0737 c 0.230518,0.646366 0.593816,1.242857 1.076836,1.754827 l -1.587672,1.587823 C 11.353947,34.861459 10.788702,33.908554 10.453939,32.87328 l -0.291668,0.07358 c 0.347633,1.087113 0.940361,2.087173 1.752484,2.931261 l -1.437972,1.438045 C 9.401458,36.20729 8.624776,34.884482 8.185956,33.444695 l -0.291192,0.0734 c 0.452196,1.491474 1.255704,2.862267 2.369795,4.010137 L 8.676812,39.116059 C 7.27156,37.676197 6.267873,35.948045 5.716079,34.066718 l -0.294138,0.07399 c 0.578793,1.980698 1.646614,3.796282 3.146477,5.295842 1.015702,1.015928 2.176644,1.833644 3.43522,2.436218 L 12.15268,41.608434 C 10.96151,41.040773 9.859661,40.275804 8.888998,39.328037 l 1.587671,-1.587596 c 0.825197,0.800939 1.766162,1.439635 2.783602,1.904904 l 0.148158,-0.262801 c -0.994241,-0.451198 -1.913745,-1.073209 -2.71937,-1.854199 l 1.437822,-1.437897 c 0.67388,0.648308 1.447645,1.15656 2.285537,1.512558 l 0.148044,-0.262332 c -0.813861,-0.341565 -1.566513,-0.832753 -2.220927,-1.461475 l 1.587899,-1.587823 c 0.510224,0.481357 1.104191,0.843862 1.748101,1.074494 l 0.150047,-0.265748 c -0.621504,-0.215201 -1.194721,-0.559358 -1.68591,-1.020841 l 1.440391,-1.440542 c 0.457501,0.410316 1.031194,0.64784 1.644726,0.681482 l 0,2.037223 c -0.483186,-0.01496 -0.953661,-0.10321 -1.399207,-0.257201 l -0.150047,0.265748 c 0.492201,0.176555 1.013209,0.275587 1.549284,0.291373 l 0,2.245335 c -0.929177,-0.01856 -1.829488,-0.210962 -2.663677,-0.560892 l -0.148044,0.262333 c 0.879681,0.373907 1.829866,0.579738 2.811713,0.598705 l 0,2.033445 c -1.337997,-0.02062 -2.6302,-0.314701 -3.815702,-0.852628 l -0.148157,0.262801 c 1.230615,0.562305 2.573524,0.869101 3.96389,0.889882 l 0,2.24526 c -1.783543,-0.02144 -3.504818,-0.425747 -5.071407,-1.172051 l -0.149041,0.264335 c 1.655607,0.792476 3.480636,1.211422 5.370502,1.211422 1.982436,0 3.892479,-0.463214 5.611562,-1.33301 l -0.141976,-0.275345 c -1.603163,0.811896 -3.40794,1.28117 -5.319721,1.304672 l 0,-2.245336 c 1.515808,-0.02239 2.974939,-0.385749 4.293289,-1.048876 l -0.140148,-0.271695 c -1.253134,0.631109 -2.661636,0.997188 -4.153111,1.020387 l 0,-2.033444 c 1.13729,-0.02191 2.231885,-0.294789 3.223481,-0.789378 l -0.139324,-0.270402 c -0.93288,0.465276 -1.977978,0.737092 -3.084134,0.759679 l 0,-2.245335 c 0.724307,-0.02121 1.421575,-0.195524 2.05619,-0.506159 l -0.138379,-0.268808 c -0.582859,0.284481 -1.231825,0.4532 -1.917902,0.474881 l 0,-2.036921 c 0.613434,-0.03364 1.187241,-0.271166 1.645028,-0.681482 l 1.43888,1.439031 c -0.344512,0.323361 -0.737266,0.595177 -1.166006,0.804566 l 0.138379,0.268809 c 0.449543,-0.220151 0.868119,-0.507753 1.241271,-0.859731 l 1.585254,1.58533 c -0.529252,0.508455 -1.135703,0.935751 -1.798656,1.266208 l 0.139323,0.270402 c 0.679948,-0.338972 1.312002,-0.781291 1.873997,-1.321825 l 1.434724,1.434572 c -0.698916,0.677825 -1.501148,1.248223 -2.379015,1.689764 l 0.140148,0.271695 c 0.891469,-0.448251 1.719008,-1.032251 2.454128,-1.746061 l 1.583818,1.583818 c -0.88361,0.862451 -1.899539,1.588729 -3.011438,2.151631 l 0.141976,0.275345 c 1.165174,-0.589577 2.243824,-1.364143 3.194236,-2.31463 0.999152,-0.998926 1.805381,-2.138937 2.404933,-3.373709 z"
                 id="path51-7" />
              <path
                 style="display:inline;opacity:0.9;fill:#ffffff;enable-background:new"
                 d="m 16.984405,28.569983 -0.138122,0 -0.02516,-0.280415 0.07536,-0.05119 0,-0.140177 -0.439697,0 -0.01255,-0.140117 0.06299,-0.03827 -0.100641,-0.03827 -0.07542,0.101903 -0.02492,0.114764 -0.125684,0.0256 0,0.06363 -0.08786,0 0,0.165712 -0.351842,0.293217 -0.703381,-0.02536 c -0.05044,0.114644 -0.176125,-0.01292 -0.176125,-0.01292 -0.02492,-0.07643 -0.200692,0 -0.200692,0 0,0.140419 -0.238703,-0.06363 -0.238703,-0.06363 l -0.439757,-0.318812 c -0.251194,-0.22946 -0.628018,0.06387 -0.64051,0.127498 0.01249,0.178513 -0.288909,0.03827 -0.288909,0.03827 0,0 -0.251194,-0.07643 -0.28897,0.0256 -0.03759,0.101903 -0.201168,0.07655 -0.201168,0.07655 l -0.02516,0.05095 -0.125684,0.02548 -0.02492,0.07643 -0.150848,0.0256 0.376764,-0.0128 c 0.100588,-0.01274 -0.03777,0.216788 -0.100406,0.204047 l -0.17571,0.01274 -0.06299,0.06363 -0.163279,0 -0.07531,0.102205 -0.238529,-0.0128 c 0,0 -0.138356,0.114704 -0.125623,0.152918 0.01255,0.03827 -0.02516,0.153039 -0.06293,0.153039 -0.03771,0 -0.11308,0.114704 -0.08792,0.152919 0.02528,0.03827 -0.07531,0.165772 -0.07531,0.165772 l -0.02504,0.127618 -0.07531,0.02536 0,0.344285 -0.150848,0.102024 0,0.152918 -0.226272,0.242262 0.02528,0.203866 -0.188321,0.204047 0.02492,0.203987 -0.113019,0.03827 -0.02498,0.08922 -0.0502,0.267614 0.12557,0.01292 c 0.06264,-0.0256 0.0502,0.165712 0,0.191065 -0.05044,0.0256 -0.188616,0.07649 -0.113079,0.127437 0.07542,0.05119 -0.201055,0.03833 -0.201055,-0.03821 0,-0.07631 -0.150787,-0.140177 -0.188321,-0.114583 -0.03777,0.02536 -0.100641,-0.114764 -0.100641,-0.114764 -0.138122,-0.140177 -0.565259,0.01268 -0.565259,0.01268 l -0.06299,0.203987 c -0.138002,0.0256 -0.225917,0.255055 -0.225917,0.255055 -0.113079,0.03827 -0.200994,0.178392 -0.163278,0.216667 0.03759,0.03827 -0.06299,0.05095 -0.06299,0.05095 l 0,0.280597 -0.06269,0.08922 0.01243,0.305889 c 0.07548,0 0.06299,0.140359 0.06299,0.140359 -0.125684,0.01268 -0.100702,0.178513 -0.100702,0.178513 l -0.263685,0.08917 -0.0502,0.07643 -0.326557,-0.0128 -0.08792,0.08934 -0.08815,-0.08934 -0.628071,0 -0.02492,-0.06369 -0.125684,-0.02566 -0.01267,-0.140117 -0.188321,0.01268 -0.03765,0.07649 -0.201108,0.01268 c 0.01255,0.127558 -0.200994,0.318872 -0.225917,0.267977 -0.02546,-0.05107 -0.163512,-0.191488 -0.100587,-0.216727 0.06287,-0.02566 0.226271,-0.05125 0.226271,-0.05125 l 0,-0.08916 -0.464974,-0.01268 -0.05008,0.07655 -0.188677,0.01262 0,0.204047 -0.08779,0.02554 c -0.06293,0.03809 0.01243,0.178513 0.01243,0.178513 0.08791,0.08911 -0.01243,0.229279 -0.01243,0.229279 -0.07548,0.07655 0.06264,0.216969 0.06264,0.216969 0.100641,0.0253 -0.06264,0.101843 -0.06264,0.101843 0.02492,0.127437 0.100407,0.165712 0.100407,0.165712 -0.07548,0.127436 0.05044,0.191072 0.05044,0.191072 l 0.01243,0.216961 0.08791,0.05107 0,0.139936 0.0502,0.08934 0.200994,0 -0.01255,-0.318691 c -0.175951,-0.204047 0.150614,-0.255055 0.1634,-0.178694 0.01267,0.07655 0.150787,0.114825 0.150787,0.114825 0.02516,0.191306 0.238763,0.305889 0.301401,0.114877 0.06287,-0.191488 0.113079,-0.07655 0.150787,0.01256 0.03771,0.08934 0.276116,0.306131 0.276116,0.306131 l 0.188556,0 0.02528,0.178513 c 0.213485,-0.0128 0.276123,0.01298 0.364038,0.30589 0.08815,0.293096 0.326678,0.369638 0.326678,0.369638 l 0.175951,-0.01274 c 0,-0.152737 0.175891,0.02578 0.175891,0.102326 0,0.07619 0.339109,0.369457 0.339109,0.369457 l 0.339049,0.07637 0.314421,0.255297 0.238468,-0.02554 0.100641,0 c 0.06264,-0.216962 0.364273,0.01256 0.389195,0.08911 0.02534,0.07655 0.226271,0.204047 0.251193,0.140178 0.02528,-0.06363 0.1634,-0.0253 0.188617,0.165712 0.02504,0.191487 0.112837,0.153152 0.112837,0.153152 l 0.716168,-0.01274 0.251194,-0.216969 0.640743,-0.01256 c 0.326558,-0.01274 0.125571,-0.459042 0.06293,-0.459042 -0.113079,-0.08911 0.03754,-0.458868 0.03754,-0.458868 l -0.917011,-0.854139 c -0.213486,0 -0.02516,-0.306131 -0.02516,-0.306131 0.163278,-0.102084 -0.03777,-0.267554 -0.03777,-0.267554 0.02528,-0.153213 -0.08792,-0.331665 -0.08792,-0.331665 -0.225917,-0.152979 -0.163279,-0.446309 -0.163279,-0.446309 l 0,-0.204047 c -0.188321,-0.178272 0.07542,-0.204048 0.07542,-0.204048 0.08779,-0.152676 -0.06293,-0.267493 -0.06293,-0.267493 l -0.01249,-0.165773 -0.201055,-0.0256 -0.02492,-0.599219 -0.452188,-0.650054 c -0.08815,-0.02572 -0.02528,-0.178513 -0.02528,-0.178513 0.11308,-0.06381 -0.02528,-0.216607 -0.02528,-0.216607 l -0.01249,-0.280536 0.263685,-0.02566 0.06293,-0.101842 0.125571,0 -0.01249,-0.331545 c 0.06269,-0.165712 0.213425,-0.07655 0.213425,-0.07655 l 0.17589,0.0128 0.100588,-0.191246 0.02492,-0.153039 -0.138002,-0.01262 c -0.150787,-0.08934 -0.07542,-0.420715 -0.07542,-0.420715 0.238702,-0.357086 0.514878,-0.153092 0.514878,-0.153092 l 0.176065,-0.01262 c 0.263685,0.178392 0.02492,0.509876 0.02492,0.509876 -0.0502,0.07655 -0.02492,0.318751 -0.02492,0.318751 l 0.0627,0.407792 -0.163278,0.14042 c -0.138123,0.07655 -0.138123,0.254934 0.01267,0.293209 0.100407,0.01262 0.0627,0.254942 -0.0881,0.08917 -0.225916,0 0.125865,0.203986 0.02528,0.152797 0.226211,0.114825 0.175709,-0.101903 0.175709,-0.101903 l 0.301756,-0.242261 c 0.113079,-0.08917 0.314126,0.191367 0.314126,0.229642 0,0.03821 0.502388,0.01262 0.502388,0.01262 0.138122,0.08922 0.188321,0.318812 0.188321,0.318812 0.138357,-0.178634 0.427145,-0.01292 0.21366,0.08917 0.200812,0.127498 0.200812,0.242201 0.200812,0.242201 0.163513,-0.05095 0.163513,0.07649 0.163513,0.114765 0,0.03827 0.0502,-0.191186 0.0502,-0.191186 -0.188443,-0.140298 0.251193,-0.191246 0.125683,0.06375 l -0.07548,0.114825 0.125683,0.101903 0.01243,0.29333 c 0.276471,-0.02559 0.201054,-0.36988 0.201054,-0.36988 l 0.125624,-0.02536 c 0,-0.114825 0.08779,-0.05107 0.08779,-0.05107 -0.08779,-0.433569 0.201108,-0.509877 0.201108,-0.509877 0.163278,-0.03827 0.175769,-0.382681 0.175769,-0.382681 -0.112837,-0.05095 -0.05026,-0.229339 0.07542,-0.07625 0.12551,0.152737 -0.07542,-0.306192 -0.07542,-0.306192 l -0.100406,-0.08917 -0.138122,-0.01274 -0.01267,-0.140238 -0.225916,0 -0.03777,0.178573 -0.08792,0.02548 -0.02528,-0.05107 -0.03759,0.140238 -0.226037,0 -0.01249,-0.152979 0.138123,-0.03821 0.05026,-0.07649 0.03759,-0.204047 0.163399,0 0.213486,-0.06363 c 0.01243,-0.216788 0.125623,-0.165712 0.125623,-0.165712 l 0.07531,0.06369 0.113079,0.08922 0.01261,0.07637 -0.07548,0.03821 -0.01243,0.102145 0.03771,0.140178 0.100406,0 c 0.03765,-0.203987 0.301635,-0.203987 0.376938,-0.07649 l 0.07542,-0.178452 c -0.17583,-0.08922 -0.0033,-0.229582 0.04695,-0.165773 0.0502,0.06381 0.166536,-0.165711 0.166536,-0.165711 0,0 0.08791,0.114764 0,-0.03827 -0.08792,-0.153038 0.06269,-0.22946 0.06269,-0.22946 -0.02498,-0.152918 0.1634,-0.127498 0.1634,-0.127498 l 0.01267,-0.203865 -0.176064,-0.01292 c -0.03742,0.178513 -0.188262,0.0256 -0.112898,-0.01262 0.07548,-0.03833 0.150613,-0.114825 0.150613,-0.114825 l 0,-0.127497 0.07542,-0.02548 0.01249,-0.127498 0.188555,0 0.163279,-0.07643 0.03777,-0.06381 0.175709,-0.01268 0.251194,-0.229581 -0.02492,-0.101903 c -0.150787,0 0,-0.114764 0,-0.114764 l 0.02481,-0.190831 z"
                 id="path81-8"
                 inkscape:connector-curvature="0" />
              <path
                 style="display:inline;opacity:0.9;fill:#ffffff;enable-background:new"
                 d="m 16.770549,30.94129 0,-0.178513 -0.02528,-0.165773 -0.188209,-0.08916 -0.138122,0.127498 -0.02528,0.178513 0,0.114643 -0.125571,0.0256 -0.02528,0.344165 -0.100346,0.03833 0.01255,0.127498 -0.138122,0.03821 -0.138122,0.03827 -0.02516,0.165712 -0.100346,0.06369 -0.05056,0.153032 -0.0627,0.369699 c 0,0 0.113193,0.216727 0.175891,0.114703 0.06287,-0.101902 0.163279,-0.114703 0.163279,-0.114703 l 0.03771,-0.08928 0.339169,0.01274 c 0.02516,-0.140359 0.188442,-0.08916 0.188442,-0.02548 0,0.06375 0.125684,0.01268 0.125684,0.01268 l 0.08786,-0.140177 0.138062,0 0.01255,-0.152919 0.06293,-0.03827 0,-0.229581 c 0.201055,-0.06369 0.17571,-0.254935 0.17571,-0.254935 l 0.05056,-0.06363 -0.02522,-0.08916 c -0.10064,-0.03839 -0.0505,-0.127739 0.01243,-0.102205 0.06299,0.02548 -0.08792,-0.114764 -0.08792,-0.114764 -0.07531,0.06387 -0.138001,-0.07643 -0.138001,-0.07643 l -0.188616,0 z"
                 id="path99-7"
                 inkscape:connector-curvature="0" />
              <path
                 style="display:inline;opacity:0.9;fill:#ffffff;enable-background:new"
                 d="m 21.65674,21.812743 c -0.03671,0.111576 -0.0502,0.267796 -0.113079,0.267796 -0.0627,0 -0.03771,0.165893 -0.03771,0.165893 0,0 0.163573,0 0.21378,0.01262 0.05009,0.01262 0.05009,0.140118 0.05009,0.140118 0.188555,-0.01262 0.263979,0.242322 0.238702,0.30607 -0.02516,0.06369 0.07542,0.06369 0.07542,0.06369 0,0 0,0.204048 -0.02528,0.254942 -0.02492,0.05107 0.1634,0.08934 0.213599,0.165772 0.0502,0.07655 -0.02528,0.331485 -0.06281,0.344225 -0.03765,0.0128 0.100346,0.05095 0.08791,0.114704 -0.01273,0.06387 0.03771,0 0.0502,0.102084 0.01249,0.101903 0.03777,0.31863 0.03777,0.31863 l 0.17571,0.01286 c 0.02528,-0.165712 0.349114,-0.172082 0.402041,-0.153039 0.213546,0.07649 0.377059,0.407974 0.377059,0.484402 0,0.07643 -0.138356,0.08934 -0.138356,0.08934 l 0.02528,0.369578 c 0.213426,0.06381 0.389316,0.36988 0.364273,0.420835 -0.02516,0.05095 0.150553,0.03833 0.150553,0.03833 0.02528,-0.229642 0.238763,-0.153092 0.251194,-0.07655 0.01285,0.07655 0.05026,0.242262 0.05026,0.242262 l 0.06287,0.114583 0.08791,0.08928 0.138122,-0.01274 0.03777,0.07655 0.163279,0.0256 c 0,0 0.138356,0.152797 0.150787,0.191185 0.01273,0.03815 0.201055,0.02548 0.251194,0.03815 0.0502,0.0128 0.125683,0.05107 0.138122,0.114765 0.01273,0.06381 0.08815,0.165772 0.08815,0.165772 0,0 0.150614,0.03833 0.163279,0.08922 0.01249,0.05089 0.07542,0.165712 0.07542,0.165712 l 0.125328,0.102024 0.01267,0.114817 0.138122,0.01274 0.03777,0.152797 0.225916,-0.01262 0.125865,-0.08922 c 0.163279,-0.08916 0.276358,-0.203987 0.28897,-0.255055 0.01243,-0.05095 0.03759,-0.24208 0.163279,-0.203866 0.12551,0.03827 0.03771,-0.280537 0.03771,-0.280537 0,0 -0.175831,-0.127497 -0.1634,-0.191367 0.01261,-0.06363 -0.175709,-0.191072 -0.163278,-0.24214 0.01249,-0.05107 -0.163279,-0.152919 -0.150787,-0.203927 0.01243,-0.05107 -0.08792,-0.191367 -0.08792,-0.191367 l -0.188556,-0.178392 -0.02516,-0.114824 -0.150614,-0.01262 -0.301401,-0.369759 0.01249,-0.102084 -0.08792,-0.01268 0,-0.140178 -0.08779,-0.05107 -0.138356,-0.01274 -0.276237,-0.305889 -0.02516,-0.140299 -0.138122,0 0.02504,-0.267796 c 0.08804,-0.114764 0.03765,-0.331484 0.03765,-0.331484 0,0 -0.176011,0.08922 -0.263685,0.05095 -0.0881,-0.03809 0.03754,-0.127497 0.03754,-0.127497 l 0,-0.101903 -0.07525,-0.07649 c 0,0 -0.21372,0.0256 -0.22615,-0.01262 -0.01261,-0.03827 -0.0502,-0.204047 -0.0502,-0.204047 l -0.01261,-0.216788 -0.08779,-0.03809 -0.01279,-0.07661 -0.138002,0.01268 0,-0.152918 -0.07548,-0.02548 -0.07531,-0.03827 -0.01255,-0.15304 -0.276357,-0.01262 -0.08792,-0.127497 -0.100406,-0.153032 -0.314066,-0.02548 -0.07542,-0.07637 -0.12557,-0.0256 -0.08791,-0.03827 -0.03771,0.06387 -0.238763,0.01262 -0.01243,0.07649 c -0.125571,0.06375 -0.628019,0.01268 -0.640805,0.05089 z"
                 id="path189-8"
                 inkscape:connector-curvature="0" />
              <path
                 style="display:inline;opacity:0.9;fill:#ffffff;enable-background:new"
                 d="m 24.332583,28.952355 c -0.0502,0.05107 -0.163279,0.07655 -0.163279,0.07655 l -0.03777,0.140239 -0.06264,0.05095 c 0,0 0.01243,0.03821 0,0.127497 -0.01261,0.08917 -0.125684,0.140238 -0.125684,0.140238 l -0.0502,0.06375 c 0,0 -0.302821,0.0164 -0.339169,0 -0.113079,-0.05095 -0.03759,-0.203987 0.03777,-0.191246 0.07525,0.0128 -0.01273,-0.216788 -0.01273,-0.216788 l 0.100641,-0.01268 c 0,0 0.01243,-0.229582 0.0502,-0.229582 0.03771,0 -0.01249,-0.07643 -0.06293,-0.114703 -0.0502,-0.03809 -0.112958,-0.165591 -0.163399,-0.152919 -0.0502,0.01268 -0.251194,0 -0.251194,0 l -0.03771,0.07655 -0.138235,0.02542 c 0,0 0.0119,0.0986 -0.01225,0.127558 -0.07566,0.08917 -0.364386,0.280415 -0.238944,-0.03827 l 0.03759,-0.07637 0,-0.114825 -0.225856,-0.01262 c 0,0 -0.113079,-0.03833 -0.113079,-0.08934 0,-0.05101 -0.01261,-0.114643 -0.01261,-0.114643 l -0.263866,-0.293209 -0.313892,-0.03821 -0.02528,-0.06387 -0.188209,-0.02548 c -0.226271,-0.114643 -0.427318,-0.01274 -0.38955,0.178513 0.03765,0.191367 0.100346,0.267796 -0.02504,0.267796 -0.125805,0 -0.150848,-0.101963 -0.150848,-0.101963 0,0 -0.100346,-0.03833 -0.100346,0.01262 0,0.05107 -0.03777,0.153039 0,0.203986 0.03753,0.05095 -0.05044,0.127498 -0.08815,0.08922 -0.03742,-0.03827 -0.138001,-0.152798 -0.112837,-0.191065 0.02504,-0.03827 -0.176065,-0.280597 0.02504,-0.318812 0.201054,-0.03827 -0.01255,-0.153039 0.06293,-0.178392 l 0.100346,-0.05107 0.100407,0 0.06287,-0.05107 -0.163279,-0.02535 -0.100346,-0.0128 -0.188556,-0.01274 c -0.188321,0.127498 -0.225916,0.280537 -0.225916,0.280537 -0.100701,0.191185 -0.339169,-0.07655 -0.251194,-0.178513 0.08779,-0.102024 -0.276471,-0.0128 -0.339343,0.03821 -0.06293,0.05095 -0.251315,0.02548 -0.251315,0.02548 -0.03759,0.114824 -0.213425,-0.01262 -0.163278,-0.08916 0.05026,-0.07649 0.05026,-0.127498 0.05026,-0.127498 l -0.0627,-0.0128 -0.07531,0.140238 c -0.175891,0 -0.226271,0.101903 -0.188616,0.165712 0.03765,0.06363 -0.0502,-0.01274 -0.07542,0.07649 -0.02493,0.08922 0.01273,0.08922 0.08815,0.127497 0.07542,0.03827 -0.03777,0.03827 0.01249,0.101903 0.0502,0.06387 0.200995,0 0.113132,0.08934 -0.08792,0.08917 -0.263979,0.05107 -0.263979,0.05107 -0.01249,0.114522 -0.251194,0.08917 -0.276116,0.05095 -0.02528,-0.03827 -0.213546,-0.267796 -0.213546,-0.267796 l -0.238982,-0.01273 c -0.02492,-0.178392 0.113192,-0.08922 0.163399,-0.229461 0.0505,-0.140298 0.0756,-0.369638 0.0756,-0.369638 0,0 -0.201229,-0.01274 -0.21372,0.05095 -0.01243,0.06381 -0.138122,0.102024 -0.138122,0.102024 0,0 -0.100588,0.03815 -0.06287,0.08922 0.03771,0.05107 -0.07542,0.07637 -0.07542,0.07637 0,0 0.0196,0.08238 -0.01249,0.114764 -0.100346,0.102145 -0.351782,0.01268 -0.389316,-0.02548 l -0.150848,-0.06375 -0.150787,-0.101963 -0.17577,0.07637 -0.0502,0.05107 -0.188556,0 -0.01243,0.152798 0.33917,0.03821 0.02516,0.315562 -0.138357,-0.04765 -0.08791,0 -0.03759,-0.07655 -0.07542,-0.0128 0,0.280416 0.07542,0.06387 0.06293,0.06357 0.125623,0.0128 0.02516,0.152918 0.313892,0.01292 0.03771,0.06363 0.188556,0.0128 0.364273,0.369578 -0.02516,0.114824 -0.06293,0.03827 c 0.02528,0.08922 -0.163105,0.03827 -0.163105,0.03827 l 0,0.07637 0.08768,0.01274 0.08815,0.05095 0.12551,-0.216667 c 0.138123,-0.08922 0.200813,0.03828 0.213599,0.114765 0.01243,0.07649 -0.06299,0.06369 -0.06299,0.06369 l 0,0.178634 0.07542,0.02536 c 0.125804,0.153032 -0.0502,0.242323 -0.0502,0.242323 l -0.03777,0.127436 c -0.03771,0.114765 -0.175831,0.08917 -0.175831,0.08917 l -0.05009,0.07655 -0.150969,0.03827 0.298265,0.03821 c 0.02836,-0.102024 0.103542,-0.127497 0.141258,-0.07649 0.03777,0.05107 0.03777,0.140298 0.03777,0.140298 l 0.07566,0.01274 -0.01279,0.140178 0.07542,0.0256 0,0.407913 0.08791,0.101963 c 0.150787,-0.06357 0.150787,0.03833 0.07531,0.08922 -0.07531,0.05089 -0.02516,0.280537 -0.02516,0.280537 l -0.06281,0.06363 0,0.102084 -0.07531,0.05095 0,0.140178 c -0.125684,-0.06369 -0.276471,-0.03833 -0.314247,0 -0.112838,-0.07655 -0.35154,-0.05095 -0.35154,0.01286 0.07525,0.101963 -0.08779,0.127498 -0.08779,0.127498 l -0.08815,0.101963 c 0.06293,0.127558 -0.06264,0.140177 -0.06264,0.140177 l 0,0.242322 -0.150848,0.140238 0.01273,0.331485 c 0,0.08922 0.188322,0.101902 0.225856,0.05095 0.03777,-0.05095 0.188617,0.102084 0.188617,0.102084 l 0.112837,0 0.02528,-0.229582 -0.07548,-0.03827 0,-0.369759 0.125684,-0.140298 c 0.150787,-0.05095 0.100588,0.331665 0.100588,0.36988 0.01249,0.140177 0.07513,0.127497 0.138122,0.101902 0.12557,-0.05095 0.02492,0.14042 -0.07542,0.127498 -0.100407,-0.01262 -0.03777,0.127497 -0.03777,0.127497 l 0.06299,0.0256 -0.113193,0.08922 -0.100233,0.114824 -0.125925,-0.03833 -0.150553,-0.01262 -0.05026,-0.08946 -0.0881,-0.01268 -0.01249,0.178392 -0.06269,0.07649 -0.150788,0.153213 c 0.201055,0 -0.02528,0.139936 -0.07542,0.139936 0.113019,0.03827 -0.01249,0.153153 -0.3014,0.06399 l 0,0.08911 -0.100641,0.0128 0.08815,0.101842 0.100346,0.0128 -0.03771,0.216727 c 0,0.165712 -0.414472,0.05083 -0.452248,0.01274 l -0.01249,0.229521 -0.07542,0.01256 0.01249,0.153153 -0.01249,0.216788 0.138122,-0.02554 0,0.08928 0.339351,0.0128 0.489896,-0.522859 0.288849,-0.06363 c 0.02504,-0.127679 0.150553,0.02554 0.150553,0.02554 0.125684,-0.01304 0.150848,0.07637 0.150848,0.07637 l 0.163399,0.02554 c 0.138001,0.03833 0.05459,0.05173 0.0627,0.102144 0.01243,0.07637 0.07531,0.05083 0.07531,0.05083 l 0.02528,-0.165712 0.07542,0.01274 -0.07542,-0.08928 -0.138356,-0.06387 -0.150614,-0.06363 c -0.100588,-0.140178 0.0251,-0.114644 0.125684,-0.101842 l 0.163279,0 c 0,0 0.188555,0.25482 0.188555,0.31863 0,0.06387 0.08792,0.07661 0.08792,0.07661 l 0.112837,-0.0128 0.03777,0.08911 0.113018,0 0.03777,0.07637 0.226151,0 0.01255,-0.114643 -0.21378,-0.03803 -0.01243,-0.127679 -0.150613,-0.03827 c -0.05044,-0.216546 0.03753,-0.280416 0.100346,-0.178271 l 0.07536,0.0125 -0.02516,-0.191246 0.08785,-0.02554 -0.02504,-0.267795 -0.07531,-0.0253 0,-0.08934 0.313892,0.01298 c -0.02492,-0.165954 0.01267,-0.242383 0.01267,-0.242383 l 0.08791,0 0.01249,0.06393 0.384343,0.03623 0.271741,-0.311716 c -0.01368,-0.02379 0.02729,-0.03833 -0.0025,-0.06892 -0.03777,-0.03821 -0.08815,0 -0.151203,-0.03821 -0.06264,-0.03803 0,-0.254942 -0.01243,-0.30589 -0.01249,-0.05095 0.21378,-0.127678 0.176065,-0.01274 -0.03771,0.114825 0,0.165772 0,0.165772 0.163278,-0.153039 0.301461,0.01262 0.28897,0.05095 -0.01285,0.03821 0.08779,0.07649 0.150492,0.03821 0.06293,-0.03821 0.138296,0.114825 0.11314,0.191125 -0.02528,0.07649 -0.251134,0.06387 -0.263625,-0.01268 -0.01285,-0.07655 -0.05056,-0.05095 -0.07542,-0.01268 -0.02528,0.03827 -0.138122,0.06363 -0.201054,0.02535 -0.01273,-0.0078 -0.01883,-0.01418 -0.02238,-0.02031 l -0.27174,0.311715 0.01764,0.0018 c 0.150613,0.08934 0.07542,0.204047 0.02528,0.229521 -0.05044,0.02554 -0.138356,0.02554 -0.138356,0.02554 l -0.02492,0.05107 -0.326678,0.02536 -0.02528,0.127618 c -0.163279,-0.02578 -0.225917,0.152919 -0.188262,0.24202 0.03777,0.08911 0,0.165712 0,0.165712 l 0.138176,0.06387 0.175709,-0.05083 c 0.02528,-0.127678 0.138122,-0.153213 0.238763,-0.229521 0.100346,-0.07655 0.263866,0.139936 0.213425,0.242081 -0.0502,0.101842 -0.0502,0.140177 -0.0502,0.140177 l 0.01243,0.114817 -0.12551,0.05089 -0.100406,0.05107 -0.01279,0.06381 -0.339048,0 -0.0627,0.06363 -0.1634,0.01304 -0.05044,0.07637 -0.112837,0.0128 c 0,0 -0.188556,0.08928 -0.113079,0.191246 0.07536,0.102084 -0.313952,0.08928 -0.402102,-0.05107 -0.02516,0.127377 -0.163278,0.01274 -0.163278,0.01274 l -0.138123,-0.03833 -0.01249,-0.191012 c -0.02516,-0.127618 -0.263866,-0.127618 -0.251194,-0.03827 0.01249,0.08928 -0.452422,0.03827 -0.452422,0.03827 l -0.150613,0.07318 -0.138357,0.07979 -0.01243,0.06363 -0.226272,0.02554 -0.100346,0.05107 -0.03765,-0.07655 -0.100406,0 -0.100588,0.140358 c -0.263745,0.0128 -0.514939,0.165773 -0.489896,0.229521 0.02516,0.06363 -0.100346,0.127679 -0.100346,0.127679 l -0.113193,0.03779 -0.07519,0.114885 -0.150787,0.05107 -0.02528,0.267856 -0.07519,0.05083 0,0.114878 -0.0881,0.02529 0,0.06387 -0.12557,0.01274 0.07519,0.191307 0.100822,0.05107 c 0.175831,0.0253 0.100346,0.242262 0.100346,0.242262 l 0.100407,0.01256 0.05044,0.140177 0.100346,0.203987 c 0.03777,0.153213 0.150847,0.114885 0.201054,0.102145 0.0502,-0.01256 0.100346,0.152918 0.100346,0.152918 l 0.502388,0.0128 c 0,0 -0.02492,0.05107 0.06299,0.07655 0.08779,0.0253 0.665674,0.05107 0.690951,0.0128 -0.02528,-0.114878 0.313832,-0.140419 0.452188,-0.03833 0.138001,0.101842 0.326557,0.03833 0.326557,0.03833 l 0.188382,0.229226 0.125865,0.280597 0.213426,0.06363 0.150613,0.03833 0.05044,0.216728 0.112837,0.0128 0.03777,0.140359 c 0.138296,0.101903 -0.03777,0.31869 -0.03777,0.31869 l 0,0.280356 0.100588,0.05107 -0.01267,0.102145 0.163513,0.16547 0.188321,0.01298 0.477466,0.509876 0.376703,0.114643 0.0627,0.204047 0.100701,-0.0128 0.07531,-0.06363 0.301401,-0.01274 0.150848,-0.140419 0.163278,-0.0253 1.394371,-1.185728 -0.125805,-0.07655 0,-0.280355 c 0.226151,-0.165712 0.238702,-0.459103 0.02516,-0.484584 -0.161979,-0.01935 -0.08779,-0.191246 0.06299,-0.216727 l 0.08779,-0.03809 0,-0.114878 0.288909,-0.267554 0,-0.204047 -0.627897,-0.522859 c -0.276471,-0.101842 0,-0.713923 0.188208,-0.701129 0.188556,0.01256 -0.01243,-0.943384 -0.01243,-0.943384 l -0.100641,-0.05089 0.02528,-0.306131 -0.138123,0 -0.226211,0.29339 -0.06269,0.203806 c -0.02516,0.268037 -0.804038,0.216727 -0.841821,0.178452 -0.03771,-0.03827 -0.301401,-0.152918 -0.301401,-0.152918 0,0 -0.200994,-0.165712 -0.238703,-0.114644 -0.03771,0.05107 -0.213425,-0.06387 -0.213425,-0.02553 0,0.03827 -0.163278,-0.08911 -0.163278,-0.08911 l -0.251194,-0.08934 0.188556,-0.03833 -0.03777,-0.152918 0.326323,0.165712 c 0.03777,0.05083 0.201055,0.03833 0.201055,0.03833 l 0.0502,0.06381 c 0,0 0.100641,-0.01298 0.163634,0.06363 0.0627,0.07655 0.389195,0.0128 0.389195,0.0128 l 0.08791,0.07637 0.138122,0.05107 0.38955,0.0128 0.01249,-0.24208 0.07542,-0.07655 -0.01261,-0.153153 0.08791,-0.07637 0,-0.127377 0.07542,-0.02553 0.01249,-0.280355 0.06269,-0.0128 0,-0.61202 -0.188382,-0.178574 c -0.01243,0.06387 -0.213425,0.06387 -0.213425,0.06387 0,0 -0.0502,0.08911 -0.08792,0.08911 -0.03759,0 0.05026,0.114643 0.02504,0.191246 -0.02504,0.07637 -0.125624,0.07637 -0.125624,0.07637 l -0.188555,0.05113 -0.0502,0.06381 -0.201055,0 -0.02492,-0.165711 0.225917,-0.06387 0.125623,-0.06357 0.06293,-0.127678 c 0.01243,-0.127316 0.163278,-0.114704 0.163278,-0.114704 0,0 0.28891,-0.242262 0.301401,-0.356784 0.01279,-0.114817 0.113193,-0.433568 0.28897,-0.433568 l 0.326678,0 c 0.12551,-0.05113 0.08786,-0.216788 0.08786,-0.216788 l 0.163339,-0.02536 0.02516,0.08922 c 0,0 0.226212,0.02548 0.251194,-0.0128 0.02528,-0.03809 0.07542,-0.127498 0.138357,-0.08923 0.06275,0.03821 0.263745,-0.08928 0.263745,-0.08928 0.01249,-0.08922 0.326557,-0.05095 0.326557,-0.05095 l 0.03777,-0.114704 c 0,0 -0.213486,-0.293217 -0.251194,-0.293217 -0.03777,0 -0.238702,-0.178634 -0.263927,-0.114817 -0.200752,-0.05095 -0.188321,-0.331484 -0.188321,-0.331484 l -0.07542,-0.178392 c 0,-0.102145 -0.188201,-0.318812 -0.226151,-0.29321 -0.188556,-0.140238 -0.0502,-0.30601 0,-0.318751 0.0502,-0.01268 0.176012,-0.191246 0.176012,-0.191246 l 0.0627,-0.178513 0.213546,-0.06357 0.02516,-0.165773 -0.112837,-0.0128 c 0,0 0.125389,-0.229521 0.188322,-0.229521 0.06293,0 0.477465,0 0.514878,-0.0256 0.03771,-0.02536 0.113019,-0.229339 0.113019,-0.267614 0,-0.03827 0.100762,-0.05107 0.138175,-0.06387 0.03771,-0.01262 0.125623,-0.114643 0.150787,-0.165712 0.02516,-0.05131 -0.06258,-0.370123 -0.112958,-0.319107 z"
                 id="path241-1"
                 inkscape:connector-curvature="0" />
              <path
                 id="path4472-8-1"
                 style="display:inline;opacity:0.9;fill:#ffffff;enable-background:new"
                 d="m 12.495,47.422595 c 0.203564,0.232588 0.46698,0.450035 0.715336,0.650462 1.604484,-1.658181 3.488167,-3.495926 5.278642,-3.495926 1.110057,0 1.909572,0.845031 2.84233,1.441228 1.294429,0.827369 3.070006,1.293315 4.591594,0.686076 0.818412,-0.310719 1.61133,-0.768443 2.2039,-1.512019 -1.197613,0.825943 -2.991028,0.936953 -4.343004,0.376064 -1.4944,-0.619977 -3.015434,-1.443222 -4.718509,-1.443222 -2.510495,0 -4.896493,1.698182 -6.570289,3.297337 z m 18.55496,-5.21523 c -1.662162,1.892083 -4.373139,1.283349 -6.592009,1.755903 -0.30885,0.06578 -0.599003,0.168342 -0.93051,0.117431 0.263809,-0.167243 0.613465,-0.186113 0.918194,-0.300912 1.721644,-0.648586 1.99006,-2.491164 2.932257,-3.759299 -1.203418,0.800056 -2.200436,1.895386 -3.325813,2.924727 -0.783236,0.716396 -1.759041,1.022917 -2.771055,1.228834 0.243179,0.08888 0.5613,0.06791 0.823198,0.132885 1.817847,0.450965 3.833334,1.162811 5.767635,0.52448 1.2483,-0.411946 2.54733,-1.387527 3.178103,-2.624049 z m 2.664369,-4.379166 c -1.036801,2.347374 -3.641692,2.53121 -5.373687,3.971255 -0.329341,0.273826 -0.655796,0.525814 -1.017583,0.694548 l -0.01867,-0.01891 c 0.399675,-0.361625 0.832188,-0.792599 1.141761,-1.2424 0.989933,-1.438348 0.660503,-3.404415 1.423768,-4.929377 -0.69345,0.830335 -1.343888,1.685352 -1.743195,2.636051 -0.642576,1.529893 -0.86085,3.275217 -2.302033,4.437764 1.559791,-0.514596 3.359127,-0.412175 4.763702,-1.332145 1.476405,-0.967017 2.844713,-2.49336 3.125937,-4.216786 z m 1.110618,-4.749112 c -0.149908,2.068112 -2.351719,3.172877 -3.401591,4.872897 -0.224232,0.363091 -0.454979,0.737928 -0.780602,1.031154 0.05075,-0.220194 0.231934,-0.415289 0.331663,-0.631322 0.336734,-0.729428 0.489136,-1.573582 0.405089,-2.441587 -0.10226,-1.05609 -0.542523,-2.036734 -0.373554,-3.147745 -0.904936,1.95327 -0.613026,4.395123 -1.136034,6.507134 -0.115701,0.467225 -0.400224,0.876068 -0.575547,1.318573 0.889123,-0.676376 2.054324,-1.276754 3.030282,-2.046029 0.943841,-0.743959 1.763099,-1.615933 2.188947,-2.750541 0.306855,-0.817568 0.386654,-1.792771 0.311347,-2.712534 z m -0.0615,-3.810523 c -0.106215,-0.461568 -0.187483,-0.939295 -0.388301,-1.362738 0.38022,1.950915 -0.917654,3.360181 -1.360778,5.048063 -0.166988,0.636067 -0.224116,1.311907 -0.481336,1.905418 -0.024,0.01287 -0.04479,-0.01208 -0.05962,-0.0313 0.640343,-1.796301 -0.298338,-3.456428 -1.212753,-4.872348 -0.240357,-0.37218 -0.35606,-0.805547 -0.468313,-1.24366 -0.09884,0.813156 0.07424,1.754476 0.224665,2.593612 0.193668,1.080328 0.562917,2.092823 0.856379,3.135115 0.193208,0.651169 0.142298,1.386037 0.04314,2.06827 l 0.09319,-0.07437 c 0.68082,-1.256833 2.024013,-2.238679 2.429663,-3.610407 0.324204,-1.096318 0.548484,-2.362906 0.324055,-3.555655 z m -0.718082,-2.098626 c 0,-1.476324 -0.574842,-2.680686 -1.437104,-3.780165 -0.02502,-0.01247 -0.04283,-0.03757 -0.07515,-0.03169 0.949257,1.44393 0.08526,3.266635 0.20725,4.904432 l 0.125198,1.680909 c -0.01859,0.01224 -0.01859,0.06268 -0.06268,0.04338 -0.05609,-0.187404 -0.07311,-0.386741 -0.105744,-0.580255 -0.22852,-1.355125 -1.418468,-2.298342 -2.427623,-3.255054 -0.238708,-0.226304 -0.413481,-0.493887 -0.526049,-0.781465 0.08394,0.675015 0.272233,1.366989 0.575234,1.980411 0.77677,1.572563 2.27701,2.841966 2.546859,4.62909 0.130845,-1.712758 1.179806,-2.986003 1.179806,-4.809591 z m -2.502146,-4.98013 c -0.477334,-0.529226 -1.012327,-0.941492 -1.649218,-1.104579 1.236756,0.850418 1.169606,2.370286 1.54826,3.641083 0.138454,0.464662 0.34194,0.899994 0.450115,1.380232 l -0.0313,0.02502 c -0.205761,-0.542915 -0.558798,-1.064795 -1.01876,-1.498762 -0.869889,-0.820726 -2.177699,-1.317477 -2.608125,-2.517991 0.01969,1.668279 1.441717,2.936435 2.74054,3.91752 0.582536,0.440028 1.077592,1.03084 1.379682,1.65016 -0.05048,-0.46096 -0.0734,-0.844404 -0.03224,-1.294336 0.133317,-1.457318 0.219771,-3.091053 -0.778954,-4.198351 z m -5.019824,-2.804786 c 0.91788,0.805391 1.530327,1.842038 2.235435,2.773956 0.586449,0.775092 1.391135,1.255349 2.083173,1.905733 -0.373553,-0.775033 -0.442525,-1.6631 -0.916938,-2.412876 -0.811235,-1.282101 -2.151969,-1.77975 -3.40167,-2.266813 z"
                 inkscape:connector-curvature="0" />
            </g>
          </g>
        </g>
      </g>
    </g>
  </g>
</svg>
