<svg xmlns="http://www.w3.org/2000/svg" viewBox="0 0 48 48"><defs><linearGradient id="0" x1="-10.767" y1="4.675" x2="-11.233" y2="-22.851" gradientUnits="userSpaceOnUse" gradientTransform="matrix(1.77384 0 0 1.71427 42.46 39.38)"><stop stop-color="#c52828"/><stop stop-color="#ff5454" offset="1"/></linearGradient></defs><g enable-background="new"><rect height="48" width="48" rx="3.085" fill="url(#0)" stroke-width="1.714"/></g><path d="m24 7c-9.389 0-17 7.611-17 17 0 9.389 7.611 17 17 17 9.389 0 17-7.611 17-17 0-9.389-7.611-17-17-17m8.825 23.01c0 .292-.235.527-.527.527h-2.22c-.292 0-.527-.235-.527-.527v-6.84c0-.056-.066-.085-.113-.047l-4.704 4.704c-.405.405-1.072.405-1.477 0l-4.704-4.704c-.038-.038-.113-.009-.113.047v6.84c0 .292-.235.527-.527.527h-2.22c-.292 0-.527-.235-.527-.527v-12.02c0-.292.235-.527.527-.527h1.524c.273 0 .546.113.743.31l5.852 5.852c.103.103.263.103.367 0l5.852-5.852c.198-.198.461-.31.743-.31h1.524c.292 0 .527.235.527.527v12.02z" fill="#fbfbfb" fill-opacity=".924"/></svg>