<?xml version="1.0" encoding="UTF-8" standalone="no"?>
<!-- Created with Inkscape (http://www.inkscape.org/) -->

<svg
   xmlns:ns2="http://ns.adobe.com/AdobeIllustrator/10.0/"
   xmlns:dc="http://purl.org/dc/elements/1.1/"
   xmlns:cc="http://creativecommons.org/ns#"
   xmlns:rdf="http://www.w3.org/1999/02/22-rdf-syntax-ns#"
   xmlns:svg="http://www.w3.org/2000/svg"
   xmlns="http://www.w3.org/2000/svg"
   xmlns:xlink="http://www.w3.org/1999/xlink"
   xmlns:sodipodi="http://sodipodi.sourceforge.net/DTD/sodipodi-0.dtd"
   xmlns:inkscape="http://www.inkscape.org/namespaces/inkscape"
   width="48"
   height="48"
   id="svg5453"
   version="1.1"
   inkscape:version="0.91 r13725"
   sodipodi:docname="multisystem.svg">
  <defs
     id="defs5455">
    <linearGradient
       gradientTransform="matrix(0.43368375,-3.1386177e-4,3.2925027e-4,0.41341493,31.937466,-92.875502)"
       inkscape:collect="always"
       xlink:href="#linearGradient4711"
       id="linearGradient4579"
       gradientUnits="userSpaceOnUse"
       x1="23.608765"
       y1="265.84839"
       x2="23.85585"
       y2="184.56615" />
    <linearGradient
       inkscape:collect="always"
       id="linearGradient4711">
      <stop
         style="stop-color:#3585df;stop-opacity:1"
         offset="0"
         id="stop4713" />
      <stop
         style="stop-color:#a0dff0;stop-opacity:1"
         offset="1"
         id="stop4715" />
    </linearGradient>
    <linearGradient
       inkscape:collect="always"
       xlink:href="#linearGradient4581-91"
       id="linearGradient4583"
       gradientUnits="userSpaceOnUse"
       x1="23.689587"
       y1="264.73993"
       x2="26.215023"
       y2="193.53131"
       gradientTransform="matrix(0.43555901,-3.1386176e-4,3.3067397e-4,0.41341492,31.892814,-92.875502)" />
    <linearGradient
       id="linearGradient4581-91"
       inkscape:collect="always">
      <stop
         id="stop4583-2"
         offset="0"
         style="stop-color:#4469b9;stop-opacity:1" />
      <stop
         id="stop4585-1"
         offset="1"
         style="stop-color:#5d91ff;stop-opacity:1" />
    </linearGradient>
    <linearGradient
       gradientTransform="matrix(0.43368375,-3.1386177e-4,3.2925027e-4,0.41341493,31.937466,-92.875502)"
       inkscape:collect="always"
       xlink:href="#linearGradient4264"
       id="linearGradient4581"
       gradientUnits="userSpaceOnUse"
       x1="22.641785"
       y1="221.25494"
       x2="24.303373"
       y2="154.70567" />
    <linearGradient
       inkscape:collect="always"
       id="linearGradient4264">
      <stop
         style="stop-color:#0a80fd;stop-opacity:1"
         offset="0"
         id="stop4266" />
      <stop
         style="stop-color:#56c5fa;stop-opacity:1"
         offset="1"
         id="stop4268" />
    </linearGradient>
    <linearGradient
       y2="147.64192"
       x2="3.4191015"
       y1="204.54808"
       x1="0.9673245"
       gradientUnits="userSpaceOnUse"
       id="linearGradient4991"
       xlink:href="#linearGradient4581-9"
       inkscape:collect="always"
       gradientTransform="matrix(0.43368375,-3.1386178e-4,3.2925027e-4,0.41341493,32.048385,-92.7647)" />
    <linearGradient
       id="linearGradient4581-9"
       inkscape:collect="always">
      <stop
         id="stop4583"
         offset="0"
         style="stop-color:#ec396c;stop-opacity:1" />
      <stop
         id="stop4585"
         offset="1"
         style="stop-color:#ff709a;stop-opacity:1" />
    </linearGradient>
    <clipPath
       id="clipPath16"
       clipPathUnits="userSpaceOnUse">
      <path
         inkscape:connector-curvature="0"
         id="path18"
         d="M 0,792 612,792 612,0 0,0 0,792 Z" />
    </clipPath>
    <clipPath
       id="clipPath24"
       clipPathUnits="userSpaceOnUse">
      <path
         inkscape:connector-curvature="0"
         id="path26"
         d="m 558.893,526.62 37.604,0 0,-14.904 -37.604,0 0,14.904 z" />
    </clipPath>
    <clipPath
       id="clipPath28"
       clipPathUnits="userSpaceOnUse">
      <path
         style="clip-rule:evenodd"
         inkscape:connector-curvature="0"
         id="path30"
         d="m 596.497,511.716 c -6.962,6.661 -20.973,17.643 -31.626,14.277 -5.954,-1.882 -8.839,-7.319 -2.055,-7.441 13.837,-0.25 20.622,0.731 33.681,-6.836" />
    </clipPath>
    <clipPath
       id="clipPath58"
       clipPathUnits="userSpaceOnUse">
      <path
         inkscape:connector-curvature="0"
         id="path60"
         d="m 558.323,524.527 38.192,0 0,-12.815 -38.192,0 0,12.815 z" />
    </clipPath>
    <clipPath
       id="clipPath62"
       clipPathUnits="userSpaceOnUse">
      <path
         style="clip-rule:evenodd"
         inkscape:connector-curvature="0"
         id="path64"
         d="m 596.515,511.712 c -7.452,6.109 -22.261,15.989 -32.626,11.818 -5.793,-2.332 -8.254,-7.974 -1.48,-7.577 13.816,0.809 20.506,2.306 34.106,-4.241" />
    </clipPath>
    <clipPath
       id="clipPath92"
       clipPathUnits="userSpaceOnUse">
      <path
         inkscape:connector-curvature="0"
         id="path94"
         d="m 556.75,546.201 27.01,0 0,-29.575 -27.01,0 0,29.575 z" />
    </clipPath>
    <clipPath
       id="clipPath96"
       clipPathUnits="userSpaceOnUse">
      <path
         style="clip-rule:evenodd"
         inkscape:connector-curvature="0"
         id="path98"
         d="m 556.75,516.626 c 2.252,9.368 8.092,26.186 18.874,29.118 6.024,1.639 11.393,-1.373 5.753,-5.147 -11.502,-7.696 -17.738,-10.542 -24.627,-23.971" />
    </clipPath>
    <clipPath
       id="clipPath126"
       clipPathUnits="userSpaceOnUse">
      <path
         inkscape:connector-curvature="0"
         id="path128"
         d="m 556.739,544.61 28.84,0 0,-27.979 -28.84,0 0,27.979 z" />
    </clipPath>
    <clipPath
       id="clipPath160"
       clipPathUnits="userSpaceOnUse">
      <path
         inkscape:connector-curvature="0"
         id="path162"
         d="m 548.843,543.235 11.247,0 0,-38.495 -11.247,0 0,38.495 z" />
    </clipPath>
    <clipPath
       id="clipPath194"
       clipPathUnits="userSpaceOnUse">
      <path
         inkscape:connector-curvature="0"
         id="path196"
         d="m 547.048,542.875 13.046,0 0,-38.137 -13.046,0 0,38.137 z" />
    </clipPath>
  </defs>
  <sodipodi:namedview
     id="base"
     pagecolor="#ffffff"
     bordercolor="#666666"
     borderopacity="1.0"
     inkscape:pageopacity="0"
     inkscape:pageshadow="2"
     inkscape:zoom="5.6568542"
     inkscape:cx="30.532426"
     inkscape:cy="23.535608"
     inkscape:document-units="px"
     inkscape:current-layer="layer1-8"
     showgrid="true"
     fit-margin-top="0"
     fit-margin-left="0"
     fit-margin-right="0"
     fit-margin-bottom="0"
     inkscape:window-width="1366"
     inkscape:window-height="685"
     inkscape:window-x="0"
     inkscape:window-y="0"
     inkscape:window-maximized="1"
     inkscape:showpageshadow="false"
     borderlayer="true"
     showguides="false">
    <inkscape:grid
       type="xygrid"
       id="grid4063" />
    <sodipodi:guide
       position="1.1650391e-05,32.000026"
       orientation="32,0"
       id="guide4157" />
    <sodipodi:guide
       position="1.1650391e-05,2.6367188e-05"
       orientation="0,32"
       id="guide4159" />
    <sodipodi:guide
       position="32.000012,2.6367188e-05"
       orientation="-32,0"
       id="guide4161" />
    <sodipodi:guide
       position="32.000012,32.000026"
       orientation="0,-32"
       id="guide4163" />
    <sodipodi:guide
       position="2.0000117,30.000026"
       orientation="28,0"
       id="guide4167" />
    <sodipodi:guide
       position="2.0000117,2.0000264"
       orientation="0,28"
       id="guide4169" />
    <sodipodi:guide
       position="30.000012,2.0000264"
       orientation="-28,0"
       id="guide4171" />
    <sodipodi:guide
       position="30.000012,30.000026"
       orientation="0,-28"
       id="guide4173" />
    <sodipodi:guide
       position="2.0000117,30.000026"
       orientation="28,0"
       id="guide4181" />
    <sodipodi:guide
       position="2.0000117,2.0000264"
       orientation="0,14"
       id="guide4183" />
    <sodipodi:guide
       position="16.000012,2.0000264"
       orientation="-28,0"
       id="guide4185" />
    <sodipodi:guide
       position="16.000012,30.000026"
       orientation="0,-14"
       id="guide4187" />
    <sodipodi:guide
       position="9.0000117,23.000026"
       orientation="14,0"
       id="guide4193" />
    <sodipodi:guide
       position="9.0000117,9.0000264"
       orientation="0,14.000031"
       id="guide4195" />
    <sodipodi:guide
       position="23.000042,9.0000264"
       orientation="-14,0"
       id="guide4197" />
    <sodipodi:guide
       position="23.000042,23.000026"
       orientation="0,-14.000031"
       id="guide4199" />
  </sodipodi:namedview>
  <metadata
     id="metadata5458">
    <rdf:RDF>
      <cc:Work
         rdf:about="">
        <dc:format>image/svg+xml</dc:format>
        <dc:type
           rdf:resource="http://purl.org/dc/dcmitype/StillImage" />
        <dc:title />
      </cc:Work>
    </rdf:RDF>
  </metadata>
  <g
     inkscape:label="Capa 1"
     inkscape:groupmode="layer"
     id="layer1"
     transform="translate(-384.57143,-499.798)">
    <g
       style="display:inline;enable-background:new"
       id="g4238"
       transform="translate(225.81911,462.44565)">
      <g
         style="display:inline"
         id="layer1-8"
         transform="matrix(0.22655187,0,0,0.22655187,106.94841,54.31088)">
        <g
           style="display:none"
           id="layer6" />
        <g
           id="g4027" />
        <g
           id="g4061" />
        <g
           id="g3751" />
        <g
           id="g3782" />
        <g
           id="g3725" />
        <g
           id="g4370"
           transform="matrix(4.4140002,0,0,4.4140002,59.275211,39.357303)">
          <g
             id="g4220"
             transform="translate(20.000001,4.9999993)">
            <path
               sodipodi:nodetypes="ccccccc"
               inkscape:connector-curvature="0"
               id="path4271-0"
               d="m 21.780943,-30.770001 20.712419,-5e-6 -7e-6,23.9601245 -24.007445,-4.9e-5 7e-6,-20.8704245 c 8.7e-5,-3.317484 3.12041,-3.0897 3.295026,-3.089694 z"
               style="opacity:1;fill:url(#linearGradient4991);fill-opacity:1;fill-rule:evenodd;stroke:none;stroke-width:2.76384115px;stroke-linecap:butt;stroke-linejoin:miter;stroke-opacity:1" />
            <path
               sodipodi:nodetypes="ccccccc"
               inkscape:connector-curvature="0"
               id="path4271"
               d="m 21.670024,17.020066 20.712421,-2.4e-5 0,-23.9601255 -24.007443,1.1e-5 -2e-6,20.8704255 c -3e-6,3.317483 3.12041,3.089703 3.295024,3.089696 z"
               style="opacity:1;fill:url(#linearGradient4579);fill-opacity:1.0;fill-rule:evenodd;stroke:none;stroke-width:2.76384115px;stroke-linecap:butt;stroke-linejoin:miter;stroke-opacity:1" />
            <path
               sodipodi:nodetypes="ccccccc"
               inkscape:connector-curvature="0"
               id="path4271-0-9"
               d="m 63.025243,-30.770027 -20.712418,2.5e-5 0,23.9601245 24.007441,-1.1e-5 1e-5,-20.8704255 c 4.7e-5,-3.317483 -3.120411,-3.089703 -3.29502,-3.089696 z"
               style="opacity:1;fill:url(#linearGradient4581);fill-opacity:1;fill-rule:evenodd;stroke:none;stroke-width:2.76384115px;stroke-linecap:butt;stroke-linejoin:miter;stroke-opacity:1" />
            <path
               style="opacity:1;fill:url(#linearGradient4583);fill-opacity:1.0;fill-rule:evenodd;stroke:none;stroke-width:2.76384115px;stroke-linecap:butt;stroke-linejoin:miter;stroke-opacity:1"
               d="m 63.065716,17.019454 -20.801981,-1.3e-5 -10e-7,-23.9601235 24.111251,1.3e-5 1.4e-5,20.8704275 c 4.3e-5,3.317484 -3.133905,3.089702 -3.309274,3.089692 z"
               id="path4271-4"
               inkscape:connector-curvature="0"
               sodipodi:nodetypes="ccccccc" />
            <path
               inkscape:connector-curvature="0"
               id="path4071"
               style="fill:#ffffff;fill-opacity:0.85;fill-rule:evenodd;enable-background:new"
               d="m 53.919115,-25.220801 c -0.614457,1.506447 -0.985045,2.49183 -1.669135,3.953355 0.419417,0.444618 0.934265,0.962364 1.770394,1.547142 -0.898901,-0.369909 -1.512044,-0.74126 -1.970259,-1.126616 -0.875506,1.82693 -2.247217,4.429277 -5.030822,9.430753 2.187822,-1.263039 3.883646,-2.041722 5.464291,-2.338875 -0.06786,-0.291898 -0.106464,-0.607648 -0.103841,-0.937097 l 0.002,-0.0701 c 0.03471,-1.401677 0.763853,-2.479553 1.627586,-2.406357 0.863738,0.07317 1.535129,1.269454 1.50041,2.671132 -0.0065,0.263778 -0.03629,0.517471 -0.08825,0.752812 1.563393,0.305838 3.241198,1.082527 5.399407,2.328483 -0.425566,-0.783457 -0.805407,-1.489716 -1.168129,-2.162345 -0.57139,-0.442854 -1.167337,-1.019203 -2.38299,-1.643189 0.835577,0.217123 1.433834,0.467612 1.900167,0.74761 -3.687912,-6.866518 -3.98644,-7.779017 -5.251304,-10.747056 z" />
            <path
               id="path4159"
               d="m 31.236324,-11.337392 c -2.17988,-0.784234 -3.474669,-1.746739 -4.894303,-3.894727 -0.348366,-0.591786 -0.988946,-1.912471 -0.964686,-3.636312 -0.0567,-1.718662 0.811765,-3.699008 2.432568,-4.755828 1.565195,-1.115427 3.585066,-1.132055 4.78663,-0.691554 1.239454,0.460127 1.742105,1.226642 1.75628,1.190116 -0.03789,0.0095 0.664022,0.599964 0.976952,1.885213 0.348639,1.235364 -0.0055,3.283039 -1.709394,4.121517 -0.783688,0.420057 -1.801529,0.496109 -2.599664,0.195718 -0.798135,-0.321926 -1.377383,-1.028744 -1.570375,-1.767183 -0.420602,-1.630344 0.816399,-2.53397 1.362118,-2.626649 2.220223,-0.740347 3.344645,2.734048 0.74798,3.029533 1.183573,0.395251 2.403673,-0.819397 2.171702,-2.05667 -0.04688,-1.237546 -1.545024,-2.465823 -3.197448,-1.962355 -0.431505,0.119121 -1.084897,0.421965 -1.59627,1.10316 -0.524458,0.677107 -0.762426,1.738288 -0.489839,2.769758 0.265772,1.037194 1.073993,2.029957 2.199778,2.476182 1.137234,0.419512 2.403401,0.299573 3.449045,-0.244511 2.232217,-1.10425 2.678987,-3.794958 2.235488,-5.275379 -0.391436,-1.591091 -1.255809,-2.319716 -1.211105,-2.330893 -0.01608,0.04334 -0.637854,-0.90199 -2.174428,-1.475786 -1.5025,-0.547901 -3.845114,-0.509193 -5.720786,0.80604 -1.919559,1.231003 -2.959479,3.649942 -2.883973,5.599485 -0.0259,1.9798 0.711998,3.495112 1.114609,4.168676 1.622984,2.475092 3.482574,3.248694 5.779121,3.372449"
               ns2:knockout="Off"
               inkscape:connector-curvature="0"
               style="overflow:visible;fill:#ffffff;fill-opacity:0.85" />
            <path
               d="m 54.22305,-1.8915385 c -3.75049,0 -6.790863,3.040374 -6.790863,6.790863 0,3.7504966 3.040373,6.7908655 6.790863,6.7908655 3.750489,0 6.790863,-3.0403689 6.790863,-6.7908655 0,-3.750489 -3.040374,-6.790863 -6.790863,-6.790863 z m 0,0.565905 c 2.851425,0 5.255084,1.91725302 5.992229,4.532901 -0.634903,1.309558 -1.538326,2.4886226 -2.638534,3.4414146 -0.528526,0.457704 -1.105571,0.865736 -1.742988,1.153031 -0.637416,0.287296 -1.338528,0.450305 -2.036551,0.410282 -0.524439,-0.03008 -1.0425,-0.176167 -1.501771,-0.430796 1.217152,-0.659534 2.315365,-1.53889 3.214342,-2.591848 0.59007,-0.6911416 1.106337,-1.4766006 1.305119,-2.3633616 0.09939,-0.44338 0.116234,-0.907726 0.02334,-1.352514 -0.09289,-0.444787 -0.298541,-0.86864998 -0.609762,-1.19971898 -0.304044,-0.323433 -0.703184,-0.55254 -1.131104,-0.670598 -0.427919,-0.118056 -0.8833,-0.127197 -1.319974,-0.04739 -0.873347,0.159605 -1.653087,0.66718 -2.278475,1.297338 -1.102339,1.11074398 -1.783816,2.67802598 -1.65881,4.23792298 0.0625,0.7799466 0.323874,1.5463526 0.771753,2.1879326 0.09997,0.143203 0.20988,0.279614 0.327518,0.408867 -0.652465,0.228343 -1.328038,0.390885 -2.013208,0.482434 -0.588266,-0.950551 -0.928085,-2.07093 -0.928085,-3.2709346 0,-3.437949 2.787009,-6.224958 6.224958,-6.224958 z m 0.03961,1.25772502 c 0.43759,5.66e-4 0.878153,0.133068 1.227307,0.396841 0.314571,0.237648 0.547659,0.575739 0.679794,0.94718398 0.132135,0.371444 0.166045,0.774812 0.120962,1.166472 -0.09016,0.783322 -0.485328,1.501689 -0.962746,2.129218 -0.845328,1.1111196 -1.968939,2.0004356 -3.218586,2.6229736 -0.127908,0.06372 -0.257847,0.124287 -0.38835,0.182505 -0.271913,-0.237949 -0.504973,-0.520181 -0.682623,-0.834714 -0.371205,-0.657236 -0.493619,-1.437968 -0.421599,-2.1893446 0.07202,-0.751377 0.329873,-1.475545 0.676257,-2.146196 0.401616,-0.777589 0.949054,-1.51413498 1.7154,-1.93681098 0.383173,-0.211337 0.816597,-0.338721 1.254187,-0.338128 z m 6.129461,4.13393798 c 0.03647,0.272596 0.05588,0.550717 0.05588,0.833295 0,3.4379476 -2.787008,6.2249605 -6.224957,6.2249605 -1.930787,0 -3.656376,-0.878964 -4.798169,-2.2586699 0.704747,-0.160066 1.393552,-0.389979 2.054236,-0.682623 0.288922,0.220038 0.608003,0.400505 0.947184,0.530536 0.976775,0.374474 2.085742,0.320288 3.07428,-0.02193 0.988538,-0.342217 1.865149,-0.956464 2.629337,-1.670835 0.910346,-0.851011 1.677888,-1.854068 2.262206,-2.9547346 z"
               inkscape:connector-curvature="0"
               id="path4096"
               style="opacity:0.85;fill:#ffffff;fill-opacity:1;stroke:#ffffff;stroke-width:0.22325301;stroke-miterlimit:4;stroke-dasharray:none;stroke-opacity:1" />
            <path
               inkscape:connector-curvature="0"
               id="path6"
               d="m 48.589442,-7.5694035 c -0.01978,-0.175816 -0.224773,-0.307934 -0.402031,-0.307934 -0.573102,0 -1.081656,-0.336508 -1.294935,-0.856929 -0.217885,-0.533033 -0.07739,-1.154672 0.349725,-1.5464655 0.134445,-0.122904 0.150779,-0.328643 0.03802,-0.471558 -0.293321,-0.372481 -0.626711,-0.708942 -0.990722,-1.000542 -0.142543,-0.114387 -0.351679,-0.09847 -0.475281,0.03839 -0.37276,0.412828 -1.042332,0.56626 -1.559729,0.350376 -0.538431,-0.226495 -0.877964,-0.772093 -0.844737,-1.357759 0.01094,-0.18396 -0.123508,-0.343907 -0.30691,-0.365268 -0.467137,-0.05403 -0.938369,-0.0557 -1.406902,-0.0037 -0.181307,0.02001 -0.315752,0.176189 -0.309656,0.357822 0.02038,0.579896 -0.323245,1.115954 -0.856324,1.334305 -0.511207,0.20881 -1.176079,0.05668 -1.548095,-0.352471 -0.12295,-0.13477 -0.32869,-0.151337 -0.47193,-0.0397 -0.374808,0.294066 -0.71569,0.630806 -1.011711,1.000216 -0.115458,0.143613 -0.09847,0.351772 0.03732,0.475327 0.435259,0.3941665 0.5758,1.0212045 0.349678,1.5603795 -0.215885,0.514046 -0.749662,0.845342 -1.360738,0.845342 -0.198293,-0.0064 -0.339532,0.12672 -0.361219,0.307004 -0.05501,0.469836 -0.05566,0.94856 -0.0027,1.422212 0.01964,0.176561 0.23087,0.307515 0.410083,0.307515 0.544574,-0.01391 1.067415,0.323245 1.286744,0.856976 0.21863,0.533033 0.07809,1.1543 -0.349678,1.54642 -0.133794,0.122903 -0.15078,0.328317 -0.03802,0.471232 0.290576,0.370107 0.624013,0.706894 0.989327,1.000914 0.143287,0.115458 0.351772,0.09917 0.475979,-0.0377 0.374156,-0.413852 1.043681,-0.567005 1.55903,-0.350702 0.539781,0.225797 0.879314,0.771349 0.846087,1.35734 -0.01084,0.18405402 0.124253,0.34428002 0.30691,0.36531502 0.238967,0.02788 0.479376,0.04179 0.720437,0.04179 0.228821,0 0.45769,-0.01256 0.686511,-0.03802 0.181354,-0.02001 0.315706,-0.176188 0.30961,-0.35814702 -0.02099,-0.57957 0.323245,-1.115628 0.855626,-1.333607 0.514651,-0.210206 1.176731,-0.05636 1.548793,0.352377 0.123648,0.134492 0.327945,0.150733 0.471976,0.03946 0.37411,-0.293369 0.714294,-0.62983 1.011711,-1.000263 0.115412,-0.143287 0.09912,-0.351772 -0.03737,-0.475281 -0.435259,-0.394167 -0.576498,-1.021297 -0.350376,-1.560101 0.212581,-0.507205 0.726534,-0.847762 1.279345,-0.847762 l 0.07734,0.002 c 0.179306,0.01457 0.344279,-0.123555 0.366012,-0.306584 0.0551,-0.470255 0.05575,-0.948561 0.0028,-1.422213 z"
               style="clip-rule:evenodd;fill:#e0f1fe;fill-opacity:1;fill-rule:evenodd;stroke-width:1.31742239;stroke-miterlimit:4;stroke-dasharray:none"
               sodipodi:nodetypes="csccccccccccccccccccccccccccccscccccccccccc" />
          </g>
          <g
             inkscape:label="Layer 1"
             id="layer1-1"
             transform="matrix(0.3059675,0,0,0.30540872,33.780603,-6.2093097)">
            <g
               id="g12"
               transform="matrix(1.2072634,0,0,-1.2072634,-658.37714,666.93803)">
              <g
                 clip-path="url(#clipPath16)"
                 id="g14"
                 transform="translate(22.69628,-17.717741)">
                <g
                   id="g20"
                   transform="translate(-3.9966451,-1.4494786)">
                  <g
                     id="g22" />
                  <g
                     id="g40">
                    <g
                       id="g42"
                       clip-path="url(#clipPath24)">
                      <g
                         id="g44">
                        <g
                           id="g46"
                           clip-path="url(#clipPath28)">
                          <g
                             id="g48">
                            <g
                               id="g50">
                              <path
                                 inkscape:connector-curvature="0"
                                 id="path52"
                                 style="fill:#e7f2fb;fill-opacity:1;fill-rule:evenodd;stroke:none"
                                 d="m 596.497,511.716 c -6.962,6.661 -20.973,17.643 -31.626,14.277 -5.954,-1.882 -8.839,-7.319 -2.055,-7.441 13.837,-0.25 20.622,0.731 33.681,-6.836" />
                            </g>
                          </g>
                        </g>
                      </g>
                    </g>
                  </g>
                </g>
                <g
                   id="g54">
                  <g
                     id="g56" />
                  <g
                     id="g74">
                    <g
                       id="g76"
                       clip-path="url(#clipPath58)">
                      <g
                         id="g78">
                        <g
                           id="g80"
                           clip-path="url(#clipPath62)">
                          <g
                             id="g82">
                            <g
                               id="g84" />
                          </g>
                        </g>
                      </g>
                    </g>
                  </g>
                </g>
                <g
                   id="g88"
                   transform="translate(-2.4848247,0.66301546)">
                  <g
                     id="g90" />
                  <g
                     id="g108">
                    <g
                       id="g110"
                       clip-path="url(#clipPath92)">
                      <g
                         id="g112">
                        <g
                           id="g114"
                           clip-path="url(#clipPath96)">
                          <g
                             id="g116">
                            <g
                               id="g118">
                              <path
                                 inkscape:connector-curvature="0"
                                 id="path120"
                                 style="fill:#e7f2fb;fill-opacity:1;fill-rule:evenodd;stroke:none"
                                 d="m 556.75,516.626 c 2.252,9.368 8.092,26.186 18.874,29.118 6.024,1.639 11.393,-1.373 5.753,-5.147 -11.502,-7.696 -17.738,-10.542 -24.627,-23.971" />
                            </g>
                          </g>
                        </g>
                      </g>
                    </g>
                  </g>
                </g>
                <g
                   id="g122">
                  <g
                     id="g124" />
                  <g
                     id="g142">
                    <g
                       id="g144"
                       clip-path="url(#clipPath126)">
                      <g
                         id="g146">
                        <g
                           id="g148">
                          <g
                             id="g150">
                            <g
                               id="g152" />
                          </g>
                        </g>
                      </g>
                    </g>
                  </g>
                </g>
                <g
                   id="g156">
                  <g
                     id="g158" />
                  <g
                     id="g176">
                    <g
                       id="g178"
                       clip-path="url(#clipPath160)">
                      <g
                         id="g180">
                        <g
                           id="g182">
                          <g
                             id="g184">
                            <g
                               id="g186" />
                          </g>
                        </g>
                      </g>
                    </g>
                  </g>
                </g>
                <g
                   id="g190">
                  <g
                     id="g192" />
                  <g
                     id="g210">
                    <g
                       id="g212"
                       clip-path="url(#clipPath194)">
                      <g
                         id="g214">
                        <g
                           id="g216">
                          <g
                             id="g218">
                            <g
                               id="g220">
                              <path
                                 inkscape:connector-curvature="0"
                                 id="path222"
                                 style="fill:#e7f2fb;fill-opacity:1;fill-rule:evenodd;stroke:none"
                                 d="m 560.094,504.738 c -6.172,7.399 -16.178,22.124 -12.094,32.524 2.281,5.812 7.902,8.321 7.563,1.544 -0.691,-13.823 -2.131,-20.525 4.531,-34.068" />
                            </g>
                          </g>
                        </g>
                      </g>
                    </g>
                  </g>
                </g>
              </g>
            </g>
          </g>
        </g>
      </g>
    </g>
  </g>
</svg>
