<svg xmlns="http://www.w3.org/2000/svg" viewBox="0 0 48 48"><defs><clipPath><path d="m596.51 511.71c-7.452 6.109-22.261 15.989-32.626 11.818-5.793-2.332-8.254-7.974-1.48-7.577 13.816.809 20.506 2.306 34.11-4.241"/></clipPath><clipPath id="6"><path d="m596.5 511.72c-6.962 6.661-20.973 17.643-31.626 14.277-5.954-1.882-8.839-7.319-2.055-7.441 13.837-.25 20.622.731 33.681-6.836"/></clipPath><clipPath id="7"><path d="m556.75 546.2h27.01v-29.575h-27.01v29.575"/></clipPath><clipPath><path d="m556.74 544.61h28.84v-27.979h-28.84v27.979"/></clipPath><clipPath><path d="m548.84 543.24h11.247v-38.495h-11.247v38.495"/></clipPath><clipPath id="8"><path d="m556.75 516.63c2.252 9.368 8.092 26.19 18.874 29.12 6.02 1.639 11.393-1.373 5.753-5.147-11.502-7.696-17.738-10.542-24.627-23.971"/></clipPath><clipPath><path d="m558.32 524.53h38.19v-12.815h-38.19v12.815"/></clipPath><clipPath id="4"><path d="m0 792h612v-792h-612v792"/></clipPath><clipPath id="9"><path d="m547.05 542.87h13.05v-38.14h-13.05v38.14"/></clipPath><clipPath id="5"><path d="m558.89 526.62h37.604v-14.904h-37.604v14.904"/></clipPath><linearGradient id="1" gradientUnits="userSpaceOnUse" x1="23.69" y1="264.74" x2="26.22" y2="193.53" gradientTransform="matrix(.43556-.00031.00033.41341 31.893-92.88)"><stop stop-color="#4469b9"/><stop offset="1" stop-color="#5d91ff"/></linearGradient><linearGradient gradientTransform="matrix(.43368-.00031.00033.41341 31.937-92.88)" id="2" gradientUnits="userSpaceOnUse" x1="22.642" y1="221.25" x2="24.303" y2="154.71"><stop stop-color="#0a80fd"/><stop offset="1" stop-color="#56c5fa"/></linearGradient><linearGradient y2="147.64" x2="3.419" y1="204.55" x1=".967" gradientUnits="userSpaceOnUse" id="3" gradientTransform="matrix(.43368-.00031.00033.41341 32.05-92.76)"><stop stop-color="#ec396c"/><stop offset="1" stop-color="#ff709a"/></linearGradient><linearGradient gradientTransform="matrix(.43368-.00031.00033.41341 31.937-92.88)" id="0" gradientUnits="userSpaceOnUse" x1="23.609" y1="265.85" x2="23.856" y2="184.57"><stop stop-color="#3585df"/><stop offset="1" stop-color="#a0dff0"/></linearGradient></defs><g transform="matrix(.99999 0 0 .99999-38.37 25.882)" enable-background="new"><g transform="translate(20 5)"><g fill-rule="evenodd"><path d="m21.781-30.77h20.712v23.96h-24.01v-20.87c0-3.317 3.12-3.09 3.295-3.09" fill="url(#3)"/><path d="m21.67 17.02h20.712v-23.96h-24.01v20.87c0 3.317 3.12 3.09 3.295 3.09" fill="url(#0)"/><path d="m63.03-30.77h-20.712v23.96h24.01v-20.87c0-3.317-3.12-3.09-3.295-3.09" fill="url(#2)"/><path d="m63.07 17.02h-20.802v-23.96h24.11v20.87c0 3.317-3.134 3.09-3.309 3.09" fill="url(#1)"/><path d="m53.919-25.22c-.614 1.506-.985 2.492-1.669 3.953.419.445.934.962 1.77 1.547-.899-.37-1.512-.741-1.97-1.127-.876 1.827-2.247 4.429-5.03 9.431 2.188-1.263 3.884-2.042 5.464-2.339-.068-.292-.106-.608-.104-.937l.002-.07c.035-1.402.764-2.48 1.628-2.406.864.073 1.535 1.269 1.5 2.671-.007.264-.036.517-.088.753 1.563.306 3.241 1.083 5.399 2.328-.426-.783-.805-1.49-1.168-2.162-.571-.443-1.167-1.019-2.383-1.643.836.217 1.434.468 1.9.748-3.688-6.867-3.986-7.779-5.251-10.747" fill="#fff" fill-opacity=".85"/></g><g fill="#fff"><path d="m31.24-11.337c-2.18-.784-3.475-1.747-4.894-3.895-.348-.592-.989-1.912-.965-3.636-.057-1.719.812-3.699 2.433-4.756 1.565-1.115 3.585-1.132 4.787-.692 1.239.46 1.742 1.227 1.756 1.19-.038.009.664.6.977 1.885.349 1.235-.005 3.283-1.709 4.122-.784.42-1.802.496-2.6.196-.798-.322-1.377-1.029-1.57-1.767-.421-1.63.816-2.534 1.362-2.627 2.22-.74 3.345 2.734.748 3.03 1.184.395 2.404-.819 2.172-2.057-.047-1.238-1.545-2.466-3.197-1.962-.432.119-1.085.422-1.596 1.103-.524.677-.762 1.738-.49 2.77.266 1.037 1.074 2.03 2.2 2.476 1.137.42 2.403.3 3.449-.245 2.232-1.104 2.679-3.795 2.235-5.275-.391-1.591-1.256-2.32-1.211-2.331-.016.043-.638-.902-2.174-1.476-1.503-.548-3.845-.509-5.721.806-1.92 1.231-2.959 3.65-2.884 5.599-.026 1.98.712 3.495 1.115 4.169 1.623 2.475 3.483 3.249 5.779 3.372" ns2:knockout="Off" fill-opacity=".85"/><path d="m54.22-1.892c-3.75 0-6.791 3.04-6.791 6.791 0 3.75 3.04 6.791 6.791 6.791 3.75 0 6.791-3.04 6.791-6.791 0-3.75-3.04-6.791-6.791-6.791zm0 .566c2.851 0 5.255 1.917 5.992 4.533-.635 1.31-1.538 2.489-2.639 3.441-.529.458-1.106.866-1.743 1.153-.637.287-1.339.45-2.037.41-.524-.03-1.042-.176-1.502-.431 1.217-.66 2.315-1.539 3.214-2.592.59-.691 1.106-1.477 1.305-2.363.099-.443.116-.908.023-1.353-.093-.445-.299-.869-.61-1.2-.304-.323-.703-.553-1.131-.671-.428-.118-.883-.127-1.32-.047-.873.16-1.653.667-2.278 1.297-1.102 1.111-1.784 2.678-1.659 4.238.063.78.324 1.546.772 2.188.1.143.21.28.328.409-.652.228-1.328.391-2.01.482-.588-.951-.928-2.071-.928-3.271 0-3.438 2.787-6.225 6.225-6.225zm.04 1.258c.438.0001.878.133 1.227.397.315.238.548.576.68.947.132.371.166.775.121 1.166-.09.783-.485 1.502-.963 2.129-.845 1.111-1.969 2-3.219 2.623-.128.064-.258.124-.388.183-.272-.238-.505-.52-.683-.835-.371-.657-.494-1.438-.422-2.189.072-.751.33-1.476.676-2.146.402-.778.949-1.514 1.715-1.937.383-.211.817-.339 1.254-.338zm6.129 4.134c.036.273.056.551.056.833 0 3.438-2.787 6.225-6.225 6.225-1.931 0-3.656-.879-4.798-2.259.705-.16 1.394-.39 2.054-.683.289.22.608.401.947.531.977.374 2.086.32 3.074-.022.989-.342 1.865-.956 2.629-1.671.91-.851 1.678-1.854 2.262-2.955z" opacity=".85" stroke="#fff" stroke-width=".223"/></g><path d="m48.589-7.569c-.02-.176-.225-.308-.402-.308-.573 0-1.082-.337-1.295-.857-.218-.533-.077-1.155.35-1.546.134-.123.151-.329.038-.472-.293-.372-.627-.709-.991-1-.143-.114-.352-.098-.475.038-.373.413-1.042.566-1.56.35-.538-.226-.878-.772-.845-1.358.011-.184-.124-.344-.307-.365-.467-.054-.938-.056-1.407-.004-.181.02-.316.176-.31.358.02.58-.323 1.116-.856 1.334-.511.209-1.176.057-1.548-.352-.123-.135-.329-.151-.472-.04-.375.294-.716.631-1.012 1-.115.144-.098.352.037.475.435.394.576 1.021.35 1.56-.216.514-.75.845-1.361.845-.198-.006-.34.127-.361.307-.055.47-.056.949-.003 1.422.02.177.231.308.41.308.545-.014 1.067.323 1.287.857.219.533.078 1.154-.35 1.546-.134.123-.151.328-.038.471.291.37.624.707.989 1 .143.115.352.099.476-.038.374-.414 1.044-.567 1.559-.351.54.226.879.771.846 1.357-.011.184.124.344.307.365.239.028.479.042.72.042.229 0 .458-.013.687-.038.181-.02.316-.176.31-.358-.021-.58.323-1.116.856-1.334.515-.21 1.177-.056 1.549.352.124.134.328.151.472.039.374-.293.714-.63 1.012-1 .115-.143.099-.352-.037-.475-.435-.394-.576-1.021-.35-1.56.213-.507.727-.848 1.279-.848l.077.002c.179.015.344-.124.366-.307.055-.47.056-.949.003-1.422" fill="#e0f1fe" fill-rule="evenodd" stroke-width="1.317"/></g><g clip-path="url(#4)" transform="matrix(.36938 0 0-.36871-159.28 204.01)"><g clip-path="url(#5)" transform="translate(-3.997-1.449)"><g clip-path="url(#6)"><path d="m596.5 511.72c-6.962 6.661-20.973 17.643-31.626 14.277-5.954-1.882-8.839-7.319-2.055-7.441 13.837-.25 20.622.731 33.681-6.836" fill="#e7f2fb" fill-rule="evenodd"/></g></g><g clip-path="url(#7)" transform="translate(-2.485.663)"><g clip-path="url(#8)"><path d="m556.75 516.63c2.252 9.368 8.092 26.19 18.874 29.12 6.02 1.639 11.393-1.373 5.753-5.147-11.502-7.696-17.738-10.542-24.627-23.971" fill="#e7f2fb" fill-rule="evenodd"/></g></g><g clip-path="url(#9)"><path d="m560.09 504.74c-6.172 7.399-16.178 22.12-12.09 32.524 2.281 5.812 7.902 8.321 7.563 1.544-.691-13.823-2.131-20.525 4.531-34.07" fill="#e7f2fb" fill-rule="evenodd"/></g></g></g></svg>