<?xml version="1.0" encoding="UTF-8" standalone="no"?>
<svg
   xmlns:osb="http://www.openswatchbook.org/uri/2009/osb"
   xmlns:dc="http://purl.org/dc/elements/1.1/"
   xmlns:cc="http://creativecommons.org/ns#"
   xmlns:rdf="http://www.w3.org/1999/02/22-rdf-syntax-ns#"
   xmlns:svg="http://www.w3.org/2000/svg"
   xmlns="http://www.w3.org/2000/svg"
   xmlns:xlink="http://www.w3.org/1999/xlink"
   xmlns:sodipodi="http://sodipodi.sourceforge.net/DTD/sodipodi-0.dtd"
   xmlns:inkscape="http://www.inkscape.org/namespaces/inkscape"
   viewBox="0 0 48 48"
   id="svg2"
   version="1.1"
   inkscape:version="0.91 r13725"
   sodipodi:docname="nvidia-settings.svg">
  <metadata
     id="metadata77">
    <rdf:RDF>
      <cc:Work
         rdf:about="">
        <dc:format>image/svg+xml</dc:format>
        <dc:type
           rdf:resource="http://purl.org/dc/dcmitype/StillImage" />
        <dc:title></dc:title>
      </cc:Work>
    </rdf:RDF>
  </metadata>
  <sodipodi:namedview
     pagecolor="#5e5e5e"
     bordercolor="#666666"
     borderopacity="1"
     objecttolerance="10"
     gridtolerance="10"
     guidetolerance="10"
     inkscape:pageopacity="0"
     inkscape:pageshadow="2"
     inkscape:window-width="1366"
     inkscape:window-height="685"
     id="namedview75"
     showgrid="false"
     showborder="false"
     inkscape:zoom="4.9166667"
     inkscape:cx="-33.215832"
     inkscape:cy="10.152682"
     inkscape:window-x="0"
     inkscape:window-y="0"
     inkscape:window-maximized="1"
     inkscape:current-layer="svg2" />
  <defs
     id="defs4">
    <linearGradient
       id="linearGradient4232">
      <stop
         id="stop4234-0"
         offset="0"
         style="stop-color:#3889e9;stop-opacity:1" />
      <stop
         id="stop4236"
         offset="1"
         style="stop-color:#5ea5fb;stop-opacity:1" />
    </linearGradient>
    <linearGradient
       osb:paint="gradient"
       id="linearGradient4207">
      <stop
         id="stop3371"
         offset="0"
         style="stop-color:#3498db;stop-opacity:1;" />
      <stop
         id="stop3373"
         offset="1"
         style="stop-color:#3498db;stop-opacity:0;" />
    </linearGradient>
    <linearGradient
       id="linearGradient4422">
      <stop
         style="stop-color:#ff9300;stop-opacity:1"
         offset="0"
         id="stop4424" />
      <stop
         style="stop-color:#ffd702;stop-opacity:1"
         offset="1"
         id="stop4426" />
    </linearGradient>
    <linearGradient
       inkscape:collect="always"
       xlink:href="#linearGradient4232"
       id="linearGradient4237"
       x1="399.57144"
       y1="545.79797"
       x2="399.57144"
       y2="517.79797"
       gradientUnits="userSpaceOnUse" />
    <linearGradient
       id="linearGradient4180-0">
      <stop
         style="stop-color:#2b65bd;stop-opacity:1"
         offset="0"
         id="stop4182-2" />
      <stop
         style="stop-color:#64a3dc;stop-opacity:1"
         offset="1"
         id="stop4184-3" />
    </linearGradient>
    <linearGradient
       gradientTransform="matrix(0.4943315,0,0,0.47780365,99.251683,50.118849)"
       gradientUnits="userSpaceOnUse"
       y2="-26.047026"
       x2="-125.19291"
       y1="73.496605"
       x1="-123.9715"
       id="linearGradient4738-6-8"
       xlink:href="#linearGradient4531-4"
       inkscape:collect="always" />
    <linearGradient
       id="linearGradient4531-4"
       inkscape:collect="always">
      <stop
         id="stop4533-4"
         offset="0"
         style="stop-color:#5dae33;stop-opacity:1" />
      <stop
         id="stop4535-3"
         offset="1"
         style="stop-color:#9be058;stop-opacity:1" />
    </linearGradient>
  </defs>
  <g
     id="g33" />
  <g
     id="g4166"
     transform="translate(-12.61017,-37.016949)">
    <rect
       ry="2.9819367"
       y="37.016949"
       x="12.61017"
       height="48"
       width="48"
       id="rect4177-3-1"
       style="opacity:1;fill:url(#linearGradient4738-6-8);fill-opacity:1;fill-rule:evenodd;stroke:none;stroke-width:8;stroke-linecap:round;stroke-linejoin:round;stroke-miterlimit:4;stroke-dasharray:none;stroke-dashoffset:0;stroke-opacity:1" />
  </g>
  <path
     inkscape:connector-curvature="0"
     style="fill:#000000;fill-opacity:0.70325204"
     id="path21"
     d="m 9.678002,22.331105 c 0,0 3.254749,-4.838263 9.753446,-5.338781 l 0,-1.755354 c -7.198774,0.581998 -13.4315533,6.724777 -13.4315533,6.724777 0,0 3.5303882,10.282644 13.4315533,11.22416 l 0,-1.865753 C 12.165594,30.399217 9.678002,22.331225 9.678002,22.331225 Z m 9.753446,5.278302 0,1.708674 c -5.491301,-0.986361 -7.015655,-6.737617 -7.015655,-6.737617 0,0 2.63663,-2.94275 7.015655,-3.419988 l 0,1.874994 c -0.0027,0 -0.0045,-9.43e-4 -0.0069,-9.43e-4 -2.298352,-0.277883 -4.093786,1.885313 -4.093786,1.885313 0,0 1.006341,3.641628 4.102186,4.689704 m 0,-15.609545 0,3.237589 c 0.211307,-0.01617 0.422615,-0.03 0.635074,-0.03729 8.183491,-0.277884 13.515552,6.762216 13.515552,6.762216 0,0 -6.124058,7.502734 -12.503955,7.502734 -0.584747,0 -1.132173,-0.05467 -1.646395,-0.146424 l 0,2.002073 c 0.439678,0.05616 0.895557,0.08933 1.371236,0.08933 5.937218,0 10.230924,-3.05495 14.387949,-6.670657 0.689325,0.55621 3.511308,1.909313 4.091505,2.501632 -3.953026,3.334428 -13.166353,6.022418 -18.388735,6.022418 -0.503447,0 -0.986961,-0.03069 -1.462195,-0.07689 l 0,2.813271 22.567121,0 0,-23.999916 -22.567121,0 z m 0,7.161215 0,-2.168152 c 0.209135,-0.01251 0.419867,-0.02599 0.635074,-0.03291 5.88478,-0.18624 9.745526,5.095062 9.745526,5.095062 0,0 -4.169986,5.834979 -8.64105,5.834979 -0.643462,0 -1.220396,-0.104159 -1.739634,-0.280079 l 0,-6.573937 c 2.290912,0.278903 2.75207,1.298516 4.129305,3.611747 l 3.06323,-2.60243 c 0,0 -2.236072,-2.95475 -6.005619,-2.95475 -0.409739,-1.41e-4 -0.801825,0.02892 -1.186832,0.07021" />
</svg>
