<svg xmlns="http://www.w3.org/2000/svg" viewBox="0 0 48 48"><defs><linearGradient gradientTransform="matrix(.49433 0 0 .4778 86.64 13.1)" gradientUnits="userSpaceOnUse" y2="-26.05" x2="-125.19" y1="73.5" x1="-123.97" id="0"><stop stop-color="#5dae33"/><stop offset="1" stop-color="#9be058"/></linearGradient></defs><rect height="48" width="48" fill="url(#0)" fill-rule="evenodd" rx="2.982"/><path d="m9.678 22.331c0 0 3.255-4.838 9.753-5.339v-1.755c-7.199.582-13.432 6.725-13.432 6.725 0 0 3.53 10.283 13.432 11.224v-1.866c-7.266-.921-9.753-8.989-9.753-8.989m9.753 5.278v1.709c-5.491-.986-7.02-6.738-7.02-6.738 0 0 2.637-2.943 7.02-3.42v1.875c-.003 0-.005 0-.007 0-2.298-.278-4.094 1.885-4.094 1.885 0 0 1.01 3.642 4.102 4.69m0-15.61v3.238c.211-.016.423-.03.635-.037 8.183-.278 13.516 6.762 13.516 6.762 0 0-6.124 7.503-12.504 7.503-.585 0-1.132-.055-1.646-.146v2c.44.056.896.089 1.371.089 5.937 0 10.231-3.055 14.388-6.671.689.556 3.511 1.909 4.092 2.502-3.953 3.334-13.166 6.02-18.389 6.02-.503 0-.987-.031-1.462-.077v2.813h22.567v-24h-22.567zm0 7.161v-2.168c.209-.013.42-.026.635-.033 5.885-.186 9.746 5.095 9.746 5.095 0 0-4.17 5.835-8.641 5.835-.643 0-1.22-.104-1.74-.28v-6.574c2.291.279 2.752 1.299 4.129 3.612l3.063-2.602c0 0-2.236-2.955-6.01-2.955-.41 0-.802.029-1.187.07" fill-opacity=".703"/></svg>