<svg xmlns="http://www.w3.org/2000/svg" xmlns:xlink="http://www.w3.org/1999/xlink" viewBox="0 0 48 48"><defs><linearGradient xlink:href="#1" id="3" x1="74.64" y1="18.269" x2="83.932" y2="101.96" gradientUnits="userSpaceOnUse"/><linearGradient xlink:href="#1" id="4" x1="40.533" y1="107.5" x2="37.578" y2="15.16" gradientUnits="userSpaceOnUse"/><linearGradient gradientUnits="userSpaceOnUse" y2="516.48" x2="0" y1="546.93" id="2"><stop stop-color="#dc3c30"/><stop offset="1" stop-color="#ff786d"/></linearGradient><linearGradient id="0" gradientUnits="userSpaceOnUse" y1="542.2" x2="0" y2="526.2"><stop stop-color="#d0d0d0"/><stop offset="1" stop-color="#f1eeee"/></linearGradient><linearGradient id="1"><stop stop-color="#ccc"/><stop offset="1" stop-color="#fff"/></linearGradient></defs><g transform="matrix(.43781 0 0 .43781-2.151-2.128)" fill="url(#0)"><circle r="14" cy="531.8" cx="400.57" transform="matrix(3.72324 0 0 3.72567-1431.69-1921.62)" fill="url(#2)" stroke="url(#2)" stroke-width="1.427"/><path d="m42.84 31.571c4.646-5.483 10.653-8.799 17.204-8.799 14.745 0 26.698 16.72 26.698 37.33 0 20.621-11.953 37.33-26.698 37.33-6.561 0-12.558-3.306-17.204-8.789 7.267 9.434 18.06 15.42 30.12 15.42 7.418 0 14.362-2.268 20.298-6.198 10.371-9.272 16.892-22.747 16.892-37.754 0-14.997-6.521-28.482-16.892-37.754-5.936-3.941-12.88-6.198-20.298-6.198-12.06 0-22.858 5.987-30.12 15.42" fill="url(#3)"/><path d="m60 9.75c-27.75 0-50.25 22.5-50.25 50.25 0 26.95 21.22 48.94 47.86 50.19.8.04 1.59.06 2.39.06 12.87 0 24.6-4.84 33.49-12.79-5.89 3.91-12.78 6.15-20.14 6.15-11.97 0-22.68-5.94-29.89-15.3-5.56-6.56-9.15-16.25-9.4-27.13 0-.03 0-2.34 0-2.37.25-10.88 3.84-20.58 9.4-27.13 7.21-9.36 17.93-15.3 29.89-15.3 7.36 0 14.25 2.25 20.14 6.16-8.84-7.91-20.51-12.74-33.3-12.79-.06 0-.13 0-.19 0" fill="url(#4)"/></g></svg>