<?xml version="1.0" encoding="UTF-8" standalone="no"?>
<!-- Created with Inkscape (http://www.inkscape.org/) -->

<svg
   xmlns:dc="http://purl.org/dc/elements/1.1/"
   xmlns:cc="http://creativecommons.org/ns#"
   xmlns:rdf="http://www.w3.org/1999/02/22-rdf-syntax-ns#"
   xmlns:svg="http://www.w3.org/2000/svg"
   xmlns="http://www.w3.org/2000/svg"
   xmlns:xlink="http://www.w3.org/1999/xlink"
   xmlns:sodipodi="http://sodipodi.sourceforge.net/DTD/sodipodi-0.dtd"
   xmlns:inkscape="http://www.inkscape.org/namespaces/inkscape"
   width="48"
   height="48"
   id="svg5453"
   version="1.1"
   inkscape:version="0.91 r13725"
   sodipodi:docname="othman-browser.svg">
  <defs
     id="defs5455">
    <linearGradient
       inkscape:collect="always"
       xlink:href="#linearGradient4215"
       id="linearGradient4342"
       x1="403.43668"
       y1="544.98895"
       x2="402.48508"
       y2="518.34387"
       gradientUnits="userSpaceOnUse"
       gradientTransform="matrix(1.714291,0,0,1.714291,-704.32093,-883.51774)" />
    <linearGradient
       id="linearGradient4215"
       inkscape:collect="always">
      <stop
         id="stop4217"
         offset="0"
         style="stop-color:#00a661;stop-opacity:1" />
      <stop
         id="stop4219"
         offset="1"
         style="stop-color:#37ce97;stop-opacity:1" />
    </linearGradient>
  </defs>
  <sodipodi:namedview
     id="base"
     pagecolor="#ffffff"
     bordercolor="#666666"
     borderopacity="1.0"
     inkscape:pageopacity="0"
     inkscape:pageshadow="2"
     inkscape:zoom="4"
     inkscape:cx="-39.601104"
     inkscape:cy="15.968792"
     inkscape:document-units="px"
     inkscape:current-layer="g4370"
     showgrid="true"
     fit-margin-top="0"
     fit-margin-left="0"
     fit-margin-right="0"
     fit-margin-bottom="0"
     inkscape:window-width="1366"
     inkscape:window-height="634"
     inkscape:window-x="0"
     inkscape:window-y="36"
     inkscape:window-maximized="1"
     inkscape:showpageshadow="false"
     borderlayer="true"
     showguides="false">
    <inkscape:grid
       type="xygrid"
       id="grid4063" />
    <sodipodi:guide
       position="1.1650391e-05,32.000026"
       orientation="32,0"
       id="guide4157" />
    <sodipodi:guide
       position="1.1650391e-05,2.6367188e-05"
       orientation="0,32"
       id="guide4159" />
    <sodipodi:guide
       position="32.000012,2.6367188e-05"
       orientation="-32,0"
       id="guide4161" />
    <sodipodi:guide
       position="32.000012,32.000026"
       orientation="0,-32"
       id="guide4163" />
    <sodipodi:guide
       position="2.0000117,30.000026"
       orientation="28,0"
       id="guide4167" />
    <sodipodi:guide
       position="2.0000117,2.0000264"
       orientation="0,28"
       id="guide4169" />
    <sodipodi:guide
       position="30.000012,2.0000264"
       orientation="-28,0"
       id="guide4171" />
    <sodipodi:guide
       position="30.000012,30.000026"
       orientation="0,-28"
       id="guide4173" />
    <sodipodi:guide
       position="2.0000117,30.000026"
       orientation="28,0"
       id="guide4181" />
    <sodipodi:guide
       position="2.0000117,2.0000264"
       orientation="0,14"
       id="guide4183" />
    <sodipodi:guide
       position="16.000012,2.0000264"
       orientation="-28,0"
       id="guide4185" />
    <sodipodi:guide
       position="16.000012,30.000026"
       orientation="0,-14"
       id="guide4187" />
    <sodipodi:guide
       position="9.0000117,23.000026"
       orientation="14,0"
       id="guide4193" />
    <sodipodi:guide
       position="9.0000117,9.0000264"
       orientation="0,14.000031"
       id="guide4195" />
    <sodipodi:guide
       position="23.000042,9.0000264"
       orientation="-14,0"
       id="guide4197" />
    <sodipodi:guide
       position="23.000042,23.000026"
       orientation="0,-14.000031"
       id="guide4199" />
  </sodipodi:namedview>
  <metadata
     id="metadata5458">
    <rdf:RDF>
      <cc:Work
         rdf:about="">
        <dc:format>image/svg+xml</dc:format>
        <dc:type
           rdf:resource="http://purl.org/dc/dcmitype/StillImage" />
        <dc:title></dc:title>
      </cc:Work>
    </rdf:RDF>
  </metadata>
  <g
     inkscape:label="Capa 1"
     inkscape:groupmode="layer"
     id="layer1"
     transform="translate(-384.57143,-499.798)">
    <g
       style="display:inline;enable-background:new"
       id="g4238"
       transform="translate(225.81911,462.44565)">
      <g
         style="display:inline"
         id="layer1-8"
         transform="matrix(0.22655187,0,0,0.22655187,106.94841,54.31088)">
        <g
           style="display:none"
           id="layer6" />
        <g
           id="g4027" />
        <g
           id="g4061" />
        <g
           id="g3751" />
        <g
           id="g3782" />
        <g
           id="g3725" />
        <g
           id="g4370"
           transform="matrix(4.4140002,0,0,4.4140002,59.275211,39.357303)">
          <g
             id="g4182"
             transform="translate(80,-30.000001)">
            <circle
               r="24"
               cy="28.125"
               cx="-17.625"
               id="path3377"
               style="opacity:1;fill:url(#linearGradient4342);fill-opacity:1;stroke:none;stroke-width:1.52419364;stroke-miterlimit:4;stroke-dasharray:none;stroke-dashoffset:0;stroke-opacity:1" />
            <path
               id="path4807"
               d="m -18.290134,43.598417 c -0.913043,-0.370435 -1.394087,-1.761391 -1.053913,-3.053217 0.192,-0.717913 0.02087,-0.831652 -0.570782,-0.408 -0.192,0.134608 -0.986087,0.472695 -1.781218,0.750261 -1.977391,0.697043 -3.814956,0.721043 -4.935652,0.07304 -1.413913,-0.827478 -1.932522,-2.253913 -1.561044,-4.361739 0.109566,-0.611478 0.248348,-1.255305 0.309913,-1.430609 0.06887,-0.17113 -0.236869,0.02087 -0.673043,0.432 -0.848348,0.803478 -1.410783,1.039304 -2.078609,0.864 -1.218782,-0.318261 -1.520348,-2.743304 -0.611478,-4.944 0.301565,-0.733565 0.301565,-0.765913 -0.0083,-1.161391 -0.933913,-1.202087 -0.790956,-2.796522 0.45287,-5.062957 0.851478,-1.544348 0.892174,-1.610087 1.026782,-1.462957 0.05322,0.05322 -0.09391,0.415305 -0.329739,0.803479 -0.505043,0.844174 -1.214609,2.555478 -1.373217,3.370434 -0.192,0.892174 0.17113,1.626783 0.790956,1.626783 0.277565,0 0.729392,-0.126261 1.011131,-0.277565 0.505043,-0.273391 2.262261,-1.826087 4.067478,-3.603131 l 0.933913,-0.917217 -0.594782,-0.517565 c -0.326609,-0.28487 -1.36174,-1.060174 -2.294609,-1.723826 -1.870957,-1.328348 -2.127653,-1.716522 -1.862609,-2.82887 0.14713,-0.619826 0.273391,-0.725218 1.817739,-1.544348 l 1.654909,-0.872345 -0.354783,-0.395478 c -0.269217,-0.297391 -0.326609,-0.521739 -0.24,-0.925565 0.06156,-0.293218 0.203478,-0.611479 0.314087,-0.709566 0.652174,-0.562434 7.335653,-3.016695 7.565218,-2.779825 0.187826,0.192 -0.203479,0.391304 -2.086957,1.064347 -2.086956,0.746087 -5.20487,2.022261 -5.413565,2.217391 -0.07304,0.06887 0.0042,0.395479 0.17113,0.729392 0.166957,0.329739 0.314087,0.624 0.326609,0.656348 0.0167,0.02817 1.043478,-0.309913 2.298783,-0.750261 2.950956,-1.039305 6.765913,-2.050435 7.736348,-2.050435 0.594782,0 0.864,0.102261 1.202087,0.452869 0.367304,0.387131 0.415304,0.549913 0.318261,1.109218 -0.138783,0.758609 -0.709566,1.597565 -1.691479,2.486609 -0.382956,0.342261 -1.222956,1.186434 -1.866782,1.87513 l -1.173914,1.251131 0.436174,-0.88487 c 0.52174,-1.064348 1.206261,-1.846957 2.632696,-3 0.583305,-0.472696 1.064348,-0.966261 1.064348,-1.10087 0,-0.525913 -0.664696,-0.945391 -1.492174,-0.945391 -1.68313,0 -6.652174,1.524522 -10.336696,3.175304 -2.698435,1.206261 -2.751652,1.272 -1.601739,1.875131 1.084174,0.574956 4.373217,2.666087 4.789565,3.049044 0.265044,0.244173 0.378783,0.232695 1.169739,-0.109566 0.485218,-0.207652 0.990261,-0.378782 1.129044,-0.378782 0.187826,0 0.228522,-0.122087 0.14713,-0.485218 -0.05739,-0.269217 -0.211826,-1.165565 -0.342261,-1.993043 -0.130434,-0.827479 -0.281739,-1.704 -0.338086,-1.944 -0.05322,-0.244174 -0.0407,-0.721044 0.03235,-1.060174 l 0.130435,-0.615652 0.631305,1.056 c 0.673043,1.120695 0.848347,1.732174 0.374608,1.325217 -0.415304,-0.354783 -0.493565,-0.06574 -0.293217,1.067478 0.277565,1.537044 0.534261,1.980522 1.447304,2.482435 0.868174,0.472696 1.056,0.778435 0.88487,1.467131 -0.102261,0.415304 -0.122087,0.423652 -0.603131,0.179478 -0.583304,-0.301565 -2.176695,-0.363131 -2.629565,-0.102261 -0.277565,0.162783 -0.220174,0.248348 0.509217,0.778435 0.45287,0.329739 1.74887,1.283478 2.882088,2.127652 2.018087,1.507826 2.062956,1.528696 2.119304,1.071652 0.02817,-0.256695 -0.02817,-2.204869 -0.130435,-4.332522 -0.158609,-3.244174 -0.14713,-3.937043 0.05322,-4.340869 l 0.236869,-0.468522 0.289044,0.701217 c 0.994434,2.44174 1.133217,3.211827 0.419478,2.368696 l -0.354783,-0.423652 0.09809,2.743304 c 0.05739,1.507827 0.151305,3.244174 0.207652,3.859827 0.102261,1.071652 0.130435,1.129043 0.754435,1.458782 0.774261,0.412174 1.321044,0.436174 2.115131,0.08974 0.574956,-0.248347 0.590608,-0.284869 0.590608,-1.246956 0,-0.542609 -0.109565,-2.119305 -0.244173,-3.505044 -0.134609,-1.381565 -0.32974,-3.790956 -0.436174,-5.347826 -0.106435,-1.55687 -0.26087,-3.534261 -0.342261,-4.389913 -0.102261,-1.060174 -0.09391,-1.712348 0.03235,-2.037913 0.179478,-0.464348 0.199304,-0.440348 0.835826,0.941217 0.36313,0.778435 0.656348,1.573565 0.656348,1.768696 -0.0042,0.305739 -0.05739,0.284869 -0.436174,-0.179479 l -0.432,-0.530086 0.09809,1.149913 c 0.05322,0.635478 0.293217,3.440348 0.53426,6.236869 0.549913,6.457044 0.415305,7.638262 -0.970434,8.389566 -0.525913,0.281739 -1.462957,0.277565 -2.335305,-0.02087 -0.342261,-0.113739 -0.38713,-0.08974 -0.305739,0.199305 0.05322,0.183652 0.142957,1.210435 0.203478,2.28313 0.117913,2.018087 -0.08139,4.242783 -0.472695,5.227827 -0.183653,0.476869 -0.211826,0.203478 -0.211826,-2.074435 0,-1.443131 -0.06574,-3.481044 -0.147131,-4.528696 l -0.142956,-1.907479 -1.161392,-0.925565 c -0.639652,-0.509217 -1.932522,-1.552695 -2.877913,-2.315478 -0.941217,-0.758609 -1.716522,-1.332522 -1.716522,-1.280348 0,0.05322 0.248348,0.554087 0.549913,1.109217 0.415305,0.770087 0.545739,1.218783 0.542609,1.899131 -0.0083,1.691478 -0.729391,2.482435 -2.743304,3.008348 -1.332522,0.346435 -2.857044,1.120696 -3.570783,1.817739 -0.957913,0.929739 -1.161392,3.444522 -0.387131,4.753044 0.864,1.458782 3.460174,1.846956 5.922783,0.892174 2.193392,-0.851479 4.112348,-2.168348 4.112348,-2.824696 0,-0.220174 -0.314087,-1.263652 -0.692869,-2.319652 -0.554087,-1.528696 -0.673044,-2.054609 -0.579131,-2.555479 l 0.113739,-0.635478 0.746087,0.88487 c 0.823305,0.981913 0.921392,1.231304 0.412174,1.064348 -0.38713,-0.126261 -0.419478,0.03235 -0.151304,0.741913 0.872348,2.286261 0.737739,3.500869 -0.534261,4.732174 -0.889044,0.859826 -1.190609,1.589217 -1.194783,2.861217 0,0.795131 0.378783,1.312696 0.974609,1.312696 0.542609,0 1.663304,-0.949565 2.767304,-2.360348 1.218783,-1.548522 2.018088,-2.155826 3.831653,-2.955131 0.754435,-0.329739 1.426435,-0.656347 1.507826,-0.725217 0.08139,-0.06887 0.1627828,-0.673044 0.1836518,-1.336696 0.04487,-1.332522 0.374609,-2.193391 1.022609,-2.632695 0.314087,-0.211827 0.489391,-0.23687 0.754435,-0.08557 0.326608,0.175305 0.697043,1.145739 0.697043,1.79374 0.0042,0.673043 -0.57913,2.058782 -1.043478,2.490782 l -0.50087,0.464348 0.378783,0.370435 c 0.493565,0.468522 0.880696,0.468522 1.805217,0.0083 0.464348,-0.24 0.770087,-0.521739 0.835826,-0.790957 0.05322,-0.228522 0.02087,-1.87513 -0.08557,-3.656348 -0.166956,-2.890435 -0.814956,-13.53287 -0.892174,-14.66087 -0.02087,-0.244174 0.024,-0.713739 0.102261,-1.039304 0.158609,-0.717913 0.220174,-0.639653 0.957913,1.190608 0.562435,1.394087 0.554087,1.753044 -0.01669,1.067479 l -0.363131,-0.423652 0.102261,1.328347 c 0.04904,0.729392 0.175304,2.600348 0.273391,4.161392 0.09809,1.556869 0.216,3.028174 0.256696,3.273391 0.216,1.304348 0.281739,7.422261 0.08139,8.410435 -0.329739,1.674783 -1.357565,2.747479 -2.608695,2.747479 -0.448696,0 -1.039305,-0.587479 -1.214609,-1.197913 -0.154435,-0.530087 -0.338087,-0.509218 -1.9972178,0.252521 -1.858434,0.855653 -2.97913,1.732174 -4.145739,3.248348 -1.280348,1.671653 -1.956522,2.086957 -2.80487,1.744696 m 9.8765228,-7.528696 c 0.457043,-0.399652 0.521739,-0.558261 0.436173,-1.006956 -0.154434,-0.819131 -0.570782,-1.210435 -1.015304,-0.970435 -0.525913,0.289043 -0.628174,0.513391 -0.513391,1.206261 0.224348,1.430608 0.284869,1.475478 1.092522,0.770087 M -29.420917,35.016852 c 0.367305,-0.252522 1.161392,-0.957913 1.77287,-1.569392 1.321044,-1.316869 2.311304,-1.870956 4.479652,-2.494956 1.55687,-0.448696 2.323827,-0.904696 2.323827,-1.370087 0,-0.436174 -1.259479,-2.416696 -2.054609,-3.232696 l -0.819131,-0.844174 -0.476869,0.329739 c -0.26087,0.175304 -1.280348,1.105044 -2.274783,2.058783 -2.245565,2.172522 -2.995826,2.767304 -3.673044,2.906087 -0.472695,0.09391 -0.583304,0.236869 -0.917217,1.190609 -0.440348,1.255304 -0.530087,2.76313 -0.187826,3.196174 0.342261,0.427826 1.071652,0.358956 1.826087,-0.171131 m 0.692869,-2.131826 c -0.207652,-0.216 -0.117913,-1.413913 0.151305,-2.086957 0.14713,-0.367304 0.301565,-0.628173 0.342261,-0.583304 0.0407,0.04487 -0.04904,0.391304 -0.199305,0.774261 -0.154434,0.378783 -0.265043,0.721043 -0.252521,0.758609 0.0167,0.03652 0.109565,0.232695 0.211826,0.432 0.183652,0.350608 0.196174,0.350608 0.419478,0.02817 0.28487,-0.403826 0.301565,-0.256696 0.03652,0.346434 -0.192,0.440348 -0.481044,0.574957 -0.709566,0.333913 m 3.032348,-3.089739 c -0.281739,-0.220174 -0.53426,-0.415304 -0.566608,-0.440348 -0.106435,-0.07722 0.525913,-0.953739 0.688695,-0.953739 0.09391,0 0.382957,0.158609 0.648,0.354783 l 0.47687,0.354782 0.333913,-0.476869 c 0.329739,-0.468522 0.342261,-0.472696 0.790957,-0.166957 0.615652,0.419479 0.697043,0.721044 0.326608,1.231305 l -0.309911,0.42783 -1.100869,-0.872348 -0.782609,0.945391 -0.505044,-0.399652 m 11.286262,13.53287 c 0.448695,-0.673043 0.497739,-1.161391 0.09809,-1.002782 -0.232696,0.09391 -0.244174,0.05322 -0.07722,-0.273392 0.408,-0.79513 0.872348,-0.199304 0.525913,0.673044 -0.113739,0.284869 -0.367304,0.660522 -0.562434,0.84 -0.346435,0.314087 -0.346435,0.305739 0.01669,-0.23687 m 3.004174,-0.978782 c -0.228522,-0.50087 -0.485217,-0.786783 -0.765913,-0.855653 -0.481043,-0.113739 -0.729391,-1.060174 -0.277565,-1.060174 0.265043,0 1.304348,1.133218 1.304348,1.422261 0,0.09391 0.07722,0.171131 0.17113,0.171131 0.09391,0 0.171131,-0.183652 0.171131,-0.403826 0,-0.432 0.587478,-1.544348 0.8107818,-1.544348 0.273392,0 0.549913,0.432 0.549913,0.855652 0,0.423652 -0.0083,0.427826 -0.346434,0.109565 -0.4403478,-0.415304 -0.5874788,-0.256695 -0.9704348,1.030957 l -0.301565,1.019478 m -18.562432,-4.406609 c 0.342261,-0.697043 0.342261,-1.092522 -0.0083,-1.092522 -0.224348,0 -0.236869,-0.04904 -0.06574,-0.265043 0.24,-0.305739 0.615652,-0.346435 0.761739,-0.08974 0.126261,0.207652 -0.472695,1.671652 -0.758608,1.854261 -0.126261,0.08139 -0.09809,-0.08139 0.06574,-0.408 m 4.157217,-0.69287 c -0.130435,-0.354782 -0.130435,-0.754435 0.0042,-1.451478 0.102261,-0.525913 0.154435,-0.994435 0.109565,-1.039305 -0.04069,-0.04069 -0.346434,0.08974 -0.676174,0.289044 -0.457043,0.28487 -0.60313,0.314087 -0.60313,0.122087 0,-0.134609 0.705391,-0.66887 1.569391,-1.190609 1.911653,-1.149913 1.858435,-1.124869 1.728,-0.774261 -0.05739,0.158609 -0.427826,0.481044 -0.823304,0.725218 -0.542609,0.329739 -0.765913,0.607304 -0.917217,1.120695 -0.248348,0.859827 -0.248348,1.36174 -0.0042,1.838609 0.187826,0.363131 0.196174,0.363131 0.427826,0.0407 0.273391,-0.391305 0.289043,-0.281739 0.06574,0.346435 -0.216,0.594782 -0.643826,0.57913 -0.880696,-0.03235 m 3.008348,-1.353392 c -0.457043,-0.378782 -0.485217,-0.460174 -0.301565,-0.884869 0.24,-0.545739 0.489391,-0.574957 1.064348,-0.117913 0.358956,0.289043 0.395478,0.403826 0.248348,0.823304 -0.220174,0.648 -0.408,0.680348 -1.011131,0.179478 m 2.457392,-0.130434 c -0.23687,-0.448696 -0.08139,-1.650783 0.281739,-2.278957 l 0.256695,-0.444522 -0.102261,0.444522 c -0.281739,1.190609 -0.293217,1.601739 -0.07722,1.870957 0.203478,0.260869 0.244174,0.256695 0.444522,-0.03235 0.265043,-0.374609 0.284869,-0.256696 0.05739,0.36313 -0.196174,0.549913 -0.598956,0.590609 -0.859826,0.07722 m 6.489392,-0.530087 c 0.09391,-0.183653 0.256695,-0.333913 0.358956,-0.333913 0.106435,0 0.05739,-0.154435 -0.109565,-0.350609 -0.28487,-0.326609 -0.289044,-0.374609 -0.024,-0.790957 0.374609,-0.598956 1.060174,-1.043478 1.394087,-0.913043 0.412174,0.166956 0.175304,0.558261 -0.305739,0.500869 -0.23687,-0.024 -0.525913,0.07722 -0.648,0.232696 -0.358957,0.448696 0.05739,0.69287 1.109217,0.648 0.770087,-0.03235 0.913044,0.0083 0.831652,0.228522 -0.05739,0.14713 -0.265043,0.269217 -0.464347,0.273391 -0.196174,0 -0.803479,0.192 -1.336696,0.419478 -0.892174,0.382957 -0.962087,0.391305 -0.803478,0.08557 m 9.4852168,-1.699826 c 0.03235,-1.12487 -0.06574,-4.165566 -0.220174,-6.758609 -0.358956,-6.02087 -0.374608,-6.876522 -0.151304,-7.112349 0.134609,-0.134608 0.358957,0.244174 0.806609,1.353392 0.635478,1.581913 0.673043,2.097391 0.09391,1.312696 l -0.322435,-0.440348 -0.0042,0.709565 c 0,0.38713 0.109565,2.298783 0.248348,4.246957 0.326609,4.556869 0.322435,6.517565 -0.0042,7.663304 -0.142957,0.50087 -0.314087,0.945392 -0.382957,0.986087 -0.06574,0.04487 -0.09391,-0.84 -0.06574,-1.960695 M -22.713438,34.110069 c 0.0042,-0.08139 0.570782,-0.611478 1.263652,-1.182261 0.69287,-0.574956 1.507826,-1.312696 1.817739,-1.642435 0.489392,-0.525913 0.534261,-0.652174 0.354783,-0.949565 -0.281739,-0.464348 -0.265044,-0.970435 0.0407,-1.231304 0.346434,-0.301566 0.60313,-0.07722 0.60313,0.525913 0,0.277565 0.07304,0.558261 0.166957,0.619826 0.309913,0.196174 0.196173,0.648 -0.134609,0.542609 -0.211826,-0.06887 -0.391305,0.05739 -0.603131,0.427826 -0.378782,0.673043 -3.525913,3.256695 -3.509217,2.893565 m 3.823304,-4.479652 c -0.05739,-0.102261 -0.179478,-0.183653 -0.265043,-0.183653 -0.08974,0 -0.158609,0.08139 -0.158609,0.183653 0,0.09391 0.117913,0.175304 0.265044,0.175304 0.142956,0 0.216,-0.08139 0.158608,-0.175304 m 7.528696,3.151304 c 0.549913,-0.284869 0.472696,-0.554087 -0.126261,-0.464348 -0.570782,0.08974 -0.673043,-0.109565 -0.196173,-0.378782 0.333913,-0.183653 1.556869,-0.05739 1.556869,0.162782 0,0.244174 -0.60313,0.664696 -1.109217,0.770087 -0.464348,0.09809 -0.47687,0.08974 -0.130435,-0.08974 m -21.497744,-1.283477 c 0.513391,-0.913044 0.530087,-0.986087 0.187826,-0.986087 -0.326608,0 -0.329739,-0.248348 -0.0084,-0.525913 0.301566,-0.26087 0.603131,-0.09809 0.603131,0.322435 0,0.322434 -0.937044,1.973217 -1.120696,1.973217 -0.05739,0 0.09809,-0.354783 0.338087,-0.782609 m 23.1026098,-0.158608 -0.3787828,-0.415305 0.3673038,-0.485217 0.367305,-0.481044 0.806608,0.790957 0.436174,-0.423652 c 0.457044,-0.448696 0.795131,-0.374609 1.169739,0.24 0.138783,0.228521 0.09391,0.382956 -0.192,0.676174 l -0.367304,0.378782 -0.493565,-0.367304 -0.50087,-0.370435 -0.412174,0.440348 -0.423652,0.436174 m 0.151305,-3.84 c -0.02087,-0.941218 -0.08557,-1.753044 -0.138783,-1.813566 -0.05739,-0.05739 -0.403826,0.07722 -0.7700868,0.297392 -0.925565,0.554087 -0.844174,0.24 0.09809,-0.378783 0.5947818,-0.391304 0.7460868,-0.587478 0.6886958,-0.884869 -0.0407,-0.211827 -0.117914,-1.259479 -0.175305,-2.331131 -0.05739,-1.067478 -0.175304,-3.089739 -0.265043,-4.483826 -0.154435,-2.376 -0.106435,-3.395479 0.151304,-3.391305 0.109565,0.0042 0.900522,1.854261 1.133217,2.653566 0.126261,0.444521 0.126261,0.444521 -0.236869,0.106434 -0.199304,-0.187826 -0.391304,-0.305739 -0.427826,-0.265043 -0.03235,0.0407 0.0042,0.868174 0.08139,1.842783 0.08139,0.978782 0.192,2.527304 0.248348,3.457043 0.134609,2.176696 0.162783,2.258087 0.590609,1.850087 0.305739,-0.281739 0.314087,-0.350609 0.08139,-0.615652 -0.14713,-0.162783 -0.256696,-0.412174 -0.256696,-0.562435 0,-0.354782 0.611479,-0.921391 0.84,-0.774261 0.216,0.142957 0.199305,1.866783 -0.01669,1.866783 -0.08974,0 -0.342261,0.220174 -0.570783,0.493565 -0.346435,0.408 -0.415304,0.673044 -0.415304,1.667479 -0.0083,1.165565 -0.314087,2.976 -0.505044,2.976 -0.05322,0 -0.113739,-0.765913 -0.134608,-1.708174 m 1.548521,-4.57774 c -0.109565,-0.281739 -0.403826,-0.370434 -0.403826,-0.117913 0,0.187826 0.187826,0.382957 0.363131,0.382957 0.07304,0 0.09391,-0.117913 0.03652,-0.265044 m 4.948174,5.910261 c -0.329739,-0.538434 0.192,-3.166956 0.619827,-3.166956 0.07722,0 -0.0083,0.338087 -0.187826,0.754435 -0.370435,0.84 -0.415305,1.328347 -0.162783,1.723826 0.151304,0.236869 0.187826,0.236869 0.333913,0 0.207652,-0.342261 0.220174,-0.147131 0.0083,0.432 -0.175305,0.481043 -0.419479,0.583304 -0.611479,0.256695 M -13.887699,28.117373 c -0.08974,-0.252522 -0.158608,-0.525913 -0.158608,-0.615652 0,-0.293217 0.713739,-2.144348 0.799304,-2.058783 0.0407,0.04487 -0.05322,0.47687 -0.220174,0.953739 -0.318261,0.933914 -0.232696,1.569392 0.192,1.398261 0.305739,-0.117913 0.338087,0.26087 0.04904,0.562435 -0.30574,0.318261 -0.468522,0.26087 -0.652174,-0.24 m -3.904696,-1.308522 c -0.203478,-0.399652 0.192,-1.866782 0.628174,-2.311304 0.232695,-0.23687 0.236869,-0.220174 0.04904,0.158609 -0.391304,0.79513 -0.513391,1.483826 -0.309913,1.740521 0.158609,0.196174 0.220174,0.199305 0.333913,0.01252 0.109565,-0.175304 0.142957,-0.166956 0.142957,0.04487 0.0042,0.289043 -0.314087,0.701217 -0.534261,0.701217 -0.07304,0 -0.211826,-0.154435 -0.309913,-0.346435 m -10.642428,-0.256693 c -0.26087,-0.408 -0.26087,-0.517566 -0.0167,-1.381566 0.151304,-0.517565 0.346435,-1.056 0.440348,-1.202087 0.224348,-0.354782 0.211826,-0.236869 -0.07304,0.73774 -0.329739,1.145739 -0.130434,1.883478 0.374609,1.361739 0.142957,-0.151305 0.171131,-0.106435 0.09809,0.17113 -0.17113,0.680348 -0.513391,0.810783 -0.823304,0.318261 m -4.85009,-0.974609 c 0,-0.09391 0.358956,-0.382956 0.799304,-0.652174 0.440348,-0.265043 1.129043,-0.803478 1.537043,-1.194782 0.709566,-0.680348 0.725218,-0.717913 0.440348,-1.043478 -0.269217,-0.30574 -0.273391,-0.382957 -0.04069,-0.810783 0.142956,-0.26087 0.38713,-0.497739 0.549913,-0.534261 0.228521,-0.04487 0.289043,0.07304 0.289043,0.566609 0,0.342261 0.07722,0.668869 0.171131,0.729391 0.273391,0.179478 0.196174,0.652174 -0.09809,0.590609 -0.147131,-0.03235 -0.643826,0.318261 -1.10087,0.774261 -0.81913,0.823304 -2.54713,1.891826 -2.54713,1.577739 m 3.166956,-3.69287 c -0.17113,-0.179478 -0.314087,0.09391 -0.17113,0.329739 0.106435,0.183652 0.14713,0.183652 0.203478,0 0.03652,-0.122087 0.024,-0.269217 -0.03235,-0.329739 m -1.858435,1.251131 c -0.179478,-0.183653 -0.134608,-1.088348 0.05322,-1.210435 0.09809,-0.06156 0.171131,0.09391 0.171131,0.367304 0,0.399652 0.0407,0.440348 0.256696,0.252522 0.138782,-0.122087 0.252522,-0.142957 0.252522,-0.04904 0,0.252522 -0.603131,0.778435 -0.733566,0.639653 m 7.887653,-1.287653 c -0.199305,-0.505043 -0.851479,-1.263652 -0.851479,-0.990261 0,0.07722 -0.117913,0.0407 -0.256695,-0.08139 -0.342261,-0.293217 -0.326609,-0.884869 0.02087,-0.884869 0.151305,0 0.525913,0.284869 0.835827,0.635478 l 0.55826,0.635478 0.199305,-0.986087 c 0.216,-1.100869 0.457043,-1.381565 0.782608,-0.917217 0.26087,0.370435 0.122087,0.933913 -0.154434,0.643826 -0.333913,-0.350609 -0.412174,-0.199305 -0.530087,1.043478 -0.130435,1.398261 -0.301566,1.650783 -0.603131,0.900522 m 9.876522,-1.056 c -0.199304,-0.391304 -0.03652,-1.483826 0.314087,-2.066087 0.183653,-0.301565 0.199305,-0.293218 0.07722,0.102261 -0.23687,0.81913 -0.171131,1.507826 0.138782,1.483826 0.220174,-0.0167 0.256696,0.06156 0.154435,0.342261 -0.179478,0.509217 -0.464348,0.566608 -0.684522,0.138782 m 3.085566,-0.05739 c -0.26087,-0.269217 -0.23687,-0.949565 0.05739,-1.732174 l 0.24,-0.619826 -0.102261,0.746087 c -0.113739,0.900522 0.0407,1.516174 0.289044,1.109217 0.134608,-0.220174 0.158608,-0.216 0.162782,0.02817 0.0042,0.432 -0.403826,0.725218 -0.648,0.468522 m -7.687304,-1.907478 c -0.142957,-0.273392 -0.102261,-0.549913 0.183652,-1.231305 0.199304,-0.485217 0.468522,-0.974608 0.598956,-1.088348 0.333913,-0.284869 0.297392,-0.12626 -0.166956,0.725218 -0.432,0.790956 -0.432,1.593391 0,1.222956 0.281739,-0.24 0.301565,-0.08974 0.06156,0.382957 -0.228522,0.436174 -0.448696,0.432 -0.676174,-0.01252 M -29.24874,18.537199 c -0.203478,-0.211826 -0.113739,-1.304348 0.147131,-1.834435 0.374608,-0.754435 0.464348,-0.643826 0.14713,0.183652 -0.273391,0.713739 -0.216,1.357566 0.106435,1.153044 0.09391,-0.06574 0.17113,-0.03652 0.17113,0.05322 0,0.24 -0.436174,0.583305 -0.570782,0.444522 m 13.716522,-5.06609 c 0.709565,-0.293217 0.562435,-0.538435 -0.256696,-0.423652 l -0.721043,0.09809 0.399652,-0.342261 c 0.590609,-0.497739 1.728,-0.423652 1.728,0.117913 0,0.281739 -0.868174,0.790957 -1.312696,0.761739 -0.211826,-0.01252 -0.162782,-0.07722 0.162783,-0.211826 m 0,0"
               inkscape:connector-curvature="0"
               style="fill:#ffffff;fill-opacity:0.85483871;fill-rule:nonzero;stroke:none" />
          </g>
        </g>
      </g>
    </g>
  </g>
</svg>
