<?xml version="1.0" encoding="UTF-8" standalone="no"?>
<!-- Created with Inkscape (http://www.inkscape.org/) -->

<svg
   xmlns:dc="http://purl.org/dc/elements/1.1/"
   xmlns:cc="http://creativecommons.org/ns#"
   xmlns:rdf="http://www.w3.org/1999/02/22-rdf-syntax-ns#"
   xmlns:svg="http://www.w3.org/2000/svg"
   xmlns="http://www.w3.org/2000/svg"
   xmlns:xlink="http://www.w3.org/1999/xlink"
   xmlns:sodipodi="http://sodipodi.sourceforge.net/DTD/sodipodi-0.dtd"
   xmlns:inkscape="http://www.inkscape.org/namespaces/inkscape"
   width="48"
   height="48"
   id="svg5453"
   version="1.1"
   inkscape:version="0.91 r13725"
   sodipodi:docname="package_settings.svg">
  <defs
     id="defs5455">
    <linearGradient
       gradientTransform="matrix(0.13837079,0,0,0.13837079,112.46829,-78.119558)"
       inkscape:collect="always"
       xlink:href="#linearGradient4264"
       id="linearGradient5299"
       gradientUnits="userSpaceOnUse"
       x1="-318.57867"
       y1="653.95679"
       x2="-318.57867"
       y2="301.29816" />
    <linearGradient
       inkscape:collect="always"
       id="linearGradient4264">
      <stop
         style="stop-color:#0a80fd;stop-opacity:1"
         offset="0"
         id="stop4266" />
      <stop
         style="stop-color:#56c5fa;stop-opacity:1"
         offset="1"
         id="stop4268" />
    </linearGradient>
  </defs>
  <sodipodi:namedview
     id="base"
     pagecolor="#ffffff"
     bordercolor="#666666"
     borderopacity="1.0"
     inkscape:pageopacity="0"
     inkscape:pageshadow="2"
     inkscape:zoom="4"
     inkscape:cx="-39.601104"
     inkscape:cy="15.968792"
     inkscape:document-units="px"
     inkscape:current-layer="g4370"
     showgrid="true"
     fit-margin-top="0"
     fit-margin-left="0"
     fit-margin-right="0"
     fit-margin-bottom="0"
     inkscape:window-width="1366"
     inkscape:window-height="634"
     inkscape:window-x="0"
     inkscape:window-y="36"
     inkscape:window-maximized="1"
     inkscape:showpageshadow="false"
     borderlayer="true"
     showguides="false">
    <inkscape:grid
       type="xygrid"
       id="grid4063" />
    <sodipodi:guide
       position="1.1650391e-05,32.000026"
       orientation="32,0"
       id="guide4157" />
    <sodipodi:guide
       position="1.1650391e-05,2.6367188e-05"
       orientation="0,32"
       id="guide4159" />
    <sodipodi:guide
       position="32.000012,2.6367188e-05"
       orientation="-32,0"
       id="guide4161" />
    <sodipodi:guide
       position="32.000012,32.000026"
       orientation="0,-32"
       id="guide4163" />
    <sodipodi:guide
       position="2.0000117,30.000026"
       orientation="28,0"
       id="guide4167" />
    <sodipodi:guide
       position="2.0000117,2.0000264"
       orientation="0,28"
       id="guide4169" />
    <sodipodi:guide
       position="30.000012,2.0000264"
       orientation="-28,0"
       id="guide4171" />
    <sodipodi:guide
       position="30.000012,30.000026"
       orientation="0,-28"
       id="guide4173" />
    <sodipodi:guide
       position="2.0000117,30.000026"
       orientation="28,0"
       id="guide4181" />
    <sodipodi:guide
       position="2.0000117,2.0000264"
       orientation="0,14"
       id="guide4183" />
    <sodipodi:guide
       position="16.000012,2.0000264"
       orientation="-28,0"
       id="guide4185" />
    <sodipodi:guide
       position="16.000012,30.000026"
       orientation="0,-14"
       id="guide4187" />
    <sodipodi:guide
       position="9.0000117,23.000026"
       orientation="14,0"
       id="guide4193" />
    <sodipodi:guide
       position="9.0000117,9.0000264"
       orientation="0,14.000031"
       id="guide4195" />
    <sodipodi:guide
       position="23.000042,9.0000264"
       orientation="-14,0"
       id="guide4197" />
    <sodipodi:guide
       position="23.000042,23.000026"
       orientation="0,-14.000031"
       id="guide4199" />
  </sodipodi:namedview>
  <metadata
     id="metadata5458">
    <rdf:RDF>
      <cc:Work
         rdf:about="">
        <dc:format>image/svg+xml</dc:format>
        <dc:type
           rdf:resource="http://purl.org/dc/dcmitype/StillImage" />
        <dc:title></dc:title>
      </cc:Work>
    </rdf:RDF>
  </metadata>
  <g
     inkscape:label="Capa 1"
     inkscape:groupmode="layer"
     id="layer1"
     transform="translate(-384.57143,-499.798)">
    <g
       style="display:inline;enable-background:new"
       id="g4238"
       transform="translate(225.81911,462.44565)">
      <g
         style="display:inline"
         id="layer1-8"
         transform="matrix(0.22655187,0,0,0.22655187,106.94841,54.31088)">
        <g
           style="display:none"
           id="layer6" />
        <g
           id="g4027" />
        <g
           id="g4061" />
        <g
           id="g3751" />
        <g
           id="g3782" />
        <g
           id="g3725" />
        <g
           id="g4370"
           transform="matrix(4.4140002,0,0,4.4140002,59.275211,39.357303)">
          <g
             id="g4184"
             transform="translate(-4.9999999,10)">
            <circle
               style="display:inline;opacity:1;fill:url(#linearGradient5299);fill-opacity:1;stroke:none;stroke-width:15.44461155;stroke-linecap:round;stroke-linejoin:round;stroke-miterlimit:4;stroke-dasharray:none;stroke-opacity:1;enable-background:new"
               id="path4217"
               cx="67.375"
               cy="-11.875001"
               r="24" />
            <path
               sodipodi:nodetypes="ssccscsssssscssscsssscsssccsscssccccscscscsccccccscccsccsssscsscccsssssscsssscsssssscscs"
               style="display:inline;fill:#0b3969;fill-opacity:1;stroke:none;stroke-opacity:1;enable-background:new"
               d="m 54.897053,-1.0027276 c 0.943924,-0.852347 1.929042,-1.737255 2.189149,-1.966463 0.260108,-0.229198 0.47446,-0.440174 0.476328,-0.468822 0.0032,-0.0523 -2.762539,-1.913528 -2.887913,-1.943274 -0.03711,-0.0084 -0.0913,0.06079 -0.12161,0.156272 -0.0675,0.212679 -0.92895,3.434813 -1.409022,5.27054158 -0.102407,0.391697 -0.103979,0.501474 -0.0074,0.501474 0.0241,0 0.816117,-0.6973766 1.760051,-1.54972858 z m 26.132472,1.37823558 c 0.502614,-0.6589616 0.784273,-2.08485158 0.66433,-3.36317858 -0.136463,-1.454264 -0.532185,-2.460711 -1.290894,-3.283171 -0.562739,-0.610012 -1.039486,-0.742963 -1.584354,-0.441842 -0.849524,0.469484 -1.655476,0.967203 -1.775303,1.09634 -0.357443,0.385229 -0.332884,1.012423 0.07107,1.813688 0.408438,0.810302 0.852332,1.272939 1.84007,1.917791 1.01908,0.665306 1.432695,1.17392998 1.655987,2.03637558 0.0717,0.276723 0.145458,0.392367 0.251934,0.394694 0.02002,5.56e-4 0.09528,-0.07641 0.167216,-0.170697 z M 58.96452,-5.6036896 c 1.927668,-3.436722 4.387141,-7.7011124 5.914642,-10.2551774 0.333147,-0.557027 0.605707,-1.02891 0.605707,-1.048627 0,-0.06373 -2.868112,-1.826557 -2.944283,-1.809693 -0.07662,0.01698 -2.640894,4.333424 -4.461436,7.5099 -0.577134,1.006951 -1.434885,2.4402944 -1.90614,3.1851984 -0.471252,0.744914 -0.928031,1.467104 -1.015074,1.604867 -0.0913,0.144546 -0.138612,0.269302 -0.11181,0.295002 0.129075,0.123729 3.022865,1.975917 3.066365,1.962647 0.02788,-0.0084 0.411288,-0.658357 0.852029,-1.444117 z m 18.73586,-1.220783 c 0.744916,-0.423594 1.399162,-0.812145 1.453886,-0.863455 0.09738,-0.0913 0.09361,-0.103454 -0.181356,-0.578357 -0.15448,-0.266794 -0.529837,-0.918747 -0.834137,-1.448782 -0.304299,-0.5300374 -0.588379,-0.9706014 -0.631291,-0.9790404 -0.113654,-0.02232 -2.929293,1.6204154 -2.948528,1.7202964 -0.01604,0.08312 1.462681,2.68994 1.626892,2.867996 0.04717,0.05115 0.10251,0.08375 0.122982,0.07232 0.02044,-0.01144 0.646636,-0.367347 1.391552,-0.790942 z m 5.610408,-2.755 c 0.02096,-0.03753 0.03312,-0.8394004 0.02683,-1.7818884 l -0.01133,-1.713626 -3.16847,-0.01342 c -2.764687,-0.01173 -3.166309,-0.0042 -3.151549,0.0631 0.0094,0.04214 0.450467,0.849944 0.980369,1.795206 l 0.963458,1.7186614 0.208602,0.01541 c 0.114745,0.0084 1.087296,0.0084 2.161245,0 1.543645,-0.01205 1.960634,-0.02956 1.990842,-0.08354 z m -10.024163,-0.07348 c 0.0084,-0.0261 -0.393082,-0.7833524 -0.892876,-1.6826774 l -0.908729,-1.635126 -3.863423,0 -3.863417,0 -0.912247,1.651658 c -0.501725,0.908399 -0.900736,1.6702444 -0.886692,1.6929794 0.03637,0.0588 11.307751,0.03207 11.327384,-0.02683 z m -16.595329,-0.28346 c 0.103354,-0.1790724 0.530131,-0.9172054 0.948474,-1.6403184 0.418341,-0.723103 0.760627,-1.338617 0.760627,-1.367797 0,-0.03564 -1.0674,-0.04864 -3.242712,-0.03962 l -3.242705,0.01342 -0.01739,0.364643 c -0.0094,0.20055 -0.0011,0.956535 0.01886,1.679961 l 0.03627,1.3153064 2.275329,0 2.275329,0 z m 19.107738,-0.6641234 c 1.322916,-0.728141 1.302297,-0.715344 1.302297,-0.808442 0,-0.09067 -0.697054,-1.323168 -3.063471,-5.416569 -2.601169,-4.499496 -3.746744,-6.482906 -4.508125,-7.805277 -0.75049,-1.303481 -0.927991,-1.54641 -1.249908,-1.71064 -0.253557,-0.129355 -0.658858,-0.149459 -0.920949,-0.0457 -0.249656,0.09884 -1.129367,0.611103 -1.362013,0.793077 -0.373092,0.291837 -0.514533,0.868917 -0.324468,1.32382 0.102514,0.24539 0.03281,0.123098 2.493448,4.371283 3.873815,6.68788 5.865044,10.0605884 5.988216,10.1427144 0.0304,0.02034 0.172753,-0.02914 0.316237,-0.109798 0.143469,-0.08071 0.741404,-0.4112154 1.328736,-0.7344964 z m -9.568214,-7.696601 c 0.616869,-1.029233 0.707233,-1.209344 0.74501,-1.484985 0.07851,-0.572552 -0.222815,-0.956209 -1.174892,-1.496088 -0.539743,-0.306062 -0.627466,-0.339244 -0.943954,-0.357129 -0.432493,-0.02442 -0.646018,0.06646 -0.943693,0.4018 -0.22294,0.251138 -1.085744,1.786731 -1.084214,1.929653 5.57e-4,0.05104 0.537489,0.411201 1.419498,0.952096 0.780237,0.478489 1.434799,0.871138 1.454567,0.872542 0.01981,8.91e-4 0.257226,-0.366643 0.527678,-0.817889 z"
               id="path3319"
               inkscape:connector-curvature="0" />
            <path
               inkscape:connector-curvature="0"
               id="path6"
               d="m 74.334154,-0.55073462 c -0.02055,-0.18274 -0.233624,-0.320061 -0.417863,-0.320061 -0.595669,0 -1.12425,-0.34975898 -1.345927,-0.89067298 -0.226465,-0.554023 -0.08044,-1.200141 0.363496,-1.607363 0.139739,-0.127744 0.156717,-0.341585 0.03952,-0.490127 -0.304871,-0.387149 -0.65139,-0.736859 -1.029735,-1.039942 -0.148156,-0.118892 -0.365528,-0.10235 -0.493997,0.03991 -0.387439,0.429084 -1.083378,0.588558 -1.621148,0.364173 -0.559634,-0.235414 -0.912537,-0.802497 -0.878001,-1.411226 0.01136,-0.191204 -0.128373,-0.357449 -0.318997,-0.379651 -0.485531,-0.05616 -0.97532,-0.0579 -1.462303,-0.0039 -0.188447,0.0208 -0.328186,0.183127 -0.321849,0.371912 0.02119,0.602731 -0.335974,1.159898 -0.890045,1.386848 -0.531339,0.217033 -1.222392,0.05891 -1.609057,-0.36635 -0.127791,-0.140078 -0.341632,-0.157298 -0.490513,-0.04126 -0.389568,0.305646 -0.743873,0.655647 -1.05155,1.039603 -0.120006,0.149268 -0.102354,0.365624 0.03879,0.494045 0.452399,0.409688 0.598474,1.061417 0.363447,1.621825 -0.224385,0.534289 -0.779183,0.87862998 -1.414321,0.87862998 -0.206102,-0.0066 -0.352902,0.131709 -0.375443,0.319093 -0.05718,0.488337 -0.05785,0.9859126 -0.0028,1.4782156 0.02041,0.18351302 0.239961,0.31962402 0.426231,0.31962402 0.566018,-0.01446 1.109449,0.335974 1.337413,0.890722 0.227239,0.554024 0.08116,1.199754 -0.363447,1.607315 -0.139062,0.127744 -0.156717,0.341246 -0.03952,0.489788 0.302018,0.384682 0.648585,0.734731 1.028285,1.04033 0.148929,0.120004 0.365624,0.103079 0.494721,-0.03919 0.388891,-0.430149 1.084781,-0.589332 1.620423,-0.364511 0.561037,0.234688 0.91394,0.801722 0.879404,1.410789 -0.01127,0.191301 0.129146,0.357836 0.318996,0.3797 0.248377,0.02898 0.498253,0.04343 0.748807,0.04343 0.237832,0 0.475713,-0.01305 0.713545,-0.03952 0.188495,-0.0208 0.328138,-0.183127 0.321802,-0.372251 -0.02182,-0.602392 0.335973,-1.159559 0.889319,-1.386122 0.534917,-0.218484 1.223068,-0.05857 1.609781,0.366254 0.128518,0.139788 0.340859,0.156668 0.490563,0.04101 0.388842,-0.304921 0.742421,-0.654631 1.051551,-1.039651 0.119955,-0.14893 0.103025,-0.365624 -0.03885,-0.493997 -0.452399,-0.409689 -0.5992,-1.061515 -0.364173,-1.621536 0.220951,-0.527177 0.755143,-0.881144 1.329723,-0.881144 l 0.08038,0.0021 c 0.186368,0.01514 0.357837,-0.128421 0.380425,-0.31865702 0.05727,-0.488773 0.05795,-0.9859126 0.0029,-1.4782156 z M 67.885306,2.352879 c -1.195594,0 -2.168109,-0.972516 -2.168109,-2.16811002 0,-1.19554558 0.972515,-2.16810858 2.168109,-2.16810858 1.195546,0 2.168061,0.972563 2.168061,2.16810858 0,1.19559402 -0.972515,2.16811002 -2.168061,2.16811002 z"
               style="clip-rule:evenodd;display:inline;fill:#0b3969;fill-opacity:1;fill-rule:evenodd;stroke-width:1.31742239;stroke-miterlimit:4;stroke-dasharray:none;enable-background:new" />
          </g>
        </g>
      </g>
    </g>
  </g>
</svg>
