<?xml version="1.0" encoding="UTF-8" standalone="no"?>
<!-- Created with Inkscape (http://www.inkscape.org/) -->

<svg
   xmlns:dc="http://purl.org/dc/elements/1.1/"
   xmlns:cc="http://creativecommons.org/ns#"
   xmlns:rdf="http://www.w3.org/1999/02/22-rdf-syntax-ns#"
   xmlns:svg="http://www.w3.org/2000/svg"
   xmlns="http://www.w3.org/2000/svg"
   xmlns:xlink="http://www.w3.org/1999/xlink"
   xmlns:sodipodi="http://sodipodi.sourceforge.net/DTD/sodipodi-0.dtd"
   xmlns:inkscape="http://www.inkscape.org/namespaces/inkscape"
   width="48"
   height="48"
   id="svg5453"
   version="1.1"
   inkscape:version="0.91 r13725"
   sodipodi:docname="1password.svg">
  <defs
     id="defs5455">
    <linearGradient
       inkscape:collect="always"
       xlink:href="#linearGradient4143"
       id="linearGradient4340"
       gradientUnits="userSpaceOnUse"
       x1="487.74164"
       y1="985.34576"
       x2="493.5094"
       y2="11.610633" />
    <linearGradient
       id="linearGradient4143"
       inkscape:collect="always">
      <stop
         id="stop4145"
         offset="0"
         style="stop-color:#197cf1;stop-opacity:1" />
      <stop
         id="stop4147"
         offset="1"
         style="stop-color:#20bcfa;stop-opacity:1" />
    </linearGradient>
  </defs>
  <sodipodi:namedview
     id="base"
     pagecolor="#ffffff"
     bordercolor="#666666"
     borderopacity="1.0"
     inkscape:pageopacity="0"
     inkscape:pageshadow="2"
     inkscape:zoom="4"
     inkscape:cx="15.808106"
     inkscape:cy="15.968792"
     inkscape:document-units="px"
     inkscape:current-layer="g4182"
     showgrid="true"
     fit-margin-top="0"
     fit-margin-left="0"
     fit-margin-right="0"
     fit-margin-bottom="0"
     inkscape:window-width="1366"
     inkscape:window-height="634"
     inkscape:window-x="0"
     inkscape:window-y="36"
     inkscape:window-maximized="1"
     inkscape:showpageshadow="false"
     borderlayer="true"
     showguides="false">
    <inkscape:grid
       type="xygrid"
       id="grid4063" />
    <sodipodi:guide
       position="1.1650391e-05,32.000026"
       orientation="32,0"
       id="guide4157" />
    <sodipodi:guide
       position="1.1650391e-05,2.6367188e-05"
       orientation="0,32"
       id="guide4159" />
    <sodipodi:guide
       position="32.000012,2.6367188e-05"
       orientation="-32,0"
       id="guide4161" />
    <sodipodi:guide
       position="32.000012,32.000026"
       orientation="0,-32"
       id="guide4163" />
    <sodipodi:guide
       position="2.0000117,30.000026"
       orientation="28,0"
       id="guide4167" />
    <sodipodi:guide
       position="2.0000117,2.0000264"
       orientation="0,28"
       id="guide4169" />
    <sodipodi:guide
       position="30.000012,2.0000264"
       orientation="-28,0"
       id="guide4171" />
    <sodipodi:guide
       position="30.000012,30.000026"
       orientation="0,-28"
       id="guide4173" />
    <sodipodi:guide
       position="2.0000117,30.000026"
       orientation="28,0"
       id="guide4181" />
    <sodipodi:guide
       position="2.0000117,2.0000264"
       orientation="0,14"
       id="guide4183" />
    <sodipodi:guide
       position="16.000012,2.0000264"
       orientation="-28,0"
       id="guide4185" />
    <sodipodi:guide
       position="16.000012,30.000026"
       orientation="0,-14"
       id="guide4187" />
    <sodipodi:guide
       position="9.0000117,23.000026"
       orientation="14,0"
       id="guide4193" />
    <sodipodi:guide
       position="9.0000117,9.0000264"
       orientation="0,14.000031"
       id="guide4195" />
    <sodipodi:guide
       position="23.000042,9.0000264"
       orientation="-14,0"
       id="guide4197" />
    <sodipodi:guide
       position="23.000042,23.000026"
       orientation="0,-14.000031"
       id="guide4199" />
  </sodipodi:namedview>
  <metadata
     id="metadata5458">
    <rdf:RDF>
      <cc:Work
         rdf:about="">
        <dc:format>image/svg+xml</dc:format>
        <dc:type
           rdf:resource="http://purl.org/dc/dcmitype/StillImage" />
        <dc:title></dc:title>
      </cc:Work>
    </rdf:RDF>
  </metadata>
  <g
     inkscape:label="Capa 1"
     inkscape:groupmode="layer"
     id="layer1"
     transform="translate(-384.57143,-499.798)">
    <g
       style="display:inline;enable-background:new"
       id="g4238"
       transform="translate(225.81911,462.44565)">
      <g
         style="display:inline"
         id="layer1-8"
         transform="matrix(0.22655187,0,0,0.22655187,106.94841,54.31088)">
        <g
           style="display:none"
           id="layer6" />
        <g
           id="g4027" />
        <g
           id="g4061" />
        <g
           id="g3751" />
        <g
           id="g3782" />
        <g
           id="g3725" />
        <g
           id="g4370"
           transform="matrix(4.4140002,0,0,4.4140002,59.275211,39.357303)">
          <g
             id="g4182"
             transform="matrix(1.7142857,0,0,1.7142857,-30.839285,-12.375017)">
            <g
               transform="matrix(0.01807472,0,0,0.01807472,49.708341,1.4583426)"
               style="opacity:1;fill:#1d9df6;fill-opacity:1;stroke:none;stroke-width:9.51243782;stroke-miterlimit:4;stroke-dasharray:none;stroke-opacity:1"
               id="g4198">
              <path
                 style="opacity:1;fill:url(#linearGradient4340);fill-opacity:1;stroke:none;stroke-width:9.51243782;stroke-miterlimit:4;stroke-dasharray:none;stroke-opacity:1"
                 inkscape:connector-curvature="0"
                 d="m 946.23,206.651 c -0.3,-23 -18,-42 -40.899,-44.101 -190.3,-17.8 -345.601,-119.5 -396.8,-156.7 -10.7,-7.8 -25.2,-7.8 -35.9,0 -51.1,37.2 -206.4,138.9 -396.7,156.7 -22.9,2.101 -40.5,21.101 -40.9,44.101 -2.3,150.1 21.8,659.699 444.1,773.1 7.5,2 15.4,2 22.9,0 422.3,-113.3 446.399,-623.001 444.199,-773.1 z"
                 id="path4168"
                 transform="matrix(1.5787247,0,0,1.5787246,-516.37553,-516.37503)" />
              <path
                 style="opacity:0.675;fill:#ffffff;fill-opacity:1;stroke:none;stroke-width:9.51243782;stroke-miterlimit:4;stroke-dasharray:none;stroke-opacity:1"
                 inkscape:connector-curvature="0"
                 d="m 946.23,206.651 c -0.3,-23 -18,-42 -40.899,-44.101 -190.3,-17.8 -345.601,-119.5 -396.8,-156.7 -10.7,-7.8 -25.2,-7.8 -35.9,0 -51.1,37.2 -206.4,138.9 -396.7,156.7 -22.9,2.101 -40.5,21.101 -40.9,44.101 -2.3,150.1 21.8,659.699 444.1,773.1 7.5,2 15.4,2 22.9,0 422.3,-113.3 446.399,-623.001 444.199,-773.1 z"
                 id="path4168-0"
                 transform="matrix(1.213339,0,0,1.2249729,-337.98103,-329.34711)" />
              <path
                 d="M 353.812,0 C 263.925,0 191.25,72.675 191.25,162.562 c 0,19.125 3.825,38.25 9.562,57.375 L 0,420.75 l 0,95.625 95.625,0 0,-57.375 57.375,0 0,-57.375 57.375,0 86.062,-86.062 c 17.213,5.737 36.338,9.562 57.375,9.562 89.888,0 162.562,-72.675 162.562,-162.562 C 516.374,72.676 443.7,0 353.812,0 Z m 47.813,172.125 c -32.513,0 -57.375,-24.862 -57.375,-57.375 0,-32.513 24.862,-57.375 57.375,-57.375 32.513,0 57.375,24.862 57.375,57.375 0,32.513 -24.862,57.375 -57.375,57.375 z"
                 id="path5-1"
                 inkscape:connector-curvature="0"
                 style="fill:#1d9df6;fill-opacity:1;stroke:none" />
            </g>
          </g>
        </g>
      </g>
    </g>
  </g>
</svg>
