<svg xmlns="http://www.w3.org/2000/svg" viewBox="0 0 48 48"><defs><linearGradient id="0" y1="546.93" x2="0" y2="516.48" gradientUnits="userSpaceOnUse"><stop stop-color="#197cf1"/><stop offset="1" stop-color="#20bcfa"/></linearGradient></defs><g transform="matrix(.73156 0 0 .73108 7.293 8.661)" fill="#fff" fill-opacity=".878"><circle cx="400.57" cy="531.8" r="14" transform="matrix(2.22968 0 0 2.23114-870.31-1165.53)" fill="url(#0)" stroke="url(#0)" fill-opacity="1" stroke-width="1.427"/><path d="m43.95 26.14l-5.993-5.996c-.132-.131-.312-.206-.496-.206-.188 0-.365.074-.496.206l-5.995 5.994c-.61.611-.792 1.545-.462 2.344.331.797 1.107 1.334 1.972 1.334h1.021c-.936 3.01-3.152 5.564-6.03 6.887l-1.469-25.716c1.671-1.053 2.783-2.918 2.783-5.04 0-3.287-2.663-5.952-5.949-5.952-3.284 0-5.949 2.663-5.949 5.948 0 2.122 1.112 3.981 2.783 5.03l-1.469 25.725c-2.877-1.322-5.095-3.875-6.03-6.887h1.021c.863 0 1.643-.537 1.973-1.334.331-.799.147-1.725-.462-2.336l-5.995-5.996c-.131-.132-.312-.208-.496-.208-.188 0-.365.072-.497.204l-5.995 5.995c-.61.61-.793 1.545-.462 2.342.331.797 1.107 1.334 1.972 1.334h.807c1.549 8.93 9.375 15.853 18.798 15.853 9.423 0 17.25-6.923 18.799-15.853h.806c.863 0 1.643-.537 1.973-1.334.33-.798.147-1.732-.465-2.342"/></g><g transform="matrix(.03862 0 0 .03862 5.816-4.889)" fill="#da4453"><path d="m441.75 297.79c-4.237 0-6.867 2.028-7.889 6.119-1.899 7.303-4.03 20.899-6.372 40.761-6.867 2.195-13.486 4.985-19.926 8.344l-30.24-23.466c-1.899-1.461-3.816-2.175-5.715-2.175-3.214 0-10.09 5.23-20.684 15.677-10.593 10.448-17.78 18.257-21.594 23.516-1.315 1.899-1.972 3.597-1.972 5.057 0 1.754.714 3.508 2.175 5.26 9.789 11.836 17.62 21.912 23.466 30.24-3.653 6.719-6.502 13.459-8.547 20.18l-40.761 6.119c-1.606.293-2.977 1.274-4.147 2.883-1.17 1.606-1.77 3.255-1.77 5.01v48.651c0 1.902.6 3.625 1.77 5.158 1.17 1.536 2.689 2.44 4.602 2.731l40.1 5.917c2.044 7.158 5.01 14.403 8.951 21.696-2.628 3.653-6.575 8.826-11.834 15.475-5.259 6.649-8.987 11.496-11.176 14.565-1.17 1.611-1.72 3.303-1.72 5.057 0 1.899.495 3.546 1.517 5.01 5.697 7.892 17.749 20.16 36.16 36.817 1.608 1.608 3.417 2.427 5.462 2.427 2.192 0 4.052-.66 5.512-1.972l30.9-23.466c5.993 3.069 12.565 5.791 19.723 8.142l6.119 40.31c.145 1.899.996 3.46 2.529 4.703 1.533 1.245 3.316 1.871 5.361 1.871h48.651c4.242 0 6.915-2.028 7.94-6.119 1.896-7.306 3.984-20.899 6.322-40.761 6.867-2.192 13.513-4.985 19.926-8.344l30.24 23.668c2.044 1.313 3.963 1.972 5.715 1.972 3.212 0 10.07-5.151 20.583-15.526 10.523-10.372 17.768-18.261 21.696-23.668 1.315-1.461 1.972-3.158 1.972-5.057 0-1.899-.711-3.713-2.174-5.462-10.518-12.858-18.349-22.936-23.466-30.24 2.921-5.407 5.771-12.09 8.547-19.976l40.559-6.119c1.751-.293 3.182-1.274 4.349-2.883 1.168-1.608 1.77-3.256 1.77-5.01v-48.651c0-1.899-.597-3.622-1.77-5.158-1.169-1.513-2.654-2.443-4.552-2.731l-40.1-6.119c-2.192-7.01-5.204-14.187-9-21.493 2.628-3.653 6.575-8.826 11.834-15.475 5.259-6.649 8.984-11.496 11.176-14.565 1.17-1.608 1.77-3.253 1.77-5.01 0-2.045-.543-3.685-1.568-4.855-5.259-7.454-17.311-19.884-36.16-37.27-1.749-1.461-3.565-2.175-5.462-2.175-2.192 0-3.944.66-5.26 1.972l-31.1 23.466c-5.993-3.069-12.565-5.791-19.723-8.142l-6.17-40.31c-.145-1.899-.945-3.461-2.478-4.703-1.536-1.243-3.362-1.871-5.411-1.871h-48.651" fill="#e3f2fe"/><path d="m466.08 410.01c15.489 0 28.693 5.48 39.649 16.436 10.956 10.959 16.436 24.16 16.436 39.649 0 15.489-5.48 28.693-16.436 39.649-10.956 10.959-24.16 16.436-39.649 16.436-15.489 0-28.69-5.477-39.649-16.436-10.956-10.956-16.436-24.16-16.436-39.649 0-15.489 5.477-28.69 16.436-39.649 10.959-10.956 24.16-16.436 39.649-16.436" fill="#1eaaf7"/></g></svg>