<svg xmlns="http://www.w3.org/2000/svg" viewBox="0 0 48 48"><defs><clipPath id="1"><path transform="matrix(15.33333 0 0 11.5 415-125.5)" d="m-24 13c0 1.105-.672 2-1.5 2-.828 0-1.5-.895-1.5-2 0-1.105.672-2 1.5-2 .828 0 1.5.895 1.5 2" fill="#1890d0"/></clipPath><linearGradient gradientUnits="userSpaceOnUse" y2="11.421" x2="23.18" y1="36.02" x1="22.759" id="2"><stop stop-color="#ff9300"/><stop offset="1" stop-color="#ffd702"/></linearGradient><linearGradient gradientUnits="userSpaceOnUse" x2="47" x1="0"><stop stop-color="#a9a3d4"/><stop offset=".47" stop-color="#87baff"/><stop offset="1" stop-color="#89ec85"/></linearGradient><linearGradient y2="500.8" x2="0" y1="546.8" gradientUnits="userSpaceOnUse" id="0"><stop stop-color="#2a2c2f"/><stop offset="1" stop-color="#424649"/></linearGradient></defs><g transform="matrix(1.04348 0 0 1.04348-508.97-525.63)" stroke-width="1.317"><rect width="46" height="46" x="385.57" y="500.8" fill="url(#0)" rx="23" stroke-width="1.515" transform="translate(102.19 2.931)"/><g transform="matrix(1.08333 0 0 1.08333 486.48 500.63)" clip-path="url(#1)" fill="url(#2)"><path d="m16 12h6l10 11-10 13h-6l10-13"/></g></g></svg>