<svg xmlns="http://www.w3.org/2000/svg" viewBox="0 0 48 48"><defs><linearGradient id="0" gradientUnits="userSpaceOnUse" x1="22.23" y1="32.07" x2="22.419" y2="3.766"><stop stop-color="#2e3e46"/><stop offset="1" stop-color="#435a64"/></linearGradient></defs><g transform="matrix(1.71427 0 0 1.71427-14.211-6.488)" enable-background="new"><circle cx="22.292" cy="17.792" r="14" fill="url(#0)"/><path d="m25.543 22.04c-1.905-1.49-.561-7.617-.561-7.617 0 0 2.085 0 2.329 0 .243 0 1.196-.153 1.196-1.294 0-1.403-1.164-1.317-1.164-1.317 0 0-6.382 0-8.573 0-1.407 0-2.677 1.611-3.407 2.764-.388.615-.169.788.498.498 2.337-1.023 2.995-.655 2.995-.655.165.788.22 4.344-.38 5.747-.608 1.321-1.729 2.995-.082 3.979 1.286.729 2.634-.768 2.501-3.317-.063-1.349-.169-6.405-.169-6.405h2.148c-.067.788-.431 4.81-.051 7.194.396 3.979 4.72 3.207 5.527.953.2-.623.153-1.102.004-1.462-.275-.67-.733-.705-.682-.392.032.2.012.396-.02.572-.094.545-1.207 1.399-2.109.753" opacity=".9" fill="#fff" fill-opacity=".855"/></g></svg>