<?xml version="1.0" encoding="UTF-8" standalone="no"?>
<!-- Created with Inkscape (http://www.inkscape.org/) -->

<svg
   xmlns:sketch="http://www.bohemiancoding.com/sketch/ns"
   xmlns:dc="http://purl.org/dc/elements/1.1/"
   xmlns:cc="http://creativecommons.org/ns#"
   xmlns:rdf="http://www.w3.org/1999/02/22-rdf-syntax-ns#"
   xmlns:svg="http://www.w3.org/2000/svg"
   xmlns="http://www.w3.org/2000/svg"
   xmlns:xlink="http://www.w3.org/1999/xlink"
   xmlns:sodipodi="http://sodipodi.sourceforge.net/DTD/sodipodi-0.dtd"
   xmlns:inkscape="http://www.inkscape.org/namespaces/inkscape"
   width="48"
   height="48"
   id="svg5453"
   version="1.1"
   inkscape:version="0.91 r13725"
   sodipodi:docname="preferences-plugin-script.svg">
  <defs
     id="defs5455">
    <linearGradient
       gradientTransform="matrix(2.6837975,0,0,2.6837975,-1631.213,-2286.8777)"
       y2="839.85571"
       x2="623.96216"
       y1="862.2121"
       x1="623.96216"
       gradientUnits="userSpaceOnUse"
       id="linearGradient4252"
       xlink:href="#linearGradient5156"
       inkscape:collect="always" />
    <linearGradient
       id="linearGradient5156"
       inkscape:collect="always">
      <stop
         id="stop5158"
         offset="0"
         style="stop-color:#116ef4;stop-opacity:1" />
      <stop
         id="stop5160"
         offset="1"
         style="stop-color:#02bffd;stop-opacity:1" />
    </linearGradient>
    <linearGradient
       y2="515.23712"
       x2="401.20834"
       y1="550.26959"
       x1="401.20834"
       gradientUnits="userSpaceOnUse"
       id="linearGradient4433"
       xlink:href="#linearGradient5156"
       inkscape:collect="always" />
  </defs>
  <sodipodi:namedview
     id="base"
     pagecolor="#ffffff"
     bordercolor="#666666"
     borderopacity="1.0"
     inkscape:pageopacity="0"
     inkscape:pageshadow="2"
     inkscape:zoom="5.6568542"
     inkscape:cx="-7.4329456"
     inkscape:cy="44.881017"
     inkscape:document-units="px"
     inkscape:current-layer="g4370"
     showgrid="true"
     fit-margin-top="0"
     fit-margin-left="0"
     fit-margin-right="0"
     fit-margin-bottom="0"
     inkscape:window-width="1366"
     inkscape:window-height="634"
     inkscape:window-x="0"
     inkscape:window-y="36"
     inkscape:window-maximized="1"
     inkscape:showpageshadow="false"
     borderlayer="true"
     showguides="false">
    <inkscape:grid
       type="xygrid"
       id="grid4063" />
    <sodipodi:guide
       position="1.1650391e-05,32.000026"
       orientation="32,0"
       id="guide4157" />
    <sodipodi:guide
       position="1.1650391e-05,2.6367188e-05"
       orientation="0,32"
       id="guide4159" />
    <sodipodi:guide
       position="32.000012,2.6367188e-05"
       orientation="-32,0"
       id="guide4161" />
    <sodipodi:guide
       position="32.000012,32.000026"
       orientation="0,-32"
       id="guide4163" />
    <sodipodi:guide
       position="2.0000117,30.000026"
       orientation="28,0"
       id="guide4167" />
    <sodipodi:guide
       position="2.0000117,2.0000264"
       orientation="0,28"
       id="guide4169" />
    <sodipodi:guide
       position="30.000012,2.0000264"
       orientation="-28,0"
       id="guide4171" />
    <sodipodi:guide
       position="30.000012,30.000026"
       orientation="0,-28"
       id="guide4173" />
    <sodipodi:guide
       position="2.0000117,30.000026"
       orientation="28,0"
       id="guide4181" />
    <sodipodi:guide
       position="2.0000117,2.0000264"
       orientation="0,14"
       id="guide4183" />
    <sodipodi:guide
       position="16.000012,2.0000264"
       orientation="-28,0"
       id="guide4185" />
    <sodipodi:guide
       position="16.000012,30.000026"
       orientation="0,-14"
       id="guide4187" />
    <sodipodi:guide
       position="9.0000117,23.000026"
       orientation="14,0"
       id="guide4193" />
    <sodipodi:guide
       position="9.0000117,9.0000264"
       orientation="0,14.000031"
       id="guide4195" />
    <sodipodi:guide
       position="23.000042,9.0000264"
       orientation="-14,0"
       id="guide4197" />
    <sodipodi:guide
       position="23.000042,23.000026"
       orientation="0,-14.000031"
       id="guide4199" />
  </sodipodi:namedview>
  <metadata
     id="metadata5458">
    <rdf:RDF>
      <cc:Work
         rdf:about="">
        <dc:format>image/svg+xml</dc:format>
        <dc:type
           rdf:resource="http://purl.org/dc/dcmitype/StillImage" />
        <dc:title></dc:title>
      </cc:Work>
    </rdf:RDF>
  </metadata>
  <g
     inkscape:label="Capa 1"
     inkscape:groupmode="layer"
     id="layer1"
     transform="translate(-384.57143,-499.798)">
    <g
       style="display:inline;enable-background:new"
       id="g4238"
       transform="translate(225.81911,462.44565)">
      <g
         style="display:inline"
         id="layer1-8"
         transform="matrix(0.22655187,0,0,0.22655187,106.94841,54.31088)">
        <g
           style="display:none"
           id="layer6" />
        <g
           id="g4027" />
        <g
           id="g4061" />
        <g
           id="g3751" />
        <g
           id="g3782" />
        <g
           id="g3725" />
        <g
           id="g4370"
           transform="matrix(4.4140002,0,0,4.4140002,59.275211,39.357303)">
          <g
             id="g4187"
             transform="translate(20,-1.5474365e-6)">
            <circle
               r="22.935152"
               cy="-1.874999"
               cx="42.375"
               id="path3377-7"
               style="opacity:1;fill:url(#linearGradient4252);fill-opacity:1;stroke:url(#linearGradient4252);stroke-width:2.12969899;stroke-miterlimit:4;stroke-dasharray:none;stroke-dashoffset:0;stroke-opacity:1" />
            <path
               inkscape:connector-curvature="0"
               d="m 55.547465,-1.9472561 -4.03797,-4.039056 c -0.384697,-0.384155 -0.264786,-0.794898 0.265328,-0.914268 0,0 0.437871,-0.09875 0.977207,-0.638087 1.157892,-1.157351 1.156806,-3.0363449 0,-4.1920659 -1.158435,-1.157903 -3.034717,-1.157903 -4.192609,0 -0.539877,0.539336 -0.637544,0.976665 -0.637544,0.976665 -0.11937,0.531197 -0.531196,0.650025 -0.914812,0.264783 l -4.037969,-4.03635 c -0.384153,-0.384698 -1.013561,-0.384698 -1.397717,0 l -4.037431,4.036894 c -0.383612,0.385242 -0.264783,0.7970679 0.265329,0.9158949 0,0 0.438414,0.09875 0.977208,0.637002 1.156267,1.157352 1.157893,3.035263 0,4.193694 -1.157349,1.157351 -3.036346,1.156265 -4.192609,0 -0.538794,-0.53988 -0.637545,-0.977748 -0.637545,-0.977748 -0.118827,-0.530658 -0.531198,-0.649485 -0.915354,-0.265331 l -4.037425,4.037973 c -0.384158,0.384154 -0.384158,1.01247405 0,1.39662805 l 4.037425,4.03798195 c 0.384156,0.384156 0.264785,0.795982 -0.265328,0.915355 0,0 -0.437871,0.09875 -0.977207,0.638087 -1.157891,1.157891 -1.157891,3.034718 0,4.192068 1.157348,1.1568041 3.034717,1.1578891 4.192609,0 0.539879,-0.539336 0.637545,-0.976667 0.637545,-0.976667 0.119371,-0.531199 0.531199,-0.650026 0.914811,-0.264785 l 4.037972,4.0363411 c 0.384156,0.3847 1.013564,0.3847 1.397717,0 l 4.038513,-4.0374281 c 0.384155,-0.384154 0.264784,-0.797066 -0.265327,-0.915352 0,0 -0.438958,-0.09875 -0.977752,-0.637002 -1.158434,-1.157891 -1.157891,-3.03526 0,-4.193704 1.157349,-1.157347 3.03472,-1.158437 4.192611,0 0.539336,0.539347 0.637004,0.977761 0.637004,0.977761 0.11937,0.530655 0.530653,0.650567 0.91535,0.266412 l 4.03797,-4.03906795 c 0.384154,-0.384154 0.384154,-1.01247405 0,-1.39662805 l 0,0 z"
               id="Templates"
               sketch:type="MSShapeGroup"
               style="fill:#ffffff;fill-opacity:0.8508065;stroke:none;stroke-width:1634.15478516;stroke-miterlimit:4;stroke-dasharray:none;stroke-opacity:1" />
          </g>
        </g>
      </g>
    </g>
  </g>
</svg>
