<svg xmlns="http://www.w3.org/2000/svg" viewBox="0 0 48 48"><defs><linearGradient id="0" y1="542.8" x2="0" y2="507.8" gradientUnits="userSpaceOnUse" gradientTransform="matrix(1.05233 0 0 1.02761-21.291-14.594)"><stop stop-color="#566069"/><stop offset="1" stop-color="#6c7884"/></linearGradient></defs><g transform="matrix(1.57636 0 0 1.57636-607.41-814.3)"><rect width="46.3" height="34.939" x="385.51" y="507.23" fill="url(#0)" rx="1.644" stroke-width="1" transform="matrix(.65763 0 0 .65763 131.81 186.74)"/><g transform="matrix(.11679 0 0 .11679 393.19 524.2)" fill="#e9ebed"><path d="m29.11 92.37c-3.26 0-6.03 1.14-8.311 3.422-2.281 2.282-3.422 5.05-3.422 8.312 0 3.26 1.14 6.03 3.422 8.312 2.282 2.281 5.05 3.422 8.311 3.422 3.205 0 5.961-1.141 8.27-3.422 2.308-2.28 3.462-5.05 3.462-8.312 0-3.26-1.154-6.03-3.462-8.312-2.309-2.28-5.065-3.422-8.27-3.422"/><path d="m26.5 67.61c0-3.585-1.276-6.653-3.829-9.208-2.553-2.553-5.622-3.829-9.207-3.829-3.585 0-6.654 1.276-9.207 3.829-2.553 2.553-3.829 5.622-3.829 9.208 0 3.584 1.276 6.651 3.829 9.205 2.553 2.554 5.622 3.83 9.207 3.83 3.585 0 6.654-1.276 9.207-3.83 2.553-2.552 3.829-5.621 3.829-9.205"/><path d="m102.11 37.626c1.791 0 3.328-.639 4.603-1.915 1.276-1.277 1.915-2.812 1.915-4.604 0-1.793-.639-3.327-1.915-4.603-1.276-1.277-2.812-1.915-4.603-1.915-1.793 0-3.328.639-4.604 1.915-1.276 1.276-1.915 2.81-1.915 4.603 0 1.793.639 3.327 1.915 4.604 1.276 1.277 2.811 1.915 4.604 1.915"/><path d="m29.11 16.768c-3.966 0-7.347 1.399-10.144 4.196-2.798 2.797-4.196 6.178-4.196 10.143 0 3.966 1.398 7.346 4.196 10.144 2.798 2.798 6.179 4.196 10.144 4.196 3.965 0 7.346-1.399 10.143-4.196 2.797-2.798 4.196-6.179 4.196-10.144 0-3.965-1.399-7.346-4.196-10.143-2.797-2.797-6.178-4.196-10.143-4.196"/><path d="m123.29 62.07c-1.521-1.521-3.367-2.281-5.54-2.281-2.173 0-4.02.76-5.54 2.281-1.52 1.521-2.28 3.368-2.28 5.542 0 2.172.76 4.02 2.28 5.539 1.521 1.521 3.367 2.281 5.54 2.281 2.173 0 4.02-.76 5.54-2.281 1.521-1.52 2.28-3.367 2.28-5.539 0-2.173-.758-4.02-2.28-5.542"/><path d="m102.11 94.98c-2.5 0-4.646.896-6.438 2.688-1.792 1.792-2.688 3.938-2.688 6.438 0 2.498.896 4.645 2.688 6.437 1.793 1.793 3.938 2.688 6.438 2.688 2.498 0 4.644-.896 6.437-2.688 1.792-1.792 2.688-3.938 2.688-6.437 0-2.5-.896-4.645-2.688-6.438-1.793-1.792-3.939-2.688-6.437-2.688"/><path d="m65.61 109.32c-2.879 0-5.337 1.02-7.375 3.057-2.036 2.037-3.055 4.494-3.055 7.373 0 2.879 1.018 5.336 3.055 7.373 2.038 2.037 4.495 3.057 7.375 3.057 2.879 0 5.336-1.02 7.373-3.057 2.037-2.037 3.056-4.494 3.056-7.373 0-2.879-1.019-5.336-3.056-7.373-2.037-2.037-4.494-3.057-7.373-3.057"/><path d="m65.61-.179c-4.345 0-8.04 1.52-11.08 4.562-3.041 3.042-4.562 6.736-4.562 11.08 0 4.345 1.52 8.04 4.562 11.08 3.042 3.041 6.736 4.562 11.08 4.562 4.347 0 8.04-1.52 11.08-4.562 3.041-3.041 4.562-6.735 4.562-11.08 0-4.345-1.521-8.04-4.562-11.08-3.041-3.041-6.733-4.562-11.08-4.562"/></g></g></svg>