<svg xmlns="http://www.w3.org/2000/svg" viewBox="0 0 48 48"><defs><linearGradient id="0" y1="518.08" x2="0" y2="545.15" gradientUnits="userSpaceOnUse"><stop stop-color="#faf7f7"/><stop offset="1" stop-color="#d4d4d4"/></linearGradient><linearGradient id="1" x1="403.44" y1="545.15" x2="402.47" y2="518.08" gradientUnits="userSpaceOnUse"><stop stop-color="#d3d3d3"/><stop offset="1" stop-color="#fcf9f9"/></linearGradient></defs><circle cx="400.52" cy="531.74" r="14.226" fill="url(#1)" stroke="url(#0)" stroke-width="1.524" transform="matrix(1.6013 0 0 1.6013-617.35-827.48)"/><path d="m409.03 539.85c-.819 0-1.541.392-2.01.991l-4.375-2.247c.057-.215.099-.436.099-.669 0-.254-.049-.493-.117-.726l4.356-2.236c.469.627 1.21 1.036 2.051 1.036 1.425 0 2.577-1.157 2.577-2.586 0-1.428-1.153-2.586-2.577-2.586-1.422 0-2.575 1.158-2.575 2.586 0 .234.041.456.099.671l-4.374 2.247c-.472-.6-1.196-.993-2.02-.993-1.423 0-2.575 1.158-2.575 2.587 0 1.429 1.152 2.586 2.575 2.586.842 0 1.582-.411 2.053-1.038l4.354 2.236c-.068.232-.118.473-.118.728 0 1.429 1.154 2.586 2.575 2.586 1.425 0 2.577-1.158 2.577-2.586 0-1.43-1.153-2.587-2.577-2.587" stroke="none" transform="matrix(1.6959 0 0 1.69067-663.86-884.59)" stroke-opacity=".8" fill="#35383b"/></svg>