<svg xmlns="http://www.w3.org/2000/svg" viewBox="0 0 48 48"><defs><linearGradient gradientTransform="matrix(1.05233 0 0 1.02761-72.68-8.584)" gradientUnits="userSpaceOnUse" y2="507.8" x2="0" y1="542.8" id="0"><stop stop-color="#ff3069"/><stop offset="1" stop-color="#ffa548"/></linearGradient></defs><g transform="translate(-384.57-499.8)"><flowRoot transform="translate(389.57 520.8)" font-family="sans-serif" text-align="start" word-spacing="0" line-height="125%" letter-spacing="0" font-size="10"><flowRegion><path d="m22 3h27v15h-27z"/></flowRegion><flowPara>Plasm</flowPara></flowRoot><g transform="matrix(1.03666 0 0 1.03666 38.2-26.36)"><rect width="46.3" height="34.939" x="334.12" y="513.24" fill="url(#0)" rx="1.644" stroke-width="1"/><g transform="matrix(1.52062 0 0 1.52062-204.35-290.39)" fill="#fff" fill-opacity=".852"><flowRoot transform="translate(389.57 520.8)" font-family="sans-serif" text-align="start" word-spacing="0" line-height="125%" letter-spacing="0" font-size="10"><flowRegion><path fill="#fff" fill-opacity=".852" d="m22 3h27v15h-27z"/></flowRegion><flowPara>Plasm</flowPara></flowRoot><path d="m16.656 1039.14v-2.317c0-3.144-2.558-5.703-5.703-5.703-3.145 0-5.703 2.559-5.703 5.703v2.317c-.449.094-.788.494-.788.971v8.682c0 .547.445.992.992.992h10.998c.547 0 .992-.445.992-.992v-8.682c0-.477-.339-.876-.788-.971m-4.371 7.401c.02.109-.052.195-.162.195h-2.315c-.109 0-.182-.086-.162-.195l.369-1.954c-.279-.254-.454-.621-.454-1.028 0-.769.623-1.392 1.392-1.392.769 0 1.392.623 1.392 1.392 0 .396-.166.753-.432 1.01zm2.387-7.422h-7.438v-2.296c0-2.051 1.668-3.719 3.719-3.719 2.051 0 3.719 1.668 3.719 3.719z" transform="matrix(.81569 0 0 .81569 360.41-308.71)"/></g></g></g></svg>