<svg xmlns="http://www.w3.org/2000/svg" xmlns:xlink="http://www.w3.org/1999/xlink" viewBox="0 0 48 48"><defs><clipPath><rect y="507.8" x="392.57" height="32" width="32" fill="url(#3)" rx="16"/></clipPath><clipPath><rect y="507.8" x="392.57" height="32" width="32" fill="url(#3)" rx="16"/></clipPath><clipPath><rect width="32" height="32" x="392.57" y="507.8" fill="url(#3)" rx="16"/></clipPath><clipPath><rect y="507.8" x="392.57" height="32" width="32" fill="url(#3)" rx="16"/></clipPath><clipPath><rect width="32" height="32" x="8" y="8" fill="url(#2)" rx="16"/></clipPath><clipPath><rect width="32" height="32" x="392.57" y="507.8" fill="url(#3)" rx="16"/></clipPath><clipPath><rect width="32" height="32" x="8" y="8" fill="url(#2)" rx="16"/></clipPath><clipPath><rect y="507.8" x="392.57" height="32" width="32" fill="url(#3)" rx="16"/></clipPath><clipPath><rect y="507.8" x="392.57" height="32" width="32" fill="url(#3)" rx="16"/></clipPath><clipPath><rect y="507.8" x="392.57" height="32" width="32" fill="url(#3)" rx="16"/></clipPath><clipPath><rect y="507.8" x="392.57" height="32" width="32" fill="url(#3)" rx="16"/></clipPath><clipPath><rect width="32" height="32" x="392.57" y="507.8" fill="url(#3)" rx="16"/></clipPath><clipPath><rect y="507.8" x="392.57" height="32" width="32" fill="url(#3)" rx="16"/></clipPath><clipPath><rect y="507.8" x="392.57" height="32" width="32" fill="url(#3)" rx="16"/></clipPath><clipPath><rect y="8" x="8" height="32" width="32" fill="url(#2)" rx="16"/></clipPath><clipPath><rect y="8" x="8" height="32" width="32" fill="url(#2)" rx="16"/></clipPath><clipPath><rect width="32" height="32" x="392.57" y="507.8" fill="url(#3)" rx="16"/></clipPath><clipPath><rect y="507.8" x="392.57" height="32" width="32" fill="url(#3)" rx="16"/></clipPath><clipPath><rect y="507.8" x="392.57" height="32" width="32" fill="url(#3)" rx="16"/></clipPath><clipPath><rect width="32" height="32" x="392.57" y="507.8" fill="url(#3)" rx="16"/></clipPath><clipPath><rect width="32" height="32" x="8" y="8" fill="url(#2)" rx="16"/></clipPath><clipPath><rect width="32" height="32" x="392.57" y="507.8" fill="url(#3)" rx="16"/></clipPath><clipPath><rect width="32" height="32" x="392.57" y="507.8" fill="url(#3)" rx="16"/></clipPath><clipPath><rect width="32" height="32" x="8" y="8" fill="url(#2)" rx="16"/></clipPath><clipPath><rect y="507.8" x="392.57" height="32" width="32" fill="url(#3)" rx="16"/></clipPath><clipPath><rect width="32" height="32" x="392.57" y="507.8" fill="url(#3)" rx="16"/></clipPath><clipPath><rect width="32" height="32" x="392.57" y="507.8" fill="url(#3)" rx="16"/></clipPath><clipPath><rect y="507.8" x="392.57" height="32" width="32" fill="url(#3)" rx="16"/></clipPath><clipPath><rect width="32" height="32" x="392.57" y="507.8" fill="url(#3)" rx="16"/></clipPath><clipPath><rect y="8" x="8" height="32" width="32" fill="url(#2)" rx="16"/></clipPath><clipPath><rect y="507.8" x="392.57" height="32" width="32" fill="url(#3)" rx="16"/></clipPath><clipPath><rect y="8" x="8" height="32" width="32" fill="url(#2)" rx="16"/></clipPath><clipPath><rect y="507.8" x="392.57" height="32" width="32" fill="url(#3)" rx="16"/></clipPath><clipPath><rect y="507.8" x="392.57" height="32" width="32" fill="url(#3)" rx="16"/></clipPath><clipPath><rect y="507.8" x="392.57" height="32" width="32" fill="url(#3)" rx="16"/></clipPath><clipPath><rect y="507.8" x="392.57" height="32" width="32" fill="url(#3)" rx="16"/></clipPath><clipPath><rect width="32" height="32" x="392.57" y="507.8" fill="url(#3)" rx="16"/></clipPath><clipPath><rect y="507.8" x="392.57" height="32" width="32" fill="url(#3)" rx="16"/></clipPath><clipPath><rect width="32" height="32" x="8" y="8" fill="url(#2)" rx="16"/></clipPath><clipPath><rect y="507.8" x="392.57" height="32" width="32" fill="url(#3)" rx="16"/></clipPath><clipPath><rect width="32" height="32" x="8" y="8" fill="url(#2)" rx="16"/></clipPath><clipPath><rect y="507.8" x="392.57" height="32" width="32" fill="url(#3)" rx="16"/></clipPath><clipPath><rect y="507.8" x="392.57" height="32" width="32" fill="url(#3)" rx="16"/></clipPath><clipPath><rect y="8" x="8" height="32" width="32" fill="url(#2)" rx="16"/></clipPath><clipPath><rect y="507.8" x="392.57" height="32" width="32" fill="url(#3)" rx="16"/></clipPath><clipPath><rect width="32" height="32" x="392.57" y="507.8" fill="url(#3)" rx="16"/></clipPath><clipPath><rect y="507.8" x="392.57" height="32" width="32" fill="url(#3)" rx="16"/></clipPath><clipPath><rect width="32" height="32" x="392.57" y="507.8" fill="url(#3)" rx="16"/></clipPath><clipPath><rect y="8" x="8" height="32" width="32" fill="url(#2)" rx="16"/></clipPath><clipPath><rect width="32" height="32" x="392.57" y="507.8" fill="url(#3)" rx="16"/></clipPath><clipPath><rect width="32" height="32" x="392.57" y="507.8" fill="url(#3)" rx="16"/></clipPath><clipPath><rect width="32" height="32" x="392.57" y="507.8" fill="url(#3)" rx="16"/></clipPath><clipPath><rect width="32" height="32" x="392.57" y="507.8" fill="url(#3)" rx="16"/></clipPath><clipPath><rect width="32" height="32" x="392.57" y="507.8" fill="url(#3)" rx="16"/></clipPath><clipPath><rect y="8" x="8" height="32" width="32" fill="url(#2)" rx="16"/></clipPath><clipPath><rect y="8" x="8" height="32" width="32" fill="url(#2)" rx="16"/></clipPath><clipPath><rect width="32" height="32" x="392.57" y="507.8" fill="url(#3)" rx="16"/></clipPath><clipPath><rect width="32" height="32" x="392.57" y="507.8" fill="url(#3)" rx="16"/></clipPath><clipPath><rect width="32" height="32" x="392.57" y="507.8" fill="url(#3)" rx="16"/></clipPath><clipPath><rect width="32" height="32" x="392.57" y="507.8" fill="url(#3)" rx="16"/></clipPath><clipPath><rect width="32" height="32" x="392.57" y="507.8" fill="url(#3)" rx="16"/></clipPath><clipPath><rect width="32" height="32" x="392.57" y="507.8" fill="url(#3)" rx="16"/></clipPath><clipPath><rect width="32" height="32" x="8" y="8" fill="url(#2)" rx="16"/></clipPath><clipPath><path d="m69.63 12.145h-.052c-22.727-.292-46.47 4.077-46.709 4.122-2.424.451-4.946 2.974-5.397 5.397-.044.237-4.414 23.983-4.122 46.71-.292 22.777 4.078 46.523 4.122 46.761.451 2.423 2.974 4.945 5.398 5.398.237.044 23.982 4.413 46.709 4.121 22.779.292 46.524-4.077 46.761-4.121 2.423-.452 4.946-2.976 5.398-5.399.044-.236 4.413-23.981 4.121-46.709.292-22.777-4.077-46.523-4.121-46.761-.453-2.423-2.976-4.946-5.398-5.397-.238-.045-23.984-4.414-46.71-4.122"/></clipPath><clipPath><rect width="32" height="32" x="8" y="8" fill="url(#2)" rx="16"/></clipPath><linearGradient gradientUnits="userSpaceOnUse" y2="544.83" x2="0" y1="546.95" id="5"><stop stop-color="#040404"/><stop offset="1" stop-color="#121212" stop-opacity=".908"/></linearGradient><linearGradient gradientTransform="matrix(.5054 0 0 1 229.15 2.167)" gradientUnits="userSpaceOnUse" y2="543.09" x2="0" y1="544.15" id="4"><stop stop-color="#ea3c53"/><stop offset="1" stop-color="#fc593d"/></linearGradient><linearGradient id="0"><stop stop-color="#2a2c2f"/><stop offset="1" stop-color="#424649"/></linearGradient><linearGradient gradientTransform="matrix(.24842 0 0 .24428 433.38 517.17)" x2="122.72" x1="10.09" gradientUnits="userSpaceOnUse" id="1"><stop stop-color="#1a1a1a"/><stop offset=".111" stop-color="#2c2c2e"/><stop offset=".29" stop-color="#2b2b2d"/><stop offset=".512" stop-color="#2a2b2d"/><stop offset=".752" stop-color="#2b2b2d"/><stop offset=".897" stop-color="#323232"/><stop offset="1" stop-color="#171717"/></linearGradient><linearGradient gradientUnits="userSpaceOnUse" y2="518.41" x2="449.55" y1="540.75" x1="449.43" id="6"><stop stop-color="#bbbec4"/><stop offset="1" stop-color="#dddfe2"/></linearGradient><linearGradient x1="57.29" x2="319.02" gradientUnits="userSpaceOnUse"><stop stop-color="#c8c8c8"/><stop offset="1" stop-color="#969696"/></linearGradient><linearGradient xlink:href="#0" id="3" gradientUnits="userSpaceOnUse" y1="539.8" x2="0" y2="507.8"/><linearGradient xlink:href="#0" id="2" gradientUnits="userSpaceOnUse" y1="40" x2="0" y2="8"/></defs><g transform="translate(-384.57-499.8)"><flowRoot transform="translate(389.57 520.8)" font-family="sans-serif" text-align="start" word-spacing="0" line-height="125%" letter-spacing="0" font-size="10"><flowRegion><path d="m22 3h27v15h-27z" id="7"/></flowRegion><flowPara>Plasm</flowPara></flowRoot><g transform="matrix(1.66672 0 0 1.66672-258.81-362.72)"><flowRoot transform="translate(389.57 520.8)" font-family="sans-serif" text-align="start" word-spacing="0" line-height="125%" letter-spacing="0" font-size="10"><flowRegion><use xlink:href="#7"/></flowRegion><flowPara>Plasm</flowPara></flowRoot><g transform="translate(-56.14-2.138)"><g transform="translate(6.68 2.113)"><path d="m435.89 541.07l.248 3.915c0 .406.332.733.745.733h25.99c.413 0 .745-.327.745-.733l.248-3.915h-27.978" fill="url(#1)"/><path d="m438.13 518.12h23.26c.413 0 .745.327.745.733l1.739 22.1c0 .406-.332.733-.745.733h-26.489c-.413 0-.745-.327-.745-.733l1.49-22.1c0-.406.332-.733.745-.733" fill="url(#6)"/><path d="m447.07665 522.85253a.928831 .803854 0 0 0 -.92883 .80387 .928831 .803854 0 0 0 .92883 .80385 .928831 .803854 0 0 0 .92882 -.80385 .928831 .803854 0 0 0 -.92882 -.80387zm4.644 0l-1.858 1.608 3.715 3.215-3.715 3.215 1.858 1.608 5.573-4.823-5.573-4.823zm-7.43064 4.82317a1.857652 1.607699 0 0 0 -1.85764 1.60767 1.857652 1.607699 0 0 0 1.85764 1.60772 1.857652 1.607699 0 0 0 1.8577 -1.60772 1.857652 1.607699 0 0 0 -1.8577 -1.60767zm3.71535 4.82308a1.857652 1.607699 0 0 0 -1.85765 1.60769 1.857652 1.607699 0 0 0 1.85765 1.60772 1.857652 1.607699 0 0 0 1.85768 -1.60772 1.857652 1.607699 0 0 0 -1.85768 -1.60769z" fill="#a1a7ae" stroke="#909296" stroke-width=".053"/></g><rect width="11.463" height=".769" x="450.87" y="545.61" fill="url(#4)" rx=".384"/><ellipse ry="1.061" rx="1.061" cy="546.02" cx="467.09" opacity=".452" fill="url(#5)"/><g transform="matrix(.00848 0 0 .00848 466.55 545.43)" opacity=".668" fill="#e3e8ea"><path d="m63 73.22c2.824 0 5.27-1.031 7.332-3.096 2.064-2.063 3.098-4.508 3.098-7.332v-52.14c0-2.825-1.033-5.269-3.098-7.332-2.062-2.065-4.507-3.097-7.332-3.097-2.825 0-5.269 1.033-7.333 3.097-2.064 2.063-3.096 4.508-3.096 7.332v52.14c0 2.824 1.032 5.269 3.096 7.332 2.064 2.065 4.509 3.096 7.333 3.096"/><path d="m119.01 45.27c-4.373-8.744-10.523-16.08-18.453-21.997-2.281-1.738-4.861-2.417-7.74-2.037-2.879.38-5.16 1.738-6.844 4.073-1.738 2.281-2.403 4.847-1.996 7.699.406 2.853 1.752 5.147 4.03 6.885 5.321 4.02 9.438 8.935 12.342 14.747 2.906 5.811 4.358 12 4.358 18.575 0 5.65-1.1 11.04-3.299 16.17-2.2 5.133-5.174 9.573-8.922 13.321-3.748 3.747-8.187 6.721-13.32 8.921-5.133 2.2-10.524 3.301-16.17 3.301-5.648 0-11.04-1.101-16.17-3.301-5.133-2.2-9.573-5.174-13.321-8.921-3.747-3.748-6.721-8.188-8.921-13.321-2.2-5.133-3.3-10.523-3.3-16.17 0-6.571 1.453-12.763 4.359-18.575 2.906-5.811 7.02-10.727 12.343-14.747 2.281-1.739 3.625-4.03 4.03-6.885.407-2.851-.258-5.418-1.996-7.699-1.684-2.335-3.951-3.693-6.803-4.073-2.852-.38-5.446.299-7.781 2.037-7.931 5.92-14.08 13.253-18.454 21.997-4.373 8.745-6.559 18.06-6.559 27.945 0 8.474 1.657 16.566 4.97 24.279 3.314 7.713 7.767 14.366 13.362 19.961 5.594 5.594 12.248 10.05 19.961 13.36 7.713 3.314 15.806 4.972 24.279 4.972 8.473 0 16.566-1.658 24.279-4.972 7.713-3.312 14.367-7.766 19.961-13.36 5.594-5.594 10.05-12.248 13.361-19.961 3.313-7.713 4.969-15.806 4.969-24.279 0-9.885-2.183-19.2-6.556-27.945"/></g></g></g></g></svg>