<?xml version="1.0" encoding="UTF-8" standalone="no"?>
<!-- Created with Inkscape (http://www.inkscape.org/) -->

<svg
   xmlns:dc="http://purl.org/dc/elements/1.1/"
   xmlns:cc="http://creativecommons.org/ns#"
   xmlns:rdf="http://www.w3.org/1999/02/22-rdf-syntax-ns#"
   xmlns:svg="http://www.w3.org/2000/svg"
   xmlns="http://www.w3.org/2000/svg"
   xmlns:xlink="http://www.w3.org/1999/xlink"
   xmlns:sodipodi="http://sodipodi.sourceforge.net/DTD/sodipodi-0.dtd"
   xmlns:inkscape="http://www.inkscape.org/namespaces/inkscape"
   width="48"
   height="48"
   id="svg5453"
   version="1.1"
   inkscape:version="0.91 r13725"
   sodipodi:docname="qelectrotech.svg">
  <defs
     id="defs5455">
    <linearGradient
       gradientTransform="translate(62.561754,-1.7239424)"
       gradientUnits="userSpaceOnUse"
       y2="9"
       x2="9.0000019"
       y1="44.373558"
       x1="9.5314026"
       id="linearGradient4859"
       xlink:href="#linearGradient4408"
       inkscape:collect="always" />
    <linearGradient
       id="linearGradient4408"
       inkscape:collect="always">
      <stop
         id="stop4410"
         offset="0"
         style="stop-color:#183b69;stop-opacity:1" />
      <stop
         id="stop4412"
         offset="1"
         style="stop-color:#245aa1;stop-opacity:1" />
    </linearGradient>
  </defs>
  <sodipodi:namedview
     id="base"
     pagecolor="#ffffff"
     bordercolor="#666666"
     borderopacity="1.0"
     inkscape:pageopacity="0"
     inkscape:pageshadow="2"
     inkscape:zoom="4"
     inkscape:cx="-80.941894"
     inkscape:cy="15.968792"
     inkscape:document-units="px"
     inkscape:current-layer="g4182"
     showgrid="true"
     fit-margin-top="0"
     fit-margin-left="0"
     fit-margin-right="0"
     fit-margin-bottom="0"
     inkscape:window-width="1366"
     inkscape:window-height="634"
     inkscape:window-x="0"
     inkscape:window-y="36"
     inkscape:window-maximized="1"
     inkscape:showpageshadow="false"
     borderlayer="true"
     showguides="false">
    <inkscape:grid
       type="xygrid"
       id="grid4063" />
    <sodipodi:guide
       position="1.1650391e-05,32.000026"
       orientation="32,0"
       id="guide4157" />
    <sodipodi:guide
       position="1.1650391e-05,2.6367188e-05"
       orientation="0,32"
       id="guide4159" />
    <sodipodi:guide
       position="32.000012,2.6367188e-05"
       orientation="-32,0"
       id="guide4161" />
    <sodipodi:guide
       position="32.000012,32.000026"
       orientation="0,-32"
       id="guide4163" />
    <sodipodi:guide
       position="2.0000117,30.000026"
       orientation="28,0"
       id="guide4167" />
    <sodipodi:guide
       position="2.0000117,2.0000264"
       orientation="0,28"
       id="guide4169" />
    <sodipodi:guide
       position="30.000012,2.0000264"
       orientation="-28,0"
       id="guide4171" />
    <sodipodi:guide
       position="30.000012,30.000026"
       orientation="0,-28"
       id="guide4173" />
    <sodipodi:guide
       position="2.0000117,30.000026"
       orientation="28,0"
       id="guide4181" />
    <sodipodi:guide
       position="2.0000117,2.0000264"
       orientation="0,14"
       id="guide4183" />
    <sodipodi:guide
       position="16.000012,2.0000264"
       orientation="-28,0"
       id="guide4185" />
    <sodipodi:guide
       position="16.000012,30.000026"
       orientation="0,-14"
       id="guide4187" />
    <sodipodi:guide
       position="9.0000117,23.000026"
       orientation="14,0"
       id="guide4193" />
    <sodipodi:guide
       position="9.0000117,9.0000264"
       orientation="0,14.000031"
       id="guide4195" />
    <sodipodi:guide
       position="23.000042,9.0000264"
       orientation="-14,0"
       id="guide4197" />
    <sodipodi:guide
       position="23.000042,23.000026"
       orientation="0,-14.000031"
       id="guide4199" />
  </sodipodi:namedview>
  <metadata
     id="metadata5458">
    <rdf:RDF>
      <cc:Work
         rdf:about="">
        <dc:format>image/svg+xml</dc:format>
        <dc:type
           rdf:resource="http://purl.org/dc/dcmitype/StillImage" />
        <dc:title></dc:title>
      </cc:Work>
    </rdf:RDF>
  </metadata>
  <g
     inkscape:label="Capa 1"
     inkscape:groupmode="layer"
     id="layer1"
     transform="translate(-384.57143,-499.798)">
    <g
       style="display:inline;enable-background:new"
       id="g4238"
       transform="translate(225.81911,462.44565)">
      <g
         style="display:inline"
         id="layer1-8"
         transform="matrix(0.22655187,0,0,0.22655187,106.94841,54.31088)">
        <g
           style="display:none"
           id="layer6" />
        <g
           id="g4027" />
        <g
           id="g4061" />
        <g
           id="g3751" />
        <g
           id="g3782" />
        <g
           id="g3725" />
        <g
           id="g4370"
           transform="matrix(4.4140002,0,0,4.4140002,59.275211,39.357303)">
          <g
             id="g4182"
             transform="matrix(1.7142857,0,0,1.7142857,-30.839285,-12.375017)">
            <g
               transform="matrix(0.61683003,0,0,0.61683003,39.4954,-628.44738)"
               id="g4161">
              <rect
                 style="opacity:1;fill:url(#linearGradient4859);fill-opacity:1;stroke:none;stroke-width:1.5;stroke-linecap:round;stroke-linejoin:round;stroke-miterlimit:4;stroke-dasharray:none;stroke-opacity:1"
                 id="rect4851"
                 width="48.232185"
                 height="36.295765"
                 x="47.935978"
                 y="7.1644406"
                 ry="1.5"
                 transform="matrix(0.94047906,0.001038,-9.6163039e-4,1.0151611,-43.616432,1002.9929)" />
              <path
                 id="rect6279"
                 d="m 19.471161,1017.4693 c -1.765265,0 -3.228659,1.301 -3.46875,3 l -0.03125,0 -0.6875,0 -4.3125,0 -1.0000036,0 0,8 -1.9999998,0 0,1 5.0000034,0 0,-1 -2,0 0,-7 4.3125,0 0.6875,0 0.03125,0 c 0.240091,1.699 1.703485,3 3.46875,3 1.765265,0 3.228659,-1.301 3.46875,-3 l 0.03125,0 0.3125,0 3.6875,0 0,2 9,0 0,-2 2,0 0,16 -3.03125,0 c -0.24009,-1.699 -1.70348,-3 -3.46875,-3 -1.76527,0 -3.22866,1.301 -3.46875,3 l -3.125,0 c -0.20384,-0.5864 -0.75041,-1 -1.40625,-1 -0.82843,0 -1.5,0.6716 -1.5,1.5 0,0.8284 0.67157,1.5 1.5,1.5 0.65584,0 1.20241,-0.4136 1.40625,-1 l 3.125,0 c 0.24009,1.699 1.70348,3 3.46875,3 1.76527,0 3.22866,-1.301 3.46875,-3 l 3.03125,0 1,0 0,-18 -3,0 0,-2 -9,0 0,2 -3.6875,0 -0.3125,0 -0.03125,0 c -0.240091,-1.699 -1.703485,-3 -3.46875,-3 z m 0,1 c 0.503163,0 0.982791,0.1505 1.375,0.4063 l -1.375,1.375 -1.375,-1.375 c 0.392209,-0.2559 0.871837,-0.4063 1.375,-0.4063 z m -2.09375,1.125 1.375,1.375 -1.375,1.375 c -0.255774,-0.3922 -0.40625,-0.8718 -0.40625,-1.375 0,-0.5032 0.150476,-0.9828 0.40625,-1.375 z m 4.1875,0 c 0.255774,0.3922 0.40625,0.8718 0.40625,1.375 0,0.5032 -0.150476,0.9828 -0.40625,1.375 l -1.375,-1.375 1.375,-1.375 z m -2.09375,2.0938 1.375,1.375 c -0.392209,0.2557 -0.871837,0.4062 -1.375,0.4062 -0.503163,0 -0.982791,-0.1505 -1.375,-0.4062 l 1.375,-1.375 z m -10.5000034,8.7812 0,1 0.9999998,0 0,7 1.0000036,0 3.09375,0 c 0.20384,0.5864 0.75041,1 1.40625,1 0.82843,0 1.5,-0.6716 1.5,-1.5 0,-0.1035 -0.01135,-0.2148 -0.03125,-0.3125 l 5.3125,-3.0625 -0.5,-0.875 -5.34375,3.0938 c -0.25793,-0.2096 -0.57933,-0.3438 -0.9375,-0.3438 -0.65584,0 -1.20241,0.4136 -1.40625,1 l -3.09375,0 0,-6 1,0 0,-1 -3.0000034,0 z m 22.5000034,5 c 1.38071,0 2.5,1.1193 2.5,2.5 0,1.3807 -1.11929,2.5 -2.5,2.5 -1.38071,0 -2.5,-1.1193 -2.5,-2.5 0,-1.3807 1.11929,-2.5 2.5,-2.5 z m -16,2 c 0.27614,0 0.5,0.2239 0.5,0.5 0,0.2761 -0.22386,0.5 -0.5,0.5 -0.27614,0 -0.5,-0.2239 -0.5,-0.5 0,-0.2761 0.22386,-0.5 0.5,-0.5 z m 8,0 c 0.27614,0 0.5,0.2239 0.5,0.5 0,0.2761 -0.22386,0.5 -0.5,0.5 -0.27614,0 -0.5,-0.2239 -0.5,-0.5 0,-0.2761 0.22386,-0.5 0.5,-0.5 z"
                 style="color:#000000;display:inline;overflow:visible;visibility:visible;opacity:1;fill:#ffffff;fill-opacity:0.85483871;fill-rule:evenodd;stroke:none;stroke-width:2;marker:none;enable-background:accumulate"
                 inkscape:connector-curvature="0" />
            </g>
          </g>
        </g>
      </g>
    </g>
  </g>
</svg>
