<?xml version="1.0" encoding="UTF-8" standalone="no"?>
<!-- Created with Inkscape (http://www.inkscape.org/) -->

<svg
   xmlns:dc="http://purl.org/dc/elements/1.1/"
   xmlns:cc="http://creativecommons.org/ns#"
   xmlns:rdf="http://www.w3.org/1999/02/22-rdf-syntax-ns#"
   xmlns:svg="http://www.w3.org/2000/svg"
   xmlns="http://www.w3.org/2000/svg"
   xmlns:xlink="http://www.w3.org/1999/xlink"
   xmlns:sodipodi="http://sodipodi.sourceforge.net/DTD/sodipodi-0.dtd"
   xmlns:inkscape="http://www.inkscape.org/namespaces/inkscape"
   width="48"
   height="48"
   id="svg5453"
   version="1.1"
   inkscape:version="0.91 r13725"
   sodipodi:docname="qv4l2.svg">
  <defs
     id="defs5455">
    <linearGradient
       gradientTransform="matrix(0.13837079,0,0,0.13837079,127.46829,-43.119557)"
       inkscape:collect="always"
       xlink:href="#linearGradient5076"
       id="linearGradient5299"
       gradientUnits="userSpaceOnUse"
       x1="-318.57867"
       y1="653.95679"
       x2="-318.57867"
       y2="301.29816" />
    <linearGradient
       id="linearGradient5076"
       inkscape:collect="always">
      <stop
         id="stop5078"
         offset="0"
         style="stop-color:#c52828;stop-opacity:1" />
      <stop
         id="stop5080"
         offset="1"
         style="stop-color:#ff5454;stop-opacity:1" />
    </linearGradient>
  </defs>
  <sodipodi:namedview
     id="base"
     pagecolor="#ffffff"
     bordercolor="#666666"
     borderopacity="1.0"
     inkscape:pageopacity="0"
     inkscape:pageshadow="2"
     inkscape:zoom="4"
     inkscape:cx="-39.601104"
     inkscape:cy="15.968792"
     inkscape:document-units="px"
     inkscape:current-layer="g4182"
     showgrid="true"
     fit-margin-top="0"
     fit-margin-left="0"
     fit-margin-right="0"
     fit-margin-bottom="0"
     inkscape:window-width="1366"
     inkscape:window-height="634"
     inkscape:window-x="0"
     inkscape:window-y="36"
     inkscape:window-maximized="1"
     inkscape:showpageshadow="false"
     borderlayer="true"
     showguides="false">
    <inkscape:grid
       type="xygrid"
       id="grid4063" />
    <sodipodi:guide
       position="1.1650391e-05,32.000026"
       orientation="32,0"
       id="guide4157" />
    <sodipodi:guide
       position="1.1650391e-05,2.6367188e-05"
       orientation="0,32"
       id="guide4159" />
    <sodipodi:guide
       position="32.000012,2.6367188e-05"
       orientation="-32,0"
       id="guide4161" />
    <sodipodi:guide
       position="32.000012,32.000026"
       orientation="0,-32"
       id="guide4163" />
    <sodipodi:guide
       position="2.0000117,30.000026"
       orientation="28,0"
       id="guide4167" />
    <sodipodi:guide
       position="2.0000117,2.0000264"
       orientation="0,28"
       id="guide4169" />
    <sodipodi:guide
       position="30.000012,2.0000264"
       orientation="-28,0"
       id="guide4171" />
    <sodipodi:guide
       position="30.000012,30.000026"
       orientation="0,-28"
       id="guide4173" />
    <sodipodi:guide
       position="2.0000117,30.000026"
       orientation="28,0"
       id="guide4181" />
    <sodipodi:guide
       position="2.0000117,2.0000264"
       orientation="0,14"
       id="guide4183" />
    <sodipodi:guide
       position="16.000012,2.0000264"
       orientation="-28,0"
       id="guide4185" />
    <sodipodi:guide
       position="16.000012,30.000026"
       orientation="0,-14"
       id="guide4187" />
    <sodipodi:guide
       position="9.0000117,23.000026"
       orientation="14,0"
       id="guide4193" />
    <sodipodi:guide
       position="9.0000117,9.0000264"
       orientation="0,14.000031"
       id="guide4195" />
    <sodipodi:guide
       position="23.000042,9.0000264"
       orientation="-14,0"
       id="guide4197" />
    <sodipodi:guide
       position="23.000042,23.000026"
       orientation="0,-14.000031"
       id="guide4199" />
  </sodipodi:namedview>
  <metadata
     id="metadata5458">
    <rdf:RDF>
      <cc:Work
         rdf:about="">
        <dc:format>image/svg+xml</dc:format>
        <dc:type
           rdf:resource="http://purl.org/dc/dcmitype/StillImage" />
        <dc:title></dc:title>
      </cc:Work>
    </rdf:RDF>
  </metadata>
  <g
     inkscape:label="Capa 1"
     inkscape:groupmode="layer"
     id="layer1"
     transform="translate(-384.57143,-499.798)">
    <g
       style="display:inline;enable-background:new"
       id="g4238"
       transform="translate(225.81911,462.44565)">
      <g
         style="display:inline"
         id="layer1-8"
         transform="matrix(0.22655187,0,0,0.22655187,106.94841,54.31088)">
        <g
           style="display:none"
           id="layer6" />
        <g
           id="g4027" />
        <g
           id="g4061" />
        <g
           id="g3751" />
        <g
           id="g3782" />
        <g
           id="g3725" />
        <g
           id="g4370"
           transform="matrix(4.4140002,0,0,4.4140002,59.275211,39.357303)">
          <g
             id="g4182"
             transform="translate(-20,-25.000001)">
            <circle
               style="opacity:1;fill:url(#linearGradient5299);fill-opacity:1;stroke:none;stroke-width:15.44461155;stroke-linecap:round;stroke-linejoin:round;stroke-miterlimit:4;stroke-dasharray:none;stroke-opacity:1"
               id="path4217"
               cx="82.375"
               cy="23.125"
               r="24" />
          </g>
          <path
             id="path14795"
             d="m 73.358803,-13.874998 -1.187592,0 c -0.282025,0 -0.510638,0.228613 -0.510638,0.510639 l 0,0.635489 c 0,0.282 -0.228613,0.510638 -0.510638,0.510638 l -1.107319,0 c -0.282026,0 -0.510638,-0.228638 -0.510638,-0.510638 l 0,-0.635489 c 0,-0.282026 -0.228587,-0.510639 -0.510638,-0.510639 l -13.332611,0 c -0.282025,0 -0.510638,0.228613 -0.510638,0.510639 l 0,0.635489 c 0,0.282 -0.228612,0.510638 -0.510638,0.510638 l -1.107319,0 c -0.282025,0 -0.510638,-0.228638 -0.510638,-0.510638 l 0,-0.635489 c 0,-0.282026 -0.228613,-0.510639 -0.510638,-0.510639 l -1.14766,0 c -0.282025,0 -0.510638,0.228613 -0.510638,0.510639 l 0,22.9787182 c 0,0.282026 0.228613,0.5106378 0.510638,0.5106378 l 1.14766,0 c 0.282025,0 0.510638,-0.2286118 0.510638,-0.5106378 l 0,-0.466851 c 0,-0.282025 0.228613,-0.510638 0.510638,-0.510638 l 1.107319,0 c 0.282026,0 0.510638,0.228613 0.510638,0.510638 l 0,0.466851 c 0,0.282026 0.228613,0.5106378 0.510638,0.5106378 l 13.332611,0 c 0.282051,0 0.510638,-0.2286118 0.510638,-0.5106378 l 0,-0.466851 c 0,-0.282025 0.228612,-0.510638 0.510638,-0.510638 l 1.107319,0 c 0.282025,0 0.510638,0.228613 0.510638,0.510638 l 0,0.466851 c 0,0.282026 0.228613,0.5106378 0.510638,0.5106378 l 1.187592,0 c 0.282025,0 0.510638,-0.2286118 0.510638,-0.5106378 l 0,-22.9787182 c 0,-0.282 -0.228613,-0.510639 -0.510638,-0.510639 z M 55.178091,5.6663342 c 0,0.282026 -0.228612,0.510639 -0.510638,0.510639 l -1.107319,0 c -0.282025,0 -0.510638,-0.228613 -0.510638,-0.510639 l 0,-1.1073192 c 0,-0.281999 0.228613,-0.510638 0.510638,-0.510638 l 1.107319,0 c 0.282026,0 0.510638,0.228639 0.510638,0.510638 l 0,1.1073192 z m 0,-4.5884926 c 0,0.282 -0.228612,0.510638 -0.510638,0.510638 l -1.107319,0 c -0.282025,0 -0.510638,-0.228638 -0.510638,-0.510638 l 0,-1.10734499 c 0,-0.282 0.228613,-0.510638 0.510638,-0.510638 l 1.107319,0 c 0.282026,0 0.510638,0.228638 0.510638,0.510638 l 0,1.10734499 z m 0,-4.588519 c 0,0.282051 -0.228612,0.510639 -0.510638,0.510639 l -1.107319,0 c -0.282025,0 -0.510638,-0.228588 -0.510638,-0.510639 l 0,-1.107318 c 0,-0.282026 0.228613,-0.510638 0.510638,-0.510638 l 1.107319,0 c 0.282026,0 0.510638,0.228612 0.510638,0.510638 l 0,1.107318 z m 0,-4.588492 c 0,0.282026 -0.228612,0.510638 -0.510638,0.510638 l -1.107319,0 c -0.282025,0 -0.510638,-0.228612 -0.510638,-0.510638 l 0,-1.107319 c 0,-0.282 0.228613,-0.510638 0.510638,-0.510638 l 1.107319,0 c 0.282026,0 0.510638,0.228638 0.510638,0.510638 l 0,1.107319 z M 67.324004,7.4254322 c 0,0.282051 -0.228613,0.510638 -0.510639,0.510638 l -8.87673,0 c -0.282025,0 -0.510638,-0.228587 -0.510638,-0.510638 l 0,-4.1035402 c 0,-0.282025 0.228613,-0.510638 0.510638,-0.510638 l 8.87673,0 c 0.282026,0 0.510639,0.228613 0.510639,0.510638 l 0,4.1035402 0,0 z m 0,-7.24866259 c 0,0.282025 -0.228613,0.510638 -0.510639,0.510638 l -8.87673,0 c -0.282025,0 -0.510638,-0.228613 -0.510638,-0.510638 l 0,-4.10354001 c 0,-0.282 0.228613,-0.510638 0.510638,-0.510638 l 8.87673,0 c 0.282026,0 0.510639,0.228638 0.510639,0.510638 l 0,4.10354001 0,0 z m 0,-7.24868801 c 0,0.282025 -0.228613,0.510638 -0.510639,0.510638 l -8.87673,0 c -0.282025,0 -0.510638,-0.228613 -0.510638,-0.510638 l 0,-4.1035396 c 0,-0.282 0.228613,-0.510638 0.510638,-0.510638 l 8.87673,0 c 0.282026,0 0.510639,0.228638 0.510639,0.510638 l 0,4.1035396 0,0 z m 4.336595,12.7382526 c 0,0.282026 -0.228613,0.510639 -0.510639,0.510639 l -1.107319,0 c -0.282025,0 -0.510638,-0.228613 -0.510638,-0.510639 l 0,-1.1073192 c 0,-0.281999 0.228613,-0.510638 0.510638,-0.510638 l 1.107319,0 c 0.282026,0 0.510639,0.228639 0.510639,0.510638 l 0,1.1073192 z m 0,-4.5884926 c 0,0.282 -0.228613,0.510638 -0.510639,0.510638 l -1.107319,0 c -0.282025,0 -0.510638,-0.228638 -0.510638,-0.510638 l 0,-1.10734499 c 0,-0.282 0.228613,-0.510638 0.510638,-0.510638 l 1.107319,0 c 0.282026,0 0.510639,0.228638 0.510639,0.510638 l 0,1.10734499 z m 0,-4.588519 c 0,0.282051 -0.228613,0.510639 -0.510639,0.510639 l -1.107319,0 c -0.282025,0 -0.510638,-0.228588 -0.510638,-0.510639 l 0,-1.107318 c 0,-0.282026 0.228613,-0.510638 0.510638,-0.510638 l 1.107319,0 c 0.282026,0 0.510639,0.228612 0.510639,0.510638 l 0,1.107318 z m 0,-4.588492 c 0,0.282026 -0.228613,0.510638 -0.510639,0.510638 l -1.107319,0 c -0.282025,0 -0.510638,-0.228612 -0.510638,-0.510638 l 0,-1.107319 c 0,-0.282 0.228613,-0.510638 0.510638,-0.510638 l 1.107319,0 c 0.282026,0 0.510639,0.228638 0.510639,0.510638 l 0,1.107319 z"
             inkscape:connector-curvature="0"
             style="display:inline;fill:#ffffff;fill-opacity:0.84555981;stroke:none;stroke-width:46.76432037;stroke-miterlimit:4;stroke-dasharray:none;stroke-opacity:1" />
        </g>
      </g>
    </g>
  </g>
</svg>
