<?xml version="1.0" encoding="UTF-8" standalone="no"?>
<svg
   xmlns:dc="http://purl.org/dc/elements/1.1/"
   xmlns:cc="http://creativecommons.org/ns#"
   xmlns:rdf="http://www.w3.org/1999/02/22-rdf-syntax-ns#"
   xmlns:svg="http://www.w3.org/2000/svg"
   xmlns="http://www.w3.org/2000/svg"
   xmlns:sodipodi="http://sodipodi.sourceforge.net/DTD/sodipodi-0.dtd"
   xmlns:inkscape="http://www.inkscape.org/namespaces/inkscape"
   viewBox="0 0 48 48"
   id="svg2"
   version="1.1"
   inkscape:version="0.91 r13725"
   sodipodi:docname="simplescreenrecorder-recording.svg">
  <metadata
     id="metadata10">
    <rdf:RDF>
      <cc:Work
         rdf:about="">
        <dc:format>image/svg+xml</dc:format>
        <dc:type
           rdf:resource="http://purl.org/dc/dcmitype/StillImage" />
      </cc:Work>
    </rdf:RDF>
  </metadata>
  <defs
     id="defs8" />
  <sodipodi:namedview
     pagecolor="#ffffff"
     bordercolor="#666666"
     borderopacity="1"
     objecttolerance="10"
     gridtolerance="10"
     guidetolerance="10"
     inkscape:pageopacity="0"
     inkscape:pageshadow="2"
     inkscape:window-width="1366"
     inkscape:window-height="687"
     id="namedview6"
     showgrid="false"
     inkscape:zoom="4.9166667"
     inkscape:cx="-15.559322"
     inkscape:cy="24.20339"
     inkscape:window-x="0"
     inkscape:window-y="0"
     inkscape:window-maximized="1"
     inkscape:current-layer="svg2" />
  <path
     inkscape:connector-curvature="0"
     d="m 3.494537,10.583972 c -0.822793,0 -1.493787,0.669894 -1.493787,1.493786 l 0,23.844484 c 0,0.822792 0.669894,1.493786 1.493787,1.493786 l 30.117726,0 c 0.822792,0 1.493786,-0.669894 1.493786,-1.493786 l 0,-8.358824 8.510623,7.331433 c 0.426796,0.368497 1.03289,0.452096 1.543286,0.217798 0.511495,-0.235398 0.839292,-0.747993 0.839292,-1.312288 l 0,-19.600722 c 0,-0.564295 -0.326697,-1.07359 -0.839292,-1.308988 -0.511496,-0.234298 -1.11649,-0.152899 -1.543286,0.214498 l -8.510623,7.331433 0,-8.358824 c 0,-0.822792 -0.669894,-1.493786 -1.493786,-1.493786 l -30.117726,0 m 14.847221,6.646876 a 6.7691691,6.7691691 0 0 1 6.769169,6.769171 6.7691691,6.7691691 0 0 1 -6.769169,6.769169 6.7691691,6.7691691 0 0 1 -6.769169,-6.769169 6.7691691,6.7691691 0 0 1 6.769169,-6.769171"
     id="path4"
     style="fill:#ffffff;fill-opacity:1;enable-background:new" />
</svg>
