<?xml version="1.0" encoding="UTF-8" standalone="no"?>
<svg
   xmlns:dc="http://purl.org/dc/elements/1.1/"
   xmlns:cc="http://creativecommons.org/ns#"
   xmlns:rdf="http://www.w3.org/1999/02/22-rdf-syntax-ns#"
   xmlns:svg="http://www.w3.org/2000/svg"
   xmlns="http://www.w3.org/2000/svg"
   xmlns:sodipodi="http://sodipodi.sourceforge.net/DTD/sodipodi-0.dtd"
   xmlns:inkscape="http://www.inkscape.org/namespaces/inkscape"
   viewBox="0 0 48 48"
   id="svg2"
   version="1.1"
   inkscape:version="0.91 r13725"
   sodipodi:docname="simplescreenrecorder-paused.svg">
  <metadata
     id="metadata10">
    <rdf:RDF>
      <cc:Work
         rdf:about="">
        <dc:format>image/svg+xml</dc:format>
        <dc:type
           rdf:resource="http://purl.org/dc/dcmitype/StillImage" />
        <dc:title></dc:title>
      </cc:Work>
    </rdf:RDF>
  </metadata>
  <defs
     id="defs8" />
  <sodipodi:namedview
     pagecolor="#5f5f5f"
     bordercolor="#666666"
     borderopacity="1"
     objecttolerance="10"
     gridtolerance="10"
     guidetolerance="10"
     inkscape:pageopacity="0"
     inkscape:pageshadow="2"
     inkscape:window-width="1366"
     inkscape:window-height="687"
     id="namedview6"
     showgrid="false"
     inkscape:zoom="4.9166667"
     inkscape:cx="-55.118644"
     inkscape:cy="24.305085"
     inkscape:window-x="0"
     inkscape:window-y="0"
     inkscape:window-maximized="1"
     inkscape:current-layer="svg2" />
  <path
     inkscape:connector-curvature="0"
     d="m 3.4936762,10.583525 c -0.822453,0 -1.4942921,0.670147 -1.4942921,1.494292 l 0,23.844366 c 0,0.822453 0.6701468,1.494292 1.4942921,1.494292 l 30.1176848,0 c 0.822453,0 1.494292,-0.670147 1.494292,-1.494292 l 0,-8.35822 8.512219,7.331 c 0.426457,0.368919 1.033989,0.451842 1.543368,0.218306 0.512764,-0.235229 0.839376,-0.747993 0.839376,-1.311525 l 0,-19.600103 c 0,-0.563532 -0.326612,-1.072912 -0.839376,-1.30814 -0.511071,-0.235228 -1.116911,-0.153998 -1.543368,0.214921 l -8.512219,7.331 0,-8.35822 c 0,-0.822453 -0.670147,-1.494292 -1.494292,-1.494292 l -30.1176848,0 m 7.9453018,6.647315 4.511645,0 0,13.53832 -4.511645,0 0,-13.53832 m 9.026674,0 4.511646,0 0,13.53832 -4.511646,0 0,-13.53832"
     id="path4"
     style="fill:#ffffff;fill-opacity:1;enable-background:new" />
</svg>
