<svg xmlns="http://www.w3.org/2000/svg" viewBox="0 0 48 48"><defs><linearGradient gradientUnits="userSpaceOnUse" y2="-2.875" x2="-26.625" y1="47" x1="-26.75" id="0"><stop stop-color="#2e3e46"/><stop offset="1" stop-color="#5c7c89"/></linearGradient></defs><g transform="matrix(.99999 0 0 .99999 51.629.882)" enable-background="new"><ellipse cy="23.12" cx="-27.625" rx="22.836" ry="22.836" fill="url(#0)" stroke="url(#0)" stroke-width="2.328"/><g fill="#fff" fill-opacity=".848"><path d="m-16.703 17.15c-1.139-1.047-2.458-1.865-3.875-2.46-.184.278-.395.54-.634.779-.317.317-.673.588-1.061.805.411.136.805.291 1.184.469.385.181.534.653.32 1.022-.188.327-.598.456-.938.294-2.581-1.219-5.464-.989-6.729-.798-.372.055-.728-.181-.815-.546v-.003c-.1-.414.178-.824.598-.889.23-.036.508-.071.818-.1-.094-.081-.184-.165-.272-.252-.446-.446-.799-.967-1.045-1.548-.026-.061-.052-.126-.074-.187-.385.065-.767.145-1.139.239-2.167-1.261-4.768-1.264-6.314-1.112-.673.065-1.071.782-.776 1.39l1.31 2.683c-1.456 1.267-2.556 2.819-3.173 4.548l-1.598-.006c-.537-.003-.974.433-.974.97v3.582c0 .362.201.692.521.86l2.074 1.08c.867 2.389 2.662 4.439 5.03 5.851v3.171c0 .624.508 1.131 1.132 1.131h2.905c.45 0 .857-.268 1.038-.679l.728-1.671c.628.078 1.265.116 1.918.116 1.029 0 2.028-.097 2.989-.281v1.384c0 .624.508 1.131 1.132 1.131h2.892c.417 0 .802-.23 1-.598 1.54-2.89 3.212-5.79 4.448-8.816.624-1.532.851-3.158.715-4.746-.22-2.56-1.385-5.02-3.335-6.811m-17.378 6.02c-.805 0-1.456-.65-1.456-1.455 0-.805.65-1.455 1.456-1.455.805 0 1.456.65 1.456 1.455 0 .805-.65 1.455-1.456 1.455"/><path d="m-26.09 15.657c.443.175.928.272 1.436.272.249 0 .492-.023.725-.068.99-.184 1.847-.744 2.42-1.523.476-.647.757-1.445.757-2.311.003-2.156-1.747-3.902-3.901-3.902-2.158 0-3.904 1.746-3.904 3.902 0 .559.116 1.089.33 1.571.411.938 1.184 1.681 2.138 2.059"/></g></g></svg>