<svg xmlns="http://www.w3.org/2000/svg" viewBox="0 0 48 48"><defs><clipPath><path d="m69.63 12.145h-.052c-22.727-.292-46.47 4.077-46.709 4.122-2.424.451-4.946 2.974-5.397 5.397-.044.237-4.414 23.983-4.122 46.71-.292 22.777 4.078 46.523 4.122 46.761.451 2.423 2.974 4.945 5.398 5.398.237.044 23.982 4.413 46.709 4.121 22.779.292 46.524-4.077 46.761-4.121 2.423-.452 4.946-2.976 5.398-5.399.044-.236 4.413-23.981 4.121-46.709.292-22.777-4.077-46.523-4.121-46.761-.453-2.423-2.976-4.946-5.398-5.397-.238-.045-23.984-4.414-46.71-4.122"/></clipPath><clipPath><path transform="matrix(15.33333 0 0 11.5 415-125.5)" d="m-24 13c0 1.105-.672 2-1.5 2-.828 0-1.5-.895-1.5-2 0-1.105.672-2 1.5-2 .828 0 1.5.895 1.5 2" fill="#1890d0"/></clipPath><clipPath><path transform="matrix(15.33333 0 0 11.5 415-125.5)" d="m-24 13c0 1.105-.672 2-1.5 2-.828 0-1.5-.895-1.5-2 0-1.105.672-2 1.5-2 .828 0 1.5.895 1.5 2" fill="#1890d0"/></clipPath><linearGradient id="0" x1="-29.05" y1="46.26" x2="-30.742" y2="-2.15" gradientUnits="userSpaceOnUse"><stop stop-color="#c52828"/><stop stop-color="#ff5454" offset="1"/></linearGradient></defs><g transform="translate(54.2 1.743)"><path d="m-7.9 27.353c.341-1.561.523-3.181.523-4.844 0-12.467-10.11-22.573-22.574-22.573-1.316 0-2.606.114-3.86.33-2.02-1.271-4.404-2.01-6.965-2.01-7.23 0-13.09 5.861-13.09 13.09 0 2.417.658 4.679 1.799 6.622-.299 1.466-.457 2.985-.457 4.54 0 12.467 10.11 22.574 22.573 22.574 1.412 0 2.793-.131 4.133-.379 1.843.991 3.95 1.553 6.189 1.553 7.23 0 13.09-5.861 13.09-13.09 0-2.089-.492-4.062-1.362-5.814" fill="url(#0)"/><path d="m-25.25 27.943c-.501 4.738-7.541 3.337-10.277 1.468-1.134-.934-2.102-.634-2.97.234-.601.901-.634 2.369.467 3.27 4.605 3.804 16.884 3.604 17.12-4.872.234-8.876-14.281-5.739-13.38-11.211.701-3.47 6.306-2.736 8.776-1.168 2 1.468 4.405-1.435 2.136-3.27-4.605-3.537-14.381-2.369-15.15 4.104-1.034 9.476 12.846 6.507 13.28 11.445z" fill="#f8e1e1" stroke="#f8e1e1" stroke-width="1.135"/></g></svg>