<?xml version="1.0" encoding="UTF-8" standalone="no"?>
<!-- Created with Inkscape (http://www.inkscape.org/) -->

<svg
   xmlns:osb="http://www.openswatchbook.org/uri/2009/osb"
   xmlns:dc="http://purl.org/dc/elements/1.1/"
   xmlns:cc="http://creativecommons.org/ns#"
   xmlns:rdf="http://www.w3.org/1999/02/22-rdf-syntax-ns#"
   xmlns:svg="http://www.w3.org/2000/svg"
   xmlns="http://www.w3.org/2000/svg"
   xmlns:xlink="http://www.w3.org/1999/xlink"
   xmlns:sodipodi="http://sodipodi.sourceforge.net/DTD/sodipodi-0.dtd"
   xmlns:inkscape="http://www.inkscape.org/namespaces/inkscape"
   width="48"
   height="48"
   id="svg5453"
   version="1.1"
   inkscape:version="0.91 r13725"
   sodipodi:docname="sms_protocol.svg">
  <defs
     id="defs5455">
    <linearGradient
       id="linearGradient4143"
       inkscape:collect="always">
      <stop
         id="stop4145"
         offset="0"
         style="stop-color:#197cf1;stop-opacity:1" />
      <stop
         id="stop4147"
         offset="1"
         style="stop-color:#20bcfa;stop-opacity:1" />
    </linearGradient>
    <linearGradient
       osb:paint="gradient"
       id="linearGradient4207">
      <stop
         id="stop3371"
         offset="0"
         style="stop-color:#3498db;stop-opacity:1;" />
      <stop
         id="stop3373"
         offset="1"
         style="stop-color:#3498db;stop-opacity:0;" />
    </linearGradient>
    <linearGradient
       inkscape:collect="always"
       xlink:href="#linearGradient4143"
       id="linearGradient4182"
       x1="374.35861"
       y1="541.33575"
       x2="373.57144"
       y2="507.798"
       gradientUnits="userSpaceOnUse"
       gradientTransform="matrix(1.1794756,0,0,1.1794756,-99.53949,-87.834792)" />
  </defs>
  <sodipodi:namedview
     id="base"
     pagecolor="#5a5a5a"
     bordercolor="#666666"
     borderopacity="1.0"
     inkscape:pageopacity="0"
     inkscape:pageshadow="2"
     inkscape:zoom="5.0803646"
     inkscape:cx="-6.6555069"
     inkscape:cy="33.883887"
     inkscape:document-units="px"
     inkscape:current-layer="g4177"
     showgrid="false"
     fit-margin-top="0"
     fit-margin-left="0"
     fit-margin-right="0"
     fit-margin-bottom="0"
     inkscape:window-width="1366"
     inkscape:window-height="629"
     inkscape:window-x="0"
     inkscape:window-y="37"
     inkscape:window-maximized="1"
     inkscape:showpageshadow="false"
     borderlayer="true"
     showguides="false"
     showborder="false">
    <inkscape:grid
       type="xygrid"
       id="grid4063" />
    <sodipodi:guide
       position="1.1650391e-05,47.999996"
       orientation="4,0"
       id="guide4146" />
    <sodipodi:guide
       position="-25,45"
       orientation="0,48"
       id="guide4148" />
    <sodipodi:guide
       position="48.000012,43.999996"
       orientation="-4,0"
       id="guide4150" />
    <sodipodi:guide
       position="48.000012,47.999996"
       orientation="0,-48"
       id="guide4152" />
    <sodipodi:guide
       position="1.1650391e-05,4.0000264"
       orientation="4,0"
       id="guide4154" />
    <sodipodi:guide
       position="1.1650391e-05,2.6367188e-05"
       orientation="0,48"
       id="guide4156" />
    <sodipodi:guide
       position="48.000012,2.6367188e-05"
       orientation="-4,0"
       id="guide4158" />
    <sodipodi:guide
       position="48.000012,4.0000264"
       orientation="0,-48"
       id="guide4160" />
    <sodipodi:guide
       position="48.000012,48.000026"
       orientation="0,-4"
       id="guide4162" />
    <sodipodi:guide
       position="44.000012,48.000026"
       orientation="48,0"
       id="guide4164" />
    <sodipodi:guide
       position="44.000012,2.6367188e-05"
       orientation="0,4"
       id="guide4166" />
    <sodipodi:guide
       position="48.000012,2.6367188e-05"
       orientation="-48,0"
       id="guide4168" />
    <sodipodi:guide
       position="4.0000422,48.000026"
       orientation="0,-4"
       id="guide4170" />
    <sodipodi:guide
       position="4.2167969e-05,48.000026"
       orientation="48,0"
       id="guide4172" />
    <sodipodi:guide
       position="4.2167969e-05,2.6367188e-05"
       orientation="0,4"
       id="guide4174" />
    <sodipodi:guide
       position="4.0000422,2.6367188e-05"
       orientation="-48,0"
       id="guide4176" />
    <sodipodi:guide
       position="4.0000117,47.999996"
       orientation="43.999969,0"
       id="guide4638" />
    <sodipodi:guide
       position="4.0000117,4.0000264"
       orientation="0,20"
       id="guide4640" />
    <sodipodi:guide
       position="24.000012,4.0000264"
       orientation="-43.999969,0"
       id="guide4642" />
    <sodipodi:guide
       position="24.000012,47.999996"
       orientation="0,-20"
       id="guide4644" />
    <sodipodi:guide
       position="4.0000422,24.000026"
       orientation="20,0"
       id="guide4666" />
    <sodipodi:guide
       position="4.0000422,4.0000264"
       orientation="0,39.999969"
       id="guide4668" />
    <sodipodi:guide
       position="44.000012,4.0000264"
       orientation="-20,0"
       id="guide4670" />
    <sodipodi:guide
       position="44.000012,24.000026"
       orientation="0,-39.999969"
       id="guide4672" />
  </sodipodi:namedview>
  <metadata
     id="metadata5458">
    <rdf:RDF>
      <cc:Work
         rdf:about="">
        <dc:format>image/svg+xml</dc:format>
        <dc:type
           rdf:resource="http://purl.org/dc/dcmitype/StillImage" />
        <dc:title></dc:title>
      </cc:Work>
    </rdf:RDF>
  </metadata>
  <g
     inkscape:label="Capa 1"
     inkscape:groupmode="layer"
     id="layer1"
     transform="translate(-384.57143,-499.798)">
    <g
       id="g4177">
      <g
         transform="matrix(1.1532003,0,0,1.1532003,-41.639646,-80.805138)"
         inkscape:label="Capa 1"
         id="layer1-29">
        <g
           id="layer1-2"
           inkscape:label="Capa 1"
           transform="translate(0.80041,-4.19993)">
          <g
             transform="matrix(0.81364921,0,0,0.81364921,112.58579,94.676663)"
             id="g4275">
            <path
               d="m 358.77104,516.99793 c -4.8234,-3.92542 -11.22786,-6.08712 -18.03349,-6.08712 -6.80575,0 -13.21022,2.16185 -18.03349,6.08712 -4.86535,3.9595 -7.54482,9.23646 -7.54482,14.859 0,5.36635 2.44243,10.41704 6.89488,14.30854 -0.0803,0.18057 -0.144,0.37054 -0.18468,0.57028 l -1.46301,7.19633 c -0.17395,0.85525 0.0599,1.36523 0.28634,1.64263 0.26189,0.3204 0.65007,0.49697 1.09314,0.49697 l 0,0 c 0.33452,0 0.69405,-0.0987 1.06868,-0.29345 l 8.50944,-4.42073 c 2.94612,0.94828 6.11338,1.44552 9.37335,1.44552 6.80578,0 13.21008,-2.16181 18.03351,-6.08708 4.8652,-3.95938 7.54467,-9.23635 7.54467,-14.85888 0,-5.62267 -2.67934,-10.89963 -7.54454,-14.85913 z"
               id="path3"
               inkscape:connector-curvature="0"
               sodipodi:nodetypes="csssccccccccscscc"
               style="fill:url(#linearGradient4182);fill-opacity:1" />
          </g>
          <g
             id="g4337"
             transform="matrix(0.83374987,0,0,0.83374987,87.111415,79.282571)"
             style="fill:#1a87f3;fill-opacity:1" />
        </g>
      </g>
      <g
         style="font-style:normal;font-weight:normal;font-size:40px;line-height:125%;font-family:sans-serif;letter-spacing:0px;word-spacing:0px;fill:#ffffff;fill-opacity:0.85304661;stroke:none;stroke-width:1px;stroke-linecap:butt;stroke-linejoin:miter;stroke-opacity:1"
         id="text4178"
         transform="matrix(0.47005679,0,0,0.47005679,242.45285,283.32402)">
        <path
           d="m 328.34812,519.89671 q -3.28,0 -5.44,-1.6 -2.12,-1.6 -3.12,-4 l 3.28,-1.36 q 1.56,3.68 5.32,3.68 1.72,0 2.80001,-0.76 1.12,-0.76 1.12,-2 0,-1.92 -2.68001,-2.6 l -3.96,-0.96 q -1.88,-0.48 -3.56,-1.8 -1.67999,-1.36 -1.67999,-3.64 0,-2.6 2.27999,-4.2 2.32,-1.64 5.48001,-1.64 2.59999,0 4.63999,1.2 2.04001,1.16 2.92001,3.36 l -3.2,1.32 q -1.08001,-2.6 -4.48001,-2.6 -1.63999,0 -2.75999,0.68 -1.12,0.68 -1.12,1.84 0,1.68 2.59999,2.28 l 3.88,0.92 q 2.76001,0.64 4.08001,2.2 1.31999,1.56 1.31999,3.52 0,2.64 -2.16,4.4 -2.15999,1.76 -5.56,1.76 z"
           style="font-style:normal;font-variant:normal;font-weight:normal;font-stretch:normal;font-family:'Product Sans';-inkscape-font-specification:'Product Sans';fill:#ffffff;fill-opacity:0.85304661"
           id="path4183"
           inkscape:connector-curvature="0" />
        <path
           d="m 339.03687,519.25671 0,-19.6 3.52,0 0,2.72 0.16001,0 q 0.83999,-1.4 2.56,-2.36 1.75999,-1 3.47999,-1 4.56,0 6.20001,3.76 2.39999,-3.76 6.83999,-3.76 3.48001,0 5.24,2.24 1.76,2.2 1.76,6 l 0,12 -3.68,0 0,-11.44 q 0,-2.96 -1.08,-4.2 -1.07999,-1.24 -3.28,-1.24 -2.16,0 -3.59999,1.84 -1.40001,1.84 -1.40001,4.2 l 0,10.84 -3.68,0 0,-11.44 q 0,-2.96 -1.08,-4.2 -1.08,-1.24 -3.27999,-1.24 -2.16001,0 -3.60001,1.84 -1.39999,1.84 -1.39999,4.2 l 0,10.84 -3.68001,0 z"
           style="font-style:normal;font-variant:normal;font-weight:normal;font-stretch:normal;font-family:'Product Sans';-inkscape-font-specification:'Product Sans';fill:#ffffff;fill-opacity:0.85304661"
           id="path4185"
           inkscape:connector-curvature="0" />
        <path
           d="m 380.145,519.89671 q -3.28,0 -5.44,-1.6 -2.12,-1.6 -3.12,-4 l 3.28,-1.36 q 1.56,3.68 5.32,3.68 1.72,0 2.8,-0.76 1.12,-0.76 1.12,-2 0,-1.92 -2.68,-2.6 l -3.96,-0.96 q -1.88,-0.48 -3.56,-1.8 -1.68,-1.36 -1.68,-3.64 0,-2.6 2.28,-4.2 2.32,-1.64 5.48,-1.64 2.6,0 4.64,1.2 2.04,1.16 2.92,3.36 l -3.2,1.32 q -1.08,-2.6 -4.48,-2.6 -1.64,0 -2.76,0.68 -1.12,0.68 -1.12,1.84 0,1.68 2.6,2.28 l 3.88,0.92 q 2.76,0.64 4.08,2.2 1.32,1.56 1.32,3.52 0,2.64 -2.16,4.4 -2.16,1.76 -5.56,1.76 z"
           style="font-style:normal;font-variant:normal;font-weight:normal;font-stretch:normal;font-family:'Product Sans';-inkscape-font-specification:'Product Sans';fill:#ffffff;fill-opacity:0.85304661"
           id="path4187"
           inkscape:connector-curvature="0" />
      </g>
    </g>
  </g>
</svg>
