<?xml version="1.0" encoding="UTF-8" standalone="no"?>
<!-- Created with Inkscape (http://www.inkscape.org/) -->

<svg
   xmlns:sketch="http://www.bohemiancoding.com/sketch/ns"
   xmlns:dc="http://purl.org/dc/elements/1.1/"
   xmlns:cc="http://creativecommons.org/ns#"
   xmlns:rdf="http://www.w3.org/1999/02/22-rdf-syntax-ns#"
   xmlns:svg="http://www.w3.org/2000/svg"
   xmlns="http://www.w3.org/2000/svg"
   xmlns:xlink="http://www.w3.org/1999/xlink"
   xmlns:sodipodi="http://sodipodi.sourceforge.net/DTD/sodipodi-0.dtd"
   xmlns:inkscape="http://www.inkscape.org/namespaces/inkscape"
   width="48"
   height="48"
   id="svg5453"
   version="1.1"
   inkscape:version="0.91 r13725"
   sodipodi:docname="soundkonverter.svg">
  <defs
     id="defs5455">
    <linearGradient
       gradientTransform="matrix(0.41708449,-3.0184975e-4,3.1664847e-4,0.39759146,-41.924612,-57.564659)"
       inkscape:collect="always"
       xlink:href="#linearGradient4299"
       id="linearGradient4991"
       gradientUnits="userSpaceOnUse"
       x1="5.4846191"
       y1="262.77066"
       x2="3.4191015"
       y2="147.64192" />
    <linearGradient
       id="linearGradient4299"
       inkscape:collect="always">
      <stop
         id="stop4301"
         offset="0"
         style="stop-color:#1074f5;stop-opacity:1" />
      <stop
         id="stop4303"
         offset="1"
         style="stop-color:#02befd;stop-opacity:1" />
    </linearGradient>
    <linearGradient
       gradientUnits="userSpaceOnUse"
       y2="253.9286"
       x2="371.47604"
       y1="473.93784"
       x1="371.47604"
       id="linearGradient4155-9-8"
       xlink:href="#linearGradient4316"
       inkscape:collect="always"
       gradientTransform="matrix(0.10608038,0,0,0.10608037,430.88601,501.39188)" />
    <linearGradient
       id="linearGradient4316">
      <stop
         id="stop4318"
         style="stop-color:#e3e3e3;stop-opacity:1"
         offset="0" />
      <stop
         id="stop4320"
         style="stop-color:#fcf9f9;stop-opacity:1"
         offset="1" />
    </linearGradient>
  </defs>
  <sodipodi:namedview
     id="base"
     pagecolor="#5a5a5a"
     bordercolor="#666666"
     borderopacity="1.0"
     inkscape:pageopacity="0"
     inkscape:pageshadow="2"
     inkscape:zoom="4.3179308"
     inkscape:cx="-55.654813"
     inkscape:cy="27.306194"
     inkscape:document-units="px"
     inkscape:current-layer="layer1"
     showgrid="false"
     fit-margin-top="0"
     fit-margin-left="0"
     fit-margin-right="0"
     fit-margin-bottom="0"
     inkscape:window-width="1366"
     inkscape:window-height="633"
     inkscape:window-x="0"
     inkscape:window-y="33"
     inkscape:window-maximized="1"
     inkscape:showpageshadow="false"
     borderlayer="true"
     showguides="false"
     inkscape:snap-bbox="true"
     inkscape:snap-bbox-edge-midpoints="true"
     showborder="false">
    <inkscape:grid
       type="xygrid"
       id="grid4063" />
    <sodipodi:guide
       position="1.1650391e-05,47.999996"
       orientation="4,0"
       id="guide4146" />
    <sodipodi:guide
       position="1.1650391e-05,43.999996"
       orientation="0,48"
       id="guide4148" />
    <sodipodi:guide
       position="48.000012,43.999996"
       orientation="-4,0"
       id="guide4150" />
    <sodipodi:guide
       position="48.000012,47.999996"
       orientation="0,-48"
       id="guide4152" />
    <sodipodi:guide
       position="1.1650391e-05,4.0000264"
       orientation="4,0"
       id="guide4154" />
    <sodipodi:guide
       position="1.1650391e-05,2.6367188e-05"
       orientation="0,48"
       id="guide4156" />
    <sodipodi:guide
       position="48.000012,2.6367188e-05"
       orientation="-4,0"
       id="guide4158" />
    <sodipodi:guide
       position="48.000012,4.0000264"
       orientation="0,-48"
       id="guide4160" />
    <sodipodi:guide
       position="48.000012,48.000026"
       orientation="0,-4"
       id="guide4162" />
    <sodipodi:guide
       position="44.000012,48.000026"
       orientation="48,0"
       id="guide4164" />
    <sodipodi:guide
       position="44.000012,2.6367188e-05"
       orientation="0,4"
       id="guide4166" />
    <sodipodi:guide
       position="48.000012,2.6367188e-05"
       orientation="-48,0"
       id="guide4168" />
    <sodipodi:guide
       position="4.0000422,48.000026"
       orientation="0,-4"
       id="guide4170" />
    <sodipodi:guide
       position="4.2167969e-05,48.000026"
       orientation="48,0"
       id="guide4172" />
    <sodipodi:guide
       position="4.2167969e-05,2.6367188e-05"
       orientation="0,4"
       id="guide4174" />
    <sodipodi:guide
       position="4.0000422,2.6367188e-05"
       orientation="-48,0"
       id="guide4176" />
  </sodipodi:namedview>
  <metadata
     id="metadata5458">
    <rdf:RDF>
      <cc:Work
         rdf:about="">
        <dc:format>image/svg+xml</dc:format>
        <dc:type
           rdf:resource="http://purl.org/dc/dcmitype/StillImage" />
        <dc:title></dc:title>
      </cc:Work>
    </rdf:RDF>
  </metadata>
  <g
     inkscape:label="Capa 1"
     inkscape:groupmode="layer"
     id="layer1"
     transform="translate(-384.57143,-499.798)">
    <g
       transform="matrix(0.69242505,0,0,0.69242505,402.87298,517.26396)"
       style="stroke-width:1.31742239;stroke-miterlimit:4;stroke-dasharray:none"
       id="g5186">
      <path
         sodipodi:nodetypes="cccccccccccccc"
         inkscape:connector-curvature="0"
         style="opacity:1;fill:url(#linearGradient4991);fill-opacity:1;fill-rule:evenodd;stroke:none;stroke-width:2.76384115px;stroke-linecap:butt;stroke-linejoin:miter;stroke-miterlimit:4;stroke-dasharray:none;stroke-opacity:1"
         d="m -51.798828,2.0566406 c -0.167933,-5.8e-6 -3.169838,-0.2178509 -3.169922,2.9726563 l -0.105469,40.0175781 c -3e-6,3.190507 3.000038,2.970709 3.167969,2.970703 l 19.919922,0 19.80664,0 c 0.167931,5e-6 3.1680072,0.219804 3.1679692,-2.970703 l 0,-19.947266 0.046875,0 0,-20.0703121 c 5.01e-5,-3.1905063 -3.0000422,-2.9726625 -3.1679682,-2.9726563 l -19.746094,0 -0.173828,0 z"
         transform="matrix(1.4441996,0,0,1.4441996,53.021865,-28.070698)"
         id="path4271-0" />
      <path
         style="fill:#d9effc;fill-opacity:1;stroke:none;stroke-width:1.31742239;stroke-miterlimit:4;stroke-dasharray:none;stroke-opacity:0.8"
         sketch:type="MSShapeGroup"
         id="Music-6"
         d="m 453.56639,515.32439 c -0.89144,0.25212 -1.6091,1.25503 -1.6091,2.22912 l 0,15.44461 c -0.90394,-0.49959 -2.06488,-0.70161 -3.26848,-0.37153 -2.17191,0.59564 -3.53291,2.52066 -3.06734,4.29902 0.46557,1.77836 2.6051,2.77168 4.77701,2.17604 1.73273,-0.47519 2.92714,-1.81972 3.11763,-3.23752 l 0.0503,-14.59542 11.26371,-3.18446 0,11.51711 c -0.90396,-0.49959 -2.0649,-0.7016 -3.26849,-0.37151 -2.1719,0.59563 -3.53291,2.52064 -3.06735,4.29901 0.46557,1.77836 2.60511,2.77169 4.77701,2.17604 1.73274,-0.47519 2.92715,-1.81972 3.11764,-3.23753 l 0.0503,-19.00058 c 0,-0.73056 -0.42777,-1.27716 -1.00569,-1.37992 l -11.86712,3.23752 z"
         inkscape:connector-curvature="0"
         transform="matrix(1.4873345,0,0,1.4873345,-675.17253,-774.01292)" />
      <circle
         transform="matrix(1.4873345,0,0,1.4873345,-675.40149,-779.05015)"
         cy="540.29169"
         cx="469.9303"
         id="path3340-8-9"
         style="opacity:1;fill:url(#linearGradient4155-9-8);fill-opacity:1;stroke:none;stroke-width:5.23831511;stroke-linecap:butt;stroke-linejoin:miter;stroke-miterlimit:4;stroke-dasharray:none;stroke-dashoffset:0;stroke-opacity:1"
         r="13.066079" />
      <path
         d="m 23.73727,12.005066 c 2.735,0.006 5.5083,0.85839 7.6746,2.5456 1.5229,1.7544 -1.3789,3.6333 -2.6858,1.9226 -3.9343,-2.3806 -9.4829,-1.5424 -12.443,2.0167 -1.5749,1.7662 -2.4622,4.1231 -2.4518,6.4891 l 2.6,0 -4.16,6.24 -4.1599999,-6.24 2.5999999,0 c -0.083,-5.649 3.98,-11.023 9.435,-12.486 1.17,-0.321 2.376,-0.501 3.591,-0.488 z m 11.414,6.76 4.16,6.24 -2.6,0 c 0.0737,5.7169 -4.093,11.151 -9.6433,12.537 -3.7452,1.0459 -7.9801,0.2827 -11.058,-2.1101 -1.5705,-1.7837 1.3716,-3.6445 2.6907,-1.9181 3.8119,2.3127 9.1499,1.5792 12.159,-1.724 1.742,-1.795 2.744,-4.283 2.731,-6.785 l -2.6,0 4.16,-6.24 z"
         style="opacity:1;fill:#0f7bf6;fill-opacity:1;enable-background:new"
         id="path5634-9-9"
         inkscape:connector-curvature="0" />
    </g>
  </g>
</svg>
