<svg xmlns="http://www.w3.org/2000/svg" xmlns:xlink="http://www.w3.org/1999/xlink" viewBox="0 0 48 48"><defs><clipPath><path d="m108.81 58c-1.56 0-2.81 1.254-2.81 2.812v24.375c0 1.559 1.25 2.813 2.81 2.813h24.375c1.57 0 2.82-1.254 2.82-2.812v-24.375c0-1.559-1.25-2.813-2.81-2.813h-24.375zm7.188 4.5h10v8.75h5l-10 13.75-10-13.75h5v-8.75"/></clipPath><filter color-interpolation-filters="sRGB"><feGaussianBlur stdDeviation="1.2"/></filter><filter color-interpolation-filters="sRGB"><feGaussianBlur stdDeviation="1.71"/></filter><filter color-interpolation-filters="sRGB"><feGaussianBlur stdDeviation=".6375"/></filter><linearGradient id="2" x1="410.53" y1="547.29" x2="408.57" y2="500.31" gradientUnits="userSpaceOnUse"><stop stop-color="#ff6835"/><stop offset="1" stop-color="#ff956f"/></linearGradient><linearGradient y1="92.54" gradientTransform="scale(1.0059.99417)" x2="0" gradientUnits="userSpaceOnUse" y2="7.02"><stop/><stop offset="1" stop-opacity=".588"/></linearGradient><linearGradient id="1"><stop stop-color="#fff"/><stop offset="1" stop-opacity="0" stop-color="#fff"/></linearGradient><linearGradient y1="58" x2="0" gradientUnits="userSpaceOnUse" xlink:href="#1" y2="79.09"/><linearGradient gradientUnits="userSpaceOnUse" x2="47" x1="0"><stop stop-color="#a9a3d4"/><stop offset=".47" stop-color="#87baff"/><stop offset="1" stop-color="#89ec85"/></linearGradient><linearGradient y1="71.38" x2="0" gradientUnits="userSpaceOnUse" xlink:href="#1" y2="62.54"/><linearGradient y2="500.8" x2="0" y1="546.8" gradientUnits="userSpaceOnUse" id="0"><stop stop-color="#1f2121"/><stop offset="1" stop-color="#404447"/></linearGradient><linearGradient gradientUnits="userSpaceOnUse" x1="-88" x2="-58"><stop stop-color="#499119"/><stop offset="1" stop-color="#8fd625"/></linearGradient><linearGradient y1="72.38" x2="0" gradientUnits="userSpaceOnUse" y2="63.54"><stop/><stop offset="1" stop-opacity="0"/></linearGradient></defs><g transform="matrix(1.05533 0 0 1.05533-517.89-533.88)" stroke-width="1.317"><g transform="matrix(.87763 0 0 .87763 154.52 68.52)"><rect width="50.894" height="50.894" x="383.12" y="498.35" fill="url(#2)" fill-rule="evenodd" rx="1.468"/><g transform="matrix(.8 0 0 .8 389.37 504.6)"><g font-family="&apos;Bitstream Vera Sans&apos;"><g font-size="12.666"><text x="877.23" y="10.813" opacity=".8"><tspan x="877.23" y="10.813"/></text><text x="901.19" y="-29.929" opacity=".8"><tspan x="901.19" y="-29.929"/></text><text x="-569.37" y="-60.01" opacity=".8"><tspan x="-569.37" y="-60.01"/></text><text x="-2393.06" y="685.55" opacity=".8"><tspan x="-2393.06" y="685.55"/></text><text x="-454.88" y="-445.33" opacity=".8"><tspan x="-454.88" y="-445.33"/></text><text x="352.72" y="-858.8" opacity=".8"><tspan x="352.72" y="-858.8"/></text><text x="376.68" y="-899.54" opacity=".8"><tspan x="376.68" y="-899.54"/></text><text x="-1114.78" y="-906.75" opacity=".8"><tspan x="-1114.78" y="-906.75"/></text><text x="345.76" y="-1179.98" opacity=".8"><tspan x="345.76" y="-1179.98"/></text><text x="1831.89" y="-553.29" opacity=".8"><tspan x="1831.89" y="-553.29"/></text><text x="1855.85" y="-594.03" opacity=".8"><tspan x="1855.85" y="-594.03"/></text><text x="364.38" y="-601.24" opacity=".8"><tspan x="364.38" y="-601.24"/></text><text x="1824.93" y="-874.48" opacity=".8"><tspan x="1824.93" y="-874.48"/></text><text x="-573.43" y="-649.34" opacity=".8"><tspan x="-573.43" y="-649.34"/></text><text x="-2397.12" y="96.22" opacity=".8"><tspan x="-2397.12" y="96.22"/></text><text x="-682.36" y="189.09" opacity=".8"><tspan x="-682.36" y="189.09"/></text><text x="426.66" y="9.908" opacity=".8"><tspan x="426.66" y="9.908"/></text><text x="450.62" y="-30.834" opacity=".8"><tspan x="450.62" y="-30.834"/></text><text x="-1040.84" y="-38.04" opacity=".8"><tspan x="-1040.84" y="-38.04"/></text><text x="419.7" y="-311.28" opacity=".8"><tspan x="419.7" y="-311.28"/></text><text x="-608.03" y="-40.758" opacity=".8"><tspan x="-608.03" y="-40.758"/></text><text x="-2431.72" y="704.8" opacity=".8"><tspan x="-2431.72" y="704.8"/></text><text x="-456.94" y="-902.29" opacity=".8"><tspan x="-456.94" y="-902.29"/></text><text x="350.66" y="-1315.76" opacity=".8"><tspan x="350.66" y="-1315.76"/></text><text x="374.62" y="-1356.5" opacity=".8"><tspan x="374.62" y="-1356.5"/></text><text x="-1116.84" y="-1363.71" opacity=".8"><tspan x="-1116.84" y="-1363.71"/></text><text x="343.7" y="-1636.94" opacity=".8"><tspan x="343.7" y="-1636.94"/></text><text x="1829.83" y="-1010.25" opacity=".8"><tspan x="1829.83" y="-1010.25"/></text><text x="1853.79" y="-1050.99" opacity=".8"><tspan x="1853.79" y="-1050.99"/></text><text x="362.32" y="-1058.2" opacity=".8"><tspan x="362.32" y="-1058.2"/></text><text x="1822.87" y="-1331.44" opacity=".8"><tspan x="1822.87" y="-1331.44"/></text><text x="-575.49" y="-1106.3" opacity=".8"><tspan x="-575.49" y="-1106.3"/></text><text x="-2399.18" y="-360.74" opacity=".8"><tspan x="-2399.18" y="-360.74"/></text><text x="-684.42" y="-267.87" opacity=".8"><tspan x="-684.42" y="-267.87"/></text><text x="155.59" y="-26.956" opacity=".8"><tspan x="155.59" y="-26.956"/></text><text x="179.55" y="-67.7" opacity=".8"><tspan x="179.55" y="-67.7"/></text><text x="-1090.26" y="-261.73" opacity=".8"><tspan x="-1090.26" y="-261.73"/></text><text x="-282.66" y="-675.2" opacity=".8"><tspan x="-282.66" y="-675.2"/></text><text x="-258.7" y="-715.94" opacity=".8"><tspan x="-258.7" y="-715.94"/></text><text x="-1750.16" y="-723.15" opacity=".8"><tspan x="-1750.16" y="-723.15"/></text><text x="-289.62" y="-996.38" opacity=".8"><tspan x="-289.62" y="-996.38"/></text><text x="1196.5" y="-369.69" opacity=".8"><tspan x="1196.5" y="-369.69"/></text><text x="1220.46" y="-410.43" opacity=".8"><tspan x="1220.46" y="-410.43"/></text><text x="-271" y="-417.64" opacity=".8"><tspan x="-271" y="-417.64"/></text><text x="1189.54" y="-690.88" opacity=".8"><tspan x="1189.54" y="-690.88"/></text><text x="-1208.82" y="-465.73" opacity=".8"><tspan x="-1208.82" y="-465.73"/></text><text x="-3032.5" y="279.82" opacity=".8"><tspan x="-3032.5" y="279.82"/></text></g><text x="-664.27" y="1159.42" font-size="14" opacity=".8" transform="matrix(.90475 0 0 .90475-716.75-676.29)"><tspan x="-664.27" y="1159.42"/></text><g font-size="12.666"><text x="877.23" y="18.05" opacity=".8"><tspan x="877.23" y="18.05"/></text><text x="901.19" y="-22.691" opacity=".8"><tspan x="901.19" y="-22.691"/></text><text x="-569.37" y="-52.769" opacity=".8"><tspan x="-569.37" y="-52.769"/></text><text x="-2393.06" y="692.78" opacity=".8"><tspan x="-2393.06" y="692.78"/></text><text x="-454.88" y="-438.09" opacity=".8"><tspan x="-454.88" y="-438.09"/></text><text x="352.72" y="-851.56" opacity=".8"><tspan x="352.72" y="-851.56"/></text><text x="376.68" y="-892.3" opacity=".8"><tspan x="376.68" y="-892.3"/></text><text x="-1114.78" y="-899.51" opacity=".8"><tspan x="-1114.78" y="-899.51"/></text><text x="345.76" y="-1172.75" opacity=".8"><tspan x="345.76" y="-1172.75"/></text><text x="1831.89" y="-546.05" opacity=".8"><tspan x="1831.89" y="-546.05"/></text><text x="1855.85" y="-586.8" opacity=".8"><tspan x="1855.85" y="-586.8"/></text><text x="364.38" y="-594.01" opacity=".8"><tspan x="364.38" y="-594.01"/></text><text x="1824.93" y="-867.24" opacity=".8"><tspan x="1824.93" y="-867.24"/></text><text x="-573.43" y="-642.1" opacity=".8"><tspan x="-573.43" y="-642.1"/></text><text x="-2397.12" y="103.46" opacity=".8"><tspan x="-2397.12" y="103.46"/></text><text x="-682.36" y="196.33" opacity=".8"><tspan x="-682.36" y="196.33"/></text><text x="426.66" y="17.15" opacity=".8"><tspan x="426.66" y="17.15"/></text><text x="450.62" y="-23.596" opacity=".8"><tspan x="450.62" y="-23.596"/></text><text x="-1040.84" y="-30.806" opacity=".8"><tspan x="-1040.84" y="-30.806"/></text><text x="419.7" y="-304.04" opacity=".8"><tspan x="419.7" y="-304.04"/></text><text x="-608.03" y="-33.52" opacity=".8"><tspan x="-608.03" y="-33.52"/></text><text x="-2431.72" y="712.03" opacity=".8"><tspan x="-2431.72" y="712.03"/></text><text x="-456.94" y="-895.05" opacity=".8"><tspan x="-456.94" y="-895.05"/></text><text x="350.66" y="-1308.52" opacity=".8"><tspan x="350.66" y="-1308.52"/></text><text x="374.62" y="-1349.26" opacity=".8"><tspan x="374.62" y="-1349.26"/></text><text x="-1116.84" y="-1356.47" opacity=".8"><tspan x="-1116.84" y="-1356.47"/></text><text x="343.7" y="-1629.71" opacity=".8"><tspan x="343.7" y="-1629.71"/></text><text x="1829.83" y="-1003.02" opacity=".8"><tspan x="1829.83" y="-1003.02"/></text><text x="1853.79" y="-1043.76" opacity=".8"><tspan x="1853.79" y="-1043.76"/></text><text x="362.32" y="-1050.97" opacity=".8"><tspan x="362.32" y="-1050.97"/></text><text x="1822.87" y="-1324.2" opacity=".8"><tspan x="1822.87" y="-1324.2"/></text><text x="-575.49" y="-1099.06" opacity=".8"><tspan x="-575.49" y="-1099.06"/></text><text x="-2399.18" y="-353.5" opacity=".8"><tspan x="-2399.18" y="-353.5"/></text><text x="-684.42" y="-260.63" opacity=".8"><tspan x="-684.42" y="-260.63"/></text><text x="155.59" y="-19.718" opacity=".8"><tspan x="155.59" y="-19.718"/></text><text x="179.55" y="-60.46" opacity=".8"><tspan x="179.55" y="-60.46"/></text><text x="-1090.26" y="-254.49" opacity=".8"><tspan x="-1090.26" y="-254.49"/></text><text x="-282.66" y="-667.96" opacity=".8"><tspan x="-282.66" y="-667.96"/></text><text x="-258.7" y="-708.7" opacity=".8"><tspan x="-258.7" y="-708.7"/></text><text x="-1750.16" y="-715.91" opacity=".8"><tspan x="-1750.16" y="-715.91"/></text><text x="-289.62" y="-989.14" opacity=".8"><tspan x="-289.62" y="-989.14"/></text><text x="1196.5" y="-362.45" opacity=".8"><tspan x="1196.5" y="-362.45"/></text><text x="1220.46" y="-403.19" opacity=".8"><tspan x="1220.46" y="-403.19"/></text><text x="-271" y="-410.4" opacity=".8"><tspan x="-271" y="-410.4"/></text><text x="1189.54" y="-683.64" opacity=".8"><tspan x="1189.54" y="-683.64"/></text><text x="-1208.82" y="-458.5" opacity=".8"><tspan x="-1208.82" y="-458.5"/></text><text x="-3032.5" y="287.06" opacity=".8"><tspan x="-3032.5" y="287.06"/></text></g><text x="-664.27" y="1159.42" font-size="14" opacity=".8" transform="matrix(.90475 0 0 .90475-716.75-669.05)"><tspan x="-664.27" y="1159.42"/></text></g><g font-size="12.666"><text x="435.9" y="-361.23" font-family="&apos;Droid Sans&apos;"><tspan x="435.9" y="-361.23"/><tspan x="435.9" y="-345.39"/></text><g font-family="&apos;Bitstream Vera Sans&apos;"><text x="901.09" y="-843.27" opacity=".8"><tspan x="901.09" y="-843.27"/></text><text x="-922.6" y="-97.72" opacity=".8"><tspan x="-922.6" y="-97.72"/></text><text x="1628.17" y="-1128.27" opacity=".8"><tspan x="1628.17" y="-1128.27"/></text><text x="1652.13" y="-1169.01" opacity=".8"><tspan x="1652.13" y="-1169.01"/></text><text x="160.67" y="-1176.22" opacity=".8"><tspan x="160.67" y="-1176.22"/></text><text x="1621.21" y="-1449.45" opacity=".8"><tspan x="1621.21" y="-1449.45"/></text></g></g></g></g><path d="m31.722 324.47c-54.47 15.561-98.31 77.46-98.31 137.59v953.28c-55.23-30.836-126.16-43.3-199.7-22.931-132.7 36.764-215.85 155.58-187.41 265.34 28.445 109.76 159.17 171.07 291.87 134.31 105.87-29.33 178.84-112.32 190.48-199.83l3.072-900.86 688.19-196.55v710.86c-55.23-30.836-126.16-43.3-199.7-22.93-132.7 36.764-215.85 155.58-187.41 265.34 28.445 109.76 159.17 171.07 291.87 134.31 105.87-29.33 178.84-112.32 190.48-199.83l3.072-1172.76c0-45.09-26.14-78.83-61.45-85.17l-725.06 199.83" fill="#fff" stroke="none" fill-opacity=".851" transform="matrix(.01637 0 0 .0162 508.66 512.7)" stroke-opacity=".8"/><g transform="matrix(.43478 0 0 .43478 304.13 312.37)"><rect width="46" height="46" x="385.57" y="500.8" fill="url(#0)" rx="23" stroke-width="1.515" transform="translate(102.19 2.931)"/><g transform="matrix(1.23098 0 0 1.23098 481.22 495.95)"><g font-family="&apos;Bitstream Vera Sans&apos;"><g font-size="12.666"><text y="10.813" x="877.23" opacity=".8"><tspan y="10.813" x="877.23"/></text><text y="-29.929" x="901.19" opacity=".8"><tspan y="-29.929" x="901.19"/></text><text y="-60.01" x="-569.37" opacity=".8"><tspan y="-60.01" x="-569.37"/></text><text y="685.55" x="-2393.06" opacity=".8"><tspan y="685.55" x="-2393.06"/></text><text y="-445.33" x="-454.88" opacity=".8"><tspan y="-445.33" x="-454.88"/></text><text y="-858.8" x="352.72" opacity=".8"><tspan y="-858.8" x="352.72"/></text><text y="-899.54" x="376.68" opacity=".8"><tspan y="-899.54" x="376.68"/></text><text y="-906.75" x="-1114.78" opacity=".8"><tspan y="-906.75" x="-1114.78"/></text><text y="-1179.98" x="345.76" opacity=".8"><tspan y="-1179.98" x="345.76"/></text><text y="-553.29" x="1831.89" opacity=".8"><tspan y="-553.29" x="1831.89"/></text><text y="-594.03" x="1855.85" opacity=".8"><tspan y="-594.03" x="1855.85"/></text><text y="-601.24" x="364.38" opacity=".8"><tspan y="-601.24" x="364.38"/></text><text y="-874.48" x="1824.93" opacity=".8"><tspan y="-874.48" x="1824.93"/></text><text y="-649.34" x="-573.43" opacity=".8"><tspan y="-649.34" x="-573.43"/></text><text y="96.22" x="-2397.12" opacity=".8"><tspan y="96.22" x="-2397.12"/></text><text y="189.09" x="-682.36" opacity=".8"><tspan y="189.09" x="-682.36"/></text><text y="9.908" x="426.66" opacity=".8"><tspan y="9.908" x="426.66"/></text><text y="-30.834" x="450.62" opacity=".8"><tspan y="-30.834" x="450.62"/></text><text y="-38.04" x="-1040.84" opacity=".8"><tspan y="-38.04" x="-1040.84"/></text><text y="-311.28" x="419.7" opacity=".8"><tspan y="-311.28" x="419.7"/></text><text y="-40.758" x="-608.03" opacity=".8"><tspan y="-40.758" x="-608.03"/></text><text y="704.8" x="-2431.72" opacity=".8"><tspan y="704.8" x="-2431.72"/></text><text y="-902.29" x="-456.94" opacity=".8"><tspan y="-902.29" x="-456.94"/></text><text y="-1315.76" x="350.66" opacity=".8"><tspan y="-1315.76" x="350.66"/></text><text y="-1356.5" x="374.62" opacity=".8"><tspan y="-1356.5" x="374.62"/></text><text y="-1363.71" x="-1116.84" opacity=".8"><tspan y="-1363.71" x="-1116.84"/></text><text y="-1636.94" x="343.7" opacity=".8"><tspan y="-1636.94" x="343.7"/></text><text y="-1010.25" x="1829.83" opacity=".8"><tspan y="-1010.25" x="1829.83"/></text><text y="-1050.99" x="1853.79" opacity=".8"><tspan y="-1050.99" x="1853.79"/></text><text y="-1058.2" x="362.32" opacity=".8"><tspan y="-1058.2" x="362.32"/></text><text y="-1331.44" x="1822.87" opacity=".8"><tspan y="-1331.44" x="1822.87"/></text><text y="-1106.3" x="-575.49" opacity=".8"><tspan y="-1106.3" x="-575.49"/></text><text y="-360.74" x="-2399.18" opacity=".8"><tspan y="-360.74" x="-2399.18"/></text><text y="-267.87" x="-684.42" opacity=".8"><tspan y="-267.87" x="-684.42"/></text><text y="-26.956" x="155.59" opacity=".8"><tspan y="-26.956" x="155.59"/></text><text y="-67.7" x="179.55" opacity=".8"><tspan y="-67.7" x="179.55"/></text><text y="-261.73" x="-1090.26" opacity=".8"><tspan y="-261.73" x="-1090.26"/></text><text y="-675.2" x="-282.66" opacity=".8"><tspan y="-675.2" x="-282.66"/></text><text y="-715.94" x="-258.7" opacity=".8"><tspan y="-715.94" x="-258.7"/></text><text y="-723.15" x="-1750.16" opacity=".8"><tspan y="-723.15" x="-1750.16"/></text><text y="-996.38" x="-289.62" opacity=".8"><tspan y="-996.38" x="-289.62"/></text><text y="-369.69" x="1196.5" opacity=".8"><tspan y="-369.69" x="1196.5"/></text><text y="-410.43" x="1220.46" opacity=".8"><tspan y="-410.43" x="1220.46"/></text><text y="-417.64" x="-271" opacity=".8"><tspan y="-417.64" x="-271"/></text><text y="-690.88" x="1189.54" opacity=".8"><tspan y="-690.88" x="1189.54"/></text><text y="-465.73" x="-1208.82" opacity=".8"><tspan y="-465.73" x="-1208.82"/></text><text y="279.82" x="-3032.5" opacity=".8"><tspan y="279.82" x="-3032.5"/></text></g><text font-size="14" y="1159.42" x="-664.27" opacity=".8" transform="matrix(.90475 0 0 .90475-716.75-676.29)"><tspan y="1159.42" x="-664.27"/></text><g font-size="12.666"><text y="18.05" x="877.23" opacity=".8"><tspan y="18.05" x="877.23"/></text><text y="-22.691" x="901.19" opacity=".8"><tspan y="-22.691" x="901.19"/></text><text y="-52.769" x="-569.37" opacity=".8"><tspan y="-52.769" x="-569.37"/></text><text y="692.78" x="-2393.06" opacity=".8"><tspan y="692.78" x="-2393.06"/></text><text y="-438.09" x="-454.88" opacity=".8"><tspan y="-438.09" x="-454.88"/></text><text y="-851.56" x="352.72" opacity=".8"><tspan y="-851.56" x="352.72"/></text><text y="-892.3" x="376.68" opacity=".8"><tspan y="-892.3" x="376.68"/></text><text y="-899.51" x="-1114.78" opacity=".8"><tspan y="-899.51" x="-1114.78"/></text><text y="-1172.75" x="345.76" opacity=".8"><tspan y="-1172.75" x="345.76"/></text><text y="-546.05" x="1831.89" opacity=".8"><tspan y="-546.05" x="1831.89"/></text><text y="-586.8" x="1855.85" opacity=".8"><tspan y="-586.8" x="1855.85"/></text><text y="-594.01" x="364.38" opacity=".8"><tspan y="-594.01" x="364.38"/></text><text y="-867.24" x="1824.93" opacity=".8"><tspan y="-867.24" x="1824.93"/></text><text y="-642.1" x="-573.43" opacity=".8"><tspan y="-642.1" x="-573.43"/></text><text y="103.46" x="-2397.12" opacity=".8"><tspan y="103.46" x="-2397.12"/></text><text y="196.33" x="-682.36" opacity=".8"><tspan y="196.33" x="-682.36"/></text><text y="17.15" x="426.66" opacity=".8"><tspan y="17.15" x="426.66"/></text><text y="-23.596" x="450.62" opacity=".8"><tspan y="-23.596" x="450.62"/></text><text y="-30.806" x="-1040.84" opacity=".8"><tspan y="-30.806" x="-1040.84"/></text><text y="-304.04" x="419.7" opacity=".8"><tspan y="-304.04" x="419.7"/></text><text y="-33.52" x="-608.03" opacity=".8"><tspan y="-33.52" x="-608.03"/></text><text y="712.03" x="-2431.72" opacity=".8"><tspan y="712.03" x="-2431.72"/></text><text y="-895.05" x="-456.94" opacity=".8"><tspan y="-895.05" x="-456.94"/></text><text y="-1308.52" x="350.66" opacity=".8"><tspan y="-1308.52" x="350.66"/></text><text y="-1349.26" x="374.62" opacity=".8"><tspan y="-1349.26" x="374.62"/></text><text y="-1356.47" x="-1116.84" opacity=".8"><tspan y="-1356.47" x="-1116.84"/></text><text y="-1629.71" x="343.7" opacity=".8"><tspan y="-1629.71" x="343.7"/></text><text y="-1003.02" x="1829.83" opacity=".8"><tspan y="-1003.02" x="1829.83"/></text><text y="-1043.76" x="1853.79" opacity=".8"><tspan y="-1043.76" x="1853.79"/></text><text y="-1050.97" x="362.32" opacity=".8"><tspan y="-1050.97" x="362.32"/></text><text y="-1324.2" x="1822.87" opacity=".8"><tspan y="-1324.2" x="1822.87"/></text><text y="-1099.06" x="-575.49" opacity=".8"><tspan y="-1099.06" x="-575.49"/></text><text y="-353.5" x="-2399.18" opacity=".8"><tspan y="-353.5" x="-2399.18"/></text><text y="-260.63" x="-684.42" opacity=".8"><tspan y="-260.63" x="-684.42"/></text><text y="-19.718" x="155.59" opacity=".8"><tspan y="-19.718" x="155.59"/></text><text y="-60.46" x="179.55" opacity=".8"><tspan y="-60.46" x="179.55"/></text><text y="-254.49" x="-1090.26" opacity=".8"><tspan y="-254.49" x="-1090.26"/></text><text y="-667.96" x="-282.66" opacity=".8"><tspan y="-667.96" x="-282.66"/></text><text y="-708.7" x="-258.7" opacity=".8"><tspan y="-708.7" x="-258.7"/></text><text y="-715.91" x="-1750.16" opacity=".8"><tspan y="-715.91" x="-1750.16"/></text><text y="-989.14" x="-289.62" opacity=".8"><tspan y="-989.14" x="-289.62"/></text><text y="-362.45" x="1196.5" opacity=".8"><tspan y="-362.45" x="1196.5"/></text><text y="-403.19" x="1220.46" opacity=".8"><tspan y="-403.19" x="1220.46"/></text><text y="-410.4" x="-271" opacity=".8"><tspan y="-410.4" x="-271"/></text><text y="-683.64" x="1189.54" opacity=".8"><tspan y="-683.64" x="1189.54"/></text><text y="-458.5" x="-1208.82" opacity=".8"><tspan y="-458.5" x="-1208.82"/></text><text y="287.06" x="-3032.5" opacity=".8"><tspan y="287.06" x="-3032.5"/></text></g><text font-size="14" y="1159.42" x="-664.27" opacity=".8" transform="matrix(.90475 0 0 .90475-716.75-669.05)"><tspan y="1159.42" x="-664.27"/></text></g><g font-size="12.666"><text y="-361.23" x="435.9" font-family="&apos;Droid Sans&apos;"><tspan y="-361.23" x="435.9"/><tspan y="-345.39" x="435.9"/></text><g font-family="&apos;Bitstream Vera Sans&apos;"><text y="-843.27" x="901.09" opacity=".8"><tspan y="-843.27" x="901.09"/></text><text y="-97.72" x="-922.6" opacity=".8"><tspan y="-97.72" x="-922.6"/></text><text y="-1128.27" x="1628.17" opacity=".8"><tspan y="-1128.27" x="1628.17"/></text><text y="-1169.01" x="1652.13" opacity=".8"><tspan y="-1169.01" x="1652.13"/></text><text y="-1176.22" x="160.67" opacity=".8"><tspan y="-1176.22" x="160.67"/></text><text y="-1449.45" x="1621.21" opacity=".8"><tspan y="-1449.45" x="1621.21"/></text><text y="9.592" x="808.48" opacity=".8"><tspan y="9.592" x="808.48"/></text><text y="-31.15" x="832.44" opacity=".8"><tspan y="-31.15" x="832.44"/></text><text y="-61.23" x="-638.12" opacity=".8"><tspan y="-61.23" x="-638.12"/></text><text y="684.33" x="-2461.8" opacity=".8"><tspan y="684.33" x="-2461.8"/></text><text y="-446.55" x="-523.63" opacity=".8"><tspan y="-446.55" x="-523.63"/></text><text y="-860.02" x="283.98" opacity=".8"><tspan y="-860.02" x="283.98"/></text><text y="-900.76" x="307.94" opacity=".8"><tspan y="-900.76" x="307.94"/></text><text y="-907.97" x="-1183.53" opacity=".8"><tspan y="-907.97" x="-1183.53"/></text><text y="-1181.2" x="277.02" opacity=".8"><tspan y="-1181.2" x="277.02"/></text><text y="-554.51" x="1763.14" opacity=".8"><tspan y="-554.51" x="1763.14"/></text><text y="-595.25" x="1787.1" opacity=".8"><tspan y="-595.25" x="1787.1"/></text><text y="-602.46" x="295.64" opacity=".8"><tspan y="-602.46" x="295.64"/></text><text y="-875.7" x="1756.18" opacity=".8"><tspan y="-875.7" x="1756.18"/></text><text y="-650.56" x="-642.18" opacity=".8"><tspan y="-650.56" x="-642.18"/></text><text y="95" x="-2465.86" opacity=".8"><tspan y="95" x="-2465.86"/></text><text y="187.87" x="-751.11" opacity=".8"><tspan y="187.87" x="-751.11"/></text><text y="8.688" x="357.92" opacity=".8"><tspan y="8.688" x="357.92"/></text><text y="-32.05" x="381.88" opacity=".8"><tspan y="-32.05" x="381.88"/></text><text y="-39.26" x="-1109.59" opacity=".8"><tspan y="-39.26" x="-1109.59"/></text><text y="-312.5" x="350.96" opacity=".8"><tspan y="-312.5" x="350.96"/></text><text y="-41.978" x="-676.78" opacity=".8"><tspan y="-41.978" x="-676.78"/></text><text y="703.58" x="-2500.46" opacity=".8"><tspan y="703.58" x="-2500.46"/></text><text y="-903.51" x="-525.69" opacity=".8"><tspan y="-903.51" x="-525.69"/></text><text y="-1316.98" x="281.92" opacity=".8"><tspan y="-1316.98" x="281.92"/></text><text y="-1357.72" x="305.88" opacity=".8"><tspan y="-1357.72" x="305.88"/></text><text y="-1364.93" x="-1185.59" opacity=".8"><tspan y="-1364.93" x="-1185.59"/></text><text y="-1638.16" x="274.96" opacity=".8"><tspan y="-1638.16" x="274.96"/></text><text y="-1011.47" x="1761.08" opacity=".8"><tspan y="-1011.47" x="1761.08"/></text><text y="-1052.22" x="1785.04" opacity=".8"><tspan y="-1052.22" x="1785.04"/></text><text y="-1059.43" x="293.58" opacity=".8"><tspan y="-1059.43" x="293.58"/></text><text y="-1332.66" x="1754.12" opacity=".8"><tspan y="-1332.66" x="1754.12"/></text><text y="-1107.52" x="-644.24" opacity=".8"><tspan y="-1107.52" x="-644.24"/></text><text y="-361.96" x="-2467.92" opacity=".8"><tspan y="-361.96" x="-2467.92"/></text><text y="-269.09" x="-753.17" opacity=".8"><tspan y="-269.09" x="-753.17"/></text><text y="-28.18" x="86.85" opacity=".8"><tspan y="-28.18" x="86.85"/></text><text y="-68.918" x="110.81" opacity=".8"><tspan y="-68.918" x="110.81"/></text><text y="-262.95" x="-1159.01" opacity=".8"><tspan y="-262.95" x="-1159.01"/></text><text y="-676.42" x="-351.41" opacity=".8"><tspan y="-676.42" x="-351.41"/></text><text y="-717.16" x="-327.45" opacity=".8"><tspan y="-717.16" x="-327.45"/></text><text y="-724.37" x="-1818.91" opacity=".8"><tspan y="-724.37" x="-1818.91"/></text><text y="-997.6" x="-358.37" opacity=".8"><tspan y="-997.6" x="-358.37"/></text><text y="-370.91" x="1127.76" opacity=".8"><tspan y="-370.91" x="1127.76"/></text><text y="-411.65" x="1151.72" opacity=".8"><tspan y="-411.65" x="1151.72"/></text><text y="-418.86" x="-339.75" opacity=".8"><tspan y="-418.86" x="-339.75"/></text><text y="-692.1" x="1120.8" opacity=".8"><tspan y="-692.1" x="1120.8"/></text><text y="-466.95" x="-1277.56" opacity=".8"><tspan y="-466.95" x="-1277.56"/></text><text y="278.6" x="-3101.25" opacity=".8"><tspan y="278.6" x="-3101.25"/></text></g></g><g font-family="&apos;Bitstream Vera Sans&apos;"><text font-size="14" y="1159.42" x="-664.27" opacity=".8" transform="matrix(.90475 0 0 .90475-785.5-677.51)"><tspan y="1159.42" x="-664.27"/></text><g font-size="12.666"><text y="16.83" x="808.48" opacity=".8"><tspan y="16.83" x="808.48"/></text><text y="-23.911" x="832.44" opacity=".8"><tspan y="-23.911" x="832.44"/></text><text y="-53.99" x="-638.12" opacity=".8"><tspan y="-53.99" x="-638.12"/></text><text y="691.56" x="-2461.8" opacity=".8"><tspan y="691.56" x="-2461.8"/></text><text y="-439.31" x="-523.63" opacity=".8"><tspan y="-439.31" x="-523.63"/></text><text y="-852.78" x="283.98" opacity=".8"><tspan y="-852.78" x="283.98"/></text><text y="-893.52" x="307.94" opacity=".8"><tspan y="-893.52" x="307.94"/></text><text y="-900.73" x="-1183.53" opacity=".8"><tspan y="-900.73" x="-1183.53"/></text><text y="-1173.97" x="277.02" opacity=".8"><tspan y="-1173.97" x="277.02"/></text><text y="-547.28" x="1763.14" opacity=".8"><tspan y="-547.28" x="1763.14"/></text><text y="-588.02" x="1787.1" opacity=".8"><tspan y="-588.02" x="1787.1"/></text><text y="-595.23" x="295.64" opacity=".8"><tspan y="-595.23" x="295.64"/></text><text y="-868.46" x="1756.18" opacity=".8"><tspan y="-868.46" x="1756.18"/></text><text y="-643.32" x="-642.18" opacity=".8"><tspan y="-643.32" x="-642.18"/></text><text y="102.24" x="-2465.86" opacity=".8"><tspan y="102.24" x="-2465.86"/></text><text y="195.11" x="-751.11" opacity=".8"><tspan y="195.11" x="-751.11"/></text><text y="15.926" x="357.92" opacity=".8"><tspan y="15.926" x="357.92"/></text><text y="-24.816" x="381.88" opacity=".8"><tspan y="-24.816" x="381.88"/></text><text y="-32.03" x="-1109.59" opacity=".8"><tspan y="-32.03" x="-1109.59"/></text><text y="-305.26" x="350.96" opacity=".8"><tspan y="-305.26" x="350.96"/></text><text y="-34.74" x="-676.78" opacity=".8"><tspan y="-34.74" x="-676.78"/></text><text y="710.81" x="-2500.46" opacity=".8"><tspan y="710.81" x="-2500.46"/></text><text y="-896.27" x="-525.69" opacity=".8"><tspan y="-896.27" x="-525.69"/></text><text y="-1309.74" x="281.92" opacity=".8"><tspan y="-1309.74" x="281.92"/></text><text y="-1350.48" x="305.88" opacity=".8"><tspan y="-1350.48" x="305.88"/></text><text y="-1357.69" x="-1185.59" opacity=".8"><tspan y="-1357.69" x="-1185.59"/></text><text y="-1630.93" x="274.96" opacity=".8"><tspan y="-1630.93" x="274.96"/></text><text y="-1004.24" x="1761.08" opacity=".8"><tspan y="-1004.24" x="1761.08"/></text><text y="-1044.98" x="1785.04" opacity=".8"><tspan y="-1044.98" x="1785.04"/></text><text y="-1052.19" x="293.58" opacity=".8"><tspan y="-1052.19" x="293.58"/></text><text y="-1325.42" x="1754.12" opacity=".8"><tspan y="-1325.42" x="1754.12"/></text><text y="-1100.28" x="-644.24" opacity=".8"><tspan y="-1100.28" x="-644.24"/></text><text y="-354.72" x="-2467.92" opacity=".8"><tspan y="-354.72" x="-2467.92"/></text><text y="-261.85" x="-753.17" opacity=".8"><tspan y="-261.85" x="-753.17"/></text><text y="-20.939" x="86.85" opacity=".8"><tspan y="-20.939" x="86.85"/></text><text y="-61.68" x="110.81" opacity=".8"><tspan y="-61.68" x="110.81"/></text><text y="-255.71" x="-1159.01" opacity=".8"><tspan y="-255.71" x="-1159.01"/></text><text y="-669.18" x="-351.41" opacity=".8"><tspan y="-669.18" x="-351.41"/></text><text y="-709.92" x="-327.45" opacity=".8"><tspan y="-709.92" x="-327.45"/></text><text y="-717.13" x="-1818.91" opacity=".8"><tspan y="-717.13" x="-1818.91"/></text><text y="-990.36" x="-358.37" opacity=".8"><tspan y="-990.36" x="-358.37"/></text><text y="-363.67" x="1127.76" opacity=".8"><tspan y="-363.67" x="1127.76"/></text><text y="-404.42" x="1151.72" opacity=".8"><tspan y="-404.42" x="1151.72"/></text><text y="-411.63" x="-339.75" opacity=".8"><tspan y="-411.63" x="-339.75"/></text><text y="-684.86" x="1120.8" opacity=".8"><tspan y="-684.86" x="1120.8"/></text><text y="-459.72" x="-1277.56" opacity=".8"><tspan y="-459.72" x="-1277.56"/></text><text y="285.84" x="-3101.25" opacity=".8"><tspan y="285.84" x="-3101.25"/></text></g><text font-size="14" y="1159.42" x="-664.27" opacity=".8" transform="matrix(.90475 0 0 .90475-785.5-670.27)"><tspan y="1159.42" x="-664.27"/></text></g><g font-size="12.666"><text y="-362.45" x="367.16" font-family="&apos;Droid Sans&apos;"><tspan y="-362.45" x="367.16"/><tspan y="-346.61" x="367.16"/></text><g font-family="&apos;Bitstream Vera Sans&apos;"><text y="-844.49" x="832.34" opacity=".8"><tspan y="-844.49" x="832.34"/></text><text y="-98.94" x="-991.34" opacity=".8"><tspan y="-98.94" x="-991.34"/></text><text y="-1129.49" x="1559.42" opacity=".8"><tspan y="-1129.49" x="1559.42"/></text><text y="-1170.23" x="1583.38" opacity=".8"><tspan y="-1170.23" x="1583.38"/></text><text y="-1177.44" x="91.92" opacity=".8"><tspan y="-1177.44" x="91.92"/></text><text y="-1450.67" x="1552.46" opacity=".8"><tspan y="-1450.67" x="1552.46"/></text><text y="8.597" x="747.23" opacity=".8"><tspan y="8.597" x="747.23"/></text><text y="-32.14" x="771.19" opacity=".8"><tspan y="-32.14" x="771.19"/></text><text y="-62.22" x="-699.37" opacity=".8"><tspan y="-62.22" x="-699.37"/></text><text y="683.33" x="-2523.06" opacity=".8"><tspan y="683.33" x="-2523.06"/></text><text y="-447.54" x="-584.88" opacity=".8"><tspan y="-447.54" x="-584.88"/></text><text y="-861.01" x="222.72" opacity=".8"><tspan y="-861.01" x="222.72"/></text><text y="-901.76" x="246.68" opacity=".8"><tspan y="-901.76" x="246.68"/></text><text y="-908.97" x="-1244.78" opacity=".8"><tspan y="-908.97" x="-1244.78"/></text><text y="-1182.2" x="215.76" opacity=".8"><tspan y="-1182.2" x="215.76"/></text><text y="-555.51" x="1701.89" opacity=".8"><tspan y="-555.51" x="1701.89"/></text><text y="-596.25" x="1725.85" opacity=".8"><tspan y="-596.25" x="1725.85"/></text><text y="-603.46" x="234.39" opacity=".8"><tspan y="-603.46" x="234.39"/></text><text y="-876.69" x="1694.93" opacity=".8"><tspan y="-876.69" x="1694.93"/></text><text y="-651.55" x="-703.43" opacity=".8"><tspan y="-651.55" x="-703.43"/></text><text y="94" x="-2527.12" opacity=".8"><tspan y="94" x="-2527.12"/></text><text y="186.87" x="-812.36" opacity=".8"><tspan y="186.87" x="-812.36"/></text><text y="7.692" x="296.66" opacity=".8"><tspan y="7.692" x="296.66"/></text><text y="-33.05" x="320.62" opacity=".8"><tspan y="-33.05" x="320.62"/></text><text y="-40.26" x="-1170.84" opacity=".8"><tspan y="-40.26" x="-1170.84"/></text><text y="-313.49" x="289.7" opacity=".8"><tspan y="-313.49" x="289.7"/></text><text y="-42.973" x="-738.03" opacity=".8"><tspan y="-42.973" x="-738.03"/></text><text y="702.58" x="-2561.72" opacity=".8"><tspan y="702.58" x="-2561.72"/></text><text y="-904.5" x="-586.94" opacity=".8"><tspan y="-904.5" x="-586.94"/></text><text y="-1317.97" x="220.66" opacity=".8"><tspan y="-1317.97" x="220.66"/></text><text y="-1358.72" x="244.63" opacity=".8"><tspan y="-1358.72" x="244.63"/></text><text y="-1365.93" x="-1246.84" opacity=".8"><tspan y="-1365.93" x="-1246.84"/></text><text y="-1639.16" x="213.7" opacity=".8"><tspan y="-1639.16" x="213.7"/></text><text y="-1012.47" x="1699.83" opacity=".8"><tspan y="-1012.47" x="1699.83"/></text><text y="-1053.21" x="1723.79" opacity=".8"><tspan y="-1053.21" x="1723.79"/></text><text y="-1060.42" x="232.33" opacity=".8"><tspan y="-1060.42" x="232.33"/></text><text y="-1333.65" x="1692.87" opacity=".8"><tspan y="-1333.65" x="1692.87"/></text><text y="-1108.51" x="-705.49" opacity=".8"><tspan y="-1108.51" x="-705.49"/></text><text y="-362.96" x="-2529.18" opacity=".8"><tspan y="-362.96" x="-2529.18"/></text><text y="-270.09" x="-814.42" opacity=".8"><tspan y="-270.09" x="-814.42"/></text><text y="-29.17" x="25.594" opacity=".8"><tspan y="-29.17" x="25.594"/></text><text y="-69.913" x="49.555" opacity=".8"><tspan y="-69.913" x="49.555"/></text><text y="-263.94" x="-1220.26" opacity=".8"><tspan y="-263.94" x="-1220.26"/></text><text y="-677.41" x="-412.66" opacity=".8"><tspan y="-677.41" x="-412.66"/></text><text y="-718.15" x="-388.7" opacity=".8"><tspan y="-718.15" x="-388.7"/></text><text y="-725.36" x="-1880.16" opacity=".8"><tspan y="-725.36" x="-1880.16"/></text><text y="-998.6" x="-419.62" opacity=".8"><tspan y="-998.6" x="-419.62"/></text><text y="-371.91" x="1066.5" opacity=".8"><tspan y="-371.91" x="1066.5"/></text><text y="-412.65" x="1090.47" opacity=".8"><tspan y="-412.65" x="1090.47"/></text><text y="-419.86" x="-401" opacity=".8"><tspan y="-419.86" x="-401"/></text><text y="-693.09" x="1059.54" opacity=".8"><tspan y="-693.09" x="1059.54"/></text><text y="-467.95" x="-1338.81" opacity=".8"><tspan y="-467.95" x="-1338.81"/></text><text y="277.6" x="-3162.5" opacity=".8"><tspan y="277.6" x="-3162.5"/></text><text y="370.48" x="-1447.74" opacity=".8"><tspan y="370.48" x="-1447.74"/></text><text y="15.835" x="747.23" opacity=".8"><tspan y="15.835" x="747.23"/></text><text y="-24.907" x="771.19" opacity=".8"><tspan y="-24.907" x="771.19"/></text><text y="-54.985" x="-699.37" opacity=".8"><tspan y="-54.985" x="-699.37"/></text><text y="690.57" x="-2523.06" opacity=".8"><tspan y="690.57" x="-2523.06"/></text><text y="-440.31" x="-584.88" opacity=".8"><tspan y="-440.31" x="-584.88"/></text><text y="-853.78" x="222.72" opacity=".8"><tspan y="-853.78" x="222.72"/></text><text y="-894.52" x="246.68" opacity=".8"><tspan y="-894.52" x="246.68"/></text><text y="-901.73" x="-1244.78" opacity=".8"><tspan y="-901.73" x="-1244.78"/></text><text y="-1174.96" x="215.76" opacity=".8"><tspan y="-1174.96" x="215.76"/></text><text y="-548.27" x="1701.89" opacity=".8"><tspan y="-548.27" x="1701.89"/></text><text y="-589.01" x="1725.85" opacity=".8"><tspan y="-589.01" x="1725.85"/></text><text y="-596.22" x="234.39" opacity=".8"><tspan y="-596.22" x="234.39"/></text><text y="-869.46" x="1694.93" opacity=".8"><tspan y="-869.46" x="1694.93"/></text><text y="-644.31" x="-703.43" opacity=".8"><tspan y="-644.31" x="-703.43"/></text><text y="101.24" x="-2527.12" opacity=".8"><tspan y="101.24" x="-2527.12"/></text><text y="194.11" x="-812.36" opacity=".8"><tspan y="194.11" x="-812.36"/></text><text y="14.93" x="296.66" opacity=".8"><tspan y="14.93" x="296.66"/></text><text y="-25.811" x="320.62" opacity=".8"><tspan y="-25.811" x="320.62"/></text><text y="-33.02" x="-1170.84" opacity=".8"><tspan y="-33.02" x="-1170.84"/></text><text y="-306.26" x="289.7" opacity=".8"><tspan y="-306.26" x="289.7"/></text><text y="-35.735" x="-738.03" opacity=".8"><tspan y="-35.735" x="-738.03"/></text><text y="709.82" x="-2561.72" opacity=".8"><tspan y="709.82" x="-2561.72"/></text><text y="-897.27" x="-586.94" opacity=".8"><tspan y="-897.27" x="-586.94"/></text><text y="-1310.74" x="220.66" opacity=".8"><tspan y="-1310.74" x="220.66"/></text><text y="-1351.48" x="244.63" opacity=".8"><tspan y="-1351.48" x="244.63"/></text><text y="-1358.69" x="-1246.84" opacity=".8"><tspan y="-1358.69" x="-1246.84"/></text><text y="-1631.92" x="213.7" opacity=".8"><tspan y="-1631.92" x="213.7"/></text><text y="-1005.23" x="1699.83" opacity=".8"><tspan y="-1005.23" x="1699.83"/></text><text y="-1045.97" x="1723.79" opacity=".8"><tspan y="-1045.97" x="1723.79"/></text><text y="-1053.18" x="232.33" opacity=".8"><tspan y="-1053.18" x="232.33"/></text><text y="-1326.42" x="1692.87" opacity=".8"><tspan y="-1326.42" x="1692.87"/></text><text y="-1101.27" x="-705.49" opacity=".8"><tspan y="-1101.27" x="-705.49"/></text><text y="-355.72" x="-2529.18" opacity=".8"><tspan y="-355.72" x="-2529.18"/></text><text y="-262.85" x="-814.42" opacity=".8"><tspan y="-262.85" x="-814.42"/></text><text y="-21.934" x="25.594" opacity=".8"><tspan y="-21.934" x="25.594"/></text><text y="-62.68" x="49.555" opacity=".8"><tspan y="-62.68" x="49.555"/></text><text y="-256.7" x="-1220.26" opacity=".8"><tspan y="-256.7" x="-1220.26"/></text><text y="-670.17" x="-412.66" opacity=".8"><tspan y="-670.17" x="-412.66"/></text><text y="-710.92" x="-388.7" opacity=".8"><tspan y="-710.92" x="-388.7"/></text><text y="-718.13" x="-1880.16" opacity=".8"><tspan y="-718.13" x="-1880.16"/></text><text y="-991.36" x="-419.62" opacity=".8"><tspan y="-991.36" x="-419.62"/></text><text y="-364.67" x="1066.5" opacity=".8"><tspan y="-364.67" x="1066.5"/></text><text y="-405.41" x="1090.47" opacity=".8"><tspan y="-405.41" x="1090.47"/></text><text y="-412.62" x="-401" opacity=".8"><tspan y="-412.62" x="-401"/></text><text y="-685.85" x="1059.54" opacity=".8"><tspan y="-685.85" x="1059.54"/></text><text y="-460.71" x="-1338.81" opacity=".8"><tspan y="-460.71" x="-1338.81"/></text><text y="284.84" x="-3162.5" opacity=".8"><tspan y="284.84" x="-3162.5"/></text><text y="377.71" x="-1447.74" opacity=".8"><tspan y="377.71" x="-1447.74"/></text></g><text y="-363.44" x="305.91" font-family="&apos;Droid Sans&apos;"><tspan y="-363.44" x="305.91"/><tspan y="-347.61" x="305.91"/></text><g font-family="&apos;Bitstream Vera Sans&apos;"><text y="-845.49" x="771.09" opacity=".8"><tspan y="-845.49" x="771.09"/></text><text y="-99.93" x="-1052.6" opacity=".8"><tspan y="-99.93" x="-1052.6"/></text><text y="-1130.48" x="1498.17" opacity=".8"><tspan y="-1130.48" x="1498.17"/></text><text y="-1171.22" x="1522.13" opacity=".8"><tspan y="-1171.22" x="1522.13"/></text><text y="-1178.43" x="30.667" opacity=".8"><tspan y="-1178.43" x="30.667"/></text><text y="-1451.67" x="1491.21" opacity=".8"><tspan y="-1451.67" x="1491.21"/></text></g></g></g></g><path d="m400.08 520.08l-6.589 11.492c-1.385 2.43-1.492 5.519 0 8.12 2.242 3.911 7.23 5.263 11.141 3.02 3.911-2.242 5.263-7.23 3.02-11.141l-6.589-11.492c-.218-.38-.765-.38-.983 0" fill="#fff" fill-opacity=".851" transform="matrix(.4855 0 0 .4855 331.55 283.43)"/></g></svg>