<?xml version="1.0" encoding="UTF-8" standalone="no"?>
<!-- Created with Inkscape (http://www.inkscape.org/) -->

<svg
   xmlns:sketch="http://www.bohemiancoding.com/sketch/ns"
   xmlns:dc="http://purl.org/dc/elements/1.1/"
   xmlns:cc="http://creativecommons.org/ns#"
   xmlns:rdf="http://www.w3.org/1999/02/22-rdf-syntax-ns#"
   xmlns:svg="http://www.w3.org/2000/svg"
   xmlns="http://www.w3.org/2000/svg"
   xmlns:xlink="http://www.w3.org/1999/xlink"
   xmlns:sodipodi="http://sodipodi.sourceforge.net/DTD/sodipodi-0.dtd"
   xmlns:inkscape="http://www.inkscape.org/namespaces/inkscape"
   width="48"
   height="48"
   id="svg5453"
   version="1.1"
   inkscape:version="0.91 r13725"
   sodipodi:docname="spectacle.svg">
  <defs
     id="defs5455">
    <linearGradient
       inkscape:collect="always"
       xlink:href="#linearGradient4288"
       id="linearGradient4222"
       x1="409.57144"
       y1="542.79797"
       x2="409.57144"
       y2="507.798"
       gradientUnits="userSpaceOnUse"
       gradientTransform="matrix(1.0909091,0,0,1.0652838,-373.33932,-565.93378)" />
    <linearGradient
       id="linearGradient4288"
       inkscape:collect="always">
      <stop
         id="stop4290"
         offset="0"
         style="stop-color:#ff3069;stop-opacity:1" />
      <stop
         id="stop4292"
         offset="1"
         style="stop-color:#ffa548;stop-opacity:1" />
    </linearGradient>
  </defs>
  <sodipodi:namedview
     id="base"
     pagecolor="#ffffff"
     bordercolor="#666666"
     borderopacity="1.0"
     inkscape:pageopacity="0"
     inkscape:pageshadow="2"
     inkscape:zoom="4"
     inkscape:cx="-39.601104"
     inkscape:cy="15.968792"
     inkscape:document-units="px"
     inkscape:current-layer="g4370"
     showgrid="true"
     fit-margin-top="0"
     fit-margin-left="0"
     fit-margin-right="0"
     fit-margin-bottom="0"
     inkscape:window-width="1366"
     inkscape:window-height="634"
     inkscape:window-x="0"
     inkscape:window-y="36"
     inkscape:window-maximized="1"
     inkscape:showpageshadow="false"
     borderlayer="true"
     showguides="false">
    <inkscape:grid
       type="xygrid"
       id="grid4063" />
    <sodipodi:guide
       position="1.1650391e-05,32.000026"
       orientation="32,0"
       id="guide4157" />
    <sodipodi:guide
       position="1.1650391e-05,2.6367188e-05"
       orientation="0,32"
       id="guide4159" />
    <sodipodi:guide
       position="32.000012,2.6367188e-05"
       orientation="-32,0"
       id="guide4161" />
    <sodipodi:guide
       position="32.000012,32.000026"
       orientation="0,-32"
       id="guide4163" />
    <sodipodi:guide
       position="2.0000117,30.000026"
       orientation="28,0"
       id="guide4167" />
    <sodipodi:guide
       position="2.0000117,2.0000264"
       orientation="0,28"
       id="guide4169" />
    <sodipodi:guide
       position="30.000012,2.0000264"
       orientation="-28,0"
       id="guide4171" />
    <sodipodi:guide
       position="30.000012,30.000026"
       orientation="0,-28"
       id="guide4173" />
    <sodipodi:guide
       position="2.0000117,30.000026"
       orientation="28,0"
       id="guide4181" />
    <sodipodi:guide
       position="2.0000117,2.0000264"
       orientation="0,14"
       id="guide4183" />
    <sodipodi:guide
       position="16.000012,2.0000264"
       orientation="-28,0"
       id="guide4185" />
    <sodipodi:guide
       position="16.000012,30.000026"
       orientation="0,-14"
       id="guide4187" />
    <sodipodi:guide
       position="9.0000117,23.000026"
       orientation="14,0"
       id="guide4193" />
    <sodipodi:guide
       position="9.0000117,9.0000264"
       orientation="0,14.000031"
       id="guide4195" />
    <sodipodi:guide
       position="23.000042,9.0000264"
       orientation="-14,0"
       id="guide4197" />
    <sodipodi:guide
       position="23.000042,23.000026"
       orientation="0,-14.000031"
       id="guide4199" />
  </sodipodi:namedview>
  <metadata
     id="metadata5458">
    <rdf:RDF>
      <cc:Work
         rdf:about="">
        <dc:format>image/svg+xml</dc:format>
        <dc:type
           rdf:resource="http://purl.org/dc/dcmitype/StillImage" />
        <dc:title></dc:title>
      </cc:Work>
    </rdf:RDF>
  </metadata>
  <g
     inkscape:label="Capa 1"
     inkscape:groupmode="layer"
     id="layer1"
     transform="translate(-384.57143,-499.798)">
    <g
       style="display:inline;enable-background:new"
       id="g4238"
       transform="translate(225.81911,462.44565)">
      <g
         style="display:inline"
         id="layer1-8"
         transform="matrix(0.22655187,0,0,0.22655187,106.94841,54.31088)">
        <g
           style="display:none"
           id="layer6" />
        <g
           id="g4027" />
        <g
           id="g4061" />
        <g
           id="g3751" />
        <g
           id="g3782" />
        <g
           id="g3725" />
        <g
           id="g4370"
           transform="matrix(4.4140002,0,0,4.4140002,59.275211,39.357303)">
          <g
             id="g4182"
             transform="translate(-9.9999999,5.0000013)">
            <rect
               style="opacity:1;fill:url(#linearGradient4222);fill-opacity:1;stroke:none;stroke-width:0.2;stroke-linecap:round;stroke-linejoin:round;stroke-miterlimit:4;stroke-dasharray:none;stroke-opacity:1"
               id="rect4195"
               width="48"
               height="36.219646"
               x="48.375"
               y="-24.984825"
               ry="1.7044541" />
            <path
               inkscape:connector-curvature="0"
               d="m 82.62765,-12.53004 c -0.579294,-0.564271 -1.27802,-0.846475 -2.096766,-0.846475 l -2.594987,0 -0.590653,-1.535073 c -0.146744,-0.368663 -0.415046,-0.686629 -0.805234,-0.953872 -0.390024,-0.267132 -0.789719,-0.400815 -1.199086,-0.400815 l -5.931513,0 c -0.409366,0 -0.809075,0.133751 -1.199113,0.400815 -0.39001,0.267243 -0.658339,0.585209 -0.805083,0.953872 l -0.590804,1.535073 -2.594987,0 c -0.818746,0 -1.517609,0.282204 -2.09689,0.846475 -0.579143,0.564435 -0.868791,1.245375 -0.868791,2.043108 l 0,10.11367079 c 0,0.79773301 0.289648,1.47882401 0.868791,2.04295801 0.579281,0.564435 1.278144,0.846639 2.09689,0.846639 l 16.311336,0 c 0.818719,0 1.517459,-0.282204 2.096753,-0.846639 0.57913,-0.564134 0.868791,-1.245225 0.868791,-2.04295801 l 0,-10.11367079 c 9.6e-5,-0.797733 -0.28951,-1.478673 -0.868654,-2.043108 l 0,0 z m -6.586025,10.6725528 c -1.015521,0.98962099 -2.237667,1.48436299 -3.666533,1.48436299 -1.42888,0 -2.650874,-0.494742 -3.666547,-1.48436299 -1.015686,-0.989484 -1.523426,-2.180374 -1.523426,-3.572465 0,-1.392214 0.507891,-2.582872 1.523426,-3.572479 1.015522,-0.9896214 2.237667,-1.4843638 3.666547,-1.4843638 1.428866,0 2.650875,0.4948794 3.666533,1.4843638 1.015673,0.98947 1.523454,2.180265 1.523454,3.572479 0,1.392091 -0.507919,2.582844 -1.523454,3.572465 z m -3.666533,-6.823395 c -0.919123,0 -1.704877,0.317953 -2.357537,0.953886 -0.65266,0.635905 -0.978976,1.401486 -0.978976,2.297044 0,0.89553 0.326316,1.661125 0.978976,2.29703 0.65266,0.635782 1.438414,0.953749 2.357537,0.953749 0.918972,0 1.704878,-0.317967 2.357537,-0.953749 0.652646,-0.635905 0.978976,-1.4015 0.978976,-2.29703 0,-0.895558 -0.32633,-1.661139 -0.978976,-2.297044 -0.652659,-0.635933 -1.438565,-0.953886 -2.357537,-0.953886 z"
               id="Camera"
               sketch:type="MSShapeGroup"
               style="opacity:0.79500002;fill:#000000;fill-opacity:1" />
          </g>
        </g>
      </g>
    </g>
  </g>
</svg>
