<?xml version="1.0" encoding="UTF-8" standalone="no"?>
<svg
   xmlns:dc="http://purl.org/dc/elements/1.1/"
   xmlns:cc="http://creativecommons.org/ns#"
   xmlns:rdf="http://www.w3.org/1999/02/22-rdf-syntax-ns#"
   xmlns:svg="http://www.w3.org/2000/svg"
   xmlns="http://www.w3.org/2000/svg"
   xmlns:sodipodi="http://sodipodi.sourceforge.net/DTD/sodipodi-0.dtd"
   xmlns:inkscape="http://www.inkscape.org/namespaces/inkscape"
   viewBox="0 0 48 48"
   id="svg2"
   version="1.1"
   inkscape:version="0.91 r13725"
   sodipodi:docname="spotify-client.svg">
  <metadata
     id="metadata24">
    <rdf:RDF>
      <cc:Work
         rdf:about="">
        <dc:format>image/svg+xml</dc:format>
        <dc:type
           rdf:resource="http://purl.org/dc/dcmitype/StillImage" />
        <dc:title></dc:title>
      </cc:Work>
    </rdf:RDF>
  </metadata>
  <sodipodi:namedview
     pagecolor="#ffffff"
     bordercolor="#666666"
     borderopacity="1"
     objecttolerance="10"
     gridtolerance="10"
     guidetolerance="10"
     inkscape:pageopacity="0"
     inkscape:pageshadow="2"
     inkscape:window-width="1366"
     inkscape:window-height="687"
     id="namedview22"
     showgrid="false"
     inkscape:zoom="4.9166667"
     inkscape:cx="-15.762712"
     inkscape:cy="24"
     inkscape:window-x="0"
     inkscape:window-y="0"
     inkscape:window-maximized="1"
     inkscape:current-layer="svg2" />
  <defs
     id="defs4">
    <linearGradient
       id="0"
       x1="51.56"
       y1="61.46"
       x2="51.988"
       y2="14.3"
       gradientUnits="userSpaceOnUse">
      <stop
         stop-color="#23cf5f"
         id="stop7" />
      <stop
         offset="1"
         stop-color="#60ff98"
         id="stop9" />
    </linearGradient>
    <linearGradient
       id="1"
       gradientUnits="userSpaceOnUse"
       x1="53.57"
       y1="62.47"
       x2="53.798"
       y2="13.896"
       gradientTransform="matrix(0.83334168,0,0,0.83334167,8.7294214,6.3780646)">
      <stop
         stop-color="#2e3436"
         id="stop12" />
      <stop
         offset="1"
         stop-color="#555753"
         id="stop14" />
    </linearGradient>
  </defs>
  <g
     transform="matrix(.99999 0 0 .99999-28.371-14.278)"
     enable-background="new"
     id="g16">
    <circle
       cy="38.278381"
       cx="52.371525"
       id="circle18"
       style="fill:url(#1)"
       r="20.0002" />
    <path
       d="m52.38 14.285c-13.255 0-24 10.745-24 24 0 13.255 10.745 24 24 24 13.255 0 24-10.746 24-24 0-13.255-10.745-24-24-24m-3.522 12.526c7.05 0 14.462 1.45 19.878 4.631.73.413 1.237 1.037 1.237 2.18 0 1.308-1.052 2.249-2.264 2.249-.489 0-.779-.119-1.237-.37-4.344-2.605-11.09-4.04-17.605-4.04-3.254 0-6.56.331-9.587 1.153-.349.088-.789.262-1.231.262-1.28 0-2.263-1.013-2.263-2.293 0-1.304.808-2.036 1.68-2.294 3.421-1.01 7.24-1.478 11.391-1.478m-.489 8.247c6.282 0 12.359 1.565 17.14 4.424.801.459 1.096 1.043 1.096 1.897 0 1.039-.827 1.879-1.871 1.879-.521 0-.848-.21-1.202-.416-3.904-2.317-9.315-3.856-15.24-3.856-3.039 0-5.662.426-7.833 1-.468.129-.73.267-1.168.267-1.032 0-1.875-.841-1.875-1.882 0-1.021.495-1.723 1.493-2 2.698-.741 5.453-1.313 9.463-1.313m.329 7.837c5.252 0 9.932 1.205 13.96 3.619.599.35.951.708.951 1.595 0 .865-.704 1.501-1.493 1.501-.388 0-.653-.135-1.016-.356-3.478-2.104-7.815-3.211-12.418-3.211-2.568 0-5.153.329-7.57.833-.393.085-.888.237-1.183.237-.911 0-1.519-.724-1.519-1.508 0-1.01.582-1.511 1.306-1.649 2.964-.676 5.917-1.061 8.983-1.061"
       fill="url(#0)"
       id="path20" />
  </g>
</svg>
