<svg xmlns="http://www.w3.org/2000/svg" viewBox="0 0 48 48"><defs><linearGradient gradientUnits="userSpaceOnUse" y2="517.8" x2="0" y1="545.8"><stop stop-color="#3889e9"/><stop offset="1" stop-color="#5ea5fb"/></linearGradient><linearGradient gradientUnits="userSpaceOnUse" y2="-7.895" x2="14.338" y1="55.642" x1="15.883" id="0"><stop stop-color="#e4e2e2"/><stop offset="1" stop-color="#fcf9f9"/></linearGradient></defs><circle cx="400.57" cy="531.8" r="14" fill="#5ea5fb" fill-opacity="0" transform="matrix(1.71282 0 0 1.70963-662.09-885.11)"/><path d="m12.2 15.267c0-3.322.896-6.43 2.448-9.113.376-.649-.191-1.451-.918-1.265-8.38 2.152-14.441 10.07-13.663 19.29.736 8.701 7.768 15.803 16.463 16.617 6.03.565 11.517-1.811 15.221-5.848.5-.546.073-1.432-.666-1.401-.196.009-.395.013-.594.013-10.1 0-18.291-8.189-18.291-18.293m34.924912 7.772636a31.08817 31.08817 0 0 1 -31.08818 31.08818 31.08817 31.08817 0 0 1 -31.08818 -31.08818 31.08817 31.08817 0 0 1 31.08818 -31.08818 31.08817 31.08817 0 0 1 31.08818 31.08818" fill="url(#0)" transform="matrix(.77133 0 0 .7699 11.591 6.195)"/></svg>