<svg xmlns="http://www.w3.org/2000/svg" viewBox="0 0 48 48"><defs><linearGradient gradientUnits="userSpaceOnUse" y2="517.8" x2="0" y1="545.8"><stop stop-color="#3889e9"/><stop offset="1" stop-color="#5ea5fb"/></linearGradient><linearGradient gradientUnits="userSpaceOnUse" y2="30.599" x2="290.34" y1="182.55" x1="294.43" id="0"><stop stop-color="#e4e2e2"/><stop offset="1" stop-color="#fcf9f9"/></linearGradient></defs><circle cx="400.57" cy="531.8" r="14" fill="#5ea5fb" fill-opacity="0" transform="matrix(1.63839 0 0 1.63839-632.27-847.23)"/><path d="m290.3 145.56c2.824 0 5.27-1.031 7.332-3.096 2.064-2.063 3.098-4.508 3.098-7.332v-52.14c0-2.825-1.033-5.269-3.098-7.332-2.062-2.065-4.507-3.097-7.332-3.097-2.825 0-5.269 1.033-7.333 3.097-2.064 2.063-3.096 4.508-3.096 7.332v52.14c0 2.824 1.032 5.269 3.096 7.332 2.064 2.065 4.509 3.096 7.333 3.096m75.09-38.06c0 40.32-32.686 73.01-73.01 73.01-40.32 0-73.01-32.686-73.01-73.01 0-40.32 32.686-73.01 73.01-73.01 40.32 0 73.01 32.686 73.01 73.01" fill="url(#0)" transform="matrix(.32874 0 0 .32874-72.11-11.329)"/></svg>