<svg xmlns="http://www.w3.org/2000/svg" viewBox="0 0 48 48"><defs><linearGradient gradientUnits="userSpaceOnUse" y2="517.8" x2="0" y1="545.8"><stop stop-color="#3889e9"/><stop offset="1" stop-color="#5ea5fb"/></linearGradient><linearGradient gradientUnits="userSpaceOnUse" y2="0" x2="0" y1="51.43" id="0"><stop stop-color="#e4e2e2"/><stop offset="1" stop-color="#fcf9f9"/></linearGradient></defs><g transform="translate(-384.57-499.8)"><g transform="matrix(1.71429 0 0 1.71429-278.16-387.99)"><circle cx="400.57" cy="531.8" r="14" fill="#5ea5fb" fill-opacity="0" transform="translate(.024.076)"/><path d="M24 0A23.999943 23.999943 0 0 0 0 24 23.999943 23.999943 0 0 0 24 48 23.999943 23.999943 0 0 0 48 24 23.999943 23.999943 0 0 0 24 0M24 10.5C28.546 10.5 32.24 14.202 32.24 18.75V22.1C32.894 22.24 33.383 22.815 33.383 23.506V36.06C33.383 36.855 32.74 37.5 31.949 37.5H16.05C15.26 37.5 14.617 36.855 14.617 36.06V23.506C14.617 22.815 15.11 22.24 15.756 22.1V18.75C15.756 14.202 19.454 10.5 24 10.5M24 13.371C21.04 13.371 18.623 15.784 18.623 18.75V22.07H29.377V18.75C29.377 15.784 26.964 13.371 24 13.371M24 26.48C22.889 26.48 21.988 27.382 21.988 28.494 21.988 29.08 22.24 29.614 22.645 29.982L22.11 32.807C22.08 32.964 22.19 33.09 22.346 33.09H25.693C25.851 33.09 25.955 32.964 25.926 32.807L25.387 29.951C25.771 29.584 26.01 29.07 26.01 28.494 26.01 27.382 25.11 26.48 24 26.48" transform="matrix(.58334 0 0 .58334 386.59 517.89)" fill="url(#0)"/></g><flowRoot transform="matrix(1.84098 0 0 1.84219 320.71 505.91)" font-family="sans-serif" fill="#fff" text-align="start" word-spacing="0" line-height="125%" letter-spacing="0" font-size="10"><flowRegion><path fill="#fff" d="m22 3h27v15h-27z"/></flowRegion><flowPara>Plasm</flowPara></flowRoot></g></svg>