<svg xmlns="http://www.w3.org/2000/svg" viewBox="0 0 48 48"><defs><linearGradient gradientTransform="matrix(1.77384 0 0 1.71427 42.46 39.38)" gradientUnits="userSpaceOnUse" y2="-22.851" x2="-11.233" y1="4.675" x1="-10.767" id="0"><stop stop-color="#197cf1"/><stop stop-color="#21c9fb" offset="1"/></linearGradient><linearGradient gradientTransform="matrix(1.4 0 0 1.39991 109.94 1027.47)" gradientUnits="userSpaceOnUse" y2="4.445" x2="0" y1="35.14" id="1"><stop stop-color="#d8d8d8"/><stop stop-color="#fff" offset="1"/></linearGradient></defs><rect height="48" width="48" rx="3.085" fill="url(#0)" stroke-width="1"/><path d="m65.69 1034.21c-11.609 0-21 9.393-21 21 0 11.608 9.391 20.999 21 20.999 11.609 0 21-9.39 21-20.999 0-11.608-9.391-21-21-21m-5.283 14v3.501h10.566v-3.501l5.759 3.501 5.759 3.499-5.759 3.499-5.759 3.501v-4h-10.566v4l-5.759-3.501-5.759-3.499 5.759-3.499 5.759-3.501" fill="url(#1)" transform="translate(-41.692-1031.21)"/></svg>