<svg xmlns="http://www.w3.org/2000/svg" viewBox="0 0 48 48"><defs><linearGradient id="0" y1="543.8" x2="0" y2="503.8" gradientUnits="userSpaceOnUse"><stop stop-color="#197cf1"/><stop offset="1" stop-color="#01b6ff"/></linearGradient></defs><g transform="matrix(1.2 0 0 1.2-466.23-604.4)"><rect y="503.8" x="388.57" height="40" width="40" fill="url(#0)" rx="20"/><g transform="matrix(1.72859 0 0 1.72859-390.39-357.1)" fill-rule="evenodd"><path d="m457.52 514.85l10.608-1.526c0 0 1.559-.061.611-1.216l-7.199-8.768c-.306-.335-.656-.278-.809.153l-3.887 10.539c-.449 1.062.676.817.676.817" fill="#f1f9ff"/><path d="m461.36 514.3l1.293 1.293c.516.512.716.142.951-.133l.806-1.611-2.851-9.694c-.143-.457-.511-.245-.464.099z" fill="#b6daff"/><path d="m462.7 513.97l.356 1.739c.394.643 1.316-1.827 1.316-1.827l-2.851-9.751c-.143-.457-.358-.332-.311.012z" fill="#77baff"/></g></g></svg>