<svg xmlns="http://www.w3.org/2000/svg" xmlns:xlink="http://www.w3.org/1999/xlink" viewBox="0 0 48 48"><defs><linearGradient id="0" gradientUnits="userSpaceOnUse" y1="232.47" x2="0" y2="176.47"><stop stop-color="#ffc515"/><stop offset="1" stop-color="#ffd55b"/></linearGradient><linearGradient xlink:href="#0" x1="-34" y1="45.75" x2="-33" y2="-2" gradientUnits="userSpaceOnUse"/><linearGradient xlink:href="#0" id="1" x1="24.04" y1="47.33" x2="24.665" y2=".489" gradientUnits="userSpaceOnUse"/></defs><circle r="24" cy="24" cx="24" fill="url(#1)"/><path d="m38.503 16.334c-1.053.467-2.183.783-3.371.924 1.212-.726 2.141-1.878 2.58-3.247-1.137.672-2.393 1.161-3.73 1.425-1.071-1.143-2.595-1.854-4.284-1.854-3.242 0-5.87 2.628-5.87 5.868 0 .459.052.908.152 1.338-4.878-.245-9.204-2.582-12.1-6.134-.506.866-.794 1.874-.794 2.951 0 2.038 1.037 3.834 2.611 4.886-.962-.032-1.867-.297-2.659-.737v.073c0 2.842 2.024 5.216 4.708 5.756-.492.132-1.01.206-1.547.206-.379 0-.746-.037-1.105-.109.747 2.334 2.915 4.03 5.482 4.077-2.01 1.574-4.54 2.509-7.29 2.509-.474 0-.941-.029-1.4-.08 2.598 1.668 5.682 2.642 8.998 2.642 10.799 0 16.702-8.945 16.702-16.702l-.02-.76c1.153-.823 2.151-1.856 2.936-3.03" fill="#40330d"/></svg>