<?xml version="1.0" encoding="UTF-8" standalone="no"?>
<!-- Created with Inkscape (http://www.inkscape.org/) -->

<svg
   xmlns:dc="http://purl.org/dc/elements/1.1/"
   xmlns:cc="http://creativecommons.org/ns#"
   xmlns:rdf="http://www.w3.org/1999/02/22-rdf-syntax-ns#"
   xmlns:svg="http://www.w3.org/2000/svg"
   xmlns="http://www.w3.org/2000/svg"
   xmlns:xlink="http://www.w3.org/1999/xlink"
   xmlns:sodipodi="http://sodipodi.sourceforge.net/DTD/sodipodi-0.dtd"
   xmlns:inkscape="http://www.inkscape.org/namespaces/inkscape"
   width="48"
   height="48"
   id="svg5453"
   version="1.1"
   inkscape:version="0.91 r13725"
   sodipodi:docname="unetbootin.svg">
  <defs
     id="defs5455">
    <linearGradient
       gradientTransform="matrix(1.6796884,0,0,1.6796884,-753.28653,-860.33726)"
       gradientUnits="userSpaceOnUse"
       y2="518.40662"
       x2="449.54932"
       y1="540.74573"
       x1="449.42804"
       id="linearGradient4998-9"
       xlink:href="#linearGradient4992"
       inkscape:collect="always" />
    <linearGradient
       id="linearGradient4992"
       inkscape:collect="always">
      <stop
         id="stop4994"
         offset="0"
         style="stop-color:#b6b9bf;stop-opacity:1" />
      <stop
         id="stop4996"
         offset="1"
         style="stop-color:#dddfe2;stop-opacity:1" />
    </linearGradient>
    <linearGradient
       gradientTransform="matrix(1.6796884,0,0,1.6796884,-764.50617,-863.70852)"
       gradientUnits="userSpaceOnUse"
       y2="544.72443"
       x2="467.17453"
       y1="546.84698"
       x1="467.17453"
       id="linearGradient4963-8"
       xlink:href="#linearGradient4957"
       inkscape:collect="always" />
    <linearGradient
       id="linearGradient4957"
       inkscape:collect="always">
      <stop
         id="stop4959"
         offset="0"
         style="stop-color:#040404;stop-opacity:1" />
      <stop
         id="stop4961"
         offset="1"
         style="stop-color:#121212;stop-opacity:0.90816325" />
    </linearGradient>
    <linearGradient
       gradientTransform="matrix(0.4172604,0,0,0.41031223,-25.336836,8.3487104)"
       y2="107.36093"
       x2="122.719"
       y1="107.36093"
       x1="10.09375"
       gradientUnits="userSpaceOnUse"
       id="linearGradient4197-9"
       xlink:href="#linearGradient3687-2"
       inkscape:collect="always" />
    <linearGradient
       id="linearGradient3687-2">
      <stop
         id="stop3689-6"
         offset="0"
         style="stop-color:#1a1a1a;stop-opacity:1" />
      <stop
         style="stop-color:#2c2c2e;stop-opacity:1"
         offset="0.11054216"
         id="stop3691-8" />
      <stop
         style="stop-color:#2b2b2d;stop-opacity:1"
         offset="0.29001436"
         id="stop3693-8" />
      <stop
         style="stop-color:#2a2b2d;stop-opacity:1"
         offset="0.5118711"
         id="stop3695-4" />
      <stop
         style="stop-color:#2b2b2d;stop-opacity:1"
         offset="0.75173318"
         id="stop3699-86" />
      <stop
         id="stop3701-8"
         offset="0.89659214"
         style="stop-color:#323232;stop-opacity:1" />
      <stop
         id="stop3703-9"
         offset="1"
         style="stop-color:#171717;stop-opacity:1" />
    </linearGradient>
    <linearGradient
       gradientTransform="matrix(0.84890731,0,0,1.6796884,-379.60827,-860.2481)"
       gradientUnits="userSpaceOnUse"
       y2="543.0885"
       x2="451.02078"
       y1="544.14978"
       x1="451.02078"
       id="linearGradient4735-7"
       xlink:href="#linearGradient4237-67"
       inkscape:collect="always" />
    <linearGradient
       id="linearGradient4237-67">
      <stop
         id="stop4239-85"
         style="stop-color:#1e56e6;stop-opacity:1"
         offset="0" />
      <stop
         id="stop4241-07"
         style="stop-color:#1f9aed;stop-opacity:1"
         offset="1" />
    </linearGradient>
  </defs>
  <sodipodi:namedview
     id="base"
     pagecolor="#ffffff"
     bordercolor="#666666"
     borderopacity="1.0"
     inkscape:pageopacity="0"
     inkscape:pageshadow="2"
     inkscape:zoom="4"
     inkscape:cx="-39.601104"
     inkscape:cy="15.968792"
     inkscape:document-units="px"
     inkscape:current-layer="g4370"
     showgrid="true"
     fit-margin-top="0"
     fit-margin-left="0"
     fit-margin-right="0"
     fit-margin-bottom="0"
     inkscape:window-width="1366"
     inkscape:window-height="634"
     inkscape:window-x="0"
     inkscape:window-y="36"
     inkscape:window-maximized="1"
     inkscape:showpageshadow="false"
     borderlayer="true"
     showguides="false">
    <inkscape:grid
       type="xygrid"
       id="grid4063" />
    <sodipodi:guide
       position="1.1650391e-05,32.000026"
       orientation="32,0"
       id="guide4157" />
    <sodipodi:guide
       position="1.1650391e-05,2.6367188e-05"
       orientation="0,32"
       id="guide4159" />
    <sodipodi:guide
       position="32.000012,2.6367188e-05"
       orientation="-32,0"
       id="guide4161" />
    <sodipodi:guide
       position="32.000012,32.000026"
       orientation="0,-32"
       id="guide4163" />
    <sodipodi:guide
       position="2.0000117,30.000026"
       orientation="28,0"
       id="guide4167" />
    <sodipodi:guide
       position="2.0000117,2.0000264"
       orientation="0,28"
       id="guide4169" />
    <sodipodi:guide
       position="30.000012,2.0000264"
       orientation="-28,0"
       id="guide4171" />
    <sodipodi:guide
       position="30.000012,30.000026"
       orientation="0,-28"
       id="guide4173" />
    <sodipodi:guide
       position="2.0000117,30.000026"
       orientation="28,0"
       id="guide4181" />
    <sodipodi:guide
       position="2.0000117,2.0000264"
       orientation="0,14"
       id="guide4183" />
    <sodipodi:guide
       position="16.000012,2.0000264"
       orientation="-28,0"
       id="guide4185" />
    <sodipodi:guide
       position="16.000012,30.000026"
       orientation="0,-14"
       id="guide4187" />
    <sodipodi:guide
       position="9.0000117,23.000026"
       orientation="14,0"
       id="guide4193" />
    <sodipodi:guide
       position="9.0000117,9.0000264"
       orientation="0,14.000031"
       id="guide4195" />
    <sodipodi:guide
       position="23.000042,9.0000264"
       orientation="-14,0"
       id="guide4197" />
    <sodipodi:guide
       position="23.000042,23.000026"
       orientation="0,-14.000031"
       id="guide4199" />
  </sodipodi:namedview>
  <metadata
     id="metadata5458">
    <rdf:RDF>
      <cc:Work
         rdf:about="">
        <dc:format>image/svg+xml</dc:format>
        <dc:type
           rdf:resource="http://purl.org/dc/dcmitype/StillImage" />
        <dc:title></dc:title>
      </cc:Work>
    </rdf:RDF>
  </metadata>
  <g
     inkscape:label="Capa 1"
     inkscape:groupmode="layer"
     id="layer1"
     transform="translate(-384.57143,-499.798)">
    <g
       style="display:inline;enable-background:new"
       id="g4238"
       transform="translate(225.81911,462.44565)">
      <g
         style="display:inline"
         id="layer1-8"
         transform="matrix(0.22655187,0,0,0.22655187,106.94841,54.31088)">
        <g
           style="display:none"
           id="layer6" />
        <g
           id="g4027" />
        <g
           id="g4061" />
        <g
           id="g3751" />
        <g
           id="g3782" />
        <g
           id="g3725" />
        <g
           id="g4370"
           transform="matrix(4.4140002,0,0,4.4140002,59.275211,39.357303)">
          <g
             id="g4331"
             transform="translate(60.000002,-34.999996)">
            <path
               inkscape:connector-curvature="0"
               style="fill:url(#linearGradient4197-9);fill-opacity:1;stroke:none;stroke-width:1.31742239;stroke-miterlimit:4;stroke-dasharray:none"
               d="m -21.125001,48.496454 0.417252,6.5765 c 0,0.681971 0.558294,1.231011 1.251787,1.231011 l 43.655858,0 c 0.693493,0 1.251804,-0.54904 1.251804,-1.231011 l 0.417252,-6.5765 -46.993953,0 z"
               id="rect3001-4"
               sodipodi:nodetypes="ccccccc" />
            <path
               inkscape:connector-curvature="0"
               style="fill:url(#linearGradient4998-9);fill-opacity:1;stroke:none;stroke-width:1.31742239;stroke-miterlimit:4;stroke-dasharray:none"
               d="m -17.366715,9.9460264 39.068931,0 c 0.693493,0 1.251804,0.5490396 1.251804,1.2309936 l 2.920978,37.120777 c 0,0.681953 -0.558278,1.23101 -1.251771,1.23101 l -44.493316,0 c -0.693493,0 -1.251771,-0.549057 -1.251771,-1.23101 l 2.503374,-37.120677 c 0,-0.681953 0.558295,-1.2310936 1.251771,-1.2310936 z"
               id="path3778"
               sodipodi:nodetypes="ccccccccc" />
            <rect
               style="opacity:1;fill:url(#linearGradient4735-7);fill-opacity:1;stroke:none;stroke-width:0.2;stroke-linecap:round;stroke-linejoin:round;stroke-miterlimit:4;stroke-dasharray:none;stroke-opacity:1"
               id="rect4727-4"
               width="19.25474"
               height="1.2914695"
               x="-7.1795812"
               y="52.572136"
               ry="0.64573473" />
            <ellipse
               ry="1.7826095"
               rx="1.7826197"
               cy="53.263737"
               cx="20.058304"
               id="path4955-0"
               style="opacity:0.45199998;fill:url(#linearGradient4963-8);fill-opacity:1;stroke:none;stroke-width:1.70000005;stroke-linecap:round;stroke-linejoin:round;stroke-miterlimit:4;stroke-dasharray:none;stroke-opacity:1" />
            <path
               d="m 20.05444,53.310082 c 0.04023,0 0.07507,-0.01469 0.104443,-0.0441 0.0294,-0.02939 0.04413,-0.06422 0.04413,-0.104443 l 0,-0.742781 c 0,-0.04024 -0.01472,-0.07506 -0.04413,-0.104442 -0.02937,-0.02942 -0.0642,-0.04412 -0.104443,-0.04412 -0.04024,0 -0.07506,0.01471 -0.104457,0.04412 -0.0294,0.02939 -0.0441,0.06422 -0.0441,0.104442 l 0,0.742781 c 0,0.04023 0.0147,0.07506 0.0441,0.104443 0.0294,0.02942 0.06423,0.0441 0.104457,0.0441 l 0,0 z"
               id="path955-8"
               inkscape:connector-curvature="0"
               style="opacity:0.66799999;fill:#e3e8ea;fill-opacity:1;stroke-width:1.31742239;stroke-miterlimit:4;stroke-dasharray:none" />
            <path
               d="m 20.852348,52.911998 c -0.06229,-0.124557 -0.149898,-0.229014 -0.262859,-0.313343 -0.03249,-0.02476 -0.06924,-0.03443 -0.110255,-0.02902 -0.04101,0.0054 -0.0735,0.02476 -0.09749,0.05802 -0.02476,0.03249 -0.03423,0.06904 -0.02843,0.109671 0.0058,0.04064 0.02496,0.07332 0.05745,0.09808 0.0758,0.05725 0.134443,0.127278 0.175809,0.210068 0.0414,0.08278 0.06208,0.170995 0.06208,0.264597 0,0.08048 -0.01567,0.157263 -0.04699,0.230381 -0.03134,0.07312 -0.0737,0.136366 -0.127092,0.189755 -0.05339,0.05338 -0.116622,0.09574 -0.189741,0.127078 -0.07312,0.03134 -0.149912,0.04702 -0.230381,0.04702 -0.08045,0 -0.157248,-0.01568 -0.230367,-0.04702 -0.07312,-0.03134 -0.136365,-0.0737 -0.189754,-0.127078 -0.05338,-0.05339 -0.09574,-0.116636 -0.127078,-0.189755 -0.03134,-0.07312 -0.04701,-0.149898 -0.04701,-0.230381 0,-0.0936 0.0207,-0.181806 0.06209,-0.264597 0.0414,-0.08278 0.1,-0.152804 0.175823,-0.210068 0.03249,-0.02477 0.05164,-0.05745 0.05745,-0.09808 0.0058,-0.04061 -0.0037,-0.07718 -0.02843,-0.109671 -0.02399,-0.03326 -0.05628,-0.05261 -0.09691,-0.05802 -0.04063,-0.0054 -0.07758,0.0043 -0.110839,0.02902 -0.112975,0.08433 -0.200581,0.188786 -0.262873,0.313343 -0.06229,0.12457 -0.09343,0.25726 -0.09343,0.39807 0,0.120711 0.0236,0.235979 0.0708,0.345849 0.04721,0.109871 0.110639,0.204641 0.190339,0.284341 0.07968,0.07969 0.17447,0.143146 0.28434,0.19031 0.10987,0.04721 0.225153,0.07082 0.345849,0.07082 0.120696,0 0.235979,-0.02362 0.345849,-0.07082 0.10987,-0.04718 0.204655,-0.110625 0.284341,-0.19031 0.07968,-0.07969 0.143117,-0.17447 0.190324,-0.284341 0.04719,-0.10987 0.07078,-0.225153 0.07078,-0.345849 0,-0.14081 -0.0311,-0.2735 -0.09339,-0.39807 l 0,0 z"
               id="path957-7"
               inkscape:connector-curvature="0"
               style="opacity:0.66799999;fill:#e3e8ea;fill-opacity:1;stroke-width:1.31742239;stroke-miterlimit:4;stroke-dasharray:none" />
            <path
               style="opacity:1;fill:#a1a7ae;fill-opacity:1;fill-rule:evenodd;stroke:#909296;stroke-width:0.12085464;stroke-linecap:butt;stroke-linejoin:miter;stroke-miterlimit:4;stroke-dasharray:none;stroke-opacity:1"
               d="m 7.9299464,19.430503 -5.020894,4.067049 -12.126458,1.795682 4.954835,4.013535 -4.719942,3.823261 5.637495,4.566505 4.719917,-3.823261 4.716256,3.823261 2.326959,-9.528446 L 13.56744,23.99702 7.9299464,19.430503 Z"
               id="path4175"
               inkscape:connector-curvature="0" />
          </g>
        </g>
      </g>
    </g>
  </g>
</svg>
