<?xml version="1.0" encoding="UTF-8" standalone="no"?>
<!-- Created with Inkscape (http://www.inkscape.org/) -->

<svg
   xmlns:dc="http://purl.org/dc/elements/1.1/"
   xmlns:cc="http://creativecommons.org/ns#"
   xmlns:rdf="http://www.w3.org/1999/02/22-rdf-syntax-ns#"
   xmlns:svg="http://www.w3.org/2000/svg"
   xmlns="http://www.w3.org/2000/svg"
   xmlns:xlink="http://www.w3.org/1999/xlink"
   xmlns:sodipodi="http://sodipodi.sourceforge.net/DTD/sodipodi-0.dtd"
   xmlns:inkscape="http://www.inkscape.org/namespaces/inkscape"
   width="48"
   height="48"
   id="svg5453"
   version="1.1"
   inkscape:version="0.91 r13725"
   sodipodi:docname="utilities-desktop-extra.svg">
  <defs
     id="defs5455">
    <linearGradient
       gradientTransform="matrix(0.63636365,0,0,0.62141556,-205.62502,-319.99261)"
       gradientUnits="userSpaceOnUse"
       y2="507.798"
       x2="409.57144"
       y1="542.79797"
       x1="409.57144"
       id="linearGradient4222"
       xlink:href="#linearGradient4143"
       inkscape:collect="always" />
    <linearGradient
       id="linearGradient4143"
       inkscape:collect="always">
      <stop
         id="stop4145"
         offset="0"
         style="stop-color:#197cf1;stop-opacity:1" />
      <stop
         id="stop4147"
         offset="1"
         style="stop-color:#20bcfa;stop-opacity:1" />
    </linearGradient>
  </defs>
  <sodipodi:namedview
     id="base"
     pagecolor="#ffffff"
     bordercolor="#666666"
     borderopacity="1.0"
     inkscape:pageopacity="0"
     inkscape:pageshadow="2"
     inkscape:zoom="4"
     inkscape:cx="-15.438698"
     inkscape:cy="15.968792"
     inkscape:document-units="px"
     inkscape:current-layer="g4182"
     showgrid="true"
     fit-margin-top="0"
     fit-margin-left="0"
     fit-margin-right="0"
     fit-margin-bottom="0"
     inkscape:window-width="1366"
     inkscape:window-height="634"
     inkscape:window-x="0"
     inkscape:window-y="36"
     inkscape:window-maximized="1"
     inkscape:showpageshadow="false"
     borderlayer="true"
     showguides="false">
    <inkscape:grid
       type="xygrid"
       id="grid4063" />
    <sodipodi:guide
       position="1.1650391e-05,32.000026"
       orientation="32,0"
       id="guide4157" />
    <sodipodi:guide
       position="1.1650391e-05,2.6367188e-05"
       orientation="0,32"
       id="guide4159" />
    <sodipodi:guide
       position="32.000012,2.6367188e-05"
       orientation="-32,0"
       id="guide4161" />
    <sodipodi:guide
       position="32.000012,32.000026"
       orientation="0,-32"
       id="guide4163" />
    <sodipodi:guide
       position="2.0000117,30.000026"
       orientation="28,0"
       id="guide4167" />
    <sodipodi:guide
       position="2.0000117,2.0000264"
       orientation="0,28"
       id="guide4169" />
    <sodipodi:guide
       position="30.000012,2.0000264"
       orientation="-28,0"
       id="guide4171" />
    <sodipodi:guide
       position="30.000012,30.000026"
       orientation="0,-28"
       id="guide4173" />
    <sodipodi:guide
       position="2.0000117,30.000026"
       orientation="28,0"
       id="guide4181" />
    <sodipodi:guide
       position="2.0000117,2.0000264"
       orientation="0,14"
       id="guide4183" />
    <sodipodi:guide
       position="16.000012,2.0000264"
       orientation="-28,0"
       id="guide4185" />
    <sodipodi:guide
       position="16.000012,30.000026"
       orientation="0,-14"
       id="guide4187" />
    <sodipodi:guide
       position="9.0000117,23.000026"
       orientation="14,0"
       id="guide4193" />
    <sodipodi:guide
       position="9.0000117,9.0000264"
       orientation="0,14.000031"
       id="guide4195" />
    <sodipodi:guide
       position="23.000042,9.0000264"
       orientation="-14,0"
       id="guide4197" />
    <sodipodi:guide
       position="23.000042,23.000026"
       orientation="0,-14.000031"
       id="guide4199" />
  </sodipodi:namedview>
  <metadata
     id="metadata5458">
    <rdf:RDF>
      <cc:Work
         rdf:about="">
        <dc:format>image/svg+xml</dc:format>
        <dc:type
           rdf:resource="http://purl.org/dc/dcmitype/StillImage" />
        <dc:title></dc:title>
      </cc:Work>
    </rdf:RDF>
  </metadata>
  <g
     inkscape:label="Capa 1"
     inkscape:groupmode="layer"
     id="layer1"
     transform="translate(-384.57143,-499.798)">
    <g
       style="display:inline;enable-background:new"
       id="g4238"
       transform="translate(225.81911,462.44565)">
      <g
         style="display:inline"
         id="layer1-8"
         transform="matrix(0.22655187,0,0,0.22655187,106.94841,54.31088)">
        <g
           style="display:none"
           id="layer6" />
        <g
           id="g4027" />
        <g
           id="g4061" />
        <g
           id="g3751" />
        <g
           id="g3782" />
        <g
           id="g3725" />
        <g
           id="g4370"
           transform="matrix(4.4140002,0,0,4.4140002,59.275211,39.357303)">
          <g
             id="g4182"
             transform="matrix(1.7142857,0,0,1.7142857,-30.839285,-12.375017)">
            <rect
               style="opacity:1;fill:url(#linearGradient4222);fill-opacity:1;stroke:none;stroke-width:0.2;stroke-linecap:round;stroke-linejoin:round;stroke-miterlimit:4;stroke-dasharray:none;stroke-opacity:1"
               id="rect4195"
               width="28"
               height="21.128128"
               x="40.375"
               y="-4.4390545"
               ry="0.9942649" />
            <path
               inkscape:connector-curvature="0"
               id="path5692_1_"
               style="display:inline;opacity:1;fill:#ffffff;fill-opacity:0.85;stroke:none;stroke-width:1.29989684;stroke-miterlimit:4;stroke-dasharray:none;stroke-opacity:0.8"
               d="m 55.032014,-0.29165883 -2.13298,0.2050953 0,8.78714063 2.110182,-0.319039 0,-3.746378 2.839404,4.156554 2.224133,-0.706424 -2.907766,-3.997054 2.930563,-3.76916093 -2.269705,-0.5195739 -2.816629,3.76915383 0.02284,-3.86031393 z M 50.196355,1.8504321 c -0.02418,0.0015 -0.05015,0.0092 -0.06843,0.02724 l -0.838597,0.838599 c -0.03515,0.0353 -0.03955,0.08945 -0.01283,0.132263 l 0.979871,1.617958 c -0.17397,0.292472 -0.315269,0.606227 -0.414735,0.938861 l -1.800271,0.373737 c -0.05015,0.01097 -0.08653,0.05798 -0.08653,0.109399 l 0,1.184984 c 0,0.05015 0.03806,0.09312 0.08653,0.104824 l 1.745572,0.423862 c 0.0933,0.385095 0.237549,0.753623 0.428421,1.089273 l -1.011798,1.5404829 c -0.02821,0.04299 -0.02269,0.100436 0.01283,0.136658 l 0.838598,0.838612 c 0.0353,0.03515 0.08945,0.0397 0.132076,0.01283 l 1.586074,-0.961658 c 0.311083,0.179642 0.647867,0.323486 1.002672,0.419288 l 0.36917,1.777503 c 0.01097,0.05029 0.05358,0.08653 0.104816,0.08653 l 1.185008,0 c 0.04978,0 0.09293,-0.03351 0.104824,-0.08195 l 0.437525,-1.786593 c 0.365931,-0.0986 0.710923,-0.245116 1.030021,-0.432973 l 1.563281,1.02547 c 0.04313,0.02813 0.10025,0.02269 0.136651,-0.01283 l 0.83406,-0.838598 c 0.03552,-0.0353 0.04425,-0.08946 0.01828,-0.132083 l -0.569697,-0.9388849 -0.186872,0.05925 c -0.02686,0.0092 -0.05686,-0.0037 -0.07298,-0.02724 0,0 -0.359872,-0.52938 -0.829485,-1.216887 -0.561655,1.099004 -1.707052,1.8503959 -3.026292,1.8503959 -1.874603,0 -3.395438,-1.5208359 -3.395438,-3.3954389 0,-1.378917 0.824582,-2.56326 2.005358,-3.094631 l 0,-0.875081 c -0.214893,0.07519 -0.422511,0.165925 -0.619838,0.273473 -3.66e-4,-2.39e-4 3.66e-4,-0.0037 0,-0.0052 l -1.59972,-1.048298 c -0.02157,-0.01462 -0.04425,-0.01649 -0.06843,-0.01283 z" />
          </g>
        </g>
      </g>
    </g>
  </g>
</svg>
