<svg xmlns="http://www.w3.org/2000/svg" viewBox="0 0 48 48"><defs><clipPath id="6"><path d="m556.75 546.2h27.01v-29.575h-27.01v29.575"/></clipPath><clipPath><path d="m596.51 511.71c-7.452 6.109-22.261 15.989-32.626 11.818-5.793-2.332-8.254-7.974-1.48-7.577 13.816.809 20.506 2.306 34.11-4.241"/></clipPath><clipPath id="7"><path d="m556.75 516.63c2.252 9.368 8.092 26.19 18.874 29.12 6.02 1.639 11.393-1.373 5.753-5.147-11.502-7.696-17.738-10.542-24.627-23.971"/></clipPath><clipPath><path d="m548.84 543.24h11.247v-38.495h-11.247v38.495"/></clipPath><clipPath><path d="m556.74 544.61h28.84v-27.979h-28.84v27.979"/></clipPath><clipPath><path d="m558.32 524.53h38.19v-12.815h-38.19v12.815"/></clipPath><clipPath id="8"><path d="m547.05 542.87h13.05v-38.14h-13.05v38.14"/></clipPath><clipPath id="3"><path d="m0 792h612v-792h-612v792"/></clipPath><clipPath id="5"><path d="m596.5 511.72c-6.962 6.661-20.973 17.643-31.626 14.277-5.954-1.882-8.839-7.319-2.055-7.441 13.837-.25 20.622.731 33.681-6.836"/></clipPath><clipPath id="4"><path d="m558.89 526.62h37.604v-14.904h-37.604v14.904"/></clipPath><linearGradient id="2" gradientUnits="userSpaceOnUse" x1="22.548" y1="267" x2="21.17" y2="148.12" gradientTransform="matrix(.41708-.0003.00032.39759 21.418-105.51)"><stop stop-color="#197cf1"/><stop offset="1" stop-color="#20bcfa"/></linearGradient><linearGradient gradientTransform="matrix(.41708-.0003.00032.39759 21.425-105.4)" id="0" gradientUnits="userSpaceOnUse" x1=".967" y1="204.55" x2=".807" y2="147.64"><stop stop-color="#1f75d3"/><stop offset="1" stop-color="#2896ff"/></linearGradient><linearGradient gradientUnits="userSpaceOnUse" y2="-23.742" x2="0" y1=".293" id="1"><stop stop-color="#e7f0f4"/><stop offset="1" stop-color="#f4faff"/></linearGradient></defs><g transform="matrix(.99999 0 0 .99999-33.371 30.882)" enable-background="new"><g transform="translate(25 15)"><g fill-rule="evenodd"><path d="m11.551-45.78h19.92v23.04h-23.09v-20.07c0-3.191 3-2.971 3.169-2.971" fill="url(#0)"/><path d="m31.396-45.781v22.918h-23.02v20.07c0 3.191 3 2.971 3.168 2.971h19.92 19.807c.168 0 3.168.22 3.168-2.971v-19.947h.047v-20.07c0-3.191-3-2.973-3.168-2.973h-19.92" fill="url(#2)"/></g><path d="M42.917916-24.878359A13.456333 13.456333 0 0 0 29.462838 -11.421328 13.456333 13.456333 0 0 0 42.917916 2.03375 13.456333 13.456333 0 0 0 56.37495 -11.421328 13.456333 13.456333 0 0 0 42.917916 -24.878359m3.396 5.992c.05.003.108.025.154.039.237.068.438.271.506.51l2.451 8.928 1.285-1.742c.131-.194.33-.328.563-.334h.953.43.037c.028 0 .059.03.059.059v1.371c0 .028-.028.039-.057.039h-.039-.43-.582l-1.887 2.623c-.323.425-1.128.277-1.285-.234l-2.236-7.949-1.537 5.07c-.094.288-.398.484-.699.49h-1.07-.215-.525-.193-.545l-2.082 6.891c-.104.374-.545.621-.914.51-.237-.068-.438-.271-.506-.51l-2.471-8.945-1.264 1.742c-.131.194-.351.306-.584.313h-.934-.467-.059c-.028 0-.039-.011-.039-.039v-1.371c0-.028.011-.059.039-.059h.059.467.584l1.887-2.584c.323-.425 1.126-.277 1.283.234l2.219 7.949 1.555-5.09c.094-.288.38-.503.682-.51h1.09.193.525.215.525l2.1-6.852c.078-.28.339-.49.623-.529.047-.006.087-.02.137-.02z" fill="url(#1)"/><g fill="#fff" fill-opacity=".851"><path d="m23.22-11.308c-.016-1.646 1.343-2.436 1.403-2.475-.764-1.117-1.953-1.271-2.377-1.288-1.012-.103-1.975.596-2.489.596-.512 0-1.305-.581-2.145-.566-1.103.016-2.121.642-2.689 1.63-1.146 1.989-.294 4.936.824 6.55.546.79 1.197 1.677 2.052 1.645.823-.033 1.134-.533 2.13-.533.995 0 1.275.533 2.146.516.886-.016 1.447-.805 1.989-1.597.627-.916.885-1.803.9-1.849-.02-.009-1.727-.663-1.744-2.63m-1.637-4.831c.454-.55.76-1.314.676-2.076-.654.027-1.446.435-1.915.985-.421.487-.789 1.265-.69 2.01.73.057 1.474-.371 1.928-.92"/><path d="m37.32-35.01l-.004-3.901 4.375-.652v4.553h-4.371m5.1-4.669l5.832-.931v5.6h-5.832v-4.669m5.833 5.469l-.0001 5.6-5.832-.9v-4.7h5.833m-6.562 4.598l-4.371-.657v-3.941h4.372v4.598"/></g></g><g clip-path="url(#3)" transform="matrix(.28538 0 0-.28486-117.67 130.52)"><g clip-path="url(#4)" transform="translate(-3.997-1.449)"><g clip-path="url(#5)"><path d="m596.5 511.72c-6.962 6.661-20.973 17.643-31.626 14.277-5.954-1.882-8.839-7.319-2.055-7.441 13.837-.25 20.622.731 33.681-6.836" fill="#e7f2fb" fill-rule="evenodd"/></g></g><g clip-path="url(#6)" transform="translate(-2.485.663)"><g clip-path="url(#7)"><path d="m556.75 516.63c2.252 9.368 8.092 26.19 18.874 29.12 6.02 1.639 11.393-1.373 5.753-5.147-11.502-7.696-17.738-10.542-24.627-23.971" fill="#e7f2fb" fill-rule="evenodd"/></g></g><g clip-path="url(#8)"><path d="m560.09 504.74c-6.172 7.399-16.178 22.12-12.09 32.524 2.281 5.812 7.902 8.321 7.563 1.544-.691-13.823-2.131-20.525 4.531-34.07" fill="#e7f2fb" fill-rule="evenodd"/></g></g></g></svg>