<svg xmlns="http://www.w3.org/2000/svg" viewBox="0 0 48 48"><defs><linearGradient id="0" y1="44.725" x2="0" y2="12.725" gradientUnits="userSpaceOnUse"><stop stop-color="#e2e2e2"/><stop offset="1" stop-color="#fff"/></linearGradient><linearGradient gradientUnits="userSpaceOnUse" y2="-26.05" x2="-125.19" y1="73.5" x1="-123.97" id="1" gradientTransform="matrix(.49433 0 0 .4778 135.02 17.227)"><stop stop-color="#dc3c30"/><stop offset="1" stop-color="#ff786d"/></linearGradient></defs><g transform="matrix(.99999 0 0 .99999-48.37-4.118)" enable-background="new"><rect width="48" height="48" x="48.37" y="4.125" fill="url(#1)" fill-rule="evenodd" rx="2.982"/><path d="m85.46 12.725c-.695.0001-1.399.146-1.962.43-.823.414-1.652 1.292-2.02 2.139-.391.9-.447 2.488-.118 3.331.139.357.379.97.534 1.362.348.886.474 2.836.253 3.931-.249 1.233-1.022 2.657-1.928 3.552-2.719 2.686-6.829 2.733-9.529.109-.932-.906-1.064-1.122-5.27-8.628-1.428-2.548-2.709-4.682-2.976-4.958-.836-.884-1.998-1.201-3.062-1.206-2.288-.037-3.874 1.753-4.25 3.675-.278 1.538-.406 1.273 6.985 14.444 4.665 8.313 6.882 12.145 7.246 12.522 1.288 1.334 3.123 1.665 4.84.872.451-.208.962-.583 1.289-.945.639-.709 13.862-24.18 14.08-24.989.225-.846.169-2.049-.134-2.881-.376-1.035-1.415-2.097-2.439-2.494-.46-.178-.995-.266-1.536-.265" fill="url(#0)"/></g></svg>