<svg xmlns="http://www.w3.org/2000/svg" viewBox="0 0 48 48"><defs><linearGradient id="0" x1="61.57" y1="22.939" x2="60.753" y2="-27.706" gradientUnits="userSpaceOnUse"><stop stop-color="#197cf1"/><stop offset="1" stop-color="#21c9fb"/></linearGradient></defs><path d="m41.36-25.875h42.04c1.652 0 2.982 1.33 2.982 2.982v42.04c0 1.652-1.33 2.982-2.982 2.982h-42.04c-1.652 0-2.982-1.33-2.982-2.982v-42.04c0-1.652 1.33-2.982 2.982-2.982" transform="matrix(.99999 0 0 .99999-38.38 25.875)" fill="url(#0)" fill-rule="evenodd"/><path d="m12.683 31.22c-.54-.137-1.127-.584-1.509-1.149-.195-.289-1.44-2.874-2.767-5.745-2.181-4.719-2.412-5.271-2.408-5.751.012-1.198 1.248-2.103 2.436-1.784.76.204 1.099.665 1.927 2.624 2.251 5.323 2.882 6.769 2.962 6.784.049.001.744-1.514 1.545-3.385.801-1.871 1.591-3.629 1.755-3.907.697-1.179 1.876-1.944 3.305-2.144 1.384-.194 2.869.325 3.955 1.381l.429.417.553-.412c.717-.534 1.547-.983 2.258-1.221.814-.273 2.399-.245 3.306.059.76.254 1.651.818 2.01 1.27l.238.304.661-.485c1.161-.853 2.078-1.218 3.369-1.341 2.24-.214 4.465 1.195 5.094 3.227.191.618.205.962.203 5.21-.002 4.19-.017 4.581-.192 4.965-.757 1.661-3.152 1.479-3.676-.28-.131-.438-.16-1.214-.161-4.303-.002-3.433-.019-3.805-.192-4.184-.691-1.517-3.01-1.577-3.856-.101-.235.408-.239.47-.29 4.484-.048 3.745-.068 4.102-.25 4.468-.584 1.174-2.26 1.431-3.164.485-.591-.619-.616-.818-.616-4.954 0-4.149-.026-4.353-.625-4.95-.917-.915-2.664-.742-3.379.334l-.284.428-.052 4.129c-.047 3.768-.068 4.16-.243 4.48-.815 1.491-2.906 1.47-3.592-.037-.175-.383-.19-.774-.192-4.929l-.002-4.513-.254-.253c-.301-.3-.474-.316-.768-.073-.12.099-1.072 2.035-2.115 4.302-2.673 5.809-2.726 5.903-3.588 6.341-.453.23-1.342.332-1.827.209" fill="#def4fe"/></svg>