<svg xmlns="http://www.w3.org/2000/svg" viewBox="0 0 48 48"><defs><linearGradient id="0" x1="61.57" y1="22.939" x2="60.753" y2="-27.706" gradientUnits="userSpaceOnUse"><stop stop-color="#2b65bd"/><stop stop-color="#64a3dc" offset="1"/></linearGradient></defs><path d="m41.36-25.875h42.04c1.652 0 2.982 1.33 2.982 2.982v42.04c0 1.652-1.33 2.982-2.982 2.982h-42.04c-1.652 0-2.982-1.33-2.982-2.982v-42.04c0-1.652 1.33-2.982 2.982-2.982" transform="matrix(.99999 0 0 .99999-38.38 25.875)" fill="url(#0)" fill-rule="evenodd"/><path d="m8.475 8c-1.149 0-2.075.841-2.075 1.886v28.23c0 1.045.926 1.886 2.075 1.886h31.05c1.149 0 2.075-.841 2.075-1.886v-28.23c0-1.045-.926-1.886-2.075-1.886m-29.575 3.784h28.1v18.614h-5.6v2.619h-3.1v3.199h-10.6v-3.199h-3.3v-2.619h-5.5zm2.831 2.813v7.362h4v-7.362zm6.281 0v7.362h4v-7.362zm6.082 0v7.362h4v-7.362zm6.082 0v7.362h3.999v-7.362z" fill="#e4edf7"/></svg>