<svg xmlns="http://www.w3.org/2000/svg" viewBox="0 0 48 48"><defs><clipPath id="1"><path transform="matrix(15.33333 0 0 11.5 415-125.5)" d="m-24 13c0 1.105-.672 2-1.5 2-.828 0-1.5-.895-1.5-2 0-1.105.672-2 1.5-2 .828 0 1.5.895 1.5 2" fill="#1890d0"/></clipPath><linearGradient y2="517.77" x2="400.7" y1="546.07" x1="400.51" gradientUnits="userSpaceOnUse" id="0"><stop stop-color="#ff9300"/><stop offset="1" stop-color="#ffd702"/></linearGradient><linearGradient gradientUnits="userSpaceOnUse" y2="517.8" x2="0" y1="545.8"><stop stop-color="#3889e9"/><stop offset="1" stop-color="#5ea5fb"/></linearGradient></defs><g transform="matrix(1.04348 0 0 1.04348-402.34-522.57)"><g transform="matrix(1.64285 0 0 1.64285-249.51-349.87)"><circle cx="400.57" cy="531.8" r="14" fill="url(#0)"/><circle r="14" cy="531.8" cx="400.57" fill="#5ea5fb" fill-opacity="0"/></g><g clip-path="url(#1)" transform="matrix(1.13318 0 0 1.13318 381.39 496.6)"><path d="m24 9c-2.559 0-4.969.645-7.078 1.773h2.98v.203c-.395.02-.664.125-.809.313-.301-.211-.598-.313-.883-.313h-.98l-.547.086-.098-.086h-.031c-.391.223-.77.465-1.137.723.84 1.207 1.348 2.246 1.523 3.121h.813v.203h-.625v.227c.238.875.414 1.313.527 1.313h.191l.434-.113.094.113.098-.113.094.113v.082c-.32.23-.535.543-.645.945h-.07v.199h.168c.223 3.168.637 5.57 1.242 7.207l.355.281h.191c.227 0 .742-1.109 1.504-3.332.492-1 .852-1.887 1.074-2.645l-.105-.316c.496-.738 1.016-1.109 1.531-1.109h.168c.332 0 .57.211.711.629.449.625.813 1.57 1.078 2.824l1.34 2.961c.172.211.258.445.258.711.492 1.121.941 1.863 1.348 2.223h.289c.332 0 .77-1.387 1.332-4.16.098 0 .355-.738.793-2.223v-.113l-1.512-.195-.352.109h-.457v-.227l.91-.09h1.766c.688-2.449 1.316-4.348 1.887-5.699.063-.859.133-1.57.203-2.168-1.039-.859-2.195-1.586-3.441-2.145-.105.234-.297.352-.602.352v-.195l.555-.184c-1.855-.824-3.914-1.281-6.078-1.281m-2.863 1.77h2.414v.203l-.547.086-.531-.086-.453.199-.16-.199h-.719v-.203m4.988 1.629h.262v.086c0 .133-.09.195-.262.195l-.102.113v.113l-.262-.113v-.195m-12.465.879c-2.664 2.707-4.316 6.426-4.316 10.527 0 8.281 6.723 14.996 15 14.996 8.281 0 15-6.715 15-14.996 0-3.352-1.094-6.445-2.938-8.938-.406.477-.797 1.383-1.188 2.719-.172 1.383-.469 2.668-.883 3.844-.367 1.215-.551 2.336-.551 3.363l-.691 2.023c0 .168.27.34.789.508-.098.402-.234.598-.434.598v.113h.168v.086c0 .211-.273.313-.813.313l.098.113v.402h-.164c.109.398.344.594.711.594v.203h-.711v.113c.234 0 .355.168.355.508l-1 .398.098.113v.09c0 .133-.121.195-.359.195v.113c.301 0 .453.066.453.199-.426.172-.992 1.02-1.695 2.539-.715 1.348-1.336 2.02-1.852 2.02h-.191c-.398-.305-.723-1.313-.98-3.02-1.02-2.605-1.527-4.133-1.527-4.586 0-1.18-.332-2.43-.984-3.762-.172-.59-.289-1.332-.352-2.227l-.434-.109c-1.086 1.957-1.648 3.484-1.695 4.586-.301.648-.539 1.426-.715 2.34.652.203.977.402.977.598v.105c-.508-.07-.863-.219-1.07-.43-.227.52-.52 1.941-.887 4.273-.289 1.082-.641 1.625-1.074 1.625-1.207-.473-2.223-1.254-3.03-2.332-.129 0-.34-.543-.625-1.629-.176 0-.293-.539-.359-1.621-.602-1.539-1.016-3.301-1.238-5.273v-2.961h-.098l-.43.113v-.113c0-.137.145-.199.43-.199l-.094-1.707v-1.34l-.695-4.27v-.828m11.488.043v.113c0 .148-.379.313-1.145.48v-.203l.527-.277.094.082h.074m-2.129.828v.082c-.332.309-.879.582-1.625.832v-.199c.129 0 .191-.105.191-.316l1.434-.395m13.508.109l-.043.367h.168l.102-.082c-.074-.098-.152-.195-.23-.289m-8.965.887l.098.113v.082l-.168.23h-.094l-.191-.23v-.082m3.648 0h.094v.082l-.16.23h-.098v-.113l.164-.195m-1.504 1.418l.359.289c-.063.207-.242.313-.527.313l-.191-.313c0-.098.121-.191.355-.289m2.152 1.313l.07.109v.09l-.07.113h-.191v-.113m-3.195.824v.09l-.453.426h-.262v-.113c0-.168.238-.305.715-.398m-14.809 3.957h.098v.094c-.238.625-.445 1-.617 1.137h-.188v-.434m12.391 3.965h.094v.195l-.715.434-.094-.113v-.199l.715-.313m-9.813 1.336h.164l.285 1.105h-.191l-.258-1.023v-.086m9.551 1.313h.07l.285.316-.094.086h-.098l-.164-.285" fill="#f9f9f9" fill-opacity=".855"/></g></g></svg>