<svg xmlns="http://www.w3.org/2000/svg" xmlns:xlink="http://www.w3.org/1999/xlink" viewBox="0 0 48 48"><defs><linearGradient xlink:href="#2" id="5" x1="-4.373" y1="48.46" x2="-4.315" y2="33.21" gradientUnits="userSpaceOnUse"/><linearGradient id="4" x1="-123.97" y1="73.5" x2="-125.19" y2="-26.05" gradientUnits="userSpaceOnUse" gradientTransform="matrix(.49433 0 0 .4778 86.64 13.1)"><stop stop-color="#2b65bd"/><stop stop-color="#64a3dc" offset="1"/></linearGradient><linearGradient xlink:href="#4" id="6" x1="-4.78" y1="29.438" x2="-4.518" y2="13.777" gradientUnits="userSpaceOnUse"/><linearGradient xlink:href="#4" id="3" x1="-22.736" y1="48.46" x2="-22.678" y2="32.596" gradientUnits="userSpaceOnUse"/><linearGradient xlink:href="#2" id="1" x1="-22.939" y1="30.25" x2="-22.678" y2="13.573" gradientUnits="userSpaceOnUse"/><linearGradient id="0" gradientUnits="userSpaceOnUse" gradientTransform="matrix(.49433 0 0 .4778 86.64 13.1)" x1="-123.97" y1="73.5" x2="-125.19" y2="-26.05"><stop stop-color="#e1e1e1"/><stop offset="1" stop-color="#f4f4ff"/></linearGradient><linearGradient gradientUnits="userSpaceOnUse" y2="-1.823" x2="22.382" y1="48.821" x1="23.2" id="2"><stop stop-color="#7737c5"/><stop offset="1" stop-color="#9371ff"/></linearGradient></defs><path d="m2.982 0h42.04c1.652 0 2.982 1.33 2.982 2.982v42.04c0 1.652-1.33 2.982-2.982 2.982h-42.04c-1.652 0-2.982-1.33-2.982-2.982v-42.04c0-1.652 1.33-2.982 2.982-2.982" fill="url(#0)" fill-rule="evenodd"/><g transform="translate(38.03-7.119)"><path d="m2.789 13.12c.652 0 1.177.523 1.177 1.173v14.427c0 .65-.525 1.173-1.177 1.173h-14.47c-.652 0-1.177-.523-1.177-1.173v-14.427c0-.65.525-1.173 1.177-1.173h14.47" fill="url(#6)"/><path d="m-16.387 13.12c.652 0 1.177.523 1.177 1.173v14.427c0 .65-.525 1.173-1.177 1.173h-14.47c-.652 0-1.177-.523-1.177-1.173v-14.427c0-.65.525-1.173 1.177-1.173h14.47" fill="url(#1)"/><path d="m2.789 32.35c.652 0 1.177.523 1.177 1.173v14.427c0 .65-.525 1.173-1.177 1.173h-14.47c-.652 0-1.177-.523-1.177-1.173v-14.427c0-.65.525-1.173 1.177-1.173h14.47" fill="url(#5)"/><path d="m-16.387 32.35c.652 0 1.177.523 1.177 1.173v14.427c0 .65-.525 1.173-1.177 1.173h-14.47c-.652 0-1.177-.523-1.177-1.173v-14.427c0-.65.525-1.173 1.177-1.173h14.47" fill="url(#3)"/></g></svg>