<?xml version="1.0" encoding="UTF-8" standalone="no"?>
<svg
   xmlns:dc="http://purl.org/dc/elements/1.1/"
   xmlns:cc="http://creativecommons.org/ns#"
   xmlns:rdf="http://www.w3.org/1999/02/22-rdf-syntax-ns#"
   xmlns:svg="http://www.w3.org/2000/svg"
   xmlns="http://www.w3.org/2000/svg"
   xmlns:xlink="http://www.w3.org/1999/xlink"
   xmlns:sodipodi="http://sodipodi.sourceforge.net/DTD/sodipodi-0.dtd"
   xmlns:inkscape="http://www.inkscape.org/namespaces/inkscape"
   viewBox="0 0 48 48"
   id="svg2"
   version="1.1"
   inkscape:version="0.91 r13725"
   sodipodi:docname="welcome.svg">
  <metadata
     id="metadata24">
    <rdf:RDF>
      <cc:Work
         rdf:about="">
        <dc:format>image/svg+xml</dc:format>
        <dc:type
           rdf:resource="http://purl.org/dc/dcmitype/StillImage" />
        <dc:title></dc:title>
      </cc:Work>
    </rdf:RDF>
  </metadata>
  <sodipodi:namedview
     pagecolor="#707070"
     bordercolor="#666666"
     borderopacity="1"
     objecttolerance="10"
     gridtolerance="10"
     guidetolerance="10"
     inkscape:pageopacity="0"
     inkscape:pageshadow="2"
     inkscape:window-width="1366"
     inkscape:window-height="687"
     id="namedview22"
     showgrid="false"
     inkscape:showpageshadow="false"
     inkscape:zoom="4.9166667"
     inkscape:cx="24"
     inkscape:cy="24"
     inkscape:window-x="0"
     inkscape:window-y="0"
     inkscape:window-maximized="1"
     inkscape:current-layer="svg2" />
  <defs
     id="defs4">
    <linearGradient
       id="0"
       gradientUnits="userSpaceOnUse"
       gradientTransform="matrix(.49433 0 0 .4778 86.64 13.1)"
       x1="-123.97"
       y1="73.5"
       x2="-125.19"
       y2="-26.05">
      <stop
         stop-color="#e1e1e1"
         id="stop7" />
      <stop
         offset="1"
         stop-color="#f4f4ff"
         id="stop9" />
    </linearGradient>
    <linearGradient
       id="1"
       gradientUnits="userSpaceOnUse"
       x1="425.71"
       y1="517.57"
       x2="426.43"
       y2="476.11">
      <stop
         stop-color="#c52828"
         id="stop12" />
      <stop
         offset="1"
         stop-color="#ff5454"
         id="stop14" />
    </linearGradient>
    <linearGradient
       inkscape:collect="always"
       xlink:href="#0-39"
       id="linearGradient4351"
       x1="32.90554"
       y1="23.132521"
       x2="32.64407"
       y2="6.4545555"
       gradientUnits="userSpaceOnUse"
       gradientTransform="matrix(-1,0,0,1,9.9661017,7.1186441)" />
    <linearGradient
       gradientUnits="userSpaceOnUse"
       y2="-1.823"
       x2="22.382"
       y1="48.820999"
       x1="23.200001"
       id="0-39">
      <stop
         id="stop4315"
         stop-color="#7737c5" />
      <stop
         id="stop4317"
         offset="1"
         stop-color="#9371ff" />
    </linearGradient>
    <linearGradient
       inkscape:collect="always"
       xlink:href="#0-3"
       id="linearGradient4308"
       x1="32.702148"
       y1="41.342052"
       x2="32.64407"
       y2="25.477646"
       gradientUnits="userSpaceOnUse"
       gradientTransform="matrix(-1,0,0,1,9.9661017,7.1186441)" />
    <linearGradient
       id="0-3"
       x1="-123.97"
       y1="73.5"
       x2="-125.19"
       y2="-26.049999"
       gradientUnits="userSpaceOnUse"
       gradientTransform="matrix(0.49433,0,0,0.4778,86.64,13.1)">
      <stop
         id="stop4275"
         stop-color="#2b65bd" />
      <stop
         id="stop4277"
         stop-color="#64a3dc"
         offset="1" />
    </linearGradient>
    <linearGradient
       inkscape:collect="always"
       xlink:href="#0-39"
       id="linearGradient4343"
       x1="14.338983"
       y1="41.342052"
       x2="14.280902"
       y2="26.087816"
       gradientUnits="userSpaceOnUse"
       gradientTransform="matrix(-1,0,0,1,9.9661017,7.1186441)" />
    <linearGradient
       inkscape:collect="always"
       xlink:href="#0-3"
       id="linearGradient4300"
       x1="14.745763"
       y1="22.318962"
       x2="14.484292"
       y2="6.6579452"
       gradientUnits="userSpaceOnUse"
       gradientTransform="matrix(-1,0,0,1,9.9661017,7.1186441)" />
  </defs>
  <path
     d="m2.982 0h42.04c1.652 0 2.982 1.33 2.982 2.982v42.04c0 1.652-1.33 2.982-2.982 2.982h-42.04c-1.652 0-2.982-1.33-2.982-2.982v-42.04c0-1.652 1.33-2.982 2.982-2.982"
     fill="url(#0)"
     fill-rule="evenodd"
     id="path16" />
  <g
     id="g4190"
     transform="translate(38.033898,-7.118644)">
    <path
       id="path4268"
       d="m 2.7893757,13.118644 c 0.651784,0 1.176726,0.52339 1.176726,1.173245 l 0,14.427027 c 0,0.649856 -0.524942,1.173246 -1.176726,1.173246 l -14.4698227,0 c -0.651783,0 -1.176725,-0.52339 -1.176725,-1.173246 l 0,-14.427027 c 0,-0.649855 0.524942,-1.173245 1.176725,-1.173245 l 14.4698227,0 z"
       style="opacity:1;fill:url(#linearGradient4300);fill-opacity:1;stroke:none;stroke-width:1.5;stroke-linecap:round;stroke-linejoin:round;stroke-miterlimit:4;stroke-dasharray:none;stroke-opacity:0.85490196"
       inkscape:connector-curvature="0" />
    <path
       id="path4266"
       d="m -16.387349,13.118644 c 0.651783,0 1.176725,0.52339 1.176725,1.173245 l 0,14.427027 c 0,0.649856 -0.524942,1.173246 -1.176725,1.173246 l -14.469823,0 c -0.651783,0 -1.176726,-0.52339 -1.176726,-1.173246 l 0,-14.427027 c 0,-0.649855 0.524943,-1.173245 1.176726,-1.173245 l 14.469823,0 z"
       style="opacity:1;fill:url(#linearGradient4351);fill-opacity:1;stroke:none;stroke-width:1.5;stroke-linecap:round;stroke-linejoin:round;stroke-miterlimit:4;stroke-dasharray:none;stroke-opacity:0.85490196"
       inkscape:connector-curvature="0" />
    <path
       id="path4264"
       d="m 2.7893757,32.345126 c 0.651784,0 1.176726,0.523389 1.176726,1.173244 l 0,14.427028 c 0,0.649856 -0.524942,1.173246 -1.176726,1.173246 l -14.4698227,0 c -0.651783,0 -1.176725,-0.52339 -1.176725,-1.173246 l 0,-14.427028 c 0,-0.649855 0.524942,-1.173244 1.176725,-1.173244 l 14.4698227,0 z"
       style="opacity:1;fill:url(#linearGradient4343);fill-opacity:1;stroke:none;stroke-width:1.5;stroke-linecap:round;stroke-linejoin:round;stroke-miterlimit:4;stroke-dasharray:none;stroke-opacity:0.85490196"
       inkscape:connector-curvature="0" />
    <path
       id="rect4226"
       d="m -16.387349,32.345126 c 0.651783,0 1.176725,0.523389 1.176725,1.173244 l 0,14.427028 c 0,0.649856 -0.524942,1.173246 -1.176725,1.173246 l -14.469823,0 c -0.651783,0 -1.176726,-0.52339 -1.176726,-1.173246 l 0,-14.427028 c 0,-0.649855 0.524943,-1.173244 1.176726,-1.173244 l 14.469823,0 z"
       style="opacity:1;fill:url(#linearGradient4308);fill-opacity:1;stroke:none;stroke-width:1.5;stroke-linecap:round;stroke-linejoin:round;stroke-miterlimit:4;stroke-dasharray:none;stroke-opacity:0.85490196"
       inkscape:connector-curvature="0" />
  </g>
</svg>
