<svg xmlns="http://www.w3.org/2000/svg" viewBox="0 0 48 48"><defs><linearGradient id="0" gradientUnits="userSpaceOnUse" gradientTransform="matrix(1.05233 0 0 1.02761-72.68-8.584)" y1="542.8" x2="0" y2="507.8"><stop stop-color="#566069"/><stop offset="1" stop-color="#6c7884"/></linearGradient><linearGradient id="1" gradientUnits="userSpaceOnUse" gradientTransform="matrix(1.05233 0 0 1.02761-72.68-8.584)" y1="542.8" x2="0" y2="507.8"><stop stop-color="#e4e2e2"/><stop offset="1" stop-color="#fcf9f9"/></linearGradient></defs><g transform="translate(-331.57-497.19)"><g transform="matrix(1.03666 0 0 1.03666-14.801-30.47)"><rect y="513.24" x="334.12" height="34.939" width="46.3" fill="url(#0)" rx="1.644" stroke-width="1"/><g transform="matrix(.94346 0 0 .94346 23.895 27.991)" fill="#fff" fill-opacity=".847"><circle r="2.25" cy="518.74" cx="373.37"/><circle r="2.25" cy="518.78" cx="367.84"/><circle r="2.25" cy="518.84" cx="362.41"/></g></g><g transform="matrix(.80141 0 0 .80141 69.7 101.48)"><rect y="513.24" x="334.12" height="34.939" width="46.3" fill="url(#1)" rx="1.644" stroke-width="1"/><g transform="matrix(.94346 0 0 .94346 23.895 27.991)" fill="#687480" fill-opacity="1"><circle r="2.25" cy="518.74" cx="373.37"/><circle r="2.25" cy="518.78" cx="367.84"/><circle r="2.25" cy="518.84" cx="362.41"/></g></g></g></svg>