<svg xmlns="http://www.w3.org/2000/svg" viewBox="0 0 48 48"><defs><linearGradient gradientUnits="userSpaceOnUse" y2="-23.938" x2="0" y1="24.06" id="0"><stop stop-color="#4da70e"/><stop offset="1" stop-color="#9ded46"/></linearGradient></defs><g transform="matrix(.99999 0 0 .99999-26.931 23.942)" enable-background="new"><rect width="48" height="48" x="26.936" y="-23.938" fill="url(#0)" rx="24"/><path d="m52.16 13.715q-.718.732-1.814.732-1.096 0-1.851-.732-.718-.732-.718-1.756 0-1.024.718-1.756.756-.732 1.851-.732 1.096 0 1.814.732.756.732.756 1.756 0 1.024-.756 1.756m-.038-7.61h-3.552v-1.72q0-1.646.718-2.817.718-1.207 2.532-2.817 1.02-.915 1.436-1.354.453-.476.869-1.28.453-.841.453-1.72 0-1.683-1.134-2.707-1.096-1.024-3.061-1.024-3.249 0-4.459 3.512l-3.249-1.317q.793-2.085 2.72-3.732 1.965-1.683 4.987-1.683 3.438 0 5.592 1.976 2.154 1.939 2.154 4.976 0 1.317-.718 2.671-.718 1.354-1.285 1.939-.529.549-1.511 1.427-.113.11-.189.183-2.305 2.01-2.305 4.02v1.463" fill="#fff" fill-opacity=".851"/></g></svg>