<svg xmlns="http://www.w3.org/2000/svg" viewBox="0 0 48 48"><defs><linearGradient y1="545.8" x2="0" y2="517.8" gradientUnits="userSpaceOnUse"><stop stop-color="#3889e9"/><stop offset="1" stop-color="#5ea5fb"/></linearGradient><linearGradient id="0" y1="653.96" x2="0" y2="301.3" gradientUnits="userSpaceOnUse"><stop stop-color="#0a80fd"/><stop offset="1" stop-color="#56c5fa"/></linearGradient></defs><g transform="matrix(.11136 0 0 .11136 59.899-26.03)"><circle cx="-325.89" cy="478.75" r="173.45" transform="matrix(1.24254 0 0 1.24254 82.65-144.23)" fill="url(#0)"/><path d="m-434.32 548.26c8.476-7.654 17.322-15.6 19.658-17.658 2.336-2.058 4.261-3.953 4.277-4.21.028-.47-24.807-17.18-25.933-17.45-.333-.075-.82.546-1.092 1.403-.606 1.91-8.342 30.844-12.653 47.33-.92 3.517-.934 4.503-.066 4.503.216 0 7.329-6.262 15.805-13.916zm234.66 12.376c4.513-5.917 7.04-18.721 5.966-30.2-1.225-13.06-4.779-22.1-11.592-29.482-5.05-5.478-9.334-6.672-14.227-3.968-7.629 4.216-14.866 8.685-15.942 9.845-3.21 3.459-2.989 9.09.638 16.286 3.668 7.276 7.654 11.431 16.523 17.221 9.151 5.974 12.865 10.542 14.87 18.286.644 2.485 1.306 3.523 2.262 3.544.18.005.856-.686 1.502-1.533m-198.14-53.692c17.31-30.861 39.4-69.15 53.11-92.09 2.992-5 5.439-9.239 5.439-9.416 0-.572-25.755-16.402-26.439-16.251-.688.152-23.715 38.913-40.06 67.44-5.183 9.04-12.885 21.913-17.12 28.602-4.232 6.689-8.334 13.174-9.115 14.411-.82 1.298-1.245 2.418-1 2.649 1.159 1.111 27.14 17.743 27.535 17.624.25-.075 3.693-5.912 7.651-12.968m168.24-10.962c6.689-3.804 12.564-7.293 13.06-7.754.874-.82.841-.929-1.629-5.194-1.387-2.396-4.758-8.25-7.49-13.01-2.733-4.76-5.284-8.716-5.669-8.792-1.021-.2-26.304 14.551-26.477 15.448-.144.746 13.13 24.16 14.609 25.754.424.459.921.752 1.104.649.184-.103 5.807-3.299 12.496-7.102m50.38-24.74c.188-.337.297-7.538.241-16l-.102-15.388-28.452-.121c-24.826-.105-28.433-.038-28.3.567.085.378 4.045 7.632 8.803 16.12l8.652 15.433 1.873.138c1.03.075 9.764.075 19.407 0 13.862-.108 17.606-.265 17.877-.75m-90.01-.659c.075-.234-3.53-7.03-8.02-15.11l-8.16-14.683h-34.693-34.693l-8.192 14.832c-4.505 8.157-8.088 14.998-7.962 15.203.327.528 101.54.288 101.72-.241m-149.02-2.545c.928-1.608 4.76-8.236 8.517-14.73 3.757-6.493 6.83-12.02 6.83-12.283 0-.32-9.585-.437-29.12-.356l-29.12.121-.156 3.274c-.085 1.801-.001 8.589.169 15.09l.326 11.811h20.432 20.432zm171.58-5.964c11.879-6.539 11.694-6.424 11.694-7.26 0-.814-6.259-11.882-27.509-48.64-23.358-40.4-33.645-58.21-40.482-70.09-6.739-11.705-8.333-13.886-11.224-15.361-2.277-1.162-5.916-1.342-8.27-.41-2.242.888-10.141 5.488-12.231 7.122-3.35 2.621-4.62 7.803-2.914 11.888.921 2.204.295 1.105 22.391 39.25 34.786 60.06 52.667 90.34 53.773 91.08.273.183 1.551-.262 2.84-.986 1.288-.725 6.658-3.693 11.932-6.596m-85.92-69.11c5.539-9.242 6.351-10.86 6.69-13.335.705-5.141-2-8.587-10.55-13.435-4.847-2.748-5.635-3.046-8.476-3.207-3.884-.219-5.801.597-8.474 3.608-2 2.255-9.75 16.04-9.736 17.328.005.458 4.827 3.692 12.747 8.55 7.01 4.297 12.884 7.823 13.06 7.835.178.008 2.31-3.292 4.738-7.344" fill="#fff" fill-opacity=".852"/></g></svg>