<svg xmlns="http://www.w3.org/2000/svg" viewBox="0 0 22 22"><defs><clipPath><path d="m489.22 197.28c-2.603 0-3.953-1.367-3.953-3.971v-1.034c0-2.604 1.35-3.971 3.953-3.971h1.035c2.62 0 3.97 1.367 3.97 3.971v1.034c0 2.604-1.35 3.971-3.97 3.971h-1.035"/></clipPath><linearGradient gradientUnits="userSpaceOnUse" x1="404.33" x2="412.17"><stop/><stop offset="1" stop-opacity="0"/></linearGradient><linearGradient id="0" gradientUnits="userSpaceOnUse" x1="3.365" y1="1046.22" x2="36.07" y2="1007.72"><stop stop-color="#235ea2"/><stop offset="1" stop-color="#1992f1"/></linearGradient></defs><g transform="matrix(.72072 0 0 .72728 28.654-8.782)" stroke="#1f2a47"><path transform="matrix(1.38749 0 0 1.37499-39.762 12.03)" d="M10.927734 3.01367A7.927914 7.999981 0 0 0 3 11.01367a7.927914 7.999981 0 0 0 7.927734 8 7.927914 7.999981 0 0 0 7.927735 -8 7.927914 7.999981 0 0 0 -7.927735 -8m.859 3.516v1.201c-1.531 0-2.962.595-4.03 1.674-1.061 1.073-1.642 2.506-1.641 4.04.005 2.802 1.676 4.883 4.229 5.32C9.897 18.642 9.47 18.436 9.1 18.11 6.62 16.385 5.86 13.303 7.291 10.779 7.972 9.578 9.103 8.711 10.473 8.338 11.868 7.958 13.315 8.145 14.549 8.863L13.953 9.904C12.996 9.347 11.87 9.203 10.781 9.5 9.72 9.788 8.85 10.456 8.326 11.377c-1.117 1.969-.509 4.381 1.447 5.738 2.419 1.677 4.127 1.192 4.861.834-.845.147-1.511.177-3.354-.502-1.576-.579-2.294-1.67-2.48-1.994-.002-.002-.02-.034-.027-.049-.005-.009-.014-.02-.014-.02h.002c-.004-.007-.014-.026-.014-.027l.004-.004C8.453 14.793 8.303 14.187 8.303 13.586c0-1.295.667-2.557 1.855-3.25.859-.499 1.859-.632 2.816-.373.957.261 1.757.879 2.252 1.746l.02.035-1.051.564c-.337-.588-.88-1.01-1.529-1.186-.651-.176-1.331-.084-1.914.254-.807.472-1.258 1.328-1.258 2.207 0 .431.11.868.338 1.268 0 .002.002.006.002.006.095.172.615 1 1.855 1.461 2.06.758 3.508.672 4.529.561 0 0-.521.499-1.492 1.059-.005.0001-.001.0001-.016.002-.691.423-2.034.951-3.373.936l-.016.014C7.8 19.07 4.933 17.308 4.928 13.443 4.924 11.591 5.63 9.856 6.916 8.555 8.209 7.248 9.937 6.529 11.787 6.529M11.338 18.875l.027-.023c-.354 0-.693-.034-1.02-.09.322.086.657.109.992.113zm3.373-.936c.128-.078.248-.156.326-.221-.016.004-.151.109-.395.229.023-.004.045-.004.068-.008" fill="#4d4d4d" stroke-width="1.3" stroke="none"/><ellipse cy="27.14" cx="-24.492" rx="10.846" ry="10.746" fill="none" stroke="#4d4d4d" stroke-width=".507"/></g></svg>