<?xml version="1.0" encoding="UTF-8" standalone="no"?>
<!-- Created with Inkscape (http://www.inkscape.org/) -->

<svg
   xmlns:dc="http://purl.org/dc/elements/1.1/"
   xmlns:cc="http://creativecommons.org/ns#"
   xmlns:rdf="http://www.w3.org/1999/02/22-rdf-syntax-ns#"
   xmlns:svg="http://www.w3.org/2000/svg"
   xmlns="http://www.w3.org/2000/svg"
   xmlns:sodipodi="http://sodipodi.sourceforge.net/DTD/sodipodi-0.dtd"
   xmlns:inkscape="http://www.inkscape.org/namespaces/inkscape"
   width="22"
   height="22"
   id="svg2"
   version="1.1"
   inkscape:version="0.91 r13725"
   viewBox="0 0 22 22"
   sodipodi:docname="script-error.svg">
  <defs
     id="defs4" />
  <sodipodi:namedview
     id="base"
     pagecolor="#ffffff"
     bordercolor="#666666"
     borderopacity="1.0"
     inkscape:pageopacity="0.0"
     inkscape:pageshadow="2"
     inkscape:zoom="22.4"
     inkscape:cx="-9.2274308"
     inkscape:cy="10.497693"
     inkscape:document-units="px"
     inkscape:current-layer="layer1"
     showgrid="true"
     inkscape:showpageshadow="false"
     units="px"
     inkscape:window-width="1366"
     inkscape:window-height="633"
     inkscape:window-x="0"
     inkscape:window-y="33"
     inkscape:window-maximized="1">
    <inkscape:grid
       type="xygrid"
       id="grid4101" />
    <sodipodi:guide
       position="2,20.000017"
       orientation="18,0"
       id="guide4107" />
    <sodipodi:guide
       position="20,2.0000174"
       orientation="-18,0"
       id="guide4111" />
    <sodipodi:guide
       position="20,20.000017"
       orientation="0,-18"
       id="guide4113" />
    <sodipodi:guide
       position="3,19.000017"
       orientation="16,0"
       id="guide4115" />
    <sodipodi:guide
       position="3,3.0000174"
       orientation="0,16"
       id="guide4117" />
    <sodipodi:guide
       position="19,3.0000174"
       orientation="-16,0"
       id="guide4119" />
    <sodipodi:guide
       position="19,19.000017"
       orientation="0,-16"
       id="guide4121" />
  </sodipodi:namedview>
  <metadata
     id="metadata7">
    <rdf:RDF>
      <cc:Work
         rdf:about="">
        <dc:format>image/svg+xml</dc:format>
        <dc:type
           rdf:resource="http://purl.org/dc/dcmitype/StillImage" />
        <dc:title />
      </cc:Work>
    </rdf:RDF>
  </metadata>
  <g
     inkscape:label="Capa 1"
     inkscape:groupmode="layer"
     id="layer1"
     transform="translate(0,-1030.3622)">
    <path
       style="opacity:1;fill:#ffffff;fill-opacity:1;fill-rule:evenodd;stroke:none;stroke-width:0.6849122;stroke-linecap:round;stroke-linejoin:miter;stroke-miterlimit:4;stroke-dasharray:none;stroke-dashoffset:0;stroke-opacity:1"
       d="m 11.00102,1033.3622 a 8.0003316,8.0003066 0 0 0 -8.0010201,8.001 8.0003316,8.0003066 0 0 0 8.0010201,7.999 8.0003316,8.0003066 0 0 0 7.99898,-7.999 8.0003316,8.0003066 0 0 0 -7.99898,-8.001 z m -2.7833184,3.9382 c 0.6743893,0 1.2202524,0.5477 1.2202524,1.2224 0,0.675 -0.5458631,1.2202 -1.2202524,1.2202 -0.6745858,0 -1.2222931,-0.5452 -1.2222931,-1.2202 0,-0.6746 0.5477073,-1.2224 1.2222931,-1.2224 z m 5.5401094,0 c 0.674388,0 1.220253,0.5477 1.220252,1.2224 0,0.675 -0.545666,1.2202 -1.220252,1.2202 -0.674586,0 -1.222293,-0.5452 -1.222293,-1.2202 0,-0.6746 0.547707,-1.2224 1.222293,-1.2224 z m -2.758832,4.6567 c 1.986718,0 3.758614,1.1303 4.51575,2.8812 0.129637,0.2995 -0.0066,0.6475 -0.306083,0.7773 -0.299464,0.1299 -0.647814,-0.011 -0.777452,-0.308 -0.569772,-1.318 -1.917156,-2.1692 -3.432215,-2.1692 -1.5501298,0 -2.9055043,0.8499 -3.4526205,2.1672 -0.094371,0.2276 -0.3151767,0.3653 -0.5468689,0.3653 -0.075654,0 -0.1524279,-0.015 -0.2265017,-0.045 -0.3016361,-0.1252 -0.4436295,-0.4721 -0.3183267,-0.7733 0.730933,-1.7598 2.5148468,-2.8955 4.5443178,-2.8955 z"
       id="path4143"
       inkscape:connector-curvature="0" />
    <g
       id="g4175"
       transform="translate(0,-0.70075)" />
  </g>
</svg>
