<?xml version="1.0" encoding="UTF-8" standalone="no"?>
<!-- Created with Inkscape (http://www.inkscape.org/) -->

<svg
   xmlns:dc="http://purl.org/dc/elements/1.1/"
   xmlns:cc="http://creativecommons.org/ns#"
   xmlns:rdf="http://www.w3.org/1999/02/22-rdf-syntax-ns#"
   xmlns:svg="http://www.w3.org/2000/svg"
   xmlns="http://www.w3.org/2000/svg"
   xmlns:sodipodi="http://sodipodi.sourceforge.net/DTD/sodipodi-0.dtd"
   xmlns:inkscape="http://www.inkscape.org/namespaces/inkscape"
   width="16"
   height="16"
   id="svg2"
   version="1.1"
   inkscape:version="0.91 r13725"
   viewBox="0 0 16 16"
   sodipodi:docname="folder-vbox.svg">
  <defs
     id="defs4" />
  <sodipodi:namedview
     id="base"
     pagecolor="#7f7f7f"
     bordercolor="#666666"
     borderopacity="1.0"
     inkscape:pageopacity="0"
     inkscape:pageshadow="2"
     inkscape:zoom="15.84"
     inkscape:cx="-14.433081"
     inkscape:cy="7.256193"
     inkscape:document-units="px"
     inkscape:current-layer="layer1-4"
     showgrid="true"
     inkscape:showpageshadow="false"
     borderlayer="true"
     units="px"
     inkscape:window-width="1366"
     inkscape:window-height="687"
     inkscape:window-x="0"
     inkscape:window-y="0"
     inkscape:window-maximized="1"
     inkscape:snap-global="true"
     inkscape:snap-bbox="true">
    <inkscape:grid
       type="xygrid"
       id="grid4062" />
    <sodipodi:guide
       position="2,2.0000174"
       orientation="0,12"
       id="guide4068" />
    <sodipodi:guide
       position="12,8"
       orientation="-12,0"
       id="guide4070" />
    <sodipodi:guide
       position="14,14.000017"
       orientation="0,-12"
       id="guide4072" />
  </sodipodi:namedview>
  <metadata
     id="metadata7">
    <rdf:RDF>
      <cc:Work
         rdf:about="">
        <dc:format>image/svg+xml</dc:format>
        <dc:type
           rdf:resource="http://purl.org/dc/dcmitype/StillImage" />
        <dc:title />
      </cc:Work>
    </rdf:RDF>
  </metadata>
  <g
     inkscape:label="Capa 1"
     inkscape:groupmode="layer"
     id="layer1"
     transform="translate(0,-1036.3622)">
    <g
       transform="matrix(0.90537551,0,0,0.90537551,-365.91682,562.06022)"
       id="layer1-0"
       inkscape:label="Capa 1"
       style="fill:none;fill-opacity:1;stroke:#4f96d1;stroke-opacity:1" />
    <g
       transform="translate(-401.01229,510.63371)"
       id="layer1-00"
       inkscape:label="Capa 1">
      <g
         transform="translate(5.05585,-5.251147)"
         id="layer1-4"
         inkscape:label="Capa 1">
        <path
           inkscape:connector-curvature="0"
           style="opacity:1;fill:#ffffff;fill-opacity:1;stroke:none;stroke-width:5.23831511;stroke-linecap:butt;stroke-linejoin:miter;stroke-miterlimit:4;stroke-dasharray:none;stroke-dashoffset:0;stroke-opacity:1"
           d="m 403.956,532.97964 a 6.0001275,6.0001275 0 0 0 -5.99956,6.00044 6.0001275,6.0001275 0 0 0 5.99956,5.99956 6.0001275,6.0001275 0 0 0 6.00044,-5.99956 6.0001275,6.0001275 0 0 0 -6.00044,-6.00044 z m 1.51448,2.67189 c 0.0221,10e-4 0.0482,0.0113 0.0688,0.0174 0.10569,0.0303 0.19541,0.12097 0.22556,0.2273 l 1.09297,3.98085 0.57305,-0.77684 c 0.0584,-0.0864 0.14699,-0.14612 0.25081,-0.14892 l 0.425,0 0.19159,0 0.0165,0 c 0.0126,0 0.0261,0.0136 0.0261,0.0261 l 0,0.61136 c 0,0.0125 -0.0127,0.0174 -0.0252,0.0174 l -0.0174,0 -0.19159,0 -0.25953,0 -0.84128,1.16961 c -0.14398,0.18959 -0.50312,0.12351 -0.57305,-0.1045 l -0.99716,-3.54453 -0.6854,2.26083 c -0.042,0.12847 -0.17749,0.21579 -0.31178,0.2186 l -0.47724,0 -0.0958,0 -0.23428,0 -0.0862,0 -0.24298,0 -0.92836,3.0725 c -0.0465,0.16659 -0.24288,0.27694 -0.40759,0.2273 -0.10569,-0.0304 -0.19541,-0.12094 -0.22555,-0.2273 l -1.10168,-3.98868 -0.56347,0.77683 c -0.0584,0.0865 -0.15658,0.13655 -0.2604,0.13935 l -0.41628,0 -0.20814,0 -0.0261,0 c -0.0125,10e-6 -0.0174,-0.005 -0.0174,-0.0174 l 0,-0.61137 c 0,-0.0126 0.005,-0.0262 0.0174,-0.0261 l 0.0261,0 0.20814,0 0.26039,0 0.84128,-1.15218 c 0.14399,-0.18954 0.50226,-0.1234 0.57218,0.1045 l 0.98934,3.54453 0.69322,-2.26955 c 0.042,-0.12847 0.16965,-0.2245 0.30395,-0.2273 l 0.48595,0 0.0862,0 0.23428,0 0.0958,0 0.23427,0 0.9362,-3.05509 c 0.0349,-0.12494 0.15138,-0.21868 0.27782,-0.23601 0.0211,-0.003 0.0389,-0.009 0.061,-0.009 z"
           id="path3340" />
      </g>
    </g>
  </g>
</svg>
