<?xml version="1.0" encoding="UTF-8" standalone="no"?>
<svg
   xmlns:dc="http://purl.org/dc/elements/1.1/"
   xmlns:cc="http://creativecommons.org/ns#"
   xmlns:rdf="http://www.w3.org/1999/02/22-rdf-syntax-ns#"
   xmlns:svg="http://www.w3.org/2000/svg"
   xmlns="http://www.w3.org/2000/svg"
   xmlns:sodipodi="http://sodipodi.sourceforge.net/DTD/sodipodi-0.dtd"
   xmlns:inkscape="http://www.inkscape.org/namespaces/inkscape"
   viewBox="0 0 16 16"
   id="svg2"
   version="1.1"
   inkscape:version="0.91 r13725"
   sodipodi:docname="user-desktop.svg">
  <metadata
     id="metadata16">
    <rdf:RDF>
      <cc:Work
         rdf:about="">
        <dc:format>image/svg+xml</dc:format>
        <dc:type
           rdf:resource="http://purl.org/dc/dcmitype/StillImage" />
        <dc:title></dc:title>
      </cc:Work>
    </rdf:RDF>
  </metadata>
  <defs
     id="defs14" />
  <sodipodi:namedview
     pagecolor="#ffffff"
     bordercolor="#666666"
     borderopacity="1"
     objecttolerance="10"
     gridtolerance="10"
     guidetolerance="10"
     inkscape:pageopacity="0"
     inkscape:pageshadow="2"
     inkscape:window-width="804"
     inkscape:window-height="480"
     id="namedview12"
     showgrid="false"
     inkscape:zoom="14.75"
     inkscape:cx="8"
     inkscape:cy="8"
     inkscape:window-x="0"
     inkscape:window-y="0"
     inkscape:window-maximized="0"
     inkscape:current-layer="svg2" />
  <g
     transform="matrix(.5 0 0 .5-167.5-257.65)"
     fill="#fff"
     fill-rule="evenodd"
     id="g4">
    <path
       d="m363.98 540.15c-3.974-3.795-11.971-10.05-18.05-8.134-3.398 1.072-5.04 4.17-1.173 4.239 7.898.142 11.77-.416 19.224 3.895"
       id="path6" />
    <path
       d="m342.16 536.15c1.285-5.337 4.619-14.919 10.773-16.589 3.438-.934 6.503.782 3.284 2.932-6.565 4.385-10.124 6.01-14.06 13.657"
       id="path8" />
    <path
       d="m345.48 543.3c-3.523-4.215-9.234-12.604-6.903-18.53 1.302-3.311 4.51-4.741 4.317-.88-.394 7.875-1.216 11.693 2.586 19.409"
       id="path10" />
  </g>
</svg>
