<?xml version="1.0" encoding="UTF-8" standalone="no"?>
<!-- Created with Inkscape (http://www.inkscape.org/) -->

<svg
   xmlns:dc="http://purl.org/dc/elements/1.1/"
   xmlns:cc="http://creativecommons.org/ns#"
   xmlns:rdf="http://www.w3.org/1999/02/22-rdf-syntax-ns#"
   xmlns:svg="http://www.w3.org/2000/svg"
   xmlns="http://www.w3.org/2000/svg"
   xmlns:sodipodi="http://sodipodi.sourceforge.net/DTD/sodipodi-0.dtd"
   xmlns:inkscape="http://www.inkscape.org/namespaces/inkscape"
   width="10"
   height="10"
   id="svg3795"
   version="1.1"
   inkscape:version="0.91 r13725"
   sodipodi:docname="close_hover.svg">
  <defs
     id="defs3797" />
  <sodipodi:namedview
     id="base"
     pagecolor="#808080"
     bordercolor="#ffffff"
     borderopacity="0.0"
     inkscape:pageopacity="0.50196078"
     inkscape:pageshadow="0"
     inkscape:zoom="28.963094"
     inkscape:cx="-4.6247834"
     inkscape:cy="5.0682505"
     inkscape:document-units="px"
     inkscape:current-layer="svg3795"
     showgrid="false"
     inkscape:window-width="1366"
     inkscape:window-height="687"
     inkscape:window-x="0"
     inkscape:window-y="0"
     inkscape:window-maximized="1"
     borderlayer="true"
     showborder="true">
    <inkscape:grid
       type="xygrid"
       id="grid3556"
       empspacing="5"
       visible="true"
       enabled="true"
       snapvisiblegridlinesonly="true" />
  </sodipodi:namedview>
  <metadata
     id="metadata3800">
    <rdf:RDF>
      <cc:Work
         rdf:about="">
        <dc:format>image/svg+xml</dc:format>
        <dc:type
           rdf:resource="http://purl.org/dc/dcmitype/StillImage" />
        <dc:title />
      </cc:Work>
    </rdf:RDF>
  </metadata>
  <g
     transform="matrix(0.37650163,0,0,0.37650163,-9.6835638,2.3644884)"
     id="g4189">
    <g
       transform="translate(-63.999847,-85.927008)"
       id="g4209-2-9">
      <path
         inkscape:connector-curvature="0"
         style="color:#000000;clip-rule:nonzero;display:inline;overflow:visible;visibility:visible;opacity:1;isolation:auto;mix-blend-mode:normal;color-interpolation:sRGB;color-interpolation-filters:linearRGB;solid-color:#000000;solid-opacity:1;fill:#ff6a64;fill-opacity:1;fill-rule:nonzero;stroke:#ff6a64;stroke-width:1.78491569;stroke-linecap:butt;stroke-linejoin:bevel;stroke-miterlimit:4;stroke-dasharray:none;stroke-dashoffset:0;stroke-opacity:1;color-rendering:auto;image-rendering:auto;shape-rendering:auto;text-rendering:auto;enable-background:accumulate"
         d="M 114.25356,92.92701 A 11.253713,11.059683 0 0 1 102.99985,103.98669 11.253713,11.059683 0 0 1 91.746135,92.92701 11.253713,11.059683 0 0 1 102.99985,81.867327 11.253713,11.059683 0 0 1 114.25356,92.92701 Z"
         id="path4136-8-89-3-0" />
    </g>
    <path
       inkscape:connector-curvature="0"
       id="path7-71-2"
       d="m 35.091844,2.7211495 c -0.09488,0 -0.188721,0.036749 -0.261076,0.1091386 -0.144769,0.1447694 -0.144769,0.3795188 0,0.5242893 l 2.794783,2.7947864 c 0.07232,0.072357 0.166168,0.1091385 0.261085,0.1091385 0.09488,0 0.190798,-0.036781 0.263211,-0.1091385 0.144768,-0.1447704 0.144768,-0.3795187 0,-0.5242892 L 35.355058,2.8302882 c -0.07238,-0.07239 -0.16833,-0.1091386 -0.263214,-0.1091386 z m 7.815135,0 c -0.09488,0 -0.190864,0.036749 -0.263221,0.1091386 l -7.81299,7.8151299 c -0.144769,0.144771 -0.144769,0.379521 0,0.52429 0.07236,0.07235 0.166169,0.109139 0.261076,0.109139 0.09491,0 0.190798,-0.03678 0.263214,-0.109139 l 7.812995,-7.8151306 c 0.144769,-0.1448319 0.144769,-0.3794574 0,-0.5242893 -0.07243,-0.07239 -0.16619,-0.1091386 -0.261074,-0.1091386 z m -2.923186,4.958286 c -0.09488,0.00102 -0.189494,0.03815 -0.261074,0.1112778 -0.143224,0.1463154 -0.139838,0.3810648 0.0066,0.5242905 L 42.64822,11.17185 c 0.07221,0.07063 0.16539,0.107 0.258937,0.107 0.0962,0 0.192749,-0.03713 0.265347,-0.111276 0.143224,-0.146314 0.13984,-0.381063 -0.0066,-0.524289 L 40.247003,7.7864375 c -0.07319,-0.071645 -0.168347,-0.1080207 -0.26321,-0.1070018 z"
       style="fill:#ffffff;fill-opacity:1;stroke:#ffffff;stroke-width:1.44200003;stroke-linecap:round;stroke-linejoin:round;stroke-miterlimit:4;stroke-dasharray:none;stroke-opacity:1" />
  </g>
</svg>
