<?xml version="1.0" encoding="UTF-8" standalone="no"?>
<!-- Created with Inkscape (http://www.inkscape.org/) -->

<svg
   xmlns:dc="http://purl.org/dc/elements/1.1/"
   xmlns:cc="http://creativecommons.org/ns#"
   xmlns:rdf="http://www.w3.org/1999/02/22-rdf-syntax-ns#"
   xmlns:svg="http://www.w3.org/2000/svg"
   xmlns="http://www.w3.org/2000/svg"
   xmlns:sodipodi="http://sodipodi.sourceforge.net/DTD/sodipodi-0.dtd"
   xmlns:inkscape="http://www.inkscape.org/namespaces/inkscape"
   width="10"
   height="10"
   id="svg3795"
   version="1.1"
   inkscape:version="0.91 r13725"
   sodipodi:docname="close_disable.svg">
  <defs
     id="defs3797" />
  <sodipodi:namedview
     id="base"
     pagecolor="#808080"
     bordercolor="#ffffff"
     borderopacity="0.0"
     inkscape:pageopacity="0.50196078"
     inkscape:pageshadow="0"
     inkscape:zoom="28.963094"
     inkscape:cx="-4.8937493"
     inkscape:cy="5.0682505"
     inkscape:document-units="px"
     inkscape:current-layer="svg3795"
     showgrid="false"
     inkscape:window-width="1366"
     inkscape:window-height="684"
     inkscape:window-x="0"
     inkscape:window-y="0"
     inkscape:window-maximized="1"
     borderlayer="true"
     showborder="true">
    <inkscape:grid
       type="xygrid"
       id="grid3556"
       empspacing="5"
       visible="true"
       enabled="true"
       snapvisiblegridlinesonly="true" />
  </sodipodi:namedview>
  <metadata
     id="metadata3800">
    <rdf:RDF>
      <cc:Work
         rdf:about="">
        <dc:format>image/svg+xml</dc:format>
        <dc:type
           rdf:resource="http://purl.org/dc/dcmitype/StillImage" />
        <dc:title />
      </cc:Work>
    </rdf:RDF>
  </metadata>
  <g
     transform="matrix(0.37650603,0,0,0.37650603,-33.738875,-19.449912)"
     id="g4213">
    <path
       inkscape:connector-curvature="0"
       id="path4136-89"
       d="M 114.04368,64.938966 A 11.153227,10.96093 0 0 1 102.89045,75.899895 11.153227,10.96093 0 0 1 91.737221,64.938966 11.153227,10.96093 0 0 1 102.89045,53.978037 11.153227,10.96093 0 0 1 114.04368,64.938966 Z"
       style="color:#000000;clip-rule:nonzero;display:inline;overflow:visible;visibility:visible;opacity:1;isolation:auto;mix-blend-mode:normal;color-interpolation:sRGB;color-interpolation-filters:linearRGB;solid-color:#000000;solid-opacity:1;fill:none;fill-opacity:1;fill-rule:nonzero;stroke:#ffffff;stroke-width:1.98214173;stroke-linecap:butt;stroke-linejoin:bevel;stroke-miterlimit:4;stroke-dasharray:none;stroke-dashoffset:0;stroke-opacity:0;color-rendering:auto;image-rendering:auto;shape-rendering:auto;text-rendering:auto;enable-background:accumulate" />
    <g
       id="g3"
       transform="matrix(0.06345829,0,0,0.06345829,94.278428,54.840952)"
       style="fill:#ffffff;fill-opacity:1;stroke:#ffffff;stroke-width:23.34250641;stroke-miterlimit:4;stroke-dasharray:none;stroke-opacity:1">
      <path
         inkscape:connector-curvature="0"
         id="path7"
         d="m 75.849599,90.003696 c -1.495219,0 -2.973932,0.579096 -4.114132,1.719848 -2.281332,2.281328 -2.281332,5.980605 0,8.26195 L 115.77673,144.0268 c 1.13954,1.14024 2.61853,1.71986 4.11426,1.71986 1.49523,0 3.00667,-0.57962 4.14777,-1.71986 2.28133,-2.28134 2.28133,-5.9806 0,-8.26194 L 79.997436,91.723544 c -1.14058,-1.140752 -2.652617,-1.719848 -4.147837,-1.719848 z m 123.153881,0 c -1.49522,0 -3.00771,0.579096 -4.14794,1.719848 L 71.735467,214.87736 c -2.281332,2.28134 -2.281332,5.98061 0,8.26197 1.140235,1.14023 2.61855,1.71984 4.114132,1.71984 1.495566,0 3.00667,-0.57961 4.147837,-1.71984 L 203.11758,99.985494 c 2.28132,-2.282311 2.28132,-5.979633 0,-8.26195 -1.14128,-1.140752 -2.61889,-1.719848 -4.1141,-1.719848 z M 152.9388,168.13826 c -1.49522,0.0161 -2.98612,0.6012 -4.1141,1.75355 -2.25698,2.30569 -2.20363,6.00496 0.10356,8.26197 l 45.99717,45.01927 c 1.13781,1.11295 2.60626,1.68618 4.08042,1.68618 1.51594,0 3.0374,-0.58515 4.18143,-1.75357 2.25699,-2.30568 2.20365,-6.00496 -0.10355,-8.26196 l -45.99717,-45.01926 c -1.15336,-1.12901 -2.65289,-1.70224 -4.14777,-1.68618 z"
         style="fill:#ffffff;fill-opacity:0;stroke:#ffffff;stroke-width:22.72358704;stroke-linecap:round;stroke-linejoin:round;stroke-miterlimit:4;stroke-dasharray:none;stroke-opacity:0" />
    </g>
  </g>
</svg>
