<svg xmlns="http://www.w3.org/2000/svg" xmlns:xlink="http://www.w3.org/1999/xlink" viewBox="0 0 64 64"><defs><linearGradient xlink:href="#1" id="3" x1="68.75" y1="52.05" x2="68.4" y2="36.922" gradientUnits="userSpaceOnUse"/><linearGradient gradientUnits="userSpaceOnUse" y2="354.29" x2="-704.05" y1="647.77" x1="-701.19" id="2"><stop stop-color="#93cfff"/><stop offset="1" stop-color="#cde8fe"/></linearGradient><linearGradient xlink:href="#1" id="0" x1="59.12" y1="-13.295" x2="59.15" y2="-37.783" gradientUnits="userSpaceOnUse" gradientTransform="matrix(4.17478 0 0 4.16765-1066.12 447.73)"/><linearGradient id="1"><stop stop-color="#289bf7"/><stop offset="1" stop-color="#71b9f1"/></linearGradient></defs><g transform="matrix(.42857 0 0 .42857-297.51-45.25)" fill="#da4453"><path d="m-880.52 294.78c-4.626 0-8.349 3.718-8.349 8.335v161.41l461.02 1v-121.2c0-4.618-3.724-8.335-8.35-8.335h-265.48c-8.51.751-9.607-.377-13.812-5.981-5.964-7.968-14.969-21.443-20.84-29.21-4.712-6.805-5.477-6.02-13.292-6.02z" transform="matrix(.29432 0 0 .29432 962.63 40.738)" fill="url(#0)" color="#000"/><rect y="356.85" x="-890.28" height="295.13" width="463.85" transform="matrix(.29432 0 0 .29432 962.63 40.738)" fill="url(#2)" stroke="url(#2)" stroke-width="2.378" rx="9.63"/><path transform="matrix(3.5 0 0 3.5 529.43 33.849)" d="m68.39 36.596c-.424 0-.806.254-1.02.635l-7.264 13.715c-.171.339-.171.804.039 1.143.21.339.549.508.973.508h14.578c.424 0 .806-.212.977-.551.213-.339.215-.762.047-1.143l-7.316-13.715c-.21-.381-.59-.592-1.014-.592m.021 5.414c.357 0 .643.287.643.641v3.852c0 .349-.287.641-.643.641-.357 0-.641-.287-.641-.641v-3.852c0-.349.286-.641.641-.641m0 6.416c.355 0 .643.288.643.643 0 .355-.288.641-.643.641-.355 0-.641-.286-.641-.641 0-.355.286-.643.641-.643" fill="url(#3)"/></g></svg>