<svg xmlns="http://www.w3.org/2000/svg" xmlns:xlink="http://www.w3.org/1999/xlink" viewBox="0 0 64 64"><defs><linearGradient gradientUnits="userSpaceOnUse" y2="354.29" x2="-704.05" y1="647.77" x1="-701.19" id="3"><stop stop-color="#93cfff"/><stop offset="1" stop-color="#cde8fe"/></linearGradient><linearGradient xlink:href="#2" id="4" x1="-567.62" y1="933.36" x2="-568.21" y2="735.34" gradientUnits="userSpaceOnUse"/><linearGradient id="2"><stop stop-color="#289bf7"/><stop offset="1" stop-color="#71b9f1"/></linearGradient><linearGradient id="0" x1="407.55" x2="433.49" gradientUnits="userSpaceOnUse"><stop/><stop offset="1" stop-opacity="0"/></linearGradient><linearGradient xlink:href="#2" id="1" x1="59.12" y1="-13.295" x2="59.15" y2="-37.783" gradientUnits="userSpaceOnUse" gradientTransform="matrix(4.17478 0 0 4.16765-1066.12 447.73)"/></defs><g transform="matrix(.11983 0 0 .11862 99.68-63.13)" fill="url(#0)" stroke="#32dc79" stroke-width=".14"><path d="m-880.52 294.78c-4.626 0-8.349 3.718-8.349 8.335v161.41l461.02 1v-121.2c0-4.618-3.724-8.335-8.35-8.335h-265.48c-8.51.751-9.607-.377-13.812-5.981-5.964-7.968-14.969-21.443-20.84-29.21-4.712-6.805-5.477-6.02-13.292-6.02z" transform="matrix(1.05266 0 0 1.06341 128.23 297.93)" fill="url(#1)" stroke="none" color="#000"/><rect y="356.85" x="-890.28" height="295.13" width="463.85" transform="matrix(1.05266 0 0 1.06341 128.23 297.93)" fill="url(#3)" stroke="url(#3)" stroke-width="2.378" rx="9.63"/><path d="m-566.2 737.1c-1.926-.005-3.845.742-5.325 2.23l-92.85 93.29c-2.96 2.974-2.962 7.786-.018 10.776l92.34 93.78c2.944 2.99 7.708 3.01 10.667.035l92.84-93.31c2.96-2.974 2.979-7.769.035-10.759l-92.36-93.78c-1.472-1.495-3.399-2.26-5.325-2.265m-16.15 52.06c.798-.004 1.604.084 2.417.248 6.504 1.307 10.735 7.674 9.441 14.244-1.293 6.57-7.613 10.844-14.12 9.538-6.501-1.307-10.733-7.692-9.441-14.262 1.131-5.749 6.117-9.737 11.701-9.768m15.256 23.694c.775.016 1.54.12 2.277.301l16.518 3.061c.487.09.956.241 1.401.46l12.03 5.892c2.723 1.335 3.861 4.646 2.54 7.396-.948 1.973-2.906 3.132-4.94 3.132-.802 0-1.611-.188-2.382-.566l-11.368-5.574-5.03-.92 3.871 18.42c.078.37.137.747.175 1.115l7.02 18.244 14.801 12.528c2.761 2.339 3.122 6.501.806 9.29-1.291 1.555-3.147 2.353-5.01 2.353-1.479 0-2.964-.504-4.186-1.539l-16.08-13.625c-.841-.712-1.494-1.62-1.892-2.654l-5.01-13.02c-.109.009-.224.013-.333.018l-9.827 8.706-2.803 18.597c-.492 3.262-3.276 5.609-6.446 5.609-.327 0-.665-.019-.998-.071-3.562-.549-6.01-3.922-5.465-7.52l3.17-20.986c.232-1.538.996-2.939 2.154-3.964l9.546-8.458c-.019-.08-.036-.149-.053-.23l-3.713-17.677-4.957 3.911c-.519.409-1.106.722-1.734.92l-14.1 4.459c-.545.173-1.087.248-1.629.248-2.332 0-4.503-1.508-5.237-3.875-.905-2.918.702-6.02 3.591-6.936l13.155-4.158 13.155-10.387c.109-.086.219-.154.333-.23 1.218-.972 2.67-1.705 4.291-2.053.791-.17 1.572-.228 2.347-.212" fill="url(#4)" stroke="none"/></g></svg>