<?xml version="1.0" encoding="UTF-8" standalone="no"?>
<!-- Created with Inkscape (http://www.inkscape.org/) -->

<svg
   xmlns:osb="http://www.openswatchbook.org/uri/2009/osb"
   xmlns:dc="http://purl.org/dc/elements/1.1/"
   xmlns:cc="http://creativecommons.org/ns#"
   xmlns:rdf="http://www.w3.org/1999/02/22-rdf-syntax-ns#"
   xmlns:svg="http://www.w3.org/2000/svg"
   xmlns="http://www.w3.org/2000/svg"
   xmlns:xlink="http://www.w3.org/1999/xlink"
   xmlns:sodipodi="http://sodipodi.sourceforge.net/DTD/sodipodi-0.dtd"
   xmlns:inkscape="http://www.inkscape.org/namespaces/inkscape"
   width="64"
   height="64"
   id="svg5453"
   version="1.1"
   inkscape:version="0.91 r13725"
   sodipodi:docname="folder-picture.svg">
  <defs
     id="defs5455">
    <linearGradient
       osb:paint="gradient"
       id="linearGradient4207">
      <stop
         id="stop3371"
         offset="0"
         style="stop-color:#3498db;stop-opacity:1;" />
      <stop
         id="stop3373"
         offset="1"
         style="stop-color:#3498db;stop-opacity:0;" />
    </linearGradient>
    <linearGradient
       inkscape:collect="always"
       xlink:href="#linearGradient4193"
       id="linearGradient4534"
       x1="59.12455"
       y1="-13.294993"
       x2="59.148849"
       y2="-37.783325"
       gradientUnits="userSpaceOnUse"
       gradientTransform="matrix(4.1747839,0,0,4.1676538,-1066.1155,447.73055)" />
    <linearGradient
       inkscape:collect="always"
       id="linearGradient4193">
      <stop
         style="stop-color:#289bf7;stop-opacity:1"
         offset="0"
         id="stop4195" />
      <stop
         style="stop-color:#71b9f1;stop-opacity:1"
         offset="1"
         id="stop4197" />
    </linearGradient>
    <linearGradient
       gradientTransform="matrix(7.9277484,0,0,7.9277484,-1273.2754,-154.3544)"
       gradientUnits="userSpaceOnUse"
       y2="64.160583"
       x2="71.801933"
       y1="101.17968"
       x1="72.161911"
       id="linearGradient4284-7-0"
       xlink:href="#linearGradient4472"
       inkscape:collect="always" />
    <linearGradient
       id="linearGradient4472"
       inkscape:collect="always">
      <stop
         id="stop4474"
         offset="0"
         style="stop-color:#93cfff;stop-opacity:1" />
      <stop
         id="stop4476"
         offset="1"
         style="stop-color:#cde8fe;stop-opacity:1" />
    </linearGradient>
    <linearGradient
       inkscape:collect="always"
       xlink:href="#linearGradient4193"
       id="linearGradient5872"
       x1="167.58325"
       y1="26.964148"
       x2="167.69571"
       y2="-19.475904"
       gradientUnits="userSpaceOnUse" />
  </defs>
  <sodipodi:namedview
     id="base"
     pagecolor="#8f8f8f"
     bordercolor="#666666"
     borderopacity="1.0"
     inkscape:pageopacity="0"
     inkscape:pageshadow="2"
     inkscape:zoom="6.0811183"
     inkscape:cx="7.2162948"
     inkscape:cy="28.191616"
     inkscape:document-units="px"
     inkscape:current-layer="g4265"
     showgrid="false"
     fit-margin-top="0"
     fit-margin-left="0"
     fit-margin-right="0"
     fit-margin-bottom="0"
     inkscape:window-width="1366"
     inkscape:window-height="687"
     inkscape:window-x="0"
     inkscape:window-y="0"
     inkscape:window-maximized="1"
     inkscape:showpageshadow="false"
     borderlayer="true"
     inkscape:snap-bbox="true"
     inkscape:snap-global="true"
     showguides="false">
    <sodipodi:guide
       position="6.0000117,57.999996"
       orientation="51.999969,0"
       id="guide4097" />
    <sodipodi:guide
       position="6.0000117,6.0000264"
       orientation="0,52"
       id="guide4099" />
    <sodipodi:guide
       position="58.000012,6.0000264"
       orientation="-51.999969,0"
       id="guide4101" />
    <sodipodi:guide
       position="58.000012,57.999996"
       orientation="0,-52"
       id="guide4103" />
    <sodipodi:guide
       position="3.0000117,60.999996"
       orientation="57.999969,0"
       id="guide4105" />
    <sodipodi:guide
       position="3.0000117,3.0000264"
       orientation="0,58"
       id="guide4107" />
    <sodipodi:guide
       position="61.000012,3.0000264"
       orientation="-57.999969,0"
       id="guide4109" />
    <sodipodi:guide
       position="61.000012,60.999996"
       orientation="0,-58"
       id="guide4111" />
    <inkscape:grid
       type="xygrid"
       id="grid4115" />
    <sodipodi:guide
       position="20.000012,38.999996"
       orientation="23.999969,0"
       id="guide4129" />
    <sodipodi:guide
       position="20.000012,15.000026"
       orientation="0,24"
       id="guide4131" />
    <sodipodi:guide
       position="44.000012,15.000026"
       orientation="-23.999969,0"
       id="guide4133" />
    <sodipodi:guide
       position="44.000012,38.999996"
       orientation="0,-24"
       id="guide4135" />
    <sodipodi:guide
       position="22.000015,36.999992"
       orientation="19.999975,0"
       id="guide4137" />
    <sodipodi:guide
       position="22.000015,17.000017"
       orientation="0,20"
       id="guide4139" />
    <sodipodi:guide
       position="42.000015,17.000017"
       orientation="-19.999975,0"
       id="guide4141" />
    <sodipodi:guide
       position="22.000012,36.999996"
       orientation="7.9999695,0"
       id="guide4187" />
    <sodipodi:guide
       position="30.000012,36.999996"
       orientation="0,-8"
       id="guide4193" />
    <sodipodi:guide
       position="26.000012,17.000026"
       orientation="0,12"
       id="guide4300" />
  </sodipodi:namedview>
  <metadata
     id="metadata5458">
    <rdf:RDF>
      <cc:Work
         rdf:about="">
        <dc:format>image/svg+xml</dc:format>
        <dc:type
           rdf:resource="http://purl.org/dc/dcmitype/StillImage" />
        <dc:title></dc:title>
      </cc:Work>
    </rdf:RDF>
  </metadata>
  <g
     inkscape:label="Capa 1"
     inkscape:groupmode="layer"
     id="layer1"
     transform="translate(-384.57143,-483.798)">
    <g
       transform="translate(547.69352,-328.64093)"
       id="layer1-1"
       inkscape:label="Capa 1">
      <g
         id="g4265"
         transform="matrix(0.12613922,0,0,0.12613922,-162.53176,751.54587)">
        <g
           transform="matrix(3.9020111,0,0,3.9020111,-402.516,751.61393)"
           style="fill:#60aae5;fill-opacity:1"
           id="g5876">
          <path
             sodipodi:nodetypes="scccssccccs"
             d="m -880.51558,294.78348 c -4.62566,0 -8.34918,3.71755 -8.34918,8.33531 l 0,161.40825 461.02382,1.00001 0,-121.19727 c 0,-4.61776 -3.7239,-8.3353 -8.34956,-8.3353 l -265.48425,0 c -8.5104,0.75134 -9.60667,-0.37701 -13.8121,-5.98088 -5.9637,-7.96762 -14.96889,-21.44253 -20.83998,-29.21462 -4.71246,-6.80467 -5.47678,-6.0155 -13.29224,-6.0155 z"
             inkscape:connector-curvature="0"
             id="rect8678-4-5-5-9"
             style="color:#000000;display:inline;overflow:visible;visibility:visible;fill:url(#linearGradient4534);fill-opacity:1;fill-rule:nonzero;stroke:none;stroke-width:0.99992168;stroke-opacity:1;marker:none;enable-background:accumulate"
             transform="matrix(0.2562781,0,0,0.2562781,335.69273,-125.35644)" />
          <rect
             ry="9.629776"
             y="356.84882"
             x="-890.27637"
             height="295.12872"
             width="463.84714"
             id="rect4158-4-0"
             style="opacity:1;fill:url(#linearGradient4284-7-0);fill-opacity:1;stroke:url(#linearGradient4284-7-0);stroke-width:2.37832451;stroke-linecap:butt;stroke-linejoin:miter;stroke-miterlimit:4;stroke-dasharray:none;stroke-opacity:1"
             transform="matrix(0.2562781,0,0,0.2562781,335.69273,-125.35644)" />
          <path
             inkscape:connector-curvature="0"
             id="path4409-7"
             d="m 166.91177,-20.469327 c -0.865,1.010001 -6.419,4.3991 -7.357,4.976099 -2.308,1.731001 -3.02887,4.254058 -2.88487,5.480058 0.035,0.2959986 0.074,0.5790931 0.12698,0.8610942 0.116,0.063999 0.21955,0.1498995 0.30555,0.2618994 l 8.28953,10.8410688 c 0.172,-0.058 0.33983,-0.123696 0.51983,-0.162697 l 0,-4.0118296 c 0,-0.553 0.44698,-0.99998 0.99998,-0.99998 0.553,0 0.99999,0.44698 0.99999,0.99998 l 0,4.0157996 c 0.306,0.065 0.59696,0.156773 0.87696,0.277771 l 8.26572,-11.3966131 c 0.038,-0.2249995 0.0662,-0.4514947 0.0952,-0.6864933 0.14401,-1.226 -0.57686,-3.749057 -2.88486,-5.480058 -0.938,-0.576999 -6.48704,-3.966098 -7.35304,-4.976099 z m 14.99179,11.6029602 c -1.091,-0.119501 -2.03022,0.035644 -2.59122,0.2936448 -0.177,0.082 -0.34787,0.1649951 -0.51587,0.2499958 l -8.38873,11.5672436 c 0.226,0.247001 0.41929,0.516542 0.58729,0.805542 l 3.83723,-1.24601 c 0.522,-0.170999 1.08591,0.116846 1.25791,0.642847 0.171,0.524 -0.11684,1.090881 -0.64284,1.26188 L 171.6101,5.954786 c 0.016,0.158999 0.0516,0.312182 0.0516,0.476181 0,0.016 -0.008,0.03162 -0.008,0.04762 l 13.4561,4.523727 c 0.176,-0.029 0.35274,-0.06221 0.53173,-0.0992 1.211,-0.242001 3.38639,-1.7054268 4.31738,-4.436426 0.26,-1.070002 1.76728,-7.39658839 2.46028,-8.5315873 -1.225,-0.5109989 -6.16484,-4.7472165 -7.00384,-5.460216 -1.179,-0.8299996 -2.42084,-1.2217455 -3.51184,-1.3412445 z m -29.85659,0.1745989 c -1.091,0.119501 -2.33631,0.511245 -3.51581,1.3412461 -0.838,0.713 -5.7808,4.9452476 -7.0078,5.4562465 0.693,1.13500089 2.20127,7.4665553 2.46027,8.5355553 0.933,2.7299992 3.11135,4.194427 4.32135,4.436426 0.273,0.055 0.53657,0.09892 0.80157,0.134917 l 13.09103,-4.408648 c -0.01,-0.125999 -0.0357,-0.245008 -0.0357,-0.373008 0,-0.163 0.0316,-0.32115 0.0476,-0.480149 l -3.83724,-1.2460096 c -0.52499,-0.170999 -0.81284,-0.731913 -0.64284,-1.257912 0.17,-0.526001 0.73391,-0.811847 1.25791,-0.642847 l 3.83723,1.24601 c 0.231,-0.394001 0.50729,-0.756441 0.83729,-1.067441 l -8.14668,-10.658532 c -0.088,-0.1159984 -0.1436,-0.2439757 -0.1746,-0.3769774 -0.229,-0.121998 -0.46134,-0.2371979 -0.70634,-0.3491979 -0.5605,-0.2580006 -1.49625,-0.409178 -2.58725,-0.289679 z m 14.8648,12.3688183 c -0.067,0 -0.13341,0.01484 -0.19841,0.01984 -0.462,0.033 -0.89088,0.174721 -1.26188,0.408723 -0.018,0.011 -0.0386,0.01974 -0.0556,0.03174 -0.19,0.126 -0.35492,0.280406 -0.50792,0.448406 -0.445,0.4889986 -0.72618,1.1322036 -0.72618,1.8452026 0,0.251 0.0441,0.487241 0.10714,0.71824 0.006,0.021 0.0138,0.04249 0.0198,0.06349 0.339,1.1350009 1.37997,1.9682164 2.62297,1.9682164 0.022,0 0.0415,-0.0069 0.0635,-0.0079 0.022,0 0.0455,-0.003 0.0675,-0.004 1.207,-0.057 2.20386,-0.8928035 2.51186,-2.0198034 0.006,-0.021 0.0109,-0.04149 0.0159,-0.06349 0.053,-0.211999 0.0913,-0.430718 0.0913,-0.658717 0,-0.906001 -0.446,-1.70034 -1.123,-2.2023406 -0.018,-0.013 -0.0306,-0.02768 -0.0476,-0.03968 -0.449,-0.316 -0.99034,-0.507927 -1.57934,-0.507927 z m 4.28961,4.7578473 c -0.197,0.4219996 -0.45886,0.8048035 -0.76586,1.1468033 l 2.369,3.261846 c 0.325,0.447 0.22975,1.072799 -0.21825,1.396799 -0.178,0.128999 -0.38229,0.186505 -0.58729,0.186505 -0.31,0 -0.61648,-0.140724 -0.81348,-0.408723 l -2.36106,-3.253909 c -0.223,0.100001 -0.4574,0.170123 -0.6984,0.234124 l 0,13.983866 c 0.079,0.151001 0.15902,0.302341 0.24602,0.456342 0.604,1.075999 2.67146,2.694044 5.55546,2.738044 1.097,-0.084 7.58281,-0.604614 8.87682,-0.297615 0.10499,-1.325998 2.60575,-7.332051 3.02375,-8.349051 0.851,-2.757999 -0.0499,-5.222837 -0.88887,-6.130838 -0.165,-0.178 -0.33296,-0.348863 -0.50396,-0.515863 L 171.20138,8.4348977 Z m -8.42842,0.2857088 -13.25372,4.4642045 c -0.104,0.105998 -0.20552,0.216358 -0.30952,0.329358 -0.837,0.906999 -1.73887,3.374838 -0.88887,6.130838 0.419,1.018 2.92172,7.023051 3.02772,8.349051 1.294,-0.309 7.77485,0.213614 8.87285,0.297613 2.884,-0.044 4.95145,-1.662043 5.55545,-2.738044 0.125,-0.223 0.2402,-0.441685 0.3492,-0.662686 l 0,-13.789426 c -0.396,-0.066 -0.77393,-0.17236 -1.13093,-0.329358 l -2.36107,3.245971 c -0.195,0.270999 -0.4995,0.412691 -0.8095,0.412691 -0.204,0 -0.4093,-0.06147 -0.5873,-0.190473 -0.44599,-0.323001 -0.54721,-0.9488 -0.22221,-1.396799 l 2.369,-3.261846 c -0.236,-0.2630008 -0.4381,-0.5500946 -0.6111,-0.8610945 z"
             style="fill:url(#linearGradient5872);fill-opacity:1" />
        </g>
      </g>
    </g>
  </g>
</svg>
