<svg xmlns="http://www.w3.org/2000/svg" xmlns:xlink="http://www.w3.org/1999/xlink" viewBox="0 0 64 64"><defs><linearGradient xlink:href="#1" id="3" x1="-429.18" y1="455.74" x2="-429.69" y2="268.01" gradientUnits="userSpaceOnUse"/><linearGradient gradientUnits="userSpaceOnUse" y2="354.29" x2="-704.05" y1="647.77" x1="-701.19" id="2"><stop stop-color="#93cfff"/><stop offset="1" stop-color="#cde8fe"/></linearGradient><linearGradient xlink:href="#1" id="0" x1="59.12" y1="-13.295" x2="59.15" y2="-37.783" gradientUnits="userSpaceOnUse" gradientTransform="matrix(4.17478 0 0 4.16765-1066.12 447.73)"/><linearGradient id="1"><stop stop-color="#289bf7"/><stop offset="1" stop-color="#71b9f1"/></linearGradient></defs><g transform="matrix(.12614 0 0 .12614 85.51-10.1)"><path d="m-880.52 294.78c-4.626 0-8.349 3.718-8.349 8.335v161.41l461.02 1v-121.2c0-4.618-3.724-8.335-8.35-8.335h-265.48c-8.51.751-9.607-.377-13.812-5.981-5.964-7.968-14.969-21.443-20.84-29.21-4.712-6.805-5.477-6.02-13.292-6.02z" transform="translate(234.13-140.27)" fill="url(#0)" color="#000"/><rect y="356.85" x="-890.28" height="295.13" width="463.85" transform="translate(234.13-140.27)" fill="url(#2)" stroke="url(#2)" stroke-width="2.378" rx="9.63"/><path d="m-307.06 291.83c-34.478 0-63.809 31.13-63.809 69.51v64.38c0 8.257 2.617 9.657 8.763 5.361 3.696-2.585 7.119-4.056 11.88-4.056 4.255 0 8.09 1.179 11.697 3.273 6.109 3.53 12.153 3.566 18.19.009 3.552-2.1 7.538-3.285 11.788-3.285 4.261 0 8.269 1.179 11.799 3.273 5.996 3.572 12.175 3.518 18.3 0 3.632-2.094 7.742-3.273 12-3.273 4.384 0 9.161 1.251 12.605 3.482 5.728 3.697 10.579 1.532 10.579-6.731v-62.43c.006-38.39-29.32-69.52-63.793-69.52zm-101.79 87.4c8.258 0 14.965-6.508 14.965-14.552 0-8.03-6.696-14.546-14.965-14.546-8.258 0-14.96 6.513-14.96 14.546 0 8.04 6.696 14.552 14.96 14.552m-54.85 0c8.258 0 14.965-6.508 14.965-14.552 0-8.03-6.696-14.546-14.965-14.546-8.258 0-14.96 6.513-14.96 14.546 0 8.04 6.696 14.552 14.96 14.552m-69.68 55.29c14.206 0 27.436-4.02 38.585-10.953 6.489-4.03 6.539-12.657 1.094-17.95l-29.813-29.01c-5.457-5.298-5.463-13.89 0-19.19l32.23-31.351c5.457-5.303 5.613-14.12-.67-18.449-11.706-8.07-26-12.81-41.44-12.81-39.645.008-71.79 31.3-71.79 69.866 0 38.575 32.15 69.845 71.801 69.845" fill="url(#3)"/></g></svg>