<svg xmlns="http://www.w3.org/2000/svg" xmlns:xlink="http://www.w3.org/1999/xlink" viewBox="0 0 64 64"><defs><linearGradient xlink:href="#1" id="3" x1="-450.26" y1="441.37" x2="-442.51" y2="274.5" gradientUnits="userSpaceOnUse"/><linearGradient gradientUnits="userSpaceOnUse" y2="354.29" x2="-704.05" y1="647.77" x1="-701.19" id="2"><stop stop-color="#93cfff"/><stop offset="1" stop-color="#cde8fe"/></linearGradient><linearGradient xlink:href="#1" id="0" x1="59.12" y1="-13.295" x2="59.15" y2="-37.783" gradientUnits="userSpaceOnUse" gradientTransform="matrix(4.17478 0 0 4.16765-1066.12 447.73)"/><linearGradient id="1"><stop stop-color="#289bf7"/><stop offset="1" stop-color="#71b9f1"/></linearGradient></defs><g transform="matrix(.12614 0 0 .12614 85.51-10.1)"><path d="m-880.52 294.78c-4.626 0-8.349 3.718-8.349 8.335v161.41l461.02 1v-121.2c0-4.618-3.724-8.335-8.35-8.335h-265.48c-8.51.751-9.607-.377-13.812-5.981-5.964-7.968-14.969-21.443-20.84-29.21-4.712-6.805-5.477-6.02-13.292-6.02z" transform="translate(234.13-140.27)" fill="url(#0)" color="#000"/><rect y="356.85" x="-890.28" height="295.13" width="463.85" transform="translate(234.13-140.27)" fill="url(#2)" stroke="url(#2)" stroke-width="2.378" rx="9.63"/><path d="m-439.93 276.62l1.254.264c14.591-4.844 47.34 14.235 40.04 31.24-1.849 2.669-1.535 7.414.693 10.396l-40.949 40.894c-2.294-2.29-7.394-2.241-9.738 0l-67.72 64.883c-6.173 5.915-1.32 10.94 1.287 13.593l12.148 12.13c2.657 2.636 9.672 6.195 14.657.923l63.908-67.24c2.228-2.34 2.245-7.365 0-9.671 0 0 .017-.033 0-.033l41.11-41.03c4.341 3.905 8.44 4.242 12.329 3.18 7.511-2.052 11.698 5.283 16.192 10.644l-2.03 1.994c-3 3.03-2.723 8.139.644 11.5 3.367 3.361 8.5 3.641 11.504.643l13.435-13.395c3-3.03 2.723-8.139-.66-11.484-3.037-3.048-7.444-3.443-10.514-1.269-9.21-10.314-4.374-11.863-16.522-25.291l-22.761-23.21c-16.39-16.05-37.681-16.03-58.31-9.655" fill="url(#3)"/></g></svg>