<svg xmlns="http://www.w3.org/2000/svg" xmlns:xlink="http://www.w3.org/1999/xlink" viewBox="0 0 64 64"><defs><linearGradient xlink:href="#1" id="3" x1="481.76" y1="535.51" x2="482.3" y2="511.01" gradientUnits="userSpaceOnUse"/><linearGradient gradientUnits="userSpaceOnUse" y2="354.29" x2="-704.05" y1="647.77" x1="-701.19" id="2"><stop stop-color="#93cfff"/><stop offset="1" stop-color="#cde8fe"/></linearGradient><linearGradient xlink:href="#1" id="0" x1="59.12" y1="-13.295" x2="59.15" y2="-37.783" gradientUnits="userSpaceOnUse" gradientTransform="matrix(4.17478 0 0 4.16765-1066.12 447.73)"/><linearGradient id="1"><stop stop-color="#289bf7"/><stop offset="1" stop-color="#71b9f1"/></linearGradient></defs><g transform="matrix(.94915 0 0 .94915-425.63-460.34)"><path d="m-880.52 294.78c-4.626 0-8.349 3.718-8.349 8.335v161.41l461.02 1v-121.2c0-4.618-3.724-8.335-8.35-8.335h-265.48c-8.51.751-9.607-.377-13.812-5.981-5.964-7.968-14.969-21.443-20.84-29.21-4.712-6.805-5.477-6.02-13.292-6.02z" transform="matrix(.1329 0 0 .1329 569.64 455.72)" fill="url(#0)" color="#000"/><rect y="356.85" x="-890.28" height="295.13" width="463.85" transform="matrix(.1329 0 0 .1329 569.64 455.72)" fill="url(#2)" stroke="url(#2)" stroke-width="2.378" rx="9.63"/><path d="m494.52 522.61l-3.763-3.765c-.359-.358-.247-.741.247-.852 0 0 .408-.092.911-.595 1.079-1.079 1.078-2.83 0-3.907-1.08-1.079-2.828-1.079-3.908 0-.503.503-.594.91-.594.91-.111.495-.495.606-.853.247l-3.763-3.762c-.358-.359-.945-.359-1.303 0l-3.763 3.762c-.358.359-.247.743.247.854 0 0 .409.092.911.594 1.078 1.079 1.079 2.829 0 3.909-1.079 1.079-2.83 1.078-3.908 0-.502-.503-.594-.911-.594-.911-.111-.495-.495-.605-.853-.247l-3.763 3.764c-.358.358-.358.944 0 1.302l3.763 3.764c.358.358.247.742-.247.853 0 0-.408.092-.911.595-1.079 1.079-1.079 2.828 0 3.907 1.079 1.078 2.828 1.079 3.908 0 .503-.503.594-.91.594-.91.111-.495.495-.606.853-.247l3.764 3.762c.358.359.945.359 1.303 0l3.764-3.763c.358-.358.247-.743-.247-.853 0 0-.409-.092-.911-.594-1.08-1.079-1.079-2.829 0-3.909 1.079-1.079 2.828-1.08 3.908 0 .503.503.594.911.594.911.111.495.495.606.853.248l3.763-3.765c.358-.358.358-.944 0-1.302" fill="url(#3)"/></g></svg>