<svg xmlns="http://www.w3.org/2000/svg" xmlns:xlink="http://www.w3.org/1999/xlink" viewBox="0 0 64 64"><defs><linearGradient xlink:href="#1" id="3" x1="-481.74" y1="-132.94" x2="-482.03" y2="-152.13" gradientUnits="userSpaceOnUse"/><linearGradient gradientUnits="userSpaceOnUse" y2="354.29" x2="-704.05" y1="647.77" x1="-701.19" id="2"><stop stop-color="#93cfff"/><stop offset="1" stop-color="#cde8fe"/></linearGradient><linearGradient xlink:href="#1" id="0" x1="59.12" y1="-13.295" x2="59.15" y2="-37.783" gradientUnits="userSpaceOnUse" gradientTransform="matrix(4.17478 0 0 4.16765-1066.12 447.73)"/><linearGradient id="1"><stop stop-color="#289bf7"/><stop offset="1" stop-color="#71b9f1"/></linearGradient></defs><g transform="matrix(1.20001 0 0 1.20001 606.98 206.68)" fill="#60aae5"><path d="m-880.52 294.78c-4.626 0-8.349 3.718-8.349 8.335v161.41l461.02 1v-121.2c0-4.618-3.724-8.335-8.35-8.335h-265.48c-8.51.751-9.607-.377-13.812-5.981-5.964-7.968-14.969-21.443-20.84-29.21-4.712-6.805-5.477-6.02-13.292-6.02z" transform="matrix(.10512 0 0 .10512-409.94-195.39)" fill="url(#0)" color="#000"/><rect y="356.85" x="-890.28" height="295.13" width="463.85" transform="matrix(.10512 0 0 .10512-409.94-195.39)" fill="url(#2)" stroke="url(#2)" stroke-width="2.378" rx="9.63"/><path d="m-484.6442-152.39949a1.500002 1.499995 0 0 0 -1.50065 1.50065 1.500002 1.499995 0 0 0 1.50065 1.49902 1.500002 1.499995 0 0 0 1.50065 -1.49902 1.500002 1.499995 0 0 0 -1.50065 -1.50065m8.499 0l-2.843 2.843 4.375 4.375-4.531 5.156 3 2.625 7-8-7-7m-10.49967 7.00032a2.499993 2.5 0 0 0 -2.5 2.5 2.499993 2.5 0 0 0 2.5 2.5 2.499993 2.5 0 0 0 2.5 -2.5 2.499993 2.5 0 0 0 -2.5 -2.5m4.50033 7.00032a2.999992 3 0 0 0 -2.99968 2.99968 2.999992 3 0 0 0 2.99968 2.99967 2.999992 3 0 0 0 2.99967 -2.99967 2.999992 3 0 0 0 -2.99967 -2.99968" fill="url(#3)" color="#000"/></g></svg>