<svg xmlns="http://www.w3.org/2000/svg" xmlns:xlink="http://www.w3.org/1999/xlink" viewBox="0 0 64 64"><defs><clipPath><path d="m596.51 511.71c-7.452 6.109-22.261 15.989-32.626 11.818-5.793-2.332-8.254-7.974-1.48-7.577 13.816.809 20.506 2.306 34.11-4.241"/></clipPath><clipPath><path d="m548.84 543.24h11.247v-38.495h-11.247v38.495"/></clipPath><clipPath id="8"><path d="m547.05 542.87h13.05v-38.14h-13.05v38.14"/></clipPath><clipPath><path d="m556.74 544.61h28.84v-27.979h-28.84v27.979"/></clipPath><clipPath id="7"><path d="m556.75 516.63c2.252 9.368 8.092 26.19 18.874 29.12 6.02 1.639 11.393-1.373 5.753-5.147-11.502-7.696-17.738-10.542-24.627-23.971"/></clipPath><clipPath><path d="m558.32 524.53h38.19v-12.815h-38.19v12.815"/></clipPath><clipPath id="6"><path d="m556.75 546.2h27.01v-29.575h-27.01v29.575"/></clipPath><clipPath id="5"><path d="m596.5 511.72c-6.962 6.661-20.973 17.643-31.626 14.277-5.954-1.882-8.839-7.319-2.055-7.441 13.837-.25 20.622.731 33.681-6.836"/></clipPath><clipPath id="4"><path d="m558.89 526.62h37.604v-14.904h-37.604v14.904"/></clipPath><clipPath id="3"><path d="m0 792h612v-792h-612v792"/></clipPath><linearGradient xlink:href="#2" id="9" x1="559.17" y1="505.95" x2="560.09" y2="546.67" gradientUnits="userSpaceOnUse"/><linearGradient xlink:href="#2" id="A" x1="562.35" y1="504.57" x2="562.67" y2="546.41" gradientUnits="userSpaceOnUse"/><linearGradient xlink:href="#2" id="0" x1="59.12" y1="-13.295" x2="59.15" y2="-37.783" gradientUnits="userSpaceOnUse" gradientTransform="matrix(4.17478 0 0 4.16765-1066.12 447.73)"/><linearGradient id="2"><stop stop-color="#289bf7"/><stop offset="1" stop-color="#71b9f1"/></linearGradient><linearGradient gradientUnits="userSpaceOnUse" y2="354.29" x2="-704.05" y1="647.77" x1="-701.19" id="1"><stop stop-color="#93cfff"/><stop offset="1" stop-color="#cde8fe"/></linearGradient><linearGradient xlink:href="#2" id="B" x1="564.19" y1="506.51" x2="564" y2="548.15" gradientUnits="userSpaceOnUse"/></defs><g transform="matrix(.12614 0 0 .12614.589-60.898)"><g transform="translate(673.23 402.74)"><path d="m-880.52 294.78c-4.626 0-8.349 3.718-8.349 8.335v161.41l461.02 1v-121.2c0-4.618-3.724-8.335-8.35-8.335h-265.48c-8.51.751-9.607-.377-13.812-5.981-5.964-7.968-14.969-21.443-20.84-29.21-4.712-6.805-5.477-6.02-13.292-6.02z" transform="translate(234.13-140.27)" fill="url(#0)" color="#000"/><rect width="463.85" height="295.13" x="-890.28" y="356.85" transform="translate(234.13-140.27)" fill="url(#1)" stroke="url(#1)" stroke-width="2.378" rx="9.63"/></g><g transform="matrix(4.52486 0 0-4.51659-2329.14 3144.55)" clip-path="url(#3)" enable-background="new" fill="#56aef3"><g clip-path="url(#4)" transform="translate(-3.997-1.449)"><g clip-path="url(#5)"><path d="m596.5 511.72c-6.962 6.661-20.973 17.643-31.626 14.277-5.954-1.882-8.839-7.319-2.055-7.441 13.837-.25 20.622.731 33.681-6.836" fill="url(#B)" fill-rule="evenodd"/></g></g><g clip-path="url(#6)" transform="translate(-2.485.663)"><g clip-path="url(#7)"><path d="m556.75 516.63c2.252 9.368 8.092 26.19 18.874 29.12 6.02 1.639 11.393-1.373 5.753-5.147-11.502-7.696-17.738-10.542-24.627-23.971" fill="url(#A)" fill-rule="evenodd"/></g></g><g clip-path="url(#8)"><path d="m560.09 504.74c-6.172 7.399-16.178 22.12-12.09 32.524 2.281 5.812 7.902 8.321 7.563 1.544-.691-13.823-2.131-20.525 4.531-34.07" fill="url(#9)" fill-rule="evenodd"/></g></g></g></svg>