<svg xmlns="http://www.w3.org/2000/svg" xmlns:xlink="http://www.w3.org/1999/xlink" viewBox="0 0 64 64"><defs><linearGradient xlink:href="#1" id="3" x1="205.2" y1="394.6" x2="202.64" y2="-39.586" gradientUnits="userSpaceOnUse"/><linearGradient gradientUnits="userSpaceOnUse" y2="354.29" x2="-704.05" y1="647.77" x1="-701.19" id="2"><stop stop-color="#93cfff"/><stop offset="1" stop-color="#cde8fe"/></linearGradient><linearGradient xlink:href="#1" id="0" x1="59.12" y1="-13.295" x2="59.15" y2="-37.783" gradientUnits="userSpaceOnUse" gradientTransform="matrix(4.17478 0 0 4.16765-1066.12 447.73)"/><linearGradient id="1"><stop stop-color="#289bf7"/><stop offset="1" stop-color="#71b9f1"/></linearGradient></defs><g transform="matrix(.05899 0 0 .05899 19.999 24.15)" fill="#6a98ca"><path d="m-880.52 294.78c-4.626 0-8.349 3.718-8.349 8.335v161.41l461.02 1v-121.2c0-4.618-3.724-8.335-8.35-8.335h-265.48c-8.51.751-9.607-.377-13.812-5.981-5.964-7.968-14.969-21.443-20.84-29.21-4.712-6.805-5.477-6.02-13.292-6.02z" transform="matrix(2.13816 0 0 2.13816 1611.07-880.48)" fill="url(#0)" color="#000"/><rect y="356.85" x="-890.28" height="295.13" width="463.85" transform="matrix(2.13816 0 0 2.13816 1611.07-880.48)" fill="url(#2)" stroke="url(#2)" stroke-width="2.378" rx="9.63"/><path d="m36.01 406.82h334.82c14.258 0 25.922-11.656 25.922-25.906v-355.01c0-14.217-11.673-25.906-25.922-25.906h-334.82c-14.29 0-25.939 11.689-25.939 25.906v355.01c0 14.25 11.649 25.906 25.939 25.906m297.5-375.13c0-4.3 3.52-7.771 7.779-7.771h24.304c4.292 0 7.763 3.471 7.763 7.771v25.03c0 4.3-3.471 7.771-7.763 7.771h-24.304c-4.259 0-7.779-3.463-7.779-7.771v-25.03m0 63.67c0-4.3 3.52-7.779 7.779-7.779h24.304c4.292 0 7.763 3.479 7.763 7.779v25.03c0 4.292-3.471 7.795-7.763 7.795h-24.304c-4.259 0-7.779-3.503-7.779-7.795v-25.03m0 63.72c0-4.292 3.52-7.795 7.779-7.795h24.304c4.292 0 7.763 3.503 7.763 7.795v25.04c0 4.259-3.471 7.763-7.763 7.763h-24.304c-4.259 0-7.779-3.503-7.779-7.763v-25.04m0 63.67c0-4.3 3.52-7.795 7.779-7.795h24.304c4.292 0 7.763 3.495 7.763 7.795v25.04c0 4.292-3.471 7.771-7.763 7.771h-24.304c-4.259 0-7.779-3.479-7.779-7.771v-25.04m0 63.67c0-4.3 3.52-7.771 7.779-7.771h24.304c4.292 0 7.763 3.463 7.763 7.771v25.05c0 4.276-3.471 7.755-7.763 7.755h-24.304c-4.259 0-7.779-3.479-7.779-7.755v-25.05m0 63.67c0-4.276 3.52-7.771 7.779-7.771h24.304c4.292 0 7.763 3.495 7.763 7.771v25.08c0 4.243-3.471 7.755-7.763 7.755h-24.304c-4.259 0-7.779-3.503-7.779-7.755v-25.08m-233.53-299.62c0-4.3 3.503-7.771 7.795-7.771h191.3c4.268 0 7.763 3.471 7.763 7.771v123.94c0 4.259-3.495 7.795-7.763 7.795h-191.3c-4.292 0-7.795-3.536-7.795-7.795-.0001 0-.0001-123.94-.0001-123.94m0 191.12c0-4.268 3.503-7.747 7.795-7.747h191.3c4.268 0 7.763 3.479 7.763 7.747v114.57c0 4.276-3.495 7.771-7.763 7.771h-191.3c-4.292 0-7.795-3.495-7.795-7.771-.0001 0-.0001-114.57-.0001-114.57m-66.52-209.91c0-4.3 3.495-7.771 7.779-7.771h24.313c4.268 0 7.755 3.471 7.755 7.771v25.03c0 4.3-3.487 7.771-7.755 7.771h-24.313c-4.284 0-7.779-3.463-7.779-7.771 0 0 0-25.03 0-25.03m0 63.67c0-4.3 3.495-7.779 7.779-7.779h24.313c4.268 0 7.755 3.479 7.755 7.779v25.03c0 4.292-3.487 7.795-7.755 7.795h-24.313c-4.284 0-7.779-3.503-7.779-7.795 0 0 0-25.03 0-25.03m0 63.72c0-4.292 3.495-7.795 7.779-7.795h24.313c4.268 0 7.755 3.503 7.755 7.795v25.04c0 4.259-3.487 7.763-7.755 7.763h-24.313c-4.284 0-7.779-3.503-7.779-7.763 0 0 0-25.04 0-25.04m0 63.67c0-4.3 3.495-7.795 7.779-7.795h24.313c4.268 0 7.755 3.495 7.755 7.795v25.04c0 4.292-3.487 7.771-7.755 7.771h-24.313c-4.284 0-7.779-3.479-7.779-7.771 0 0 0-25.04 0-25.04m0 63.67c0-4.3 3.495-7.771 7.779-7.771h24.313c4.268 0 7.755 3.463 7.755 7.771v25.05c0 4.276-3.487 7.755-7.755 7.755h-24.313c-4.284 0-7.779-3.479-7.779-7.755 0 0 0-25.05 0-25.05m0 63.67c0-4.276 3.495-7.771 7.779-7.771h24.313c4.268 0 7.755 3.495 7.755 7.771v25.08c0 4.243-3.487 7.755-7.755 7.755h-24.313c-4.284 0-7.779-3.503-7.779-7.755 0-.0001 0-25.08 0-25.08" fill="url(#3)"/></g></svg>