<svg xmlns="http://www.w3.org/2000/svg" xmlns:xlink="http://www.w3.org/1999/xlink" viewBox="0 0 64 64"><defs><linearGradient xlink:href="#1" id="3" x1="-421.58" y1="461.35" x2="-429.46" y2="268.4" gradientUnits="userSpaceOnUse"/><linearGradient gradientUnits="userSpaceOnUse" y2="354.29" x2="-704.05" y1="647.77" x1="-701.19" id="2"><stop stop-color="#93cfff"/><stop offset="1" stop-color="#cde8fe"/></linearGradient><linearGradient xlink:href="#1" id="0" x1="59.12" y1="-13.295" x2="59.15" y2="-37.783" gradientUnits="userSpaceOnUse" gradientTransform="matrix(4.17478 0 0 4.16765-1066.12 447.73)"/><linearGradient id="1"><stop stop-color="#289bf7"/><stop offset="1" stop-color="#71b9f1"/></linearGradient></defs><g transform="matrix(.12614 0 0 .12614 85.51-10.1)"><path d="m-880.52 294.78c-4.626 0-8.349 3.718-8.349 8.335v161.41l461.02 1v-121.2c0-4.618-3.724-8.335-8.35-8.335h-265.48c-8.51.751-9.607-.377-13.812-5.981-5.964-7.968-14.969-21.443-20.84-29.21-4.712-6.805-5.477-6.02-13.292-6.02z" transform="translate(234.13-140.27)" fill="url(#0)" color="#000"/><rect y="356.85" x="-890.28" height="295.13" width="463.85" transform="translate(234.13-140.27)" fill="url(#2)" stroke="url(#2)" stroke-width="2.378" rx="9.63"/><path d="m-473.09 334.28c2.068 0 4.074.3 5.956.889 7.135-7.993 15.05-15.273 23.607-21.715-.362-1.51-.558-3.092-.558-4.705 0-2.244.372-4.405 1.055-6.421-9.606-6.866-20.03-12.646-31.14-17.1-10.392 6.421-19.461 14.797-26.699 24.621 5.367 9.513 11.747 18.375 19.01 26.441 2.647-1.282 5.615-2.01 8.769-2.01m-20.247 20.236c0-2.844.6-5.553 1.644-7.993-6.494-7.156-12.378-14.849-17.527-23.05-6.463 12.843-10.134 27.351-10.134 42.717 0 17.775 4.901 34.413 13.391 48.652 3.04-17.1 8.8-33.29 16.752-48.1-2.585-3.392-4.126-7.642-4.126-12.223m69.49-66c5.346 0 10.185 2.078 13.815 5.47 10.558-4.539 21.674-8.03 33.24-10.258-13.97-8.06-30.16-12.678-47.43-12.678-11.778 0-23.05 2.161-33.462 6.08 8.262 4.085 16.14 8.841 23.545 14.218 3.02-1.799 6.525-2.833 10.289-2.833m30.26 95.33c1.262-2.627 3.05-4.953 5.263-6.783-5.977-18.375-15.439-35.2-27.63-49.666-2.42 1.034-5.087 1.592-7.9 1.592-4.395 0-8.438-1.417-11.757-3.774-7.342 5.574-14.14 11.819-20.309 18.644 1.944 3.092 3.071 6.742 3.071 10.661 0 2.099-.32 4.136-.931 6.06 17.755 11.85 38.2 19.999 60.19 23.266m26.25 27.33c.269 3.836.424 7.693.424 11.592 0 6.866-.434 13.629-1.262 20.278 16.13-11.778 28.416-28.519 34.61-47.97-7.342 1.779-14.87 3.05-22.553 3.774-1.789 5.553-5.915 10.02-11.219 12.326m-30.991-13.722c-23.494-3.898-45.26-12.864-64.21-25.686-3.082 1.882-6.69 2.988-10.558 2.988-1.437 0-2.813-.145-4.157-.424-9.07 17.19-14.87 36.37-16.534 56.708 9.06 9.72 20.1 17.548 32.521 22.801 15.428-23.711 36.978-43.32 62.943-56.39m37.97-101.78c-15.252 1.479-29.812 5.315-43.36 11.04.063.682.103 1.355.103 2.037 0 3.195-.765 6.204-2.078 8.883 13.556 15.914 24.06 34.434 30.701 54.712 8.241.165 15.273 5.191 18.303 12.357 9.162-.931 18.08-2.689 26.658-5.212.621-4.343.951-8.789.951-13.308-.013-27.961-12.07-53.11-31.28-70.51m-27.785 112.59c-24.24 11.354-44.506 28.84-59.18 50.21 7.393 1.851 15.13 2.844 23.1 2.844 14.342 0 27.94-3.195 40.14-8.883 1.965-9.596 2.999-19.513 2.999-29.667 0-3.671-.165-7.311-.445-10.909-2.44-.786-4.684-1.996-6.618-3.599" fill="url(#3)"/></g></svg>