<svg xmlns="http://www.w3.org/2000/svg" xmlns:xlink="http://www.w3.org/1999/xlink" viewBox="0 0 64 64"><defs><linearGradient xlink:href="#1" id="3" x1="47.18" y1="89.22" x2="48.71" y2="5.4" gradientUnits="userSpaceOnUse"/><linearGradient gradientUnits="userSpaceOnUse" y2="354.29" x2="-704.05" y1="647.77" x1="-701.19" id="2"><stop stop-color="#93cfff"/><stop offset="1" stop-color="#cde8fe"/></linearGradient><linearGradient xlink:href="#1" id="0" x1="59.12" y1="-13.295" x2="59.15" y2="-37.783" gradientUnits="userSpaceOnUse" gradientTransform="matrix(4.17478 0 0 4.16765-1066.12 447.73)"/><linearGradient id="1"><stop stop-color="#289bf7"/><stop offset="1" stop-color="#71b9f1"/></linearGradient></defs><path d="m-880.52 294.78c-4.626 0-8.349 3.718-8.349 8.335v161.41l461.02 1v-121.2c0-4.618-3.724-8.335-8.35-8.335h-265.48c-8.51.751-9.607-.377-13.812-5.981-5.964-7.968-14.969-21.443-20.84-29.21-4.712-6.805-5.477-6.02-13.292-6.02z" transform="matrix(.12614 0 0 .12614 115.04-27.794)" fill="url(#0)" color="#000"/><rect y="356.85" x="-890.28" height="295.13" width="463.85" transform="matrix(.12614 0 0 .12614 115.04-27.794)" fill="url(#2)" stroke="url(#2)" stroke-width="2.378" rx="9.63"/><path d="m93.23 23.522c-1.104-.507-2.408-.324-3.33.471l-18.385 15.83v-18.05c0-1.778-1.447-3.226-3.226-3.226h-65.06c-1.778 0-3.225 1.447-3.225 3.226v51.51c0 1.777 1.446 3.226 3.225 3.226h65.06c1.777 0 3.227-1.446 3.227-3.226v-18.05l18.385 15.829c.922.796 2.228.978 3.33.472 1.106-.508 1.815-1.613 1.815-2.832v-42.34c-.0001-1.218-.709-2.323-1.817-2.831" transform="matrix(.27605 0 0 .27605 18.88 22.864)" fill="url(#3)"/></svg>