<svg xmlns="http://www.w3.org/2000/svg" xmlns:xlink="http://www.w3.org/1999/xlink" viewBox="0 0 64 64"><defs><linearGradient xlink:href="#1" id="3" x1="32.12" y1="47.906" x2="31.997" y2="23.837" gradientUnits="userSpaceOnUse"/><linearGradient gradientUnits="userSpaceOnUse" y2="354.29" x2="-704.05" y1="647.77" x1="-701.19" id="2"><stop stop-color="#93cfff"/><stop offset="1" stop-color="#cde8fe"/></linearGradient><linearGradient xlink:href="#1" id="0" x1="59.12" y1="-13.295" x2="59.15" y2="-37.783" gradientUnits="userSpaceOnUse" gradientTransform="matrix(4.17478 0 0 4.16765-1066.12 447.73)"/><linearGradient id="1"><stop stop-color="#289bf7"/><stop offset="1" stop-color="#71b9f1"/></linearGradient></defs><g transform="matrix(1.15588 0 0 1.15588-441.12-565.44)" fill="#60aae5"><path d="m-880.52 294.78c-4.626 0-8.349 3.718-8.349 8.335v161.41l461.02 1v-121.2c0-4.618-3.724-8.335-8.35-8.335h-265.48c-8.51.751-9.607-.377-13.812-5.981-5.964-7.968-14.969-21.443-20.84-29.21-4.712-6.805-5.477-6.02-13.292-6.02z" transform="matrix(.10913 0 0 .10913 481.16 465.14)" fill="url(#0)" color="#000"/><rect y="356.85" x="-890.28" height="295.13" width="463.85" transform="matrix(.10913 0 0 .10913 481.16 465.14)" fill="url(#2)" stroke="url(#2)" stroke-width="2.378" rx="9.63"/><path transform="matrix(1.08144 0 0 1.08144 374.71 478.76)" d="m31.01 24.16c-.455 0-.82.367-.82.822v.205c0 .455.365.822.82.822h2.057c.455 0 .82-.367.82-.822v-.205c0-.455-.365-.822-.82-.822h-2.057m-.008 2.674c-.455 0-.82.367-.82.822v.207c0 .455.365.82.82.82h2.057c.455 0 .82-.365.82-.82v-.207c0-.455-.365-.822-.82-.822h-2.057m-.021 2.643c-.455 0-.822.367-.822.822v.207c0 .455.367.82.822.82h2.055c.455 0 .822-.365.822-.82v-.207c0-.455-.367-.822-.822-.822h-2.055m.039 2.752c-.455 0-.82.367-.82.822v.205c0 .455.365.822.82.822h2.057c.455 0 .82-.367.82-.822v-.205c0-.455-.365-.822-.82-.822h-2.057m0 2.703c-.455 0-.82.365-.82.82v.207c0 .455.365.822.82.822h2.057c.455 0 .82-.367.82-.822v-.207c0-.455-.365-.82-.82-.82h-2.057m0 2.766c-.455 0-.82.367-.82.822v.205c0 .455.365.822.82.822h2.057c.455 0 .82-.367.82-.822v-.205c0-.455-.365-.822-.82-.822h-2.057m.166 2.797c-.324 0-.588.263-.588.588v1.168l-.906 2.672c-.254.745-.133 1.573.324 2.215.457.64 1.199 1.023 1.984 1.023.785 0 1.527-.383 1.984-1.023.457-.642.578-1.468.324-2.213l-.906-2.674v-1.168c0-.325-.264-.588-.588-.588h-1.629m-.072 3.914h1.773l.305.896c.13.384.068.812-.168 1.143-.47.661-1.576.661-2.047 0-.236-.331-.298-.758-.168-1.143l.305-.896" opacity=".929" fill="url(#3)"/></g></svg>