<svg xmlns="http://www.w3.org/2000/svg" xmlns:xlink="http://www.w3.org/1999/xlink" viewBox="0 0 64 64"><defs><linearGradient xlink:href="#1" id="3" x1="324.38" y1="813.44" x2="326.06" y2="642.52" gradientUnits="userSpaceOnUse"/><linearGradient gradientUnits="userSpaceOnUse" y2="354.29" x2="-704.05" y1="647.77" x1="-701.19" id="2"><stop stop-color="#93cfff"/><stop offset="1" stop-color="#cde8fe"/></linearGradient><linearGradient xlink:href="#1" id="0" x1="59.12" y1="-13.295" x2="59.15" y2="-37.783" gradientUnits="userSpaceOnUse" gradientTransform="matrix(4.17478 0 0 4.16765-1066.12 447.73)"/><linearGradient id="1"><stop stop-color="#289bf7"/><stop offset="1" stop-color="#71b9f1"/></linearGradient></defs><g transform="matrix(.14143 0 0 .14143-13.501-66.32)" fill="#60aae5" stroke="#60aae5" stroke-width="1.102"><path d="m-880.52 294.78c-4.626 0-8.349 3.718-8.349 8.335v161.41l461.02 1v-121.2c0-4.618-3.724-8.335-8.35-8.335h-265.48c-8.51.751-9.607-.377-13.812-5.981-5.964-7.968-14.969-21.443-20.84-29.21-4.712-6.805-5.477-6.02-13.292-6.02z" transform="matrix(.8919 0 0 .8919 908.92 272.43)" fill="url(#0)" stroke="none" color="#000"/><rect y="356.85" x="-890.28" height="295.13" width="463.85" transform="matrix(.8919 0 0 .8919 908.92 272.43)" fill="url(#2)" stroke="url(#2)" stroke-width="2.378" rx="9.63"/><path d="m322.17 639.61q35.816 0 60.28 24.678 24.459 24.678 24.459 59.62 0 19.655-8.517 32.54-8.299 12.885-24.24 12.885-16.379 0-24.459-15.942-10.701 15.942-30.574 15.942-17.908 0-30.14-12.448-12.23-12.667-12.23-32.1 0-19.218 12.23-31.885 12.23-12.667 29.26-12.667 16.816 0 27.954 12.885h.874v-9.827h15.724v56.999q0 5.678 3.057 10.264 3.276 4.586 9.827 4.586 15.506 0 15.506-31.23 0-28.827-20.09-48.701-20.09-19.873-48.919-19.873-28.827 0-48.919 19.873-20.09 19.873-20.09 48.701 0 28.827 20.09 48.701 20.09 19.873 48.919 19.873 15.506 0 27.735-6.115l6.115 14.85q-15.287 6.988-33.85 6.988-36.25 0-60.93-24.459-24.678-24.678-24.678-59.838 0-34.942 24.678-59.62 24.896-24.678 60.93-24.678m-20.31 105.48q7.862 7.644 18.781 7.644 10.919 0 18.563-7.644 7.862-7.644 7.862-20.31 0-12.667-7.862-20.31-7.644-7.644-18.563-7.644-10.919 0-18.781 7.644-7.644 7.644-7.644 20.31 0 12.667 7.644 20.31" fill="url(#3)" stroke="none"/></g></svg>