<svg xmlns="http://www.w3.org/2000/svg" xmlns:xlink="http://www.w3.org/1999/xlink" viewBox="0 0 64 64"><defs><linearGradient xlink:href="#1" id="3" x1="90.09" y1="468.95" x2="82.924" y2="268.15" gradientUnits="userSpaceOnUse"/><linearGradient gradientUnits="userSpaceOnUse" y2="354.29" x2="-704.05" y1="647.77" x1="-701.19" id="2"><stop stop-color="#93cfff"/><stop offset="1" stop-color="#cde8fe"/></linearGradient><linearGradient xlink:href="#1" id="0" x1="59.12" y1="-13.295" x2="59.15" y2="-37.783" gradientUnits="userSpaceOnUse" gradientTransform="matrix(4.17478 0 0 4.16765-1066.12 447.73)"/><linearGradient id="1"><stop stop-color="#289bf7"/><stop offset="1" stop-color="#71b9f1"/></linearGradient></defs><g transform="matrix(.12045 0 0 .12045 21.639-8.618)"><path d="m-880.52 294.78c-4.626 0-8.349 3.718-8.349 8.335v161.41l461.02 1v-121.2c0-4.618-3.724-8.335-8.35-8.335h-265.48c-8.51.751-9.607-.377-13.812-5.981-5.964-7.968-14.969-21.443-20.84-29.21-4.712-6.805-5.477-6.02-13.292-6.02z" transform="matrix(1.04721 0 0 1.04721 775.46-159.2)" fill="url(#0)" color="#000"/><rect y="356.85" x="-890.28" height="295.13" width="463.85" transform="matrix(1.04721 0 0 1.04721 775.46-159.2)" fill="url(#2)" stroke="url(#2)" stroke-width="2.378" rx="9.63"/><path d="m-12.677 317.75c2.963 2.673 6.823 4.145 10.866 4.145 2.584 0 5.147-.624 7.415-1.802.832-.433 1.636-.945 2.391-1.523l4.609-3.535 12.32 11.508c.319.298.739.462 1.17.462.055 0 .109 0 .163-.008.489-.048.934-.301 1.223-.698 3.108-4.268 6.783-8.201 10.922-11.688.375-.316.597-.776.61-1.267.016-.491-.186-.963-.543-1.297l-12.612-11.779 2.933-4.778c4.08-6.644 2.837-15.26-2.957-20.487-2.963-2.671-6.824-4.141-10.87-4.141-2.587 0-5.15.622-7.415 1.801-1.714.89-3.246 2.077-4.556 3.531-2.103 2.332-3.467 5.212-3.945 8.325l-.683 4.454-4.357 1.142c-3.043.797-5.765 2.456-7.876 4.798-2.89 3.209-4.36 7.351-4.134 11.666.224 4.31 2.116 8.278 5.326 11.171m55.18 103.1v-12.524c0-.468-.191-.916-.53-1.24-.339-.324-.79-.495-1.261-.474-1.272.055-2.533-.148-3.729-.607-.611-.234-1.305-.101-1.784.346l-20.953 19.574-4.608-3.53c-.761-.583-1.566-1.097-2.39-1.525-2.27-1.18-4.837-1.804-7.424-1.804-4.04 0-7.898 1.47-10.857 4.14-3.212 2.893-5.103 6.862-5.326 11.175-.226 4.315 1.244 8.462 4.139 11.679 2.104 2.337 4.824 3.991 7.864 4.783l4.367 1.138.683 4.463c.476 3.107 1.841 5.989 3.952 8.335 1.303 1.447 2.835 2.632 4.55 3.524 2.267 1.179 4.832 1.801 7.417 1.801 4.04 0 7.9-1.47 10.859-4.14 3.21-2.894 5.103-6.865 5.332-11.184.172-3.297-.645-6.511-2.361-9.294l-2.952-4.781 15.06-14.07c.461-.43.648-1.079.488-1.689-.354-1.348-.534-2.727-.534-4.099m143.41-125.94c-2.11-2.342-4.833-4-7.875-4.798l-4.358-1.142-.683-4.454c-.478-3.114-1.843-5.993-3.945-8.325-1.311-1.454-2.843-2.642-4.556-3.531-2.265-1.179-4.828-1.801-7.414-1.801-4.047 0-7.907 1.47-10.87 4.141-5.794 5.227-7.04 13.844-2.957 20.487l2.933 4.778-12.61 11.781c-.359.335-.557.807-.544 1.298.016.491.234.952.61 1.267 4.14 3.487 7.815 7.419 10.922 11.687.288.398.735.65 1.222.698.055.008.109.008.163.008.432 0 .851-.163 1.17-.461l12.32-11.508 4.609 3.535c.755.579 1.559 1.091 2.391 1.523 2.267 1.179 4.831 1.802 7.415 1.802 4.04 0 7.902-1.472 10.866-4.145 3.21-2.893 5.102-6.861 5.326-11.172.224-4.317-1.244-8.459-4.134-11.667m-2.84 128.3c-2.959-2.669-6.815-4.14-10.857-4.14-2.587 0-5.154.624-7.424 1.804-.825.428-1.63.942-2.39 1.525l-4.609 3.53-20.951-19.573c-.48-.448-1.174-.582-1.785-.346-1.196.458-2.456.666-3.729.607-.472-.024-.923.151-1.261.473-.339.323-.53.771-.53 1.24v12.524c0 1.372-.179 2.75-.533 4.099-.16.61.032 1.258.488 1.689l15.06 14.07-2.952 4.781c-1.717 2.781-2.533 5.996-2.361 9.294.228 4.319 2.122 8.29 5.332 11.184 2.96 2.67 6.815 4.14 10.859 4.14 2.585 0 5.15-.622 7.417-1.801 1.716-.893 3.246-2.077 4.549-3.524 2.11-2.346 3.476-5.227 3.952-8.335l.682-4.463 4.367-1.138c3.04-.792 5.76-2.447 7.864-4.783 2.895-3.218 4.364-7.364 4.139-11.679-.223-4.313-2.114-8.282-5.326-11.176m-52.45-23.464c.725.105 1.458-.141 1.972-.663 10.257-10.397 15.904-23.788 15.904-37.703 0-31.07-27.91-56.42-62.48-57.03-34.567.614-62.48 25.959-62.48 57.03 0 13.915 5.648 27.307 15.903 37.703.515.522 1.246.767 1.973.663.725-.105 1.357-.549 1.704-1.195l5.614-10.482c.163-.307.524-.467.866-.383.342.086.581.392.581.746v32.424c0 3.63 2.1 7.02 5.353 8.628 6.293 3.105 16.587 6.777 30.483 7.127 13.896-.35 24.19-4.02 30.483-7.127 3.253-1.612 5.353-4.998 5.353-8.628v-32.424c0-.354.239-.66.583-.746.342-.084.702.079.866.383l5.614 10.482c.346.646.979 1.091 1.704 1.196m-65.892-23.584c-8.766 0-15.898-8.481-15.898-18.905 0-2.397 1.952-4.347 4.351-4.347h23.08c2.401 0 4.357 1.956 4.36 4.367-.002 10.411-7.132 18.885-15.895 18.885m32.15 21.11l-4.446 3.836c-.234.202-.584.243-.859.098l-4.783-2.509c-.628-.328-.915-.328-1.543 0l-4.783 2.509c-.275.143-.626.103-.859-.098l-4.446-3.836c-.321-.277-.358-.763-.08-1.085l8.772-10.186c1.314-1.532 3.02-1.532 4.336 0l8.772 10.186c.278.322.241.808-.079 1.085m10.43-21.11c-8.762 0-15.894-8.474-15.895-18.885.003-2.411 1.958-4.367 4.36-4.367h23.08c2.4 0 4.351 1.95 4.351 4.347 0 10.424-7.131 18.906-15.897 18.906" fill="url(#3)"/></g></svg>