<svg xmlns="http://www.w3.org/2000/svg" xmlns:xlink="http://www.w3.org/1999/xlink" viewBox="0 0 64 64"><defs><linearGradient xlink:href="#1" id="3" x1="243.91" y1="557.25" x2="231.11" y2="-25.616" gradientUnits="userSpaceOnUse"/><linearGradient gradientUnits="userSpaceOnUse" y2="354.29" x2="-704.05" y1="647.77" x1="-701.19" id="2"><stop stop-color="#93cfff"/><stop offset="1" stop-color="#cde8fe"/></linearGradient><linearGradient xlink:href="#1" id="0" x1="59.12" y1="-13.295" x2="59.15" y2="-37.783" gradientUnits="userSpaceOnUse" gradientTransform="matrix(4.17478 0 0 4.16765-1066.12 447.73)"/><linearGradient id="1"><stop stop-color="#289bf7"/><stop offset="1" stop-color="#71b9f1"/></linearGradient></defs><g transform="matrix(.03922 0 0 .03922 22.2 25.445)"><path d="m-880.52 294.78c-4.626 0-8.349 3.718-8.349 8.335v161.41l461.02 1v-121.2c0-4.618-3.724-8.335-8.35-8.335h-265.48c-8.51.751-9.607-.377-13.812-5.981-5.964-7.968-14.969-21.443-20.84-29.21-4.712-6.805-5.477-6.02-13.292-6.02z" transform="matrix(3.21655 0 0 3.21655 2367.42-1357.37)" fill="url(#0)" color="#000"/><rect y="356.85" x="-890.28" height="295.13" width="463.85" transform="matrix(3.21655 0 0 3.21655 2367.42-1357.37)" fill="url(#2)" stroke="url(#2)" stroke-width="2.378" rx="9.63"/><path d="m239.6-25.505c-168.99 0-306 136.99-306 306 0 169.01 137.01 306 306 306 168.99 0 306-137.01 306-306 0-168.99-136.99-306-306-306m0 158.33c11.404 0 20.619 9.265 20.619 20.669v218.69l85.17-85.17c8.08-8.06 21.14-8.03 29.24.051 8.08 8.06 8.08 21.11 0 29.19l-116.84 116.89c-4.958 4.936-11.774 6.464-18.18 5.328-6.426 1.136-13.221-.371-18.18-5.329l-116.84-116.89c-8.08-8.06-8.08-21.11 0-29.19 8.06-8.08 21.11-8.08 29.19 0l85.17 85.12v-218.69c0-11.404 9.265-20.669 20.669-20.669" fill="url(#3)"/></g></svg>