<svg xmlns="http://www.w3.org/2000/svg" xmlns:xlink="http://www.w3.org/1999/xlink" viewBox="0 0 64 64"><defs><linearGradient xlink:href="#1" id="3" x1="-443.26" y1="455.23" x2="-444.29" y2="267.51" gradientUnits="userSpaceOnUse"/><linearGradient gradientUnits="userSpaceOnUse" y2="354.29" x2="-704.05" y1="647.77" x1="-701.19" id="2"><stop stop-color="#93cfff"/><stop offset="1" stop-color="#cde8fe"/></linearGradient><linearGradient xlink:href="#1" id="0" x1="59.12" y1="-13.295" x2="59.15" y2="-37.783" gradientUnits="userSpaceOnUse" gradientTransform="matrix(4.17478 0 0 4.16765-1066.12 447.73)"/><linearGradient id="1"><stop stop-color="#289bf7"/><stop offset="1" stop-color="#71b9f1"/></linearGradient></defs><g transform="matrix(.12614 0 0 .12614 85.51-10.1)"><path d="m-880.52 294.78c-4.626 0-8.349 3.718-8.349 8.335v161.41l461.02 1v-121.2c0-4.618-3.724-8.335-8.35-8.335h-265.48c-8.51.751-9.607-.377-13.812-5.981-5.964-7.968-14.969-21.443-20.84-29.21-4.712-6.805-5.477-6.02-13.292-6.02z" transform="translate(234.13-140.27)" fill="url(#0)" color="#000"/><rect y="356.85" x="-890.28" height="295.13" width="463.85" transform="translate(234.13-140.27)" fill="url(#2)" stroke="url(#2)" stroke-width="2.378" rx="9.63"/><path d="m-425.89 287.55l-70.924 90.74c-13.298 17.01-9.576 47.32 7.445 60.62 17.02 13.293 47.34 9.572 60.64-7.443l70.924-90.74 8.865-11.343c8.866-11.343 6.384-31.548-4.964-40.41-11.347-8.862-31.56-6.381-40.43 4.962l-8.866 11.343-53.19 68.06-8.866 11.343c-4.433 5.672-3.192 15.774 2.482 20.21 5.674 4.431 15.78 3.191 20.21-2.481l62.06-79.4 11.347 8.862-62.06 79.4c-8.866 11.343-29.08 13.824-40.43 4.962-11.347-8.862-13.829-29.07-4.964-40.41l8.866-11.343 62.06-79.4c13.298-17.01 43.618-20.736 60.64-7.443 17.02 13.293 20.744 43.601 7.446 60.62l-8.866 11.343-70.924 90.74c-17.731 22.686-58.16 27.648-80.85 9.924-22.695-17.724-27.658-58.13-9.927-80.82l70.924-90.74 11.347 8.862" fill="url(#3)"/></g></svg>