<svg xmlns="http://www.w3.org/2000/svg" xmlns:xlink="http://www.w3.org/1999/xlink" viewBox="0 0 64 64"><defs><linearGradient gradientUnits="userSpaceOnUse" y2="-27.875" x2="0" y1="22.12" id="3" xlink:href="#0"/><linearGradient gradientUnits="userSpaceOnUse" y2="354.29" x2="-704.05" y1="647.77" x1="-701.19" id="2"><stop stop-color="#93cfff"/><stop offset="1" stop-color="#cde8fe"/></linearGradient><linearGradient id="0"><stop stop-color="#289bf7"/><stop offset="1" stop-color="#71b9f1"/></linearGradient><linearGradient xlink:href="#0" id="1" x1="59.12" y1="-13.295" x2="59.15" y2="-37.783" gradientUnits="userSpaceOnUse" gradientTransform="matrix(4.17478 0 0 4.16765-1066.12 447.73)"/></defs><g transform="matrix(.54165 0 0 .54166-4.491 37.05)" enable-background="new"><path transform="matrix(.23288 0 0 .23287 220.69-119.71)" d="m-880.52 294.78c-4.626 0-8.349 3.718-8.349 8.335v161.41l461.02 1v-121.2c0-4.618-3.724-8.335-8.35-8.335h-265.48c-8.51.751-9.607-.377-13.812-5.981-5.964-7.968-14.969-21.443-20.84-29.21-4.712-6.805-5.477-6.02-13.292-6.02z" fill="url(#1)" color="#000"/><rect transform="matrix(.23288 0 0 .23287 220.69-119.71)" y="356.85" x="-890.28" height="295.13" width="463.85" fill="url(#2)" stroke="url(#2)" stroke-width="2.378" rx="9.63"/><path d="m90.47-4.01l-20.958-20.957c-1.206-1.207-3.164-1.207-4.372 0l-4.352 4.352 5.52 5.52c1.283-.433 2.754-.142 3.777.88 1.028 1.029 1.317 2.513.872 3.8l5.321 5.32c1.288-.444 2.772-.157 3.801.873 1.437 1.436 1.437 3.764 0 5.202-1.438 1.437-3.765 1.437-5.204 0-1.08-1.082-1.348-2.669-.8-4l-4.963-4.962v13.06c.35.173.681.404.972.695 1.437 1.436 1.437 3.764 0 5.203-1.437 1.436-3.766 1.436-5.201 0-1.437-1.439-1.437-3.766 0-5.203.355-.355.766-.623 1.205-.803v-13.179c-.439-.18-.849-.446-1.205-.803-1.088-1.088-1.35-2.685-.792-4.02l-5.442-5.443-14.371 14.37c-1.207 1.208-1.207 3.166 0 4.373l20.959 20.957c1.207 1.207 3.164 1.207 4.372 0l20.86-20.86c1.207-1.207 1.207-3.166 0-4.373" fill="url(#3)"/></g></svg>