<svg xmlns="http://www.w3.org/2000/svg" xmlns:xlink="http://www.w3.org/1999/xlink" viewBox="0 0 64 64"><defs><linearGradient xlink:href="#1" id="3" x1="71.46" y1="470.49" x2="77.53" y2="268.69" gradientUnits="userSpaceOnUse"/><linearGradient gradientUnits="userSpaceOnUse" y2="354.29" x2="-704.05" y1="647.77" x1="-701.19" id="2"><stop stop-color="#93cfff"/><stop offset="1" stop-color="#cde8fe"/></linearGradient><linearGradient xlink:href="#1" id="0" x1="59.12" y1="-13.295" x2="59.15" y2="-37.783" gradientUnits="userSpaceOnUse" gradientTransform="matrix(4.17478 0 0 4.16765-1066.12 447.73)"/><linearGradient id="1"><stop stop-color="#289bf7"/><stop offset="1" stop-color="#71b9f1"/></linearGradient></defs><g transform="matrix(.12305 0 0 .12305 21.409-9.608)"><path d="m-880.52 294.78c-4.626 0-8.349 3.718-8.349 8.335v161.41l461.02 1v-121.2c0-4.618-3.724-8.335-8.35-8.335h-265.48c-8.51.751-9.607-.377-13.812-5.981-5.964-7.968-14.969-21.443-20.84-29.21-4.712-6.805-5.477-6.02-13.292-6.02z" transform="matrix(1.02512 0 0 1.02512 760.96-147.79)" fill="url(#0)" color="#000"/><rect y="356.85" x="-890.28" height="295.13" width="463.85" transform="matrix(1.02512 0 0 1.02512 760.96-147.79)" fill="url(#2)" stroke="url(#2)" stroke-width="2.378" rx="9.63"/><path d="m51.96 291.11c-6.583 1.862-11.883 9.268-11.883 16.462v114.06c-6.676-3.689-15.249-5.181-24.14-2.744-16.04 4.399-26.09 18.615-22.652 31.748 3.438 13.13 19.239 20.469 35.28 16.07 12.796-3.509 21.617-13.438 23.02-23.909l.371-107.79 83.18-23.517v85.05c-6.676-3.689-15.249-5.181-24.14-2.744-16.04 4.399-26.09 18.615-22.652 31.748 3.438 13.13 19.239 20.469 35.28 16.07 12.796-3.509 21.617-13.439 23.02-23.909l.371-140.32c0-5.395-3.159-9.432-7.427-10.191l-87.64 23.909" fill="url(#3)"/></g></svg>