<svg xmlns="http://www.w3.org/2000/svg" xmlns:xlink="http://www.w3.org/1999/xlink" viewBox="0 0 64 64"><defs><linearGradient gradientUnits="userSpaceOnUse" y2="354.29" x2="-704.05" y1="647.77" x1="-701.19" id="3"><stop stop-color="#93cfff"/><stop offset="1" stop-color="#cde8fe"/></linearGradient><linearGradient xlink:href="#1" id="4" x1="514.64" y1="128.74" x2="504.97" y2="-331.02" gradientUnits="userSpaceOnUse"/><linearGradient xlink:href="#1" id="2" x1="59.12" y1="-13.295" x2="59.15" y2="-37.783" gradientUnits="userSpaceOnUse" gradientTransform="matrix(4.17478 0 0 4.16765-1066.12 447.73)"/><linearGradient xlink:href="#1" id="0" gradientUnits="userSpaceOnUse" x1="462" x2="497.7"/><linearGradient id="1"><stop stop-color="#289bf7"/><stop offset="1" stop-color="#71b9f1"/></linearGradient></defs><g transform="matrix(.04851 0 0 .04851 7.739 41.702)" fill="url(#0)"><path d="m-880.52 294.78c-4.626 0-8.349 3.718-8.349 8.335v161.41l461.02 1v-121.2c0-4.618-3.724-8.335-8.35-8.335h-265.48c-8.51.751-9.607-.377-13.812-5.981-5.964-7.968-14.969-21.443-20.84-29.21-4.712-6.805-5.477-6.02-13.292-6.02z" transform="matrix(2.6001 0 0 2.6001 2211.78-1432.43)" fill="url(#2)" color="#000"/><rect y="356.85" x="-890.28" height="295.13" width="463.85" transform="matrix(2.6001 0 0 2.6001 2211.78-1432.43)" fill="url(#3)" stroke="url(#3)" stroke-width="2.378" rx="9.63"/><path d="m293.17-319.25l-68.52 6.62v282.23l67.76-10.23v-120.36l91.23 133.51 71.45-22.707-93.44-128.38 94.16-121.08-72.896-16.689-90.51 121.08.762-124.01m-155.34 68.803c-.775.08-1.623.298-2.207.883l-26.92 26.96c-1.131 1.135-1.272 2.879-.441 4.253l31.453 51.954c-5.589 9.395-10.124 19.485-13.319 30.17l-57.811 11.995c-1.609.333-2.808 1.881-2.808 3.53v38.03c0 1.609 1.251 2.99 2.808 3.37l56.05 13.64c2.998 12.37 7.63 24.2 13.761 34.983l-32.496 49.47c-.906 1.382-.728 3.247.441 4.413l26.96 26.92c1.135 1.131 2.882 1.275 4.253.441l50.911-30.891c9.992 5.769 20.819 10.402 32.22 13.48l11.875 57.09c.333 1.614 1.722 2.768 3.37 2.768h38.07c1.597 0 2.95-1.045 3.33-2.608l14.08-57.41c11.754-3.169 22.848-7.847 33.1-13.881l50.19 32.937c1.384.902 3.24.725 4.413-.441l26.759-26.96c1.138-1.136 1.436-2.882.602-4.253l-18.294-30.13-6.02 1.886c-.867.267-1.811-.129-2.327-.883 0 0-11.554-16.992-26.639-39.08-18.04 35.3-54.832 59.42-97.21 59.42-60.21 0-109.08-48.828-109.08-109.04 0-44.29 26.502-82.35 64.43-99.41v-28.12c-6.903 2.416-13.601 5.333-19.939 8.786-.012-.007.012-.113 0-.121l-51.35-33.7c-.691-.452-1.432-.521-2.207-.441m756.4 100.14c-11.11 0-20.55 3.898-28.324 11.675-7.774 7.777-11.675 17.216-11.675 28.324 0 11.11 3.898 20.547 11.675 28.324 7.777 7.774 17.216 11.675 28.324 11.675 11.11 0 20.547-3.9 28.324-11.675 7.774-7.777 11.675-17.211 11.675-28.324 0-11.11-3.9-20.55-11.675-28.324-7.774-7.774-17.214-11.675-28.324-11.675m-189.88.08c-11.11 0-20.55 3.858-28.324 11.634-7.774 7.777-11.634 17.216-11.634 28.324 0 11.11 3.858 20.547 11.634 28.324 7.777 7.774 17.216 11.675 28.324 11.675 11.11 0 20.547-3.9 28.324-11.675 7.774-7.777 11.675-17.211 11.675-28.324 0-11.11-3.9-20.55-11.675-28.324-7.774-7.774-17.214-11.634-28.324-11.634m93.8 0c-11.11 0-20.55 3.858-28.324 11.634-7.774 7.777-11.634 17.216-11.634 28.324 0 11.11 3.858 20.547 11.634 28.324 7.777 7.774 17.216 11.675 28.324 11.675 11.11 0 20.547-3.9 28.324-11.675 7.774-7.777 11.675-17.211 11.675-28.324 0-11.11-3.9-20.55-11.675-28.324-7.774-7.774-17.214-11.634-28.324-11.634" fill="url(#4)"/></g></svg>