<?xml version="1.0" encoding="UTF-8" standalone="no"?>
<!-- Created with Inkscape (http://www.inkscape.org/) -->

<svg
   xmlns:dc="http://purl.org/dc/elements/1.1/"
   xmlns:cc="http://creativecommons.org/ns#"
   xmlns:rdf="http://www.w3.org/1999/02/22-rdf-syntax-ns#"
   xmlns:svg="http://www.w3.org/2000/svg"
   xmlns="http://www.w3.org/2000/svg"
   xmlns:sodipodi="http://sodipodi.sourceforge.net/DTD/sodipodi-0.dtd"
   xmlns:inkscape="http://www.inkscape.org/namespaces/inkscape"
   width="16"
   height="16"
   id="svg2"
   version="1.1"
   inkscape:version="0.91 r13725"
   viewBox="0 0 16 16"
   sodipodi:docname="drive-removable-media-usb-pendrive.svg">
  <defs
     id="defs4">
    <linearGradient
       id="linearGradient4737">
      <stop
         style="stop-color:#9e9e9e;stop-opacity:1"
         offset="0"
         id="stop4739" />
      <stop
         style="stop-color:#969696;stop-opacity:1;"
         offset="1"
         id="stop4741" />
    </linearGradient>
    <linearGradient
       id="linearGradient3923">
      <stop
         id="stop3925"
         offset="0"
         style="stop-color:#c8c8c8;stop-opacity:1;" />
      <stop
         id="stop3927"
         offset="1"
         style="stop-color:#969696;stop-opacity:1;" />
    </linearGradient>
    <linearGradient
       id="linearGradient3911">
      <stop
         id="stop3913"
         offset="0"
         style="stop-color:#828282;stop-opacity:1;" />
      <stop
         id="stop3915"
         offset="1"
         style="stop-color:#c8c8c8;stop-opacity:1;" />
    </linearGradient>
    <linearGradient
       id="linearGradient3781">
      <stop
         style="stop-color:#dcdcdc;stop-opacity:1;"
         offset="0"
         id="stop3783" />
      <stop
         style="stop-color:#f0f0f0;stop-opacity:1;"
         offset="1"
         id="stop3785" />
    </linearGradient>
    <linearGradient
       id="linearGradient3780">
      <stop
         id="stop3782"
         offset="0"
         style="stop-color:#b2b2b2;stop-opacity:1" />
      <stop
         id="stop3784"
         offset="1"
         style="stop-color:#afafaf;stop-opacity:1" />
    </linearGradient>
    <linearGradient
       id="linearGradient3687">
      <stop
         style="stop-color:#2c2c2c;stop-opacity:1"
         offset="0"
         id="stop3689" />
      <stop
         id="stop3691"
         offset="0.11054216"
         style="stop-color:#414141;stop-opacity:1" />
      <stop
         id="stop3693"
         offset="0.29001436"
         style="stop-color:#474747;stop-opacity:1" />
      <stop
         id="stop3695"
         offset="0.5118711"
         style="stop-color:#4e4e4e;stop-opacity:1" />
      <stop
         id="stop3699"
         offset="0.75173318"
         style="stop-color:#3c3c3c;stop-opacity:1;" />
      <stop
         style="stop-color:#323232;stop-opacity:1"
         offset="0.89659214"
         id="stop3701" />
      <stop
         style="stop-color:#272727;stop-opacity:1"
         offset="1"
         id="stop3703" />
    </linearGradient>
  </defs>
  <sodipodi:namedview
     id="base"
     pagecolor="#ffffff"
     bordercolor="#666666"
     borderopacity="1.0"
     inkscape:pageopacity="0.0"
     inkscape:pageshadow="2"
     inkscape:zoom="18.194143"
     inkscape:cx="12.323338"
     inkscape:cy="9.5778231"
     inkscape:document-units="px"
     inkscape:current-layer="g4399"
     showgrid="false"
     inkscape:showpageshadow="false"
     borderlayer="true"
     units="px"
     inkscape:window-width="1366"
     inkscape:window-height="685"
     inkscape:window-x="0"
     inkscape:window-y="0"
     inkscape:window-maximized="1">
    <inkscape:grid
       type="xygrid"
       id="grid4062" />
    <sodipodi:guide
       position="2,14.000017"
       orientation="12,0"
       id="guide4066" />
    <sodipodi:guide
       position="2,2.0000174"
       orientation="0,12"
       id="guide4068" />
    <sodipodi:guide
       position="14,2.0000174"
       orientation="-12,0"
       id="guide4070" />
    <sodipodi:guide
       position="14,14.000017"
       orientation="0,-12"
       id="guide4072" />
  </sodipodi:namedview>
  <metadata
     id="metadata7">
    <rdf:RDF>
      <cc:Work
         rdf:about="">
        <dc:format>image/svg+xml</dc:format>
        <dc:type
           rdf:resource="http://purl.org/dc/dcmitype/StillImage" />
        <dc:title />
      </cc:Work>
    </rdf:RDF>
  </metadata>
  <g
     inkscape:label="Capa 1"
     inkscape:groupmode="layer"
     id="layer1"
     transform="translate(0,-1036.3622)">
    <g
       id="g4164"
       transform="matrix(0.33041456,0,0,0.33041456,1.9623858,1038.6839)">
      <g
         id="g4399"
         transform="matrix(1.1483543,0,0,1.1483543,-2.2928463,-1.978147)">
        <g
           id="g4189"
           transform="translate(0,0.24505631)">
          <g
             id="g4140"
             style="fill:#4d4d4d;fill-opacity:1">
            <path
               id="path4142"
               d="m 4.8,32.019455 c -0.5,0 -0.9,-0.343969 -1,-0.77393 L 3.1,26 l 8.1,0 13.6,0 8.1,0 -0.7,5.245525 c -0.1,0.429961 -0.5,0.77393 -1,0.77393 z"
               inkscape:connector-curvature="0"
               style="opacity:1;fill:none;fill-opacity:1"
               sodipodi:nodetypes="sccccccss" />
            <g
               id="g4144"
               style="fill:#4d4d4d;fill-opacity:1"
               transform="matrix(1,0,0,0.82171911,0,4.4570224)">
              <path
                 id="path4146"
                 d="m 31.8,27 -0.5,5 -26.5,0 -0.5,-5 6.4,0 14.8,0 6.3,0 M 34,25 24,25 2,25 2.4967786,32.2 c 0.1,1 0.6978671,1.8 1.6978671,1.8 l 27.7106433,0 c 1,0 1.597867,-0.8 1.697867,-1.8 z"
                 inkscape:connector-curvature="0"
                 sodipodi:nodetypes="cccccccccccsscc"
                 style="fill:#ffffff;fill-opacity:1" />
            </g>
          </g>
          <path
             inkscape:connector-curvature="0"
             id="path4148"
             d="m 6.636917,0.49005148 c -1.0630063,0 -1.6993958,0.74268982 -1.8056965,1.80569612 l -2.8672268,22.6423374 0.2134005,1.06153 8.2897868,0 14.883315,0 7.862987,0 0.6402,-1.06153 L 30.980986,2.2957476 C 30.768384,1.2327413 30.243768,0.49005148 29.180762,0.49005148 l -22.543845,0 z M 17.936198,4.5118294 c 0.105292,2.617e-4 0.203252,0.042281 0.251703,0.1094363 l 1.811168,2.5279748 c 0.04511,0.063059 0.04049,0.1362877 -0.01094,0.196985 -0.05101,0.060399 -0.142293,0.098615 -0.24076,0.098492 l -0.919264,0 -0.01094,5.2146325 2.637411,-1.269459 0.0054,-1.367952 -0.344724,0 c -0.197298,5.4e-5 -0.361946,-0.1151756 -0.361139,-0.2571754 l 0.0054,-1.7947526 c 3.72e-4,-0.068309 0.03683,-0.1324101 0.103965,-0.1805696 0.06707,-0.048122 0.162315,-0.076555 0.257175,-0.076605 l 2.489671,0.00548 c 0.197403,9.55e-5 0.356269,0.115026 0.355669,0.2571749 l -0.0054,1.7947528 c -3.44e-4,0.068328 -0.03689,0.1324475 -0.103963,0.1805692 -0.06713,0.048158 -0.156842,0.076553 -0.251703,0.076603 l -0.350195,0 -0.0054,1.707205 c -3.36e-4,0.173221 -0.09574,0.334414 -0.262647,0.45416 -0.04059,0.02912 -0.08283,0.05863 -0.131323,0.08208 l -4.043665,1.947964 -0.01094,4.240651 c 0.596709,0.23248 1.008296,0.68122 1.006811,1.203797 -0.0018,0.757831 -0.856135,1.369241 -1.90966,1.367952 -1.05233,-0.0016 -1.90556,-0.615836 -1.904189,-1.373424 0.0012,-0.522671 0.414492,-0.973116 1.012285,-1.203797 l 0.0054,-2.227026 -4.235178,-2.062871 C 12.527983,14.043809 12.376087,13.843279 12.376783,13.62787 l 0.0054,-1.428142 c -0.439874,-0.210407 -0.729144,-0.570756 -0.72775,-0.979453 0.0019,-0.648023 0.73129,-1.1724 1.630598,-1.170967 0.901024,8e-4 1.627093,0.528396 1.625128,1.176439 -10e-4,0.408398 -0.292371,0.770157 -0.733223,0.979453 l 0,1.083417 2.839868,1.378896 0.01642,-7.2282565 -0.919264,0 c -0.09841,-1.221e-4 -0.189621,-0.037668 -0.240758,-0.098492 -0.0509,-0.060619 -0.05617,-0.1342061 -0.01094,-0.1969849 l 1.827584,-2.522503 c 0.04869,-0.067353 0.140808,-0.1092681 0.246231,-0.1094364 z"
             style="fill:#ffffff;fill-opacity:1;stroke:none;stroke-width:0.75886595;stroke-linejoin:round;stroke-miterlimit:10;stroke-opacity:1" />
        </g>
      </g>
    </g>
    <g
       transform="translate(-415.54483,508.82119)"
       id="layer1-6"
       inkscape:label="Capa 1">
      <g
         transform="translate(396.18792,-508.13499)"
         id="layer1-3"
         inkscape:label="Capa 1">
        <g
           inkscape:label="Capa 1"
           id="layer1-6-1"
           transform="translate(-396.09825,508.10667)">
          <g
             style="fill:#4d4d4d;fill-opacity:1;stroke:none;stroke-width:4.8738122;stroke-miterlimit:4;stroke-dasharray:none"
             transform="matrix(0.00927984,-0.0066577,0.00924792,0.00668069,419.12343,534.38095)"
             id="g4782">
            <g
               style="fill:#4d4d4d;fill-opacity:1;stroke:none;stroke-width:4.8738122;stroke-miterlimit:4;stroke-dasharray:none"
               id="g4746" />
            <g
               style="fill:#4d4d4d;fill-opacity:1;stroke:none;stroke-width:4.8738122;stroke-miterlimit:4;stroke-dasharray:none"
               id="g4748" />
            <g
               style="fill:#4d4d4d;fill-opacity:1;stroke:none;stroke-width:4.8738122;stroke-miterlimit:4;stroke-dasharray:none"
               id="g4750" />
            <g
               style="fill:#4d4d4d;fill-opacity:1;stroke:none;stroke-width:4.8738122;stroke-miterlimit:4;stroke-dasharray:none"
               id="g4752" />
            <g
               style="fill:#4d4d4d;fill-opacity:1;stroke:none;stroke-width:4.8738122;stroke-miterlimit:4;stroke-dasharray:none"
               id="g4754" />
            <g
               style="fill:#4d4d4d;fill-opacity:1;stroke:none;stroke-width:4.8738122;stroke-miterlimit:4;stroke-dasharray:none"
               id="g4756" />
            <g
               style="fill:#4d4d4d;fill-opacity:1;stroke:none;stroke-width:4.8738122;stroke-miterlimit:4;stroke-dasharray:none"
               id="g4758" />
            <g
               style="fill:#4d4d4d;fill-opacity:1;stroke:none;stroke-width:4.8738122;stroke-miterlimit:4;stroke-dasharray:none"
               id="g4760" />
            <g
               style="fill:#4d4d4d;fill-opacity:1;stroke:none;stroke-width:4.8738122;stroke-miterlimit:4;stroke-dasharray:none"
               id="g4762" />
            <g
               style="fill:#4d4d4d;fill-opacity:1;stroke:none;stroke-width:4.8738122;stroke-miterlimit:4;stroke-dasharray:none"
               id="g4764" />
            <g
               style="fill:#4d4d4d;fill-opacity:1;stroke:none;stroke-width:4.8738122;stroke-miterlimit:4;stroke-dasharray:none"
               id="g4766" />
            <g
               style="fill:#4d4d4d;fill-opacity:1;stroke:none;stroke-width:4.8738122;stroke-miterlimit:4;stroke-dasharray:none"
               id="g4768" />
            <g
               style="fill:#4d4d4d;fill-opacity:1;stroke:none;stroke-width:4.8738122;stroke-miterlimit:4;stroke-dasharray:none"
               id="g4770" />
            <g
               style="fill:#4d4d4d;fill-opacity:1;stroke:none;stroke-width:4.8738122;stroke-miterlimit:4;stroke-dasharray:none"
               id="g4772" />
            <g
               style="fill:#4d4d4d;fill-opacity:1;stroke:none;stroke-width:4.8738122;stroke-miterlimit:4;stroke-dasharray:none"
               id="g4774" />
          </g>
        </g>
      </g>
    </g>
  </g>
</svg>
