<svg xmlns="http://www.w3.org/2000/svg" viewBox="0 0 22 22"><path d="m15.927 1040.17v-1.998c0-2.712-2.206-4.919-4.919-4.919-2.712 0-4.919 2.207-4.919 4.919v1.998c-.388.081-.68.426-.68.837v7.488c0 .472.384.855.856.855h9.485c.472 0 .856-.384.856-.855v-7.488c0-.411-.292-.756-.68-.837m-3.769 6.383c.017.093-.045.168-.139.168h-1.997c-.094 0-.157-.076-.139-.168l.318-1.685c-.241-.219-.392-.536-.392-.887 0-.663.537-1.2 1.2-1.2.663 0 1.2.537 1.2 1.2 0 .342-.143.65-.372.869zm2.058-6.402h-6.415v-1.98c0-1.769 1.439-3.207 3.207-3.207 1.769 0 3.207 1.439 3.207 3.207z" fill="#fff" transform="translate(.057-1030.28)"/></svg>