<?xml version="1.0" encoding="UTF-8" standalone="no"?>
<!-- Created with Inkscape (http://www.inkscape.org/) -->

<svg
   xmlns:dc="http://purl.org/dc/elements/1.1/"
   xmlns:cc="http://creativecommons.org/ns#"
   xmlns:rdf="http://www.w3.org/1999/02/22-rdf-syntax-ns#"
   xmlns:svg="http://www.w3.org/2000/svg"
   xmlns="http://www.w3.org/2000/svg"
   xmlns:sodipodi="http://sodipodi.sourceforge.net/DTD/sodipodi-0.dtd"
   xmlns:inkscape="http://www.inkscape.org/namespaces/inkscape"
   width="22"
   height="22"
   id="svg2"
   version="1.1"
   inkscape:version="0.91 r13725"
   sodipodi:docname="emblem-locked.svg">
  <defs
     id="defs4" />
  <sodipodi:namedview
     id="base"
     pagecolor="#ffffff"
     bordercolor="#666666"
     borderopacity="1.0"
     inkscape:pageopacity="0.0"
     inkscape:pageshadow="2"
     inkscape:zoom="22.95535"
     inkscape:cx="4.6845466"
     inkscape:cy="11.519722"
     inkscape:document-units="px"
     inkscape:current-layer="layer1"
     showgrid="true"
     inkscape:window-width="1366"
     inkscape:window-height="633"
     inkscape:window-x="0"
     inkscape:window-y="33"
     inkscape:window-maximized="1"
     inkscape:showpageshadow="false">
    <inkscape:grid
       type="xygrid"
       id="grid4114" />
    <sodipodi:guide
       position="2,20.000017"
       orientation="18,0"
       id="guide4120" />
    <sodipodi:guide
       position="2,2.0000174"
       orientation="0,18"
       id="guide4122" />
    <sodipodi:guide
       position="20,2.0000174"
       orientation="-18,0"
       id="guide4124" />
    <sodipodi:guide
       position="20,20.000017"
       orientation="0,-18"
       id="guide4126" />
    <sodipodi:guide
       position="3,19.000017"
       orientation="16,0"
       id="guide4128" />
    <sodipodi:guide
       position="3,3.0000174"
       orientation="0,16"
       id="guide4130" />
    <sodipodi:guide
       position="19,3.0000174"
       orientation="-16,0"
       id="guide4132" />
    <sodipodi:guide
       position="19,19.000017"
       orientation="0,-16"
       id="guide4134" />
  </sodipodi:namedview>
  <metadata
     id="metadata7">
    <rdf:RDF>
      <cc:Work
         rdf:about="">
        <dc:format>image/svg+xml</dc:format>
        <dc:type
           rdf:resource="http://purl.org/dc/dcmitype/StillImage" />
        <dc:title />
      </cc:Work>
    </rdf:RDF>
  </metadata>
  <g
     inkscape:label="Capa 1"
     inkscape:groupmode="layer"
     id="layer1"
     transform="translate(0,-1030.3622)">
    <g
       id="layer1-2"
       inkscape:label="Capa 1"
       transform="translate(0.05674466,0.08091695)"
       style="fill:#ffffff;fill-opacity:1">
      <path
         style="fill:#ffffff;fill-opacity:1"
         inkscape:connector-curvature="0"
         id="path3"
         d="m 15.926846,1040.1714 0,-1.9983 c 0,-2.7121 -2.206463,-4.9187 -4.918609,-4.9187 -2.7121476,0 -4.9186118,2.2066 -4.9186118,4.9187 l 0,1.9983 c -0.387614,0.081 -0.6796621,0.4259 -0.6796621,0.8373 l 0,7.4883 c 0,0.4717 0.3838071,0.8555 0.8555666,0.8555 l 9.4853693,0 c 0.471759,0 0.855566,-0.3838 0.855566,-0.8555 l 0,-7.4883 c 0,-0.4114 -0.292003,-0.7559 -0.679619,-0.8373 z m -3.769499,6.3834 c 0.01745,0.093 -0.04526,0.1682 -0.139371,0.1682 l -1.996764,0 c -0.094111,0 -0.1568262,-0.076 -0.1393725,-0.1682 l 0.3179295,-1.6849 c -0.2406715,-0.2195 -0.3917217,-0.5357 -0.3917217,-0.887 0,-0.6628 0.5373387,-1.2002 1.2001897,-1.2002 0.66285,0 1.200189,0.5374 1.200189,1.2002 0,0.3418 -0.143137,0.6499 -0.372472,0.8686 z m 2.058366,-6.4016 -6.4149539,0 0,-1.9801 c 0,-1.7686 1.4388492,-3.2074 3.2074779,-3.2074 1.768626,0 3.207476,1.4389 3.207476,3.2074 z"
         sodipodi:nodetypes="cssscssssssccssccsssccccsssc" />
    </g>
  </g>
</svg>
