<?xml version="1.0" standalone="no"?>
<!DOCTYPE svg PUBLIC "-//W3C//DTD SVG 20010904//EN" "http://www.w3.org/TR/2001/REC-SVG-20010904/DTD/svg10.dtd">
<!-- Created using Karbon, part of Calligra: http://www.calligra.org/karbon -->
<svg xmlns="http://www.w3.org/2000/svg" xmlns:xlink="http://www.w3.org/1999/xlink" width="205.6pt" height="128.8pt">
<defs/>
<g id="layer0">
  <rect id="hint-tile-center" transform="translate(5, 6)" fill="#ff00a8" width="8.00000000000pt" height="8.00000000000pt" rx="4.00000000000pt" ry="4.00000000000pt"/>
  <g id="normal-bottomleft" transform="translate(39.375, 152.375)" fill="none">
   <path id="rect3124" transform="translate(0.625, 0.625)" fill="#ff00a8" opacity="0.00000000000" d="M0 0L0 8L8 8L8 0Z"/>
  </g>
  <g id="normal-left" transform="translate(39.375, 144.375)" fill="none">
   <path id="path3143" transform="translate(0.625, 0.625)" fill="#ff00a8" opacity="0.00000000000" d="M0 0L0 8L8 8L8 0Z"/>
  </g>
  <g id="normal-topleft" transform="translate(39.375, 136.375)" fill="none">
   <path id="path3145" transform="translate(0.625, 0.625)" fill="#ff00a8" opacity="0.00000000000" d="M0 0L0 8L8 8L8 0Z"/>
  </g>
  <g id="normal-top" transform="translate(47.375, 136.375)" fill="none">
   <path id="path3147" transform="translate(0.625, 0.625)" fill="#ff00a8" opacity="0.00000000000" d="M0 0L0 8L8 8L8 0Z"/>
  </g>
  <g id="normal-topright" transform="translate(55.375, 136.375)" fill="none">
   <path id="path3149" transform="translate(0.625, 0.625)" fill="#ff00a8" opacity="0.00000000000" d="M0 0L0 8L8 8L8 0Z"/>
  </g>
  <g id="normal-right" transform="translate(55.375, 144.375)" fill="none">
   <path id="path3151" transform="translate(0.625, 0.625)" fill="#ff00a8" opacity="0.00000000000" d="M0 0L0 8L8 8L8 0Z"/>
  </g>
  <g id="normal-bottomright" transform="translate(55.375, 152.375)" fill="none">
   <path id="path3153" transform="translate(0.625, 0.625)" fill="#ff00a8" opacity="0.00000000000" d="M0 0L0 8L8 8L8 0Z"/>
  </g>
  <g id="normal-bottom" transform="translate(47.375, 152.375)" fill="none">
   <path id="path3155" transform="translate(0.625, 0.625)" fill="#ff00a8" opacity="0.00000000000" d="M0 0L0 8L8 8L8 0Z"/>
  </g>
  <g id="normal-center" transform="translate(47.375, 144.375)" fill="none">
   <path id="path3157" transform="translate(0.625, 0.625)" fill="#ff00a8" opacity="0.00000000000" d="M0 0L0 8L8 8L8 0Z"/>
  </g>
  <g id="hover-bottomleft" transform="translate(-0.625, 152.375)" fill="none">
   <path id="path3977" transform="translate(0.625, 0.625)" fill="#0a7dca" fill-opacity="0.33333333333" opacity="0.20000000000" d="M0 0L0 8L8 8L8 0Z"/>
   <path id="path4213" transform="translate(0.625, 5.625)" fill="#0a7dca" fill-opacity="0.47450980392" d="M0 0L0 3L8 3L8 0Z"/>
  </g>
  <g id="hover-left" transform="translate(-0.625, 144.375)" fill="none">
   <path id="path3981" transform="translate(0.625, 0.625)" fill="#0a73ca" fill-opacity="0.38823529412" opacity="0.20000000000" d="M0 0L0 8L8 8L8 0Z"/>
  </g>
  <g id="hover-topleft" transform="translate(-0.625, 136.375)" fill="none">
   <path id="path3985" transform="translate(0.625, 0.625)" fill="#0a73ca" fill-opacity="0.38823529412" opacity="0.20000000000" d="M0 0L0 8L8 8L8 0Z"/>
  </g>
  <g id="hover-top" transform="translate(7.375, 136.375)" fill="none">
   <path id="path3989" transform="translate(0.625, 0.625)" fill="#0a73ca" fill-opacity="0.38823529412" opacity="0.20000000000" d="M0 0L0 8L8 8L8 0Z"/>
  </g>
  <g id="hover-topright" transform="translate(15.375, 136.375)" fill="none">
   <path id="path3993" transform="translate(0.625, 0.625)" fill="#0a73ca" fill-opacity="0.38823529412" opacity="0.20000000000" d="M0 0L0 8L8 8L8 0Z"/>
  </g>
  <g id="hover-right" transform="translate(15.375, 144.375)" fill="none">
   <path id="path3997" transform="translate(0.625, 0.625)" fill="#0a73ca" fill-opacity="0.38823529412" opacity="0.20000000000" d="M0 0L0 8L8 8L8 0Z"/>
  </g>
  <g id="hover-bottomright" transform="translate(15.375, 152.375)" fill="none">
   <path id="path4001" transform="translate(0.625, 0.625)" fill="#0a7dca" fill-opacity="0.33333333333" opacity="0.20000000000" d="M0 0L0 8L8 8L8 0Z"/>
   <path id="path4215" transform="translate(0.625, 5.625)" fill="#0a7dca" fill-opacity="0.47450980392" d="M0 0L0 3L8 3L8 0Z"/>
  </g>
  <g id="hover-bottom" transform="translate(7.375, 152.375)" fill="none">
   <path id="path4005" transform="translate(0.625, 0.625)" fill="#0a7dca" fill-opacity="0.33333333333" opacity="0.20000000000" d="M0 0L0 8L8 8L8 0Z"/>
   <path id="path4217" transform="translate(0.625, 5.625)" fill="#0a7dca" fill-opacity="0.47450980392" d="M0 0L0 3L8 3L8 0Z"/>
  </g>
  <g id="hover-center" transform="translate(7.375, 144.375)" fill="none">
   <path id="path4009" transform="translate(0.625, 0.625)" fill="#0a73ca" fill-opacity="0.38823529412" opacity="0.20000000000" d="M0 0L0 8L8 8L8 0Z"/>
  </g>
  <g id="selected-bottomleft" transform="translate(-0.625, 112.375)" fill="none">
   <path id="path4049" transform="translate(0.625, 0.625)" fill="#55acee" opacity="0.20000000000" d="M0 0L0 8L8 8L8 0Z"/>
   <path id="path4219" transform="translate(0.625, 5.625)" fill="#55acee" d="M0 0L0 3L8 3L8 0Z"/>
  </g>
  <g id="selected-left" transform="translate(-0.625, 104.375)" fill="none">
   <path id="path4053" transform="translate(0.625, 0.625)" fill="#55acee" opacity="0.20000000000" d="M0 0L0 8L8 8L8 0Z"/>
  </g>
  <g id="selected-topleft" transform="translate(-0.625, 96.375)" fill="none">
   <path id="path4057" transform="translate(0.625, 0.625)" fill="#55acee" opacity="0.20000000000" d="M0 0L0 8L8 8L8 0Z"/>
  </g>
  <g id="selected-top" transform="translate(7.375, 96.375)" fill="none">
   <path id="path4061" transform="translate(0.625, 0.625)" fill="#55acee" opacity="0.20000000000" d="M0 0L0 8L8 8L8 0Z"/>
  </g>
  <g id="selected-topright" transform="translate(15.375, 96.375)" fill="none">
   <path id="path4065" transform="translate(0.625, 0.625)" fill="#55acee" opacity="0.20000000000" d="M0 0L0 8L8 8L8 0Z"/>
  </g>
  <g id="selected-right" transform="translate(15.375, 104.375)" fill="none">
   <path id="path4069" transform="translate(0.625, 0.625)" fill="#55acee" opacity="0.20000000000" d="M0 0L0 8L8 8L8 0Z"/>
  </g>
  <g id="selected-bottomright" transform="translate(15.375, 112.375)" fill="none">
   <path id="path4073" transform="translate(0.625, 0.625)" fill="#55acee" opacity="0.20000000000" d="M0 0L0 8L8 8L8 0Z"/>
   <path id="path4221" transform="translate(0.625, 5.625)" fill="#55acee" d="M0 0L0 3L8 3L8 0Z"/>
  </g>
  <g id="selected-bottom" transform="translate(7.375, 112.375)" fill="none">
   <path id="path4077" transform="translate(0.625, 0.625)" fill="#55acee" opacity="0.20000000000" d="M0 0L0 8L8 8L8 0Z"/>
   <path id="path4223" transform="translate(0.625, 5.625)" fill="#55acee" d="M0 0L0 3L8 3L8 0Z"/>
  </g>
  <g id="selected-center" transform="translate(7.375, 104.375)" fill="none">
   <path id="path4081" transform="translate(0.625, 0.625)" fill="#55acee" opacity="0.20000000000" d="M0 0L0 8L8 8L8 0Z"/>
  </g>
  <g id="selected+hover-bottomleft" transform="translate(39.375, 112.375)" fill="none">
   <path id="path4085" transform="translate(0.625, 0.625)" fill="#55acee" opacity="0.20000000000" d="M0 0L0 8L8 8L8 0Z"/>
   <path id="path4207" transform="translate(0.625, 5.625)" fill="#55acee" d="M0 0L0 3L8 3L8 0Z"/>
  </g>
  <g id="selected+hover-left" transform="translate(39.375, 104.375)" fill="none">
   <path id="path4089" transform="translate(0.625, 0.625)" fill="#55acee" opacity="0.20000000000" d="M0 0L0 8L8 8L8 0Z"/>
  </g>
  <g id="selected+hover-topleft" transform="translate(39.375, 96.375)" fill="none">
   <path id="path4093" transform="translate(0.625, 0.625)" fill="#55acee" opacity="0.20000000000" d="M0 0L0 8L8 8L8 0Z"/>
  </g>
  <g id="selected+hover-top" transform="translate(47.375, 96.375)" fill="none">
   <path id="path4097" transform="translate(0.625, 0.625)" fill="#55acee" opacity="0.20000000000" d="M0 0L0 8L8 8L8 0Z"/>
  </g>
  <g id="selected+hover-topright" transform="translate(55.375, 96.375)" fill="none">
   <path id="path4101" transform="translate(0.625, 0.625)" fill="#55acee" opacity="0.20000000000" d="M0 0L0 8L8 8L8 0Z"/>
  </g>
  <g id="selected+hover-right" transform="translate(55.375, 104.375)" fill="none">
   <path id="path4105" transform="translate(0.625, 0.625)" fill="#55acee" opacity="0.20000000000" d="M0 0L0 8L8 8L8 0Z"/>
  </g>
  <g id="selected+hover-bottomright" transform="translate(55.375, 112.375)" fill="none">
   <path id="path4109" transform="translate(0.625, 0.625)" fill="#55acee" opacity="0.20000000000" d="M0 0L0 8L8 8L8 0Z"/>
   <path id="path4209" transform="translate(0.625, 5.625)" fill="#55acee" d="M0 0L0 3L8 3L8 0Z"/>
  </g>
  <g id="selected+hover-bottom" transform="translate(47.375, 112.375)" fill="none">
   <path id="path4113" transform="translate(0.625, 0.625)" fill="#55acee" opacity="0.20000000000" d="M0 0L0 8L8 8L8 0Z"/>
   <path id="path4211" transform="translate(0.625, 5.625)" fill="#55acee" d="M0 0L0 3L8 3L8 0Z"/>
  </g>
  <g id="selected+hover-center" transform="translate(47.375, 104.375)" fill="none">
   <path id="path4117" transform="translate(0.625, 0.625)" fill="#55acee" opacity="0.20000000000" d="M0 0L0 8L8 8L8 0Z"/>
  </g>
 </g>
</svg>
