<svg xmlns="http://www.w3.org/2000/svg" viewBox="0 0 64 64"><defs><linearGradient id="0" x1="773.78" y1="214.78" x2="773.58" y2="201.09" gradientUnits="userSpaceOnUse"><stop stop-color="#dc3c30"/><stop offset="1" stop-color="#ff786d"/></linearGradient><linearGradient id="1" x1="773.71" y1="204.53" x2="773.21" y2="159.14" gradientUnits="userSpaceOnUse"><stop stop-color="#dbdbdb"/><stop offset="1" stop-color="#fcf9f9"/></linearGradient></defs><g transform="matrix(1.006 0 0 1.006-745.99-154.21)"><path d="m754.83 209.62c0 .732.481 1.325 1.213 1.325h34.462c.732 0 1.438-.594 1.438-1.325v-7.953h-37.11v7.953" fill="url(#0)"/><path d="m791.94 201.67v-35.787c0-.732-.72-1.325-1.451-1.325h-9.152v-3.976c0-.732-.72-1.325-1.451-1.325h-13.254c-.733 0-1.2.594-1.2 1.325v3.976h-9.404c-.733 0-1.2.594-1.2 1.325v35.787h37.11" fill="url(#1)"/><path d="m27.21 1033.48l-4.932 6 3.328 1.801-.862 4.199 4.932-6-3.328-1.801z" fill-opacity=".69" transform="matrix(2.33339 0 0 2.33339 712.77-2237.71)"/></g></svg>