<svg xmlns="http://www.w3.org/2000/svg" viewBox="0 0 64 64"><defs><linearGradient id="0" x1="32.08" y1="55.03" x2="32.04" y2="8.242" gradientUnits="userSpaceOnUse"><stop stop-color="#dbdbdb"/><stop offset="1" stop-color="#fcf9f9"/></linearGradient></defs><path transform="matrix(1.08338 0 0 1.08338-2.634-2.666)" d="m25.729 8c-.681 0-1.113.551-1.113 1.23v3.693h-8.732c-.681 0-1.113.551-1.113 1.23v33.23 7.385c0 .679.446 1.23 1.125 1.23h32c.679 0 1.336-.551 1.336-1.23v-7.385-33.23c0-.679-.668-1.23-1.348-1.23h-8.498v-3.693c0-.679-.668-1.23-1.348-1.23h-12.309" fill="url(#0)"/><path d="m720.4 192.92q-1.637 1.723-4.135 1.723-2.498 0-4.222-1.723-1.637-1.723-1.637-4.135 0-2.412 1.637-4.135 1.723-1.723 4.222-1.723 2.498 0 4.135 1.723 1.723 1.723 1.723 4.135 0 2.412-1.723 4.135m-.086-17.92h-8.098v-4.049q0-3.877 1.637-6.634 1.637-2.843 5.772-6.634 2.326-2.154 3.274-3.188 1.034-1.12 1.982-3.02 1.034-1.982 1.034-4.049 0-3.963-2.585-6.375-2.498-2.412-6.978-2.412-7.409 0-10.166 8.271l-7.409-3.102q1.809-4.911 6.203-8.788 4.48-3.963 11.372-3.963 7.84 0 12.751 4.652 4.911 4.566 4.911 11.717 0 3.102-1.637 6.289-1.637 3.188-2.929 4.566-1.206 1.292-3.446 3.36-.258.258-.431.431-5.255 4.738-5.255 9.477v3.446" transform="matrix(.40894 0 0 .40894-260.93-31.613)" fill="#494949"/></svg>