<svg xmlns="http://www.w3.org/2000/svg" viewBox="0 0 64 64"><defs><linearGradient id="0" x1="23.796" y1="42.992" x2="24.07" y2="5.516" gradientUnits="userSpaceOnUse"><stop stop-color="#dbdbdb"/><stop offset="1" stop-color="#fcf9f9"/></linearGradient><linearGradient id="1" x1="24.812" y1="43.906" x2="24.375" y2="22.781" gradientUnits="userSpaceOnUse"><stop stop-color="#49b903"/><stop offset="1" stop-color="#8cff07"/></linearGradient></defs><g transform="matrix(1.08333 0 0 1.08333-360.78-551.42)"><g transform="matrix(1.23077 0 0 1.23077 333.05 508.39)"><path d="m9.984 43c0 .552.363 1 .915 1h26c.552 0 1.085-.448 1.085-1v-13h-28v13" fill="url(#1)"/><path d="m37.984 30v-20c0-.552-.543-1-1.095-1h-6.905v-3c0-.552-.543-1-1.095-1h-10c-.552 0-.905.448-.905 1v3h-7.095c-.552 0-.905.448-.905 1v20h28" fill="url(#0)"/></g><path d="m27.21 1033.48l-4.932 6 3.328 1.801-.862 4.199 4.932-6-3.328-1.801z" fill-opacity=".691" transform="matrix(2.16663 0 0 2.16663 306.29-1711.12)"/></g></svg>