<svg xmlns="http://www.w3.org/2000/svg" viewBox="0 0 64 64"><defs><linearGradient id="0" x1="24.418" y1="42.858" x2="24.387" y2="5.889" gradientUnits="userSpaceOnUse"><stop stop-color="#dbdbdb"/><stop offset="1" stop-color="#fcf9f9"/></linearGradient><linearGradient id="1" x1="24.21" y1="42.858" x2="24.18" y2="23.764" gradientUnits="userSpaceOnUse"><stop stop-color="#49b903"/><stop offset="1" stop-color="#8cff07"/></linearGradient></defs><g transform="matrix(1.33333 0 0 1.33333.013-.664)"><path d="m9.996 43c0 .552.363 1 .915 1h26c.552 0 1.085-.448 1.085-1v-19.972h-28v19.972" fill="url(#1)"/><path d="m37.996 23.03v-13.03c0-.552-.543-1-1.095-1h-6.905v-3c0-.552-.543-1-1.095-1h-10c-.552 0-.905.448-.905 1v3h-7.095c-.552 0-.905.448-.905 1v13.03h28" fill="url(#0)"/></g></svg>