<?xml version="1.0" encoding="UTF-8" standalone="no"?>
<!-- Created with Inkscape (http://www.inkscape.org/) -->

<svg
   xmlns:dc="http://purl.org/dc/elements/1.1/"
   xmlns:cc="http://creativecommons.org/ns#"
   xmlns:rdf="http://www.w3.org/1999/02/22-rdf-syntax-ns#"
   xmlns:svg="http://www.w3.org/2000/svg"
   xmlns="http://www.w3.org/2000/svg"
   xmlns:xlink="http://www.w3.org/1999/xlink"
   xmlns:sodipodi="http://sodipodi.sourceforge.net/DTD/sodipodi-0.dtd"
   xmlns:inkscape="http://www.inkscape.org/namespaces/inkscape"
   width="64"
   height="64"
   id="svg3809"
   version="1.1"
   inkscape:version="0.91 r13725"
   sodipodi:docname="battery-missing.svg">
  <defs
     id="defs3811">
    <linearGradient
       id="linearGradient4377">
      <stop
         offset="0"
         style="stop-color:#dbdbdb;stop-opacity:1"
         id="stop4379" />
      <stop
         offset="1"
         style="stop-color:#fcf9f9;stop-opacity:1"
         id="stop4381" />
    </linearGradient>
    <linearGradient
       gradientTransform="matrix(1.2307692,0,0,1.2307692,2.4615439,1.8461518)"
       inkscape:collect="always"
       xlink:href="#linearGradient4377"
       id="linearGradient4567"
       x1="24.065989"
       y1="43.213505"
       x2="24.029203"
       y2="5.1963286"
       gradientUnits="userSpaceOnUse" />
  </defs>
  <sodipodi:namedview
     id="base"
     pagecolor="#7f7f7f"
     bordercolor="#ffffff"
     borderopacity="1"
     inkscape:pageopacity="0"
     inkscape:pageshadow="2"
     inkscape:zoom="7.0710678"
     inkscape:cx="20.564101"
     inkscape:cy="36.707037"
     inkscape:document-units="px"
     inkscape:current-layer="g4180"
     showgrid="false"
     fit-margin-top="0"
     fit-margin-left="0"
     fit-margin-right="0"
     fit-margin-bottom="0"
     inkscape:snap-bbox="true"
     inkscape:window-width="1366"
     inkscape:window-height="634"
     inkscape:window-x="0"
     inkscape:window-y="36"
     inkscape:window-maximized="1"
     inkscape:showpageshadow="false"
     borderlayer="true"
     showguides="false">
    <inkscape:grid
       type="xygrid"
       id="grid3830"
       empspacing="5"
       visible="true"
       enabled="true"
       snapvisiblegridlinesonly="true"
       originx="21.000002"
       originy="20.999999" />
    <sodipodi:guide
       position="-2.265625e-06,9.9121092e-07"
       orientation="-64,0"
       id="guide4172" />
    <sodipodi:guide
       position="-2.265625e-06,64.000001"
       orientation="0,64"
       id="guide4174" />
    <sodipodi:guide
       position="63.999998,64.000001"
       orientation="64,0"
       id="guide4176" />
    <sodipodi:guide
       position="63.999998,9.9121092e-07"
       orientation="0,-64"
       id="guide4178" />
    <sodipodi:guide
       position="2.9999977,6.000001"
       orientation="0,58"
       id="guide4182" />
    <sodipodi:guide
       position="60.999998,58.000001"
       orientation="0,-58"
       id="guide4186" />
    <sodipodi:guide
       position="5.9999977,58.000001"
       orientation="52,0"
       id="guide4197" />
    <sodipodi:guide
       position="57.999998,6.000001"
       orientation="-52,0"
       id="guide4201" />
    <sodipodi:guide
       position="19.999998,20.000001"
       orientation="-24,0"
       id="guide4323" />
    <sodipodi:guide
       position="43.999998,44.000001"
       orientation="24,0"
       id="guide4327" />
    <sodipodi:guide
       position="43.999998,20.000001"
       orientation="0,-24"
       id="guide4329" />
    <sodipodi:guide
       position="19.999998,51.000001"
       orientation="24,0"
       id="guide4245" />
    <sodipodi:guide
       position="19.999998,27.000001"
       orientation="0,24"
       id="guide4247" />
    <sodipodi:guide
       position="43.999998,27.000001"
       orientation="-24,0"
       id="guide4249" />
    <sodipodi:guide
       position="-38.999998,20.999999"
       orientation="0,-24"
       id="guide4251" />
  </sodipodi:namedview>
  <metadata
     id="metadata3814">
    <rdf:RDF>
      <cc:Work
         rdf:about="">
        <dc:format>image/svg+xml</dc:format>
        <dc:type
           rdf:resource="http://purl.org/dc/dcmitype/StillImage" />
        <dc:title />
      </cc:Work>
    </rdf:RDF>
  </metadata>
  <g
     inkscape:label="Layer 1"
     inkscape:groupmode="layer"
     id="layer1"
     transform="translate(-736.85718,-157.93361)">
    <g
       id="g4418"
       transform="matrix(0.92857143,0,0,0.92857143,54.918368,13.566686)">
      <g
         id="g4180"
         transform="translate(-4.527244,4.8318452)">
        <g
           id="g4158"
           transform="matrix(1.0833333,0,0,1.0833333,-64.448681,-15.425145)">
          <path
             id="path4219"
             transform="matrix(1.0769231,0,0,1.0769231,738.92289,150.64023)"
             d="m 25.728516,8 c -0.680615,0 -1.113282,0.5510795 -1.113282,1.2304688 l 0,3.6933592 -8.732422,0 c -0.680615,0 -1.113281,0.551089 -1.113281,1.230469 l 0,33.230469 0,7.384765 c 0,0.67939 0.44562,1.230469 1.125,1.230469 l 32,0 c 0.67939,0 1.335938,-0.551079 1.335938,-1.230469 l 0,-7.384765 0,-33.230469 c 0,-0.67938 -0.668276,-1.230469 -1.347657,-1.230469 l -8.498046,0 0,-3.6933592 C 39.384766,8.5510795 38.716489,8 38.037109,8 L 25.728516,8 Z"
             style="fill:url(#linearGradient4567);fill-opacity:1;stroke:none;stroke-width:9.51243782;stroke-miterlimit:4;stroke-dasharray:none;stroke-opacity:1"
             inkscape:connector-curvature="0" />
          <g
             transform="matrix(0.40650405,0,0,0.40650405,482.16907,121.86624)"
             id="text4182"
             style="font-style:normal;font-weight:normal;font-size:86.15384674px;line-height:125%;font-family:sans-serif;letter-spacing:0px;word-spacing:0px;fill:#494949;fill-opacity:1;stroke:none;stroke-width:1px;stroke-linecap:butt;stroke-linejoin:miter;stroke-opacity:1">
            <path
               inkscape:connector-curvature="0"
               id="path4187"
               style="font-style:normal;font-variant:normal;font-weight:normal;font-stretch:normal;font-family:'Product Sans';-inkscape-font-specification:'Product Sans';fill:#494949;fill-opacity:1"
               d="m 720.39589,192.92307 q -1.63692,1.72308 -4.13538,1.72308 -2.49846,0 -4.22154,-1.72308 -1.63692,-1.72307 -1.63692,-4.13538 0,-2.41231 1.63692,-4.13539 1.72308,-1.72307 4.22154,-1.72307 2.49846,0 4.13538,1.72307 1.72308,1.72308 1.72308,4.13539 0,2.41231 -1.72308,4.13538 z m -0.0861,-17.92 -8.09846,0 0,-4.04923 q 0,-3.87692 1.63692,-6.63384 1.63692,-2.84308 5.77231,-6.63385 2.32615,-2.15385 3.27384,-3.18769 1.03385,-1.12 1.98154,-3.01539 1.03385,-1.98154 1.03385,-4.04923 0,-3.96308 -2.58462,-6.37538 -2.49846,-2.41231 -6.97846,-2.41231 -7.40923,0 -10.16615,8.27077 l -7.40923,-3.10154 q 1.80923,-4.91077 6.20307,-8.78769 4.48,-3.96308 11.37231,-3.96308 7.84,0 12.75077,4.65231 4.91077,4.56615 4.91077,11.71692 0,3.10154 -1.63692,6.28923 -1.63693,3.18769 -2.92923,4.56616 -1.20616,1.2923 -3.44616,3.36 -0.25846,0.25846 -0.43077,0.43077 -5.25538,4.73846 -5.25538,9.47692 l 0,3.44615 z" />
          </g>
        </g>
      </g>
    </g>
  </g>
</svg>
