<svg xmlns="http://www.w3.org/2000/svg" viewBox="0 0 64 64"><defs><linearGradient id="0" y1="542.8" x2="0" y2="507.8" gradientUnits="userSpaceOnUse" gradientTransform="matrix(1.05233 0 0 1.02761-72.68-8.584)"><stop stop-color="#d3d3d3"/><stop offset="1" stop-color="#fcf9f9"/></linearGradient></defs><g transform="matrix(1.35567 0 0 1.35567-452.35-687.47)"><rect width="46.3" height="34.939" x="334.12" y="513.24" fill="url(#0)" rx="1.644" stroke-width="1"/><g transform="matrix(1.52062 0 0 1.52062-204.35-290.39)" fill="#fff" fill-opacity=".85"><flowRoot transform="translate(389.57 520.8)" font-family="sans-serif" fill="#fff" text-align="start" word-spacing="0" line-height="125%" letter-spacing="0" font-size="10"><flowRegion><path fill="#fff" fill-opacity=".85" d="m22 3h27v15h-27z"/></flowRegion><flowPara>Plasm</flowPara></flowRoot><path d="m16.444 1039.19v-2.23c0-3.03-2.463-5.49-5.49-5.49-3.03 0-5.49 2.463-5.49 5.49v2.23c-.433.09-.759.475-.759.935v8.358c0 .526.428.955.955.955h10.587c.527 0 .955-.429.955-.955v-8.358c0-.459-.326-.844-.759-.935m-4.207 7.125c.019.105-.051.188-.156.188h-2.229c-.105 0-.175-.083-.156-.188l.355-1.881c-.269-.245-.437-.598-.437-.99 0-.74.6-1.34 1.34-1.34.74 0 1.34.6 1.34 1.34 0 .381-.16.725-.416.969zm2.297-7.145h-7.16v-2.21c0-1.974 1.606-3.58 3.58-3.58 1.974 0 3.58 1.606 3.58 3.58z" fill="#35383b" transform="matrix(.81569 0 0 .81569 360.41-308.71)"/></g></g></svg>