<svg xmlns="http://www.w3.org/2000/svg" viewBox="0 0 64 64"><defs><linearGradient id="0" y1="542.8" x2="0" y2="507.8" gradientUnits="userSpaceOnUse" gradientTransform="matrix(1.53636 0 0 1.50027 141.14-597.41)"><stop stop-color="#c52828"/><stop offset="1" stop-color="#ff5454"/></linearGradient></defs><g transform="matrix(.92857 0 0 .92857-681.94-144.37)"><rect y="164.43" x="735.06" height="51.01" width="67.6" fill="url(#0)" rx="2.4" stroke-width="1"/><path d="m11.00102 1033.3622a8.00033 8.00031 0 0 0 -8.00102 8.001 8.00033 8.00031 0 0 0 8.00102 7.999 8.00033 8.00031 0 0 0 7.99898 -7.999 8.00033 8.00031 0 0 0 -7.99898 -8.001m-2.783 3.938c.674 0 1.22.548 1.22 1.222 0 .675-.546 1.22-1.22 1.22-.675 0-1.222-.545-1.222-1.22 0-.675.548-1.222 1.222-1.222m5.54 0c.674 0 1.22.548 1.22 1.222 0 .675-.546 1.22-1.22 1.22-.675 0-1.222-.545-1.222-1.22 0-.675.548-1.222 1.222-1.222m-2.759 4.657c1.987 0 3.759 1.13 4.516 2.881.13.3-.007.648-.306.777-.299.13-.648-.011-.777-.308-.57-1.318-1.917-2.169-3.432-2.169-1.55 0-2.906.85-3.453 2.167-.094.228-.315.365-.547.365-.076 0-.152-.015-.227-.045-.302-.125-.444-.472-.318-.773.731-1.76 2.515-2.896 4.544-2.896" fill="#fff" fill-rule="evenodd" fill-opacity=".85" transform="matrix(2.15385 0 0 2.15385 745.16-2053)"/></g></svg>