<?xml version="1.0" encoding="UTF-8" standalone="no"?>
<!-- Created with Inkscape (http://www.inkscape.org/) -->

<svg
   xmlns:dc="http://purl.org/dc/elements/1.1/"
   xmlns:cc="http://creativecommons.org/ns#"
   xmlns:rdf="http://www.w3.org/1999/02/22-rdf-syntax-ns#"
   xmlns:svg="http://www.w3.org/2000/svg"
   xmlns="http://www.w3.org/2000/svg"
   xmlns:xlink="http://www.w3.org/1999/xlink"
   xmlns:sodipodi="http://sodipodi.sourceforge.net/DTD/sodipodi-0.dtd"
   xmlns:inkscape="http://www.inkscape.org/namespaces/inkscape"
   width="64"
   height="64"
   id="svg3809"
   version="1.1"
   inkscape:version="0.91 r13725"
   sodipodi:docname="image-loading.svg">
  <defs
     id="defs3811">
    <linearGradient
       gradientTransform="matrix(1.4161265,0,0,1.4161265,188.03957,-548.15213)"
       inkscape:collect="always"
       xlink:href="#linearGradient4422"
       id="linearGradient4181"
       gradientUnits="userSpaceOnUse"
       x1="399.9939"
       y1="545.13873"
       x2="399.9939"
       y2="518.13873" />
    <linearGradient
       id="linearGradient4422">
      <stop
         style="stop-color:#197ff1;stop-opacity:1"
         offset="0"
         id="stop4424" />
      <stop
         style="stop-color:#21c6fb;stop-opacity:1"
         offset="1"
         id="stop4426" />
    </linearGradient>
    <linearGradient
       gradientTransform="matrix(0.90759888,0,0,0.88627945,401.81529,-243.37695)"
       gradientUnits="userSpaceOnUse"
       y2="507.798"
       x2="409.57144"
       y1="542.79797"
       x1="409.57144"
       id="linearGradient4222"
       xlink:href="#linearGradient4422"
       inkscape:collect="always" />
  </defs>
  <sodipodi:namedview
     id="base"
     pagecolor="#ffffff"
     bordercolor="#666666"
     borderopacity="1.0"
     inkscape:pageopacity="0.0"
     inkscape:pageshadow="2"
     inkscape:zoom="7.0710678"
     inkscape:cx="-3.5218618"
     inkscape:cy="31.026333"
     inkscape:document-units="px"
     inkscape:current-layer="g4418"
     showgrid="true"
     fit-margin-top="0"
     fit-margin-left="0"
     fit-margin-right="0"
     fit-margin-bottom="0"
     inkscape:snap-bbox="true"
     inkscape:window-width="1366"
     inkscape:window-height="634"
     inkscape:window-x="0"
     inkscape:window-y="36"
     inkscape:window-maximized="1"
     inkscape:showpageshadow="false"
     borderlayer="true"
     showguides="true">
    <inkscape:grid
       type="xygrid"
       id="grid3830"
       empspacing="5"
       visible="true"
       enabled="true"
       snapvisiblegridlinesonly="true"
       originx="21.000002"
       originy="20.999999" />
    <sodipodi:guide
       position="-2.265625e-06,9.9121092e-07"
       orientation="-64,0"
       id="guide4172" />
    <sodipodi:guide
       position="-2.265625e-06,64.000001"
       orientation="0,64"
       id="guide4174" />
    <sodipodi:guide
       position="63.999998,64.000001"
       orientation="64,0"
       id="guide4176" />
    <sodipodi:guide
       position="63.999998,9.9121092e-07"
       orientation="0,-64"
       id="guide4178" />
    <sodipodi:guide
       position="2.9999977,6.000001"
       orientation="0,58"
       id="guide4182" />
    <sodipodi:guide
       position="60.999998,58.000001"
       orientation="0,-58"
       id="guide4186" />
    <sodipodi:guide
       position="5.9999977,58.000001"
       orientation="52,0"
       id="guide4197" />
    <sodipodi:guide
       position="57.999998,6.000001"
       orientation="-52,0"
       id="guide4201" />
    <sodipodi:guide
       position="19.999998,20.000001"
       orientation="-24,0"
       id="guide4323" />
    <sodipodi:guide
       position="43.999998,44.000001"
       orientation="24,0"
       id="guide4327" />
    <sodipodi:guide
       position="43.999998,20.000001"
       orientation="0,-24"
       id="guide4329" />
    <sodipodi:guide
       position="19.999998,51.000001"
       orientation="24,0"
       id="guide4245" />
    <sodipodi:guide
       position="19.999998,27.000001"
       orientation="0,24"
       id="guide4247" />
    <sodipodi:guide
       position="43.999998,27.000001"
       orientation="-24,0"
       id="guide4249" />
    <sodipodi:guide
       position="-38.999998,20.999999"
       orientation="0,-24"
       id="guide4251" />
  </sodipodi:namedview>
  <metadata
     id="metadata3814">
    <rdf:RDF>
      <cc:Work
         rdf:about="">
        <dc:format>image/svg+xml</dc:format>
        <dc:type
           rdf:resource="http://purl.org/dc/dcmitype/StillImage" />
        <dc:title></dc:title>
      </cc:Work>
    </rdf:RDF>
  </metadata>
  <g
     inkscape:label="Layer 1"
     inkscape:groupmode="layer"
     id="layer1"
     transform="translate(-736.85718,-157.93361)">
    <g
       id="g4418"
       transform="matrix(0.92857143,0,0,0.92857143,54.918368,13.566686)">
      <g
         id="g4192"
         transform="translate(4.8201948,-21.027728)">
        <circle
           r="19.82571"
           cy="204.94095"
           cx="755.29926"
           id="path3377"
           style="opacity:1;fill:url(#linearGradient4181);fill-opacity:1;stroke:none;stroke-width:1.29999995;stroke-miterlimit:4;stroke-dasharray:none;stroke-dashoffset:0;stroke-opacity:1" />
        <path
           style="fill:#000000;fill-opacity:0.39430895"
           inkscape:connector-curvature="0"
           d="m 745.1139,198.29284 c 0.43101,0 0.84906,0.0625 1.24127,0.18545 1.48693,-1.66579 3.13549,-3.18289 4.91981,-4.52543 -0.0753,-0.31465 -0.11621,-0.64433 -0.11621,-0.98052 0,-0.46764 0.0778,-0.91802 0.21991,-1.33824 -2.00197,-1.4309 -4.17417,-2.63554 -6.48863,-3.56433 -2.16574,1.33824 -4.05565,3.08376 -5.56414,5.13099 1.11844,1.98258 2.44805,3.82939 3.96085,5.51028 0.55167,-0.26719 1.17014,-0.41808 1.82741,-0.41808 z m -4.21941,4.21727 c 0,-0.5926 0.12505,-1.15721 0.34265,-1.66579 -1.35334,-1.49123 -2.57951,-3.09452 -3.6527,-4.80344 -1.34687,2.67648 -2.11187,5.6999 -2.11187,8.90219 0,3.70443 1.02146,7.17177 2.79071,10.13917 0.63354,-3.56434 1.83385,-6.93685 3.49104,-10.02494 -0.53875,-0.70684 -0.85983,-1.59253 -0.85983,-2.54719 z m 14.48143,-13.75519 c 1.11409,0 2.12264,0.43317 2.87901,1.13998 2.20026,-0.94603 4.51685,-1.6744 6.92824,-2.13771 -2.91136,-1.67875 -6.28604,-2.64201 -9.88484,-2.64201 -2.45452,0 -4.80345,0.45038 -6.97348,1.26714 1.72179,0.8512 3.36391,1.84249 4.90684,2.96307 0.62924,-0.37495 1.35977,-0.59047 2.14423,-0.59047 z m 6.30541,19.86671 c 0.26292,-0.54737 0.63574,-1.03225 1.09692,-1.41367 -1.24561,-3.82939 -3.21742,-7.33552 -5.7581,-10.35032 -0.50428,0.21564 -1.06025,0.33185 -1.64643,0.33185 -0.91585,0 -1.75845,-0.29525 -2.45018,-0.78656 -1.53003,1.16154 -2.94587,2.46312 -4.23238,3.88542 0.40515,0.64434 0.64004,1.40504 0.64004,2.22176 0,0.43748 -0.0668,0.862 -0.19399,1.26281 3.7001,2.46962 7.96047,4.16774 12.54409,4.84871 z m 5.47148,5.69561 c 0.0561,0.79949 0.0885,1.60329 0.0885,2.41572 0,1.4309 -0.0906,2.84024 -0.26292,4.2259 3.36175,-2.45455 5.92186,-5.94342 7.2127,-9.99694 -1.53003,0.37069 -3.09885,0.63574 -4.69998,0.7866 -0.37282,1.15718 -1.23267,2.08814 -2.33816,2.56872 z m -6.45843,-2.85967 c -4.89611,-0.81243 -9.43233,-2.68078 -13.38239,-5.35296 -0.6422,0.39222 -1.39426,0.62278 -2.20023,0.62278 -0.29952,0 -0.58617,-0.0305 -0.86632,-0.0885 -1.88988,3.58157 -3.09883,7.57905 -3.44578,11.81786 1.88778,2.0257 4.18924,3.65699 6.77739,4.75174 3.21522,-4.94137 7.70618,-9.02721 13.11733,-11.75109 z m 7.91303,-21.21139 c -3.17855,0.30815 -6.21278,1.10765 -9.03578,2.30149 0.0122,0.14214 0.0214,0.28244 0.0214,0.42455 0,0.66587 -0.15953,1.29297 -0.43315,1.85111 2.82517,3.31652 5.01463,7.17607 6.3981,11.40198 1.71752,0.0345 3.18292,1.08178 3.81433,2.57518 1.90931,-0.19399 3.76689,-0.56028 5.55551,-1.08608 0.12932,-0.90513 0.19826,-1.83175 0.19826,-2.77348 -0.003,-5.82706 -2.51486,-11.06795 -6.51881,-14.69475 z m -5.7904,23.46335 c -5.05126,2.36616 -9.275,6.01022 -12.3329,10.46452 1.5408,0.38575 3.15273,0.59264 4.81422,0.59264 2.98893,0 5.82273,-0.66587 8.36561,-1.85115 0.40942,-1.99977 0.62491,-4.06641 0.62491,-6.18258 0,-0.76503 -0.0345,-1.52357 -0.0927,-2.27353 -0.50857,-0.16379 -0.97618,-0.41591 -1.37917,-0.7499 z"
           id="path4172" />
        <rect
           style="opacity:1;fill:url(#linearGradient4222);fill-opacity:1;stroke:none;stroke-width:0.2;stroke-linecap:round;stroke-linejoin:round;stroke-miterlimit:4;stroke-dasharray:none;stroke-opacity:1"
           id="rect4195"
           width="39.934349"
           height="30.133501"
           x="752.66705"
           y="206.674"
           ry="1.4180472" />
        <path
           inkscape:connector-curvature="0"
           style="fill:#ffffff;fill-opacity:0.76016259;stroke:none;stroke-opacity:0.8"
           d="m 768.08285,215.8981 c 0.0519,0.0286 0.0993,0.068 0.13775,0.11808 l 3.70591,4.84818 c 0.0769,-0.0259 0.15206,-0.055 0.23257,-0.0725 l 0,-1.79481 c 0,-0.24733 0.19992,-0.44725 0.44725,-0.44725 0.24733,0 0.44725,0.19992 0.44725,0.44725 l 0,1.79526 c 0.13686,0.0291 0.26835,0.0711 0.39358,0.12523 l 3.69562,-5.09685 c 0.017,-0.10063 0.0309,-0.20216 0.0438,-0.30726 0.0644,-0.54833 -0.25806,-1.67719 -1.29032,-2.45138 -0.41952,-0.25806 -2.90264,-1.77379 -3.28996,-2.22551 -0.38687,0.45172 -2.87045,1.96745 -3.28997,2.22551 -1.03225,0.77419 -1.35472,1.90305 -1.29031,2.45138 0.0157,0.13238 0.0331,0.25851 0.0568,0.38463 z"
           id="path4409" />
        <path
           inkscape:connector-curvature="0"
           style="fill:#ffffff;fill-opacity:0.76016259;stroke:none;stroke-opacity:0.8"
           d="m 764.64395,225.00723 5.85539,-1.97282 c -0.005,-0.0564 -0.017,-0.11002 -0.017,-0.16727 0,-0.0729 0.0143,-0.14222 0.0215,-0.21334 l -1.7161,-0.55727 c -0.23481,-0.0765 -0.36361,-0.32828 -0.28758,-0.56353 0.076,-0.23526 0.32917,-0.36317 0.56353,-0.28758 l 1.7152,0.55682 c 0.10331,-0.17621 0.22676,-0.33767 0.37435,-0.47677 l -3.64329,-4.76633 c -0.0394,-0.0519 -0.0644,-0.10958 -0.0783,-0.16906 -0.10242,-0.0546 -0.20619,-0.10555 -0.31576,-0.15565 -0.50137,-0.23078 -1.67495,-0.27282 -2.73001,0.46962 -0.3748,0.31888 -2.58421,2.21254 -3.13298,2.44108 0.30994,0.50763 0.98394,3.33827 1.09978,3.81638 0.41729,1.22099 1.3914,1.87621 1.93257,1.98445 0.1221,0.0246 0.24017,0.0452 0.35869,0.0613 z"
           id="path4411" />
        <path
           inkscape:connector-curvature="0"
           style="fill:#ffffff;fill-opacity:0.76016259;stroke:none;stroke-opacity:0.8"
           d="m 770.69344,226.26132 c -0.0872,0.1212 -0.22362,0.18426 -0.36227,0.18426 -0.0912,0 -0.18292,-0.0277 -0.26254,-0.0854 -0.19947,-0.14446 -0.24419,-0.42399 -0.0988,-0.62436 l 1.05954,-1.45803 c -0.10555,-0.11763 -0.19545,-0.24688 -0.27282,-0.38598 l -5.92829,1.99742 c -0.0465,0.0474 -0.0921,0.0962 -0.13865,0.1467 -0.37435,0.40565 -0.77732,1.50857 -0.39716,2.74119 0.1874,0.4553 1.30597,3.14148 1.35338,3.73453 0.57874,-0.1382 3.4787,0.0957 3.96978,0.13328 1.28987,-0.0197 2.21433,-0.74333 2.48447,-1.22457 0.0559,-0.0997 0.10734,-0.19679 0.15609,-0.29563 l 0,-6.16757 c -0.17711,-0.0295 -0.34706,-0.0783 -0.50673,-0.14849 l -1.05596,1.45267 z"
           id="path4413" />
        <path
           inkscape:connector-curvature="0"
           style="fill:#ffffff;fill-opacity:0.76016259;stroke:none;stroke-opacity:0.8"
           d="m 780.44527,225.75414 -5.9198,-1.99026 c -0.0881,0.18874 -0.20439,0.36003 -0.34169,0.51299 l 1.05953,1.45848 c 0.14536,0.19992 0.10152,0.47945 -0.0988,0.62436 -0.0796,0.0577 -0.1713,0.085 -0.26298,0.085 -0.13865,0 -0.27417,-0.0644 -0.36227,-0.18426 l -1.05641,-1.45401 c -0.0997,0.0447 -0.20529,0.076 -0.31307,0.10465 l 0,6.25434 c 0.0353,0.0675 0.0716,0.13552 0.11047,0.20439 0.27014,0.48124 1.1946,1.20489 2.48447,1.22457 0.49063,-0.0376 3.39104,-0.27058 3.96978,-0.13328 0.047,-0.59305 1.16598,-3.27923 1.35293,-3.73408 0.38061,-1.23352 -0.0219,-2.33599 -0.39715,-2.74209 -0.0738,-0.0796 -0.14849,-0.15609 -0.22497,-0.23078 z"
           id="path4415" />
        <path
           inkscape:connector-curvature="0"
           style="fill:#ffffff;fill-opacity:0.76016259;stroke:none;stroke-opacity:0.8"
           d="m 780.88357,216.62622 c -1.05461,-0.74243 -2.22819,-0.70039 -2.73001,-0.46961 -0.0792,0.0367 -0.15564,0.0738 -0.23078,0.11181 l -3.75197,5.17423 c 0.10108,0.11047 0.18784,0.23123 0.26298,0.36049 l 1.71565,-0.55728 c 0.23346,-0.0765 0.4866,0.0523 0.56353,0.28758 0.0765,0.23436 -0.0523,0.48706 -0.28758,0.56354 l -1.71654,0.55772 c 0.007,0.0711 0.0219,0.13954 0.0219,0.21289 0,0.007 -0.003,0.0139 -0.003,0.021 l 6.01774,2.02336 c 0.0787,-0.013 0.15743,-0.0268 0.23749,-0.0434 0.54162,-0.10824 1.51573,-0.76346 1.93212,-1.98489 0.11628,-0.47856 0.79029,-3.30876 1.10023,-3.81638 -0.54788,-0.22855 -2.75684,-2.1222 -3.13209,-2.44109 z"
           id="path4417" />
        <path
           inkscape:connector-curvature="0"
           style="fill:#ffffff;fill-opacity:0.76016259;stroke:none;stroke-opacity:0.8"
           d="m 773.78841,223.18827 c 0.003,-0.009 0.006,-0.0174 0.009,-0.0273 0.0237,-0.0948 0.0394,-0.19232 0.0394,-0.29429 0,-0.40521 -0.19858,-0.76167 -0.50137,-0.98619 -0.008,-0.006 -0.0143,-0.0125 -0.0219,-0.0179 -0.20081,-0.14134 -0.44322,-0.22587 -0.70665,-0.22587 -0.03,0 -0.0581,0.007 -0.0872,0.009 -0.20663,0.0148 -0.39894,0.0778 -0.56488,0.18248 -0.008,0.005 -0.0174,0.009 -0.025,0.0139 -0.085,0.0564 -0.15967,0.12478 -0.2281,0.19992 -0.19903,0.21871 -0.32381,0.50629 -0.32381,0.82518 0,0.11226 0.0201,0.2187 0.0483,0.32202 0.003,0.009 0.006,0.0183 0.009,0.0277 0.15162,0.50763 0.6172,0.88063 1.17313,0.88063 0.01,0 0.0192,-0.003 0.0291,-0.003 0.01,0 0.0188,-0.002 0.0286,-0.003 0.53983,-0.0255 0.98574,-0.3994 1.12349,-0.90345 z"
           id="path4419" />
      </g>
    </g>
  </g>
</svg>
