<svg xmlns="http://www.w3.org/2000/svg" viewBox="0 0 64 64"><defs><linearGradient y2="511.03" x2="304.72" y1="541.42" x1="305.68" gradientUnits="userSpaceOnUse" id="0"><stop stop-color="#ff9300"/><stop offset="1" stop-color="#ffd702"/></linearGradient><linearGradient gradientUnits="userSpaceOnUse" y2="-16.683" x2="95.62" y1="320.21" x1="151.76" id="1"><stop stop-color="#92ccff"/><stop offset="1" stop-color="#e5f9fd"/></linearGradient></defs><g transform="matrix(.81195 0 0 .81195 284.45 1.996)"><g><circle r="15.881" cy="526.52" cx="305.38" fill="url(#0)" transform="matrix(1.0004 0 0 1.0004-596.12-505.16)"/><path d="m153.7 292.14c-84.75 0-153.7-68.953-153.7-153.7 0-58.697 32.675-111.44 85.28-137.63 2.369-1.174 5.215-.718 7.08 1.144 1.864 1.864 2.345 4.711 1.183 7.07-9.599 19.502-14.463 40.471-14.463 62.3 0 77.972 63.43 141.41 141.4 141.41 22.08 0 43.25-4.978 62.942-14.777 2.366-1.177 5.213-.721 7.07 1.141 1.873 1.867 2.342 4.714 1.177 7.07-26.06 53.02-78.927 85.964-137.97 85.964" fill="url(#1)" transform="matrix(-.11142 0 0 .11142-314.54 4.912)"/></g><g transform="matrix(.41407 0 0 .41407-193.71 42.814)" fill="#fff"><path d="m-349.03 57.973c0 3.08 2.24 4.83 4.76 4.83 2.52 0 4.41-1.75 4.41-4.83v-27.02l23.17 29.4c2.03 1.89 3.22 2.45 5.67 2.45 1.82-.56 3.71-1.75 3.71-4.83v-39.41c0-2.31-2.45-4.83-4.97-4.83-2.38 0-4.41 2.52-4.41 4.83v27.16l-23.17-28.98c-1.89-1.82-2.45-2.45-4.97-2.45-3.64 0-4.2 2.45-4.2 4.97v38.71"/><path d="m-301.05 56.853c-2.66 4.62 4.55 9.1 7.35 4.2l23.94-40.53c2.87-5.04-4.41-9.31-7.35-4.2l-23.94 40.53"/><path d="m-257.72 60.42l3.01-6.16h25.83l3.08 6.16c2.52 5.46 10.99 1.12 8.12-4.34l-19.74-39.27c-1.75-3.85-6.79-3.71-8.68 0l-20.09 39.27c-1.4 2.94 0 5.46 2.24 6.72 2.52.49 5.11 0 6.23-2.38m7.35-15.4l8.61-17.29 7.91 17.29h-16.52"/></g></g></svg>