<svg xmlns="http://www.w3.org/2000/svg" viewBox="0 0 64 64"><defs><linearGradient gradientTransform="matrix(1.05233 0 0 1.02761-72.68-8.584)" gradientUnits="userSpaceOnUse" y2="507.8" x2="0" y1="542.8" id="0"><stop stop-color="#c52828"/><stop offset="1" stop-color="#ff5454"/></linearGradient></defs><g transform="matrix(.92857 0 0 .92857-681.94-144.37)"><g transform="matrix(1.47951 0 0 1.47951 240.27-595.25)"><rect width="46.3" height="34.939" x="334.12" y="513.24" fill="url(#0)" rx="1.644" stroke-width="1"/><g transform="matrix(.94346 0 0 .94346 23.895 27.991)" fill="#fff" fill-opacity=".847"><circle cx="373.37" cy="518.74" r="2.25"/><circle cx="367.84" cy="518.78" r="2.25"/><circle cx="362.41" cy="518.84" r="2.25"/></g></g><path d="m804.89 177.76l4.264-4.264c.271-.271.406-.599.406-.986 0-.387-.135-.715-.406-.986l-1.972-1.973c-.271-.271-.599-.406-.986-.406-.387 0-.716.135-.986.406l-4.264 4.264-4.264-4.264c-.271-.271-.599-.406-.986-.406-.387 0-.715.135-.986.406l-1.973 1.973c-.271.271-.406.599-.406.986 0 .387.135.715.406.986l4.264 4.264-4.264 4.264c-.271.271-.406.599-.406.986 0 .387.135.715.406.986l1.973 1.972c.271.271.6.406.986.406.387 0 .715-.135.986-.406l4.264-4.264 4.264 4.264c.271.271.599.406.986.406.387 0 .715-.135.986-.406l1.972-1.972c.271-.271.406-.599.406-.986 0-.387-.135-.715-.406-.986l-4.264-4.264" fill="#fff" fill-opacity=".847" transform="matrix(1.375 0 0 1.375-332.45-52.12)"/></g></svg>