<svg xmlns="http://www.w3.org/2000/svg" xmlns:xlink="http://www.w3.org/1999/xlink" viewBox="0 0 48 48"><defs><linearGradient id="4"><stop stop-color="#212121"/><stop offset="1" stop-color="#3f3f41"/></linearGradient><linearGradient xlink:href="#4" id="5" gradientUnits="userSpaceOnUse" x1="216.16" y1="323.41" x2="215.55" y2="299.27"/><linearGradient xlink:href="#4" id="3" gradientUnits="userSpaceOnUse" x1="224.4" y1="304.6" x2="226.22" y2="300.33"/><linearGradient id="1" x1="216.16" y1="323.41" x2="215.55" y2="299.27" gradientUnits="userSpaceOnUse"><stop stop-color="#2e3e46"/><stop offset="1" stop-color="#435a64"/></linearGradient><linearGradient id="0" x1="473.79" y1="536.49" x2="473.5" y2="513.12" gradientUnits="userSpaceOnUse"><stop stop-color="#197cf1"/><stop offset="1" stop-color="#20bcfa"/></linearGradient><linearGradient xlink:href="#4" id="2" gradientUnits="userSpaceOnUse" x1="207.82" y1="305.18" x2="205.57" y2="300.14"/></defs><g transform="matrix(.93632 0 0 .93678-410.42-466.11)"><g transform="matrix(1.91725 0 0 1.91631 49.746-73.71)" fill="url(#1)"><path d="m216 302c-6.06 0-11 4.935-11 11 0 6.06 4.935 11 11 11 6.06 0 11-4.935 11-11 0-6.06-4.935-11-11-11" fill="url(#5)"/><path d="m204.28 306.49l-1.244-1.462c-.537-.642-.452-1.606.191-2.145l4.196-3.585c.642-.536 1.675-.41 2.214.233l1.462 1.719c-2.745 1.08-5.05 3.039-6.571 5.53z" fill="url(#2)"/><path d="m229.07 304.99l-1.562 1.867c-1.502-2.503-3.797-4.477-6.535-5.574l1.45-1.732c.532-.646 1.564-.782 2.21-.25l4.229 3.546c.646.533.739 1.497.208 2.143" fill="url(#3)"/></g><path d="m463.9 513.34c.868 0 1.579.711 1.579 1.578v10.809l6.129 4.792c.71.526.817 1.525.291 2.209-.289.395-.765.602-1.238.602-.342 0-.682-.13-.971-.341l-6.759-5.259c-.368-.289-.608-.74-.608-1.239v-11.573c0-.868.71-1.578 1.578-1.578" opacity=".99" fill="url(#0)"/></g></svg>