<svg xmlns="http://www.w3.org/2000/svg" viewBox="0 0 48 48"><defs><linearGradient gradientUnits="userSpaceOnUse" y2="7.379" x2="89.41" y1="47.992" x1="89.45" id="0"><stop stop-color="#1074f5"/><stop offset="1" stop-color="#02befd"/></linearGradient><linearGradient gradientTransform="matrix(-.55335 0 0 .60252 307.31-278.37)" gradientUnits="userSpaceOnUse" y2="507.87" x2="0" y1="546.8" id="1"><stop stop-color="#d3d3d3"/><stop offset="1" stop-color="#fcf9f9"/></linearGradient></defs><g transform="translate(-65.08-4.881)"><path d="m106.01 12.913c-4.526-3.683-10.535-5.712-16.921-5.712-6.386 0-12.395 2.028-16.921 5.712-4.565 3.715-7.079 8.667-7.079 13.942 0 5.04 2.292 9.774 6.469 13.426-.075.169-.135.348-.173.535l-1.373 6.752c-.163.802.056 1.281.269 1.541.246.301.61.466 1.026.466.314 0 .651-.093 1-.275l7.984-4.148c2.764.89 5.736 1.356 8.795 1.356 6.386 0 12.395-2.028 16.921-5.712 4.565-3.715 7.079-8.666 7.079-13.942 0-5.276-2.514-10.227-7.079-13.942" fill="url(#0)"/><path d="m92.29 30.601c2.263-2.01 5.268-3.11 8.46-3.11 3.193 0 6.198 1.104 8.46 3.11 2.283 2.023 3.54 4.718 3.54 7.591 0 2.741-1.146 5.321-3.235 7.309.038.092.068.189.087.291l.686 3.676c.082.437-.028.697-.134.839-.123.164-.305.254-.513.254-.157 0-.326-.05-.501-.15l-3.992-2.258c-1.382.484-2.868.738-4.397.738-3.193 0-6.198-1.104-8.46-3.11-2.283-2.023-3.54-4.718-3.54-7.59 0-2.872 1.257-5.568 3.54-7.591" fill="url(#1)"/></g></svg>