<svg xmlns="http://www.w3.org/2000/svg" viewBox="0 0 48 48"><defs><linearGradient id="0" gradientUnits="userSpaceOnUse" y1="43.21" x2="0" y2="-3.077"><stop stop-color="#197cf1"/><stop offset="1" stop-color="#20bcfa"/></linearGradient></defs><g transform="translate(22.78 3.661)"><circle r="24" cy="20.339" cx="1.22" fill="url(#0)"/><path d="m4.548 23.257c-.151-.049-1.103-.478-.508-2.287h-.008c1.551-1.597 2.736-4.168 2.736-6.699 0-3.891-2.588-5.931-5.595-5.931-3.01 0-5.583 2.039-5.583 5.931 0 2.541 1.179 5.122 2.739 6.716.608 1.596-.479 2.188-.707 2.27-2.12.686-7.888 4.104-7.797 9.08h22.788c.102-4.756-4.461-7.844-8.07-9.08" fill="#fff" fill-opacity=".847"/></g></svg>