<svg xmlns="http://www.w3.org/2000/svg" viewBox="0 0 48 48"><defs><linearGradient id="0" y1="540.8" x2="0" y2="504.8" gradientUnits="userSpaceOnUse"><stop stop-color="#63984b"/><stop offset="1" stop-color="#8fc278"/></linearGradient><linearGradient id="1" y1="535.8" x2="0" y2="511.8" gradientUnits="userSpaceOnUse"><stop stop-color="#2a2c2f"/><stop offset="1" stop-color="#424649"/></linearGradient></defs><g transform="matrix(.82759 0 0 .82759-314.13-409.49)"><g fill-rule="evenodd"><rect y="504.8" x="379.57" height="38" width="58" fill="url(#0)" rx="1.5"/><rect y="510.8" x="395.57" height="26" width="26" fill="url(#1)" rx="1"/></g><path d="m399.48 515.62v3.636h-1.818v3.636h-1.818v1.818h1.818v3.636h1.818v1.818h1.818v-3.636h1.818v-1.818h3.636v1.818h1.818v1.818h1.818v1.818h1.818v3.636h1.818v-1.818h1.818v-3.636h1.818v-1.818h1.818v-1.818h1.818v-1.818h-1.818v-1.818h-1.818v-1.818h-1.818v-3.636h-1.818v-1.818h-1.818v3.636h-1.818v1.818h-1.818v1.818h-1.818v1.818h-3.636v-1.818h-1.818v-5.455z" fill="#e0e0e0"/><path fill="#e6ed6e" d="m379.57 540.7h58v1h-58z"/></g></svg>