<svg xmlns="http://www.w3.org/2000/svg" xmlns:xlink="http://www.w3.org/1999/xlink" viewBox="0 0 48 48"><defs><linearGradient id="2" x1="408.71" y1="538.93" x2="408.78" y2="503.88" gradientUnits="userSpaceOnUse"><stop stop-color="#141414"/><stop offset="1" stop-color="#2d2d2f"/></linearGradient><linearGradient id="3" x1="408.33" y1="534.91" x2="407.33" y2="506.05" gradientUnits="userSpaceOnUse"><stop stop-color="#08f"/><stop offset="1" stop-color="#02c3ff"/></linearGradient><linearGradient id="1" gradientUnits="userSpaceOnUse" gradientTransform="matrix(1.11196 0 0 .64757-45.743 188.01)" x1="409.06" y1="544.83" x2="409.17" y2="540.72"><stop stop-color="#c1c3c3"/><stop offset="1" stop-color="#e6e7e8"/></linearGradient><linearGradient y2="528.53" x2="416.84" y1="510.8" x1="399.12" gradientUnits="userSpaceOnUse" xlink:href="#0"/><linearGradient id="0"><stop stop-color="#2e5d89"/><stop offset="1" stop-color="#1b92f4"/></linearGradient><linearGradient xlink:href="#0" gradientUnits="userSpaceOnUse" x1="458.2" y1="523.3" x2="473.2" y2="538.3"/></defs><g transform="matrix(.83508 0 0 .83508-317.19-411.99)"><rect width="52" height="35.14" x="382.57" y="503.66" fill="url(#2)" fill-rule="evenodd" stroke="#c3c5ca" stroke-linejoin="round" stroke-linecap="round" stroke-width=".392" rx=".958"/><path d="m379.83 538.2v1.26a2.052847 1.260139 0 0 0 2.05285 1.26014h53.37a2.052847 1.260139 0 0 0 2.05285 -1.26014v-1.26h-2.053-53.37-2.053" fill="url(#1)"/><g fill-rule="evenodd"><rect width="47.833" height="30.16" x="384.66" y="505.77" fill="url(#3)" rx=".5"/><circle cx="433.97" cy="539.47" r=".55" fill="#151515"/></g></g></svg>