<svg xmlns="http://www.w3.org/2000/svg" viewBox="0 0 48 48"><defs><clipPath><path d="m596.51 511.71c-7.452 6.109-22.261 15.989-32.626 11.818-5.793-2.332-8.254-7.974-1.48-7.577 13.816.809 20.506 2.306 34.11-4.241"/></clipPath><clipPath id="6"><path d="m596.5 511.72c-6.962 6.661-20.973 17.643-31.626 14.277-5.954-1.882-8.839-7.319-2.055-7.441 13.837-.25 20.622.731 33.681-6.836"/></clipPath><clipPath id="7"><path d="m556.75 546.2h27.01v-29.575h-27.01v29.575"/></clipPath><clipPath><path d="m556.74 544.61h28.84v-27.979h-28.84v27.979"/></clipPath><clipPath><path d="m548.84 543.24h11.247v-38.495h-11.247v38.495"/></clipPath><clipPath id="8"><path d="m556.75 516.63c2.252 9.368 8.092 26.19 18.874 29.12 6.02 1.639 11.393-1.373 5.753-5.147-11.502-7.696-17.738-10.542-24.627-23.971"/></clipPath><clipPath><path d="m558.32 524.53h38.19v-12.815h-38.19v12.815"/></clipPath><clipPath id="4"><path d="m0 792h612v-792h-612v792"/></clipPath><clipPath id="9"><path d="m547.05 542.87h13.05v-38.14h-13.05v38.14"/></clipPath><clipPath id="5"><path d="m558.89 526.62h37.604v-14.904h-37.604v14.904"/></clipPath><linearGradient id="1" gradientUnits="userSpaceOnUse" gradientTransform="matrix(.71218 0 0 1.40915-381.68-762.3)" y1="544.31" x2="0" y2="542.96"><stop stop-color="#0a80fd"/><stop offset="1" stop-color="#56c5fa"/></linearGradient><linearGradient id="2" gradientUnits="userSpaceOnUse" gradientTransform="matrix(.35005 0 0 .34422-84.47-33.606)" x1="10.09" x2="122.72"><stop stop-color="#1a1a1a"/><stop offset=".111" stop-color="#2c2c2e"/><stop offset=".29" stop-color="#2b2b2d"/><stop offset=".512" stop-color="#2a2b2d"/><stop offset=".752" stop-color="#2b2b2d"/><stop offset=".897" stop-color="#323232"/><stop offset="1" stop-color="#171717"/></linearGradient><linearGradient gradientUnits="userSpaceOnUse" y2="-31.865" x2="-61.694" y1="-.386" x1="-61.865" id="3"><stop stop-color="#bbbec4"/><stop offset="1" stop-color="#dddfe2"/></linearGradient><linearGradient id="0" gradientUnits="userSpaceOnUse" y1="5.383" x2="0" y2="2.392"><stop stop-color="#040404"/><stop offset="1" stop-color="#121212" stop-opacity=".908"/></linearGradient></defs><g transform="matrix(1.13038 0 0 1.13038-43.2 21.982)" enable-background="new"><g transform="matrix(1.04635 0 0 1.04635 123.51 15.193)"><path d="m-80.94.075l.35 5.517c0 .572.468 1.033 1.05 1.033h36.624c.582 0 1.05-.461 1.05-1.033l.35-5.517h-39.42" fill="url(#2)"/><path d="m-77.79-32.27h32.776c.582 0 1.05.461 1.05 1.033l2.451 31.14c0 .572-.468 1.033-1.05 1.033h-37.33c-.582 0-1.05-.461-1.05-1.033l2.1-31.14c0-.572.468-1.033 1.05-1.033" fill="url(#3)"/><rect y="3.494" x="-69.24" height="1.083" width="16.15" fill="url(#1)" rx=".542"/><ellipse cx="-46.39" cy="4.074" rx="1.495" ry="1.495" opacity=".452" fill="url(#0)"/><g fill="#e3e8ea" stroke-width="1.317"><path d="m-46.39 4.113c.034 0 .063-.012.088-.037.025-.025.037-.054.037-.088v-.623c0-.034-.012-.063-.037-.088-.025-.025-.054-.037-.088-.037-.034 0-.063.012-.088.037-.025.025-.037.054-.037.088v.623c0 .034.012.063.037.088.025.025.054.037.088.037" opacity=".668"/><path d="m-45.724 3.779c-.052-.104-.126-.192-.221-.263-.027-.021-.058-.029-.093-.024-.034.005-.062.021-.082.049-.021.027-.029.058-.024.092.005.034.021.062.048.082.064.048.113.107.147.176.035.069.052.143.052.222 0 .068-.013.132-.039.193-.026.061-.062.114-.107.159-.045.045-.098.08-.159.107-.061.026-.126.039-.193.039-.068 0-.132-.013-.193-.039-.061-.026-.114-.062-.159-.107-.045-.045-.08-.098-.107-.159-.026-.061-.039-.126-.039-.193 0-.079.017-.153.052-.222.035-.069.084-.128.148-.176.027-.021.043-.048.048-.082.005-.034-.003-.065-.024-.092-.02-.028-.047-.044-.081-.049-.034-.005-.065.004-.093.024-.095.071-.168.158-.221.263-.052.105-.078.216-.078.334 0 .101.02.198.059.29.04.092.093.172.16.239.067.067.146.12.239.16.092.04.189.059.29.059.101 0 .198-.02.29-.059.092-.04.172-.093.239-.16.067-.067.12-.146.16-.239.04-.092.059-.189.059-.29 0-.118-.026-.229-.078-.334" opacity=".668"/></g></g><g clip-path="url(#4)" stroke-width=".192" transform="matrix(.48911 0 0-.43412-219.4 225.65)" fill="#a1a7ae" stroke="#909296"><g clip-path="url(#5)" transform="translate(-3.313-2.692)"><g clip-path="url(#6)" stroke-width=".192"><path d="m596.5 511.72c-6.962 6.661-20.973 17.643-31.626 14.277-5.954-1.882-8.839-7.319-2.055-7.441 13.837-.25 20.622.731 33.681-6.836" fill-rule="evenodd" stroke-width=".192"/></g></g><g clip-path="url(#7)" transform="translate(-1.553)"><g clip-path="url(#8)" stroke-width=".192"><path d="m556.75 516.63c2.252 9.368 8.092 26.19 18.874 29.12 6.02 1.639 11.393-1.373 5.753-5.147-11.502-7.696-17.738-10.542-24.627-23.971" fill-rule="evenodd" stroke-width=".192"/></g></g><g clip-path="url(#9)"><path d="m560.09 504.74c-6.172 7.399-16.178 22.12-12.09 32.524 2.281 5.812 7.902 8.321 7.563 1.544-.691-13.823-2.131-20.525 4.531-34.07" fill-rule="evenodd" stroke-width=".192"/></g></g></g></svg>