<svg xmlns="http://www.w3.org/2000/svg" viewBox="0 0 48 48"><defs><linearGradient id="3" x1="407.53" y1="546.6" x2="407.44" y2="506.14" gradientUnits="userSpaceOnUse" gradientTransform="matrix(.98795 0 0 1 5.184 0)"><stop stop-color="#bfc1c1"/><stop offset="1" stop-color="#f1f2f3"/></linearGradient><linearGradient id="2" x1="388.8" y1="517.6" x2="388.85" y2="510.69" gradientUnits="userSpaceOnUse"><stop stop-color="#e4bd27"/><stop offset="1" stop-color="#fff360"/></linearGradient><linearGradient gradientTransform="matrix(1.02718 0 0 1-394.98-499.8)" gradientUnits="userSpaceOnUse" y2="506.14" x2="415.93" y1="556.87" x1="416.05" id="0"><stop stop-color="#151515"/><stop offset="1" stop-color="#3f3f3f"/></linearGradient><linearGradient id="1" y1="518.78" x2="0" y2="505.65" gradientUnits="userSpaceOnUse" gradientTransform="matrix(.99303 0 0 .75338 3.066 124.77)"><stop stop-color="#08f"/><stop offset="1" stop-color="#02c3ff"/></linearGradient></defs><g transform="matrix(.92306 0 0 .92306-353.14-459.5)"><path d="m388.57 509.4c-.554 0-1 .446-1 1v7c0 .554.446 1 1 1h2v-9h-2" fill="url(#2)"/><path d="m11 8.109v11.891h2v13h-1.512c0 0-.462-.009-.488.613v21.786c.08 2.496 2.192 2.601 2.192 2.601h37.467c0 0 2.341.095 2.341-2.196v-27.618c-.0001-.203-.2-.186-.2-.186h-.8v-5h.698c0 0 .309.003.302-.308v-9.395c.008-.319-.188-.485-.188-.485l-6.668-6.668c-.111-.155-.39-.144-.39-.144h-32.763c0 0-1.992.067-1.992 2.109" transform="translate(376.57 491.8)" fill="url(#0)"/><rect y="506.9" x="400.77" height="15.6" width="15.6" fill="#abb9be" rx="7.8"/><rect y="505.84" x="390.91" height="37.929" width="35.749" fill="url(#3)" fill-rule="evenodd" rx="1.3"/><rect width="35.749" height="8.287" x="390.91" y="505.82" fill="url(#1)" rx="1.295"/><path d="m424.18 512.07l-1.453-4-1.453 4z" fill="#edefef" fill-rule="evenodd"/><g transform="matrix(.44258 0 0 .44122 598.21 594.89)" fill="#343434" color="#000"><ellipse cx="-462.61" cy="-130.51" rx="2.5" ry="2.5"/><ellipse cx="-458.11" cy="-123.01" rx="3" ry="3"/><ellipse cx="-460.61" cy="-138.51" rx="1.5" ry="1.5"/><path d="m-452.11-140.01l-2.844 2.844 4.375 4.375-4.531 5.156 3 2.625 7-8-7-7"/></g><path fill="#0198ff" fill-rule="evenodd" d="m390.91 512.85h35.749v1.348h-35.749z"/></g></svg>