<svg xmlns="http://www.w3.org/2000/svg" viewBox="0 0 48 48"><defs><linearGradient y2="506.8" x2="0" y1="540.8" gradientTransform="matrix(1.52928 0 0 1.52941-592.82-769.1)" gradientUnits="userSpaceOnUse" id="0"><stop stop-color="#d1d7df"/><stop offset="1" stop-color="#e0e5e7"/></linearGradient><linearGradient id="1" x1="31.839" y1="40.485" x2="32" y2="24" gradientUnits="userSpaceOnUse"><stop stop-color="#3d434a"/><stop offset="1" stop-color="#5f6974"/></linearGradient></defs><path transform="matrix(.92308 0 0 .92308-5.534-5.541)" d="m32 6c-14.403 0-25.998 11.596-25.998 26 0 14.404 11.595 26 25.998 26 14.403 0 25.998-11.596 25.998-26 0-14.404-11.595-26-25.998-26m0 23c1.662 0 3 1.338 3 3 0 1.662-1.338 3-3 3-1.662 0-3-1.338-3-3 0-1.662 1.338-3 3-3z" fill="url(#0)"/><path transform="matrix(.92308 0 0 .92308-5.534-5.541)" d="m32 23c-4.986 0-9 4.01-9 9 0 4.986 4.01 9 9 9 4.986 0 9-4.01 9-9 0-4.986-4.01-9-9-9m0 1a8 8 0 0 1 8 8 8 8 0 0 1 -8 8 8 8 0 0 1 -8 -8 8 8 0 0 1 8 -8m0 1a7 7 0 0 0 -7 7 7 7 0 0 0 7 7 7 7 0 0 0 7 -7 7 7 0 0 0 -7 -7m0 4c1.662 0 3 1.338 3 3 0 1.662-1.338 3-3 3-1.662 0-3-1.338-3-3 0-1.662 1.338-3 3-3" opacity=".791" fill="url(#1)"/><path d="m409 531l-5.244 6.733c-.983 1.262-.708 3.511.55 4.497 1.259.986 3.5.71 4.484-.552l5.244-6.733.655-.842c.656-.842.472-2.341-.367-2.998-.839-.658-2.334-.473-2.989.368l-.656.842-3.933 5.05-.656.842c-.328.421-.236 1.17.183 1.499.42.329 1.167.237 1.495-.184l4.589-5.891.839.658-4.589 5.891c-.656.842-2.15 1.026-2.989.368-.839-.658-1.023-2.157-.367-2.998l.656-.842 4.589-5.891c.983-1.262 3.225-1.538 4.484-.552 1.259.986 1.534 3.235.551 4.497l-.656.842-5.244 6.733c-1.311 1.683-4.3 2.051-5.978.736-1.678-1.315-2.045-4.313-.734-5.997l5.244-6.733.839.658" stroke-opacity=".8" stroke-width=".071" transform="matrix(.60178 0 0 .59993-207.03-297.93)" stroke="none" fill="#6c747d"/></svg>