<svg xmlns="http://www.w3.org/2000/svg" viewBox="0 0 48 48"><defs><clipPath><path d="m596.51 511.71c-7.452 6.109-22.261 15.989-32.626 11.818-5.793-2.332-8.254-7.974-1.48-7.577 13.816.809 20.506 2.306 34.11-4.241"/></clipPath><clipPath id="6"><path d="m596.5 511.72c-6.962 6.661-20.973 17.643-31.626 14.277-5.954-1.882-8.839-7.319-2.055-7.441 13.837-.25 20.622.731 33.681-6.836"/></clipPath><clipPath id="7"><path d="m556.75 546.2h27.01v-29.575h-27.01v29.575"/></clipPath><clipPath><path d="m556.74 544.61h28.84v-27.979h-28.84v27.979"/></clipPath><clipPath><path d="m548.84 543.24h11.247v-38.495h-11.247v38.495"/></clipPath><clipPath id="8"><path d="m556.75 516.63c2.252 9.368 8.092 26.19 18.874 29.12 6.02 1.639 11.393-1.373 5.753-5.147-11.502-7.696-17.738-10.542-24.627-23.971"/></clipPath><clipPath><path d="m558.32 524.53h38.19v-12.815h-38.19v12.815"/></clipPath><clipPath id="4"><path d="m0 792h612v-792h-612v792"/></clipPath><clipPath id="9"><path d="m547.05 542.87h13.05v-38.14h-13.05v38.14"/></clipPath><clipPath id="5"><path d="m558.89 526.62h37.604v-14.904h-37.604v14.904"/></clipPath><linearGradient gradientUnits="userSpaceOnUse" y2="1049.64" x2="11.718" y1="1009.42" x1="10.261" id="1"><stop stop-color="#f4f4f4"/><stop offset="1" stop-color="#dbdbdb"/></linearGradient><linearGradient gradientUnits="userSpaceOnUse" y2="1011.78" x2="21.16" y1="1043.65" x1="24.477" id="2"><stop stop-color="#dcdcdc"/><stop offset="1" stop-color="#f0f0f0"/></linearGradient><linearGradient id="3" gradientUnits="userSpaceOnUse" gradientTransform="matrix(.7829 0 0 .72089-1.832 288.38)" spreadMethod="reflect" y1="1017.87" x2="0" y2="1015.36"><stop stop-color="#00a5cc"/><stop offset="1" stop-color="#0086cc" stop-opacity="0"/></linearGradient><linearGradient gradientUnits="userSpaceOnUse" y2="1006.42" x2="25.1" y1="1048.54" x1="24.947" id="0"><stop stop-color="#141414"/><stop offset="1" stop-color="#2d2d2f"/></linearGradient></defs><g transform="matrix(1.05742 0 0 1.05742-1.382-1063.4)"><g fill-rule="evenodd"><rect y="1006.1" x="6.317" height="44.501" width="35.37" fill="url(#0)" stroke="url(#1)" stroke-linecap="round" stroke-width=".892" rx="1.785"/><rect y="1010.6" x="10.595" height="35.493" width="26.817" fill="url(#2)" rx=".892"/></g><g transform="matrix(.40483 0 0-.40408-206.65 1237.41)" clip-path="url(#4)" stroke-width=".234" fill="#bdbdc2" stroke="#afafaf" enable-background="new"><g clip-path="url(#5)" transform="translate(-3.997-1.449)"><g clip-path="url(#6)" stroke-width=".234"><path d="m596.5 511.72c-6.962 6.661-20.973 17.643-31.626 14.277-5.954-1.882-8.839-7.319-2.055-7.441 13.837-.25 20.622.731 33.681-6.836" fill-rule="evenodd" stroke-width=".234"/></g></g><g clip-path="url(#7)" transform="translate(-2.485.663)"><g clip-path="url(#8)" stroke-width=".234"><path d="m556.75 516.63c2.252 9.368 8.092 26.19 18.874 29.12 6.02 1.639 11.393-1.373 5.753-5.147-11.502-7.696-17.738-10.542-24.627-23.971" fill-rule="evenodd" stroke-width=".234"/></g></g><g clip-path="url(#9)"><path d="m560.09 504.74c-6.172 7.399-16.178 22.12-12.09 32.524 2.281 5.812 7.902 8.321 7.563 1.544-.691-13.823-2.131-20.525 4.531-34.07" fill-rule="evenodd" stroke-width=".234"/></g></g><g><path opacity=".8" fill="url(#3)" d="m6.78 1020.34h34.448v3.61h-34.448z"/><path opacity=".8" fill="#fff" d="m6.78 1021.94h34.448v.41h-34.448z"/></g></g></svg>