<svg xmlns="http://www.w3.org/2000/svg" viewBox="0 0 64 64"><defs><linearGradient id="0" x1="-74.929" y1="52.2" x2="-75.26" y2="2.356" gradientUnits="userSpaceOnUse" gradientTransform="matrix(1.07499 0 0 1.02929 56.689.383)"><stop stop-color="#4dbf03"/><stop offset="1" stop-color="#87f755"/></linearGradient></defs><g transform="translate(56.39-.177)"><rect width="44" height="60.27" x="-46.39" y="2.044" fill="url(#0)" rx="2.5" stroke-width="1"/><path d="m-122.9 12.494c-.432 0-.78.348-.78.78v12.501c0 .432.348.78.78.78h4.327v6.924c0 .432.348.78.78.78h19.311c.432 0 .78-.348.78-.78v-12.501c0-.432-.348-.78-.78-.78h-4.327v-6.924c0-.432-.348-.78-.78-.78h-19.311z" opacity=".98" fill="#e8f9de" stroke="#fff" stroke-width=".234" transform="matrix(1.09091 0 0 1.09091 96.37 6.674)"/></g></svg>