<svg xmlns="http://www.w3.org/2000/svg" viewBox="0 0 63.999999 63.999999"><defs><linearGradient id="0" gradientUnits="userSpaceOnUse" gradientTransform="matrix(1.07499 0 0 1.02929 56.689-.017)" x1="-74.929" y1="52.2" x2="-75.26" y2="-1.032"><stop stop-color="#dc3c30"/><stop offset="1" stop-color="#ff786d"/></linearGradient></defs><g transform="translate(56.39.088)"><rect width="44" height="60.53" x="-46.39" y="1.644" fill="url(#0)" rx="2.5"/><path d="m-22.677 19.911l-14.571 2.571v18.857l14.571 2.571v-24m.857 3.429v.857h9.429v11.143h.857v-11.143-.857h-.857-9.429m0 1.714v1.848c.274-.071.561-.134.857-.134v3.429h3.429c0 1.894-1.535 3.429-3.429 3.429-.297 0-.583-.063-.857-.134v.991h6v.857h-6v1.714h6v.857h-6v2.571h8.571v-15.429h-8.571m1.714.857c1.894 0 3.429 1.535 3.429 3.429h-3.429v-3.429m-9.536 1.929c.859.015 1.295.185 1.661.536.477.457.675 1.058.67 2.116-.009 1.737-1.045 2.813-2.679 2.813h-.616l-.054 1.393-.027 1.42-.643-.054-.67-.027v-4.045-4.045l1.339-.08c.396-.022.732-.032 1.018-.027m-.991 1.446v1.232c0 .676.061 1.267.107 1.313.134.134.506.111.964-.08.556-.232.808-.958.589-1.688-.161-.538-.519-.777-1.205-.777h-.455" fill="#fff" fill-opacity=".854" color="#000"/></g></svg>