<svg xmlns="http://www.w3.org/2000/svg" viewBox="0 0 64 64"><defs><linearGradient id="0" x1="-74.929" y1="52.2" x2="-75.26" y2="2.356" gradientUnits="userSpaceOnUse" gradientTransform="matrix(1.07499 0 0 1.02929 56.689.25)"><stop stop-color="#dc3c30"/><stop offset="1" stop-color="#ff786d"/></linearGradient></defs><g transform="translate(56.39-.177)"><rect width="44" height="60.53" x="-46.39" y="1.911" fill="url(#0)" rx="2.5" stroke-width="1"/></g><g transform="matrix(2.40048 0 0 2.40048 6.06-2467.52)" fill="#fff" fill-opacity=".854"><path d="m12.792 1036.26c.064.586-.172 1.173-.521 1.596-.349.422-.923.752-1.484.708-.076-.574.208-1.175.531-1.55.361-.422.971-.735 1.474-.755"/><path d="m12.781 1038.68c.326.014 1.241.133 1.828.992-.047.03-1.093.637-1.081 1.904.013 1.513 1.329 2.02 1.344 2.023-.012.035-.21.717-.693 1.422-.417.609-.85 1.216-1.531 1.229-.67.013-.885-.398-1.651-.398-.766 0-1 .383-1.638.409-.658.024-1.158-.658-1.578-1.266-.86-1.241-1.515-3.506-.633-5.04.437-.76 1.219-1.243 2.068-1.255.646-.012 1.257.435 1.651.435.395 0 1.135-.537 1.914-.458"/></g></svg>