<svg xmlns="http://www.w3.org/2000/svg" viewBox="0 0 64 64"><defs><linearGradient id="0" x1="-74.929" y1="52.2" x2="-75.26" y2="2.356" gradientUnits="userSpaceOnUse" gradientTransform="matrix(1.07499 0 0 1.02929 56.689-.015)"><stop stop-color="#8798a9"/><stop offset="1" stop-color="#aeb6be"/></linearGradient></defs><g transform="translate(56.39.089)"><rect width="44" height="60.53" x="-46.39" y="1.646" fill="url(#0)" rx="2.5"/><path d="m452.57 521.37l-4.742.456v19.536l4.691-.709v-8.329l6.313 9.241 4.945-1.571-6.465-8.886 6.515-8.38-5.05-1.155-6.262 8.38.051-8.582m-10.751 4.762c-.054.004-.112.019-.152.061l-1.864 1.864c-.078.079-.088.199-.03.294l2.179 3.597c-.387.65-.701 1.348-.922 2.087l-4 .831c-.111.022-.192.129-.192.243v2.634c0 .111.085.207.192.233l3.881.942c.208.856.528 1.675.952 2.422l-2.249 3.425c-.063.096-.05.223.03.304l1.864 1.864c.079.078.199.088.294.03l3.526-2.138c.692.399 1.44.719 2.229.932l.821 3.952c.022.112.119.192.233.192h2.634c.111 0 .207-.074.233-.182l.973-3.972c.814-.219 1.581-.545 2.29-.963l3.476 2.28c.096.063.223.05.304-.03l1.854-1.864c.079-.079.098-.199.04-.294l-1.267-2.087-.415.132c-.06.019-.126-.001-.162-.061 0 0-.8-1.177-1.844-2.705-1.249 2.443-3.795 4.114-6.728 4.114-4.168 0-7.549-3.381-7.549-7.549 0-3.066 1.833-5.699 4.458-6.88v-1.945c-.478.167-.939.369-1.378.608-.0001-.0001.0001-.001 0-.001l-3.557-2.331c-.048-.031-.099-.036-.152-.03" stroke="none" transform="matrix(.84112 0 0 .84112-403.18-418.62)" stroke-opacity=".8" fill="#3d434a"/></g></svg>