<?xml version="1.0" encoding="UTF-8" standalone="no"?>
<svg
   xmlns:osb="http://www.openswatchbook.org/uri/2009/osb"
   xmlns:dc="http://purl.org/dc/elements/1.1/"
   xmlns:cc="http://creativecommons.org/ns#"
   xmlns:rdf="http://www.w3.org/1999/02/22-rdf-syntax-ns#"
   xmlns:svg="http://www.w3.org/2000/svg"
   xmlns="http://www.w3.org/2000/svg"
   xmlns:xlink="http://www.w3.org/1999/xlink"
   xmlns:sodipodi="http://sodipodi.sourceforge.net/DTD/sodipodi-0.dtd"
   xmlns:inkscape="http://www.inkscape.org/namespaces/inkscape"
   width="64"
   viewBox="0 0 64 64"
   height="64"
   id="svg2"
   version="1.1"
   inkscape:version="0.91 r13725"
   sodipodi:docname="application-x-perl.svg"
   inkscape:export-filename="E:\Usuarios\David\Desktop\android.png"
   inkscape:export-xdpi="90"
   inkscape:export-ydpi="90">
  <metadata
     id="metadata14">
    <rdf:RDF>
      <cc:Work
         rdf:about="">
        <dc:format>image/svg+xml</dc:format>
        <dc:type
           rdf:resource="http://purl.org/dc/dcmitype/StillImage" />
        <dc:title />
      </cc:Work>
    </rdf:RDF>
  </metadata>
  <defs
     id="defs12">
    <linearGradient
       osb:paint="gradient"
       id="linearGradient4207">
      <stop
         id="stop3371"
         offset="0"
         style="stop-color:#3498db;stop-opacity:1;" />
      <stop
         id="stop3373"
         offset="1"
         style="stop-color:#3498db;stop-opacity:0;" />
    </linearGradient>
    <linearGradient
       inkscape:collect="always"
       xlink:href="#linearGradient4143"
       id="linearGradient4182"
       x1="-74.929466"
       y1="52.199436"
       x2="-75.259552"
       y2="2.3564887"
       gradientUnits="userSpaceOnUse"
       gradientTransform="matrix(1.0749904,0,0,1.0292896,56.688954,-0.01528526)" />
    <linearGradient
       id="linearGradient4143"
       inkscape:collect="always">
      <stop
         id="stop4145"
         offset="0"
         style="stop-color:#197cf1;stop-opacity:1" />
      <stop
         id="stop4147"
         offset="1"
         style="stop-color:#20bcfa;stop-opacity:1" />
    </linearGradient>
  </defs>
  <sodipodi:namedview
     pagecolor="#747474"
     bordercolor="#666666"
     borderopacity="1"
     objecttolerance="10"
     gridtolerance="10"
     guidetolerance="10"
     inkscape:pageopacity="1"
     inkscape:pageshadow="2"
     inkscape:window-width="1366"
     inkscape:window-height="687"
     id="namedview10"
     showgrid="false"
     inkscape:zoom="5.2716364"
     inkscape:cx="36.157245"
     inkscape:cy="26.220165"
     inkscape:window-x="0"
     inkscape:window-y="0"
     inkscape:window-maximized="1"
     inkscape:current-layer="g4168"
     inkscape:snap-bbox="true"
     inkscape:bbox-nodes="true"
     inkscape:object-nodes="true"
     borderlayer="false"
     showguides="false"
     inkscape:snap-nodes="true"
     inkscape:object-paths="false"
     inkscape:showpageshadow="false"
     showborder="true">
    <inkscape:grid
       type="xygrid"
       id="grid4160"
       visible="true" />
    <sodipodi:guide
       position="28.888657,63.404975"
       orientation="0,35.2"
       id="guide6108" />
    <sodipodi:guide
       position="54,55.679691"
       orientation="51.200004,0"
       id="guide6112" />
    <sodipodi:guide
       position="58.527669,62"
       orientation="0,1"
       id="guide6114"
       inkscape:label=""
       inkscape:color="rgb(0,0,255)" />
    <sodipodi:guide
       position="10,4"
       orientation="-56,0"
       id="guide6116" />
    <sodipodi:guide
       position="11,4"
       orientation="-2.8421709e-014,0"
       id="guide6118" />
    <sodipodi:guide
       position="12,62"
       orientation="0,35.2"
       id="guide6120" />
    <sodipodi:guide
       position="52,2"
       orientation="0,-40"
       id="guide6126" />
    <sodipodi:guide
       position="12,62"
       orientation="0,35.2"
       id="guide6138" />
    <sodipodi:guide
       position="55,3"
       orientation="0,-40"
       id="guide6156" />
    <sodipodi:guide
       position="53,4.3973202"
       orientation="-56,0"
       id="guide6158" />
    <sodipodi:guide
       position="21,48"
       orientation="0,22"
       id="guide4238" />
    <sodipodi:guide
       position="43,48"
       orientation="22,0"
       id="guide4240" />
    <sodipodi:guide
       position="43,26"
       orientation="0,-22"
       id="guide4242" />
    <sodipodi:guide
       position="21,26"
       orientation="-22,0"
       id="guide4244" />
  </sodipodi:namedview>
  <g
     id="g4186"
     transform="translate(56.391766,-0.17677665)">
    <g
       id="g4168"
       transform="translate(0,0.26550102)">
      <rect
         style="opacity:1;fill:url(#linearGradient4182);fill-opacity:1;stroke:none;stroke-width:0.30000001;stroke-linecap:round;stroke-linejoin:round;stroke-miterlimit:4;stroke-dasharray:none;stroke-dashoffset:0;stroke-opacity:1"
         id="rect4174"
         width="44"
         height="60.531002"
         x="-46.391766"
         y="1.6457746"
         ry="2.5" />
      <g
         transform="translate(-550.79201,-509.37303)"
         id="layer1"
         inkscape:label="Capa 1"
         inkscape:transform-center-x="5.4653607"
         inkscape:transform-center-y="-9.4924686">
        <g
           transform="matrix(1.0909066,0,0,1.0909066,-47.223523,-44.003435)"
           inkscape:label="Capa 1"
           id="layer1-3">
          <g
             id="g7239"
             transform="translate(342.78116,509.88415)" />
          <path
             d="m 535.18318,526.78428 c -0.70555,-0.0366 -0.82862,-0.96977 -1.51873,-1.01349 -0.36266,-0.0226 -1.04924,-0.0543 -1.64604,0.16276 -0.66507,-0.45465 -1.51873,-1.01168 -0.27119,1.15829 -0.2711,1.46369 -1.17535,5.56907 -2.13402,5.58623 -0.95817,0.0177 -1.59072,-1.73489 -2.4047,-1.71692 -0.814,0.0174 -0.814,0.0174 -0.814,0.0174 -0.95816,0 -1.58869,-1.69482 -3.52582,-1.75308 -1.21159,-0.0363 -2.16996,2.09635 -4.86444,2.3313 -0.72291,0.0545 -1.83566,0.33602 -1.94834,2.00317 0,0 -1.5887,1.48541 -0.84074,4.91673 0.18668,-1.70824 0.27977,-3.14065 0.84074,-4.07549 -0.0418,0.93273 0.24929,1.83779 0,2.80414 -0.24918,0.96522 -1.04146,2.61642 -1.04146,2.61642 0,0 -0.17356,0.34288 0.26271,1.52682 0.43597,1.18331 1.30832,4.11526 1.30832,4.11526 0.0445,0.51462 0.11692,0.78582 0.47847,1.02127 -0.0907,0.34237 -0.39568,1.02974 0.6891,1.02974 0.46474,4.1e-4 0,0 1.05186,0 0.73493,0 0.49574,-0.63163 -0.69121,-1.21108 0.0361,-0.43365 -0.23485,-0.88618 -0.41588,-0.97684 -0.43355,-1.10296 -0.99421,-3.21586 -0.99421,-3.21586 0,0 -0.19941,-1.84536 0.48796,-2.46074 0.68718,-0.61397 1.51743,-1.19181 2.07828,-3.23515 0.0177,-0.1452 0.95827,0.72361 2.83917,1.2655 1.88049,0.5434 3.32289,-0.0366 3.53299,0.0541 0.21001,0.0911 0.66215,1.19312 0.66215,2.26094 0,1.0665 -0.37964,1.77165 -0.37964,2.18752 0,0.41589 0.30744,1.1391 0.30744,1.1391 0,0 0.18063,1.98882 -0.0542,3.11036 -0.16286,0.70443 -0.43396,1.06236 0.65113,1.06397 1.08487,0.002 2.56756,0.23667 0.63315,-1.0463 0.16225,-0.39802 0.0358,-0.94141 -0.14518,-1.1391 -0.0363,-0.97665 0.073,-1.93572 0.25291,-2.33272 0.18094,-0.39841 0.0548,-1.5367 0.0908,-2.11494 0.0364,-0.57853 0.56056,-2.65771 1.1391,-3.39871 0.57863,-0.7424 3.14619,-2.92922 3.58055,-5.06262 0.43405,-2.13412 0.90415,-4.30488 2.17006,-4.2858 0.75906,0 0.88557,0.43364 1.21108,0.41588 0.32562,-0.0192 0.90426,-0.55896 0.90426,-0.84852 0,-0.28897 -0.0719,-0.88174 -1.48239,-0.89952 z"
             id="path3"
             inkscape:connector-curvature="0"
             style="fill:#0b3969;fill-opacity:1" />
        </g>
      </g>
    </g>
  </g>
</svg>
