<svg xmlns="http://www.w3.org/2000/svg" viewBox="0 0 64 64"><defs><linearGradient id="0" x1="-74.929" y1="60.02" x2="-75.26" y2="2.356" gradientUnits="userSpaceOnUse" gradientTransform="matrix(.73803 0 0 .70665 451.02 474.44)"><stop stop-color="#197cf1"/><stop offset="1" stop-color="#20bcfa"/></linearGradient></defs><g transform="matrix(1.45657 0 0 1.45657-543.86-690.99)" fill="#6b162c"><rect width="30.21" height="41.557" x="380.25" y="475.58" fill="url(#0)" rx="1.716"/><path d="m587.02 125.52h-74.939v-67.44c0-13.796-11.183-24.98-24.98-24.98h-362.2c-13.796 0-24.98 11.183-24.98 24.98v67.44h-74.939c-13.795 0-24.978 11.184-24.978 24.98v244.8c0 13.796 11.183 24.98 24.98 24.98h74.939v88.49 43.16c0 8.328 1.684 14.541 8.121 20.428 2.998 2.742 6.199 4.52 10.11 5.618 3.621 1.015 7.2.929 10.86.929h176.99 176.99c3.662 0 7.244.086 10.867-.93 3.913-1.099 7.117-2.881 10.114-5.627 6.438-5.895 8.11-12.12 8.11-20.447v-43.18-88.44h74.939c13.796 0 24.98-11.183 24.98-24.98v-244.8c.0001-13.796-11.182-24.981-24.979-24.981m-99.92 428.4h-362.2v-197.34h362.2zm0-428.4h-362.2l-.008-42.465v-24.98h362.22v24.98c-.0001 14.156-.007 28.311-.007 42.465" fill="#eaf5fe" transform="matrix(.03019 0 0 .03019 386.11 487.13)"/></g></svg>