<svg xmlns="http://www.w3.org/2000/svg" viewBox="0 0 64 64"><defs><linearGradient id="0" x1="-74.929" y1="52.2" x2="-75.26" y2="2.356" gradientUnits="userSpaceOnUse" gradientTransform="matrix(1.07499 0 0 1.02929 56.689.25)"><stop stop-color="#197cf1"/><stop offset="1" stop-color="#20bcfa"/></linearGradient></defs><g transform="translate(56.39-.177)"><rect width="44" height="60.53" x="-46.39" y="1.911" fill="url(#0)" rx="2.5" stroke-width="1"/></g><path d="m32.04 18.245c-.088-.003-.174.032-.235.096-.882.92-1.778 1.952-2.588 2.935-.0001.0001-.002.003-.003.003-1.996 2.489-3.513 5.05-4.612 7.784-1.024 2.551-1.623 4.757-2.168 7.971-.119.704-.24 1.557-.323 2.243-.042.343-.074.644-.092.867-.009.111-.014.203-.016.277-.0001.037-.0001.068.003.106.002.019.004.04.013.074.001.035.002.105.142.192.075.047.086.037.104.042.019.004.033.008.048.001.03.005.063.009.1.012.074.008.165.015.262.02.765.042 1.893.236 2.642.455.505.148.838.27 1.331.489.114.051.218.097.296.13.039.017.071.03.095.04.011.005.021.009.031.012.0001 0 .0001.0001.002.0001.0001 0 .0001.0001.002.0001.003.002.007.003.013.007 0-.0001-.002-.003-.003-.003.002.0001.003.0001.004.002.004.002.009.003.018.007.003.0001.007.003.011.005-.003-.0001-.011 0-.012-.0001.022.012.048.026.083.046.083.046.198.109.323.18 1.207.679 2.11 1.378 3.552 2.76.19.182.367.347.501.469.067.061.123.111.167.149.022.019.041.034.061.049.001.008.02.015.036.026.009.005.019.011.037.02.019.009.037.027.123.031.103.005.124-.018.145-.027.021-.001.032-.016.041-.021.018-.011.028-.019.039-.027.021-.016.04-.032.064-.052.048-.04.109-.094.182-.16.146-.131.339-.31.547-.507 1.193-1.131 1.77-1.609 2.601-2.16 1.814-1.203 3.43-1.738 5.911-1.947l.201-.017c.162-.013.286-.149.286-.311v-.118c0-.247-.059-.756-.138-1.386-.079-.631-.18-1.349-.272-1.894-.544-3.243-1.163-5.527-2.2-8.11-.934-2.327-2.272-4.677-3.871-6.805-.003-.005-.008-.001-.011-.014-1.076-1.274-2.117-2.611-3.252-3.85-.057-.062-.136-.099-.221-.102" fill="#fff" fill-opacity=".88"/></svg>