<?xml version="1.0" encoding="UTF-8" standalone="no"?>
<svg
   xmlns:osb="http://www.openswatchbook.org/uri/2009/osb"
   xmlns:dc="http://purl.org/dc/elements/1.1/"
   xmlns:cc="http://creativecommons.org/ns#"
   xmlns:rdf="http://www.w3.org/1999/02/22-rdf-syntax-ns#"
   xmlns:svg="http://www.w3.org/2000/svg"
   xmlns="http://www.w3.org/2000/svg"
   xmlns:xlink="http://www.w3.org/1999/xlink"
   xmlns:sodipodi="http://sodipodi.sourceforge.net/DTD/sodipodi-0.dtd"
   xmlns:inkscape="http://www.inkscape.org/namespaces/inkscape"
   width="64"
   viewBox="0 0 64 64"
   height="64"
   id="svg2"
   version="1.1"
   inkscape:version="0.91 r13725"
   sodipodi:docname="application-x-sif.svg"
   inkscape:export-filename="E:\Usuarios\David\Desktop\android.png"
   inkscape:export-xdpi="90"
   inkscape:export-ydpi="90">
  <metadata
     id="metadata14">
    <rdf:RDF>
      <cc:Work
         rdf:about="">
        <dc:format>image/svg+xml</dc:format>
        <dc:type
           rdf:resource="http://purl.org/dc/dcmitype/StillImage" />
        <dc:title />
      </cc:Work>
    </rdf:RDF>
  </metadata>
  <defs
     id="defs12">
    <linearGradient
       osb:paint="gradient"
       id="linearGradient4207">
      <stop
         id="stop3371"
         offset="0"
         style="stop-color:#3498db;stop-opacity:1;" />
      <stop
         id="stop3373"
         offset="1"
         style="stop-color:#3498db;stop-opacity:0;" />
    </linearGradient>
    <linearGradient
       inkscape:collect="always"
       xlink:href="#linearGradient4143"
       id="linearGradient4182"
       x1="-74.929466"
       y1="52.199436"
       x2="-75.259552"
       y2="2.3564887"
       gradientUnits="userSpaceOnUse"
       gradientTransform="matrix(1.0749904,0,0,1.0292896,56.688954,-0.01528455)" />
    <linearGradient
       inkscape:collect="always"
       id="linearGradient4143">
      <stop
         style="stop-color:#197cf1;stop-opacity:1"
         offset="0"
         id="stop4145" />
      <stop
         style="stop-color:#20bcfa;stop-opacity:1"
         offset="1"
         id="stop4147" />
    </linearGradient>
  </defs>
  <sodipodi:namedview
     pagecolor="#747474"
     bordercolor="#666666"
     borderopacity="1"
     objecttolerance="10"
     gridtolerance="10"
     guidetolerance="10"
     inkscape:pageopacity="1"
     inkscape:pageshadow="2"
     inkscape:window-width="1366"
     inkscape:window-height="687"
     id="namedview10"
     showgrid="false"
     inkscape:zoom="5.2716365"
     inkscape:cx="44.663075"
     inkscape:cy="23.660564"
     inkscape:window-x="0"
     inkscape:window-y="0"
     inkscape:window-maximized="1"
     inkscape:current-layer="svg2"
     inkscape:snap-bbox="true"
     inkscape:bbox-nodes="true"
     inkscape:object-nodes="true"
     borderlayer="false"
     showguides="true"
     inkscape:snap-nodes="true"
     inkscape:object-paths="false"
     inkscape:showpageshadow="false"
     showborder="true">
    <inkscape:grid
       type="xygrid"
       id="grid4160"
       visible="true" />
    <sodipodi:guide
       position="28.888657,63.404975"
       orientation="0,35.2"
       id="guide6108" />
    <sodipodi:guide
       position="54,55.679691"
       orientation="51.200004,0"
       id="guide6112" />
    <sodipodi:guide
       position="58.527669,62"
       orientation="0,1"
       id="guide6114"
       inkscape:label=""
       inkscape:color="rgb(0,0,255)" />
    <sodipodi:guide
       position="10,4"
       orientation="-56,0"
       id="guide6116" />
    <sodipodi:guide
       position="11,4"
       orientation="-2.8421709e-014,0"
       id="guide6118" />
    <sodipodi:guide
       position="12,62"
       orientation="0,35.2"
       id="guide6120" />
    <sodipodi:guide
       position="12,62"
       orientation="0,35.2"
       id="guide6138" />
    <sodipodi:guide
       position="55,3"
       orientation="0,-40"
       id="guide6156" />
    <sodipodi:guide
       position="53,4.3973202"
       orientation="-56,0"
       id="guide6158" />
    <sodipodi:guide
       position="43,48"
       orientation="22,0"
       id="guide4240" />
    <sodipodi:guide
       position="43,26"
       orientation="0,-22"
       id="guide4242" />
    <sodipodi:guide
       position="21,26"
       orientation="-22,0"
       id="guide4244" />
  </sodipodi:namedview>
  <g
     id="g4186"
     transform="translate(56.391766,-0.17677736)">
    <g
       id="g4239"
       transform="translate(0,0.26550102)">
      <rect
         style="opacity:1;fill:url(#linearGradient4182);fill-opacity:1;stroke:none;stroke-width:0.30000001;stroke-linecap:round;stroke-linejoin:round;stroke-miterlimit:4;stroke-dasharray:none;stroke-dashoffset:0;stroke-opacity:1"
         id="rect4174"
         width="44"
         height="60.531002"
         x="-46.391766"
         y="1.6457753"
         ry="2.5" />
    </g>
    <g
       inkscape:transform-center-y="-9.4924686"
       inkscape:transform-center-x="5.4653607"
       inkscape:label="Capa 1"
       id="layer1-4"
       transform="translate(-509.70748,-515.64674)">
      <g
         id="layer1-3-65"
         inkscape:label="Capa 1"
         transform="translate(0.41988239,0.03484499)" />
    </g>
  </g>
  <path
     inkscape:connector-curvature="0"
     style="display:inline;opacity:1;fill:#ffffff;fill-opacity:0.87969923;enable-background:new"
     d="m 32.035848,18.245388 c -0.08827,-0.0027 -0.173535,0.03214 -0.234641,0.09591 -0.881654,0.920022 -1.777717,1.95231 -2.587572,2.934883 -8.58e-4,8.59e-4 -0.0018,0.0027 -0.0027,0.0033 -1.995663,2.488819 -3.512545,5.046078 -4.611819,7.784146 -1.024018,2.550594 -1.622734,4.757095 -2.167642,7.971288 -0.11933,0.703865 -0.239912,1.556753 -0.323104,2.243062 -0.0416,0.34316 -0.07392,0.644219 -0.09218,0.866877 -0.0091,0.111316 -0.01444,0.202653 -0.01582,0.276534 -6.71e-4,0.03697 -7.83e-4,0.06774 0.0027,0.106155 0.0018,0.01917 0.0036,0.03971 0.01307,0.07446 0.0096,0.03481 0.0018,0.105422 0.14153,0.191803 0.07539,0.04659 0.08562,0.0374 0.104289,0.04187 0.01874,0.0042 0.03319,0.0078 0.0484,0.01022 0.03043,0.0051 0.06275,0.0087 0.09962,0.01213 0.07377,0.0078 0.165153,0.01522 0.261645,0.02046 0.765158,0.04187 1.893498,0.236326 2.641583,0.455321 0.505037,0.147848 0.837545,0.270164 1.330564,0.488832 0.113903,0.05054 0.218359,0.09672 0.296099,0.130362 0.03886,0.01684 0.07074,0.02991 0.09497,0.04007 0.01138,0.0051 0.0215,0.0087 0.03069,0.01213 5.85e-4,2.41e-4 8.61e-4,7.04e-4 0.0018,8.6e-4 1.47e-4,6e-5 7.66e-4,-8.7e-5 8.6e-4,0 3.27e-4,1.2e-4 6.1e-4,8.08e-4 8.59e-4,8.59e-4 0.0033,0.0018 0.0069,0.0033 0.01307,0.0069 -3.61e-4,-8.26e-4 -0.0018,-0.0027 -0.0027,-0.0027 0.0018,6.45e-4 0.0027,8.6e-4 0.0042,0.0018 0.0042,0.0018 0.0087,0.0033 0.01771,0.0069 0.0033,8.59e-4 0.0069,0.0033 0.01113,0.0051 -0.0027,-5.08e-4 -0.01056,-3.79e-4 -0.01213,-8.6e-4 0.02183,0.01176 0.0478,0.02631 0.08287,0.04566 0.08348,0.0459 0.198106,0.109466 0.323095,0.1797 1.207379,0.678553 2.11032,1.378282 3.55221,2.759833 0.189973,0.18202 0.366989,0.34713 0.500945,0.469283 0.06698,0.06103 0.122593,0.111338 0.166667,0.148982 0.02201,0.01883 0.04067,0.03412 0.06052,0.04934 0.01,0.0078 0.01952,0.01539 0.03628,0.02605 0.0087,0.0051 0.01866,0.0115 0.03722,0.02045 0.01857,0.009 0.03706,0.02656 0.122907,0.03078 0.102867,0.0051 0.124207,-0.01762 0.145251,-0.027 0.02106,-0.0096 0.0319,-0.01582 0.041,-0.02141 0.01823,-0.01113 0.02846,-0.01908 0.03911,-0.027 0.02123,-0.0159 0.0404,-0.03214 0.06422,-0.05218 0.04763,-0.04007 0.108512,-0.09441 0.181565,-0.160151 0.146112,-0.131497 0.339411,-0.310138 0.547498,-0.50746 1.192764,-1.131023 1.770135,-1.609134 2.600611,-2.160189 1.813626,-1.203416 3.429757,-1.737563 5.910737,-1.946963 l 0.201123,-0.01677 c 0.16168,-0.01349 0.285991,-0.148741 0.285844,-0.310989 l 0,-0.118254 c 9e-6,-0.24653 -0.05863,-0.755703 -0.137799,-1.386434 -0.07918,-0.630731 -0.180378,-1.348624 -0.271883,-1.893894 -0.544273,-3.243094 -1.163053,-5.527242 -2.200234,-8.110024 -0.934352,-2.326736 -2.272007,-4.677087 -3.870652,-6.804609 -0.0033,-0.0051 -0.0078,-0.0096 -0.01113,-0.01402 -1.07608,-1.273797 -2.116955,-2.610748 -3.252397,-3.850166 -0.05682,-0.06225 -0.136413,-0.09889 -0.220671,-0.1015 l 0,0 z"
     id="path3621" />
  <g
     style="font-style:normal;font-weight:normal;font-size:80px;line-height:125%;font-family:sans-serif;letter-spacing:0px;word-spacing:0px;fill:#ffffff;fill-opacity:1;stroke:none;stroke-width:1px;stroke-linecap:butt;stroke-linejoin:miter;stroke-opacity:1"
     id="text4179"
     transform="matrix(0.11824324,0,0,0.11824324,31.834332,55.09939)" />
</svg>
