<svg xmlns="http://www.w3.org/2000/svg" viewBox="0 0 64 64"><defs><linearGradient id="0" x1="-74.929" y1="52.2" x2="-75.26" y2="2.356" gradientUnits="userSpaceOnUse" gradientTransform="matrix(1.91019 0 0 1.83233 578.48 487.91)"><stop stop-color="#197cf1"/><stop offset="1" stop-color="#20bcfa"/></linearGradient></defs><g transform="matrix(.56277 0 0 .56174-212.46-273.88)" fill="#11394f"><rect width="78.19" height="107.28" x="395.31" y="490.87" fill="url(#0)" rx="4.45"/><path d="m451.46 528.91c-4.563-3.714-10.622-5.759-17.06-5.759-6.439 0-12.498 2.045-17.06 5.759-4.603 3.746-7.138 8.738-7.138 14.06 0 5.077 2.311 9.855 6.523 13.537-.076.171-.136.351-.175.54l-1.384 6.808c-.165.809.057 1.292.271 1.554.248.303.615.47 1.034.47.316 0 .657-.093 1.011-.278l8.05-4.182c2.787.897 5.784 1.368 8.868 1.368 6.439 0 12.497-2.045 17.06-5.759 4.603-3.746 7.138-8.738 7.138-14.06 0-5.319-2.535-10.312-7.138-14.06" fill="#0b3969"/></g></svg>