<?xml version="1.0" encoding="UTF-8" standalone="no"?>
<svg
   xmlns:osb="http://www.openswatchbook.org/uri/2009/osb"
   xmlns:dc="http://purl.org/dc/elements/1.1/"
   xmlns:cc="http://creativecommons.org/ns#"
   xmlns:rdf="http://www.w3.org/1999/02/22-rdf-syntax-ns#"
   xmlns:svg="http://www.w3.org/2000/svg"
   xmlns="http://www.w3.org/2000/svg"
   xmlns:xlink="http://www.w3.org/1999/xlink"
   xmlns:sodipodi="http://sodipodi.sourceforge.net/DTD/sodipodi-0.dtd"
   xmlns:inkscape="http://www.inkscape.org/namespaces/inkscape"
   width="64"
   viewBox="0 0 64 64"
   height="64"
   id="svg2"
   version="1.1"
   inkscape:version="0.91 r13725"
   sodipodi:docname="application-x-lha.svg"
   inkscape:export-filename="E:\Usuarios\David\Desktop\android.png"
   inkscape:export-xdpi="90"
   inkscape:export-ydpi="90">
  <metadata
     id="metadata14">
    <rdf:RDF>
      <cc:Work
         rdf:about="">
        <dc:format>image/svg+xml</dc:format>
        <dc:type
           rdf:resource="http://purl.org/dc/dcmitype/StillImage" />
        <dc:title />
      </cc:Work>
    </rdf:RDF>
  </metadata>
  <defs
     id="defs12">
    <linearGradient
       osb:paint="gradient"
       id="linearGradient4207">
      <stop
         id="stop3371"
         offset="0"
         style="stop-color:#3498db;stop-opacity:1;" />
      <stop
         id="stop3373"
         offset="1"
         style="stop-color:#3498db;stop-opacity:0;" />
    </linearGradient>
    <linearGradient
       inkscape:collect="always"
       xlink:href="#linearGradient4422"
       id="linearGradient4182"
       x1="-74.929466"
       y1="52.199436"
       x2="-75.259552"
       y2="2.3564887"
       gradientUnits="userSpaceOnUse"
       gradientTransform="matrix(1.0749904,0,0,1.0292896,56.688954,-0.01528526)" />
    <linearGradient
       id="linearGradient4422">
      <stop
         style="stop-color:#debf85;stop-opacity:1"
         offset="0"
         id="stop4424" />
      <stop
         style="stop-color:#fde2a6;stop-opacity:1"
         offset="1"
         id="stop4426" />
    </linearGradient>
  </defs>
  <sodipodi:namedview
     pagecolor="#747474"
     bordercolor="#666666"
     borderopacity="1"
     objecttolerance="10"
     gridtolerance="10"
     guidetolerance="10"
     inkscape:pageopacity="1"
     inkscape:pageshadow="2"
     inkscape:window-width="1366"
     inkscape:window-height="687"
     id="namedview10"
     showgrid="false"
     inkscape:zoom="5.2716365"
     inkscape:cx="18.146271"
     inkscape:cy="24.561955"
     inkscape:window-x="0"
     inkscape:window-y="0"
     inkscape:window-maximized="1"
     inkscape:current-layer="g4186"
     inkscape:snap-bbox="true"
     inkscape:bbox-nodes="true"
     inkscape:object-nodes="true"
     borderlayer="false"
     showguides="false"
     inkscape:snap-nodes="true"
     inkscape:object-paths="false"
     inkscape:showpageshadow="false"
     showborder="true">
    <inkscape:grid
       type="xygrid"
       id="grid4160"
       visible="true" />
    <sodipodi:guide
       position="28.888657,63.404975"
       orientation="0,35.2"
       id="guide6108" />
    <sodipodi:guide
       position="54,55.679691"
       orientation="51.200004,0"
       id="guide6112" />
    <sodipodi:guide
       position="58.527669,62"
       orientation="0,1"
       id="guide6114"
       inkscape:label=""
       inkscape:color="rgb(0,0,255)" />
    <sodipodi:guide
       position="10,4"
       orientation="-56,0"
       id="guide6116" />
    <sodipodi:guide
       position="11,4"
       orientation="-2.8421709e-014,0"
       id="guide6118" />
    <sodipodi:guide
       position="12,62"
       orientation="0,35.2"
       id="guide6120" />
    <sodipodi:guide
       position="52,2"
       orientation="0,-40"
       id="guide6126" />
    <sodipodi:guide
       position="12,62"
       orientation="0,35.2"
       id="guide6138" />
    <sodipodi:guide
       position="55,3"
       orientation="0,-40"
       id="guide6156" />
    <sodipodi:guide
       position="53,4.3973202"
       orientation="-56,0"
       id="guide6158" />
    <sodipodi:guide
       position="43,48"
       orientation="22,0"
       id="guide4240" />
    <sodipodi:guide
       position="43,26"
       orientation="0,-22"
       id="guide4242" />
    <sodipodi:guide
       position="21,26"
       orientation="-22,0"
       id="guide4244" />
  </sodipodi:namedview>
  <g
     id="g4186"
     transform="translate(56.391766,-0.17677665)">
    <g
       inkscape:transform-center-y="-9.4924686"
       inkscape:transform-center-x="5.4653607"
       inkscape:label="Capa 1"
       id="layer1-4"
       transform="translate(-509.70748,-515.64674)">
      <g
         id="layer1-3-65"
         inkscape:label="Capa 1"
         transform="translate(0.41988239,0.03484499)" />
    </g>
    <g
       id="g4179"
       transform="translate(0,0.26550102)">
      <rect
         style="opacity:1;fill:url(#linearGradient4182);fill-opacity:1;stroke:none;stroke-width:0.30000001;stroke-linecap:round;stroke-linejoin:round;stroke-miterlimit:4;stroke-dasharray:none;stroke-dashoffset:0;stroke-opacity:1"
         id="rect4174"
         width="44"
         height="60.531002"
         x="-46.391766"
         y="1.6457746"
         ry="2.5" />
      <g
         transform="matrix(0.81954967,0,0,0.81954967,-4.5342864,10.121829)"
         id="text4161"
         style="font-style:normal;font-weight:normal;font-size:9.36996746px;line-height:125%;font-family:sans-serif;letter-spacing:0px;word-spacing:0px;fill:#ffffff;fill-opacity:1;stroke:none;stroke-width:1px;stroke-linecap:butt;stroke-linejoin:miter;stroke-opacity:1" />
      <g
         transform="matrix(0.92387261,0,0,0.92387261,-452.41913,-455.19669)"
         id="layer1-5"
         inkscape:label="Capa 1">
        <g
           id="g4414"
           transform="matrix(1.5263052,0,0,1.5263052,376.26248,-1040.1735)">
          <g
             transform="matrix(0.42549858,0,0,0.42549858,-116.82388,804.06163)"
             id="layer1-0"
             inkscape:label="Capa 1">
            <path
               style="opacity:1;fill:#62543b;fill-opacity:1;stroke:none;stroke-width:2.79999995;stroke-miterlimit:4;stroke-dasharray:none;stroke-opacity:0.55026455"
               d="M 23.099609,16.265625 C 22.49021,16.265625 22,16.755835 22,17.365234 l 0,19.800782 c 0,0.609399 0.49021,1.099609 1.099609,1.099609 l 17.59961,0 c 0.609399,0 1.101562,-0.49021 1.101562,-1.099609 l 0,-19.800782 c 0,-0.609399 -0.492163,-1.099609 -1.101562,-1.099609 l -17.59961,0 z m 8.228516,0.611328 1.222656,0 c 0.270771,0 0.488281,0.21751 0.488281,0.488281 l 0,0.123047 c 0,0.270771 -0.21751,0.488281 -0.488281,0.488281 l -1.222656,0 c -0.270771,0 -0.488281,-0.21751 -0.488281,-0.488281 l 0,-0.123047 c 0,-0.270771 0.21751,-0.488281 0.488281,-0.488281 z m -0.0039,1.589844 1.222656,0 c 0.270771,0 0.488281,0.219463 0.488281,0.490234 l 0,0.121094 c 0,0.270771 -0.21751,0.490234 -0.488281,0.490234 l -1.222656,0 c -0.270771,0 -0.490235,-0.219463 -0.490235,-0.490234 l 0,-0.121094 c 0,-0.270771 0.219464,-0.490234 0.490235,-0.490234 z m -0.01367,1.572265 1.222656,0 c 0.270771,0 0.488281,0.217511 0.488281,0.488282 l 0,0.123047 c 0,0.270771 -0.21751,0.488281 -0.488281,0.488281 l -1.222656,0 c -0.270771,0 -0.490235,-0.21751 -0.490235,-0.488281 l 0,-0.123047 c 0,-0.270771 0.219464,-0.488282 0.490235,-0.488282 z m 0.02344,1.636719 1.222657,0 c 0.270771,0 0.488281,0.21751 0.488281,0.488281 l 0,0.123047 c 0,0.270772 -0.21751,0.488282 -0.488281,0.488282 l -1.222657,0 c -0.270771,0 -0.488281,-0.21751 -0.488281,-0.488282 l 0,-0.123047 c 0,-0.270771 0.21751,-0.488281 0.488281,-0.488281 z m 0,1.607422 1.222657,0 c 0.270771,0 0.488281,0.21751 0.488281,0.488281 l 0,0.123047 c 0,0.270771 -0.21751,0.488281 -0.488281,0.488281 l -1.222657,0 c -0.270771,0 -0.488281,-0.21751 -0.488281,-0.488281 l 0,-0.123047 c 0,-0.270771 0.21751,-0.488281 0.488281,-0.488281 z m 0,1.644531 1.222657,0 c 0.270771,0 0.488281,0.219464 0.488281,0.490235 l 0,0.121093 c 0,0.270772 -0.21751,0.490235 -0.488281,0.490235 l -1.222657,0 c -0.270771,0 -0.488281,-0.219463 -0.488281,-0.490235 l 0,-0.121093 c 0,-0.270771 0.21751,-0.490235 0.488281,-0.490235 z m 0.09766,1.664063 0.970703,0 c 0.192703,0 0.347656,0.156207 0.347656,0.349609 l 0,0.695313 0.539062,1.589843 c 0.150849,0.442839 0.07853,0.934794 -0.193359,1.316407 -0.271893,0.380914 -0.712649,0.609375 -1.179687,0.609375 -0.466945,0 -0.90779,-0.228461 -1.179688,-0.609375 -0.271893,-0.381613 -0.344252,-0.873222 -0.193359,-1.316407 l 0.539062,-1.589843 0,-0.695313 c 0,-0.193363 0.156906,-0.349609 0.34961,-0.349609 z m -0.04297,2.328125 -0.179688,0.533203 c -0.0775,0.228822 -0.04062,0.482831 0.09961,0.679687 0.279812,0.392965 0.937028,0.392965 1.216797,0 0.140217,-0.196856 0.177137,-0.451211 0.09961,-0.679687 l -0.179688,-0.533203 -1.05664,0 z"
               transform="matrix(1.8181804,0,0,1.8181804,350.57147,474.22438)"
               id="rect4319"
               inkscape:connector-curvature="0" />
            <g
               transform="translate(-0.71741557,0.01714041)"
               inkscape:label="Capa 1"
               id="layer1-7"
               style="fill:#ffffff;fill-opacity:1" />
          </g>
        </g>
      </g>
    </g>
  </g>
</svg>
