<svg xmlns="http://www.w3.org/2000/svg" viewBox="0 0 64 64"><defs><linearGradient id="0" x1="-74.929" y1="52.2" x2="-75.26" y2="2.356" gradientUnits="userSpaceOnUse" gradientTransform="matrix(1.07499 0 0 1.02929 56.689-.015)"><stop stop-color="#4965b6"/><stop offset="1" stop-color="#8d9dcc"/></linearGradient></defs><g transform="translate(56.39.089)"><rect width="44" height="60.53" x="-46.39" y="1.646" fill="url(#0)" rx="2.5"/><path d="m409.54 529.98l-5.657 7.263c-1.061 1.362-.764 3.788.594 4.852 1.358 1.064 3.776.766 4.837-.596l5.657-7.263.707-.908c.707-.908.509-2.525-.396-3.235-.905-.709-2.517-.511-3.225.397l-.707.908-4.243 5.448-.707.908c-.354.454-.255 1.263.198 1.617.453.355 1.259.255 1.612-.199l4.95-6.355.905.709-4.95 6.355c-.707.908-2.319 1.107-3.225.397-.905-.709-1.103-2.327-.396-3.235l.707-.908 4.95-6.355c1.061-1.362 3.479-1.66 4.837-.596 1.358 1.064 1.655 3.49.594 4.852l-.707.908-5.657 7.263c-1.414 1.816-4.639 2.213-6.449.794-1.81-1.419-2.206-4.653-.792-6.469l5.657-7.263.905.709" stroke-opacity=".8" stroke-width=".071" transform="matrix(1.57177 0 0 1.56693-668.3-808.29)" stroke="none" fill="#232f50"/></g></svg>