<svg xmlns="http://www.w3.org/2000/svg" viewBox="0 0 64 64"><defs><linearGradient id="0" x1="-74.929" y1="52.2" x2="-75.26" y2="2.356" gradientUnits="userSpaceOnUse" gradientTransform="matrix(1.07499 0 0 1.02929 56.689-.015)"><stop stop-color="#ff721a"/><stop offset="1" stop-color="#fbb521"/></linearGradient></defs><g transform="translate(56.39.089)"><rect width="44" height="60.53" x="-46.39" y="1.646" fill="url(#0)" rx="2.5"/><path d="m-24.392 39.453l-7.542-7.542 7.542-7.541 2.514 2.514-5.03 5.03 2.514 2.514 7.542-7.541-6.57-6.57c-.536-.537-1.407-.537-1.944 0l-10.626 10.626c-.536.536-.536 1.407 0 1.944l10.626 10.625c.537.537 1.407.537 1.944 0l10.626-10.625c.536-.537.536-1.407 0-1.944l-1.543-1.542-10.06 10.06" fill="#6f350c"/></g></svg>