<svg xmlns="http://www.w3.org/2000/svg" viewBox="0 0 64 64"><defs><linearGradient id="0" x1="-74.929" y1="52.2" x2="-75.26" y2="2.356" gradientUnits="userSpaceOnUse" gradientTransform="matrix(1.07499 0 0 1.02929 56.689-.015)"><stop stop-color="#dc2b5b"/><stop offset="1" stop-color="#ff7388"/></linearGradient></defs><g transform="translate(56.39.089)"><rect width="44" height="60.53" x="-46.39" y="1.646" fill="url(#0)" rx="2.5"/><path d="m23.1 16.266c-.609 0-1.1.49-1.1 1.1v19.801c0 .609.49 1.1 1.1 1.1h17.6c.609 0 1.102-.49 1.102-1.1v-19.801c0-.609-.492-1.1-1.102-1.1h-17.6m8.229.611h1.223c.271 0 .488.218.488.488v.123c0 .271-.218.488-.488.488h-1.223c-.271 0-.488-.218-.488-.488v-.123c0-.271.218-.488.488-.488m-.004 1.59h1.223c.271 0 .488.219.488.49v.121c0 .271-.218.49-.488.49h-1.223c-.271 0-.49-.219-.49-.49v-.121c0-.271.219-.49.49-.49m-.014 1.572h1.223c.271 0 .488.218.488.488v.123c0 .271-.218.488-.488.488h-1.223c-.271 0-.49-.218-.49-.488v-.123c0-.271.219-.488.49-.488m.023 1.637h1.223c.271 0 .488.218.488.488v.123c0 .271-.218.488-.488.488h-1.223c-.271 0-.488-.218-.488-.488v-.123c0-.271.218-.488.488-.488m0 1.607h1.223c.271 0 .488.218.488.488v.123c0 .271-.218.488-.488.488h-1.223c-.271 0-.488-.218-.488-.488v-.123c0-.271.218-.488.488-.488m0 1.645h1.223c.271 0 .488.219.488.49v.121c0 .271-.218.49-.488.49h-1.223c-.271 0-.488-.219-.488-.49v-.121c0-.271.218-.49.488-.49m.098 1.664h.971c.193 0 .348.156.348.35v.695l.539 1.59c.151.443.079.935-.193 1.316-.272.381-.713.609-1.18.609-.467 0-.908-.228-1.18-.609-.272-.382-.344-.873-.193-1.316l.539-1.59v-.695c0-.193.157-.35.35-.35m-.043 2.328l-.18.533c-.078.229-.041.483.1.68.28.393.937.393 1.217 0 .14-.197.177-.451.1-.68l-.18-.533h-1.057" transform="matrix(1.0909 0 0 1.0909-59.2 2.165)" fill="#611428"/></g></svg>