<svg xmlns="http://www.w3.org/2000/svg" viewBox="0 0 64 64"><defs><linearGradient id="0" x1="-74.929" y1="52.2" x2="-75.26" y2="2.356" gradientUnits="userSpaceOnUse" gradientTransform="matrix(1.07499 0 0 1.02929 56.689.25)"><stop stop-color="#197cf1"/><stop offset="1" stop-color="#20bcfa"/></linearGradient></defs><g transform="translate(56.39-.177)"><rect width="44" height="60.53" x="-46.39" y="1.911" fill="url(#0)" rx="2.5" stroke-width="1"/><path d="m-24.392 43.717c2.161 0 4.707-.272 5.856-1.516.856-.926 1.081-2.628 1.06-3.77-.463-.648-2.585-2.396-6.916-2.396-4.331 0-6.453 1.748-6.916 2.396-.021 1.142.205 2.844 1.06 3.77 1.149 1.244 3.696 1.516 5.856 1.516m-3.319-4.577c0 1.108.105 2.101.66 2.101.555 0 .66-.966.66-2.074 0-1.109-.024-2.074-.626-2.074-.602 0-.694.939-.694 2.048m6.639 0c0 1.108-.105 2.101-.66 2.101-.555 0-.66-.966-.66-2.074 0-1.109.024-2.074.626-2.074.602 0 .694.939.694 2.048m-14.911-6.396c0 .773.083 1.445.229 2.033 1.847-1.46 2.897-5.6 1.855-8.663-1.41 2.285-2.084 4.861-2.084 6.63m4.04 7.248c-2.148-.793-4.99-2.625-4.99-7.246 0-4.621 3.821-13.07 12.541-13.07 8.72 0 12.541 8.447 12.541 13.07 0 4.621-2.842 6.453-4.99 7.246-.288 3.395-2.909 4.685-7.551 4.685-4.641 0-7.262-1.29-7.551-4.685m17.06-13.877c-1.043 3.062.007 7.203 1.855 8.663.147-.588.229-1.26.229-2.033 0-1.769-.674-4.344-2.084-6.63m-9.507-4.586c-3.265 0-5.912 2.566-5.912 5.731 0 3.165 2.647 5.731 5.912 5.731 3.265 0 5.912-2.566 5.912-5.731 0-3.165-2.647-5.731-5.912-5.731" fill="#0b3968" fill-opacity=".91"/></g></svg>