<svg xmlns="http://www.w3.org/2000/svg" viewBox="0 0 64 64"><defs><linearGradient id="0" x1="-74.929" y1="59.2" x2="-75.26" y2="2.356" gradientUnits="userSpaceOnUse" gradientTransform="matrix(1.07499 0 0 1.02929 56.689-.015)"><stop stop-color="#8cbdf8"/><stop offset="1" stop-color="#d5e8ff"/></linearGradient></defs><g transform="translate(56.39.089)"><rect width="44" height="60.53" x="-46.39" y="1.646" fill="url(#0)" rx="2.5"/><path d="m284.27 108.43c-3.997 4.237-9.885 4.237-11.821 4.237-3.589 0-8.03-.594-14.385-1.928-4.995-1.048-9.295-2.092-13.09-3.01-7.46-1.812-12.852-3.122-17.928-3.122-2.861 0-8.08 1.24-13.608 2.553-8.606 2.045-19.316 4.588-29.676 4.588-10.459 0-21.468-.813-28.404-1.441-2.304 8.636-7.785 22.879-20.226 33.07-16.915 13.858-29.456 20.04-29.982 20.297-3.212 1.566-7.08.746-9.371-1.994-2.296-2.737-2.432-6.685-.331-9.574.07-.099 8.523-12.05 8.199-25.48-.129-5.343-.323-9.53-.521-12.718-10.536 3.106-28.475 10.05-37.728 23.12-14.02 19.795-19.769 50.27-18.228 60.27 1.604 10.416 1.796 10.416 6.738 10.416 10.769 0 19.816.441 30.01 5.988 9.01 4.905 13.979 10.272 14.514 10.869 2.02 2.246 2.56 5.459 1.381 8.24-1.179 2.783-3.863 4.63-6.882 4.738-2.913.109-11.727.843-17.391 2.899-3.01 1.092-5.599 2.37-8.105 3.607-4.01 1.978-7.796 3.846-12.214 4.368-1.437.17-2.912.253-4.308.227-1.629 3.783-4.4 8.292-9.06 11.87-3.568 2.74-7.199 4.429-10.402 5.919-3.933 1.831-7.04 3.277-9.427 6.235-6.253 7.754-8.351 16.16-8.371 16.245-.817 3.358-3.757 5.791-7.209 5.948-.119.006-.24.008-.359.008-3.31 0-6.28-2.087-7.36-5.245-.486-1.418-4.587-14.414.87-33.437 1.951-6.8 4.974-12.687 7.896-18.382 4.755-9.262 8.862-17.261 7.139-27.06-8.099-46.07-7.54-83.52 1.661-111.33 14.306-43.24 48.939-67.33 55.737-71.72 3.372-2.179 6.407-4.096 8.965-5.69-2.372-1.89-5.388-3.875-8.973-5.399-8.159-3.469-11.589-4.417-12.539-4.643-.061.002-.12.002-.179.002-3.387.0001-5.99-2.235-6.981-5.538-1.029-3.429.883-7.111 3.965-8.931.586-.347 14.603-8.496 33.08-8.496 3.812 0 7.599.35 11.256 1.039 11.393 2.15 19.444 5.363 27.23 8.468 7.602 3.033 14.784 5.898 25.505 8.156 5.208 1.097 10 1.944 14.642 2.763 15.957 2.817 29.737 5.251 50.34 15.772 26.891 13.734 42.01 28.76 42.578 42.31.119 2.856.057 5.407-.188 7.65 2.516 1.258 5.574 2.848 8.663 4.606 12.575 7.152 17.849 12.509 18.2 18.487.244 4.16-.871 7.582-3.315 10.174" transform="matrix(-.07847 0 0 .07847-13.233 20.774)" fill="#3f546c"/></g></svg>