<?xml version="1.0" encoding="UTF-8" standalone="no"?>
<svg
   xmlns:osb="http://www.openswatchbook.org/uri/2009/osb"
   xmlns:dc="http://purl.org/dc/elements/1.1/"
   xmlns:cc="http://creativecommons.org/ns#"
   xmlns:rdf="http://www.w3.org/1999/02/22-rdf-syntax-ns#"
   xmlns:svg="http://www.w3.org/2000/svg"
   xmlns="http://www.w3.org/2000/svg"
   xmlns:xlink="http://www.w3.org/1999/xlink"
   xmlns:sodipodi="http://sodipodi.sourceforge.net/DTD/sodipodi-0.dtd"
   xmlns:inkscape="http://www.inkscape.org/namespaces/inkscape"
   width="64"
   viewBox="0 0 64 64"
   height="64"
   id="svg2"
   version="1.1"
   inkscape:version="0.91 r13725"
   sodipodi:docname="wps-office-docx.svg"
   inkscape:export-filename="E:\Usuarios\David\Desktop\android.png"
   inkscape:export-xdpi="90"
   inkscape:export-ydpi="90">
  <metadata
     id="metadata14">
    <rdf:RDF>
      <cc:Work
         rdf:about="">
        <dc:format>image/svg+xml</dc:format>
        <dc:type
           rdf:resource="http://purl.org/dc/dcmitype/StillImage" />
        <dc:title />
      </cc:Work>
    </rdf:RDF>
  </metadata>
  <defs
     id="defs12">
    <linearGradient
       osb:paint="gradient"
       id="linearGradient4207">
      <stop
         id="stop3371"
         offset="0"
         style="stop-color:#3498db;stop-opacity:1;" />
      <stop
         id="stop3373"
         offset="1"
         style="stop-color:#3498db;stop-opacity:0;" />
    </linearGradient>
    <linearGradient
       inkscape:collect="always"
       xlink:href="#linearGradient4143"
       id="linearGradient4182"
       x1="-74.929466"
       y1="52.199436"
       x2="-75.259552"
       y2="2.3564887"
       gradientUnits="userSpaceOnUse"
       gradientTransform="matrix(1.0749904,0,0,1.0292896,56.688954,-0.01528455)" />
    <linearGradient
       inkscape:collect="always"
       id="linearGradient4143">
      <stop
         style="stop-color:#197cf1;stop-opacity:1"
         offset="0"
         id="stop4145" />
      <stop
         style="stop-color:#20bcfa;stop-opacity:1"
         offset="1"
         id="stop4147" />
    </linearGradient>
  </defs>
  <sodipodi:namedview
     pagecolor="#747474"
     bordercolor="#666666"
     borderopacity="1"
     objecttolerance="10"
     gridtolerance="10"
     guidetolerance="10"
     inkscape:pageopacity="1"
     inkscape:pageshadow="2"
     inkscape:window-width="1366"
     inkscape:window-height="687"
     id="namedview10"
     showgrid="false"
     inkscape:zoom="5.2716365"
     inkscape:cx="-11.520242"
     inkscape:cy="34.747229"
     inkscape:window-x="0"
     inkscape:window-y="0"
     inkscape:window-maximized="1"
     inkscape:current-layer="svg2"
     inkscape:snap-bbox="true"
     inkscape:bbox-nodes="true"
     inkscape:object-nodes="true"
     borderlayer="false"
     showguides="true"
     inkscape:snap-nodes="true"
     inkscape:object-paths="false"
     inkscape:showpageshadow="false"
     showborder="true">
    <inkscape:grid
       type="xygrid"
       id="grid4160"
       visible="true" />
    <sodipodi:guide
       position="28.888657,63.404975"
       orientation="0,35.2"
       id="guide6108" />
    <sodipodi:guide
       position="54,55.679691"
       orientation="51.200004,0"
       id="guide6112" />
    <sodipodi:guide
       position="58.527669,62"
       orientation="0,1"
       id="guide6114"
       inkscape:label=""
       inkscape:color="rgb(0,0,255)" />
    <sodipodi:guide
       position="10,4"
       orientation="-56,0"
       id="guide6116" />
    <sodipodi:guide
       position="11,4"
       orientation="-2.8421709e-014,0"
       id="guide6118" />
    <sodipodi:guide
       position="12,62"
       orientation="0,35.2"
       id="guide6120" />
    <sodipodi:guide
       position="12,62"
       orientation="0,35.2"
       id="guide6138" />
    <sodipodi:guide
       position="55,3"
       orientation="0,-40"
       id="guide6156" />
    <sodipodi:guide
       position="53,4.3973202"
       orientation="-56,0"
       id="guide6158" />
    <sodipodi:guide
       position="43,48"
       orientation="22,0"
       id="guide4240" />
    <sodipodi:guide
       position="43,26"
       orientation="0,-22"
       id="guide4242" />
    <sodipodi:guide
       position="21,26"
       orientation="-22,0"
       id="guide4244" />
  </sodipodi:namedview>
  <g
     id="g4186"
     transform="translate(56.391766,-0.17677736)">
    <g
       id="g4239"
       transform="translate(0,0.26550102)">
      <rect
         style="opacity:1;fill:url(#linearGradient4182);fill-opacity:1;stroke:none;stroke-width:0.30000001;stroke-linecap:round;stroke-linejoin:round;stroke-miterlimit:4;stroke-dasharray:none;stroke-dashoffset:0;stroke-opacity:1"
         id="rect4174"
         width="44"
         height="60.531002"
         x="-46.391766"
         y="1.6457753"
         ry="2.5" />
    </g>
    <g
       inkscape:transform-center-y="-9.4924686"
       inkscape:transform-center-x="5.4653607"
       inkscape:label="Capa 1"
       id="layer1-4"
       transform="translate(-509.70748,-515.64674)">
      <g
         id="layer1-3-65"
         inkscape:label="Capa 1"
         transform="translate(0.41988239,0.03484499)" />
    </g>
  </g>
  <path
     style="color:#000000;display:inline;overflow:visible;visibility:visible;fill:#ffffff;fill-opacity:0.85000002;fill-rule:nonzero;stroke:none;stroke-width:0.99999994;marker:none;enable-background:accumulate"
     id="rect3139"
     d="m 33.714286,20 -14.571428,2.571429 0,18.857142 L 33.714286,44 l 0,-24 z m 0.857143,2.571429 0,2.571428 7.714286,0 0,0.857143 -7.714286,0 0,1.714286 7.714286,0 0,0.857142 -7.714286,0 0,1.714285 7.714286,0 0,0.857145 -7.714286,0 0,1.714285 7.714286,0 0,0.857144 -7.714286,0 0,1.714285 7.714286,0 0,0.857142 -7.714286,0 0,1.714286 7.714286,0 0,0.857143 -7.714286,0 0,2.571428 10.285714,0 0,-18.857142 -10.285714,0 z m -5.035714,5.062499 0.830356,0 c 0.761585,0 0.8098,0.05092 0.723215,0.428572 -0.05155,0.224837 -0.487716,2.223038 -0.964285,4.446429 l -0.857142,4.044643 -0.883929,0 c -0.481988,0 -0.874693,-0.02859 -0.883929,-0.05357 -0.0093,-0.02498 -0.286095,-1.347586 -0.616071,-2.946429 -0.329975,-1.598842 -0.642941,-2.801678 -0.696429,-2.651786 -0.05349,0.149893 -0.334881,1.464409 -0.616071,2.892858 l -0.508929,2.598215 -0.803572,-0.05358 -0.830358,-0.05357 -0.669642,-3.562499 c -0.373622,-1.948591 -0.726286,-3.753455 -0.776786,-4.017858 -0.08355,-0.437449 -0.0263,-0.49376 0.5625,-0.5625 0.820393,-0.09577 0.855517,-0.01106 1.339286,3.13393 0.206673,1.34358 0.373751,2.463037 0.401785,2.491071 0.02804,0.02804 0.322585,-1.246032 0.642857,-2.812501 0.320273,-1.566468 0.680108,-2.894795 0.803572,-2.973215 0.355333,-0.225692 1.353483,-0.169731 1.446427,0.08036 0.04643,0.12491 0.334483,1.476102 0.616073,3.000001 0.471118,2.549577 0.802143,3.478178 0.803571,2.25 5.48e-4,-0.490522 0.376749,-2.832617 0.75,-4.714287 l 0.1875,-0.964285 z"
     inkscape:connector-curvature="0" />
</svg>
