<?xml version="1.0" encoding="UTF-8" standalone="no"?>
<svg
   xmlns:osb="http://www.openswatchbook.org/uri/2009/osb"
   xmlns:dc="http://purl.org/dc/elements/1.1/"
   xmlns:cc="http://creativecommons.org/ns#"
   xmlns:rdf="http://www.w3.org/1999/02/22-rdf-syntax-ns#"
   xmlns:svg="http://www.w3.org/2000/svg"
   xmlns="http://www.w3.org/2000/svg"
   xmlns:xlink="http://www.w3.org/1999/xlink"
   xmlns:sodipodi="http://sodipodi.sourceforge.net/DTD/sodipodi-0.dtd"
   xmlns:inkscape="http://www.inkscape.org/namespaces/inkscape"
   width="64"
   viewBox="0 0 64 64"
   height="64"
   id="svg2"
   version="1.1"
   inkscape:version="0.91 r13725"
   sodipodi:docname="application-illustrator.svg"
   inkscape:export-filename="E:\Usuarios\David\Desktop\android.png"
   inkscape:export-xdpi="90"
   inkscape:export-ydpi="90">
  <metadata
     id="metadata14">
    <rdf:RDF>
      <cc:Work
         rdf:about="">
        <dc:format>image/svg+xml</dc:format>
        <dc:type
           rdf:resource="http://purl.org/dc/dcmitype/StillImage" />
        <dc:title />
      </cc:Work>
    </rdf:RDF>
  </metadata>
  <defs
     id="defs12">
    <linearGradient
       osb:paint="gradient"
       id="linearGradient4207">
      <stop
         id="stop3371"
         offset="0"
         style="stop-color:#3498db;stop-opacity:1;" />
      <stop
         id="stop3373"
         offset="1"
         style="stop-color:#3498db;stop-opacity:0;" />
    </linearGradient>
    <linearGradient
       inkscape:collect="always"
       xlink:href="#linearGradient4422"
       id="linearGradient4182"
       x1="-74.929466"
       y1="52.199436"
       x2="-75.259552"
       y2="2.3564887"
       gradientUnits="userSpaceOnUse"
       gradientTransform="matrix(1.0749904,0,0,1.0292896,56.688954,-0.01528455)" />
    <linearGradient
       id="linearGradient4422">
      <stop
         id="stop4424"
         offset="0"
         style="stop-color:#e84e17;stop-opacity:1" />
      <stop
         id="stop4426"
         offset="1"
         style="stop-color:#fda44e;stop-opacity:1" />
    </linearGradient>
  </defs>
  <sodipodi:namedview
     pagecolor="#747474"
     bordercolor="#666666"
     borderopacity="1"
     objecttolerance="10"
     gridtolerance="10"
     guidetolerance="10"
     inkscape:pageopacity="1"
     inkscape:pageshadow="2"
     inkscape:window-width="1366"
     inkscape:window-height="687"
     id="namedview10"
     showgrid="false"
     inkscape:zoom="5.2716364"
     inkscape:cx="-48.415809"
     inkscape:cy="35.210181"
     inkscape:window-x="0"
     inkscape:window-y="0"
     inkscape:window-maximized="1"
     inkscape:current-layer="g4183"
     inkscape:snap-bbox="true"
     inkscape:bbox-nodes="true"
     inkscape:object-nodes="true"
     borderlayer="false"
     showguides="false"
     inkscape:snap-nodes="true"
     inkscape:object-paths="false"
     inkscape:showpageshadow="false"
     showborder="true">
    <inkscape:grid
       type="xygrid"
       id="grid4160"
       visible="true" />
    <sodipodi:guide
       position="28.888657,63.404975"
       orientation="0,35.2"
       id="guide6108" />
    <sodipodi:guide
       position="54,55.679691"
       orientation="51.200004,0"
       id="guide6112" />
    <sodipodi:guide
       position="58.527669,62"
       orientation="0,1"
       id="guide6114"
       inkscape:label=""
       inkscape:color="rgb(0,0,255)" />
    <sodipodi:guide
       position="10,4"
       orientation="-56,0"
       id="guide6116" />
    <sodipodi:guide
       position="11,4"
       orientation="-2.8421709e-014,0"
       id="guide6118" />
    <sodipodi:guide
       position="12,62"
       orientation="0,35.2"
       id="guide6120" />
    <sodipodi:guide
       position="52,2"
       orientation="0,-40"
       id="guide6126" />
    <sodipodi:guide
       position="12,62"
       orientation="0,35.2"
       id="guide6138" />
    <sodipodi:guide
       position="55,3"
       orientation="0,-40"
       id="guide6156" />
    <sodipodi:guide
       position="53,4.3973202"
       orientation="-56,0"
       id="guide6158" />
    <sodipodi:guide
       position="21,48"
       orientation="0,22"
       id="guide4238" />
    <sodipodi:guide
       position="43,48"
       orientation="22,0"
       id="guide4240" />
    <sodipodi:guide
       position="43,26"
       orientation="0,-22"
       id="guide4242" />
    <sodipodi:guide
       position="21,26"
       orientation="-22,0"
       id="guide4244" />
  </sodipodi:namedview>
  <g
     id="g4186"
     transform="translate(56.391766,-0.17677665)">
    <g
       style="font-style:normal;font-weight:normal;font-size:9.36996746px;line-height:125%;font-family:sans-serif;letter-spacing:0px;word-spacing:0px;fill:#ffffff;fill-opacity:1;stroke:none;stroke-width:1px;stroke-linecap:butt;stroke-linejoin:miter;stroke-opacity:1"
       id="text4161"
       transform="matrix(0.81954967,0,0,0.81954967,-4.3342833,10.721775)">
      <g
         id="g4170"
         transform="translate(0,0.32395954)">
        <g
           id="g4183">
          <rect
             transform="matrix(1.2201823,0,0,1.2201823,5.2886158,-13.08252)"
             ry="2.5"
             y="1.6457753"
             x="-46.391766"
             height="60.531002"
             width="44"
             id="rect4174"
             style="opacity:1;fill:url(#linearGradient4182);fill-opacity:1.0;stroke:none;stroke-width:0.30000001;stroke-linecap:round;stroke-linejoin:round;stroke-miterlimit:4;stroke-dasharray:none;stroke-dashoffset:0;stroke-opacity:1" />
          <path
             style="color:#000000;font-style:normal;font-weight:normal;font-size:9.36996746px;line-height:125%;font-family:sans-serif;letter-spacing:0px;word-spacing:0px;display:inline;overflow:visible;visibility:visible;fill:#ffffff;fill-opacity:0.84552848;fill-rule:nonzero;stroke:none;stroke-width:1;stroke-linecap:butt;stroke-linejoin:miter;stroke-opacity:1;marker:none;enable-background:accumulate"
             id="path3031"
             d="m -13.396414,12.911682 c -0.353482,3e-5 -0.713182,0.04864 -1.035462,0.129434 -0.3119,0.08083 -0.569855,0.212899 -0.80897,0.42066 -0.228719,0.19627 -0.414942,0.474218 -0.550084,0.808959 -0.135159,0.32325 -0.194163,0.733266 -0.194163,1.229622 0,0.484858 0.059,0.894875 0.194163,1.22962 0.135142,0.334789 0.321365,0.601196 0.550084,0.80896 0.239115,0.196265 0.49707,0.328337 0.80897,0.420659 0.32228,0.08081 0.68198,0.129456 1.035462,0.129435 0.353466,3e-5 0.691216,-0.04861 1.003108,-0.129435 0.311891,-0.09234 0.580234,-0.224394 0.80897,-0.420659 0.239107,-0.207764 0.414929,-0.474171 0.550086,-0.80896 0.145548,-0.334745 0.226497,-0.744762 0.226506,-1.22962 -9e-6,-0.496356 -0.08097,-0.906372 -0.226506,-1.229622 -0.135157,-0.334741 -0.310979,-0.612689 -0.550086,-0.808959 -0.228736,-0.207761 -0.497079,-0.339821 -0.80897,-0.42066 -0.311892,-0.08078 -0.649642,-0.129406 -1.003108,-0.129434 z m -18.962037,2.070939 -7.733668,23.815804 5.112636,0 2.070939,-6.212819 7.474798,0 1.941501,6.212819 5.080273,0 -7.76602,-23.815804 -6.180459,0 z m 3.10641,3.268201 c 0.05435,0.379632 0.160862,0.84913 0.291223,1.391413 0.130328,0.542322 0.279448,1.107996 0.420662,1.65028 0.15205,0.531473 0.290301,1.011457 0.420654,1.456129 0.130336,0.444703 0.226059,0.743182 0.291231,0.938395 l 1.520847,4.756689 -5.824519,0 1.520847,-4.756689 c 0.03256,-0.11929 0.09662,-0.300619 0.161793,-0.550093 0.07605,-0.249443 0.139605,-0.515923 0.226508,-0.84132 0.08689,-0.325364 0.193452,-0.666687 0.291222,-1.035469 0.09775,-0.368747 0.171967,-0.742251 0.25887,-1.100187 0.09775,-0.368747 0.193689,-0.710071 0.258869,-1.035471 0.07605,-0.325361 0.118325,-0.635044 0.161793,-0.873677 z m 13.234594,1.909148 0,18.638455 5.177346,0 0,-18.638455 -5.177346,0 z"
             inkscape:connector-curvature="0" />
        </g>
      </g>
    </g>
  </g>
</svg>
