<svg xmlns="http://www.w3.org/2000/svg" viewBox="0 0 64 64"><defs><linearGradient id="0" x1="-74.929" y1="52.2" x2="-75.26" y2="2.356" gradientUnits="userSpaceOnUse" gradientTransform="matrix(1.07499 0 0 1.02929 56.689-.015)"><stop stop-color="#197cf1"/><stop offset="1" stop-color="#20bcfa"/></linearGradient></defs><g transform="translate(56.39.089)"><rect width="44" height="60.53" x="-46.39" y="1.646" fill="url(#0)" rx="2.5"/><path d="m535.18 526.78c-.706-.037-.829-.97-1.519-1.013-.363-.023-1.049-.054-1.646.163-.665-.455-1.519-1.012-.271 1.158-.271 1.464-1.175 5.569-2.134 5.586-.958.018-1.591-1.735-2.405-1.717-.814.017-.814.017-.814.017-.958 0-1.589-1.695-3.526-1.753-1.212-.036-2.17 2.096-4.864 2.331-.723.054-1.836.336-1.948 2 0 0-1.589 1.485-.841 4.917.187-1.708.28-3.141.841-4.075-.042.933.249 1.838 0 2.804-.249.965-1.041 2.616-1.041 2.616 0 0-.174.343.263 1.527.436 1.183 1.308 4.115 1.308 4.115.044.515.117.786.478 1.021-.091.342-.396 1.03.689 1.03.465 0 0 0 1.052 0 .735 0 .496-.632-.691-1.211.036-.434-.235-.886-.416-.977-.434-1.103-.994-3.216-.994-3.216 0 0-.199-1.845.488-2.461.687-.614 1.517-1.192 2.078-3.235.018-.145.958.724 2.839 1.265 1.88.543 3.323-.037 3.533.054.21.091.662 1.193.662 2.261 0 1.067-.38 1.772-.38 2.188 0 .416.307 1.139.307 1.139 0 0 .181 1.989-.054 3.11-.163.704-.434 1.062.651 1.064 1.085.002 2.568.237.633-1.046.162-.398.036-.941-.145-1.139-.036-.977.073-1.936.253-2.333.181-.398.055-1.537.091-2.115.036-.579.561-2.658 1.139-3.399.579-.742 3.146-2.929 3.581-5.063.434-2.134.904-4.305 2.17-4.286.759 0 .886.434 1.211.416.326-.019.904-.559.904-.849 0-.289-.072-.882-1.482-.9" fill="#0b3969" transform="matrix(1.09091 0 0 1.09091-598.02-553.38)"/></g></svg>