<svg xmlns="http://www.w3.org/2000/svg" viewBox="0 0 64 64"><defs><linearGradient id="0" x1="-74.929" y1="52.2" x2="-75.26" y2="2.356" gradientUnits="userSpaceOnUse" gradientTransform="matrix(1.07499 0 0 1.02929 56.689.25)"><stop stop-color="#2aaa76"/><stop offset="1" stop-color="#3ec380"/></linearGradient></defs><g transform="translate(56.39-.177)"><rect y="1.911" x="-46.39" height="60.53" width="44" fill="url(#0)" rx="2.5"/><path d="m48.18 353.89h130.41v16.937h47.42v-16.937h130.97v19.15h47.42v-47.42h-17.497v-132.62h16.936v-47.42h-16.936v-123.12h17.498v-47.42h-47.42v9.646h-130.97v-16.936h-47.42v16.936h-130.41v-11.856h-47.42v47.42h16.936v125.33h-16.936v47.42h16.936v130.41h-16.936v47.42h47.42v-16.937m-13.548 0v3.388h-20.324v-20.324h3.388 13.549 3.388v3.388 13.548zm157.51-369.21v-3.388h20.324v3.388 7.085 6.463 3.387h-20.324v-3.387-6.463-7.085m20.324 369.21v3.388h-20.324v-3.388-7.085-6.462-3.388h20.324v3.388 6.462 7.085m2.257-176.98c1.317 1.323 1.317 3.466 0 4.789-.668.661-1.528.992-2.401.992-.86 0-1.731-.331-2.396-.992l-7.621-7.622-7.622 7.622c-.665.661-1.531.992-2.398.992-.867 0-1.733-.331-2.399-.992-1.319-1.323-1.319-3.466 0-4.789l7.622-7.622-7.622-7.622c-1.319-1.319-1.319-3.47 0-4.79 1.32-1.32 3.47-1.32 4.79 0l7.628 7.622 7.621-7.622c1.323-1.32 3.467-1.32 4.79 0 1.323 1.32 1.323 3.47 0 4.79l-7.622 7.622 7.628 7.622m176.14 182.58h-20.323v-5.596-13.548-1.178h2.825 13.549 3.949v20.323zm-33.872-33.871v14.727h-106.1c59.13-16.765 105.71-63.34 122.47-122.48v107.75h-16.374m33.31-146.17h-3.387-7.085-6.463-3.387v-20.324h3.387 6.463 7.085 3.387v20.324m-19.76-190.86h16.373 3.949v20.324h-3.949-13.549-2.825v-10.678-9.646zm-13.549 9.646v24.23h16.373v98.25c-16.764-59.14-63.34-105.71-122.47-122.48h106.1zm-342.67-11.857h3.388 16.936v11.856 8.468h-3.388-13.549-3.388v-20.324zm33.872 33.873v-22.02h105.53c-59.13 16.766-105.7 63.34-122.47 122.47v-100.45h16.936m-33.872 138.88h3.388 7.085 6.463 3.388v20.324h-3.388-6.463-7.085-3.388v-20.324m16.936 58.742c16.768 59.14 63.34 105.71 122.47 122.48h-105.53v-16.937h-16.936v-105.54" fill="#fff" fill-opacity=".85" transform="matrix(.05922 0 0 .05922-36.39 22.09)"/></g></svg>