<svg xmlns="http://www.w3.org/2000/svg" viewBox="0 0 64 64"><defs><linearGradient id="0" x1="-74.929" y1="52.2" x2="-75.26" y2="2.356" gradientUnits="userSpaceOnUse" gradientTransform="matrix(1.07499 0 0 1.02929 56.689-.015)"><stop stop-color="#f15f19"/><stop offset="1" stop-color="#fbb521"/></linearGradient></defs><g transform="translate(56.39.089)"><rect width="44" height="60.53" x="-46.39" y="1.646" fill="url(#0)" rx="2.5"/><path d="m409.35034 500.13419a3.27294 3.27294 0 0 0 -1.8568 5.89604l3.717 2.861h-18.09a3.27294 3.27294 0 1 0 0 6.54341h8.203l-13.397 9.738a3.27294 3.27294 0 1 0 3.84541 5.29132l6.846-4.973a17.453903 17.453903 0 0 0 -.0426 .85281 17.453903 17.453903 0 0 0 17.45554 17.45553 17.453903 17.453903 0 0 0 17.45553 -17.45553 17.453903 17.453903 0 0 0 -7.59004 -14.39703 3.27294 3.27294 0 0 0 -.23646 -.1977L411.48 500.84a3.27294 3.27294 0 0 0 -2.13204 -.70551m6.68296 15.30025a10.908695 10.908695 0 0 1 10.90825 10.90825 10.908695 10.908695 0 0 1 -10.90825 10.90826 10.908695 10.908695 0 0 1 -10.90826 -10.90826 10.908695 10.908695 0 0 1 10.90826 -10.90825m0 6.54728a4.36347 4.36347 0 0 0 -4.36486 4.36097 4.36347 4.36347 0 0 0 4.36486 4.36485 4.36347 4.36347 0 0 0 4.36485 -4.36485 4.36347 4.36347 0 0 0 -4.36485 -4.36097" fill="#fff" fill-opacity=".85" transform="matrix(.54963 0 0 .54963-249.93-254.98)"/></g></svg>