<svg xmlns="http://www.w3.org/2000/svg" viewBox="0 0 64 64"><defs><linearGradient id="0" x1="-74.929" y1="52.2" x2="-75.26" y2="2.356" gradientUnits="userSpaceOnUse" gradientTransform="matrix(1.07499 0 0 1.02929 56.689-.015)"><stop stop-color="#5dae33"/><stop offset="1" stop-color="#9be058"/></linearGradient></defs><g transform="translate(56.39.089)"><rect width="44" height="60.53" x="-46.39" y="1.646" fill="url(#0)" rx="2.5"/><path d="m-22.677 19.911l-14.571 2.571v18.857l14.571 2.571zm.857 1.714v1.714h3.429v2.571h-3.429v.857h3.429v2.571h-3.429v.857h3.429v2.571h-3.429v.857h3.429v2.571h-3.429v.857h3.429v2.571h-3.429v1.714h10.286v-19.714zm4.286 1.714h4.286v2.571h-4.286zm0 3.429h4.286v2.571h-4.286zm-9.723.616c.156-.003.241-.006.241 0 0 .013-.438 1.01-.991 2.196l-1.018 2.143 1.018 2.143c.553 1.171.991 2.174.991 2.223 0 .103-.739.086-1.366-.027-.415-.074-.436-.121-.964-1.446-.301-.755-.592-1.42-.643-1.473-.051-.053-.345.519-.643 1.259-.298.739-.576 1.375-.616 1.42-.04.044-.407.044-.83 0l-.777-.08.938-1.982.938-1.982-.83-1.902c-.455-1.049-.83-1.988-.83-2.063 0-.083.314-.134.804-.134h.804l.455 1.286c.256.704.515 1.314.563 1.366.047.052.366-.574.696-1.393l.589-1.473.857-.054c.236-.011.46-.024.616-.027m9.723 2.812h4.286v2.571h-4.286zm0 3.429h4.286v2.571h-4.286zm0 3.429h4.286v2.571h-4.286z" fill="#fff" fill-opacity=".85" color="#000"/></g></svg>