<svg xmlns="http://www.w3.org/2000/svg" viewBox="0 0 64 64"><defs><linearGradient id="0" x1="-74.929" y1="52.2" x2="-75.26" y2="2.356" gradientUnits="userSpaceOnUse" gradientTransform="matrix(1.07499 0 0 1.02929 56.689-.015)"><stop stop-color="#04a47f"/><stop offset="1" stop-color="#40ca85"/></linearGradient></defs><g transform="translate(56.39.089)"><rect width="44" height="60.53" x="-46.39" y="1.646" fill="url(#0)" rx="2.5"/><path d="m471.12 530.74c-.767.215-1.385 1.072-1.385 1.904v13.19c-.778-.427-1.778-.599-2.814-.317-1.87.509-3.041 2.153-2.641 3.671.401 1.519 2.243 2.367 4.112 1.858 1.492-.406 2.52-1.554 2.684-2.765l.043-12.465 9.697-2.72v9.836c-.778-.427-1.778-.599-2.814-.317-1.87.509-3.041 2.153-2.641 3.671.401 1.519 2.243 2.367 4.112 1.858 1.492-.406 2.52-1.554 2.684-2.765l.043-16.227c0-.624-.368-1.091-.866-1.179l-10.216 2.765" fill="#044937" transform="matrix(1.03363 0 0 1.03363-514.7-525.82)"/></g></svg>