<svg xmlns="http://www.w3.org/2000/svg" viewBox="0 0 64 64"><defs><linearGradient id="0" x1="-74.929" y1="52.2" x2="-75.26" y2="2.356" gradientUnits="userSpaceOnUse" gradientTransform="matrix(1.31168 0 0 1.25592 73.61-13.589)"><stop stop-color="#259ee1"/><stop offset="1" stop-color="#19b4fd"/></linearGradient></defs><g transform="matrix(.81955 0 0 .81955 52.758 11.21)" fill="#fff"><rect width="53.688" height="73.859" x="-52.17" y="-11.563" fill="url(#0)" rx="3.05"/><path d="m-25.26 6.168q5.644 0 9.499 3.889 3.855 3.889 3.855 9.395 0 3.097-1.342 5.128-1.308 2.031-3.82 2.031-2.581 0-3.855-2.512-1.686 2.512-4.818 2.512-2.822 0-4.749-1.962-1.927-1.996-1.927-5.059 0-3.03 1.927-5.02 1.927-1.996 4.612-1.996 2.65 0 4.405 2.031h.138v-1.549h2.478v8.982q0 .895.482 1.618.516.723 1.549.723 2.443 0 2.443-4.921 0-4.543-3.166-7.675-3.166-3.132-7.709-3.132-4.543 0-7.709 3.132-3.166 3.132-3.166 7.675 0 4.543 3.166 7.675 3.166 3.132 7.709 3.132 2.443 0 4.371-.964l.964 2.34q-2.409 1.101-5.334 1.101-5.713 0-9.602-3.855-3.889-3.889-3.889-9.43 0-5.506 3.889-9.395 3.923-3.889 9.602-3.889m-3.201 16.623q1.239 1.205 2.96 1.205 1.721 0 2.925-1.205 1.239-1.205 1.239-3.201 0-1.996-1.239-3.201-1.205-1.205-2.925-1.205-1.721 0-2.96 1.205-1.205 1.205-1.205 3.201 0 1.996 1.205 3.201" fill="#fff" fill-opacity=".85" transform="matrix(1.10221 0 0 1.10221 2.589 3.926)"/></g></svg>