<svg xmlns="http://www.w3.org/2000/svg" viewBox="0 0 64 64"><defs><linearGradient id="0" x1="-74.929" y1="52.2" x2="-75.26" y2="2.356" gradientUnits="userSpaceOnUse" gradientTransform="matrix(1.07499 0 0 1.02929 56.689-.015)"><stop stop-color="#8798a9"/><stop offset="1" stop-color="#aeb6be"/></linearGradient></defs><g transform="translate(56.39.089)"><rect width="44" height="60.53" x="-46.39" y="1.646" fill="url(#0)" rx="2.5"/><path d="m305.03 15894.46c-6.61-.47-12.21-6.03-12.21-13.87v-37.3c0-1.35-1-2.51-2.46-2.51h-11.65c-25.22-.03-22.98 32.2-1.51 32.24h12.88v9.37h-13.35c-8.55 0-14.89-3.19-19.17-7.95-4.28-4.76-6.43-11.17-6.44-17.56-.001-6.39 2.11-12.76 6.49-17.52 4.38-4.75 11-7.95 20.07-7.95h21.97c1.45 0 2.65 1.25 2.65 2.7v45.49c-.001 2.34 1.31 4.16 3.03 4.69 1.72.53 3.74-.14 4.92-1.85l.05-.05c6.25-10.22 31.06-50.02 31.1-50.09.68-.97 1.49-1.14 2.08-.95.59.2 1.19.84 1.18 2.42v45.83c-.001 2.34 1.31 4.16 3.03 4.69 1.72.53 3.69-.14 4.88-1.85v-.05h.09c6.25-10.22 31.06-50.02 31.1-50.09.67-.96 1.46-1.15 2.08-.95.62.2 1.24.8 1.23 2.37v60.5h-9.42v-35.31c0 0-5.62 9.6-15.24 26.13-9.43 16.19-27.22 9.49-27.22-4.45v-21.68c0 0-5.52 9.6-15.15 26.13-4.12 7.08-9.87 9.79-15.01 9.42m-26.65-.24c-52.43 0-51.92-74.71.71-74.75h20.59c8.85 0 14.5 5.24 14.49 14.91v18.94c0 0 11.56-19.11 16.1-26.6 7.7-12.73 26.32-10.22 26.27 5.68v20.92c0 0 11.52-19.11 16.05-26.6 7.7-12.73 26.37-10.22 26.32 5.68v61.83h-9.42v-60.5c.001-2.32-1.21-4.04-2.89-4.59-1.68-.55-3.61.14-4.78 1.8h-.05v.09c0 0-24.82 39.69-31.15 50.04-.02.02-.03-.02-.05 0-.001 0 .001.05 0 .05-.65.87-1.49 1.06-2.18.85-.71-.22-1.38-.83-1.37-2.37v-45.82c.001-2.31-1.18-4.13-2.84-4.69-1.66-.56-3.57.18-4.73 1.85v.05h-.05c0 0-24.84 39.77-31.15 50.09-.66.94-1.51 1.17-2.22.95-.71-.22-1.38-.83-1.37-2.37v-.05-45.49c0-2.76-2.27-5.07-5.02-5.07h-21.97c-9.64 0-16.95 3.47-21.78 8.71-4.83 5.24-7.21 12.19-7.2 19.13.001 6.93 2.39 13.93 7.1 19.17 4.71 5.24 11.78 8.7 20.92 8.71h13.35v9.47h-11.69z" transform="matrix(.21084 0 0-.21084-91.67 3375.1)" fill="#2c3137"/></g></svg>