<svg xmlns="http://www.w3.org/2000/svg" viewBox="0 0 64 64"><defs><linearGradient id="0" x1="-74.929" y1="52.2" x2="-75.26" y2="2.356" gradientUnits="userSpaceOnUse" gradientTransform="matrix(1.07499 0 0 1.02929 103.98-.015)"><stop stop-color="#d1d7df"/><stop offset="1" stop-color="#eaf0f2"/></linearGradient></defs><g transform="translate(9.102.089)"><rect width="44" height="60.53" x=".9" y="1.646" fill="url(#0)" rx="2.5"/><path d="m105.37 35.28h-7.361l-2.125 8.448h7.411l2.074-8.448m-3.794-14.393l-2.631 10.497h7.386l2.656-10.497h4.047l-2.605 10.497h7.892v3.895h-8.878l-2.074 8.448h8.04v3.87h-9.03l-2.631 10.472h-4.047l2.605-10.472h-7.411l-2.605 10.472h-4.072l2.631-10.472h-7.968v-3.87h8.904l2.125-8.448h-8.145v-3.895h9.131l2.58-10.497h4.098" transform="matrix(.64546 0 0 .64546-42.03 6.429)" fill="#3d434a"/></g></svg>