<svg xmlns="http://www.w3.org/2000/svg" viewBox="0 0 64 64"><defs><linearGradient id="0" x1="-74.929" y1="52.2" x2="-75.26" y2="2.356" gradientUnits="userSpaceOnUse" gradientTransform="matrix(1.07499 0 0 1.02929 103.98-.015)"><stop stop-color="#d1d7df"/><stop offset="1" stop-color="#eaf0f2"/></linearGradient></defs><g transform="translate(9.102.089)"><rect width="44" height="60.53" x=".9" y="1.646" fill="url(#0)" rx="2.5"/><path d="m71.37 18.838l6 11-6 11h3l6-11-6-11h-3m6 0l6 11-6 11h3l4.5-8.25 4.5 8.25h3l-4.801-8.801-.654-1.199-.545-1-6-11h-3m10.363 8l1.092 2h4.545v-2h-5.637m2.182 4l1.092 2h2.363v-2h-3.455" fill-rule="evenodd" transform="matrix(1.09091 0 0 1.09091-66.958-.634)" fill="#3d434a"/></g></svg>