<svg xmlns="http://www.w3.org/2000/svg" viewBox="0 0 64 64"><defs><linearGradient id="0" x1="-74.929" y1="52.2" x2="-75.26" y2="2.356" gradientUnits="userSpaceOnUse" gradientTransform="matrix(1.07499 0 0 1.02929 56.689-.015)"><stop stop-color="#8798a9"/><stop offset="1" stop-color="#aeb6be"/></linearGradient></defs><g transform="translate(56.39.089)"><rect width="44" height="60.53" x="-46.39" y="1.646" fill="url(#0)" rx="2.5"/><path d="m373.25834 527.9311a2 2 0 0 0 -2 2 2 2 0 0 0 1 1.72851v14.541a2 2 0 0 0 -1 1.73047 2 2 0 0 0 2 2 2 2 0 0 0 2 -2 2 2 0 0 0 -1 -1.72852v-14.541a2 2 0 0 0 1 -1.73046 2 2 0 0 0 -2 -2m2 2l3 2.1v-1.1h4c1.108 0 2 .892 2 2v7 6.27a2 2 0 0 0 -1 1.73047 2 2 0 0 0 2 2 2 2 0 0 0 2 -2 2 2 0 0 0 -1 -1.72852v-14.271c0-1.662-1.338-2.967-3-3h-5v-1l-3 2m-2-1a1 1 0 0 1 1 1 1 1 0 0 1 -1 1.00001 1 1 0 0 1 -1 -1.00001 1 1 0 0 1 1 -1m0 18a1 1 0 0 1 1 1 1 1 0 0 1 -1 1 1 1 0 0 1 -1 -1 1 1 0 0 1 1 -1m12 0a1 1 0 0 1 1 1 1 1 0 0 1 -1 1 1 1 0 0 1 -1 -1 1 1 0 0 1 1 -1" fill="#3d434a" transform="matrix(1.09091 0 0 1.09091-438.13-556.01)"/></g></svg>