<svg xmlns="http://www.w3.org/2000/svg" xmlns:xlink="http://www.w3.org/1999/xlink" viewBox="0 0 64 64"><defs><linearGradient id="0" x1="-74.929" y1="52.2" x2="-75.26" y2="2.356" gradientUnits="userSpaceOnUse" gradientTransform="matrix(1.07499 0 0 1.02929 56.689-.015)"><stop stop-color="#dc1666"/><stop offset="1" stop-color="#ff5390"/></linearGradient></defs><g transform="translate(56.39.089)"><rect width="44" height="60.53" x="-46.39" y="1.646" fill="url(#0)" rx="2.5"/><g transform="matrix(1.08108 0 0 1.08108-538.87-552.15)"><path d="m420.65 528.23v7.557l-.134 2.274h.134q.669-1.17 2.107-1.973 1.438-.836 3.076-.836 3.043 0 4.648 1.873 1.605 1.873 1.605 5.02v10.03h-3.076v-9.564q0-4.548-4.046-4.548-1.906 0-3.11 1.538-1.204 1.505-1.204 3.511v9.06h-3.076v-23.943h3.076" transform="matrix(.91884 0 0 .91884 81.11 44)" fill="#fce0ea"/><path d="m491.34 527.93v3.754h3.754v1.576h-3.754v3.754h-1.576v-3.754h-3.754v-1.576h3.754v-3.754h1.576z" stroke-width=".606" transform="matrix(.66042 0 0 .66042 159.83 180.71)" fill="#fce0ea" stroke="#fce0ea" id="1"/><use transform="translate(0 8.25)" xlink:href="#1"/></g></g></svg>