<svg xmlns="http://www.w3.org/2000/svg" viewBox="0 0 64 64"><defs><linearGradient id="0" x1="-74.929" y1="52.2" x2="-75.26" y2="2.356" gradientUnits="userSpaceOnUse" gradientTransform="matrix(47.88594 0 0 45.85017 4101.78-721.28)"><stop stop-color="#8798a9"/><stop offset="1" stop-color="#aeb6be"/></linearGradient></defs><g transform="matrix(.02245 0 0 .02245 21 16.265)" stroke="none"><rect width="1960" height="2696.38" x="-490" y="-647.29" fill="url(#0)" rx="111.36"/><path d="M490.00001 166.35495A534.57782 534.57782 0 0 0 -44.545438 700.90039 534.57782 534.57782 0 0 0 490.00001 1235.4458 534.57782 534.57782 0 0 0 1024.5454 700.90039 534.57782 534.57782 0 0 0 490.00001 166.35495m-4.862 216.59c184.67 0 334.13 149.46 334.13 334.13 0 184.67-149.46 334.13-334.13 334.13-157.94 0-290.39-110.59-324.41-257.6h159.19c29.16 61.962 92.32 105.7 165.22 105.7 100.84 0 182.23-81.39 182.23-182.23 0-100.84-81.39-182.23-182.23-182.23-72.897 0-136.06 43.795-165.22 106.97h-159.19C194.75 493.59 327.19 382.94 485.14 382.94" fill="#3d434a"/></g></svg>