<svg xmlns="http://www.w3.org/2000/svg" viewBox="0 0 64 64"><defs><linearGradient id="0" x1="-74.929" y1="52.2" x2="-75.26" y2="2.356" gradientUnits="userSpaceOnUse" gradientTransform="matrix(1.07499 0 0 1.02929 56.689-.015)"><stop stop-color="#8798a9"/><stop offset="1" stop-color="#aeb6be"/></linearGradient></defs><g transform="translate(56.39.089)"><rect width="44" height="60.53" x="-46.39" y="1.646" fill="url(#0)" rx="2.5"/><path d="m486 215c-130 0-239 91-267 213h131c24-52 76-88 136-88 83 0 150 67 150 150 0 83-67 150-150 150-60 0-112-36-136-87h-131c28 121 137 212 267 212 152 0 275-123 275-275 0-152-123-275-275-275" fill="#9ba8b4" stroke="none" transform="matrix(.02245 0 0 .02245-35.392 20.911)"/><path d="m57.3 23.526v1h22v-1h-22zm0 2v1h1v-1h-1zm4 3c-.554 0-1 .446-1 1 0 .554.446 1 1 1 .554 0 1-.446 1-1 0-.554-.446-1-1-1zm3 0v1h11v-1h-11zm0 2v1h4v-1h-4zm-3 6c-.554 0-1 .446-1 1 0 .554.446 1 1 1 .554 0 1-.446 1-1 0-.554-.446-1-1-1zm3 0v1h5v-1h-5zm0 2v1h7v-1h-7zm0 2v1h14v-1h-14zm-7 2v1h1v-1h-1zm0 2v1h22v-1h-22z" stroke-width=".4" transform="matrix(1.07143 0 0 1.07143-97.57-5.076)" fill="#3d434a" stroke="#3d434a"/></g></svg>