<svg xmlns="http://www.w3.org/2000/svg" viewBox="0 0 64 64"><defs><linearGradient id="0" x1="-74.929" y1="52.2" x2="-75.26" y2="2.356" gradientUnits="userSpaceOnUse" gradientTransform="matrix(1.07499 0 0 1.02929 56.689-.015)"><stop stop-color="#2daf7b"/><stop offset="1" stop-color="#44d68c"/></linearGradient></defs><g transform="translate(56.39.089)"><rect width="44" height="60.53" x="-46.39" y="1.646" fill="url(#0)" rx="2.5"/><g transform="matrix(.51833 0 0 .51833-211.02-244.91)"><rect width="46.3" height="34.939" x="385.01" y="507.31" fill="#144d36" rx="1.644" stroke-width="1" transform="translate(-48.12 9.285)"/><path d="m76.988 55.667l-53.12-53.04c-1.956-2.064-4.399-3.096-7.333-3.096-2.934 0-5.377 1.033-7.333 3.096l-6.192 6.111c-2.01 2.01-3.02 4.453-3.02 7.332 0 2.824 1 5.296 3.02 7.414l39.596 39.515-39.597 39.596c-2.01 2.01-3.02 4.454-3.02 7.333 0 2.824 1 5.296 3.02 7.414l6.192 6.11c2.01 2.01 4.455 3.02 7.333 3.02 2.879 0 5.324-1 7.333-3.02l53.12-53.04c2.01-2.118 3.02-4.59 3.02-7.414 0-2.879-1.01-5.323-3.02-7.333" fill="#39c384" transform="matrix(.14063 0 0 .14063 354.89 525.33)"/></g></g></svg>