<svg xmlns="http://www.w3.org/2000/svg" viewBox="0 0 64 64"><defs><linearGradient id="0" x1="-74.929" y1="52.2" x2="-75.26" y2="2.356" gradientUnits="userSpaceOnUse" gradientTransform="matrix(1.31168 0 0 1.25592 75.07-13.1)"><stop stop-color="#197cf1"/><stop offset="1" stop-color="#20bcfa"/></linearGradient></defs><g transform="matrix(.81955 0 0 .81955 51.56 10.81)" fill="#fff"><rect width="53.688" height="73.859" x="-50.708" y="-11.07" fill="url(#0)" rx="3.05"/><path d="m32 16.266c-6.094 0-11 4.906-11 11 0 6.094 4.906 11 11 11 6.094 0 11-4.906 11-11 0-6.094-4.906-11-11-11m-.051 4.521c.942 0 1.707.764 1.707 1.707 0 .943-.765 1.707-1.707 1.707-.943 0-1.709-.764-1.709-1.707 0-.944.766-1.707 1.709-1.707m-.008 4.295c.912 0 1.559.741 1.559 1.654v5.619c0 .913-.646 1.652-1.559 1.652-.913 0-1.561-.739-1.561-1.652v-5.619c0-.912.648-1.654 1.561-1.654" transform="matrix(1.33111 0 0 1.33111-66.46-10.431)" fill="#0b3969"/></g></svg>