<svg xmlns="http://www.w3.org/2000/svg" viewBox="0 0 64 64"><defs><linearGradient id="0" x1="-74.929" y1="52.2" x2="-75.26" y2="2.356" gradientUnits="userSpaceOnUse" gradientTransform="matrix(1.07499 0 0 1.02929 56.689.25)"><stop stop-color="#dc3c30"/><stop offset="1" stop-color="#ff786d"/></linearGradient></defs><g transform="translate(56.39-.177)"><rect width="44" height="60.53" x="-46.39" y="1.911" fill="url(#0)" rx="2.5" stroke-width="1"/><path d="m-110.62095 16.377249a12.00025 12.00025 0 0 0 -11.99913 12.00087 12.00025 12.00025 0 0 0 11.99913 11.999131 12.00025 12.00025 0 0 0 12.00087 -11.999131 12.00025 12.00025 0 0 0 -12.00087 -12.00087m3.03 5.344c.044.002.096.022.138.035.211.061.391.242.451.455l2.186 7.962 1.146-1.554c.117-.173.294-.292.502-.298h.85.383.033c.025 0 .052.027.052.052v1.223c0 .025-.025.035-.05.035h-.035-.383-.519l-1.683 2.339c-.288.379-1.01.247-1.146-.209l-1.994-7.089-1.371 4.522c-.084.257-.355.432-.624.437h-.954-.192-.469-.172-.486l-1.857 6.145c-.093.333-.486.554-.815.455-.211-.061-.391-.242-.451-.455l-2.203-7.977-1.127 1.554c-.117.173-.313.273-.521.279h-.833-.416-.052c-.025 0-.035-.001-.035-.035v-1.223c0-.025.001-.052.035-.052h.052.416.521l1.683-2.304c.288-.379 1-.247 1.144.209l1.979 7.089 1.386-4.539c.084-.257.339-.449.608-.455h.972.172.469.192.469l1.872-6.11c.07-.25.303-.437.556-.472.042-.006.078-.017.122-.017" fill="#fff" fill-opacity=".847" transform="translate(86.23 3.8)"/></g></svg>