<?xml version="1.0" encoding="UTF-8" standalone="no"?>
<svg
   xmlns:osb="http://www.openswatchbook.org/uri/2009/osb"
   xmlns:dc="http://purl.org/dc/elements/1.1/"
   xmlns:cc="http://creativecommons.org/ns#"
   xmlns:rdf="http://www.w3.org/1999/02/22-rdf-syntax-ns#"
   xmlns:svg="http://www.w3.org/2000/svg"
   xmlns="http://www.w3.org/2000/svg"
   xmlns:xlink="http://www.w3.org/1999/xlink"
   xmlns:sodipodi="http://sodipodi.sourceforge.net/DTD/sodipodi-0.dtd"
   xmlns:inkscape="http://www.inkscape.org/namespaces/inkscape"
   width="64"
   viewBox="0 0 64 64"
   height="64"
   id="svg2"
   version="1.1"
   inkscape:version="0.91 r13725"
   sodipodi:docname="virtualbox-ova.svg"
   inkscape:export-filename="E:\Usuarios\David\Desktop\android.png"
   inkscape:export-xdpi="90"
   inkscape:export-ydpi="90">
  <metadata
     id="metadata14">
    <rdf:RDF>
      <cc:Work
         rdf:about="">
        <dc:format>image/svg+xml</dc:format>
        <dc:type
           rdf:resource="http://purl.org/dc/dcmitype/StillImage" />
        <dc:title />
      </cc:Work>
    </rdf:RDF>
  </metadata>
  <defs
     id="defs12">
    <linearGradient
       osb:paint="gradient"
       id="linearGradient4207">
      <stop
         id="stop3371"
         offset="0"
         style="stop-color:#3498db;stop-opacity:1;" />
      <stop
         id="stop3373"
         offset="1"
         style="stop-color:#3498db;stop-opacity:0;" />
    </linearGradient>
    <linearGradient
       inkscape:collect="always"
       xlink:href="#linearGradient4422"
       id="linearGradient4182"
       x1="-74.929466"
       y1="52.199436"
       x2="-75.259552"
       y2="2.3564887"
       gradientUnits="userSpaceOnUse"
       gradientTransform="matrix(1.0749904,0,0,1.0292896,56.688954,-0.01528455)" />
    <linearGradient
       id="linearGradient4422">
      <stop
         style="stop-color:#ff721a;stop-opacity:1"
         offset="0"
         id="stop4424" />
      <stop
         style="stop-color:#fbb521;stop-opacity:1"
         offset="1"
         id="stop4426" />
    </linearGradient>
  </defs>
  <sodipodi:namedview
     pagecolor="#747474"
     bordercolor="#666666"
     borderopacity="1"
     objecttolerance="10"
     gridtolerance="10"
     guidetolerance="10"
     inkscape:pageopacity="1"
     inkscape:pageshadow="2"
     inkscape:window-width="1366"
     inkscape:window-height="687"
     id="namedview10"
     showgrid="false"
     inkscape:zoom="5.2716365"
     inkscape:cx="44.714592"
     inkscape:cy="30.379727"
     inkscape:window-x="0"
     inkscape:window-y="0"
     inkscape:window-maximized="1"
     inkscape:current-layer="g4186"
     inkscape:snap-bbox="true"
     inkscape:bbox-nodes="true"
     inkscape:object-nodes="true"
     borderlayer="false"
     showguides="true"
     inkscape:snap-nodes="true"
     inkscape:object-paths="false"
     inkscape:showpageshadow="false"
     showborder="true">
    <inkscape:grid
       type="xygrid"
       id="grid4160"
       visible="true" />
    <sodipodi:guide
       position="28.888657,63.404975"
       orientation="0,35.2"
       id="guide6108" />
    <sodipodi:guide
       position="54,55.679691"
       orientation="51.200004,0"
       id="guide6112" />
    <sodipodi:guide
       position="58.527669,62"
       orientation="0,1"
       id="guide6114"
       inkscape:label=""
       inkscape:color="rgb(0,0,255)" />
    <sodipodi:guide
       position="10,4"
       orientation="-56,0"
       id="guide6116" />
    <sodipodi:guide
       position="11,4"
       orientation="-2.8421709e-014,0"
       id="guide6118" />
    <sodipodi:guide
       position="12,62"
       orientation="0,35.2"
       id="guide6120" />
    <sodipodi:guide
       position="52,2"
       orientation="0,-40"
       id="guide6126" />
    <sodipodi:guide
       position="12,62"
       orientation="0,35.2"
       id="guide6138" />
    <sodipodi:guide
       position="55,3"
       orientation="0,-40"
       id="guide6156" />
    <sodipodi:guide
       position="53,4.3973202"
       orientation="-56,0"
       id="guide6158" />
    <sodipodi:guide
       position="43,48"
       orientation="22,0"
       id="guide4240" />
    <sodipodi:guide
       position="43,26"
       orientation="0,-22"
       id="guide4242" />
    <sodipodi:guide
       position="21,26"
       orientation="-22,0"
       id="guide4244" />
  </sodipodi:namedview>
  <g
     id="g4186"
     transform="translate(56.391766,-0.17677665)">
    <g
       id="g4239"
       transform="translate(-4.0551758e-7,0.39825177)">
      <rect
         style="opacity:1;fill:url(#linearGradient4182);fill-opacity:1;stroke:none;stroke-width:0.30000001;stroke-linecap:round;stroke-linejoin:round;stroke-miterlimit:4;stroke-dasharray:none;stroke-dashoffset:0;stroke-opacity:1"
         id="rect4174"
         width="44"
         height="60.265499"
         x="-46.391766"
         y="1.6457753"
         ry="2.5" />
    </g>
    <g
       inkscape:transform-center-y="-9.4924686"
       inkscape:transform-center-x="5.4653607"
       inkscape:label="Capa 1"
       id="layer1-4"
       transform="translate(-509.70748,-515.64674)">
      <g
         id="layer1-3-65"
         inkscape:label="Capa 1"
         transform="translate(0.41988239,0.03484499)" />
    </g>
    <g
       transform="matrix(0.37687911,0,0,0.37687911,3.1879778,37.439656)"
       style="font-style:normal;font-weight:normal;font-size:25px;line-height:125%;font-family:sans-serif;letter-spacing:0px;word-spacing:0px;fill:#ffffff;fill-opacity:1;stroke:none;stroke-width:1px;stroke-linecap:butt;stroke-linejoin:miter;stroke-opacity:1"
       id="g4299">
      <path
         inkscape:connector-curvature="0"
         style="opacity:1;fill:#ffffff;fill-opacity:0.84677423;stroke:none;stroke-width:5.23831511;stroke-linecap:butt;stroke-linejoin:miter;stroke-miterlimit:4;stroke-dasharray:none;stroke-dashoffset:0;stroke-opacity:1"
         d="m -73.181596,-45.804819 a 31.841106,31.841108 0 0 0 -31.838134,31.842759 31.841106,31.841108 0 0 0 31.838134,31.838138 31.841106,31.841108 0 0 0 31.842757,-31.838138 31.841106,31.841108 0 0 0 -31.842757,-31.842759 z m 8.036945,14.179039 c 0.117153,0.0059 0.255851,0.0597 0.365105,0.09243 0.560897,0.16107 1.037033,0.641953 1.196992,1.206233 l 5.800096,21.1252935 3.041008,-4.1224605 c 0.309901,-0.458696 0.780071,-0.775443 1.331018,-0.790291 l 2.255334,0 1.016751,0 0.08781,0 c 0.06666,-3e-6 0.138639,0.07193 0.138639,0.138638 l 0,3.244355 c 0,0.06661 -0.06737,0.09245 -0.134025,0.09243 l -0.09243,0 -1.016751,0 -1.377233,0 -4.464457,6.2067975 c -0.76408,1.006079 -2.669928,0.6554 -3.041006,-0.554591 l -5.291721,-18.8098755 -3.637191,11.997651 c -0.222712,0.681741 -0.941904,1.145144 -1.65453,1.160018 l -2.53263,0 -0.508376,0 -1.243209,0 -0.457536,0 -1.289424,0 -4.926615,16.3049725 c -0.246798,0.8840282 -1.288882,1.4696288 -2.162906,1.206234 -0.560901,-0.1613549 -1.037025,-0.641804 -1.196991,-1.206234 l -5.846311,-21.1668865 -2.99017,4.12246 c -0.30991,0.458845 -0.830912,0.724604 -1.381857,0.739454 l -2.209118,0 -1.104561,0 -0.138638,0 c -0.06666,5e-5 -0.09243,-0.02572 -0.09243,-0.09243 l 0,-3.244355 c 0,-0.06668 0.02577,-0.138662 0.09243,-0.138638 l 0.138638,0 1.104561,0 1.381854,0 4.464457,-6.114364 c 0.764078,-1.005784 2.665314,-0.654811 3.036385,0.554588 l 5.250127,18.80987547 3.678785,-12.04386347 c 0.222712,-0.681754 0.90031,-1.191362 1.612936,-1.206236 l 2.578848,0 0.457536,0 1.243209,0 0.508376,0 1.243206,0 4.968211,-16.212542 c 0.185112,-0.663053 0.803332,-1.160515 1.474286,-1.252451 0.111829,-0.01491 0.206361,-0.04624 0.323512,-0.04621 z"
         id="path3340" />
    </g>
  </g>
</svg>
