<svg xmlns="http://www.w3.org/2000/svg" viewBox="0 0 64 64"><defs><linearGradient id="0" x1="-74.929" y1="52.2" x2="-75.26" y2="2.356" gradientUnits="userSpaceOnUse" gradientTransform="matrix(1.07499 0 0 1.02929 56.689.383)"><stop stop-color="#ff721a"/><stop offset="1" stop-color="#fbb521"/></linearGradient></defs><g transform="translate(56.39-.177)"><rect width="44" height="60.27" x="-46.39" y="2.044" fill="url(#0)" rx="2.5" stroke-width="1"/><path d="m-73.1816-45.804819a31.841106 31.841108 0 0 0 -31.838134 31.842759 31.841106 31.841108 0 0 0 31.838134 31.838138 31.841106 31.841108 0 0 0 31.842757 -31.838138 31.841106 31.841108 0 0 0 -31.842757 -31.842759m8.04 14.179c.117.006.256.06.365.092.561.161 1.037.642 1.197 1.206l5.8 21.13 3.041-4.122c.31-.459.78-.775 1.331-.79h2.255 1.017.088c.067 0 .139.072.139.139v3.244c0 .067-.067.092-.134.092h-.092-1.017-1.377l-4.464 6.207c-.764 1.01-2.67.655-3.041-.555l-5.292-18.81-3.637 11.998c-.223.682-.942 1.145-1.655 1.16h-2.533-.508-1.243-.458-1.289l-4.927 16.305c-.247.884-1.289 1.47-2.163 1.206-.561-.161-1.037-.642-1.197-1.206l-5.846-21.17-2.99 4.122c-.31.459-.831.725-1.382.739h-2.209-1.105-.139c-.067 0-.092-.026-.092-.092v-3.244c0-.067.026-.139.092-.139h.139 1.105 1.382l4.464-6.114c.764-1.01 2.665-.655 3.036.555l5.25 18.81 3.679-12.04c.223-.682.9-1.191 1.613-1.206h2.579.458 1.243.508 1.243l4.968-16.213c.185-.663.803-1.161 1.474-1.252.112-.015.206-.046.324-.046" fill="#fff" fill-opacity=".847" transform="matrix(.37688 0 0 .37688 3.188 37.44)"/></g></svg>