<?xml version="1.0" encoding="UTF-8" standalone="no"?>
<svg
   xmlns:osb="http://www.openswatchbook.org/uri/2009/osb"
   xmlns:dc="http://purl.org/dc/elements/1.1/"
   xmlns:cc="http://creativecommons.org/ns#"
   xmlns:rdf="http://www.w3.org/1999/02/22-rdf-syntax-ns#"
   xmlns:svg="http://www.w3.org/2000/svg"
   xmlns="http://www.w3.org/2000/svg"
   xmlns:xlink="http://www.w3.org/1999/xlink"
   xmlns:sodipodi="http://sodipodi.sourceforge.net/DTD/sodipodi-0.dtd"
   xmlns:inkscape="http://www.inkscape.org/namespaces/inkscape"
   viewBox="0 0 48 48"
   id="svg2"
   version="1.1"
   inkscape:version="0.91 r13725"
   sodipodi:docname="org.kde.plasma.systemmonitor.cpu.svg">
  <metadata
     id="metadata77">
    <rdf:RDF>
      <cc:Work
         rdf:about="">
        <dc:format>image/svg+xml</dc:format>
        <dc:type
           rdf:resource="http://purl.org/dc/dcmitype/StillImage" />
        <dc:title />
      </cc:Work>
    </rdf:RDF>
  </metadata>
  <sodipodi:namedview
     pagecolor="#5e5e5e"
     bordercolor="#666666"
     borderopacity="1"
     objecttolerance="10"
     gridtolerance="10"
     guidetolerance="10"
     inkscape:pageopacity="0"
     inkscape:pageshadow="2"
     inkscape:window-width="1366"
     inkscape:window-height="685"
     id="namedview75"
     showgrid="false"
     showborder="false"
     inkscape:zoom="6.9532166"
     inkscape:cx="19.891133"
     inkscape:cy="16.037008"
     inkscape:window-x="0"
     inkscape:window-y="0"
     inkscape:window-maximized="1"
     inkscape:current-layer="g4197" />
  <defs
     id="defs4">
    <linearGradient
       id="linearGradient4232">
      <stop
         id="stop4234-0"
         offset="0"
         style="stop-color:#3889e9;stop-opacity:1" />
      <stop
         id="stop4236"
         offset="1"
         style="stop-color:#5ea5fb;stop-opacity:1" />
    </linearGradient>
    <linearGradient
       osb:paint="gradient"
       id="linearGradient4207">
      <stop
         id="stop3371"
         offset="0"
         style="stop-color:#3498db;stop-opacity:1;" />
      <stop
         id="stop3373"
         offset="1"
         style="stop-color:#3498db;stop-opacity:0;" />
    </linearGradient>
    <linearGradient
       id="linearGradient4422">
      <stop
         style="stop-color:#ff9300;stop-opacity:1"
         offset="0"
         id="stop4424" />
      <stop
         style="stop-color:#ffd702;stop-opacity:1"
         offset="1"
         id="stop4426" />
    </linearGradient>
    <linearGradient
       inkscape:collect="always"
       xlink:href="#linearGradient4232"
       id="linearGradient4237"
       x1="399.57144"
       y1="545.79797"
       x2="399.57144"
       y2="517.79797"
       gradientUnits="userSpaceOnUse" />
    <linearGradient
       id="linearGradient4180-0">
      <stop
         style="stop-color:#2b65bd;stop-opacity:1"
         offset="0"
         id="stop4182-2" />
      <stop
         style="stop-color:#64a3dc;stop-opacity:1"
         offset="1"
         id="stop4184-3" />
    </linearGradient>
    <linearGradient
       gradientTransform="matrix(0.73846154,0,0,0.73846154,-8.7175996,-19.700652)"
       inkscape:collect="always"
       xlink:href="#linearGradient8467-5"
       id="linearGradient5236-7"
       x1="-42"
       y1="-24"
       x2="-6"
       y2="-24"
       gradientUnits="userSpaceOnUse" />
    <linearGradient
       id="linearGradient8467-5">
      <stop
         offset="0"
         style="stop-color:#d3d3d3;stop-opacity:1"
         id="stop8469-7" />
      <stop
         offset="1"
         style="stop-color:#fcf9f9;stop-opacity:1"
         id="stop8471-0" />
    </linearGradient>
    <linearGradient
       gradientTransform="matrix(0.92307692,0,0,0.92307692,-339.71914,-457.06514)"
       inkscape:collect="always"
       xlink:href="#linearGradient4180-0"
       id="linearGradient5226-0"
       x1="410.57144"
       y1="547.79797"
       x2="408.57144"
       y2="499.79797"
       gradientUnits="userSpaceOnUse" />
  </defs>
  <g
     id="g33" />
  <g
     id="g4197"
     transform="translate(-13.423729,-2.4406776)">
    <rect
       style="opacity:1;fill:url(#linearGradient5226-0);fill-opacity:1;fill-rule:evenodd;stroke:none;stroke-width:3;stroke-linecap:round;stroke-linejoin:miter;stroke-miterlimit:4;stroke-dasharray:none;stroke-dashoffset:0;stroke-opacity:1"
       id="rect5218-4"
       width="48"
       height="48"
       x="13.423729"
       y="2.4406776"
       ry="1.3846154" />
    <rect
       x="-39.732986"
       y="-50.716038"
       width="26.584616"
       height="26.584616"
       transform="matrix(0,-1,-1,0,0,0)"
       rx="1.3292308"
       ry="1.6615385"
       id="rect4203-4-3"
       style="fill:url(#linearGradient5236-7);fill-opacity:1" />
    <g
       id="g4167"
       transform="translate(-8.2796319e-8,3.4617234e-6)">
      <path
         style="opacity:1;fill:#407cc9;fill-opacity:1"
         inkscape:connector-curvature="0"
         id="path6-6"
         d="M 45.475308,24.207666 C 44.710304,20.62071 37.49461,20.393265 32.843901,23.126363 l 0,0.301839 c 4.644927,-2.30645 11.235669,-2.291742 11.835822,1.012553 0.202098,1.094649 -0.434423,2.233095 -1.575736,2.888127 l 0,0.857241 c 1.373901,-0.484918 2.77824,-2.054428 2.371417,-3.978405 m -8.45805,6.280579 c -3.209577,0.285716 -6.553901,-0.164004 -7.022174,-2.58648 -0.232559,-1.192676 0.333477,-2.45866 1.080371,-3.244379 l 0,-0.420547 c -1.346378,1.139997 -2.077695,2.581969 -1.655438,4.284563 0.538513,2.18488 3.408688,3.421588 7.790523,3.009791 1.734949,-0.161124 4.005449,-0.70038 5.581042,-1.536945 l 0,-1.18854 c -1.432006,0.824957 -3.800413,1.506493 -5.774085,1.682199 z" />
      <path
         style="opacity:1;fill:#407cc9;fill-opacity:1"
         inkscape:connector-curvature="0"
         id="path8-8"
         d="m 43.157377,23.620844 -0.888043,0 0,3.732726 c 0,0.438402 0.222881,0.819684 0.888043,0.880162" />
      <path
         style="opacity:1;fill:#407cc9;fill-opacity:1"
         inkscape:connector-curvature="0"
         id="path10-2"
         d="m 32.577804,24.984942 -0.88815,0 0,2.438058 c 0,0.438568 0.222881,0.819737 0.88815,0.880163" />
      <rect
         style="opacity:1;fill:#407cc9;fill-opacity:1"
         id="rect12-7"
         y="23.734341"
         width="0.88815039"
         x="31.689386"
         height="0.79405409" />
      <path
         style="opacity:1;fill:#407cc9;fill-opacity:1"
         inkscape:connector-curvature="0"
         id="path14-5"
         d="m 37.899741,28.264105 c -0.720112,0 -1.023664,-0.471946 -1.023664,-0.937711 l 0,-3.238027 0.878452,0 0,0.896841 0.665188,0 0,0.671499 -0.665188,0 0,1.619812 c 0,0.1905 0.09687,0.294971 0.306719,0.294971 l 0.358496,0 0,0.692652 -0.519955,0" />
      <path
         style="opacity:1;fill:#407cc9;fill-opacity:1"
         inkscape:connector-curvature="0"
         id="path16-4"
         d="m 40.23492,25.615837 c -0.300272,0 -0.532735,0.146667 -0.629662,0.344824 -0.05811,0.119433 -0.07754,0.210215 -0.08712,0.356994 l 1.359633,0 c -0.01941,-0.358513 -0.190677,-0.701818 -0.642844,-0.701818 m -0.716789,1.267439 c 0,0.425017 0.284036,0.737944 0.781411,0.737944 0.390851,0 0.584599,-0.10284 0.810669,-0.312884 l 0.542589,0.491496 c -0.348798,0.323563 -0.713736,0.520227 -1.359634,0.520227 -0.842872,0 -1.650326,-0.43406 -1.650326,-1.698514 0,-1.081314 0.704037,-1.692281 1.630929,-1.692281 0.939805,0 1.479018,0.715352 1.479018,1.654608 l 0,0.299478 -2.234656,0" />
      <path
         style="opacity:1;fill:#407cc9;fill-opacity:1"
         inkscape:connector-curvature="0"
         id="path18-7"
         d="m 34.970854,25.656334 c 0.258306,0 0.364916,0.119513 0.364916,0.3146 l 0,2.297332 0.881667,0 0,-2.300369 c 0,-0.467353 -0.264843,-0.98311 -1.036685,-0.98311 l -1.818203,0 0,3.283426 0.878452,0 0,-2.611927" />
    </g>
    <path
       inkscape:connector-curvature="0"
       style="color:#000000;font-style:normal;font-variant:normal;font-weight:normal;font-stretch:normal;font-size:medium;line-height:normal;font-family:Sans;-inkscape-font-specification:Sans;text-indent:0;text-align:start;text-decoration:none;text-decoration-line:none;letter-spacing:normal;word-spacing:normal;text-transform:none;direction:ltr;block-progression:tb;writing-mode:lr-tb;baseline-shift:baseline;text-anchor:start;display:inline;overflow:visible;visibility:visible;opacity:1;fill:#eae8e8;fill-opacity:1;stroke:none;stroke-width:1;marker:none;enable-background:accumulate"
       d="m 54.50065,46.656053 0,0.923077 -0.923077,0 0,-0.923077 0.923077,0 z m -0.923077,0.923077 0,0.923077 -0.923077,0 0,-0.923077 0.923077,0 z m -0.923077,0 -0.923077,0 0,-0.923077 0.923077,0 0,0.923077 z m -0.923077,0 0,0.923077 -0.923077,0 0,-0.923077 0.923077,0 z m -0.923077,0 -0.923077,0 0,-0.923077 0.923077,0 0,0.923077 z m -0.923077,0 0,0.923077 -0.923077,0 0,-0.923077 0.923077,0 z m -0.923077,0 -0.923077,0 0,-0.923077 0.923077,0 0,0.923077 z m -0.923077,0 0,0.923077 -0.923077,0 0,-0.923077 0.923077,0 z m -0.923077,0 -0.923077,0 0,-0.923077 0.923077,0 0,0.923077 z m -0.923077,0 0,0.923077 -0.923077,0 0,-0.923077 0.923077,0 z m -0.923077,0 -0.923076,0 0,-0.923077 0.923076,0 0,0.923077 z m -0.923076,0 0,0.923077 -0.923077,0 0,-0.923077 0.923077,0 z m -0.923077,0 -0.923077,0 0,-0.923077 0.923077,0 0,0.923077 z m -0.923077,0 0,0.923077 -0.923077,0 0,-0.923077 0.923077,0 z m -0.923077,0 -0.923077,0 0,-0.923077 0.923077,0 0,0.923077 z m -0.923077,0 0,0.923077 -0.923077,0 0,-0.923077 0.923077,0 z"
       id="path4303-6-7" />
    <path
       inkscape:connector-curvature="0"
       style="fill:#eae8e8;fill-opacity:1;fill-rule:evenodd;stroke:none"
       d="m 58.192957,46.656053 -1.846154,1.846154 1.846154,0 0,-1.846154 z"
       id="path4317-9" />
    <path
       id="path4331-1"
       d="m 17.577573,46.656053 0,0.923077 0.923077,0 0,-0.923077 -0.923077,0 z m 0.923077,0.923077 0,0.923077 0.923077,0 0,-0.923077 -0.923077,0 z m 0.923077,0 0.923077,0 0,-0.923077 -0.923077,0 0,0.923077 z m 0.923077,0 0,0.923077 0.923077,0 0,-0.923077 -0.923077,0 z m 0.923077,0 0.923077,0 0,-0.923077 -0.923077,0 0,0.923077 z m 0.923077,0 0,0.923077 0.923077,0 0,-0.923077 -0.923077,0 z m 0.923077,0 0.923076,0 0,-0.923077 -0.923076,0 0,0.923077 z m 0.923076,0 0,0.923077 0.923077,0 0,-0.923077 -0.923077,0 z m 0.923077,0 0.923077,0 0,-0.923077 -0.923077,0 0,0.923077 z m 0.923077,0 0,0.923077 0.923077,0 0,-0.923077 -0.923077,0 z m 0.923077,0 0.923077,0 0,-0.923077 -0.923077,0 0,0.923077 z m 0.923077,0 0,0.923077 0.923077,0 0,-0.923077 -0.923077,0 z m 0.923077,0 0.923077,0 0,-0.923077 -0.923077,0 0,0.923077 z m 0.923077,0 0,0.923077 0.923077,0 0,-0.923077 -0.923077,0 z m 0.923077,0 0.923077,0 0,-0.923077 -0.923077,0 0,0.923077 z m 0.923077,0 0,0.923077 0.923077,0 0,-0.923077 -0.923077,0 z"
       style="color:#000000;font-style:normal;font-variant:normal;font-weight:normal;font-stretch:normal;font-size:medium;line-height:normal;font-family:Sans;-inkscape-font-specification:Sans;text-indent:0;text-align:start;text-decoration:none;text-decoration-line:none;letter-spacing:normal;word-spacing:normal;text-transform:none;direction:ltr;block-progression:tb;writing-mode:lr-tb;baseline-shift:baseline;text-anchor:start;display:inline;overflow:visible;visibility:visible;opacity:1;fill:#eae8e8;fill-opacity:1;stroke:none;stroke-width:1;marker:none;enable-background:accumulate"
       inkscape:connector-curvature="0" />
    <path
       id="path4333-3"
       d="m 59.116034,26.348361 -0.923077,0 0,-0.923077 0.923077,0 0,0.923077 z m -0.923077,-0.923077 -0.923077,0 0,-0.923077 0.923077,0 0,0.923077 z m 0,-0.923077 0,-0.923077 0.923077,0 0,0.923077 -0.923077,0 z m 0,-0.923077 -0.923077,0 0,-0.923077 0.923077,0 0,0.923077 z m 0,-0.923077 0,-0.923077 0.923077,0 0,0.923077 -0.923077,0 z m 0,-0.923077 -0.923077,0 0,-0.923077 0.923077,0 0,0.923077 z m 0,-0.923077 0,-0.923077 0.923077,0 0,0.923077 -0.923077,0 z m 0,-0.923077 -0.923077,0 0,-0.923077 0.923077,0 0,0.923077 z m 0,-0.923077 0,-0.923077 0.923077,0 0,0.923077 -0.923077,0 z m 0,-0.923077 -0.923077,0 0,-0.923076 0.923077,0 0,0.923076 z m 0,-0.923076 0,-0.923077 0.923077,0 0,0.923077 -0.923077,0 z m 0,-0.923077 -0.923077,0 0,-0.923077 0.923077,0 0,0.923077 z m 0,-0.923077 0,-0.923077 0.923077,0 0,0.923077 -0.923077,0 z m 0,-0.923077 -0.923077,0 0,-0.923077 0.923077,0 0,0.923077 z m 0,-0.923077 0,-0.923077 0.923077,0 0,0.923077 -0.923077,0 z m 0,-0.923077 -0.923077,0 0,-0.923077 0.923077,0 0,0.923077 z"
       style="color:#000000;font-style:normal;font-variant:normal;font-weight:normal;font-stretch:normal;font-size:medium;line-height:normal;font-family:Sans;-inkscape-font-specification:Sans;text-indent:0;text-align:start;text-decoration:none;text-decoration-line:none;letter-spacing:normal;word-spacing:normal;text-transform:none;direction:ltr;block-progression:tb;writing-mode:lr-tb;baseline-shift:baseline;text-anchor:start;display:inline;overflow:visible;visibility:visible;opacity:1;fill:#eae8e8;fill-opacity:1;stroke:none;stroke-width:1;marker:none;enable-background:accumulate"
       inkscape:connector-curvature="0" />
    <path
       style="color:#000000;font-style:normal;font-variant:normal;font-weight:normal;font-stretch:normal;font-size:medium;line-height:normal;font-family:Sans;-inkscape-font-specification:Sans;text-indent:0;text-align:start;text-decoration:none;text-decoration-line:none;letter-spacing:normal;word-spacing:normal;text-transform:none;direction:ltr;block-progression:tb;writing-mode:lr-tb;baseline-shift:baseline;text-anchor:start;display:inline;overflow:visible;visibility:visible;opacity:1;fill:#eae8e8;fill-opacity:1;stroke:none;stroke-width:1;marker:none;enable-background:accumulate"
       d="m 57.269892,35.579135 0,0.923077 0.923077,0 0,-0.923077 z m 0.923077,0.923077 0,0.923077 0.923077,0 0,-0.923077 z m 0,0.923077 -0.923077,0 0,0.923077 0.923077,0 z m 0,0.923077 0,0.923077 0.923077,0 0,-0.923077 z m 0,0.923077 -0.923077,0 0,0.923077 0.923077,0 z m 0,0.923077 0,0.923077 0.923077,0 0,-0.923077 z m 0,0.923077 -0.923077,0 0,0.923077 0.923077,0 z m 0,0.923077 0,0.923077 0.923077,0 0,-0.923077 z m 0,0.923077 -0.923077,0 0,0.923077 0.923077,0 z"
       id="path4339-4"
       inkscape:connector-curvature="0"
       sodipodi:nodetypes="ccccccccccccccccccccccccccccccccccccccccccccc" />
  </g>
</svg>
