<?xml version="1.0" encoding="UTF-8" standalone="no"?>
<svg
   xmlns:osb="http://www.openswatchbook.org/uri/2009/osb"
   xmlns:dc="http://purl.org/dc/elements/1.1/"
   xmlns:cc="http://creativecommons.org/ns#"
   xmlns:rdf="http://www.w3.org/1999/02/22-rdf-syntax-ns#"
   xmlns:svg="http://www.w3.org/2000/svg"
   xmlns="http://www.w3.org/2000/svg"
   xmlns:xlink="http://www.w3.org/1999/xlink"
   xmlns:sodipodi="http://sodipodi.sourceforge.net/DTD/sodipodi-0.dtd"
   xmlns:inkscape="http://www.inkscape.org/namespaces/inkscape"
   viewBox="0 0 48 48"
   id="svg2"
   version="1.1"
   inkscape:version="0.91 r13725"
   sodipodi:docname="org.kde.plasma.systemtray.svg">
  <metadata
     id="metadata77">
    <rdf:RDF>
      <cc:Work
         rdf:about="">
        <dc:format>image/svg+xml</dc:format>
        <dc:type
           rdf:resource="http://purl.org/dc/dcmitype/StillImage" />
        <dc:title />
      </cc:Work>
    </rdf:RDF>
  </metadata>
  <sodipodi:namedview
     pagecolor="#5e5e5e"
     bordercolor="#666666"
     borderopacity="1"
     objecttolerance="10"
     gridtolerance="10"
     guidetolerance="10"
     inkscape:pageopacity="0"
     inkscape:pageshadow="2"
     inkscape:window-width="1366"
     inkscape:window-height="687"
     id="namedview75"
     showgrid="false"
     showborder="false"
     inkscape:zoom="6.9532166"
     inkscape:cx="-5.229602"
     inkscape:cy="11.146336"
     inkscape:window-x="0"
     inkscape:window-y="0"
     inkscape:window-maximized="1"
     inkscape:current-layer="g4184" />
  <defs
     id="defs4">
    <linearGradient
       id="linearGradient4232">
      <stop
         id="stop4234-0"
         offset="0"
         style="stop-color:#3889e9;stop-opacity:1" />
      <stop
         id="stop4236"
         offset="1"
         style="stop-color:#5ea5fb;stop-opacity:1" />
    </linearGradient>
    <linearGradient
       osb:paint="gradient"
       id="linearGradient4207">
      <stop
         id="stop3371"
         offset="0"
         style="stop-color:#3498db;stop-opacity:1;" />
      <stop
         id="stop3373"
         offset="1"
         style="stop-color:#3498db;stop-opacity:0;" />
    </linearGradient>
    <linearGradient
       id="linearGradient4422">
      <stop
         style="stop-color:#ff9300;stop-opacity:1"
         offset="0"
         id="stop4424" />
      <stop
         style="stop-color:#ffd702;stop-opacity:1"
         offset="1"
         id="stop4426" />
    </linearGradient>
    <linearGradient
       inkscape:collect="always"
       xlink:href="#linearGradient4232"
       id="linearGradient4237"
       x1="399.57144"
       y1="545.79797"
       x2="399.57144"
       y2="517.79797"
       gradientUnits="userSpaceOnUse" />
    <linearGradient
       id="linearGradient4180-0">
      <stop
         style="stop-color:#2b65bd;stop-opacity:1"
         offset="0"
         id="stop4182-2" />
      <stop
         style="stop-color:#64a3dc;stop-opacity:1"
         offset="1"
         id="stop4184-3" />
    </linearGradient>
    <linearGradient
       inkscape:collect="always"
       xlink:href="#linearGradient4227-2"
       id="linearGradient4222"
       x1="409.57144"
       y1="542.79797"
       x2="409.57144"
       y2="507.798"
       gradientUnits="userSpaceOnUse"
       gradientTransform="matrix(1.0909091,0,0,1.0652838,-409.10415,-532.21133)" />
    <linearGradient
       id="linearGradient4227-2">
      <stop
         offset="0"
         style="stop-color:#566069;stop-opacity:1"
         id="stop4229-9" />
      <stop
         offset="1"
         style="stop-color:#6c7884;stop-opacity:1"
         id="stop4231-4" />
    </linearGradient>
  </defs>
  <g
     id="g33" />
  <g
     id="g4184"
     transform="translate(-12.61017,-2.8474569)">
    <rect
       style="opacity:1;fill:url(#linearGradient4222);fill-opacity:1;stroke:none;stroke-width:0.2;stroke-linecap:round;stroke-linejoin:round;stroke-miterlimit:4;stroke-dasharray:none;stroke-opacity:1"
       id="rect4195"
       width="48"
       height="36.219646"
       x="12.61017"
       y="8.7376337"
       ry="1.7044541" />
    <path
       style="clip-rule:evenodd;fill:#ffffff;fill-opacity:0.84693879;fill-rule:evenodd;stroke-width:1.31742239;stroke-miterlimit:4;stroke-dasharray:none"
       d="m 50.962539,33.532116 c -0.01797,-0.159788 -0.204281,-0.279861 -0.36538,-0.279861 -0.520855,0 -0.983047,-0.305831 -1.176881,-0.778808 -0.198022,-0.484439 -0.07034,-1.049406 0.317841,-1.405482 0.122188,-0.111699 0.137034,-0.298682 0.03456,-0.428568 -0.266581,-0.338523 -0.569578,-0.644311 -0.900404,-0.909327 -0.129547,-0.10396 -0.319618,-0.0895 -0.431951,0.03489 -0.338778,0.375192 -0.947308,0.514637 -1.417536,0.318433 -0.489345,-0.205846 -0.797924,-0.701704 -0.767726,-1.233978 0.0099,-0.167189 -0.112249,-0.312555 -0.278931,-0.331968 -0.42455,-0.0491 -0.852822,-0.05063 -1.278641,-0.0034 -0.164779,0.01819 -0.286967,0.160127 -0.281427,0.325201 0.01852,0.52703 -0.293776,1.014218 -0.778257,1.212662 -0.464603,0.189775 -1.068862,0.05151 -1.406962,-0.320337 -0.111742,-0.122484 -0.298725,-0.137541 -0.428907,-0.03608 -0.340638,0.267258 -0.650444,0.5733 -0.919478,0.909032 -0.104932,0.13052 -0.08949,0.319702 0.03392,0.431994 0.395579,0.358232 0.523308,0.928106 0.3178,1.418128 -0.196204,0.467182 -0.681319,0.768276 -1.236686,0.768276 -0.180216,-0.0058 -0.308579,0.115167 -0.328288,0.279015 -0.04999,0.427003 -0.05058,0.862085 -0.0025,1.292556 0.01785,0.160465 0.209822,0.279481 0.372697,0.279481 0.494928,-0.01265 0.970104,0.293776 1.169438,0.778849 0.198698,0.484439 0.07097,1.049068 -0.3178,1.40544 -0.121596,0.111699 -0.137033,0.298386 -0.03455,0.428272 0.264085,0.336367 0.567124,0.642451 0.899134,0.909666 0.130224,0.104932 0.319703,0.09013 0.432586,-0.03426 0.340046,-0.376124 0.948535,-0.515314 1.416902,-0.31873 0.490571,0.205212 0.79915,0.701028 0.768952,1.233598 -0.0099,0.167274 0.112926,0.312893 0.278931,0.33201 0.217181,0.02533 0.435674,0.03798 0.654758,0.03798 0.207961,0 0.415965,-0.01142 0.623926,-0.03455 0.164821,-0.01819 0.286924,-0.160127 0.281384,-0.325497 -0.01908,-0.526733 0.293776,-1.013922 0.777623,-1.212028 0.467732,-0.191043 1.069453,-0.05122 1.407596,0.320252 0.112376,0.122231 0.298048,0.136992 0.428949,0.03587 0.340004,-0.266623 0.649175,-0.572411 0.919478,-0.909074 0.10489,-0.130224 0.09009,-0.319702 -0.03396,-0.431951 -0.395579,-0.358233 -0.523942,-0.928191 -0.318434,-1.417874 0.193201,-0.460966 0.660299,-0.770476 1.162713,-0.770476 l 0.07029,0.0018 c 0.16296,0.01324 0.312893,-0.112291 0.332645,-0.278635 0.05008,-0.427384 0.05067,-0.862085 0.0025,-1.292556 z m -5.638887,2.538927 c -1.045431,0 -1.8958,-0.850369 -1.8958,-1.8958 0,-1.045388 0.850369,-1.8958 1.8958,-1.8958 1.045388,0 1.895757,0.850412 1.895757,1.8958 0,1.045431 -0.850369,1.8958 -1.895757,1.8958 z"
       id="path6"
       inkscape:connector-curvature="0" />
    <path
       inkscape:connector-curvature="0"
       d="m 28.044798,13.847465 c -2.89061,0 -5.608127,1.125679 -7.652092,3.169645 l 1.167044,1.167044 c 1.732232,-1.732231 4.035323,-2.686209 6.485048,-2.686209 2.449778,0 4.752817,0.953978 6.485048,2.686209 l 1.167045,-1.167044 c -2.043863,-2.043966 -4.761482,-3.169645 -7.652093,-3.169645 z"
       id="path4791-9-1-3"
       style="fill:#e6e8e9;fill-opacity:1" />
    <path
       inkscape:connector-curvature="0"
       d="m 22.465761,19.090165 1.167045,1.167044 c 1.178495,-1.178494 2.745316,-1.827546 4.411992,-1.827546 1.666625,0 3.233498,0.649 4.41189,1.827546 l 1.167148,-1.167044 c -1.490127,-1.490229 -3.471477,-2.310931 -5.579038,-2.310931 -2.10756,0 -4.088859,0.820702 -5.579037,2.310931 z"
       id="path4793-4-7-5"
       style="fill:#e6e8e9;fill-opacity:1" />
    <path
       inkscape:connector-curvature="0"
       d="m 24.541189,21.165696 1.167148,1.167044 c 0.624088,-0.624191 1.453867,-0.967903 2.336565,-0.967903 0.882594,0 1.712425,0.343712 2.336513,0.967903 l 1.167147,-1.167044 c -0.935874,-0.935874 -2.18013,-1.45134 -3.50366,-1.45134 -1.323634,0 -2.56789,0.515414 -3.503713,1.45134 z"
       id="path4795-8-6-0"
       style="fill:#e6e8e9;fill-opacity:1" />
    <path
       inkscape:connector-curvature="0"
       d="m 28.04485,22.993706 c -0.428867,0 -0.857683,0.163553 -1.184942,0.490709 -0.01145,0.01145 -0.02218,0.02326 -0.03322,0.03492 l 1.218055,1.221717 1.221201,-1.218313 c -0.01202,-0.01284 -0.02388,-0.02579 -0.03636,-0.03827 -0.327157,-0.327207 -0.755921,-0.49076 -1.184736,-0.49076 z"
       id="path4797-8-4-1"
       style="fill:#e6e8e9;fill-opacity:1" />
    <path
       style="fill:#e6e8e9;fill-opacity:1"
       d="m 26.606894,28.953881 c -0.154466,0 -0.253546,0.124182 -0.253546,0.278368 l 0,0.83865 -1.98049,0 c -0.154465,0 -0.253545,0.124181 -0.253545,0.278367 l 0,7.542531 0,1.675526 c 0,0.154187 0.101133,0.280141 0.255318,0.280141 l 7.26239,0 c 0.154186,0 0.30319,-0.125954 0.30319,-0.280141 l 0,-1.675526 0,-7.542531 c 0,-0.154186 -0.152551,-0.278367 -0.306736,-0.278367 l -1.929072,0 0,-0.83865 c 0,-0.154186 -0.150778,-0.278368 -0.304964,-0.278368 l -2.792545,0 z m 2.0851,2.781906 -0.469857,2.287228 1.813825,0.982266 -2.687936,3.26772 0.469857,-2.287227 -1.812051,-0.980493 2.686162,-3.269494 z"
       id="path4961-4-6-1-5"
       inkscape:connector-curvature="0" />
    <path
       style="fill:#e6e8ea;fill-opacity:1;stroke:none;stroke-width:0.5;stroke-miterlimit:4;stroke-dasharray:none;stroke-opacity:0.84959352"
       d="m 50.420243,24.279785 c -0.149393,0 -0.298785,-0.0568 -0.412386,-0.171179 -0.22798,-0.22798 -0.22798,-0.597572 0,-0.825552 1.065203,-1.065203 1.651881,-2.482102 1.651881,-3.989259 0,-1.507157 -0.586678,-2.923278 -1.651881,-3.989259 -0.22798,-0.22798 -0.22798,-0.597572 0,-0.825552 0.22798,-0.22798 0.597571,-0.22798 0.825552,0 1.28618,1.28618 1.99424,2.995641 1.99424,4.814033 0,1.818392 -0.70806,3.527853 -1.99424,4.814033 -0.113601,0.113601 -0.262995,0.171179 -0.412387,0.171179 z"
       id="path4258-0-3"
       inkscape:connector-curvature="0" />
    <path
       style="fill:#e6e8ea;fill-opacity:1;stroke:none;stroke-width:0.5;stroke-miterlimit:4;stroke-dasharray:none;stroke-opacity:0.84959352"
       d="m 48.347416,23.179568 c -0.149393,0 -0.298786,-0.0568 -0.412387,-0.171179 -0.227979,-0.22798 -0.227979,-0.597572 0,-0.825552 1.592747,-1.592747 1.592747,-4.184559 0,-5.777306 -0.227979,-0.22798 -0.227979,-0.597572 0,-0.825552 0.227981,-0.22798 0.597572,-0.22798 0.825552,0 0.992063,0.992063 1.538281,2.310923 1.538281,3.713816 0,1.402893 -0.546218,2.721753 -1.538281,3.713816 -0.113601,0.113601 -0.262994,0.171179 -0.412386,0.171179 l 0,0 z"
       id="path4256-2-4"
       inkscape:connector-curvature="0" />
    <path
       style="fill:#e6e8ea;fill-opacity:1;stroke:none;stroke-width:0.5;stroke-miterlimit:4;stroke-dasharray:none;stroke-opacity:0.84959352"
       d="m 46.273811,22.078573 c -0.149393,0 -0.298786,-0.0568 -0.412387,-0.171179 -0.22798,-0.22798 -0.22798,-0.597572 0,-0.825552 0.985838,-0.985838 0.985838,-2.590256 0,-3.576094 -0.22798,-0.22798 -0.22798,-0.597572 0,-0.825552 0.22798,-0.22798 0.597572,-0.22798 0.825551,0 1.441021,1.44102 1.441021,3.7854 0,5.227198 -0.1136,0.113601 -0.262993,0.171179 -0.412386,0.171179 z"
       id="path4188-4-3-8"
       inkscape:connector-curvature="0" />
    <path
       style="fill:#e6e8ea;fill-opacity:1;stroke:none;stroke-width:0.5;stroke-miterlimit:4;stroke-dasharray:none;stroke-opacity:0.84959352"
       inkscape:connector-curvature="0"
       d="m 44.656943,24.741192 c -0.101152,0 -0.200747,-0.03968 -0.275443,-0.113601 l -2.998753,-2.998753 -1.395112,0 c -0.214753,0 -0.389045,-0.174291 -0.389045,-0.389044 l 0,-3.890442 c 0,-0.214752 0.174292,-0.389044 0.389045,-0.389044 l 1.395112,0 2.998753,-2.998752 c 0.111266,-0.111267 0.278555,-0.144725 0.424058,-0.08403 0.145502,0.06069 0.240429,0.202303 0.240429,0.359476 l 0,10.11515 c 0,0.157173 -0.09493,0.299564 -0.240429,0.359476 -0.04824,0.02023 -0.09882,0.02957 -0.148615,0.02957 z"
       id="path4190-4-2-8" />
  </g>
</svg>
