<?xml version="1.0" encoding="UTF-8" standalone="no"?>
<svg
   xmlns:osb="http://www.openswatchbook.org/uri/2009/osb"
   xmlns:dc="http://purl.org/dc/elements/1.1/"
   xmlns:cc="http://creativecommons.org/ns#"
   xmlns:rdf="http://www.w3.org/1999/02/22-rdf-syntax-ns#"
   xmlns:svg="http://www.w3.org/2000/svg"
   xmlns="http://www.w3.org/2000/svg"
   xmlns:xlink="http://www.w3.org/1999/xlink"
   xmlns:sodipodi="http://sodipodi.sourceforge.net/DTD/sodipodi-0.dtd"
   xmlns:inkscape="http://www.inkscape.org/namespaces/inkscape"
   viewBox="0 0 48 48"
   id="svg2"
   version="1.1"
   inkscape:version="0.91 r13725"
   sodipodi:docname="org.kde.ktpcontactlist.svg">
  <metadata
     id="metadata77">
    <rdf:RDF>
      <cc:Work
         rdf:about="">
        <dc:format>image/svg+xml</dc:format>
        <dc:type
           rdf:resource="http://purl.org/dc/dcmitype/StillImage" />
        <dc:title></dc:title>
      </cc:Work>
    </rdf:RDF>
  </metadata>
  <sodipodi:namedview
     pagecolor="#5e5e5e"
     bordercolor="#666666"
     borderopacity="1"
     objecttolerance="10"
     gridtolerance="10"
     guidetolerance="10"
     inkscape:pageopacity="0"
     inkscape:pageshadow="2"
     inkscape:window-width="1366"
     inkscape:window-height="687"
     id="namedview75"
     showgrid="false"
     showborder="false"
     inkscape:zoom="2.4583333"
     inkscape:cx="13.830509"
     inkscape:cy="6.6573779"
     inkscape:window-x="0"
     inkscape:window-y="0"
     inkscape:window-maximized="1"
     inkscape:current-layer="svg2" />
  <defs
     id="defs4">
    <linearGradient
       id="linearGradient4232">
      <stop
         id="stop4234-0"
         offset="0"
         style="stop-color:#3889e9;stop-opacity:1" />
      <stop
         id="stop4236"
         offset="1"
         style="stop-color:#5ea5fb;stop-opacity:1" />
    </linearGradient>
    <linearGradient
       osb:paint="gradient"
       id="linearGradient4207">
      <stop
         id="stop3371"
         offset="0"
         style="stop-color:#3498db;stop-opacity:1;" />
      <stop
         id="stop3373"
         offset="1"
         style="stop-color:#3498db;stop-opacity:0;" />
    </linearGradient>
    <linearGradient
       id="linearGradient4422">
      <stop
         style="stop-color:#ff9300;stop-opacity:1"
         offset="0"
         id="stop4424" />
      <stop
         style="stop-color:#ffd702;stop-opacity:1"
         offset="1"
         id="stop4426" />
    </linearGradient>
    <linearGradient
       inkscape:collect="always"
       xlink:href="#linearGradient4232"
       id="linearGradient4237"
       x1="399.57144"
       y1="545.79797"
       x2="399.57144"
       y2="517.79797"
       gradientUnits="userSpaceOnUse" />
    <linearGradient
       id="linearGradient4180-0">
      <stop
         style="stop-color:#2b65bd;stop-opacity:1"
         offset="0"
         id="stop4182-2" />
      <stop
         style="stop-color:#64a3dc;stop-opacity:1"
         offset="1"
         id="stop4184-3" />
    </linearGradient>
    <linearGradient
       gradientTransform="matrix(1.1067024,0,0,1.1067024,-324.02725,-554.60187)"
       gradientUnits="userSpaceOnUse"
       y2="507.798"
       x2="373.57144"
       y1="544.49469"
       x1="373.61014"
       id="linearGradient4182"
       xlink:href="#linearGradient4299"
       inkscape:collect="always" />
    <linearGradient
       id="linearGradient4299"
       inkscape:collect="always">
      <stop
         id="stop4301"
         offset="0"
         style="stop-color:#1074f5;stop-opacity:1" />
      <stop
         id="stop4303"
         offset="1"
         style="stop-color:#02befd;stop-opacity:1" />
    </linearGradient>
    <linearGradient
       gradientTransform="matrix(-0.55335036,0,0,0.60251896,307.3078,-278.36949)"
       gradientUnits="userSpaceOnUse"
       y2="507.86609"
       x2="373.44516"
       y1="546.79541"
       x1="373.44516"
       id="linearGradient4182-3"
       xlink:href="#linearGradient8467"
       inkscape:collect="always" />
    <linearGradient
       id="linearGradient8467">
      <stop
         offset="0"
         style="stop-color:#d3d3d3;stop-opacity:1"
         id="stop8469" />
      <stop
         offset="1"
         style="stop-color:#fcf9f9;stop-opacity:1"
         id="stop8471" />
    </linearGradient>
  </defs>
  <g
     id="g33" />
  <g
     id="g4174"
     transform="translate(-65.084749,-4.8813558)">
    <path
       style="fill:url(#linearGradient4182);fill-opacity:1"
       sodipodi:nodetypes="csssccccccccscscc"
       inkscape:connector-curvature="0"
       id="path3"
       d="M 106.00571,12.912945 C 101.47992,9.2297221 95.470617,7.2013927 89.084888,7.2013927 c -6.385846,0 -12.395157,2.0284658 -16.920839,5.7115523 -4.565155,3.715199 -7.079301,8.666576 -7.079301,13.942201 0,5.035251 2.291724,9.774322 6.469467,13.425705 -0.07534,0.169433 -0.135118,0.347687 -0.173283,0.535092 l -1.372739,6.752323 c -0.163225,0.802482 0.05614,1.280999 0.268667,1.541285 0.245735,0.300633 0.609961,0.466305 1.025685,0.466305 l 0,0 c 0.313888,0 0.651235,-0.09259 1.002752,-0.275333 l 7.984407,-4.147988 c 2.764354,0.889777 5.73619,1.356345 8.795018,1.356345 6.385875,0 12.395018,-2.028427 16.920858,-5.711523 4.56502,-3.715082 7.07917,-8.666469 7.07917,-13.942084 0,-5.275752 -2.51403,-10.227129 -7.07905,-13.942328 z" />
    <path
       style="fill:url(#linearGradient4182-3);fill-opacity:1"
       sodipodi:nodetypes="csssccccccccscscc"
       inkscape:connector-curvature="0"
       id="path3-6"
       d="m 92.29164,30.601026 c 2.262905,-2.005251 5.267556,-3.109527 8.4604,-3.109527 3.19291,0 6.19757,1.104344 8.46041,3.109527 2.28256,2.022647 3.53965,4.718312 3.53965,7.590515 0,2.741334 -1.14588,5.321382 -3.23475,7.309314 0.0378,0.0923 0.0676,0.189296 0.0866,0.291317 l 0.68636,3.676147 c 0.0816,0.436902 -0.028,0.697421 -0.13437,0.839127 -0.12294,0.163664 -0.30499,0.253873 -0.51285,0.253873 l 0,0 c -0.15695,0 -0.32561,-0.05039 -0.50137,-0.149913 l -3.99221,-2.258256 c -1.38217,0.484414 -2.86808,0.738413 -4.3975,0.738413 -3.192915,0 -6.197507,-1.104325 -8.460402,-3.109507 -2.282504,-2.022589 -3.539587,-4.718264 -3.539587,-7.590447 0,-2.872271 1.257015,-5.567936 3.539519,-7.590583 z" />
  </g>
</svg>
