<?xml version="1.0" encoding="UTF-8" standalone="no"?>
<svg
   xmlns:osb="http://www.openswatchbook.org/uri/2009/osb"
   xmlns:dc="http://purl.org/dc/elements/1.1/"
   xmlns:cc="http://creativecommons.org/ns#"
   xmlns:rdf="http://www.w3.org/1999/02/22-rdf-syntax-ns#"
   xmlns:svg="http://www.w3.org/2000/svg"
   xmlns="http://www.w3.org/2000/svg"
   xmlns:xlink="http://www.w3.org/1999/xlink"
   xmlns:sodipodi="http://sodipodi.sourceforge.net/DTD/sodipodi-0.dtd"
   xmlns:inkscape="http://www.inkscape.org/namespaces/inkscape"
   viewBox="0 0 48 48"
   id="svg2"
   version="1.1"
   inkscape:version="0.91 r13725"
   sodipodi:docname="org.kde.contrib.simpledateandtime.svg">
  <metadata
     id="metadata77">
    <rdf:RDF>
      <cc:Work
         rdf:about="">
        <dc:format>image/svg+xml</dc:format>
        <dc:type
           rdf:resource="http://purl.org/dc/dcmitype/StillImage" />
        <dc:title />
      </cc:Work>
    </rdf:RDF>
  </metadata>
  <sodipodi:namedview
     pagecolor="#5e5e5e"
     bordercolor="#666666"
     borderopacity="1"
     objecttolerance="10"
     gridtolerance="10"
     guidetolerance="10"
     inkscape:pageopacity="0"
     inkscape:pageshadow="2"
     inkscape:window-width="1366"
     inkscape:window-height="687"
     id="namedview75"
     showgrid="false"
     showborder="false"
     inkscape:zoom="9.8333332"
     inkscape:cx="16.370003"
     inkscape:cy="29.767312"
     inkscape:window-x="0"
     inkscape:window-y="0"
     inkscape:window-maximized="1"
     inkscape:current-layer="svg2" />
  <defs
     id="defs4">
    <linearGradient
       osb:paint="gradient"
       id="linearGradient4207">
      <stop
         id="stop3371"
         offset="0"
         style="stop-color:#3498db;stop-opacity:1;" />
      <stop
         id="stop3373"
         offset="1"
         style="stop-color:#3498db;stop-opacity:0;" />
    </linearGradient>
    <linearGradient
       gradientTransform="matrix(0.68622014,0,0,0.68622014,-200.84118,-311.03834)"
       inkscape:collect="always"
       xlink:href="#linearGradient4264"
       id="linearGradient4235"
       gradientUnits="userSpaceOnUse"
       x1="372.89328"
       y1="537.23224"
       x2="372.32303"
       y2="506.81985" />
    <linearGradient
       id="linearGradient4264"
       inkscape:collect="always">
      <stop
         id="stop4266"
         offset="0"
         style="stop-color:#0a80fd;stop-opacity:1" />
      <stop
         id="stop4268"
         offset="1"
         style="stop-color:#56c5fa;stop-opacity:1" />
    </linearGradient>
    <linearGradient
       inkscape:collect="always"
       xlink:href="#linearGradient4503"
       id="linearGradient4222"
       x1="409.75787"
       y1="540.60236"
       x2="409.57144"
       y2="507.798"
       gradientUnits="userSpaceOnUse"
       gradientTransform="matrix(1.0909091,0,0,1.0652838,-390.79907,-511.87234)" />
    <linearGradient
       inkscape:collect="always"
       xlink:href="#linearGradient4264"
       id="linearGradient4363"
       gradientUnits="userSpaceOnUse"
       gradientTransform="matrix(0.68622014,0,0,0.68622014,-200.84118,-311.03834)"
       x1="372.89328"
       y1="537.23224"
       x2="372.32303"
       y2="506.81985" />
    <linearGradient
       inkscape:collect="always"
       xlink:href="#linearGradient4264"
       id="linearGradient4365"
       gradientUnits="userSpaceOnUse"
       gradientTransform="matrix(0.68622014,0,0,0.68622014,-200.84118,-311.03834)"
       x1="372.89328"
       y1="537.23224"
       x2="372.32303"
       y2="506.81985" />
    <linearGradient
       inkscape:collect="always"
       xlink:href="#linearGradient4264"
       id="linearGradient4367"
       gradientUnits="userSpaceOnUse"
       gradientTransform="matrix(0.68622014,0,0,0.68622014,-200.84118,-311.03834)"
       x1="372.89328"
       y1="537.23224"
       x2="372.32303"
       y2="506.81985" />
    <linearGradient
       inkscape:collect="always"
       xlink:href="#linearGradient4264"
       id="linearGradient4369"
       gradientUnits="userSpaceOnUse"
       gradientTransform="matrix(0.68622014,0,0,0.68622014,-200.84118,-311.03834)"
       x1="372.89328"
       y1="537.23224"
       x2="372.32303"
       y2="506.81985" />
    <linearGradient
       id="linearGradient4503"
       inkscape:collect="always">
      <stop
         id="stop4505-8"
         offset="0"
         style="stop-color:#212121;stop-opacity:1" />
      <stop
         id="stop4507"
         offset="1"
         style="stop-color:#3f3f41;stop-opacity:1" />
    </linearGradient>
  </defs>
  <g
     id="g33" />
  <g
     id="g4371"
     transform="translate(-30.915255,-23.186441)">
    <rect
       style="opacity:1;fill:url(#linearGradient4222);fill-opacity:1;stroke:none;stroke-width:0.2;stroke-linecap:round;stroke-linejoin:round;stroke-miterlimit:4;stroke-dasharray:none;stroke-opacity:1"
       id="rect4195"
       width="48"
       height="36.219646"
       x="30.915255"
       y="29.076618"
       ry="1.7044541" />
    <path
       inkscape:connector-curvature="0"
       d="m 34.871014,39.290894 c -0.473183,0 -0.748288,0.275105 -0.825317,0.814317 l 0,0.759289 c 0,0.462183 0.31912,0.759295 0.957367,0.902352 0.539211,0 0.814316,0.462176 0.814316,1.397535 l 0,11.092289 c 0,0.473183 0.275106,0.748288 0.814317,0.825324 l 0.781303,0 c 0.473183,0 0.748289,-0.275113 0.825317,-0.814317 l 0,-14.151472 c 0,-0.473183 -0.275106,-0.748289 -0.814317,-0.825317 l -2.552986,0 z"
       style="font-style:normal;font-variant:normal;font-weight:normal;font-stretch:normal;font-size:32.84180832px;line-height:125%;font-family:'Digital tech';-inkscape-font-specification:'Digital tech';letter-spacing:0px;word-spacing:0px;fill:url(#linearGradient4363);fill-opacity:1;stroke:none;stroke-width:1px;stroke-linecap:butt;stroke-linejoin:miter;stroke-opacity:1"
       id="path4246" />
    <path
       inkscape:connector-curvature="0"
       d="m 40.14205,39.290894 c -0.462177,0 -0.726275,0.275105 -0.80331,0.814317 l 0,5.722211 c 0,0.473183 0.297119,0.759289 0.902352,0.858331 0.363141,0.09904 0.605232,0.264099 0.715274,0.49519 0.110043,0.814317 0.429169,1.221472 0.946367,1.221472 l 4.797852,0 c 0.539211,0.01098 0.814317,0.05504 0.814317,0.132049 0.451176,0 0.67126,0.451176 0.67126,1.353522 l 0,1.309507 c -0.02203,0.539211 -0.06601,0.803309 -0.132049,0.803309 0,0.451177 -0.451176,0.682268 -1.353528,0.682268 l -6.558535,0 c -0.462177,0 -0.726275,0.275106 -0.80331,0.814317 l 0,0.759289 c 0,0.473183 0.264105,0.748288 0.80331,0.825324 l 7.857042,0 c 0.473183,0 0.759289,-0.29712 0.858331,-0.902352 0.09904,-0.363141 0.264099,-0.605233 0.49519,-0.715275 0.80331,-0.121049 1.210465,-0.440169 1.210465,-0.957373 l 0,-3.917514 c 0,-0.473184 -0.297113,-0.759289 -0.902345,-0.858331 -0.363141,-0.09904 -0.605233,-0.264099 -0.715275,-0.495191 -0.110042,-0.814317 -0.429169,-1.221472 -0.946366,-1.221472 l -4.797859,0 c -0.539205,-0.01098 -0.81431,-0.05503 -0.81431,-0.132049 -0.451176,0 -0.671261,-0.451176 -0.671261,-1.353528 l 0,-1.353521 c 0.02203,-0.539211 0.06602,-0.80331 0.13205,-0.80331 0,-0.451176 0.451176,-0.682261 1.353521,-0.682261 l 6.558535,0 c 0.462183,0 0.726282,-0.275112 0.80331,-0.814316 l 0,-0.759296 c 0,-0.473183 -0.264099,-0.748289 -0.80331,-0.825317 l -9.617718,0 z"
       style="font-style:normal;font-variant:normal;font-weight:normal;font-stretch:normal;font-size:32.84180832px;line-height:125%;font-family:'Digital tech';-inkscape-font-specification:'Digital tech';letter-spacing:0px;word-spacing:0px;fill:url(#linearGradient4365);fill-opacity:1;stroke:none;stroke-width:1px;stroke-linecap:butt;stroke-linejoin:miter;stroke-opacity:1"
       id="path4248" />
    <path
       inkscape:connector-curvature="0"
       d="m 54.304529,52.275915 2.321894,0 0,2.795078 -2.321894,0 0,-2.795078 z m 0,-8.858429 2.321894,0 0,2.795084 -2.321894,0 0,-2.795084 z"
       style="font-style:normal;font-variant:normal;font-weight:normal;font-stretch:normal;font-size:32.84180832px;line-height:125%;font-family:'Digital tech';-inkscape-font-specification:'Digital tech';letter-spacing:0px;word-spacing:0px;fill:url(#linearGradient4367);fill-opacity:1;stroke:none;stroke-width:1px;stroke-linecap:butt;stroke-linejoin:miter;stroke-opacity:1"
       id="path4250" />
    <path
       inkscape:connector-curvature="0"
       d="m 60.092761,39.290894 c -0.473183,0 -0.748289,0.275105 -0.825317,0.814317 l 0,0.759289 c 0,0.462183 0.31912,0.759295 0.957366,0.902352 0.539212,0 0.814317,0.462176 0.814317,1.397535 l 0,11.092289 c 0,0.473183 0.275106,0.748288 0.814317,0.825324 l 0.781303,0 c 0.473183,0 0.748289,-0.275113 0.825317,-0.814317 l 0,-14.151472 c 0,-0.473183 -0.275106,-0.748289 -0.814317,-0.825317 l -2.552986,0 z"
       style="font-style:normal;font-variant:normal;font-weight:normal;font-stretch:normal;font-size:32.84180832px;line-height:125%;font-family:'Digital tech';-inkscape-font-specification:'Digital tech';letter-spacing:0px;word-spacing:0px;fill:url(#linearGradient4369);fill-opacity:1;stroke:none;stroke-width:1px;stroke-linecap:butt;stroke-linejoin:miter;stroke-opacity:1"
       id="path4252" />
    <path
       inkscape:connector-curvature="0"
       d="m 65.363803,39.290894 c -0.462183,0 -0.726281,0.275105 -0.80331,0.814317 l 0,0.759289 c 0,0.473183 0.264099,0.748288 0.80331,0.825323 l 6.558536,0 c 0.539204,0.02203 0.81431,0.06602 0.81431,0.13205 0.451176,0 0.67126,0.451176 0.67126,1.353521 l 0,1.353521 c -0.02203,0.539211 -0.06601,0.814317 -0.132049,0.814317 0,0.451176 -0.451176,0.67126 -1.353521,0.67126 l -4.79786,0 c -0.473183,0 -0.759288,0.297113 -0.858331,0.902346 -0.09904,0.374147 -0.264098,0.616239 -0.49519,0.726281 -0.80331,0.110043 -1.210465,0.429169 -1.210465,0.946367 l 0,3.917514 c 0,0.48419 0.297113,0.770295 0.902346,0.858331 0.36314,0.09904 0.605232,0.264105 0.715274,0.49519 0.110043,0.814317 0.429169,1.221479 0.946366,1.221479 l 7.857036,0 c 0.462183,0 0.726281,-0.275113 0.803317,-0.814317 l 0,-0.759296 c 0,-0.473183 -0.264106,-0.748289 -0.803317,-0.825317 l -6.558529,0 c -0.539211,-0.02203 -0.814316,-0.06601 -0.814316,-0.132049 -0.451177,0 -0.671261,-0.451176 -0.671261,-1.353528 l 0,-1.309507 c 0.02203,-0.539205 0.06601,-0.81431 0.132049,-0.81431 0,-0.451176 0.451176,-0.671261 1.353528,-0.671261 l 4.797853,0 c 0.473183,0 0.759288,-0.297113 0.858331,-0.902352 0.09903,-0.374141 0.264098,-0.616233 0.49519,-0.726275 0.80331,-0.110042 1.210472,-0.429169 1.210472,-0.946366 l 0,-3.961535 c 0,-0.484183 -0.29712,-0.770296 -0.902353,-0.858331 -0.36314,-0.09904 -0.605232,-0.264099 -0.715274,-0.49519 -0.110042,-0.814317 -0.429169,-1.221472 -0.946366,-1.221472 l -7.857036,0 z"
       style="font-style:normal;font-variant:normal;font-weight:normal;font-stretch:normal;font-size:32.84180832px;line-height:125%;font-family:'Digital tech';-inkscape-font-specification:'Digital tech';letter-spacing:0px;word-spacing:0px;fill:url(#linearGradient4235);fill-opacity:1;stroke:none;stroke-width:1px;stroke-linecap:butt;stroke-linejoin:miter;stroke-opacity:1"
       id="path4254" />
  </g>
</svg>
