<svg xmlns="http://www.w3.org/2000/svg" viewBox="0 0 16 16"><path d="m416.84 538.93c.769 0 1.393-.608 1.393-1.359 0-.749-.623-1.358-1.393-1.358-.769 0-1.392.608-1.392 1.358 0 .751.623 1.359 1.392 1.359m-5.105 0c.769 0 1.393-.608 1.393-1.359 0-.749-.623-1.358-1.393-1.358-.769 0-1.392.608-1.392 1.358 0 .751.623 1.359 1.392 1.359m-6.485 5.162c1.322 0 2.554-.375 3.591-1.023.604-.376.609-1.182.102-1.676l-2.775-2.709c-.508-.495-.508-1.297 0-1.791l3-2.927c.508-.495.522-1.319-.062-1.722-1.09-.753-2.42-1.196-3.857-1.196-3.69.0001-6.682 2.922-6.682 6.523 0 3.601 2.992 6.521 6.683 6.521" stroke="none" transform="matrix(.78637 0 0 .78395-313.22-413.42)" stroke-opacity=".8" fill="#4d4d4d"/></svg>