<svg xmlns="http://www.w3.org/2000/svg" viewBox="0 0 16 16"><path d="m.674 341.78l-56.2-8.239-25.19-51.36c-1.417-3.085-3.247-4.627-5.486-4.627-2.239 0-4.068 1.542-5.486 4.627l-25.19 51.36-56.2 8.239c-4.179.677-6.269 2.408-6.269 5.192 0 1.581.933 3.387 2.799 5.418l40.754 39.955-9.628 56.43c-.15 1.054-.224 1.808-.224 2.258 0 1.581.392 2.915 1.175 4.01.783 1.092 1.958 1.636 3.526 1.636 1.344 0 2.836-.449 4.479-1.353l50.27-26.639 50.27 26.639c1.569.903 3.062 1.353 4.477 1.353 1.497 0 2.633-.543 3.416-1.636.782-1.092 1.174-2.427 1.174-4.01 0-.978-.037-1.73-.113-2.258l-9.629-56.43 40.641-39.955c1.943-1.956 2.912-3.763 2.912-5.418 0-2.785-2.089-4.515-6.272-5.192" transform="matrix(.06624 0 0 .06624 13.628-16.312)" fill="#4d4d4d"/></svg>