<svg xmlns="http://www.w3.org/2000/svg" viewBox="0 0 16 16"><path d="m-97.29 727.33c-2.038-.005-4.081.764-5.647 2.337l-98.24 98.73c-3.132 3.147-3.115 8.207 0 11.37l97.69 99.24c3.115 3.164 8.163 3.187 11.295.04l98.24-98.73c3.132-3.147 3.154-8.207.039-11.37l-97.73-99.24c-1.558-1.582-3.609-2.372-5.647-2.377m-14.51 55.31c6.882 1.383 11.33 8.143 9.961 15.09-1.369 6.952-8.06 11.485-14.942 10.1-6.879-1.383-11.328-8.143-9.961-15.09 1.368-6.952 8.06-11.485 14.942-10.1m11.1 25.04c1.675-.361 3.303-.303 4.863.079l17.491 3.249c.515.096 1.019.284 1.49.515l12.746 6.22c2.882 1.412 4.065 4.934 2.667 7.844-1 2.088-3.064 3.288-5.216 3.288-.849 0-1.694-.194-2.51-.594l-12.04-5.863-5.334-.99 4.118 19.492c.082.392.117.759.157 1.149l7.451 19.334 15.648 13.232c2.922 2.475 3.313 6.875.863 9.825-1.366 1.645-3.323 2.496-5.294 2.496-1.565 0-3.138-.528-4.432-1.624l-17.02-14.421c-.89-.754-1.58-1.719-2-2.813l-5.294-13.747c-.116.001-.238-.005-.353 0l-10.393 9.191-2.981 19.69c-.521 3.452-3.47 5.943-6.824 5.943-.346 0-.707-.025-1.059-.079-3.769-.581-6.34-4.155-5.765-7.963l3.333-22.19c.246-1.627 1.049-3.116 2.275-4.2l10.118-8.954c-.02-.085-.022-.152-.039-.238l-3.961-18.7-5.216 4.12c-.549.433-1.179.78-1.843.99l-14.903 4.715c-.577.183-1.191.277-1.765.277-2.467 0-4.752-1.616-5.53-4.12-.957-3.087.748-6.362 3.804-7.329l13.922-4.398 13.922-11.01c.116-.091.233-.158.353-.238 1.289-1.028 2.834-1.812 4.549-2.179" stroke="none" transform="matrix(.05666 0 0 .05608 13.505-38.812)" stroke-opacity=".8" fill="#4d4d4d"/></svg>