<svg xmlns="http://www.w3.org/2000/svg" viewBox="0 0 16 16"><g transform="matrix(.25811 0 0 .25812-97.47-127.13)" fill="#4d4d4d" stroke="#4d4d4d"><g font-size="12.666"><g font-family="&apos;Bitstream Vera Sans&apos;"><text x="1172.2" y="504.23" opacity=".8"><tspan x="1172.2" y="504.23"/></text><text x="1196.16" y="463.49" opacity=".8"><tspan x="1196.16" y="463.49"/></text><text x="-274.39" y="433.41" opacity=".8"><tspan x="-274.39" y="433.41"/></text><text x="-2098.08" y="1178.96" opacity=".8"><tspan x="-2098.08" y="1178.96"/></text><text x="-159.9" y="48.09" opacity=".8"><tspan x="-159.9" y="48.09"/></text><text x="647.7" y="-365.38" opacity=".8"><tspan x="647.7" y="-365.38"/></text><text x="671.66" y="-406.12" opacity=".8"><tspan x="671.66" y="-406.12"/></text><text x="-819.8" y="-413.33" opacity=".8"><tspan x="-819.8" y="-413.33"/></text><text x="640.74" y="-686.57" opacity=".8"><tspan x="640.74" y="-686.57"/></text><text x="2126.86" y="-59.877" opacity=".8"><tspan x="2126.86" y="-59.877"/></text><text x="2150.82" y="-100.62" opacity=".8"><tspan x="2150.82" y="-100.62"/></text><text x="659.36" y="-107.83" opacity=".8"><tspan x="659.36" y="-107.83"/></text><text x="2119.9" y="-381.06" opacity=".8"><tspan x="2119.9" y="-381.06"/></text><text x="-278.45" y="-155.92" opacity=".8"><tspan x="-278.45" y="-155.92"/></text><text x="-2102.14" y="589.63" opacity=".8"><tspan x="-2102.14" y="589.63"/></text><text x="-387.38" y="682.51" opacity=".8"><tspan x="-387.38" y="682.51"/></text><text x="721.64" y="503.32" opacity=".8"><tspan x="721.64" y="503.32"/></text><text x="745.6" y="462.58" opacity=".8"><tspan x="745.6" y="462.58"/></text><text x="-745.86" y="455.37" opacity=".8"><tspan x="-745.86" y="455.37"/></text><text x="714.68" y="182.14" opacity=".8"><tspan x="714.68" y="182.14"/></text><text x="-313.05" y="452.66" opacity=".8"><tspan x="-313.05" y="452.66"/></text><text x="-2136.74" y="1198.21" opacity=".8"><tspan x="-2136.74" y="1198.21"/></text><text x="-161.96" y="-408.87" opacity=".8"><tspan x="-161.96" y="-408.87"/></text><text x="645.64" y="-822.34" opacity=".8"><tspan x="645.64" y="-822.34"/></text><text x="669.6" y="-863.08" opacity=".8"><tspan x="669.6" y="-863.08"/></text><text x="-821.86" y="-870.29" opacity=".8"><tspan x="-821.86" y="-870.29"/></text><text x="638.68" y="-1143.53" opacity=".8"><tspan x="638.68" y="-1143.53"/></text><text x="2124.8" y="-516.84" opacity=".8"><tspan x="2124.8" y="-516.84"/></text><text x="2148.77" y="-557.58" opacity=".8"><tspan x="2148.77" y="-557.58"/></text><text x="657.3" y="-564.79" opacity=".8"><tspan x="657.3" y="-564.79"/></text><text x="2117.84" y="-838.02" opacity=".8"><tspan x="2117.84" y="-838.02"/></text><text x="-280.51" y="-612.88" opacity=".8"><tspan x="-280.51" y="-612.88"/></text><text x="-2104.2" y="132.67" opacity=".8"><tspan x="-2104.2" y="132.67"/></text><text x="-389.44" y="225.55" opacity=".8"><tspan x="-389.44" y="225.55"/></text><text x="450.57" y="466.46" opacity=".8"><tspan x="450.57" y="466.46"/></text><text x="474.53" y="425.72" opacity=".8"><tspan x="474.53" y="425.72"/></text><text x="-795.29" y="231.69" opacity=".8"><tspan x="-795.29" y="231.69"/></text><text x="12.316" y="-181.78" opacity=".8"><tspan x="12.316" y="-181.78"/></text><text x="36.28" y="-222.52" opacity=".8"><tspan x="36.28" y="-222.52"/></text><text x="-1455.19" y="-229.73" opacity=".8"><tspan x="-1455.19" y="-229.73"/></text><text x="5.357" y="-502.97" opacity=".8"><tspan x="5.357" y="-502.97"/></text><text x="1491.48" y="123.72" opacity=".8"><tspan x="1491.48" y="123.72"/></text><text x="1515.44" y="82.983" opacity=".8"><tspan x="1515.44" y="82.983"/></text><text x="23.978" y="75.77" opacity=".8"><tspan x="23.978" y="75.77"/></text><text x="1484.52" y="-197.46" opacity=".8"><tspan x="1484.52" y="-197.46"/></text><text x="-913.84" y="27.682" opacity=".8"><tspan x="-913.84" y="27.682"/></text><text x="-2737.52" y="773.24" opacity=".8"><tspan x="-2737.52" y="773.24"/></text><text y="866.11" x="-1022.77" opacity=".8"><tspan y="866.11" x="-1022.77"/></text><text x="1172.2" y="511.47" opacity=".8"><tspan x="1172.2" y="511.47"/></text><text x="1196.16" y="470.72" opacity=".8"><tspan x="1196.16" y="470.72"/></text><text x="-274.39" y="440.65" opacity=".8"><tspan x="-274.39" y="440.65"/></text><text x="-2098.08" y="1186.2" opacity=".8"><tspan x="-2098.08" y="1186.2"/></text><text x="-159.9" y="55.33" opacity=".8"><tspan x="-159.9" y="55.33"/></text><text x="647.7" y="-358.14" opacity=".8"><tspan x="647.7" y="-358.14"/></text><text x="671.66" y="-398.89" opacity=".8"><tspan x="671.66" y="-398.89"/></text><text x="-819.8" y="-406.1" opacity=".8"><tspan x="-819.8" y="-406.1"/></text><text x="640.74" y="-679.33" opacity=".8"><tspan x="640.74" y="-679.33"/></text><text x="2126.86" y="-52.639" opacity=".8"><tspan x="2126.86" y="-52.639"/></text><text x="2150.82" y="-93.38" opacity=".8"><tspan x="2150.82" y="-93.38"/></text><text x="659.36" y="-100.59" opacity=".8"><tspan x="659.36" y="-100.59"/></text><text x="2119.9" y="-373.82" opacity=".8"><tspan x="2119.9" y="-373.82"/></text><text x="-278.45" y="-148.68" opacity=".8"><tspan x="-278.45" y="-148.68"/></text><text x="-2102.14" y="596.87" opacity=".8"><tspan x="-2102.14" y="596.87"/></text><text x="-387.38" y="689.74" opacity=".8"><tspan x="-387.38" y="689.74"/></text><text x="721.64" y="510.56" opacity=".8"><tspan x="721.64" y="510.56"/></text><text x="745.6" y="469.82" opacity=".8"><tspan x="745.6" y="469.82"/></text><text x="-745.86" y="462.61" opacity=".8"><tspan x="-745.86" y="462.61"/></text><text x="714.68" y="189.38" opacity=".8"><tspan x="714.68" y="189.38"/></text><text x="-313.05" y="459.9" opacity=".8"><tspan x="-313.05" y="459.9"/></text><text x="-2136.74" y="1205.45" opacity=".8"><tspan x="-2136.74" y="1205.45"/></text><text x="-161.96" y="-401.63" opacity=".8"><tspan x="-161.96" y="-401.63"/></text><text x="645.64" y="-815.11" opacity=".8"><tspan x="645.64" y="-815.11"/></text><text x="669.6" y="-855.85" opacity=".8"><tspan x="669.6" y="-855.85"/></text><text x="-821.86" y="-863.06" opacity=".8"><tspan x="-821.86" y="-863.06"/></text><text x="638.68" y="-1136.29" opacity=".8"><tspan x="638.68" y="-1136.29"/></text><text x="2124.8" y="-509.6" opacity=".8"><tspan x="2124.8" y="-509.6"/></text><text x="2148.77" y="-550.34" opacity=".8"><tspan x="2148.77" y="-550.34"/></text><text x="657.3" y="-557.55" opacity=".8"><tspan x="657.3" y="-557.55"/></text><text x="2117.84" y="-830.79" opacity=".8"><tspan x="2117.84" y="-830.79"/></text><text x="-280.51" y="-605.64" opacity=".8"><tspan x="-280.51" y="-605.64"/></text><text x="-2104.2" y="139.91" opacity=".8"><tspan x="-2104.2" y="139.91"/></text><text x="-389.44" y="232.78" opacity=".8"><tspan x="-389.44" y="232.78"/></text><text x="450.57" y="473.7" opacity=".8"><tspan x="450.57" y="473.7"/></text><text x="474.53" y="432.96" opacity=".8"><tspan x="474.53" y="432.96"/></text><text x="-795.29" y="238.93" opacity=".8"><tspan x="-795.29" y="238.93"/></text><text x="12.316" y="-174.54" opacity=".8"><tspan x="12.316" y="-174.54"/></text><text x="36.28" y="-215.28" opacity=".8"><tspan x="36.28" y="-215.28"/></text><text x="-1455.19" y="-222.49" opacity=".8"><tspan x="-1455.19" y="-222.49"/></text><text x="5.357" y="-495.73" opacity=".8"><tspan x="5.357" y="-495.73"/></text><text x="1491.48" y="130.96" opacity=".8"><tspan x="1491.48" y="130.96"/></text><text x="1515.44" y="90.22" opacity=".8"><tspan x="1515.44" y="90.22"/></text><text x="23.978" y="83.01" opacity=".8"><tspan x="23.978" y="83.01"/></text><text x="1484.52" y="-190.22" opacity=".8"><tspan x="1484.52" y="-190.22"/></text><text x="-913.84" y="34.92" opacity=".8"><tspan x="-913.84" y="34.92"/></text><text x="-2737.52" y="780.47" opacity=".8"><tspan x="-2737.52" y="780.47"/></text><text y="873.35" x="-1022.77" opacity=".8"><tspan y="873.35" x="-1022.77"/></text></g><text x="730.88" y="132.19" font-family="&apos;Droid Sans&apos;"><tspan x="730.88" y="132.19"/><tspan x="730.88" y="148.02"/></text><g font-family="&apos;Bitstream Vera Sans&apos;"><text x="1196.07" y="-349.85" opacity=".8"><tspan x="1196.07" y="-349.85"/></text><text x="-627.62" y="395.7" opacity=".8"><tspan x="-627.62" y="395.7"/></text><text x="1923.15" y="-634.85" opacity=".8"><tspan x="1923.15" y="-634.85"/></text><text x="1947.11" y="-675.59" opacity=".8"><tspan x="1947.11" y="-675.59"/></text><text x="455.64" y="-682.8" opacity=".8"><tspan x="455.64" y="-682.8"/></text><text x="1916.19" y="-956.04" opacity=".8"><tspan x="1916.19" y="-956.04"/></text></g></g><path d="m428.84 512.33c-2.087-3.587-4.919-6.426-8.495-8.519-3.577-2.093-7.482-3.14-11.717-3.14-4.235 0-8.141 1.047-11.717 3.14-3.577 2.093-6.408 4.933-8.496 8.519-2.087 3.587-3.131 7.503-3.131 11.75 0 5.101 1.484 9.688 4.453 13.762 2.969 4.074 6.803 6.893 11.504 8.458.547.102.952.03 1.216-.213.263-.244.395-.549.395-.914 0-.061-.005-.609-.015-1.646-.001-1.037-.015-1.941-.015-2.712l-.699.121c-.446.082-1.01.117-1.687.107-.679-.009-1.383-.081-2.112-.213-.73-.132-1.408-.436-2.037-.914-.628-.478-1.074-1.103-1.337-1.875l-.304-.701c-.203-.467-.522-.985-.957-1.554-.436-.569-.876-.955-1.322-1.158l-.213-.152c-.142-.102-.273-.224-.395-.366-.122-.142-.213-.284-.273-.427-.061-.142-.001-.259.152-.351.162-.092.456-.137.882-.137l.608.091c.405.081.907.325 1.505.731.598.406 1.089.935 1.474 1.584.466.834 1.028 1.468 1.687 1.905.658.437 1.322.655 1.991.655.669 0 1.246-.051 1.733-.152.486-.101.942-.254 1.368-.457.182-1.362.679-2.408 1.489-3.14-1.155-.122-2.193-.305-3.116-.549-.922-.244-1.874-.64-2.857-1.189-.983-.548-1.799-1.229-2.447-2.042-.648-.813-1.18-1.88-1.596-3.201-.415-1.321-.623-2.845-.623-4.572 0-2.459.801-4.552 2.401-6.279-.75-1.849-.679-3.921.213-6.218.588-.183 1.459-.046 2.614.412 1.155.457 2 .849 2.538 1.174.537.325.968.6 1.292.823 1.885-.528 3.83-.792 5.836-.792 2.01 0 3.952.264 5.837.792l1.155-.731c.79-.488 1.722-.935 2.796-1.341 1.074-.406 1.895-.518 2.463-.335.912 2.296.993 4.369.243 6.218 1.601 1.727 2.401 3.82 2.401 6.279 0 1.727-.208 3.256-.623 4.587-.416 1.331-.952 2.398-1.611 3.201-.659.803-1.48 1.479-2.462 2.027-.983.549-1.935.945-2.857 1.189-.922.244-1.96.427-3.116.549 1.054.914 1.58 2.357 1.58 4.328v6.431c0 .365.127.67.38.914.253.244.653.315 1.201.213 4.701-1.565 8.536-4.384 11.505-8.458 2.969-4.074 4.453-8.661 4.453-13.762-.0001-4.246-1.045-8.162-3.132-11.749z"/></g></svg>