<?xml version="1.0" encoding="UTF-8" standalone="no"?>
<!-- Created with Inkscape (http://www.inkscape.org/) -->

<svg
   xmlns:dc="http://purl.org/dc/elements/1.1/"
   xmlns:cc="http://creativecommons.org/ns#"
   xmlns:rdf="http://www.w3.org/1999/02/22-rdf-syntax-ns#"
   xmlns:svg="http://www.w3.org/2000/svg"
   xmlns="http://www.w3.org/2000/svg"
   xmlns:xlink="http://www.w3.org/1999/xlink"
   xmlns:sodipodi="http://sodipodi.sourceforge.net/DTD/sodipodi-0.dtd"
   xmlns:inkscape="http://www.inkscape.org/namespaces/inkscape"
   width="22"
   height="22"
   viewBox="0 0 5.8208332 5.8208335"
   id="svg2"
   version="1.1"
   inkscape:version="0.91 r13725"
   sodipodi:docname="face-sick.svg">
  <defs
     id="defs4">
    <linearGradient
       id="linearGradient4259"
       inkscape:collect="always">
      <stop
         id="stop4261"
         offset="0"
         style="stop-color:#c9dfa5;stop-opacity:1" />
      <stop
         id="stop4263"
         offset="1"
         style="stop-color:#e6ffbd;stop-opacity:1" />
    </linearGradient>
    <linearGradient
       inkscape:collect="always"
       xlink:href="#linearGradient4259"
       id="linearGradient4345"
       x1="480.69376"
       y1="555.8656"
       x2="480.60101"
       y2="545.79797"
       gradientUnits="userSpaceOnUse"
       gradientTransform="translate(7.5104682,-8.1220085)" />
  </defs>
  <sodipodi:namedview
     id="base"
     pagecolor="#555555"
     bordercolor="#666666"
     borderopacity="1.0"
     inkscape:pageopacity="0"
     inkscape:pageshadow="2"
     inkscape:zoom="16.263456"
     inkscape:cx="10.827469"
     inkscape:cy="8.6568985"
     inkscape:document-units="px"
     inkscape:current-layer="layer1"
     showgrid="false"
     inkscape:window-width="1366"
     inkscape:window-height="630"
     inkscape:window-x="0"
     inkscape:window-y="36"
     inkscape:window-maximized="1"
     units="px"
     inkscape:showpageshadow="false"
     borderlayer="true"
     showguides="false"
     showborder="false">
    <inkscape:grid
       type="xygrid"
       id="grid4160" />
    <sodipodi:guide
       position="-6.2596835e-15,5.8208248"
       orientation="21.999992,0"
       id="guide4164" />
    <sodipodi:guide
       position="-6.2596835e-15,-6.4613886e-06"
       orientation="0,22"
       id="guide4166" />
    <sodipodi:guide
       position="5.8208331,-6.4613886e-06"
       orientation="-21.999992,0"
       id="guide4168" />
    <sodipodi:guide
       position="5.8208331,5.8208248"
       orientation="0,-22"
       id="guide4170" />
    <sodipodi:guide
       position="0.52916662,5.29165"
       orientation="18.000046,0"
       id="guide4176" />
    <sodipodi:guide
       position="0.52916662,0.52913782"
       orientation="0,18"
       id="guide4178" />
    <sodipodi:guide
       position="5.2916665,0.52913782"
       orientation="-18.000046,0"
       id="guide4180" />
    <sodipodi:guide
       position="5.2916665,5.29165"
       orientation="0,-18"
       id="guide4182" />
    <sodipodi:guide
       position="0.52916662,1.3229305"
       orientation="3.0001614,0"
       id="guide4239" />
    <sodipodi:guide
       position="0.52916662,0.52913782"
       orientation="0,18"
       id="guide4241" />
    <sodipodi:guide
       position="5.2916665,0.52913782"
       orientation="-3.0001614,0"
       id="guide4243" />
    <sodipodi:guide
       position="5.2916665,1.3229305"
       orientation="0,-18"
       id="guide4245" />
    <sodipodi:guide
       position="0.52916662,5.2916805"
       orientation="4.9999614,0"
       id="guide4249" />
    <sodipodi:guide
       position="0.52916662,3.968774"
       orientation="0,18"
       id="guide4251" />
    <sodipodi:guide
       position="5.2916665,3.968774"
       orientation="-4.9999614,0"
       id="guide4253" />
    <sodipodi:guide
       position="5.2916665,5.2916805"
       orientation="0,-18"
       id="guide4255" />
  </sodipodi:namedview>
  <metadata
     id="metadata7">
    <rdf:RDF>
      <cc:Work
         rdf:about="">
        <dc:format>image/svg+xml</dc:format>
        <dc:type
           rdf:resource="http://purl.org/dc/dcmitype/StillImage" />
        <dc:title />
      </cc:Work>
    </rdf:RDF>
  </metadata>
  <g
     inkscape:label="Capa 1"
     inkscape:groupmode="layer"
     id="layer1"
     transform="translate(0,-291.17916)">
    <g
       transform="translate(2.7652658e-8,2.2738501e-6)"
       id="layer1-49"
       inkscape:label="Capa 1">
      <g
         transform="matrix(0.29032258,0,0,0.29032258,2.0654577,208.70873)"
         id="g4249">
        <g
           transform="matrix(0.35661233,0,0,0.35661233,-142.7912,107.29675)"
           id="layer1-1"
           inkscape:label="Capa 1">
          <g
             transform="translate(-97.808975,18.359024)"
             id="g4401">
            <g
               id="g4389"
               transform="matrix(2.5454545,0,0,2.5454545,-748.58794,-815.133)">
              <g
                 transform="matrix(1.6428572,0,0,1.6428572,-311.7803,-338.6751)"
                 id="g4180">
                <g
                   id="g4368"
                   transform="translate(1.6119974,-20.41299)">
                  <circle
                     r="5.5"
                     cy="542.35199"
                     cx="488.26843"
                     id="path4337"
                     style="opacity:1;fill:url(#linearGradient4345);fill-opacity:1;fill-rule:nonzero;stroke:none;stroke-width:1.04999995;stroke-linecap:round;stroke-linejoin:round;stroke-miterlimit:4;stroke-dasharray:none;stroke-dashoffset:0;stroke-opacity:1" />
                  <g
                     id="g4364" />
                </g>
              </g>
            </g>
          </g>
        </g>
        <path
           style="fill:none;fill-rule:evenodd;stroke:#414141;stroke-width:0.50270838;stroke-linecap:round;stroke-linejoin:round;stroke-miterlimit:4;stroke-dasharray:none;stroke-opacity:1"
           d="m 1.4552562,298.58751 c 0.4762226,-1.32292 2.475959,-1.32292 2.9104155,0"
           id="path4247"
           inkscape:connector-curvature="0"
           sodipodi:nodetypes="cc" />
      </g>
      <g
         style="fill:#8acbef;fill-opacity:1"
         inkscape:label="Capa 1"
         id="layer1-4"
         transform="matrix(0.08191553,0,0,0.08191553,-44.532305,233.39117)">
        <g
           style="fill:#8acbef;fill-opacity:1"
           transform="matrix(0.66666662,0,0,0.66666662,288.52381,399.40161)"
           id="layer1-3"
           inkscape:label="Capa 1" />
      </g>
    </g>
    <g
       transform="translate(-9.0111344,0)"
       id="layer1-12"
       inkscape:label="Capa 1">
      <g
         transform="translate(0,0.12653985)"
         id="g4286">
        <g
           transform="translate(-1.608609e-7,-0.1265374)"
           id="layer1-9"
           inkscape:label="Capa 1" />
        <g
           id="g4256"
           style="fill:#414141;fill-opacity:1"
           transform="translate(-4.7855093,0)">
          <g
             id="g4255"
             transform="translate(9.0111344,0)">
            <path
               style="opacity:1;fill:#414141;fill-opacity:1;stroke:none;stroke-width:3.77952743;stroke-linecap:butt;stroke-linejoin:miter;stroke-miterlimit:4;stroke-dasharray:none;stroke-dashoffset:0;stroke-opacity:1"
               d="m 6.1966708,293.69843 c -0.022536,0 -0.045067,0.009 -0.062338,0.0259 -0.034539,0.0344 -0.034539,0.0902 0,0.12473 l 0.1139999,0.11402 -0.1139999,0.11403 c -0.034539,0.0344 -0.034539,0.0902 0,0.12473 0.034539,0.0344 0.090137,0.0344 0.1246765,0 l 0.1139998,-0.11404 0.1139997,0.11404 c 0.03454,0.0344 0.090138,0.0344 0.1246767,0 0.034539,-0.0344 0.034539,-0.0902 0,-0.12473 l -0.114,-0.11406 0.1139999,-0.11402 c 0.034539,-0.0344 0.034539,-0.0902 0,-0.12474 -0.017272,-0.0174 -0.039803,-0.0259 -0.062339,-0.0259 -0.022536,0 -0.045067,0.009 -0.062338,0.0259 l -0.1139998,0.11408 -0.1139998,-0.11406 c -0.017267,-0.0174 -0.039803,-0.0259 -0.062338,-0.0259 z"
               id="rect4165-7"
               inkscape:connector-curvature="0" />
            <path
               style="opacity:1;fill:#414141;fill-opacity:1;stroke:none;stroke-width:3.77952743;stroke-linecap:butt;stroke-linejoin:miter;stroke-miterlimit:4;stroke-dasharray:none;stroke-dashoffset:0;stroke-opacity:1"
               d="m 8.8425043,293.69843 c -0.022536,0 -0.045067,0.009 -0.062338,0.0259 -0.034539,0.0344 -0.034539,0.0902 0,0.12473 l 0.1139999,0.11402 -0.1139999,0.11403 c -0.034539,0.0344 -0.034539,0.0902 0,0.12473 0.034539,0.0344 0.090137,0.0344 0.1246765,0 l 0.1139998,-0.11404 0.1139996,0.11404 c 0.03454,0.0344 0.090138,0.0344 0.1246767,0 0.034539,-0.0344 0.034539,-0.0902 0,-0.12473 l -0.114,-0.11406 0.114,-0.11402 c 0.034539,-0.0344 0.034539,-0.0902 0,-0.12474 -0.017272,-0.0174 -0.039803,-0.0259 -0.062339,-0.0259 -0.022536,0 -0.045067,0.009 -0.062338,0.0259 l -0.1139998,0.11408 -0.1139998,-0.11406 c -0.017267,-0.0174 -0.039803,-0.0259 -0.062338,-0.0259 z"
               id="rect4165-7-7"
               inkscape:connector-curvature="0" />
          </g>
        </g>
      </g>
    </g>
  </g>
</svg>
