<svg xmlns="http://www.w3.org/2000/svg" viewBox="0 0 32 32"><defs><linearGradient id="0" x1="452.11" y1="556.82" x2="451.76" y2="528.82" gradientUnits="userSpaceOnUse"><stop stop-color="#585c5e"/><stop offset="1" stop-color="#6f7376"/></linearGradient><linearGradient gradientUnits="userSpaceOnUse" y2=".736" x2="14.99" y1="29.24" x1="15.37" id="1"><stop stop-color="#e6c02a"/><stop offset="1" stop-opacity="0"/></linearGradient></defs><g transform="translate(-435.76-526.83)"><rect width="22.411" height="29.671" x="440.55" y="528.02" fill="url(#0)" fill-rule="evenodd" stroke="#232425" stroke-linecap="round" stroke-width=".3" rx="1"/><g transform="matrix(.29998 0 0 .29998 329.15 385.68)"><path d="m408.39 504.88c-4.857 0-9.714 1.861-13.436 5.582-7.443 7.443-7.443 19.428 0 26.871 7.443 7.443 19.428 7.443 26.871 0 7.443-7.443 7.443-19.428 0-26.871-3.721-3.721-8.579-5.582-13.436-5.582" fill="#fff"/><path d="m22.685 2.124c-7.107-4.244-16.309-1.931-20.558 5.174-4.248 7.104-1.932 16.309 5.171 20.555 7.108 4.248 16.307 1.93 20.555-5.174 4.248-7.104 1.932-16.302-5.168-20.555m-7.553 12.782l5.724 10.94c-.908.486-1.872.861-2.868 1.115-3.045.762-6.36.381-9.269-1.332l6.405-10.713-12.497-.5c.091-1.974.649-3.957 1.739-5.779 1.142-1.91 2.719-3.394 4.525-4.413l6.241 10.676 6.264-10.474c2.882 1.757 4.792 4.493 5.557 7.538.221.876.343 1.776.367 2.683l-12.188.259" fill="#232425" transform="matrix(.64873-1.16594 1.16594.64873 381.19 531.65)"/></g></g></svg>