<?xml version="1.0" encoding="UTF-8" standalone="no"?>
<!-- Created with Inkscape (http://www.inkscape.org/) -->

<svg
   xmlns:osb="http://www.openswatchbook.org/uri/2009/osb"
   xmlns:dc="http://purl.org/dc/elements/1.1/"
   xmlns:cc="http://creativecommons.org/ns#"
   xmlns:rdf="http://www.w3.org/1999/02/22-rdf-syntax-ns#"
   xmlns:svg="http://www.w3.org/2000/svg"
   xmlns="http://www.w3.org/2000/svg"
   xmlns:xlink="http://www.w3.org/1999/xlink"
   xmlns:sodipodi="http://sodipodi.sourceforge.net/DTD/sodipodi-0.dtd"
   xmlns:inkscape="http://www.inkscape.org/namespaces/inkscape"
   width="32"
   height="32"
   id="svg5453"
   version="1.1"
   inkscape:version="0.91 r13725"
   sodipodi:docname="application-vnd.ms-access.svg">
  <defs
     id="defs5455">
    <linearGradient
       inkscape:collect="always"
       xlink:href="#linearGradient4531-9-4"
       id="linearGradient4781"
       x1="451.68628"
       y1="556.78864"
       x2="451.3428"
       y2="528.78864"
       gradientUnits="userSpaceOnUse" />
    <linearGradient
       id="linearGradient4207"
       osb:paint="gradient">
      <stop
         style="stop-color:#3498db;stop-opacity:1;"
         offset="0"
         id="stop3371" />
      <stop
         style="stop-color:#3498db;stop-opacity:0;"
         offset="1"
         id="stop3373" />
    </linearGradient>
    <linearGradient
       id="linearGradient4531-9-4"
       inkscape:collect="always">
      <stop
         id="stop4533-5-3"
         offset="0"
         style="stop-color:#cd3336;stop-opacity:1" />
      <stop
         id="stop4535-4-8"
         offset="1"
         style="stop-color:#ed7b66;stop-opacity:1" />
    </linearGradient>
  </defs>
  <sodipodi:namedview
     id="base"
     pagecolor="#919191"
     bordercolor="#666666"
     borderopacity="1.0"
     inkscape:pageopacity="0"
     inkscape:pageshadow="2"
     inkscape:zoom="9.6544054"
     inkscape:cx="-14.537288"
     inkscape:cy="9.1747805"
     inkscape:document-units="px"
     inkscape:current-layer="layer1-3"
     showgrid="false"
     fit-margin-top="0"
     fit-margin-left="0"
     fit-margin-right="0"
     fit-margin-bottom="0"
     inkscape:window-width="1366"
     inkscape:window-height="633"
     inkscape:window-x="0"
     inkscape:window-y="33"
     inkscape:window-maximized="1"
     inkscape:showpageshadow="false"
     borderlayer="true"
     showguides="false"
     inkscape:guide-bbox="true"
     inkscape:object-nodes="true"
     inkscape:snap-bbox="true">
    <inkscape:grid
       type="xygrid"
       id="grid4063" />
    <sodipodi:guide
       position="17,5"
       orientation="0,28"
       id="guide4169" />
    <sodipodi:guide
       position="30.000012,2.0000264"
       orientation="-28,0"
       id="guide4171" />
    <sodipodi:guide
       position="30.000012,30.000026"
       orientation="0,-28"
       id="guide4173" />
    <sodipodi:guide
       position="2.0000117,30.000026"
       orientation="28,0"
       id="guide4181" />
    <sodipodi:guide
       position="16.000012,30.000026"
       orientation="0,-14"
       id="guide4187" />
    <sodipodi:guide
       position="5.0000117,30.000026"
       orientation="28,0"
       id="guide4143" />
    <sodipodi:guide
       position="5.0000117,2.0000264"
       orientation="0,22"
       id="guide4145" />
    <sodipodi:guide
       position="27.000012,2.0000264"
       orientation="-28,0"
       id="guide4147" />
    <sodipodi:guide
       position="27.000012,30.000026"
       orientation="0,-22"
       id="guide4149" />
    <sodipodi:guide
       position="27,30"
       orientation="0,-7"
       id="guide4155" />
    <sodipodi:guide
       position="27.00001,23"
       orientation="-7,-1e-05"
       id="guide4162" />
    <sodipodi:guide
       position="24,27"
       orientation="0,1"
       id="guide3378" />
  </sodipodi:namedview>
  <metadata
     id="metadata5458">
    <rdf:RDF>
      <cc:Work
         rdf:about="">
        <dc:format>image/svg+xml</dc:format>
        <dc:type
           rdf:resource="http://purl.org/dc/dcmitype/StillImage" />
        <dc:title />
      </cc:Work>
    </rdf:RDF>
  </metadata>
  <g
     inkscape:label="Capa 1"
     inkscape:groupmode="layer"
     id="layer1"
     transform="translate(-384.57143,-515.798)">
    <g
       transform="translate(392.57143,-514.5642)"
       id="layer1-7"
       inkscape:label="Capa 1"
       style="fill:#ffffff;fill-opacity:1" />
    <g
       id="g4240"
       transform="translate(341.79698,500.25245)">
      <g
         inkscape:transform-center-y="-9.4924686"
         inkscape:transform-center-x="5.4653607"
         inkscape:label="Capa 1"
         id="layer1-1"
         transform="translate(-392.98822,-511.27795)">
        <g
           id="layer1-3"
           inkscape:label="Capa 1"
           transform="translate(0.41988239,0.03484499)"
           style="stroke:#1f2a47;stroke-opacity:1">
          <rect
             style="opacity:1;fill:url(#linearGradient4781);fill-opacity:1;fill-rule:evenodd;stroke:#802924;stroke-width:0.3;stroke-linecap:round;stroke-linejoin:miter;stroke-miterlimit:4;stroke-dasharray:none;stroke-dashoffset:0;stroke-opacity:1"
             id="rect4266"
             width="22.410984"
             height="29.670881"
             x="440.13177"
             y="527.98877"
             ry="1" />
          <g
             transform="translate(440.36158,509.62534)"
             id="g4186">
            <path
               inkscape:connector-curvature="0"
               d="m 11.83835,27.163315 -7.2857144,1.285714 0,9.428572 7.2857144,1.285714 0,-12 z m 1.40625,1.714286 c -0.137094,0.0013 -0.276379,0.0081 -0.415178,0.01339 l -0.5625,0.01339 0,1.084822 0,1.084822 0.214285,0.02679 c 0.427201,0.05363 1.432209,0.03755 2.102679,-0.02679 1.80367,-0.17302 2.94056,-0.668585 2.745536,-1.191965 -0.2188,-0.587183 -2.028396,-1.022025 -4.084822,-1.004464 z m 4.165179,1.473214 -0.160714,0.1875 c -0.211735,0.25455 -0.796259,0.525412 -1.513393,0.683036 -0.443102,0.09739 -0.921812,0.134256 -2.022322,0.160715 l -1.446428,0.02679 0,0.84375 0,0.830357 1.40625,-0.04018 c 1.114004,-0.02637 1.548431,-0.06456 2.049107,-0.174107 0.722443,-0.158075 1.285279,-0.38515 1.5,-0.616072 l 0.147321,-0.160714 0.02679,-0.870536 0.01339,-0.870536 z m -9.5491074,0.75 0.428571,0 c 0.356974,0 0.441926,0.01667 0.46875,0.107143 0.01783,0.06016 0.26748,0.983482 0.5625,2.049107 0.29502,1.065625 0.547556,1.96596 0.5625,2.008929 0.0198,0.05691 -0.07448,0.08395 -0.334821,0.08036 -0.196578,-0.0027 -0.388055,-0.02366 -0.428572,-0.04018 -0.0405,-0.01652 -0.113811,-0.239772 -0.174107,-0.495535 l -0.120536,-0.455358 -0.5625,0 -0.575892,0 -0.09375,0.415179 -0.08036,0.428571 -0.401785,0.01339 -0.388393,0.01339 0.02679,-0.107142 c 0.01881,-0.06187 0.239232,-0.847322 0.482142,-1.741072 0.24291,-0.89375 0.484243,-1.761495 0.535715,-1.941964 l 0.09375,-0.334822 z m 0.401785,0.964286 c -0.01761,0.0049 -0.09986,0.276043 -0.1875,0.629464 -0.09347,0.376984 -0.18282,0.730022 -0.200893,0.790179 -0.02893,0.09627 0.01975,0.120535 0.375,0.120535 l 0.401786,0 -0.1875,-0.736607 c -0.100744,-0.403906 -0.191198,-0.770338 -0.200893,-0.803571 z m 9.1473224,0.267857 -0.1875,0.200893 c -0.488938,0.529479 -2.066885,0.862871 -4.004464,0.84375 l -0.910715,-0.01339 -0.02679,0.803572 -0.01339,0.803571 0.107142,0.04018 c 0.234171,0.07069 2.468571,-0.01943 3.026786,-0.120536 0.779253,-0.14114 1.493297,-0.382297 1.754465,-0.602678 l 0.214285,-0.1875 0.02679,-0.883929 0.01339,-0.883928 z m 0,1.928571 -0.1875,0.227679 c -0.456524,0.52598 -1.859709,0.836181 -3.830357,0.84375 l -1.125,0 0,0.816964 0,0.816964 0.334821,0.02679 c 0.678264,0.048 0.925132,0.03721 1.754465,-0.02679 1.403472,-0.108302 2.475108,-0.393372 2.825892,-0.763392 l 0.1875,-0.200893 0.02679,-0.870536 0.01339,-0.870536 z"
               id="path4255"
               style="color:#000000;display:inline;overflow:visible;visibility:visible;fill:#ffffff;fill-opacity:1;fill-rule:nonzero;stroke:none;stroke-width:0.99999994;stroke-opacity:1;marker:none;enable-background:accumulate" />
          </g>
        </g>
      </g>
    </g>
  </g>
</svg>
