<svg xmlns="http://www.w3.org/2000/svg" viewBox="0 0 32 32"><defs><linearGradient id="0" x1="452.11" y1="556.82" x2="451.76" y2="528.82" gradientUnits="userSpaceOnUse"><stop stop-color="#1c99f5"/><stop offset="1" stop-color="#20b9fa"/></linearGradient></defs><g transform="translate(-435.76-526.83)"><rect width="22.411" height="29.671" x="440.55" y="528.02" fill="url(#0)" fill-rule="evenodd" stroke="#0c416a" stroke-linecap="round" stroke-width=".3" rx="1"/><path d="m74.22656 31.31836a11 11 0 0 0 -11 11 11 11 0 0 0 11 11 11 11 0 0 0 11 -11 11 11 0 0 0 -11 -11m-.166 4.529c2.618 0 4.739 2.123 4.74 4.74 0 .197-.017.391-.041.582-.396 3.703-4.324 7.979-4.324 7.979-.071.077-.139.129-.205.164l-.004.002-.133.041-.133-.041-.002-.002c-.066-.035-.136-.085-.207-.164 0 0-3.986-4.268-4.391-7.971-.025-.194-.041-.389-.041-.59 0-2.618 2.122-4.74 4.74-4.74m0 1.691c-1.681 0-3.049 1.368-3.049 3.049 0 1.681 1.368 3.049 3.049 3.049 1.681 0 3.049-1.368 3.049-3.049 0-1.681-1.368-3.049-3.049-3.049" transform="matrix(.54545 0 0 .54545 411.28 519.74)" fill="#fff" stroke-width="5.238" stroke="none"/></g></svg>