<svg xmlns="http://www.w3.org/2000/svg" viewBox="0 0 32 32"><defs><linearGradient id="0" x1="452.11" y1="556.82" x2="451.76" y2="528.82" gradientUnits="userSpaceOnUse"><stop stop-color="#2daf7b"/><stop offset="1" stop-color="#44d68c"/></linearGradient></defs><g transform="translate(-435.76-526.83)"><rect width="22.411" height="29.671" x="440.55" y="528.02" fill="url(#0)" fill-rule="evenodd" stroke="#144d36" stroke-linecap="round" stroke-width=".3" rx="1"/><g transform="matrix(.25916 0 0 .25916 358.3 404.43)"><rect y="507.31" x="385.01" height="34.939" width="46.3" fill="#144d36" rx="1.644" stroke-width="1" transform="translate(-48.12 9.285)"/><path d="m76.988 55.667l-53.12-53.04c-1.956-2.064-4.399-3.096-7.333-3.096-2.934 0-5.377 1.033-7.333 3.096l-6.192 6.111c-2.01 2.01-3.02 4.453-3.02 7.332 0 2.824 1 5.296 3.02 7.414l39.596 39.515-39.597 39.596c-2.01 2.01-3.02 4.454-3.02 7.333 0 2.824 1 5.296 3.02 7.414l6.192 6.11c2.01 2.01 4.455 3.02 7.333 3.02 2.879 0 5.324-1 7.333-3.02l53.12-53.04c2.01-2.118 3.02-4.59 3.02-7.414 0-2.879-1.01-5.323-3.02-7.333" fill="#39c384" transform="matrix(.14063 0 0 .14063 354.89 525.33)"/></g></g></svg>