<svg xmlns="http://www.w3.org/2000/svg" viewBox="0 0 32 32"><defs><linearGradient id="0" x1="451.69" y1="556.79" x2="451.34" y2="528.79" gradientUnits="userSpaceOnUse"><stop stop-color="#8798a9"/><stop offset="1" stop-color="#aeb6be"/></linearGradient></defs><g transform="translate(-435.34-526.79)" stroke="#1f2a47"><rect width="22.411" height="29.671" x="440.13" y="527.99" fill="url(#0)" fill-rule="evenodd" stroke="#3d434a" stroke-linecap="round" stroke-width=".3" rx="1"/><path d="m353.81 0c-89.89 0-162.56 72.67-162.56 162.56 0 19.12 3.825 38.25 9.562 57.37l-200.81 200.81v95.62h95.62v-57.37h57.37v-57.37h57.37l86.06-86.06c17.213 5.737 36.34 9.562 57.37 9.562 89.89 0 162.56-72.68 162.56-162.56 0-89.89-72.67-162.56-162.56-162.56m47.813 172.12c-32.513 0-57.37-24.862-57.37-57.37 0-32.513 24.862-57.37 57.37-57.37 32.513 0 57.37 24.862 57.37 57.37 0 32.513-24.862 57.37-57.37 57.37z" transform="matrix(.02319 0 0 .02319 445.2 537.1)" fill="#3d434a" stroke="none"/></g></svg>