<?xml version="1.0" encoding="UTF-8" standalone="no"?>
<!-- Created with Inkscape (http://www.inkscape.org/) -->

<svg
   xmlns:osb="http://www.openswatchbook.org/uri/2009/osb"
   xmlns:dc="http://purl.org/dc/elements/1.1/"
   xmlns:cc="http://creativecommons.org/ns#"
   xmlns:rdf="http://www.w3.org/1999/02/22-rdf-syntax-ns#"
   xmlns:svg="http://www.w3.org/2000/svg"
   xmlns="http://www.w3.org/2000/svg"
   xmlns:xlink="http://www.w3.org/1999/xlink"
   xmlns:sodipodi="http://sodipodi.sourceforge.net/DTD/sodipodi-0.dtd"
   xmlns:inkscape="http://www.inkscape.org/namespaces/inkscape"
   width="32"
   height="32"
   id="svg5453"
   version="1.1"
   inkscape:version="0.91 r13725"
   sodipodi:docname="application-x-wmf.svg">
  <defs
     id="defs5455">
    <linearGradient
       inkscape:collect="always"
       xlink:href="#linearGradient4232"
       id="linearGradient4781"
       x1="451.68628"
       y1="556.78864"
       x2="451.3428"
       y2="528.78864"
       gradientUnits="userSpaceOnUse" />
    <linearGradient
       id="linearGradient4207"
       osb:paint="gradient">
      <stop
         style="stop-color:#3498db;stop-opacity:1;"
         offset="0"
         id="stop3371" />
      <stop
         style="stop-color:#3498db;stop-opacity:0;"
         offset="1"
         id="stop3373" />
    </linearGradient>
    <linearGradient
       id="linearGradient4232">
      <stop
         style="stop-color:#3684e0;stop-opacity:1"
         offset="0"
         id="stop4234-0" />
      <stop
         style="stop-color:#83bbff;stop-opacity:1"
         offset="1"
         id="stop4236" />
    </linearGradient>
  </defs>
  <sodipodi:namedview
     id="base"
     pagecolor="#919191"
     bordercolor="#666666"
     borderopacity="1.0"
     inkscape:pageopacity="0"
     inkscape:pageshadow="2"
     inkscape:zoom="13.653391"
     inkscape:cx="-10.093965"
     inkscape:cy="13.922155"
     inkscape:document-units="px"
     inkscape:current-layer="layer1-3"
     showgrid="false"
     fit-margin-top="0"
     fit-margin-left="0"
     fit-margin-right="0"
     fit-margin-bottom="0"
     inkscape:window-width="1366"
     inkscape:window-height="687"
     inkscape:window-x="0"
     inkscape:window-y="0"
     inkscape:window-maximized="1"
     inkscape:showpageshadow="false"
     borderlayer="true"
     showguides="true"
     inkscape:guide-bbox="true"
     inkscape:object-nodes="true"
     inkscape:snap-bbox="true">
    <inkscape:grid
       type="xygrid"
       id="grid4063" />
    <sodipodi:guide
       position="17,5"
       orientation="0,28"
       id="guide4169" />
    <sodipodi:guide
       position="30.000012,2.0000264"
       orientation="-28,0"
       id="guide4171" />
    <sodipodi:guide
       position="30.000012,30.000026"
       orientation="0,-28"
       id="guide4173" />
    <sodipodi:guide
       position="2.0000117,30.000026"
       orientation="28,0"
       id="guide4181" />
    <sodipodi:guide
       position="16.000012,30.000026"
       orientation="0,-14"
       id="guide4187" />
    <sodipodi:guide
       position="5.0000117,30.000026"
       orientation="28,0"
       id="guide4143" />
    <sodipodi:guide
       position="5.0000117,2.0000264"
       orientation="0,22"
       id="guide4145" />
    <sodipodi:guide
       position="27.000012,2.0000264"
       orientation="-28,0"
       id="guide4147" />
    <sodipodi:guide
       position="27.000012,30.000026"
       orientation="0,-22"
       id="guide4149" />
    <sodipodi:guide
       position="27,30"
       orientation="0,-7"
       id="guide4155" />
    <sodipodi:guide
       position="27.00001,23"
       orientation="-7,-1e-05"
       id="guide4162" />
    <sodipodi:guide
       position="24,27"
       orientation="0,1"
       id="guide3378" />
  </sodipodi:namedview>
  <metadata
     id="metadata5458">
    <rdf:RDF>
      <cc:Work
         rdf:about="">
        <dc:format>image/svg+xml</dc:format>
        <dc:type
           rdf:resource="http://purl.org/dc/dcmitype/StillImage" />
        <dc:title />
      </cc:Work>
    </rdf:RDF>
  </metadata>
  <g
     inkscape:label="Capa 1"
     inkscape:groupmode="layer"
     id="layer1"
     transform="translate(-384.57143,-515.798)">
    <g
       transform="translate(392.57143,-514.5642)"
       id="layer1-7"
       inkscape:label="Capa 1"
       style="fill:#ffffff;fill-opacity:1" />
    <g
       id="g4240"
       transform="translate(341.79698,500.25245)">
      <g
         inkscape:transform-center-y="-9.4924686"
         inkscape:transform-center-x="5.4653607"
         inkscape:label="Capa 1"
         id="layer1-1"
         transform="translate(-392.98822,-511.27795)">
        <g
           id="layer1-3"
           inkscape:label="Capa 1"
           transform="translate(0.41988239,0.03484499)"
           style="stroke:#1f2a47;stroke-opacity:1">
          <rect
             style="opacity:1;fill:url(#linearGradient4781);fill-opacity:1;fill-rule:evenodd;stroke:#2761a4;stroke-width:0.3;stroke-linecap:round;stroke-linejoin:miter;stroke-miterlimit:4;stroke-dasharray:none;stroke-dashoffset:0;stroke-opacity:1"
             id="rect4266"
             width="22.410984"
             height="29.670881"
             x="440.13177"
             y="527.98877"
             ry="1" />
          <g
             inkscape:transform-center-y="-5.1777091"
             inkscape:transform-center-x="2.9811004"
             inkscape:label="Capa 1"
             id="layer1-9"
             transform="matrix(0.54545456,0,0,0.54545456,183.54284,249.12599)"
             style="font-style:normal;font-weight:normal;font-size:9.36996746px;line-height:125%;font-family:sans-serif;letter-spacing:0px;word-spacing:0px;fill:#133f57;fill-opacity:1;stroke:none;stroke-width:1px;stroke-linecap:butt;stroke-linejoin:miter;stroke-opacity:1">
            <g
               id="layer1-3-7"
               inkscape:label="Capa 1"
               transform="translate(0.41988239,0.03484499)"
               style="fill:#133f57;fill-opacity:1;stroke:none;stroke-opacity:1">
              <g
                 id="g3"
                 transform="matrix(0.05921667,0,0,0.05921667,479.34779,527.27709)"
                 style="fill:#133f57;fill-opacity:1;stroke:none;stroke-opacity:1">
                <g
                   id="g5"
                   style="fill:#133f57;fill-opacity:1;stroke:none;stroke-opacity:1">
                  <path
                     d="m 44.405,355.411 120.029,0 0,15.589 43.647,0 0,-15.589 120.547,0 0,17.622 43.646,0 0,-43.646 -16.104,0 0,-122.064 15.588,0 0,-43.647 -15.588,0 0,-113.319 16.105,0 0,-43.647 -43.646,0 0,8.878 -120.547,0 0,-15.588 -43.647,0 0,15.588 -120.03,0 0,-10.912 -43.647,0 0,43.647 15.588,0 0,115.353 -15.588,0 0,43.647 15.588,0 0,120.029 -15.588,0 0,43.648 43.647,0 0,-15.589 z m -12.47,0 0,3.118 -18.706,0 0,-18.706 3.118,0 12.471,0 3.118,0 0,3.118 0,12.47 z m 144.97,-339.823 0,-3.118 18.706,0 0,3.118 0,6.521 0,5.949 0,3.117 -18.706,0 0,-3.117 0,-5.949 0,-6.521 z m 18.706,339.823 0,3.118 -18.706,0 0,-3.118 0,-6.521 0,-5.948 0,-3.118 18.706,0 0,3.118 0,5.948 0,6.521 z m 2.077,-162.896 c 1.212,1.218 1.212,3.19 0,4.408 -0.615,0.608 -1.406,0.913 -2.21,0.913 -0.792,0 -1.593,-0.305 -2.205,-0.913 l -7.014,-7.015 -7.015,7.015 c -0.612,0.608 -1.409,0.913 -2.207,0.913 -0.798,0 -1.595,-0.305 -2.208,-0.913 -1.214,-1.218 -1.214,-3.19 0,-4.408 l 7.015,-7.015 -7.015,-7.015 c -1.214,-1.214 -1.214,-3.194 0,-4.409 1.215,-1.215 3.194,-1.215 4.409,0 l 7.021,7.015 7.014,-7.015 c 1.218,-1.215 3.191,-1.215 4.409,0 1.218,1.215 1.218,3.194 0,4.409 l -7.015,7.015 7.021,7.015 z m 162.117,168.047 -18.705,0 0,-5.151 0,-12.47 0,-1.084 2.6,0 12.471,0 3.635,0 0,18.705 z m -31.176,-31.175 0,13.555 -97.652,0 C 285.402,327.511 328.27,284.644 343.7,230.213 l 0,99.174 -15.071,0 z m 30.658,-134.534 -3.117,0 -6.521,0 -5.949,0 -3.117,0 0,-18.706 3.117,0 5.949,0 6.521,0 3.117,0 0,18.706 z M 341.1,19.181 l 15.07,0 3.635,0 0,18.706 -3.635,0 -12.471,0 -2.6,0 0,-9.828 0,-8.878 z m -12.471,8.878 0,22.298 15.07,0 0,90.43 C 328.269,86.353 285.401,43.491 230.976,28.058 l 97.653,0 z m -315.4,-10.913 3.118,0 15.588,0 0,10.912 0,7.794 -3.118,0 -12.471,0 -3.118,0 0,-18.706 z m 31.176,31.177 0,-20.264 97.134,0 C 87.111,43.491 44.25,86.353 28.817,140.781 l 0,-92.458 15.588,0 z m -31.176,127.823 3.118,0 6.521,0 5.949,0 3.118,0 0,18.706 -3.118,0 -5.949,0 -6.521,0 -3.118,0 0,-18.706 z m 15.588,54.067 c 15.433,54.431 58.294,97.298 112.723,112.729 l -97.135,0 0,-15.589 -15.588,0 0,-97.14 z"
                     id="path7"
                     inkscape:connector-curvature="0"
                     style="fill:#ffffff;fill-opacity:1;stroke:none;stroke-opacity:1" />
                </g>
              </g>
            </g>
          </g>
        </g>
      </g>
    </g>
  </g>
</svg>
