<svg xmlns="http://www.w3.org/2000/svg" viewBox="0 0 32 32"><defs><linearGradient id="0" x1="452.11" y1="556.82" x2="451.76" y2="528.82" gradientUnits="userSpaceOnUse"><stop stop-color="#197cf1"/><stop offset="1" stop-color="#20bcfa"/></linearGradient></defs><g transform="translate(-435.76-526.83)"><rect width="22.411" height="29.671" x="440.55" y="528.02" fill="url(#0)" fill-rule="evenodd" stroke="#0b3969" stroke-linecap="round" stroke-width=".3" rx="1"/><path d="m450.66 549.02q-1.793 0-3.01-1.034-1.195-1.034-1.195-2.736 0-1.839 1.425-2.874 1.425-1.057 3.517-1.057 1.862 0 3.057.69v-.322q0-1.241-.851-1.977-.851-.759-2.092-.759-.92 0-1.678.437-.736.437-1.011 1.195l-1.931-.828q.391-1.011 1.54-1.862 1.149-.874 3.034-.874 2.161 0 3.586 1.264 1.425 1.264 1.425 3.563v6.805h-2.023v-1.563h-.092q-1.264 1.931-3.701 1.931m.345-1.931q1.31 0 2.368-.966 1.08-.989 1.08-2.322-.897-.736-2.69-.736-1.54 0-2.322.667-.782.667-.782 1.563 0 .828.713 1.31.713.483 1.632.483" fill="#fff" stroke="none"/></g></svg>