<?xml version="1.0" encoding="UTF-8" standalone="no"?>
<!-- Created with Inkscape (http://www.inkscape.org/) -->

<svg
   xmlns:osb="http://www.openswatchbook.org/uri/2009/osb"
   xmlns:dc="http://purl.org/dc/elements/1.1/"
   xmlns:cc="http://creativecommons.org/ns#"
   xmlns:rdf="http://www.w3.org/1999/02/22-rdf-syntax-ns#"
   xmlns:svg="http://www.w3.org/2000/svg"
   xmlns="http://www.w3.org/2000/svg"
   xmlns:xlink="http://www.w3.org/1999/xlink"
   xmlns:sodipodi="http://sodipodi.sourceforge.net/DTD/sodipodi-0.dtd"
   xmlns:inkscape="http://www.inkscape.org/namespaces/inkscape"
   width="32"
   height="32"
   id="svg5453"
   version="1.1"
   inkscape:version="0.91 r13725"
   sodipodi:docname="application-illustrator.svg">
  <defs
     id="defs5455">
    <linearGradient
       inkscape:collect="always"
       xlink:href="#linearGradient4422"
       id="linearGradient4781"
       x1="451.68628"
       y1="556.78864"
       x2="451.3428"
       y2="528.78864"
       gradientUnits="userSpaceOnUse"
       gradientTransform="translate(0.00552069,-0.03555516)" />
    <linearGradient
       id="linearGradient4207"
       osb:paint="gradient">
      <stop
         style="stop-color:#3498db;stop-opacity:1;"
         offset="0"
         id="stop3371" />
      <stop
         style="stop-color:#3498db;stop-opacity:0;"
         offset="1"
         id="stop3373" />
    </linearGradient>
    <linearGradient
       id="linearGradient4422">
      <stop
         style="stop-color:#e84e17;stop-opacity:1"
         offset="0"
         id="stop4424" />
      <stop
         style="stop-color:#fda44e;stop-opacity:1"
         offset="1"
         id="stop4426" />
    </linearGradient>
  </defs>
  <sodipodi:namedview
     id="base"
     pagecolor="#919191"
     bordercolor="#666666"
     borderopacity="1.0"
     inkscape:pageopacity="0"
     inkscape:pageshadow="2"
     inkscape:zoom="6.8266957"
     inkscape:cx="-28.952755"
     inkscape:cy="4.3219306"
     inkscape:document-units="px"
     inkscape:current-layer="layer1-3"
     showgrid="false"
     fit-margin-top="0"
     fit-margin-left="0"
     fit-margin-right="0"
     fit-margin-bottom="0"
     inkscape:window-width="1366"
     inkscape:window-height="687"
     inkscape:window-x="0"
     inkscape:window-y="0"
     inkscape:window-maximized="1"
     inkscape:showpageshadow="false"
     borderlayer="true"
     showguides="true"
     inkscape:guide-bbox="true"
     inkscape:object-nodes="true"
     inkscape:snap-bbox="true">
    <inkscape:grid
       type="xygrid"
       id="grid4063" />
    <sodipodi:guide
       position="2.0000117,30.000026"
       orientation="28,0"
       id="guide4167" />
    <sodipodi:guide
       position="17,5"
       orientation="0,28"
       id="guide4169" />
    <sodipodi:guide
       position="30.000012,2.0000264"
       orientation="-28,0"
       id="guide4171" />
    <sodipodi:guide
       position="30.000012,30.000026"
       orientation="0,-28"
       id="guide4173" />
    <sodipodi:guide
       position="2.0000117,30.000026"
       orientation="28,0"
       id="guide4181" />
    <sodipodi:guide
       position="16.000012,30.000026"
       orientation="0,-14"
       id="guide4187" />
    <sodipodi:guide
       position="5.0000117,30.000026"
       orientation="28,0"
       id="guide4143" />
    <sodipodi:guide
       position="5.0000117,2.0000264"
       orientation="0,22"
       id="guide4145" />
    <sodipodi:guide
       position="27.000012,2.0000264"
       orientation="-28,0"
       id="guide4147" />
    <sodipodi:guide
       position="27.000012,30.000026"
       orientation="0,-22"
       id="guide4149" />
    <sodipodi:guide
       position="27,30"
       orientation="0,-7"
       id="guide4155" />
    <sodipodi:guide
       position="27.00001,23"
       orientation="-7,-1e-05"
       id="guide4162" />
    <sodipodi:guide
       position="24,27"
       orientation="0,1"
       id="guide3378" />
  </sodipodi:namedview>
  <metadata
     id="metadata5458">
    <rdf:RDF>
      <cc:Work
         rdf:about="">
        <dc:format>image/svg+xml</dc:format>
        <dc:type
           rdf:resource="http://purl.org/dc/dcmitype/StillImage" />
        <dc:title />
      </cc:Work>
    </rdf:RDF>
  </metadata>
  <g
     inkscape:label="Capa 1"
     inkscape:groupmode="layer"
     id="layer1"
     transform="translate(-384.57143,-515.798)">
    <g
       transform="translate(392.57143,-514.5642)"
       id="layer1-7"
       inkscape:label="Capa 1"
       style="fill:#ffffff;fill-opacity:1" />
    <g
       id="g4240"
       transform="translate(341.79698,500.25245)">
      <g
         inkscape:transform-center-y="-9.4924686"
         inkscape:transform-center-x="5.4653607"
         inkscape:label="Capa 1"
         id="layer1-1"
         transform="translate(-392.98822,-511.27795)">
        <g
           id="layer1-3"
           inkscape:label="Capa 1"
           transform="translate(0.41988239,0.03484499)">
          <rect
             style="opacity:1;fill:url(#linearGradient4781);fill-opacity:1;fill-rule:evenodd;stroke:#9f3510;stroke-width:0.30000001;stroke-linecap:round;stroke-linejoin:miter;stroke-miterlimit:4;stroke-dasharray:none;stroke-dashoffset:0;stroke-opacity:1"
             id="rect4266"
             width="22.410984"
             height="29.670881"
             x="440.1373"
             y="527.95319"
             ry="1" />
          <g
             inkscape:transform-center-y="-5.1777091"
             inkscape:transform-center-x="2.9811004"
             inkscape:label="Capa 1"
             id="layer1-9"
             transform="matrix(0.54545456,0,0,0.54545456,183.54284,249.12599)"
             style="font-style:normal;font-weight:normal;font-size:9.36996746px;line-height:125%;font-family:sans-serif;letter-spacing:0px;word-spacing:0px;fill:#6f4a00;fill-opacity:1;stroke:none;stroke-width:1px;stroke-linecap:butt;stroke-linejoin:miter;stroke-opacity:1">
            <g
               id="layer1-3-7"
               inkscape:label="Capa 1"
               transform="translate(0.41988239,0.03484499)"
               style="fill:#6f4a00;fill-opacity:1">
              <g
                 id="g3"
                 transform="matrix(0.05921667,0,0,0.05921667,479.34779,527.27709)"
                 style="fill:#6f4a00;fill-opacity:1">
                <g
                   id="g5"
                   style="fill:#6f4a00;fill-opacity:1" />
              </g>
            </g>
          </g>
          <g
             transform="translate(440.38356,508.52238)"
             id="g4186"
             style="fill:#ffffff;fill-opacity:1">
            <g
               transform="matrix(0.46355774,0,0,0.46355774,22.25724,22.130791)"
               id="text4161"
               style="font-style:normal;font-weight:normal;font-size:9.36996746px;line-height:125%;font-family:sans-serif;letter-spacing:0px;word-spacing:0px;fill:#ffffff;fill-opacity:1;stroke:none;stroke-width:1px;stroke-linecap:butt;stroke-linejoin:miter;stroke-opacity:1">
              <g
                 transform="translate(0,0.32395954)"
                 id="g4170"
                 style="fill:#ffffff;fill-opacity:1">
                <g
                   id="g4183"
                   style="fill:#ffffff;fill-opacity:1">
                  <path
                     inkscape:connector-curvature="0"
                     d="m -13.396414,12.911682 c -0.353482,3e-5 -0.713182,0.04864 -1.035462,0.129434 -0.3119,0.08083 -0.569855,0.212899 -0.80897,0.42066 -0.228719,0.19627 -0.414942,0.474218 -0.550084,0.808959 -0.135159,0.32325 -0.194163,0.733266 -0.194163,1.229622 0,0.484858 0.059,0.894875 0.194163,1.22962 0.135142,0.334789 0.321365,0.601196 0.550084,0.80896 0.239115,0.196265 0.49707,0.328337 0.80897,0.420659 0.32228,0.08081 0.68198,0.129456 1.035462,0.129435 0.353466,3e-5 0.691216,-0.04861 1.003108,-0.129435 0.311891,-0.09234 0.580234,-0.224394 0.80897,-0.420659 0.239107,-0.207764 0.414929,-0.474171 0.550086,-0.80896 0.145548,-0.334745 0.226497,-0.744762 0.226506,-1.22962 -9e-6,-0.496356 -0.08097,-0.906372 -0.226506,-1.229622 -0.135157,-0.334741 -0.310979,-0.612689 -0.550086,-0.808959 -0.228736,-0.207761 -0.497079,-0.339821 -0.80897,-0.42066 -0.311892,-0.08078 -0.649642,-0.129406 -1.003108,-0.129434 z m -18.962037,2.070939 -7.733668,23.815804 5.112636,0 2.070939,-6.212819 7.474798,0 1.941501,6.212819 5.080273,0 -7.76602,-23.815804 -6.180459,0 z m 3.10641,3.268201 c 0.05435,0.379632 0.160862,0.84913 0.291223,1.391413 0.130328,0.542322 0.279448,1.107996 0.420662,1.65028 0.15205,0.531473 0.290301,1.011457 0.420654,1.456129 0.130336,0.444703 0.226059,0.743182 0.291231,0.938395 l 1.520847,4.756689 -5.824519,0 1.520847,-4.756689 c 0.03256,-0.11929 0.09662,-0.300619 0.161793,-0.550093 0.07605,-0.249443 0.139605,-0.515923 0.226508,-0.84132 0.08689,-0.325364 0.193452,-0.666687 0.291222,-1.035469 0.09775,-0.368747 0.171967,-0.742251 0.25887,-1.100187 0.09775,-0.368747 0.193689,-0.710071 0.258869,-1.035471 0.07605,-0.325361 0.118325,-0.635044 0.161793,-0.873677 z m 13.234594,1.909148 0,18.638455 5.177346,0 0,-18.638455 -5.177346,0 z"
                     id="path3031"
                     style="color:#000000;font-style:normal;font-weight:normal;font-size:9.36996746px;line-height:125%;font-family:sans-serif;letter-spacing:0px;word-spacing:0px;display:inline;overflow:visible;visibility:visible;fill:#ffffff;fill-opacity:1;fill-rule:nonzero;stroke:none;stroke-width:1;stroke-linecap:butt;stroke-linejoin:miter;stroke-opacity:1;marker:none;enable-background:accumulate" />
                </g>
              </g>
            </g>
          </g>
        </g>
      </g>
    </g>
  </g>
</svg>
