<svg xmlns="http://www.w3.org/2000/svg" viewBox="0 0 32 32"><defs><linearGradient id="0" x1="452.11" y1="556.82" x2="451.76" y2="528.82" gradientUnits="userSpaceOnUse"><stop stop-color="#1e56e6"/><stop offset="1" stop-color="#1f9aed"/></linearGradient></defs><g transform="translate(-435.76-526.83)"><rect width="22.411" height="29.671" x="440.55" y="528.02" fill="url(#0)" fill-rule="evenodd" stroke="#123488" stroke-linecap="round" stroke-width=".3" rx="1"/><g transform="matrix(-.02711-.02445.02445-.02711 449.07 551.15)" fill="#deedfc"><path d="m123.57 43.994c-11.433-12.278-20.463-21.978-17.47-38.655.293-1.64-.334-3.307-1.635-4.347-.819-.654-1.82-.992-2.831-.992-.598 0-1.201.118-1.771.358-25.717 10.891-53.4 45.836-53.4 96.83.002 23.16 5.347 42.33 15.462 55.43 2.642 3.418 5.588 6.38 8.776 8.891l55.27.261c2.092-1.575 4.09-3.329 5.955-5.271 8.979-9.334 19.412-27.23 18.15-59.49-.996-25.608-14.553-40.17-26.512-53.01"/><path d="m71.02 173.38c-2.805 15.869-5.354 33.595-5.354 45.538 0 23.823 11.479 186.68 11.969 193.6.78 11.03 9.953 19.579 21.01 19.579 11.06 0 20.229-8.552 21.01-19.581.488-6.933 11.972-170.06 11.972-193.6 0-11.776-2.536-29.42-5.329-45.28l-55.28-.261"/></g></g></svg>