<svg xmlns="http://www.w3.org/2000/svg" viewBox="0 0 32 32"><defs><linearGradient id="0" x1="452.11" y1="556.82" x2="451.76" y2="528.82" gradientUnits="userSpaceOnUse"><stop stop-color="#2aaa76"/><stop offset="1" stop-color="#44d48b"/></linearGradient></defs><g transform="translate(-435.76-526.83)"><rect width="22.411" height="29.671" x="440.55" y="528.02" fill="url(#0)" fill-rule="evenodd" stroke="#144e36" stroke-linecap="round" stroke-width=".3" rx="1"/><path d="m445.54 541.1l.762.611-.717 1.409c-.358.65.257 1.283.65 1.503.386.217.986.243 1.546.235l1.01-1.691.762.423-1.322-2.514-2.688.023m.112 3.45l1.635 3.101c.329.431.948.532 1.591.517h1.725v-2.936l-3.271-.024c-.508.031-1.172-.078-1.68-.658m10.29-5.714l-.89.388-.854-1.327c-.38-.637-1.218-.391-1.596-.146-.372.241-.685.767-.95 1.274l.953 1.725-.73.479 2.783.032 1.283-2.424m-2.995-1.572l-3.436-.035c-.526.086-.914.593-1.212 1.177l-.836 1.548 2.503 1.424 1.606-2.924c.219-.471.635-1.014 1.375-1.189m.149 11.965l.101-.987 1.545-.123c.727-.033.924-.904.898-1.362-.025-.451-.322-.987-.625-1.47l-1.932.019-.054-.887-1.377 2.482 1.444 2.327m2.792-1.926l1.696-3.066c.182-.514-.063-1.108-.416-1.658l-.914-1.501-2.427 1.556 1.714 2.859c.295.425.557 1.062.347 1.811" fill="#144e36"/></g></svg>