<svg xmlns="http://www.w3.org/2000/svg" viewBox="0 0 32 32"><defs><linearGradient id="0" x1="451.69" y1="556.79" x2="451.34" y2="528.79" gradientUnits="userSpaceOnUse"><stop stop-color="#ff721a"/><stop offset="1" stop-color="#fbb521"/></linearGradient></defs><g transform="translate(-435.34-526.79)"><rect width="22.411" height="29.671" x="440.13" y="527.99" fill="url(#0)" fill-rule="evenodd" stroke="#6f350c" stroke-linecap="round" stroke-width=".3" rx="1"/><path d="m451.32 546.78l-3.771-3.771 3.771-3.771 1.257 1.257-2.514 2.514 1.257 1.257 3.771-3.771-3.285-3.285c-.268-.268-.703-.268-.972 0l-5.313 5.313c-.268.268-.268.703 0 .972l5.313 5.313c.268.268.704.268.972 0l5.313-5.313c.268-.268.268-.704 0-.972l-.771-.771-5.03 5.03" fill="#6f350c"/></g></svg>