<svg xmlns="http://www.w3.org/2000/svg" viewBox="0 0 32 32"><defs><linearGradient id="0" x1="452.11" y1="556.82" x2="451.76" y2="528.82" gradientUnits="userSpaceOnUse"><stop stop-color="#ff1526"/><stop offset="1" stop-color="#ff461c"/></linearGradient></defs><g transform="translate(-42.774-15.546)"><rect width="22.411" height="29.671" x="440.55" y="528.02" fill="url(#0)" fill-rule="evenodd" stroke="#6f0a10" stroke-linecap="round" stroke-width=".3" rx="1" transform="translate(-392.99-511.28)"/><g transform="matrix(.02507 0 0 .02507 52.28 25.06)"><path d="m452.03 388.57c-9.227-2.108-19.02-3.454-28.913-3.454-16.946 0-32.35 2.951-43.718 7.67-1.265.632-2.141 1.946-2.141 3.422 0 .551.114 1.103.341 1.557 1.33 3.892-.876 8.092-11.87 10.54-16.313 3.568-26.611 20.416-32.497 25.978-6.924 6.567-26.448 10.605-23.513 6.665 2.303-3.03 11.09-12.584 16.427-22.897 4.8-9.211 9.06-11.838 14.919-20.643 1.735-2.578 8.4-11.643 10.346-18.811 2.173-7.01 1.443-15.794 2.286-19.411 1.2-5.222 6.113-16.524 6.486-22.946.211-3.584-15.1 5.189-22.362 5.189-7.265 0-14.351-4.362-20.838-4.654-8.03-.389-13.2 6.178-20.481 5.01-4.135-.649-7.654-4.297-14.886-4.557-10.33-.389-22.962 5.724-46.654 4.978-23.319-.762-44.854-29.481-47.789-34.04-3.454-5.335-7.67-5.335-12.243-1.119-4.589 4.168-10.265.876-11.854-1.93-3.065-5.351-11.238-20.967-23.902-24.26-17.513-4.54-26.383 9.697-25.23 21 1.168 11.497 8.611 14.724 12.06 20.838 3.422 6.097 5.189 10.05 11.643 12.762 4.605 1.913 6.308 4.735 4.946 8.497-1.2 3.276-5.968 4.04-9.13 4.184-6.665.324-11.335-1.492-14.757-3.665-3.957-2.546-7.2-6.05-10.638-12-4.02-6.584-10.33-9.438-17.675-9.438-3.503 0-6.795.924-9.697 2.4-11.513 6.02-25.23 9.551-39.989 9.551l-16.67.016c31.929 94.65 121.49 162.79 226.98 162.79 84.24 0 158.33-43.46 201.01-109.23" fill="#fff"/><path d="m452.03 388.6c-9.227-2.141-19.02-3.47-28.913-3.47-16.946 0-32.35 2.951-43.718 7.67-1.265.632-2.141 1.93-2.141 3.422 0 .535.114 1.103.341 1.541 1.33 3.908-.876 8.124-11.87 10.557-16.313 3.584-26.611 20.4-32.497 25.962-6.924 6.584-26.448 10.622-23.513 6.697 2.303-3.065 11.09-12.616 16.427-22.929 4.8-9.194 9.06-11.838 14.919-20.627 1.735-2.578 8.4-11.659 10.346-18.811 2.173-7.02 1.443-15.794 2.286-19.411 1.2-5.222 6.113-16.524 6.486-22.929.211-3.616-15.1 5.157-22.362 5.157-7.265 0-14.351-4.346-20.838-4.638-8.03-.405-13.2 6.178-20.481 5.01-4.135-.649-7.654-4.297-14.886-4.573-10.33-.373-22.962 5.74-46.654 4.978-23.319-.762-44.854-29.448-47.789-34.01-3.454-5.368-7.67-5.368-12.243-1.151-4.589 4.184-10.265.892-11.854-1.913-3.065-5.368-11.238-20.984-23.902-24.275-17.513-4.54-26.383 9.697-25.23 21.02 1.168 11.481 8.611 14.708 12.06 20.821 3.422 6.097 5.189 10.07 11.643 12.778 4.605 1.897 6.308 4.735 4.946 8.497-1.2 3.276-5.968 4.04-9.13 4.184-6.665.308-11.335-1.492-14.757-3.697-3.957-2.497-7.2-6.02-10.638-11.984-4.02-6.567-10.33-9.438-17.675-9.438-3.503 0-6.795.941-9.697 2.4-11.513 6.02-25.23 9.567-39.989 9.567h-16.67c-8.108-24.02-12.486-49.751-12.486-76.49 0-132.19 107.2-239.33 239.46-239.33 132.23 0 239.45 107.14 239.45 239.33 0 47.967-14.12 92.59-38.432 130.09" fill="#6f0a10"/><path d="m303.74 366.65c1.232 1.184 3.357 5.222.762 10.362-1.459 2.724-3.03 4.622-5.822 6.859-3.389 2.708-9.957 5.822-18.973.081-4.865-3.065-5.173-4.103-11.87-3.227-4.784.616-6.681-4.232-4.978-8.238 1.735-4.01 8.789-7.249 17.594-2.092 3.973 2.319 10.135 7.249 15.519 2.87 2.254-1.768 3.6-2.968 6.697-6.567.146-.146.341-.227.568-.227.195 0 .373.065.503.178" fill="#333"/><path d="m232.37 133.15c-27.648 1.995-30.535 4.978-35.708 10.476-7.297 7.8-16.93-10.07-16.93-10.07-5.789-1.216-12.778-10.524-9-19.2 3.73-8.594 10.605-6.03 12.746-3.357 2.611 3.259 8.205 8.594 15.47 8.4 7.265-.195 15.632-1.719 27.324-1.719 11.838 0 19.784 4.411 20.221 8.222.405 3.227-.957 6.276-14.12 7.249m29.06-45.681h-.13c-.422 0-.762-.324-.762-.714 0-.292.178-.551.438-.665 5.368-2.822 13.362-5.092 22.508-6 2.741-.292 5.432-.454 8.01-.454h1.378c15.357.357 27.632 6.454 27.454 13.621-.195 7.167-12.762 12.697-28.13 12.373-4.946-.13-9.616-.843-13.621-2.01-.503-.114-.827-.519-.827-1.01 0-.47.324-.876.843-1.01 9.551-2.205 16.02-5.838 15.567-9.259-.616-4.524-13.12-6.989-27.973-5.497-1.638.162-3.211.373-4.751.616m124.7 107.37c-2.368 7.946-5.724 18.11-20.708 25.8-2.189 1.119-3-.714-2.01-2.432 5.676-9.632 6.665-12.03 8.319-15.811 2.286-5.562 3.519-13.459-1.07-29.902-9-32.383-27.81-75.7-41.45-89.72-13.184-13.557-37.05-17.384-58.653-11.838-7.946 2.027-23.497 10.1-52.33 3.616-49.897-11.238-57.29 13.735-60.15 24.616-2.886 10.881-9.762 41.805-9.762 41.805-2.286 12.616-5.286 34.508 72.21 49.28 36.1 6.859 37.913 16.2 39.535 22.897 2.87 12.02 7.443 18.892 12.6 22.329 5.157 3.438 0 6.292-5.724 6.859-15.357 1.605-72.19-14.692-105.83-33.778-27.502-16.8-27.956-31.913-21.665-44.756-41.545-4.492-72.73 3.892-78.37 23.562-9.713 33.729 74.2 91.36 169.77 120.29 100.28 30.34 203.41 9.146 214.88-53.853 5.205-28.621-18.908-49.799-59.59-58.962" fill="#ff3021"/></g></g></svg>