<svg xmlns="http://www.w3.org/2000/svg" viewBox="0 0 32 32"><defs><linearGradient id="0" x1="452.11" y1="556.82" x2="451.76" y2="528.82" gradientUnits="userSpaceOnUse"><stop stop-color="#e32d5d"/><stop offset="1" stop-color="#f73667"/></linearGradient></defs><g transform="translate(-435.76-526.83)"><rect width="22.411" height="29.671" x="440.55" y="528.02" fill="url(#0)" fill-rule="evenodd" stroke="#621328" stroke-linecap="round" stroke-width=".3" rx="1"/><path ns2:knockout="Off" d="m479.94 551.04c-1.832-.659-2.92-1.468-4.113-3.273-.293-.497-.831-1.607-.811-3.056-.048-1.444.682-3.109 2.044-3.997 1.315-.937 3.01-.951 4.02-.581 1.042.387 1.464 1.031 1.476 1-.032.008.558.504.821 1.584.293 1.038-.005 2.759-1.437 3.464-.659.353-1.514.417-2.185.164-.671-.271-1.158-.865-1.32-1.485-.353-1.37.686-2.13 1.145-2.207 1.866-.622 2.811 2.298.629 2.546.995.332 2.02-.689 1.825-1.728-.039-1.04-1.298-2.072-2.687-1.649-.363.1-.912.355-1.341.927-.441.569-.641 1.461-.412 2.328.223.872.903 1.706 1.849 2.081.956.353 2.02.252 2.899-.205 1.876-.928 2.251-3.189 1.879-4.433-.329-1.337-1.055-1.949-1.018-1.959-.014.036-.536-.758-1.827-1.24-1.263-.46-3.231-.428-4.808.677-1.613 1.034-2.487 3.067-2.424 4.706-.022 1.664.598 2.937.937 3.503 1.364 2.08 2.927 2.73 4.857 2.834" opacity=".971" fill="#fff" transform="translate(-27.78-2.023)"/></g></svg>