<svg xmlns="http://www.w3.org/2000/svg" viewBox="0 0 32 32"><defs><linearGradient id="0" x1="452.11" y1="556.82" x2="451.76" y2="528.82" gradientUnits="userSpaceOnUse"><stop stop-color="#197cf1"/><stop offset="1" stop-color="#20bcfa"/></linearGradient></defs><rect width="22.411" height="29.671" x="440.55" y="528.02" fill="url(#0)" fill-rule="evenodd" stroke-linecap="round" stroke-width=".3" rx="1" transform="translate(-435.76-526.82)" stroke="#0b3969"/><path d="m180.52 558.73c-.504-.026-.592-.693-1.086-.725-.259-.016-.75-.039-1.177.116-.475-.325-1.086-.723-.194.828-.194 1.046-.84 3.981-1.526 3.993-.685.013-1.137-1.24-1.719-1.227-.582.012-.582.012-.582.012-.685 0-1.136-1.212-2.521-1.253-.866-.026-1.551 1.499-3.477 1.667-.517.039-1.312.24-1.393 1.432 0 0-1.136 1.062-.601 3.515.133-1.221.2-2.245.601-2.913-.03.667.178 1.314 0 2-.178.69-.745 1.87-.745 1.87 0 0-.124.245.188 1.091.312.846.935 2.942.935 2.942.032.368.084.562.342.73-.065.245-.283.736.493.736.332 0 0 0 .752 0 .525 0 .354-.452-.494-.866.026-.31-.168-.634-.297-.698-.31-.788-.711-2.299-.711-2.299 0 0-.143-1.319.349-1.759.491-.439 1.085-.852 1.486-2.313.013-.104.685.517 2.03.905 1.344.388 2.375-.026 2.526.039.15.065.473.853.473 1.616 0 .762-.271 1.266-.271 1.564 0 .297.22.814.22.814 0 0 .129 1.422-.039 2.224-.116.504-.31.759.465.761.776.002 1.835.169.453-.748.116-.285.026-.673-.104-.814-.026-.698.052-1.384.181-1.668.129-.285.039-1.099.065-1.512.026-.414.401-1.9.814-2.43.414-.531 2.249-2.094 2.56-3.619.31-1.526.646-3.077 1.551-3.064.543 0 .633.31.866.297.233-.014.646-.4.646-.607 0-.207-.051-.63-1.06-.643" transform="matrix(.83859 0 0 .83859-129.29-458.08)" fill="#0b3969"/></svg>