<svg xmlns="http://www.w3.org/2000/svg" viewBox="0 0 32 32"><defs><linearGradient id="0" x1="452.11" y1="556.82" x2="451.76" y2="528.82" gradientUnits="userSpaceOnUse"><stop stop-color="#ff1526"/><stop offset="1" stop-color="#ff461c"/></linearGradient></defs><rect width="22.411" height="29.671" x="440.55" y="528.02" fill="url(#0)" fill-rule="evenodd" stroke="#6f0a10" stroke-linecap="round" stroke-width=".3" rx="1" transform="translate(-435.76-526.82)"/><path d="m333.23 39.545l-54.916 83.02-56.76-83.02h111.68m-63.64 102h-121.83l60.908 231.67 60.921-231.67m-117.76-13.6h113.69l-56.847-83.15-56.841 83.15m-12.79-5.385l56.753-83.02h-111.67l54.917 83.02m56.725 255.02l-62.06-236.03h-133.7l195.76 236.03m-195.57-249.63h126.1l-54.931-83.03-71.17 83.03m345.7-82.89l-54.836 82.89h125.88l-71.05-82.89zm-62.25 96.48l-62.06 236.01 195.55-236.01h-133.48" fill="#fff" transform="matrix(.0355 0 0 .0355 8.496 8.896)"/></svg>