<svg xmlns="http://www.w3.org/2000/svg" viewBox="0 0 32 32"><defs><linearGradient id="0" x1="451.69" y1="556.79" x2="451.34" y2="528.79" gradientUnits="userSpaceOnUse"><stop stop-color="#8798a9"/><stop offset="1" stop-color="#aeb6be"/></linearGradient></defs><g transform="translate(-435.34-526.79)" stroke="#1f2a47"><rect width="22.411" height="29.671" x="440.13" y="527.99" fill="url(#0)" fill-rule="evenodd" stroke="#373e44" stroke-linecap="round" stroke-width=".3" rx="1"/><g transform="matrix(.25916 0 0 .25916 358 404.46)"><rect width="46.3" height="34.939" x="385.01" y="507.73" fill="#373e44" stroke="none" rx="1.644" stroke-width="1" transform="translate(-48.12 9.495)"/><path d="m76.991 47.643l-53.12-53.04c-1.956-2.064-4.399-3.096-7.333-3.096-2.934 0-5.377 1.033-7.333 3.096l-6.192 6.111c-2.01 2.01-3.01 4.453-3.01 7.332 0 2.824 1 5.296 3.01 7.414l39.596 39.515-39.597 39.596c-2.01 2.01-3.01 4.454-3.01 7.333 0 2.824 1 5.296 3.01 7.414l6.192 6.11c2.01 2.01 4.455 3.02 7.333 3.02 2.879 0 5.324-1 7.333-3.02l53.12-53.04c2.01-2.118 3.02-4.59 3.02-7.414 0-2.879-1.01-5.323-3.02-7.333z" fill="#9aa7b3" transform="matrix(.14063 0 0 .14063 354.89 527.22)"/></g></g></svg>