<svg xmlns="http://www.w3.org/2000/svg" viewBox="0 0 32 32"><defs><linearGradient id="0" x1="451.69" y1="556.79" x2="451.34" y2="528.79" gradientUnits="userSpaceOnUse"><stop stop-color="#1b91f4"/><stop offset="1" stop-color="#20b7f9"/></linearGradient></defs><g transform="translate(-435.34-526.79)" stroke="#1f2a47"><rect width="22.411" height="29.671" x="440.13" y="527.99" fill="url(#0)" fill-rule="evenodd" stroke="#0c3e6a" stroke-linecap="round" stroke-width=".3" rx="1"/><path d="m11.1 10c-.332 0-.6.267-.6.6v10.801c0 .332.267.6.6.6h9.6c.332 0 .602-.267.602-.6v-10.801c0-.332-.269-.6-.602-.6h-9.6m4.488.334h.668c.148 0 .266.118.266.266v.066c0 .148-.118.268-.266.268h-.668c-.148 0-.266-.12-.266-.268v-.066c0-.148.118-.266.266-.266m-.002.867h.666c.148 0 .268.12.268.268v.066c0 .148-.12.266-.268.266h-.666c-.148 0-.268-.118-.268-.266v-.066c0-.148.12-.268.268-.268m-.008.857h.666c.148 0 .268.118.268.266v.068c0 .148-.12.266-.268.266h-.666c-.148 0-.268-.118-.268-.266v-.068c0-.148.12-.266.268-.266m.014.893h.666c.148 0 .268.118.268.266v.068c0 .148-.12.266-.268.266h-.666c-.148 0-.268-.118-.268-.266v-.068c0-.148.12-.266.268-.266m0 .877h.666c.148 0 .268.118.268.266v.068c0 .148-.12.266-.268.266h-.666c-.148 0-.268-.118-.268-.266v-.068c0-.148.12-.266.268-.266m0 .896h.666c.148 0 .268.12.268.268v.066c0 .148-.12.268-.268.268h-.666c-.148 0-.268-.12-.268-.268v-.066c0-.148.12-.268.268-.268m.053.908h.529c.105 0 .189.086.189.191v.379l.295.867c.082.242.043.509-.105.717-.148.208-.39.332-.645.332-.255 0-.494-.124-.643-.332-.148-.208-.188-.475-.105-.717l.295-.869v-.377c0-.105.084-.191.189-.191m-.023 1.27l-.098.291c-.042.125-.024.264.053.371.153.214.511.214.664 0 .076-.107.097-.246.055-.371l-.098-.291h-.576" transform="matrix(.99999 0 0 .99999 435.35 526.8)" stroke-opacity=".55" fill="#0c3e6a" stroke-width="2.8" stroke="none"/></g></svg>