<svg xmlns="http://www.w3.org/2000/svg" viewBox="0 0 32 32"><defs><linearGradient id="0" x1="452.11" y1="556.82" x2="451.76" y2="528.82" gradientUnits="userSpaceOnUse"><stop stop-color="#2daf7b"/><stop offset="1" stop-color="#44d68c"/></linearGradient></defs><g transform="translate(-435.76-526.83)"><rect width="22.411" height="29.671" x="440.55" y="528.02" fill="url(#0)" fill-rule="evenodd" stroke="#144d36" stroke-linecap="round" stroke-width=".3" rx="1"/><g transform="matrix(.25916 0 0 .25916 358.3 404.43)"><rect y="507.31" x="385.01" height="34.939" width="46.3" fill="#144d36" rx="1.644" stroke-width="1" transform="translate(-48.12 9.285)"/><path d="m42.939 104.58l53.04-53.12c2.064-1.956 3.096-4.399 3.096-7.333 0-2.934-1.033-5.377-3.096-7.333l-6.111-6.192c-2.01-2.01-4.453-3.02-7.332-3.02-2.824 0-5.296 1-7.414 3.02l-39.515 39.596-39.596-39.597c-2.01-2.01-4.454-3.02-7.333-3.02-2.824 0-5.296 1-7.414 3.02l-6.11 6.192c-2.01 2.01-3.02 4.455-3.02 7.333 0 2.879 1 5.324 3.02 7.333l53.04 53.12c2.118 2.01 4.59 3.02 7.414 3.02 2.879 0 5.323-1.01 7.333-3.02" fill="#39c384" transform="matrix(.14063 0 0 .14063 354.89 525.33)"/></g></g></svg>