<svg xmlns="http://www.w3.org/2000/svg" viewBox="0 0 32 32"><defs><linearGradient id="0" x1="451.69" y1="556.79" x2="451.34" y2="528.79" gradientUnits="userSpaceOnUse"><stop stop-color="#8798a9"/><stop offset="1" stop-color="#aeb6be"/></linearGradient></defs><g transform="translate(-435.34-526.79)" stroke="#1f2a47"><rect width="22.411" height="29.671" x="440.13" y="527.99" fill="url(#0)" fill-rule="evenodd" stroke="#373e44" stroke-linecap="round" stroke-width=".3" rx="1"/><path d="m433.74 520.07v1.167h14v-1.167h-14m.583 2.333c-.323 0-.583.26-.583.583 0 .323.26.583.583.583.323 0 .583-.26.583-.583 0-.323-.26-.583-.583-.583m1.75 0v1.167h10.5v-1.167h-10.5m0 2.333v1.167h4.667v-1.167h-4.667m-1.75 3.5c-.323 0-.583.26-.583.583 0 .323.26.583.583.583.323 0 .583-.26.583-.583 0-.323-.26-.583-.583-.583m1.75 0v1.167h10.5v-1.167h-10.5m0 2.333v1.167h9.333v-1.167h-9.333m-2.333 2.333v1.167h14v-1.167h-14" stroke="none" transform="matrix(.85714 0 0 .85714 73.4 91.22)" fill="#3d434a"/></g></svg>