<svg xmlns="http://www.w3.org/2000/svg" viewBox="0 0 32 32"><defs><linearGradient id="0" x1="451.69" y1="556.79" x2="451.34" y2="528.79" gradientUnits="userSpaceOnUse"><stop stop-color="#ff721a"/><stop offset="1" stop-color="#fbb521"/></linearGradient></defs><g transform="translate(-435.34-526.79)"><rect width="22.411" height="29.671" x="440.13" y="527.99" fill="url(#0)" fill-rule="evenodd" stroke="#6f350c" stroke-linecap="round" stroke-width=".3" rx="1"/><path d="m14.257 275.6c-31.31-55.21-10-141.8 54.766-206.59 73.55-73.54 175.26-91.08 227.18-39.16.061.068.112.145.195.214-10.392 30.23-43.486 94.57-142.69 129.35-90.87 31.878-125.93 82.56-139.46 116.19m296.55-226.85c-7.871 18.361-21.57 42.36-45.17 65.957-23.725 23.735-57.44 47.05-105.21 63.8-96.94 33.993-124.02 89.64-131.58 116.61.357.36.664.733 1.01 1.083 51.921 51.918 153.63 34.386 227.18-39.17 65.44-65.44 86.49-153.16 53.775-208.28z" transform="matrix(.0368 0 0 .0368 445.35 536.79)" fill="#6f350c"/></g></svg>