<svg xmlns="http://www.w3.org/2000/svg" viewBox="0 0 32 32"><defs><linearGradient id="0" x1="451.69" y1="556.79" x2="451.34" y2="528.79" gradientUnits="userSpaceOnUse"><stop stop-color="#90c2ff"/><stop offset="1" stop-color="#d5e8ff"/></linearGradient></defs><g transform="translate(-435.34-526.79)" stroke="#1f2a47"><rect width="22.411" height="29.671" x="440.13" y="527.99" fill="url(#0)" fill-rule="evenodd" stroke="#3f546c" stroke-linecap="round" stroke-width=".3" rx="1"/><path d="m475.9 542.71c.157.166.388.166.464.166.141 0 .315-.023.564-.076.196-.041.365-.082.513-.118.293-.071.504-.122.703-.122.112 0 .317.049.534.1.338.08.758.18 1.164.18.41 0 .842-.032 1.114-.057.09.339.305.898.794 1.298.664.544 1.156.786 1.176.796.126.062.278.029.368-.078.09-.107.095-.262.013-.376-.003-.004-.334-.473-.322-1 .005-.21.013-.374.02-.499.413.122 1.117.394 1.48.907.55.777.776 1.972.715 2.364-.063.409-.07.409-.264.409-.423 0-.777.017-1.177.235-.354.192-.548.403-.569.426-.079.088-.1.214-.054.323.046.109.152.182.27.186.114.005.46.033.682.114.118.043.22.093.318.141.157.078.306.151.479.171.056.007.114.001.169.009.064.148.173.325.356.466.14.107.282.174.408.232.154.072.276.129.37.245.245.304.328.634.328.637.032.132.147.227.283.233.005 0 .009 0 .014 0 .13 0 .246-.082.289-.206.019-.056.18-.566-.034-1.312-.077-.267-.195-.498-.31-.721-.187-.363-.348-.677-.28-1.062.318-1.807.296-3.277-.065-4.368-.561-1.696-1.92-2.642-2.187-2.814-.132-.086-.251-.161-.352-.223.093-.074.211-.152.352-.212.32-.136.455-.173.492-.182.003 0 .005 0 .007 0 .133 0 .235-.088.274-.217.04-.135-.035-.279-.156-.35-.023-.014-.573-.333-1.298-.333-.15 0-.298.014-.442.041-.447.084-.763.21-1.068.332-.298.119-.58.231-1 .32-.204.043-.393.076-.574.108-.626.111-1.167.206-1.975.619-1.055.539-1.648 1.128-1.67 1.66-.005.112-.002.212.008.3-.099.049-.219.112-.34.181-.493.281-.7.491-.714.725-.001.163.034.297.13.399" fill="#3f546c" stroke="none" transform="matrix(1.08333 0 0 1.08333-70.4-46.07)"/></g></svg>