<svg xmlns="http://www.w3.org/2000/svg" viewBox="0 0 32 32"><defs><linearGradient id="0" x1="451.69" y1="556.79" x2="451.34" y2="528.79" gradientUnits="userSpaceOnUse"><stop stop-color="#8798a9"/><stop offset="1" stop-color="#aeb6be"/></linearGradient></defs><g transform="translate(-435.34-526.79)" stroke="#1f2a47"><rect width="22.411" height="29.671" x="440.13" y="527.99" fill="url(#0)" fill-rule="evenodd" stroke="#373e44" stroke-linecap="round" stroke-width=".3" rx="1"/><g transform="matrix(.01225 0 0 .01225 445.19 536.99)" stroke="#2c3137"><circle r="440" cy="490" cx="490" fill="#3d434a" stroke="#3d434a" stroke-width="100"/><path d="m485.99 228.34c-130 0-239 91-267 213h131c24-52 76-88 136-88 83 0 150 67 150 150 0 83-67 150-150 150-60 0-112-36-136-87h-131c28 121 137 212 267 212 152 0 275-123 275-275 0-152-123-275-275-275" fill="#9ba8b4" stroke="none"/></g></g></svg>