<svg xmlns="http://www.w3.org/2000/svg" viewBox="0 0 32 32"><defs><linearGradient id="0" x1="451.69" y1="556.79" x2="451.34" y2="528.79" gradientUnits="userSpaceOnUse"><stop stop-color="#dc1666"/><stop offset="1" stop-color="#ff5390"/></linearGradient></defs><g transform="translate(-435.34-526.79)" stroke="#1f2a47"><rect width="22.411" height="29.671" x="440.13" y="527.99" fill="url(#0)" fill-rule="evenodd" stroke="#5b0a2a" stroke-linecap="round" stroke-width=".3" rx="1"/><g transform="matrix(.49702 0 0 .49702 240.09 274.17)" fill="#fff" stroke="none"><path d="m416.16 545.25q-.669.669-1.605.669-.936 0-1.605-.669-.669-.669-.669-1.605 0-.936.669-1.605.669-.669 1.605-.669.936 0 1.605.669.669.669.669 1.605 0 .936-.669 1.605"/><path d="m428.85 546.25q-1.873 0-3.377-.803-1.471-.803-2.207-2.01h-.134l.134 2.274v7.223h-3.076v-23.609h2.943v2.274h.134q.736-1.204 2.207-2.01 1.505-.803 3.377-.803 3.177 0 5.484 2.508 2.307 2.508 2.307 6.22 0 3.712-2.307 6.22-2.307 2.508-5.484 2.508m-.502-2.809q2.14 0 3.678-1.605 1.538-1.639 1.538-4.314 0-2.675-1.538-4.28-1.538-1.639-3.678-1.639-2.174 0-3.712 1.605-1.505 1.605-1.505 4.314 0 2.709 1.505 4.314 1.538 1.605 3.712 1.605"/></g></g></svg>