<svg xmlns="http://www.w3.org/2000/svg" xmlns:xlink="http://www.w3.org/1999/xlink" viewBox="0 0 32 32"><defs><linearGradient id="0" x1="451.69" y1="556.79" x2="451.34" y2="528.79" gradientUnits="userSpaceOnUse"><stop stop-color="#dc1666"/><stop offset="1" stop-color="#ff5390"/></linearGradient></defs><g transform="translate(-435.34-526.79)" stroke="#1f2a47"><rect width="22.411" height="29.671" x="440.13" y="527.99" fill="url(#0)" fill-rule="evenodd" stroke="#5b0a2a" stroke-linecap="round" stroke-width=".3" rx="1"/><g transform="matrix(.54054 0 0 .54054 194.1 250.96)" fill="#fff"><path d="m420.65 528.23v7.557l-.134 2.274h.134q.669-1.17 2.107-1.973 1.438-.836 3.076-.836 3.043 0 4.648 1.873 1.605 1.873 1.605 5.02v10.03h-3.076v-9.564q0-4.548-4.046-4.548-1.906 0-3.11 1.538-1.204 1.505-1.204 3.511v9.06h-3.076v-23.943h3.076" fill="#fff" transform="matrix(.91884 0 0 .91884 81.11 44)" stroke="none"/><path d="m491.34 527.93v3.754h3.754v1.576h-3.754v3.754h-1.576v-3.754h-3.754v-1.576h3.754v-3.754h1.576z" stroke-width=".606" fill="#fff" stroke="#fff" transform="matrix(.66042 0 0 .66042 159.83 180.71)" id="1"/><use transform="translate(0 8.25)" xlink:href="#1"/></g></g></svg>