<svg xmlns="http://www.w3.org/2000/svg" viewBox="0 0 32 32"><defs><linearGradient id="0" x1="452.11" y1="556.82" x2="451.76" y2="528.82" gradientUnits="userSpaceOnUse"><stop stop-color="#dc3c30"/><stop offset="1" stop-color="#ff786d"/></linearGradient></defs><g transform="translate(-384.57-515.8)"><rect width="22.411" height="29.671" x="440.55" y="528.02" fill="url(#0)" fill-rule="evenodd" stroke="#6c2621" stroke-linecap="round" stroke-width=".3" rx="1" transform="translate(-51.19-11.03)"/><path d="m401.43 525.8l-7.286 1.286v9.429l7.286 1.286v-12m.429 1.714v.429h4.714v5.571h.429v-5.571-.429h-.429-4.714m0 .857v.924c.137-.035.28-.067.429-.067v1.714h1.714c0 .947-.768 1.714-1.714 1.714-.148 0-.291-.032-.429-.067v.496h3v.429h-3v.857h3v.429h-3v1.286h4.286v-7.714h-4.286m.857.429c.947 0 1.714.768 1.714 1.714h-1.714v-1.714m-4.768.964c.429.007.647.093.83.268.239.229.338.529.335 1.058-.005.868-.522 1.406-1.339 1.406h-.308l-.027.696-.013.71-.321-.027-.335-.014v-2.022-2.022l.67-.04c.198-.011.366-.016.509-.014m-.496.723v.616c0 .338.031.633.054.656.067.067.253.056.482-.04.278-.116.404-.479.295-.844-.081-.269-.259-.388-.603-.388h-.228" fill="#fff" stroke="none" color="#000"/></g></svg>