<svg xmlns="http://www.w3.org/2000/svg" xmlns:xlink="http://www.w3.org/1999/xlink" viewBox="0 0 48 48"><defs><linearGradient xlink:href="#4" id="3" gradientUnits="userSpaceOnUse" y1="515.24" x2="0" y2="545.81"/><linearGradient y2="517.62" x2="0" y1="545.62" gradientUnits="userSpaceOnUse"><stop stop-color="#e3e3e3"/><stop offset="1" stop-color="#fcf9f9"/></linearGradient><linearGradient id="4"><stop stop-color="#00cafe"/><stop offset="1" stop-color="#1460f3"/></linearGradient><linearGradient xlink:href="#4" y1="546.3" x2="0" y2="517.3" gradientUnits="userSpaceOnUse"/><linearGradient id="2" y1="545.62" x2="0" y2="517.62" gradientUnits="userSpaceOnUse"><stop stop-color="#d3d3d3"/><stop offset="1" stop-color="#fcf9f9"/></linearGradient><linearGradient id="0"><stop stop-color="#333538"/><stop offset="1" stop-color="#566069"/></linearGradient><linearGradient xlink:href="#0" x1="2.819" x2="11.758" gradientUnits="userSpaceOnUse"/><linearGradient xlink:href="#0" id="1" y1="545.22" x2="0" y2="517.22" gradientUnits="userSpaceOnUse"/></defs><g transform="matrix(1.63823 0 0 1.63823-632.44-847.28)" fill="url(#1)"><circle cx="400.57" cy="531.8" r="14" fill="url(#3)" stroke="url(#3)" stroke-width="1.3" transform="translate(.135.045)"/><path d="m428.92 524.46c-.56.157-1.01.782-1.01 1.389v9.625c-.568-.311-1.297-.437-2.053-.231-1.364.371-2.219 1.571-1.927 2.679.292 1.108 1.637 1.727 3 1.356 1.089-.296 1.839-1.134 1.959-2.02l.032-9.1 7.08-1.985v7.178c-.568-.311-1.297-.437-2.053-.232-1.364.371-2.219 1.571-1.927 2.679.293 1.108 1.637 1.727 3 1.356 1.089-.296 1.839-1.134 1.959-2.02l.032-11.842c0-.455-.269-.796-.632-.86l-7.455 2.02" fill="#fff" fill-opacity=".851" transform="matrix(.872 0 0 .872 24.624 68.873)"/></g></svg>