<?xml version="1.0" encoding="UTF-8" standalone="no"?>
<!-- Created with Inkscape (http://www.inkscape.org/) -->

<svg
   xmlns:dc="http://purl.org/dc/elements/1.1/"
   xmlns:cc="http://creativecommons.org/ns#"
   xmlns:rdf="http://www.w3.org/1999/02/22-rdf-syntax-ns#"
   xmlns:svg="http://www.w3.org/2000/svg"
   xmlns="http://www.w3.org/2000/svg"
   xmlns:sodipodi="http://sodipodi.sourceforge.net/DTD/sodipodi-0.dtd"
   xmlns:inkscape="http://www.inkscape.org/namespaces/inkscape"
   width="16"
   height="16"
   id="svg2"
   version="1.1"
   inkscape:version="0.91 r13725"
   viewBox="0 0 16 16"
   sodipodi:docname="application-x-sif.svg">
  <defs
     id="defs4" />
  <sodipodi:namedview
     id="base"
     pagecolor="#ffffff"
     bordercolor="#666666"
     borderopacity="1.0"
     inkscape:pageopacity="0.0"
     inkscape:pageshadow="2"
     inkscape:zoom="11.2"
     inkscape:cx="3.6888532"
     inkscape:cy="9.4711147"
     inkscape:document-units="px"
     inkscape:current-layer="layer1-1"
     showgrid="true"
     inkscape:showpageshadow="false"
     borderlayer="true"
     inkscape:window-width="1366"
     inkscape:window-height="687"
     inkscape:window-x="0"
     inkscape:window-y="0"
     inkscape:window-maximized="1"
     units="px"
     inkscape:snap-bbox="true"
     inkscape:object-nodes="true">
    <inkscape:grid
       type="xygrid"
       id="grid4101" />
    <sodipodi:guide
       position="2,14.000017"
       orientation="12,0"
       id="guide4071" />
    <sodipodi:guide
       position="2,2.0000174"
       orientation="0,12"
       id="guide4073" />
    <sodipodi:guide
       position="14,2.0000174"
       orientation="-12,0"
       id="guide4075" />
    <sodipodi:guide
       position="14,14.000017"
       orientation="0,-12"
       id="guide4077" />
  </sodipodi:namedview>
  <metadata
     id="metadata7">
    <rdf:RDF>
      <cc:Work
         rdf:about="">
        <dc:format>image/svg+xml</dc:format>
        <dc:type
           rdf:resource="http://purl.org/dc/dcmitype/StillImage" />
        <dc:title />
      </cc:Work>
    </rdf:RDF>
  </metadata>
  <g
     inkscape:label="Capa 1"
     inkscape:groupmode="layer"
     id="layer1"
     transform="translate(0,-1036.3622)">
    <g
       transform="translate(-412.88298,512.00351)"
       id="layer1-4"
       inkscape:label="Capa 1">
      <g
         style="fill:#ffffff;fill-opacity:1"
         inkscape:label="Capa 1"
         id="layer1-7"
         transform="translate(392.57143,-514.5642)" />
      <g
         transform="translate(341.79698,500.25245)"
         id="g4240">
        <rect
           style="opacity:1;fill:#ffffff;fill-opacity:0.40983605;stroke:none"
           id="rect4236-8"
           width="44"
           height="1"
           x="10"
           y="3" />
        <g
           transform="translate(-392.98822,-511.27795)"
           id="layer1-1"
           inkscape:label="Capa 1"
           inkscape:transform-center-x="5.4653607"
           inkscape:transform-center-y="-9.4924686">
          <g
             transform="matrix(0.74997854,0,0,0.74997854,118.34359,135.88384)"
             inkscape:label="Capa 1"
             id="layer1-3"
             style="fill:#ffffff;fill-opacity:1">
            <path
               inkscape:connector-curvature="0"
               style="display:inline;opacity:1;fill:#ffffff;fill-opacity:1;enable-background:new"
               d="m 471.67565,535.35086 c -0.0514,-0.002 -0.10092,0.0187 -0.13646,0.0557 -0.51276,0.53508 -1.03391,1.13544 -1.5049,1.70689 -5.1e-4,5.1e-4 -8.3e-4,0.002 -0.002,0.002 -1.16065,1.44746 -2.04285,2.93473 -2.68217,4.52716 -0.59555,1.48339 -0.94376,2.76666 -1.26067,4.636 -0.0694,0.40935 -0.13954,0.90538 -0.18792,1.30452 -0.0241,0.19959 -0.0429,0.37468 -0.0536,0.50418 -0.005,0.0648 -0.009,0.11785 -0.01,0.16082 -3.8e-4,0.0215 -4.4e-4,0.0394 0.002,0.0618 8.3e-4,0.0111 0.003,0.0231 0.008,0.0433 0.006,0.0203 8.3e-4,0.0614 0.0823,0.11155 0.0439,0.027 0.0498,0.0218 0.0607,0.0243 0.0109,0.003 0.0193,0.005 0.0281,0.006 0.0177,0.003 0.0365,0.005 0.058,0.007 0.0429,0.005 0.0961,0.009 0.15217,0.0119 0.445,0.0243 1.10124,0.13745 1.53631,0.26481 0.29372,0.086 0.4871,0.15712 0.77383,0.2843 0.0662,0.0294 0.12699,0.0562 0.17221,0.0759 0.0226,0.01 0.0411,0.0174 0.0553,0.0234 0.007,0.003 0.0124,0.005 0.0178,0.007 3.4e-4,1.4e-4 4.9e-4,4.1e-4 8.2e-4,5e-4 9e-5,4e-5 4.6e-4,-5e-5 5.1e-4,0 1.8e-4,7e-5 3.6e-4,4.6e-4 4.9e-4,5e-4 0.002,8.2e-4 0.004,0.002 0.008,0.004 -2.2e-4,-4.8e-4 -8.4e-4,-0.002 -0.002,-0.002 8.3e-4,3.7e-4 0.002,4.9e-4 0.003,8.2e-4 0.003,8.4e-4 0.005,0.002 0.0103,0.004 0.002,5e-4 0.004,0.002 0.007,0.003 -0.002,-3e-4 -0.006,-2.2e-4 -0.007,-5e-4 0.0127,0.007 0.0278,0.0153 0.0482,0.0266 0.0485,0.0267 0.11522,0.0637 0.18792,0.10452 0.70219,0.39463 1.22733,0.80158 2.06591,1.60508 0.11048,0.10586 0.21344,0.20188 0.29134,0.27293 0.039,0.0355 0.0713,0.0648 0.0969,0.0867 0.0128,0.0109 0.0236,0.0199 0.0351,0.0287 0.006,0.005 0.0114,0.009 0.0211,0.0151 0.005,0.003 0.0109,0.007 0.0216,0.0119 0.0108,0.005 0.0216,0.0155 0.0714,0.0179 0.0598,0.003 0.0722,-0.0102 0.0845,-0.0157 0.0123,-0.006 0.0185,-0.01 0.0238,-0.0125 0.0106,-0.007 0.0165,-0.0112 0.0228,-0.0157 0.0123,-0.01 0.0236,-0.0187 0.0373,-0.0303 0.0276,-0.0234 0.0631,-0.055 0.10559,-0.0932 0.085,-0.0765 0.1974,-0.18037 0.31842,-0.29513 0.69369,-0.65778 1.02949,-0.93585 1.51248,-1.25634 1.05479,-0.69989 1.9947,-1.01054 3.43761,-1.13232 l 0.11697,-0.01 c 0.094,-0.008 0.16633,-0.0865 0.16624,-0.18087 l 0,-0.0688 c 0,-0.14337 -0.034,-0.4395 -0.0802,-0.80633 -0.046,-0.36683 -0.10491,-0.78434 -0.15812,-1.10146 -0.31654,-1.88615 -0.67642,-3.21457 -1.27963,-4.71668 -0.54342,-1.35319 -1.32137,-2.72013 -2.25112,-3.95747 -0.002,-0.003 -0.005,-0.006 -0.007,-0.009 -0.62583,-0.74083 -1.2312,-1.51838 -1.89155,-2.23922 -0.0331,-0.0362 -0.0794,-0.0575 -0.12835,-0.059 l 0,0 z"
               id="path3621" />
          </g>
        </g>
      </g>
    </g>
  </g>
</svg>
