<?xml version="1.0" encoding="UTF-8" standalone="no"?>
<!-- Created with Inkscape (http://www.inkscape.org/) -->

<svg
   xmlns:dc="http://purl.org/dc/elements/1.1/"
   xmlns:cc="http://creativecommons.org/ns#"
   xmlns:rdf="http://www.w3.org/1999/02/22-rdf-syntax-ns#"
   xmlns:svg="http://www.w3.org/2000/svg"
   xmlns="http://www.w3.org/2000/svg"
   xmlns:sodipodi="http://sodipodi.sourceforge.net/DTD/sodipodi-0.dtd"
   xmlns:inkscape="http://www.inkscape.org/namespaces/inkscape"
   width="48"
   height="48"
   id="svg2"
   version="1.1"
   inkscape:version="0.48.4 r9939"
   sodipodi:docname="audio-volume-medium.svg">
  <defs
     id="defs4" />
  <sodipodi:namedview
     id="base"
     pagecolor="#000000"
     bordercolor="#666666"
     borderopacity="1.0"
     inkscape:pageopacity="0"
     inkscape:pageshadow="2"
     inkscape:zoom="12.189831"
     inkscape:cx="20.53862"
     inkscape:cy="22.721195"
     inkscape:document-units="px"
     inkscape:current-layer="layer1"
     showgrid="false"
     showguides="true"
     inkscape:window-width="512"
     inkscape:window-height="417"
     inkscape:window-x="1107"
     inkscape:window-y="119"
     inkscape:window-maximized="0">
    <sodipodi:guide
       position="9,39.000017"
       orientation="30,0"
       id="guide3267" />
    <sodipodi:guide
       position="9,9.0000174"
       orientation="0,30"
       id="guide3269" />
    <sodipodi:guide
       position="39,9.0000174"
       orientation="-30,0"
       id="guide3271" />
    <sodipodi:guide
       position="39,39.000017"
       orientation="0,-30"
       id="guide3273" />
    <sodipodi:guide
       position="28,21.999529"
       orientation="13,0"
       id="guide4255" />
    <sodipodi:guide
       position="28,8.9995291"
       orientation="0,11"
       id="guide4257" />
    <sodipodi:guide
       position="39,8.9995291"
       orientation="-13,0"
       id="guide4259" />
    <sodipodi:guide
       position="39,21.999529"
       orientation="0,-11"
       id="guide4261" />
    <sodipodi:guide
       position="9,39.000017"
       orientation="13,0"
       id="guide4291" />
    <sodipodi:guide
       position="9,26.000017"
       orientation="0,19.000002"
       id="guide4293" />
    <sodipodi:guide
       position="28.000002,26.000017"
       orientation="-13,0"
       id="guide4295" />
    <sodipodi:guide
       position="28.000002,39.000017"
       orientation="0,-19.000002"
       id="guide4297" />
  </sodipodi:namedview>
  <metadata
     id="metadata7">
    <rdf:RDF>
      <cc:Work
         rdf:about="">
        <dc:format>image/svg+xml</dc:format>
        <dc:type
           rdf:resource="http://purl.org/dc/dcmitype/StillImage" />
        <dc:title />
      </cc:Work>
    </rdf:RDF>
  </metadata>
  <g
     inkscape:label="Capa 1"
     inkscape:groupmode="layer"
     id="layer1"
     transform="translate(0,-1004.3622)">
    <rect
       style="fill:none;fill-opacity:1;fill-rule:evenodd;stroke:none"
       id="rect3263"
       width="30"
       height="30"
       x="9"
       y="1013.3622" />
    <path
       style="fill:#34495e;fill-opacity:0.49803922;fill-rule:evenodd;stroke:none"
       d="M 9.1542969,22 C 9.0624831,22.663107 9,23.329987 9,24 c 0,3.926674 1.615683,7.828639 4.390625,10.605469 2.774942,2.776829 6.676252,4.394298 10.603516,4.394531 1.354343,8e-5 2.702314,-0.20465 4.005859,-0.570312 2.476418,-0.694671 4.78321,-2.003035 6.603516,-3.822266 C 36.907859,32.304438 38.396819,29.22363 38.84375,26 l -4.039062,0 c -0.410345,2.168924 -1.46663,4.217551 -3.029297,5.779297 C 30.706226,32.847831 29.407102,33.675208 28,34.226562 26.725526,34.725949 25.362916,35.000081 23.994141,35 21.114147,34.999829 18.253707,33.813686 16.21875,31.777344 14.183793,29.741002 13,26.879561 13,24 c 0,-0.671131 0.07092,-1.341054 0.195312,-2 l -4.0410151,0 z"
       transform="translate(0,1004.3622)"
       id="path4325"
       inkscape:connector-curvature="0" />
    <path
       style="fill:#34495e;fill-opacity:1;fill-rule:evenodd;stroke:none"
       d="M 23.994141,9 C 20.066877,9.0002328 16.165567,10.617702 13.390625,13.394531 11.089175,15.697547 9.6005662,18.776905 9.1542969,22 l 4.0410151,0 c 0.409343,-2.168334 1.462762,-4.215606 3.023438,-5.777344 2.034957,-2.036342 4.895397,-3.222485 7.775391,-3.222656 1.368775,-8.1e-5 2.731385,0.274051 4.005859,0.773438 1.407102,0.551353 2.706226,1.378731 3.775391,2.447265 1.562667,1.561746 2.618952,3.610373 3.029297,5.779297 L 28,22 28,15.238281 c -1.63918,0.379775 -3.175383,1.207776 -4.365234,2.398438 C 22.818131,18.45391 22.172411,19.435905 21.722656,20.5 L 19,20.5 l 0,7 2.722656,0 c 0.449755,1.064095 1.095475,2.04609 1.91211,2.863281 C 24.824617,31.553943 26.36082,32.381944 28,32.761719 L 28,26 l 11,0 0,-4 -0.15625,0 C 38.396819,18.77637 36.907859,15.695562 34.603516,13.392578 32.78321,11.573347 30.476418,10.264982 28,9.5703125 26.696455,9.2046501 25.348484,8.9999197 23.994141,9 z"
       transform="translate(0,1004.3622)"
       id="path4313"
       inkscape:connector-curvature="0" />
    <path
       sodipodi:type="arc"
       style="fill:none;fill-opacity:0.64088398;fill-rule:evenodd;stroke:none"
       id="path4242"
       sodipodi:cx="21.999308"
       sodipodi:cy="1028.3622"
       sodipodi:rx="1.0006928"
       sodipodi:ry="1.0000308"
       d="m 23,1028.3622 c 0,0.5523 -0.448025,1 -1.000692,1 -0.552668,0 -1.000693,-0.4477 -1.000693,-1 0,-0.5523 0.448025,-1 1.000693,-1 0.552667,0 1.000692,0.4477 1.000692,1 z" />
  </g>
</svg>
