<?xml version="1.0" encoding="UTF-8" standalone="no"?>
<!-- Created with Inkscape (http://www.inkscape.org/) -->

<svg
   xmlns:sketch="http://www.bohemiancoding.com/sketch/ns"
   xmlns:dc="http://purl.org/dc/elements/1.1/"
   xmlns:cc="http://creativecommons.org/ns#"
   xmlns:rdf="http://www.w3.org/1999/02/22-rdf-syntax-ns#"
   xmlns:svg="http://www.w3.org/2000/svg"
   xmlns="http://www.w3.org/2000/svg"
   xmlns:xlink="http://www.w3.org/1999/xlink"
   xmlns:sodipodi="http://sodipodi.sourceforge.net/DTD/sodipodi-0.dtd"
   xmlns:inkscape="http://www.inkscape.org/namespaces/inkscape"
   width="22"
   height="22"
   viewBox="0 0 5.8208332 5.8208335"
   id="svg2"
   version="1.1"
   inkscape:version="0.91 r13725"
   sodipodi:docname="face-in-love.svg">
  <defs
     id="defs4">
    <linearGradient
       inkscape:collect="always"
       xlink:href="#linearGradient4339"
       id="linearGradient4345"
       x1="480.69376"
       y1="555.8656"
       x2="480.60101"
       y2="545.79797"
       gradientUnits="userSpaceOnUse"
       gradientTransform="translate(11.69629,-9.0446444)" />
    <linearGradient
       inkscape:collect="always"
       id="linearGradient4339">
      <stop
         style="stop-color:#ffeb96;stop-opacity:1"
         offset="0"
         id="stop4341" />
      <stop
         style="stop-color:#fff1b7;stop-opacity:1"
         offset="1"
         id="stop4343" />
    </linearGradient>
  </defs>
  <sodipodi:namedview
     id="base"
     pagecolor="#6a6565"
     bordercolor="#666666"
     borderopacity="1.0"
     inkscape:pageopacity="0"
     inkscape:pageshadow="2"
     inkscape:zoom="8"
     inkscape:cx="33.969404"
     inkscape:cy="13.071459"
     inkscape:document-units="px"
     inkscape:current-layer="layer1"
     showgrid="false"
     inkscape:window-width="1366"
     inkscape:window-height="630"
     inkscape:window-x="0"
     inkscape:window-y="36"
     inkscape:window-maximized="1"
     units="px"
     inkscape:showpageshadow="false"
     borderlayer="true"
     showguides="false"
     showborder="false">
    <inkscape:grid
       type="xygrid"
       id="grid4160" />
    <sodipodi:guide
       position="-6.2596835e-15,5.8208248"
       orientation="21.999992,0"
       id="guide4164" />
    <sodipodi:guide
       position="-6.2596835e-15,-6.4613886e-06"
       orientation="0,22"
       id="guide4166" />
    <sodipodi:guide
       position="5.8208331,-6.4613886e-06"
       orientation="-21.999992,0"
       id="guide4168" />
    <sodipodi:guide
       position="5.8208331,5.8208248"
       orientation="0,-22"
       id="guide4170" />
    <sodipodi:guide
       position="0.52916662,5.29165"
       orientation="18.000046,0"
       id="guide4176" />
    <sodipodi:guide
       position="0.52916662,0.52913782"
       orientation="0,18"
       id="guide4178" />
    <sodipodi:guide
       position="5.2916665,0.52913782"
       orientation="-18.000046,0"
       id="guide4180" />
    <sodipodi:guide
       position="5.2916665,5.29165"
       orientation="0,-18"
       id="guide4182" />
    <sodipodi:guide
       position="0.52916662,1.3229305"
       orientation="3.0001614,0"
       id="guide4239" />
    <sodipodi:guide
       position="0.52916662,0.52913782"
       orientation="0,18"
       id="guide4241" />
    <sodipodi:guide
       position="5.2916665,0.52913782"
       orientation="-3.0001614,0"
       id="guide4243" />
    <sodipodi:guide
       position="3.9687499,1.0583334"
       orientation="0,-18"
       id="guide4245" />
    <sodipodi:guide
       position="0.52916662,5.2916805"
       orientation="4.9999614,0"
       id="guide4249" />
    <sodipodi:guide
       position="0.52916662,3.968774"
       orientation="0,18"
       id="guide4251" />
    <sodipodi:guide
       position="5.2916665,3.968774"
       orientation="-4.9999614,0"
       id="guide4253" />
    <sodipodi:guide
       position="5.2916665,5.2916805"
       orientation="0,-18"
       id="guide4255" />
  </sodipodi:namedview>
  <metadata
     id="metadata7">
    <rdf:RDF>
      <cc:Work
         rdf:about="">
        <dc:format>image/svg+xml</dc:format>
        <dc:type
           rdf:resource="http://purl.org/dc/dcmitype/StillImage" />
        <dc:title></dc:title>
      </cc:Work>
    </rdf:RDF>
  </metadata>
  <g
     inkscape:label="Capa 1"
     inkscape:groupmode="layer"
     id="layer1"
     transform="translate(0,-291.17916)">
    <g
       id="g4359"
       transform="translate(0,0.264577)">
      <g
         inkscape:transform-center-y="0.16370259"
         inkscape:transform-center-x="5.0981664"
         inkscape:label="Capa 1"
         id="layer1-9"
         transform="translate(-4.6717155,0.22101895)">
        <circle
           r="0"
           cy="293.42813"
           cx="1.7197909"
           id="ellipse4159"
           style="opacity:1;fill:#8f5315;fill-opacity:1;stroke:none" />
        <g
           id="g4260"
           transform="matrix(0.26470588,0,0,0.26470588,8.4359574,215.338)">
          <g
             inkscape:label="Capa 1"
             id="layer1-0"
             transform="matrix(0.3911232,0,0,0.3911232,-177.0644,92.311057)">
            <g
               id="g4401"
               transform="translate(-97.808975,18.359024)">
              <g
                 transform="matrix(2.5454545,0,0,2.5454545,-748.58794,-815.133)"
                 id="g4389">
                <g
                   id="g4180"
                   transform="matrix(1.6428572,0,0,1.6428572,-311.7803,-338.6751)">
                  <g
                     transform="translate(6.0083569,-20.41299)"
                     id="g4368">
                    <circle
                       style="opacity:1;fill:url(#linearGradient4345);fill-opacity:1;fill-rule:nonzero;stroke:none;stroke-width:1.04999995;stroke-linecap:round;stroke-linejoin:round;stroke-miterlimit:4;stroke-dasharray:none;stroke-dashoffset:0;stroke-opacity:1"
                       id="path4337"
                       cx="492.45425"
                       cy="541.42932"
                       r="5.5" />
                    <g
                       transform="translate(-7.439993,0.97475844)"
                       id="g4364" />
                  </g>
                </g>
              </g>
            </g>
          </g>
        </g>
      </g>
      <g
         id="g4303"
         transform="matrix(0.72500872,0,0,0.72500872,0.4047841,80.647472)">
        <path
           style="opacity:1;fill:#f4f1e9;fill-opacity:1;stroke:none"
           d="m 2.9030844,295.03432 c -0.086391,0 -0.5529176,0.002 -0.5529176,0.002 0,0.73482 0.5529176,1.10139 1.105835,1.10296 0.5529194,0 1.1058376,-0.36814 1.1058376,-1.10584 0,0 -0.4654457,0.002 -0.5529182,0.002 -1.0183623,0 -0.1650525,-0.002 -0.5529194,0 -0.3882406,-0.002 0.466526,1e-5 -0.5529174,0 z"
           id="path4229"
           inkscape:connector-curvature="0"
           sodipodi:nodetypes="ccccccc" />
        <g
           style="fill:#f7aa86;fill-opacity:1"
           transform="matrix(0.13747538,0,0,0.13747538,4.1776473,150.23476)"
           id="layer1-4-0"
           inkscape:label="Capa 1">
          <g
             style="fill:#f7aa86;fill-opacity:1"
             inkscape:label="Capa 1"
             id="layer1-0-3"
             transform="translate(-403.69551,511.9911)">
            <path
               style="fill:#f7aa86;fill-opacity:1"
               sketch:type="MSShapeGroup"
               id="Favourites-0"
               d="m 417.58791,527.34933 c -0.65306,-0.64373 -1.55546,-0.96549 -2.70743,-0.96549 -0.31875,0 -0.64404,0.0558 -0.97568,0.16734 -0.33174,0.11162 -0.64027,0.26222 -0.92551,0.45163 -0.28544,0.18941 -0.53082,0.36726 -0.73664,0.53334 -0.20563,0.1661 -0.40103,0.3426 -0.58611,0.52943 -0.18518,-0.18683 -0.38058,-0.36333 -0.5862,-0.52943 -0.20573,-0.16608 -0.45121,-0.34383 -0.73665,-0.53334 -0.28543,-0.1895 -0.59396,-0.34001 -0.92561,-0.45163 -0.33163,-0.11153 -0.65692,-0.16734 -0.97569,-0.16734 -1.15186,0 -2.05427,0.32186 -2.70732,0.96549 -0.65304,0.64361 -0.97956,1.53639 -0.97956,2.67828 0,0.34776 0.0605,0.70602 0.1813,1.07442 0.1208,0.3685 0.25845,0.68262 0.41267,0.94208 0.15421,0.25946 0.32908,0.51259 0.52448,0.75915 0.1954,0.24656 0.33817,0.41647 0.4281,0.50994 0.0899,0.0934 0.16067,0.16083 0.21207,0.2023 l 4.813,4.68713 c 0.0926,0.0936 0.20573,0.1403 0.33941,0.1403 0.13367,0 0.24681,-0.0467 0.3394,-0.1401 l 4.80533,-4.67165 c 1.17754,-1.18854 1.7663,-2.35642 1.7663,-3.50357 0,-1.14189 -0.32662,-2.03467 -0.97966,-2.67828 l 0,0 z"
               inkscape:connector-curvature="0" />
          </g>
        </g>
        <g
           style="fill:#f7aa86;fill-opacity:1"
           transform="matrix(0.13747538,0,0,0.13747538,0.54546774,150.23479)"
           id="layer1-4-0-9"
           inkscape:label="Capa 1">
          <g
             style="fill:#f7aa86;fill-opacity:1"
             inkscape:label="Capa 1"
             id="layer1-0-3-2"
             transform="translate(-403.69551,511.9911)">
            <path
               style="fill:#f7aa86;fill-opacity:1"
               sketch:type="MSShapeGroup"
               id="Favourites-0-1"
               d="m 417.58791,527.34933 c -0.65306,-0.64373 -1.55546,-0.96549 -2.70743,-0.96549 -0.31875,0 -0.64404,0.0558 -0.97568,0.16734 -0.33174,0.11162 -0.64027,0.26222 -0.92551,0.45163 -0.28544,0.18941 -0.53082,0.36726 -0.73664,0.53334 -0.20563,0.1661 -0.40103,0.3426 -0.58611,0.52943 -0.18518,-0.18683 -0.38058,-0.36333 -0.5862,-0.52943 -0.20573,-0.16608 -0.45121,-0.34383 -0.73665,-0.53334 -0.28543,-0.1895 -0.59396,-0.34001 -0.92561,-0.45163 -0.33163,-0.11153 -0.65692,-0.16734 -0.97569,-0.16734 -1.15186,0 -2.05427,0.32186 -2.70732,0.96549 -0.65304,0.64361 -0.97956,1.53639 -0.97956,2.67828 0,0.34776 0.0605,0.70602 0.1813,1.07442 0.1208,0.3685 0.25845,0.68262 0.41267,0.94208 0.15421,0.25946 0.32908,0.51259 0.52448,0.75915 0.1954,0.24656 0.33817,0.41647 0.4281,0.50994 0.0899,0.0934 0.16067,0.16083 0.21207,0.2023 l 4.813,4.68713 c 0.0926,0.0936 0.20573,0.1403 0.33941,0.1403 0.13367,0 0.24681,-0.0467 0.3394,-0.1401 l 4.80533,-4.67165 c 1.17754,-1.18854 1.7663,-2.35642 1.7663,-3.50357 0,-1.14189 -0.32662,-2.03467 -0.97966,-2.67828 l 0,0 z"
               inkscape:connector-curvature="0" />
          </g>
        </g>
      </g>
    </g>
  </g>
</svg>
