<?xml version="1.0" encoding="UTF-8" standalone="no"?>
<!-- Created with Inkscape (http://www.inkscape.org/) -->

<svg
   xmlns:dc="http://purl.org/dc/elements/1.1/"
   xmlns:cc="http://creativecommons.org/ns#"
   xmlns:rdf="http://www.w3.org/1999/02/22-rdf-syntax-ns#"
   xmlns:svg="http://www.w3.org/2000/svg"
   xmlns="http://www.w3.org/2000/svg"
   xmlns:sodipodi="http://sodipodi.sourceforge.net/DTD/sodipodi-0.dtd"
   xmlns:inkscape="http://www.inkscape.org/namespaces/inkscape"
   width="16"
   height="16"
   id="svg2"
   version="1.1"
   inkscape:version="0.91 r13725"
   viewBox="0 0 16 16"
   sodipodi:docname="computer.svg">
  <defs
     id="defs4" />
  <sodipodi:namedview
     id="base"
     pagecolor="#ffffff"
     bordercolor="#666666"
     borderopacity="1.0"
     inkscape:pageopacity="0.0"
     inkscape:pageshadow="2"
     inkscape:zoom="16.338034"
     inkscape:cx="-13.881324"
     inkscape:cy="14.040899"
     inkscape:document-units="px"
     inkscape:current-layer="g4644"
     showgrid="true"
     inkscape:showpageshadow="false"
     units="px"
     inkscape:window-width="1366"
     inkscape:window-height="633"
     inkscape:window-x="0"
     inkscape:window-y="33"
     inkscape:window-maximized="1"
     inkscape:snap-bbox="true"
     inkscape:object-nodes="true">
    <inkscape:grid
       type="xygrid"
       id="grid4101" />
    <sodipodi:guide
       position="2,20.000017"
       orientation="18,0"
       id="guide4107" />
    <sodipodi:guide
       position="2,2.0000174"
       orientation="0,18"
       id="guide4109" />
    <sodipodi:guide
       position="20,2.0000174"
       orientation="-18,0"
       id="guide4111" />
    <sodipodi:guide
       position="20,20.000017"
       orientation="0,-18"
       id="guide4113" />
    <sodipodi:guide
       position="3,19.000017"
       orientation="16,0"
       id="guide4115" />
    <sodipodi:guide
       position="3,3.0000174"
       orientation="0,16"
       id="guide4117" />
    <sodipodi:guide
       position="19,3.0000174"
       orientation="-16,0"
       id="guide4119" />
    <sodipodi:guide
       position="19,19.000017"
       orientation="0,-16"
       id="guide4121" />
  </sodipodi:namedview>
  <metadata
     id="metadata7">
    <rdf:RDF>
      <cc:Work
         rdf:about="">
        <dc:format>image/svg+xml</dc:format>
        <dc:type
           rdf:resource="http://purl.org/dc/dcmitype/StillImage" />
        <dc:title />
      </cc:Work>
    </rdf:RDF>
  </metadata>
  <g
     inkscape:label="Capa 1"
     inkscape:groupmode="layer"
     id="layer1"
     transform="translate(0,-1036.3622)">
    <g
       transform="translate(0,39.500035)"
       id="g4644">
      <g
         id="g3"
         transform="matrix(0.02287578,0,0,0.02287578,0.99999988,997.8622)"
         style="fill:#ffffff;fill-opacity:1">
        <path
           d="m 578.766,51.487 0,-0.895 -2.996,0 -539.84,0 -2.996,0 0,0.895 C 15.272,52.701 2.095,66.753 0,83.808 l 0,3.002 0,355.724 c 0,6.898 1.795,12.712 4.791,17.949 6.893,12.137 17.068,18.269 31.14,18.269 l 197.012,0 0,49.695 -37.425,0 c -9.281,0 -16.467,7.218 -16.467,16.48 0,9.262 7.186,16.479 16.467,16.479 l 220.666,0 c 9.281,0 16.768,-7.218 16.768,-16.479 0,-9.263 -7.486,-16.48 -16.768,-16.48 l -37.425,0 0,-49.695 197.011,0 c 14.078,0 24.343,-6.132 31.14,-18.269 3.085,-5.493 5.091,-11.37 5.091,-17.949 l 0,-355.723 0,-3.002 C 609.905,66.753 595.833,52.701 578.766,51.487 Z m 0,35.324 0,355.724 c 0,2.108 -0.895,3.002 -2.996,3.002 l -539.84,0 c -2.095,0 -2.996,-0.894 -2.996,-3.002 l 0,-355.724 0,-3.002 545.831,0 0,3.002 z"
           id="path5"
           inkscape:connector-curvature="0"
           style="fill:#ffffff;fill-opacity:1" />
      </g>
    </g>
  </g>
</svg>
