<?xml version="1.0" encoding="UTF-8" standalone="no"?>
<!-- Created with Inkscape (http://www.inkscape.org/) -->

<svg
   xmlns:sketch="http://www.bohemiancoding.com/sketch/ns"
   xmlns:osb="http://www.openswatchbook.org/uri/2009/osb"
   xmlns:dc="http://purl.org/dc/elements/1.1/"
   xmlns:cc="http://creativecommons.org/ns#"
   xmlns:rdf="http://www.w3.org/1999/02/22-rdf-syntax-ns#"
   xmlns:svg="http://www.w3.org/2000/svg"
   xmlns="http://www.w3.org/2000/svg"
   xmlns:xlink="http://www.w3.org/1999/xlink"
   xmlns:sodipodi="http://sodipodi.sourceforge.net/DTD/sodipodi-0.dtd"
   xmlns:inkscape="http://www.inkscape.org/namespaces/inkscape"
   width="48"
   height="48"
   id="svg5453"
   version="1.1"
   inkscape:version="0.91 r13725"
   sodipodi:docname="applets-template.svg">
  <defs
     id="defs5455">
    <linearGradient
       id="linearGradient4232">
      <stop
         id="stop4234-0"
         offset="0"
         style="stop-color:#3889e9;stop-opacity:1" />
      <stop
         id="stop4236"
         offset="1"
         style="stop-color:#5ea5fb;stop-opacity:1" />
    </linearGradient>
    <linearGradient
       inkscape:collect="always"
       xlink:href="#linearGradient4232"
       id="linearGradient3426"
       x1="399.57144"
       y1="545.79797"
       x2="399.57144"
       y2="517.79797"
       gradientUnits="userSpaceOnUse" />
    <linearGradient
       inkscape:collect="always"
       xlink:href="#linearGradient4143"
       id="linearGradient4181"
       gradientUnits="userSpaceOnUse"
       x1="399.9939"
       y1="545.13873"
       x2="399.9939"
       y2="518.13873" />
    <linearGradient
       id="linearGradient4207"
       osb:paint="gradient">
      <stop
         style="stop-color:#3498db;stop-opacity:1;"
         offset="0"
         id="stop3371" />
      <stop
         style="stop-color:#3498db;stop-opacity:0;"
         offset="1"
         id="stop3373" />
    </linearGradient>
    <linearGradient
       inkscape:collect="always"
       id="linearGradient4143">
      <stop
         style="stop-color:#197cf1;stop-opacity:1"
         offset="0"
         id="stop4145" />
      <stop
         style="stop-color:#20bcfa;stop-opacity:1"
         offset="1"
         id="stop4147" />
    </linearGradient>
  </defs>
  <sodipodi:namedview
     id="base"
     pagecolor="#ffffff"
     bordercolor="#666666"
     borderopacity="1.0"
     inkscape:pageopacity="0"
     inkscape:pageshadow="2"
     inkscape:zoom="3.9999998"
     inkscape:cx="-78.495913"
     inkscape:cy="15.685913"
     inkscape:document-units="px"
     inkscape:current-layer="g4195"
     showgrid="true"
     fit-margin-top="0"
     fit-margin-left="0"
     fit-margin-right="0"
     fit-margin-bottom="0"
     inkscape:window-width="1366"
     inkscape:window-height="685"
     inkscape:window-x="0"
     inkscape:window-y="0"
     inkscape:window-maximized="1"
     inkscape:showpageshadow="false"
     borderlayer="true"
     showguides="false">
    <inkscape:grid
       type="xygrid"
       id="grid4063" />
    <sodipodi:guide
       position="1.1650391e-05,32.000026"
       orientation="32,0"
       id="guide4157" />
    <sodipodi:guide
       position="1.1650391e-05,2.6367188e-05"
       orientation="0,32"
       id="guide4159" />
    <sodipodi:guide
       position="32.000012,2.6367188e-05"
       orientation="-32,0"
       id="guide4161" />
    <sodipodi:guide
       position="32.000012,32.000026"
       orientation="0,-32"
       id="guide4163" />
    <sodipodi:guide
       position="2.0000117,30.000026"
       orientation="28,0"
       id="guide4167" />
    <sodipodi:guide
       position="2.0000117,2.0000264"
       orientation="0,28"
       id="guide4169" />
    <sodipodi:guide
       position="30.000012,2.0000264"
       orientation="-28,0"
       id="guide4171" />
    <sodipodi:guide
       position="30.000012,30.000026"
       orientation="0,-28"
       id="guide4173" />
    <sodipodi:guide
       position="2.0000117,30.000026"
       orientation="28,0"
       id="guide4181" />
    <sodipodi:guide
       position="2.0000117,2.0000264"
       orientation="0,14"
       id="guide4183" />
    <sodipodi:guide
       position="16.000012,2.0000264"
       orientation="-28,0"
       id="guide4185" />
    <sodipodi:guide
       position="16.000012,30.000026"
       orientation="0,-14"
       id="guide4187" />
    <sodipodi:guide
       position="9.0000117,23.000026"
       orientation="14,0"
       id="guide4193" />
    <sodipodi:guide
       position="9.0000117,9.0000264"
       orientation="0,14.000031"
       id="guide4195" />
    <sodipodi:guide
       position="23.000042,9.0000264"
       orientation="-14,0"
       id="guide4197" />
    <sodipodi:guide
       position="23.000042,23.000026"
       orientation="0,-14.000031"
       id="guide4199" />
  </sodipodi:namedview>
  <metadata
     id="metadata5458">
    <rdf:RDF>
      <cc:Work
         rdf:about="">
        <dc:format>image/svg+xml</dc:format>
        <dc:type
           rdf:resource="http://purl.org/dc/dcmitype/StillImage" />
        <dc:title />
      </cc:Work>
    </rdf:RDF>
  </metadata>
  <g
     inkscape:label="Capa 1"
     inkscape:groupmode="layer"
     id="layer1"
     transform="translate(-384.57143,-499.798)">
    <g
       id="g4195"
       transform="matrix(1.7142857,0,0,1.7142857,-278.12244,-387.85571)">
      <g
         transform="translate(-1.9489187e-7,-5.5697462e-6)"
         inkscape:label="Capa 1"
         id="layer1-5">
        <g
           style="display:inline;enable-background:new"
           id="g4238"
           transform="translate(225.81911,462.44565)">
          <g
             style="display:inline"
             id="layer1-8"
             transform="matrix(0.22655187,0,0,0.22655187,106.94841,54.31088)">
            <g
               transform="matrix(4.4140002,0,0,4.4140002,-1468.8359,-2280.9634)"
               id="layer1-1"
               inkscape:label="Capa 1">
              <g
                 transform="matrix(0.87499998,0,0,0.87499998,50.025937,66.450093)"
                 inkscape:label="Capa 1"
                 id="layer1-9">
                <g
                   id="g4284"
                   transform="matrix(1.1428581,0,0,1.1428581,-57.327415,-75.995025)">
                  <g
                     style="stroke:none;stroke-width:1.29999995;stroke-miterlimit:4;stroke-dasharray:none;stroke-opacity:1"
                     transform="translate(0.13524268,0.04517549)"
                     inkscape:label="Capa 1"
                     id="layer1-3">
                    <circle
                       style="opacity:1;fill:url(#linearGradient4181);fill-opacity:1.0;stroke:none;stroke-width:1.29999995;stroke-miterlimit:4;stroke-dasharray:none;stroke-dashoffset:0;stroke-opacity:1"
                       id="path3377"
                       cx="400.57138"
                       cy="531.79791"
                       r="13.999958" />
                    <circle
                       r="13.999958"
                       cy="531.79797"
                       cx="400.57144"
                       id="circle4174"
                       style="opacity:1;fill:#5ea5fb;fill-opacity:0;stroke:none;stroke-width:1.29999995;stroke-miterlimit:4;stroke-dasharray:none;stroke-dashoffset:0;stroke-opacity:1" />
                    <circle
                       r="0"
                       cy="531.79791"
                       cx="400.57138"
                       id="ellipse4233"
                       style="opacity:1;fill:url(#linearGradient3426);fill-opacity:1;stroke:none;stroke-width:1.29999995;stroke-miterlimit:4;stroke-dasharray:none;stroke-dashoffset:0;stroke-opacity:1" />
                  </g>
                </g>
              </g>
            </g>
            <g
               style="display:none"
               id="layer6" />
            <g
               id="g4027" />
            <g
               id="g4061" />
            <g
               id="g3751" />
            <g
               id="g3782" />
            <g
               id="g3725" />
            <g
               id="g4370"
               transform="matrix(4.4140002,0,0,4.4140002,59.275211,39.357303)" />
          </g>
        </g>
      </g>
      <path
         style="fill:#ffffff;fill-opacity:0.8508065;stroke:none;stroke-width:1634.15478516;stroke-miterlimit:4;stroke-dasharray:none;stroke-opacity:1"
         sketch:type="MSShapeGroup"
         id="Templates"
         d="m 408.31632,531.39065 -2.35548,-2.35611 c -0.22441,-0.22409 -0.15446,-0.46369 0.15477,-0.53332 0,0 0.25543,-0.0576 0.57004,-0.37222 0.67544,-0.67512 0.6748,-1.7712 0,-2.44537 -0.67575,-0.67545 -1.77025,-0.67545 -2.44569,0 -0.31493,0.31461 -0.3719,0.56972 -0.3719,0.56972 -0.0696,0.30986 -0.30987,0.37918 -0.53364,0.15445 l -2.35548,-2.35453 c -0.22409,-0.22441 -0.59125,-0.22441 -0.81534,0 l -2.35517,2.35485 c -0.22377,0.22473 -0.15445,0.46496 0.15478,0.53427 0,0 0.25574,0.0576 0.57004,0.37159 0.67449,0.67512 0.67543,1.77057 0,2.44632 -0.67512,0.67512 -1.7712,0.67449 -2.44569,0 -0.3143,-0.31493 -0.3719,-0.57035 -0.3719,-0.57035 -0.0693,-0.30955 -0.30987,-0.37887 -0.53396,-0.15478 l -2.35516,2.35548 c -0.2241,0.22409 -0.2241,0.59061 0,0.8147 l 2.35516,2.35549 c 0.22409,0.22409 0.15446,0.46433 -0.15477,0.53396 0,0 -0.25543,0.0576 -0.57004,0.37222 -0.67544,0.67543 -0.67544,1.77025 0,2.44537 0.67512,0.6748 1.77025,0.67544 2.44569,0 0.31493,-0.31461 0.3719,-0.56972 0.3719,-0.56972 0.0696,-0.30987 0.30986,-0.37918 0.53364,-0.15446 l 2.35548,2.35453 c 0.22409,0.22441 0.59125,0.22441 0.81534,0 l 2.3558,-2.35516 c 0.22409,-0.22409 0.15445,-0.46496 -0.15478,-0.53396 0,0 -0.25606,-0.0576 -0.57035,-0.37158 -0.67576,-0.67544 -0.67544,-1.77057 0,-2.44633 0.67512,-0.67512 1.77025,-0.67576 2.44569,0 0.31461,0.31462 0.37158,0.57036 0.37158,0.57036 0.0696,0.30955 0.30955,0.3795 0.53396,0.15541 l 2.35548,-2.35613 c 0.22409,-0.22409 0.22409,-0.59061 0,-0.8147 l 0,0 z"
         inkscape:connector-curvature="0" />
    </g>
  </g>
</svg>
