<svg xmlns="http://www.w3.org/2000/svg" viewBox="0 0 48 48"><defs><linearGradient y1="545.8" x2="0" y2="517.8" gradientUnits="userSpaceOnUse"><stop stop-color="#3889e9"/><stop offset="1" stop-color="#5ea5fb"/></linearGradient><linearGradient id="0" gradientUnits="userSpaceOnUse" y1="545.14" x2="0" y2="518.14"><stop stop-color="#197cf1"/><stop offset="1" stop-color="#20bcfa"/></linearGradient></defs><g transform="matrix(1.71429 0 0 1.71429-662.69-887.65)"><g transform="matrix(.99999 0 0 .99999.004.0001)" enable-background="new"><circle cx="400.57" cy="531.8" r="14" fill="url(#0)"/><circle r="14" cy="531.8" cx="400.57" fill="#5ea5fb" fill-opacity="0"/></g><path d="m408.32 531.39l-2.355-2.356c-.224-.224-.154-.464.155-.533 0 0 .255-.058.57-.372.675-.675.675-1.771 0-2.445-.676-.675-1.77-.675-2.446 0-.315.315-.372.57-.372.57-.07.31-.31.379-.534.154l-2.355-2.355c-.224-.224-.591-.224-.815 0l-2.355 2.355c-.224.225-.154.465.155.534 0 0 .256.058.57.372.674.675.675 1.771 0 2.446-.675.675-1.771.674-2.446 0-.314-.315-.372-.57-.372-.57-.069-.31-.31-.379-.534-.155l-2.355 2.355c-.224.224-.224.591 0 .815l2.355 2.355c.224.224.154.464-.155.534 0 0-.255.058-.57.372-.675.675-.675 1.77 0 2.445.675.675 1.77.675 2.446 0 .315-.315.372-.57.372-.57.07-.31.31-.379.534-.154l2.355 2.355c.224.224.591.224.815 0l2.356-2.355c.224-.224.154-.465-.155-.534 0 0-.256-.058-.57-.372-.676-.675-.675-1.771 0-2.446.675-.675 1.77-.676 2.446 0 .315.315.372.57.372.57.07.31.31.38.534.155l2.355-2.356c.224-.224.224-.591 0-.815" fill="#fff" fill-opacity=".851"/></g></svg>