<svg xmlns="http://www.w3.org/2000/svg" viewBox="0 0 48 48"><defs><linearGradient id="0" y1="30" x2="0" y2="2" gradientUnits="userSpaceOnUse" gradientTransform="matrix(1.79485-.14014.14044 1.79105-61.54-3.64)"><stop stop-color="#0164c2"/><stop offset="1" stop-color="#00a9f3"/></linearGradient><linearGradient id="1" gradientUnits="userSpaceOnUse" x1="-30.378" y1="46.44" x2="-30.83" y2="-.881"><stop stop-color="#197dec"/><stop offset="1" stop-color="#3fcffb"/></linearGradient></defs><g transform="translate(54.51 1.22)"><circle r="24" cy="22.78" cx="-30.508" fill="url(#1)"/><path d="m-32.404-1.098c-3.02.236-5.846 1.034-8.421 2.251-.179.192-.419.348-.619.346-.027 0-.056-.016-.084-.024-1.266.649-2.455 1.415-3.572 2.266.172.236.239.508-.065.667-.051.027-.712.146-.944.158-3.157 2.688-5.586 6.162-7 10.11.027-.006.05-.021.078-.025.26-.024.641.021.895.054.235.029.433.169.634.169.57-.0001.672-.452 1.116-.735.483.03.789-.143 1.224-.128.297.009.534.307.765.306.194.005.348-.208.537-.194.184.014.527.384.574.603.059.272-.162.539-.059.835.312.271.842.29 1.268.427.252-.242-.014-.634-.075-.951-.015-.141-.0001-.268-.031-.396-.042-.218-.153-.413-.169-.601-.072-.871.604-1.334 1.163-1.724.242-.17.421-.448.632-.575.298-.18.527-.234.773-.398.444-.297.827-.537 1.167-.861.137-.408-.056-.926-.073-1.318.16-.116.316.02.493-.008.276-.08.268-.477.415-.647.086-.098.333-.182.441-.281.262-.241.327-.578.564-.692.085-.042.288-.048.423-.096.178-.062.42-.297.708-.421.188-.082.628-.13.696-.209.083-.099-.029-.351-.008-.492.095-.703 1.126-.931 1.725-1.212.419-.197.839-.531 1.322-.476-.067.336-.519.254-.412.647.147.545.834-.225 1.023-.322.362-.187.996-.333 1.473-.549.418-.191 1.172-.491.727-.951-.34.007-.471.436-.756.585-.201.048-.178-.157-.353-.16-.167-.007-.246.172-.418.157-.171-.015-.429-.261-.471-.456-.108-.506.376-.756.558-1.153-.177-.451-.788-.033-1.19-.184.016-.278.286-.49.604-.568.261-.065.855-.089 1.023.04.097.07.026.27.185.387.167.129.358.099.559.05.046-.355-.475-.226-.436-.461.393-.303 1.085-.133 1.586-.248.289-.066.579-.295.827-.461.235-.159.536-.427.815-.218.09.245-.201.351-.331.486-.437.453-.883.969-1.21 1.481.241.2.639.059 1.022.075.15.008.339.037.498.053.185.018.38-.006.526.02.263.043.353.313.608.293.42-.034.389-.487.129-.751.052-.295.158-.454.041-.648-.219-.363-.884.049-.957-.418-.047-.303.233-.312.326-.549-.097-.586.435-.67.337-1.195-.042-.219-.229-.208-.401-.403-.086-.096-.142-.288-.238-.369-.721-.008-1.448.001-2.181.067m-11.97 5.781h.002c.144.001.329.149.503.148.164-.009.292-.113.395-.094.262.047.4.426.174.634-.199.041-.286-.065-.435-.027-.411.103-.507.93-.821.927-.296-.002-.511-.703-.229-.939.005-.187-.153-.205-.157-.389.079-.12.322-.261.567-.26m-1.374.203c.086-.004.151.012.187.046-.015.329-.273.328-.513.5-.416.297-.636.717-.731 1.289-.027.167-.423.633-.634.606-.495-.064.056-1.01.157-1.152.111-.16.265-.305.396-.491.127-.18.201-.414.328-.518.14-.114.553-.269.81-.279m3.718.817c.156-.001.298.005.367.063-.068.412-.95.374-1.28.252.009-.154.244-.215.444-.25.141-.015.314-.057.47-.065m-1.928.901c.103-.001.21.004.322.024-.264.258-.559.415-1.032.606-.227.092-.623.214-.683-.043-.073-.315.322-.271.532-.316.265-.058.547-.237.86-.271m30.614-.565c-.029.09-.049.177-.038.261.031.146.204.276.256.473.028.104-.024.339.034.431.17.274.541.039.818.032-.348-.407-.696-.815-1.07-1.197m1.733 1.983c-.027.214-.15.501-.252.686-.236.427-.597.474-.964.72-.306.206-.42.519-.582.848-.176.356-.286.571-.164 1.057-.232.564-.621.929-1.168 1.231-.162.089-.389.134-.535.258-.116.098-.167.34-.326.549-.196.256-.414.374-.513.566-.077.148-.085.431-.167.628-.111.267-.38.415-.531.689-.069.127-.102.375-.176.539-.167.368-.479.648-.419.955.059.297.404.323.448.582.015.147-.079.245-.06.406.022.235.195.387.228.566.081.451-.105.648-.166.966-.029.152.0001.317-.029.436-.057.233-.359.464-.345.733.013.191.224.33.261.597.018.185-.061.39-.015.557.091.328.718.669.997.907.374.319.85.552 1.028.905.15.3.181.703.441.918.192.158.498.243.742.404.227.151.471.277.714.437.396.262 1.01.799 1.598.708.309-.047.607-.325.955-.415.357-.093.825-.163 1.194-.154.282.006.584.151.874.115.306-.044.641-.298.978-.478.272-.144.606-.306.977-.435.082-1.178.081-2.379-.014-3.593-.383-4.889-2.204-9.307-5.01-12.888m-38.947 11.11c-.507.068-.84.117-1.119.27-.64.353-.442 1.238-1.088 1.502-.224.091-.538.119-.787.186-.215.057-.471.196-.696.209-.063.004-.154-.036-.235-.054-.026.424-.042.853-.045 1.282.64.071 1.031.88 1.611 1.113.159.064.359.052.559.081.162.023.287.081.444.12.333.085.729.04.998.136.405.143.749.854 1.101 1.024.035.196-.002.466.078.609.176.203.396.138.669.257.326.144.456.572.763.682.106.037.362.011.528.048.416.091.586.55.926.42.223-.085.187-.318.207-.539.138-.175.283-.447.518-.47.38-.049.446.361.614.719.094.203.314.369.384.585.125.373.167 1.515.104 1.749-.074.286-.444.434-.653.762-.099.154-.134.37-.209.479-.136.194-.356.259-.455.437-.056.1-.102.308-.153.441-.154.404-.379.699-.187 1.155.08.187.391.293.41.519.022.266-.529.55-.55.845-.016.22.224.592.315.869.067.21.483.312.62.444.234.224.433.553.654.84.436.566.798 1.269 1.222 1.817.224.287.526.537.684.84.081.153.086.343.16.48.258.477 1.267.917 1.786 1.123.243.095.505.116.729.218.339.156 1.021.591 1.208.863.166.244.306.86.409 1.261.137.53.076.95.151 1.53.044.313.17.622.198.937.001.11-.043.197-.039.31.0001.019.008.039.009.058 3.12 1.126 6.52 1.64 10.05 1.364.639-.05 1.267-.132 1.889-.23.024-.049.045-.1.076-.147.129-.2.244-.375.326-.549.047-.566-.298-.932-.204-1.432.103-.561.839-.956 1.353-1.246.177-.099.354-.252.5-.316.359-.157.826-.124 1.154-.273.558-.255.57-.875.813-1.42.114-.258.271-.52.284-.698.001-.16-.082-.303-.071-.492.013-.187.167-.36.202-.567.047-.27.045-.661.021-.957-.019-.242-.149-.446-.177-.664-.102-.791.218-.905.479-1.361.131-.226.167-.475.258-.637.437-.774 1.266-1.197 1.117-2.304-.049-.366-.346-1.18-.627-1.277-.161-.055-.512.036-.743-.033-.746-.213-1.242-1.077-1.998-1.076-.162-.007-.303.09-.483.101-.299.004-.762-.15-1.094-.161-.211-.006-.484.1-.615.048-.199-.078-.246-.429-.41-.522-.13-.075-.373-.086-.566-.143-.311-.092-.561-.209-.912-.206-.108.005-.238.07-.364.061-.195-.017-.366-.233-.552-.328-.234-.118-.445-.167-.552-.353.15-.675-.421-.815-.587-1.186-.079-.173-.066-.391-.135-.546-.098-.222-.334-.336-.597-.507-.471-.306-.89-.596-1.53-.624-.282-.014-.549.127-.888.133-.359.005-.832-.271-1.123-.555-.283-.277-.43-.534-.668-.659-.225-.121-.509-.095-.666-.222-.07-.055-.067-.161-.148-.298-.125-.214-.316-.324-.202-.601-.254-.106-.233.252-.504.227-.265-.319-.479-.463-1.013-.322-.244.065-.358.388-.647.419-.235.038-.444-.23-.76-.25-.239-.014-.5.103-.67.085-.266-.032-.364-.243-.615-.381-.184-.101-.541-.271-.639-.26-.307.044-.477.695-.92.503-.227-.245.305-.425.041-.651-.2-.171-.335.111-.476.225-.161.131-.312.259-.495.344-.409.19-.679.128-.995.324-.293.181-.285.446-.433.773-.121.268-.414.667-.625.699-.256.04-.531-.319-.772-.402-.726-.249-1.022.351-1.605.404-.54.062-1.383-.77-1.396-1.28-.021-.31.117-.794.124-1.18.009-.308.204-.508.185-.786-.026-.372-.546-.619-.791-.644-.581-.06-1.351.337-2.029.126-.142-.198.119-.362.174-.57.031-.118-.004-.269.027-.399.058-.201.25-.368.326-.581.056-.163.055-.392.109-.593.063-.229.199-.384.204-.541.007-.208-.09-.44-.263-.564zm8.71 5.84c.209.003.269.43.059.481-.227.053-.374-.332-.16-.452.036-.023.072-.027.101-.027v-.002" fill="url(#0)"/><path d="m35.889 12.143l-.262.26-13.969 9.322-.018-.018-.035.053-.057.037.018.018-9.494 13.965-.145.143.086-.057-.102.148.252-.25 13.979-9.332.016.016.031-.047.121-.08-.039-.039 9.41-13.834.252-.25-.15.1.105-.154m-11.888672 10.357422a1.5 1.5 0 0 1 1.5 1.5 1.5 1.5 0 0 1 -1.5 1.5 1.5 1.5 0 0 1 -1.5 -1.5 1.5 1.5 0 0 1 1.5 -1.5" transform="translate(-54.51-1.22)" fill="#fff" fill-opacity=".846"/></g></svg>