<?xml version="1.0" encoding="UTF-8" standalone="no"?>
<svg
   xmlns:osb="http://www.openswatchbook.org/uri/2009/osb"
   xmlns:dc="http://purl.org/dc/elements/1.1/"
   xmlns:cc="http://creativecommons.org/ns#"
   xmlns:rdf="http://www.w3.org/1999/02/22-rdf-syntax-ns#"
   xmlns:svg="http://www.w3.org/2000/svg"
   xmlns="http://www.w3.org/2000/svg"
   xmlns:xlink="http://www.w3.org/1999/xlink"
   xmlns:sodipodi="http://sodipodi.sourceforge.net/DTD/sodipodi-0.dtd"
   xmlns:inkscape="http://www.inkscape.org/namespaces/inkscape"
   viewBox="0 0 48 48"
   id="svg2"
   version="1.1"
   inkscape:version="0.91 r13725"
   sodipodi:docname="cqcb.plasma.webslice.svg">
  <metadata
     id="metadata77">
    <rdf:RDF>
      <cc:Work
         rdf:about="">
        <dc:format>image/svg+xml</dc:format>
        <dc:type
           rdf:resource="http://purl.org/dc/dcmitype/StillImage" />
        <dc:title />
      </cc:Work>
    </rdf:RDF>
  </metadata>
  <sodipodi:namedview
     pagecolor="#5e5e5e"
     bordercolor="#666666"
     borderopacity="1"
     objecttolerance="10"
     gridtolerance="10"
     guidetolerance="10"
     inkscape:pageopacity="0"
     inkscape:pageshadow="2"
     inkscape:window-width="1366"
     inkscape:window-height="685"
     id="namedview75"
     showgrid="false"
     showborder="false"
     inkscape:zoom="6.9532166"
     inkscape:cx="3.1866541"
     inkscape:cy="14.471921"
     inkscape:window-x="0"
     inkscape:window-y="0"
     inkscape:window-maximized="1"
     inkscape:current-layer="g4200" />
  <defs
     id="defs4">
    <linearGradient
       id="linearGradient4232">
      <stop
         id="stop4234-0"
         offset="0"
         style="stop-color:#3889e9;stop-opacity:1" />
      <stop
         id="stop4236"
         offset="1"
         style="stop-color:#5ea5fb;stop-opacity:1" />
    </linearGradient>
    <linearGradient
       osb:paint="gradient"
       id="linearGradient4207">
      <stop
         id="stop3371"
         offset="0"
         style="stop-color:#3498db;stop-opacity:1;" />
      <stop
         id="stop3373"
         offset="1"
         style="stop-color:#3498db;stop-opacity:0;" />
    </linearGradient>
    <linearGradient
       id="linearGradient4422">
      <stop
         style="stop-color:#ff9300;stop-opacity:1"
         offset="0"
         id="stop4424" />
      <stop
         style="stop-color:#ffd702;stop-opacity:1"
         offset="1"
         id="stop4426" />
    </linearGradient>
    <linearGradient
       inkscape:collect="always"
       xlink:href="#linearGradient4232"
       id="linearGradient4237"
       x1="399.57144"
       y1="545.79797"
       x2="399.57144"
       y2="517.79797"
       gradientUnits="userSpaceOnUse" />
    <linearGradient
       id="linearGradient4180-0">
      <stop
         style="stop-color:#2b65bd;stop-opacity:1"
         offset="0"
         id="stop4182-2" />
      <stop
         style="stop-color:#64a3dc;stop-opacity:1"
         offset="1"
         id="stop4184-3" />
    </linearGradient>
    <linearGradient
       id="linearGradient8467">
      <stop
         offset="0"
         style="stop-color:#d3d3d3;stop-opacity:1"
         id="stop8469" />
      <stop
         offset="1"
         style="stop-color:#fcf9f9;stop-opacity:1"
         id="stop8471" />
    </linearGradient>
    <linearGradient
       inkscape:collect="always"
       xlink:href="#linearGradient4263"
       id="linearGradient4161-1"
       x1="16.000011"
       y1="29.999973"
       x2="16.000011"
       y2="1.999974"
       gradientUnits="userSpaceOnUse"
       gradientTransform="matrix(1.7948547,-0.14014337,0.14044093,1.7910518,-61.542973,-3.6401626)" />
    <linearGradient
       id="linearGradient4263"
       inkscape:collect="always">
      <stop
         id="stop4265"
         offset="0"
         style="stop-color:#0164c2;stop-opacity:1" />
      <stop
         id="stop4267"
         offset="1"
         style="stop-color:#00a9f3;stop-opacity:1" />
    </linearGradient>
    <linearGradient
       gradientTransform="matrix(0.1383708,0,0,0.1383708,14.584812,-43.464901)"
       inkscape:collect="always"
       xlink:href="#linearGradient4613"
       id="linearGradient4262"
       gradientUnits="userSpaceOnUse"
       x1="-324.94363"
       y1="649.7406"
       x2="-328.20999"
       y2="307.75275" />
    <linearGradient
       id="linearGradient4613"
       inkscape:collect="always">
      <stop
         id="stop4615"
         offset="0"
         style="stop-color:#197dec;stop-opacity:1" />
      <stop
         id="stop4617"
         offset="1"
         style="stop-color:#3fcffb;stop-opacity:1" />
    </linearGradient>
  </defs>
  <g
     id="g33" />
  <g
     id="g4200"
     transform="translate(54.508474,1.2203388)">
    <circle
       r="24.000002"
       cy="22.779661"
       cx="-30.508474"
       id="path4217"
       style="display:inline;opacity:1;fill:url(#linearGradient4262);fill-opacity:1;stroke:none;stroke-width:15.44461155;stroke-linecap:round;stroke-linejoin:round;stroke-miterlimit:4;stroke-dasharray:none;stroke-opacity:1;enable-background:new" />
    <path
       inkscape:connector-curvature="0"
       style="display:inline;fill:url(#linearGradient4161-1);fill-opacity:1;fill-rule:nonzero;stroke:none;enable-background:new"
       d="m -32.404332,-1.0982998 c -3.018117,0.23565631 -5.845781,1.03448632 -8.421451,2.2505543 -0.179242,0.192182 -0.41945,0.3476952 -0.619394,0.3463213 -0.0271,-2.856e-4 -0.05591,-0.016054 -0.08422,-0.023931 -1.265779,0.6485289 -2.454656,1.414885 -3.572287,2.2660802 0.172461,0.2357846 0.239484,0.5080898 -0.06533,0.6667016 -0.05109,0.027047 -0.71151,0.1457654 -0.944485,0.1581898 -3.157015,2.68842 -5.586207,6.1624644 -7.003664,10.1072324 0.02712,-0.0057 0.0499,-0.02071 0.07798,-0.02482 0.260217,-0.02392 0.64103,0.02142 0.895335,0.05443 0.234605,0.02937 0.432928,0.169285 0.633909,0.168691 0.570383,-0.0013 0.672272,-0.451964 1.115588,-0.734628 0.483252,0.03013 0.788807,-0.142791 1.224253,-0.128383 0.296796,0.0095 0.533942,0.306636 0.764604,0.306295 0.194436,0.0045 0.348385,-0.208393 0.537264,-0.194455 0.183512,0.01366 0.527073,0.383892 0.573904,0.602723 0.05891,0.272338 -0.161895,0.538973 -0.05913,0.83513 0.311953,0.271103 0.841635,0.289601 1.267765,0.426539 0.25155,-0.24208 -0.01397,-0.634118 -0.0746,-0.95138 -0.01463,-0.140551 -0.0013,-0.268117 -0.03108,-0.396408 -0.04241,-0.218432 -0.152866,-0.412967 -0.169415,-0.601453 -0.0719,-0.870917 0.604019,-1.333929 1.162648,-1.723675 0.241715,-0.169769 0.420713,-0.44795 0.632035,-0.574877 0.298441,-0.1797 0.52696,-0.233903 0.77285,-0.398184 0.444349,-0.29681 0.826592,-0.537047 1.166835,-0.860623 0.13704,-0.408144 -0.05588,-0.9260314 -0.07274,-1.3175206 0.160085,-0.1159241 0.315969,0.019892 0.493094,-0.00802 0.275932,-0.08004 0.268222,-0.4769563 0.414778,-0.6470665 0.08551,-0.097607 0.333401,-0.1821046 0.441152,-0.2807881 0.262316,-0.2406389 0.327391,-0.5782257 0.564106,-0.6915673 0.08481,-0.04218 0.287619,-0.048283 0.422694,-0.096305 0.177915,-0.062182 0.419603,-0.2969324 0.707556,-0.4212424 0.187632,-0.082395 0.62814,-0.1297665 0.695979,-0.2091891 0.08332,-0.099481 -0.02875,-0.35133 -0.008,-0.4920497 0.09452,-0.702734 1.126348,-0.9306991 1.724742,-1.2115373 0.419416,-0.1972298 0.839486,-0.5310265 1.32159,-0.4762251 -0.0672,0.3357117 -0.518724,0.253896 -0.412445,0.6468844 0.146774,0.5454431 0.833859,-0.224688 1.023366,-0.3215507 0.362012,-0.1866683 0.996264,-0.3328998 1.473433,-0.5490537 0.418296,-0.1910877 1.17165,-0.4907991 0.727183,-0.9506434 -0.340042,0.00681 -0.470675,0.4356109 -0.75589,0.5845481 -0.201194,0.048383 -0.178298,-0.157323 -0.353457,-0.1600909 -0.16687,-0.00671 -0.245884,0.1723409 -0.417937,0.1569823 -0.170902,-0.014641 -0.428842,-0.2610282 -0.470703,-0.455934 -0.107555,-0.505814 0.376223,-0.7555763 0.558461,-1.1533147 -0.176531,-0.4513473 -0.788499,-0.033211 -1.189961,-0.1839285 0.01563,-0.2781346 0.286296,-0.4902359 0.604356,-0.568019 0.260623,-0.065279 0.85517,-0.088758 1.023491,0.039724 0.09688,0.070269 0.02599,0.2699953 0.185498,0.386694 0.167311,0.1286552 0.358475,0.099121 0.558781,0.050187 0.04586,-0.3545608 -0.475065,-0.2258626 -0.43583,-0.4609988 0.39323,-0.3028961 1.084841,-0.1333531 1.586336,-0.24821 0.288725,-0.06579 0.579249,-0.2954874 0.826688,-0.46104286 0.235201,-0.15919403 0.536036,-0.42703269 0.815157,-0.21848291 0.09031,0.24451617 -0.201337,0.35052027 -0.331037,0.48568017 -0.436778,0.4533857 -0.88293,0.9685354 -1.209879,1.4810195 0.240973,0.2004055 0.639242,0.059396 1.021556,0.075069 0.14963,0.00802 0.33911,0.037309 0.49785,0.052662 0.185408,0.018199 0.379704,-0.00611 0.525861,0.019962 0.262654,0.042911 0.35321,0.3126027 0.608372,0.2926794 0.419685,-0.033531 0.389148,-0.486987 0.129163,-0.7514565 0.05248,-0.2948259 0.158396,-0.4538827 0.04088,-0.6483716 -0.218648,-0.3626049 -0.884226,0.049465 -0.956751,-0.4179704 -0.04667,-0.3034803 0.233086,-0.3116056 0.326099,-0.54864691 -0.09662,-0.58589896 0.435216,-0.67042843 0.336571,-1.19464439 -0.04246,-0.21917134 -0.229287,-0.2076589 -0.4007,-0.4027441 -0.08564,-0.0958936 -0.141503,-0.2878712 -0.238132,-0.3685074 -0.720955,-0.00782 -1.448125,0.00992 -2.181251,0.067133 z m -11.969779,5.7816634 0.0024,-1.864e-4 c 0.144485,0.00952 0.328956,0.148826 0.503011,0.1484121 0.164096,-0.00922 0.291738,-0.1133496 0.394662,-0.09412 0.261829,0.047421 0.400339,0.4256197 0.174309,0.6339239 -0.19864,0.040737 -0.285574,-0.065028 -0.434717,-0.027077 -0.411173,0.1030959 -0.50716,0.9300767 -0.820692,0.9274472 -0.29566,-0.0021 -0.510574,-0.7034897 -0.228851,-0.9393494 0.005,-0.1871113 -0.152598,-0.2047708 -0.157454,-0.3888847 0.07933,-0.1197082 0.32176,-0.2607156 0.567383,-0.2601463 z m -1.373541,0.203463 c 0.08561,-0.00431 0.151459,0.011715 0.187019,0.046419 -0.01497,0.3294825 -0.272708,0.3280936 -0.5133,0.4999124 -0.415618,0.2967771 -0.636426,0.7167698 -0.731231,1.2887993 -0.02738,0.1666308 -0.423337,0.6326362 -0.634324,0.6055547 -0.494549,-0.064447 0.05603,-1.0077416 0.156502,-1.1524278 0.110908,-0.1603485 0.265433,-0.3054235 0.396457,-0.490789 0.127076,-0.1795092 0.200626,-0.4142255 0.328476,-0.5183345 0.140085,-0.1140011 0.553345,-0.268912 0.810403,-0.2791096 z m 3.71766,0.8170788 c 0.156022,-0.00982 0.298125,0.00491 0.366996,0.062874 -0.06844,0.412132 -0.9497,0.3735411 -1.280355,0.252476 0.0086,-0.1540681 0.244271,-0.2147018 0.443528,-0.2504758 0.140874,-0.014601 0.313912,-0.057302 0.469838,-0.064798 z m -1.927756,0.9012736 c 0.103185,-0.010462 0.210457,0.00371 0.321646,0.024131 -0.263888,0.2577462 -0.55877,0.4151133 -1.031631,0.6060778 -0.227388,0.091504 -0.62288,0.2141968 -0.682824,-0.042901 -0.07307,-0.3146801 0.321776,-0.2709623 0.532422,-0.3160711 0.265102,-0.058053 0.547178,-0.2367426 0.860383,-0.2712879 z M -13.3439,6.0400982 c -0.02933,0.0895 -0.04917,0.1774247 -0.03827,0.2610673 0.0312,0.1462124 0.20383,0.2756893 0.255716,0.4727076 0.02792,0.1042474 -0.02364,0.3386881 0.03382,0.4313909 0.170142,0.2743676 0.540618,0.038512 0.818368,0.032319 -0.348006,-0.4071595 -0.695691,-0.8151127 -1.069596,-1.1974504 z m 1.733091,1.9832087 c -0.02725,0.2143691 -0.149558,0.5007251 -0.251858,0.685961 -0.235599,0.4267701 -0.597351,0.4740665 -0.963872,0.7204396 -0.305631,0.2058942 -0.41962,0.5185321 -0.582427,0.8478455 -0.176477,0.355762 -0.286265,0.570918 -0.163998,1.056821 -0.231599,0.564067 -0.620631,0.928943 -1.168323,1.231431 -0.162089,0.08869 -0.389239,0.134417 -0.534648,0.257591 -0.115843,0.09758 -0.167063,0.339508 -0.3261,0.548635 -0.196444,0.255735 -0.414076,0.374182 -0.512872,0.565573 -0.07653,0.147693 -0.0855,0.430882 -0.167069,0.627725 -0.110751,0.267351 -0.37987,0.415091 -0.531394,0.689025 -0.0688,0.126586 -0.10204,0.374768 -0.176363,0.539298 -0.166686,0.367647 -0.478856,0.647506 -0.418871,0.954715 0.05891,0.296819 0.403936,0.322732 0.447685,0.582079 0.01516,0.147346 -0.07909,0.245468 -0.0599,0.405856 0.02201,0.234631 0.195013,0.387082 0.227792,0.566397 0.08122,0.450968 -0.105074,0.648013 -0.16645,0.965516 -0.02892,0.151568 0.0014,0.317261 -0.02922,0.436302 -0.05729,0.233422 -0.359371,0.463592 -0.344559,0.733091 0.01259,0.191354 0.223547,0.329562 0.260742,0.596665 0.0181,0.184713 -0.06105,0.389645 -0.01505,0.557201 0.09133,0.328054 0.717695,0.668913 0.997484,0.907477 0.374243,0.31926 0.849645,0.551871 1.027861,0.905105 0.150333,0.30007 0.18078,0.703412 0.441108,0.918077 0.192486,0.158496 0.498444,0.242777 0.741735,0.404274 0.226922,0.150762 0.471235,0.277105 0.713723,0.436946 0.396263,0.262346 1.006423,0.799355 1.597837,0.708108 0.308886,-0.04694 0.607432,-0.324775 0.954931,-0.414743 0.357448,-0.09314 0.8252993,-0.163299 1.1940087,-0.15425 0.2823253,0.0059 0.5840208,0.150833 0.8741964,0.114734 0.3059474,-0.04359 0.6407471,-0.297971 0.9782222,-0.477559 0.2715507,-0.14405 0.6059326,-0.306291 0.9768463,-0.43523 0.082299,-1.178274 0.081495,-2.378732 -0.013728,-3.593163 C -6.9867311,16.022008 -8.8071762,11.604687 -11.610775,8.0232808 Z M -50.557331,19.137228 c -0.507463,0.06761 -0.839618,0.11685 -1.11907,0.270369 -0.640237,0.353295 -0.441728,1.238447 -1.088337,1.502029 -0.223663,0.09097 -0.538306,0.119149 -0.787146,0.185797 -0.214836,0.05677 -0.471013,0.196393 -0.695979,0.20919 -0.06288,0.004 -0.154428,-0.03575 -0.23467,-0.05447 -0.02619,0.4244 -0.04161,0.85262 -0.04524,1.282155 0.640423,0.07139 1.031465,0.880438 1.610781,1.112972 0.15871,0.06364 0.35868,0.05199 0.558829,0.08071 0.161561,0.02294 0.287363,0.08062 0.444375,0.12015 0.333105,0.08462 0.729497,0.04034 0.998082,0.135559 0.404694,0.14266 0.748928,0.853696 1.100652,1.023772 0.03514,0.196307 -0.0022,0.466442 0.07829,0.608567 0.175684,0.202595 0.396335,0.137691 0.669083,0.25744 0.326348,0.144117 0.4563,0.571894 0.763493,0.681758 0.106092,0.03736 0.36234,0.01146 0.528041,0.0479 0.4163,0.0911 0.585878,0.550172 0.926375,0.420342 0.223358,-0.08519 0.186994,-0.318361 0.206923,-0.539329 0.138255,-0.175276 0.282841,-0.446819 0.518022,-0.469795 0.37966,-0.04934 0.445947,0.360653 0.613607,0.719276 0.0945,0.202664 0.313678,0.368625 0.384401,0.584666 0.124947,0.372996 0.166857,1.515409 0.104288,1.749089 -0.07396,0.286424 -0.443545,0.434321 -0.652646,0.76182 -0.09882,0.153614 -0.134435,0.370137 -0.209343,0.478533 -0.135963,0.194208 -0.355564,0.259463 -0.454784,0.436688 -0.05585,0.09985 -0.101527,0.308241 -0.153482,0.441319 -0.153717,0.403932 -0.378514,0.699203 -0.186867,1.154799 0.08006,0.187431 0.391325,0.292846 0.409842,0.519341 0.02174,0.266484 -0.528556,0.549596 -0.549704,0.84529 -0.0155,0.219949 0.223725,0.591735 0.315028,0.869267 0.06737,0.209863 0.482785,0.311878 0.620245,0.444244 0.234276,0.22446 0.433171,0.552811 0.653674,0.840484 0.435756,0.565666 0.797571,1.268793 1.221606,1.816695 0.223893,0.286844 0.526248,0.53687 0.684235,0.840439 0.0805,0.153138 0.08597,0.342706 0.159906,0.480189 0.257992,0.476699 1.266645,0.916695 1.78553,1.1228 0.242798,0.09503 0.505487,0.115678 0.72944,0.217532 0.339317,0.155549 1.021497,0.59121 1.207932,0.862901 0.166231,0.244306 0.306196,0.85965 0.409199,1.26075 0.137254,0.529958 0.07557,0.94991 0.150518,1.529634 0.0443,0.313179 0.170011,0.621803 0.198089,0.937053 0.0098,0.110342 -0.04303,0.197246 -0.03909,0.310394 0.0013,0.01864 0.0078,0.03902 0.0093,0.05789 3.12022,1.125577 6.520282,1.63992 10.054394,1.363974 0.638512,-0.04985 1.266916,-0.132194 1.88872,-0.229634 0.02359,-0.04916 0.04513,-0.09986 0.07553,-0.146666 0.129163,-0.199876 0.244141,-0.375089 0.326112,-0.548636 0.04674,-0.566042 -0.297847,-0.932003 -0.203984,-1.431622 0.103369,-0.56107 0.838589,-0.956195 1.35292,-1.245845 0.176942,-0.09946 0.35405,-0.252366 0.49953,-0.315846 0.359352,-0.157115 0.825997,-0.123834 1.154124,-0.273105 0.558354,-0.254793 0.570169,-0.874769 0.812672,-1.419507 0.114187,-0.257926 0.271445,-0.519527 0.283838,-0.697841 0.0103,-0.16024 -0.08226,-0.302971 -0.07142,-0.491794 0.01337,-0.187171 0.166906,-0.359928 0.202396,-0.567132 0.04669,-0.270445 0.04458,-0.661153 0.02142,-0.956547 -0.01901,-0.242444 -0.149353,-0.44631 -0.176696,-0.664223 -0.102108,-0.790974 0.218182,-0.905412 0.478736,-1.36058 0.13096,-0.226226 0.166986,-0.475262 0.25803,-0.637171 0.436579,-0.774487 1.266381,-1.196732 1.11712,-2.3043 -0.04944,-0.366496 -0.346157,-1.180292 -0.626745,-1.276606 -0.160599,-0.05533 -0.51178,0.03636 -0.743227,-0.0335 -0.746323,-0.213319 -1.242276,-1.077072 -1.998126,-1.075689 -0.162024,-0.007 -0.302657,0.0897 -0.483461,0.101053 -0.298956,0.0036 -0.761952,-0.149648 -1.094108,-0.160915 -0.210975,-0.0063 -0.484105,0.100382 -0.614583,0.04799 -0.198832,-0.07793 -0.245966,-0.428796 -0.410025,-0.521669 -0.13014,-0.07524 -0.373024,-0.08571 -0.566099,-0.143486 -0.311215,-0.09222 -0.561371,-0.208625 -0.911887,-0.205641 -0.10796,0.0048 -0.237575,0.07044 -0.364318,0.06124 -0.195459,-0.01741 -0.365858,-0.233356 -0.552327,-0.327554 -0.233537,-0.117994 -0.444688,-0.16743 -0.552006,-0.353393 0.149759,-0.675155 -0.421387,-0.815473 -0.586723,-1.185892 -0.07896,-0.173463 -0.06578,-0.390649 -0.134502,-0.545525 -0.09793,-0.221891 -0.334262,-0.336099 -0.596966,-0.507071 -0.470684,-0.30629 -0.889556,-0.595687 -1.530134,-0.624241 -0.281708,-0.01356 -0.549136,0.126721 -0.887712,0.132617 -0.358902,0.0052 -0.83166,-0.271377 -1.122688,-0.555177 -0.282995,-0.277148 -0.430245,-0.534216 -0.667627,-0.658732 -0.225084,-0.120745 -0.509094,-0.09459 -0.666353,-0.222471 -0.06996,-0.05544 -0.06688,-0.160557 -0.147978,-0.298129 -0.12526,-0.214268 -0.315805,-0.32392 -0.202319,-0.601226 -0.254285,-0.106272 -0.232982,0.252439 -0.504133,0.227052 -0.264959,-0.319158 -0.478938,-0.46346 -1.012712,-0.322118 -0.244416,0.06485 -0.358278,0.388493 -0.64663,0.418827 -0.235429,0.03808 -0.443762,-0.230397 -0.760215,-0.250325 -0.23877,-0.01403 -0.499816,0.103411 -0.670437,0.08514 -0.265951,-0.03185 -0.363822,-0.243005 -0.615321,-0.381289 -0.184409,-0.101398 -0.540568,-0.270623 -0.638705,-0.259813 -0.306833,0.04365 -0.476864,0.69517 -0.91977,0.503493 -0.22715,-0.245195 0.305361,-0.425345 0.0407,-0.650699 -0.200499,-0.171036 -0.335479,0.110639 -0.476089,0.224861 -0.161147,0.130782 -0.312171,0.259415 -0.495002,0.343649 -0.409085,0.190356 -0.678922,0.128445 -0.994956,0.324018 -0.292598,0.181441 -0.284887,0.446185 -0.433132,0.772849 -0.121036,0.267589 -0.413621,0.66658 -0.624678,0.698639 -0.255585,0.03964 -0.530996,-0.319478 -0.772106,-0.401902 -0.726405,-0.248833 -1.021818,0.351124 -1.604634,0.404474 -0.539922,0.06186 -1.383182,-0.769804 -1.395807,-1.279907 -0.02072,-0.31024 0.117453,-0.794099 0.123736,-1.180368 0.0086,-0.30751 0.203517,-0.507689 0.185207,-0.786333 -0.02557,-0.372131 -0.545894,-0.619167 -0.791116,-0.644405 -0.581458,-0.06043 -1.351008,0.33702 -2.028544,0.125597 -0.141894,-0.197666 0.119389,-0.362296 0.173986,-0.569611 0.03083,-0.117963 -0.0042,-0.269194 0.02749,-0.39864 0.05757,-0.200664 0.250448,-0.367737 0.325873,-0.581471 0.05596,-0.162976 0.05535,-0.391698 0.108705,-0.592657 0.06258,-0.228959 0.199389,-0.383942 0.204394,-0.541487 0.0065,-0.208008 -0.09026,-0.440305 -0.262848,-0.563658 z m 8.710219,5.83972 c 0.209487,0.0033 0.26913,0.429931 0.05891,0.481048 -0.226623,0.05337 -0.37416,-0.332011 -0.160045,-0.452033 0.03579,-0.0225 0.07208,-0.02653 0.101312,-0.02665 l -1.87e-4,-0.0024 z"
       id="path34-7" />
  </g>
</svg>
