<svg xmlns="http://www.w3.org/2000/svg" viewBox="0 0 48 48"><defs><linearGradient id="0" gradientUnits="userSpaceOnUse" x1="55.05" y1="57.62" x2="54.654" y2="36.752"><stop stop-color="#0a80fd"/><stop offset="1" stop-color="#56c5fa"/></linearGradient><linearGradient id="1" y1="542.8" x2="0" y2="507.8" gradientUnits="userSpaceOnUse" gradientTransform="matrix(1.09091 0 0 1.06528-390.8-511.87)"><stop stop-color="#212121"/><stop offset="1" stop-color="#3f3f41"/></linearGradient></defs><g transform="translate(-30.915-23.19)"><rect width="48" height="36.22" x="30.915" y="29.08" fill="url(#1)" rx="1.704"/><g fill="url(#0)"><path d="m34.871 39.29c-.473 0-.748.275-.825.814v.759c0 .462.319.759.957.902.539 0 .814.462.814 1.398v11.09c0 .473.275.748.814.825h.781c.473 0 .748-.275.825-.814v-14.15c0-.473-.275-.748-.814-.825h-2.553"/><path d="m40.14 39.29c-.462 0-.726.275-.803.814v5.722c0 .473.297.759.902.858.363.099.605.264.715.495.11.814.429 1.221.946 1.221h4.798c.539.011.814.055.814.132.451 0 .671.451.671 1.354v1.31c-.022.539-.066.803-.132.803 0 .451-.451.682-1.354.682h-6.559c-.462 0-.726.275-.803.814v.759c0 .473.264.748.803.825h7.857c.473 0 .759-.297.858-.902.099-.363.264-.605.495-.715.803-.121 1.21-.44 1.21-.957v-3.918c0-.473-.297-.759-.902-.858-.363-.099-.605-.264-.715-.495-.11-.814-.429-1.221-.946-1.221h-4.798c-.539-.011-.814-.055-.814-.132-.451 0-.671-.451-.671-1.354v-1.354c.022-.539.066-.803.132-.803 0-.451.451-.682 1.354-.682h6.559c.462 0 .726-.275.803-.814v-.759c0-.473-.264-.748-.803-.825h-9.618"/><path d="m54.3 52.28h2.322v2.795h-2.322v-2.795m0-8.858h2.322v2.795h-2.322v-2.795"/><path d="m60.09 39.29c-.473 0-.748.275-.825.814v.759c0 .462.319.759.957.902.539 0 .814.462.814 1.398v11.09c0 .473.275.748.814.825h.781c.473 0 .748-.275.825-.814v-14.15c0-.473-.275-.748-.814-.825h-2.553"/><path d="m65.36 39.29c-.462 0-.726.275-.803.814v.759c0 .473.264.748.803.825h6.559c.539.022.814.066.814.132.451 0 .671.451.671 1.354v1.354c-.022.539-.066.814-.132.814 0 .451-.451.671-1.354.671h-4.798c-.473 0-.759.297-.858.902-.099.374-.264.616-.495.726-.803.11-1.21.429-1.21.946v3.918c0 .484.297.77.902.858.363.099.605.264.715.495.11.814.429 1.221.946 1.221h7.857c.462 0 .726-.275.803-.814v-.759c0-.473-.264-.748-.803-.825h-6.559c-.539-.022-.814-.066-.814-.132-.451 0-.671-.451-.671-1.354v-1.31c.022-.539.066-.814.132-.814 0-.451.451-.671 1.354-.671h4.798c.473 0 .759-.297.858-.902.099-.374.264-.616.495-.726.803-.11 1.21-.429 1.21-.946v-3.962c0-.484-.297-.77-.902-.858-.363-.099-.605-.264-.715-.495-.11-.814-.429-1.221-.946-1.221h-7.857"/></g></g></svg>