<?xml version="1.0" encoding="UTF-8" standalone="no"?>
<svg
   xmlns:osb="http://www.openswatchbook.org/uri/2009/osb"
   xmlns:dc="http://purl.org/dc/elements/1.1/"
   xmlns:cc="http://creativecommons.org/ns#"
   xmlns:rdf="http://www.w3.org/1999/02/22-rdf-syntax-ns#"
   xmlns:svg="http://www.w3.org/2000/svg"
   xmlns="http://www.w3.org/2000/svg"
   xmlns:xlink="http://www.w3.org/1999/xlink"
   xmlns:sodipodi="http://sodipodi.sourceforge.net/DTD/sodipodi-0.dtd"
   xmlns:inkscape="http://www.inkscape.org/namespaces/inkscape"
   viewBox="0 0 48 48"
   id="svg2"
   version="1.1"
   inkscape:version="0.91 r13725"
   sodipodi:docname="org.kde.redshiftControl.svg">
  <metadata
     id="metadata77">
    <rdf:RDF>
      <cc:Work
         rdf:about="">
        <dc:format>image/svg+xml</dc:format>
        <dc:type
           rdf:resource="http://purl.org/dc/dcmitype/StillImage" />
        <dc:title></dc:title>
      </cc:Work>
    </rdf:RDF>
  </metadata>
  <sodipodi:namedview
     pagecolor="#5e5e5e"
     bordercolor="#666666"
     borderopacity="1"
     objecttolerance="10"
     gridtolerance="10"
     guidetolerance="10"
     inkscape:pageopacity="0"
     inkscape:pageshadow="2"
     inkscape:window-width="1366"
     inkscape:window-height="687"
     id="namedview75"
     showgrid="false"
     showborder="false"
     inkscape:zoom="2.4583333"
     inkscape:cx="29.711838"
     inkscape:cy="6.6573779"
     inkscape:window-x="0"
     inkscape:window-y="0"
     inkscape:window-maximized="1"
     inkscape:current-layer="g4320" />
  <defs
     id="defs4">
    <linearGradient
       id="linearGradient4232">
      <stop
         id="stop4234-0"
         offset="0"
         style="stop-color:#3889e9;stop-opacity:1" />
      <stop
         id="stop4236"
         offset="1"
         style="stop-color:#5ea5fb;stop-opacity:1" />
    </linearGradient>
    <linearGradient
       osb:paint="gradient"
       id="linearGradient4207">
      <stop
         id="stop3371"
         offset="0"
         style="stop-color:#3498db;stop-opacity:1;" />
      <stop
         id="stop3373"
         offset="1"
         style="stop-color:#3498db;stop-opacity:0;" />
    </linearGradient>
    <linearGradient
       id="linearGradient4422">
      <stop
         style="stop-color:#ff9300;stop-opacity:1"
         offset="0"
         id="stop4424" />
      <stop
         style="stop-color:#ffd702;stop-opacity:1"
         offset="1"
         id="stop4426" />
    </linearGradient>
    <linearGradient
       inkscape:collect="always"
       xlink:href="#linearGradient4232"
       id="linearGradient4237"
       x1="399.57144"
       y1="545.79797"
       x2="399.57144"
       y2="517.79797"
       gradientUnits="userSpaceOnUse" />
    <linearGradient
       id="linearGradient4180-0">
      <stop
         style="stop-color:#2b65bd;stop-opacity:1"
         offset="0"
         id="stop4182-2" />
      <stop
         style="stop-color:#64a3dc;stop-opacity:1"
         offset="1"
         id="stop4184-3" />
    </linearGradient>
    <linearGradient
       id="linearGradient8467">
      <stop
         offset="0"
         style="stop-color:#d3d3d3;stop-opacity:1"
         id="stop8469" />
      <stop
         offset="1"
         style="stop-color:#fcf9f9;stop-opacity:1"
         id="stop8471" />
    </linearGradient>
    <linearGradient
       id="linearGradient4422-1">
      <stop
         id="stop4424-0"
         offset="0"
         style="stop-color:#f15f19;stop-opacity:1" />
      <stop
         id="stop4426-0"
         offset="1"
         style="stop-color:#fbb521;stop-opacity:1" />
    </linearGradient>
    <linearGradient
       gradientUnits="userSpaceOnUse"
       y2="517.79797"
       x2="399.57144"
       y1="545.79797"
       x1="399.57144"
       id="linearGradient3426"
       xlink:href="#linearGradient4232"
       inkscape:collect="always" />
    <linearGradient
       y2="518.13873"
       x2="399.9939"
       y1="545.13873"
       x1="399.9939"
       gradientUnits="userSpaceOnUse"
       id="linearGradient4181"
       xlink:href="#linearGradient5076"
       inkscape:collect="always" />
    <linearGradient
       gradientUnits="userSpaceOnUse"
       y2="517.79797"
       x2="399.57144"
       y1="545.79797"
       x1="399.57144"
       id="linearGradient4247"
       xlink:href="#linearGradient4232"
       inkscape:collect="always" />
    <linearGradient
       id="linearGradient5076"
       inkscape:collect="always">
      <stop
         id="stop5078"
         offset="0"
         style="stop-color:#ff5353;stop-opacity:1" />
      <stop
         id="stop5080"
         offset="1"
         style="stop-color:#ff8c8c;stop-opacity:1" />
    </linearGradient>
  </defs>
  <g
     id="g33" />
  <g
     transform="translate(-384.57143,-499.798)"
     id="layer1"
     inkscape:label="Capa 1">
    <g
       transform="matrix(1.0931221,0,0,1.0931221,33.310366,-50.486049)"
       id="g4471">
      <g
         transform="matrix(1.5444819,0,0,1.5444819,-275.38426,-295.80854)"
         id="layer1-39"
         inkscape:label="Capa 1" />
      <g
         transform="matrix(1.0749621,0,0,1.0749621,-25.740011,-39.758871)"
         id="g4317">
        <g
           id="g4320"
           transform="matrix(0.9445804,0,0,0.9445804,18.835253,29.227482)">
          <g
             style="stroke:none;stroke-width:1.29989684;stroke-miterlimit:4;stroke-dasharray:none;stroke-opacity:1"
             transform="matrix(1.5444819,0,0,1.5444819,-275.17538,-295.73877)"
             inkscape:label="Capa 1"
             id="layer1-3">
            <circle
               style="opacity:1;fill:url(#linearGradient4181);fill-opacity:1.0;stroke:none;stroke-width:0.94059104;stroke-miterlimit:4;stroke-dasharray:none;stroke-dashoffset:0;stroke-opacity:1"
               id="path3377"
               cx="400.57138"
               cy="531.79791"
               r="13.999958" />
            <circle
               r="13.999958"
               cy="531.79797"
               cx="400.57144"
               id="circle4174"
               style="opacity:1;fill:#5ea5fb;fill-opacity:0;stroke:none;stroke-width:1.29989684;stroke-miterlimit:4;stroke-dasharray:none;stroke-dashoffset:0;stroke-opacity:1" />
            <circle
               r="0"
               cy="531.79791"
               cx="400.57138"
               id="ellipse4233"
               style="opacity:1;fill:url(#linearGradient3426);fill-opacity:1;stroke:none;stroke-width:1.29989684;stroke-miterlimit:4;stroke-dasharray:none;stroke-dashoffset:0;stroke-opacity:1" />
          </g>
          <g
             transform="matrix(1.576657,0,0,1.576657,-187.8335,-334.2356)"
             id="layer1-8"
             inkscape:label="Capa 1"
             style="fill:#ffffff;fill-opacity:0.84677423">
            <g
               style="fill:#ffffff;fill-opacity:0.84677423"
               transform="matrix(0.03240428,0,0,0.03240428,330,536.3622)"
               id="g3">
              <g
                 transform="translate(-30.860067,30.860089)"
                 style="fill:#ffffff;fill-opacity:0.84677423"
                 id="g5">
                <g
                   style="fill:#ffffff;fill-opacity:0.84677423"
                   id="Icons_15_">
                  <g
                     style="fill:#ffffff;fill-opacity:0.84677423"
                     id="g8">
                    <path
                       style="fill:#ffffff;fill-opacity:0.84677423"
                       inkscape:connector-curvature="0"
                       id="path10"
                       d="m 290.652,402.646 -87.595,0 c -6.781,0 -12.283,5.503 -12.283,12.283 0,6.785 5.502,12.287 12.283,12.287 l 87.595,0 c 6.781,0 12.289,-5.502 12.289,-12.287 0.001,-6.78 -5.506,-12.283 -12.289,-12.283 z" />
                    <path
                       style="fill:#ffffff;fill-opacity:0.84677423"
                       inkscape:connector-curvature="0"
                       id="path12"
                       d="m 224.299,474.245 c 1.666,11.026 11.086,19.517 22.586,19.517 11.488,0 20.93,-8.487 22.589,-19.517 15.037,-0.888 26.987,-13.245 26.987,-28.504 l -99.211,0 c 0,15.268 11.985,27.634 27.049,28.504 z" />
                    <path
                       style="fill:#ffffff;fill-opacity:0.84677423"
                       inkscape:connector-curvature="0"
                       id="path14"
                       d="m 246.884,70.87 c 9.062,0 16.387,-7.335 16.387,-16.381 l 0,-38.108 C 263.271,7.332 255.947,0 246.884,0 237.831,0 230.507,7.332 230.507,16.381 l 0,38.108 c 0.001,9.046 7.325,16.381 16.377,16.381 z" />
                    <path
                       style="fill:#ffffff;fill-opacity:0.84677423"
                       inkscape:connector-curvature="0"
                       id="path16"
                       d="m 139.39,94.736 c 3.217,4.417 8.209,6.761 13.283,6.761 3.326,0 6.699,-1.017 9.609,-3.129 7.313,-5.312 8.945,-15.555 3.633,-22.873 l -22.396,-30.84 c -5.326,-7.312 -15.549,-8.96 -22.887,-3.632 -7.311,5.309 -8.943,15.555 -3.631,22.873 l 22.389,30.84 z" />
                    <path
                       style="fill:#ffffff;fill-opacity:0.84677423"
                       inkscape:connector-curvature="0"
                       id="path18"
                       d="m 354.354,334.861 c -5.313,-7.312 -15.549,-8.934 -22.881,-3.621 -7.306,5.317 -8.937,15.562 -3.61,22.879 l 22.409,30.841 c 3.196,4.407 8.188,6.753 13.265,6.753 3.338,0 6.698,-1.017 9.608,-3.128 7.312,-5.319 8.942,-15.565 3.619,-22.884 l -22.41,-30.84 z" />
                    <path
                       style="fill:#ffffff;fill-opacity:0.84677423"
                       inkscape:connector-curvature="0"
                       id="path20"
                       d="M 99.502,149.684 63.25,137.894 c -8.686,-2.799 -17.846,1.911 -20.648,10.518 -2.803,8.597 1.904,17.843 10.508,20.642 l 36.252,11.79 c 1.693,0.544 3.387,0.809 5.066,0.809 6.91,0 13.324,-4.4 15.582,-11.327 2.802,-8.597 -1.904,-17.844 -10.508,-20.642 z" />
                    <path
                       style="fill:#ffffff;fill-opacity:0.84677423"
                       inkscape:connector-curvature="0"
                       id="path22"
                       d="m 440.649,260.538 -36.243,-11.773 c -8.611,-2.778 -17.841,1.918 -20.638,10.516 -2.802,8.606 1.918,17.848 10.521,20.646 l 36.252,11.772 c 1.681,0.545 3.373,0.807 5.054,0.807 6.909,0 13.323,-4.407 15.581,-11.324 2.795,-8.61 -1.918,-17.845 -10.527,-20.644 z" />
                    <path
                       style="fill:#ffffff;fill-opacity:0.84677423"
                       inkscape:connector-curvature="0"
                       id="path24"
                       d="M 89.375,248.765 53.11,260.522 c -8.604,2.79 -13.324,12.026 -10.521,20.635 2.238,6.927 8.664,11.334 15.574,11.334 1.668,0 3.381,-0.267 5.061,-0.811 l 36.258,-11.756 c 8.611,-2.792 13.33,-12.03 10.529,-20.635 -2.782,-8.6 -11.952,-13.303 -20.636,-10.524 z" />
                    <path
                       style="fill:#ffffff;fill-opacity:0.84677423"
                       inkscape:connector-curvature="0"
                       id="path26"
                       d="m 399.35,181.653 c 1.681,0 3.373,-0.265 5.056,-0.809 l 36.243,-11.773 c 8.608,-2.799 13.322,-12.039 10.526,-20.642 -2.803,-8.6 -12.077,-13.3 -20.635,-10.518 l -36.252,11.772 c -8.604,2.798 -13.322,12.038 -10.521,20.642 2.253,6.921 8.673,11.328 15.583,11.328 z" />
                    <path
                       style="fill:#ffffff;fill-opacity:0.84677423"
                       inkscape:connector-curvature="0"
                       id="path28"
                       d="m 139.412,334.855 -22.431,30.822 c -5.326,7.318 -3.707,17.563 3.619,22.883 2.896,2.119 6.27,3.138 9.609,3.138 5.074,0 10.066,-2.336 13.264,-6.744 l 22.43,-30.824 c 5.326,-7.316 3.707,-17.562 -3.619,-22.883 -7.293,-5.349 -17.582,-3.709 -22.872,3.608 z" />
                    <path
                       style="fill:#ffffff;fill-opacity:0.84677423"
                       inkscape:connector-curvature="0"
                       id="path30"
                       d="m 350.258,44.654 -22.396,30.84 c -5.312,7.318 -3.681,17.562 3.633,22.873 2.91,2.112 6.283,3.129 9.608,3.129 5.074,0 10.065,-2.343 13.276,-6.761 l 22.396,-30.841 c 5.311,-7.318 3.68,-17.564 -3.634,-22.873 -7.355,-5.341 -17.557,-3.695 -22.883,3.633 z" />
                    <path
                       style="fill:#ffffff;fill-opacity:0.84677423"
                       inkscape:connector-curvature="0"
                       id="path32"
                       d="m 365.194,215.404 c 0,-65.354 -52.976,-118.333 -118.322,-118.333 -65.359,0 -118.336,52.979 -118.336,118.333 0,27.569 9.482,52.884 25.322,72.981 13.881,17.612 27.027,36.839 38.42,56.187 l 0,39.306 108.516,0 0,-38.263 c 11.288,-18.818 25.881,-40.484 39.065,-57.211 15.854,-20.103 25.335,-45.413 25.335,-73 z" />
                  </g>
                </g>
              </g>
            </g>
          </g>
        </g>
      </g>
    </g>
  </g>
</svg>
