<?xml version="1.0" encoding="UTF-8" standalone="no"?>
<!-- Created with Inkscape (http://www.inkscape.org/) -->

<svg
   xmlns:osb="http://www.openswatchbook.org/uri/2009/osb"
   xmlns:dc="http://purl.org/dc/elements/1.1/"
   xmlns:cc="http://creativecommons.org/ns#"
   xmlns:rdf="http://www.w3.org/1999/02/22-rdf-syntax-ns#"
   xmlns:svg="http://www.w3.org/2000/svg"
   xmlns="http://www.w3.org/2000/svg"
   xmlns:xlink="http://www.w3.org/1999/xlink"
   xmlns:sodipodi="http://sodipodi.sourceforge.net/DTD/sodipodi-0.dtd"
   xmlns:inkscape="http://www.inkscape.org/namespaces/inkscape"
   width="48"
   height="48"
   id="svg5453"
   version="1.1"
   inkscape:version="0.91 r13725"
   sodipodi:docname="org.kde.plasma.binaryclock.svg">
  <defs
     id="defs5455">
    <linearGradient
       id="linearGradient4143"
       inkscape:collect="always">
      <stop
         id="stop4145"
         offset="0"
         style="stop-color:#197cf1;stop-opacity:1" />
      <stop
         id="stop4147"
         offset="1"
         style="stop-color:#20bcfa;stop-opacity:1" />
    </linearGradient>
    <linearGradient
       inkscape:collect="always"
       xlink:href="#linearGradient4503"
       id="linearGradient4224"
       gradientUnits="userSpaceOnUse"
       gradientTransform="matrix(1.4285729,0,0,1.4285729,-163.67403,-235.91408)"
       x1="400.57138"
       y1="545.79797"
       x2="400.57138"
       y2="517.79797" />
    <linearGradient
       inkscape:collect="always"
       xlink:href="#linearGradient4143"
       id="linearGradient4190"
       x1="98.63311"
       y1="297.16757"
       x2="96.016632"
       y2="-22.866228"
       gradientUnits="userSpaceOnUse" />
    <linearGradient
       inkscape:collect="always"
       xlink:href="#linearGradient4143"
       id="linearGradient4192"
       gradientUnits="userSpaceOnUse"
       x1="98.63311"
       y1="297.16757"
       x2="96.016632"
       y2="-22.866228" />
    <linearGradient
       inkscape:collect="always"
       xlink:href="#linearGradient4143"
       id="linearGradient4194"
       gradientUnits="userSpaceOnUse"
       x1="98.63311"
       y1="297.16757"
       x2="96.016632"
       y2="-22.866228" />
    <linearGradient
       inkscape:collect="always"
       xlink:href="#linearGradient4143"
       id="linearGradient4196"
       gradientUnits="userSpaceOnUse"
       x1="98.63311"
       y1="297.16757"
       x2="96.016632"
       y2="-22.866228" />
    <linearGradient
       inkscape:collect="always"
       xlink:href="#linearGradient4143"
       id="linearGradient4198"
       gradientUnits="userSpaceOnUse"
       x1="98.63311"
       y1="297.16757"
       x2="96.016632"
       y2="-22.866228" />
    <linearGradient
       inkscape:collect="always"
       xlink:href="#linearGradient4143"
       id="linearGradient4200"
       gradientUnits="userSpaceOnUse"
       x1="98.63311"
       y1="297.16757"
       x2="96.016632"
       y2="-22.866228" />
    <linearGradient
       inkscape:collect="always"
       xlink:href="#linearGradient4143"
       id="linearGradient4202"
       gradientUnits="userSpaceOnUse"
       x1="98.63311"
       y1="297.16757"
       x2="96.016632"
       y2="-22.866228" />
    <linearGradient
       inkscape:collect="always"
       xlink:href="#linearGradient4143"
       id="linearGradient4204"
       gradientUnits="userSpaceOnUse"
       x1="98.63311"
       y1="297.16757"
       x2="96.016632"
       y2="-22.866228" />
    <linearGradient
       inkscape:collect="always"
       xlink:href="#linearGradient4143"
       id="linearGradient4206"
       gradientUnits="userSpaceOnUse"
       x1="98.63311"
       y1="297.16757"
       x2="96.016632"
       y2="-22.866228" />
    <linearGradient
       inkscape:collect="always"
       xlink:href="#linearGradient4143"
       id="linearGradient4208"
       gradientUnits="userSpaceOnUse"
       x1="98.63311"
       y1="297.16757"
       x2="96.016632"
       y2="-22.866228" />
    <linearGradient
       osb:paint="gradient"
       id="linearGradient4207">
      <stop
         id="stop3371"
         offset="0"
         style="stop-color:#3498db;stop-opacity:1;" />
      <stop
         id="stop3373"
         offset="1"
         style="stop-color:#3498db;stop-opacity:0;" />
    </linearGradient>
    <linearGradient
       id="linearGradient4503"
       inkscape:collect="always">
      <stop
         id="stop4505-8"
         offset="0"
         style="stop-color:#212121;stop-opacity:1" />
      <stop
         id="stop4507"
         offset="1"
         style="stop-color:#3f3f41;stop-opacity:1" />
    </linearGradient>
  </defs>
  <sodipodi:namedview
     id="base"
     pagecolor="#616161"
     bordercolor="#ffffff"
     borderopacity="1"
     inkscape:pageopacity="0"
     inkscape:pageshadow="2"
     inkscape:zoom="5.7452425"
     inkscape:cx="-32.018965"
     inkscape:cy="22.188573"
     inkscape:document-units="px"
     inkscape:current-layer="layer1"
     showgrid="false"
     fit-margin-top="0"
     fit-margin-left="0"
     fit-margin-right="0"
     fit-margin-bottom="0"
     inkscape:window-width="1366"
     inkscape:window-height="687"
     inkscape:window-x="0"
     inkscape:window-y="0"
     inkscape:window-maximized="1"
     inkscape:showpageshadow="false"
     borderlayer="true"
     showguides="false"
     showborder="false">
    <inkscape:grid
       type="xygrid"
       id="grid4063" />
    <sodipodi:guide
       position="1.1650391e-05,43.999996"
       orientation="-2.5000018e-07,1"
       id="guide4148" />
    <sodipodi:guide
       position="48.000012,43.999996"
       orientation="-4,0"
       id="guide4150" />
    <sodipodi:guide
       position="48.000012,47.999996"
       orientation="0,-48"
       id="guide4152" />
    <sodipodi:guide
       position="1.1650391e-05,4.0000264"
       orientation="4,0"
       id="guide4154" />
    <sodipodi:guide
       position="1.1650391e-05,2.6367188e-05"
       orientation="0,48"
       id="guide4156" />
    <sodipodi:guide
       position="48.000012,2.6367188e-05"
       orientation="-4,0"
       id="guide4158" />
    <sodipodi:guide
       position="48.000012,4.0000264"
       orientation="0,-48"
       id="guide4160" />
    <sodipodi:guide
       position="48.000012,48.000026"
       orientation="0,-4"
       id="guide4162" />
    <sodipodi:guide
       position="44.000012,48.000026"
       orientation="48,0"
       id="guide4164" />
    <sodipodi:guide
       position="44.000012,2.6367188e-05"
       orientation="0,4"
       id="guide4166" />
    <sodipodi:guide
       position="48.000012,2.6367188e-05"
       orientation="-48,0"
       id="guide4168" />
    <sodipodi:guide
       position="4.0000422,48.000026"
       orientation="0,-4"
       id="guide4170" />
    <sodipodi:guide
       position="4.2167969e-05,48.000026"
       orientation="48,0"
       id="guide4172" />
    <sodipodi:guide
       position="4.2167969e-05,2.6367188e-05"
       orientation="0,4"
       id="guide4174" />
    <sodipodi:guide
       position="4.0000422,2.6367188e-05"
       orientation="-48,0"
       id="guide4176" />
  </sodipodi:namedview>
  <metadata
     id="metadata5458">
    <rdf:RDF>
      <cc:Work
         rdf:about="">
        <dc:format>image/svg+xml</dc:format>
        <dc:type
           rdf:resource="http://purl.org/dc/dcmitype/StillImage" />
        <dc:title />
      </cc:Work>
    </rdf:RDF>
  </metadata>
  <g
     inkscape:label="Capa 1"
     inkscape:groupmode="layer"
     id="layer1"
     transform="translate(-384.57143,-499.798)">
    <g
       id="g4178"
       transform="matrix(1.0434783,0,0,1.0434783,-17.763991,-22.773846)">
      <g
         transform="matrix(1.15,0,0,1.15,-61.285728,-78.569705)"
         id="g4280">
        <rect
           ry="20"
           y="503.798"
           x="388.57144"
           height="40"
           width="40"
           id="rect4222"
           style="opacity:1;fill:url(#linearGradient4224);fill-opacity:1.0;stroke:none" />
      </g>
      <g
         style="fill:url(#linearGradient4190);fill-opacity:1"
         transform="matrix(0.10707457,0,0,0.10707457,394.57136,509.798)"
         id="g3">
        <path
           style="fill:url(#linearGradient4192);fill-opacity:1"
           inkscape:connector-curvature="0"
           id="path5-9"
           d="m 37.984,161.696 c 0,4.142 3.358,7.5 7.5,7.5 4.142,0 7.5,-3.358 7.5,-7.5 l 0,-58.627 c 0,-3.034 -1.827,-5.768 -4.63,-6.929 -2.801,-1.16 -6.028,-0.519 -8.173,1.626 L 21.177,116.77 c -2.929,2.929 -2.929,7.678 0,10.606 2.929,2.929 7.678,2.929 10.606,0 l 6.201,-6.201 0,40.521 z" />
        <path
           style="fill:url(#linearGradient4194);fill-opacity:1"
           inkscape:connector-curvature="0"
           id="path7"
           d="m 82.279,31.807 6.201,-6.201 0,40.521 c 0,4.142 3.358,7.5 7.5,7.5 4.142,0 7.5,-3.358 7.5,-7.5 l 0,-58.627 c 0,-3.034 -1.827,-5.768 -4.63,-6.929 -2.801,-1.16 -6.028,-0.519 -8.173,1.626 L 71.673,21.201 c -2.929,2.929 -2.929,7.678 0,10.606 2.929,2.929 7.678,2.929 10.606,0 z" />
        <path
           style="fill:url(#linearGradient4196);fill-opacity:1"
           inkscape:connector-curvature="0"
           id="path9"
           d="m 167.815,96.14 c -2.801,-1.16 -6.028,-0.519 -8.173,1.626 l -19.004,19.004 c -2.929,2.929 -2.929,7.678 0,10.606 2.929,2.929 7.678,2.929 10.606,0 l 6.201,-6.201 0,40.521 c 0,4.142 3.358,7.5 7.5,7.5 4.142,0 7.5,-3.358 7.5,-7.5 l 0,-58.627 c 0,-3.033 -1.827,-5.768 -4.63,-6.929 z" />
        <path
           style="fill:url(#linearGradient4198);fill-opacity:1"
           inkscape:connector-curvature="0"
           id="path11"
           d="m 135.217,188.445 c -2.801,-1.16 -6.028,-0.519 -8.173,1.626 l -19.004,19.004 c -2.929,2.929 -2.929,7.678 0,10.606 2.929,2.929 7.678,2.929 10.606,0 l 6.201,-6.201 0,22.197 c 0,4.142 3.358,7.5 7.5,7.5 4.142,0 7.5,-3.358 7.5,-7.5 l 0,-40.303 c 0,-3.034 -1.827,-5.768 -4.63,-6.929 z" />
        <path
           style="fill:url(#linearGradient4200);fill-opacity:1"
           inkscape:connector-curvature="0"
           id="path13"
           d="m 122.504,143.42 0,-22.074 c 0,-14.213 -11.563,-25.776 -25.776,-25.776 l -0.369,0 c -14.213,0 -25.776,11.563 -25.776,25.776 l 0,22.074 c 0,14.213 11.563,25.776 25.776,25.776 l 0.369,0 c 14.213,0 25.776,-11.563 25.776,-25.776 z m -15,0 c 0,5.942 -4.834,10.776 -10.776,10.776 l -0.369,0 c -5.942,0 -10.776,-4.834 -10.776,-10.776 l 0,-22.074 c 0,-5.942 4.834,-10.776 10.776,-10.776 l 0.369,0 c 5.942,0 10.776,4.834 10.776,10.776 l 0,22.074 z" />
        <path
           style="fill:url(#linearGradient4202);fill-opacity:1"
           inkscape:connector-curvature="0"
           id="path15"
           d="m 216.745,95.569 -0.369,0 c -14.213,0 -25.776,11.563 -25.776,25.776 l 0,22.074 c 0,14.213 11.563,25.776 25.776,25.776 l 0.369,0 c 14.213,0 25.776,-11.563 25.776,-25.776 l 0,-22.074 c 0,-14.212 -11.563,-25.776 -25.776,-25.776 z m 10.776,47.851 c 0,5.942 -4.834,10.776 -10.776,10.776 l -0.369,0 c -5.942,0 -10.776,-4.834 -10.776,-10.776 l 0,-22.074 c 0,-5.942 4.834,-10.776 10.776,-10.776 l 0.369,0 c 5.942,0 10.776,4.834 10.776,10.776 l 0,22.074 z" />
        <path
           style="fill:url(#linearGradient4204);fill-opacity:1"
           inkscape:connector-curvature="0"
           id="path17"
           d="m 147.224,0 -0.369,0 c -14.213,0 -25.776,11.563 -25.776,25.776 l 0,22.074 c 0,14.213 11.563,25.776 25.776,25.776 l 0.369,0 c 4.142,0 7.5,-3.358 7.5,-7.5 0,-4.142 -3.358,-7.5 -7.5,-7.5 l -0.369,0 c -5.942,0 -10.776,-4.834 -10.776,-10.776 l 0,-22.074 C 136.079,19.834 140.913,15 146.855,15 l 0.369,0 c 5.942,0 10.776,4.834 10.776,10.776 0,4.142 3.358,7.5 7.5,7.5 4.142,0 7.5,-3.358 7.5,-7.5 C 173.001,11.563 161.438,0 147.224,0 Z" />
        <path
           style="fill:url(#linearGradient4206);fill-opacity:1"
           inkscape:connector-curvature="0"
           id="path19"
           d="m 216.745,0 -0.369,0 C 202.163,0 190.6,11.563 190.6,25.776 l 0,22.074 c 0,14.213 11.563,25.776 25.776,25.776 l 0.369,0 c 14.213,0 25.776,-11.563 25.776,-25.776 l 0,-22.074 C 242.521,11.563 230.958,0 216.745,0 Z m 10.776,47.851 c 0,5.942 -4.834,10.776 -10.776,10.776 l -0.369,0 c -5.942,0 -10.776,-4.834 -10.776,-10.776 l 0,-22.075 C 205.6,19.834 210.434,15 216.376,15 l 0.369,0 c 5.942,0 10.776,4.834 10.776,10.776 l 0,22.075 z" />
        <path
           style="fill:url(#linearGradient4208);fill-opacity:1"
           inkscape:connector-curvature="0"
           id="path21"
           d="m 61.682,187.874 -0.369,0 c -14.213,0 -25.776,11.563 -25.776,25.776 l 0,22.074 c 0,14.213 11.563,25.776 25.776,25.776 l 0.369,0 c 14.213,0 25.776,-11.563 25.776,-25.776 l 0,-22.074 C 87.459,199.438 75.896,187.874 61.682,187.874 Z m 10.777,47.851 c 0,5.942 -4.834,10.776 -10.776,10.776 l -0.369,0 c -5.942,0 -10.776,-4.834 -10.776,-10.776 l 0,-22.075 c 0,-5.942 4.834,-10.776 10.776,-10.776 l 0.369,0 c 5.942,0 10.776,4.834 10.776,10.776 l 0,22.075 z" />
      </g>
    </g>
  </g>
</svg>
