<?xml version="1.0" encoding="UTF-8" standalone="no"?>
<svg
   xmlns:dc="http://purl.org/dc/elements/1.1/"
   xmlns:cc="http://creativecommons.org/ns#"
   xmlns:rdf="http://www.w3.org/1999/02/22-rdf-syntax-ns#"
   xmlns:svg="http://www.w3.org/2000/svg"
   xmlns="http://www.w3.org/2000/svg"
   xmlns:xlink="http://www.w3.org/1999/xlink"
   xmlns:sodipodi="http://sodipodi.sourceforge.net/DTD/sodipodi-0.dtd"
   xmlns:inkscape="http://www.inkscape.org/namespaces/inkscape"
   viewBox="0 0 48 48"
   id="svg2"
   version="1.1"
   inkscape:version="0.91 r13725"
   sodipodi:docname="org.kde.plasma.digitalclock.svg">
  <metadata
     id="metadata34">
    <rdf:RDF>
      <cc:Work
         rdf:about="">
        <dc:format>image/svg+xml</dc:format>
        <dc:type
           rdf:resource="http://purl.org/dc/dcmitype/StillImage" />
        <dc:title></dc:title>
      </cc:Work>
    </rdf:RDF>
  </metadata>
  <sodipodi:namedview
     pagecolor="#848484"
     bordercolor="#666666"
     borderopacity="1"
     objecttolerance="10"
     gridtolerance="10"
     guidetolerance="10"
     inkscape:pageopacity="0"
     inkscape:pageshadow="2"
     inkscape:window-width="1366"
     inkscape:window-height="684"
     id="namedview32"
     showgrid="false"
     inkscape:zoom="4.9166667"
     inkscape:cx="25.830508"
     inkscape:cy="24"
     inkscape:window-x="0"
     inkscape:window-y="0"
     inkscape:window-maximized="1"
     inkscape:current-layer="svg2" />
  <defs
     id="defs4">
    <linearGradient
       id="0"
       gradientUnits="userSpaceOnUse"
       x1="55.05"
       y1="57.62"
       x2="54.654"
       y2="36.752">
      <stop
         stop-color="#0a80fd"
         id="stop7" />
      <stop
         offset="1"
         stop-color="#56c5fa"
         id="stop9" />
    </linearGradient>
    <linearGradient
       inkscape:collect="always"
       xlink:href="#0-9"
       id="linearGradient4188"
       x1="57.15229"
       y1="66.105255"
       x2="55.93195"
       y2="29.698477"
       gradientUnits="userSpaceOnUse" />
    <linearGradient
       id="linearGradient4256"
       gradientUnits="userSpaceOnUse"
       x1="346.57"
       y1="513.8"
       x2="361.57"
       y2="528.8">
      <stop
         id="stop4258"
         stop-color="#2e5d89" />
      <stop
         id="stop4260"
         stop-color="#1b92f4"
         offset="1" />
    </linearGradient>
    <linearGradient
       inkscape:collect="always"
       xlink:href="#0"
       id="linearGradient4300"
       x1="25.503742"
       y1="32.943295"
       x2="25.94998"
       y2="8.7399035"
       gradientUnits="userSpaceOnUse" />
    <linearGradient
       id="0-9"
       y1="7.758"
       x2="0"
       y2="-19.542"
       gradientUnits="userSpaceOnUse">
      <stop
         id="stop4276"
         stop-color="#dce2ff" />
      <stop
         id="stop4278"
         stop-color="#f8feff"
         offset="1" />
    </linearGradient>
  </defs>
  <g
     transform="translate(-30.915001,-23.190001)"
     id="g16">
    <rect
       width="48"
       height="36.220001"
       x="30.915001"
       y="29.08"
       rx="1.704"
       id="rect18"
       style="fill:url(#linearGradient4188);fill-opacity:1.0" />
    <g
       style="fill:url(#0)"
       id="g20">
      <path
         style="fill:url(#linearGradient4300);fill-opacity:1"
         d="M 3.9550781 16.099609 C 3.4820781 16.099609 3.2078594 16.375063 3.1308594 16.914062 L 3.1308594 17.673828 C 3.1308594 18.135828 3.4498906 18.431219 4.0878906 18.574219 C 4.6268906 18.574219 4.9023438 19.036656 4.9023438 19.972656 L 4.9023438 31.0625 C 4.9023438 31.5355 5.1777969 31.811672 5.7167969 31.888672 L 6.4960938 31.888672 C 6.9690937 31.888672 7.2452656 31.613219 7.3222656 31.074219 L 7.3222656 16.923828 C 7.3222656 16.450828 7.0468125 16.176609 6.5078125 16.099609 L 3.9550781 16.099609 z M 9.2246094 16.099609 C 8.7626094 16.099609 8.498875 16.375063 8.421875 16.914062 L 8.421875 22.636719 C 8.421875 23.109719 8.7192187 23.395141 9.3242188 23.494141 C 9.6872187 23.593141 9.9290625 23.757281 10.039062 23.988281 C 10.149062 24.802281 10.467375 25.210938 10.984375 25.210938 L 15.783203 25.210938 C 16.322203 25.221938 16.597656 25.264797 16.597656 25.341797 C 17.048656 25.341797 17.267578 25.792313 17.267578 26.695312 L 17.267578 28.005859 C 17.245578 28.544859 17.202719 28.808594 17.136719 28.808594 C 17.136719 29.259594 16.68425 29.490234 15.78125 29.490234 L 9.2226562 29.490234 C 8.7606562 29.490234 8.4969219 29.765688 8.4199219 30.304688 L 8.4199219 31.064453 C 8.4199219 31.537453 8.6836563 31.811672 9.2226562 31.888672 L 17.080078 31.888672 C 17.553078 31.888672 17.8385 31.591328 17.9375 30.986328 C 18.0365 30.623328 18.202594 30.381484 18.433594 30.271484 C 19.236594 30.150484 19.642578 29.831453 19.642578 29.314453 L 19.642578 25.396484 C 19.642578 24.923484 19.345234 24.638062 18.740234 24.539062 C 18.377234 24.440063 18.135391 24.275922 18.025391 24.044922 C 17.915391 23.230922 17.597078 22.822266 17.080078 22.822266 L 12.28125 22.822266 C 11.74225 22.811266 11.46875 22.768406 11.46875 22.691406 C 11.01775 22.691406 10.796875 22.240891 10.796875 21.337891 L 10.796875 19.982422 C 10.818875 19.443422 10.863688 19.179688 10.929688 19.179688 C 10.929688 18.728687 11.380203 18.498047 12.283203 18.498047 L 18.841797 18.498047 C 19.303797 18.498047 19.567531 18.222594 19.644531 17.683594 L 19.644531 16.925781 C 19.644531 16.452781 19.380797 16.176609 18.841797 16.099609 L 9.2246094 16.099609 z M 29.173828 16.099609 C 28.702124 16.100429 28.426494 16.375867 28.349609 16.914062 L 28.349609 17.673828 C 28.349609 18.135828 28.668641 18.431219 29.306641 18.574219 C 29.845641 18.574219 30.121094 19.036656 30.121094 19.972656 L 30.121094 31.0625 C 30.121094 31.5355 30.396547 31.811672 30.935547 31.888672 L 31.716797 31.888672 C 32.189797 31.888672 32.464016 31.613219 32.541016 31.074219 L 32.541016 16.923828 C 32.541016 16.450828 32.265563 16.176609 31.726562 16.099609 L 29.175781 16.099609 L 29.173828 16.099609 z M 34.445312 16.099609 C 33.983312 16.099609 33.719578 16.375063 33.642578 16.914062 L 33.642578 17.673828 C 33.642578 18.146828 33.906312 18.421047 34.445312 18.498047 L 41.003906 18.498047 C 41.542906 18.520047 41.818359 18.564859 41.818359 18.630859 C 42.269359 18.630859 42.488281 19.081375 42.488281 19.984375 L 42.488281 21.337891 C 42.466281 21.876891 42.423422 22.152344 42.357422 22.152344 C 42.357422 22.603344 41.906906 22.822266 41.003906 22.822266 L 36.205078 22.822266 C 35.732078 22.822266 35.446656 23.119609 35.347656 23.724609 C 35.248656 24.098609 35.082563 24.341172 34.851562 24.451172 C 34.048563 24.561172 33.642578 24.879484 33.642578 25.396484 L 33.642578 29.314453 C 33.642578 29.798453 33.939922 30.085828 34.544922 30.173828 C 34.907922 30.272828 35.149766 30.436969 35.259766 30.667969 C 35.369766 31.481969 35.688078 31.888672 36.205078 31.888672 L 44.0625 31.888672 C 44.5245 31.888672 44.788234 31.613219 44.865234 31.074219 L 44.865234 30.316406 C 44.865234 29.843406 44.6015 29.567234 44.0625 29.490234 L 37.503906 29.490234 C 36.964906 29.468234 36.689453 29.425375 36.689453 29.359375 C 36.238453 29.359375 36.017578 28.908859 36.017578 28.005859 L 36.017578 26.695312 C 36.039578 26.156312 36.084391 25.880859 36.150391 25.880859 C 36.150391 25.429859 36.600906 25.210938 37.503906 25.210938 L 42.302734 25.210938 C 42.775734 25.210938 43.061156 24.913594 43.160156 24.308594 C 43.259156 23.934594 43.423297 23.692031 43.654297 23.582031 C 44.457297 23.472031 44.865234 23.153719 44.865234 22.636719 L 44.865234 18.673828 C 44.865234 18.189828 44.567891 17.904406 43.962891 17.816406 C 43.599891 17.717406 43.358047 17.551312 43.248047 17.320312 C 43.138047 16.506312 42.819734 16.099609 42.302734 16.099609 L 34.445312 16.099609 z M 23.384766 20.232422 L 23.384766 23.027344 L 25.707031 23.027344 L 25.707031 20.232422 L 23.384766 20.232422 z M 23.384766 29.089844 L 23.384766 31.884766 L 25.707031 31.884766 L 25.707031 29.089844 L 23.384766 29.089844 z "
         transform="translate(30.915001,23.190001)"
         id="path22" />
    </g>
  </g>
</svg>
