<svg xmlns="http://www.w3.org/2000/svg" viewBox="0 0 48 48"><defs><clipPath><path fill="#1890d0" transform="matrix(15.33333 0 0 11.5 415-125.5)" d="m-24 13c0 1.105-.672 2-1.5 2-.828 0-1.5-.895-1.5-2 0-1.105.672-2 1.5-2 .828 0 1.5.895 1.5 2"/></clipPath><clipPath><path fill="#1890d0" transform="matrix(15.33333 0 0 11.5 415-125.5)" d="m-24 13c0 1.105-.672 2-1.5 2-.828 0-1.5-.895-1.5-2 0-1.105.672-2 1.5-2 .828 0 1.5.895 1.5 2"/></clipPath><linearGradient id="0" x1="-989.67" y1="433.28" x2="-1003.64" y2="317.35" gradientUnits="userSpaceOnUse"><stop stop-color="#1584d8"/><stop offset="1" stop-color="#1cb2ff"/></linearGradient><linearGradient gradientUnits="userSpaceOnUse" x1="215.66" x2="576.34"><stop stop-color="#646464"/><stop offset="1" stop-color="#8c8c8c"/></linearGradient><linearGradient id="1" x1="-1092.91" y1="203.1" x2="-1060.26" y2="104.85" gradientUnits="userSpaceOnUse" gradientTransform="matrix(.99785 0 0 .98075-3.688 11.35)"><stop stop-color="#f2b333"/><stop offset="1" stop-color="#fcde3f"/></linearGradient><linearGradient id="2" x1="215.66" x2="576.34" gradientUnits="userSpaceOnUse"><stop stop-color="#e7f0f4"/><stop offset="1" stop-color="#f4faff"/></linearGradient></defs><g transform="translate(-384.57-499.8)"><g font-family="sans-serif" word-spacing="0" line-height="125%" letter-spacing="0"><text y="516.22" x="300.29" font-size="5"><tspan y="516.22" x="300.29"/></text><flowRoot font-size="10"><flowRegion><path d="m-1370.43-469.33h135.55v166.64h-135.55z"/></flowRegion><flowPara/></flowRoot></g><g transform="matrix(.03235.0119-.0119.03235 403.55 507.35)" fill="url(#2)"><rect transform="matrix(8.14489-6.47267 6.43015 8.17851 7713.67-7881.86)" y="121.73" x="-1101.89" height="112.43" width="89.57" fill="url(#1)" rx="2.744"/><rect transform="matrix(9.22752-4.80496 4.88643 9.18464 7713.67-7881.86)" y="316.3" x="-1045.7" height="122.92" width="99.83" fill="url(#0)" rx="3"/><path d="m507.43 185.73c-13.465 2.444-22.434 14.84-19.988 28.315l64.09 353.14c6.544 36.06-1.125 67.955-21.749 97.73-20.624 29.771-48.23 48.24-84.71 54.86-35.622 6.465-68.31-.611-98.08-21.234-29.769-20.622-47.882-48.742-54.35-84.36l-24.2-133.35-12.929-71.23-31.852-175.5-15.293-84.26-.158-.872-.158-.871c-4.336-23.89.694-46.23 14.438-66.33 13.918-20.359 32.972-33.35 57.743-37.847 24.761-4.494 47.18.972 67.35 15.14 19.933 13.995 32.492 33.14 36.828 57.03l.158.871.315 1.734 71.51 393.99c4.492 24.752-11.147 47.34-35.907 51.831-23.891 4.336-47.07-12.09-51.41-35.985l-37.449-206.34c-2.444-13.465-14.762-21.998-28.23-19.554-13.464 2.444-21.998 14.761-19.554 28.23l37.449 206.34c4.65 25.622 17.285 45.766 38.32 60.35 21.04 14.578 43.906 19.398 69.54 14.746 25.622-4.65 45.514-17.459 60.35-38.32 14.482-20.366 19.478-43.47 14.67-69.964l-71.822-395.72-.158-.871c-6.78-37.35-26.17-66.926-57.38-88.74-31.475-21.999-65.973-29.751-103.33-22.971-37.36 6.781-66.937 26.16-88.67 57.819-21.553 31.394-29.32 65.893-22.535 103.25l.158.871 15.452 85.14 31.852 175.5 12.929 71.23 24.2 133.35c8.909 49.09 33.853 87.63 74.4 115.72 40.543 28.09 85.4 37.895 134.48 28.986 49.09-8.909 88.65-33.14 117.1-74.2 28.443-41.06 37.659-86.69 28.906-134.92l-64.09-353.14c-2.446-13.475-14.763-22.01-28.23-19.564" fill="#fff" fill-opacity=".85"/></g></g></svg>