<svg xmlns="http://www.w3.org/2000/svg" xmlns:xlink="http://www.w3.org/1999/xlink" viewBox="0 0 48 48"><defs><linearGradient y2="147.64" x2="3.419" y1="204.55" x1=".967" gradientUnits="userSpaceOnUse" id="4" xlink:href="#0" gradientTransform="matrix(1.0015.00004.00004.95188.292 11.945)"/><linearGradient gradientTransform="matrix(.41708-.0003.00032.39759 13.04-59.63)" y2="148.12" x2="21.17" y1="267" x1="22.548" gradientUnits="userSpaceOnUse" id="8"><stop stop-color="#f16419"/><stop offset="1" stop-color="#feb600"/></linearGradient><linearGradient gradientUnits="userSpaceOnUse" y2="327.41" x2="136.15" y1="409.58" x1="148.62" id="5" xlink:href="#1"/><linearGradient gradientUnits="userSpaceOnUse" y2="332.47" x2="359.04" y1="400.94" x1="363.38" id="7"><stop stop-color="#d73b00"/><stop offset="1" stop-color="#e05800"/></linearGradient><linearGradient gradientUnits="userSpaceOnUse" y2="91.67" x2="459.03" y1="150.23" x1="455.96" id="6" xlink:href="#1"/><linearGradient gradientUnits="userSpaceOnUse" x2="191.55" x1="95.46" id="3" xlink:href="#1"/><linearGradient id="0"><stop stop-color="#f15400"/><stop offset="1" stop-color="#fa8c00"/></linearGradient><linearGradient gradientTransform="matrix(.26231 0 0 .26156-44.879 141.03)" id="2" y1="473.94" x2="0" y2="253.93" gradientUnits="userSpaceOnUse"><stop stop-color="#cdd7dc"/><stop offset="1" stop-color="#ecf0f3"/></linearGradient><linearGradient id="1"><stop stop-color="#dfe9f0"/><stop offset="1" stop-color="#ecf0f3"/></linearGradient><linearGradient xlink:href="#0" x1="22.548" y1="267" x2="21.17" y2="148.12" gradientUnits="userSpaceOnUse"/><linearGradient x1="23.802" y1="265.84" x2="23.892" y2="146.96" gradientUnits="userSpaceOnUse"><stop stop-color="#fe9501"/><stop offset="1" stop-color="#feb600"/></linearGradient></defs><g transform="matrix(.41648-.0003.0003.41767 13.01-64.52)"><g fill-rule="evenodd"><path d="m-23.525 154.67l47.829.036-.042 55.17-55.44-.042.037-48.05c.006-7.638 7.211-7.109 7.614-7.108" fill="url(#4)"/><path transform="matrix(2.40108.00182-.00182 2.39412-31.39 154.44)" d="m23.02.094v22.918h-23.02v20.07c0 3.191 3 2.971 3.168 2.971h19.92 19.807c.168 0 3.168.22 3.168-2.971v-19.947h.047v-20.07c0-3.191-3-2.973-3.168-2.973h-19.92" fill="url(#8)"/></g><ellipse ry="32.22" rx="32.31" transform="matrix(1 .00076-.00076 1 0 0)" cx="51.669" cy="236.94" fill="url(#2)"/><g fill="#fff" fill-opacity=".855"><path d="m152.42 95.41v39.27h39.12v17.688h-39.12v39.27h-17.838v-39.27h-39.12v-17.688h39.12v-39.27h17.838" stroke-width="5.233" transform="matrix(.2642.0002-.0002.26342-41.14 144.44)"/><path d="m403.56 115.78h113.38v16h-113.38v-16" stroke-width="4.331" transform="matrix(.21864.00017-.00024.31831-49.45 142.58)"/><path d="m188.64 336.04l-32.527 32.527 32.527 32.378-12.591 12.591-32.527-32.378-32.527 32.378-12.591-12.591 32.527-32.378-32.527-32.527 12.591-12.591 32.527 32.527 32.527-32.527 12.591 12.591" stroke-width="5.233" transform="matrix(.2642.0002-.0002.26342-41.41 139.71)"/></g><path d="m320.02 340.77h96.08v17.613h-96.08v-17.613m0 34.1h96.08v17.763h-96.08v-17.763" fill="#f47713" stroke-width="5.233" transform="matrix(.2642.0002-.0002.26342-45.687 140.82)"/></g></svg>