<svg xmlns="http://www.w3.org/2000/svg" viewBox="0 0 48 48"><defs><linearGradient id="0" x1="469.01" y1="122.17" x2="472.17" y2="36.36" gradientUnits="userSpaceOnUse" gradientTransform="matrix(.24693-.00107.00107.24746 148.36 535.9)"><stop stop-color="#2381dd"/><stop offset="1" stop-color="#2381dd"/></linearGradient><linearGradient id="1" x1="264.19" y1="568.01" x2="263.86" y2="517.11" gradientUnits="userSpaceOnUse"><stop stop-color="#124da4"/><stop offset="1" stop-color="#2896ff"/></linearGradient></defs><g transform="translate(-240.3-521.26)"><rect width="45.563" height="45.51" x="241.41" y="522.5" fill="url(#1)" rx="2.811"/><g fill-rule="evenodd"><path d="m241.74 545.18h45.29l1.239 17.468c0 0 .554 2.854-2.705 2.863l-42.18.118c-3.595.064-3.048-3-3.048-3z" fill="#1567c7"/><path d="m241.43 544.97h45.496l1.236 17.468c0 0 .553 2.854-2.699 2.863l-42.09.118c-3.587.064-3.042-3-3.042-3z" fill="url(#0)"/></g><g fill="#fff" fill-opacity=".851"><path d="m262.82 553.84l-12.01.052-.011-2.534q5.374-5.449 6.882-7.108 1.343-1.521 1.808-2.294.465-.801.46-1.957-.005-1.184-.945-2.089-.94-.905-2.51-.898-1.432.006-2.31.864-.878.83-1.121 1.795l-2.318-.926q.462-1.489 1.943-2.818 1.481-1.328 3.85-1.339 2.616-.011 4.303 1.579 1.687 1.59 1.697 3.821.012 2.754-2.976 5.907l-5.484 5.56 8.731-.038.001 2.424"/><path d="m271.18 554.25q-1.9.008-3.696-1.168-1.795-1.177-2.494-3.515l2.309-.974q.447 1.54 1.47 2.39 1.023.849 2.4.843 1.542-.007 2.64-.975 1.125-.969 1.119-2.401-.006-1.405-1.167-2.364-1.133-.959-2.731-.952l-1.625.007-.001-2.369 1.432-.006q1.487-.006 2.448-.837.988-.831.982-2.208-.006-1.294-.973-2.034-.94-.74-2.344-.733-2.424.001-3.267 2.465l-2.345-.981q.544-1.517 1.944-2.708 1.399-1.19 3.658-1.2 2.534-.011 4.22 1.469 1.686 1.452 1.696 3.711.012 2.727-2.516 4.06v.11q1.38.572 2.266 1.753.914 1.18.921 2.805.011 2.506-1.827 4.167-1.838 1.633-4.51 1.645"/></g></g></svg>