<svg xmlns="http://www.w3.org/2000/svg" viewBox="0 0 48 48"><defs><linearGradient id="0" gradientUnits="userSpaceOnUse" y1="53.939" x2="0" y2="5.141"><stop stop-color="#197cf1"/><stop offset="1" stop-color="#20bcfa"/></linearGradient></defs><g transform="translate(-117.97-5.695)"><circle r="24" cy="29.695" cx="141.97" fill="url(#0)"/><path d="m137.97 19.594c-.847.238-1.529 1.183-1.529 2.102v14.563c-.859-.471-1.963-.662-3.107-.35-2.064.562-3.358 2.377-2.915 4.054.443 1.677 2.476 2.613 4.541 2.052 1.647-.448 2.782-1.716 2.963-3.053l.048-13.762 10.706-3v10.86c-.859-.471-1.963-.662-3.107-.35-2.064.562-3.358 2.377-2.915 4.054.443 1.677 2.476 2.613 4.54 2.052 1.647-.448 2.782-1.716 2.963-3.053l.048-17.916c0-.689-.407-1.204-.956-1.301l-11.28 3.053z" fill="#fff" fill-opacity=".851"/></g></svg>