<svg xmlns="http://www.w3.org/2000/svg" viewBox="0 0 48 48"><defs><linearGradient id="0" x1="99.25" y1="56.05" x2="99.74" y2="28.973" gradientUnits="userSpaceOnUse"><stop stop-color="#197cf1"/><stop offset="1" stop-color="#20bcfa"/></linearGradient><linearGradient id="1" gradientUnits="userSpaceOnUse" y1="67.769" x2="0" y2="18.972"><stop stop-color="#212121"/><stop offset="1" stop-color="#3f3f41"/></linearGradient></defs><g transform="translate(-78.915-19.525)"><circle r="24" cy="43.525" cx="102.92" fill="url(#1)"/><path d="m94.94447 29.91333a2.174392 2.167679 0 0 0 -2.174592 2.168478 2.174392 2.167679 0 0 0 2.174592 2.168479 2.174392 2.167679 0 0 0 2.174592 -2.168479 2.174392 2.167679 0 0 0 -2.174592 -2.168478m12.322 0l-4.123 4.111 6.342 6.322-6.569 7.451 4.349 3.793L117.41 40.03 107.27 29.913M92.04433 40.03018a3.62397 3.612811 0 0 0 -3.623641 3.61345 3.62397 3.612811 0 0 0 3.623641 3.611414 3.62397 3.612811 0 0 0 3.62568 -3.611414 3.62397 3.612811 0 0 0 -3.62568 -3.61345zm6.523777 10.11481a4.348766 4.335373 0 0 0 -4.349184 4.336956 4.348766 4.335373 0 0 0 4.349184 4.334919 4.348766 4.335373 0 0 0 4.349183 -4.334919 4.348766 4.335373 0 0 0 -4.349183 -4.336956" fill="url(#0)" color="#000"/></g></svg>