<svg xmlns="http://www.w3.org/2000/svg" xmlns:xlink="http://www.w3.org/1999/xlink" viewBox="0 0 48 48"><defs><linearGradient gradientUnits="userSpaceOnUse" y2="510.53" x2="347.89" y1="536.43" x1="350.48" id="7"><stop stop-color="#ffbc00"/><stop offset="1" stop-color="#ffec00"/></linearGradient><linearGradient gradientUnits="userSpaceOnUse" y2="529.4" x2="0" y1="539.4" id="4" xlink:href="#0"/><linearGradient gradientUnits="userSpaceOnUse" y2="531.9" x2="347.89" y1="557.8" x1="350.48" id="6"><stop stop-color="#eb4646"/><stop offset="1" stop-color="#ff8651"/></linearGradient><linearGradient gradientUnits="userSpaceOnUse" y2="523.73" x2="358.86" y1="544.45" x1="360.94" id="5"><stop stop-color="#dce2ff"/><stop offset="1" stop-color="#f8feff"/></linearGradient><linearGradient gradientUnits="userSpaceOnUse" y2="510.53" x2="369.99" y1="536.43" x1="372.58" id="3"><stop stop-color="#4fd127"/><stop offset="1" stop-color="#c6f61a"/></linearGradient><linearGradient id="0"><stop stop-color="#161719"/><stop offset="1" stop-color="#424649"/></linearGradient><linearGradient gradientUnits="userSpaceOnUse" y2="531.9" x2="369.99" y1="557.8" x1="372.58" id="2"><stop stop-color="#0976da"/><stop offset="1" stop-color="#5de5f0"/></linearGradient><linearGradient xlink:href="#0" id="1" gradientUnits="userSpaceOnUse" x1="-53.41" x2="40.658"/><linearGradient x1="383.54" y1="531.66" x2="416.8" y2="531.4" gradientUnits="userSpaceOnUse"><stop stop-color="#ac92ec"/><stop offset=".202" stop-color="#64a9ff"/><stop offset=".323" stop-color="#4cdbb7"/><stop offset=".534" stop-color="#aee672"/><stop offset=".763" stop-color="#ffce53"/><stop offset=".899" stop-color="#fb6e51"/><stop offset="1" stop-color="#ed5565"/></linearGradient><linearGradient gradientUnits="userSpaceOnUse" y2="516.78" x2="400.4" y1="546.68" x1="400.36"><stop stop-color="#d8d8d8"/><stop offset="1" stop-color="#fff"/></linearGradient></defs><g transform="matrix(-.50493.09399-.09399-.50493 5.839-42.38)"><flowRoot font-family="sans-serif" word-spacing="0" line-height="125%" letter-spacing="0" font-size="12.5"><flowRegion stroke="url(#1)"><path stroke="none" d="m-427.82-178.14h100.15v116.76h-100.15z" id="8"/></flowRegion><flowPara stroke="none"/></flowRoot><g transform="translate(-.084.359)"><flowRoot font-family="sans-serif" word-spacing="0" line-height="125%" letter-spacing="0" font-size="12.5"><flowRegion stroke="url(#1)"><use xlink:href="#8"/></flowRegion><flowPara stroke="none"/></flowRoot><g transform="matrix(-1.91417-.35633.35633-1.91417 485.12 1015.66)"><circle cx="347.52" cy="523.11" r="12.948" fill="url(#7)"/><circle cx="369.62" cy="523.11" r="12.948" fill="url(#3)"/><circle cx="347.52" cy="544.48" r="12.948" fill="url(#6)"/><circle cx="369.62" cy="544.48" r="12.948" fill="url(#2)"/><circle r="10.358" cy="533.8" cx="358.57" fill="url(#5)"/><path d="m358.31 527.65l-3.458 6.03c-.727 1.275-.783 2.896 0 4.261 1.177 2.052 3.794 2.762 5.847 1.585 2.052-1.177 2.762-3.794 1.585-5.847l-3.458-6.03c-.114-.199-.402-.199-.516 0" fill="url(#4)"/></g></g></g></svg>