<svg xmlns="http://www.w3.org/2000/svg" xmlns:xlink="http://www.w3.org/1999/xlink" viewBox="0 0 48 48"><defs><linearGradient gradientUnits="userSpaceOnUse" y2="529.2" x2="359.01" y1="533.05" x1="359.29" id="7" xlink:href="#0"/><linearGradient xlink:href="#0" id="B" gradientUnits="userSpaceOnUse" x1="342.95" y1="538.63" x2="343.58" y2="506.25"/><linearGradient gradientUnits="userSpaceOnUse" y2="529.22" x2="337.74" y1="533.08" x1="338.02" id="8" xlink:href="#0"/><linearGradient gradientUnits="userSpaceOnUse" y2="500.26" x2="352.75" y1="543.11" x1="353.1" id="A" xlink:href="#0"/><linearGradient gradientUnits="userSpaceOnUse" y2="507.48" x2="337.77" y1="511.34" x1="338.06" id="9" xlink:href="#0"/><linearGradient gradientUnits="userSpaceOnUse" y2="518.53" x2="333.2" y1="522.39" x1="333.48" id="6" xlink:href="#0"/><linearGradient id="0"><stop stop-color="#197ff1"/><stop offset="1" stop-color="#21c6fb"/></linearGradient><linearGradient gradientUnits="userSpaceOnUse" y2="518.53" x2="363.7" y1="522.39" x1="363.99" id="5" xlink:href="#0"/><linearGradient gradientUnits="userSpaceOnUse" y2="501.65" x2="347.97" y1="540.87" x1="347.75" id="1"><stop stop-color="#2e3e46"/><stop offset="1" stop-color="#435a64"/></linearGradient><linearGradient gradientUnits="userSpaceOnUse" y2="503.05" x2="348.62" y1="506.91" x1="348.91" id="3" xlink:href="#0"/><linearGradient gradientUnits="userSpaceOnUse" y2="533.55" x2="348.62" y1="537.41" x1="348.91" id="4" xlink:href="#0"/><linearGradient gradientUnits="userSpaceOnUse" y2="506.25" x2="343.58" y1="538.63" x1="342.95" id="2"><stop stop-color="#1584d8"/><stop offset="1" stop-color="#1cb2ff"/></linearGradient></defs><g transform="matrix(1.20192 0 0 1.20192-394.93-601.52)"><circle cx="348.55" cy="520.44" r="19.218" fill="url(#1)" stroke="url(#A)" stroke-linejoin="round" stroke-linecap="round" stroke-width="1.5"/><circle r="1.337" cy="505.24" cx="348.7" fill="url(#3)"/><g transform="matrix(.74283 0 0 .74283 95.27 131.89)" fill="url(#B)"><circle cx="341.12" cy="523.32" r="15.06"/><path d="m344.09 508.55c4.112 1.721 10.235-3.241 12.175-.985 2.081 1.629-1.935 6.434-.738 11.219z" fill-rule="evenodd"/></g><circle r="1.337" cy="535.74" cx="348.7" fill="url(#4)"/><circle r="1.337" cy="520.72" cx="363.78" fill="url(#5)"/><circle r="1.337" cy="520.72" cx="333.27" fill="url(#6)"/><circle r="1.337" cy="531.38" cx="359.09" fill="url(#7)"/><circle r="1.337" cy="531.4" cx="337.82" fill="url(#8)"/><circle r="1.337" cy="509.67" cx="337.85" fill="url(#9)"/></g></svg>