<svg xmlns="http://www.w3.org/2000/svg" viewBox="0 0 48 48"><defs><linearGradient id="0" y1="542.8" x2="0" y2="507.8" gradientUnits="userSpaceOnUse" gradientTransform="matrix(1.09091 0 0 1.06528-409.1-532.21)"><stop stop-color="#566069"/><stop offset="1" stop-color="#6c7884"/></linearGradient></defs><g transform="translate(-12.61-2.847)"><rect width="48" height="36.22" x="12.61" y="8.738" fill="url(#0)" rx="1.704"/><path d="m50.963 33.532c-.018-.16-.204-.28-.365-.28-.521 0-.983-.306-1.177-.779-.198-.484-.07-1.049.318-1.405.122-.112.137-.299.035-.429-.267-.339-.57-.644-.9-.909-.13-.104-.32-.09-.432.035-.339.375-.947.515-1.418.318-.489-.206-.798-.702-.768-1.234.001-.167-.112-.313-.279-.332-.425-.049-.853-.051-1.279-.003-.165.018-.287.16-.281.325.019.527-.294 1.014-.778 1.213-.465.19-1.069.052-1.407-.32-.112-.122-.299-.138-.429-.036-.341.267-.65.573-.919.909-.105.131-.089.32.034.432.396.358.523.928.318 1.418-.196.467-.681.768-1.237.768-.18-.006-.309.115-.328.279-.05.427-.051.862-.002 1.293.018.16.21.279.373.279.495-.013.97.294 1.169.779.199.484.071 1.049-.318 1.405-.122.112-.137.298-.035.428.264.336.567.642.899.91.13.105.32.09.433-.034.34-.376.949-.515 1.417-.319.491.205.799.701.769 1.234-.001.167.113.313.279.332.217.025.436.038.655.038.208 0 .416-.011.624-.035.165-.018.287-.16.281-.325-.019-.527.294-1.014.778-1.212.468-.191 1.069-.051 1.408.32.112.122.298.137.429.036.34-.267.649-.572.919-.909.105-.13.09-.32-.034-.432-.396-.358-.524-.928-.318-1.418.193-.461.66-.77 1.163-.77l.07.002c.163.013.313-.112.333-.279.05-.427.051-.862.002-1.293m-5.639 2.539c-1.045 0-1.896-.85-1.896-1.896 0-1.045.85-1.896 1.896-1.896 1.045 0 1.896.85 1.896 1.896 0 1.045-.85 1.896-1.896 1.896" fill="#fff" fill-rule="evenodd" fill-opacity=".847" stroke-width="1.317"/><g fill="#e6e8e9"><path d="m28.04 13.847c-2.891 0-5.608 1.126-7.652 3.17l1.167 1.167c1.732-1.732 4.04-2.686 6.485-2.686 2.45 0 4.753.954 6.485 2.686l1.167-1.167c-2.044-2.044-4.761-3.17-7.652-3.17"/><path d="m22.466 19.09l1.167 1.167c1.178-1.178 2.745-1.828 4.412-1.828 1.667 0 3.233.649 4.412 1.828l1.167-1.167c-1.49-1.49-3.471-2.311-5.579-2.311-2.108 0-4.089.821-5.579 2.311"/><path d="m24.541 21.17l1.167 1.167c.624-.624 1.454-.968 2.337-.968.883 0 1.712.344 2.337.968l1.167-1.167c-.936-.936-2.18-1.451-3.504-1.451-1.324 0-2.568.515-3.504 1.451"/><path d="m28.04 22.994c-.429 0-.858.164-1.185.491-.011.011-.022.023-.033.035l1.218 1.222 1.221-1.218c-.012-.013-.024-.026-.036-.038-.327-.327-.756-.491-1.185-.491"/><path d="m26.607 28.954c-.154 0-.254.124-.254.278v.839h-1.98c-.154 0-.254.124-.254.278v7.543 1.676c0 .154.101.28.255.28h7.262c.154 0 .303-.126.303-.28v-1.676-7.543c0-.154-.153-.278-.307-.278h-1.929v-.839c0-.154-.151-.278-.305-.278h-2.793m2.085 2.782l-.47 2.287 1.814.982-2.688 3.268.47-2.287-1.812-.98 2.686-3.269"/></g><g fill="#e6e8ea"><path d="m50.42 24.28c-.149 0-.299-.057-.412-.171-.228-.228-.228-.598 0-.826 1.065-1.065 1.652-2.482 1.652-3.989 0-1.507-.587-2.923-1.652-3.989-.228-.228-.228-.598 0-.826.228-.228.598-.228.826 0 1.286 1.286 1.994 2.996 1.994 4.814 0 1.818-.708 3.528-1.994 4.814-.114.114-.263.171-.412.171z"/><path d="m48.35 23.18c-.149 0-.299-.057-.412-.171-.228-.228-.228-.598 0-.826 1.593-1.593 1.593-4.185 0-5.777-.228-.228-.228-.598 0-.826.228-.228.598-.228.826 0 .992.992 1.538 2.311 1.538 3.714 0 1.403-.546 2.722-1.538 3.714-.114.114-.263.171-.412.171"/><path d="m46.27 22.08c-.149 0-.299-.057-.412-.171-.228-.228-.228-.598 0-.826.986-.986.986-2.59 0-3.576-.228-.228-.228-.598 0-.826.228-.228.598-.228.826 0 1.441 1.441 1.441 3.785 0 5.227-.114.114-.263.171-.412.171"/><path d="m44.657 24.741c-.101 0-.201-.04-.275-.114l-2.999-2.999h-1.395c-.215 0-.389-.174-.389-.389v-3.89c0-.215.174-.389.389-.389h1.395l2.999-2.999c.111-.111.279-.145.424-.084.146.061.24.202.24.359v10.115c0 .157-.095.3-.24.359-.048.02-.099.03-.149.03"/></g></g></svg>