<svg xmlns="http://www.w3.org/2000/svg" viewBox="0 0 48 48"><defs><linearGradient gradientTransform="matrix(1.09091 0 0 1.06528-374.53-507.4)" gradientUnits="userSpaceOnUse" y2="507.8" x2="0" y1="542.8" id="0"><stop stop-color="#00a661"/><stop offset="1" stop-color="#37ce97"/></linearGradient></defs><g transform="translate(-47.19-27.661)"><rect y="33.551" x="47.19" height="36.22" width="48" fill="url(#0)" rx="1.704"/><path d="m64.854413 40.703996a1.727067 1.721735 0 0 0 -1.728516 1.722656 1.727067 1.721735 0 0 0 1.728516 1.720704 1.727067 1.721735 0 0 0 1.726562 -1.720704 1.727067 1.721735 0 0 0 -1.726562 -1.722656m9.785 0l-3.273 3.264 5.04 5.02-5.217 5.918 3.453 3.01 8.06-9.184-8.06-8.04m-12.08789 8.03516a2.878432 2.869568 0 0 0 -2.878906 2.869141 2.878432 2.869568 0 0 0 2.878906 2.86914 2.878432 2.869568 0 0 0 2.876954 -2.86914 2.878432 2.869568 0 0 0 -2.876954 -2.869141m5.179688 8.03516a3.45412 3.443482 0 0 0 -3.453125 3.44336 3.45412 3.443482 0 0 0 3.453125 3.443359 3.45412 3.443482 0 0 0 3.455078 -3.443359 3.45412 3.443482 0 0 0 -3.455078 -3.44336" fill="#fff" fill-opacity=".847" color="#000"/></g></svg>