<?xml version="1.0" encoding="UTF-8" standalone="no"?>
<!-- Created with Inkscape (http://www.inkscape.org/) -->

<svg
   xmlns:dc="http://purl.org/dc/elements/1.1/"
   xmlns:cc="http://creativecommons.org/ns#"
   xmlns:rdf="http://www.w3.org/1999/02/22-rdf-syntax-ns#"
   xmlns:svg="http://www.w3.org/2000/svg"
   xmlns="http://www.w3.org/2000/svg"
   xmlns:sodipodi="http://sodipodi.sourceforge.net/DTD/sodipodi-0.dtd"
   xmlns:inkscape="http://www.inkscape.org/namespaces/inkscape"
   width="24"
   height="24"
   id="svg3869"
   version="1.1"
   inkscape:version="0.91 r13725"
   sodipodi:docname="edit-table-delete-row.svg">
  <defs
     id="defs3871">
    <linearGradient
       id="linearGradient3257">
      <stop
         id="stop3259"
         style="stop-color:#a50000;stop-opacity:1"
         offset="0" />
      <stop
         id="stop3261"
         style="stop-color:#e73800;stop-opacity:1"
         offset="1" />
    </linearGradient>
  </defs>
  <sodipodi:namedview
     id="base"
     pagecolor="#ffffff"
     bordercolor="#666666"
     borderopacity="1.0"
     inkscape:pageopacity="0.0"
     inkscape:pageshadow="2"
     inkscape:zoom="11.313708"
     inkscape:cx="8.1096822"
     inkscape:cy="-6.5874947"
     inkscape:document-units="px"
     inkscape:current-layer="layer1"
     showgrid="true"
     fit-margin-top="0"
     fit-margin-left="0"
     fit-margin-right="0"
     fit-margin-bottom="0"
     inkscape:window-width="1366"
     inkscape:window-height="687"
     inkscape:window-x="0"
     inkscape:window-y="0"
     inkscape:window-maximized="1"
     inkscape:showpageshadow="false"
     inkscape:object-nodes="true"
     inkscape:snap-bbox="true">
    <inkscape:grid
       type="xygrid"
       id="grid4132" />
    <sodipodi:guide
       position="4,18"
       orientation="18,0"
       id="guide4138" />
    <sodipodi:guide
       position="5,3"
       orientation="0,18"
       id="guide4140" />
    <sodipodi:guide
       position="20,2.0000174"
       orientation="-18,0"
       id="guide4142" />
    <sodipodi:guide
       position="2,21"
       orientation="0,-18"
       id="guide4144" />
    <sodipodi:guide
       position="3,19.000017"
       orientation="16,0"
       id="guide4146" />
    <sodipodi:guide
       position="41,4"
       orientation="0,16"
       id="guide4148" />
    <sodipodi:guide
       position="21,20"
       orientation="-16,0"
       id="guide4150" />
  </sodipodi:namedview>
  <metadata
     id="metadata3874">
    <rdf:RDF>
      <cc:Work
         rdf:about="">
        <dc:format>image/svg+xml</dc:format>
        <dc:type
           rdf:resource="http://purl.org/dc/dcmitype/StillImage" />
        <dc:title />
      </cc:Work>
    </rdf:RDF>
  </metadata>
  <g
     inkscape:label="Capa 1"
     inkscape:groupmode="layer"
     id="layer1"
     transform="translate(-326,-532.3622)">
    <rect
       style="opacity:1;fill:#ff5f70;fill-opacity:1;stroke:none;stroke-width:0.83700001;stroke-linecap:round;stroke-linejoin:round;stroke-miterlimit:4;stroke-dasharray:none;stroke-opacity:1"
       id="rect4159"
       width="4.9999828"
       height="18"
       x="543.36218"
       y="-347"
       ry="0.77562594"
       transform="matrix(0,1,-1,0,0,0)" />
    <g
       id="g3"
       transform="matrix(0.03775667,0,0,0.03775667,328.32502,533.6372)"
       style="fill:#fefefe;fill-opacity:1">
      <g
         id="g5"
         style="fill:#fefefe;fill-opacity:1">
        <g
           id="g7"
           style="fill:#fefefe;fill-opacity:1"
           transform="translate(1.9859857,29.796199)">
          <path
             style="fill:#fefefe;fill-opacity:1"
             d="m 507.948,46.021 c -1.367,-16.368 -14.588,-30.13 -31.21,-30.13 l -444.956,0 C 15.16,15.891 1.938,29.653 0.54,46.021 l -0.54,0 0,414.825 c 0,17.544 14.239,31.782 31.782,31.782 l 444.955,0 c 17.544,0 31.782,-14.239 31.782,-31.782 l 0,-414.825 -0.571,0 z m -349.036,414.825 -127.13,0 0,-95.347 127.13,0 0,95.347 z m 0,-124.492 -127.13,0 0,-97.985 127.13,0 0,97.985 z m 0,-129.768 -127.13,0 0,-95.347 127.13,0 0,95.347 z m 158.913,254.26 -127.13,0 0,-95.347 127.13,0 0,95.347 z m 0,-124.492 -127.13,0 0,-97.985 127.13,0 0,97.985 z m 0,-129.768 -127.13,0 0,-95.347 127.13,0 0,95.347 z m 158.912,254.26 -127.13,0 0,-95.347 127.13,0 0,95.347 z m 0,-124.492 -127.13,0 0,-97.985 127.13,0 0,97.985 z m 0,-129.768 -127.13,0 0,-95.347 127.13,0 0,95.347 z"
             id="path9"
             inkscape:connector-curvature="0" />
        </g>
      </g>
    </g>
  </g>
</svg>
