<?xml version="1.0" encoding="UTF-8" standalone="no"?>
<svg
   xmlns:dc="http://purl.org/dc/elements/1.1/"
   xmlns:cc="http://creativecommons.org/ns#"
   xmlns:rdf="http://www.w3.org/1999/02/22-rdf-syntax-ns#"
   xmlns:svg="http://www.w3.org/2000/svg"
   xmlns="http://www.w3.org/2000/svg"
   xmlns:xlink="http://www.w3.org/1999/xlink"
   xmlns:sodipodi="http://sodipodi.sourceforge.net/DTD/sodipodi-0.dtd"
   xmlns:inkscape="http://www.inkscape.org/namespaces/inkscape"
   width="32"
   height="32"
   id="svg2"
   version="1.1"
   inkscape:version="0.91 r13725"
   sodipodi:docname="application-x-desktop.svg">
  <metadata
     id="metadata41">
    <rdf:RDF>
      <cc:Work
         rdf:about="">
        <dc:format>image/svg+xml</dc:format>
        <dc:type
           rdf:resource="http://purl.org/dc/dcmitype/StillImage" />
      </cc:Work>
    </rdf:RDF>
  </metadata>
  <sodipodi:namedview
     pagecolor="#ffffff"
     bordercolor="#666666"
     borderopacity="1"
     objecttolerance="10"
     gridtolerance="10"
     guidetolerance="10"
     inkscape:pageopacity="0"
     inkscape:pageshadow="2"
     inkscape:window-width="1920"
     inkscape:window-height="1055"
     id="namedview39"
     showgrid="false"
     inkscape:zoom="5.2149125"
     inkscape:cx="0.58938794"
     inkscape:cy="38.21019"
     inkscape:window-x="0"
     inkscape:window-y="0"
     inkscape:window-maximized="1"
     inkscape:current-layer="svg2" />
  <defs
     id="defs4">
    <linearGradient
       id="a"
       y1="524.8"
       x1="404.57"
       y2="531.8"
       x2="411.57"
       gradientUnits="userSpaceOnUse">
      <stop
         stop-color="#383e51"
         id="stop7" />
      <stop
         offset="1"
         stop-color="#655c6f"
         stop-opacity="0"
         id="stop9" />
    </linearGradient>
    <linearGradient
       id="b"
       y1="545.9"
       x1="397.98"
       y2="517.97"
       x2="397.74"
       gradientUnits="userSpaceOnUse">
      <stop
         stop-color="#ffffff"
         stop-opacity="0"
         id="stop12" />
      <stop
         offset="1"
         stop-color="#ffffff"
         stop-opacity=".2"
         id="stop14" />
    </linearGradient>
    <path
       id="c"
       d="m389.57 545.8v-28h15l7 7v21h-7z" />
    <linearGradient
       gradientTransform="matrix(0.5,0,0,-0.48276,0,31.45)"
       gradientUnits="userSpaceOnUse"
       x2="0"
       y2="3"
       y1="61"
       id="a-7">
      <stop
         id="stop7-5"
         stop-color="#22a7f0" />
      <stop
         id="stop9-3"
         stop-color="#19b5fe"
         offset="1" />
    </linearGradient>
    <linearGradient
       gradientTransform="translate(-384.57,-515.8)"
       gradientUnits="userSpaceOnUse"
       x2="0"
       y2="524.8"
       y1="518.04"
       id="b-5">
      <stop
         id="stop12-62"
         stop-color="#c8e3fe" />
      <stop
         id="stop14-9"
         stop-color="#ffffff"
         offset="1" />
    </linearGradient>
    <linearGradient
       gradientTransform="translate(-384.57,-515.8)"
       gradientUnits="userSpaceOnUse"
       x2="411.57"
       y2="531.8"
       x1="404.57"
       y1="524.8"
       id="c-1">
      <stop
         id="stop17"
         stop-color="#383e51" />
      <stop
         id="stop19"
         stop-opacity="0"
         stop-color="#655c6f"
         offset="1" />
    </linearGradient>
    <inkscape:path-effect
       effect="spiro"
       id="path-effect4555"
       is_visible="true" />
    <inkscape:path-effect
       effect="spiro"
       id="path-effect4429"
       is_visible="true" />
    <inkscape:path-effect
       effect="spiro"
       id="path-effect4395"
       is_visible="true" />
    <linearGradient
       id="a-6"
       y1="32.998"
       x1="34.5"
       y2="11.998"
       gradientUnits="userSpaceOnUse"
       x2="11.786">
      <stop
         stop-color="#dd1627"
         id="stop2" />
      <stop
         offset="1"
         stop-color="#df3e52"
         id="stop4" />
    </linearGradient>
    <linearGradient
       id="b-75"
       y1="10.38"
       x1="46.23"
       y2="35.663"
       x2="73.03"
       gradientUnits="userSpaceOnUse"
       gradientTransform="translate(-52)">
      <stop
         stop-color="#f8bac0"
         stop-opacity=".731"
         id="stop7-35" />
      <stop
         offset="1"
         stop-color="#f8bac0"
         stop-opacity="0"
         id="stop9-6" />
    </linearGradient>
    <path
       id="c-29127"
       d="m.735 43.06l23.265-42.35 23.09 42.31c0 0-2.212-.155-5.272-.291-2.851-.127-1.794.114-8.278-1.089-4.911-.91-8.522-2.865-15.253-2.727-7.453.153-17.549 4.149-17.549 4.149" />
    <linearGradient
       id="linearGradient4222">
      <stop
         id="stop2-35"
         style="stop-color:#0166d0;stop-opacity:1"
         offset="0" />
      <stop
         id="stop4-62"
         style="stop-color:#51a6ff;stop-opacity:1"
         offset="1" />
    </linearGradient>
    <linearGradient
       id="linearGradient4198">
      <stop
         id="stop7-9"
         offset="0"
         style="stop-color:#208dff;stop-opacity:1" />
      <stop
         id="stop9-1"
         offset="1"
         style="stop-color:#51a6ff;stop-opacity:1" />
    </linearGradient>
    <linearGradient
       gradientTransform="matrix(0.78135593,0,0,0.78135593,-346.93123,-382.93369)"
       gradientUnits="userSpaceOnUse"
       y2="519.798"
       x2="402.571"
       y1="543.798"
       x1="402.571"
       id="linearGradient4204"
       xlink:href="#linearGradient4222" />
    <linearGradient
       gradientTransform="matrix(0.78135593,0,0,0.78135593,-346.93123,-382.93369)"
       gradientUnits="userSpaceOnUse"
       y2="519.798"
       x2="414.571"
       y1="543.798"
       x1="414.571"
       id="linearGradient4212"
       xlink:href="#linearGradient4198" />
    <linearGradient
       gradientTransform="matrix(1,0,0,0.99924452,384.57143,499.82444)"
       gradientUnits="userSpaceOnUse"
       y2="4"
       x2="24"
       y1="35"
       x1="24"
       id="linearGradient4220"
       xlink:href="#linearGradient4198" />
    <linearGradient
       gradientUnits="userSpaceOnUse"
       y2="38"
       x2="29"
       y1="21"
       x1="12"
       id="linearGradient4244"
       xlink:href="#linearGradient4227" />
    <linearGradient
       id="linearGradient4227">
      <stop
         id="stop16"
         style="stop-color:#292c2f;stop-opacity:1"
         offset="0" />
      <stop
         id="stop18"
         style="stop-color:#000000;stop-opacity:0;"
         offset="1" />
    </linearGradient>
    <linearGradient
       id="linearGradient4532"
       inkscape:collect="always">
      <stop
         id="stop4528"
         offset="0"
         style="stop-color:#000000;stop-opacity:1;" />
      <stop
         id="stop4530"
         offset="1"
         style="stop-color:#000000;stop-opacity:0;" />
    </linearGradient>
    <linearGradient
       id="linearGradient4454">
      <stop
         style="stop-color:#d21e1e;stop-opacity:1"
         offset="0"
         id="stop7-36" />
      <stop
         style="stop-color:#e05e4c;stop-opacity:1"
         offset="1"
         id="stop9-75" />
    </linearGradient>
    <linearGradient
       xlink:href="#linearGradient4454"
       id="linearGradient4213"
       x1="403.421"
       y1="544.092"
       x2="391.89"
       y2="525.725"
       gradientUnits="userSpaceOnUse"
       gradientTransform="translate(-384.57001,-499.79999)" />
    <linearGradient
       id="linearGradient4472">
      <stop
         style="stop-color:#ffa92d;stop-opacity:1"
         offset="0"
         id="stop13" />
      <stop
         style="stop-color:#ffc169;stop-opacity:1"
         offset="1"
         id="stop15" />
    </linearGradient>
    <linearGradient
       xlink:href="#linearGradient4472"
       id="linearGradient4235"
       x1="401.296"
       y1="523.203"
       x2="391.154"
       y2="505.319"
       gradientUnits="userSpaceOnUse"
       gradientTransform="translate(-384.57001,-499.79999)" />
    <linearGradient
       id="linearGradient4422-8">
      <stop
         style="stop-color:#377d50;stop-opacity:1"
         offset="0"
         id="stop19-0" />
      <stop
         style="stop-color:#54d883;stop-opacity:1"
         offset="1"
         id="stop21" />
    </linearGradient>
    <linearGradient
       xlink:href="#linearGradient4422-8"
       id="linearGradient4257"
       x1="424.602"
       y1="523.798"
       x2="413.779"
       y2="503.798"
       gradientUnits="userSpaceOnUse"
       gradientTransform="translate(-384.57001,-499.79999)" />
    <linearGradient
       id="linearGradient4438">
      <stop
         style="stop-color:#375a7d;stop-opacity:1"
         offset="0"
         id="stop25" />
      <stop
         style="stop-color:#54a3d8;stop-opacity:1"
         offset="1"
         id="stop27" />
    </linearGradient>
    <linearGradient
       xlink:href="#linearGradient4438"
       id="linearGradient4279"
       x1="420.884"
       y1="543.488"
       x2="412.118"
       y2="525.748"
       gradientUnits="userSpaceOnUse"
       gradientTransform="translate(-384.57001,-499.79999)" />
    <linearGradient
       xlink:href="#linearGradient4532"
       id="linearGradient4220-3"
       x1="4"
       y1="4"
       x2="44"
       y2="44"
       gradientUnits="userSpaceOnUse"
       gradientTransform="translate(0.00142264,-0.00198746)" />
    <linearGradient
       gradientUnits="userSpaceOnUse"
       x2="4"
       y2="44"
       x1="24"
       y1="4"
       id="a-2">
      <stop
         id="stop2-367"
         stop-color="#197cf1" />
      <stop
         id="stop4-5"
         stop-color="#20bcfa"
         offset="1" />
    </linearGradient>
    <linearGradient
       gradientUnits="userSpaceOnUse"
       x2="24"
       y2="4"
       x1="44"
       y1="44"
       id="b-7">
      <stop
         id="stop7-3"
         stop-color="#c61423" />
      <stop
         id="stop9-56"
         stop-color="#dc2b41"
         offset="1" />
    </linearGradient>
    <linearGradient
       gradientUnits="userSpaceOnUse"
       x2="4"
       x1="44"
       id="c-0">
      <stop
         id="stop12-93"
         stop-color="#42a603" />
      <stop
         id="stop14-6"
         stop-color="#78da06"
         offset="1" />
    </linearGradient>
    <linearGradient
       x2="416.57"
       gradientUnits="userSpaceOnUse"
       x1="400.57"
       y2="538.8"
       y1="522.8"
       id="d">
      <stop
         id="stop17-0"
         stop-color="#292c2f" />
      <stop
         id="stop19-29"
         stop-opacity="0"
         offset="1" />
    </linearGradient>
    <linearGradient
       id="b-3"
       y1="522.99"
       x1="430.51"
       y2="523.86"
       gradientUnits="userSpaceOnUse"
       x2="378.58"
       gradientTransform="matrix(.70711.70711-.70711.70711 105.4-635.69)">
      <stop
         stop-color="#fcfcfc"
         id="stop7-67" />
      <stop
         offset="1"
         stop-color="#e9eaeb"
         id="stop9-53" />
    </linearGradient>
    <linearGradient
       id="c-5"
       y1="19.869"
       x1="-28.649"
       y2="49.804"
       gradientUnits="userSpaceOnUse"
       x2="3.614"
       gradientTransform="translate(45.719-.92)">
      <stop
         id="stop12-6" />
      <stop
         offset="1"
         stop-opacity="0"
         id="stop14-2" />
    </linearGradient>
    <linearGradient
       id="d-9"
       y1="522.18"
       x1="388.34"
       y2="523.7"
       gradientUnits="userSpaceOnUse"
       x2="402.03"
       gradientTransform="matrix(.70711.70711-.70711.70711 105.48-635.28)">
      <stop
         stop-color="#ffffff"
         id="stop17-1" />
      <stop
         offset="1"
         stop-color="#eff0f1"
         id="stop19-2" />
    </linearGradient>
    <linearGradient
       id="e"
       y1="527.21"
       x1="422.48"
       y2="527.34"
       gradientUnits="userSpaceOnUse"
       x2="425.86"
       gradientTransform="matrix(.70711.70711-.70711.70711 105.48-635.28)">
      <stop
         stop-color="#f9f9f9"
         id="stop22" />
      <stop
         offset="1"
         stop-color="#f6f6f6"
         id="stop24" />
    </linearGradient>
    <linearGradient
       id="f"
       y1="8.627"
       x1="9.642"
       y2="24.326"
       x2="23.912"
       gradientUnits="userSpaceOnUse">
      <stop
         stop-color="#491309"
         id="stop27-1" />
      <stop
         offset="1"
         stop-color="#b6642d"
         id="stop29" />
    </linearGradient>
    <linearGradient
       id="h"
       y1="33.922"
       x1="32.641"
       y2="34.953"
       x2="33.609"
       gradientUnits="userSpaceOnUse">
      <stop
         stop-color="#cfcfcf"
         id="stop37" />
      <stop
         offset="1"
         stop-color="#ededed"
         stop-opacity="0"
         id="stop39" />
    </linearGradient>
    <linearGradient
       id="o"
       y1="522.24"
       x1="385.61"
       y2="523.27"
       gradientUnits="userSpaceOnUse"
       x2="409.82"
       gradientTransform="matrix(.70711.70711-.70711.70711 105.48-635.28)">
      <stop
         stop-color="#ffffff"
         id="stop62" />
      <stop
         offset="1"
         stop-color="#dfe1e3"
         id="stop64" />
    </linearGradient>
    <path
       id="p"
       color="#000000"
       d="M25 15A9 9 0 1 1 7 15 9 9 0 1 1 25 15" />
    <linearGradient
       gradientUnits="userSpaceOnUse"
       y2="503.67"
       x2="408.632"
       y1="543.773"
       x1="408.571"
       id="linearGradient4415"
       xlink:href="#linearGradient4299" />
    <linearGradient
       id="linearGradient4227-5">
      <stop
         id="stop8"
         style="stop-color:#2e3436;stop-opacity:1"
         offset="0" />
      <stop
         id="stop10"
         style="stop-color:#555753;stop-opacity:1"
         offset="1" />
    </linearGradient>
    <linearGradient
       gradientTransform="matrix(0.96481792,0,0,0.96481792,14.374377,18.428304)"
       gradientUnits="userSpaceOnUse"
       y2="512.397"
       x2="408.571"
       y1="535.199"
       x1="408.571"
       id="linearGradient4437"
       xlink:href="#linearGradient4227-5" />
    <linearGradient
       id="linearGradient4299">
      <stop
         id="stop14-3"
         style="stop-color:#1064d3;stop-opacity:1"
         offset="0" />
      <stop
         id="stop16-6"
         style="stop-color:#14c6fd;stop-opacity:1"
         offset="1" />
    </linearGradient>
    <linearGradient
       gradientUnits="userSpaceOnUse"
       y2="42.953"
       x2="42.946"
       y1="9.083"
       x1="9.077"
       id="linearGradient4392"
       xlink:href="#linearGradient4532" />
    <linearGradient
       id="linearGradient4258">
      <stop
         style="stop-color:#000019;stop-opacity:1"
         offset="0"
         id="stop2-36" />
      <stop
         style="stop-color:#000019;stop-opacity:0.29064038"
         offset="1"
         id="stop4-7" />
    </linearGradient>
    <linearGradient
       id="linearGradient4223">
      <stop
         style="stop-color:#c6cdd1;stop-opacity:1"
         offset="0"
         id="stop7-6" />
      <stop
         style="stop-color:#e0e5e7;stop-opacity:1"
         offset="1"
         id="stop9-7" />
    </linearGradient>
    <linearGradient
       id="linearGradient4217">
      <stop
         offset="0"
         style="stop-color:#1f93b9;stop-opacity:1"
         id="stop12-5" />
      <stop
         offset="1"
         style="stop-color:#1a5c9b;stop-opacity:1"
         id="stop14-5" />
    </linearGradient>
    <linearGradient
       id="linearGradient4191">
      <stop
         style="stop-color:#dc2b41;stop-opacity:1"
         offset="0"
         id="stop17-3" />
      <stop
         style="stop-color:#c61423;stop-opacity:1"
         offset="1"
         id="stop19-5" />
    </linearGradient>
    <linearGradient
       xlink:href="#linearGradient4217"
       id="linearGradient4197"
       x1="24"
       y1="7"
       x2="24"
       y2="29"
       gradientUnits="userSpaceOnUse"
       gradientTransform="translate(-50.199325,-1.1505466)" />
    <linearGradient
       xlink:href="#linearGradient4191"
       id="linearGradient4207"
       x1="24"
       y1="30"
       x2="24"
       y2="41"
       gradientUnits="userSpaceOnUse"
       gradientTransform="translate(-50.199325,0.84945337)" />
    <linearGradient
       xlink:href="#linearGradient4191"
       id="linearGradient4215"
       x1="11"
       y1="30"
       x2="11"
       y2="41"
       gradientUnits="userSpaceOnUse"
       gradientTransform="translate(-51.199325,0.84945337)" />
    <linearGradient
       xlink:href="#linearGradient4223"
       id="linearGradient4229"
       x1="29"
       y1="44"
       x2="29"
       y2="4"
       gradientUnits="userSpaceOnUse"
       gradientTransform="translate(-51.199325,-1.1505466)" />
    <radialGradient
       xlink:href="#linearGradient4258"
       id="radialGradient4264"
       cx="24"
       cy="24"
       fx="24"
       fy="24"
       r="19"
       gradientUnits="userSpaceOnUse"
       gradientTransform="translate(-51.199325,-1.1505466)" />
    <path
       d="m.735 43.06l23.265-42.35 23.09 42.31c0 0-2.212-.155-5.272-.291-2.851-.127-1.794.114-8.278-1.089-4.911-.91-8.522-2.865-15.253-2.727-7.453.153-17.549 4.149-17.549 4.149"
       id="c-2" />
    <path
       d="m.735 43.06l23.265-42.35 23.09 42.31c0 0-2.212-.155-5.272-.291-2.851-.127-1.794.114-8.278-1.089-4.911-.91-8.522-2.865-15.253-2.727-7.453.153-17.549 4.149-17.549 4.149"
       id="c-29" />
    <linearGradient
       id="c-0-5"
       x1="44"
       x2="4"
       gradientUnits="userSpaceOnUse">
      <stop
         stop-color="#42a603"
         id="stop12-9" />
      <stop
         offset="1"
         stop-color="#78da06"
         id="stop14-22" />
    </linearGradient>
    <path
       d="M25 15A9 9 0 1 1 7 15 9 9 0 1 1 25 15"
       color="#000000"
       id="p-0" />
    <radialGradient
       gradientTransform="translate(-51.199325,-1.1505466)"
       gradientUnits="userSpaceOnUse"
       r="19"
       fy="24"
       fx="24"
       cy="24"
       cx="24"
       id="radialGradient4264-4"
       xlink:href="#linearGradient4258" />
    <path
       id="c-2-7"
       d="m.735 43.06l23.265-42.35 23.09 42.31c0 0-2.212-.155-5.272-.291-2.851-.127-1.794.114-8.278-1.089-4.911-.91-8.522-2.865-15.253-2.727-7.453.153-17.549 4.149-17.549 4.149" />
    <path
       d="m.735 43.06l23.265-42.35 23.09 42.31c0 0-2.212-.155-5.272-.291-2.851-.127-1.794.114-8.278-1.089-4.911-.91-8.522-2.865-15.253-2.727-7.453.153-17.549 4.149-17.549 4.149"
       id="c-2912" />
    <linearGradient
       id="c-0-8"
       x1="44"
       x2="4"
       gradientUnits="userSpaceOnUse">
      <stop
         stop-color="#42a603"
         id="stop12-97" />
      <stop
         offset="1"
         stop-color="#78da06"
         id="stop14-36" />
    </linearGradient>
    <path
       d="M25 15A9 9 0 1 1 7 15 9 9 0 1 1 25 15"
       color="#000000"
       id="p-32" />
    <radialGradient
       gradientTransform="translate(-51.199325,-1.1505466)"
       gradientUnits="userSpaceOnUse"
       r="19"
       fy="24"
       fx="24"
       cy="24"
       cx="24"
       id="radialGradient4264-74"
       xlink:href="#linearGradient4258" />
    <path
       id="c-2-5"
       d="m.735 43.06l23.265-42.35 23.09 42.31c0 0-2.212-.155-5.272-.291-2.851-.127-1.794.114-8.278-1.089-4.911-.91-8.522-2.865-15.253-2.727-7.453.153-17.549 4.149-17.549 4.149" />
    <path
       id="c-291"
       d="m.735 43.06l23.265-42.35 23.09 42.31c0 0-2.212-.155-5.272-.291-2.851-.127-1.794.114-8.278-1.089-4.911-.91-8.522-2.865-15.253-2.727-7.453.153-17.549 4.149-17.549 4.149" />
    <linearGradient
       gradientUnits="userSpaceOnUse"
       x2="4"
       x1="44"
       id="c-0-9">
      <stop
         id="stop12-2"
         stop-color="#42a603" />
      <stop
         id="stop14-28"
         stop-color="#78da06"
         offset="1" />
    </linearGradient>
    <path
       id="p-3"
       color="#000000"
       d="M25 15A9 9 0 1 1 7 15 9 9 0 1 1 25 15" />
    <radialGradient
       xlink:href="#linearGradient4258"
       id="radialGradient4264-7"
       cx="24"
       cy="24"
       fx="24"
       fy="24"
       r="19"
       gradientUnits="userSpaceOnUse"
       gradientTransform="translate(-51.199325,-1.1505466)" />
    <path
       d="m.735 43.06l23.265-42.35 23.09 42.31c0 0-2.212-.155-5.272-.291-2.851-.127-1.794.114-8.278-1.089-4.911-.91-8.522-2.865-15.253-2.727-7.453.153-17.549 4.149-17.549 4.149"
       id="c-2-6" />
    <path
       d="m.735 43.06l23.265-42.35 23.09 42.31c0 0-2.212-.155-5.272-.291-2.851-.127-1.794.114-8.278-1.089-4.911-.91-8.522-2.865-15.253-2.727-7.453.153-17.549 4.149-17.549 4.149"
       id="c-29-2" />
    <linearGradient
       id="c-0-5-4"
       x1="44"
       x2="4"
       gradientUnits="userSpaceOnUse">
      <stop
         stop-color="#42a603"
         id="stop12-9-4" />
      <stop
         offset="1"
         stop-color="#78da06"
         id="stop14-22-3" />
    </linearGradient>
    <path
       d="M25 15A9 9 0 1 1 7 15 9 9 0 1 1 25 15"
       color="#000000"
       id="p-0-0" />
    <radialGradient
       gradientTransform="translate(-51.199325,-1.1505466)"
       gradientUnits="userSpaceOnUse"
       r="19"
       fy="24"
       fx="24"
       cy="24"
       cx="24"
       id="radialGradient4264-4-7"
       xlink:href="#linearGradient4258" />
    <path
       id="c-2-7-8"
       d="m.735 43.06l23.265-42.35 23.09 42.31c0 0-2.212-.155-5.272-.291-2.851-.127-1.794.114-8.278-1.089-4.911-.91-8.522-2.865-15.253-2.727-7.453.153-17.549 4.149-17.549 4.149" />
    <path
       d="m.735 43.06l23.265-42.35 23.09 42.31c0 0-2.212-.155-5.272-.291-2.851-.127-1.794.114-8.278-1.089-4.911-.91-8.522-2.865-15.253-2.727-7.453.153-17.549 4.149-17.549 4.149"
       id="c-3" />
    <linearGradient
       id="c-0-2"
       x1="44"
       x2="4"
       gradientUnits="userSpaceOnUse">
      <stop
         stop-color="#42a603"
         id="stop12-3" />
      <stop
         offset="1"
         stop-color="#78da06"
         id="stop14-7" />
    </linearGradient>
    <path
       d="M25 15A9 9 0 1 1 7 15 9 9 0 1 1 25 15"
       color="#000000"
       id="p-7" />
    <radialGradient
       gradientTransform="translate(-51.199325,-1.1505466)"
       gradientUnits="userSpaceOnUse"
       r="19"
       fy="24"
       fx="24"
       cy="24"
       cx="24"
       id="radialGradient4264-6"
       xlink:href="#linearGradient4258" />
    <path
       id="c-2-1"
       d="m.735 43.06l23.265-42.35 23.09 42.31c0 0-2.212-.155-5.272-.291-2.851-.127-1.794.114-8.278-1.089-4.911-.91-8.522-2.865-15.253-2.727-7.453.153-17.549 4.149-17.549 4.149" />
    <inkscape:path-effect
       effect="spiro"
       id="path-effect4429-5"
       is_visible="true" />
    <inkscape:path-effect
       effect="spiro"
       id="path-effect4429-5-9"
       is_visible="true" />
    <inkscape:path-effect
       effect="spiro"
       id="path-effect4429-0"
       is_visible="true" />
    <inkscape:path-effect
       effect="spiro"
       id="path-effect4555-0"
       is_visible="true" />
    <linearGradient
       gradientTransform="matrix(.48276 0 0 .40835 384.64 384.68)"
       x2="0"
       gradientUnits="userSpaceOnUse"
       y2="325.98"
       y1="394.54"
       id="a-3">
      <stop
         id="stop4459"
         stop-opacity="0"
         stop-color="#ffffff" />
      <stop
         id="stop4461"
         stop-opacity=".2"
         stop-color="#ffffff"
         offset="1" />
    </linearGradient>
    <linearGradient
       id="linearGradient4300-8">
      <stop
         stop-color="#f62459"
         id="stop4302-2" />
      <stop
         stop-color="#f73768"
         id="stop4304-9"
         offset="1" />
    </linearGradient>
    <path
       d="m.735 43.06l23.265-42.35 23.09 42.31c0 0-2.212-.155-5.272-.291-2.851-.127-1.794.114-8.278-1.089-4.911-.91-8.522-2.865-15.253-2.727-7.453.153-17.549 4.149-17.549 4.149"
       id="c-6" />
    <linearGradient
       xlink:href="#linearGradient4222"
       id="linearGradient3863"
       x1="402.571"
       y1="543.798"
       x2="402.571"
       y2="519.798"
       gradientUnits="userSpaceOnUse"
       gradientTransform="matrix(0.78135593,0,0,0.78135593,-346.93123,-382.93369)" />
    <linearGradient
       xlink:href="#linearGradient4198"
       id="linearGradient3865"
       x1="414.571"
       y1="543.798"
       x2="414.571"
       y2="519.798"
       gradientUnits="userSpaceOnUse"
       gradientTransform="matrix(0.78135593,0,0,0.78135593,-346.93123,-382.93369)" />
    <linearGradient
       xlink:href="#linearGradient4198"
       id="linearGradient3867"
       x1="24"
       y1="35"
       x2="24"
       y2="4"
       gradientUnits="userSpaceOnUse"
       gradientTransform="matrix(1,0,0,0.99924452,384.57143,499.82444)" />
    <linearGradient
       gradientTransform="translate(-384.57001,-499.79999)"
       gradientUnits="userSpaceOnUse"
       y2="525.725"
       x2="391.89"
       y1="544.092"
       x1="403.421"
       id="linearGradient3869"
       xlink:href="#linearGradient4454" />
    <linearGradient
       gradientTransform="translate(-384.57001,-499.79999)"
       gradientUnits="userSpaceOnUse"
       y2="505.319"
       x2="391.154"
       y1="523.203"
       x1="401.296"
       id="linearGradient3871"
       xlink:href="#linearGradient4472" />
    <linearGradient
       gradientTransform="translate(-384.57001,-499.79999)"
       gradientUnits="userSpaceOnUse"
       y2="503.798"
       x2="413.779"
       y1="523.798"
       x1="424.602"
       id="linearGradient3873"
       xlink:href="#linearGradient4422-8" />
    <linearGradient
       gradientTransform="translate(-384.57001,-499.79999)"
       gradientUnits="userSpaceOnUse"
       y2="525.748"
       x2="412.118"
       y1="543.488"
       x1="420.884"
       id="linearGradient3875"
       xlink:href="#linearGradient4438" />
    <linearGradient
       gradientTransform="translate(0.00142264,-0.00198746)"
       gradientUnits="userSpaceOnUse"
       y2="44"
       x2="44"
       y1="4"
       x1="4"
       id="linearGradient3877"
       xlink:href="#linearGradient4532" />
    <linearGradient
       id="c-0-3"
       x1="44"
       x2="4"
       gradientUnits="userSpaceOnUse">
      <stop
         stop-color="#42a603"
         id="stop12-1" />
      <stop
         offset="1"
         stop-color="#78da06"
         id="stop14-94" />
    </linearGradient>
    <path
       d="M25 15A9 9 0 1 1 7 15 9 9 0 1 1 25 15"
       color="#000000"
       id="p-5" />
    <linearGradient
       xlink:href="#linearGradient4227-5"
       id="linearGradient3883"
       x1="408.571"
       y1="535.199"
       x2="408.571"
       y2="512.397"
       gradientUnits="userSpaceOnUse"
       gradientTransform="matrix(0.96481792,0,0,0.96481792,14.374377,18.428304)" />
    <linearGradient
       xlink:href="#linearGradient4532"
       id="linearGradient3885"
       x1="9.077"
       y1="9.083"
       x2="42.946"
       y2="42.953"
       gradientUnits="userSpaceOnUse" />
    <linearGradient
       gradientTransform="translate(-50.199325,-1.1505466)"
       gradientUnits="userSpaceOnUse"
       y2="29"
       x2="24"
       y1="7"
       x1="24"
       id="linearGradient3887"
       xlink:href="#linearGradient4217" />
    <linearGradient
       gradientTransform="translate(-50.199325,0.84945337)"
       gradientUnits="userSpaceOnUse"
       y2="41"
       x2="24"
       y1="30"
       x1="24"
       id="linearGradient3889"
       xlink:href="#linearGradient4191" />
    <linearGradient
       gradientTransform="translate(-51.199325,0.84945337)"
       gradientUnits="userSpaceOnUse"
       y2="41"
       x2="11"
       y1="30"
       x1="11"
       id="linearGradient3891"
       xlink:href="#linearGradient4191" />
    <linearGradient
       gradientTransform="translate(-51.199325,-1.1505466)"
       gradientUnits="userSpaceOnUse"
       y2="4"
       x2="29"
       y1="44"
       x1="29"
       id="linearGradient3893"
       xlink:href="#linearGradient4223" />
    <radialGradient
       gradientTransform="translate(-51.199325,-1.1505466)"
       gradientUnits="userSpaceOnUse"
       r="19"
       fy="24"
       fx="24"
       cy="24"
       cx="24"
       id="radialGradient4264-47"
       xlink:href="#linearGradient4258" />
    <path
       id="c-2-4"
       d="m.735 43.06l23.265-42.35 23.09 42.31c0 0-2.212-.155-5.272-.291-2.851-.127-1.794.114-8.278-1.089-4.911-.91-8.522-2.865-15.253-2.727-7.453.153-17.549 4.149-17.549 4.149" />
  </defs>
  <g
     id="g3694"
     transform="translate(0.36142571,0.06979629)">
    <g
       style="stroke:#15c1f9;stroke-width:0.30000001;stroke-miterlimit:4;stroke-dasharray:none;stroke-opacity:1"
       inkscape:label="Capa 1"
       id="layer1"
       transform="translate(-384.75633,-515.61659)">
      <g
         style="stroke:#15c1f9;stroke-width:1.16703296;stroke-miterlimit:4;stroke-dasharray:none;stroke-opacity:1"
         transform="matrix(0.25706214,0,0,0.25706214,390.63923,529.52681)"
         id="g4437-3-6">
        <g
           style="stroke:#15c1f9;stroke-width:0.30000001;stroke-miterlimit:4;stroke-dasharray:none;stroke-opacity:1"
           transform="matrix(3.89011,0,0,3.89011,-1520.0669,-2061.7389)"
           id="layer1-8"
           inkscape:label="Capa 1">
          <rect
             ry="1.3417394"
             y="519.15619"
             x="387.62262"
             height="26.207815"
             width="26.180746"
             id="rect4713"
             style="opacity:1;fill:#66baf6;fill-opacity:1;stroke:#4aadf4;stroke-width:0.30000001;stroke-linecap:butt;stroke-linejoin:miter;stroke-miterlimit:4;stroke-dasharray:none;stroke-dashoffset:0;stroke-opacity:1" />
        </g>
      </g>
    </g>
  </g>
  <g
     transform="matrix(1.2032596,0,0,1.264927,3.1481606,-1268.5928)"
     id="g4161"
     style="font-style:normal;font-weight:normal;font-size:22.63346481px;line-height:125%;font-family:sans-serif;letter-spacing:0px;word-spacing:0px;fill:#f9f9f9;fill-opacity:1;stroke:none;stroke-width:1px;stroke-linecap:butt;stroke-linejoin:miter;stroke-opacity:1">
    <path
       style="color:#000000;font-style:normal;font-variant:normal;font-weight:normal;font-stretch:normal;font-size:medium;line-height:125%;font-family:sans-serif;text-indent:0;text-align:start;text-decoration:none;text-decoration-line:none;text-decoration-style:solid;text-decoration-color:#000000;letter-spacing:0px;word-spacing:0px;text-transform:none;direction:ltr;block-progression:tb;writing-mode:lr-tb;baseline-shift:baseline;text-anchor:start;white-space:normal;clip-rule:nonzero;display:inline;overflow:visible;visibility:visible;opacity:1;isolation:auto;mix-blend-mode:normal;color-interpolation:sRGB;color-interpolation-filters:linearRGB;solid-color:#000000;solid-opacity:1;fill:#f9f9f9;fill-opacity:1;fill-rule:nonzero;stroke:none;stroke-width:0.40200001;stroke-linecap:butt;stroke-linejoin:miter;stroke-miterlimit:4;stroke-dasharray:none;stroke-dashoffset:0;stroke-opacity:1;color-rendering:auto;image-rendering:auto;shape-rendering:auto;text-rendering:auto;enable-background:accumulate"
       d="m 6.0491545,1009.6536 c -0.9538501,0 -1.7416719,0.7453 -1.7416719,1.6709 0,0.9256 0.7878218,1.6673 1.7416719,1.6674 0.9538511,0 1.7453947,-0.7418 1.7453947,-1.6674 0,-0.9256 -0.7915436,-1.6709 -1.7453947,-1.6709 z m 4.9217135,0 c -0.95385,0 -1.7416723,0.7453 -1.7416723,1.6709 0,0.9256 0.7878223,1.6673 1.7416723,1.6674 0.953851,0 1.743533,-0.7418 1.743533,-1.6674 0,-0.9256 -0.789682,-1.6709 -1.743533,-1.6709 z m 4.683536,0 c -0.953851,0 -1.743533,0.7453 -1.743533,1.6709 0,0.9256 0.789682,1.6673 1.743533,1.6674 0.95385,0 1.741673,-0.7418 1.741673,-1.6674 0,-0.9256 -0.787823,-1.6709 -1.741673,-1.6709 z m -9.6052495,0.462 c 0.7169388,0 1.2839259,0.5452 1.2839259,1.2089 0,0.6637 -0.5669871,1.2072 -1.2839259,1.2072 -0.7169378,0 -1.2802032,-0.5435 -1.2802032,-1.2072 0,-0.6637 0.5632654,-1.2089 1.2802032,-1.2089 z m 4.9217135,0 c 0.716939,0 1.282065,0.5452 1.282065,1.2089 0,0.6637 -0.565126,1.2072 -1.282065,1.2072 -0.716937,0 -1.2802033,-0.5435 -1.2802033,-1.2072 0,-0.6637 0.5632663,-1.2089 1.2802033,-1.2089 z m 4.683536,0 c 0.716937,0 1.283925,0.5452 1.283925,1.2089 0,0.6637 -0.566988,1.2072 -1.283925,1.2072 -0.716938,0 -1.282064,-0.5435 -1.282064,-1.2072 0,-0.6637 0.565126,-1.2089 1.282064,-1.2089 z m -9.6052495,3.9171 c -0.9538501,0 -1.7416719,0.7436 -1.7416719,1.6691 0,0.9256 0.7878218,1.6692 1.7416719,1.6692 0.9538511,0 1.7453947,-0.7436 1.7453947,-1.6692 0,-0.9255 -0.7915436,-1.6691 -1.7453947,-1.6691 z m 4.9217135,0 c -0.95385,0 -1.7416723,0.7436 -1.7416723,1.6691 0,0.9256 0.7878223,1.6692 1.7416723,1.6692 0.953851,0 1.743533,-0.7436 1.743533,-1.6692 0,-0.9255 -0.789682,-1.6691 -1.743533,-1.6691 z m 4.683536,0 c -0.953851,0 -1.743533,0.7436 -1.743533,1.6691 0,0.9256 0.789682,1.6692 1.743533,1.6692 0.95385,0 1.741673,-0.7436 1.741673,-1.6692 0,-0.9255 -0.787823,-1.6691 -1.741673,-1.6691 z m -9.6052495,0.462 c 0.7169388,0 1.2839259,0.5434 1.2839259,1.2071 0,0.6638 -0.5669871,1.209 -1.2839259,1.209 -0.7169378,0 -1.2802032,-0.5452 -1.2802032,-1.209 0,-0.6637 0.5632654,-1.2071 1.2802032,-1.2071 z m 4.9217135,0 c 0.716939,0 1.282065,0.5434 1.282065,1.2071 0,0.6638 -0.565126,1.209 -1.282065,1.209 -0.716937,0 -1.2802033,-0.5452 -1.2802033,-1.209 0,-0.6637 0.5632663,-1.2071 1.2802033,-1.2071 z m 4.683536,0 c 0.716937,0 1.283925,0.5434 1.283925,1.2071 0,0.6638 -0.566988,1.209 -1.283925,1.209 -0.716938,0 -1.282064,-0.5452 -1.282064,-1.209 0,-0.6637 0.565126,-1.2071 1.282064,-1.2071 z m -9.6052495,3.9914 c -0.9538501,0 -1.7416719,0.7452 -1.7416719,1.6709 0,0.9256 0.7878218,1.671 1.7416719,1.671 0.9538511,0 1.7453947,-0.7454 1.7453947,-1.671 0,-0.9257 -0.7915436,-1.6709 -1.7453947,-1.6709 z m 4.9217135,0 c -0.95385,0 -1.7416723,0.7452 -1.7416723,1.6709 0,0.9256 0.7878223,1.671 1.7416723,1.671 0.953851,0 1.743533,-0.7454 1.743533,-1.671 0,-0.9257 -0.789682,-1.6709 -1.743533,-1.6709 z m 4.683536,0 c -0.953851,0 -1.743533,0.7452 -1.743533,1.6709 0,0.9256 0.789682,1.671 1.743533,1.671 0.95385,0 1.741673,-0.7454 1.741673,-1.671 0,-0.9257 -0.787823,-1.6709 -1.741673,-1.6709 z m -9.6052495,0.462 c 0.7169388,0 1.2839259,0.5451 1.2839259,1.2089 0,0.6638 -0.5669871,1.209 -1.2839259,1.209 -0.7169378,0 -1.2802032,-0.5452 -1.2802032,-1.209 0,-0.6638 0.5632654,-1.2089 1.2802032,-1.2089 z m 4.9217135,0 c 0.716939,0 1.282065,0.5451 1.282065,1.2089 0,0.6638 -0.565126,1.209 -1.282065,1.209 -0.716937,0 -1.2802033,-0.5452 -1.2802033,-1.209 0,-0.6638 0.5632663,-1.2089 1.2802033,-1.2089 z m 4.683536,0 c 0.716937,0 1.283925,0.5451 1.283925,1.2089 0,0.6638 -0.566988,1.209 -1.283925,1.209 -0.716938,0 -1.282064,-0.5452 -1.282064,-1.209 0,-0.6638 0.565126,-1.2089 1.282064,-1.2089 z"
       id="path4136"
       inkscape:connector-curvature="0" />
  </g>
</svg>
