<svg xmlns="http://www.w3.org/2000/svg" viewBox="0 0 32 32"><defs><linearGradient id="0" x1="451.98" y1="557.95" x2="451.83" y2="528.01" gradientUnits="userSpaceOnUse"><stop stop-color="#4dbf03"/><stop offset="1" stop-color="#8cff58"/></linearGradient></defs><g transform="translate(-435.34-526.79)"><rect width="22.411" height="29.671" x="440.13" y="527.99" fill="url(#0)" fill-rule="evenodd" stroke="#235503" stroke-linecap="round" stroke-width=".3" rx="1"/><path d="m322.04 43.983l23.491-36.26c1.51-2.287.841-5.414-1.467-6.903-2.286-1.51-5.414-.884-6.903 1.467l-24.353 37.512c-18.27-7.485-38.676-11.691-60.23-11.691-21.571 0-41.934 4.206-60.25 11.691l-24.31-37.512c-1.488-2.351-4.638-2.977-6.946-1.467-2.308 1.488-2.977 4.616-1.467 6.903l23.512 36.26c-42.39 20.773-70.968 59.924-70.968 104.83 0 2.761.173 5.479.41 8.175h280.05c.237-2.696.388-5.414.388-8.175.0001-44.91-28.602-84.06-70.967-104.83m-134.39 64.928c-7.442 0-13.482-5.997-13.482-13.46 0-7.463 6.04-13.439 13.482-13.439 7.485 0 13.482 5.975 13.482 13.439 0 7.464-6.04 13.46-13.482 13.46m129.84 0c-7.442 0-13.482-5.997-13.482-13.46 0-7.463 6.04-13.439 13.482-13.439 7.463 0 13.46 5.975 13.46 13.439 0 7.463-5.997 13.46-13.46 13.46" transform="matrix(.04985 0 0 .04985 438.69 538.54)" fill="#235503"/></g></svg>