<svg xmlns="http://www.w3.org/2000/svg" viewBox="0 0 32 32"><defs><linearGradient id="0" x1="452.11" y1="556.82" x2="451.76" y2="528.82" gradientUnits="userSpaceOnUse"><stop stop-color="#309bd5"/><stop offset="1" stop-color="#1ab4fd"/></linearGradient></defs><g transform="translate(-435.76-526.83)"><rect width="22.411" height="29.671" x="440.55" y="528.02" fill="url(#0)" fill-rule="evenodd" stroke="#154a65" stroke-linecap="round" stroke-width=".3" rx="1"/><path d="m31.834 1.553c.306-.461.179-1.08-.282-1.386-.462-.305-1.08-.179-1.386.283l-3.699 5.599c-.154-.025-.307-.048-.467-.048-1.652 0-3 1.347-3 3 0 .318.063.619.155.907l-3.572 4.555c-.461-.288-1-.462-1.582-.462-1.613 0-2.924 1.283-2.988 2.88l-5.651 3.291c-.55-.706-1.399-1.171-2.362-1.171-1.654 0-3 1.347-3 3 0 .65.214 1.25.566 1.742l-4.402 6.709c-.303.463-.175 1.082.287 1.385.169.111.36.164.548.164.326 0 .646-.158.837-.451l4.375-6.666c.253.068.516.117.789.117 1.613 0 2.924-1.281 2.988-2.881l5.651-3.289c.549.707 1.398 1.17 2.361 1.17 1.654 0 3-1.346 3-3 0-.317-.062-.619-.153-.906l3.57-4.554c.461.287 1 .461 1.582.461 1.653 0 3-1.346 3-3 0-.767-.298-1.459-.771-1.99l3.606-5.459m-24.834 21.448c-.552 0-1-.447-1-1 0-.551.448-1 1-1 .552 0 1 .449 1 1 0 .553-.448 1-1 1zm11-5c-.552 0-1-.447-1-1 0-.551.448-1 1-1 .552 0 1 .449 1 1 0 .553-.448 1-1 1m8-8c-.552 0-1-.448-1-1 0-.551.448-1 1-1 .552 0 1 .449 1 1 0 .552-.449 1-1 1m-20 20c-.553 0-1 .449-1 1 0 .553.447 1 1 1 .553 0 1-.447 1-1 0-.551-.446-1-1-1m5 0c-.553 0-1 .449-1 1 0 .553.447 1 1 1 .553 0 1-.447 1-1 0-.551-.446-1-1-1m5 0c-.553 0-1 .449-1 1 0 .553.447 1 1 1 .553 0 1-.447 1-1 0-.551-.446-1-1-1m5 0c-.553 0-1 .449-1 1 0 .553.447 1 1 1 .554 0 1-.447 1-1 0-.551-.446-1-1-1m5 0c-.553 0-1 .449-1 1 0 .553.447 1 1 1 .554 0 1-.447 1-1 0-.551-.446-1-1-1m5 0c-.553 0-1 .449-1 1 0 .553.447 1 1 1 .554 0 1-.447 1-1 0-.551-.446-1-1-1m-30-3c.553 0 1-.447 1-1 0-.551-.447-1-1-1-.553 0-1 .449-1 1 0 .553.447 1 1 1m0-5c.553 0 1-.447 1-1 0-.551-.447-1-1-1-.553 0-1 .449-1 1 0 .553.447 1 1 1m0-5c.553 0 1-.447 1-1 0-.551-.447-1-1-1-.553 0-1 .448-1 1 0 .553.447 1 1 1m0-5c.553 0 1-.446 1-1 0-.552-.447-1-1-1-.553 0-1 .448-1 1 0 .555.447 1 1 1m0-5c.553 0 1-.446 1-1 0-.552-.447-1-1-1-.553 0-1 .448-1 1 0 .555.447 1 1 1m0-5c.553 0 1-.446 1-1 0-.552-.447-1-1-1-.553 0-1 .448-1 1 0 .555.447 1 1 1" fill="#fff" transform="matrix(.3767 0 0 .375 445.6 536.64)"/></g></svg>