<svg xmlns="http://www.w3.org/2000/svg" viewBox="0 0 32 32"><defs><linearGradient id="0" x1="451.69" y1="556.79" x2="451.34" y2="528.79" gradientUnits="userSpaceOnUse"><stop stop-color="#197cf1"/><stop offset="1" stop-color="#20bcfa"/></linearGradient></defs><g transform="translate(-435.34-526.79)" stroke="#1f2a47"><rect width="22.411" height="29.671" x="440.13" y="527.99" fill="url(#0)" fill-rule="evenodd" stroke="#12547e" stroke-linecap="round" stroke-width=".3" rx="1"/><path d="m457.52 538.82h-1.648v-1.483c0-.303-.246-.549-.549-.549h-7.963c-.303 0-.549.246-.549.549v1.483h-1.648c-.303 0-.549.246-.549.549v5.382c0 .303.246.549.549.549h1.648v1.945.949c0 .183.037.32.179.449.066.06.136.099.222.124.08.022.158.02.239.02h3.891 3.891c.08 0 .159.002.239-.02.086-.024.156-.063.222-.124.142-.13.178-.266.178-.45v-.949-1.944h1.648c.303 0 .549-.246.549-.549v-5.382c0-.303-.246-.549-.549-.549m-2.197 9.419h-7.963v-4.339h7.963zm0-9.419h-7.963v-.934-.549h7.964v.549c0 .311 0 .622 0 .934" fill="#fff" stroke="none"/></g></svg>