<svg xmlns="http://www.w3.org/2000/svg" xmlns:xlink="http://www.w3.org/1999/xlink" viewBox="0 0 32 32"><defs><path id="1" d="m22 3h27v15h-27z"/><linearGradient id="0" x1="452.11" y1="556.82" x2="451.76" y2="528.82" gradientUnits="userSpaceOnUse"><stop stop-color="#269de0"/><stop offset="1" stop-color="#1ab4fd"/></linearGradient></defs><g transform="translate(-42.774-15.546)"><g fill-rule="evenodd"><rect width="22.411" height="29.671" x="440.55" y="528.02" fill="url(#0)" stroke="#3d434a" stroke-linecap="round" stroke-width=".3" rx="1" transform="translate(-392.99-511.28)"/><path d="m483.06 513.4v53.36h18.861c0 0 1.523-.001 1.523-1.547v-50.26c0 0-.007-1.552-1.799-1.552z" fill="#fff" transform="matrix(.54984 0 0 .55038-206.98-265.68)" opacity=".8" stroke="none"/></g><g transform="matrix(.54064 0 0 .54064-162.11-255.64)" fill="#3d434a"><g transform="translate(-58.47-.395)" font-family="sans-serif" text-align="start" word-spacing="0" line-height="125%" letter-spacing="0" font-size="10"><flowRoot transform="translate(389.57 520.8)"><flowRegion><use xlink:href="#1"/></flowRegion><flowPara>Plasm</flowPara></flowRoot><g transform="matrix(1.57636 0 0 1.57636-222.87-314.51)"><flowRoot transform="translate(389.57 520.8)"><flowRegion><use xlink:href="#1"/></flowRegion><flowPara>Plasm</flowPara></flowRoot><flowRoot transform="translate(420.8 512.62)"><flowRegion><use xlink:href="#1"/></flowRegion><flowPara>Plasm</flowPara></flowRoot></g></g><path d="m192.48 60.57c-1.489-4.625-5.243-10.769-14.659-13.825-2.275-.738-4.692-1.108-7.199-1.108-19.522 0-42.752 23.88-54.44 37.534-4.298-6.1-11.367-10.113-19.379-10.113-8.02 0-15.08 4.02-19.387 10.113-11.681-13.649-34.919-37.535-54.44-37.535-2.506 0-4.93.376-7.2 1.108-9.415 3.057-13.169 9.207-14.665 13.826-4.061 12.614 4.01 28.18 9.08 36.22-5.071 8.04-13.14 23.596-9.08 36.22 1.496 4.623 5.249 10.77 14.665 13.819 2.27.745 4.693 1.111 7.2 1.111 19.523 0 42.755-23.886 54.45-37.533 4.297 6.1 11.367 10.113 19.381 10.113 8.01 0 15.08-4.01 19.379-10.113 11.686 13.647 34.921 37.533 54.44 37.533 2.507 0 4.924-.378 7.199-1.111 9.416-3.05 13.17-9.203 14.659-13.819 4.061-12.613-4.01-28.18-9.08-36.22 5.066-8.04 13.13-23.599 9.08-36.22" transform="matrix(.14464 0 0 .14464 394.57 509.8)"/></g></g></svg>