<svg xmlns="http://www.w3.org/2000/svg" viewBox="0 0 32 32"><defs><linearGradient id="0" x1="452.11" y1="556.82" x2="451.76" y2="528.82" gradientUnits="userSpaceOnUse"><stop stop-color="#f5a720"/><stop offset="1" stop-color="#fac632"/></linearGradient></defs><rect width="22.411" height="29.671" x="440.55" y="528.02" fill="url(#0)" fill-rule="evenodd" stroke="#6b470d" stroke-linecap="round" stroke-width=".3" rx="1" transform="translate(-435.76-526.82)"/><path d="m118.7 6.232c-1.886 0-3.405 1.518-3.405 3.405v2.27h5.674v1.135h-5.674-2.27c-2.515 0-4.539 2.025-4.539 4.539v2.27c0 2.515 2.025 4.539 4.539 4.539v-2.27c0-2.089 1.405-3.823 3.32-4.355.167-.046.337-.082.51-.113.232-.036.466-.071.709-.071h4.539 3.659c.542-.602.88-1.392.88-2.27v-5.674c0-1.886-1.518-3.405-3.405-3.405zm10.214 6.809v2.27c0 2.089-1.405 3.823-3.32 4.355-.167.046-.337.082-.51.113-.232.036-.466.071-.709.071h-4.539-3.659c-.542.602-.88 1.392-.88 2.27v5.674c0 1.886 1.518 3.405 3.405 3.405h4.539c1.886 0 3.405-1.518 3.405-3.405v-2.27h-5.674v-1.135h5.674 2.27c2.515 0 4.539-2.025 4.539-4.539v-2.27c0-2.515-2.025-4.539-4.539-4.539" transform="matrix(.48064 0 0 .48064-42.34 7.204)" fill="#6b470d"/></svg>