<svg xmlns="http://www.w3.org/2000/svg" viewBox="0 0 32 32"><defs><linearGradient id="0" x1="452.11" y1="556.82" x2="451.76" y2="528.82" gradientUnits="userSpaceOnUse"><stop stop-color="#dc3c30"/><stop offset="1" stop-color="#ff786d"/></linearGradient></defs><g transform="translate(-384.57-515.8)"><rect width="22.411" height="29.671" x="440.55" y="528.02" fill="url(#0)" fill-rule="evenodd" stroke="#6c2621" stroke-linecap="round" stroke-width=".3" rx="1" transform="translate(-51.19-11.03)"/><g transform="matrix(1.40028 0 0 1.40028 385.25-926.26)" fill="#fff" stroke="none"><path d="m12.792 1036.26c.064.586-.172 1.173-.521 1.596-.349.422-.923.752-1.484.708-.076-.574.208-1.175.531-1.55.361-.422.971-.735 1.474-.755"/><path d="m12.781 1038.68c.326.014 1.241.133 1.828.992-.047.03-1.093.637-1.081 1.904.013 1.513 1.329 2.02 1.344 2.023-.012.035-.21.717-.693 1.422-.417.609-.85 1.216-1.531 1.229-.67.013-.885-.398-1.651-.398-.766 0-1 .383-1.638.409-.658.024-1.158-.658-1.578-1.266-.86-1.241-1.515-3.506-.633-5.04.437-.76 1.219-1.243 2.068-1.255.646-.012 1.257.435 1.651.435.395 0 1.135-.537 1.914-.458"/></g></g></svg>