<svg xmlns="http://www.w3.org/2000/svg" viewBox="0 0 32 32"><defs><linearGradient id="0" x1="452.11" y1="556.82" x2="451.76" y2="528.82" gradientUnits="userSpaceOnUse"><stop stop-color="#197cf1"/><stop offset="1" stop-color="#20bcfa"/></linearGradient></defs><g transform="translate(-384.57-515.8)"><rect width="22.411" height="29.671" x="440.55" y="528.02" fill="url(#0)" fill-rule="evenodd" stroke="#0b3969" stroke-linecap="round" stroke-width=".3" rx="1" transform="translate(-51.19-11.03)"/><path d="m400.59 523.55c-.053-.002-.104.019-.141.058-.529.552-1.067 1.171-1.553 1.761-.0001.0001-.0001.002-.002.002-1.197 1.493-2.108 3.03-2.767 4.67-.614 1.53-.974 2.854-1.301 4.783-.072.422-.144.934-.194 1.346-.025.206-.044.387-.055.52-.005.067-.009.122-.001.166 0 .022 0 .041.002.064.0001.011.003.024.008.045.006.021.0001.063.085.115.045.028.051.023.063.025.011.003.02.005.029.006.018.003.038.005.06.007.044.005.099.009.157.012.459.025 1.136.142 1.585.273.303.089.503.162.798.293.068.03.131.058.178.078.023.001.042.018.057.024.007.003.013.005.018.007.0001.0001.0001 0 .0001.0001.003.0001.005.003.009.005 0 0-.0001-.002-.002-.002.0001 0 .002.0001.003.0001.003.0001.005.002.011.004.002.0001.004.002.007.003-.002 0-.006 0-.007-.0001.013.007.029.016.05.027.05.028.119.066.194.108.724.407 1.266.827 2.131 1.656.114.109.22.208.301.282.04.037.074.067.1.089.013.011.024.02.036.03.006.005.012.009.022.016.005.003.011.007.022.012.011.005.022.016.074.019.062.003.075-.001.087-.016.013-.006.019-.001.025-.013.011-.007.017-.011.024-.016.013-.001.024-.019.038-.031.029-.024.065-.057.109-.096.088-.079.204-.186.329-.304.716-.679 1.062-.965 1.56-1.296 1.088-.722 2.058-1.043 3.546-1.168l.121-.001c.097-.008.172-.089.172-.187v-.071c0-.148-.035-.453-.083-.832-.048-.378-.108-.809-.163-1.136-.327-1.946-.698-3.316-1.32-4.866-.561-1.396-1.363-2.806-2.322-4.083-.002-.003-.005-.006-.007-.009-.646-.764-1.27-1.566-1.951-2.31-.034-.037-.082-.059-.132-.061z" fill="#fff" fill-opacity=".88"/></g></svg>