<?xml version="1.0" encoding="UTF-8" standalone="no"?>
<svg
   xmlns:dc="http://purl.org/dc/elements/1.1/"
   xmlns:cc="http://creativecommons.org/ns#"
   xmlns:rdf="http://www.w3.org/1999/02/22-rdf-syntax-ns#"
   xmlns:svg="http://www.w3.org/2000/svg"
   xmlns="http://www.w3.org/2000/svg"
   xmlns:sodipodi="http://sodipodi.sourceforge.net/DTD/sodipodi-0.dtd"
   xmlns:inkscape="http://www.inkscape.org/namespaces/inkscape"
   width="32"
   height="32"
   id="svg2"
   version="1.1"
   inkscape:version="0.91 r13725"
   sodipodi:docname="application-x-trash.svg">
  <metadata
     id="metadata41">
    <rdf:RDF>
      <cc:Work
         rdf:about="">
        <dc:format>image/svg+xml</dc:format>
        <dc:type
           rdf:resource="http://purl.org/dc/dcmitype/StillImage" />
      </cc:Work>
    </rdf:RDF>
  </metadata>
  <sodipodi:namedview
     pagecolor="#ffffff"
     bordercolor="#666666"
     borderopacity="1"
     objecttolerance="10"
     gridtolerance="10"
     guidetolerance="10"
     inkscape:pageopacity="0"
     inkscape:pageshadow="2"
     inkscape:window-width="1920"
     inkscape:window-height="1055"
     id="namedview39"
     showgrid="false"
     inkscape:zoom="10.429825"
     inkscape:cx="-13.099144"
     inkscape:cy="13.431898"
     inkscape:window-x="0"
     inkscape:window-y="0"
     inkscape:window-maximized="1"
     inkscape:current-layer="svg2" />
  <defs
     id="defs4">
    <linearGradient
       id="c"
       y1="524.8"
       x1="404.57"
       y2="531.8"
       x2="411.57"
       gradientUnits="userSpaceOnUse"
       gradientTransform="translate(-384.57,-515.8)">
      <stop
         stop-color="#383e51"
         id="stop17" />
      <stop
         offset="1"
         stop-color="#655c6f"
         stop-opacity="0"
         id="stop19" />
    </linearGradient>
    <linearGradient
       id="linearGradient4241"
       y1="392.35999"
       y2="365.35999"
       x2="0"
       gradientUnits="userSpaceOnUse"
       gradientTransform="translate(309.57,152.44)">
      <stop
         stop-color="#ffffff"
         stop-opacity="0"
         id="stop4243" />
      <stop
         offset="1"
         stop-color="#ffffff"
         stop-opacity=".2"
         id="stop4245" />
    </linearGradient>
    <linearGradient
       gradientTransform="translate(309.57,152.44)"
       gradientUnits="userSpaceOnUse"
       x2="0"
       y2="365.36"
       y1="392.36"
       id="a">
      <stop
         id="stop7"
         stop-opacity="0"
         stop-color="#ffffff" />
      <stop
         id="stop9"
         stop-opacity=".2"
         stop-color="#ffffff"
         offset="1" />
    </linearGradient>
    <linearGradient
       gradientTransform="translate(357.57 507.8)"
       gradientUnits="userSpaceOnUse"
       x2="54"
       x1="47"
       y2="24"
       y1="17"
       id="b">
      <stop
         id="stop12"
         stop-color="#060606" />
      <stop
         id="stop14"
         stop-opacity="0"
         offset="1" />
    </linearGradient>
    <path
       d="m389.57 545.8v-28h15l7 7v21h-14z"
       id="c-7" />
    <linearGradient
       id="b-6"
       y1="392.36"
       y2="365.36"
       x2="0"
       gradientUnits="userSpaceOnUse"
       gradientTransform="translate(309.57,152.44)">
      <stop
         stop-color="#ffffff"
         stop-opacity="0"
         id="stop12-2" />
      <stop
         offset="1"
         stop-color="#ffffff"
         stop-opacity=".2"
         id="stop14-9" />
    </linearGradient>
    <path
       id="c-12"
       d="m389.57 545.8v-28h15l7 7v21h-14z" />
    <linearGradient
       gradientTransform="translate(309.57 152.44)"
       x2="0"
       gradientUnits="userSpaceOnUse"
       y2="365.36"
       y1="392.36"
       id="a-7">
      <stop
         id="stop7-5"
         stop-opacity="0"
         stop-color="#ffffff" />
      <stop
         id="stop9-3"
         stop-opacity=".2"
         stop-color="#ffffff"
         offset="1" />
    </linearGradient>
    <path
       d="m389.57 545.8v-28h15l7 7v21h-14z"
       id="c-1" />
    <linearGradient
       id="b-5"
       y1="392.36"
       y2="365.36"
       gradientUnits="userSpaceOnUse"
       x2="0"
       gradientTransform="translate(309.57,152.44)">
      <stop
         stop-color="#ffffff"
         stop-opacity="0"
         id="stop12-6" />
      <stop
         offset="1"
         stop-color="#ffffff"
         stop-opacity=".2"
         id="stop14-2" />
    </linearGradient>
    <path
       id="c-9"
       d="m389.57 545.8v-28h15l7 7v21h-14z" />
  </defs>
  <g
     transform="translate(-30.25874,-0.34380125)"
     id="g3420">
    <g
       transform="translate(30.415062,-0.19857575)"
       id="g3407">
      <g
         inkscape:label="Capa 1"
         id="layer1"
         transform="translate(-384.43584,-515.12003)">
        <g
           transform="matrix(0.25706214,0,0,0.25706214,390.63923,529.52681)"
           id="g4437-3-6">
          <g
             transform="matrix(3.89011,0,0,3.89011,-1520.0669,-2061.7389)"
             id="layer1-8"
             inkscape:label="Capa 1">
            <text
               xml:space="preserve"
               style="font-style:normal;font-weight:normal;font-size:1.69227612px;line-height:125%;font-family:sans-serif;letter-spacing:0px;word-spacing:0px;fill:#000000;fill-opacity:1;stroke:none;stroke-width:1px;stroke-linecap:butt;stroke-linejoin:miter;stroke-opacity:1"
               x="392.60995"
               y="538.00714"
               id="text4665"
               sodipodi:linespacing="125%"><tspan
                 sodipodi:role="line"
                 id="tspan4667"
                 x="392.60995"
                 y="538.00714" /></text>
            <g
               transform="translate(0.11241931,0.12922051)"
               id="layer1-59"
               inkscape:label="Capa 1">
              <g
                 id="g4437-3-6-7"
                 transform="matrix(0.25706214,0,0,0.25706214,390.63923,529.52681)">
                <g
                   inkscape:label="Capa 1"
                   id="layer1-8-53"
                   transform="matrix(3.89011,0,0,3.89011,-1520.0669,-2061.7389)">
                  <text
                     sodipodi:linespacing="125%"
                     id="text4665-8"
                     y="538.00714"
                     x="392.60995"
                     style="font-style:normal;font-weight:normal;font-size:1.69227612px;line-height:125%;font-family:sans-serif;letter-spacing:0px;word-spacing:0px;fill:#000000;fill-opacity:1;stroke:none;stroke-width:1px;stroke-linecap:butt;stroke-linejoin:miter;stroke-opacity:1"
                     xml:space="preserve"><tspan
                       y="538.00714"
                       x="392.60995"
                       id="tspan4667-8"
                       sodipodi:role="line" /></text>
                  <g
                     style="stroke:#c9c9c9;stroke-opacity:1"
                     inkscape:label="Capa 1"
                     id="layer1-85"
                     transform="translate(0.19948935,0.26253295)">
                    <g
                       style="stroke:#c9c9c9;stroke-opacity:1"
                       transform="matrix(0.25706214,0,0,0.25706214,390.63923,529.52681)"
                       id="g4437-3-6-97">
                      <g
                         style="stroke:#c9c9c9;stroke-opacity:1"
                         transform="matrix(3.89011,0,0,3.89011,-1520.0669,-2061.7389)"
                         id="layer1-8-5"
                         inkscape:label="Capa 1">
                        <g
                           style="stroke:#c9c9c9;stroke-opacity:1"
                           transform="translate(0.02535072,0.69032305)"
                           id="layer1-9"
                           inkscape:label="Capa 1">
                          <g
                             style="stroke:#c9c9c9;stroke-opacity:1"
                             id="g4437-3-6-1"
                             transform="matrix(0.25706214,0,0,0.25706214,390.63923,529.52681)">
                            <g
                               style="stroke:#c9c9c9;stroke-opacity:1"
                               inkscape:label="Capa 1"
                               id="layer1-8-7"
                               transform="matrix(3.89011,0,0,3.89011,-1520.0669,-2061.7389)">
                              <g
                                 style="stroke:#c9c9c9;stroke-opacity:1"
                                 inkscape:label="Capa 1"
                                 id="layer1-5"
                                 transform="translate(0.01300294,0.56286094)">
                                <g
                                   style="stroke:#c9c9c9;stroke-opacity:1"
                                   transform="matrix(0.25706214,0,0,0.25706214,390.63923,529.52681)"
                                   id="g4437-3-6-9">
                                <g
                                   style="stroke:#c9c9c9;stroke-opacity:1"
                                   transform="matrix(3.89011,0,0,3.89011,-1520.0669,-2061.7389)"
                                   id="layer1-8-4"
                                   inkscape:label="Capa 1">
                                <rect
                                   style="opacity:1;fill:#3ac13a;fill-opacity:1;stroke:#34a434;stroke-width:0.303;stroke-linecap:butt;stroke-linejoin:miter;stroke-miterlimit:4;stroke-dasharray:none;stroke-dashoffset:0;stroke-opacity:1"
                                   id="rect4694"
                                   width="25.764034"
                                   height="25.764034"
                                   x="387.76566"
                                   y="519.61206"
                                   rx="1.1297435"
                                   ry="1.0623779" />
                                </g>
                                </g>
                              </g>
                            </g>
                          </g>
                        </g>
                      </g>
                    </g>
                  </g>
                </g>
              </g>
            </g>
          </g>
        </g>
      </g>
    </g>
  </g>
  <path
     style="fill:#ffffff;stroke:none;stroke-width:0.01016949;stroke-miterlimit:4;stroke-dasharray:none;stroke-opacity:1"
     d="m 15.331567,8.2801257 0.185547,0.1894531 c 0.102063,0.1045391 0.235818,0.2693494 0.298828,0.3652344 0.136129,0.2071406 2.123448,3.6577158 2.111328,3.6660158 -0.0046,0.0032 -0.17937,0.102291 -0.388671,0.220703 -0.209306,0.118412 -0.375288,0.222369 -0.367188,0.230469 0.0081,0.0081 0.714601,0.02333 1.568359,0.03516 0.853758,0.0119 1.561239,0.01341 1.574219,0.0039 0.03059,-0.02235 1.556732,-2.752412 1.544922,-2.763672 -0.0049,-0.0047 -0.173093,0.08958 -0.375,0.208984 -0.201907,0.119409 -0.379269,0.216797 -0.394531,0.216797 -0.01526,0 -0.305803,-0.473431 -0.644532,-1.0507816 -0.341328,-0.5817815 -0.660796,-1.0876407 -0.716796,-1.1347657 -0.218271,-0.1836661 -0.27988,-0.1875 -2.423829,-0.1875 l -1.972656,0 z m -1.642578,0.1699219 c -0.269972,0.00581 -0.540045,0.068215 -0.779297,0.1894531 -0.351343,0.1780388 -0.487542,0.3666243 -1.353515,1.8632813 -0.441608,0.763231 -0.808653,1.406688 -0.814454,1.429688 -0.0062,0.02421 0.64627,0.424337 1.548829,0.951172 0.857628,0.500606 1.570251,0.901525 1.582031,0.890625 0.01178,-0.0109 0.420824,-0.714194 0.910156,-1.5625 0.489332,-0.848305 0.932555,-1.613189 0.984375,-1.699219 l 0.09375,-0.15625 -0.285156,-0.4843754 C 15.079082,9.0300553 14.875644,8.7978979 14.466333,8.6062976 14.229244,8.4953152 13.958961,8.444235 13.688989,8.4500476 Z m 8.925781,4.9902344 c -0.01326,0.0054 -0.720818,0.405879 -1.572265,0.890625 -1.163562,0.662438 -1.543707,0.893421 -1.529297,0.931641 0.01054,0.02797 0.457279,0.811078 0.992187,1.740234 l 0.972656,1.689453 0.710938,-0.01758 c 1.018299,-0.02543 1.287744,-0.10699 1.695312,-0.513672 0.22328,-0.222794 0.387248,-0.501166 0.476563,-0.810546 0.08136,-0.281834 0.05482,-0.713276 -0.05859,-0.990235 -0.102528,-0.25038 -1.653391,-2.933892 -1.6875,-2.919922 z m -11.142578,0.777344 c -0.05278,-0.0066 -0.786483,-0.0018 -1.6308589,0.01172 l -1.535156,0.02539 0.365234,0.203126 c 0.201155,0.111974 0.387753,0.223396 0.414062,0.248046 0.040688,0.03812 -0.042933,0.20283 -0.558593,1.105469 -0.59473,1.041046 -0.606391,1.065076 -0.619141,1.285156 -0.00989,0.170694 0.00219,0.260007 0.052734,0.373047 0.054998,0.123009 1.760865,3.083109 1.931641,3.351563 l 0.052735,0.08203 0.042968,-0.167969 c 0.099696,-0.389559 0.2629419,-0.704939 1.2382819,-2.392578 0.564356,-0.97651 1.029003,-1.779156 1.033203,-1.785156 0.0042,-0.006 0.194033,0.09786 0.421875,0.230469 0.227842,0.132609 0.419328,0.235968 0.423828,0.230468 0.0045,-0.0055 -0.340846,-0.635983 -0.765625,-1.40039 -0.710422,-1.278434 -0.778918,-1.389321 -0.867188,-1.400391 z m 7.125,4.214844 -0.822265,1.378906 c -0.452118,0.758303 -0.822266,1.393649 -0.822266,1.412109 0,0.01846 0.370148,0.648595 0.822266,1.400391 l 0.822265,1.367188 0.0078,-0.482422 0.0098,-0.482422 1.207032,0 c 0.853198,0 1.249028,-0.01365 1.347656,-0.04297 0.264346,-0.0786 0.381183,-0.246559 1.398437,-2.023437 0.527765,-0.921867 0.953136,-1.6816 0.947266,-1.6875 -0.0059,-0.0059 -0.07368,0.01199 -0.150391,0.03906 -0.296305,0.104545 -0.664044,0.121094 -2.703125,0.121094 l -2.046875,0 -0.0098,-0.5 -0.0078,-0.5 z m -7.121093,0.966797 -0.298829,0.533203 c -0.361259,0.644639 -0.467161,0.935899 -0.488281,1.333984 -0.04054,0.763904 0.420303,1.422462 1.177734,1.681641 0.216126,0.07397 0.253015,0.07531 1.923829,0.07617 l 1.703125,0.002 0,-1.814453 0,-1.8125 -2.007813,0 -2.009765,0 z"
     id="path4293"
     inkscape:connector-curvature="0" />
</svg>
