<?xml version="1.0" encoding="UTF-8" standalone="no"?>
<svg
   xmlns:dc="http://purl.org/dc/elements/1.1/"
   xmlns:cc="http://creativecommons.org/ns#"
   xmlns:rdf="http://www.w3.org/1999/02/22-rdf-syntax-ns#"
   xmlns:svg="http://www.w3.org/2000/svg"
   xmlns="http://www.w3.org/2000/svg"
   xmlns:sodipodi="http://sodipodi.sourceforge.net/DTD/sodipodi-0.dtd"
   xmlns:inkscape="http://www.inkscape.org/namespaces/inkscape"
   width="32"
   height="32"
   id="svg2"
   version="1.1"
   inkscape:version="0.91 r13725"
   sodipodi:docname="application-vnd.ms-publisher.svg">
  <metadata
     id="metadata41">
    <rdf:RDF>
      <cc:Work
         rdf:about="">
        <dc:format>image/svg+xml</dc:format>
        <dc:type
           rdf:resource="http://purl.org/dc/dcmitype/StillImage" />
      </cc:Work>
    </rdf:RDF>
  </metadata>
  <sodipodi:namedview
     pagecolor="#ffffff"
     bordercolor="#666666"
     borderopacity="1"
     objecttolerance="10"
     gridtolerance="10"
     guidetolerance="10"
     inkscape:pageopacity="0"
     inkscape:pageshadow="2"
     inkscape:window-width="1920"
     inkscape:window-height="1055"
     id="namedview39"
     showgrid="false"
     inkscape:zoom="29.5"
     inkscape:cx="8.461404"
     inkscape:cy="18.314427"
     inkscape:window-x="0"
     inkscape:window-y="0"
     inkscape:window-maximized="1"
     inkscape:current-layer="svg2" />
  <defs
     id="defs4">
    <linearGradient
       id="a"
       y1="17"
       y2="24"
       x1="47"
       x2="54"
       gradientUnits="userSpaceOnUse"
       gradientTransform="translate(357.57 507.8)">
      <stop
         stop-color="#060606"
         id="stop7" />
      <stop
         offset="1"
         stop-opacity="0"
         id="stop9" />
    </linearGradient>
    <linearGradient
       id="b"
       y1="392.36"
       y2="365.36"
       x2="0"
       gradientUnits="userSpaceOnUse"
       gradientTransform="translate(309.57,152.44)">
      <stop
         stop-color="#ffffff"
         stop-opacity="0"
         id="stop12" />
      <stop
         offset="1"
         stop-color="#ffffff"
         stop-opacity=".2"
         id="stop14" />
    </linearGradient>
    <path
       id="c"
       d="m389.57 545.8v-28h15l7 7v21h-14z" />
    <linearGradient
       gradientTransform="translate(309.57 152.44)"
       x2="0"
       gradientUnits="userSpaceOnUse"
       y2="365.36"
       y1="392.36"
       id="a-7">
      <stop
         id="stop7-5"
         stop-opacity="0"
         stop-color="#ffffff" />
      <stop
         id="stop9-3"
         stop-opacity=".2"
         stop-color="#ffffff"
         offset="1" />
    </linearGradient>
    <path
       d="m389.57 545.8v-28h15l7 7v21h-14z"
       id="c-1" />
    <linearGradient
       id="b-5"
       y1="392.36"
       y2="365.36"
       gradientUnits="userSpaceOnUse"
       x2="0"
       gradientTransform="translate(309.57,152.44)">
      <stop
         stop-color="#ffffff"
         stop-opacity="0"
         id="stop12-6" />
      <stop
         offset="1"
         stop-color="#ffffff"
         stop-opacity=".2"
         id="stop14-2" />
    </linearGradient>
    <path
       id="c-9"
       d="m389.57 545.8v-28h15l7 7v21h-14z" />
  </defs>
  <g
     transform="translate(0.02145525,-0.19857575)"
     id="g3407">
    <g
       inkscape:label="Capa 1"
       id="layer1"
       transform="translate(-384.43584,-515.12003)">
      <g
         transform="matrix(0.25706214,0,0,0.25706214,390.63923,529.52681)"
         id="g4437-3-6">
        <g
           transform="matrix(3.89011,0,0,3.89011,-1520.0669,-2061.7389)"
           id="layer1-8"
           inkscape:label="Capa 1">
          <text
             xml:space="preserve"
             style="font-style:normal;font-weight:normal;font-size:1.69227612px;line-height:125%;font-family:sans-serif;letter-spacing:0px;word-spacing:0px;fill:#000000;fill-opacity:1;stroke:none;stroke-width:1px;stroke-linecap:butt;stroke-linejoin:miter;stroke-opacity:1"
             x="392.60995"
             y="538.00714"
             id="text4665"
             sodipodi:linespacing="125%"><tspan
               sodipodi:role="line"
               id="tspan4667"
               x="392.60995"
               y="538.00714" /></text>
          <g
             transform="translate(0.11241931,0.12922051)"
             id="layer1-59"
             inkscape:label="Capa 1">
            <g
               id="g4437-3-6-7"
               transform="matrix(0.25706214,0,0,0.25706214,390.63923,529.52681)">
              <g
                 inkscape:label="Capa 1"
                 id="layer1-8-53"
                 transform="matrix(3.89011,0,0,3.89011,-1520.0669,-2061.7389)">
                <text
                   sodipodi:linespacing="125%"
                   id="text4665-8"
                   y="538.00714"
                   x="392.60995"
                   style="font-style:normal;font-weight:normal;font-size:1.69227612px;line-height:125%;font-family:sans-serif;letter-spacing:0px;word-spacing:0px;fill:#000000;fill-opacity:1;stroke:none;stroke-width:1px;stroke-linecap:butt;stroke-linejoin:miter;stroke-opacity:1"
                   xml:space="preserve"><tspan
                     y="538.00714"
                     x="392.60995"
                     id="tspan4667-8"
                     sodipodi:role="line" /></text>
                <g
                   style="stroke:#c9c9c9;stroke-opacity:1"
                   inkscape:label="Capa 1"
                   id="layer1-85"
                   transform="translate(0.19948935,0.26253295)">
                  <g
                     style="stroke:#c9c9c9;stroke-opacity:1"
                     transform="matrix(0.25706214,0,0,0.25706214,390.63923,529.52681)"
                     id="g4437-3-6-97">
                    <g
                       style="stroke:#c9c9c9;stroke-opacity:1"
                       transform="matrix(3.89011,0,0,3.89011,-1520.0669,-2061.7389)"
                       id="layer1-8-5"
                       inkscape:label="Capa 1">
                      <g
                         style="stroke:#c9c9c9;stroke-opacity:1"
                         transform="translate(0.02535072,0.69032305)"
                         id="layer1-9"
                         inkscape:label="Capa 1">
                        <g
                           style="stroke:#c9c9c9;stroke-opacity:1"
                           id="g4437-3-6-1"
                           transform="matrix(0.25706214,0,0,0.25706214,390.63923,529.52681)">
                          <g
                             style="stroke:#c9c9c9;stroke-opacity:1"
                             inkscape:label="Capa 1"
                             id="layer1-8-7"
                             transform="matrix(3.89011,0,0,3.89011,-1520.0669,-2061.7389)">
                            <g
                               style="stroke:#c9c9c9;stroke-opacity:1"
                               inkscape:label="Capa 1"
                               id="layer1-5"
                               transform="translate(0.01300294,0.56286094)">
                              <g
                                 style="stroke:#c9c9c9;stroke-opacity:1"
                                 transform="matrix(0.25706214,0,0,0.25706214,390.63923,529.52681)"
                                 id="g4437-3-6-9">
                                <g
                                   style="stroke:#c9c9c9;stroke-opacity:1"
                                   transform="matrix(3.89011,0,0,3.89011,-1520.0669,-2061.7389)"
                                   id="layer1-8-4"
                                   inkscape:label="Capa 1">
                                <rect
                                   style="opacity:1;fill:#25bf52;fill-opacity:1;stroke:#22ad4a;stroke-width:0.303;stroke-linecap:butt;stroke-linejoin:miter;stroke-miterlimit:4;stroke-dasharray:none;stroke-dashoffset:0;stroke-opacity:1"
                                   id="rect4694"
                                   width="25.764034"
                                   height="25.764034"
                                   x="387.76566"
                                   y="519.61206"
                                   rx="1.1297435"
                                   ry="1.0623779" />
                                </g>
                              </g>
                            </g>
                          </g>
                        </g>
                      </g>
                    </g>
                  </g>
                </g>
              </g>
            </g>
          </g>
        </g>
      </g>
    </g>
  </g>
  <path
     style="opacity:1;fill:#fbfffd;fill-opacity:1;stroke:#25bf70;stroke-width:0.01694915;stroke-miterlimit:4;stroke-dasharray:none;stroke-opacity:1"
     d="m 13.901152,8.7997069 c -0.644591,0.00769 -0.695355,0.025486 -0.789062,0.060547 -0.228277,0.085409 -0.471511,0.3108782 -0.574219,0.5332031 -0.06883,0.1489809 -0.07406,0.2255096 -0.08984,1.109376 l -0.01758,0.949218 -1.626953,0.01758 -1.6269527,0.01563 -0.171875,0.0918 c -0.205129,0.10826 -0.402603,0.316393 -0.501953,0.53125 l -0.072266,0.15625 -0.00781,5.558594 c -0.0098,6.140254 -0.02288,5.758118 0.205078,6.058594 0.122726,0.161771 0.380707,0.350847 0.544922,0.398437 0.06162,0.01786 2.4459837,0.0314 5.6738277,0.0332 5.417027,0.003 5.571184,9.9e-4 5.738281,-0.0625 0.262571,-0.09977 0.453409,-0.275999 0.582031,-0.537109 l 0.111328,-0.226563 0.01172,-0.923828 0.0098,-0.925781 0.896484,0 c 0.801813,0 0.912639,-0.006 1.066406,-0.06445 0.262673,-0.09981 0.453415,-0.275863 0.582032,-0.537109 l 0.111328,-0.226563 0.0098,-5.505859 c 0.0078,-4.785218 8.84e-4,-5.5339157 -0.04297,-5.7050789 -0.0849,-0.3314076 -0.257064,-0.5481723 -0.572266,-0.7167968 l -0.140625,-0.074219 -4.955078,-0.00781 c -2.471013,-0.00445 -3.708925,-0.00769 -4.353516,0 z m -0.52539,0.7597656 0.224609,0.023437 c 0.229223,0.012326 2.474259,0.021484 4.988281,0.021484 l 4.570313,0 0,5.6093755 0,5.611328 -0.9375,0 -0.935547,0 0.02148,-3.449219 c 0.03782,-5.723394 0.04529,-5.053467 -0.05273,-5.267578 -0.111929,-0.244486 -0.254495,-0.401504 -0.474609,-0.523437 l -0.179688,-0.09961 -2.869141,-0.01563 -2.867187,-0.01758 -0.251953,-0.130859 C 13.819435,10.907798 13.487399,10.313652 13.399199,9.7254882 l -0.02344,-0.1660157 z m -4.1484375,2.7226565 5.6269525,0 5.626953,0 0,5.611328 0,5.609376 -5.626953,0 -5.6269525,0 0,-5.609376 0,-5.611328 z m 1.8652345,1.865235 0,1.066406 0,1.068359 3.761718,0 3.763672,0 0,-1.068359 0,-1.066406 -3.763672,0 -3.761718,0 z m 0,4 0,0.40625 0,0.40625 3.761718,0 3.763672,0 0,-0.40625 0,-0.40625 -3.763672,0 -3.761718,0 z m 0,2.677734 0,0.40625 0,0.40625 3.761718,0 3.763672,0 0,-0.40625 0,-0.40625 -3.763672,0 -3.761718,0 z"
     id="path4255"
     inkscape:connector-curvature="0" />
</svg>
