<svg xmlns="http://www.w3.org/2000/svg" viewBox="0 0 32 32"><defs><linearGradient id="0" x1="452.11" y1="556.82" x2="451.76" y2="528.82" gradientUnits="userSpaceOnUse"><stop stop-color="#8798a9"/><stop offset="1" stop-color="#aeb6be"/></linearGradient></defs><g transform="translate(-435.76-526.83)"><rect width="22.411" height="29.671" x="440.55" y="528.02" fill="url(#0)" fill-rule="evenodd" stroke-linecap="round" stroke-width=".3" rx="1" stroke="#373e44"/><path d="m451.77 536.08l-2.383.229v9.818l2.358-.356v-4.186l3.173 4.644 2.485-.789-3.249-4.466 3.274-4.212-2.536-.581-3.147 4.212.026-4.313m-5.403 2.393c-.027.002-.056.001-.076.03l-.937.937c-.039.039-.044.1-.015.148l1.095 1.808c-.194.327-.352.677-.463 1.049l-2.01.418c-.056.011-.097.065-.097.122v1.324c0 .056.043.104.097.117l1.95.474c.104.43.265.842.479 1.217l-1.131 1.721c-.031.048-.025.112.015.153l.937.937c.039.039.1.044.148.015l1.772-1.075c.348.201.724.361 1.12.469l.413 1.986c.011.056.06.097.117.097h1.324c.056 0 .104-.037.117-.092l.489-1.996c.409-.11.794-.274 1.151-.484l1.747 1.146c.048.031.112.025.153-.015l.932-.937c.04-.039.049-.1.02-.148l-.637-1.049-.209.066c-.03.001-.063-.005-.082-.03 0 0-.402-.592-.927-1.36-.628 1.228-1.907 2.068-3.381 2.068-2.095 0-3.794-1.699-3.794-3.794 0-1.541.921-2.864 2.241-3.458v-.978c-.24.084-.472.185-.693.306 0 0 0-.005 0-.005l-1.787-1.171c-.024-.016-.05-.018-.077-.015" transform="matrix(.8368 0 0 .8368 74.27 88.23)" fill="#373e44"/></g></svg>