<?xml version="1.0" encoding="UTF-8" standalone="no"?>
<svg
   xmlns:dc="http://purl.org/dc/elements/1.1/"
   xmlns:cc="http://creativecommons.org/ns#"
   xmlns:rdf="http://www.w3.org/1999/02/22-rdf-syntax-ns#"
   xmlns:svg="http://www.w3.org/2000/svg"
   xmlns="http://www.w3.org/2000/svg"
   xmlns:xlink="http://www.w3.org/1999/xlink"
   xmlns:sodipodi="http://sodipodi.sourceforge.net/DTD/sodipodi-0.dtd"
   xmlns:inkscape="http://www.inkscape.org/namespaces/inkscape"
   width="32"
   height="32"
   id="svg2"
   version="1.1"
   inkscape:version="0.91 r13725"
   sodipodi:docname="application-x-designer.svg">
  <metadata
     id="metadata49">
    <rdf:RDF>
      <cc:Work
         rdf:about="">
        <dc:format>image/svg+xml</dc:format>
        <dc:type
           rdf:resource="http://purl.org/dc/dcmitype/StillImage" />
      </cc:Work>
    </rdf:RDF>
  </metadata>
  <sodipodi:namedview
     pagecolor="#ffffff"
     bordercolor="#666666"
     borderopacity="1"
     objecttolerance="10"
     gridtolerance="10"
     guidetolerance="10"
     inkscape:pageopacity="0"
     inkscape:pageshadow="2"
     inkscape:window-width="1920"
     inkscape:window-height="1055"
     id="namedview47"
     showgrid="false"
     inkscape:zoom="10.429825"
     inkscape:cx="-18.121628"
     inkscape:cy="22.976731"
     inkscape:window-x="0"
     inkscape:window-y="0"
     inkscape:window-maximized="1"
     inkscape:current-layer="svg2" />
  <defs
     id="defs4">
    <linearGradient
       id="a"
       y1="61"
       y2="3"
       x2="0"
       gradientUnits="userSpaceOnUse"
       gradientTransform="matrix(0.5,0,0,-0.48276,0,31.45)">
      <stop
         stop-color="#22a7f0"
         id="stop7" />
      <stop
         offset="1"
         stop-color="#19b5fe"
         id="stop9" />
    </linearGradient>
    <linearGradient
       id="b"
       y1="518.04"
       y2="524.8"
       x2="0"
       gradientUnits="userSpaceOnUse"
       gradientTransform="translate(-384.57,-515.8)">
      <stop
         stop-color="#c8e3fe"
         id="stop12" />
      <stop
         offset="1"
         stop-color="#ffffff"
         id="stop14" />
    </linearGradient>
    <linearGradient
       id="c"
       y1="524.8"
       x1="404.57"
       y2="531.8"
       x2="411.57"
       gradientUnits="userSpaceOnUse"
       gradientTransform="translate(-384.57,-515.8)">
      <stop
         stop-color="#383e51"
         id="stop17" />
      <stop
         offset="1"
         stop-color="#655c6f"
         stop-opacity="0"
         id="stop19" />
    </linearGradient>
    <inkscape:path-effect
       is_visible="true"
       id="path-effect4555"
       effect="spiro" />
    <inkscape:path-effect
       is_visible="true"
       id="path-effect4429"
       effect="spiro" />
    <inkscape:path-effect
       is_visible="true"
       id="path-effect4395"
       effect="spiro" />
    <linearGradient
       x2="11.786"
       gradientUnits="userSpaceOnUse"
       y2="11.998"
       x1="34.5"
       y1="32.998"
       id="a-6">
      <stop
         id="stop2"
         stop-color="#dd1627" />
      <stop
         id="stop4"
         stop-color="#df3e52"
         offset="1" />
    </linearGradient>
    <linearGradient
       gradientTransform="translate(-52)"
       gradientUnits="userSpaceOnUse"
       x2="73.03"
       y2="35.663"
       x1="46.23"
       y1="10.38"
       id="b-75">
      <stop
         id="stop7-35"
         stop-opacity=".731"
         stop-color="#f8bac0" />
      <stop
         id="stop9-6"
         stop-opacity="0"
         stop-color="#f8bac0"
         offset="1" />
    </linearGradient>
    <path
       d="m.735 43.06l23.265-42.35 23.09 42.31c0 0-2.212-.155-5.272-.291-2.851-.127-1.794.114-8.278-1.089-4.911-.91-8.522-2.865-15.253-2.727-7.453.153-17.549 4.149-17.549 4.149"
       id="c-29127" />
    <linearGradient
       id="linearGradient4222">
      <stop
         offset="0"
         style="stop-color:#0166d0;stop-opacity:1"
         id="stop2-35" />
      <stop
         offset="1"
         style="stop-color:#51a6ff;stop-opacity:1"
         id="stop4-62" />
    </linearGradient>
    <linearGradient
       id="linearGradient4198">
      <stop
         style="stop-color:#208dff;stop-opacity:1"
         offset="0"
         id="stop7-9" />
      <stop
         style="stop-color:#51a6ff;stop-opacity:1"
         offset="1"
         id="stop9-1" />
    </linearGradient>
    <linearGradient
       xlink:href="#linearGradient4222"
       id="linearGradient4204"
       x1="402.571"
       y1="543.798"
       x2="402.571"
       y2="519.798"
       gradientUnits="userSpaceOnUse"
       gradientTransform="matrix(0.78135593,0,0,0.78135593,-346.93123,-382.93369)" />
    <linearGradient
       xlink:href="#linearGradient4198"
       id="linearGradient4212"
       x1="414.571"
       y1="543.798"
       x2="414.571"
       y2="519.798"
       gradientUnits="userSpaceOnUse"
       gradientTransform="matrix(0.78135593,0,0,0.78135593,-346.93123,-382.93369)" />
    <linearGradient
       xlink:href="#linearGradient4198"
       id="linearGradient4220"
       x1="24"
       y1="35"
       x2="24"
       y2="4"
       gradientUnits="userSpaceOnUse"
       gradientTransform="matrix(1,0,0,0.99924452,384.57143,499.82444)" />
    <linearGradient
       xlink:href="#linearGradient4227"
       id="linearGradient4244"
       x1="12"
       y1="21"
       x2="29"
       y2="38"
       gradientUnits="userSpaceOnUse" />
    <linearGradient
       id="linearGradient4227">
      <stop
         offset="0"
         style="stop-color:#292c2f;stop-opacity:1"
         id="stop16" />
      <stop
         offset="1"
         style="stop-color:#000000;stop-opacity:0;"
         id="stop18" />
    </linearGradient>
    <linearGradient
       inkscape:collect="always"
       id="linearGradient4532">
      <stop
         style="stop-color:#000000;stop-opacity:1;"
         offset="0"
         id="stop4528" />
      <stop
         style="stop-color:#000000;stop-opacity:0;"
         offset="1"
         id="stop4530" />
    </linearGradient>
    <linearGradient
       id="linearGradient4454">
      <stop
         id="stop7-36"
         offset="0"
         style="stop-color:#d21e1e;stop-opacity:1" />
      <stop
         id="stop9-75"
         offset="1"
         style="stop-color:#e05e4c;stop-opacity:1" />
    </linearGradient>
    <linearGradient
       gradientTransform="translate(-384.57001,-499.79999)"
       gradientUnits="userSpaceOnUse"
       y2="525.725"
       x2="391.89"
       y1="544.092"
       x1="403.421"
       id="linearGradient4213"
       xlink:href="#linearGradient4454" />
    <linearGradient
       id="linearGradient4472">
      <stop
         id="stop13"
         offset="0"
         style="stop-color:#ffa92d;stop-opacity:1" />
      <stop
         id="stop15"
         offset="1"
         style="stop-color:#ffc169;stop-opacity:1" />
    </linearGradient>
    <linearGradient
       gradientTransform="translate(-384.57001,-499.79999)"
       gradientUnits="userSpaceOnUse"
       y2="505.319"
       x2="391.154"
       y1="523.203"
       x1="401.296"
       id="linearGradient4235"
       xlink:href="#linearGradient4472" />
    <linearGradient
       id="linearGradient4422-8">
      <stop
         id="stop19-0"
         offset="0"
         style="stop-color:#377d50;stop-opacity:1" />
      <stop
         id="stop21"
         offset="1"
         style="stop-color:#54d883;stop-opacity:1" />
    </linearGradient>
    <linearGradient
       gradientTransform="translate(-384.57001,-499.79999)"
       gradientUnits="userSpaceOnUse"
       y2="503.798"
       x2="413.779"
       y1="523.798"
       x1="424.602"
       id="linearGradient4257"
       xlink:href="#linearGradient4422-8" />
    <linearGradient
       id="linearGradient4438">
      <stop
         id="stop25"
         offset="0"
         style="stop-color:#375a7d;stop-opacity:1" />
      <stop
         id="stop27"
         offset="1"
         style="stop-color:#54a3d8;stop-opacity:1" />
    </linearGradient>
    <linearGradient
       gradientTransform="translate(-384.57001,-499.79999)"
       gradientUnits="userSpaceOnUse"
       y2="525.748"
       x2="412.118"
       y1="543.488"
       x1="420.884"
       id="linearGradient4279"
       xlink:href="#linearGradient4438" />
    <linearGradient
       gradientTransform="translate(0.00142264,-0.00198746)"
       gradientUnits="userSpaceOnUse"
       y2="44"
       x2="44"
       y1="4"
       x1="4"
       id="linearGradient4220-3"
       xlink:href="#linearGradient4532" />
    <linearGradient
       id="a-2"
       y1="4"
       x1="24"
       y2="44"
       x2="4"
       gradientUnits="userSpaceOnUse">
      <stop
         stop-color="#197cf1"
         id="stop2-367" />
      <stop
         offset="1"
         stop-color="#20bcfa"
         id="stop4-5" />
    </linearGradient>
    <linearGradient
       id="b-7"
       y1="44"
       x1="44"
       y2="4"
       x2="24"
       gradientUnits="userSpaceOnUse">
      <stop
         stop-color="#c61423"
         id="stop7-3" />
      <stop
         offset="1"
         stop-color="#dc2b41"
         id="stop9-56" />
    </linearGradient>
    <linearGradient
       id="c-0"
       x1="44"
       x2="4"
       gradientUnits="userSpaceOnUse">
      <stop
         stop-color="#42a603"
         id="stop12-93" />
      <stop
         offset="1"
         stop-color="#78da06"
         id="stop14-6" />
    </linearGradient>
    <linearGradient
       id="d"
       y1="522.8"
       y2="538.8"
       x1="400.57"
       gradientUnits="userSpaceOnUse"
       x2="416.57">
      <stop
         stop-color="#292c2f"
         id="stop17-0" />
      <stop
         offset="1"
         stop-opacity="0"
         id="stop19-29" />
    </linearGradient>
    <linearGradient
       gradientTransform="matrix(.70711.70711-.70711.70711 105.4-635.69)"
       x2="378.58"
       gradientUnits="userSpaceOnUse"
       y2="523.86"
       x1="430.51"
       y1="522.99"
       id="b-3">
      <stop
         id="stop7-67"
         stop-color="#fcfcfc" />
      <stop
         id="stop9-53"
         stop-color="#e9eaeb"
         offset="1" />
    </linearGradient>
    <linearGradient
       gradientTransform="translate(45.719-.92)"
       x2="3.614"
       gradientUnits="userSpaceOnUse"
       y2="49.804"
       x1="-28.649"
       y1="19.869"
       id="c-5">
      <stop
         id="stop12-6" />
      <stop
         id="stop14-2"
         stop-opacity="0"
         offset="1" />
    </linearGradient>
    <linearGradient
       gradientTransform="matrix(.70711.70711-.70711.70711 105.48-635.28)"
       x2="402.03"
       gradientUnits="userSpaceOnUse"
       y2="523.7"
       x1="388.34"
       y1="522.18"
       id="d-9">
      <stop
         id="stop17-1"
         stop-color="#ffffff" />
      <stop
         id="stop19-2"
         stop-color="#eff0f1"
         offset="1" />
    </linearGradient>
    <linearGradient
       gradientTransform="matrix(.70711.70711-.70711.70711 105.48-635.28)"
       x2="425.86"
       gradientUnits="userSpaceOnUse"
       y2="527.34"
       x1="422.48"
       y1="527.21"
       id="e">
      <stop
         id="stop22"
         stop-color="#f9f9f9" />
      <stop
         id="stop24"
         stop-color="#f6f6f6"
         offset="1" />
    </linearGradient>
    <linearGradient
       gradientUnits="userSpaceOnUse"
       x2="23.912"
       y2="24.326"
       x1="9.642"
       y1="8.627"
       id="f">
      <stop
         id="stop27-1"
         stop-color="#491309" />
      <stop
         id="stop29"
         stop-color="#b6642d"
         offset="1" />
    </linearGradient>
    <linearGradient
       gradientUnits="userSpaceOnUse"
       x2="33.609"
       y2="34.953"
       x1="32.641"
       y1="33.922"
       id="h">
      <stop
         id="stop37"
         stop-color="#cfcfcf" />
      <stop
         id="stop39"
         stop-opacity="0"
         stop-color="#ededed"
         offset="1" />
    </linearGradient>
    <linearGradient
       gradientTransform="matrix(.70711.70711-.70711.70711 105.48-635.28)"
       x2="409.82"
       gradientUnits="userSpaceOnUse"
       y2="523.27"
       x1="385.61"
       y1="522.24"
       id="o">
      <stop
         id="stop62"
         stop-color="#ffffff" />
      <stop
         id="stop64"
         stop-color="#dfe1e3"
         offset="1" />
    </linearGradient>
    <path
       d="M25 15A9 9 0 1 1 7 15 9 9 0 1 1 25 15"
       color="#000000"
       id="p" />
    <linearGradient
       xlink:href="#linearGradient4299"
       id="linearGradient4415"
       x1="408.571"
       y1="543.773"
       x2="408.632"
       y2="503.67"
       gradientUnits="userSpaceOnUse" />
    <linearGradient
       id="linearGradient4227-5">
      <stop
         offset="0"
         style="stop-color:#2e3436;stop-opacity:1"
         id="stop8" />
      <stop
         offset="1"
         style="stop-color:#555753;stop-opacity:1"
         id="stop10" />
    </linearGradient>
    <linearGradient
       xlink:href="#linearGradient4227-5"
       id="linearGradient4437"
       x1="408.571"
       y1="535.199"
       x2="408.571"
       y2="512.397"
       gradientUnits="userSpaceOnUse"
       gradientTransform="matrix(0.96481792,0,0,0.96481792,14.374377,18.428304)" />
    <linearGradient
       id="linearGradient4299">
      <stop
         offset="0"
         style="stop-color:#1064d3;stop-opacity:1"
         id="stop14-3" />
      <stop
         offset="1"
         style="stop-color:#14c6fd;stop-opacity:1"
         id="stop16-6" />
    </linearGradient>
    <linearGradient
       xlink:href="#linearGradient4532"
       id="linearGradient4392"
       x1="9.077"
       y1="9.083"
       x2="42.946"
       y2="42.953"
       gradientUnits="userSpaceOnUse" />
    <linearGradient
       id="linearGradient4258">
      <stop
         id="stop2-36"
         offset="0"
         style="stop-color:#000019;stop-opacity:1" />
      <stop
         id="stop4-7"
         offset="1"
         style="stop-color:#000019;stop-opacity:0.29064038" />
    </linearGradient>
    <linearGradient
       id="linearGradient4223">
      <stop
         id="stop7-6"
         offset="0"
         style="stop-color:#c6cdd1;stop-opacity:1" />
      <stop
         id="stop9-7"
         offset="1"
         style="stop-color:#e0e5e7;stop-opacity:1" />
    </linearGradient>
    <linearGradient
       id="linearGradient4217">
      <stop
         id="stop12-5"
         style="stop-color:#1f93b9;stop-opacity:1"
         offset="0" />
      <stop
         id="stop14-5"
         style="stop-color:#1a5c9b;stop-opacity:1"
         offset="1" />
    </linearGradient>
    <linearGradient
       id="linearGradient4191">
      <stop
         id="stop17-3"
         offset="0"
         style="stop-color:#dc2b41;stop-opacity:1" />
      <stop
         id="stop19-5"
         offset="1"
         style="stop-color:#c61423;stop-opacity:1" />
    </linearGradient>
    <linearGradient
       gradientTransform="translate(-50.199325,-1.1505466)"
       gradientUnits="userSpaceOnUse"
       y2="29"
       x2="24"
       y1="7"
       x1="24"
       id="linearGradient4197"
       xlink:href="#linearGradient4217" />
    <linearGradient
       gradientTransform="translate(-50.199325,0.84945337)"
       gradientUnits="userSpaceOnUse"
       y2="41"
       x2="24"
       y1="30"
       x1="24"
       id="linearGradient4207"
       xlink:href="#linearGradient4191" />
    <linearGradient
       gradientTransform="translate(-51.199325,0.84945337)"
       gradientUnits="userSpaceOnUse"
       y2="41"
       x2="11"
       y1="30"
       x1="11"
       id="linearGradient4215"
       xlink:href="#linearGradient4191" />
    <linearGradient
       gradientTransform="translate(-51.199325,-1.1505466)"
       gradientUnits="userSpaceOnUse"
       y2="4"
       x2="29"
       y1="44"
       x1="29"
       id="linearGradient4229"
       xlink:href="#linearGradient4223" />
    <radialGradient
       gradientTransform="translate(-51.199325,-1.1505466)"
       gradientUnits="userSpaceOnUse"
       r="19"
       fy="24"
       fx="24"
       cy="24"
       cx="24"
       id="radialGradient4264"
       xlink:href="#linearGradient4258" />
    <path
       id="c-2"
       d="m.735 43.06l23.265-42.35 23.09 42.31c0 0-2.212-.155-5.272-.291-2.851-.127-1.794.114-8.278-1.089-4.911-.91-8.522-2.865-15.253-2.727-7.453.153-17.549 4.149-17.549 4.149" />
    <path
       id="c-29"
       d="m.735 43.06l23.265-42.35 23.09 42.31c0 0-2.212-.155-5.272-.291-2.851-.127-1.794.114-8.278-1.089-4.911-.91-8.522-2.865-15.253-2.727-7.453.153-17.549 4.149-17.549 4.149" />
    <linearGradient
       gradientUnits="userSpaceOnUse"
       x2="4"
       x1="44"
       id="c-0-5">
      <stop
         id="stop12-9"
         stop-color="#42a603" />
      <stop
         id="stop14-22"
         stop-color="#78da06"
         offset="1" />
    </linearGradient>
    <path
       id="p-0"
       color="#000000"
       d="M25 15A9 9 0 1 1 7 15 9 9 0 1 1 25 15" />
    <radialGradient
       xlink:href="#linearGradient4258"
       id="radialGradient4264-4"
       cx="24"
       cy="24"
       fx="24"
       fy="24"
       r="19"
       gradientUnits="userSpaceOnUse"
       gradientTransform="translate(-51.199325,-1.1505466)" />
    <path
       d="m.735 43.06l23.265-42.35 23.09 42.31c0 0-2.212-.155-5.272-.291-2.851-.127-1.794.114-8.278-1.089-4.911-.91-8.522-2.865-15.253-2.727-7.453.153-17.549 4.149-17.549 4.149"
       id="c-2-7" />
    <path
       id="c-2912"
       d="m.735 43.06l23.265-42.35 23.09 42.31c0 0-2.212-.155-5.272-.291-2.851-.127-1.794.114-8.278-1.089-4.911-.91-8.522-2.865-15.253-2.727-7.453.153-17.549 4.149-17.549 4.149" />
    <linearGradient
       gradientUnits="userSpaceOnUse"
       x2="4"
       x1="44"
       id="c-0-8">
      <stop
         id="stop12-97"
         stop-color="#42a603" />
      <stop
         id="stop14-36"
         stop-color="#78da06"
         offset="1" />
    </linearGradient>
    <path
       id="p-32"
       color="#000000"
       d="M25 15A9 9 0 1 1 7 15 9 9 0 1 1 25 15" />
    <radialGradient
       xlink:href="#linearGradient4258"
       id="radialGradient4264-74"
       cx="24"
       cy="24"
       fx="24"
       fy="24"
       r="19"
       gradientUnits="userSpaceOnUse"
       gradientTransform="translate(-51.199325,-1.1505466)" />
    <path
       d="m.735 43.06l23.265-42.35 23.09 42.31c0 0-2.212-.155-5.272-.291-2.851-.127-1.794.114-8.278-1.089-4.911-.91-8.522-2.865-15.253-2.727-7.453.153-17.549 4.149-17.549 4.149"
       id="c-2-5" />
    <path
       d="m.735 43.06l23.265-42.35 23.09 42.31c0 0-2.212-.155-5.272-.291-2.851-.127-1.794.114-8.278-1.089-4.911-.91-8.522-2.865-15.253-2.727-7.453.153-17.549 4.149-17.549 4.149"
       id="c-291" />
    <linearGradient
       id="c-0-9"
       x1="44"
       x2="4"
       gradientUnits="userSpaceOnUse">
      <stop
         stop-color="#42a603"
         id="stop12-2" />
      <stop
         offset="1"
         stop-color="#78da06"
         id="stop14-28" />
    </linearGradient>
    <path
       d="M25 15A9 9 0 1 1 7 15 9 9 0 1 1 25 15"
       color="#000000"
       id="p-3" />
    <radialGradient
       gradientTransform="translate(-51.199325,-1.1505466)"
       gradientUnits="userSpaceOnUse"
       r="19"
       fy="24"
       fx="24"
       cy="24"
       cx="24"
       id="radialGradient4264-7"
       xlink:href="#linearGradient4258" />
    <path
       id="c-2-6"
       d="m.735 43.06l23.265-42.35 23.09 42.31c0 0-2.212-.155-5.272-.291-2.851-.127-1.794.114-8.278-1.089-4.911-.91-8.522-2.865-15.253-2.727-7.453.153-17.549 4.149-17.549 4.149" />
    <path
       id="c-29-2"
       d="m.735 43.06l23.265-42.35 23.09 42.31c0 0-2.212-.155-5.272-.291-2.851-.127-1.794.114-8.278-1.089-4.911-.91-8.522-2.865-15.253-2.727-7.453.153-17.549 4.149-17.549 4.149" />
    <linearGradient
       gradientUnits="userSpaceOnUse"
       x2="4"
       x1="44"
       id="c-0-5-4">
      <stop
         id="stop12-9-4"
         stop-color="#42a603" />
      <stop
         id="stop14-22-3"
         stop-color="#78da06"
         offset="1" />
    </linearGradient>
    <path
       id="p-0-0"
       color="#000000"
       d="M25 15A9 9 0 1 1 7 15 9 9 0 1 1 25 15" />
    <radialGradient
       xlink:href="#linearGradient4258"
       id="radialGradient4264-4-7"
       cx="24"
       cy="24"
       fx="24"
       fy="24"
       r="19"
       gradientUnits="userSpaceOnUse"
       gradientTransform="translate(-51.199325,-1.1505466)" />
    <path
       d="m.735 43.06l23.265-42.35 23.09 42.31c0 0-2.212-.155-5.272-.291-2.851-.127-1.794.114-8.278-1.089-4.911-.91-8.522-2.865-15.253-2.727-7.453.153-17.549 4.149-17.549 4.149"
       id="c-2-7-8" />
    <path
       id="c-3"
       d="m.735 43.06l23.265-42.35 23.09 42.31c0 0-2.212-.155-5.272-.291-2.851-.127-1.794.114-8.278-1.089-4.911-.91-8.522-2.865-15.253-2.727-7.453.153-17.549 4.149-17.549 4.149" />
    <linearGradient
       gradientUnits="userSpaceOnUse"
       x2="4"
       x1="44"
       id="c-0-2">
      <stop
         id="stop12-3"
         stop-color="#42a603" />
      <stop
         id="stop14-7"
         stop-color="#78da06"
         offset="1" />
    </linearGradient>
    <path
       id="p-7"
       color="#000000"
       d="M25 15A9 9 0 1 1 7 15 9 9 0 1 1 25 15" />
    <radialGradient
       xlink:href="#linearGradient4258"
       id="radialGradient4264-6"
       cx="24"
       cy="24"
       fx="24"
       fy="24"
       r="19"
       gradientUnits="userSpaceOnUse"
       gradientTransform="translate(-51.199325,-1.1505466)" />
    <path
       d="m.735 43.06l23.265-42.35 23.09 42.31c0 0-2.212-.155-5.272-.291-2.851-.127-1.794.114-8.278-1.089-4.911-.91-8.522-2.865-15.253-2.727-7.453.153-17.549 4.149-17.549 4.149"
       id="c-2-1" />
    <inkscape:path-effect
       is_visible="true"
       id="path-effect4429-5"
       effect="spiro" />
    <inkscape:path-effect
       is_visible="true"
       id="path-effect4429-5-9"
       effect="spiro" />
    <inkscape:path-effect
       is_visible="true"
       id="path-effect4429-0"
       effect="spiro" />
    <inkscape:path-effect
       is_visible="true"
       id="path-effect4555-0"
       effect="spiro" />
    <linearGradient
       id="a-3"
       y1="394.54"
       y2="325.98"
       gradientUnits="userSpaceOnUse"
       x2="0"
       gradientTransform="matrix(.48276 0 0 .40835 384.64 384.68)">
      <stop
         stop-color="#ffffff"
         stop-opacity="0"
         id="stop4459" />
      <stop
         offset="1"
         stop-color="#ffffff"
         stop-opacity=".2"
         id="stop4461" />
    </linearGradient>
    <linearGradient
       id="linearGradient4300-8">
      <stop
         id="stop4302-2"
         stop-color="#f62459" />
      <stop
         offset="1"
         id="stop4304-9"
         stop-color="#f73768" />
    </linearGradient>
  </defs>
  <g
     transform="translate(-384.75633,-515.61659)"
     id="layer1"
     inkscape:label="Capa 1"
     style="stroke:#15c1f9;stroke-width:0.30000001;stroke-miterlimit:4;stroke-dasharray:none;stroke-opacity:1">
    <g
       id="g4437-3-6"
       transform="matrix(0.25706214,0,0,0.25706214,390.63923,529.52681)"
       style="stroke:#15c1f9;stroke-width:1.16703296;stroke-miterlimit:4;stroke-dasharray:none;stroke-opacity:1">
      <g
         inkscape:label="Capa 1"
         id="layer1-8"
         transform="matrix(3.89011,0,0,3.89011,-1520.0669,-2061.7389)"
         style="stroke:#15c1f9;stroke-width:0.30000001;stroke-miterlimit:4;stroke-dasharray:none;stroke-opacity:1">
        <rect
           style="opacity:1;fill:#5dd4fb;fill-opacity:1;stroke:#15c1f9;stroke-width:0.30000001;stroke-linecap:butt;stroke-linejoin:miter;stroke-miterlimit:4;stroke-dasharray:none;stroke-dashoffset:0;stroke-opacity:1"
           id="rect4713"
           width="26.180746"
           height="26.207815"
           x="387.62262"
           y="519.15619"
           ry="1.3417394" />
      </g>
    </g>
  </g>
  <path
     style="opacity:1;fill:#047aa1;fill-opacity:1;stroke:none;stroke-width:0.00677966;stroke-miterlimit:4;stroke-dasharray:none;stroke-opacity:1"
     d="m 21.271968,23.169725 -0.230811,-0.251832 -0.17901,0 c -0.348935,0 -0.287941,0.0986 -1.415818,-2.28874 l -1.008655,-2.134989 -0.963527,-0.009 -0.963528,-0.009 -0.01197,0.291585 c -0.01111,0.270434 -0.01887,0.29752 -0.107085,0.373396 -0.110002,0.09462 -0.276829,0.107518 -0.387554,0.02996 -0.09195,-0.0644 -0.144017,-0.244504 -0.144264,-0.499 l -1.89e-4,-0.194916 -0.942196,0 -0.942196,0 -0.977036,2.076271 c -0.537369,1.14195 -0.998956,2.111322 -1.025747,2.154161 -0.08177,0.130746 -0.247979,0.20998 -0.440769,0.210119 -0.174458,1.36e-4 -0.17654,0.0014 -0.386628,0.237794 -0.116174,0.130716 -0.217444,0.231447 -0.225045,0.223846 -0.0076,-0.0076 0.04806,-0.136899 0.123698,-0.287329 l 0.137518,-0.273509 -0.08208,-0.120955 c -0.11218,-0.165306 -0.131902,-0.283152 -0.07395,-0.441879 0.027,-0.07395 0.423834,-0.926274 0.881859,-1.894059 0.458025,-0.967784 0.841688,-1.787699 0.852586,-1.822034 0.0185,-0.05829 -0.0074,-0.06243 -0.39148,-0.06243 -0.22621,0 -0.440798,-0.01579 -0.47686,-0.03509 -0.07504,-0.04016 -0.08727,-0.175882 -0.02083,-0.231029 0.0269,-0.02233 0.250838,-0.04088 0.561598,-0.04652 l 0.516855,-0.0094 1.116369,-2.366832 c 0.614002,-1.301757 1.116368,-2.395255 1.116368,-2.429996 0,-0.131638 -0.07793,-0.26012 -0.268014,-0.44185 -0.477876,-0.456881 -0.685076,-1.020713 -0.607469,-1.653048 0.07749,-0.631392 0.451005,-1.160448 1.021925,-1.4474864 0.127154,-0.063928 0.282163,-0.125796 0.344465,-0.1374839 l 0.113276,-0.021251 0.01147,-0.3505786 c 0.01093,-0.334212 0.0161,-0.3554067 0.110626,-0.453994 0.124539,-0.1298862 0.280037,-0.1624708 0.431759,-0.090475 0.174374,0.082746 0.210958,0.1681596 0.230882,0.5390523 l 0.01786,0.3324982 0.220339,0.074281 c 0.493844,0.1664866 0.879266,0.5003844 1.109065,0.9608024 0.375683,0.752706 0.227988,1.606749 -0.380152,2.198225 -0.115016,0.111864 -0.226921,0.236709 -0.248678,0.277432 -0.101127,0.189286 -0.07585,0.252689 1.067963,2.678656 l 1.10752,2.348997 0.495869,0 c 0.520322,0 0.577226,0.01504 0.577226,0.152542 0,0.133997 -0.06058,0.152542 -0.498305,0.152542 -0.229322,0 -0.416949,0.0065 -0.416949,0.01439 0,0.0079 0.397571,0.857422 0.883491,1.887793 0.485919,1.030371 0.891791,1.914903 0.901935,1.965626 0.02317,0.115862 -0.03892,0.309062 -0.124105,0.386153 -0.06356,0.05752 -0.06169,0.06524 0.08814,0.363566 0.08419,0.167637 0.148123,0.30975 0.142068,0.315805 -0.0061,0.0061 -0.114875,-0.102315 -0.241822,-0.240823 z m -5.412227,-5.243357 c 2.71e-4,-0.335735 0.04689,-0.487547 0.169197,-0.550793 0.123213,-0.06372 0.181679,-0.06393 0.303198,-0.0011 0.126292,0.06531 0.171484,0.205379 0.171484,0.531512 l 0,0.266128 0.881356,0 c 0.484746,0 0.881356,-0.0098 0.881356,-0.02183 0,-0.06574 -1.786139,-3.804878 -1.849902,-3.872624 -0.0976,-0.103697 -0.32793,-0.11295 -0.421902,-0.01695 -0.04552,0.0465 -1.720695,3.542807 -1.853759,3.869029 -0.01356,0.03324 0.169704,0.04237 0.850749,0.04237 l 0.868034,1e-6 2.03e-4,-0.245763 -1.4e-5,0 z m 0.882706,-5.267951 c 0.980454,-0.460948 0.985325,-1.820591 0.0083,-2.312708 -0.0785,-0.03954 -0.148538,-0.07188 -0.155651,-0.07188 -0.0071,0 -0.03097,0.0602 -0.05301,0.133775 -0.05342,0.178306 -0.178464,0.273005 -0.360482,0.273005 -0.175567,0 -0.301841,-0.09034 -0.356107,-0.254767 -0.02144,-0.06496 -0.04924,-0.117971 -0.06178,-0.117796 -0.07037,9.82e-4 -0.383041,0.217119 -0.50413,0.348485 -0.176629,0.191619 -0.262057,0.358322 -0.314953,0.614595 -0.128015,0.620203 0.260151,1.25818 0.89073,1.463977 0.242896,0.07927 0.648268,0.045 0.907097,-0.07668 z"
     id="path4549"
     inkscape:connector-curvature="0" />
</svg>
