<?xml version="1.0" encoding="UTF-8" standalone="no"?>
<svg
   xmlns:dc="http://purl.org/dc/elements/1.1/"
   xmlns:cc="http://creativecommons.org/ns#"
   xmlns:rdf="http://www.w3.org/1999/02/22-rdf-syntax-ns#"
   xmlns:svg="http://www.w3.org/2000/svg"
   xmlns="http://www.w3.org/2000/svg"
   xmlns:sodipodi="http://sodipodi.sourceforge.net/DTD/sodipodi-0.dtd"
   xmlns:inkscape="http://www.inkscape.org/namespaces/inkscape"
   width="32"
   height="32"
   id="svg2"
   version="1.1"
   inkscape:version="0.91 r13725"
   sodipodi:docname="application-vnd.ms-excel.addin.macroenabled.12.svg">
  <metadata
     id="metadata41">
    <rdf:RDF>
      <cc:Work
         rdf:about="">
        <dc:format>image/svg+xml</dc:format>
        <dc:type
           rdf:resource="http://purl.org/dc/dcmitype/StillImage" />
      </cc:Work>
    </rdf:RDF>
  </metadata>
  <sodipodi:namedview
     pagecolor="#ffffff"
     bordercolor="#666666"
     borderopacity="1"
     objecttolerance="10"
     gridtolerance="10"
     guidetolerance="10"
     inkscape:pageopacity="0"
     inkscape:pageshadow="2"
     inkscape:window-width="1920"
     inkscape:window-height="1055"
     id="namedview39"
     showgrid="false"
     inkscape:zoom="41.7193"
     inkscape:cx="4.0319745"
     inkscape:cy="17.769442"
     inkscape:window-x="0"
     inkscape:window-y="0"
     inkscape:window-maximized="1"
     inkscape:current-layer="svg2" />
  <defs
     id="defs4">
    <linearGradient
       id="a"
       y1="17"
       x1="47"
       y2="24"
       gradientUnits="userSpaceOnUse"
       x2="54"
       gradientTransform="translate(357.57,507.8)">
      <stop
         stop-color="#060606"
         id="stop7" />
      <stop
         offset="1"
         stop-opacity="0"
         id="stop9" />
    </linearGradient>
    <linearGradient
       id="b"
       y1="392.36"
       y2="365.36"
       gradientUnits="userSpaceOnUse"
       x2="0"
       gradientTransform="translate(309.57,152.44)">
      <stop
         stop-color="#ffffff"
         stop-opacity="0"
         id="stop12" />
      <stop
         offset="1"
         stop-color="#ffffff"
         stop-opacity=".2"
         id="stop14" />
    </linearGradient>
    <path
       id="c"
       d="m389.57 545.8v-28h15l7 7v21h-14z" />
  </defs>
  <g
     inkscape:label="Capa 1"
     id="layer1"
     transform="translate(-384.43584,-515.12003)">
    <g
       transform="matrix(0.25706214,0,0,0.25706214,390.63923,529.52681)"
       id="g4437-3-6">
      <g
         transform="matrix(3.89011,0,0,3.89011,-1520.0669,-2061.7389)"
         id="layer1-8"
         inkscape:label="Capa 1">
        <text
           xml:space="preserve"
           style="font-style:normal;font-weight:normal;font-size:1.69227612px;line-height:125%;font-family:sans-serif;letter-spacing:0px;word-spacing:0px;fill:#000000;fill-opacity:1;stroke:none;stroke-width:1px;stroke-linecap:butt;stroke-linejoin:miter;stroke-opacity:1"
           x="392.60995"
           y="538.00714"
           id="text4665"
           sodipodi:linespacing="125%"><tspan
             sodipodi:role="line"
             id="tspan4667"
             x="392.60995"
             y="538.00714" /></text>
        <g
           transform="translate(0.11241931,0.12922051)"
           id="layer1-59"
           inkscape:label="Capa 1">
          <g
             id="g4437-3-6-7"
             transform="matrix(0.25706214,0,0,0.25706214,390.63923,529.52681)">
            <g
               inkscape:label="Capa 1"
               id="layer1-8-53"
               transform="matrix(3.89011,0,0,3.89011,-1520.0669,-2061.7389)">
              <text
                 sodipodi:linespacing="125%"
                 id="text4665-8"
                 y="538.00714"
                 x="392.60995"
                 style="font-style:normal;font-weight:normal;font-size:1.69227612px;line-height:125%;font-family:sans-serif;letter-spacing:0px;word-spacing:0px;fill:#000000;fill-opacity:1;stroke:none;stroke-width:1px;stroke-linecap:butt;stroke-linejoin:miter;stroke-opacity:1"
                 xml:space="preserve"><tspan
                   y="538.00714"
                   x="392.60995"
                   id="tspan4667-8"
                   sodipodi:role="line" /></text>
              <g
                 style="stroke:#c9c9c9;stroke-opacity:1"
                 inkscape:label="Capa 1"
                 id="layer1-85"
                 transform="translate(0.19948935,0.26253295)">
                <g
                   style="stroke:#c9c9c9;stroke-opacity:1"
                   transform="matrix(0.25706214,0,0,0.25706214,390.63923,529.52681)"
                   id="g4437-3-6-97">
                  <g
                     style="stroke:#c9c9c9;stroke-opacity:1"
                     transform="matrix(3.89011,0,0,3.89011,-1520.0669,-2061.7389)"
                     id="layer1-8-5"
                     inkscape:label="Capa 1">
                    <g
                       style="stroke:#c9c9c9;stroke-opacity:1"
                       transform="translate(0.02535072,0.69032305)"
                       id="layer1-9"
                       inkscape:label="Capa 1">
                      <g
                         style="stroke:#c9c9c9;stroke-opacity:1"
                         id="g4437-3-6-1"
                         transform="matrix(0.25706214,0,0,0.25706214,390.63923,529.52681)">
                        <g
                           style="stroke:#c9c9c9;stroke-opacity:1"
                           inkscape:label="Capa 1"
                           id="layer1-8-7"
                           transform="matrix(3.89011,0,0,3.89011,-1520.0669,-2061.7389)">
                          <g
                             style="stroke:#c9c9c9;stroke-opacity:1"
                             inkscape:label="Capa 1"
                             id="layer1-5"
                             transform="translate(0.01300294,0.56286094)">
                            <g
                               style="stroke:#c9c9c9;stroke-opacity:1"
                               transform="matrix(0.25706214,0,0,0.25706214,390.63923,529.52681)"
                               id="g4437-3-6-9">
                              <g
                                 style="stroke:#c9c9c9;stroke-opacity:1"
                                 transform="matrix(3.89011,0,0,3.89011,-1520.0669,-2061.7389)"
                                 id="layer1-8-4"
                                 inkscape:label="Capa 1">
                                <rect
                                   style="opacity:1;fill:#25d870;fill-opacity:1;stroke:#25c670;stroke-width:0.303;stroke-linecap:butt;stroke-linejoin:miter;stroke-miterlimit:4;stroke-dasharray:none;stroke-dashoffset:0;stroke-opacity:1"
                                   id="rect4694"
                                   width="25.764034"
                                   height="25.764034"
                                   x="387.76566"
                                   y="519.61206"
                                   rx="1.1297435"
                                   ry="1.0623779" />
                              </g>
                            </g>
                          </g>
                        </g>
                      </g>
                    </g>
                  </g>
                </g>
              </g>
            </g>
          </g>
        </g>
      </g>
    </g>
  </g>
  <path
     style="opacity:1;fill:#f5fdf8;fill-opacity:1;stroke:#25c670;stroke-width:0.01535805;stroke-miterlimit:4;stroke-dasharray:none;stroke-opacity:1"
     d="m 15.923309,8.8759693 -6.9861901,0.0111 -0.154856,0.08407 c -0.206664,0.111872 -0.420474,0.338385 -0.515447,0.548631 -0.07754,0.171659 -0.07696,0.218278 -0.07743,7.1609557 l 0,6.988402 0.0885,0.192463 c 0.106481,0.228661 0.386646,0.490323 0.612784,0.570753 0.139838,0.04974 1.0551,0.05677 7.1498941,0.05088 l 6.986191,-0.0067 0.212373,-0.11946 c 0.116145,-0.06551 0.267809,-0.191959 0.336257,-0.280952 0.257639,-0.334961 0.241239,0.158765 0.230071,-7.492788 l -0.0111,-6.9286727 -0.112824,-0.205737 c -0.06268,-0.113164 -0.182633,-0.263142 -0.265466,-0.334044 -0.310825,-0.26606 0.242007,-0.250021 -7.492788,-0.238921 z m -6.8910651,0.836219 6.9596441,0.0088 6.959642,0.0111 0,6.9485827 0,6.950795 -6.959642,0.0088 -6.9596441,0.0088 0,-6.968493 0,-6.9684917 z m 1.8427791,1.8427787 0,0.422534 0,0.422534 1.095048,0 1.092837,0 0,-0.422534 0,-0.422534 -1.092837,0 -1.095048,0 z m 4.032876,0 0,0.422534 0,0.422534 1.092837,0 1.095049,0 0,-0.422534 0,-0.422534 -1.095049,0 -1.092837,0 z m 3.993058,0 0,0.422534 0,0.422534 1.112746,0 1.112747,0 0,-0.422534 0,-0.422534 -1.112747,0 -1.112746,0 z m -8.025934,2.687847 0,0.422534 0,0.422534 1.095048,0 1.092837,0 0,-0.422534 0,-0.422534 -1.092837,0 -1.095048,0 z m 4.032876,0 0,0.422534 0,0.422534 1.092837,0 1.095049,0 0,-0.422534 0,-0.422534 -1.095049,0 -1.092837,0 z m 3.993058,0 0,0.422534 0,0.422534 1.112746,0 1.112747,0 0,-0.422534 0,-0.422534 -1.112747,0 -1.112746,0 z m -8.025934,2.687847 0,0.422535 0,0.422534 1.095048,0 1.092837,0 0,-0.422534 0,-0.422535 -1.092837,0 -1.095048,0 z m 4.032876,0 0,0.422535 0,0.422534 1.092837,0 1.095049,0 0,-0.422534 0,-0.422535 -1.095049,0 -1.092837,0 z m 3.993058,0 0,0.422535 0,0.422534 1.112746,0 1.112747,0 0,-0.422534 0,-0.422535 -1.112747,0 -1.112746,0 z m -8.025934,2.687848 0,0.422534 0,0.422534 1.095048,0 1.092837,0 0,-0.422534 0,-0.422534 -1.092837,0 -1.095048,0 z m 4.032876,0 0,0.422534 0,0.422534 1.092837,0 1.095049,0 0,-0.422534 0,-0.422534 -1.095049,0 -1.092837,0 z m 3.993058,0 0,0.422534 0,0.422534 1.112746,0 1.112747,0 0,-0.422534 0,-0.422534 -1.112747,0 -1.112746,0 z"
     id="path4317"
     inkscape:connector-curvature="0" />
</svg>
