<svg xmlns="http://www.w3.org/2000/svg" viewBox="0 0 32 32"><defs><linearGradient gradientUnits="userSpaceOnUse" y2="528.82" x2="451.76" y1="556.82" x1="452.11" id="0"><stop stop-color="#585c5e"/><stop offset="1" stop-color="#6f7376"/></linearGradient></defs><g transform="matrix(.56277 0 0 .56174-272.43-284.75)" fill="#11394f"><rect y="528.02" x="440.55" height="29.671" width="22.411" fill="url(#0)" fill-rule="evenodd" stroke="#232425" stroke-linecap="round" stroke-width=".3" rx="1" transform="matrix(1.77693 0 0 1.78018-290.21-431)"/><path d="m520.9 527.95c-2.282-1.857-5.311-2.879-8.53-2.879-3.219 0-6.249 1.023-8.53 2.879-2.301 1.873-3.569 4.369-3.569 7.03 0 2.538 1.155 4.928 3.261 6.768-.038.085-.068.175-.087.27l-.692 3.404c-.082.405.028.646.135.777.124.152.308.235.517.235.158 0 .328-.047.506-.139l4.03-2.091c1.394.449 2.892.684 4.434.684 3.219 0 6.249-1.023 8.53-2.879 2.301-1.873 3.569-4.369 3.569-7.03 0-2.66-1.267-5.156-3.569-7.03" fill="#fff" stroke="none"/></g></svg>