<?xml version="1.0" encoding="UTF-8" standalone="no"?>
<svg
   xmlns:dc="http://purl.org/dc/elements/1.1/"
   xmlns:cc="http://creativecommons.org/ns#"
   xmlns:rdf="http://www.w3.org/1999/02/22-rdf-syntax-ns#"
   xmlns:svg="http://www.w3.org/2000/svg"
   xmlns="http://www.w3.org/2000/svg"
   xmlns:sodipodi="http://sodipodi.sourceforge.net/DTD/sodipodi-0.dtd"
   xmlns:inkscape="http://www.inkscape.org/namespaces/inkscape"
   width="32"
   height="32"
   id="svg2"
   version="1.1"
   inkscape:version="0.91 r13725"
   sodipodi:docname="application-vnd.ms-powerpoint.template.macroenabled.12.svg">
  <metadata
     id="metadata43">
    <rdf:RDF>
      <cc:Work
         rdf:about="">
        <dc:format>image/svg+xml</dc:format>
        <dc:type
           rdf:resource="http://purl.org/dc/dcmitype/StillImage" />
      </cc:Work>
    </rdf:RDF>
  </metadata>
  <sodipodi:namedview
     pagecolor="#ffffff"
     bordercolor="#666666"
     borderopacity="1"
     objecttolerance="10"
     gridtolerance="10"
     guidetolerance="10"
     inkscape:pageopacity="0"
     inkscape:pageshadow="2"
     inkscape:window-width="1920"
     inkscape:window-height="1055"
     id="namedview41"
     showgrid="false"
     inkscape:zoom="29.5"
     inkscape:cx="25.66416"
     inkscape:cy="23.046809"
     inkscape:window-x="0"
     inkscape:window-y="0"
     inkscape:window-maximized="1"
     inkscape:current-layer="svg2" />
  <defs
     id="defs4">
    <linearGradient
       id="a"
       y1="392.36"
       y2="365.36"
       x2="0"
       gradientUnits="userSpaceOnUse"
       gradientTransform="translate(309.57 152.44)">
      <stop
         stop-color="#ffffff"
         stop-opacity="0"
         id="stop7" />
      <stop
         offset="1"
         stop-color="#ffffff"
         stop-opacity=".2"
         id="stop9" />
    </linearGradient>
    <linearGradient
       id="b"
       y1="17"
       y2="24"
       x1="47"
       x2="54"
       gradientUnits="userSpaceOnUse"
       gradientTransform="translate(357.57 507.8)">
      <stop
         stop-color="#060606"
         id="stop12" />
      <stop
         offset="1"
         stop-opacity="0"
         id="stop14" />
    </linearGradient>
    <path
       id="c"
       d="m389.57 545.8v-28h15l7 7v21h-14z" />
    <linearGradient
       gradientUnits="userSpaceOnUse"
       x2="411.57"
       y2="531.8"
       x1="404.57"
       y1="524.8"
       id="a-7">
      <stop
         id="stop7-5"
         stop-color="#383e51" />
      <stop
         id="stop9-3"
         stop-opacity="0"
         stop-color="#655c6f"
         offset="1" />
    </linearGradient>
    <linearGradient
       gradientTransform="translate(311.12932,153.05017)"
       gradientUnits="userSpaceOnUse"
       x2="0"
       y2="365.36"
       y1="392.36"
       id="b-5">
      <stop
         id="stop12-6"
         stop-opacity="0"
         stop-color="#ffffff" />
      <stop
         id="stop14-2"
         stop-opacity=".2"
         stop-color="#ffffff"
         offset="1" />
    </linearGradient>
  </defs>
  <g
     id="g3408"
     transform="translate(0.06779344,-0.20339018)">
    <g
       transform="translate(-384.50363,-515.59461)"
       id="layer1"
       inkscape:label="Capa 1">
      <g
         id="g4437-3-6"
         transform="matrix(0.25706214,0,0,0.25706214,390.63923,529.52681)">
        <g
           inkscape:label="Capa 1"
           id="layer1-8"
           transform="matrix(3.89011,0,0,3.89011,-1520.0669,-2061.7389)">
          <text
             sodipodi:linespacing="125%"
             id="text4665"
             y="538.00714"
             x="392.60995"
             style="font-style:normal;font-weight:normal;font-size:1.69227612px;line-height:125%;font-family:sans-serif;letter-spacing:0px;word-spacing:0px;fill:#000000;fill-opacity:1;stroke:none;stroke-width:1px;stroke-linecap:butt;stroke-linejoin:miter;stroke-opacity:1"
             xml:space="preserve"><tspan
               y="538.00714"
               x="392.60995"
               id="tspan4667"
               sodipodi:role="line" /></text>
          <g
             inkscape:label="Capa 1"
             id="layer1-59"
             transform="translate(0.11241931,0.12922051)">
            <g
               transform="matrix(0.25706214,0,0,0.25706214,390.63923,529.52681)"
               id="g4437-3-6-7">
              <g
                 transform="matrix(3.89011,0,0,3.89011,-1520.0669,-2061.7389)"
                 id="layer1-8-53"
                 inkscape:label="Capa 1">
                <text
                   xml:space="preserve"
                   style="font-style:normal;font-weight:normal;font-size:1.69227612px;line-height:125%;font-family:sans-serif;letter-spacing:0px;word-spacing:0px;fill:#000000;fill-opacity:1;stroke:none;stroke-width:1px;stroke-linecap:butt;stroke-linejoin:miter;stroke-opacity:1"
                   x="392.60995"
                   y="538.00714"
                   id="text4665-8"
                   sodipodi:linespacing="125%"><tspan
                     sodipodi:role="line"
                     id="tspan4667-8"
                     x="392.60995"
                     y="538.00714" /></text>
                <g
                   transform="translate(0.19948935,0.26253295)"
                   id="layer1-85"
                   inkscape:label="Capa 1"
                   style="stroke:#c9c9c9;stroke-opacity:1">
                  <g
                     id="g4437-3-6-97"
                     transform="matrix(0.25706214,0,0,0.25706214,390.63923,529.52681)"
                     style="stroke:#c9c9c9;stroke-opacity:1">
                    <g
                       inkscape:label="Capa 1"
                       id="layer1-8-5"
                       transform="matrix(3.89011,0,0,3.89011,-1520.0669,-2061.7389)"
                       style="stroke:#c9c9c9;stroke-opacity:1">
                      <g
                         inkscape:label="Capa 1"
                         id="layer1-9"
                         transform="translate(0.02535072,0.69032305)"
                         style="stroke:#c9c9c9;stroke-opacity:1">
                        <g
                           transform="matrix(0.25706214,0,0,0.25706214,390.63923,529.52681)"
                           id="g4437-3-6-1"
                           style="stroke:#c9c9c9;stroke-opacity:1">
                          <g
                             transform="matrix(3.89011,0,0,3.89011,-1520.0669,-2061.7389)"
                             id="layer1-8-7"
                             inkscape:label="Capa 1"
                             style="stroke:#c9c9c9;stroke-opacity:1">
                            <g
                               transform="translate(0.01300294,0.56286094)"
                               id="layer1-5"
                               inkscape:label="Capa 1"
                               style="stroke:#c9c9c9;stroke-opacity:1">
                              <g
                                 id="g4437-3-6-9"
                                 transform="matrix(0.25706214,0,0,0.25706214,390.63923,529.52681)"
                                 style="stroke:#c9c9c9;stroke-opacity:1">
                                <g
                                   inkscape:label="Capa 1"
                                   id="layer1-8-4"
                                   transform="matrix(3.89011,0,0,3.89011,-1520.0669,-2061.7389)"
                                   style="stroke:#c9c9c9;stroke-opacity:1">
                                <rect
                                   ry="1.0623779"
                                   rx="1.1297435"
                                   y="519.61206"
                                   x="387.76566"
                                   height="25.764034"
                                   width="25.764034"
                                   id="rect4694"
                                   style="opacity:1;fill:#ea6b4e;fill-opacity:1;stroke:#e85e3e;stroke-width:0.303;stroke-linecap:butt;stroke-linejoin:miter;stroke-miterlimit:4;stroke-dasharray:none;stroke-dashoffset:0;stroke-opacity:1" />
                                </g>
                              </g>
                            </g>
                          </g>
                        </g>
                      </g>
                    </g>
                  </g>
                </g>
              </g>
            </g>
          </g>
        </g>
      </g>
    </g>
    <path
       inkscape:connector-curvature="0"
       id="path4229"
       d="m 9.4470396,8.9739067 -0.166016,0.08203 c -0.212374,0.104524 -0.390064,0.282214 -0.496094,0.496094 l -0.082031,0.167968 -0.00977,6.4042973 c -0.00978,7.03161 -0.021163,6.594484 0.19336,6.890625 0.107351,0.148194 0.327362,0.31555 0.49414,0.375 0.070739,0.02522 2.0684614,0.03716 6.5625004,0.03906 l 6.458985,0.0039 0.208984,-0.105469 c 0.237387,-0.118623 0.353785,-0.241003 0.478516,-0.505859 l 0.08594,-0.185547 0,-6.423828 c 0,-6.2366803 -0.0017,-6.4291713 -0.06445,-6.5917973 -0.08197,-0.212533 -0.290242,-0.440763 -0.509765,-0.556641 l -0.169922,-0.08984 -6.492188,0 -6.4921874,0 z m 0.050781,0.796875 6.4238284,0 6.423828,0 0,6.4238283 0,6.423828 -6.423828,0 -6.4238284,0 0,-6.423828 0,-6.4238283 z m 7.8984384,1.6855473 0,1.648437 0,1.648437 1.648437,0 1.646484,0 -0.02344,-0.210937 c -0.106645,-0.932874 -0.643394,-1.854476 -1.40625,-2.414063 -0.461045,-0.338194 -1.126465,-0.60351 -1.63086,-0.65039 l -0.234374,-0.02148 z m -1.660157,1.222656 -0.177734,0.02344 c -1.217928,0.155395 -2.241756,0.872416 -2.767578,1.9375 -0.271309,0.54955 -0.360669,0.952123 -0.355469,1.605469 0.0033,0.412613 0.01762,0.545595 0.0918,0.828125 0.343513,1.308307 1.39413,2.300327 2.734375,2.582031 0.150791,0.03165 0.390542,0.0414 0.761719,0.0332 0.461798,-0.01019 0.587895,-0.02408 0.847656,-0.09961 0.695182,-0.202142 1.347988,-0.630809 1.791015,-1.175781 0.396699,-0.487981 0.69557,-1.194769 0.75586,-1.783203 l 0.02148,-0.214844 -1.851562,0 -1.851563,0 0,-1.867188 0,-1.86914 z"
       style="fill:#ffffff;fill-opacity:1;stroke:none;stroke-width:0;stroke-linecap:round;stroke-linejoin:bevel;stroke-miterlimit:4;stroke-dasharray:none;stroke-opacity:1" />
  </g>
</svg>
