<svg xmlns="http://www.w3.org/2000/svg" viewBox="0 0 32 32"><defs><linearGradient id="0" x1="451.69" y1="556.79" x2="451.34" y2="528.79" gradientUnits="userSpaceOnUse"><stop stop-color="#d1d7df"/><stop offset="1" stop-color="#e0e5e7"/></linearGradient></defs><g transform="translate(-435.34-526.79)" stroke="#1f2a47"><rect width="22.411" height="29.671" x="440.13" y="527.99" fill="url(#0)" fill-rule="evenodd" stroke="#3d434a" stroke-linecap="round" stroke-width=".3" rx="1"/><g transform="matrix(.3 0 0 .3 328.68 385.66)" stroke="none"><rect y="503.8" x="390.57" height="40" width="36" fill="#3d434a" stroke-width="2.8" rx="2"/><g transform="translate(-.717.017)" fill="#fff" stroke-linejoin="round" stroke-linecap="round" stroke-width="1.026"><rect y="504.89" x="407.36" height="2" width="4" opacity=".929" rx=".889"/><rect y="507.78" x="407.35" height="2" width="4" opacity=".929" rx=".889"/><rect y="510.64" x="407.33" height="2" width="4" opacity=".929" rx=".889"/><rect y="513.62" x="407.37" height="2" width="4" opacity=".929" rx=".889"/><rect y="516.54" x="407.37" height="2" width="4" opacity=".929" rx=".889"/></g><g fill="#fff"><rect y="519.55" x="406.65" height="2" width="4" opacity=".929" stroke-linejoin="round" stroke-linecap="round" stroke-width="1.026" rx=".889"/><path d="m410.12 524.47v-1.262c0-.352-.284-.637-.635-.637h-1.763c-.35 0-.635.285-.635.637v1.261l-.981 2.891c-.274.806-.143 1.701.352 2.395.494.693 1.296 1.106 2.145 1.106.849 0 1.651-.414 2.145-1.106.494-.694.626-1.589.352-2.394zm-.41 4.54c-.509.714-1.704.714-2.213 0-.255-.358-.323-.82-.182-1.236l.329-.97h1.919l.329.97c.141.415.073.877-.182 1.235"/></g></g></g></svg>