<svg xmlns="http://www.w3.org/2000/svg" viewBox="0 0 32 32"><defs><linearGradient id="0" x1="452.11" y1="556.82" x2="451.76" y2="528.82" gradientUnits="userSpaceOnUse"><stop stop-color="#f15f19"/><stop offset="1" stop-color="#fbb521"/></linearGradient></defs><g transform="translate(-435.76-526.83)"><rect width="22.411" height="29.671" x="440.55" y="528.02" fill="url(#0)" fill-rule="evenodd" stroke="#222425" stroke-linecap="round" stroke-width=".3" rx="1"/><g transform="matrix(.2998 0 0 .2998 329.03 385.79)"><path d="m407.44643 503.77261a3.0003 3.0003 0 0 0 -1.70508 5.40234l3.41 2.623h-16.58a3.0003 3.0003 0 1 0 0 6h7.52l-12.283 8.924a3.0003 3.0003 0 1 0 3.52539 4.85351l6.277-4.561a15.999973 15.999973 0 0 0 -.0391 .7832 15.999973 15.999973 0 0 0 16 16 15.999973 15.999973 0 0 0 16 -16 15.999973 15.999973 0 0 0 -6.95508 -13.19727 3.0003 3.0003 0 0 0 -.21679 -.18164l-13-10a3.0003 3.0003 0 0 0 -1.95313 -.64648" fill="#fff"/><circle r="10" cy="527.8" cx="413.57" fill="#f6871d"/><circle r="4" cy="-527.8" cx="-413.57" transform="scale(-1-1)" fill="#fff"/></g></g></svg>