<svg xmlns="http://www.w3.org/2000/svg" viewBox="0 0 32 32"><defs><linearGradient id="0" x1="451.69" y1="556.79" x2="451.34" y2="528.79" gradientUnits="userSpaceOnUse"><stop stop-color="#197cf1"/><stop offset="1" stop-color="#20bcfa"/></linearGradient><linearGradient gradientUnits="userSpaceOnUse" x1="346.57" y1="513.8" x2="361.57" y2="528.8"><stop stop-color="#2e5d89"/><stop offset="1" stop-color="#1b92f4"/></linearGradient></defs><g transform="translate(-435.34-526.79)" stroke="#1f2a47"><rect width="22.411" height="29.671" x="440.13" y="527.99" fill="url(#0)" fill-rule="evenodd" stroke="#0b3969" stroke-linecap="round" stroke-width=".3" rx="1"/><g transform="matrix(.2428 0 0 .2428 339.09 416.1)" stroke="none"><rect y="500.66" x="438.9" height="46.665" width="46.665" fill="#fff" stroke="#fff" stroke-width="3.995" rx="23.333"/><path d="m462.5 500.44c-2.964 0-5.799.563-8.411 1.588 1-.141 2.203-.228 3.644-.228 8.217 0 12.877 3.667 16.264 7.555 2.26 2.595 6.185 10.326 9.1 10.326.848-.075 1.515-.75 2.039-1.783-2.831-10.08-11.893-17.458-22.636-17.458" fill="#1ea8f7"/><path d="m447.84 513.01c7.896 0 21.79 17.291 36.55 19.05.377-1.21.665-2.461.854-3.745-6.711-1.511-15.15-9.604-18.18-12.653-4.743-4.767-9.17-9.551-15.243-9.551-2.072 0-3.974.369-5.62.88-3.048 2.939-5.335 6.711-6.52 10.965 2.436-2.517 5.22-4.943 8.16-4.943" fill="#1da3f6"/><path d="m358692.37 157585.85c-89517.76 0-157157.12-48501.42-181206.69-48501.42-9806.87 0-15465.19 6884.85-18729.25 15038.46 15450.51 32921.89 42088.06 59495.99 74990.51 74776.13-4638.89-11978.68-7436.64-27830.76 10263.82-27830.76 15642.89 0 31231 13537.44 88960.61 13537.44 26359.63 0 50636.33-5526.15 68485.1-11126.13 9448.8-8525.53 17848.78-18201.65 24972.78-28814.89-17051.12 6100.77-41883.61 12921.17-67736.88 12921.17" fill-rule="evenodd" transform="matrix(.00015 0 0 .00016 416.46 514.64)" fill="#1b92f4"/></g></g></svg>