<svg xmlns="http://www.w3.org/2000/svg" viewBox="0 0 32 32"><defs><linearGradient id="0" x1="451.69" y1="556.79" x2="451.34" y2="528.79" gradientUnits="userSpaceOnUse"><stop stop-color="#1c99f5"/><stop offset="1" stop-color="#20b9fa"/></linearGradient></defs><g transform="translate(-435.34-526.79)" stroke="#1f2a47"><rect width="22.411" height="29.671" x="440.13" y="527.99" fill="url(#0)" fill-rule="evenodd" stroke="#0c416a" stroke-linecap="round" stroke-width=".3" rx="1"/><g transform="matrix(.54545 0 0 .54545 439.41 526.93)" fill="#fff" stroke="none"><g transform="matrix(0 .86557-.86557 0 908.75 10.18)" fill-rule="evenodd"><path d="m11.447 1036.94h11.637v-24.498h-11.533c-1.268-.094-1.783.023-1.783 1.172v22.09c-.08 1.261.446 1.234 1.679 1.234" fill="#fff"/><path d="m33.844 1036.94h-5.282l-2.708-2.274v-19.951l1.856-2.274h6.135c.848-.094.917.023.917 1.172v22.09c.053 1.261-.092 1.234-.917 1.234z" fill="none" stroke="#fff" stroke-width=".812"/><path d="m31.842 1038.1l-10.03-1.171v-24.486l9.946-.932c1.23-.094 1.296.245 1.296 1.394l-.084 23.369c.077 1.261.067 1.828-1.129 1.828" fill="#fff"/></g><g fill="#1ea8f7" transform="matrix(.75387 0 0 .75387-304.18-389.12)" stroke-width=".3"><path d="m431.48 560.29l-7.139.032-.007-1.539q3.195-3.31 4.092-4.318.798-.924 1.075-1.393.276-.486.273-1.189-.003-.719-.562-1.269-.559-.55-1.492-.545-.851.004-1.373.525-.522.504-.667 1.09l-1.378-.563q.275-.905 1.155-1.712.881-.807 2.289-.813 1.556-.007 2.559.959 1 .966 1.01 2.321.007 1.673-1.77 3.588l-3.261 3.377 5.191-.023.006 1.472"/><path d="m436.45 560.53q-1.13.005-2.197-.71-1.067-.715-1.483-2.135l1.373-.592q.266.936.874 1.452.608.516 1.427.512.917-.004 1.569-.593.669-.589.665-1.459-.004-.853-.694-1.436-.674-.583-1.624-.578l-.966.004-.006-1.439.851-.004q.884-.004 1.455-.508.587-.505.584-1.341-.003-.786-.578-1.236-.559-.449-1.394-.446-1.441.006-1.942 1.498l-1.394-.596q.324-.922 1.156-1.645.832-.723 2.175-.729 1.506-.007 2.509.892 1 .882 1.01 2.254.007 1.656-1.496 2.466v.067q.82.348 1.347 1.065.543.717.548 1.704.007 1.522-1.086 2.531-1.093.992-2.681.999"/></g></g></g></svg>