<svg xmlns="http://www.w3.org/2000/svg" viewBox="0 0 32 32"><defs><linearGradient id="0" x1="451.69" y1="556.79" x2="451.34" y2="528.79" gradientUnits="userSpaceOnUse"><stop stop-color="#8798a9"/><stop offset="1" stop-color="#aeb6be"/></linearGradient></defs><g transform="translate(-435.34-526.79)" stroke="#1f2a47"><rect width="22.411" height="29.671" x="440.13" y="527.99" fill="url(#0)" fill-rule="evenodd" stroke="#373e44" stroke-linecap="round" stroke-width=".3" rx="1"/><path d="m437.94 544.37c-.498.14-.899.696-.899 1.236v8.563c-.505-.277-1.154-.389-1.827-.206-1.214.33-1.974 1.398-1.714 2.383.26.986 1.456 1.537 2.67 1.206.968-.263 1.636-1.01 1.742-1.795l.028-8.092 6.295-1.766v6.385c-.505-.277-1.154-.389-1.827-.206-1.214.33-1.974 1.398-1.714 2.383.26.986 1.456 1.537 2.67 1.206.968-.263 1.636-1.01 1.742-1.795l.028-10.534c0-.405-.239-.708-.562-.765l-6.632 1.795" transform="matrix(.79608 0 0 .79608 100.7 105.03)" stroke="none" fill="#373e44"/></g></svg>