<?xml version="1.0" encoding="UTF-8" standalone="no"?>
<svg
   xmlns:dc="http://purl.org/dc/elements/1.1/"
   xmlns:cc="http://creativecommons.org/ns#"
   xmlns:rdf="http://www.w3.org/1999/02/22-rdf-syntax-ns#"
   xmlns:svg="http://www.w3.org/2000/svg"
   xmlns="http://www.w3.org/2000/svg"
   xmlns:xlink="http://www.w3.org/1999/xlink"
   xmlns:sodipodi="http://sodipodi.sourceforge.net/DTD/sodipodi-0.dtd"
   xmlns:inkscape="http://www.inkscape.org/namespaces/inkscape"
   width="32"
   height="32"
   id="svg2"
   version="1.1"
   inkscape:version="0.91 r13725"
   sodipodi:docname="image-x-vnd.trolltech.qpicture.svg">
  <metadata
     id="metadata43">
    <rdf:RDF>
      <cc:Work
         rdf:about="">
        <dc:format>image/svg+xml</dc:format>
        <dc:type
           rdf:resource="http://purl.org/dc/dcmitype/StillImage" />
      </cc:Work>
    </rdf:RDF>
  </metadata>
  <sodipodi:namedview
     pagecolor="#ffffff"
     bordercolor="#666666"
     borderopacity="1"
     objecttolerance="10"
     gridtolerance="10"
     guidetolerance="10"
     inkscape:pageopacity="0"
     inkscape:pageshadow="2"
     inkscape:window-width="1920"
     inkscape:window-height="1055"
     id="namedview41"
     showgrid="false"
     inkscape:zoom="7.375"
     inkscape:cx="0.90753563"
     inkscape:cy="7.7788146"
     inkscape:window-x="0"
     inkscape:window-y="0"
     inkscape:window-maximized="1"
     inkscape:current-layer="svg2" />
  <defs
     id="defs4">
    <linearGradient
       id="a"
       y1="392.36"
       y2="365.36"
       x2="0"
       gradientUnits="userSpaceOnUse"
       gradientTransform="translate(309.57 152.44)">
      <stop
         stop-color="#ffffff"
         stop-opacity="0"
         id="stop7" />
      <stop
         offset="1"
         stop-color="#ffffff"
         stop-opacity=".2"
         id="stop9" />
    </linearGradient>
    <linearGradient
       id="b"
       y1="17"
       y2="24"
       x1="47"
       x2="54"
       gradientUnits="userSpaceOnUse"
       gradientTransform="translate(357.57 507.8)">
      <stop
         stop-color="#060606"
         id="stop12" />
      <stop
         offset="1"
         stop-opacity="0"
         id="stop14" />
    </linearGradient>
    <path
       id="c"
       d="m389.57 545.8v-28h15l7 7v21h-14z" />
    <inkscape:path-effect
       effect="spiro"
       id="path-effect4718"
       is_visible="true" />
    <inkscape:path-effect
       effect="spiro"
       id="path-effect4642"
       is_visible="true" />
    <inkscape:path-effect
       is_visible="true"
       id="path-effect4628"
       effect="spiro" />
    <inkscape:path-effect
       is_visible="true"
       id="path-effect4624"
       effect="spiro" />
    <inkscape:path-effect
       is_visible="true"
       id="path-effect4620"
       effect="spiro" />
    <inkscape:path-effect
       is_visible="true"
       id="path-effect4616"
       effect="spiro" />
    <inkscape:path-effect
       is_visible="true"
       id="path-effect4608"
       effect="spiro" />
    <inkscape:path-effect
       is_visible="true"
       id="path-effect4604"
       effect="spiro" />
    <inkscape:path-effect
       is_visible="true"
       id="path-effect4593"
       effect="spiro" />
    <inkscape:path-effect
       is_visible="true"
       id="path-effect4578"
       effect="spiro" />
    <inkscape:path-effect
       is_visible="true"
       id="path-effect4555"
       effect="spiro" />
    <inkscape:path-effect
       is_visible="true"
       id="path-effect4429"
       effect="spiro" />
    <inkscape:path-effect
       is_visible="true"
       id="path-effect4395"
       effect="spiro" />
    <linearGradient
       x2="11.786"
       gradientUnits="userSpaceOnUse"
       y2="11.998"
       x1="34.5"
       y1="32.998"
       id="a-6">
      <stop
         id="stop2"
         stop-color="#dd1627" />
      <stop
         id="stop4"
         stop-color="#df3e52"
         offset="1" />
    </linearGradient>
    <linearGradient
       gradientTransform="translate(-52)"
       gradientUnits="userSpaceOnUse"
       x2="73.03"
       y2="35.663"
       x1="46.23"
       y1="10.38"
       id="b-75">
      <stop
         id="stop7-35"
         stop-opacity=".731"
         stop-color="#f8bac0" />
      <stop
         id="stop9-6"
         stop-opacity="0"
         stop-color="#f8bac0"
         offset="1" />
    </linearGradient>
    <path
       d="m.735 43.06l23.265-42.35 23.09 42.31c0 0-2.212-.155-5.272-.291-2.851-.127-1.794.114-8.278-1.089-4.911-.91-8.522-2.865-15.253-2.727-7.453.153-17.549 4.149-17.549 4.149"
       id="c-29127" />
    <linearGradient
       id="linearGradient4222">
      <stop
         offset="0"
         style="stop-color:#0166d0;stop-opacity:1"
         id="stop2-35" />
      <stop
         offset="1"
         style="stop-color:#51a6ff;stop-opacity:1"
         id="stop4-62" />
    </linearGradient>
    <linearGradient
       id="linearGradient4198">
      <stop
         style="stop-color:#208dff;stop-opacity:1"
         offset="0"
         id="stop7-9" />
      <stop
         style="stop-color:#51a6ff;stop-opacity:1"
         offset="1"
         id="stop9-1" />
    </linearGradient>
    <linearGradient
       xlink:href="#linearGradient4222"
       id="linearGradient4204"
       x1="402.571"
       y1="543.798"
       x2="402.571"
       y2="519.798"
       gradientUnits="userSpaceOnUse"
       gradientTransform="matrix(0.78135593,0,0,0.78135593,-346.93123,-382.93369)" />
    <linearGradient
       xlink:href="#linearGradient4198"
       id="linearGradient4212"
       x1="414.571"
       y1="543.798"
       x2="414.571"
       y2="519.798"
       gradientUnits="userSpaceOnUse"
       gradientTransform="matrix(0.78135593,0,0,0.78135593,-346.93123,-382.93369)" />
    <linearGradient
       xlink:href="#linearGradient4198"
       id="linearGradient4220"
       x1="24"
       y1="35"
       x2="24"
       y2="4"
       gradientUnits="userSpaceOnUse"
       gradientTransform="matrix(1,0,0,0.99924452,384.57143,499.82444)" />
    <linearGradient
       xlink:href="#linearGradient4227"
       id="linearGradient4244"
       x1="12"
       y1="21"
       x2="29"
       y2="38"
       gradientUnits="userSpaceOnUse" />
    <linearGradient
       id="linearGradient4227">
      <stop
         offset="0"
         style="stop-color:#292c2f;stop-opacity:1"
         id="stop16" />
      <stop
         offset="1"
         style="stop-color:#000000;stop-opacity:0;"
         id="stop18" />
    </linearGradient>
    <linearGradient
       inkscape:collect="always"
       id="linearGradient4532">
      <stop
         style="stop-color:#000000;stop-opacity:1;"
         offset="0"
         id="stop4528" />
      <stop
         style="stop-color:#000000;stop-opacity:0;"
         offset="1"
         id="stop4530" />
    </linearGradient>
    <linearGradient
       id="linearGradient4454">
      <stop
         id="stop7-36"
         offset="0"
         style="stop-color:#d21e1e;stop-opacity:1" />
      <stop
         id="stop9-75"
         offset="1"
         style="stop-color:#e05e4c;stop-opacity:1" />
    </linearGradient>
    <linearGradient
       gradientTransform="translate(-384.57001,-499.79999)"
       gradientUnits="userSpaceOnUse"
       y2="525.725"
       x2="391.89"
       y1="544.092"
       x1="403.421"
       id="linearGradient4213"
       xlink:href="#linearGradient4454" />
    <linearGradient
       id="linearGradient4472">
      <stop
         id="stop13"
         offset="0"
         style="stop-color:#ffa92d;stop-opacity:1" />
      <stop
         id="stop15"
         offset="1"
         style="stop-color:#ffc169;stop-opacity:1" />
    </linearGradient>
    <linearGradient
       gradientTransform="translate(-384.57001,-499.79999)"
       gradientUnits="userSpaceOnUse"
       y2="505.319"
       x2="391.154"
       y1="523.203"
       x1="401.296"
       id="linearGradient4235"
       xlink:href="#linearGradient4472" />
    <linearGradient
       id="linearGradient4422-8">
      <stop
         id="stop19"
         offset="0"
         style="stop-color:#377d50;stop-opacity:1" />
      <stop
         id="stop21"
         offset="1"
         style="stop-color:#54d883;stop-opacity:1" />
    </linearGradient>
    <linearGradient
       gradientTransform="translate(-384.57001,-499.79999)"
       gradientUnits="userSpaceOnUse"
       y2="503.798"
       x2="413.779"
       y1="523.798"
       x1="424.602"
       id="linearGradient4257"
       xlink:href="#linearGradient4422-8" />
    <linearGradient
       id="linearGradient4438">
      <stop
         id="stop25"
         offset="0"
         style="stop-color:#375a7d;stop-opacity:1" />
      <stop
         id="stop27"
         offset="1"
         style="stop-color:#54a3d8;stop-opacity:1" />
    </linearGradient>
    <linearGradient
       gradientTransform="translate(-384.57001,-499.79999)"
       gradientUnits="userSpaceOnUse"
       y2="525.748"
       x2="412.118"
       y1="543.488"
       x1="420.884"
       id="linearGradient4279"
       xlink:href="#linearGradient4438" />
    <linearGradient
       gradientTransform="translate(0.00142264,-0.00198746)"
       gradientUnits="userSpaceOnUse"
       y2="44"
       x2="44"
       y1="4"
       x1="4"
       id="linearGradient4220-3"
       xlink:href="#linearGradient4532" />
    <linearGradient
       id="a-2"
       y1="4"
       x1="24"
       y2="44"
       x2="4"
       gradientUnits="userSpaceOnUse">
      <stop
         stop-color="#197cf1"
         id="stop2-367" />
      <stop
         offset="1"
         stop-color="#20bcfa"
         id="stop4-5" />
    </linearGradient>
    <linearGradient
       id="b-7"
       y1="44"
       x1="44"
       y2="4"
       x2="24"
       gradientUnits="userSpaceOnUse">
      <stop
         stop-color="#c61423"
         id="stop7-3" />
      <stop
         offset="1"
         stop-color="#dc2b41"
         id="stop9-56" />
    </linearGradient>
    <linearGradient
       id="c-0"
       x1="44"
       x2="4"
       gradientUnits="userSpaceOnUse">
      <stop
         stop-color="#42a603"
         id="stop12-0" />
      <stop
         offset="1"
         stop-color="#78da06"
         id="stop14-9" />
    </linearGradient>
    <linearGradient
       id="d"
       y1="522.8"
       y2="538.8"
       x1="400.57"
       gradientUnits="userSpaceOnUse"
       x2="416.57">
      <stop
         stop-color="#292c2f"
         id="stop17" />
      <stop
         offset="1"
         stop-opacity="0"
         id="stop19-29" />
    </linearGradient>
    <linearGradient
       gradientTransform="matrix(.70711.70711-.70711.70711 105.4-635.69)"
       x2="378.58"
       gradientUnits="userSpaceOnUse"
       y2="523.86"
       x1="430.51"
       y1="522.99"
       id="b-3">
      <stop
         id="stop7-67"
         stop-color="#fcfcfc" />
      <stop
         id="stop9-53"
         stop-color="#e9eaeb"
         offset="1" />
    </linearGradient>
    <linearGradient
       gradientTransform="translate(45.719-.92)"
       x2="3.614"
       gradientUnits="userSpaceOnUse"
       y2="49.804"
       x1="-28.649"
       y1="19.869"
       id="c-5">
      <stop
         id="stop12-6" />
      <stop
         id="stop14-2"
         stop-opacity="0"
         offset="1" />
    </linearGradient>
    <linearGradient
       gradientTransform="matrix(.70711.70711-.70711.70711 105.48-635.28)"
       x2="402.03"
       gradientUnits="userSpaceOnUse"
       y2="523.7"
       x1="388.34"
       y1="522.18"
       id="d-9">
      <stop
         id="stop17-1"
         stop-color="#ffffff" />
      <stop
         id="stop19-2"
         stop-color="#eff0f1"
         offset="1" />
    </linearGradient>
    <linearGradient
       gradientTransform="matrix(.70711.70711-.70711.70711 105.48-635.28)"
       x2="425.86"
       gradientUnits="userSpaceOnUse"
       y2="527.34"
       x1="422.48"
       y1="527.21"
       id="e">
      <stop
         id="stop22"
         stop-color="#f9f9f9" />
      <stop
         id="stop24"
         stop-color="#f6f6f6"
         offset="1" />
    </linearGradient>
    <linearGradient
       gradientUnits="userSpaceOnUse"
       x2="23.912"
       y2="24.326"
       x1="9.642"
       y1="8.627"
       id="f">
      <stop
         id="stop27-1"
         stop-color="#491309" />
      <stop
         id="stop29"
         stop-color="#b6642d"
         offset="1" />
    </linearGradient>
    <linearGradient
       gradientUnits="userSpaceOnUse"
       x2="33.609"
       y2="34.953"
       x1="32.641"
       y1="33.922"
       id="h">
      <stop
         id="stop37"
         stop-color="#cfcfcf" />
      <stop
         id="stop39"
         stop-opacity="0"
         stop-color="#ededed"
         offset="1" />
    </linearGradient>
    <linearGradient
       gradientTransform="matrix(.70711.70711-.70711.70711 105.48-635.28)"
       x2="409.82"
       gradientUnits="userSpaceOnUse"
       y2="523.27"
       x1="385.61"
       y1="522.24"
       id="o">
      <stop
         id="stop62"
         stop-color="#ffffff" />
      <stop
         id="stop64"
         stop-color="#dfe1e3"
         offset="1" />
    </linearGradient>
    <path
       d="M25 15A9 9 0 1 1 7 15 9 9 0 1 1 25 15"
       color="#000000"
       id="p" />
    <linearGradient
       xlink:href="#linearGradient4299"
       id="linearGradient4415"
       x1="408.571"
       y1="543.773"
       x2="408.632"
       y2="503.67"
       gradientUnits="userSpaceOnUse" />
    <linearGradient
       id="linearGradient4227-5">
      <stop
         offset="0"
         style="stop-color:#2e3436;stop-opacity:1"
         id="stop8" />
      <stop
         offset="1"
         style="stop-color:#555753;stop-opacity:1"
         id="stop10" />
    </linearGradient>
    <linearGradient
       xlink:href="#linearGradient4227-5"
       id="linearGradient4437"
       x1="408.571"
       y1="535.199"
       x2="408.571"
       y2="512.397"
       gradientUnits="userSpaceOnUse"
       gradientTransform="matrix(0.96481792,0,0,0.96481792,14.374377,18.428304)" />
    <linearGradient
       id="linearGradient4299">
      <stop
         offset="0"
         style="stop-color:#1064d3;stop-opacity:1"
         id="stop14-3" />
      <stop
         offset="1"
         style="stop-color:#14c6fd;stop-opacity:1"
         id="stop16-6" />
    </linearGradient>
    <linearGradient
       xlink:href="#linearGradient4532"
       id="linearGradient4392"
       x1="9.077"
       y1="9.083"
       x2="42.946"
       y2="42.953"
       gradientUnits="userSpaceOnUse" />
    <linearGradient
       id="linearGradient4258">
      <stop
         id="stop2-36"
         offset="0"
         style="stop-color:#000019;stop-opacity:1" />
      <stop
         id="stop4-7"
         offset="1"
         style="stop-color:#000019;stop-opacity:0.29064038" />
    </linearGradient>
    <linearGradient
       id="linearGradient4223">
      <stop
         id="stop7-6"
         offset="0"
         style="stop-color:#c6cdd1;stop-opacity:1" />
      <stop
         id="stop9-7"
         offset="1"
         style="stop-color:#e0e5e7;stop-opacity:1" />
    </linearGradient>
    <linearGradient
       id="linearGradient4217">
      <stop
         id="stop12-5"
         style="stop-color:#1f93b9;stop-opacity:1"
         offset="0" />
      <stop
         id="stop14-5"
         style="stop-color:#1a5c9b;stop-opacity:1"
         offset="1" />
    </linearGradient>
    <linearGradient
       id="linearGradient4191">
      <stop
         id="stop17-3"
         offset="0"
         style="stop-color:#dc2b41;stop-opacity:1" />
      <stop
         id="stop19-5"
         offset="1"
         style="stop-color:#c61423;stop-opacity:1" />
    </linearGradient>
    <linearGradient
       gradientTransform="translate(-50.199325,-1.1505466)"
       gradientUnits="userSpaceOnUse"
       y2="29"
       x2="24"
       y1="7"
       x1="24"
       id="linearGradient4197"
       xlink:href="#linearGradient4217" />
    <linearGradient
       gradientTransform="translate(-50.199325,0.84945337)"
       gradientUnits="userSpaceOnUse"
       y2="41"
       x2="24"
       y1="30"
       x1="24"
       id="linearGradient4207"
       xlink:href="#linearGradient4191" />
    <linearGradient
       gradientTransform="translate(-51.199325,0.84945337)"
       gradientUnits="userSpaceOnUse"
       y2="41"
       x2="11"
       y1="30"
       x1="11"
       id="linearGradient4215"
       xlink:href="#linearGradient4191" />
    <linearGradient
       gradientTransform="translate(-51.199325,-1.1505466)"
       gradientUnits="userSpaceOnUse"
       y2="4"
       x2="29"
       y1="44"
       x1="29"
       id="linearGradient4229"
       xlink:href="#linearGradient4223" />
    <radialGradient
       gradientTransform="translate(-51.199325,-1.1505466)"
       gradientUnits="userSpaceOnUse"
       r="19"
       fy="24"
       fx="24"
       cy="24"
       cx="24"
       id="radialGradient4264"
       xlink:href="#linearGradient4258" />
    <path
       id="c-2"
       d="m.735 43.06l23.265-42.35 23.09 42.31c0 0-2.212-.155-5.272-.291-2.851-.127-1.794.114-8.278-1.089-4.911-.91-8.522-2.865-15.253-2.727-7.453.153-17.549 4.149-17.549 4.149" />
    <path
       id="c-29"
       d="m.735 43.06l23.265-42.35 23.09 42.31c0 0-2.212-.155-5.272-.291-2.851-.127-1.794.114-8.278-1.089-4.911-.91-8.522-2.865-15.253-2.727-7.453.153-17.549 4.149-17.549 4.149" />
    <linearGradient
       gradientUnits="userSpaceOnUse"
       x2="4"
       x1="44"
       id="c-0-5">
      <stop
         id="stop12-9"
         stop-color="#42a603" />
      <stop
         id="stop14-22"
         stop-color="#78da06"
         offset="1" />
    </linearGradient>
    <path
       id="p-0"
       color="#000000"
       d="M25 15A9 9 0 1 1 7 15 9 9 0 1 1 25 15" />
    <radialGradient
       xlink:href="#linearGradient4258"
       id="radialGradient4264-4"
       cx="24"
       cy="24"
       fx="24"
       fy="24"
       r="19"
       gradientUnits="userSpaceOnUse"
       gradientTransform="translate(-51.199325,-1.1505466)" />
    <path
       d="m.735 43.06l23.265-42.35 23.09 42.31c0 0-2.212-.155-5.272-.291-2.851-.127-1.794.114-8.278-1.089-4.911-.91-8.522-2.865-15.253-2.727-7.453.153-17.549 4.149-17.549 4.149"
       id="c-2-7" />
    <path
       id="c-2912"
       d="m.735 43.06l23.265-42.35 23.09 42.31c0 0-2.212-.155-5.272-.291-2.851-.127-1.794.114-8.278-1.089-4.911-.91-8.522-2.865-15.253-2.727-7.453.153-17.549 4.149-17.549 4.149" />
    <linearGradient
       gradientUnits="userSpaceOnUse"
       x2="4"
       x1="44"
       id="c-0-8">
      <stop
         id="stop12-97"
         stop-color="#42a603" />
      <stop
         id="stop14-36"
         stop-color="#78da06"
         offset="1" />
    </linearGradient>
    <path
       id="p-32"
       color="#000000"
       d="M25 15A9 9 0 1 1 7 15 9 9 0 1 1 25 15" />
    <radialGradient
       xlink:href="#linearGradient4258"
       id="radialGradient4264-74"
       cx="24"
       cy="24"
       fx="24"
       fy="24"
       r="19"
       gradientUnits="userSpaceOnUse"
       gradientTransform="translate(-51.199325,-1.1505466)" />
    <path
       d="m.735 43.06l23.265-42.35 23.09 42.31c0 0-2.212-.155-5.272-.291-2.851-.127-1.794.114-8.278-1.089-4.911-.91-8.522-2.865-15.253-2.727-7.453.153-17.549 4.149-17.549 4.149"
       id="c-2-5" />
    <path
       d="m.735 43.06l23.265-42.35 23.09 42.31c0 0-2.212-.155-5.272-.291-2.851-.127-1.794.114-8.278-1.089-4.911-.91-8.522-2.865-15.253-2.727-7.453.153-17.549 4.149-17.549 4.149"
       id="c-291" />
    <linearGradient
       id="c-0-9"
       x1="44"
       x2="4"
       gradientUnits="userSpaceOnUse">
      <stop
         stop-color="#42a603"
         id="stop12-2" />
      <stop
         offset="1"
         stop-color="#78da06"
         id="stop14-28" />
    </linearGradient>
    <path
       d="M25 15A9 9 0 1 1 7 15 9 9 0 1 1 25 15"
       color="#000000"
       id="p-3" />
    <radialGradient
       gradientTransform="translate(-51.199325,-1.1505466)"
       gradientUnits="userSpaceOnUse"
       r="19"
       fy="24"
       fx="24"
       cy="24"
       cx="24"
       id="radialGradient4264-7"
       xlink:href="#linearGradient4258" />
    <path
       id="c-2-6"
       d="m.735 43.06l23.265-42.35 23.09 42.31c0 0-2.212-.155-5.272-.291-2.851-.127-1.794.114-8.278-1.089-4.911-.91-8.522-2.865-15.253-2.727-7.453.153-17.549 4.149-17.549 4.149" />
    <path
       id="c-29-2"
       d="m.735 43.06l23.265-42.35 23.09 42.31c0 0-2.212-.155-5.272-.291-2.851-.127-1.794.114-8.278-1.089-4.911-.91-8.522-2.865-15.253-2.727-7.453.153-17.549 4.149-17.549 4.149" />
    <linearGradient
       gradientUnits="userSpaceOnUse"
       x2="4"
       x1="44"
       id="c-0-5-4">
      <stop
         id="stop12-9-4"
         stop-color="#42a603" />
      <stop
         id="stop14-22-3"
         stop-color="#78da06"
         offset="1" />
    </linearGradient>
    <path
       id="p-0-0"
       color="#000000"
       d="M25 15A9 9 0 1 1 7 15 9 9 0 1 1 25 15" />
    <radialGradient
       xlink:href="#linearGradient4258"
       id="radialGradient4264-4-7"
       cx="24"
       cy="24"
       fx="24"
       fy="24"
       r="19"
       gradientUnits="userSpaceOnUse"
       gradientTransform="translate(-51.199325,-1.1505466)" />
    <path
       d="m.735 43.06l23.265-42.35 23.09 42.31c0 0-2.212-.155-5.272-.291-2.851-.127-1.794.114-8.278-1.089-4.911-.91-8.522-2.865-15.253-2.727-7.453.153-17.549 4.149-17.549 4.149"
       id="c-2-7-8" />
    <path
       id="c-3"
       d="m.735 43.06l23.265-42.35 23.09 42.31c0 0-2.212-.155-5.272-.291-2.851-.127-1.794.114-8.278-1.089-4.911-.91-8.522-2.865-15.253-2.727-7.453.153-17.549 4.149-17.549 4.149" />
    <linearGradient
       gradientUnits="userSpaceOnUse"
       x2="4"
       x1="44"
       id="c-0-2">
      <stop
         id="stop12-3"
         stop-color="#42a603" />
      <stop
         id="stop14-7"
         stop-color="#78da06"
         offset="1" />
    </linearGradient>
    <path
       id="p-7"
       color="#000000"
       d="M25 15A9 9 0 1 1 7 15 9 9 0 1 1 25 15" />
    <radialGradient
       xlink:href="#linearGradient4258"
       id="radialGradient4264-6"
       cx="24"
       cy="24"
       fx="24"
       fy="24"
       r="19"
       gradientUnits="userSpaceOnUse"
       gradientTransform="translate(-51.199325,-1.1505466)" />
    <path
       d="m.735 43.06l23.265-42.35 23.09 42.31c0 0-2.212-.155-5.272-.291-2.851-.127-1.794.114-8.278-1.089-4.911-.91-8.522-2.865-15.253-2.727-7.453.153-17.549 4.149-17.549 4.149"
       id="c-2-1" />
    <inkscape:path-effect
       is_visible="true"
       id="path-effect4429-5"
       effect="spiro" />
    <inkscape:path-effect
       is_visible="true"
       id="path-effect4429-5-9"
       effect="spiro" />
    <inkscape:path-effect
       is_visible="true"
       id="path-effect4429-0"
       effect="spiro" />
    <inkscape:path-effect
       is_visible="true"
       id="path-effect4555-0"
       effect="spiro" />
    <linearGradient
       id="a-3"
       y1="392.36"
       y2="365.36"
       x2="0"
       gradientUnits="userSpaceOnUse"
       gradientTransform="translate(309.57,152.44)">
      <stop
         stop-color="#ffffff"
         stop-opacity="0"
         id="stop4408" />
      <stop
         offset="1"
         stop-color="#ffffff"
         stop-opacity=".2"
         id="stop4410" />
    </linearGradient>
    <path
       id="c-7"
       d="m389.57 545.8v-28h15l7 7v21h-14z" />
    <linearGradient
       id="a-5"
       y1="392.36"
       y2="365.36"
       x2="0"
       gradientUnits="userSpaceOnUse"
       gradientTransform="translate(309.57,152.44)">
      <stop
         stop-color="#ffffff"
         stop-opacity="0"
         id="stop4470" />
      <stop
         offset="1"
         stop-color="#ffffff"
         stop-opacity=".2"
         id="stop4472" />
    </linearGradient>
    <path
       id="c-6"
       d="m389.57 545.8v-28h15l7 7v21h-14z" />
    <inkscape:path-effect
       effect="spiro"
       id="path-effect4555-53"
       is_visible="true" />
    <inkscape:path-effect
       effect="spiro"
       id="path-effect4429-56"
       is_visible="true" />
    <inkscape:path-effect
       effect="spiro"
       id="path-effect4395-2"
       is_visible="true" />
    <path
       id="c-9"
       d="m.735 43.06l23.265-42.35 23.09 42.31c0 0-2.212-.155-5.272-.291-2.851-.127-1.794.114-8.278-1.089-4.911-.91-8.522-2.865-15.253-2.727-7.453.153-17.549 4.149-17.549 4.149" />
    <linearGradient
       gradientUnits="userSpaceOnUse"
       x2="4"
       x1="44"
       id="c-0-7">
      <stop
         id="stop12-36"
         stop-color="#42a603" />
      <stop
         id="stop14-1"
         stop-color="#78da06"
         offset="1" />
    </linearGradient>
    <path
       id="p-3206"
       color="#000000"
       d="M25 15A9 9 0 1 1 7 15 9 9 0 1 1 25 15" />
    <radialGradient
       xlink:href="#linearGradient4258"
       id="radialGradient4264-5"
       cx="24"
       cy="24"
       fx="24"
       fy="24"
       r="19"
       gradientUnits="userSpaceOnUse"
       gradientTransform="translate(-51.199325,-1.1505466)" />
    <path
       d="m.735 43.06l23.265-42.35 23.09 42.31c0 0-2.212-.155-5.272-.291-2.851-.127-1.794.114-8.278-1.089-4.911-.91-8.522-2.865-15.253-2.727-7.453.153-17.549 4.149-17.549 4.149"
       id="c-2-25" />
    <path
       d="m.735 43.06l23.265-42.35 23.09 42.31c0 0-2.212-.155-5.272-.291-2.851-.127-1.794.114-8.278-1.089-4.911-.91-8.522-2.865-15.253-2.727-7.453.153-17.549 4.149-17.549 4.149"
       id="c-29-4" />
    <linearGradient
       id="c-0-5-7"
       x1="44"
       x2="4"
       gradientUnits="userSpaceOnUse">
      <stop
         stop-color="#42a603"
         id="stop12-9-443" />
      <stop
         offset="1"
         stop-color="#78da06"
         id="stop14-22-0" />
    </linearGradient>
    <path
       d="M25 15A9 9 0 1 1 7 15 9 9 0 1 1 25 15"
       color="#000000"
       id="p-0-78" />
    <radialGradient
       gradientTransform="translate(-51.199325,-1.1505466)"
       gradientUnits="userSpaceOnUse"
       r="19"
       fy="24"
       fx="24"
       cy="24"
       cx="24"
       id="radialGradient4264-4-6"
       xlink:href="#linearGradient4258" />
    <path
       id="c-2-7-88"
       d="m.735 43.06l23.265-42.35 23.09 42.31c0 0-2.212-.155-5.272-.291-2.851-.127-1.794.114-8.278-1.089-4.911-.91-8.522-2.865-15.253-2.727-7.453.153-17.549 4.149-17.549 4.149" />
    <path
       d="m.735 43.06l23.265-42.35 23.09 42.31c0 0-2.212-.155-5.272-.291-2.851-.127-1.794.114-8.278-1.089-4.911-.91-8.522-2.865-15.253-2.727-7.453.153-17.549 4.149-17.549 4.149"
       id="c-2912-4" />
    <linearGradient
       id="c-0-8-3"
       x1="44"
       x2="4"
       gradientUnits="userSpaceOnUse">
      <stop
         stop-color="#42a603"
         id="stop12-97-1" />
      <stop
         offset="1"
         stop-color="#78da06"
         id="stop14-36-4" />
    </linearGradient>
    <path
       d="M25 15A9 9 0 1 1 7 15 9 9 0 1 1 25 15"
       color="#000000"
       id="p-32-9" />
    <radialGradient
       gradientTransform="translate(-51.199325,-1.1505466)"
       gradientUnits="userSpaceOnUse"
       r="19"
       fy="24"
       fx="24"
       cy="24"
       cx="24"
       id="radialGradient4264-74-2"
       xlink:href="#linearGradient4258" />
    <path
       id="c-2-5-0"
       d="m.735 43.06l23.265-42.35 23.09 42.31c0 0-2.212-.155-5.272-.291-2.851-.127-1.794.114-8.278-1.089-4.911-.91-8.522-2.865-15.253-2.727-7.453.153-17.549 4.149-17.549 4.149" />
    <path
       id="c-291-6"
       d="m.735 43.06l23.265-42.35 23.09 42.31c0 0-2.212-.155-5.272-.291-2.851-.127-1.794.114-8.278-1.089-4.911-.91-8.522-2.865-15.253-2.727-7.453.153-17.549 4.149-17.549 4.149" />
    <linearGradient
       gradientUnits="userSpaceOnUse"
       x2="4"
       x1="44"
       id="c-0-9-8">
      <stop
         id="stop12-2-9"
         stop-color="#42a603" />
      <stop
         id="stop14-28-2"
         stop-color="#78da06"
         offset="1" />
    </linearGradient>
    <path
       id="p-3-6"
       color="#000000"
       d="M25 15A9 9 0 1 1 7 15 9 9 0 1 1 25 15" />
    <radialGradient
       xlink:href="#linearGradient4258"
       id="radialGradient4264-7-6"
       cx="24"
       cy="24"
       fx="24"
       fy="24"
       r="19"
       gradientUnits="userSpaceOnUse"
       gradientTransform="translate(-51.199325,-1.1505466)" />
    <path
       d="m.735 43.06l23.265-42.35 23.09 42.31c0 0-2.212-.155-5.272-.291-2.851-.127-1.794.114-8.278-1.089-4.911-.91-8.522-2.865-15.253-2.727-7.453.153-17.549 4.149-17.549 4.149"
       id="c-2-6-4" />
    <path
       d="m.735 43.06l23.265-42.35 23.09 42.31c0 0-2.212-.155-5.272-.291-2.851-.127-1.794.114-8.278-1.089-4.911-.91-8.522-2.865-15.253-2.727-7.453.153-17.549 4.149-17.549 4.149"
       id="c-29-2-9" />
    <linearGradient
       id="c-0-5-4-5"
       x1="44"
       x2="4"
       gradientUnits="userSpaceOnUse">
      <stop
         stop-color="#42a603"
         id="stop12-9-4-0" />
      <stop
         offset="1"
         stop-color="#78da06"
         id="stop14-22-3-4" />
    </linearGradient>
    <path
       d="M25 15A9 9 0 1 1 7 15 9 9 0 1 1 25 15"
       color="#000000"
       id="p-0-0-8" />
    <radialGradient
       gradientTransform="translate(-51.199325,-1.1505466)"
       gradientUnits="userSpaceOnUse"
       r="19"
       fy="24"
       fx="24"
       cy="24"
       cx="24"
       id="radialGradient4264-4-7-7"
       xlink:href="#linearGradient4258" />
    <path
       id="c-2-7-8-1"
       d="m.735 43.06l23.265-42.35 23.09 42.31c0 0-2.212-.155-5.272-.291-2.851-.127-1.794.114-8.278-1.089-4.911-.91-8.522-2.865-15.253-2.727-7.453.153-17.549 4.149-17.549 4.149" />
    <path
       d="m.735 43.06l23.265-42.35 23.09 42.31c0 0-2.212-.155-5.272-.291-2.851-.127-1.794.114-8.278-1.089-4.911-.91-8.522-2.865-15.253-2.727-7.453.153-17.549 4.149-17.549 4.149"
       id="c-3-72" />
    <linearGradient
       id="c-0-2-7"
       x1="44"
       x2="4"
       gradientUnits="userSpaceOnUse">
      <stop
         stop-color="#42a603"
         id="stop12-3-2" />
      <stop
         offset="1"
         stop-color="#78da06"
         id="stop14-7-26" />
    </linearGradient>
    <path
       d="M25 15A9 9 0 1 1 7 15 9 9 0 1 1 25 15"
       color="#000000"
       id="p-7-1" />
    <radialGradient
       gradientTransform="translate(-51.199325,-1.1505466)"
       gradientUnits="userSpaceOnUse"
       r="19"
       fy="24"
       fx="24"
       cy="24"
       cx="24"
       id="radialGradient4264-6-0"
       xlink:href="#linearGradient4258" />
    <path
       id="c-2-1-6"
       d="m.735 43.06l23.265-42.35 23.09 42.31c0 0-2.212-.155-5.272-.291-2.851-.127-1.794.114-8.278-1.089-4.911-.91-8.522-2.865-15.253-2.727-7.453.153-17.549 4.149-17.549 4.149" />
    <inkscape:path-effect
       effect="spiro"
       id="path-effect4429-5-1"
       is_visible="true" />
    <inkscape:path-effect
       effect="spiro"
       id="path-effect4429-5-9-5"
       is_visible="true" />
    <inkscape:path-effect
       effect="spiro"
       id="path-effect4429-0-9"
       is_visible="true" />
    <inkscape:path-effect
       effect="spiro"
       id="path-effect4555-0-4"
       is_visible="true" />
    <inkscape:path-effect
       is_visible="true"
       id="path-effect4555-5"
       effect="spiro" />
    <inkscape:path-effect
       is_visible="true"
       id="path-effect4429-3"
       effect="spiro" />
    <inkscape:path-effect
       is_visible="true"
       id="path-effect4395-5"
       effect="spiro" />
    <path
       d="m.735 43.06l23.265-42.35 23.09 42.31c0 0-2.212-.155-5.272-.291-2.851-.127-1.794.114-8.278-1.089-4.911-.91-8.522-2.865-15.253-2.727-7.453.153-17.549 4.149-17.549 4.149"
       id="c-7-9" />
    <linearGradient
       id="c-0-89"
       x1="44"
       x2="4"
       gradientUnits="userSpaceOnUse">
      <stop
         stop-color="#42a603"
         id="stop12-7" />
      <stop
         offset="1"
         stop-color="#78da06"
         id="stop14-361" />
    </linearGradient>
    <path
       d="M25 15A9 9 0 1 1 7 15 9 9 0 1 1 25 15"
       color="#000000"
       id="p-320" />
    <radialGradient
       gradientTransform="translate(-51.199325,-1.1505466)"
       gradientUnits="userSpaceOnUse"
       r="19"
       fy="24"
       fx="24"
       cy="24"
       cx="24"
       id="radialGradient4264-45"
       xlink:href="#linearGradient4258" />
    <path
       id="c-2-2"
       d="m.735 43.06l23.265-42.35 23.09 42.31c0 0-2.212-.155-5.272-.291-2.851-.127-1.794.114-8.278-1.089-4.911-.91-8.522-2.865-15.253-2.727-7.453.153-17.549 4.149-17.549 4.149" />
    <path
       id="c-29-5"
       d="m.735 43.06l23.265-42.35 23.09 42.31c0 0-2.212-.155-5.272-.291-2.851-.127-1.794.114-8.278-1.089-4.911-.91-8.522-2.865-15.253-2.727-7.453.153-17.549 4.149-17.549 4.149" />
    <linearGradient
       gradientUnits="userSpaceOnUse"
       x2="4"
       x1="44"
       id="c-0-5-47">
      <stop
         id="stop12-9-44"
         stop-color="#42a603" />
      <stop
         id="stop14-22-30"
         stop-color="#78da06"
         offset="1" />
    </linearGradient>
    <path
       id="p-0-7"
       color="#000000"
       d="M25 15A9 9 0 1 1 7 15 9 9 0 1 1 25 15" />
    <radialGradient
       xlink:href="#linearGradient4258"
       id="radialGradient4264-4-8"
       cx="24"
       cy="24"
       fx="24"
       fy="24"
       r="19"
       gradientUnits="userSpaceOnUse"
       gradientTransform="translate(-51.199325,-1.1505466)" />
    <path
       d="m.735 43.06l23.265-42.35 23.09 42.31c0 0-2.212-.155-5.272-.291-2.851-.127-1.794.114-8.278-1.089-4.911-.91-8.522-2.865-15.253-2.727-7.453.153-17.549 4.149-17.549 4.149"
       id="c-2-7-6" />
    <path
       id="c-2912-8"
       d="m.735 43.06l23.265-42.35 23.09 42.31c0 0-2.212-.155-5.272-.291-2.851-.127-1.794.114-8.278-1.089-4.911-.91-8.522-2.865-15.253-2.727-7.453.153-17.549 4.149-17.549 4.149" />
    <linearGradient
       gradientUnits="userSpaceOnUse"
       x2="4"
       x1="44"
       id="c-0-8-8">
      <stop
         id="stop12-97-4"
         stop-color="#42a603" />
      <stop
         id="stop14-36-3"
         stop-color="#78da06"
         offset="1" />
    </linearGradient>
    <path
       id="p-32-1"
       color="#000000"
       d="M25 15A9 9 0 1 1 7 15 9 9 0 1 1 25 15" />
    <radialGradient
       xlink:href="#linearGradient4258"
       id="radialGradient4264-74-4"
       cx="24"
       cy="24"
       fx="24"
       fy="24"
       r="19"
       gradientUnits="userSpaceOnUse"
       gradientTransform="translate(-51.199325,-1.1505466)" />
    <path
       d="m.735 43.06l23.265-42.35 23.09 42.31c0 0-2.212-.155-5.272-.291-2.851-.127-1.794.114-8.278-1.089-4.911-.91-8.522-2.865-15.253-2.727-7.453.153-17.549 4.149-17.549 4.149"
       id="c-2-5-9" />
    <path
       d="m.735 43.06l23.265-42.35 23.09 42.31c0 0-2.212-.155-5.272-.291-2.851-.127-1.794.114-8.278-1.089-4.911-.91-8.522-2.865-15.253-2.727-7.453.153-17.549 4.149-17.549 4.149"
       id="c-291-2" />
    <linearGradient
       id="c-0-9-0"
       x1="44"
       x2="4"
       gradientUnits="userSpaceOnUse">
      <stop
         stop-color="#42a603"
         id="stop12-2-6" />
      <stop
         offset="1"
         stop-color="#78da06"
         id="stop14-28-8" />
    </linearGradient>
    <path
       d="M25 15A9 9 0 1 1 7 15 9 9 0 1 1 25 15"
       color="#000000"
       id="p-3-9" />
    <radialGradient
       gradientTransform="translate(-51.199325,-1.1505466)"
       gradientUnits="userSpaceOnUse"
       r="19"
       fy="24"
       fx="24"
       cy="24"
       cx="24"
       id="radialGradient4264-7-2"
       xlink:href="#linearGradient4258" />
    <path
       id="c-2-6-6"
       d="m.735 43.06l23.265-42.35 23.09 42.31c0 0-2.212-.155-5.272-.291-2.851-.127-1.794.114-8.278-1.089-4.911-.91-8.522-2.865-15.253-2.727-7.453.153-17.549 4.149-17.549 4.149" />
    <path
       id="c-29-2-6"
       d="m.735 43.06l23.265-42.35 23.09 42.31c0 0-2.212-.155-5.272-.291-2.851-.127-1.794.114-8.278-1.089-4.911-.91-8.522-2.865-15.253-2.727-7.453.153-17.549 4.149-17.549 4.149" />
    <linearGradient
       gradientUnits="userSpaceOnUse"
       x2="4"
       x1="44"
       id="c-0-5-4-4">
      <stop
         id="stop12-9-4-9"
         stop-color="#42a603" />
      <stop
         id="stop14-22-3-5"
         stop-color="#78da06"
         offset="1" />
    </linearGradient>
    <path
       id="p-0-0-0"
       color="#000000"
       d="M25 15A9 9 0 1 1 7 15 9 9 0 1 1 25 15" />
    <radialGradient
       xlink:href="#linearGradient4258"
       id="radialGradient4264-4-7-4"
       cx="24"
       cy="24"
       fx="24"
       fy="24"
       r="19"
       gradientUnits="userSpaceOnUse"
       gradientTransform="translate(-51.199325,-1.1505466)" />
    <path
       d="m.735 43.06l23.265-42.35 23.09 42.31c0 0-2.212-.155-5.272-.291-2.851-.127-1.794.114-8.278-1.089-4.911-.91-8.522-2.865-15.253-2.727-7.453.153-17.549 4.149-17.549 4.149"
       id="c-2-7-8-8" />
    <path
       id="c-3-7"
       d="m.735 43.06l23.265-42.35 23.09 42.31c0 0-2.212-.155-5.272-.291-2.851-.127-1.794.114-8.278-1.089-4.911-.91-8.522-2.865-15.253-2.727-7.453.153-17.549 4.149-17.549 4.149" />
    <linearGradient
       gradientUnits="userSpaceOnUse"
       x2="4"
       x1="44"
       id="c-0-2-1">
      <stop
         id="stop12-3-7"
         stop-color="#42a603" />
      <stop
         id="stop14-7-2"
         stop-color="#78da06"
         offset="1" />
    </linearGradient>
    <path
       id="p-7-7"
       color="#000000"
       d="M25 15A9 9 0 1 1 7 15 9 9 0 1 1 25 15" />
    <radialGradient
       xlink:href="#linearGradient4258"
       id="radialGradient4264-6-2"
       cx="24"
       cy="24"
       fx="24"
       fy="24"
       r="19"
       gradientUnits="userSpaceOnUse"
       gradientTransform="translate(-51.199325,-1.1505466)" />
    <path
       d="m.735 43.06l23.265-42.35 23.09 42.31c0 0-2.212-.155-5.272-.291-2.851-.127-1.794.114-8.278-1.089-4.911-.91-8.522-2.865-15.253-2.727-7.453.153-17.549 4.149-17.549 4.149"
       id="c-2-1-2" />
    <inkscape:path-effect
       is_visible="true"
       id="path-effect4429-5-6"
       effect="spiro" />
    <inkscape:path-effect
       is_visible="true"
       id="path-effect4429-5-9-1"
       effect="spiro" />
    <inkscape:path-effect
       is_visible="true"
       id="path-effect4429-0-0"
       effect="spiro" />
    <inkscape:path-effect
       is_visible="true"
       id="path-effect4555-0-6"
       effect="spiro" />
  </defs>
  <g
     transform="translate(-384.34877,-515.66468)"
     id="layer1"
     inkscape:label="Capa 1">
    <g
       id="g4437-3-6"
       transform="matrix(0.25706214,0,0,0.25706214,390.63923,529.52681)">
      <g
         inkscape:label="Capa 1"
         id="layer1-8"
         transform="matrix(3.89011,0,0,3.89011,-1520.0669,-2061.7389)">
        <g
           inkscape:label="Capa 1"
           id="layer1-9"
           transform="translate(0.02535072,0.69032305)">
          <g
             transform="matrix(0.25706214,0,0,0.25706214,390.63923,529.52681)"
             id="g4437-3-6-1">
            <g
               transform="matrix(3.89011,0,0,3.89011,-1520.0669,-2061.7389)"
               id="layer1-8-7"
               inkscape:label="Capa 1">
              <g
                 transform="translate(0.01300294,0.56286094)"
                 id="layer1-5"
                 inkscape:label="Capa 1">
                <g
                   id="g4437-3-6-9"
                   transform="matrix(0.25706214,0,0,0.25706214,390.63923,529.52681)">
                  <g
                     inkscape:label="Capa 1"
                     id="layer1-8-4"
                     transform="matrix(3.89011,0,0,3.89011,-1520.0669,-2061.7389)">
                    <rect
                       ry="1.0623779"
                       rx="1.1297435"
                       y="519.61206"
                       x="387.76566"
                       height="25.764034"
                       width="25.764034"
                       id="rect4694"
                       style="opacity:1;fill:#6cd289;fill-opacity:1;stroke:#47c76c;stroke-width:0.303;stroke-linecap:butt;stroke-linejoin:miter;stroke-miterlimit:4;stroke-dasharray:none;stroke-dashoffset:0;stroke-opacity:1" />
                  </g>
                </g>
              </g>
            </g>
          </g>
        </g>
        <path
           transform="translate(384.68385,516.2662)"
           inkscape:connector-curvature="0"
           id="path4565"
           d="m 10.648562,22.772461 0,-1.694916 0.627569,0 0.62757,0 -0.0089,-1.139003 -0.0089,-1.139003 -0.157565,-0.0598 c -0.23306,-0.08845 -0.55145,-0.325183 -0.70495,-0.524148 -0.675744,-0.87589 -0.374177,-2.120202 0.625819,-2.582229 l 0.253645,-0.117191 0,-1.202364 0,-1.202363 -0.627118,0 -0.627119,0 0,-1.694915 0,-1.6949157 1.694915,0 1.694915,0 0,1.2372877 c 0,0.680509 0.0091,1.237289 0.02026,1.237289 0.01114,0 0.155508,-0.116893 0.320816,-0.259761 1.4945,-1.291632 3.490654,-2.0812614 5.565707,-2.2016557 l 0.398305,-0.02311 0,0.4266267 0,0.426627 -0.144068,0.0165 c -0.07924,0.0091 -0.334745,0.03318 -0.567796,0.05358 -3.003601,0.262835 -5.633093,2.120366 -6.507168,4.596804 -0.05665,0.160505 -0.103002,0.311069 -0.103002,0.334586 0,0.02352 0.07851,0.08549 0.174457,0.137711 0.244838,0.133257 0.538465,0.443579 0.66274,0.700422 0.147529,0.304901 0.191638,0.529255 0.171518,0.872392 -0.03498,0.596552 -0.342597,1.065576 -0.92802,1.41495 -0.06223,0.03714 -0.06226,0.04237 -9.85e-4,0.220339 0.457501,1.328886 1.492778,2.568705 2.845024,3.407122 1.150507,0.713335 2.612813,1.167818 4.038049,1.255022 l 0.359251,0.02198 0,0.437295 0,0.437295 -0.29661,-0.02117 c -2.273162,-0.162274 -4.164263,-0.908396 -5.702985,-2.250077 l -0.28854,-0.251592 -0.0089,1.259653 -0.0089,1.259653 -1.694502,0 -1.694503,0 0,-1.694915 z m 2.534501,-0.0085 -0.0091,-0.822034 -0.822034,-0.0091 -0.822034,-0.0091 0,0.831111 0,0.831111 0.831111,0 0.831111,0 -0.0091,-0.822034 z m 0,-11.355932 -0.0091,-0.822034 -0.822034,-0.0091 -0.822034,-0.0091 0,0.831111 0,0.831111 0.831111,0 0.831111,0 -0.0091,-0.822034 z"
           style="fill:#fffdf9;fill-opacity:1;stroke:none;stroke-width:1px;stroke-linecap:butt;stroke-linejoin:miter;stroke-opacity:1" />
      </g>
    </g>
  </g>
</svg>
