<?xml version="1.0" encoding="UTF-8" standalone="no"?>
<svg
   xmlns:dc="http://purl.org/dc/elements/1.1/"
   xmlns:cc="http://creativecommons.org/ns#"
   xmlns:rdf="http://www.w3.org/1999/02/22-rdf-syntax-ns#"
   xmlns:svg="http://www.w3.org/2000/svg"
   xmlns="http://www.w3.org/2000/svg"
   xmlns:xlink="http://www.w3.org/1999/xlink"
   xmlns:sodipodi="http://sodipodi.sourceforge.net/DTD/sodipodi-0.dtd"
   xmlns:inkscape="http://www.inkscape.org/namespaces/inkscape"
   width="32"
   height="32"
   id="svg2"
   version="1.1"
   inkscape:version="0.91 r13725"
   sodipodi:docname="image-vnd.dgn.svg">
  <metadata
     id="metadata25">
    <rdf:RDF>
      <cc:Work
         rdf:about="">
        <dc:format>image/svg+xml</dc:format>
        <dc:type
           rdf:resource="http://purl.org/dc/dcmitype/StillImage" />
      </cc:Work>
    </rdf:RDF>
  </metadata>
  <sodipodi:namedview
     pagecolor="#ffffff"
     bordercolor="#666666"
     borderopacity="1"
     objecttolerance="10"
     gridtolerance="10"
     guidetolerance="10"
     inkscape:pageopacity="0"
     inkscape:pageshadow="2"
     inkscape:window-width="1920"
     inkscape:window-height="1055"
     id="namedview23"
     showgrid="false"
     inkscape:zoom="10.429825"
     inkscape:cx="-33.150605"
     inkscape:cy="2.9039159"
     inkscape:window-x="0"
     inkscape:window-y="0"
     inkscape:window-maximized="1"
     inkscape:current-layer="svg2" />
  <defs
     id="defs4">
    <linearGradient
       id="a"
       y1="61"
       y2="3"
       x2="0"
       gradientUnits="userSpaceOnUse"
       gradientTransform="matrix(.63636 0 0 .48276 380.21 516.35)">
      <stop
         stop-color="#22a7f0"
         id="stop7" />
      <stop
         offset="1"
         stop-color="#19b5fe"
         id="stop9" />
    </linearGradient>
    <linearGradient
       gradientTransform="translate(357.57 507.8)"
       gradientUnits="userSpaceOnUse"
       x2="54"
       x1="47"
       y2="24"
       y1="17"
       id="a-7">
      <stop
         id="stop7-5"
         stop-color="#060606" />
      <stop
         id="stop9-3"
         stop-opacity="0"
         offset="1" />
    </linearGradient>
    <linearGradient
       gradientTransform="translate(309.57 152.44)"
       gradientUnits="userSpaceOnUse"
       x2="0"
       y2="365.36"
       y1="392.36"
       id="b">
      <stop
         id="stop12"
         stop-opacity="0"
         stop-color="#ffffff" />
      <stop
         id="stop14"
         stop-opacity=".2"
         stop-color="#ffffff"
         offset="1" />
    </linearGradient>
    <path
       d="m389.57 545.8v-28h15l7 7v21h-14z"
       id="c" />
    <inkscape:path-effect
       is_visible="true"
       id="path-effect4718"
       effect="spiro" />
    <inkscape:path-effect
       is_visible="true"
       id="path-effect4642"
       effect="spiro" />
    <inkscape:path-effect
       effect="spiro"
       id="path-effect4628"
       is_visible="true" />
    <inkscape:path-effect
       effect="spiro"
       id="path-effect4624"
       is_visible="true" />
    <inkscape:path-effect
       effect="spiro"
       id="path-effect4620"
       is_visible="true" />
    <inkscape:path-effect
       effect="spiro"
       id="path-effect4616"
       is_visible="true" />
    <inkscape:path-effect
       effect="spiro"
       id="path-effect4608"
       is_visible="true" />
    <inkscape:path-effect
       effect="spiro"
       id="path-effect4604"
       is_visible="true" />
    <inkscape:path-effect
       effect="spiro"
       id="path-effect4593"
       is_visible="true" />
    <inkscape:path-effect
       effect="spiro"
       id="path-effect4578"
       is_visible="true" />
    <inkscape:path-effect
       effect="spiro"
       id="path-effect4555"
       is_visible="true" />
    <inkscape:path-effect
       effect="spiro"
       id="path-effect4429"
       is_visible="true" />
    <inkscape:path-effect
       effect="spiro"
       id="path-effect4395"
       is_visible="true" />
    <linearGradient
       id="a-6"
       y1="32.998"
       x1="34.5"
       y2="11.998"
       gradientUnits="userSpaceOnUse"
       x2="11.786">
      <stop
         stop-color="#dd1627"
         id="stop2" />
      <stop
         offset="1"
         stop-color="#df3e52"
         id="stop4" />
    </linearGradient>
    <linearGradient
       id="b-75"
       y1="10.38"
       x1="46.23"
       y2="35.663"
       x2="73.03"
       gradientUnits="userSpaceOnUse"
       gradientTransform="translate(-52)">
      <stop
         stop-color="#f8bac0"
         stop-opacity=".731"
         id="stop7-35" />
      <stop
         offset="1"
         stop-color="#f8bac0"
         stop-opacity="0"
         id="stop9-6" />
    </linearGradient>
    <path
       id="c-29127"
       d="m.735 43.06l23.265-42.35 23.09 42.31c0 0-2.212-.155-5.272-.291-2.851-.127-1.794.114-8.278-1.089-4.911-.91-8.522-2.865-15.253-2.727-7.453.153-17.549 4.149-17.549 4.149" />
    <linearGradient
       id="linearGradient4222">
      <stop
         id="stop2-35"
         style="stop-color:#0166d0;stop-opacity:1"
         offset="0" />
      <stop
         id="stop4-62"
         style="stop-color:#51a6ff;stop-opacity:1"
         offset="1" />
    </linearGradient>
    <linearGradient
       id="linearGradient4198">
      <stop
         id="stop7-9"
         offset="0"
         style="stop-color:#208dff;stop-opacity:1" />
      <stop
         id="stop9-1"
         offset="1"
         style="stop-color:#51a6ff;stop-opacity:1" />
    </linearGradient>
    <linearGradient
       gradientTransform="matrix(0.78135593,0,0,0.78135593,-346.93123,-382.93369)"
       gradientUnits="userSpaceOnUse"
       y2="519.798"
       x2="402.571"
       y1="543.798"
       x1="402.571"
       id="linearGradient4204"
       xlink:href="#linearGradient4222" />
    <linearGradient
       gradientTransform="matrix(0.78135593,0,0,0.78135593,-346.93123,-382.93369)"
       gradientUnits="userSpaceOnUse"
       y2="519.798"
       x2="414.571"
       y1="543.798"
       x1="414.571"
       id="linearGradient4212"
       xlink:href="#linearGradient4198" />
    <linearGradient
       gradientTransform="matrix(1,0,0,0.99924452,384.57143,499.82444)"
       gradientUnits="userSpaceOnUse"
       y2="4"
       x2="24"
       y1="35"
       x1="24"
       id="linearGradient4220"
       xlink:href="#linearGradient4198" />
    <linearGradient
       gradientUnits="userSpaceOnUse"
       y2="38"
       x2="29"
       y1="21"
       x1="12"
       id="linearGradient4244"
       xlink:href="#linearGradient4227" />
    <linearGradient
       id="linearGradient4227">
      <stop
         id="stop16"
         style="stop-color:#292c2f;stop-opacity:1"
         offset="0" />
      <stop
         id="stop18"
         style="stop-color:#000000;stop-opacity:0;"
         offset="1" />
    </linearGradient>
    <linearGradient
       id="linearGradient4532"
       inkscape:collect="always">
      <stop
         id="stop4528"
         offset="0"
         style="stop-color:#000000;stop-opacity:1;" />
      <stop
         id="stop4530"
         offset="1"
         style="stop-color:#000000;stop-opacity:0;" />
    </linearGradient>
    <linearGradient
       id="linearGradient4454">
      <stop
         style="stop-color:#d21e1e;stop-opacity:1"
         offset="0"
         id="stop7-36" />
      <stop
         style="stop-color:#e05e4c;stop-opacity:1"
         offset="1"
         id="stop9-75" />
    </linearGradient>
    <linearGradient
       xlink:href="#linearGradient4454"
       id="linearGradient4213"
       x1="403.421"
       y1="544.092"
       x2="391.89"
       y2="525.725"
       gradientUnits="userSpaceOnUse"
       gradientTransform="translate(-384.57001,-499.79999)" />
    <linearGradient
       id="linearGradient4472">
      <stop
         style="stop-color:#ffa92d;stop-opacity:1"
         offset="0"
         id="stop13" />
      <stop
         style="stop-color:#ffc169;stop-opacity:1"
         offset="1"
         id="stop15" />
    </linearGradient>
    <linearGradient
       xlink:href="#linearGradient4472"
       id="linearGradient4235"
       x1="401.296"
       y1="523.203"
       x2="391.154"
       y2="505.319"
       gradientUnits="userSpaceOnUse"
       gradientTransform="translate(-384.57001,-499.79999)" />
    <linearGradient
       id="linearGradient4422-8">
      <stop
         style="stop-color:#377d50;stop-opacity:1"
         offset="0"
         id="stop19" />
      <stop
         style="stop-color:#54d883;stop-opacity:1"
         offset="1"
         id="stop21" />
    </linearGradient>
    <linearGradient
       xlink:href="#linearGradient4422-8"
       id="linearGradient4257"
       x1="424.602"
       y1="523.798"
       x2="413.779"
       y2="503.798"
       gradientUnits="userSpaceOnUse"
       gradientTransform="translate(-384.57001,-499.79999)" />
    <linearGradient
       id="linearGradient4438">
      <stop
         style="stop-color:#375a7d;stop-opacity:1"
         offset="0"
         id="stop25" />
      <stop
         style="stop-color:#54a3d8;stop-opacity:1"
         offset="1"
         id="stop27" />
    </linearGradient>
    <linearGradient
       xlink:href="#linearGradient4438"
       id="linearGradient4279"
       x1="420.884"
       y1="543.488"
       x2="412.118"
       y2="525.748"
       gradientUnits="userSpaceOnUse"
       gradientTransform="translate(-384.57001,-499.79999)" />
    <linearGradient
       xlink:href="#linearGradient4532"
       id="linearGradient4220-3"
       x1="4"
       y1="4"
       x2="44"
       y2="44"
       gradientUnits="userSpaceOnUse"
       gradientTransform="translate(0.00142264,-0.00198746)" />
    <linearGradient
       gradientUnits="userSpaceOnUse"
       x2="4"
       y2="44"
       x1="24"
       y1="4"
       id="a-2">
      <stop
         id="stop2-367"
         stop-color="#197cf1" />
      <stop
         id="stop4-5"
         stop-color="#20bcfa"
         offset="1" />
    </linearGradient>
    <linearGradient
       gradientUnits="userSpaceOnUse"
       x2="24"
       y2="4"
       x1="44"
       y1="44"
       id="b-7">
      <stop
         id="stop7-3"
         stop-color="#c61423" />
      <stop
         id="stop9-56"
         stop-color="#dc2b41"
         offset="1" />
    </linearGradient>
    <linearGradient
       gradientUnits="userSpaceOnUse"
       x2="4"
       x1="44"
       id="c-0">
      <stop
         id="stop12-0"
         stop-color="#42a603" />
      <stop
         id="stop14-9"
         stop-color="#78da06"
         offset="1" />
    </linearGradient>
    <linearGradient
       x2="416.57"
       gradientUnits="userSpaceOnUse"
       x1="400.57"
       y2="538.8"
       y1="522.8"
       id="d">
      <stop
         id="stop17"
         stop-color="#292c2f" />
      <stop
         id="stop19-29"
         stop-opacity="0"
         offset="1" />
    </linearGradient>
    <linearGradient
       id="b-3"
       y1="522.99"
       x1="430.51"
       y2="523.86"
       gradientUnits="userSpaceOnUse"
       x2="378.58"
       gradientTransform="matrix(.70711.70711-.70711.70711 105.4-635.69)">
      <stop
         stop-color="#fcfcfc"
         id="stop7-67" />
      <stop
         offset="1"
         stop-color="#e9eaeb"
         id="stop9-53" />
    </linearGradient>
    <linearGradient
       id="c-5"
       y1="19.869"
       x1="-28.649"
       y2="49.804"
       gradientUnits="userSpaceOnUse"
       x2="3.614"
       gradientTransform="translate(45.719-.92)">
      <stop
         id="stop12-6" />
      <stop
         offset="1"
         stop-opacity="0"
         id="stop14-2" />
    </linearGradient>
    <linearGradient
       id="d-9"
       y1="522.18"
       x1="388.34"
       y2="523.7"
       gradientUnits="userSpaceOnUse"
       x2="402.03"
       gradientTransform="matrix(.70711.70711-.70711.70711 105.48-635.28)">
      <stop
         stop-color="#ffffff"
         id="stop17-1" />
      <stop
         offset="1"
         stop-color="#eff0f1"
         id="stop19-2" />
    </linearGradient>
    <linearGradient
       id="e"
       y1="527.21"
       x1="422.48"
       y2="527.34"
       gradientUnits="userSpaceOnUse"
       x2="425.86"
       gradientTransform="matrix(.70711.70711-.70711.70711 105.48-635.28)">
      <stop
         stop-color="#f9f9f9"
         id="stop22" />
      <stop
         offset="1"
         stop-color="#f6f6f6"
         id="stop24" />
    </linearGradient>
    <linearGradient
       id="f"
       y1="8.627"
       x1="9.642"
       y2="24.326"
       x2="23.912"
       gradientUnits="userSpaceOnUse">
      <stop
         stop-color="#491309"
         id="stop27-1" />
      <stop
         offset="1"
         stop-color="#b6642d"
         id="stop29" />
    </linearGradient>
    <linearGradient
       id="h"
       y1="33.922"
       x1="32.641"
       y2="34.953"
       x2="33.609"
       gradientUnits="userSpaceOnUse">
      <stop
         stop-color="#cfcfcf"
         id="stop37" />
      <stop
         offset="1"
         stop-color="#ededed"
         stop-opacity="0"
         id="stop39" />
    </linearGradient>
    <linearGradient
       id="o"
       y1="522.24"
       x1="385.61"
       y2="523.27"
       gradientUnits="userSpaceOnUse"
       x2="409.82"
       gradientTransform="matrix(.70711.70711-.70711.70711 105.48-635.28)">
      <stop
         stop-color="#ffffff"
         id="stop62" />
      <stop
         offset="1"
         stop-color="#dfe1e3"
         id="stop64" />
    </linearGradient>
    <path
       id="p"
       color="#000000"
       d="M25 15A9 9 0 1 1 7 15 9 9 0 1 1 25 15" />
    <linearGradient
       gradientUnits="userSpaceOnUse"
       y2="503.67"
       x2="408.632"
       y1="543.773"
       x1="408.571"
       id="linearGradient4415"
       xlink:href="#linearGradient4299" />
    <linearGradient
       id="linearGradient4227-5">
      <stop
         id="stop8"
         style="stop-color:#2e3436;stop-opacity:1"
         offset="0" />
      <stop
         id="stop10"
         style="stop-color:#555753;stop-opacity:1"
         offset="1" />
    </linearGradient>
    <linearGradient
       gradientTransform="matrix(0.96481792,0,0,0.96481792,14.374377,18.428304)"
       gradientUnits="userSpaceOnUse"
       y2="512.397"
       x2="408.571"
       y1="535.199"
       x1="408.571"
       id="linearGradient4437"
       xlink:href="#linearGradient4227-5" />
    <linearGradient
       id="linearGradient4299">
      <stop
         id="stop14-3"
         style="stop-color:#1064d3;stop-opacity:1"
         offset="0" />
      <stop
         id="stop16-6"
         style="stop-color:#14c6fd;stop-opacity:1"
         offset="1" />
    </linearGradient>
    <linearGradient
       gradientUnits="userSpaceOnUse"
       y2="42.953"
       x2="42.946"
       y1="9.083"
       x1="9.077"
       id="linearGradient4392"
       xlink:href="#linearGradient4532" />
    <linearGradient
       id="linearGradient4258">
      <stop
         style="stop-color:#000019;stop-opacity:1"
         offset="0"
         id="stop2-36" />
      <stop
         style="stop-color:#000019;stop-opacity:0.29064038"
         offset="1"
         id="stop4-7" />
    </linearGradient>
    <linearGradient
       id="linearGradient4223">
      <stop
         style="stop-color:#c6cdd1;stop-opacity:1"
         offset="0"
         id="stop7-6" />
      <stop
         style="stop-color:#e0e5e7;stop-opacity:1"
         offset="1"
         id="stop9-7" />
    </linearGradient>
    <linearGradient
       id="linearGradient4217">
      <stop
         offset="0"
         style="stop-color:#1f93b9;stop-opacity:1"
         id="stop12-5" />
      <stop
         offset="1"
         style="stop-color:#1a5c9b;stop-opacity:1"
         id="stop14-5" />
    </linearGradient>
    <linearGradient
       id="linearGradient4191">
      <stop
         style="stop-color:#dc2b41;stop-opacity:1"
         offset="0"
         id="stop17-3" />
      <stop
         style="stop-color:#c61423;stop-opacity:1"
         offset="1"
         id="stop19-5" />
    </linearGradient>
    <linearGradient
       xlink:href="#linearGradient4217"
       id="linearGradient4197"
       x1="24"
       y1="7"
       x2="24"
       y2="29"
       gradientUnits="userSpaceOnUse"
       gradientTransform="translate(-50.199325,-1.1505466)" />
    <linearGradient
       xlink:href="#linearGradient4191"
       id="linearGradient4207"
       x1="24"
       y1="30"
       x2="24"
       y2="41"
       gradientUnits="userSpaceOnUse"
       gradientTransform="translate(-50.199325,0.84945337)" />
    <linearGradient
       xlink:href="#linearGradient4191"
       id="linearGradient4215"
       x1="11"
       y1="30"
       x2="11"
       y2="41"
       gradientUnits="userSpaceOnUse"
       gradientTransform="translate(-51.199325,0.84945337)" />
    <linearGradient
       xlink:href="#linearGradient4223"
       id="linearGradient4229"
       x1="29"
       y1="44"
       x2="29"
       y2="4"
       gradientUnits="userSpaceOnUse"
       gradientTransform="translate(-51.199325,-1.1505466)" />
    <radialGradient
       xlink:href="#linearGradient4258"
       id="radialGradient4264"
       cx="24"
       cy="24"
       fx="24"
       fy="24"
       r="19"
       gradientUnits="userSpaceOnUse"
       gradientTransform="translate(-51.199325,-1.1505466)" />
    <path
       d="m.735 43.06l23.265-42.35 23.09 42.31c0 0-2.212-.155-5.272-.291-2.851-.127-1.794.114-8.278-1.089-4.911-.91-8.522-2.865-15.253-2.727-7.453.153-17.549 4.149-17.549 4.149"
       id="c-2" />
    <path
       d="m.735 43.06l23.265-42.35 23.09 42.31c0 0-2.212-.155-5.272-.291-2.851-.127-1.794.114-8.278-1.089-4.911-.91-8.522-2.865-15.253-2.727-7.453.153-17.549 4.149-17.549 4.149"
       id="c-29" />
    <linearGradient
       id="c-0-5"
       x1="44"
       x2="4"
       gradientUnits="userSpaceOnUse">
      <stop
         stop-color="#42a603"
         id="stop12-9" />
      <stop
         offset="1"
         stop-color="#78da06"
         id="stop14-22" />
    </linearGradient>
    <path
       d="M25 15A9 9 0 1 1 7 15 9 9 0 1 1 25 15"
       color="#000000"
       id="p-0" />
    <radialGradient
       gradientTransform="translate(-51.199325,-1.1505466)"
       gradientUnits="userSpaceOnUse"
       r="19"
       fy="24"
       fx="24"
       cy="24"
       cx="24"
       id="radialGradient4264-4"
       xlink:href="#linearGradient4258" />
    <path
       id="c-2-7"
       d="m.735 43.06l23.265-42.35 23.09 42.31c0 0-2.212-.155-5.272-.291-2.851-.127-1.794.114-8.278-1.089-4.911-.91-8.522-2.865-15.253-2.727-7.453.153-17.549 4.149-17.549 4.149" />
    <path
       d="m.735 43.06l23.265-42.35 23.09 42.31c0 0-2.212-.155-5.272-.291-2.851-.127-1.794.114-8.278-1.089-4.911-.91-8.522-2.865-15.253-2.727-7.453.153-17.549 4.149-17.549 4.149"
       id="c-2912" />
    <linearGradient
       id="c-0-8"
       x1="44"
       x2="4"
       gradientUnits="userSpaceOnUse">
      <stop
         stop-color="#42a603"
         id="stop12-97" />
      <stop
         offset="1"
         stop-color="#78da06"
         id="stop14-36" />
    </linearGradient>
    <path
       d="M25 15A9 9 0 1 1 7 15 9 9 0 1 1 25 15"
       color="#000000"
       id="p-32" />
    <radialGradient
       gradientTransform="translate(-51.199325,-1.1505466)"
       gradientUnits="userSpaceOnUse"
       r="19"
       fy="24"
       fx="24"
       cy="24"
       cx="24"
       id="radialGradient4264-74"
       xlink:href="#linearGradient4258" />
    <path
       id="c-2-5"
       d="m.735 43.06l23.265-42.35 23.09 42.31c0 0-2.212-.155-5.272-.291-2.851-.127-1.794.114-8.278-1.089-4.911-.91-8.522-2.865-15.253-2.727-7.453.153-17.549 4.149-17.549 4.149" />
    <path
       id="c-291"
       d="m.735 43.06l23.265-42.35 23.09 42.31c0 0-2.212-.155-5.272-.291-2.851-.127-1.794.114-8.278-1.089-4.911-.91-8.522-2.865-15.253-2.727-7.453.153-17.549 4.149-17.549 4.149" />
    <linearGradient
       gradientUnits="userSpaceOnUse"
       x2="4"
       x1="44"
       id="c-0-9">
      <stop
         id="stop12-2"
         stop-color="#42a603" />
      <stop
         id="stop14-28"
         stop-color="#78da06"
         offset="1" />
    </linearGradient>
    <path
       id="p-3"
       color="#000000"
       d="M25 15A9 9 0 1 1 7 15 9 9 0 1 1 25 15" />
    <radialGradient
       xlink:href="#linearGradient4258"
       id="radialGradient4264-7"
       cx="24"
       cy="24"
       fx="24"
       fy="24"
       r="19"
       gradientUnits="userSpaceOnUse"
       gradientTransform="translate(-51.199325,-1.1505466)" />
    <path
       d="m.735 43.06l23.265-42.35 23.09 42.31c0 0-2.212-.155-5.272-.291-2.851-.127-1.794.114-8.278-1.089-4.911-.91-8.522-2.865-15.253-2.727-7.453.153-17.549 4.149-17.549 4.149"
       id="c-2-6" />
    <path
       d="m.735 43.06l23.265-42.35 23.09 42.31c0 0-2.212-.155-5.272-.291-2.851-.127-1.794.114-8.278-1.089-4.911-.91-8.522-2.865-15.253-2.727-7.453.153-17.549 4.149-17.549 4.149"
       id="c-29-2" />
    <linearGradient
       id="c-0-5-4"
       x1="44"
       x2="4"
       gradientUnits="userSpaceOnUse">
      <stop
         stop-color="#42a603"
         id="stop12-9-4" />
      <stop
         offset="1"
         stop-color="#78da06"
         id="stop14-22-3" />
    </linearGradient>
    <path
       d="M25 15A9 9 0 1 1 7 15 9 9 0 1 1 25 15"
       color="#000000"
       id="p-0-0" />
    <radialGradient
       gradientTransform="translate(-51.199325,-1.1505466)"
       gradientUnits="userSpaceOnUse"
       r="19"
       fy="24"
       fx="24"
       cy="24"
       cx="24"
       id="radialGradient4264-4-7"
       xlink:href="#linearGradient4258" />
    <path
       id="c-2-7-8"
       d="m.735 43.06l23.265-42.35 23.09 42.31c0 0-2.212-.155-5.272-.291-2.851-.127-1.794.114-8.278-1.089-4.911-.91-8.522-2.865-15.253-2.727-7.453.153-17.549 4.149-17.549 4.149" />
    <path
       d="m.735 43.06l23.265-42.35 23.09 42.31c0 0-2.212-.155-5.272-.291-2.851-.127-1.794.114-8.278-1.089-4.911-.91-8.522-2.865-15.253-2.727-7.453.153-17.549 4.149-17.549 4.149"
       id="c-3" />
    <linearGradient
       id="c-0-2"
       x1="44"
       x2="4"
       gradientUnits="userSpaceOnUse">
      <stop
         stop-color="#42a603"
         id="stop12-3" />
      <stop
         offset="1"
         stop-color="#78da06"
         id="stop14-7" />
    </linearGradient>
    <path
       d="M25 15A9 9 0 1 1 7 15 9 9 0 1 1 25 15"
       color="#000000"
       id="p-7" />
    <radialGradient
       gradientTransform="translate(-51.199325,-1.1505466)"
       gradientUnits="userSpaceOnUse"
       r="19"
       fy="24"
       fx="24"
       cy="24"
       cx="24"
       id="radialGradient4264-6"
       xlink:href="#linearGradient4258" />
    <path
       id="c-2-1"
       d="m.735 43.06l23.265-42.35 23.09 42.31c0 0-2.212-.155-5.272-.291-2.851-.127-1.794.114-8.278-1.089-4.911-.91-8.522-2.865-15.253-2.727-7.453.153-17.549 4.149-17.549 4.149" />
    <inkscape:path-effect
       effect="spiro"
       id="path-effect4429-5"
       is_visible="true" />
    <inkscape:path-effect
       effect="spiro"
       id="path-effect4429-5-9"
       is_visible="true" />
    <inkscape:path-effect
       effect="spiro"
       id="path-effect4429-0"
       is_visible="true" />
    <inkscape:path-effect
       effect="spiro"
       id="path-effect4555-0"
       is_visible="true" />
    <linearGradient
       gradientTransform="translate(309.57,152.44)"
       gradientUnits="userSpaceOnUse"
       x2="0"
       y2="365.36"
       y1="392.36"
       id="a-3">
      <stop
         id="stop4408"
         stop-opacity="0"
         stop-color="#ffffff" />
      <stop
         id="stop4410"
         stop-opacity=".2"
         stop-color="#ffffff"
         offset="1" />
    </linearGradient>
    <path
       d="m389.57 545.8v-28h15l7 7v21h-14z"
       id="c-7" />
    <linearGradient
       gradientTransform="translate(309.57,152.44)"
       gradientUnits="userSpaceOnUse"
       x2="0"
       y2="365.36"
       y1="392.36"
       id="a-5">
      <stop
         id="stop4470"
         stop-opacity="0"
         stop-color="#ffffff" />
      <stop
         id="stop4472"
         stop-opacity=".2"
         stop-color="#ffffff"
         offset="1" />
    </linearGradient>
    <path
       d="m389.57 545.8v-28h15l7 7v21h-14z"
       id="c-6" />
    <inkscape:path-effect
       is_visible="true"
       id="path-effect4555-53"
       effect="spiro" />
    <inkscape:path-effect
       is_visible="true"
       id="path-effect4429-56"
       effect="spiro" />
    <inkscape:path-effect
       is_visible="true"
       id="path-effect4395-2"
       effect="spiro" />
    <path
       d="m.735 43.06l23.265-42.35 23.09 42.31c0 0-2.212-.155-5.272-.291-2.851-.127-1.794.114-8.278-1.089-4.911-.91-8.522-2.865-15.253-2.727-7.453.153-17.549 4.149-17.549 4.149"
       id="c-9" />
    <linearGradient
       id="c-0-7"
       x1="44"
       x2="4"
       gradientUnits="userSpaceOnUse">
      <stop
         stop-color="#42a603"
         id="stop12-36" />
      <stop
         offset="1"
         stop-color="#78da06"
         id="stop14-1" />
    </linearGradient>
    <path
       d="M25 15A9 9 0 1 1 7 15 9 9 0 1 1 25 15"
       color="#000000"
       id="p-3206" />
    <radialGradient
       gradientTransform="translate(-51.199325,-1.1505466)"
       gradientUnits="userSpaceOnUse"
       r="19"
       fy="24"
       fx="24"
       cy="24"
       cx="24"
       id="radialGradient4264-5"
       xlink:href="#linearGradient4258" />
    <path
       id="c-2-25"
       d="m.735 43.06l23.265-42.35 23.09 42.31c0 0-2.212-.155-5.272-.291-2.851-.127-1.794.114-8.278-1.089-4.911-.91-8.522-2.865-15.253-2.727-7.453.153-17.549 4.149-17.549 4.149" />
    <path
       id="c-29-4"
       d="m.735 43.06l23.265-42.35 23.09 42.31c0 0-2.212-.155-5.272-.291-2.851-.127-1.794.114-8.278-1.089-4.911-.91-8.522-2.865-15.253-2.727-7.453.153-17.549 4.149-17.549 4.149" />
    <linearGradient
       gradientUnits="userSpaceOnUse"
       x2="4"
       x1="44"
       id="c-0-5-7">
      <stop
         id="stop12-9-443"
         stop-color="#42a603" />
      <stop
         id="stop14-22-0"
         stop-color="#78da06"
         offset="1" />
    </linearGradient>
    <path
       id="p-0-78"
       color="#000000"
       d="M25 15A9 9 0 1 1 7 15 9 9 0 1 1 25 15" />
    <radialGradient
       xlink:href="#linearGradient4258"
       id="radialGradient4264-4-6"
       cx="24"
       cy="24"
       fx="24"
       fy="24"
       r="19"
       gradientUnits="userSpaceOnUse"
       gradientTransform="translate(-51.199325,-1.1505466)" />
    <path
       d="m.735 43.06l23.265-42.35 23.09 42.31c0 0-2.212-.155-5.272-.291-2.851-.127-1.794.114-8.278-1.089-4.911-.91-8.522-2.865-15.253-2.727-7.453.153-17.549 4.149-17.549 4.149"
       id="c-2-7-88" />
    <path
       id="c-2912-4"
       d="m.735 43.06l23.265-42.35 23.09 42.31c0 0-2.212-.155-5.272-.291-2.851-.127-1.794.114-8.278-1.089-4.911-.91-8.522-2.865-15.253-2.727-7.453.153-17.549 4.149-17.549 4.149" />
    <linearGradient
       gradientUnits="userSpaceOnUse"
       x2="4"
       x1="44"
       id="c-0-8-3">
      <stop
         id="stop12-97-1"
         stop-color="#42a603" />
      <stop
         id="stop14-36-4"
         stop-color="#78da06"
         offset="1" />
    </linearGradient>
    <path
       id="p-32-9"
       color="#000000"
       d="M25 15A9 9 0 1 1 7 15 9 9 0 1 1 25 15" />
    <radialGradient
       xlink:href="#linearGradient4258"
       id="radialGradient4264-74-2"
       cx="24"
       cy="24"
       fx="24"
       fy="24"
       r="19"
       gradientUnits="userSpaceOnUse"
       gradientTransform="translate(-51.199325,-1.1505466)" />
    <path
       d="m.735 43.06l23.265-42.35 23.09 42.31c0 0-2.212-.155-5.272-.291-2.851-.127-1.794.114-8.278-1.089-4.911-.91-8.522-2.865-15.253-2.727-7.453.153-17.549 4.149-17.549 4.149"
       id="c-2-5-0" />
    <path
       d="m.735 43.06l23.265-42.35 23.09 42.31c0 0-2.212-.155-5.272-.291-2.851-.127-1.794.114-8.278-1.089-4.911-.91-8.522-2.865-15.253-2.727-7.453.153-17.549 4.149-17.549 4.149"
       id="c-291-6" />
    <linearGradient
       id="c-0-9-8"
       x1="44"
       x2="4"
       gradientUnits="userSpaceOnUse">
      <stop
         stop-color="#42a603"
         id="stop12-2-9" />
      <stop
         offset="1"
         stop-color="#78da06"
         id="stop14-28-2" />
    </linearGradient>
    <path
       d="M25 15A9 9 0 1 1 7 15 9 9 0 1 1 25 15"
       color="#000000"
       id="p-3-6" />
    <radialGradient
       gradientTransform="translate(-51.199325,-1.1505466)"
       gradientUnits="userSpaceOnUse"
       r="19"
       fy="24"
       fx="24"
       cy="24"
       cx="24"
       id="radialGradient4264-7-6"
       xlink:href="#linearGradient4258" />
    <path
       id="c-2-6-4"
       d="m.735 43.06l23.265-42.35 23.09 42.31c0 0-2.212-.155-5.272-.291-2.851-.127-1.794.114-8.278-1.089-4.911-.91-8.522-2.865-15.253-2.727-7.453.153-17.549 4.149-17.549 4.149" />
    <path
       id="c-29-2-9"
       d="m.735 43.06l23.265-42.35 23.09 42.31c0 0-2.212-.155-5.272-.291-2.851-.127-1.794.114-8.278-1.089-4.911-.91-8.522-2.865-15.253-2.727-7.453.153-17.549 4.149-17.549 4.149" />
    <linearGradient
       gradientUnits="userSpaceOnUse"
       x2="4"
       x1="44"
       id="c-0-5-4-5">
      <stop
         id="stop12-9-4-0"
         stop-color="#42a603" />
      <stop
         id="stop14-22-3-4"
         stop-color="#78da06"
         offset="1" />
    </linearGradient>
    <path
       id="p-0-0-8"
       color="#000000"
       d="M25 15A9 9 0 1 1 7 15 9 9 0 1 1 25 15" />
    <radialGradient
       xlink:href="#linearGradient4258"
       id="radialGradient4264-4-7-7"
       cx="24"
       cy="24"
       fx="24"
       fy="24"
       r="19"
       gradientUnits="userSpaceOnUse"
       gradientTransform="translate(-51.199325,-1.1505466)" />
    <path
       d="m.735 43.06l23.265-42.35 23.09 42.31c0 0-2.212-.155-5.272-.291-2.851-.127-1.794.114-8.278-1.089-4.911-.91-8.522-2.865-15.253-2.727-7.453.153-17.549 4.149-17.549 4.149"
       id="c-2-7-8-1" />
    <path
       id="c-3-72"
       d="m.735 43.06l23.265-42.35 23.09 42.31c0 0-2.212-.155-5.272-.291-2.851-.127-1.794.114-8.278-1.089-4.911-.91-8.522-2.865-15.253-2.727-7.453.153-17.549 4.149-17.549 4.149" />
    <linearGradient
       gradientUnits="userSpaceOnUse"
       x2="4"
       x1="44"
       id="c-0-2-7">
      <stop
         id="stop12-3-2"
         stop-color="#42a603" />
      <stop
         id="stop14-7-26"
         stop-color="#78da06"
         offset="1" />
    </linearGradient>
    <path
       id="p-7-1"
       color="#000000"
       d="M25 15A9 9 0 1 1 7 15 9 9 0 1 1 25 15" />
    <radialGradient
       xlink:href="#linearGradient4258"
       id="radialGradient4264-6-0"
       cx="24"
       cy="24"
       fx="24"
       fy="24"
       r="19"
       gradientUnits="userSpaceOnUse"
       gradientTransform="translate(-51.199325,-1.1505466)" />
    <path
       d="m.735 43.06l23.265-42.35 23.09 42.31c0 0-2.212-.155-5.272-.291-2.851-.127-1.794.114-8.278-1.089-4.911-.91-8.522-2.865-15.253-2.727-7.453.153-17.549 4.149-17.549 4.149"
       id="c-2-1-6" />
    <inkscape:path-effect
       is_visible="true"
       id="path-effect4429-5-1"
       effect="spiro" />
    <inkscape:path-effect
       is_visible="true"
       id="path-effect4429-5-9-5"
       effect="spiro" />
    <inkscape:path-effect
       is_visible="true"
       id="path-effect4429-0-9"
       effect="spiro" />
    <inkscape:path-effect
       is_visible="true"
       id="path-effect4555-0-4"
       effect="spiro" />
    <inkscape:path-effect
       effect="spiro"
       id="path-effect4555-5"
       is_visible="true" />
    <inkscape:path-effect
       effect="spiro"
       id="path-effect4429-3"
       is_visible="true" />
    <inkscape:path-effect
       effect="spiro"
       id="path-effect4395-5"
       is_visible="true" />
    <path
       id="c-7-9"
       d="m.735 43.06l23.265-42.35 23.09 42.31c0 0-2.212-.155-5.272-.291-2.851-.127-1.794.114-8.278-1.089-4.911-.91-8.522-2.865-15.253-2.727-7.453.153-17.549 4.149-17.549 4.149" />
    <linearGradient
       gradientUnits="userSpaceOnUse"
       x2="4"
       x1="44"
       id="c-0-89">
      <stop
         id="stop12-7"
         stop-color="#42a603" />
      <stop
         id="stop14-361"
         stop-color="#78da06"
         offset="1" />
    </linearGradient>
    <path
       id="p-320"
       color="#000000"
       d="M25 15A9 9 0 1 1 7 15 9 9 0 1 1 25 15" />
    <radialGradient
       xlink:href="#linearGradient4258"
       id="radialGradient4264-45"
       cx="24"
       cy="24"
       fx="24"
       fy="24"
       r="19"
       gradientUnits="userSpaceOnUse"
       gradientTransform="translate(-51.199325,-1.1505466)" />
    <path
       d="m.735 43.06l23.265-42.35 23.09 42.31c0 0-2.212-.155-5.272-.291-2.851-.127-1.794.114-8.278-1.089-4.911-.91-8.522-2.865-15.253-2.727-7.453.153-17.549 4.149-17.549 4.149"
       id="c-2-2" />
    <path
       d="m.735 43.06l23.265-42.35 23.09 42.31c0 0-2.212-.155-5.272-.291-2.851-.127-1.794.114-8.278-1.089-4.911-.91-8.522-2.865-15.253-2.727-7.453.153-17.549 4.149-17.549 4.149"
       id="c-29-5" />
    <linearGradient
       id="c-0-5-47"
       x1="44"
       x2="4"
       gradientUnits="userSpaceOnUse">
      <stop
         stop-color="#42a603"
         id="stop12-9-44" />
      <stop
         offset="1"
         stop-color="#78da06"
         id="stop14-22-30" />
    </linearGradient>
    <path
       d="M25 15A9 9 0 1 1 7 15 9 9 0 1 1 25 15"
       color="#000000"
       id="p-0-7" />
    <radialGradient
       gradientTransform="translate(-51.199325,-1.1505466)"
       gradientUnits="userSpaceOnUse"
       r="19"
       fy="24"
       fx="24"
       cy="24"
       cx="24"
       id="radialGradient4264-4-8"
       xlink:href="#linearGradient4258" />
    <path
       id="c-2-7-6"
       d="m.735 43.06l23.265-42.35 23.09 42.31c0 0-2.212-.155-5.272-.291-2.851-.127-1.794.114-8.278-1.089-4.911-.91-8.522-2.865-15.253-2.727-7.453.153-17.549 4.149-17.549 4.149" />
    <path
       d="m.735 43.06l23.265-42.35 23.09 42.31c0 0-2.212-.155-5.272-.291-2.851-.127-1.794.114-8.278-1.089-4.911-.91-8.522-2.865-15.253-2.727-7.453.153-17.549 4.149-17.549 4.149"
       id="c-2912-8" />
    <linearGradient
       id="c-0-8-8"
       x1="44"
       x2="4"
       gradientUnits="userSpaceOnUse">
      <stop
         stop-color="#42a603"
         id="stop12-97-4" />
      <stop
         offset="1"
         stop-color="#78da06"
         id="stop14-36-3" />
    </linearGradient>
    <path
       d="M25 15A9 9 0 1 1 7 15 9 9 0 1 1 25 15"
       color="#000000"
       id="p-32-1" />
    <radialGradient
       gradientTransform="translate(-51.199325,-1.1505466)"
       gradientUnits="userSpaceOnUse"
       r="19"
       fy="24"
       fx="24"
       cy="24"
       cx="24"
       id="radialGradient4264-74-4"
       xlink:href="#linearGradient4258" />
    <path
       id="c-2-5-9"
       d="m.735 43.06l23.265-42.35 23.09 42.31c0 0-2.212-.155-5.272-.291-2.851-.127-1.794.114-8.278-1.089-4.911-.91-8.522-2.865-15.253-2.727-7.453.153-17.549 4.149-17.549 4.149" />
    <path
       id="c-291-2"
       d="m.735 43.06l23.265-42.35 23.09 42.31c0 0-2.212-.155-5.272-.291-2.851-.127-1.794.114-8.278-1.089-4.911-.91-8.522-2.865-15.253-2.727-7.453.153-17.549 4.149-17.549 4.149" />
    <linearGradient
       gradientUnits="userSpaceOnUse"
       x2="4"
       x1="44"
       id="c-0-9-0">
      <stop
         id="stop12-2-6"
         stop-color="#42a603" />
      <stop
         id="stop14-28-8"
         stop-color="#78da06"
         offset="1" />
    </linearGradient>
    <path
       id="p-3-9"
       color="#000000"
       d="M25 15A9 9 0 1 1 7 15 9 9 0 1 1 25 15" />
    <radialGradient
       xlink:href="#linearGradient4258"
       id="radialGradient4264-7-2"
       cx="24"
       cy="24"
       fx="24"
       fy="24"
       r="19"
       gradientUnits="userSpaceOnUse"
       gradientTransform="translate(-51.199325,-1.1505466)" />
    <path
       d="m.735 43.06l23.265-42.35 23.09 42.31c0 0-2.212-.155-5.272-.291-2.851-.127-1.794.114-8.278-1.089-4.911-.91-8.522-2.865-15.253-2.727-7.453.153-17.549 4.149-17.549 4.149"
       id="c-2-6-6" />
    <path
       d="m.735 43.06l23.265-42.35 23.09 42.31c0 0-2.212-.155-5.272-.291-2.851-.127-1.794.114-8.278-1.089-4.911-.91-8.522-2.865-15.253-2.727-7.453.153-17.549 4.149-17.549 4.149"
       id="c-29-2-6" />
    <linearGradient
       id="c-0-5-4-4"
       x1="44"
       x2="4"
       gradientUnits="userSpaceOnUse">
      <stop
         stop-color="#42a603"
         id="stop12-9-4-9" />
      <stop
         offset="1"
         stop-color="#78da06"
         id="stop14-22-3-5" />
    </linearGradient>
    <path
       d="M25 15A9 9 0 1 1 7 15 9 9 0 1 1 25 15"
       color="#000000"
       id="p-0-0-0" />
    <radialGradient
       gradientTransform="translate(-51.199325,-1.1505466)"
       gradientUnits="userSpaceOnUse"
       r="19"
       fy="24"
       fx="24"
       cy="24"
       cx="24"
       id="radialGradient4264-4-7-4"
       xlink:href="#linearGradient4258" />
    <path
       id="c-2-7-8-8"
       d="m.735 43.06l23.265-42.35 23.09 42.31c0 0-2.212-.155-5.272-.291-2.851-.127-1.794.114-8.278-1.089-4.911-.91-8.522-2.865-15.253-2.727-7.453.153-17.549 4.149-17.549 4.149" />
    <path
       d="m.735 43.06l23.265-42.35 23.09 42.31c0 0-2.212-.155-5.272-.291-2.851-.127-1.794.114-8.278-1.089-4.911-.91-8.522-2.865-15.253-2.727-7.453.153-17.549 4.149-17.549 4.149"
       id="c-3-7" />
    <linearGradient
       id="c-0-2-1"
       x1="44"
       x2="4"
       gradientUnits="userSpaceOnUse">
      <stop
         stop-color="#42a603"
         id="stop12-3-7" />
      <stop
         offset="1"
         stop-color="#78da06"
         id="stop14-7-2" />
    </linearGradient>
    <path
       d="M25 15A9 9 0 1 1 7 15 9 9 0 1 1 25 15"
       color="#000000"
       id="p-7-7" />
    <radialGradient
       gradientTransform="translate(-51.199325,-1.1505466)"
       gradientUnits="userSpaceOnUse"
       r="19"
       fy="24"
       fx="24"
       cy="24"
       cx="24"
       id="radialGradient4264-6-2"
       xlink:href="#linearGradient4258" />
    <path
       id="c-2-1-2"
       d="m.735 43.06l23.265-42.35 23.09 42.31c0 0-2.212-.155-5.272-.291-2.851-.127-1.794.114-8.278-1.089-4.911-.91-8.522-2.865-15.253-2.727-7.453.153-17.549 4.149-17.549 4.149" />
    <inkscape:path-effect
       effect="spiro"
       id="path-effect4429-5-6"
       is_visible="true" />
    <inkscape:path-effect
       effect="spiro"
       id="path-effect4429-5-9-1"
       is_visible="true" />
    <inkscape:path-effect
       effect="spiro"
       id="path-effect4429-0-0"
       is_visible="true" />
    <inkscape:path-effect
       effect="spiro"
       id="path-effect4555-0-6"
       is_visible="true" />
  </defs>
  <g
     inkscape:label="Capa 1"
     id="layer1"
     transform="translate(-405.57762,-488.12563)">
    <g
       transform="matrix(0.25706214,0,0,0.25706214,390.63923,529.52681)"
       id="g4437-3-6">
      <g
         transform="matrix(3.89011,0,0,3.89011,-1520.0669,-2061.7389)"
         id="layer1-8"
         inkscape:label="Capa 1">
        <g
           style="fill:#53c8e1;fill-opacity:1"
           transform="translate(21.313486,-27.64866)"
           id="layer1-9"
           inkscape:label="Capa 1">
          <g
             style="fill:#53c8e1;fill-opacity:1"
             id="g4437-3-6-1"
             transform="matrix(0.25706214,0,0,0.25706214,390.63923,529.52681)">
            <g
               style="fill:#53c8e1;fill-opacity:1"
               inkscape:label="Capa 1"
               id="layer1-8-7"
               transform="matrix(3.89011,0,0,3.89011,-1520.0669,-2061.7389)">
              <g
                 style="fill:#53c8e1;fill-opacity:1"
                 inkscape:label="Capa 1"
                 id="layer1-5"
                 transform="translate(0.01300294,0.56286094)">
                <g
                   style="fill:#53c8e1;fill-opacity:1"
                   transform="matrix(0.25706214,0,0,0.25706214,390.63923,529.52681)"
                   id="g4437-3-6-9">
                  <g
                     style="fill:#53c8e1;fill-opacity:1"
                     transform="matrix(3.89011,0,0,3.89011,-1520.0669,-2061.7389)"
                     id="layer1-8-4"
                     inkscape:label="Capa 1">
                    <rect
                       style="opacity:1;fill:#53c8e1;fill-opacity:1;stroke:#24b1cf;stroke-width:0.303;stroke-linecap:butt;stroke-linejoin:miter;stroke-miterlimit:4;stroke-dasharray:none;stroke-dashoffset:0;stroke-opacity:1"
                       id="rect4694"
                       width="25.764034"
                       height="25.764034"
                       x="387.76566"
                       y="519.61206"
                       rx="1.1297435"
                       ry="1.0623779" />
                  </g>
                </g>
              </g>
            </g>
          </g>
        </g>
      </g>
    </g>
  </g>
  <path
     style="fill:#ffffff;stroke:none;stroke-width:0.00958789;stroke-miterlimit:4;stroke-dasharray:none;stroke-opacity:1"
     d="m 15.019779,9.0854296 0,1.0332044 0,1.033203 1.033203,0 1.033203,0 0,-1.033203 0,-1.0332044 -1.033203,0 -1.033203,0 z m 2.304687,2.7031254 0,0.478516 0,0.476563 0.177735,0.05078 c 0.09788,0.02768 0.924331,0.250499 1.83789,0.49414 0.913559,0.243642 1.693179,0.454634 1.730469,0.470703 0.06158,0.02653 0.05721,0.03276 -0.03516,0.05664 -0.05593,0.01446 -0.910302,0.241511 -1.898438,0.505859 l -1.796875,0.480469 -0.0078,3.9375 c -0.0047,2.165678 -0.0047,3.938211 0,3.9375 0.0047,-7.12e-4 1.243736,-0.334432 2.753906,-0.740234 l 2.746094,-0.736328 0.0098,-3.972657 c 0.0047,-2.185011 -0.0012,-3.972656 -0.01172,-3.972656 -0.0105,0 -1.21212,-0.320477 -2.669921,-0.710937 -1.457802,-0.390461 -2.690918,-0.720012 -2.742188,-0.732422 l -0.09375,-0.02344 z m -2.601562,0.02149 c -0.198203,0.05754 -1.982815,0.529297 -2.001953,0.529297 -0.01277,0 0.148661,0.173452 0.359374,0.384765 l 0.384766,0.382813 0.650391,-0.173828 0.648437,-0.175782 0.0098,-0.482421 c 0.0088,-0.448803 0.0053,-0.481124 -0.05078,-0.464844 z m -4.095704,1.099609 -0.6562499,0.175781 -0.658204,0.177735 0,4.138672 0,4.140625 3.1894549,0.535156 c 1.753384,0.294825 3.245849,0.538214 3.318359,0.541016 l 0.132812,0.0059 0,-3.900391 0,-3.898437 -2.384765,-0.396485 c -1.311743,-0.2175 -2.434812,-0.406158 -2.494142,-0.419968 -0.07351,-0.01711 -0.107422,-0.05922 -0.107422,-0.134765 0,-0.08624 0.03503,-0.118531 0.15625,-0.144531 0.08569,-0.01838 0.174747,-0.04526 0.197267,-0.05859 0.02252,-0.01333 -0.1244,-0.189615 -0.326173,-0.392578 L 10.6272,12.909653 Z m 11.291016,1.632813 c 0.0084,0 0.01563,1.213109 0.01563,2.695312 0,1.482204 -0.01141,2.692906 -0.02539,2.691406 -0.02162,-0.0023 -2.299922,-0.615606 -3.337891,-0.898437 l -0.332031,-0.08984 0,-1.705078 c 0,-1.594753 0.0051,-1.707659 0.06055,-1.724609 0.10918,-0.03335 3.603761,-0.96875 3.619141,-0.96875 z m -3.625,5.390625 c 0.02956,0 0.596788,0.144351 1.261719,0.322265 1.465197,0.392046 1.575957,0.424143 1.560547,0.439453 -0.0067,0.0066 -0.639653,0.180038 -1.408203,0.386719 -0.768549,0.20668 -1.414434,0.376953 -1.433594,0.376953 -0.02282,0 -0.03516,-0.264045 -0.03516,-0.763672 0,-0.673652 0.0072,-0.761718 0.05469,-0.761718 z"
     id="path4726"
     inkscape:connector-curvature="0" />
</svg>
