<svg xmlns="http://www.w3.org/2000/svg" viewBox="0 0 32 32"><defs><linearGradient id="0" x1="451.69" y1="556.79" x2="451.34" y2="528.79" gradientUnits="userSpaceOnUse"><stop stop-color="#9154ae"/><stop offset="1" stop-color="#ba8bcf"/></linearGradient></defs><g transform="translate(-435.34-526.79)" stroke="#1f2a47"><rect width="22.411" height="29.671" x="440.13" y="527.99" fill="url(#0)" fill-rule="evenodd" stroke="#41274d" stroke-linecap="round" stroke-width=".3" rx="1"/><path d="m26.892 1024.26c-1.969-1.539-.579-7.872-.579-7.872 0 0 2.155 0 2.406 0 .251 0 1.236-.158 1.236-1.337 0-1.45-1.203-1.361-1.203-1.361 0 0-6.595 0-8.86 0-1.454 0-2.767 1.665-3.52 2.856-.401.636-.174.814.515.515 2.415-1.057 3.095-.677 3.095-.677.17.814.227 4.489-.393 5.939-.628 1.365-1.787 3.095-.085 4.112 1.329.754 2.722-.794 2.585-3.428-.065-1.394-.174-6.62-.174-6.62h2.22c-.069.814-.446 4.971-.053 7.434.409 4.112 4.878 3.314 5.712.985.207-.644.158-1.139.004-1.511-.284-.693-.758-.729-.705-.405.033.207.012.409-.02.592-.097.563-1.248 1.446-2.18.778" opacity=".9" fill="#41274d" stroke="none" transform="matrix(.92014 0 0 .92014 429.72-395.94)"/></g></svg>