<svg xmlns="http://www.w3.org/2000/svg" viewBox="0 0 32 32"><defs><linearGradient id="0" x1="451.69" y1="556.79" x2="451.34" y2="528.79" gradientUnits="userSpaceOnUse"><stop stop-color="#8798a9"/><stop offset="1" stop-color="#aeb6be"/></linearGradient></defs><g transform="translate(-435.34-526.79)" stroke="#1f2a47"><rect width="22.411" height="29.671" x="440.13" y="527.99" fill="url(#0)" fill-rule="evenodd" stroke="#373e44" stroke-linecap="round" stroke-width=".3" rx="1"/><path d="m65.46 27.963c-.727.052-1.343.663-1.343 1.526v4.103c0 .149-.11.276-.271.276h-1.282c-2.774.003-2.528-3.542-.166-3.547h1.417v-1.031h-1.469c-.941 0-1.638.351-2.109.875-.471.524-.707 1.229-.708 1.932-.0001.703.232 1.404.714 1.927.482.523 1.21.875 2.208.875h2.417c.16 0 .292-.138.292-.297v-5c-.0001-.257.144-.458.333-.516.189-.058.411.015.541.204l.005.006c.688 1.124 3.417 5.502 3.421 5.51.075.107.164.125.229.105.065-.022.131-.092.13-.266v-5.04c-.0001-.257.144-.458.333-.516.189-.058.406.015.537.204v.006h.001c.688 1.124 3.417 5.502 3.421 5.51.074.106.161.127.229.105.068-.022.136-.088.135-.261v-6.655h-1.036v3.884c0 0-.618-1.056-1.676-2.874-1.037-1.781-2.994-1.044-2.994.49v2.385c0 0-.607-1.056-1.667-2.874-.453-.779-1.086-1.077-1.651-1.036m-2.932.026c-5.767 0-5.711 8.218.078 8.223h2.265c.974 0 1.595-.576 1.594-1.64v-2.083c0 0 1.272 2.102 1.771 2.926.847 1.4 2.895 1.124 2.89-.625v-2.301c0 0 1.267 2.102 1.766 2.926.847 1.4 2.901 1.124 2.895-.625v-6.802h-1.036v6.655c.0001.255-.133.444-.318.505-.185.06-.397-.015-.526-.198h-.005v-.001c0 0-2.73-4.366-3.427-5.505-.002-.002-.003.002-.005 0-.0001 0 .0001-.006 0-.006-.072-.096-.164-.117-.24-.093-.078.024-.152.091-.151.261v5.04c.0001.254-.13.454-.312.516-.183.062-.393-.02-.52-.204v-.005h-.005c0 0-2.732-4.375-3.427-5.51-.073-.103-.166-.129-.244-.105-.078.024-.152.091-.151.261v.006 5c0 .304-.25.558-.552.558h-2.417c-1.06 0-1.865-.382-2.396-.958-.531-.576-.793-1.341-.792-2.104.0001-.762.263-1.532.781-2.109.518-.576 1.296-.957 2.301-.958h1.469v-1.042h-1.286z" transform="matrix(.79754 0 0 .79754 397.6 517.36)" fill="#373e44" stroke="none"/></g></svg>