<svg xmlns="http://www.w3.org/2000/svg" viewBox="0 0 32 32"><defs><linearGradient id="0" x1="452.11" y1="556.82" x2="451.76" y2="528.82" gradientUnits="userSpaceOnUse"><stop stop-color="#7737c5"/><stop offset="1" stop-color="#9371ff"/></linearGradient></defs><g transform="translate(-42.774-15.546)"><rect width="22.411" height="29.671" x="440.55" y="528.02" fill="url(#0)" fill-rule="evenodd" stroke="#3f286c" stroke-linecap="round" stroke-width=".3" rx="1" transform="translate(-392.99-511.28)"/><path d="m53.22 37.07c.119.286.398.472.707.472h9.702c.423 0 .766-.343.766-.766v-2.298c0-.423-.343-.766-.766-.766-.423 0-.766.343-.766.766v1.532h-7.095l3.508-3.532c.281-.283.298-.734.039-1.037l-3.727-4.367h7.275v.511c0 .423.343.766.766.766.423 0 .766-.343.766-.766v-1.277c0-.423-.343-.766-.766-.766h-9.702c-.299 0-.57.174-.695.445-.125.271-.081.591.113.818l4.348 5.094-4.308 4.337c-.218.219-.283.548-.164.834" fill="#fff"/></g></svg>