<svg xmlns="http://www.w3.org/2000/svg" viewBox="0 0 32 32"><defs><linearGradient id="0" x1="451.69" y1="556.79" x2="451.34" y2="528.79" gradientUnits="userSpaceOnUse"><stop stop-color="#1b92f4"/><stop offset="1" stop-color="#20b9fa"/></linearGradient></defs><g transform="translate(-435.34-526.79)" stroke="#1f2a47"><rect width="22.411" height="29.671" x="440.13" y="527.99" fill="url(#0)" fill-rule="evenodd" stroke="#0c426b" stroke-linecap="round" stroke-width=".3" rx="1"/><g transform="matrix(.54545 0 0 .54545 219.7 248.31)" fill="#fff" stroke="none"><path d="m420.72 551.24q-1.849 0-2.93-1.081-1.057-1.081-1.057-2.882v-4.107q0-.985-.504-1.489-.504-.528-1.273-.528v-1.825q.769 0 1.273-.504.504-.528.504-1.513v-4.107q0-1.801 1.057-2.882 1.081-1.081 2.93-1.081h.528v1.825h-.528q-.841 0-1.417.6-.552.6-.552 1.609v4.107q0 2.186-1.657 2.81v.096q1.657.576 1.657 2.81v4.107q0 1.01.552 1.609.576.6 1.417.6h.528v1.825h-.528"/><path d="m428.62 551.24h-.528v-1.825h.528q.841 0 1.393-.6.576-.6.576-1.609v-4.107q0-2.234 1.657-2.81v-.096q-1.657-.624-1.657-2.81v-4.107q0-1.01-.576-1.609-.552-.6-1.393-.6h-.528v-1.825h.528q1.849 0 2.906 1.081 1.081 1.081 1.081 2.882v4.107q0 .985.504 1.513.504.504 1.273.504v1.825q-.769 0-1.273.528-.504.504-.504 1.489v4.107q0 1.801-1.081 2.882-1.057 1.081-2.906 1.081"/></g></g></svg>