<svg xmlns="http://www.w3.org/2000/svg" viewBox="0 0 32 32"><defs><linearGradient id="0" x1="451.69" y1="556.79" x2="451.34" y2="528.79" gradientUnits="userSpaceOnUse"><stop stop-color="#8798a9"/><stop offset="1" stop-color="#aeb6be"/></linearGradient></defs><g transform="translate(-435.34-526.79)" stroke="#1f2a47"><rect width="22.411" height="29.671" x="440.13" y="527.99" fill="url(#0)" fill-rule="evenodd" stroke="#373e44" stroke-linecap="round" stroke-width=".3" rx="1"/><path d="m457.46839 527.88111a1.8 1.8 0 0 0 -1.8 1.8 1.8 1.8 0 0 0 1.2 1.69453v7.411a1.79999 1.79999 0 0 0 -1.2 1.69453 1.79999 1.79999 0 0 0 1.8 1.8 1.79999 1.79999 0 0 0 1.8 -1.8 1.79999 1.79999 0 0 0 -1.2 -1.69453v-7.411a1.8 1.8 0 0 0 1.2 -1.69453 1.8 1.8 0 0 0 -1.8 -1.8m4.2 0l-2.4 1.68 2.4 1.92v-1.2h1.2c.665 0 1.2.535 1.2 1.2v7.305a1.79999 1.79999 0 0 0 -1.2 1.69453 1.79999 1.79999 0 0 0 1.8 1.8 1.79999 1.79999 0 0 0 1.8 -1.8 1.79999 1.79999 0 0 0 -1.2 -1.69453v-7.305c0-1.33-1.072-2.334-2.4-2.4h-1.2v-1.2m-4.2 1.2a.6 .6 0 0 1 .6 .6 .6 .6 0 0 1 -.6 .6 .6 .6 0 0 1 -.6 -.6 .6 .6 0 0 1 .6 -.6m0 10.8a.59999 .59999 0 0 1 .6 .6 .59999 .59999 0 0 1 -.6 .6 .59999 .59999 0 0 1 -.6 -.6 .59999 .59999 0 0 1 .6 -.6m7.2 0a.59999 .59999 0 0 1 .6 .6 .59999 .59999 0 0 1 -.6 .6 .59999 .59999 0 0 1 -.6 -.6 .59999 .59999 0 0 1 .6 -.6" transform="matrix(.83333 0 0 .83333 67.12 97)" fill="#373e44" stroke="none"/></g></svg>