<svg xmlns="http://www.w3.org/2000/svg" viewBox="0 0 32 32"><defs><linearGradient id="0" x1="451.69" y1="556.79" x2="451.34" y2="528.79" gradientUnits="userSpaceOnUse"><stop stop-color="#2db07b"/><stop offset="1" stop-color="#43d38b"/></linearGradient></defs><g transform="translate(-435.34-526.79)" stroke="#1f2a47"><rect width="22.411" height="29.671" x="440.13" y="527.99" fill="url(#0)" fill-rule="evenodd" stroke="#144d36" stroke-linecap="round" stroke-width=".3" rx="1"/><path d="m451.43 548.99q-2.529 0-4.161-1.701-1.632-1.724-1.632-4.299 0-2.575 1.632-4.276 1.632-1.724 4.161-1.724 1.885 0 3.126.92 1.241.92 1.816 2.322l-1.931.805q-.874-2.115-3.149-2.115-1.402 0-2.483 1.149-1.057 1.149-1.057 2.92 0 1.77 1.057 2.92 1.08 1.149 2.483 1.149 2.368 0 3.264-2.115l1.885.805q-.575 1.379-1.862 2.322-1.264.92-3.149.92" fill="#144d36" stroke="none"/></g></svg>