<svg xmlns="http://www.w3.org/2000/svg" viewBox="0 0 32 32"><defs><linearGradient id="0" x1="451.69" y1="556.79" x2="451.34" y2="528.79" gradientUnits="userSpaceOnUse"><stop stop-color="#197cf1"/><stop offset="1" stop-color="#20bcfa"/></linearGradient></defs><g transform="translate(-435.34-526.79)" stroke="#1f2a47"><rect width="22.411" height="29.671" x="440.13" y="527.99" fill="url(#0)" fill-rule="evenodd" stroke="#0b3969" stroke-linecap="round" stroke-width=".3" rx="1"/><g transform="matrix(.75 0 0 .75 443-238.03)" fill="#0c3e6a" stroke="none"><path d="m11 3c-4.432 0-8 3.568-8 8 0 4.432 3.568 8 8 8 4.432 0 8-3.568 8-8 0-4.432-3.568-8-8-8" transform="translate(0 1030.36)" fill="#0b3969" stroke-width=".3"/><g stroke-width=".916" transform="matrix(.32738 0 0 .32738 3.57 1034.21)" fill="#1da0f6"><path d="m22.683 16.977c-2.028 0-3.465 1.646-3.465 3.672v12.485c0 2.028 1.437 3.671 3.465 3.671 2.027 0 3.463-1.643 3.463-3.671v-12.485c0-2.028-1.436-3.672-3.463-3.672"/><path d="m22.698 7.432c-2.095 0-3.795 1.699-3.795 3.795 0 2.095 1.7 3.793 3.795 3.793 2.093 0 3.793-1.698 3.793-3.793 0-2.096-1.7-3.795-3.793-3.795"/></g></g></g></svg>