<svg xmlns="http://www.w3.org/2000/svg" viewBox="0 0 32 32"><defs><linearGradient id="0" x1="451.69" y1="556.79" x2="451.34" y2="528.79" gradientUnits="userSpaceOnUse"><stop stop-color="#d1d7df"/><stop offset="1" stop-color="#e0e5e7"/></linearGradient></defs><g transform="translate(-435.34-526.79)" stroke="#1f2a47" fill-rule="evenodd"><rect width="22.411" height="29.671" x="440.13" y="527.99" fill="url(#0)" stroke="#3d434a" stroke-linecap="round" stroke-width=".3" rx="1"/><path d="m71.37 18.838l6 11-6 11h3l6-11-6-11h-3m6 0l6 11-6 11h3l4.5-8.25 4.5 8.25h3l-4.801-8.801-.654-1.199-.545-1-6-11h-3m10.363 8l1.092 2h4.545v-2h-5.637m2.182 4l1.092 2h2.363v-2h-3.455" stroke="none" transform="matrix(.54546 0 0 .54546 406.2 526.72)" fill="#3d434a"/></g></svg>