<svg xmlns="http://www.w3.org/2000/svg" viewBox="0 0 32 32"><defs><linearGradient id="0" x1="451.69" y1="556.79" x2="451.34" y2="528.79" gradientUnits="userSpaceOnUse"><stop stop-color="#d1d7df"/><stop offset="1" stop-color="#e0e5e7"/></linearGradient></defs><g transform="translate(-435.34-526.79)" stroke="#1f2a47"><rect width="22.411" height="29.671" x="440.13" y="527.99" fill="url(#0)" fill-rule="evenodd" stroke="#3d434a" stroke-linecap="round" stroke-width=".3" rx="1"/><path d="m432.87 549.65q-.261.275-.66.275-.399 0-.674-.275-.261-.275-.261-.66 0-.385.261-.66.275-.275.674-.275.399 0 .66.275.275.275.275.66 0 .385-.275.66m-.014-2.86h-1.293v-.646q0-.619.261-1.059.261-.454.921-1.059.371-.344.522-.509.165-.179.316-.481.165-.316.165-.646 0-.633-.413-1.018-.399-.385-1.114-.385-1.183 0-1.623 1.32l-1.183-.495q.289-.784.99-1.403.715-.633 1.815-.633 1.251 0 2.035.742.784.729.784 1.87 0 .495-.261 1-.261.509-.467.729-.192.206-.55.536-.041.041-.069.069-.839.756-.839 1.513v.55" transform="matrix(1.18256 0 0 1.18256-60.16-101.4)" fill="#3d434a" stroke="none"/></g></svg>