<svg xmlns="http://www.w3.org/2000/svg" viewBox="0 0 32 32"><defs><linearGradient id="0" x1="451.69" y1="556.79" x2="451.34" y2="528.79" gradientUnits="userSpaceOnUse"><stop stop-color="#197cf1"/><stop offset="1" stop-color="#20bcfa"/></linearGradient></defs><g transform="translate(-435.34-526.79)" stroke="#1f2a47"><rect width="22.411" height="29.671" x="440.13" y="527.99" fill="url(#0)" fill-rule="evenodd" stroke="#0b3969" stroke-linecap="round" stroke-width=".3" rx="1"/><path d="m453.01 544.25c-.075-.025-.551-.239-.254-1.144h-.004c.776-.799 1.368-2.084 1.368-3.349 0-1.946-1.294-2.966-2.798-2.966-1.505 0-2.791 1.02-2.791 2.966 0 1.271.589 2.561 1.37 3.358.304.798-.24 1.094-.353 1.135-1.06.343-3.944 2.052-3.899 4.541h11.394c.051-2.378-2.23-3.922-4.03-4.541" fill="#0b3969" stroke="none"/></g></svg>