<svg xmlns="http://www.w3.org/2000/svg" xmlns:xlink="http://www.w3.org/1999/xlink" viewBox="0 0 32 32"><defs><linearGradient gradientUnits="userSpaceOnUse" y2="352.98" x2="-601.15" y1="663.95" x1="-591.02" id="3"><stop stop-color="#289bf7"/><stop offset="1" stop-color="#4caaf4"/></linearGradient><linearGradient xlink:href="#1" id="4" x1="390.78" y1="543.84" x2="391.24" y2="528.79" gradientUnits="userSpaceOnUse"/><linearGradient gradientUnits="userSpaceOnUse" y2="354.29" x2="-704.05" y1="647.77" x1="-701.19" id="2"><stop stop-color="#9fd2fa"/><stop offset="1" stop-color="#cde8fe"/></linearGradient><linearGradient xlink:href="#1" id="0" x1="59.12" y1="-13.295" x2="59.15" y2="-37.783" gradientUnits="userSpaceOnUse" gradientTransform="matrix(4.17478 0 0 4.16765-1069.7 447.73)"/><linearGradient id="1"><stop stop-color="#289bf7"/><stop offset="1" stop-color="#71b9f1"/></linearGradient></defs><g transform="translate(-384.57-515.8)"><g transform="matrix(.0558 0 0 .0558 437.31 505.35)"><path d="m-884.1 294.78c-4.626 0-8.349 3.718-8.349 8.335v161.41l468.19 1v-121.2c0-4.618-3.724-8.335-8.35-8.335h-272.65c-8.51.751-9.607-.377-13.812-5.981-5.964-7.968-14.969-21.443-20.84-29.21-4.712-6.805-5.477-6.02-13.292-6.02z" fill="url(#0)" color="#000"/><rect y="356.85" x="-890.28" height="295.13" width="463.85" fill="url(#2)" stroke="url(#2)" stroke-width="2.378" rx="9.63"/><rect y="356.85" x="-890.28" height="295.13" width="463.85" fill="none" stroke="url(#3)" stroke-linejoin="round" stroke-linecap="round" stroke-width="5.376" rx="9.63"/></g><path d="m398.38 530.3c-.83-.821-1.978-1.232-3.443-1.232-.405 0-.819.071-1.241.213-.422.142-.814.334-1.177.576-.363.242-.675.468-.937.68-.261.212-.51.437-.745.675-.235-.238-.484-.463-.745-.675-.262-.212-.574-.439-.937-.68-.363-.242-.755-.434-1.177-.576-.422-.142-.835-.213-1.241-.213-1.465 0-2.612.411-3.443 1.232-.83.821-1.246 1.96-1.246 3.416 0 .444.077.901.231 1.371.154.47.329.871.525 1.202.196.331.418.654.667.968.248.315.43.531.544.65.114.119.204.205.27.258l6.121 5.979c.118.119.262.179.432.179.17 0 .314-.06.432-.179l6.111-5.959c1.497-1.516 2.246-3.01 2.246-4.469 0-1.457-.415-2.595-1.246-3.416" fill="url(#4)" transform="matrix(.7233 0 0 .72108 117.87 146.69)"/></g></svg>