<svg xmlns="http://www.w3.org/2000/svg" xmlns:xlink="http://www.w3.org/1999/xlink" viewBox="0 0 32 32"><defs><linearGradient gradientUnits="userSpaceOnUse" y2="505.99" x2="414.78" y1="535.69" x1="415.75" id="3"><stop stop-color="#289bf7"/><stop offset="1" stop-color="#4caaf4"/></linearGradient><linearGradient xlink:href="#1" id="4" x1="409.26" y1="531.16" x2="409.37" y2="509.99" gradientUnits="userSpaceOnUse"/><linearGradient gradientUnits="userSpaceOnUse" y2="354.29" x2="-704.05" y1="647.77" x1="-701.19" id="2"><stop stop-color="#9fd2fa"/><stop offset="1" stop-color="#cde8fe"/></linearGradient><linearGradient xlink:href="#1" id="0" x1="59.12" y1="-13.295" x2="59.15" y2="-37.783" gradientUnits="userSpaceOnUse" gradientTransform="matrix(4.17478 0 0 4.16765-1069.7 447.73)"/><linearGradient id="1"><stop stop-color="#289bf7"/><stop offset="1" stop-color="#71b9f1"/></linearGradient></defs><g transform="matrix(.58436 0 0 .58436-223.19-286.48)" fill="#60aae5"><path d="m-884.1 294.78c-4.626 0-8.349 3.718-8.349 8.335v161.41l468.19 1v-121.2c0-4.618-3.724-8.335-8.35-8.335h-272.65c-8.51.751-9.607-.377-13.812-5.981-5.964-7.968-14.969-21.443-20.84-29.21-4.712-6.805-5.477-6.02-13.292-6.02z" transform="matrix(.09549 0 0 .09549 472.19 472.28)" fill="url(#0)" color="#000"/><rect width="463.85" height="295.13" x="-890.28" y="356.85" transform="matrix(.09549 0 0 .09549 472.19 472.28)" fill="url(#2)" stroke="url(#2)" stroke-width="2.378" rx="9.63"/><rect width="44.29" height="28.18" x="387.17" y="506.36" fill="none" stroke="url(#3)" stroke-linejoin="round" stroke-linecap="round" stroke-width=".513" rx=".92"/><path d="m408.2 510.31c-.5 0-.904.403-.904.904v.224c0 .5.403.904.904.904h2.259c.5 0 .904-.403.904-.904v-.224c0-.5-.403-.904-.904-.904h-2.259m.044 3.02c-.5 0-.904.403-.904.904v.224c0 .5.403.904.904.904h2.259c.5 0 .904-.403.904-.904v-.224c0-.5-.403-.904-.904-.904h-2.259m0 2.969c-.5 0-.904.403-.904.904v.228c0 .5.403.904.904.904h2.259c.5 0 .904-.403.904-.904v-.228c0-.5-.403-.904-.904-.904h-2.259m0 3.04c-.5 0-.904.403-.904.904v.228c0 .5.403.904.904.904h2.259c.5 0 .904-.403.904-.904v-.228c0-.5-.403-.904-.904-.904h-2.259m.18 3.074c-.356 0-.645.292-.645.649v1.281l-.995 2.938c-.279.819-.146 1.73.357 2.436.502.704 1.318 1.124 2.181 1.124.863 0 1.678-.421 2.181-1.124.502-.705.635-1.617.357-2.436l-.995-2.938v-1.281c0-.357-.289-.649-.645-.649h-1.794m-.078 4.304h1.95l.336.985c.143.422.072.893-.187 1.257-.517.726-1.732.726-2.249 0-.259-.364-.33-.834-.187-1.257l.336-.985" opacity=".929" fill="url(#4)"/></g></svg>