<svg xmlns="http://www.w3.org/2000/svg" xmlns:xlink="http://www.w3.org/1999/xlink" viewBox="0 0 32 32"><defs><linearGradient gradientUnits="userSpaceOnUse" y2="525.05" x2="403.76" y1="542.4" x1="404.33" id="3"><stop stop-color="#289bf7"/><stop offset="1" stop-color="#4caaf4"/></linearGradient><linearGradient xlink:href="#1" id="4" x1="400.85" y1="538.78" x2="400.56" y2="527.59" gradientUnits="userSpaceOnUse"/><linearGradient gradientUnits="userSpaceOnUse" y2="354.29" x2="-704.05" y1="647.77" x1="-701.19" id="2"><stop stop-color="#9fd2fa"/><stop offset="1" stop-color="#cde8fe"/></linearGradient><linearGradient xlink:href="#1" id="0" x1="59.12" y1="-13.295" x2="59.15" y2="-37.783" gradientUnits="userSpaceOnUse" gradientTransform="matrix(4.17478 0 0 4.16765-1069.7 447.73)"/><linearGradient id="1"><stop stop-color="#289bf7"/><stop offset="1" stop-color="#71b9f1"/></linearGradient></defs><g transform="translate(-384.57-515.84)"><path d="m-884.1 294.78c-4.626 0-8.349 3.718-8.349 8.335v161.41l468.19 1v-121.2c0-4.618-3.724-8.335-8.35-8.335h-272.65c-8.51.751-9.607-.377-13.812-5.981-5.964-7.968-14.969-21.443-20.84-29.21-4.712-6.805-5.477-6.02-13.292-6.02z" transform="matrix(.0558 0 0 .0558 437.31 505.35)" fill="url(#0)" color="#000"/><rect width="463.85" height="295.13" x="-890.28" y="356.85" transform="matrix(.0558 0 0 .0558 437.31 505.35)" fill="url(#2)" stroke="url(#2)" stroke-width="2.378" rx="9.63"/><rect width="25.884" height="16.469" x="387.63" y="525.26" fill="none" stroke="url(#3)" stroke-linejoin="round" stroke-linecap="round" stroke-width=".3" rx=".537"/><path d="m400.56 527.59c-.213.249-1.58 1.083-1.811 1.225-.568.426-.744 1.048-.709 1.35.009.073.018.142.031.211.029.016.055.037.076.064l2.039 2.668c.042-.014.083-.029.127-.039v-.988c0-.136.11-.246.246-.246.136 0 .246.11.246.246v.988c.075.016.148.039.217.068l2.033-2.805c.009-.055.018-.11.025-.168.035-.302-.143-.924-.711-1.35-.231-.142-1.597-.976-1.811-1.225m3.689 2.855c-.269-.029-.499.009-.637.072-.044.02-.086.04-.127.061l-2.064 2.848c.056.061.103.128.145.199l.943-.307c.128-.042.268.029.311.158.042.129-.029.267-.158.309l-.945.307c.004.039.014.077.014.117 0 .004-.002.008-.002.012l3.311 1.113c.043-.007.087-.014.131-.023.298-.06.833-.42 1.063-1.092.064-.263.435-1.82.605-2.1-.301-.126-1.516-1.168-1.723-1.344-.29-.204-.597-.301-.865-.33m-7.348.043c-.268.029-.575.126-.865.33-.206.175-1.421 1.218-1.723 1.344.171.279.54 1.837.604 2.1.23.672.767 1.032 1.064 1.092.067.014.132.024.197.033l3.223-1.086c-.002-.031-.001-.06-.001-.092 0-.04.008-.078.012-.117l-.945-.307c-.129-.042-.2-.181-.158-.311.042-.129.182-.2.311-.158l.943.307c.057-.097.126-.185.207-.262l-2.01-2.623c-.022-.029-.035-.059-.043-.092-.056-.03-.114-.058-.174-.086-.138-.063-.368-.102-.637-.072m3.658 3.045c-.017 0-.031.003-.047.004-.114.008-.221.044-.313.102-.004.003-.001.005-.014.008-.047.031-.087.068-.125.109-.11.12-.178.278-.178.453 0 .062.001.121.025.178.0001.005.004.001.006.016.083.279.339.484.645.484.005 0 .012-.002.018-.002.005 0 .001-.002.016-.002.297-.014.541-.219.617-.496.002-.005.005-.001.006-.016.013-.052.022-.106.022-.162 0-.223-.111-.419-.277-.543-.004-.003-.007-.007-.012-.001-.111-.078-.244-.123-.389-.123m1.056 1.17c-.048.104-.112.197-.188.281l.582.803c.08.11.056.264-.055.344-.044.032-.094.047-.145.047-.076 0-.151-.036-.199-.102l-.582-.799c-.055.025-.113.041-.172.057v3.441c.019.037.039.075.06.113.149.265.657.663 1.367.674.27-.021 1.867-.15 2.186-.074.026-.326.641-1.804.744-2.055.209-.679-.012-1.284-.219-1.508-.041-.044-.081-.086-.123-.127l-3.258-1.096m-2.074.07l-3.262 1.1c-.026.026-.051.052-.076.08-.206.223-.428.83-.219 1.508.103.251.718 1.728.744 2.055.318-.076 1.915.053 2.186.074.71-.011 1.217-.409 1.365-.674.031-.055.059-.108.086-.162v-3.395c-.098-.016-.189-.043-.277-.082l-.582.801c-.048.067-.123.1-.199.1-.05 0-.101-.015-.145-.047-.11-.08-.135-.232-.055-.342l.584-.803c-.058-.065-.108-.136-.15-.213" fill="url(#4)"/></g></svg>