<svg xmlns="http://www.w3.org/2000/svg" xmlns:xlink="http://www.w3.org/1999/xlink" viewBox="0 0 32 32"><defs><path d="m69.63 12.145h-.052c-22.727-.292-46.47 4.077-46.709 4.122-2.424.451-4.946 2.974-5.397 5.397-.044.237-4.414 23.983-4.122 46.71-.292 22.777 4.078 46.523 4.122 46.761.451 2.423 2.974 4.945 5.398 5.398.237.044 23.982 4.413 46.709 4.121 22.779.292 46.524-4.077 46.761-4.121 2.423-.452 4.946-2.976 5.398-5.399.044-.236 4.413-23.981 4.121-46.709.292-22.777-4.077-46.523-4.121-46.761-.453-2.423-2.976-4.946-5.398-5.397-.238-.045-23.984-4.414-46.71-4.122" id="N"/><clipPath><use xlink:href="#N"/></clipPath><linearGradient xlink:href="#1" id="F" x1="400.65" y1="539.76" x2="400.56" y2="527.59" gradientUnits="userSpaceOnUse"/><linearGradient xlink:href="#1" id="E" x1="15.967" y1="23.953" x2="16.03" y2="11.783" gradientUnits="userSpaceOnUse"/><linearGradient xlink:href="#1" id="D" x1="492.15" y1="549.88" x2="491.98" y2="537.79" gradientUnits="userSpaceOnUse"/><linearGradient xlink:href="#1" id="G" x1="1762.05" y1="1644.32" x2="1724.85" y2="226.71" gradientUnits="userSpaceOnUse"/><linearGradient xlink:href="#1" id="H" x1="400.42" y1="539.7" x2="400.56" y2="527.62" gradientUnits="userSpaceOnUse"/><linearGradient xlink:href="#1" id="L" x1="232.53" y1="114.57" x2="236.29" y2="-347.19" gradientUnits="userSpaceOnUse"/><linearGradient xlink:href="#1" id="M" x1="256.96" y1="1708.49" x2="269.72" y2="225.6" gradientUnits="userSpaceOnUse"/><linearGradient xlink:href="#1" id="K" x1="-104.54" y1="921.19" x2="-102.47" y2="746.92" gradientUnits="userSpaceOnUse"/><linearGradient xlink:href="#1" id="I" x1="201.85" y1="414.36" x2="203.08" y2="-.136" gradientUnits="userSpaceOnUse"/><linearGradient xlink:href="#1" id="J" x1="46.724" y1="86.25" x2="47.46" y2="4.54" gradientUnits="userSpaceOnUse"/><linearGradient xlink:href="#1" id="C" x1="255.16" y1="1617.08" x2="285.99" y2="172.39" gradientUnits="userSpaceOnUse"/><linearGradient gradientUnits="userSpaceOnUse" y2="352.98" x2="-601.15" y1="663.95" x1="-591.02" id="3"><stop stop-color="#289bf7"/><stop offset="1" stop-color="#4caaf4"/></linearGradient><linearGradient xlink:href="#1" id="B" x1="391.64" y1="543.7" x2="391.65" y2="528.07" gradientUnits="userSpaceOnUse"/><linearGradient gradientUnits="userSpaceOnUse" y2="354.29" x2="-704.05" y1="647.77" x1="-701.19" id="2"><stop stop-color="#9fd2fa"/><stop offset="1" stop-color="#cde8fe"/></linearGradient><linearGradient xlink:href="#1" id="0" x1="59.12" y1="-13.295" x2="59.15" y2="-37.783" gradientUnits="userSpaceOnUse" gradientTransform="matrix(4.17478 0 0 4.16765-1069.7 447.73)"/><linearGradient id="1"><stop stop-color="#289bf7"/><stop offset="1" stop-color="#71b9f1"/></linearGradient><linearGradient xlink:href="#1" id="4" x1="401.03" y1="538.81" x2="400.87" y2="528.25" gradientUnits="userSpaceOnUse"/><linearGradient xlink:href="#1" id="A" x1="400.83" y1="539.21" x2="400.56" y2="527.87" gradientUnits="userSpaceOnUse"/><linearGradient xlink:href="#1" id="5" x1="398.65" y1="539.62" x2="398.07" y2="527.91" gradientUnits="userSpaceOnUse"/><linearGradient xlink:href="#1" id="9" x1="400.85" y1="538.78" x2="400.56" y2="527.59" gradientUnits="userSpaceOnUse"/><linearGradient xlink:href="#1" id="7" x1="399.11" y1="539.44" x2="398.46" y2="528.01" gradientUnits="userSpaceOnUse"/><linearGradient xlink:href="#1" id="6" x1="17.923" y1="23.875" x2="17.958" y2="11.992" gradientUnits="userSpaceOnUse"/><linearGradient xlink:href="#1" id="8" x1="32.672" y1="2.465" x2="32.844" y2="-21.02" gradientUnits="userSpaceOnUse"/></defs><g transform="translate(-384.57-515.8)"><path d="m397.7 530.92c-.383-.298-.864-.476-1.387-.476-1.23 0-2.231.984-2.263 2.21-1.27.478-2.174 1.706-2.174 3.146 0 1.701 1.261 3.107 2.897 3.328v.03h11.589v-.005c1.616-.094 2.897-1.438 2.897-3.081 0-1.585-1.192-2.891-2.726-3.066.006-.097.001-.194.001-.292 0-2.457-2.067-4.448-4.617-4.448-1.888 0-3.511 1.091-4.227 2.654" fill="url(#4)"/><path d="m405.83 530.77c-.543-.934-1.281-1.673-2.212-2.218-.931-.545-1.948-.817-3.051-.817-1.103 0-2.12.273-3.051.817-.931.545-1.668 1.284-2.212 2.218-.543.934-.815 1.953-.815 3.059 0 1.328.386 2.522 1.159 3.583.773 1.061 1.771 1.795 2.995 2.202.142.027.248.008.317-.055.069-.063.103-.143.103-.238 0-.016-.0001-.159-.004-.428-.003-.27-.004-.505-.004-.706l-.182.032c-.116.021-.262.03-.439.028-.177-.002-.36-.021-.55-.056-.19-.034-.367-.114-.53-.238-.163-.124-.28-.287-.348-.488l-.079-.183c-.053-.122-.136-.257-.249-.405-.113-.148-.228-.249-.344-.302l-.055-.04c-.037-.027-.071-.058-.103-.095-.032-.037-.055-.074-.071-.111-.016-.037-.003-.067.039-.091.042-.024.119-.035.23-.035l.158.024c.105.021.236.085.392.19.156.106.284.243.384.412.121.217.268.382.439.496.171.114.344.171.518.171.174 0 .324-.013.451-.04.127-.026.245-.066.356-.119.048-.355.177-.627.388-.817-.301-.032-.571-.08-.811-.143-.24-.063-.488-.167-.744-.31-.256-.143-.468-.32-.637-.532-.169-.212-.307-.489-.415-.833-.108-.344-.162-.741-.162-1.19 0-.64.208-1.185.625-1.635-.195-.481-.177-1.021.055-1.619.153-.048.38-.012.681.107.301.119.521.221.661.306.14.085.252.156.336.214.491-.138.997-.206 1.519-.206.522 0 1.029.069 1.52.206l.301-.19c.206-.127.448-.243.728-.349.28-.106.493-.135.641-.087.237.598.258 1.137.063 1.619.417.45.625.995.625 1.635 0 .45-.054.848-.162 1.194-.108.347-.248.624-.419.833-.172.209-.385.385-.641.528-.256.143-.504.246-.744.31-.24.063-.51.111-.811.143.274.238.411.614.411 1.127v1.674c0 .095.033.175.099.238.066.063.17.082.313.056 1.224-.407 2.222-1.141 2.995-2.202.773-1.061 1.159-2.255 1.159-3.583 0-1.105-.272-2.125-.815-3.059z" fill="url(#5)" stroke="url(#5)" stroke-width=".26"/><path d="m19.852 12.309c-2.496 0-2.965 3.555-1.561 3.555 1.404 0 4.057-3.555 1.561-3.555m-3.982.443c-1.405.182-.91 2.626-.162 2.672.748.046 1.567-2.854.162-2.672m-2.354.961c-.062.007-.129.024-.199.053-1.129.466-.17 2.389.463 2.26.594-.121.66-2.411-.264-2.313m-1.754 1.506c-.098-.003-.205.029-.318.107-.904.625.304 2.132.836 1.898.465-.205.17-1.983-.518-2.01m5.162 1.154c-1.938-.033-4.494.938-4.93 2.891-.472 2.113 1.942 5.04 4.463 5.04 1.24 0 2.67-1.121 2.938-2.539.204-1.082-2.404-.647-2.311.068.112.858-.629 1.282-1.355.729-2.312-1.76 3.829-2.64 3.424-5.04-.126-.749-1.066-1.129-2.229-1.148" transform="matrix(.99999 0 0 .99999 384.17 515.4)" fill="url(#6)"/><path d="m397.49 531.61c.13 0 .257.019.376.056.45-.504.949-.963 1.489-1.37-.023-.095-.035-.195-.035-.297 0-.142.024-.278.067-.405-.606-.433-1.263-.798-1.964-1.079-.655.405-1.227.933-1.684 1.553.338.6.741 1.159 1.199 1.668.167-.081.354-.127.553-.127m-1.277 1.276c0-.179.038-.35.104-.504-.41-.451-.781-.937-1.105-1.454-.408.81-.639 1.725-.639 2.694 0 1.121.309 2.17.845 3.068.192-1.079.555-2.099 1.057-3.034-.163-.214-.26-.482-.26-.771m4.383-4.163c.337 0 .642.131.871.345.666-.286 1.367-.507 2.097-.647-.881-.508-1.902-.8-2.992-.8-.743 0-1.454.136-2.11.383.521.258 1.018.558 1.485.897.19-.113.412-.179.649-.179m1.908 6.01c.08-.166.192-.312.332-.428-.377-1.159-.974-2.22-1.743-3.132-.153.065-.321.1-.498.1-.277 0-.532-.089-.742-.238-.463.352-.892.745-1.281 1.176.123.195.194.425.194.672 0 .132-.02.261-.059.382 1.12.747 2.409 1.261 3.796 1.467m1.656 1.724c.017.242.027.485.027.731 0 .433-.027.86-.08 1.279 1.017-.743 1.792-1.799 2.183-3.03-.463.112-.938.192-1.422.238-.113.35-.373.632-.708.777m-1.955-.865c-1.482-.246-2.855-.811-4.05-1.62-.194.119-.422.188-.666.188-.091 0-.177-.009-.262-.027-.572 1.084-.938 2.294-1.043 3.577.571.613 1.268 1.107 2.051 1.438.973-1.495 2.332-2.732 3.97-3.556m2.395-6.419c-.962.093-1.88.335-2.735.697.004.043.006.086.006.128 0 .202-.048.391-.131.56.855 1 1.518 2.172 1.936 3.451.52.001.963.327 1.154.779.578-.059 1.14-.17 1.681-.329.039-.274.06-.554.06-.839-.0001-1.763-.761-3.35-1.973-4.447m-1.752 7.101c-1.529.716-2.807 1.819-3.732 3.167.466.117.954.179 1.457.179.905 0 1.762-.202 2.532-.56.124-.605.189-1.231.189-1.871 0-.232-.001-.461-.028-.688-.154-.05-.295-.126-.417-.227" fill="url(#7)"/><path d="m37.07-5.998c-.159-.052-1.164-.505-.536-2.414h-.009c1.637-1.686 2.888-4.399 2.888-7.07 0-4.107-2.731-6.26-5.905-6.26-3.176 0-5.892 2.152-5.892 6.26 0 2.682 1.244 5.406 2.891 7.088.642 1.684-.506 2.309-.746 2.396-2.238.724-8.325 4.332-8.229 9.586h24.05c.107-5.02-4.708-8.279-8.513-9.586" fill="url(#8)" transform="matrix(.47376 0 0 .47376 384.67 537.93)"/><path d="m400.56 527.59c-.213.249-1.58 1.083-1.811 1.225-.568.426-.744 1.048-.709 1.35.009.073.018.142.031.211.029.016.055.037.076.064l2.039 2.668c.042-.014.083-.029.127-.039v-.988c0-.136.11-.246.246-.246.136 0 .246.11.246.246v.988c.075.016.148.039.217.068l2.033-2.805c.009-.055.018-.11.025-.168.035-.302-.143-.924-.711-1.35-.231-.142-1.597-.976-1.811-1.225m3.689 2.855c-.269-.029-.499.009-.637.072-.044.02-.086.04-.127.061l-2.064 2.848c.056.061.103.128.145.199l.943-.307c.128-.042.268.029.311.158.042.129-.029.267-.158.309l-.945.307c.004.039.014.077.014.117 0 .004-.002.008-.002.012l3.311 1.113c.043-.007.087-.014.131-.023.298-.06.833-.42 1.063-1.092.064-.263.435-1.82.605-2.1-.301-.126-1.516-1.168-1.723-1.344-.29-.204-.597-.301-.865-.33m-7.348.043c-.268.029-.575.126-.865.33-.206.175-1.421 1.218-1.723 1.344.171.279.54 1.837.604 2.1.23.672.767 1.032 1.064 1.092.067.014.132.024.197.033l3.223-1.086c-.002-.031-.001-.06-.001-.092 0-.04.008-.078.012-.117l-.945-.307c-.129-.042-.2-.181-.158-.311.042-.129.182-.2.311-.158l.943.307c.057-.097.126-.185.207-.262l-2.01-2.623c-.022-.029-.035-.059-.043-.092-.056-.03-.114-.058-.174-.086-.138-.063-.368-.102-.637-.072m3.658 3.045c-.017 0-.031.003-.047.004-.114.008-.221.044-.313.102-.004.003-.001.005-.014.008-.047.031-.087.068-.125.109-.11.12-.178.278-.178.453 0 .062.001.121.025.178.0001.005.004.001.006.016.083.279.339.484.645.484.005 0 .012-.002.018-.002.005 0 .001-.002.016-.002.297-.014.541-.219.617-.496.002-.005.005-.001.006-.016.013-.052.022-.106.022-.162 0-.223-.111-.419-.277-.543-.004-.003-.007-.007-.012-.001-.111-.078-.244-.123-.389-.123m1.056 1.17c-.048.104-.112.197-.188.281l.582.803c.08.11.056.264-.055.344-.044.032-.094.047-.145.047-.076 0-.151-.036-.199-.102l-.582-.799c-.055.025-.113.041-.172.057v3.441c.019.037.039.075.06.113.149.265.657.663 1.367.674.27-.021 1.867-.15 2.186-.074.026-.326.641-1.804.744-2.055.209-.679-.012-1.284-.219-1.508-.041-.044-.081-.086-.123-.127l-3.258-1.096m-2.074.07l-3.262 1.1c-.026.026-.051.052-.076.08-.206.223-.428.83-.219 1.508.103.251.718 1.728.744 2.055.318-.076 1.915.053 2.186.074.71-.011 1.217-.409 1.365-.674.031-.055.059-.108.086-.162v-3.395c-.098-.016-.189-.043-.277-.082l-.582.801c-.048.067-.123.1-.199.1-.05 0-.101-.015-.145-.047-.11-.08-.135-.232-.055-.342l.584-.803c-.058-.065-.108-.136-.15-.213" fill="url(#9)"/><path d="m400.56 527.62c-.318 0-.605.19-.765.476l-5.448 10.286c-.128.254-.129.603.029.857.158.254.412.381.729.381h10.934c.318 0 .604-.159.732-.413.16-.254.161-.571.035-.857l-5.487-10.286c-.158-.286-.442-.444-.76-.444m.016 4.061c.268 0 .482.215.482.48v2.889c0 .262-.215.48-.482.48-.268 0-.48-.215-.48-.48v-2.889c0-.262.214-.48.48-.48m0 4.812c.267 0 .482.216.482.482 0 .266-.216.48-.482.48-.266 0-.48-.214-.48-.48 0-.266.214-.482.48-.482" fill="url(#A)"/><path d="m391.65 528.07q3.324 0 5.594 2.29 2.27 2.29 2.27 5.533 0 1.824-.79 3.02-.77 1.196-2.25 1.196-1.52 0-2.27-1.48-.993 1.48-2.837 1.48-1.662 0-2.797-1.155-1.135-1.176-1.135-2.979 0-1.784 1.135-2.959 1.135-1.176 2.716-1.176 1.561 0 2.594 1.196h.081v-.912h1.459v5.29q0 .527.284.953.304.426.912.426 1.439 0 1.439-2.898 0-2.675-1.865-4.52-1.865-1.844-4.54-1.844-2.675 0-4.54 1.844-1.865 1.844-1.865 4.52 0 2.675 1.865 4.52 1.865 1.844 4.54 1.844 1.439 0 2.574-.567l.567 1.378q-1.419.649-3.141.649-3.364 0-5.655-2.27-2.29-2.29-2.29-5.553 0-3.243 2.29-5.533 2.31-2.29 5.655-2.29m-1.885 9.789q.73.709 1.743.709 1.013 0 1.723-.709.73-.709.73-1.885 0-1.176-.73-1.885-.709-.709-1.723-.709-1.013 0-1.743.709-.709.709-.709 1.885 0 1.176.709 1.885" fill="url(#B)" stroke="none" transform="matrix(.78516 0 0 .78516 93.09 112.96)" stroke-width=".102"/><path d="m31.722 324.47c-54.47 15.561-98.31 77.46-98.31 137.59v953.28c-55.23-30.836-126.16-43.3-199.7-22.931-132.7 36.764-215.85 155.58-187.41 265.34 28.445 109.76 159.17 171.07 291.87 134.31 105.87-29.33 178.84-112.32 190.48-199.83l3.072-900.86 688.19-196.55v710.86c-55.23-30.836-126.16-43.3-199.7-22.93-132.7 36.764-215.85 155.58-187.41 265.34 28.445 109.76 159.17 171.07 291.87 134.31 105.87-29.33 178.84-112.32 190.48-199.83l3.072-1172.76c0-45.09-26.14-78.83-61.45-85.17l-725.06 199.83" fill="url(#C)" transform="matrix(.00781 0 0 .00773 398.39 526.26)"/><path d="m498.17 539.88h-1.648v-1.483c0-.303-.246-.549-.549-.549h-7.963c-.303 0-.549.246-.549.549v1.483h-1.648c-.303 0-.549.246-.549.549v5.382c0 .303.246.549.549.549h1.648v1.945.949c0 .183.037.32.179.449.066.06.136.099.222.124.08.022.158.02.239.02h3.891 3.891c.08 0 .159.002.239-.02.086-.024.156-.063.222-.124.142-.13.178-.266.178-.45v-.949-1.944h1.648c.303 0 .549-.246.549-.549v-5.382c0-.303-.246-.549-.549-.549m-2.197 9.419h-7.963v-4.339h7.963zm0-9.419h-7.963v-.934-.549h7.964v.549c0 .311 0 .622 0 .934" fill="url(#D)" transform="translate(-91.43-10.163)"/><path d="m15.355 11.969c-.288 0-.52.232-.52.52v.129c0 .288.232.52.52.52h1.299c.288 0 .52-.232.52-.52v-.129c0-.288-.232-.52-.52-.52h-1.299m.025 1.738c-.288 0-.52.232-.52.52v.129c0 .288.232.52.52.52h1.299c.288 0 .52-.232.52-.52v-.129c0-.288-.232-.52-.52-.52h-1.299m0 1.707c-.288 0-.52.232-.52.52v.131c0 .288.232.52.52.52h1.299c.288 0 .52-.232.52-.52v-.131c0-.288-.232-.52-.52-.52h-1.299m0 1.748c-.288 0-.52.232-.52.52v.131c0 .288.232.52.52.52h1.299c.288 0 .52-.232.52-.52v-.131c0-.288-.232-.52-.52-.52h-1.299m.104 1.768c-.205 0-.371.168-.371.373v.736l-.572 1.689c-.16.471-.084.995.205 1.4.289.405.758.646 1.254.646.496 0 .965-.242 1.254-.646.289-.405.365-.93.205-1.4l-.572-1.689v-.736c0-.205-.166-.373-.371-.373h-1.031m-.045 2.475h1.121l.193.566c.082.243.042.514-.107.723-.297.418-.996.418-1.293 0-.149-.209-.19-.48-.107-.723l.193-.566" transform="matrix(.99999 0 0 .99999 384.57 515.8)" opacity=".929" fill="url(#E)"/><path d="m400.56 527.72c-.814 0-1.588.161-2.331.48-1.476.633-2.556 1.706-3.19 3.184-.318.74-.472 1.515-.472 2.329 0 .814.154 1.596.472 2.337.634 1.478 1.715 2.557 3.19 3.19.743.319 1.517.48 2.331.48.814 0 1.593-.163 2.337-.48 1.488-.635 2.563-1.715 3.196-3.19.319-.743.48-1.523.48-2.337 0-.814-.161-1.586-.48-2.329-.633-1.476-1.708-2.55-3.196-3.184-.744-.317-1.523-.48-2.337-.48m-.372 2.201c.306 0 .557.251.557.557v3.812l2.162 1.69c.25.186.288.538.102.779-.102.139-.27.212-.437.212-.121 0-.24-.046-.342-.12l-2.384-1.855c-.13-.102-.214-.26-.214-.437v-4.081c0-.306.251-.557.557-.557" opacity=".99" fill="url(#F)"/><path d="m2471.63 955.19l-226.74-229.12c-21.602-21.791-14.868-45.09 14.899-51.863 0 0 24.588-5.602 54.872-36.2 65.02-65.65 64.957-172.24 0-237.8-65.05-65.68-170.41-65.68-235.42 0-30.32 30.594-35.8 55.4-35.8 55.4-6.703 30.13-29.828 36.873-51.37 15.02l-226.74-228.97c-21.571-21.822-56.914-21.822-78.48 0l-226.71 229c-21.541 21.853-14.868 45.21 14.899 51.955 0 0 24.618 5.602 54.872 36.13 64.927 65.65 65.02 172.18 0 237.89-64.988 65.65-170.5 65.59-235.42 0-30.25-30.625-35.8-55.46-35.8-55.46-6.672-30.1-29.828-36.843-51.4-15.05l-226.71 229.06c-21.571 21.791-21.571 57.43 0 79.22l226.71 229.06c21.571 21.792 14.868 45.15-14.899 51.924 0 0-24.588 5.602-54.872 36.2-65.02 65.68-65.02 172.15 0 237.8 64.988 65.62 170.41 65.68 235.42 0 30.32-30.594 35.8-55.4 35.8-55.4 6.703-30.13 29.828-36.873 51.37-15.02l226.74 228.96c21.571 21.822 56.914 21.822 78.48 0l226.77-229.03c21.571-21.792 14.868-45.21-14.899-51.924 0 0-24.649-5.602-54.903-36.13-65.05-65.68-65.02-172.18 0-237.89 64.988-65.65 170.41-65.71 235.42 0 30.28 30.595 35.769 55.46 35.769 55.46 6.703 30.1 29.797 36.904 51.4 15.11l226.74-229.12c21.571-21.791 21.571-57.43 0-79.22" fill="url(#G)" transform="matrix(.00788 0 0 .0078 386.98 525.96)"/><path d="m400.57099 527.623a6.00013 6.00013 0 0 0 -5.99956 6.00044 6.00013 6.00013 0 0 0 5.99956 5.99956 6.00013 6.00013 0 0 0 6.00044 -5.99956 6.00013 6.00013 0 0 0 -6.00044 -6.00044m1.514 2.672c.022.0001.048.011.069.017.106.03.195.121.226.227l1.093 3.981.573-.777c.058-.086.147-.146.251-.149h.425.192.016c.013 0 .026.014.026.026v.611c0 .013-.013.017-.025.017h-.017-.192-.26l-.841 1.17c-.144.19-.503.124-.573-.105l-.997-3.545-.685 2.261c-.042.128-.178.216-.312.219h-.477-.096-.234-.086-.243l-.928 3.072c-.046.167-.243.277-.408.227-.106-.03-.195-.121-.226-.227l-1.102-3.989-.563.777c-.058.087-.157.137-.26.139h-.416-.208-.026c-.012 0-.017-.005-.017-.017v-.611c0-.013.005-.026.017-.026h.026.208.26l.841-1.152c.144-.19.502-.123.572.105l.989 3.545.693-2.27c.042-.128.17-.225.304-.227h.486.086.234.096.234l.936-3.055c.035-.125.151-.219.278-.236.021-.002.039-.008.061-.008" fill="url(#H)"/><path d="m36.01 406.82h334.82c14.258 0 25.922-11.656 25.922-25.906v-355.01c0-14.217-11.673-25.906-25.922-25.906h-334.82c-14.29 0-25.939 11.689-25.939 25.906v355.01c0 14.25 11.649 25.906 25.939 25.906m297.5-375.13c0-4.3 3.52-7.771 7.779-7.771h24.304c4.292 0 7.763 3.471 7.763 7.771v25.03c0 4.3-3.471 7.771-7.763 7.771h-24.304c-4.259 0-7.779-3.463-7.779-7.771v-25.03m0 63.67c0-4.3 3.52-7.779 7.779-7.779h24.304c4.292 0 7.763 3.479 7.763 7.779v25.03c0 4.292-3.471 7.795-7.763 7.795h-24.304c-4.259 0-7.779-3.503-7.779-7.795v-25.03m0 63.72c0-4.292 3.52-7.795 7.779-7.795h24.304c4.292 0 7.763 3.503 7.763 7.795v25.04c0 4.259-3.471 7.763-7.763 7.763h-24.304c-4.259 0-7.779-3.503-7.779-7.763v-25.04m0 63.67c0-4.3 3.52-7.795 7.779-7.795h24.304c4.292 0 7.763 3.495 7.763 7.795v25.04c0 4.292-3.471 7.771-7.763 7.771h-24.304c-4.259 0-7.779-3.479-7.779-7.771v-25.04m0 63.67c0-4.3 3.52-7.771 7.779-7.771h24.304c4.292 0 7.763 3.463 7.763 7.771v25.05c0 4.276-3.471 7.755-7.763 7.755h-24.304c-4.259 0-7.779-3.479-7.779-7.755v-25.05m0 63.67c0-4.276 3.52-7.771 7.779-7.771h24.304c4.292 0 7.763 3.495 7.763 7.771v25.08c0 4.243-3.471 7.755-7.763 7.755h-24.304c-4.259 0-7.779-3.503-7.779-7.755v-25.08m-233.53-299.62c0-4.3 3.503-7.771 7.795-7.771h191.3c4.268 0 7.763 3.471 7.763 7.771v123.94c0 4.259-3.495 7.795-7.763 7.795h-191.3c-4.292 0-7.795-3.536-7.795-7.795-.0001 0-.0001-123.94-.0001-123.94m0 191.12c0-4.268 3.503-7.747 7.795-7.747h191.3c4.268 0 7.763 3.479 7.763 7.747v114.57c0 4.276-3.495 7.771-7.763 7.771h-191.3c-4.292 0-7.795-3.495-7.795-7.771-.0001 0-.0001-114.57-.0001-114.57m-66.52-209.91c0-4.3 3.495-7.771 7.779-7.771h24.313c4.268 0 7.755 3.471 7.755 7.771v25.03c0 4.3-3.487 7.771-7.755 7.771h-24.313c-4.284 0-7.779-3.463-7.779-7.771 0 0 0-25.03 0-25.03m0 63.67c0-4.3 3.495-7.779 7.779-7.779h24.313c4.268 0 7.755 3.479 7.755 7.779v25.03c0 4.292-3.487 7.795-7.755 7.795h-24.313c-4.284 0-7.779-3.503-7.779-7.795 0 0 0-25.03 0-25.03m0 63.72c0-4.292 3.495-7.795 7.779-7.795h24.313c4.268 0 7.755 3.503 7.755 7.795v25.04c0 4.259-3.487 7.763-7.755 7.763h-24.313c-4.284 0-7.779-3.503-7.779-7.763 0 0 0-25.04 0-25.04m0 63.67c0-4.3 3.495-7.795 7.779-7.795h24.313c4.268 0 7.755 3.495 7.755 7.795v25.04c0 4.292-3.487 7.771-7.755 7.771h-24.313c-4.284 0-7.779-3.479-7.779-7.771 0 0 0-25.04 0-25.04m0 63.67c0-4.3 3.495-7.771 7.779-7.771h24.313c4.268 0 7.755 3.463 7.755 7.771v25.05c0 4.276-3.487 7.755-7.755 7.755h-24.313c-4.284 0-7.779-3.479-7.779-7.755 0 0 0-25.05 0-25.05m0 63.67c0-4.276 3.495-7.771 7.779-7.771h24.313c4.268 0 7.755 3.495 7.755 7.771v25.08c0 4.243-3.487 7.755-7.755 7.755h-24.313c-4.284 0-7.779-3.503-7.779-7.755 0-.0001 0-25.08 0-25.08" fill="url(#I)" transform="matrix(.0295 0 0 .0295 394.57 527.73)"/><path d="m93.23 23.522c-1.104-.507-2.408-.324-3.33.471l-18.385 15.83v-18.05c0-1.778-1.447-3.226-3.226-3.226h-65.06c-1.778 0-3.225 1.447-3.225 3.226v51.51c0 1.777 1.446 3.226 3.225 3.226h65.06c1.777 0 3.227-1.446 3.227-3.226v-18.05l18.385 15.829c.922.796 2.228.978 3.33.472 1.106-.508 1.815-1.613 1.815-2.832v-42.34c-.0001-1.218-.709-2.323-1.817-2.831" fill="url(#J)" transform="matrix(.1473 0 0 .1473 393.57 527.05)"/><path d="m-67.45 887.53c-3.547 0-7.086-1.54-9.659-4.563-6.599-7.773-15.997-12.215-25.795-12.215-9.963 0-19.12 4.313-25.778 12.15-4.834 5.704-13.08 6.14-18.423.965-5.338-5.166-5.747-13.959-.904-19.645 11.494-13.532 27.934-21.296 45.1-21.296 17.14 0 33.585 7.782 45.11 21.342 4.843 5.695 4.434 14.488-.904 19.654-2.486 2.421-5.625 3.608-8.755 3.608m28.933-34.809c-3.33 0-6.66-1.354-9.198-4.053-14.762-15.666-34.36-24.291-55.19-24.291-20.874 0-40.479 8.607-55.22 24.24-5.103 5.417-13.363 5.389-18.44-.055-5.077-5.444-5.06-14.256.055-19.672 19.649-20.85 45.791-32.33 73.6-32.33 27.769 0 53.903 11.501 73.59 32.388 5.112 5.417 5.13 14.228.055 19.682-2.547 2.718-5.903 4.1-9.25 4.1zm28.873-34.754c-3.243 0-6.494-1.289-9.02-3.868-22.77-23.28-52.677-36.1-84.24-36.1-31.62 0-61.55 12.8-84.25 36.06-5.19 5.315-13.45 5.138-18.44-.408-4.99-5.547-4.817-14.358.373-19.672 27.595-28.25 63.927-43.806 102.32-43.806 38.31 0 74.64 15.573 102.29 43.834 5.199 5.315 5.373 14.13.392 19.672-2.565 2.847-5.99 4.285-9.416 4.285m-94.9 103.22c8.7 0 15.754-7.139 15.754-15.945 0-8.806-7.05-15.945-15.754-15.945-8.7 0-15.754 7.139-15.754 15.945 0 8.806 7.05 15.945 15.754 15.945" fill="url(#K)" transform="matrix(.07089 0 0 .07017 407.87 475.17)"/><g transform="matrix(.02646 0 0 .02646 394.28 536.78)" fill="#60aa5f"><path d="m272.47-343.97l-75.37 7.247v310.48l74.56-11.273v-132.37l100.33 146.87 78.59-24.961-102.74-141.23 103.55-133.18-80.2-18.358-99.52 133.18.805-136.4m-170.86 75.69c-.852.088-1.774.323-2.416.966l-29.631 29.631c-1.244 1.248-1.397 3.159-.483 4.67l34.623 57.17c-6.148 10.335-11.14 21.421-14.654 33.17l-63.61 13.205c-1.77.366-3.06 2.051-3.06 3.865v41.87c0 1.77 1.346 3.286 3.06 3.704l61.677 14.977c3.298 13.607 8.393 26.628 15.14 38.488l-35.75 54.43c-.997 1.52-.803 3.548.483 4.831l29.631 29.631c1.248 1.244 3.163 1.4 4.67.483l56.04-33.979c10.992 6.346 22.892 11.43 35.428 14.815l13.04 62.805c.366 1.775 1.891 3.06 3.704 3.06h41.87c1.757 0 3.286-1.18 3.704-2.899l15.46-63.13c12.929-3.486 25.12-8.661 36.39-15.299l55.24 36.23c1.523.992 3.54.8 4.831-.483l29.47-29.631c1.252-1.25 1.561-3.163.644-4.67l-20.13-33.17-6.603 2.093c-.953.294-2.01-.137-2.577-.966 0 0-12.716-18.705-29.31-42.997-19.845 38.832-60.32 65.38-106.93 65.38-66.24 0-119.97-53.737-119.97-119.97 0-48.722 29.14-90.57 70.857-109.34v-30.919c-7.593 2.658-14.929 5.864-21.901 9.662-.013-.008.013-.153 0-.161l-56.52-37.04c-.76-.497-1.563-.571-2.416-.483" fill="url(#L)"/></g><g transform="matrix(.07032 0 0 .06961 407.56 475.65)" fill="#60aa89"><g transform="matrix(.1177 0 0 .1177-131.57 724.01)"><path d="m123.18 740.62c-51.4-10.33-84.79-60.799-74.58-112.74 10.22-51.941 60.19-85.67 111.6-75.34 51.42 10.33 84.82 60.799 74.6 112.74-10.226 51.941-60.19 85.67-111.62 75.34"/><path d="m410.34 764.48c3.847.713 7.576 1.946 11.1 3.675l95.1 46.611c21.53 10.553 30.519 36.743 20.07 58.49-7.491 15.598-22.937 24.678-39.02 24.678-6.344 0-12.79-1.415-18.886-4.406l-89.8-44.01-39.835-7.379 30.643 145.67c.616 2.928 1.057 5.844 1.356 8.755l55.52 144.28 116.98 99.11c21.83 18.491 24.683 51.36 6.372 73.41-10.203 12.293-24.824 18.628-39.552 18.628-11.694 0-23.457-3.995-33.12-12.185l-127.11-107.7c-6.649-5.633-11.79-12.875-14.932-21.05l-39.592-102.89c-.864.075-1.723.097-2.582.137l-77.73 68.72-22.2 147.13c-3.892 25.791-25.875 44.27-50.936 44.27-2.587 0-5.203-.194-7.836-.6-28.16-4.337-47.518-30.916-43.22-59.37l25.04-165.95c1.836-12.156 7.864-23.263 17.02-31.361l75.54-66.792c-.147-.634-.35-1.244-.48-1.883l-29.388-139.7-39.13 30.876c-4.102 3.236-8.751 5.701-13.717 7.271l-111.45 35.28c-4.311 1.364-8.678 2.01-12.966 2.01-18.434 0-35.529-11.985-41.34-30.699-7.152-23.07 5.559-47.632 28.394-54.858l103.93-32.896 104.02-82.08c.864-.679 1.763-1.284 2.661-1.883 9.632-7.682 21.06-13.378 33.874-16.12 12.514-2.694 24.931-2.266 36.586.594l130.62 24.21"/></g><g transform="matrix(.11709 0 0 .11709-131.16 721.65)"><path d="m-884.1 294.78c-4.626 0-8.349 3.718-8.349 8.335v161.41l468.19 1v-121.2c0-4.618-3.724-8.335-8.35-8.335h-272.65c-8.51.751-9.607-.377-13.812-5.981-5.964-7.968-14.969-21.443-20.84-29.21-4.712-6.805-5.477-6.02-13.292-6.02z" transform="matrix(6.77679 0 0 6.84601 4732.43-2519.08)" fill="url(#0)" color="#000"/><rect width="463.85" height="295.13" x="-890.28" y="356.85" transform="matrix(6.77679 0 0 6.84601 4732.43-2519.08)" fill="url(#2)" stroke="url(#2)" stroke-width="2.378" rx="9.63"/><rect width="463.85" height="295.13" x="-890.28" y="356.85" transform="matrix(6.77679 0 0 6.84601 4732.43-2519.08)" fill="none" stroke="url(#3)" stroke-linejoin="round" stroke-linecap="round" stroke-width="5.376" rx="9.63"/><path d="m-498.03 1018.12l148.83 157.74 124.02-131.45v630.95h396.87 198.44 396.87v-630.95l124.02 131.45 148.83-157.74-768.94-814.97-768.94 814.97m1066.6-709.82v78.868l198.44 210.32v-289.18h-198.44z" fill="url(#M)"/></g></g></g></svg>