<svg xmlns="http://www.w3.org/2000/svg" xmlns:xlink="http://www.w3.org/1999/xlink" viewBox="0 0 32 32"><defs><linearGradient gradientUnits="userSpaceOnUse" y2="525.05" x2="403.76" y1="542.4" x1="404.33" id="3"><stop stop-color="#289bf7"/><stop offset="1" stop-color="#4caaf4"/></linearGradient><linearGradient xlink:href="#1" id="4" x1="400.85" y1="538.78" x2="400.56" y2="527.62" gradientUnits="userSpaceOnUse"/><linearGradient gradientUnits="userSpaceOnUse" y2="354.29" x2="-704.05" y1="647.77" x1="-701.19" id="2"><stop stop-color="#9fd2fa"/><stop offset="1" stop-color="#cde8fe"/></linearGradient><linearGradient xlink:href="#1" id="0" x1="59.12" y1="-13.295" x2="59.15" y2="-37.783" gradientUnits="userSpaceOnUse" gradientTransform="matrix(4.17478 0 0 4.16765-1069.7 447.73)"/><linearGradient id="1"><stop stop-color="#289bf7"/><stop offset="1" stop-color="#71b9f1"/></linearGradient></defs><g transform="translate(-384.57-515.84)"><path d="m-884.1 294.78c-4.626 0-8.349 3.718-8.349 8.335v161.41l468.19 1v-121.2c0-4.618-3.724-8.335-8.35-8.335h-272.65c-8.51.751-9.607-.377-13.812-5.981-5.964-7.968-14.969-21.443-20.84-29.21-4.712-6.805-5.477-6.02-13.292-6.02z" transform="matrix(.0558 0 0 .0558 437.31 505.35)" fill="url(#0)" color="#000"/><g><rect transform="matrix(.0558 0 0 .0558 437.31 505.35)" y="356.85" x="-890.28" height="295.13" width="463.85" fill="url(#2)" stroke="url(#2)" stroke-width="2.378" rx="9.63"/><rect y="525.26" x="387.63" height="16.469" width="25.884" fill="none" stroke="url(#3)" stroke-linejoin="round" stroke-linecap="round" stroke-width=".3" rx=".537"/><path d="m400.59 527.66c-.115 0-.232.044-.321.132l-5.558 5.531c-.177.176-.178.461-.002.638l5.531 5.558c.176.177.461.178.638.002l5.558-5.531c.177-.176.178-.461.002-.638l-5.529-5.558c-.088-.089-.204-.134-.319-.134m-1.108 3.1c.091-.019.187-.019.284 0 .389.077.644.456.566.845-.077.389-.457.642-.847.565-.389-.077-.642-.456-.565-.845.058-.292.287-.508.561-.565m.913 1.403c.095-.02.189-.016.277.005l.99.181c.029.005.057.015.084.028l.72.348c.163.079.232.276.153.439-.057.117-.174.185-.296.185-.048 0-.097-.011-.143-.033l-.68-.329-.303-.056.233 1.093c.004.022.008.044.001.066l.42 1.082.885.742c.165.139.187.385.049.551-.077.092-.188.139-.3.139-.089 0-.178-.029-.251-.091l-.962-.808c-.05-.042-.089-.096-.113-.157l-.3-.772c-.006.0001-.014 0-.021 0l-.589.516-.167 1.103c-.029.193-.195.333-.385.333-.02 0-.041-.002-.061-.005-.213-.033-.358-.231-.326-.444l.188-1.244c.014-.091.06-.175.129-.235l.573-.502c-.0001-.004-.003-.009-.004-.014l-.223-1.047-.296.232c-.031.024-.067.042-.105.054l-.843.265c-.033.001-.067.016-.099.016-.14 0-.268-.09-.312-.23-.054-.173.041-.359.214-.413l.788-.246.788-.615c.006-.005.014-.009.021-.014.073-.058.159-.101.256-.122" fill="url(#4)"/></g></g></svg>