<svg xmlns="http://www.w3.org/2000/svg" xmlns:xlink="http://www.w3.org/1999/xlink" viewBox="0 0 32 32"><defs><linearGradient gradientUnits="userSpaceOnUse" y2="525.05" x2="403.76" y1="542.4" x1="404.33" id="3"><stop stop-color="#289bf7"/><stop offset="1" stop-color="#4caaf4"/></linearGradient><linearGradient xlink:href="#1" id="4" x1="399.11" y1="539.44" x2="398.46" y2="528.01" gradientUnits="userSpaceOnUse"/><linearGradient gradientUnits="userSpaceOnUse" y2="354.29" x2="-704.05" y1="647.77" x1="-701.19" id="2"><stop stop-color="#9fd2fa"/><stop offset="1" stop-color="#cde8fe"/></linearGradient><linearGradient xlink:href="#1" id="0" x1="59.12" y1="-13.295" x2="59.15" y2="-37.783" gradientUnits="userSpaceOnUse" gradientTransform="matrix(4.17478 0 0 4.16765-1069.7 447.73)"/><linearGradient id="1"><stop stop-color="#289bf7"/><stop offset="1" stop-color="#71b9f1"/></linearGradient></defs><g transform="translate(-384.57-515.84)"><path d="m-884.1 294.78c-4.626 0-8.349 3.718-8.349 8.335v161.41l468.19 1v-121.2c0-4.618-3.724-8.335-8.35-8.335h-272.65c-8.51.751-9.607-.377-13.812-5.981-5.964-7.968-14.969-21.443-20.84-29.21-4.712-6.805-5.477-6.02-13.292-6.02z" transform="matrix(.0558 0 0 .0558 437.31 505.35)" fill="url(#0)" color="#000"/><rect width="463.85" height="295.13" x="-890.28" y="356.85" transform="matrix(.0558 0 0 .0558 437.31 505.35)" fill="url(#2)" stroke="url(#2)" stroke-width="2.378" rx="9.63"/><rect width="25.884" height="16.469" x="387.63" y="525.26" fill="none" stroke="url(#3)" stroke-linejoin="round" stroke-linecap="round" stroke-width=".3" rx=".537"/><path d="m397.49 531.61c.13 0 .257.019.376.056.45-.504.949-.963 1.489-1.37-.023-.095-.035-.195-.035-.297 0-.142.024-.278.067-.405-.606-.433-1.263-.798-1.964-1.079-.655.405-1.227.933-1.684 1.553.338.6.741 1.159 1.199 1.668.167-.081.354-.127.553-.127m-1.277 1.276c0-.179.038-.35.104-.504-.41-.451-.781-.937-1.105-1.454-.408.81-.639 1.725-.639 2.694 0 1.121.309 2.17.845 3.068.192-1.079.555-2.099 1.057-3.034-.163-.214-.26-.482-.26-.771m4.383-4.163c.337 0 .642.131.871.345.666-.286 1.367-.507 2.097-.647-.881-.508-1.902-.8-2.992-.8-.743 0-1.454.136-2.11.383.521.258 1.018.558 1.485.897.19-.113.412-.179.649-.179m1.908 6.01c.08-.166.192-.312.332-.428-.377-1.159-.974-2.22-1.743-3.132-.153.065-.321.1-.498.1-.277 0-.532-.089-.742-.238-.463.352-.892.745-1.281 1.176.123.195.194.425.194.672 0 .132-.02.261-.059.382 1.12.747 2.409 1.261 3.796 1.467m1.656 1.724c.017.242.027.485.027.731 0 .433-.027.86-.08 1.279 1.017-.743 1.792-1.799 2.183-3.03-.463.112-.938.192-1.422.238-.113.35-.373.632-.708.777m-1.955-.865c-1.482-.246-2.855-.811-4.05-1.62-.194.119-.422.188-.666.188-.091 0-.177-.009-.262-.027-.572 1.084-.938 2.294-1.043 3.577.571.613 1.268 1.107 2.051 1.438.973-1.495 2.332-2.732 3.97-3.556m2.395-6.419c-.962.093-1.88.335-2.735.697.004.043.006.086.006.128 0 .202-.048.391-.131.56.855 1 1.518 2.172 1.936 3.451.52.001.963.327 1.154.779.578-.059 1.14-.17 1.681-.329.039-.274.06-.554.06-.839-.0001-1.763-.761-3.35-1.973-4.447m-1.752 7.101c-1.529.716-2.807 1.819-3.732 3.167.466.117.954.179 1.457.179.905 0 1.762-.202 2.532-.56.124-.605.189-1.231.189-1.871 0-.232-.001-.461-.028-.688-.154-.05-.295-.126-.417-.227" fill="url(#4)"/></g></svg>