<svg xmlns="http://www.w3.org/2000/svg" xmlns:xlink="http://www.w3.org/1999/xlink" viewBox="0 0 32 32"><defs><linearGradient gradientUnits="userSpaceOnUse" y2="96.96" x2="200.29" y1="300.82" x1="206.94" id="3"><stop stop-color="#289bf7"/><stop offset="1" stop-color="#4caaf4"/></linearGradient><linearGradient xlink:href="#1" id="4" x1="14.34" y1="23.792" x2="15.984" y2="11.792" gradientUnits="userSpaceOnUse"/><linearGradient gradientUnits="userSpaceOnUse" y2="354.29" x2="-704.05" y1="647.77" x1="-701.19" id="2"><stop stop-color="#9fd2fa"/><stop offset="1" stop-color="#cde8fe"/></linearGradient><linearGradient xlink:href="#1" id="0" x1="59.12" y1="-13.295" x2="59.15" y2="-37.783" gradientUnits="userSpaceOnUse" gradientTransform="matrix(4.17478 0 0 4.16765-1069.7 447.73)"/><linearGradient id="1"><stop stop-color="#289bf7"/><stop offset="1" stop-color="#71b9f1"/></linearGradient></defs><g transform="matrix(.08512 0 0 .08512 2.143.954)" fill="#60aae5"><path d="m-884.1 294.78c-4.626 0-8.349 3.718-8.349 8.335v161.41l468.19 1v-121.2c0-4.618-3.724-8.335-8.35-8.335h-272.65c-8.51.751-9.607-.377-13.812-5.981-5.964-7.968-14.969-21.443-20.84-29.21-4.712-6.805-5.477-6.02-13.292-6.02z" transform="matrix(.65557 0 0 .65557 594.39-134.45)" fill="url(#0)" color="#000"/><rect width="463.85" height="295.13" x="-890.28" y="356.85" transform="matrix(.65557 0 0 .65557 594.39-134.45)" fill="url(#2)" stroke="url(#2)" stroke-width="2.378" rx="9.63"/><rect width="304.08" height="193.48" x="10.754" y="99.49" fill="none" stroke="url(#3)" stroke-linejoin="round" stroke-linecap="round" stroke-width="3.524" rx="6.313"/><path transform="matrix(11.7482 0 0 11.7482-25.18-11.703)" d="m17.836 11.936c-.073.03-.131.087-.162.16l-4.682 11.07c-.064.152.007.327.158.391l.785.332c.037.016.076.023.115.023.038 0 .077-.007.113-.021.073-.03.131-.087.162-.16l4.682-11.07c.064-.152-.007-.327-.158-.391l-.785-.332c-.073-.031-.155-.032-.229-.002m-5.43 2.049c-.075-.011-.155.007-.221.057l-4.439 3.32c-.075.056-.119.144-.119.238 0 .094.044.182.119.238l4.439 3.32c.053.04.116.059.178.059.091 0 .18-.041.238-.119l.51-.682c.047-.063.068-.142.057-.221-.011-.078-.052-.148-.115-.195l-3.209-2.4 3.209-2.4c.063-.047.104-.117.115-.195.011-.078-.009-.157-.057-.221l-.51-.682c-.049-.066-.12-.106-.195-.117m7.188 0c-.075.011-.146.051-.195.117l-.51.682c-.047.063-.068.142-.057.221.011.078.052.148.115.195l3.209 2.4-3.209 2.4c-.063.047-.104.117-.115.195-.011.078.009.157.057.221l.51.682c.059.078.148.119.238.119.062 0 .124-.019.178-.059l4.439-3.32c.075-.056.119-.144.119-.238 0-.094-.044-.182-.119-.238l-4.439-3.32c-.066-.049-.145-.068-.221-.057z" fill="url(#4)"/></g></svg>