<svg xmlns="http://www.w3.org/2000/svg" xmlns:xlink="http://www.w3.org/1999/xlink" viewBox="0 0 32 32"><defs><linearGradient gradientUnits="userSpaceOnUse" y2="352.98" x2="-601.15" y1="663.95" x1="-591.02" id="3"><stop stop-color="#289bf7"/><stop offset="1" stop-color="#4caaf4"/></linearGradient><linearGradient gradientUnits="userSpaceOnUse" y2="527.14" x2="0" y1="539.64" id="4" xlink:href="#1"/><linearGradient gradientUnits="userSpaceOnUse" y2="354.29" x2="-704.05" y1="647.77" x1="-701.19" id="2"><stop stop-color="#9fd2fa"/><stop offset="1" stop-color="#cde8fe"/></linearGradient><linearGradient xlink:href="#1" id="0" x1="59.12" y1="-13.295" x2="59.15" y2="-37.783" gradientUnits="userSpaceOnUse" gradientTransform="matrix(4.17478 0 0 4.16765-1069.7 447.73)"/><linearGradient id="1"><stop stop-color="#289bf7"/><stop offset="1" stop-color="#71b9f1"/></linearGradient></defs><g transform="translate(-384.57-515.8)"><g transform="matrix(.0558 0 0 .0558 437.31 505.35)"><path d="m-884.1 294.78c-4.626 0-8.349 3.718-8.349 8.335v161.41l468.19 1v-121.2c0-4.618-3.724-8.335-8.35-8.335h-272.65c-8.51.751-9.607-.377-13.812-5.981-5.964-7.968-14.969-21.443-20.84-29.21-4.712-6.805-5.477-6.02-13.292-6.02z" fill="url(#0)" color="#000"/><rect y="356.85" x="-890.28" height="295.13" width="463.85" fill="url(#2)" stroke="url(#2)" stroke-width="2.378" rx="9.63"/><rect y="356.85" x="-890.28" height="295.13" width="463.85" fill="none" stroke="url(#3)" stroke-linejoin="round" stroke-linecap="round" stroke-width="5.376" rx="9.63"/></g><path d="m406.24 533.1l-5.239-5.239c-.302-.302-.791-.302-1.093 0l-1.088 1.088 1.38 1.38c.321-.108.689-.036.944.22.257.257.329.628.218.95l1.33 1.33c.322-.111.693-.039.95.218.359.359.359.941 0 1.3-.359.359-.941.359-1.301 0-.27-.27-.337-.667-.2-1l-1.241-1.241v3.264c.087.043.17.101.243.174.359.359.359.941 0 1.301-.359.359-.941.359-1.3 0-.359-.36-.359-.942 0-1.301.089-.089.192-.156.301-.201v-3.295c-.11-.045-.212-.111-.301-.201-.272-.272-.337-.671-.198-1.01l-1.361-1.361-3.593 3.592c-.302.302-.302.791 0 1.093l5.239 5.239c.302.302.791.302 1.093 0l5.215-5.215c.302-.302.302-.791 0-1.093" fill="url(#4)"/></g></svg>