<svg xmlns="http://www.w3.org/2000/svg" xmlns:xlink="http://www.w3.org/1999/xlink" viewBox="0 0 32 32"><defs><linearGradient gradientUnits="userSpaceOnUse" y2="535.21" x2="495.18" y1="552.56" x1="495.75" id="3"><stop stop-color="#289bf7"/><stop offset="1" stop-color="#4caaf4"/></linearGradient><linearGradient xlink:href="#1" id="4" y1="24" x2="0" y2="13" gradientUnits="userSpaceOnUse"/><linearGradient gradientUnits="userSpaceOnUse" y2="354.29" x2="-704.05" y1="647.77" x1="-701.19" id="2"><stop stop-color="#9fd2fa"/><stop offset="1" stop-color="#cde8fe"/></linearGradient><linearGradient xlink:href="#1" id="0" x1="59.12" y1="-13.295" x2="59.15" y2="-37.783" gradientUnits="userSpaceOnUse" gradientTransform="matrix(4.17478 0 0 4.16765-1069.7 447.73)"/><linearGradient id="1"><stop stop-color="#289bf7"/><stop offset="1" stop-color="#71b9f1"/></linearGradient></defs><g transform="translate(-384.57-515.8)"><g transform="matrix(1 0 0 1-91.42-10.206)" fill="#60aae5"><path d="m-884.1 294.78c-4.626 0-8.349 3.718-8.349 8.335v161.41l468.19 1v-121.2c0-4.618-3.724-8.335-8.35-8.335h-272.65c-8.51.751-9.607-.377-13.812-5.981-5.964-7.968-14.969-21.443-20.84-29.21-4.712-6.805-5.477-6.02-13.292-6.02z" transform="matrix(.0558 0 0 .0558 528.73 515.51)" fill="url(#0)" color="#000"/><rect width="463.85" height="295.13" x="-890.28" y="356.85" transform="matrix(.0558 0 0 .0558 528.73 515.51)" fill="url(#2)" stroke="url(#2)" stroke-width="2.378" rx="9.63"/><rect width="25.884" height="16.469" x="479.05" y="535.43" fill="none" stroke="url(#3)" stroke-linejoin="round" stroke-linecap="round" stroke-width=".3" rx=".537"/></g><path d="m-12 12.564v.33.682 2.424h6.75v-2.424-.682-.33h-6.75m-1.01.744c-.197 0-.357.16-.357.357v2.264h.869v-2.621h-.512m8.324 0v2.621h.869v-2.264c0-.197-.16-.357-.357-.357h-.512m-9.885 3.26c-.197 0-.357.16-.357.357v5.553c0 .197.16.357.357.357h1.869v-2.119-.926h8.15v.926 2.119h1.869c.197 0 .357-.16.357-.357v-5.553c-.0001-.197-.162-.357-.359-.357h-11.887m10.357 1.068c.094 0 .184.029.258.076.131.084.217.231.217.398 0 .167-.085.316-.217.4-.074.049-.164.076-.258.076-.263 0-.475-.212-.475-.475 0-.263.212-.477.475-.477m-7.814 2.793v.357 3.42.357h6.803v-.357-3.42-.357h-6.803" transform="translate(409.19 515.2)" fill="url(#4)"/></g></svg>