<svg xmlns="http://www.w3.org/2000/svg" xmlns:xlink="http://www.w3.org/1999/xlink" viewBox="0 0 32 32"><defs><linearGradient gradientUnits="userSpaceOnUse" y2="352.98" x2="-601.15" y1="663.95" x1="-591.02" id="3"><stop stop-color="#289bf7"/><stop offset="1" stop-color="#4caaf4"/></linearGradient><linearGradient xlink:href="#1" id="4" y1="539.78" x2="0" y2="529.99" gradientUnits="userSpaceOnUse"/><linearGradient gradientUnits="userSpaceOnUse" y2="354.29" x2="-704.05" y1="647.77" x1="-701.19" id="2"><stop stop-color="#9fd2fa"/><stop offset="1" stop-color="#cde8fe"/></linearGradient><linearGradient xlink:href="#1" id="0" x1="59.12" y1="-13.295" x2="59.15" y2="-37.783" gradientUnits="userSpaceOnUse" gradientTransform="matrix(4.17478 0 0 4.16765-1069.7 447.73)"/><linearGradient id="1"><stop stop-color="#289bf7"/><stop offset="1" stop-color="#71b9f1"/></linearGradient></defs><g transform="translate(-384.57-515.8)"><g transform="matrix(.0558 0 0 .0558 437.31 505.35)"><path d="m-884.1 294.78c-4.626 0-8.349 3.718-8.349 8.335v161.41l468.19 1v-121.2c0-4.618-3.724-8.335-8.35-8.335h-272.65c-8.51.751-9.607-.377-13.812-5.981-5.964-7.968-14.969-21.443-20.84-29.21-4.712-6.805-5.477-6.02-13.292-6.02z" fill="url(#0)" color="#000"/><rect y="356.85" x="-890.28" height="295.13" width="463.85" fill="url(#2)" stroke="url(#2)" stroke-width="2.378" rx="9.63"/><rect y="356.85" x="-890.28" height="295.13" width="463.85" fill="none" stroke="url(#3)" stroke-linejoin="round" stroke-linecap="round" stroke-width="5.376" rx="9.63"/></g><path d="m408.16 534.72c.691 0 1.252-.544 1.252-1.217 0-.672-.56-1.217-1.252-1.217-.691 0-1.251.545-1.251 1.217 0 .673.56 1.217 1.251 1.217m-4.588 0c.691 0 1.252-.544 1.252-1.217 0-.672-.56-1.217-1.252-1.217-.691 0-1.251.545-1.251 1.217 0 .673.56 1.217 1.251 1.217m-5.828 4.625c1.188 0 2.295-.336 3.228-.916.543-.337.547-1.059.091-1.501l-2.494-2.427c-.457-.443-.457-1.162 0-1.605l2.696-2.622c.456-.444.47-1.181-.056-1.543-.979-.675-2.175-1.072-3.466-1.072-3.316.0001-6.01 2.618-6.01 5.844 0 3.227 2.689 5.842 6.01 5.842" fill="url(#4)"/></g></svg>