<svg xmlns="http://www.w3.org/2000/svg" xmlns:xlink="http://www.w3.org/1999/xlink" viewBox="0 0 32 32"><defs><linearGradient gradientUnits="userSpaceOnUse" y2="525.05" x2="403.76" y1="542.4" x1="404.33" id="3"><stop stop-color="#289bf7"/><stop offset="1" stop-color="#4caaf4"/></linearGradient><linearGradient xlink:href="#1" id="4" x1="400.42" y1="539.7" x2="400.56" y2="527.62" gradientUnits="userSpaceOnUse"/><linearGradient gradientUnits="userSpaceOnUse" y2="354.29" x2="-704.05" y1="647.77" x1="-701.19" id="2"><stop stop-color="#9fd2fa"/><stop offset="1" stop-color="#cde8fe"/></linearGradient><linearGradient xlink:href="#1" id="0" x1="59.12" y1="-13.295" x2="59.15" y2="-37.783" gradientUnits="userSpaceOnUse" gradientTransform="matrix(4.17478 0 0 4.16765-1069.7 447.73)"/><linearGradient id="1"><stop stop-color="#289bf7"/><stop offset="1" stop-color="#71b9f1"/></linearGradient></defs><g transform="translate(-384.57-515.84)"><path d="m-884.1 294.78c-4.626 0-8.349 3.718-8.349 8.335v161.41l468.19 1v-121.2c0-4.618-3.724-8.335-8.35-8.335h-272.65c-8.51.751-9.607-.377-13.812-5.981-5.964-7.968-14.969-21.443-20.84-29.21-4.712-6.805-5.477-6.02-13.292-6.02z" transform="matrix(.0558 0 0 .0558 437.31 505.35)" fill="url(#0)" color="#000"/><rect width="463.85" height="295.13" x="-890.28" y="356.85" transform="matrix(.0558 0 0 .0558 437.31 505.35)" fill="url(#2)" stroke="url(#2)" stroke-width="2.378" rx="9.63"/><rect width="25.884" height="16.469" x="387.63" y="525.26" fill="none" stroke="url(#3)" stroke-linejoin="round" stroke-linecap="round" stroke-width=".3" rx=".537"/><path d="m400.57099 527.623a6.00013 6.00013 0 0 0 -5.99956 6.00044 6.00013 6.00013 0 0 0 5.99956 5.99956 6.00013 6.00013 0 0 0 6.00044 -5.99956 6.00013 6.00013 0 0 0 -6.00044 -6.00044m1.514 2.672c.022.0001.048.011.069.017.106.03.195.121.226.227l1.093 3.981.573-.777c.058-.086.147-.146.251-.149h.425.192.016c.013 0 .026.014.026.026v.611c0 .013-.013.017-.025.017h-.017-.192-.26l-.841 1.17c-.144.19-.503.124-.573-.105l-.997-3.545-.685 2.261c-.042.128-.178.216-.312.219h-.477-.096-.234-.086-.243l-.928 3.072c-.046.167-.243.277-.408.227-.106-.03-.195-.121-.226-.227l-1.102-3.989-.563.777c-.058.087-.157.137-.26.139h-.416-.208-.026c-.012 0-.017-.005-.017-.017v-.611c0-.013.005-.026.017-.026h.026.208.26l.841-1.152c.144-.19.502-.123.572.105l.989 3.545.693-2.27c.042-.128.17-.225.304-.227h.486.086.234.096.234l.936-3.055c.035-.125.151-.219.278-.236.021-.002.039-.008.061-.008" fill="url(#4)"/></g></svg>