<svg xmlns="http://www.w3.org/2000/svg" xmlns:xlink="http://www.w3.org/1999/xlink" viewBox="0 0 32 32"><defs><linearGradient gradientUnits="userSpaceOnUse" y2="352.98" x2="-601.15" y1="663.95" x1="-591.02" id="3"><stop stop-color="#289bf7"/><stop offset="1" stop-color="#4caaf4"/></linearGradient><linearGradient xlink:href="#1" id="4" x1="-398.79" y1="390.35" x2="-394.85" y2="88.29" gradientUnits="userSpaceOnUse"/><linearGradient gradientUnits="userSpaceOnUse" y2="354.29" x2="-704.05" y1="647.77" x1="-701.19" id="2"><stop stop-color="#9fd2fa"/><stop offset="1" stop-color="#cde8fe"/></linearGradient><linearGradient xlink:href="#1" id="0" x1="59.12" y1="-13.295" x2="59.15" y2="-37.783" gradientUnits="userSpaceOnUse" gradientTransform="matrix(4.17478 0 0 4.16765-1069.7 447.73)"/><linearGradient id="1"><stop stop-color="#289bf7"/><stop offset="1" stop-color="#71b9f1"/></linearGradient></defs><g transform="translate(-384.57-515.8)"><g transform="matrix(.0558 0 0 .0558 437.31 505.35)"><path d="m-884.1 294.78c-4.626 0-8.349 3.718-8.349 8.335v161.41l468.19 1v-121.2c0-4.618-3.724-8.335-8.35-8.335h-272.65c-8.51.751-9.607-.377-13.812-5.981-5.964-7.968-14.969-21.443-20.84-29.21-4.712-6.805-5.477-6.02-13.292-6.02z" fill="url(#0)" color="#000"/><rect y="356.85" x="-890.28" height="295.13" width="463.85" fill="url(#2)" stroke="url(#2)" stroke-width="2.378" rx="9.63"/><rect y="356.85" x="-890.28" height="295.13" width="463.85" fill="none" stroke="url(#3)" stroke-linejoin="round" stroke-linecap="round" stroke-width="5.376" rx="9.63"/></g><path d="m-394.85 88.29c-84.49 0-153 68.5-153 153 0 84.5 68.51 153 153 153 84.49 0 153-68.51 153-153 0-84.49-68.5-153-153-153m0 79.16c5.702 0 10.31 4.633 10.31 10.334v109.35l42.583-42.583c4.04-4.03 10.568-4.01 14.618.025 4.04 4.03 4.04 10.554 0 14.593l-58.42 58.45c-2.479 2.468-5.887 3.232-9.09 2.664-3.213.568-6.61-.186-9.09-2.665l-58.42-58.45c-4.04-4.03-4.04-10.554 0-14.593 4.03-4.04 10.554-4.04 14.593 0l42.583 42.558v-109.35c0-5.702 4.633-10.334 10.334-10.334" fill="url(#4)" transform="matrix(.03922 0 0 .03922 415.86 524.22)"/></g></svg>