<svg xmlns="http://www.w3.org/2000/svg" xmlns:xlink="http://www.w3.org/1999/xlink" viewBox="0 0 32 32"><defs><linearGradient id="3"><stop stop-color="#289bf7"/><stop offset="1" stop-color="#4caaf4"/></linearGradient><linearGradient xlink:href="#3" id="4" y1="24" x2="0" y2="12" gradientUnits="userSpaceOnUse"/><linearGradient gradientUnits="userSpaceOnUse" y2="352.98" x2="-601.15" y1="663.95" x1="-591.02" id="2" xlink:href="#3"/><linearGradient id="0" x1="59.12" y1="-13.295" x2="59.15" y2="-37.783" gradientUnits="userSpaceOnUse" gradientTransform="matrix(4.17478 0 0 4.16765-1069.7 447.73)"><stop stop-color="#289bf7"/><stop offset="1" stop-color="#71b9f1"/></linearGradient><linearGradient gradientUnits="userSpaceOnUse" y2="354.29" x2="-704.05" y1="647.77" x1="-701.19" id="1"><stop stop-color="#9fd2fa"/><stop offset="1" stop-color="#cde8fe"/></linearGradient></defs><g transform="translate(-384.57-515.8)"><g transform="matrix(.07089 0 0 .07017 407.87 475.13)" fill="#60aae5"><path d="m-884.1 294.78c-4.626 0-8.349 3.718-8.349 8.335v161.41l468.19 1v-121.2c0-4.618-3.724-8.335-8.35-8.335h-272.65c-8.51.751-9.607-.377-13.812-5.981-5.964-7.968-14.969-21.443-20.84-29.21-4.712-6.805-5.477-6.02-13.292-6.02z" transform="matrix(.7872 0 0 .79524 415.34 430.11)" fill="url(#0)" color="#000"/><rect width="463.85" height="295.13" x="-890.28" y="356.85" transform="matrix(.7872 0 0 .79524 415.34 430.11)" fill="url(#1)" stroke="url(#1)" stroke-width="2.378" rx="9.63"/><rect width="463.85" height="295.13" x="-890.28" y="356.85" transform="matrix(.7872 0 0 .79524 415.34 430.11)" fill="none" stroke="url(#2)" stroke-linejoin="round" stroke-linecap="round" stroke-width="5.376" rx="9.63"/></g><path d="m16 12c-3.184 0-6.178 1.241-8.43 3.492l1.285 1.285c1.908-1.908 4.446-2.959 7.145-2.959 2.699 0 5.236 1.051 7.145 2.959l1.285-1.285c-2.251-2.252-5.245-3.492-8.43-3.492m0 3.23c-2.322 0-4.505.903-6.146 2.545l1.287 1.285c1.298-1.298 3.02-2.01 4.859-2.01 1.836 0 3.561.715 4.859 2.01l1.287-1.285c-1.641-1.642-3.825-2.545-6.146-2.545m0 3.232c-1.458 0-2.829.567-3.859 1.598l1.285 1.287c.687-.688 1.602-1.066 2.574-1.066.972 0 1.887.379 2.574 1.066l1.285-1.287c-1.031-1.031-2.401-1.598-3.859-1.598m0 3.611c-.472 0-.944.181-1.305.541-.013.013-.025.026-.037.039l1.342 1.346 1.346-1.342c-.013-.014-.027-.029-.041-.043-.36-.36-.832-.541-1.305-.541" transform="matrix(.88971 0 0 .88971 386.34 517.84)" fill="url(#4)"/></g></svg>