<?xml version="1.0" encoding="UTF-8" standalone="no"?>
<!-- Created with Inkscape (http://www.inkscape.org/) -->

<svg
   xmlns:dc="http://purl.org/dc/elements/1.1/"
   xmlns:cc="http://creativecommons.org/ns#"
   xmlns:rdf="http://www.w3.org/1999/02/22-rdf-syntax-ns#"
   xmlns:svg="http://www.w3.org/2000/svg"
   xmlns="http://www.w3.org/2000/svg"
   xmlns:xlink="http://www.w3.org/1999/xlink"
   xmlns:sodipodi="http://sodipodi.sourceforge.net/DTD/sodipodi-0.dtd"
   xmlns:inkscape="http://www.inkscape.org/namespaces/inkscape"
   width="48"
   height="48"
   id="svg5453"
   version="1.1"
   inkscape:version="0.91 r13725"
   sodipodi:docname="airwave-manager.svg">
  <defs
     id="defs5455">
    <linearGradient
       gradientTransform="matrix(0.13837079,0,0,0.13837079,132.46829,-53.119556)"
       inkscape:collect="always"
       xlink:href="#linearGradient5076"
       id="linearGradient5299"
       gradientUnits="userSpaceOnUse"
       x1="-318.57867"
       y1="653.95679"
       x2="-318.57867"
       y2="301.29816" />
    <linearGradient
       id="linearGradient5076"
       inkscape:collect="always">
      <stop
         id="stop5078"
         offset="0"
         style="stop-color:#c52828;stop-opacity:1" />
      <stop
         id="stop5080"
         offset="1"
         style="stop-color:#ff5454;stop-opacity:1" />
    </linearGradient>
  </defs>
  <sodipodi:namedview
     id="base"
     pagecolor="#ffffff"
     bordercolor="#666666"
     borderopacity="1.0"
     inkscape:pageopacity="0"
     inkscape:pageshadow="2"
     inkscape:zoom="4"
     inkscape:cx="59.625035"
     inkscape:cy="15.968792"
     inkscape:document-units="px"
     inkscape:current-layer="g4183"
     showgrid="true"
     fit-margin-top="0"
     fit-margin-left="0"
     fit-margin-right="0"
     fit-margin-bottom="0"
     inkscape:window-width="1366"
     inkscape:window-height="685"
     inkscape:window-x="0"
     inkscape:window-y="0"
     inkscape:window-maximized="1"
     inkscape:showpageshadow="false"
     borderlayer="true"
     showguides="false">
    <inkscape:grid
       type="xygrid"
       id="grid4063" />
    <sodipodi:guide
       position="1.1650391e-05,32.000026"
       orientation="32,0"
       id="guide4157" />
    <sodipodi:guide
       position="1.1650391e-05,2.6367188e-05"
       orientation="0,32"
       id="guide4159" />
    <sodipodi:guide
       position="32.000012,2.6367188e-05"
       orientation="-32,0"
       id="guide4161" />
    <sodipodi:guide
       position="32.000012,32.000026"
       orientation="0,-32"
       id="guide4163" />
    <sodipodi:guide
       position="2.0000117,30.000026"
       orientation="28,0"
       id="guide4167" />
    <sodipodi:guide
       position="2.0000117,2.0000264"
       orientation="0,28"
       id="guide4169" />
    <sodipodi:guide
       position="30.000012,2.0000264"
       orientation="-28,0"
       id="guide4171" />
    <sodipodi:guide
       position="30.000012,30.000026"
       orientation="0,-28"
       id="guide4173" />
    <sodipodi:guide
       position="2.0000117,30.000026"
       orientation="28,0"
       id="guide4181" />
    <sodipodi:guide
       position="2.0000117,2.0000264"
       orientation="0,14"
       id="guide4183" />
    <sodipodi:guide
       position="16.000012,2.0000264"
       orientation="-28,0"
       id="guide4185" />
    <sodipodi:guide
       position="16.000012,30.000026"
       orientation="0,-14"
       id="guide4187" />
    <sodipodi:guide
       position="9.0000117,23.000026"
       orientation="14,0"
       id="guide4193" />
    <sodipodi:guide
       position="9.0000117,9.0000264"
       orientation="0,14.000031"
       id="guide4195" />
    <sodipodi:guide
       position="23.000042,9.0000264"
       orientation="-14,0"
       id="guide4197" />
    <sodipodi:guide
       position="23.000042,23.000026"
       orientation="0,-14.000031"
       id="guide4199" />
  </sodipodi:namedview>
  <metadata
     id="metadata5458">
    <rdf:RDF>
      <cc:Work
         rdf:about="">
        <dc:format>image/svg+xml</dc:format>
        <dc:type
           rdf:resource="http://purl.org/dc/dcmitype/StillImage" />
        <dc:title />
      </cc:Work>
    </rdf:RDF>
  </metadata>
  <g
     inkscape:label="Capa 1"
     inkscape:groupmode="layer"
     id="layer1"
     transform="translate(-384.57143,-499.798)">
    <g
       style="display:inline;enable-background:new"
       id="g4238"
       transform="translate(225.81911,462.44565)">
      <g
         style="display:inline"
         id="layer1-8"
         transform="matrix(0.22655187,0,0,0.22655187,106.94841,54.31088)">
        <g
           style="display:none"
           id="layer6" />
        <g
           id="g4027" />
        <g
           id="g4061" />
        <g
           id="g3751" />
        <g
           id="g3782" />
        <g
           id="g3725" />
        <g
           id="g4370"
           transform="matrix(4.4140002,0,0,4.4140002,59.275211,39.357303)">
          <g
             id="g4182"
             transform="translate(-20,-25.000001)">
            <g
               id="g4183"
               transform="translate(-4.9999999,10)">
              <circle
                 style="opacity:1;fill:url(#linearGradient5299);fill-opacity:1;stroke:none;stroke-width:15.44461155;stroke-linecap:round;stroke-linejoin:round;stroke-miterlimit:4;stroke-dasharray:none;stroke-opacity:1"
                 id="path4217"
                 cx="87.375"
                 cy="13.125"
                 r="24" />
              <path
                 style="clip-rule:evenodd;fill:#ffffff;fill-opacity:0.84693879;fill-rule:evenodd;stroke-width:1.31742239;stroke-miterlimit:4;stroke-dasharray:none"
                 d="m 102.28083,11.459423 c -0.0474,-0.421707 -0.53913,-0.738601 -0.9643,-0.738601 -1.374624,0 -2.594423,-0.8071366 -3.105985,-2.0554026 C 97.687932,7.3869035 98.024918,5.8958601 99.04938,4.956116 99.371856,4.6613234 99.411037,4.1678431 99.140581,3.8250533 98.437026,2.9316326 97.637367,2.1246075 96.764262,1.4251856 96.422364,1.1508193 95.920736,1.1889939 95.624269,1.5172736 94.730179,2.5074695 93.124165,2.8754865 91.883154,2.3576739 90.59169,1.8144103 89.777297,0.50575731 89.856996,-0.89900268 89.88323,-1.3402435 89.560751,-1.7238876 89.12085,-1.7751219 c -1.120459,-0.1295929 -2.250741,-0.1336113 -3.374549,-0.00893 -0.434879,0.047997 -0.757354,0.4226 -0.742731,0.85825975 C 85.052463,0.46512651 84.228245,1.7508979 82.949618,2.2746268 81.723453,2.7754734 80.128713,2.410582 79.236409,1.4292034 78.941504,1.105947 78.448023,1.0662091 78.104452,1.3339906 c -0.899002,0.7053372 -1.716631,1.5130325 -2.426657,2.399086 -0.276934,0.3444646 -0.236191,0.8437488 0.08952,1.1401047 1.043998,0.9454366 1.381096,2.4494282 0.838726,3.7426781 -0.517814,1.232974 -1.798115,2.0276076 -3.263821,2.0276076 -0.47562,-0.01529 -0.814392,0.303946 -0.866408,0.73637 -0.131937,1.126932 -0.133499,2.275186 -0.0065,3.411272 0.0471,0.423493 0.553756,0.737596 0.983611,0.737596 1.306198,-0.03338 2.560269,0.775326 3.086343,2.055516 0.524398,1.278515 0.1873,2.768665 -0.838727,3.709191 -0.320912,0.294793 -0.361654,0.787491 -0.09119,1.130281 0.696967,0.887728 1.496737,1.695535 2.372968,2.400762 0.343683,0.276933 0.843748,0.237866 1.141667,-0.09041 0.897439,-0.992653 2.503341,-1.36 3.73944,-0.841181 1.294701,0.541588 2.109093,1.850129 2.029396,3.255671 -0.02601,0.441465 0.298029,0.825777 0.736145,0.876231 0.573178,0.06686 1.149816,0.100236 1.728016,0.100236 0.548845,0 1.0978,-0.03013 1.646645,-0.09119 0.43499,-0.048 0.757242,-0.4226 0.74262,-0.859041 -0.05034,-1.390137 0.775324,-2.675908 2.052277,-3.198745 1.234425,-0.504195 2.822468,-0.135173 3.714884,0.845201 0.296579,0.322586 0.786598,0.361543 1.132068,0.09465 0.897327,-0.703664 1.713283,-1.510689 2.426655,-2.399199 0.276826,-0.343683 0.237753,-0.843749 -0.08966,-1.139993 -1.043995,-0.945436 -1.382768,-2.449651 -0.840397,-3.742008 0.509888,-1.216565 1.742635,-2.033413 3.068597,-2.033413 l 0.18552,0.0048 c 0.43007,0.03494 0.82576,-0.296356 0.87789,-0.735365 0.13216,-1.127937 0.13373,-2.275186 0.006,-3.411272 z m -14.881969,6.700654 c -2.759067,0 -5.003334,-2.244267 -5.003334,-5.003334 0,-2.758955 2.244267,-5.0033331 5.003334,-5.0033331 2.758955,0 5.003222,2.2443781 5.003222,5.0033331 0,2.759067 -2.244267,5.003334 -5.003222,5.003334 z"
                 id="path6"
                 inkscape:connector-curvature="0" />
            </g>
          </g>
        </g>
      </g>
    </g>
  </g>
</svg>
