<?xml version="1.0" encoding="UTF-8" standalone="no"?>
<!-- Created with Inkscape (http://www.inkscape.org/) -->

<svg
   xmlns:sketch="http://www.bohemiancoding.com/sketch/ns"
   xmlns:dc="http://purl.org/dc/elements/1.1/"
   xmlns:cc="http://creativecommons.org/ns#"
   xmlns:rdf="http://www.w3.org/1999/02/22-rdf-syntax-ns#"
   xmlns:svg="http://www.w3.org/2000/svg"
   xmlns="http://www.w3.org/2000/svg"
   xmlns:xlink="http://www.w3.org/1999/xlink"
   xmlns:sodipodi="http://sodipodi.sourceforge.net/DTD/sodipodi-0.dtd"
   xmlns:inkscape="http://www.inkscape.org/namespaces/inkscape"
   width="48"
   height="48"
   id="svg5453"
   version="1.1"
   inkscape:version="0.91 r13725"
   sodipodi:docname="androidstudio.svg">
  <defs
     id="defs5455">
    <linearGradient
       gradientTransform="matrix(1.000003,0,0,1.000003,-416.19757,-531.50782)"
       inkscape:collect="always"
       xlink:href="#linearGradient4422"
       id="linearGradient4181"
       gradientUnits="userSpaceOnUse"
       x1="399.9939"
       y1="545.13873"
       x2="399.9939"
       y2="518.13873" />
    <linearGradient
       id="linearGradient4422">
      <stop
         style="stop-color:#30cf41;stop-opacity:1"
         offset="0"
         id="stop4424" />
      <stop
         style="stop-color:#47f383;stop-opacity:1"
         offset="1"
         id="stop4426" />
    </linearGradient>
  </defs>
  <sodipodi:namedview
     id="base"
     pagecolor="#ffffff"
     bordercolor="#666666"
     borderopacity="1.0"
     inkscape:pageopacity="0"
     inkscape:pageshadow="2"
     inkscape:zoom="4"
     inkscape:cx="-80.941894"
     inkscape:cy="15.968792"
     inkscape:document-units="px"
     inkscape:current-layer="g4182"
     showgrid="true"
     fit-margin-top="0"
     fit-margin-left="0"
     fit-margin-right="0"
     fit-margin-bottom="0"
     inkscape:window-width="1366"
     inkscape:window-height="634"
     inkscape:window-x="0"
     inkscape:window-y="36"
     inkscape:window-maximized="1"
     inkscape:showpageshadow="false"
     borderlayer="true"
     showguides="false">
    <inkscape:grid
       type="xygrid"
       id="grid4063" />
    <sodipodi:guide
       position="1.1650391e-05,32.000026"
       orientation="32,0"
       id="guide4157" />
    <sodipodi:guide
       position="1.1650391e-05,2.6367188e-05"
       orientation="0,32"
       id="guide4159" />
    <sodipodi:guide
       position="32.000012,2.6367188e-05"
       orientation="-32,0"
       id="guide4161" />
    <sodipodi:guide
       position="32.000012,32.000026"
       orientation="0,-32"
       id="guide4163" />
    <sodipodi:guide
       position="2.0000117,30.000026"
       orientation="28,0"
       id="guide4167" />
    <sodipodi:guide
       position="2.0000117,2.0000264"
       orientation="0,28"
       id="guide4169" />
    <sodipodi:guide
       position="30.000012,2.0000264"
       orientation="-28,0"
       id="guide4171" />
    <sodipodi:guide
       position="30.000012,30.000026"
       orientation="0,-28"
       id="guide4173" />
    <sodipodi:guide
       position="2.0000117,30.000026"
       orientation="28,0"
       id="guide4181" />
    <sodipodi:guide
       position="2.0000117,2.0000264"
       orientation="0,14"
       id="guide4183" />
    <sodipodi:guide
       position="16.000012,2.0000264"
       orientation="-28,0"
       id="guide4185" />
    <sodipodi:guide
       position="16.000012,30.000026"
       orientation="0,-14"
       id="guide4187" />
    <sodipodi:guide
       position="9.0000117,23.000026"
       orientation="14,0"
       id="guide4193" />
    <sodipodi:guide
       position="9.0000117,9.0000264"
       orientation="0,14.000031"
       id="guide4195" />
    <sodipodi:guide
       position="23.000042,9.0000264"
       orientation="-14,0"
       id="guide4197" />
    <sodipodi:guide
       position="23.000042,23.000026"
       orientation="0,-14.000031"
       id="guide4199" />
  </sodipodi:namedview>
  <metadata
     id="metadata5458">
    <rdf:RDF>
      <cc:Work
         rdf:about="">
        <dc:format>image/svg+xml</dc:format>
        <dc:type
           rdf:resource="http://purl.org/dc/dcmitype/StillImage" />
        <dc:title></dc:title>
      </cc:Work>
    </rdf:RDF>
  </metadata>
  <g
     inkscape:label="Capa 1"
     inkscape:groupmode="layer"
     id="layer1"
     transform="translate(-384.57143,-499.798)">
    <g
       style="display:inline;enable-background:new"
       id="g4238"
       transform="translate(225.81911,462.44565)">
      <g
         style="display:inline"
         id="layer1-8"
         transform="matrix(0.22655187,0,0,0.22655187,106.94841,54.31088)">
        <g
           style="display:none"
           id="layer6" />
        <g
           id="g4027" />
        <g
           id="g4061" />
        <g
           id="g3751" />
        <g
           id="g3782" />
        <g
           id="g3725" />
        <g
           id="g4370"
           transform="matrix(4.4140002,0,0,4.4140002,59.275211,39.357303)">
          <g
             id="g4182"
             transform="matrix(1.7142857,0,0,1.7142857,-30.839285,-12.375017)">
            <g
               id="g4193"
               transform="translate(70,5.8333324)">
              <circle
                 style="opacity:1;fill:url(#linearGradient4181);fill-opacity:1;stroke:none;stroke-width:0.94059104;stroke-miterlimit:4;stroke-dasharray:none;stroke-dashoffset:0;stroke-opacity:1"
                 id="path3377"
                 cx="-15.625"
                 cy="0.29167727"
                 r="14" />
              <path
                 sodipodi:nodetypes="ccccscsccscccccssccccsscscccccssccccscsccscccccssccccsccsccccssccc"
                 d="m -6.2393197,-1.3549391 c -0.066513,-0.087107 -0.153315,-0.1389757 -0.261018,-0.1554513 l -2.27441,-0.347973 c -0.124331,-0.3977056 -0.294275,-0.803649 -0.50968,-1.2179825 0.149044,-0.2071667 0.372687,-0.4991531 0.670928,-0.8762635 0.298241,-0.377111 0.509527,-0.6524688 0.633857,-0.8265314 0.06636,-0.091227 0.09931,-0.1864199 0.09931,-0.285884 0,-0.1159405 -0.02883,-0.2070145 -0.08696,-0.2733751 -0.298241,-0.4227242 -0.981831,-1.1269079 -2.0507693,-2.1130102 -0.09916,-0.082836 -0.202895,-0.1241776 -0.310444,-0.1241776 -0.124331,0 -0.223796,0.037222 -0.298394,0.1116686 l -1.764732,1.3299557 c -0.339888,-0.1740625 -0.712727,-0.3273783 -1.11867,-0.4599466 l -0.347966,-2.2867677 c -0.0082,-0.1077024 -0.05599,-0.1967933 -0.142942,-0.2672727 -0.08711,-0.070479 -0.188403,-0.1055666 -0.304648,-0.1055666 l -2.759072,0 c -0.240271,0 -0.389467,0.1159402 -0.447437,0.3479731 -0.107702,0.4141811 -0.227914,1.1847254 -0.360483,2.3116339 -0.389467,0.1244833 -0.766425,0.2819174 -1.131027,0.4724562 l -1.715152,-1.3299563 c -0.107702,-0.082836 -0.215404,-0.1241776 -0.323107,-0.1241776 -0.1823,0 -0.573751,0.2961052 -1.174504,0.8886203 -0.600754,0.5925155 -1.00868,1.037817 -1.224237,1.3360585 -0.0746,0.107702 -0.111821,0.2030478 -0.111821,0.2858841 0,0.099464 0.04134,0.1989289 0.124177,0.2982407 0.555141,0.6712324 0.998459,1.2428483 1.329957,1.7153046 -0.207167,0.381077 -0.368721,0.7623064 -0.484661,1.1433835 l -2.311786,0.3479735 c -0.09107,0.016625 -0.169792,0.07048 -0.236152,0.1617058 -0.06636,0.091074 -0.09947,0.1864199 -0.09947,0.2857318 l 0,2.7592239 c 0,0.1078548 0.03311,0.2050312 0.09947,0.2919858 0.06636,0.087108 0.153315,0.1391285 0.261018,0.1556041 l 2.274563,0.3356162 c 0.115941,0.4059434 0.285732,0.8160057 0.509527,1.2301864 -0.149044,0.2071668 -0.37284,0.4991531 -0.67108,0.8762642 -0.298241,0.37711 -0.509679,0.652468 -0.633857,0.826531 -0.06636,0.09138 -0.09947,0.18642 -0.09947,0.285884 0,0.107702 0.02899,0.202895 0.08695,0.285732 0.323107,0.44759 1.006697,1.143689 2.050768,2.088143 0.09123,0.09123 0.19481,0.136688 0.310751,0.136688 0.12433,0 0.227914,-0.03722 0.31075,-0.111668 l 1.752527,-1.330109 c 0.339888,0.174063 0.712727,0.327378 1.118671,0.4601 l 0.347973,2.286767 c 0.0084,0.107702 0.05599,0.196793 0.142942,0.267272 0.08696,0.07063 0.188555,0.105567 0.304495,0.105567 l 2.759224,0 c 0.240576,0 0.38962,-0.11594 0.447743,-0.347973 0.10755,-0.414334 0.227609,-1.184726 0.360177,-2.311633 0.389468,-0.124331 0.766579,-0.281918 1.131027,-0.472457 l 1.715305,1.342466 c 0.11594,0.07444 0.223795,0.111668 0.323107,0.111668 0.182148,0 0.5716163,-0.293969 1.1680983,-0.882365 0.596786,-0.588245 1.006849,-1.035835 1.230338,-1.342466 0.0746,-0.08284 0.111975,-0.17803 0.111975,-0.285732 0,-0.107702 -0.04134,-0.21159 -0.124332,-0.31075 -0.596471,-0.729203 -1.03979,-1.3008182 -1.329945,-1.7151517 0.165672,-0.3066315 0.327378,-0.6835897 0.484813,-1.1310273 l 2.299277,-0.3478207 c 0.09931,-0.016625 0.182453,-0.070632 0.248661,-0.1618587 0.06621,-0.091226 0.09916,-0.1865721 0.09916,-0.285884 l 0,-2.7590711 c 1.53e-4,-0.1077026 -0.0328,-0.2048789 -0.09931,-0.2919863 z"
                 id="path4463"
                 sketch:type="MSShapeGroup"
                 inkscape:connector-curvature="0"
                 style="opacity:0.725;fill:#000000;fill-opacity:1" />
              <path
                 sodipodi:nodetypes="ccc"
                 inkscape:connector-curvature="0"
                 id="path4517"
                 d="m -20.235423,3.0277522 c 2.530551,1.6199765 6.719401,1.5318775 9.317682,0.0584 0.9344633,-7.295319 -9.842472,-7.8751436 -9.317682,-0.0584 z"
                 style="opacity:1;fill:#3de467;fill-opacity:1;fill-rule:evenodd;stroke:none;stroke-width:0.9148109px;stroke-linecap:butt;stroke-linejoin:miter;stroke-opacity:1" />
              <rect
                 transform="matrix(0.86172561,-0.50737459,0.50737459,0.86172561,0,0)"
                 ry="0.26537693"
                 y="-13.597238"
                 x="-14.497457"
                 height="3.715277"
                 width="0.53075385"
                 id="rect4519"
                 style="opacity:1;fill:#3de467;fill-opacity:1;stroke:none;stroke-width:1.5;stroke-linecap:round;stroke-linejoin:round;stroke-miterlimit:4;stroke-dasharray:none;stroke-opacity:1" />
              <rect
                 transform="matrix(-0.86172561,-0.50737459,-0.50737459,0.86172561,0,0)"
                 ry="0.26537693"
                 y="2.2824142"
                 x="12.453095"
                 height="3.715277"
                 width="0.53075385"
                 id="rect4519-2"
                 style="opacity:1;fill:#3de467;fill-opacity:1;stroke:none;stroke-width:1.5;stroke-linecap:round;stroke-linejoin:round;stroke-miterlimit:4;stroke-dasharray:none;stroke-opacity:1" />
              <circle
                 style="opacity:1;fill:#154e22;fill-opacity:1;stroke:none;stroke-width:1.5;stroke-linecap:round;stroke-linejoin:round;stroke-miterlimit:4;stroke-dasharray:none;stroke-opacity:1"
                 id="path4500"
                 cx="-17.383396"
                 cy="0.64161521"
                 r="0.76320833" />
              <circle
                 style="opacity:1;fill:#144e22;fill-opacity:1;stroke:none;stroke-width:1.5;stroke-linecap:round;stroke-linejoin:round;stroke-miterlimit:4;stroke-dasharray:none;stroke-opacity:1"
                 id="path4500-8"
                 cx="-13.774033"
                 cy="0.61946517"
                 r="0.76320833" />
            </g>
          </g>
        </g>
      </g>
    </g>
  </g>
</svg>
