<?xml version="1.0" encoding="UTF-8" standalone="no"?>
<!-- Created with Inkscape (http://www.inkscape.org/) -->

<svg
   xmlns:dc="http://purl.org/dc/elements/1.1/"
   xmlns:cc="http://creativecommons.org/ns#"
   xmlns:rdf="http://www.w3.org/1999/02/22-rdf-syntax-ns#"
   xmlns:svg="http://www.w3.org/2000/svg"
   xmlns="http://www.w3.org/2000/svg"
   xmlns:xlink="http://www.w3.org/1999/xlink"
   xmlns:sodipodi="http://sodipodi.sourceforge.net/DTD/sodipodi-0.dtd"
   xmlns:inkscape="http://www.inkscape.org/namespaces/inkscape"
   width="48"
   height="48"
   id="svg5453"
   version="1.1"
   inkscape:version="0.91 r13725"
   sodipodi:docname="applications-education-science.svg"
   viewBox="0 0 48 48">
  <defs
     id="defs5455">
    <linearGradient
       inkscape:collect="always"
       id="linearGradient4335">
      <stop
         style="stop-color:#981fe7;stop-opacity:1"
         offset="0"
         id="stop4338" />
      <stop
         style="stop-color:#d23cff;stop-opacity:1"
         offset="1"
         id="stop4340" />
    </linearGradient>
    <linearGradient
       id="linearGradient4329">
      <stop
         style="stop-color:#d23cff;stop-opacity:1"
         offset="0"
         id="stop4331" />
      <stop
         style="stop-color:#981fe7;stop-opacity:1"
         offset="1"
         id="stop4333" />
    </linearGradient>
    <linearGradient
       id="linearGradient8467-5">
      <stop
         offset="0"
         style="stop-color:#d3d3d3;stop-opacity:1"
         id="stop8469-7" />
      <stop
         offset="1"
         style="stop-color:#fcf9f9;stop-opacity:1"
         id="stop8471-0" />
    </linearGradient>
    <linearGradient
       inkscape:collect="always"
       xlink:href="#linearGradient4329"
       id="linearGradient5007"
       x1="402.48508"
       y1="518.34387"
       x2="401.18591"
       y2="545.31073"
       gradientUnits="userSpaceOnUse"
       gradientTransform="matrix(1.0161292,0,0,1.0161292,-6.5084643,-8.6248786)" />
    <linearGradient
       inkscape:collect="always"
       xlink:href="#linearGradient4335"
       id="linearGradient4342"
       x1="401.18591"
       y1="545.31073"
       x2="402.48508"
       y2="518.34387"
       gradientUnits="userSpaceOnUse"
       gradientTransform="matrix(1.0161292,0,0,1.0161292,-6.5084643,-8.6248786)" />
    <linearGradient
       inkscape:collect="always"
       xlink:href="#linearGradient8467-5"
       id="linearGradient4350"
       x1="18.245573"
       y1="29.791063"
       x2="16.811239"
       y2="1.1043757"
       gradientUnits="userSpaceOnUse" />
  </defs>
  <sodipodi:namedview
     id="base"
     pagecolor="#ffffff"
     bordercolor="#666666"
     borderopacity="1.0"
     inkscape:pageopacity="0"
     inkscape:pageshadow="2"
     inkscape:zoom="12.132928"
     inkscape:cx="12.521415"
     inkscape:cy="25.44372"
     inkscape:document-units="px"
     inkscape:current-layer="g5011"
     showgrid="true"
     fit-margin-top="0"
     fit-margin-left="0"
     fit-margin-right="0"
     fit-margin-bottom="0"
     inkscape:window-width="1366"
     inkscape:window-height="685"
     inkscape:window-x="0"
     inkscape:window-y="0"
     inkscape:window-maximized="1"
     inkscape:showpageshadow="false"
     borderlayer="true"
     showguides="false"
     inkscape:snap-bbox="true"
     inkscape:bbox-nodes="true"
     inkscape:snap-global="true"
     inkscape:object-nodes="true">
    <inkscape:grid
       type="xygrid"
       id="grid4063" />
    <sodipodi:guide
       position="4.2167969e-05,32.000026"
       orientation="32,0"
       id="guide4625" />
    <sodipodi:guide
       position="4.2167969e-05,2.6367188e-05"
       orientation="0,31.999969"
       id="guide4627" />
    <sodipodi:guide
       position="32.000012,2.6367188e-05"
       orientation="-32,0"
       id="guide4629" />
    <sodipodi:guide
       position="32.000012,32.000026"
       orientation="0,-31.999969"
       id="guide4631" />
    <sodipodi:guide
       position="2,26"
       orientation="28,0"
       id="guide4633" />
    <sodipodi:guide
       position="2.0000422,2.0000264"
       orientation="0,27.999969"
       id="guide4635" />
    <sodipodi:guide
       position="30,17"
       orientation="-28,0"
       id="guide4637" />
    <sodipodi:guide
       position="30.000012,30.000026"
       orientation="0,-27.999969"
       id="guide4639" />
    <sodipodi:guide
       position="9.0000117,24.000271"
       orientation="14,0"
       id="guide4429" />
    <sodipodi:guide
       position="9.0000117,10.000271"
       orientation="0,14.000031"
       id="guide4431" />
    <sodipodi:guide
       position="30,2.0000264"
       orientation="-14,0"
       id="guide4433" />
    <sodipodi:guide
       position="12,15"
       orientation="0,-14.000031"
       id="guide4435" />
  </sodipodi:namedview>
  <metadata
     id="metadata5458">
    <rdf:RDF>
      <cc:Work
         rdf:about="">
        <dc:format>image/svg+xml</dc:format>
        <dc:type
           rdf:resource="http://purl.org/dc/dcmitype/StillImage" />
        <dc:title />
      </cc:Work>
    </rdf:RDF>
  </metadata>
  <g
     inkscape:label="Capa 1"
     inkscape:groupmode="layer"
     id="layer1"
     transform="translate(-384.57143,-499.798)">
    <g
       id="g5011"
       transform="matrix(1.0508504,0,0,1.0508504,-20.380166,-26.903903)">
      <g
         id="g4335"
         transform="matrix(1.5238095,0,0,1.5238095,-202.1272,-286.2206)">
        <circle
           style="opacity:1;fill:url(#linearGradient4342);fill-opacity:1;stroke:url(#linearGradient5007);stroke-width:1.52419364;stroke-miterlimit:4;stroke-dasharray:none;stroke-dashoffset:0;stroke-opacity:1"
           id="path3377"
           cx="400.52377"
           cy="531.74243"
           r="14.225764" />
        <g
           transform="matrix(0.59673654,0,0,0.59673654,390.64486,522.80536)"
           id="g3"
           style="opacity:0.9;fill:url(#linearGradient4350);fill-opacity:1">
          <path
             inkscape:connector-curvature="0"
             d="M 31.821,4.074 C 31.511,2.9 30.31,2.199 29.136,2.508 27.96,2.817 27.259,4.019 27.568,5.194 c 0.146,0.551 0.488,0.996 0.933,1.284 -0.107,1.614 -0.588,3.58 -2.009,5.299 -4.005,-4.569 -5.696,-6.434 -6.479,-7.189 0.418,-0.265 0.771,-0.43 1.004,-0.523 0.529,0.44 1.254,0.629 1.97,0.44 C 24.16,4.196 24.862,2.993 24.552,1.82 24.241,0.645 23.038,-0.057 21.865,0.251 20.984,0.483 20.37,1.217 20.247,2.064 18.591,2.767 12.938,5.896 13.781,15.646 7.59,15.826 4.334,17.465 2.853,18.535 2.472,18.415 2.055,18.396 1.64,18.505 c -1.174,0.312 -1.875,1.512 -1.567,2.688 0.31,1.175 1.512,1.877 2.686,1.565 0.968,-0.254 1.614,-1.117 1.637,-2.069 l 6.472,6.794 c -0.152,0.094 -0.301,0.181 -0.446,0.257 -0.516,-0.376 -1.19,-0.525 -1.856,-0.353 -1.174,0.31 -1.876,1.513 -1.567,2.688 0.31,1.175 1.512,1.877 2.687,1.566 0.916,-0.24 1.541,-1.026 1.627,-1.918 3.028,-1.504 5.535,-5.198 4.881,-11.935 1.943,-0.009 3.734,-0.228 5.343,-0.651 2.406,-0.633 4.406,-1.716 5.921,-3.229 1.911,-1.911 3.002,-4.414 3.188,-7.291 0.932,-0.448 1.449,-1.506 1.175,-2.543 z M 11.73,26.823 4.977,19.735 C 5.41,19.5 5.947,19.248 6.609,19.006 l 6.326,6.303 c -0.362,0.623 -0.777,1.119 -1.205,1.514 z m 1.701,-2.539 -5.667,-5.647 c 0.871,-0.244 1.902,-0.461 3.11,-0.612 l 3.242,3.094 c -0.095,1.261 -0.342,2.304 -0.685,3.165 z m -1.148,-6.406 c 0.552,-0.043 1.135,-0.072 1.751,-0.086 0.073,0.666 0.111,1.289 0.121,1.872 l -1.872,-1.786 z m 3.66,-2.239 c -0.141,-1.48 -0.119,-2.781 0.019,-3.92 l 3.165,3.712 c -0.996,0.144 -2.06,0.214 -3.184,0.208 z m 4.411,-0.427 -4.154,-4.87 c 0.222,-0.963 0.531,-1.787 0.892,-2.491 1.349,1.457 3.855,4.284 5.838,6.54 -0.788,0.344 -1.649,0.618 -2.576,0.821 z m 3.572,-1.316 C 20.41,9.885 18.616,7.884 17.659,6.889 c 0.479,-0.703 0.997,-1.25 1.491,-1.667 0.847,0.837 4.134,4.537 6.602,7.345 -0.535,0.502 -1.148,0.946 -1.826,1.329 z"
             id="path5"
             style="fill:#ffffff;fill-opacity:0.85000002" />
        </g>
      </g>
    </g>
  </g>
</svg>
