<?xml version="1.0" encoding="UTF-8" standalone="no"?>
<svg
   xmlns:sketch="http://www.bohemiancoding.com/sketch/ns"
   xmlns:osb="http://www.openswatchbook.org/uri/2009/osb"
   xmlns:dc="http://purl.org/dc/elements/1.1/"
   xmlns:cc="http://creativecommons.org/ns#"
   xmlns:rdf="http://www.w3.org/1999/02/22-rdf-syntax-ns#"
   xmlns:svg="http://www.w3.org/2000/svg"
   xmlns="http://www.w3.org/2000/svg"
   xmlns:xlink="http://www.w3.org/1999/xlink"
   xmlns:sodipodi="http://sodipodi.sourceforge.net/DTD/sodipodi-0.dtd"
   xmlns:inkscape="http://www.inkscape.org/namespaces/inkscape"
   viewBox="0 0 48 48"
   id="svg2"
   version="1.1"
   inkscape:version="0.91 r13725"
   sodipodi:docname="67EF_addoninstaller.0.svg">
  <metadata
     id="metadata77">
    <rdf:RDF>
      <cc:Work
         rdf:about="">
        <dc:format>image/svg+xml</dc:format>
        <dc:type
           rdf:resource="http://purl.org/dc/dcmitype/StillImage" />
        <dc:title></dc:title>
      </cc:Work>
    </rdf:RDF>
  </metadata>
  <sodipodi:namedview
     pagecolor="#5e5e5e"
     bordercolor="#666666"
     borderopacity="1"
     objecttolerance="10"
     gridtolerance="10"
     guidetolerance="10"
     inkscape:pageopacity="0"
     inkscape:pageshadow="2"
     inkscape:window-width="1366"
     inkscape:window-height="687"
     id="namedview75"
     showgrid="false"
     showborder="false"
     inkscape:zoom="4.9166667"
     inkscape:cx="13.241379"
     inkscape:cy="10.152682"
     inkscape:window-x="0"
     inkscape:window-y="0"
     inkscape:window-maximized="1"
     inkscape:current-layer="svg2" />
  <defs
     id="defs4">
    <linearGradient
       osb:paint="gradient"
       id="linearGradient4207">
      <stop
         id="stop3371"
         offset="0"
         style="stop-color:#3498db;stop-opacity:1;" />
      <stop
         id="stop3373"
         offset="1"
         style="stop-color:#3498db;stop-opacity:0;" />
    </linearGradient>
    <linearGradient
       id="linearGradient4180-0">
      <stop
         style="stop-color:#2b65bd;stop-opacity:1"
         offset="0"
         id="stop4182-2" />
      <stop
         style="stop-color:#64a3dc;stop-opacity:1"
         offset="1"
         id="stop4184-3" />
    </linearGradient>
    <linearGradient
       gradientTransform="matrix(0.4943315,0,0,0.47780365,99.251683,50.118849)"
       gradientUnits="userSpaceOnUse"
       y2="-26.047026"
       x2="-125.19291"
       y1="73.496605"
       x1="-123.9715"
       id="linearGradient4738-6-8"
       xlink:href="#linearGradient4180-0"
       inkscape:collect="always" />
  </defs>
  <g
     id="g33" />
  <g
     id="g4166"
     transform="translate(-12.61017,-37.016949)">
    <rect
       ry="2.9819367"
       y="37.016949"
       x="12.61017"
       height="48"
       width="48"
       id="rect4177-3-1"
       style="opacity:1;fill:url(#linearGradient4738-6-8);fill-opacity:1.0;fill-rule:evenodd;stroke:none;stroke-width:8;stroke-linecap:round;stroke-linejoin:round;stroke-miterlimit:4;stroke-dasharray:none;stroke-dashoffset:0;stroke-opacity:1" />
  </g>
  <path
     style="fill:#ffffff;fill-opacity:0.8508065;stroke:none;stroke-width:1634.15478516;stroke-miterlimit:4;stroke-dasharray:none;stroke-opacity:1"
     sketch:type="MSShapeGroup"
     id="Templates"
     d="m 38.681256,23.227816 -4.465058,-4.466253 c -0.425393,-0.424786 -0.292795,-0.878973 0.293382,-1.010964 0,0 0.484194,-0.109184 1.080572,-0.705583 1.280366,-1.27976 1.279153,-3.357494 0,-4.635453 -1.280956,-1.280386 -3.355695,-1.280386 -4.636062,0 -0.596984,0.596376 -0.704976,1.079963 -0.704976,1.079963 -0.131934,0.587373 -0.58739,0.718776 -1.01157,0.292778 L 24.772485,9.3190451 c -0.424786,-0.4253935 -1.120775,-0.4253935 -1.545561,0 l -4.464472,4.4638639 c -0.424179,0.426 -0.292776,0.881381 0.293401,1.012766 0,0 0.484783,0.109183 1.080571,0.704386 1.278566,1.279762 1.280349,3.356301 0,4.637257 -1.27976,1.279761 -3.357495,1.278566 -4.636061,0 -0.595789,-0.596983 -0.704975,-1.081159 -0.704975,-1.081159 -0.131365,-0.586784 -0.587391,-0.718188 -1.012176,-0.293401 l -4.4644536,4.465059 c -0.4248047,0.424786 -0.4248047,1.119562 0,1.544348 l 4.4644536,4.465078 c 0.424785,0.424786 0.292794,0.880186 -0.293384,1.012177 0,0 -0.484194,0.109184 -1.08057,0.705583 -1.280368,1.280348 -1.280368,3.355693 0,4.635454 1.27976,1.279153 3.355693,1.280367 4.636061,0 0.596983,-0.596377 0.704975,-1.079964 0.704975,-1.079964 0.131935,-0.587391 0.587372,-0.718775 1.01157,-0.292795 l 4.46506,4.463258 c 0.424786,0.425392 1.120775,0.425392 1.545561,0 l 4.465666,-4.464452 c 0.424786,-0.424786 0.292776,-0.881381 -0.293402,-1.012177 0,0 -0.485389,-0.109184 -1.081157,-0.704369 -1.280975,-1.280367 -1.280368,-3.356301 0,-4.637274 1.279759,-1.279761 3.355693,-1.280975 4.63606,0 0.596376,0.596395 0.704368,1.081176 0.704368,1.081176 0.131935,0.586784 0.586785,0.719383 1.012178,0.294597 l 4.465058,-4.466292 c 0.424786,-0.424786 0.424786,-1.119562 0,-1.544348 l 0,0 z"
     inkscape:connector-curvature="0" />
</svg>
