<?xml version="1.0" encoding="UTF-8" standalone="no"?>
<!-- Created with Inkscape (http://www.inkscape.org/) -->

<svg
   xmlns:dc="http://purl.org/dc/elements/1.1/"
   xmlns:cc="http://creativecommons.org/ns#"
   xmlns:rdf="http://www.w3.org/1999/02/22-rdf-syntax-ns#"
   xmlns:svg="http://www.w3.org/2000/svg"
   xmlns="http://www.w3.org/2000/svg"
   xmlns:xlink="http://www.w3.org/1999/xlink"
   xmlns:sodipodi="http://sodipodi.sourceforge.net/DTD/sodipodi-0.dtd"
   xmlns:inkscape="http://www.inkscape.org/namespaces/inkscape"
   width="48"
   height="48"
   id="svg5453"
   version="1.1"
   inkscape:version="0.91 r13725"
   sodipodi:docname="bitcoin-qt.svg"
   viewBox="0 0 48 48">
  <defs
     id="defs5455">
    <linearGradient
       gradientTransform="matrix(1.714285,0,0,1.714285,-278.12221,-387.85531)"
       inkscape:collect="always"
       xlink:href="#linearGradient4422"
       id="linearGradient4149"
       x1="400.57144"
       y1="545.79797"
       x2="400.57144"
       y2="517.79797"
       gradientUnits="userSpaceOnUse" />
    <linearGradient
       id="linearGradient4422">
      <stop
         id="stop4424"
         offset="0"
         style="stop-color:#ff9300;stop-opacity:1" />
      <stop
         id="stop4426"
         offset="1"
         style="stop-color:#ffd702;stop-opacity:1" />
    </linearGradient>
  </defs>
  <sodipodi:namedview
     id="base"
     pagecolor="#ffffff"
     bordercolor="#666666"
     borderopacity="1.0"
     inkscape:pageopacity="0"
     inkscape:pageshadow="2"
     inkscape:zoom="5.6568543"
     inkscape:cx="1.4839433"
     inkscape:cy="25.365108"
     inkscape:document-units="px"
     inkscape:current-layer="layer1"
     showgrid="true"
     fit-margin-top="0"
     fit-margin-left="0"
     fit-margin-right="0"
     fit-margin-bottom="0"
     inkscape:window-width="1366"
     inkscape:window-height="687"
     inkscape:window-x="0"
     inkscape:window-y="0"
     inkscape:window-maximized="1">
    <inkscape:grid
       type="xygrid"
       id="grid3000" />
  </sodipodi:namedview>
  <metadata
     id="metadata5458">
    <rdf:RDF>
      <cc:Work
         rdf:about="">
        <dc:format>image/svg+xml</dc:format>
        <dc:type
           rdf:resource="http://purl.org/dc/dcmitype/StillImage" />
        <dc:title />
      </cc:Work>
    </rdf:RDF>
  </metadata>
  <g
     inkscape:label="Capa 1"
     inkscape:groupmode="layer"
     id="layer1"
     transform="translate(-384.57143,-499.798)">
    <rect
       ry="24"
       y="499.79797"
       x="384.57144"
       height="48.000027"
       width="48"
       id="rect4130"
       style="opacity:1;fill:url(#linearGradient4149);fill-opacity:1;stroke:none" />
    <path
       style="fill:#342500;fill-opacity:1"
       d="m 406.35441,509.79802 0,2.11464 0,2.11443 0.12049,0.0297 c 0.0662,0.0164 0.49385,0.0229 0.95022,0.0145 l 0.82976,-0.0154 0.014,-2.12802 0.014,-2.12782 1.25749,-10e-6 1.25727,10e-6 0,2.1429 c 10e-6,1.66835 0.0149,2.1473 0.067,2.16247 0.0368,0.0109 0.36253,0.0584 0.72372,0.10603 1.61362,0.21288 3.04322,0.71179 4.003,1.39666 0.77566,0.5535 1.39969,1.42807 1.60447,2.24872 0.12591,0.50609 0.12936,1.57651 0.005,2.0847 -0.24536,1.01042 -0.96605,2.03144 -1.86709,2.64542 -0.13986,0.0953 -0.25414,0.19427 -0.25415,0.2199 1e-4,0.0256 0.12634,0.088 0.28092,0.13878 0.44033,0.14432 1.09853,0.49187 1.51055,0.79766 0.79453,0.58968 1.36327,1.40304 1.61127,2.30417 0.11928,0.43436 0.16288,1.71573 0.0795,2.3471 -0.22534,1.70585 -0.84659,2.86575 -2.00053,3.73527 -1.14125,0.85997 -2.52654,1.25513 -4.64021,1.32334 l -1.0975,0.0352 -0.0138,2.15481 -0.014,2.1548 -1.25683,-1e-5 -1.25685,0 -0.014,-2.15479 -0.014,-2.15482 -0.93683,1e-5 -0.93684,0 -0.014,2.1548 -0.0138,2.15481 -1.25749,-1e-5 -1.25746,1e-5 -1e-5,-2.16818 0,-2.16821 -2.5428,10e-6 -2.54281,10e-6 0,-0.49998 c 0,-0.27504 0.0157,-0.86512 0.0351,-1.31146 l 0.0351,-0.8117 1.04287,0 c 1.1579,0 1.37665,-0.0388 1.64569,-0.29258 0.36035,-0.33985 0.34638,-0.058 0.34507,-6.9306 -9.1e-4,-6.01576 -0.003,-6.19322 -0.10538,-6.4166 -0.0869,-0.19158 -0.15567,-0.25352 -0.41371,-0.3727 -0.3017,-0.13934 -0.34061,-0.14331 -1.55412,-0.16448 l -1.24473,-0.0219 0,-1.27787 -10e-6,-1.2781 2.63651,-0.014 2.63652,-0.0138 0.0267,-2.11465 0.0267,-2.11442 1.24475,-0.0144 z m 1e-5,7.06851 -1e-5,2.5651 c 0,1.41087 0.0146,2.60332 0.0325,2.6499 0.0288,0.0751 0.24638,0.0848 1.89811,0.0848 1.81923,0 1.87387,-0.002 2.20878,-0.12471 0.96686,-0.35099 1.50621,-0.93235 1.75045,-1.88729 0.25886,-1.0122 0.0144,-1.97227 -0.62897,-2.46949 -0.8108,-0.62661 -1.72229,-0.81828 -3.88932,-0.81827 z m 0.0267,7.94967 -0.0139,2.81054 c -0.008,1.54577 -0.002,2.84304 0.0139,2.88276 0.0412,0.10767 3.90939,0.054 4.44328,-0.0616 1.10129,-0.23854 1.90149,-0.70842 2.31947,-1.36224 0.2526,-0.39516 0.44311,-1.03276 0.47533,-1.59023 0.0767,-1.32821 -0.63653,-2.11567 -2.31289,-2.55343 -0.46837,-0.12229 -0.54382,-0.12578 -2.70346,-0.12578 z"
       id="path3379"
       inkscape:connector-curvature="0"
       sodipodi:nodetypes="ccccccccccsssssssssssssccccccccccccccccccsccssssscccccccccccscsssssccccsssssc" />
  </g>
</svg>
