<?xml version="1.0" encoding="UTF-8" standalone="no"?>
<!-- Created with Inkscape (http://www.inkscape.org/) -->

<svg
   xmlns:dc="http://purl.org/dc/elements/1.1/"
   xmlns:cc="http://creativecommons.org/ns#"
   xmlns:rdf="http://www.w3.org/1999/02/22-rdf-syntax-ns#"
   xmlns:svg="http://www.w3.org/2000/svg"
   xmlns="http://www.w3.org/2000/svg"
   xmlns:xlink="http://www.w3.org/1999/xlink"
   xmlns:sodipodi="http://sodipodi.sourceforge.net/DTD/sodipodi-0.dtd"
   xmlns:inkscape="http://www.inkscape.org/namespaces/inkscape"
   width="48"
   height="48"
   id="svg5453"
   version="1.1"
   inkscape:version="0.91 r13725"
   sodipodi:docname="blogger.svg">
  <defs
     id="defs5455">
    <linearGradient
       inkscape:collect="always"
       xlink:href="#linearGradient4422"
       id="linearGradient5299"
       gradientUnits="userSpaceOnUse"
       x1="-318.57867"
       y1="653.95679"
       x2="-318.57867"
       y2="301.29816" />
    <linearGradient
       id="linearGradient4422">
      <stop
         style="stop-color:#f15f19;stop-opacity:1"
         offset="0"
         id="stop4424" />
      <stop
         style="stop-color:#fbb521;stop-opacity:1"
         offset="1"
         id="stop4426" />
    </linearGradient>
  </defs>
  <sodipodi:namedview
     id="base"
     pagecolor="#ffffff"
     bordercolor="#666666"
     borderopacity="1.0"
     inkscape:pageopacity="0"
     inkscape:pageshadow="2"
     inkscape:zoom="4"
     inkscape:cx="-64.70376"
     inkscape:cy="15.968792"
     inkscape:document-units="px"
     inkscape:current-layer="g4213"
     showgrid="true"
     fit-margin-top="0"
     fit-margin-left="0"
     fit-margin-right="0"
     fit-margin-bottom="0"
     inkscape:window-width="1366"
     inkscape:window-height="687"
     inkscape:window-x="0"
     inkscape:window-y="0"
     inkscape:window-maximized="1"
     inkscape:showpageshadow="false"
     borderlayer="true"
     showguides="false">
    <inkscape:grid
       type="xygrid"
       id="grid4063" />
    <sodipodi:guide
       position="1.1650391e-05,32.000026"
       orientation="32,0"
       id="guide4157" />
    <sodipodi:guide
       position="1.1650391e-05,2.6367188e-05"
       orientation="0,32"
       id="guide4159" />
    <sodipodi:guide
       position="32.000012,2.6367188e-05"
       orientation="-32,0"
       id="guide4161" />
    <sodipodi:guide
       position="32.000012,32.000026"
       orientation="0,-32"
       id="guide4163" />
    <sodipodi:guide
       position="2.0000117,30.000026"
       orientation="28,0"
       id="guide4167" />
    <sodipodi:guide
       position="2.0000117,2.0000264"
       orientation="0,28"
       id="guide4169" />
    <sodipodi:guide
       position="30.000012,2.0000264"
       orientation="-28,0"
       id="guide4171" />
    <sodipodi:guide
       position="30.000012,30.000026"
       orientation="0,-28"
       id="guide4173" />
    <sodipodi:guide
       position="2.0000117,30.000026"
       orientation="28,0"
       id="guide4181" />
    <sodipodi:guide
       position="2.0000117,2.0000264"
       orientation="0,14"
       id="guide4183" />
    <sodipodi:guide
       position="16.000012,2.0000264"
       orientation="-28,0"
       id="guide4185" />
    <sodipodi:guide
       position="16.000012,30.000026"
       orientation="0,-14"
       id="guide4187" />
    <sodipodi:guide
       position="9.0000117,23.000026"
       orientation="14,0"
       id="guide4193" />
    <sodipodi:guide
       position="9.0000117,9.0000264"
       orientation="0,14.000031"
       id="guide4195" />
    <sodipodi:guide
       position="23.000042,9.0000264"
       orientation="-14,0"
       id="guide4197" />
    <sodipodi:guide
       position="23.000042,23.000026"
       orientation="0,-14.000031"
       id="guide4199" />
  </sodipodi:namedview>
  <metadata
     id="metadata5458">
    <rdf:RDF>
      <cc:Work
         rdf:about="">
        <dc:format>image/svg+xml</dc:format>
        <dc:type
           rdf:resource="http://purl.org/dc/dcmitype/StillImage" />
        <dc:title></dc:title>
      </cc:Work>
    </rdf:RDF>
  </metadata>
  <g
     inkscape:label="Capa 1"
     inkscape:groupmode="layer"
     id="layer1"
     transform="translate(-384.57143,-499.798)">
    <g
       style="display:inline;enable-background:new"
       id="g4238"
       transform="translate(225.81911,462.44565)">
      <g
         style="display:inline"
         id="layer1-8"
         transform="matrix(0.22655187,0,0,0.22655187,106.94841,54.31088)">
        <g
           style="display:none"
           id="layer6" />
        <g
           id="g4027" />
        <g
           id="g4061" />
        <g
           id="g3751" />
        <g
           id="g3782" />
        <g
           id="g3725" />
        <g
           id="g4370"
           transform="matrix(4.4140002,0,0,4.4140002,59.275211,39.357303)">
          <g
             id="g4182"
             transform="matrix(1.7142857,0,0,1.7142857,-30.839285,-12.375017)">
            <g
               transform="matrix(1.6770834,0,0,1.6770834,35.753027,-1741.5948)"
               style="fill:#ffffff;fill-opacity:0.8508065"
               id="g4213">
              <circle
                 style="opacity:1;fill:url(#linearGradient5299);fill-opacity:1.0;stroke:none;stroke-width:15.44461155;stroke-linecap:round;stroke-linejoin:round;stroke-miterlimit:4;stroke-dasharray:none;stroke-opacity:1"
                 id="path4217"
                 cx="-325.88733"
                 cy="478.74667"
                 r="173.44701"
                 transform="matrix(0.04812897,0,0,0.04812897,26.788406,1019.077)" />
              <path
                 id="path4315-0"
                 d="m 10.930609,1037.9498 c -0.181914,0 -0.407651,0 -0.69426,0 -1.0664382,0.01 -1.0664382,0.01 -1.3137399,0.076 -0.5053939,0.136 -1.0379114,0.4877 -1.3655683,0.8724 -0.361388,0.424 -0.6278243,0.905 -0.6278243,1.4838 0,0.2745 0,1.9322 0,2.9715 0.057043,2.2445 1.3655629,2.8859 2.4347809,2.9416 0.2281781,0 3.1304386,0 3.4782626,0 1.33009,-0.1075 2.400694,-1.3465 2.43478,-2.2393 l 0,-1.2446 c 0.0044,-1.0313 0.0044,-1.3871 -0.112693,-1.5259 -0.122436,-0.1454 -0.214608,-0.2132 -0.584346,-0.2132 -0.360001,0 -0.489044,0.016 -0.607308,-0.073 -0.149565,-0.1127 -0.187479,-0.2118 -0.211823,-0.5339 -0.08139,-1.1523 -0.797567,-2.0748 -1.866785,-2.4104 -0.262259,-0.083 -0.419824,-0.1089 -0.965911,-0.1127 m -1.3547835,2.0939 1.5311275,0 c 0.307136,0 0.557222,0.2473 0.557222,0.5572 0,0.3085 -0.248699,0.4863 -0.557222,0.4863 l -1.5311275,0 c -0.3085224,0 -0.5572166,-0.1781 -0.5572166,-0.4863 0,-0.3085 0.2473017,-0.5572 0.5572166,-0.5572 m 0,3.1304 3.0612185,0 c 0.308522,0 0.557216,0.1795 0.557216,0.4863 0,0.3085 -0.247301,0.5572 -0.557216,0.5572 l -3.0612185,0 c -0.3085224,0 -0.5572166,-0.2473 -0.5572166,-0.5572 0,-0.3071 0.2473017,-0.4863 0.5572166,-0.4863 m 0,0"
                 inkscape:connector-curvature="0"
                 style="fill:#ffffff;fill-opacity:0.85;fill-rule:nonzero;stroke:none" />
            </g>
          </g>
        </g>
      </g>
    </g>
  </g>
</svg>
