<?xml version="1.0" encoding="UTF-8" standalone="no"?>
<!-- Created with Inkscape (http://www.inkscape.org/) -->

<svg
   xmlns:dc="http://purl.org/dc/elements/1.1/"
   xmlns:cc="http://creativecommons.org/ns#"
   xmlns:rdf="http://www.w3.org/1999/02/22-rdf-syntax-ns#"
   xmlns:svg="http://www.w3.org/2000/svg"
   xmlns="http://www.w3.org/2000/svg"
   xmlns:xlink="http://www.w3.org/1999/xlink"
   xmlns:sodipodi="http://sodipodi.sourceforge.net/DTD/sodipodi-0.dtd"
   xmlns:inkscape="http://www.inkscape.org/namespaces/inkscape"
   width="48"
   height="48"
   id="svg2"
   version="1.1"
   inkscape:version="0.91 r13725"
   sodipodi:docname="accessories-media-converter.svg">
  <defs
     id="defs4">
    <linearGradient
       id="linearGradient4045">
      <stop
         id="stop4047"
         offset="0"
         style="stop-color:#c2def5;stop-opacity:1" />
      <stop
         id="stop4049"
         offset="1"
         style="stop-color:#f6fdfe;stop-opacity:1" />
    </linearGradient>
    <linearGradient
       id="linearGradient861-5">
      <stop
         style="stop-color:#2a80bb;stop-opacity:1"
         offset="0"
         id="stop863-8" />
      <stop
         style="stop-color:#63c2f4;stop-opacity:1"
         offset="1"
         id="stop865-3" />
    </linearGradient>
    <linearGradient
       inkscape:collect="always"
       xlink:href="#linearGradient4143"
       id="linearGradient4208"
       x1="410.0715"
       y1="543.79791"
       x2="410.0715"
       y2="504.79794"
       gradientUnits="userSpaceOnUse"
       gradientTransform="matrix(1.1481468,0,0,1.1481468,-63.000992,-78.072871)" />
    <linearGradient
       inkscape:collect="always"
       id="linearGradient4143">
      <stop
         style="stop-color:#197cf1;stop-opacity:1"
         offset="0"
         id="stop4145" />
      <stop
         style="stop-color:#20bcfa;stop-opacity:1"
         offset="1"
         id="stop4147" />
    </linearGradient>
  </defs>
  <sodipodi:namedview
     id="base"
     pagecolor="#ffffff"
     bordercolor="#666666"
     borderopacity="1.0"
     inkscape:pageopacity="0.0"
     inkscape:pageshadow="2"
     inkscape:zoom="8.4687506"
     inkscape:cx="1.3443989"
     inkscape:cy="21.608015"
     inkscape:document-units="px"
     inkscape:current-layer="layer1"
     showgrid="true"
     inkscape:window-width="1366"
     inkscape:window-height="685"
     inkscape:window-x="0"
     inkscape:window-y="0"
     inkscape:window-maximized="1"
     inkscape:snap-bbox="true"
     showguides="true"
     inkscape:guide-bbox="true">
    <inkscape:grid
       type="xygrid"
       id="grid3850" />
    <sodipodi:guide
       position="43,-2"
       orientation="0,1"
       id="guide4146" />
  </sodipodi:namedview>
  <metadata
     id="metadata7">
    <rdf:RDF>
      <cc:Work
         rdf:about="">
        <dc:format>image/svg+xml</dc:format>
        <dc:type
           rdf:resource="http://purl.org/dc/dcmitype/StillImage" />
        <dc:title />
      </cc:Work>
    </rdf:RDF>
  </metadata>
  <g
     inkscape:label="Capa 1"
     inkscape:groupmode="layer"
     id="layer1"
     transform="translate(0,-1004.3622)">
    <g
       id="g4452"
       transform="matrix(1.0719616,0,0,1.0719616,-413.16876,466.76352)">
      <circle
         style="opacity:1;fill:url(#linearGradient4208);fill-opacity:1;stroke:none;stroke-width:2;stroke-linecap:round;stroke-linejoin:round;stroke-miterlimit:4;stroke-dasharray:none;stroke-opacity:1"
         id="path4200"
         cx="407.82129"
         cy="523.89813"
         r="22.388863" />
    </g>
    <g
       id="g3"
       transform="matrix(0.35137849,0,0,0.35137849,5.9995827,1010.362)"
       style="fill:#ffffff;fill-opacity:0.8533835">
      <g
         id="g5"
         style="fill:#ffffff;fill-opacity:0.8533835">
        <path
           d="m 61.977,17.156 -13.7,13.699 c -0.789,0.79 -2.074,0.79 -2.866,0 l -0.197,-0.202 0,-10.085 c -16.543,1.156 -29.65,14.975 -29.65,31.806 0,11.82 6.487,22.617 16.937,28.175 2.631,1.402 3.631,4.671 2.233,7.31 -1.403,2.635 -4.671,3.634 -7.306,2.231 C 13.445,82.65 4.758,68.201 4.758,52.374 4.758,29.582 22.711,10.904 45.215,9.733 l 0,-8.941 0.197,-0.199 c 0.792,-0.79 2.077,-0.79 2.866,0 l 13.699,13.696 c 0.794,0.794 0.794,2.08 0,2.867 z"
           id="path7"
           inkscape:connector-curvature="0"
           style="fill:#ffffff;fill-opacity:0.8533835" />
        <path
           d="M 54.174,101.861 40.477,88.166 c -0.792,-0.79 -0.792,-2.074 0,-2.864 L 54.174,71.607 c 0.791,-0.794 2.074,-0.794 2.868,0 l 0.191,0.198 0.007,10.082 c 16.536,-1.154 29.65,-14.969 29.65,-31.803 0,-11.82 -6.491,-22.614 -16.939,-28.175 -2.635,-1.4 -3.635,-4.675 -2.234,-7.31 1.406,-2.635 4.678,-3.634 7.312,-2.231 13.979,7.44 22.669,21.892 22.669,37.716 0,22.794 -17.953,41.469 -40.457,42.636 l 0,8.942 -0.198,0.198 c -0.795,0.792 -2.078,0.792 -2.869,0.001 z"
           id="path9"
           inkscape:connector-curvature="0"
           style="fill:#ffffff;fill-opacity:0.8533835" />
      </g>
    </g>
  </g>
</svg>
