<?xml version="1.0" encoding="UTF-8" standalone="no"?>
<!-- Created with Inkscape (http://www.inkscape.org/) -->

<svg
   xmlns:dc="http://purl.org/dc/elements/1.1/"
   xmlns:cc="http://creativecommons.org/ns#"
   xmlns:rdf="http://www.w3.org/1999/02/22-rdf-syntax-ns#"
   xmlns:svg="http://www.w3.org/2000/svg"
   xmlns="http://www.w3.org/2000/svg"
   xmlns:xlink="http://www.w3.org/1999/xlink"
   xmlns:sodipodi="http://sodipodi.sourceforge.net/DTD/sodipodi-0.dtd"
   xmlns:inkscape="http://www.inkscape.org/namespaces/inkscape"
   width="48"
   height="48"
   id="svg5453"
   version="1.1"
   inkscape:version="0.91 r13725"
   sodipodi:docname="desura.svg">
  <defs
     id="defs5455">
    <linearGradient
       gradientTransform="matrix(0.13837079,0,0,0.13837079,122.46629,-92.959556)"
       inkscape:collect="always"
       xlink:href="#linearGradient4264"
       id="linearGradient5299"
       gradientUnits="userSpaceOnUse"
       x1="-318.57867"
       y1="653.95679"
       x2="-318.57867"
       y2="301.29816" />
    <linearGradient
       inkscape:collect="always"
       id="linearGradient4264">
      <stop
         style="stop-color:#0a80fd;stop-opacity:1"
         offset="0"
         id="stop4266" />
      <stop
         style="stop-color:#56c5fa;stop-opacity:1"
         offset="1"
         id="stop4268" />
    </linearGradient>
  </defs>
  <sodipodi:namedview
     id="base"
     pagecolor="#ffffff"
     bordercolor="#666666"
     borderopacity="1.0"
     inkscape:pageopacity="0"
     inkscape:pageshadow="2"
     inkscape:zoom="4"
     inkscape:cx="30.091462"
     inkscape:cy="15.968792"
     inkscape:document-units="px"
     inkscape:current-layer="layer1-8"
     showgrid="true"
     fit-margin-top="0"
     fit-margin-left="0"
     fit-margin-right="0"
     fit-margin-bottom="0"
     inkscape:window-width="1366"
     inkscape:window-height="687"
     inkscape:window-x="0"
     inkscape:window-y="0"
     inkscape:window-maximized="1"
     inkscape:showpageshadow="false"
     borderlayer="true"
     showguides="false">
    <inkscape:grid
       type="xygrid"
       id="grid4063" />
    <sodipodi:guide
       position="1.1650391e-05,32.000026"
       orientation="32,0"
       id="guide4157" />
    <sodipodi:guide
       position="1.1650391e-05,2.6367188e-05"
       orientation="0,32"
       id="guide4159" />
    <sodipodi:guide
       position="32.000012,2.6367188e-05"
       orientation="-32,0"
       id="guide4161" />
    <sodipodi:guide
       position="32.000012,32.000026"
       orientation="0,-32"
       id="guide4163" />
    <sodipodi:guide
       position="2.0000117,30.000026"
       orientation="28,0"
       id="guide4167" />
    <sodipodi:guide
       position="2.0000117,2.0000264"
       orientation="0,28"
       id="guide4169" />
    <sodipodi:guide
       position="30.000012,2.0000264"
       orientation="-28,0"
       id="guide4171" />
    <sodipodi:guide
       position="30.000012,30.000026"
       orientation="0,-28"
       id="guide4173" />
    <sodipodi:guide
       position="2.0000117,30.000026"
       orientation="28,0"
       id="guide4181" />
    <sodipodi:guide
       position="2.0000117,2.0000264"
       orientation="0,14"
       id="guide4183" />
    <sodipodi:guide
       position="16.000012,2.0000264"
       orientation="-28,0"
       id="guide4185" />
    <sodipodi:guide
       position="16.000012,30.000026"
       orientation="0,-14"
       id="guide4187" />
    <sodipodi:guide
       position="9.0000117,23.000026"
       orientation="14,0"
       id="guide4193" />
    <sodipodi:guide
       position="9.0000117,9.0000264"
       orientation="0,14.000031"
       id="guide4195" />
    <sodipodi:guide
       position="23.000042,9.0000264"
       orientation="-14,0"
       id="guide4197" />
    <sodipodi:guide
       position="23.000042,23.000026"
       orientation="0,-14.000031"
       id="guide4199" />
  </sodipodi:namedview>
  <metadata
     id="metadata5458">
    <rdf:RDF>
      <cc:Work
         rdf:about="">
        <dc:format>image/svg+xml</dc:format>
        <dc:type
           rdf:resource="http://purl.org/dc/dcmitype/StillImage" />
        <dc:title></dc:title>
      </cc:Work>
    </rdf:RDF>
  </metadata>
  <g
     inkscape:label="Capa 1"
     inkscape:groupmode="layer"
     id="layer1"
     transform="translate(-384.57143,-499.798)">
    <g
       style="display:inline;enable-background:new"
       id="g4238"
       transform="translate(225.81911,462.44565)">
      <g
         style="display:inline"
         id="layer1-8"
         transform="matrix(0.22655187,0,0,0.22655187,106.94841,54.31088)">
        <g
           style="display:none"
           id="layer6" />
        <g
           id="g4027" />
        <g
           id="g4061" />
        <g
           id="g3751" />
        <g
           id="g3782" />
        <g
           id="g3725" />
        <g
           id="g4370"
           transform="matrix(4.4140002,0,0,4.4140002,59.275211,39.357303)">
          <g
             id="g4182"
             transform="translate(-14.998001,24.84)">
            <circle
               r="24"
               cy="-26.715"
               cx="77.373001"
               id="path4217"
               style="opacity:1;fill:url(#linearGradient5299);fill-opacity:1;stroke:none;stroke-width:15.44461155;stroke-linecap:round;stroke-linejoin:round;stroke-miterlimit:4;stroke-dasharray:none;stroke-opacity:1" />
          </g>
        </g>
        <path
           style="display:inline;fill:#000000;fill-opacity:0.72014928"
           id="path3033"
           inkscape:connector-curvature="0"
           d="m 334.67964,-25.561228 c -0.12977,-0.05738 -6.16768,5.015187 -13.43434,11.330297 -10.52497,9.1458089 -13.4105,11.4940569 -14.08179,11.4927329 -0.46341,-8.83e-4 -7.92689,-0.701826 -16.67153,-1.619497 -8.74463,-0.917229 -15.95401,-1.607137 -16.0241,-1.537396 -0.1378,0.141248 -12.21568,40.0786791 -12.38225,40.9508891 -0.0715,0.37519 4.76341,4.66251 16.59061,14.72863 l 16.67153,14.16277 5.98879,0 c 3.2818,0 6.56745,-0.13684 7.36462,-0.23395 l 1.45673,-0.1589 -17.56175,-14.56664 c -9.66536,-7.99464 -17.55218,-14.72555 -17.56177,-14.97273 -0.01,-0.23836 1.63308,-5.42349 3.64185,-11.57307 2.00877,-6.14914 4.00848,-12.5211951 4.53206,-14.1623201 0.94483,-2.96047 0.96963,-3.005934 1.94232,-2.994458 0.53909,0 6.94104,0.72213 14.16271,1.619055 l 13.11062,1.618614 10.27808,-8.82093799 c 5.65308,-4.88409101 10.64559,-9.22570201 11.08739,-9.63179001 l 0.80928,-0.7278679 8.093,6.9595539 c 4.43879,3.84062101 9.40439,8.183115 11.08736,9.631348 l 3.07534,2.589694 14.00086,-1.700273 c 7.71052,-0.9521 14.03221,-1.710425 14.08178,-1.618172 0.15797,0.291324 9.38785,28.6989441 9.38785,28.8922841 0,0.10152 -7.94315,6.76445 -17.64269,14.80941 l -17.6427,14.6483 1.53768,0.1589 c 0.82184,0.10153 4.1277,0.22512 7.36459,0.23395 l 5.90789,0.075 16.5906,-14.16497 c 9.13293,-7.76158 16.62507,-14.21397 16.67154,-14.40465 0.0697,-0.28691 -12.08219,-41.2161701 -12.30134,-41.4351041 -0.0375,-0.05738 -7.27837,0.692115 -16.10501,1.618172 -8.82664,0.924292 -16.38118,1.666285 -16.83339,1.618173 -0.57918,-0.06621 -4.73591,-3.436741 -13.91993,-11.4119569 -7.17123,-6.224623 -13.14277,-11.363843 -13.27249,-11.408866 z m -0.16182,24.68397191 -7.44554,7.52631199 -7.3646,7.6075321 0,6.55611 c -0.0225,10.29698 1.16246,19.03714 3.5609,26.46282 2.20503,6.82845 4.77658,11.4093 8.65949,15.29627 1.30304,1.30346 2.44024,2.34649 2.58975,2.34649 0.60135,0 3.71869,-3.07171 5.34137,-5.25929 2.41358,-3.25576 4.43964,-7.25529 5.9888,-11.97827 2.51409,-7.66712 3.49796,-14.35168 3.72278,-25.41184 l 0.16182,-8.01229 -7.6074,-7.6075321 -7.60741,-7.52631199 z M 380.16223,14.498918 c -0.0761,-0.075 -4.40193,0.37077 -9.63065,0.97152 -5.22871,0.59633 -9.69711,1.13263 -9.87343,1.13263 -0.20688,0 -0.32363,1.40763 -0.32363,3.96598 0,13.47815 -4.8497,29.72388 -12.05854,40.46491 -1.67003,2.48817 -1.83225,2.95738 -1.13302,2.50891 4.66893,-2.99975 37.93181,-31.13856 37.79421,-31.96751 -0.15118,-0.91061 -4.63265,-16.93299 -4.77506,-17.07644 z m -91.12694,0.1589 c -0.12536,0.13683 -1.22728,4.10723 -2.50882,8.81961 l -2.34696,8.49872 0.8093,0.80953 c 7.81159,6.83949 29.24879,24.79255 34.31422,28.72984 1.75748,1.36525 3.26826,2.39592 3.31812,2.34604 0.05,-0.0574 -0.76181,-1.40365 -1.86139,-3.07523 -7.06088,-10.72735 -11.29557,-24.80845 -11.97761,-39.81737 -0.1107,-2.43256 -0.30532,-4.36942 -0.40463,-4.36942 -0.0992,0 -4.42873,-0.53895 -9.63064,-1.13396 -5.202,-0.59456 -9.58624,-0.94195 -9.71165,-0.80688 z m 28.08263,55.19266 -17.64268,0.075 17.56176,8.98249 c 9.62535,4.91278 17.55223,8.85316 17.64269,8.82094 0.0904,-0.0574 8.03045,-4.02072 17.64269,-8.9026 l 17.48083,-8.90083 -17.56176,-0.075 c -9.66069,-0.053 -25.45617,-0.053 -35.12361,0.003 z" />
      </g>
    </g>
  </g>
</svg>
