<?xml version="1.0" encoding="UTF-8" standalone="no"?>
<!-- Created with Inkscape (http://www.inkscape.org/) -->

<svg
   xmlns:dc="http://purl.org/dc/elements/1.1/"
   xmlns:cc="http://creativecommons.org/ns#"
   xmlns:rdf="http://www.w3.org/1999/02/22-rdf-syntax-ns#"
   xmlns:svg="http://www.w3.org/2000/svg"
   xmlns="http://www.w3.org/2000/svg"
   xmlns:xlink="http://www.w3.org/1999/xlink"
   xmlns:sodipodi="http://sodipodi.sourceforge.net/DTD/sodipodi-0.dtd"
   xmlns:inkscape="http://www.inkscape.org/namespaces/inkscape"
   width="48"
   height="48"
   id="svg5453"
   version="1.1"
   inkscape:version="0.91 r13725"
   sodipodi:docname="dosbox.svg">
  <defs
     id="defs5455">
    <linearGradient
       gradientTransform="matrix(0.63636365,0,0,0.62141556,-252.2106,-311.09261)"
       gradientUnits="userSpaceOnUse"
       y2="507.798"
       x2="409.57144"
       y1="542.79797"
       x1="409.57144"
       id="linearGradient4222"
       xlink:href="#linearGradient3770"
       inkscape:collect="always" />
    <linearGradient
       id="linearGradient3770">
      <stop
         id="stop3772"
         offset="0"
         style="stop-color:#2c3e50;stop-opacity:1;" />
      <stop
         id="stop3774"
         offset="1"
         style="stop-color:#5b7085;stop-opacity:1;" />
    </linearGradient>
  </defs>
  <sodipodi:namedview
     id="base"
     pagecolor="#ffffff"
     bordercolor="#666666"
     borderopacity="1.0"
     inkscape:pageopacity="0"
     inkscape:pageshadow="2"
     inkscape:zoom="8"
     inkscape:cx="25.176259"
     inkscape:cy="27.546868"
     inkscape:document-units="px"
     inkscape:current-layer="text4168"
     showgrid="true"
     fit-margin-top="0"
     fit-margin-left="0"
     fit-margin-right="0"
     fit-margin-bottom="0"
     inkscape:window-width="1366"
     inkscape:window-height="687"
     inkscape:window-x="0"
     inkscape:window-y="0"
     inkscape:window-maximized="1"
     inkscape:showpageshadow="false"
     borderlayer="true"
     showguides="false">
    <inkscape:grid
       type="xygrid"
       id="grid4063" />
    <sodipodi:guide
       position="1.1650391e-05,32.000026"
       orientation="32,0"
       id="guide4157" />
    <sodipodi:guide
       position="1.1650391e-05,2.6367188e-05"
       orientation="0,32"
       id="guide4159" />
    <sodipodi:guide
       position="32.000012,2.6367188e-05"
       orientation="-32,0"
       id="guide4161" />
    <sodipodi:guide
       position="32.000012,32.000026"
       orientation="0,-32"
       id="guide4163" />
    <sodipodi:guide
       position="2.0000117,30.000026"
       orientation="28,0"
       id="guide4167" />
    <sodipodi:guide
       position="2.0000117,2.0000264"
       orientation="0,28"
       id="guide4169" />
    <sodipodi:guide
       position="30.000012,2.0000264"
       orientation="-28,0"
       id="guide4171" />
    <sodipodi:guide
       position="30.000012,30.000026"
       orientation="0,-28"
       id="guide4173" />
    <sodipodi:guide
       position="2.0000117,30.000026"
       orientation="28,0"
       id="guide4181" />
    <sodipodi:guide
       position="2.0000117,2.0000264"
       orientation="0,14"
       id="guide4183" />
    <sodipodi:guide
       position="16.000012,2.0000264"
       orientation="-28,0"
       id="guide4185" />
    <sodipodi:guide
       position="16.000012,30.000026"
       orientation="0,-14"
       id="guide4187" />
    <sodipodi:guide
       position="9.0000117,23.000026"
       orientation="14,0"
       id="guide4193" />
    <sodipodi:guide
       position="9.0000117,9.0000264"
       orientation="0,14.000031"
       id="guide4195" />
    <sodipodi:guide
       position="23.000042,9.0000264"
       orientation="-14,0"
       id="guide4197" />
    <sodipodi:guide
       position="23.000042,23.000026"
       orientation="0,-14.000031"
       id="guide4199" />
  </sodipodi:namedview>
  <metadata
     id="metadata5458">
    <rdf:RDF>
      <cc:Work
         rdf:about="">
        <dc:format>image/svg+xml</dc:format>
        <dc:type
           rdf:resource="http://purl.org/dc/dcmitype/StillImage" />
        <dc:title></dc:title>
      </cc:Work>
    </rdf:RDF>
  </metadata>
  <g
     inkscape:label="Capa 1"
     inkscape:groupmode="layer"
     id="layer1"
     transform="translate(-384.57143,-499.798)">
    <g
       style="display:inline;enable-background:new"
       id="g4238"
       transform="translate(225.81911,462.44565)">
      <g
         style="display:inline"
         id="layer1-8"
         transform="matrix(0.22655187,0,0,0.22655187,106.94841,54.31088)">
        <g
           style="display:none"
           id="layer6" />
        <g
           id="g4027" />
        <g
           id="g4061" />
        <g
           id="g3751" />
        <g
           id="g3782" />
        <g
           id="g3725" />
        <g
           id="g4370"
           transform="matrix(4.4140002,0,0,4.4140002,59.275211,39.357303)">
          <g
             transform="matrix(1.7142857,0,0,1.7142857,49.021715,-27.632174)"
             id="g4191">
            <rect
               ry="0.9942649"
               y="4.4609537"
               x="-6.2105837"
               height="21.128128"
               width="28"
               id="rect4195"
               style="opacity:1;fill:url(#linearGradient4222);fill-opacity:1.0;stroke:none;stroke-width:0.2;stroke-linecap:round;stroke-linejoin:round;stroke-miterlimit:4;stroke-dasharray:none;stroke-opacity:1" />
          </g>
        </g>
        <g
           id="g4188"
           transform="translate(83.010753,4.5764057e-7)">
          <g
             transform="matrix(0.84974332,0,0,0.84974332,106.26896,35.159594)"
             id="text4168"
             style="font-style:normal;font-weight:normal;font-size:97.56224823px;line-height:125%;font-family:sans-serif;letter-spacing:0px;word-spacing:0px;fill:#000000;fill-opacity:1;stroke:none;stroke-width:1px;stroke-linecap:butt;stroke-linejoin:miter;stroke-opacity:1">
            <g
               id="g4199"
               transform="matrix(1.2239778,0,0,1.2239778,-43.19206,1.0750345)"
               style="fill:#ffffff;fill-opacity:1;stroke:#ffffff;stroke-opacity:1">
              <g
                 style="display:inline;fill:#ffffff;fill-opacity:1;stroke:#ffffff;stroke-opacity:1;enable-background:new"
                 id="g4181"
                 transform="matrix(8.9048743,0,0,8.9048743,207.82825,-103.3137)">
                <path
                   style="fill:#ffffff;fill-opacity:1;stroke:#ffffff;stroke-width:0.17500001;stroke-linecap:round;stroke-linejoin:round;stroke-miterlimit:4;stroke-dasharray:none;stroke-opacity:1"
                   inkscape:connector-curvature="0"
                   id="path1272"
                   d="m 5.0848152,13.104881 c -0.03071,-0.02928 -0.07005,-0.0439 -0.117886,-0.0439 l -4.92284101,0 c -0.04783,0 -0.08717,0.01461 -0.117949,0.0439 -0.03071,0.02928 -0.04607,0.06665 -0.04607,0.112225 l 0,0.312305 c 0,0.04551 0.01536,0.08294 0.04607,0.112166 0.03078,0.02923 0.07011,0.0439 0.117949,0.0439 l 4.92284101,0 c 0.04783,0 0.08717,-0.01467 0.117886,-0.0439 0.03071,-0.02923 0.04607,-0.06665 0.04607,-0.112166 l 0,-0.312305 c 6.3e-5,-0.04557 -0.0153,-0.08294 -0.04607,-0.112225 l 0,0 z" />
                <path
                   style="fill:#ffffff;fill-opacity:1;stroke:#ffffff;stroke-width:0.17500001;stroke-linecap:round;stroke-linejoin:round;stroke-miterlimit:4;stroke-dasharray:none;stroke-opacity:1"
                   inkscape:connector-curvature="0"
                   id="path1274"
                   d="m -2.7916668,8.4891811 c -0.03418,-0.032518 -0.07351,-0.048807 -0.11795,-0.048807 -0.04443,0 -0.08371,0.016289 -0.117886,0.048807 l -0.256417,0.2439749 c -0.03418,0.032518 -0.05123,0.069887 -0.05123,0.112226 0,0.04234 0.01706,0.079708 0.05123,0.112226 l 2.015334,1.917484 -2.015334,1.917544 c -0.03418,0.03252 -0.05123,0.06995 -0.05123,0.112166 0,0.04234 0.01706,0.07971 0.05123,0.112226 l 0.256417,0.243915 c 0.03418,0.03258 0.07345,0.04875 0.117886,0.04875 0.04444,0 0.08377,-0.01623 0.11795,-0.04875 l 2.38963699,-2.273625 c 0.03418,-0.03252 0.05123,-0.07001 0.05123,-0.112286 0,-0.04228 -0.01706,-0.07971 -0.05123,-0.112226 l -2.38963699,-2.2736249 0,0 z" />
              </g>
              <path
                 d="m 120.80608,20.66401 q -10.73185,0 -17.65877,-7.219606 -6.92692,-7.317169 -6.92692,-18.2441408 0,-10.9269722 6.92692,-18.1465782 6.92692,-7.317169 17.65877,-7.317169 8.0001,0 13.26846,3.90249 5.26836,3.90249 7.70742,9.853787 l -8.19523,3.414679 q -3.70736,-8.975727 -13.36603,-8.975727 -5.95129,0 -10.53672,4.878113 -4.48786,4.878112 -4.48786,12.3904052 0,7.5122931 4.48786,12.3904055 4.58543,4.8781123 10.53672,4.8781123 10.04892,0 13.85384,-8.9757267 l 8.00011,3.4146787 q -2.43906,5.853735 -7.90255,9.853787 -5.36592,3.90249 -13.36602,3.90249 z"
                 style="font-style:normal;font-variant:normal;font-weight:normal;font-stretch:normal;font-family:'Product Sans';-inkscape-font-specification:'Product Sans';fill:#ffffff;fill-opacity:1;stroke:#ffffff;stroke-opacity:1"
                 id="path4173"
                 inkscape:connector-curvature="0" />
              <path
                 d="m 160.36605,17.737143 q -1.95125,1.951244 -4.68299,1.951244 -2.73175,0 -4.68299,-1.951244 -1.95124,-1.951245 -1.95124,-4.682988 0,-2.731743 1.95124,-4.6829883 1.95124,-1.951245 4.68299,-1.951245 2.73174,0 4.68299,1.951245 1.95124,1.9512453 1.95124,4.6829883 0,2.731743 -1.95124,4.682988 z m 0,-35.707783 q -1.95125,1.951245 -4.68299,1.951245 -2.73175,0 -4.68299,-1.951245 -1.95124,-1.951245 -1.95124,-4.682988 0,-2.731743 1.95124,-4.682988 1.95124,-1.951245 4.68299,-1.951245 2.73174,0 4.68299,1.951245 1.95124,1.951245 1.95124,4.682988 0,2.731743 -1.95124,4.682988 z"
                 style="font-style:normal;font-variant:normal;font-weight:normal;font-stretch:normal;font-family:'Product Sans';-inkscape-font-specification:'Product Sans';fill:#ffffff;fill-opacity:1;stroke:#ffffff;stroke-opacity:1"
                 id="path4175"
                 inkscape:connector-curvature="0" />
            </g>
          </g>
        </g>
      </g>
    </g>
  </g>
</svg>
