<?xml version="1.0" encoding="UTF-8" standalone="no"?>
<!-- Created with Inkscape (http://www.inkscape.org/) -->

<svg
   xmlns:dc="http://purl.org/dc/elements/1.1/"
   xmlns:cc="http://creativecommons.org/ns#"
   xmlns:rdf="http://www.w3.org/1999/02/22-rdf-syntax-ns#"
   xmlns:svg="http://www.w3.org/2000/svg"
   xmlns="http://www.w3.org/2000/svg"
   xmlns:xlink="http://www.w3.org/1999/xlink"
   xmlns:sodipodi="http://sodipodi.sourceforge.net/DTD/sodipodi-0.dtd"
   xmlns:inkscape="http://www.inkscape.org/namespaces/inkscape"
   width="48"
   height="48"
   id="svg5453"
   version="1.1"
   inkscape:version="0.91 r13725"
   sodipodi:docname="firefox.svg">
  <defs
     id="defs5455">
    <linearGradient
       inkscape:collect="always"
       xlink:href="#linearGradient4428"
       id="linearGradient5086"
       gradientUnits="userSpaceOnUse"
       x1="412.03708"
       y1="542.20105"
       x2="412.03708"
       y2="526.20105" />
    <linearGradient
       id="linearGradient4428"
       inkscape:collect="always">
      <stop
         id="stop4430"
         offset="0"
         style="stop-color:#d0d0d0;stop-opacity:1" />
      <stop
         id="stop4432"
         offset="1"
         style="stop-color:#f1eeee;stop-opacity:1" />
    </linearGradient>
    <linearGradient
       inkscape:collect="always"
       xlink:href="#linearGradient6353"
       id="linearGradient12668"
       gradientUnits="userSpaceOnUse"
       x1="402.80707"
       y1="537.64569"
       x2="402.80707"
       y2="494.01666" />
    <linearGradient
       id="linearGradient6353">
      <stop
         id="stop6355"
         offset="0"
         style="stop-color:#178aff;stop-opacity:1" />
      <stop
         id="stop6357"
         offset="1"
         style="stop-color:#1bbded;stop-opacity:1" />
    </linearGradient>
    <linearGradient
       inkscape:collect="always"
       xlink:href="#linearGradient12822"
       id="linearGradient12680"
       gradientUnits="userSpaceOnUse"
       x1="395.92645"
       y1="539.08948"
       x2="396.04861"
       y2="513.02802" />
    <linearGradient
       id="linearGradient12822">
      <stop
         style="stop-color:#5043e2;stop-opacity:1"
         offset="0"
         id="stop12824" />
      <stop
         style="stop-color:#418dff;stop-opacity:1"
         offset="1"
         id="stop12826" />
    </linearGradient>
    <linearGradient
       inkscape:collect="always"
       xlink:href="#linearGradient20123"
       id="linearGradient20087"
       gradientUnits="userSpaceOnUse"
       x1="276.07495"
       y1="521.2981"
       x2="263.67963"
       y2="24.895563" />
    <linearGradient
       id="linearGradient20123"
       inkscape:collect="always">
      <stop
         id="stop20125"
         offset="0"
         style="stop-color:#fc5500;stop-opacity:1" />
      <stop
         id="stop20127"
         offset="1"
         style="stop-color:#ffc200;stop-opacity:1" />
    </linearGradient>
    <linearGradient
       inkscape:collect="always"
       xlink:href="#linearGradient19830"
       id="linearGradient4762-30"
       x1="-333.46213"
       y1="123.68851"
       x2="-266.54083"
       y2="85.684097"
       gradientUnits="userSpaceOnUse"
       gradientTransform="translate(-2.4493573,-3.2025997)" />
    <linearGradient
       id="linearGradient19830"
       inkscape:collect="always">
      <stop
         id="stop19832"
         offset="0"
         style="stop-color:#ec3a00;stop-opacity:1" />
      <stop
         id="stop19834"
         offset="1"
         style="stop-color:#ffb900;stop-opacity:0.01568628" />
    </linearGradient>
    <linearGradient
       inkscape:collect="always"
       xlink:href="#linearGradient4788"
       id="linearGradient4794"
       x1="-226.75362"
       y1="146.52055"
       x2="-170.39137"
       y2="146.52055"
       gradientUnits="userSpaceOnUse"
       gradientTransform="translate(0,-1.9779211)" />
    <linearGradient
       inkscape:collect="always"
       id="linearGradient4788">
      <stop
         style="stop-color:#de4000;stop-opacity:1"
         offset="0"
         id="stop4790" />
      <stop
         style="stop-color:#fab600;stop-opacity:1"
         offset="1"
         id="stop4792" />
    </linearGradient>
    <linearGradient
       inkscape:collect="always"
       xlink:href="#linearGradient4772"
       id="linearGradient4778"
       x1="-262.73923"
       y1="196.19754"
       x2="-132.19847"
       y2="241.34654"
       gradientUnits="userSpaceOnUse"
       gradientTransform="matrix(1,0,0,1.0085255,2.7467546,1.1663498)" />
    <linearGradient
       inkscape:collect="always"
       id="linearGradient4772">
      <stop
         style="stop-color:#f24d00;stop-opacity:1"
         offset="0"
         id="stop4774" />
      <stop
         style="stop-color:#ffb000;stop-opacity:1"
         offset="1"
         id="stop4776" />
    </linearGradient>
  </defs>
  <sodipodi:namedview
     id="base"
     pagecolor="#5a5a5a"
     bordercolor="#666666"
     borderopacity="1.0"
     inkscape:pageopacity="0"
     inkscape:pageshadow="2"
     inkscape:zoom="4.3179308"
     inkscape:cx="-8.3767015"
     inkscape:cy="27.306194"
     inkscape:document-units="px"
     inkscape:current-layer="g4928"
     showgrid="false"
     fit-margin-top="0"
     fit-margin-left="0"
     fit-margin-right="0"
     fit-margin-bottom="0"
     inkscape:window-width="1366"
     inkscape:window-height="633"
     inkscape:window-x="0"
     inkscape:window-y="33"
     inkscape:window-maximized="1"
     inkscape:showpageshadow="false"
     borderlayer="true"
     showguides="false"
     inkscape:snap-bbox="true"
     inkscape:snap-bbox-edge-midpoints="true"
     showborder="false">
    <inkscape:grid
       type="xygrid"
       id="grid4063" />
    <sodipodi:guide
       position="1.1650391e-05,47.999996"
       orientation="4,0"
       id="guide4146" />
    <sodipodi:guide
       position="1.1650391e-05,43.999996"
       orientation="0,48"
       id="guide4148" />
    <sodipodi:guide
       position="48.000012,43.999996"
       orientation="-4,0"
       id="guide4150" />
    <sodipodi:guide
       position="48.000012,47.999996"
       orientation="0,-48"
       id="guide4152" />
    <sodipodi:guide
       position="1.1650391e-05,4.0000264"
       orientation="4,0"
       id="guide4154" />
    <sodipodi:guide
       position="1.1650391e-05,2.6367188e-05"
       orientation="0,48"
       id="guide4156" />
    <sodipodi:guide
       position="48.000012,2.6367188e-05"
       orientation="-4,0"
       id="guide4158" />
    <sodipodi:guide
       position="48.000012,4.0000264"
       orientation="0,-48"
       id="guide4160" />
    <sodipodi:guide
       position="48.000012,48.000026"
       orientation="0,-4"
       id="guide4162" />
    <sodipodi:guide
       position="44.000012,48.000026"
       orientation="48,0"
       id="guide4164" />
    <sodipodi:guide
       position="44.000012,2.6367188e-05"
       orientation="0,4"
       id="guide4166" />
    <sodipodi:guide
       position="48.000012,2.6367188e-05"
       orientation="-48,0"
       id="guide4168" />
    <sodipodi:guide
       position="4.0000422,48.000026"
       orientation="0,-4"
       id="guide4170" />
    <sodipodi:guide
       position="4.2167969e-05,48.000026"
       orientation="48,0"
       id="guide4172" />
    <sodipodi:guide
       position="4.2167969e-05,2.6367188e-05"
       orientation="0,4"
       id="guide4174" />
    <sodipodi:guide
       position="4.0000422,2.6367188e-05"
       orientation="-48,0"
       id="guide4176" />
  </sodipodi:namedview>
  <metadata
     id="metadata5458">
    <rdf:RDF>
      <cc:Work
         rdf:about="">
        <dc:format>image/svg+xml</dc:format>
        <dc:type
           rdf:resource="http://purl.org/dc/dcmitype/StillImage" />
        <dc:title></dc:title>
      </cc:Work>
    </rdf:RDF>
  </metadata>
  <g
     inkscape:label="Capa 1"
     inkscape:groupmode="layer"
     id="layer1"
     transform="translate(-384.57143,-499.798)">
    <g
       transform="matrix(1.6275041,0,0,1.6275041,-243.36839,-341.7296)"
       style="fill:url(#linearGradient5086);fill-opacity:1"
       id="g4928">
      <g
         transform="matrix(0.07932778,0,0,0.07932778,413.79725,514.83798)"
         style="fill:url(#linearGradient12668);fill-opacity:1;stroke:none;stroke-width:0.89112276;stroke-miterlimit:4;stroke-dasharray:none"
         id="g5016">
        <circle
           r="13.407713"
           style="opacity:1;fill:url(#linearGradient12680);fill-opacity:1;stroke:none;stroke-width:0.53101861;stroke-linecap:round;stroke-linejoin:round;stroke-miterlimit:4;stroke-dasharray:none;stroke-opacity:1"
           id="path4693"
           cx="396.61932"
           cy="526.61151"
           transform="matrix(13.074268,0,0,13.074268,-5346.936,-6674.1389)" />
        <path
           inkscape:connector-curvature="0"
           style="opacity:0.447;fill:#272370;fill-opacity:1;fill-rule:nonzero;stroke:none;stroke-width:0.79831374;stroke-miterlimit:4;stroke-dasharray:none"
           d="m 334.58322,501.6606 c -2.5459,0 -4.96913,0.48567 -7.20852,1.33841 -0.16292,0.14972 -0.37452,0.26462 -0.54206,0.25035 -0.0228,-0.002 -0.0458,-0.017 -0.0692,-0.0258 -1.10387,0.46185 -2.15102,1.02772 -3.144,1.66956 0.12911,0.20942 0.16738,0.44261 -0.0985,0.55586 -0.0446,0.0192 -0.60611,0.0759 -0.80226,0.0711 -2.82357,2.05165 -5.08861,4.81111 -6.53635,8.03244 0.0232,-0.003 0.0433,-0.014 0.0672,-0.0156 0.21973,-0.003 0.53601,0.0599 0.74707,0.10448 0.19474,0.0401 0.35183,0.17063 0.52038,0.18332 0.47829,0.0364 0.59333,-0.33564 0.98361,-0.54403 0.40317,0.0569 0.67071,-0.0684 1.03485,-0.0277 0.2482,0.0276 0.42748,0.29264 0.62092,0.3075 0.16271,0.0164 0.30576,-0.15223 0.46321,-0.12814 0.15297,0.0236 0.41666,0.35712 0.44154,0.54405 0.0316,0.23268 -0.17117,0.44222 -0.10447,0.6978 0.24372,0.24822 0.68659,0.29852 1.03485,0.44153 0.22681,-0.18689 0.0301,-0.5337 0,-0.80423 -0.003,-0.11906 0.0164,-0.22535 0,-0.3351 -0.0213,-0.18631 -0.10102,-0.357 -0.1025,-0.51644 -0.003,-0.73645 0.59409,-1.08112 1.08807,-1.37192 0.21382,-0.12678 0.38218,-0.34877 0.56769,-0.44154 0.26203,-0.1314 0.45719,-0.16195 0.67413,-0.28385 0.39207,-0.22023 0.72833,-0.397 1.03486,-0.64654 0.14173,-0.33393 0.0139,-0.7817 0.0258,-1.11174 0.14184,-0.0869 0.2636,0.0375 0.41395,0.0258 0.23661,-0.0491 0.25622,-0.38312 0.39029,-0.51644 0.0782,-0.0765 0.29148,-0.13112 0.38831,-0.20696 0.23575,-0.18499 0.31249,-0.46435 0.5184,-0.54405 0.074,-0.03 0.24433,-0.0215 0.36074,-0.0531 0.15325,-0.0406 0.37131,-0.22196 0.6209,-0.3075 0.16274,-0.0568 0.53517,-0.0679 0.59728,-0.13009 0.0765,-0.0782 -0.001,-0.29708 0.0258,-0.41395 0.12545,-0.58422 1.00552,-0.70806 1.52569,-0.90476 0.36459,-0.13818 0.73872,-0.39108 1.13931,-0.31341 -0.0785,0.27765 -0.45159,0.17929 -0.38831,0.51645 0.0872,0.46789 0.71388,-0.13408 0.87913,-0.20304 0.31575,-0.1331 0.85713,-0.21436 1.27139,-0.36466 0.36327,-0.13311 1.01458,-0.33549 0.67217,-0.75101 -0.28554,-0.0164 -0.42325,0.33512 -0.67217,0.44154 -0.17186,0.0276 -0.13914,-0.14387 -0.28582,-0.1577 -0.13947,-0.0164 -0.21747,0.12866 -0.36072,0.10447 -0.14232,-0.0236 -0.34238,-0.24743 -0.36466,-0.41393 -0.0568,-0.43204 0.36511,-0.61014 0.54405,-0.93236 -0.11834,-0.3908 -0.6589,-0.0797 -0.98558,-0.2326 0.0315,-0.23266 0.27226,-0.39311 0.54404,-0.43761 0.22279,-0.0378 0.72281,-0.0183 0.85548,0.10049 0.0767,0.0654 0.004,0.22857 0.13009,0.33708 0.13182,0.11907 0.29404,0.10678 0.46519,0.0789 0.0616,-0.29488 -0.38344,-0.22092 -0.33509,-0.41592 0.34959,-0.22868 0.91829,-0.0409 1.3463,-0.10446 0.24639,-0.0364 0.50507,-0.21027 0.72341,-0.33313 0.20766,-0.11832 0.47749,-0.32362 0.69779,-0.13009 0.0595,0.21136 -0.19184,0.2813 -0.30947,0.38635 -0.396,0.35227 -0.80393,0.75581 -1.11173,1.16495 0.18885,0.18418 0.53203,0.0919 0.85153,0.13009 0.12492,0.0164 0.28187,0.0535 0.41394,0.077 0.15426,0.0276 0.31875,0.0197 0.43958,0.0512 0.21738,0.0532 0.27558,0.28582 0.49082,0.28582 0.35406,-6.3e-4 0.35827,-0.38363 0.15769,-0.62289 0.0633,-0.24426 0.16264,-0.37095 0.077,-0.54207 -0.15947,-0.319 -0.74459,-0.0164 -0.77467,-0.41393 -0.019,-0.25805 0.21592,-0.24652 0.30948,-0.43957 -0.0425,-0.49859 0.40896,-0.53473 0.36071,-0.98164 -0.0213,-0.18693 -0.17857,-0.18951 -0.30946,-0.36466 -0.0653,-0.0862 -0.0996,-0.25115 -0.17543,-0.32524 -0.60393,-0.0538 -1.21475,-0.0867 -1.83317,-0.0867 z m -10.41558,4.0724 0.002,0 c 0.12052,0.0173 0.26602,0.14663 0.41197,0.1577 0.1382,0.003 0.25205,-0.0762 0.33707,-0.0531 0.2164,0.0569 0.30768,0.38385 0.10447,0.54403 -0.16921,0.0212 -0.23516,-0.0735 -0.3627,-0.0512 -0.35149,0.0595 -0.48634,0.74817 -0.74903,0.72539 -0.24773,-0.0211 -0.38179,-0.62455 -0.1301,-0.80423 0.0164,-0.15687 -0.11447,-0.18206 -0.10643,-0.33706 0.0745,-0.0953 0.28689,-0.19794 0.49279,-0.18135 z m -1.16495,0.0809 c 0.0722,0.002 0.12622,0.0197 0.15374,0.0512 -0.0343,0.27584 -0.2502,0.25778 -0.46322,0.38635 -0.36796,0.22209 -0.5807,0.56047 -0.69779,1.03486 -0.034,0.13821 -0.39651,0.50375 -0.57162,0.46716 -0.4104,-0.0866 0.11321,-0.843 0.20696,-0.95797 0.10353,-0.12746 0.24263,-0.23921 0.36466,-0.38636 0.11835,-0.14247 0.19544,-0.33485 0.30947,-0.41394 0.12495,-0.0866 0.48161,-0.18964 0.6978,-0.18134 z m 3.06317,0.93038 c 0.13145,0.002 0.24962,0.0238 0.30355,0.077 -0.0845,0.34178 -0.82077,0.25154 -1.09004,0.12813 0.0172,-0.12889 0.2189,-0.16436 0.38832,-0.18135 0.11906,-0.003 0.26695,-0.0277 0.39817,-0.0236 z m -1.67549,0.63077 c 0.0872,-0.002 0.17621,0.0168 0.26809,0.0414 -0.2382,0.19924 -0.49577,0.31211 -0.90476,0.44154 -0.19666,0.0618 -0.53632,0.13912 -0.56968,-0.0809 -0.0406,-0.26917 0.2876,-0.20653 0.46718,-0.23061 0.22607,-0.0315 0.47432,-0.16301 0.73917,-0.17149 z m 25.70385,1.53356 c -0.0306,0.0734 -0.0528,0.14585 -0.0492,0.21682 0.0164,0.12488 0.15276,0.24501 0.18331,0.41395 0.0164,0.0894 -0.0421,0.283 0,0.36467 0.12461,0.24167 0.45071,0.0679 0.68398,0.0809 -0.265,-0.36492 -0.52967,-0.7305 -0.81802,-1.07625 z m 1.32264,1.77996 c -0.037,0.1783 -0.15832,0.41088 -0.25625,0.5598 -0.22558,0.34311 -0.53199,0.35911 -0.85548,0.54207 -0.26978,0.15294 -0.38589,0.40813 -0.54403,0.67413 -0.17135,0.28733 -0.27754,0.46089 -0.20698,0.87717 -0.23126,0.45872 -0.58141,0.73976 -1.06047,0.95797 -0.14174,0.0639 -0.3352,0.0874 -0.4652,0.18134 -0.10354,0.0745 -0.16239,0.2743 -0.30948,0.43957 -0.1815,0.20198 -0.37175,0.28722 -0.46717,0.44155 -0.074,0.11906 -0.0999,0.3564 -0.18134,0.51643 -0.11042,0.21736 -0.34576,0.32382 -0.4908,0.54405 -0.066,0.10184 -0.11021,0.30817 -0.18333,0.44153 -0.16392,0.29795 -0.44403,0.51262 -0.41394,0.77467 0.03,0.25324 0.31744,0.29764 0.33707,0.51841 0.003,0.12479 -0.0825,0.20106 -0.077,0.33707 0.003,0.19857 0.13806,0.338 0.15375,0.49081 0.0385,0.38423 -0.13071,0.53756 -0.20304,0.80029 -0.0343,0.12544 -0.0197,0.26666 -0.0531,0.36467 -0.0633,0.19235 -0.33177,0.36591 -0.33707,0.59331 -0.002,0.1616 0.16575,0.29156 0.17937,0.51841 0.003,0.15638 -0.0769,0.32337 -0.0492,0.46716 0.0549,0.28162 0.55774,0.60911 0.77663,0.8279 0.29278,0.29279 0.67607,0.5194 0.80226,0.82788 0.10631,0.26198 0.10533,0.60285 0.30947,0.80028 0.15096,0.14581 0.40193,0.23667 0.59529,0.38832 0.18033,0.14155 0.37686,0.26374 0.56965,0.41394 0.31499,0.24642 0.79125,0.73764 1.29308,0.69976 0.26206,-0.019 0.53064,-0.23301 0.8279,-0.2858 0.30581,-0.0547 0.70266,-0.0831 1.0112,-0.0512 0.23631,0.0237 0.47972,0.16505 0.72538,0.15375 0.25937,-0.0164 0.55679,-0.20831 0.85153,-0.33707 0.23714,-0.10321 0.52815,-0.21758 0.8476,-0.30159 0.14647,-0.98455 0.22472,-1.99321 0.22472,-3.0198 0,-4.13301 -1.23588,-7.96378 -3.35097,-11.15672 z m -33.38345,6.78273 c -0.42992,0.0237 -0.71163,0.0431 -0.95602,0.15375 -0.56,0.25483 -0.45174,1.01154 -1.01118,1.19057 -0.19353,0.0617 -0.45915,0.0648 -0.67217,0.10447 -0.18385,0.0337 -0.4078,0.13411 -0.59727,0.1301 -0.0529,-7.1e-4 -0.12712,-0.0402 -0.19317,-0.0609 -0.0498,0.35485 -0.0909,0.71362 -0.12221,1.07427 0.53224,0.10198 0.8069,0.80738 1.27729,1.04078 0.1289,0.0638 0.29731,0.0672 0.46323,0.10446 0.13396,0.03 0.23563,0.0866 0.36468,0.1301 0.2737,0.0929 0.60895,0.0818 0.82787,0.17938 0.32993,0.1464 0.57178,0.76638 0.85548,0.93235 0.0164,0.16724 -0.0326,0.39175 0.0258,0.51643 0.13397,0.18175 0.32324,0.1417 0.54402,0.26021 0.26415,0.14249 0.34496,0.51041 0.5953,0.62288 0.0865,0.0384 0.30304,0.0335 0.43956,0.075 0.34305,0.10385 0.45503,0.50069 0.74905,0.41394 0.19287,-0.0568 0.1777,-0.25522 0.20893,-0.43957 0.12745,-0.13818 0.2665,-0.35684 0.4652,-0.36071 0.32153,-0.0164 0.35017,0.33226 0.46716,0.64456 0.0658,0.17647 0.23874,0.33029 0.28385,0.51645 0.0803,0.32158 0.0403,1.28416 -0.0277,1.47638 -0.0809,0.2358 -0.40039,0.33583 -0.59723,0.59728 -0.0929,0.12258 -0.13707,0.30215 -0.207,0.3883 -0.12675,0.15425 -0.31515,0.19468 -0.40999,0.33708 -0.0533,0.0803 -0.10539,0.25232 -0.1577,0.36071 -0.15541,0.3293 -0.36332,0.56263 -0.23259,0.95799 0.0547,0.16273 0.30884,0.2717 0.30947,0.46322 7.1e-4,0.22531 -0.47928,0.42707 -0.51643,0.67413 -0.0276,0.18378 0.14867,0.51184 0.20696,0.75101 0.0427,0.18074 0.38428,0.29372 0.49082,0.41394 0.18166,0.20396 0.32682,0.49288 0.49278,0.74905 0.32815,0.50384 0.58527,1.11833 0.90476,1.60648 0.16886,0.25569 0.40592,0.48559 0.51843,0.751 0.0573,0.13395 0.0495,0.29359 0.10249,0.41395 0.18498,0.41743 1.0017,0.85327 1.42318,1.06049 0.19731,0.0957 0.41618,0.13035 0.59726,0.23062 0.27425,0.15295 0.81757,0.56371 0.956,0.80422 0.12332,0.21618 0.2002,0.74235 0.2602,1.08611 0.0803,0.45427 8.9e-4,0.80307 0.0258,1.29504 0.0164,0.26604 0.10166,0.53358 0.10448,0.8003 10e-4,0.0933 -0.049,0.16291 -0.0531,0.25824 -1.5e-4,0.0156 0.004,0.0334 0.004,0.0492 2.542,1.15037 5.35881,1.80557 8.33995,1.80557 0.5386,0 1.07087,-0.0281 1.59859,-0.0692 0.0231,-0.0398 0.0444,-0.081 0.0731,-0.11827 0.12143,-0.15944 0.22933,-0.29912 0.30946,-0.43955 0.0765,-0.47254 -0.18843,-0.80259 -0.077,-1.21621 0.12355,-0.46461 0.76595,-0.74836 1.2162,-0.95798 0.1549,-0.0721 0.31343,-0.1888 0.43958,-0.23259 0.31161,-0.10844 0.70065,-0.0498 0.98557,-0.15375 0.48488,-0.17746 0.53554,-0.69756 0.77466,-1.13933 0.1127,-0.20922 0.26174,-0.41869 0.28385,-0.56769 0.0191,-0.13397 -0.049,-0.25996 -0.0277,-0.4179 0.0234,-0.15636 0.16358,-0.29144 0.20695,-0.46322 0.0568,-0.22416 0.0809,-0.55255 0.0809,-0.80224 0,-0.20495 -0.0958,-0.38478 -0.10447,-0.56967 -0.0337,-0.67126 0.24246,-0.74641 0.49082,-1.11174 0.12467,-0.18148 0.17125,-0.38836 0.25822,-0.51841 0.41694,-0.62207 1.1404,-0.9224 1.08808,-1.86274 -0.0172,-0.31116 -0.21263,-1.01438 -0.44154,-1.11371 -0.13101,-0.0569 -0.43146,-0.003 -0.62091,-0.077 -0.61169,-0.22819 -0.97072,-0.98643 -1.60452,-1.03485 -0.13538,-0.0164 -0.25964,0.0554 -0.41198,0.0531 -0.25088,-0.0164 -0.62898,-0.17571 -0.90673,-0.20697 -0.17646,-0.019 -0.41246,0.0525 -0.51841,0 -0.16158,-0.0786 -0.17803,-0.37639 -0.30947,-0.46519 -0.10416,-0.0719 -0.30712,-0.0964 -0.4652,-0.15769 -0.25485,-0.0978 -0.45693,-0.2121 -0.751,-0.23259 -0.0908,-0.003 -0.20381,0.0436 -0.30948,0.0277 -0.16272,-0.0276 -0.29139,-0.22006 -0.44153,-0.31144 -0.18804,-0.11445 -0.36182,-0.16984 -0.43957,-0.33312 0.16994,-0.55743 -0.29967,-0.71279 -0.41394,-1.03486 -0.0547,-0.15092 -0.0296,-0.33253 -0.077,-0.46716 -0.0676,-0.19285 -0.25815,-0.30431 -0.46716,-0.46519 -0.37448,-0.28821 -0.70664,-0.55884 -1.24183,-0.62485 -0.23529,-0.03 -0.46872,0.0706 -0.75298,0.0531 -0.30124,-0.019 -0.67942,-0.28256 -0.90477,-0.5401 -0.21903,-0.25142 -0.3256,-0.47707 -0.51643,-0.59726 -0.18078,-0.11621 -0.4206,-0.11286 -0.54403,-0.23062 -0.0549,-0.0511 -0.0455,-0.13928 -0.10448,-0.26019 -0.0909,-0.18824 -0.24348,-0.29288 -0.1301,-0.51842 -0.2062,-0.10597 -0.21193,0.19681 -0.4376,0.15769 -0.20116,-0.28553 -0.37107,-0.4208 -0.82789,-0.33707 -0.20917,0.0385 -0.3259,0.3029 -0.56966,0.30948 -0.19988,0.0164 -0.35691,-0.22269 -0.62091,-0.26019 -0.19927,-0.0276 -0.42584,0.054 -0.5677,0.0277 -0.22087,-0.0442 -0.28904,-0.22803 -0.4908,-0.36071 -0.14794,-0.0972 -0.43544,-0.26285 -0.51843,-0.26021 -0.2601,0.0164 -0.4455,0.55279 -0.80422,0.3627 -0.17433,-0.22091 0.28397,-0.33734 0.077,-0.54403 -0.15686,-0.15686 -0.28855,0.0711 -0.41395,0.15769 -0.14371,0.0992 -0.27878,0.19746 -0.43759,0.25624 -0.35549,0.1331 -0.57766,0.0634 -0.85549,0.20698 -0.25725,0.13324 -0.26816,0.35617 -0.41394,0.6209 -0.11907,0.21689 -0.39061,0.53293 -0.56967,0.54602 -0.21689,0.0164 -0.42417,-0.30325 -0.6209,-0.38833 -0.59267,-0.25671 -0.87978,0.22799 -1.37193,0.23458 -0.45673,0.0164 -1.10906,-0.73752 -1.0861,-1.16693 0.003,-0.26201 0.15068,-0.65948 0.18134,-0.9836 0.0276,-0.2578 0.20402,-0.4132 0.20697,-0.64851 0.003,-0.31434 -0.41697,-0.55603 -0.62092,-0.59332 -0.4835,-0.0889 -1.15483,0.19452 -1.70899,-0.0277 -0.10596,-0.17538 0.12393,-0.29656 0.18332,-0.46716 0.0337,-0.097 0.014,-0.22646 0.0492,-0.33313 0.0614,-0.16482 0.23418,-0.29254 0.31147,-0.46717 0.0575,-0.13325 0.0722,-0.32547 0.13008,-0.49082 0.0676,-0.18825 0.19243,-0.30949 0.20698,-0.44153 0.0191,-0.17433 -0.0467,-0.37586 -0.18332,-0.49081 z m 6.91875,5.47783 c 0.17541,0.0164 0.19737,0.37888 0.0176,0.40803 -0.19351,0.0301 -0.29189,-0.30349 -0.10448,-0.39029 0.0316,-0.0164 0.0621,-0.0174 0.0867,-0.0156 l 0,-0.002 z"
           id="path34-7"
           transform="matrix(8.6966799,0,0,8.6966799,-3070.6985,-4327.5339)" />
        <path
           style="fill:url(#linearGradient20087);fill-opacity:1;stroke:none;stroke-width:0.89112276;stroke-miterlimit:4;stroke-dasharray:none"
           inkscape:connector-curvature="0"
           d="m 532.566,174.032 -6.178,39.625 c 0,0 -8.829,-73.362 -19.651,-100.789 C 490.15,70.843 482.771,71.18 482.722,71.242 c 11.109,28.231 9.093,43.398 9.093,43.398 0,0 -19.683,-53.645 -71.723,-70.713 -57.649,-18.897 -88.839,-13.73 -92.442,-12.753 -0.547,-0.004 -1.075,-0.005 -1.577,-0.005 0.424,0.033 0.839,0.077 1.263,0.11 -0.019,0.011 -0.047,0.022 -0.042,0.028 0.233,0.285 63.7,11.094 74.956,26.56 0,0 -26.958,0 -53.787,7.731 -1.213,0.347 98.71,12.481 119.139,112.33 0,0 -10.955,-22.852 -24.502,-26.733 8.909,27.102 6.622,78.529 -1.862,104.089 -1.092,3.287 -2.209,-14.209 -18.921,-21.745 5.355,38.359 -0.32,99.196 -26.931,115.955 -2.074,1.305 16.682,-60.057 3.771,-36.335 -74.327,113.96 -162.19,52.59 -201.693,25.579 20.243,4.406 58.674,-0.686 75.685,-13.341 0.022,-0.015 0.04,-0.028 0.062,-0.045 18.473,-12.631 29.412,-21.854 39.236,-19.672 9.83,2.194 16.374,-7.671 8.739,-16.423 -7.644,-8.769 -26.203,-20.821 -51.313,-14.254 -17.708,4.638 -39.654,24.231 -73.15,4.392 -25.71,-15.234 -28.131,-27.889 -28.359,-36.654 0.634,-3.107 1.434,-6.008 2.383,-8.659 2.959,-8.265 11.933,-10.759 16.924,-12.728 8.467,1.454 15.761,4.095 23.421,8.024 0.099,-2.549 0.131,-5.933 -0.009,-9.771 0.734,-1.459 0.28,-5.86 -0.897,-11.24 -0.678,-5.369 -1.781,-10.924 -3.517,-15.985 0.006,-0.001 0.01,-0.005 0.016,-0.007 0.029,-0.01 0.056,-0.021 0.082,-0.037 0.041,-0.023 0.076,-0.059 0.108,-0.099 0.006,-0.01 0.016,-0.017 0.023,-0.027 0.043,-0.064 0.08,-0.142 0.103,-0.243 0.531,-2.405 6.262,-7.044 13.395,-12.031 6.392,-4.469 13.907,-9.217 19.827,-12.892 5.24,-3.254 9.229,-5.668 10.077,-6.301 0.321,-0.243 0.707,-0.527 1.127,-0.852 0.078,-0.061 0.156,-0.121 0.236,-0.185 0.049,-0.038 0.099,-0.077 0.149,-0.117 2.817,-2.244 7.023,-6.483 7.905,-15.405 0.002,-0.022 0.005,-0.042 0.006,-0.064 0.026,-0.262 0.048,-0.528 0.067,-0.799 0.015,-0.188 0.026,-0.378 0.038,-0.571 0.007,-0.148 0.017,-0.295 0.023,-0.445 0.016,-0.352 0.026,-0.711 0.031,-1.075 0,-0.021 10e-4,-0.04 0.002,-0.061 0.012,-0.864 -0.003,-1.764 -0.054,-2.709 -0.028,-0.528 -0.065,-1.005 -0.155,-1.438 -0.004,-0.023 -0.01,-0.048 -0.015,-0.071 -0.009,-0.042 -0.019,-0.085 -0.03,-0.127 -0.019,-0.076 -0.04,-0.152 -0.063,-0.224 -0.003,-0.009 -0.006,-0.017 -0.009,-0.024 -0.027,-0.083 -0.058,-0.164 -0.09,-0.242 -0.002,-0.003 -0.002,-0.005 -0.003,-0.008 -0.913,-2.139 -4.333,-2.947 -18.459,-3.187 -0.013,-0.001 -0.026,-0.001 -0.039,-0.001 l 0,0 c -5.764,-0.098 -13.301,-0.102 -23.179,-0.062 -17.317,0.07 -26.889,-16.929 -29.944,-23.506 4.188,-23.156 16.29,-39.657 36.171,-50.847 0.376,-0.212 0.302,-0.387 -0.142,-0.509 3.887,-2.352 -47.003,-0.064 -70.41,29.707 C 132.688,82.759 114.581,83.107 98.976,86.769 95.979,86.685 92.245,86.311 87.812,85.388 77.433,75.984 62.576,58.616 61.78,37.884 c 0,0 -0.048,0.038 -0.131,0.106 -0.011,-0.199 -0.03,-0.396 -0.038,-0.595 0,0 -31.623,24.304 -26.89,90.563 -0.012,1.061 -0.034,2.076 -0.062,3.06 -8.558,11.608 -12.805,21.365 -13.121,23.519 -7.581,15.44 -15.276,38.675 -21.538,73.949 0,0 4.379,-13.888 13.169,-29.618 -6.464,19.803 -11.544,50.603 -8.561,96.8 0,0 0.789,-10.243 3.58,-24.997 2.181,28.652 11.729,64.024 35.864,105.619 46.327,79.854 117.537,120.177 196.246,126.362 13.977,1.152 28.15,1.179 42.408,0.096 1.311,-0.092 2.621,-0.188 3.931,-0.299 16.126,-1.132 32.361,-3.568 48.562,-7.481 221.445,-53.541 197.367,-320.936 197.367,-320.936 z"
           id="path19729"
           transform="matrix(0.69709893,0,0,0.69604336,-352.55369,42.235483)" />
        <path
           style="fill:url(#linearGradient4762-30);fill-opacity:1;fill-rule:evenodd;stroke:none;stroke-width:1px;stroke-linecap:butt;stroke-linejoin:miter;stroke-opacity:1"
           d="m -328.74106,133.50434 c 9.44425,-17.43554 18.31881,-28.8744 37.57908,-32.28705 -10.83305,-10.328431 -13.9183,-16.069243 -18.90579,-33.725165 -19.2678,20.841392 -19.14046,42.494215 -18.67329,66.012215 z"
           id="path4746"
           inkscape:connector-curvature="0"
           sodipodi:nodetypes="cccc" />
        <path
           style="fill:url(#linearGradient4794);fill-opacity:1;fill-rule:evenodd;stroke:none;stroke-width:1px;stroke-linecap:butt;stroke-linejoin:miter;stroke-opacity:1"
           d="m -208.65957,177.0969 c 11.22928,-14.76603 46.3369,-22.7605 36.02799,-43.11694 -24.18021,-6.16181 -39.33402,5.30474 -48.94455,-17.38937 -8.29694,31.98115 2.87582,47.38916 12.91656,60.50631 z"
           id="path4748"
           inkscape:connector-curvature="0"
           sodipodi:nodetypes="cccc" />
        <path
           style="opacity:1;fill:url(#linearGradient4778);fill-opacity:1;fill-rule:evenodd;stroke:none;stroke-width:1px;stroke-linecap:butt;stroke-linejoin:miter;stroke-opacity:1"
           d="m -228.84381,197.9817 c -47.2809,4.69824 -39.12522,30.08765 -35.77785,55.48586 l 12.10526,-10.08526 c 8.49488,24.7049 58.64436,20.75381 86.44575,12.1089 12.6639,-3.93787 23.91848,-2.9692 28.81741,-0.96204 13.79596,2.96056 12.87403,-8.72965 6.84211,-12.20846 -33.02191,-37.59222 -63.51892,34.65921 -104.21909,-26.70374 -2.48826,-3.75152 -0.0371,-9.89967 5.78641,-17.63526 z"
           id="path4750"
           inkscape:connector-curvature="0"
           sodipodi:nodetypes="cccsccsc" />
      </g>
    </g>
  </g>
</svg>
