<?xml version="1.0" encoding="UTF-8" standalone="no"?>
<!-- Created with Inkscape (http://www.inkscape.org/) -->

<svg
   xmlns:dc="http://purl.org/dc/elements/1.1/"
   xmlns:cc="http://creativecommons.org/ns#"
   xmlns:rdf="http://www.w3.org/1999/02/22-rdf-syntax-ns#"
   xmlns:svg="http://www.w3.org/2000/svg"
   xmlns="http://www.w3.org/2000/svg"
   xmlns:xlink="http://www.w3.org/1999/xlink"
   xmlns:sodipodi="http://sodipodi.sourceforge.net/DTD/sodipodi-0.dtd"
   xmlns:inkscape="http://www.inkscape.org/namespaces/inkscape"
   width="48"
   height="48"
   id="svg5453"
   version="1.1"
   inkscape:version="0.91 r13725"
   sodipodi:docname="firefox-developer.svg">
  <defs
     id="defs5455">
    <linearGradient
       inkscape:collect="always"
       xlink:href="#linearGradient4428"
       id="linearGradient5086"
       gradientUnits="userSpaceOnUse"
       x1="412.03708"
       y1="542.20105"
       x2="412.03708"
       y2="526.20105" />
    <linearGradient
       id="linearGradient4428"
       inkscape:collect="always">
      <stop
         id="stop4430"
         offset="0"
         style="stop-color:#d0d0d0;stop-opacity:1" />
      <stop
         id="stop4432"
         offset="1"
         style="stop-color:#f1eeee;stop-opacity:1" />
    </linearGradient>
    <linearGradient
       id="linearGradient6353">
      <stop
         id="stop6355"
         offset="0"
         style="stop-color:#178aff;stop-opacity:1" />
      <stop
         id="stop6357"
         offset="1"
         style="stop-color:#1bbded;stop-opacity:1" />
    </linearGradient>
    <linearGradient
       inkscape:collect="always"
       xlink:href="#linearGradient6353"
       id="linearGradient12668"
       gradientUnits="userSpaceOnUse"
       x1="402.80707"
       y1="537.64569"
       x2="402.80707"
       y2="494.01666" />
    <linearGradient
       inkscape:collect="always"
       xlink:href="#linearGradient5316"
       id="linearGradient12680"
       gradientUnits="userSpaceOnUse"
       x1="395.92645"
       y1="539.08948"
       x2="396.04861"
       y2="513.02802" />
    <linearGradient
       id="linearGradient5316">
      <stop
         id="stop5318"
         offset="0"
         style="stop-color:#0c275c;stop-opacity:1" />
      <stop
         id="stop5320"
         offset="1"
         style="stop-color:#1072c0;stop-opacity:1" />
    </linearGradient>
    <linearGradient
       inkscape:collect="always"
       xlink:href="#linearGradient5322"
       id="linearGradient20087"
       gradientUnits="userSpaceOnUse"
       x1="253.92326"
       y1="519.71344"
       x2="263.67963"
       y2="24.895563" />
    <linearGradient
       id="linearGradient5322">
      <stop
         id="stop5324"
         style="stop-color:#0088ff;stop-opacity:1"
         offset="0" />
      <stop
         id="stop5326"
         style="stop-color:#02c3ff;stop-opacity:1"
         offset="1" />
    </linearGradient>
    <linearGradient
       inkscape:collect="always"
       xlink:href="#linearGradient5526"
       id="linearGradient4762-30"
       x1="-333.46213"
       y1="123.68851"
       x2="-298.74985"
       y2="88.801102"
       gradientUnits="userSpaceOnUse"
       gradientTransform="translate(-2.4493573,-3.2025997)" />
    <linearGradient
       id="linearGradient5526">
      <stop
         id="stop5528"
         style="stop-color:#007fe6;stop-opacity:1"
         offset="0" />
      <stop
         id="stop5530"
         style="stop-color:#00aefc;stop-opacity:1"
         offset="1" />
    </linearGradient>
    <linearGradient
       inkscape:collect="always"
       xlink:href="#linearGradient5526"
       id="linearGradient4794"
       x1="-226.75362"
       y1="146.52055"
       x2="-170.39137"
       y2="146.52055"
       gradientUnits="userSpaceOnUse"
       gradientTransform="translate(0,-1.9779211)" />
    <linearGradient
       inkscape:collect="always"
       xlink:href="#linearGradient5532"
       id="linearGradient4778"
       x1="-263.84222"
       y1="247.60002"
       x2="-148.43852"
       y2="232.21648"
       gradientUnits="userSpaceOnUse"
       gradientTransform="matrix(1,0,0,1.0085255,2.7467546,1.1663498)" />
    <linearGradient
       id="linearGradient5532">
      <stop
         offset="0"
         style="stop-color:#007fe6;stop-opacity:1"
         id="stop5534" />
      <stop
         offset="1"
         style="stop-color:#00abe5;stop-opacity:1"
         id="stop5536" />
    </linearGradient>
  </defs>
  <sodipodi:namedview
     id="base"
     pagecolor="#5a5a5a"
     bordercolor="#666666"
     borderopacity="1.0"
     inkscape:pageopacity="0"
     inkscape:pageshadow="2"
     inkscape:zoom="4.3179308"
     inkscape:cx="-8.3767015"
     inkscape:cy="27.306194"
     inkscape:document-units="px"
     inkscape:current-layer="g4928"
     showgrid="false"
     fit-margin-top="0"
     fit-margin-left="0"
     fit-margin-right="0"
     fit-margin-bottom="0"
     inkscape:window-width="1366"
     inkscape:window-height="633"
     inkscape:window-x="0"
     inkscape:window-y="33"
     inkscape:window-maximized="1"
     inkscape:showpageshadow="false"
     borderlayer="true"
     showguides="false"
     inkscape:snap-bbox="true"
     inkscape:snap-bbox-edge-midpoints="true"
     showborder="false">
    <inkscape:grid
       type="xygrid"
       id="grid4063" />
    <sodipodi:guide
       position="1.1650391e-05,47.999996"
       orientation="4,0"
       id="guide4146" />
    <sodipodi:guide
       position="1.1650391e-05,43.999996"
       orientation="0,48"
       id="guide4148" />
    <sodipodi:guide
       position="48.000012,43.999996"
       orientation="-4,0"
       id="guide4150" />
    <sodipodi:guide
       position="48.000012,47.999996"
       orientation="0,-48"
       id="guide4152" />
    <sodipodi:guide
       position="1.1650391e-05,4.0000264"
       orientation="4,0"
       id="guide4154" />
    <sodipodi:guide
       position="1.1650391e-05,2.6367188e-05"
       orientation="0,48"
       id="guide4156" />
    <sodipodi:guide
       position="48.000012,2.6367188e-05"
       orientation="-4,0"
       id="guide4158" />
    <sodipodi:guide
       position="48.000012,4.0000264"
       orientation="0,-48"
       id="guide4160" />
    <sodipodi:guide
       position="48.000012,48.000026"
       orientation="0,-4"
       id="guide4162" />
    <sodipodi:guide
       position="44.000012,48.000026"
       orientation="48,0"
       id="guide4164" />
    <sodipodi:guide
       position="44.000012,2.6367188e-05"
       orientation="0,4"
       id="guide4166" />
    <sodipodi:guide
       position="48.000012,2.6367188e-05"
       orientation="-48,0"
       id="guide4168" />
    <sodipodi:guide
       position="4.0000422,48.000026"
       orientation="0,-4"
       id="guide4170" />
    <sodipodi:guide
       position="4.2167969e-05,48.000026"
       orientation="48,0"
       id="guide4172" />
    <sodipodi:guide
       position="4.2167969e-05,2.6367188e-05"
       orientation="0,4"
       id="guide4174" />
    <sodipodi:guide
       position="4.0000422,2.6367188e-05"
       orientation="-48,0"
       id="guide4176" />
  </sodipodi:namedview>
  <metadata
     id="metadata5458">
    <rdf:RDF>
      <cc:Work
         rdf:about="">
        <dc:format>image/svg+xml</dc:format>
        <dc:type
           rdf:resource="http://purl.org/dc/dcmitype/StillImage" />
        <dc:title></dc:title>
      </cc:Work>
    </rdf:RDF>
  </metadata>
  <g
     inkscape:label="Capa 1"
     inkscape:groupmode="layer"
     id="layer1"
     transform="translate(-384.57143,-499.798)">
    <g
       transform="matrix(1.6275041,0,0,1.6275041,-243.36839,-341.7296)"
       style="fill:url(#linearGradient5086);fill-opacity:1"
       id="g4928">
      <g
         transform="matrix(0.07932778,0,0,0.07932778,413.79725,514.82301)"
         style="fill:url(#linearGradient12668);fill-opacity:1;stroke:none;stroke-width:0.89112276;stroke-miterlimit:4;stroke-dasharray:none"
         id="g5011">
        <circle
           r="13.407713"
           style="opacity:1;fill:url(#linearGradient12680);fill-opacity:1;stroke:none;stroke-width:0.53101861;stroke-linecap:round;stroke-linejoin:round;stroke-miterlimit:4;stroke-dasharray:none;stroke-opacity:1"
           id="path4693"
           cx="396.61932"
           cy="526.61151"
           transform="matrix(13.074268,0,0,13.074268,-5346.936,-6674.1388)" />
        <path
           style="fill:url(#linearGradient20087);fill-opacity:1;stroke:none;stroke-width:0.89112276;stroke-miterlimit:4;stroke-dasharray:none"
           inkscape:connector-curvature="0"
           d="m 532.566,174.032 -6.178,39.625 c 0,0 -8.829,-73.362 -19.651,-100.789 C 490.15,70.843 482.771,71.18 482.722,71.242 c 11.109,28.231 9.093,43.398 9.093,43.398 0,0 -19.683,-53.645 -71.723,-70.713 -57.649,-18.897 -88.839,-13.73 -92.442,-12.753 -0.547,-0.004 -1.075,-0.005 -1.577,-0.005 0.424,0.033 0.839,0.077 1.263,0.11 -0.019,0.011 -0.047,0.022 -0.042,0.028 0.233,0.285 63.7,11.094 74.956,26.56 0,0 -26.958,0 -53.787,7.731 -1.213,0.347 98.71,12.481 119.139,112.33 0,0 -10.955,-22.852 -24.502,-26.733 8.909,27.102 6.622,78.529 -1.862,104.089 -1.092,3.287 -2.209,-14.209 -18.921,-21.745 5.355,38.359 -0.32,99.196 -26.931,115.955 -2.074,1.305 16.682,-60.057 3.771,-36.335 -74.327,113.96 -162.19,52.59 -201.693,25.579 20.243,4.406 58.674,-0.686 75.685,-13.341 0.022,-0.015 0.04,-0.028 0.062,-0.045 18.473,-12.631 29.412,-21.854 39.236,-19.672 9.83,2.194 16.374,-7.671 8.739,-16.423 -7.644,-8.769 -26.203,-20.821 -51.313,-14.254 -17.708,4.638 -39.654,24.231 -73.15,4.392 -25.71,-15.234 -28.131,-27.889 -28.359,-36.654 0.634,-3.107 1.434,-6.008 2.383,-8.659 2.959,-8.265 11.933,-10.759 16.924,-12.728 8.467,1.454 15.761,4.095 23.421,8.024 0.099,-2.549 0.131,-5.933 -0.009,-9.771 0.734,-1.459 0.28,-5.86 -0.897,-11.24 -0.678,-5.369 -1.781,-10.924 -3.517,-15.985 0.006,-0.001 0.01,-0.005 0.016,-0.007 0.029,-0.01 0.056,-0.021 0.082,-0.037 0.041,-0.023 0.076,-0.059 0.108,-0.099 0.006,-0.01 0.016,-0.017 0.023,-0.027 0.043,-0.064 0.08,-0.142 0.103,-0.243 0.531,-2.405 6.262,-7.044 13.395,-12.031 6.392,-4.469 13.907,-9.217 19.827,-12.892 5.24,-3.254 9.229,-5.668 10.077,-6.301 0.321,-0.243 0.707,-0.527 1.127,-0.852 0.078,-0.061 0.156,-0.121 0.236,-0.185 0.049,-0.038 0.099,-0.077 0.149,-0.117 2.817,-2.244 7.023,-6.483 7.905,-15.405 0.002,-0.022 0.005,-0.042 0.006,-0.064 0.026,-0.262 0.048,-0.528 0.067,-0.799 0.015,-0.188 0.026,-0.378 0.038,-0.571 0.007,-0.148 0.017,-0.295 0.023,-0.445 0.016,-0.352 0.026,-0.711 0.031,-1.075 0,-0.021 10e-4,-0.04 0.002,-0.061 0.012,-0.864 -0.003,-1.764 -0.054,-2.709 -0.028,-0.528 -0.065,-1.005 -0.155,-1.438 -0.004,-0.023 -0.01,-0.048 -0.015,-0.071 -0.009,-0.042 -0.019,-0.085 -0.03,-0.127 -0.019,-0.076 -0.04,-0.152 -0.063,-0.224 -0.003,-0.009 -0.006,-0.017 -0.009,-0.024 -0.027,-0.083 -0.058,-0.164 -0.09,-0.242 -0.002,-0.003 -0.002,-0.005 -0.003,-0.008 -0.913,-2.139 -4.333,-2.947 -18.459,-3.187 -0.013,-0.001 -0.026,-0.001 -0.039,-0.001 l 0,0 c -5.764,-0.098 -13.301,-0.102 -23.179,-0.062 -17.317,0.07 -26.889,-16.929 -29.944,-23.506 4.188,-23.156 16.29,-39.657 36.171,-50.847 0.376,-0.212 0.302,-0.387 -0.142,-0.509 3.887,-2.352 -47.003,-0.064 -70.41,29.707 C 132.688,82.759 114.581,83.107 98.976,86.769 95.979,86.685 92.245,86.311 87.812,85.388 77.433,75.984 62.576,58.616 61.78,37.884 c 0,0 -0.048,0.038 -0.131,0.106 -0.011,-0.199 -0.03,-0.396 -0.038,-0.595 0,0 -31.623,24.304 -26.89,90.563 -0.012,1.061 -0.034,2.076 -0.062,3.06 -8.558,11.608 -12.805,21.365 -13.121,23.519 -7.581,15.44 -15.276,38.675 -21.538,73.949 0,0 4.379,-13.888 13.169,-29.618 -6.464,19.803 -11.544,50.603 -8.561,96.8 0,0 0.789,-10.243 3.58,-24.997 2.181,28.652 11.729,64.024 35.864,105.619 46.327,79.854 117.537,120.177 196.246,126.362 13.977,1.152 28.15,1.179 42.408,0.096 1.311,-0.092 2.621,-0.188 3.931,-0.299 16.126,-1.132 32.361,-3.568 48.562,-7.481 221.445,-53.541 197.367,-320.936 197.367,-320.936 z"
           id="path19729"
           transform="matrix(0.69709893,0,0,0.69604336,-352.55369,42.235483)" />
        <path
           style="fill:url(#linearGradient4762-30);fill-opacity:1;fill-rule:evenodd;stroke:none;stroke-width:1px;stroke-linecap:butt;stroke-linejoin:miter;stroke-opacity:1"
           d="m -328.74106,133.50434 c 9.44425,-17.43554 18.31881,-28.8744 37.57908,-32.28705 -10.83305,-10.328431 -13.9183,-16.069243 -18.90579,-33.725165 -19.2678,20.841392 -19.14046,42.494215 -18.67329,66.012215 z"
           id="path4746"
           inkscape:connector-curvature="0"
           sodipodi:nodetypes="cccc" />
        <path
           style="fill:url(#linearGradient4794);fill-opacity:1;fill-rule:evenodd;stroke:none;stroke-width:1px;stroke-linecap:butt;stroke-linejoin:miter;stroke-opacity:1"
           d="m -208.65957,177.0969 c 11.22928,-14.76603 46.3369,-22.7605 36.02799,-43.11694 -24.18021,-6.16181 -39.33402,5.30474 -48.94455,-17.38937 -8.29694,31.98115 2.87582,47.38916 12.91656,60.50631 z"
           id="path4748"
           inkscape:connector-curvature="0"
           sodipodi:nodetypes="cccc" />
        <path
           style="opacity:1;fill:url(#linearGradient4778);fill-opacity:1;fill-rule:evenodd;stroke:none;stroke-width:1px;stroke-linecap:butt;stroke-linejoin:miter;stroke-opacity:1"
           d="m -228.84381,197.9817 c -47.2809,4.69824 -39.12522,30.08765 -35.77785,55.48586 l 12.10526,-10.08526 c 8.49488,24.7049 58.64436,20.75381 86.44575,12.1089 12.6639,-3.93787 23.91848,-2.9692 28.81741,-0.96204 13.79596,2.96056 12.87403,-8.72965 6.84211,-12.20846 -33.02191,-37.59222 -63.51892,34.65921 -104.21909,-26.70374 -2.48826,-3.75152 -0.0371,-9.89967 5.78641,-17.63526 z"
           id="path4750"
           inkscape:connector-curvature="0"
           sodipodi:nodetypes="cccsccsc" />
      </g>
    </g>
  </g>
</svg>
