<?xml version="1.0" encoding="UTF-8" standalone="no"?>
<!-- Created with Inkscape (http://www.inkscape.org/) -->

<svg
   xmlns:dc="http://purl.org/dc/elements/1.1/"
   xmlns:cc="http://creativecommons.org/ns#"
   xmlns:rdf="http://www.w3.org/1999/02/22-rdf-syntax-ns#"
   xmlns:svg="http://www.w3.org/2000/svg"
   xmlns="http://www.w3.org/2000/svg"
   xmlns:xlink="http://www.w3.org/1999/xlink"
   xmlns:sodipodi="http://sodipodi.sourceforge.net/DTD/sodipodi-0.dtd"
   xmlns:inkscape="http://www.inkscape.org/namespaces/inkscape"
   width="48"
   height="48"
   id="svg5453"
   version="1.1"
   inkscape:version="0.91 r13725"
   sodipodi:docname="flareget.svg"
   viewBox="0 0 48 48">
  <defs
     id="defs5455">
    <linearGradient
       inkscape:collect="always"
       id="linearGradient4787">
      <stop
         style="stop-color:#ff433a;stop-opacity:1"
         offset="0"
         id="stop4789" />
      <stop
         style="stop-color:#ff9436;stop-opacity:1"
         offset="1"
         id="stop4791" />
    </linearGradient>
    <linearGradient
       id="linearGradient4581"
       inkscape:collect="always">
      <stop
         id="stop4583"
         offset="0"
         style="stop-color:#2b2b2b;stop-opacity:1" />
      <stop
         id="stop4585"
         offset="1"
         style="stop-color:#353535;stop-opacity:1" />
    </linearGradient>
    <linearGradient
       inkscape:collect="always"
       id="linearGradient4202">
      <stop
         style="stop-color:#e6c02a;stop-opacity:1"
         offset="0"
         id="stop4204" />
      <stop
         style="stop-color:#000000;stop-opacity:0;"
         offset="1"
         id="stop4206" />
    </linearGradient>
    <linearGradient
       inkscape:collect="always"
       xlink:href="#linearGradient4202"
       id="linearGradient4208"
       x1="15.37001"
       y1="29.237474"
       x2="14.990056"
       y2="0.73601341"
       gradientUnits="userSpaceOnUse" />
    <linearGradient
       inkscape:collect="always"
       xlink:href="#linearGradient4581"
       id="linearGradient4579"
       gradientUnits="userSpaceOnUse"
       x1="15.37001"
       y1="29.237474"
       x2="14.990056"
       y2="0.73601341" />
    <linearGradient
       inkscape:collect="always"
       xlink:href="#linearGradient4202"
       id="linearGradient4587"
       gradientUnits="userSpaceOnUse"
       x1="15.37001"
       y1="29.237474"
       x2="14.990056"
       y2="0.73601341" />
    <linearGradient
       gradientTransform="matrix(0.9192596,-0.16588944,0.15463807,0.98614436,-51.069169,75.206756)"
       gradientUnits="userSpaceOnUse"
       y2="509.78397"
       x2="410.33771"
       y1="509.78397"
       x1="389.95786"
       id="linearGradient4830-8"
       xlink:href="#linearGradient4787"
       inkscape:collect="always" />
    <linearGradient
       gradientTransform="matrix(1.1305043,0,0,1.1305043,-51.918413,-67.99393)"
       gradientUnits="userSpaceOnUse"
       y2="505.35291"
       x2="413.20642"
       y1="548.15637"
       x1="412.34464"
       id="linearGradient4822-7"
       xlink:href="#linearGradient4787"
       inkscape:collect="always" />
  </defs>
  <sodipodi:namedview
     id="base"
     pagecolor="#5a5a5a"
     bordercolor="#666666"
     borderopacity="1.0"
     inkscape:pageopacity="0"
     inkscape:pageshadow="2"
     inkscape:zoom="6.4872669"
     inkscape:cx="-15.140795"
     inkscape:cy="27.198047"
     inkscape:document-units="px"
     inkscape:current-layer="layer1"
     showgrid="false"
     fit-margin-top="0"
     fit-margin-left="0"
     fit-margin-right="0"
     fit-margin-bottom="0"
     inkscape:window-width="1366"
     inkscape:window-height="685"
     inkscape:window-x="0"
     inkscape:window-y="0"
     inkscape:window-maximized="1"
     inkscape:showpageshadow="false"
     borderlayer="true"
     showguides="false"
     inkscape:snap-bbox="true"
     inkscape:bbox-paths="false"
     inkscape:bbox-nodes="true"
     inkscape:guide-bbox="true"
     inkscape:snap-bbox-edge-midpoints="false"
     inkscape:object-paths="true"
     inkscape:object-nodes="true"
     inkscape:snap-others="true"
     inkscape:snap-nodes="true"
     inkscape:snap-global="true"
     inkscape:snap-center="true"
     showborder="false">
    <inkscape:grid
       type="xygrid"
       id="grid4063" />
    <sodipodi:guide
       position="2,9"
       orientation="4,0"
       id="guide4146" />
    <sodipodi:guide
       position="1.1650391e-05,43.999996"
       orientation="0,48"
       id="guide4148" />
    <sodipodi:guide
       position="48.000012,43.999996"
       orientation="-4,0"
       id="guide4150" />
    <sodipodi:guide
       position="48.000012,47.999996"
       orientation="0,-48"
       id="guide4152" />
    <sodipodi:guide
       position="1.1650391e-05,4.0000264"
       orientation="4,0"
       id="guide4154" />
    <sodipodi:guide
       position="1.1650391e-05,2.6367188e-05"
       orientation="0,48"
       id="guide4156" />
    <sodipodi:guide
       position="48.000012,2.6367188e-05"
       orientation="-4,0"
       id="guide4158" />
    <sodipodi:guide
       position="-5,4"
       orientation="0,-48"
       id="guide4160" />
    <sodipodi:guide
       position="48.000012,48.000026"
       orientation="0,-4"
       id="guide4162" />
    <sodipodi:guide
       position="46,12"
       orientation="48,0"
       id="guide4164" />
    <sodipodi:guide
       position="44.000012,2.6367188e-05"
       orientation="0,4"
       id="guide4166" />
    <sodipodi:guide
       position="48.000012,2.6367188e-05"
       orientation="-48,0"
       id="guide4168" />
    <sodipodi:guide
       position="4.0000422,48.000026"
       orientation="0,-4"
       id="guide4170" />
    <sodipodi:guide
       position="4.2167969e-05,48.000026"
       orientation="48,0"
       id="guide4172" />
    <sodipodi:guide
       position="4.2167969e-05,2.6367188e-05"
       orientation="0,4"
       id="guide4174" />
    <sodipodi:guide
       position="2.6332556e-06,24.000019"
       orientation="24.000006,0"
       id="guide4316" />
    <sodipodi:guide
       position="2.6332556e-06,1.3122102e-05"
       orientation="0,24.000006"
       id="guide4318" />
    <sodipodi:guide
       position="24.000008,24.000019"
       orientation="0,-24.000006"
       id="guide4322" />
  </sodipodi:namedview>
  <metadata
     id="metadata5458">
    <rdf:RDF>
      <cc:Work
         rdf:about="">
        <dc:format>image/svg+xml</dc:format>
        <dc:type
           rdf:resource="http://purl.org/dc/dcmitype/StillImage" />
        <dc:title></dc:title>
      </cc:Work>
    </rdf:RDF>
  </metadata>
  <g
     inkscape:label="Capa 1"
     inkscape:groupmode="layer"
     id="layer1"
     transform="translate(-384.57143,-499.798)"
     style="display:inline">
    <g
       id="g4768"
       transform="matrix(1.1305043,0,0,1.1305043,-51.715656,-68.10586)">
      <path
         inkscape:transform-center-y="6.8791785"
         inkscape:transform-center-x="9.9999645"
         sodipodi:nodetypes="cscsscsscc"
         inkscape:connector-curvature="0"
         id="path4680-8"
         d="m 405.93326,504.04412 c -9.31497,0.38154 -9.92746,1.45972 -11.07494,2.0406 -1.53659,0.77795 -3.42678,1.21606 -3.22935,-0.0428 -0.65383,0.23925 -1.40711,1.15021 -0.76887,2.28987 0.63823,1.13965 -0.63655,2.46768 -1.25049,1.74938 -1.17498,-1.37467 -4.05536,-0.29619 -3.63488,1.46262 0.41402,-0.41354 2.34149,-1.31886 2.07344,0.70138 -0.26807,2.02024 -0.40134,3.56801 1.65274,4.94511 2.05407,1.37711 10.0236,-0.0162 10.0236,-0.0162 z"
         style="display:inline;fill:url(#linearGradient4830-8);fill-opacity:1;fill-rule:evenodd;stroke:none;stroke-width:1px;stroke-linecap:butt;stroke-linejoin:miter;stroke-opacity:1" />
      <g
         style="fill:url(#linearGradient4208);fill-opacity:1"
         id="g3"
         transform="matrix(0.64872777,-1.1659445,1.1659445,0.64872777,381.19159,531.6494)">
        <g
           style="fill:url(#linearGradient4587);fill-opacity:1"
           id="c59_radiactive">
          <path
             inkscape:connector-curvature="0"
             id="path4180"
             d="M 22.685,2.124 C 15.578,-2.12 6.376,0.193 2.127,7.298 c -4.248,7.104 -1.932,16.309 5.171,20.555 7.108,4.248 16.307,1.93 20.555,-5.174 4.248,-7.104 1.932,-16.302 -5.168,-20.555 z"
             style="fill:url(#linearGradient4579);fill-opacity:1" />
        </g>
      </g>
    </g>
    <path
       inkscape:connector-curvature="0"
       id="path4444"
       d="m 411.67543,527.16339 4.32692,-4.32693 3.36538,3.36539 -10.09615,10.09615 -10.09615,-10.09615 3.36538,-3.36539 4.32693,4.32693 0,-15.86539 4.80769,0 0,15.86539 z"
       style="display:inline;fill:#ffffff;fill-opacity:0.85365852;enable-background:new" />
    <path
       id="path4648-3"
       d="m 419.54511,503.68483 c 0.70784,0.65011 1.62513,1.58777 2.19255,2.60105 0.98919,1.76641 0.84788,4.83997 -2.19035,5.40522 -3.03829,0.56525 -3.15439,-0.46963 -3.14422,-1.69576 -1.61512,0.22234 -2.33745,3.80251 0.4946,5.05194 2.40232,1.05985 3.28553,0.63591 7.80755,0.35329 4.52201,-0.28263 5.05194,5.22858 2.93224,6.07646 -2.11969,0.84787 -2.92909,-0.66347 -2.79093,-1.48379 -1.69891,0.66347 -1.90631,2.51449 -1.05985,3.39151 6.60989,6.84856 3.43973,12.14049 1.6251,12.68285 -2.24861,0.67207 -3.83381,-0.66016 -2.68495,-2.43765 0.93621,-1.44846 0.12821,-3.83723 -1.00906,-4.68321 -1.13728,-0.846 -3.34573,-0.64373 -4.29017,-0.0155 1.36131,0.51468 3.35618,1.30715 2.82626,3.07356 -0.40922,1.36407 -1.74993,2.22314 -3.42685,2.19035 -3.82021,-0.0748 -2.61051,-3.52603 -2.08436,-3.92143 -2.05277,-0.25409 -3.42402,3.49158 -2.08437,4.76931 1.31829,1.25737 3.17112,1.95879 2.04904,3.88611 -1.17693,2.02155 -2.82626,3.10889 -5.65252,2.54364 -2.82626,-0.56526 -4.38071,-2.367 -4.02742,-4.02743 0.35328,-1.66042 1.17843,-1.88206 2.61429,-1.90772 -0.89582,-1.89804 -5.29924,-1.90773 -5.22859,1.3778 0.0365,1.6972 -2.80479,1.97659 -3.99209,0.0707 -1.34247,-2.15502 -0.2072,-3.0769 1.30715,-2.72028 0.10118,-2.39897 -1.94306,-1.23648 -2.47298,-3.8861 -0.52993,-2.64963 1.33128,-3.38592 1.33128,-3.38592 -3.3286,1.01446 -4.04289,2.00053 -7.46838,0.98018 -1.21615,-0.36226 0.19323,-3.66934 -3.71727,-2.53139 0.66051,11.92477 10.47701,21.32944 22.57254,21.32944 12.52598,0 22.61009,-10.08411 22.61009,-22.61009 0,-9.09571 -5.32997,-16.88272 -13.03833,-20.47714 z"
       clip-path="none"
       style="display:inline;fill:url(#linearGradient4822-7);fill-opacity:1;fill-rule:evenodd;stroke:none;stroke-width:1px;stroke-linecap:butt;stroke-linejoin:miter;stroke-opacity:1"
       inkscape:connector-curvature="0"
       sodipodi:nodetypes="csscssscsssccsccsssscsscscscsscc" />
  </g>
</svg>
