<?xml version="1.0" encoding="UTF-8" standalone="no"?>
<svg
   xmlns:osb="http://www.openswatchbook.org/uri/2009/osb"
   xmlns:dc="http://purl.org/dc/elements/1.1/"
   xmlns:cc="http://creativecommons.org/ns#"
   xmlns:rdf="http://www.w3.org/1999/02/22-rdf-syntax-ns#"
   xmlns:svg="http://www.w3.org/2000/svg"
   xmlns="http://www.w3.org/2000/svg"
   xmlns:xlink="http://www.w3.org/1999/xlink"
   xmlns:sodipodi="http://sodipodi.sourceforge.net/DTD/sodipodi-0.dtd"
   xmlns:inkscape="http://www.inkscape.org/namespaces/inkscape"
   viewBox="0 0 48 48"
   id="svg2"
   version="1.1"
   inkscape:version="0.91 r13725"
   sodipodi:docname="genymotion.svg">
  <metadata
     id="metadata77">
    <rdf:RDF>
      <cc:Work
         rdf:about="">
        <dc:format>image/svg+xml</dc:format>
        <dc:type
           rdf:resource="http://purl.org/dc/dcmitype/StillImage" />
        <dc:title></dc:title>
      </cc:Work>
    </rdf:RDF>
  </metadata>
  <sodipodi:namedview
     pagecolor="#5e5e5e"
     bordercolor="#666666"
     borderopacity="1"
     objecttolerance="10"
     gridtolerance="10"
     guidetolerance="10"
     inkscape:pageopacity="0"
     inkscape:pageshadow="2"
     inkscape:window-width="1366"
     inkscape:window-height="685"
     id="namedview75"
     showgrid="false"
     showborder="false"
     inkscape:zoom="4.9166667"
     inkscape:cx="-23.673875"
     inkscape:cy="10.152682"
     inkscape:window-x="0"
     inkscape:window-y="0"
     inkscape:window-maximized="1"
     inkscape:current-layer="svg2" />
  <defs
     id="defs4">
    <linearGradient
       id="linearGradient4166">
      <stop
         id="stop4168"
         offset="0"
         style="stop-color:#e61a5f;stop-opacity:1;" />
      <stop
         id="stop4170"
         offset="1"
         style="stop-color:#ff6c9d;stop-opacity:1" />
    </linearGradient>
    <linearGradient
       osb:paint="gradient"
       id="linearGradient4207">
      <stop
         id="stop3371"
         offset="0"
         style="stop-color:#3498db;stop-opacity:1;" />
      <stop
         id="stop3373"
         offset="1"
         style="stop-color:#3498db;stop-opacity:0;" />
    </linearGradient>
    <linearGradient
       gradientTransform="matrix(0.4943315,0,0,0.47780365,99.251683,50.118849)"
       gradientUnits="userSpaceOnUse"
       y2="-26.047026"
       x2="-125.19291"
       y1="73.496605"
       x1="-123.9715"
       id="linearGradient4738-6-8"
       xlink:href="#linearGradient4166"
       inkscape:collect="always" />
  </defs>
  <g
     id="g33" />
  <g
     id="g4166"
     transform="translate(-12.61017,-37.016949)">
    <rect
       ry="2.9819367"
       y="37.016949"
       x="12.61017"
       height="48"
       width="48"
       id="rect4177-3-1"
       style="opacity:1;fill:url(#linearGradient4738-6-8);fill-opacity:1.0;fill-rule:evenodd;stroke:none;stroke-width:8;stroke-linecap:round;stroke-linejoin:round;stroke-miterlimit:4;stroke-dasharray:none;stroke-dashoffset:0;stroke-opacity:1" />
  </g>
  <path
     style="fill:#f9f9f9;fill-opacity:0.85000002;stroke:none"
     d="m 31.466667,15.466666 c -4.71283,0 -8.533334,3.820504 -8.533334,8.533334 0,4.712831 3.820504,8.533333 8.533334,8.533333 C 36.179497,32.533333 40,28.712831 40,24 40,19.28717 36.179497,15.466666 31.466667,15.466666 Z m 0,2.133334 c 3.534622,0 6.4,2.865379 6.4,6.4 0,3.534624 -2.865378,6.4 -6.4,6.4 -3.534622,0 -6.4,-2.865377 -6.4,-6.4 0,-3.534622 2.865378,-6.399999 6.4,-6.4 z M 14.4,18.666666 c -3.534622,0 -6.4,2.86538 -6.4,6.4 0,3.534624 2.865378,6.4 6.4,6.4 3.534623,0 6.4,-2.865377 6.4,-6.4 0,-3.534622 -2.865377,-6.399999 -6.4,-6.4 z M 14.4,20.8 c 2.356415,0 4.266667,1.910252 4.266667,4.266666 0,2.356416 -1.910252,4.266668 -4.266667,4.266668 -2.356415,0 -4.266667,-1.910252 -4.266667,-4.266667 0,-2.356415 1.910252,-4.266666 4.266667,-4.266666 z"
     id="path4030"
     inkscape:connector-curvature="0" />
</svg>
