<?xml version="1.0" encoding="UTF-8" standalone="no"?>
<!-- Created with Inkscape (http://www.inkscape.org/) -->

<svg
   xmlns:dc="http://purl.org/dc/elements/1.1/"
   xmlns:cc="http://creativecommons.org/ns#"
   xmlns:rdf="http://www.w3.org/1999/02/22-rdf-syntax-ns#"
   xmlns:svg="http://www.w3.org/2000/svg"
   xmlns="http://www.w3.org/2000/svg"
   xmlns:xlink="http://www.w3.org/1999/xlink"
   xmlns:sodipodi="http://sodipodi.sourceforge.net/DTD/sodipodi-0.dtd"
   xmlns:inkscape="http://www.inkscape.org/namespaces/inkscape"
   width="48"
   height="48"
   id="svg5453"
   version="1.1"
   inkscape:version="0.91 r13725"
   sodipodi:docname="google-translate.svg">
  <defs
     id="defs5455">
    <linearGradient
       inkscape:collect="always"
       xlink:href="#linearGradient4582"
       id="linearGradient5081"
       x1="247.31018"
       y1="581.29999"
       x2="246.09758"
       y2="548.61469"
       gradientUnits="userSpaceOnUse"
       gradientTransform="matrix(0.51323687,0,0,0.51323687,-56.719542,-267.47759)" />
    <linearGradient
       id="linearGradient4582"
       inkscape:collect="always">
      <stop
         id="stop4584"
         offset="0"
         style="stop-color:#1f52b9;stop-opacity:1" />
      <stop
         id="stop4586"
         offset="1"
         style="stop-color:#147bdc;stop-opacity:1" />
    </linearGradient>
    <linearGradient
       inkscape:collect="always"
       xlink:href="#linearGradient4391"
       id="linearGradient4397"
       x1="331.19839"
       y1="531.93317"
       x2="330.68326"
       y2="493.74561"
       gradientUnits="userSpaceOnUse"
       gradientTransform="matrix(1.3570964,0,0,-1.0337295,-382.31848,554.23599)" />
    <linearGradient
       inkscape:collect="always"
       id="linearGradient4391">
      <stop
         style="stop-color:#dcebe8;stop-opacity:1"
         offset="0"
         id="stop4393" />
      <stop
         style="stop-color:#f6f8f7;stop-opacity:1"
         offset="1"
         id="stop4395" />
    </linearGradient>
    <linearGradient
       gradientTransform="matrix(1.1437903,0,0,1.1437903,-309.98448,-579.57582)"
       inkscape:collect="always"
       xlink:href="#linearGradient4574"
       id="linearGradient4580"
       x1="322.78955"
       y1="539.17456"
       x2="330.06686"
       y2="536.5354"
       gradientUnits="userSpaceOnUse" />
    <linearGradient
       inkscape:collect="always"
       id="linearGradient4574">
      <stop
         style="stop-color:#1e48aa;stop-opacity:1"
         offset="0"
         id="stop4576" />
      <stop
         style="stop-color:#1e2a8d;stop-opacity:1"
         offset="1"
         id="stop4578" />
    </linearGradient>
    <linearGradient
       inkscape:collect="always"
       xlink:href="#linearGradient4382"
       id="linearGradient4388"
       x1="307.01227"
       y1="499.50363"
       x2="308.64951"
       y2="536.53101"
       gradientUnits="userSpaceOnUse"
       gradientTransform="matrix(1.1864961,0,0,-1.02616,-323.0044,544.4818)" />
    <linearGradient
       inkscape:collect="always"
       id="linearGradient4382">
      <stop
         style="stop-color:#1360c1;stop-opacity:1"
         offset="0"
         id="stop4384" />
      <stop
         style="stop-color:#2190ec;stop-opacity:1"
         offset="1"
         id="stop4386" />
    </linearGradient>
    <linearGradient
       gradientTransform="matrix(1.1437903,0,0,1.1437903,-309.98448,-579.57582)"
       inkscape:collect="always"
       xlink:href="#linearGradient4603"
       id="linearGradient4609"
       x1="312.83197"
       y1="525.35498"
       x2="311.96344"
       y2="509.68469"
       gradientUnits="userSpaceOnUse" />
    <linearGradient
       inkscape:collect="always"
       id="linearGradient4603">
      <stop
         style="stop-color:#cdd6da;stop-opacity:1"
         offset="0"
         id="stop4605" />
      <stop
         style="stop-color:#f6f7f8;stop-opacity:1"
         offset="1"
         id="stop4607" />
    </linearGradient>
  </defs>
  <sodipodi:namedview
     id="base"
     pagecolor="#ffffff"
     bordercolor="#666666"
     borderopacity="1.0"
     inkscape:pageopacity="0"
     inkscape:pageshadow="2"
     inkscape:zoom="4"
     inkscape:cx="-39.601104"
     inkscape:cy="15.968792"
     inkscape:document-units="px"
     inkscape:current-layer="g4370"
     showgrid="true"
     fit-margin-top="0"
     fit-margin-left="0"
     fit-margin-right="0"
     fit-margin-bottom="0"
     inkscape:window-width="1366"
     inkscape:window-height="634"
     inkscape:window-x="0"
     inkscape:window-y="36"
     inkscape:window-maximized="1"
     inkscape:showpageshadow="false"
     borderlayer="true"
     showguides="false">
    <inkscape:grid
       type="xygrid"
       id="grid4063" />
    <sodipodi:guide
       position="1.1650391e-05,32.000026"
       orientation="32,0"
       id="guide4157" />
    <sodipodi:guide
       position="1.1650391e-05,2.6367188e-05"
       orientation="0,32"
       id="guide4159" />
    <sodipodi:guide
       position="32.000012,2.6367188e-05"
       orientation="-32,0"
       id="guide4161" />
    <sodipodi:guide
       position="32.000012,32.000026"
       orientation="0,-32"
       id="guide4163" />
    <sodipodi:guide
       position="2.0000117,30.000026"
       orientation="28,0"
       id="guide4167" />
    <sodipodi:guide
       position="2.0000117,2.0000264"
       orientation="0,28"
       id="guide4169" />
    <sodipodi:guide
       position="30.000012,2.0000264"
       orientation="-28,0"
       id="guide4171" />
    <sodipodi:guide
       position="30.000012,30.000026"
       orientation="0,-28"
       id="guide4173" />
    <sodipodi:guide
       position="2.0000117,30.000026"
       orientation="28,0"
       id="guide4181" />
    <sodipodi:guide
       position="2.0000117,2.0000264"
       orientation="0,14"
       id="guide4183" />
    <sodipodi:guide
       position="16.000012,2.0000264"
       orientation="-28,0"
       id="guide4185" />
    <sodipodi:guide
       position="16.000012,30.000026"
       orientation="0,-14"
       id="guide4187" />
    <sodipodi:guide
       position="9.0000117,23.000026"
       orientation="14,0"
       id="guide4193" />
    <sodipodi:guide
       position="9.0000117,9.0000264"
       orientation="0,14.000031"
       id="guide4195" />
    <sodipodi:guide
       position="23.000042,9.0000264"
       orientation="-14,0"
       id="guide4197" />
    <sodipodi:guide
       position="23.000042,23.000026"
       orientation="0,-14.000031"
       id="guide4199" />
  </sodipodi:namedview>
  <metadata
     id="metadata5458">
    <rdf:RDF>
      <cc:Work
         rdf:about="">
        <dc:format>image/svg+xml</dc:format>
        <dc:type
           rdf:resource="http://purl.org/dc/dcmitype/StillImage" />
        <dc:title></dc:title>
      </cc:Work>
    </rdf:RDF>
  </metadata>
  <g
     inkscape:label="Capa 1"
     inkscape:groupmode="layer"
     id="layer1"
     transform="translate(-384.57143,-499.798)">
    <g
       style="display:inline;enable-background:new"
       id="g4238"
       transform="translate(225.81911,462.44565)">
      <g
         style="display:inline"
         id="layer1-8"
         transform="matrix(0.22655187,0,0,0.22655187,106.94841,54.31088)">
        <g
           style="display:none"
           id="layer6" />
        <g
           id="g4027" />
        <g
           id="g4061" />
        <g
           id="g3751" />
        <g
           id="g3782" />
        <g
           id="g3725" />
        <g
           id="g4370"
           transform="matrix(4.4140002,0,0,4.4140002,59.275211,39.357303)">
          <g
             id="g4220"
             transform="translate(4.8889991,-20.365452)">
            <path
               sodipodi:nodetypes="ccccccc"
               inkscape:connector-curvature="0"
               id="path4343-3"
               d="M 59.909203,42.372913 46.675915,3.3971834 l 28.75482,0 c 5.38342,-0.219127 5.997018,3.561672 5.997018,3.561672 l 0,31.1603586 c 0,0 0.942838,4.253699 -4.757985,4.253699 z"
               style="opacity:1;fill:url(#linearGradient4397);fill-opacity:1;fill-rule:evenodd;stroke:none;stroke-width:1px;stroke-linecap:butt;stroke-linejoin:miter;stroke-opacity:1" />
            <path
               id="path4256-4"
               d="m 63.543112,18.731949 9.708686,0 c -0.273601,1.75314 -1.203135,3.620578 -2.765602,5.555353 -0.995885,-1.595315 -1.636374,-3.142509 -2.001619,-4.172713 -0.0923,-0.259975 -0.337982,-0.433727 -0.613554,-0.433727 l -1.597614,0 c -0.207584,0 -0.40285,0.09903 -0.525529,0.266545 -0.122515,0.167674 -0.157825,0.38347 -0.09509,0.581692 0.378543,1.191972 1.25043,3.53206 2.862332,5.909923 -1.904063,1.851014 -3.800735,3.18504 -4.534509,3.676577 -0.291996,0.195759 -0.375915,0.588102 -0.189354,0.886174 l 0.801763,1.282297 c 0.09279,0.148295 0.241909,0.253241 0.413033,0.290846 0.04599,0.01037 0.09263,0.0153 0.138938,0.0153 0.126292,0 0.250778,-0.0368 0.35769,-0.106913 0.755613,-0.496628 2.716009,-1.852497 4.768864,-3.819128 0.759555,0.791581 2.545373,2.178977 3.603492,2.948555 0.161439,0.117419 0.368202,0.154043 0.560845,0.09969 0.192474,-0.05485 0.348816,-0.195107 0.424693,-0.379697 l 0.598116,-1.462124 c 0.120216,-0.293802 0.01068,-0.632277 -0.259313,-0.7993 -0.689431,-0.427649 -1.98733,-1.305941 -3.046763,-2.447329 2.325963,-2.722085 3.652434,-5.375848 3.944435,-7.891006 l 0.512555,0 c 0.359496,0 0.650999,-0.291503 0.650999,-0.651164 l 0,-1.735403 c 0,-0.359497 -0.291338,-0.651 -0.650999,-0.651 l -5.070057,0 0,-0.891102 c 0,-0.359656 -0.291339,-0.651164 -0.651,-0.651164 l -1.62422,0 c -0.359492,0 -0.651,0.291344 -0.651,0.651164 l 0,0.891102 -5.070057,0 c -0.359491,0 -0.651,0.291344 -0.651,0.651005 l 0,1.735398 c -1.64e-4,0.358675 0.291344,0.650178 0.650836,0.650178 z"
               inkscape:connector-curvature="0"
               style="opacity:1;fill:url(#linearGradient5081);fill-opacity:1" />
            <path
               sodipodi:nodetypes="cccc"
               inkscape:connector-curvature="0"
               id="path4572"
               d="m 56.200406,32.934641 3.562392,9.516358 8.534666,-9.516358 z"
               style="opacity:1;fill:url(#linearGradient4580);fill-opacity:1;fill-rule:evenodd;stroke:none;stroke-width:0.92006624px;stroke-linecap:butt;stroke-linejoin:miter;stroke-opacity:1" />
            <path
               sodipodi:nodetypes="ccccccc"
               inkscape:connector-curvature="0"
               id="path4343"
               d="m 55.318669,-5.4700966 12.985108,38.6903306 -30.049166,0 C 33.547948,33.437749 33.486,29.684642 33.486,29.684642 l 0,-30.9321846 c 0,0 0.125062,-4.222554 5.109231,-4.222554 z"
               style="opacity:1;fill:url(#linearGradient4388);fill-opacity:1;fill-rule:evenodd;stroke:none;stroke-width:1px;stroke-linecap:butt;stroke-linejoin:miter;stroke-opacity:1" />
            <path
               id="path4258"
               d="m 50.273788,5.4553084 c -0.09711,-0.312404 -0.385595,-0.525263 -0.712673,-0.525263 l -4.145119,0 c -0.328016,0 -0.617464,0.214369 -0.713428,0.527882 L 39.749739,21.651826 c -0.06943,0.226207 -0.02722,0.471996 0.113578,0.662632 0.140812,0.189869 0.363211,0.301846 0.599964,0.301846 l 2.571435,0 c 0.33481,0 0.628936,-0.223554 0.718724,-0.545931 l 1.110323,-3.995122 5.066693,0 1.202353,4.009808 c 0.09448,0.315778 0.385228,0.531634 0.714548,0.531634 l 2.733121,0 c 0.237508,0 0.459941,-0.112664 0.600342,-0.30299 0.140812,-0.19107 0.182343,-0.437157 0.111862,-0.663559 L 50.273788,5.4553084 Z m -4.835969,9.6327626 1.8663,-7.1638796 0.05078,0 1.995571,7.1638796 -3.912689,0 z"
               inkscape:connector-curvature="0"
               style="opacity:1;fill:url(#linearGradient4609);fill-opacity:1" />
          </g>
        </g>
      </g>
    </g>
  </g>
</svg>
