<?xml version="1.0" encoding="UTF-8" standalone="no"?>
<!-- Created with Inkscape (http://www.inkscape.org/) -->

<svg
   xmlns:dc="http://purl.org/dc/elements/1.1/"
   xmlns:cc="http://creativecommons.org/ns#"
   xmlns:rdf="http://www.w3.org/1999/02/22-rdf-syntax-ns#"
   xmlns:svg="http://www.w3.org/2000/svg"
   xmlns="http://www.w3.org/2000/svg"
   xmlns:xlink="http://www.w3.org/1999/xlink"
   xmlns:sodipodi="http://sodipodi.sourceforge.net/DTD/sodipodi-0.dtd"
   xmlns:inkscape="http://www.inkscape.org/namespaces/inkscape"
   width="48"
   height="48"
   id="svg5453"
   version="1.1"
   inkscape:version="0.91 r13725"
   sodipodi:docname="google-hangouts.svg">
  <defs
     id="defs5455">
    <linearGradient
       gradientTransform="matrix(0.14760324,0,0,-0.14760324,9.8141694,20.783618)"
       inkscape:collect="always"
       xlink:href="#linearGradient4362"
       id="linearGradient4292"
       gradientUnits="userSpaceOnUse"
       x1="72.591591"
       y1="4.6072965"
       x2="76.367653"
       y2="183.86407" />
    <linearGradient
       inkscape:collect="always"
       id="linearGradient4362">
      <stop
         style="stop-color:#2eb435;stop-opacity:1"
         offset="0"
         id="stop4364" />
      <stop
         style="stop-color:#6fe135;stop-opacity:1"
         offset="1"
         id="stop4366" />
    </linearGradient>
    <linearGradient
       id="linearGradient3819">
      <stop
         id="stop3821"
         offset="0"
         style="stop-color:#cdddf3;stop-opacity:1" />
      <stop
         id="stop3823"
         offset="1"
         style="stop-color:#fbfdf8;stop-opacity:1" />
    </linearGradient>
  </defs>
  <sodipodi:namedview
     id="base"
     pagecolor="#ffffff"
     bordercolor="#666666"
     borderopacity="1.0"
     inkscape:pageopacity="0"
     inkscape:pageshadow="2"
     inkscape:zoom="4"
     inkscape:cx="9.125"
     inkscape:cy="15.968792"
     inkscape:document-units="px"
     inkscape:current-layer="g4182"
     showgrid="true"
     fit-margin-top="0"
     fit-margin-left="0"
     fit-margin-right="0"
     fit-margin-bottom="0"
     inkscape:window-width="1366"
     inkscape:window-height="634"
     inkscape:window-x="0"
     inkscape:window-y="36"
     inkscape:window-maximized="1"
     inkscape:showpageshadow="false"
     borderlayer="true"
     showguides="false">
    <inkscape:grid
       type="xygrid"
       id="grid4063" />
    <sodipodi:guide
       position="1.1650391e-05,32.000026"
       orientation="32,0"
       id="guide4157" />
    <sodipodi:guide
       position="1.1650391e-05,2.6367188e-05"
       orientation="0,32"
       id="guide4159" />
    <sodipodi:guide
       position="32.000012,2.6367188e-05"
       orientation="-32,0"
       id="guide4161" />
    <sodipodi:guide
       position="32.000012,32.000026"
       orientation="0,-32"
       id="guide4163" />
    <sodipodi:guide
       position="2.0000117,30.000026"
       orientation="28,0"
       id="guide4167" />
    <sodipodi:guide
       position="2.0000117,2.0000264"
       orientation="0,28"
       id="guide4169" />
    <sodipodi:guide
       position="30.000012,2.0000264"
       orientation="-28,0"
       id="guide4171" />
    <sodipodi:guide
       position="30.000012,30.000026"
       orientation="0,-28"
       id="guide4173" />
    <sodipodi:guide
       position="2.0000117,30.000026"
       orientation="28,0"
       id="guide4181" />
    <sodipodi:guide
       position="2.0000117,2.0000264"
       orientation="0,14"
       id="guide4183" />
    <sodipodi:guide
       position="16.000012,2.0000264"
       orientation="-28,0"
       id="guide4185" />
    <sodipodi:guide
       position="16.000012,30.000026"
       orientation="0,-14"
       id="guide4187" />
    <sodipodi:guide
       position="9.0000117,23.000026"
       orientation="14,0"
       id="guide4193" />
    <sodipodi:guide
       position="9.0000117,9.0000264"
       orientation="0,14.000031"
       id="guide4195" />
    <sodipodi:guide
       position="23.000042,9.0000264"
       orientation="-14,0"
       id="guide4197" />
    <sodipodi:guide
       position="23.000042,23.000026"
       orientation="0,-14.000031"
       id="guide4199" />
  </sodipodi:namedview>
  <metadata
     id="metadata5458">
    <rdf:RDF>
      <cc:Work
         rdf:about="">
        <dc:format>image/svg+xml</dc:format>
        <dc:type
           rdf:resource="http://purl.org/dc/dcmitype/StillImage" />
        <dc:title></dc:title>
      </cc:Work>
    </rdf:RDF>
  </metadata>
  <g
     inkscape:label="Capa 1"
     inkscape:groupmode="layer"
     id="layer1"
     transform="translate(-384.57143,-499.798)">
    <g
       style="display:inline;enable-background:new"
       id="g4238"
       transform="translate(225.81911,462.44565)">
      <g
         style="display:inline"
         id="layer1-8"
         transform="matrix(0.22655187,0,0,0.22655187,106.94841,54.31088)">
        <g
           style="display:none"
           id="layer6" />
        <g
           id="g4027" />
        <g
           id="g4061" />
        <g
           id="g3751" />
        <g
           id="g3782" />
        <g
           id="g3725" />
        <g
           id="g4370"
           transform="matrix(4.4140002,0,0,4.4140002,59.275211,39.357303)">
          <g
             id="g4182"
             transform="matrix(1.7142857,0,0,1.7142857,-30.839285,-12.375017)">
            <g
               id="g4191"
               transform="translate(32.911399,-1.077116)">
              <path
                 style="fill:url(#linearGradient4292);fill-opacity:1;stroke:none;stroke-width:1.31742239;stroke-miterlimit:4;stroke-dasharray:none"
                 d="m 20.639096,-6.3793647 c -0.01269,0.029521 -0.0366,0.02834 -0.05978,0.027307 l 0,0 c -0.0071,-4.428e-4 -0.01431,-8.856e-4 -0.02096,-2.952e-4 l 0,0 c -0.396462,0.035277 -0.791596,0.080149 -1.182892,0.154393 l 0,0 c -2.861585,0.5422943 -5.211428,1.947182 -7.030491,4.2168771 l 0,0 C 10.848867,-0.11463956 10.024945,2.026493 9.8469364,4.4138279 l 0,0 c -0.0214,0.2873832 -0.03233,0.5741761 -0.03277,0.8602317 l 0,0 0,0.037637 c 0.0013,0.8525563 0.09594,1.6987658 0.2836926,2.5364144 l 0,0 c 0.18849,0.8413382 0.469674,1.6540417 0.847833,2.431025 l 0,0 c 0.03321,0.06627 0.06613,0.132548 0.09978,0.198379 l 0,0 c 0.621262,1.223335 1.420386,2.313533 2.422022,3.255094 l 0,0 c 0.527386,0.495652 1.09064,0.943923 1.70098,1.331381 l 0,0 c 1.869247,1.186435 3.909714,1.808582 6.12642,1.83648 l 0,0 c 0.135795,0.0017 0.172844,0.03543 0.172253,0.174319 l 0,0 c -0.0062,1.186435 -0.0037,2.373165 -0.0034,3.5596 l 0,0 c 1.48e-4,0.04605 0.0038,0.09196 0.0062,0.149227 l 0,0 c 0.03838,-0.01564 0.06244,-0.0245 0.08561,-0.03543 l 0,0 c 2.228366,-1.04695 4.27459,-2.369918 6.098818,-4.02824 l 0,0 c 0.362809,-0.330041 0.710119,-0.67558 1.044294,-1.035437 l 0,0 c 0.143027,-0.154098 0.284726,-0.310852 0.428197,-0.46436 l 0,0 c 0.221404,-0.236903 0.412993,-0.501556 0.621704,-0.750562 l 0,0 c 0.241036,-0.287532 0.457423,-0.593217 0.670857,-0.900823 l 0,0 c 0.472035,-0.679861 0.893295,-1.389094 1.247543,-2.138328 l 0,0 c 0.17919,-0.378897 0.349819,-0.760599 0.500818,-1.151157 l 0,0 c 0.005,-0.0074 0.01181,-0.01388 0.01491,-0.02185 l 0,0 c 0.411517,-1.0699765 0.675137,-2.1770002 0.815803,-3.3128074 l 0,0 c 0.04901,-0.395577 0.08074,-0.7938105 0.100665,-1.1916013 l 0,0 c 0.009,-0.1797804 0.01358,-0.3592662 0.01387,-0.5384563 l 0,0 0,-0.039112 c -0.0012,-0.6615578 -0.06126,-1.3198681 -0.180961,-1.9730125 l 0,0 c -0.412269,-2.24755351 -1.396487,-4.210972 -2.95134,-5.8862688 l 0,0 C 29.324513,-3.391137 28.589449,-4.005757 27.777779,-4.5275344 l 0,0 c -1.511605,-0.9718198 -3.158562,-1.5672512 -4.944414,-1.7781763 l 0,0 c -0.217714,-0.025831 -0.438529,-0.022583 -0.653144,-0.073654 l 0,0 -1.541125,0 z"
                 id="path4273" />
              <path
                 style="fill:#ffffff;fill-opacity:0.85338348;stroke:none;stroke-width:1.31742239;stroke-miterlimit:4;stroke-dasharray:none"
                 d="m 27.08921,1.5377783 c 0.359414,-5.833e-4 0.657277,0.3620704 0.542147,0.7167609 l 0,0 c 0.0273,0.067012 0.02258,0.1375663 0.02258,0.2076778 l 0,0 c 0,1.5254796 5.84e-4,3.0509593 -4.42e-4,4.5765866 l 0,0 c -0.0012,1.3629682 -0.855214,2.6381128 -2.114122,3.1616614 l 0,0 c -0.03203,0.01328 -0.06229,0.0307 -0.09314,0.0465 l 0,0 c 0.02155,0.02686 0.04738,0.03498 0.07454,0.03631 l 0,0 c 8.75e-4,0 0.0018,0 0.0027,0 l 0,0 c -8.75e-4,0 -0.0018,0 -0.0027,0 l 0,0 c -0.02716,-0.0013 -0.05314,-0.0094 -0.07469,-0.03631 l 0,0 c -0.01712,0.0046 -0.03439,0.0096 -0.05181,0.01431 l 0,0 c -0.0097,0.0056 -0.01948,0.01122 -0.02937,0.01668 l 0,0 c -0.263029,0.07439 -0.52842,0.13609 -0.799714,0.175943 l 0,0 c -0.207088,0.03041 -0.3634,-0.0865 -0.365909,-0.294616 l 0,0 c -0.0018,-0.14598 -0.003,-0.2919592 -0.0041,-0.4380866 l 0,0 c 0.0023,-0.261258 0.005,-0.5226631 0.0074,-0.7839206 l 0,0 c -0.0012,-0.057563 -0.0036,-0.1151308 -0.0034,-0.1725483 l 0,0 c 2.95e-4,-0.2007407 0.07779,-0.2853171 0.327089,-0.3424394 l 0,0 c 0.316461,-0.072473 0.614325,-0.1744674 0.860527,-0.4032525 l 0,0 C 25.682445,7.7443453 25.83182,7.4017583 25.899569,7.0144471 l 0,0 c -0.853737,-0.00175 -1.707326,-0.00327 -2.561211,-0.0049 l 0,0 c -0.03085,0 -0.06199,1.476e-4 -0.09299,2.951e-4 l 0,0 c -0.06185,1.476e-4 -0.123692,2.952e-4 -0.185537,-7.583e-4 l 0,0 C 22.711044,7.0031839 22.47237,6.7622913 22.472517,6.4117337 l 0,0 c 4.43e-4,-1.3800903 0.0023,-2.7603287 0.0036,-4.1407142 l 0,0 c 0,-0.013137 -0.0015,-0.026419 -0.0023,-0.039556 l 0,0 c -0.02686,-0.2583058 0.04753,-0.4699688 0.276904,-0.6137343 l 0,0 c 0.0893,-0.055796 0.186128,-0.079115 0.28886,-0.079115 l 0,0 c 0.565911,-2.951e-4 1.131969,-1.475e-4 1.698028,-1.475e-4 l 0,0 c 0.78392,0 1.567841,0 2.351762,-7.584e-4"
                 id="path4271" />
              <path
                 style="fill:#ffffff;fill-opacity:0.85338348;stroke:none;stroke-width:1.31742239;stroke-miterlimit:4;stroke-dasharray:none"
                 d="m 19.88899,1.5377083 c 0.359709,-5.833e-4 0.657425,0.3620704 0.542294,0.7167609 l 0,0 c 0.0279,0.067012 0.02273,0.137714 0.02273,0.2078254 l 0,0 c 2.96e-4,1.5229707 0.0087,3.0462361 -0.0027,4.5690586 l 0,0 c -0.0075,1.0104921 -0.401038,1.8606864 -1.140678,2.5499939 l 0,0 c -0.03852,0.035869 -0.07587,0.073211 -0.113802,0.1098166 l 0,0 C 18.812819,9.984894 18.397906,10.216631 17.92779,10.344013 l 0,0 c -0.200003,0.05432 -0.40399,0.08531 -0.60783,0.115278 l 0,0 c -0.157641,0.02302 -0.260225,-0.0645 -0.319118,-0.20694 l 0,0 c 5.83e-4,-0.4383818 8.75e-4,-0.8764681 0.0016,-1.3148495 l 0,0 c 0.0074,-0.1290054 -0.04428,-0.267162 0.05904,-0.3811115 l 0,0 c 0.05122,-0.056239 0.109227,-0.094761 0.187604,-0.114688 l 0,0 c 0.229523,-0.057715 0.462146,-0.1039127 0.671299,-0.2286375 l 0,0 c 0.385131,-0.2296704 0.624692,-0.5614827 0.730818,-0.9938126 l 0,0 c 0.01668,-0.068045 0.03232,-0.1365327 0.04827,-0.2048731 l 0,0 c -0.924292,-0.00175 -1.848583,-0.00338 -2.772727,-0.00455 l 0,0 c -0.08,-1.476e-4 -0.158969,-0.00298 -0.236608,-0.0245 l 0,0 C 15.454532,6.9198351 15.274161,6.7049246 15.273865,6.4621173 l 0,0 c -0.0018,-1.3975074 8.87e-4,-2.7951624 0.0019,-4.1928174 l 0,0 c -0.01948,-0.2231764 1.47e-4,-0.4324775 0.188046,-0.5920367 l 0,0 c 0.101994,-0.086348 0.214025,-0.1388945 0.348049,-0.1388945 l 0,0 c 0.470411,0 0.940822,0 1.411234,0 l 0,0 c 0.3141,1.475e-4 0.628347,1.475e-4 0.942447,1.475e-4 l 0,0 c 0.574472,0 1.148796,-1.475e-4 1.723268,-7.583e-4"
                 id="path32" />
            </g>
          </g>
        </g>
      </g>
    </g>
  </g>
</svg>
