<?xml version="1.0" encoding="UTF-8" standalone="no"?>
<!-- Created with Inkscape (http://www.inkscape.org/) -->

<svg
   xmlns:dc="http://purl.org/dc/elements/1.1/"
   xmlns:cc="http://creativecommons.org/ns#"
   xmlns:rdf="http://www.w3.org/1999/02/22-rdf-syntax-ns#"
   xmlns:svg="http://www.w3.org/2000/svg"
   xmlns="http://www.w3.org/2000/svg"
   xmlns:xlink="http://www.w3.org/1999/xlink"
   xmlns:sodipodi="http://sodipodi.sourceforge.net/DTD/sodipodi-0.dtd"
   xmlns:inkscape="http://www.inkscape.org/namespaces/inkscape"
   width="48"
   height="48"
   id="svg5453"
   version="1.1"
   inkscape:version="0.91 r13725"
   sodipodi:docname="hwinfo.svg">
  <defs
     id="defs5455">
    <linearGradient
       gradientTransform="matrix(0.73846154,0,0,0.73846154,20.261779,-53.482597)"
       inkscape:collect="always"
       xlink:href="#linearGradient8467-5"
       id="linearGradient5107"
       gradientUnits="userSpaceOnUse"
       x1="-42"
       y1="-24"
       x2="-6"
       y2="-24" />
    <linearGradient
       id="linearGradient8467-5">
      <stop
         id="stop8469-7"
         style="stop-color:#d3d3d3;stop-opacity:1"
         offset="0" />
      <stop
         id="stop8471-0"
         style="stop-color:#fcf9f9;stop-opacity:1"
         offset="1" />
    </linearGradient>
    <linearGradient
       gradientTransform="matrix(0.92307692,0,0,0.92307692,-305.9372,-486.04452)"
       inkscape:collect="always"
       xlink:href="#linearGradient4760"
       id="linearGradient5105"
       gradientUnits="userSpaceOnUse"
       x1="410.57144"
       y1="547.79797"
       x2="408.57144"
       y2="499.79797" />
    <linearGradient
       inkscape:collect="always"
       id="linearGradient4760">
      <stop
         style="stop-color:#124da4;stop-opacity:1"
         offset="0"
         id="stop4762" />
      <stop
         style="stop-color:#2896ff;stop-opacity:1"
         offset="1"
         id="stop4764" />
    </linearGradient>
  </defs>
  <sodipodi:namedview
     id="base"
     pagecolor="#ffffff"
     bordercolor="#666666"
     borderopacity="1.0"
     inkscape:pageopacity="0"
     inkscape:pageshadow="2"
     inkscape:zoom="4"
     inkscape:cx="-39.601104"
     inkscape:cy="15.968792"
     inkscape:document-units="px"
     inkscape:current-layer="g4370"
     showgrid="true"
     fit-margin-top="0"
     fit-margin-left="0"
     fit-margin-right="0"
     fit-margin-bottom="0"
     inkscape:window-width="1366"
     inkscape:window-height="634"
     inkscape:window-x="0"
     inkscape:window-y="36"
     inkscape:window-maximized="1"
     inkscape:showpageshadow="false"
     borderlayer="true"
     showguides="false">
    <inkscape:grid
       type="xygrid"
       id="grid4063" />
    <sodipodi:guide
       position="1.1650391e-05,32.000026"
       orientation="32,0"
       id="guide4157" />
    <sodipodi:guide
       position="1.1650391e-05,2.6367188e-05"
       orientation="0,32"
       id="guide4159" />
    <sodipodi:guide
       position="32.000012,2.6367188e-05"
       orientation="-32,0"
       id="guide4161" />
    <sodipodi:guide
       position="32.000012,32.000026"
       orientation="0,-32"
       id="guide4163" />
    <sodipodi:guide
       position="2.0000117,30.000026"
       orientation="28,0"
       id="guide4167" />
    <sodipodi:guide
       position="2.0000117,2.0000264"
       orientation="0,28"
       id="guide4169" />
    <sodipodi:guide
       position="30.000012,2.0000264"
       orientation="-28,0"
       id="guide4171" />
    <sodipodi:guide
       position="30.000012,30.000026"
       orientation="0,-28"
       id="guide4173" />
    <sodipodi:guide
       position="2.0000117,30.000026"
       orientation="28,0"
       id="guide4181" />
    <sodipodi:guide
       position="2.0000117,2.0000264"
       orientation="0,14"
       id="guide4183" />
    <sodipodi:guide
       position="16.000012,2.0000264"
       orientation="-28,0"
       id="guide4185" />
    <sodipodi:guide
       position="16.000012,30.000026"
       orientation="0,-14"
       id="guide4187" />
    <sodipodi:guide
       position="9.0000117,23.000026"
       orientation="14,0"
       id="guide4193" />
    <sodipodi:guide
       position="9.0000117,9.0000264"
       orientation="0,14.000031"
       id="guide4195" />
    <sodipodi:guide
       position="23.000042,9.0000264"
       orientation="-14,0"
       id="guide4197" />
    <sodipodi:guide
       position="23.000042,23.000026"
       orientation="0,-14.000031"
       id="guide4199" />
  </sodipodi:namedview>
  <metadata
     id="metadata5458">
    <rdf:RDF>
      <cc:Work
         rdf:about="">
        <dc:format>image/svg+xml</dc:format>
        <dc:type
           rdf:resource="http://purl.org/dc/dcmitype/StillImage" />
        <dc:title></dc:title>
      </cc:Work>
    </rdf:RDF>
  </metadata>
  <g
     inkscape:label="Capa 1"
     inkscape:groupmode="layer"
     id="layer1"
     transform="translate(-384.57143,-499.798)">
    <g
       style="display:inline;enable-background:new"
       id="g4238"
       transform="translate(225.81911,462.44565)">
      <g
         style="display:inline"
         id="layer1-8"
         transform="matrix(0.22655187,0,0,0.22655187,106.94841,54.31088)">
        <g
           style="display:none"
           id="layer6" />
        <g
           id="g4027" />
        <g
           id="g4061" />
        <g
           id="g3751" />
        <g
           id="g3782" />
        <g
           id="g3725" />
        <g
           id="g4370"
           transform="matrix(4.4140002,0,0,4.4140002,59.275211,39.357303)">
          <g
             id="g4214"
             transform="translate(-8.8306731,0.6636976)">
            <rect
               ry="1.3846154"
               y="-26.538698"
               x="47.205673"
               height="48"
               width="48"
               id="rect5218-4"
               style="opacity:1;fill:url(#linearGradient5105);fill-opacity:1;fill-rule:evenodd;stroke:none;stroke-width:3;stroke-linecap:round;stroke-linejoin:miter;stroke-miterlimit:4;stroke-dasharray:none;stroke-dashoffset:0;stroke-opacity:1" />
            <rect
               style="fill:url(#linearGradient5107);fill-opacity:1"
               id="rect4203-4-3"
               ry="1.6615385"
               rx="1.3292308"
               transform="matrix(0,-1,-1,0,0,0)"
               height="26.584616"
               width="26.584616"
               y="-84.497986"
               x="-10.753606" />
            <path
               style="opacity:1;fill:#1e74d4;fill-opacity:1"
               inkscape:connector-curvature="0"
               id="path6-6"
               d="m 79.257253,-4.7717092 c -0.765004,-3.586956 -7.980698,-3.814401 -12.631407,-1.081303 l 0,0.301839 c 4.644927,-2.30645 11.235669,-2.291742 11.835822,1.012553 0.202098,1.094648 -0.434423,2.233095 -1.575736,2.888126 l 0,0.857242 c 1.373901,-0.484918 2.77824,-2.054429 2.371417,-3.978405 m -8.45805,6.280579 c -3.209577,0.285716 -6.553901,-0.164005 -7.022174,-2.58648 -0.232559,-1.192676 0.333477,-2.45866 1.080371,-3.244379 l 0,-0.420547 c -1.346378,1.139997 -2.077695,2.581969 -1.655438,4.284563 0.538513,2.18488 3.408688,3.421588 7.790523,3.00979 1.734949,-0.161124 4.005449,-0.700379 5.581042,-1.536944 l 0,-1.18854 c -1.432006,0.82495699 -3.800413,1.506493 -5.774085,1.682199 z" />
            <path
               style="opacity:1;fill:#1e74d4;fill-opacity:1"
               inkscape:connector-curvature="0"
               id="path8-8"
               d="m 76.939321,-5.3585312 -0.888043,0 0,3.732726 c 0,0.438402 0.222881,0.819684 0.888043,0.880162" />
            <path
               style="opacity:1;fill:#1e74d4;fill-opacity:1"
               inkscape:connector-curvature="0"
               id="path10-2"
               d="m 66.359748,-3.9944332 -0.88815,0 0,2.438058 c 0,0.438568 0.222881,0.819737 0.88815,0.880163" />
            <rect
               style="opacity:1;fill:#1e74d4;fill-opacity:1"
               id="rect12-7"
               y="-5.2450342"
               width="0.88815039"
               x="65.471329"
               height="0.79405409" />
            <path
               style="opacity:1;fill:#1e74d4;fill-opacity:1"
               inkscape:connector-curvature="0"
               id="path14-5"
               d="m 71.681685,-0.7152702 c -0.720112,0 -1.023664,-0.471946 -1.023664,-0.937711 l 0,-3.238027 0.878452,0 0,0.896841 0.665188,0 0,0.671499 -0.665188,0 0,1.619812 c 0,0.1905 0.09687,0.294971 0.306719,0.294971 l 0.358496,0 0,0.692652 -0.519955,0" />
            <path
               style="opacity:1;fill:#1e74d4;fill-opacity:1"
               inkscape:connector-curvature="0"
               id="path16-4"
               d="m 74.016864,-3.3635382 c -0.300272,0 -0.532735,0.146667 -0.629662,0.344824 -0.05811,0.119433 -0.07754,0.210215 -0.08712,0.356994 l 1.359633,0 c -0.01941,-0.358513 -0.190677,-0.701818 -0.642844,-0.701818 m -0.716791,1.267439 c 0,0.425017 0.284036,0.737944 0.781411,0.737944 0.390851,0 0.584599,-0.10284 0.810669,-0.312884 l 0.542589,0.491496 c -0.348798,0.323563 -0.713736,0.520227 -1.359634,0.520227 -0.842872,0 -1.650326,-0.43406 -1.650326,-1.698514 0,-1.081314 0.704037,-1.692281 1.630929,-1.692281 0.939805,0 1.479018,0.715352 1.479018,1.654608 l 0,0.299478 -2.234656,0" />
            <path
               style="opacity:1;fill:#1e74d4;fill-opacity:1"
               inkscape:connector-curvature="0"
               id="path18-7"
               d="m 68.752798,-3.3230412 c 0.258306,0 0.364916,0.119513 0.364916,0.3146 l 0,2.297332 0.881667,0 0,-2.300369 c 0,-0.467353 -0.264843,-0.98311 -1.036685,-0.98311 l -1.818203,0 0,3.283426 0.878452,0 0,-2.611927" />
            <path
               id="path4303-6-7"
               d="m 88.282593,17.676685 0,0.923077 -0.923077,0 0,-0.923077 0.923077,0 z m -0.923077,0.923077 0,0.923077 -0.923077,0 0,-0.923077 0.923077,0 z m -0.923077,0 -0.923077,0 0,-0.923077 0.923077,0 0,0.923077 z m -0.923077,0 0,0.923077 -0.923077,0 0,-0.923077 0.923077,0 z m -0.923077,0 -0.923077,0 0,-0.923077 0.923077,0 0,0.923077 z m -0.923077,0 0,0.923077 -0.923077,0 0,-0.923077 0.923077,0 z m -0.923077,0 -0.923077,0 0,-0.923077 0.923077,0 0,0.923077 z m -0.923077,0 0,0.923077 -0.923077,0 0,-0.923077 0.923077,0 z m -0.923077,0 -0.923077,0 0,-0.923077 0.923077,0 0,0.923077 z m -0.923077,0 0,0.923077 -0.923077,0 0,-0.923077 0.923077,0 z m -0.923077,0 -0.923076,0 0,-0.923077 0.923076,0 0,0.923077 z m -0.923076,0 0,0.923077 -0.923077,0 0,-0.923077 0.923077,0 z m -0.923077,0 -0.923077,0 0,-0.923077 0.923077,0 0,0.923077 z m -0.923077,0 0,0.923077 -0.923077,0 0,-0.923077 0.923077,0 z m -0.923077,0 -0.923077,0 0,-0.923077 0.923077,0 0,0.923077 z m -0.923077,0 0,0.923077 -0.923077,0 0,-0.923077 0.923077,0 z"
               style="color:#000000;font-style:normal;font-variant:normal;font-weight:normal;font-stretch:normal;font-size:medium;line-height:normal;font-family:Sans;-inkscape-font-specification:Sans;text-indent:0;text-align:start;text-decoration:none;text-decoration-line:none;letter-spacing:normal;word-spacing:normal;text-transform:none;direction:ltr;block-progression:tb;writing-mode:lr-tb;baseline-shift:baseline;text-anchor:start;display:inline;overflow:visible;visibility:visible;opacity:1;fill:#eae8e8;fill-opacity:1;stroke:none;stroke-width:1;marker:none;enable-background:accumulate"
               inkscape:connector-curvature="0" />
            <path
               id="path4317-9"
               d="m 91.9749,17.676685 -1.846154,1.846154 1.846154,0 0,-1.846154 z"
               style="fill:#eae8e8;fill-opacity:1;fill-rule:evenodd;stroke:none"
               inkscape:connector-curvature="0" />
            <path
               inkscape:connector-curvature="0"
               style="color:#000000;font-style:normal;font-variant:normal;font-weight:normal;font-stretch:normal;font-size:medium;line-height:normal;font-family:Sans;-inkscape-font-specification:Sans;text-indent:0;text-align:start;text-decoration:none;text-decoration-line:none;letter-spacing:normal;word-spacing:normal;text-transform:none;direction:ltr;block-progression:tb;writing-mode:lr-tb;baseline-shift:baseline;text-anchor:start;display:inline;overflow:visible;visibility:visible;opacity:1;fill:#eae8e8;fill-opacity:1;stroke:none;stroke-width:1;marker:none;enable-background:accumulate"
               d="m 51.359516,17.676685 0,0.923077 0.923077,0 0,-0.923077 -0.923077,0 z m 0.923077,0.923077 0,0.923077 0.923077,0 0,-0.923077 -0.923077,0 z m 0.923077,0 0.923077,0 0,-0.923077 -0.923077,0 0,0.923077 z m 0.923077,0 0,0.923077 0.923077,0 0,-0.923077 -0.923077,0 z m 0.923077,0 0.923077,0 0,-0.923077 -0.923077,0 0,0.923077 z m 0.923077,0 0,0.923077 0.923077,0 0,-0.923077 -0.923077,0 z m 0.923077,0 0.923076,0 0,-0.923077 -0.923076,0 0,0.923077 z m 0.923076,0 0,0.923077 0.923077,0 0,-0.923077 -0.923077,0 z m 0.923077,0 0.923077,0 0,-0.923077 -0.923077,0 0,0.923077 z m 0.923077,0 0,0.923077 0.923077,0 0,-0.923077 -0.923077,0 z m 0.923077,0 0.923077,0 0,-0.923077 -0.923077,0 0,0.923077 z m 0.923077,0 0,0.923077 0.923077,0 0,-0.923077 -0.923077,0 z m 0.923077,0 0.923077,0 0,-0.923077 -0.923077,0 0,0.923077 z m 0.923077,0 0,0.923077 0.923077,0 0,-0.923077 -0.923077,0 z m 0.923077,0 0.923077,0 0,-0.923077 -0.923077,0 0,0.923077 z m 0.923077,0 0,0.923077 0.923077,0 0,-0.923077 -0.923077,0 z"
               id="path4331-1" />
            <path
               inkscape:connector-curvature="0"
               style="color:#000000;font-style:normal;font-variant:normal;font-weight:normal;font-stretch:normal;font-size:medium;line-height:normal;font-family:Sans;-inkscape-font-specification:Sans;text-indent:0;text-align:start;text-decoration:none;text-decoration-line:none;letter-spacing:normal;word-spacing:normal;text-transform:none;direction:ltr;block-progression:tb;writing-mode:lr-tb;baseline-shift:baseline;text-anchor:start;display:inline;overflow:visible;visibility:visible;opacity:1;fill:#eae8e8;fill-opacity:1;stroke:none;stroke-width:1;marker:none;enable-background:accumulate"
               d="m 92.897977,-2.6310062 -0.923077,0 0,-0.923077 0.923077,0 0,0.923077 z m -0.923077,-0.923077 -0.923077,0 0,-0.923077 0.923077,0 0,0.923077 z m 0,-0.923077 0,-0.923077 0.923077,0 0,0.923077 -0.923077,0 z m 0,-0.923077 -0.923077,0 0,-0.923077 0.923077,0 0,0.923077 z m 0,-0.923077 0,-0.923077 0.923077,0 0,0.923077 -0.923077,0 z m 0,-0.923077 -0.923077,0 0,-0.923077 0.923077,0 0,0.923077 z m 0,-0.923077 0,-0.923077 0.923077,0 0,0.923077 -0.923077,0 z m 0,-0.923077 -0.923077,0 0,-0.9230768 0.923077,0 0,0.9230768 z m 0,-0.9230768 0,-0.923078 0.923077,0 0,0.923078 -0.923077,0 z m 0,-0.923078 -0.923077,0 0,-0.923076 0.923077,0 0,0.923076 z m 0,-0.923076 0,-0.923077 0.923077,0 0,0.923077 -0.923077,0 z m 0,-0.923077 -0.923077,0 0,-0.923077 0.923077,0 0,0.923077 z m 0,-0.923077 0,-0.923077 0.923077,0 0,0.923077 -0.923077,0 z m 0,-0.923077 -0.923077,0 0,-0.923077 0.923077,0 0,0.923077 z m 0,-0.923077 0,-0.923077 0.923077,0 0,0.923077 -0.923077,0 z m 0,-0.923077 -0.923077,0 0,-0.923077 0.923077,0 0,0.923077 z"
               id="path4333-3" />
            <path
               sodipodi:nodetypes="ccccccccccccccccccccccccccccccccccccccccccccc"
               inkscape:connector-curvature="0"
               id="path4339-4"
               d="m 91.051838,6.5997598 0,0.923077 0.923077,0 0,-0.923077 z m 0.923077,0.923077 0,0.923077 0.923076,0 0,-0.923077 z m 0,0.923077 -0.923077,0 0,0.9230766 0.923077,0 z m 0,0.9230766 0,0.9230766 0.923076,0 0,-0.9230766 z m 0,0.9230766 -0.923077,0 0,0.923077 0.923077,0 z m 0,0.923077 0,0.923077 0.923076,0 0,-0.923077 z m 0,0.923077 -0.923077,0 0,0.923077 0.923077,0 z m 0,0.923077 0,0.923077 0.923076,0 0,-0.923077 z m 0,0.923077 -0.923077,0 0,0.923077 0.923077,0 z"
               style="color:#000000;font-style:normal;font-variant:normal;font-weight:normal;font-stretch:normal;font-size:medium;line-height:normal;font-family:Sans;-inkscape-font-specification:Sans;text-indent:0;text-align:start;text-decoration:none;text-decoration-line:none;letter-spacing:normal;word-spacing:normal;text-transform:none;direction:ltr;block-progression:tb;writing-mode:lr-tb;baseline-shift:baseline;text-anchor:start;display:inline;overflow:visible;visibility:visible;opacity:1;fill:#eae8e8;fill-opacity:1;stroke:none;stroke-width:1;marker:none;enable-background:accumulate" />
          </g>
        </g>
      </g>
    </g>
  </g>
</svg>
