<?xml version="1.0" encoding="UTF-8" standalone="no"?>
<!-- Created with Inkscape (http://www.inkscape.org/) -->

<svg
   xmlns:dc="http://purl.org/dc/elements/1.1/"
   xmlns:cc="http://creativecommons.org/ns#"
   xmlns:rdf="http://www.w3.org/1999/02/22-rdf-syntax-ns#"
   xmlns:svg="http://www.w3.org/2000/svg"
   xmlns="http://www.w3.org/2000/svg"
   xmlns:xlink="http://www.w3.org/1999/xlink"
   xmlns:sodipodi="http://sodipodi.sourceforge.net/DTD/sodipodi-0.dtd"
   xmlns:inkscape="http://www.inkscape.org/namespaces/inkscape"
   width="48"
   height="48"
   id="svg5453"
   version="1.1"
   inkscape:version="0.91 r13725"
   sodipodi:docname="karbon.svg">
  <defs
     id="defs5455">
    <linearGradient
       gradientTransform="matrix(0.47780366,0,0,0.47780364,117.92211,-22.773103)"
       inkscape:collect="always"
       xlink:href="#linearGradient4310"
       id="linearGradient4738-6-8-3-0-2"
       x1="-123.9715"
       y1="73.496605"
       x2="-125.19291"
       y2="-26.047026"
       gradientUnits="userSpaceOnUse" />
    <linearGradient
       id="linearGradient4310"
       inkscape:collect="always">
      <stop
         id="stop4312"
         offset="0"
         style="stop-color:#95a9bb;stop-opacity:1" />
      <stop
         id="stop4314"
         offset="1"
         style="stop-color:#d1dae3;stop-opacity:1" />
    </linearGradient>
  </defs>
  <sodipodi:namedview
     id="base"
     pagecolor="#ffffff"
     bordercolor="#666666"
     borderopacity="1.0"
     inkscape:pageopacity="0"
     inkscape:pageshadow="2"
     inkscape:zoom="4"
     inkscape:cx="11.566807"
     inkscape:cy="15.968792"
     inkscape:document-units="px"
     inkscape:current-layer="layer1-8"
     showgrid="true"
     fit-margin-top="0"
     fit-margin-left="0"
     fit-margin-right="0"
     fit-margin-bottom="0"
     inkscape:window-width="1366"
     inkscape:window-height="634"
     inkscape:window-x="0"
     inkscape:window-y="36"
     inkscape:window-maximized="1"
     inkscape:showpageshadow="false"
     borderlayer="true"
     showguides="false">
    <inkscape:grid
       type="xygrid"
       id="grid4063" />
    <sodipodi:guide
       position="1.1650391e-05,32.000026"
       orientation="32,0"
       id="guide4157" />
    <sodipodi:guide
       position="1.1650391e-05,2.6367188e-05"
       orientation="0,32"
       id="guide4159" />
    <sodipodi:guide
       position="32.000012,2.6367188e-05"
       orientation="-32,0"
       id="guide4161" />
    <sodipodi:guide
       position="32.000012,32.000026"
       orientation="0,-32"
       id="guide4163" />
    <sodipodi:guide
       position="2.0000117,30.000026"
       orientation="28,0"
       id="guide4167" />
    <sodipodi:guide
       position="2.0000117,2.0000264"
       orientation="0,28"
       id="guide4169" />
    <sodipodi:guide
       position="30.000012,2.0000264"
       orientation="-28,0"
       id="guide4171" />
    <sodipodi:guide
       position="30.000012,30.000026"
       orientation="0,-28"
       id="guide4173" />
    <sodipodi:guide
       position="2.0000117,30.000026"
       orientation="28,0"
       id="guide4181" />
    <sodipodi:guide
       position="2.0000117,2.0000264"
       orientation="0,14"
       id="guide4183" />
    <sodipodi:guide
       position="16.000012,2.0000264"
       orientation="-28,0"
       id="guide4185" />
    <sodipodi:guide
       position="16.000012,30.000026"
       orientation="0,-14"
       id="guide4187" />
    <sodipodi:guide
       position="9.0000117,23.000026"
       orientation="14,0"
       id="guide4193" />
    <sodipodi:guide
       position="9.0000117,9.0000264"
       orientation="0,14.000031"
       id="guide4195" />
    <sodipodi:guide
       position="23.000042,9.0000264"
       orientation="-14,0"
       id="guide4197" />
    <sodipodi:guide
       position="23.000042,23.000026"
       orientation="0,-14.000031"
       id="guide4199" />
  </sodipodi:namedview>
  <metadata
     id="metadata5458">
    <rdf:RDF>
      <cc:Work
         rdf:about="">
        <dc:format>image/svg+xml</dc:format>
        <dc:type
           rdf:resource="http://purl.org/dc/dcmitype/StillImage" />
        <dc:title></dc:title>
      </cc:Work>
    </rdf:RDF>
  </metadata>
  <g
     inkscape:label="Capa 1"
     inkscape:groupmode="layer"
     id="layer1"
     transform="translate(-384.57143,-499.798)">
    <g
       style="display:inline;enable-background:new"
       id="g4238"
       transform="translate(225.81911,462.44565)">
      <g
         style="display:inline"
         id="layer1-8"
         transform="matrix(0.22655187,0,0,0.22655187,106.94841,54.31088)">
        <g
           style="display:none"
           id="layer6" />
        <g
           id="g4027" />
        <g
           id="g4061" />
        <g
           id="g3751" />
        <g
           id="g3782" />
        <g
           id="g3725" />
        <g
           id="g4370"
           transform="matrix(4.4140002,0,0,4.4140002,59.275211,39.357303)">
          <g
             id="g4188"
             transform="translate(5.0000001,9.9999994)">
            <rect
               ry="2.9819367"
               y="-35.875"
               x="34.177433"
               height="48"
               width="46.395134"
               id="rect4177-3-1-1-4-8"
               style="opacity:1;fill:url(#linearGradient4738-6-8-3-0-2);fill-opacity:1;fill-rule:evenodd;stroke:none;stroke-width:8;stroke-linecap:round;stroke-linejoin:round;stroke-miterlimit:4;stroke-dasharray:none;stroke-dashoffset:0;stroke-opacity:1" />
            <ellipse
               cy="-31.251942"
               cx="39.546856"
               id="path4181-0-7-1-5-7"
               style="opacity:1;fill:#5c5c5e;fill-opacity:1;fill-rule:evenodd;stroke:none;stroke-width:8;stroke-linecap:round;stroke-linejoin:round;stroke-miterlimit:4;stroke-dasharray:none;stroke-dashoffset:0;stroke-opacity:1"
               rx="1.6723129"
               ry="1.6723127" />
            <ellipse
               cy="-31.251728"
               cx="43.964134"
               id="path4181-5-8-3-7-3-0"
               style="opacity:1;fill:#5c5c5e;fill-opacity:1;fill-rule:evenodd;stroke:none;stroke-width:8;stroke-linecap:round;stroke-linejoin:round;stroke-miterlimit:4;stroke-dasharray:none;stroke-dashoffset:0;stroke-opacity:1"
               rx="1.6723129"
               ry="1.6723127" />
            <ellipse
               cy="-31.251728"
               cx="48.422997"
               id="path4181-50-9-0-7-6-2"
               style="opacity:1;fill:#5c5c5e;fill-opacity:1;fill-rule:evenodd;stroke:none;stroke-width:8;stroke-linecap:round;stroke-linejoin:round;stroke-miterlimit:4;stroke-dasharray:none;stroke-dashoffset:0;stroke-opacity:1"
               rx="1.6723129"
               ry="1.6723127" />
            <path
               d="m 45.857644,4.8563564 9.570808,0 0,1.237976 3.480302,0 0,-1.237976 9.612112,0 0,1.399423 3.480222,0 0,-3.466078 -1.284092,0 0,-9.6935196 1.242948,0 0,-3.4661568 -1.242948,0 0,-8.999049 1.284172,0 0,-3.466159 -3.480222,0 0,0.705032 -9.612113,0 0,-1.237896 -3.480301,0 0,1.237896 -9.570888,0 0,-0.866559 -3.480302,0 0,3.466159 1.242948,0 0,9.160576 -1.242948,0 0,3.4661568 1.242948,0 0,9.5319136 -1.242948,0 0,3.466237 3.480302,0 0,-1.237976 z m -0.994327,0 0,0.247611 -1.491569,0 0,-1.485507 0.248622,0 0.994406,0 0.248621,0 0,0.247611 0,0.990285 z m 11.559541,-26.9865074 0,-0.247611 1.491569,0 0,0.247611 0,0.517855 0,0.472431 0,0.247531 -1.491569,0 0,-0.247531 0,-0.472431 0,-0.517855 z m 1.491569,26.9865074 0,0.247611 -1.491569,0 0,-0.247611 0,-0.517855 0,-0.472351 0,-0.247611 1.491569,0 0,0.247611 0,0.472351 0,0.517855 z m 0.165615,-12.9361276 c 0.09664,0.09672 0.09664,0.253328 0,0.350054 -0.04904,0.04828 -0.112111,0.0725 -0.17622,0.0725 -0.06315,0 -0.127021,-0.02422 -0.175821,-0.0725 l -0.559278,-0.557085 -0.559359,0.557085 c -0.0488,0.04828 -0.11235,0.0725 -0.17598,0.0725 -0.06363,0 -0.127182,-0.02422 -0.176061,-0.0725 -0.0968,-0.09673 -0.0968,-0.253329 0,-0.350054 l 0.559359,-0.557086 -0.559359,-0.557085 c -0.0968,-0.09641 -0.0968,-0.253646 0,-0.350134 0.09688,-0.09649 0.254682,-0.09649 0.351563,0 l 0.559837,0.557086 0.559278,-0.557086 c 0.09712,-0.09649 0.254442,-0.09649 0.351563,0 0.09712,0.09649 0.09712,0.253647 0,0.350134 l -0.559359,0.557085 0.559837,0.557086 z m 12.9268,13.3451856 -1.49149,0 0,-0.409058 0,-0.990285 0,-0.08608 0.207318,0 0.994406,0 0.289845,0 0,1.485428 z m -2.485896,-2.475713 0,1.076449 -7.786523,0 c 4.339712,-1.225428 7.757897,-4.62964361 8.988247,-8.9521946 l 0,7.8757456 -1.201724,0 z m 2.444592,-10.6838046 -0.248542,0 -0.519968,0 -0.474358,0 -0.248542,0 0,-1.485507 0.248542,0 0.474358,0 0.519968,0 0.248542,0 0,1.485507 z m -1.450186,-13.9507148 1.201644,0 0.289846,0 0,1.485507 -0.289846,0 -0.994406,0 -0.207318,0 0,-0.780475 0,-0.705032 z m -0.994406,0.705032 0,1.770762 1.201644,0 0,7.181355 c -1.230349,-4.32279 -4.648535,-7.726608 -8.988247,-8.952196 l 7.786603,0 z m -25.149198,-0.866639 0.248622,0 1.242947,0 0,0.86656 0,0.618948 -0.248621,0 -0.994406,0 -0.248621,0 0,-1.485508 z m 2.485896,2.475874 0,-1.609235 7.745219,0 c -4.339951,1.225509 -7.757579,4.629327 -8.988167,8.951641 l 0,-7.342406 1.242948,0 z m -2.485896,10.1508608 0.248622,0 0.519968,0 0.474358,0 0.248621,0 0,1.485508 -0.248621,0 -0.474358,0 -0.519968,0 -0.248622,0 0,-1.485508 z m 1.242948,4.293646 c 1.230588,4.32255099 4.648216,7.7267666 8.988247,8.9521946 l -7.745299,0 0,-1.237976 -1.242948,0 0,-7.7142186 z"
               id="path7"
               inkscape:connector-curvature="0"
               style="font-style:normal;font-weight:normal;font-size:9.36996746px;line-height:125%;font-family:sans-serif;letter-spacing:0px;word-spacing:0px;fill:#000000;fill-opacity:0.58064515;stroke:none;stroke-width:1px;stroke-linecap:butt;stroke-linejoin:miter;stroke-opacity:1" />
          </g>
        </g>
      </g>
    </g>
  </g>
</svg>
