<?xml version="1.0" encoding="UTF-8" standalone="no"?>
<!-- Created with Inkscape (http://www.inkscape.org/) -->

<svg
   xmlns:ns2="http://ns.adobe.com/AdobeIllustrator/10.0/"
   xmlns:dc="http://purl.org/dc/elements/1.1/"
   xmlns:cc="http://creativecommons.org/ns#"
   xmlns:rdf="http://www.w3.org/1999/02/22-rdf-syntax-ns#"
   xmlns:svg="http://www.w3.org/2000/svg"
   xmlns="http://www.w3.org/2000/svg"
   xmlns:xlink="http://www.w3.org/1999/xlink"
   xmlns:sodipodi="http://sodipodi.sourceforge.net/DTD/sodipodi-0.dtd"
   xmlns:inkscape="http://www.inkscape.org/namespaces/inkscape"
   width="48"
   height="48"
   id="svg5453"
   version="1.1"
   inkscape:version="0.91 r13725"
   sodipodi:docname="kipi-debianscreenshots.svg">
  <defs
     id="defs5455">
    <linearGradient
       inkscape:collect="always"
       xlink:href="#linearGradient4581"
       id="linearGradient4181"
       gradientUnits="userSpaceOnUse"
       x1="399.9939"
       y1="545.13873"
       x2="399.9939"
       y2="518.13873" />
    <linearGradient
       inkscape:collect="always"
       id="linearGradient4581">
      <stop
         style="stop-color:#ec396c;stop-opacity:1"
         offset="0"
         id="stop4583" />
      <stop
         style="stop-color:#ff709a;stop-opacity:1"
         offset="1"
         id="stop4585" />
    </linearGradient>
  </defs>
  <sodipodi:namedview
     id="base"
     pagecolor="#ffffff"
     bordercolor="#666666"
     borderopacity="1.0"
     inkscape:pageopacity="0"
     inkscape:pageshadow="2"
     inkscape:zoom="4"
     inkscape:cx="3.0208706"
     inkscape:cy="15.968792"
     inkscape:document-units="px"
     inkscape:current-layer="g4182"
     showgrid="true"
     fit-margin-top="0"
     fit-margin-left="0"
     fit-margin-right="0"
     fit-margin-bottom="0"
     inkscape:window-width="1366"
     inkscape:window-height="634"
     inkscape:window-x="0"
     inkscape:window-y="36"
     inkscape:window-maximized="1"
     inkscape:showpageshadow="false"
     borderlayer="true"
     showguides="false">
    <inkscape:grid
       type="xygrid"
       id="grid4063" />
    <sodipodi:guide
       position="1.1650391e-05,32.000026"
       orientation="32,0"
       id="guide4157" />
    <sodipodi:guide
       position="1.1650391e-05,2.6367188e-05"
       orientation="0,32"
       id="guide4159" />
    <sodipodi:guide
       position="32.000012,2.6367188e-05"
       orientation="-32,0"
       id="guide4161" />
    <sodipodi:guide
       position="32.000012,32.000026"
       orientation="0,-32"
       id="guide4163" />
    <sodipodi:guide
       position="2.0000117,30.000026"
       orientation="28,0"
       id="guide4167" />
    <sodipodi:guide
       position="2.0000117,2.0000264"
       orientation="0,28"
       id="guide4169" />
    <sodipodi:guide
       position="30.000012,2.0000264"
       orientation="-28,0"
       id="guide4171" />
    <sodipodi:guide
       position="30.000012,30.000026"
       orientation="0,-28"
       id="guide4173" />
    <sodipodi:guide
       position="2.0000117,30.000026"
       orientation="28,0"
       id="guide4181" />
    <sodipodi:guide
       position="2.0000117,2.0000264"
       orientation="0,14"
       id="guide4183" />
    <sodipodi:guide
       position="16.000012,2.0000264"
       orientation="-28,0"
       id="guide4185" />
    <sodipodi:guide
       position="16.000012,30.000026"
       orientation="0,-14"
       id="guide4187" />
    <sodipodi:guide
       position="9.0000117,23.000026"
       orientation="14,0"
       id="guide4193" />
    <sodipodi:guide
       position="9.0000117,9.0000264"
       orientation="0,14.000031"
       id="guide4195" />
    <sodipodi:guide
       position="23.000042,9.0000264"
       orientation="-14,0"
       id="guide4197" />
    <sodipodi:guide
       position="23.000042,23.000026"
       orientation="0,-14.000031"
       id="guide4199" />
  </sodipodi:namedview>
  <metadata
     id="metadata5458">
    <rdf:RDF>
      <cc:Work
         rdf:about="">
        <dc:format>image/svg+xml</dc:format>
        <dc:type
           rdf:resource="http://purl.org/dc/dcmitype/StillImage" />
        <dc:title></dc:title>
      </cc:Work>
    </rdf:RDF>
  </metadata>
  <g
     inkscape:label="Capa 1"
     inkscape:groupmode="layer"
     id="layer1"
     transform="translate(-384.57143,-499.798)">
    <g
       style="display:inline;enable-background:new"
       id="g4238"
       transform="translate(225.81911,462.44565)">
      <g
         style="display:inline"
         id="layer1-8"
         transform="matrix(0.22655187,0,0,0.22655187,106.94841,54.31088)">
        <g
           style="display:none"
           id="layer6" />
        <g
           id="g4027" />
        <g
           id="g4061" />
        <g
           id="g3751" />
        <g
           id="g3782" />
        <g
           id="g3725" />
        <g
           id="g4370"
           transform="matrix(4.4140002,0,0,4.4140002,59.275211,39.357303)">
          <g
             id="g4182"
             transform="matrix(1.7142857,0,0,1.7142857,-30.839285,-12.375017)">
            <g
               transform="matrix(1.6770834,0,0,1.6770834,35.753027,-1741.5948)"
               style="fill:#ffffff;fill-opacity:0.8508065"
               id="g4213">
              <g
                 transform="matrix(0.21358354,0,0,0.21358354,-4.6923755,1026.1438)"
                 style="overflow:visible;fill:#ffffff;fill-opacity:0.85"
                 id="g4188">
                <circle
                   style="opacity:1;fill:url(#linearGradient4181);fill-opacity:1;stroke:none;stroke-width:0.94059104;stroke-miterlimit:4;stroke-dasharray:none;stroke-dashoffset:0;stroke-opacity:1"
                   id="path3377"
                   cx="400.57138"
                   cy="531.79791"
                   r="13.999958"
                   transform="matrix(2.791765,0,0,2.791765,-1044.3434,-1409.8604)" />
                <path
                   style="fill:#ffffff;fill-opacity:0.85"
                   inkscape:connector-curvature="0"
                   ns2:knockout="Off"
                   d="M 76.133,102.374 C 68.136,99.497 63.386,95.966 58.178,88.086 56.9,85.915 54.55,81.07 54.639,74.746 c -0.208,-6.305 2.978,-13.57 8.924,-17.447 5.742,-4.092 13.152,-4.153 17.56,-2.537 4.547,1.688 6.391,4.5 6.443,4.366 -0.139,0.035 2.436,2.201 3.584,6.916 1.279,4.532 -0.02,12.044 -6.271,15.12 -2.875,1.541 -6.609,1.82 -9.537,0.718 -2.928,-1.181 -5.053,-3.774 -5.761,-6.483 -1.543,-5.981 2.995,-9.296 4.997,-9.636 8.145,-2.716 12.27,10.03 2.744,11.114 4.342,1.45 8.818,-3.006 7.967,-7.545 -0.172,-4.54 -5.668,-9.046 -11.73,-7.199 -1.583,0.437 -3.98,1.548 -5.856,4.047 -1.924,2.484 -2.797,6.377 -1.797,10.161 0.975,3.805 3.94,7.447 8.07,9.084 4.172,1.539 8.817,1.099 12.653,-0.897 8.189,-4.051 9.828,-13.922 8.201,-19.353 -1.436,-5.837 -4.607,-8.51 -4.443,-8.551 -0.059,0.159 -2.34,-3.309 -7.977,-5.414 -5.512,-2.01 -14.106,-1.868 -20.987,2.957 -7.042,4.516 -10.857,13.39 -10.58,20.542 -0.095,7.263 2.612,12.822 4.089,15.293 5.954,9.08 12.776,11.918 21.201,12.372"
                   id="path4159" />
              </g>
            </g>
          </g>
        </g>
      </g>
    </g>
  </g>
</svg>
