<?xml version="1.0" encoding="UTF-8" standalone="no"?>
<!-- Created with Inkscape (http://www.inkscape.org/) -->

<svg
   xmlns:osb="http://www.openswatchbook.org/uri/2009/osb"
   xmlns:dc="http://purl.org/dc/elements/1.1/"
   xmlns:cc="http://creativecommons.org/ns#"
   xmlns:rdf="http://www.w3.org/1999/02/22-rdf-syntax-ns#"
   xmlns:svg="http://www.w3.org/2000/svg"
   xmlns="http://www.w3.org/2000/svg"
   xmlns:xlink="http://www.w3.org/1999/xlink"
   xmlns:sodipodi="http://sodipodi.sourceforge.net/DTD/sodipodi-0.dtd"
   xmlns:inkscape="http://www.inkscape.org/namespaces/inkscape"
   width="48"
   height="48"
   id="svg5453"
   version="1.1"
   inkscape:version="0.91 r13725"
   sodipodi:docname="kipi-imageshack.svg">
  <defs
     id="defs5455">
    <linearGradient
       osb:paint="gradient"
       id="linearGradient4207">
      <stop
         id="stop3371"
         offset="0"
         style="stop-color:#3498db;stop-opacity:1;" />
      <stop
         id="stop3373"
         offset="1"
         style="stop-color:#3498db;stop-opacity:0;" />
    </linearGradient>
    <linearGradient
       id="linearGradient4191"
       inkscape:collect="always">
      <stop
         id="stop4193"
         offset="0"
         style="stop-color:#2e3e46;stop-opacity:1" />
      <stop
         id="stop4195"
         offset="1"
         style="stop-color:#435a64;stop-opacity:1" />
    </linearGradient>
    <linearGradient
       id="linearGradient4232">
      <stop
         id="stop4234-0"
         offset="0"
         style="stop-color:#3889e9;stop-opacity:1" />
      <stop
         id="stop4236"
         offset="1"
         style="stop-color:#5ea5fb;stop-opacity:1" />
    </linearGradient>
    <linearGradient
       inkscape:collect="always"
       xlink:href="#linearGradient4232"
       id="linearGradient3426"
       x1="399.57144"
       y1="545.79797"
       x2="399.57144"
       y2="517.79797"
       gradientUnits="userSpaceOnUse" />
    <linearGradient
       inkscape:collect="always"
       xlink:href="#linearGradient4422-0"
       id="linearGradient4181"
       gradientUnits="userSpaceOnUse"
       x1="399.9939"
       y1="545.13873"
       x2="399.9939"
       y2="518.13873" />
    <linearGradient
       inkscape:collect="always"
       xlink:href="#linearGradient4191"
       id="linearGradient4255"
       x1="474.57144"
       y1="552.79797"
       x2="474.57144"
       y2="507.798"
       gradientUnits="userSpaceOnUse"
       gradientTransform="translate(-72.691579,-7.0909268)" />
    <linearGradient
       id="linearGradient4422-0">
      <stop
         style="stop-color:#ff9300;stop-opacity:1"
         offset="0"
         id="stop4424-9" />
      <stop
         style="stop-color:#ffd702;stop-opacity:1"
         offset="1"
         id="stop4426-2" />
    </linearGradient>
  </defs>
  <sodipodi:namedview
     id="base"
     pagecolor="#ffffff"
     bordercolor="#666666"
     borderopacity="1.0"
     inkscape:pageopacity="0"
     inkscape:pageshadow="2"
     inkscape:zoom="6.1060716"
     inkscape:cx="5.9201573"
     inkscape:cy="32.215634"
     inkscape:document-units="px"
     inkscape:current-layer="layer1"
     showgrid="true"
     fit-margin-top="0"
     fit-margin-left="0"
     fit-margin-right="0"
     fit-margin-bottom="0"
     inkscape:window-width="1366"
     inkscape:window-height="685"
     inkscape:window-x="0"
     inkscape:window-y="0"
     inkscape:window-maximized="1"
     inkscape:showpageshadow="false"
     borderlayer="true"
     inkscape:object-nodes="true">
    <inkscape:grid
       type="xygrid"
       id="grid3352" />
  </sodipodi:namedview>
  <metadata
     id="metadata5458">
    <rdf:RDF>
      <cc:Work
         rdf:about="">
        <dc:format>image/svg+xml</dc:format>
        <dc:type
           rdf:resource="http://purl.org/dc/dcmitype/StillImage" />
        <dc:title></dc:title>
      </cc:Work>
    </rdf:RDF>
  </metadata>
  <g
     inkscape:label="Capa 1"
     inkscape:groupmode="layer"
     id="layer1"
     transform="translate(-384.57143,-499.798)">
    <g
       id="g4374">
      <g
         inkscape:label="Capa 1"
         id="layer1-5">
        <g
           style="display:inline;enable-background:new"
           id="g4238"
           transform="translate(225.81911,462.44565)">
          <g
             style="display:inline"
             id="layer1-8"
             transform="matrix(0.22655187,0,0,0.22655187,106.94841,54.31088)">
            <g
               style="display:none"
               id="layer6" />
            <g
               id="g4027" />
            <g
               id="g4061" />
            <g
               id="g3751" />
            <g
               id="g3782" />
            <g
               id="g3725" />
            <g
               id="g4370"
               transform="matrix(4.4140002,0,0,4.4140002,59.275211,39.357303)">
              <g
                 id="g4182"
                 transform="matrix(1.7142857,0,0,1.7142857,-30.839285,-12.375017)">
                <g
                   inkscape:label="Capa 1"
                   id="layer1-1"
                   transform="translate(-346.19643,-525.67299)"
                   style="display:inline;enable-background:new">
                  <g
                     id="layer1-9"
                     inkscape:label="Capa 1"
                     transform="matrix(0.87499998,0,0,0.87499998,50.025937,66.450093)">
                    <g
                       transform="matrix(1.1428581,0,0,1.1428581,-57.327415,-75.995025)"
                       id="g4284">
                      <g
                         id="layer1-3"
                         inkscape:label="Capa 1"
                         transform="translate(0.13524268,0.04517549)"
                         style="stroke:none;stroke-width:1.29999995;stroke-miterlimit:4;stroke-dasharray:none;stroke-opacity:1">
                        <circle
                           r="13.999958"
                           cy="531.79791"
                           cx="400.57138"
                           id="path3377"
                           style="opacity:1;fill:url(#linearGradient4181);fill-opacity:1.0;stroke:none;stroke-width:1.29999995;stroke-miterlimit:4;stroke-dasharray:none;stroke-dashoffset:0;stroke-opacity:1" />
                        <circle
                           style="opacity:1;fill:#5ea5fb;fill-opacity:0;stroke:none;stroke-width:1.29999995;stroke-miterlimit:4;stroke-dasharray:none;stroke-dashoffset:0;stroke-opacity:1"
                           id="circle4174"
                           cx="400.57144"
                           cy="531.79797"
                           r="13.999958" />
                        <circle
                           style="opacity:1;fill:url(#linearGradient3426);fill-opacity:1;stroke:none;stroke-width:1.29999995;stroke-miterlimit:4;stroke-dasharray:none;stroke-dashoffset:0;stroke-opacity:1"
                           id="ellipse4233"
                           cx="400.57138"
                           cy="531.79791"
                           r="0" />
                      </g>
                    </g>
                  </g>
                </g>
              </g>
            </g>
          </g>
        </g>
      </g>
      <ellipse
         ry="4.3329363"
         rx="4.5"
         cy="517.18884"
         cx="412.78192"
         id="path4372"
         style="color:#000000;clip-rule:nonzero;display:inline;overflow:visible;visibility:visible;opacity:1;isolation:auto;mix-blend-mode:normal;color-interpolation:sRGB;color-interpolation-filters:linearRGB;solid-color:#000000;solid-opacity:1;fill:#ffffff;fill-opacity:0.85000002;fill-rule:evenodd;stroke:none;stroke-width:2;stroke-linecap:round;stroke-linejoin:round;stroke-miterlimit:4;stroke-dasharray:none;stroke-dashoffset:0;stroke-opacity:1;color-rendering:auto;image-rendering:auto;shape-rendering:auto;text-rendering:auto;enable-background:accumulate" />
      <path
         inkscape:connector-curvature="0"
         id="path4172"
         d="m 406.44827,547.74228 c -3.11043,-0.31882 -5.67193,-1.04545 -8.4269,-2.39047 -5.78253,-2.82313 -10.14497,-7.81541 -12.19977,-13.96114 -0.84619,-2.53086 -1.19727,-4.76836 -1.19279,-7.60184 0.006,-3.86681 0.70763,-6.97044 2.34636,-10.38057 4.99936,-10.40345 16.62539,-15.75621 27.80941,-12.80379 7.36656,1.94467 13.41057,7.34473 16.20799,14.48113 0.76249,1.94518 1.52152,5.23398 1.52152,6.59264 l 0,0.37491 -1.28236,-0.8199 c -3.0121,-1.92586 -5.37169,-3.04648 -7.87732,-3.74108 -0.70974,-0.19675 -1.30365,-0.27548 -2.40768,-0.31919 -0.80606,-0.0319 -1.54177,-0.0975 -1.63492,-0.1457 -0.10375,-0.0537 -0.25521,-0.43897 -0.39095,-0.99446 -0.2704,-1.10654 -0.58351,-1.80198 -1.14522,-2.54361 -1.13827,-1.5029 -2.87597,-2.35405 -4.78475,-2.34366 -1.25376,0.007 -2.1961,0.24667 -3.42637,0.8721 -0.56133,0.28536 -1.16225,0.51786 -1.33846,0.51786 -0.17588,0 -1.00402,-0.11776 -1.84032,-0.2617 -0.83629,-0.14394 -1.86341,-0.26171 -2.28249,-0.26171 -0.8244,0 -2.10769,0.284 -2.74976,0.60854 -0.87777,0.44367 -2.10106,0.76261 -3.70295,0.96545 -1.93104,0.24451 -2.61005,0.42679 -3.04822,0.8183 -0.29252,0.26136 -0.33225,0.37474 -0.43012,1.22745 -0.13993,1.21917 0.058,2.15721 0.75371,3.57295 1.39771,2.84406 3.80783,5.79346 8.96536,10.97145 1.31999,1.32522 3.04446,3.09643 3.83215,3.93601 1.2008,1.27989 1.54393,1.58208 2.12388,1.87047 1.13884,0.56631 1.58894,1.32349 1.45652,2.4502 -0.10988,0.93491 0.21938,1.46952 2.09791,3.40635 2.2669,2.33724 2.59823,2.84381 2.7176,4.15487 l 0.0584,0.64083 -0.9653,0.27248 c -2.2564,0.63693 -4.34187,0.91288 -6.71969,0.88914 -0.92292,-0.009 -1.84291,-0.0337 -2.04442,-0.0543 z m 5.01898,-25.45933 c -0.94199,-0.30144 -1.64296,-0.74244 -2.30489,-1.45005 -1.01558,-1.08566 -1.45791,-2.18973 -1.45791,-3.63904 0,-1.52388 0.54851,-2.80057 1.64315,-3.82455 1.09006,-1.0197 2.19208,-1.46189 3.64329,-1.46189 1.50263,0 2.77112,0.53756 3.80214,1.61126 1.61529,1.68216 1.95542,4.06756 0.88218,6.18691 -0.34512,0.68151 -1.50366,1.83379 -2.197,2.18513 -1.18787,0.60194 -2.84826,0.76431 -4.01096,0.39223 z m 0.4126,-1.57588 c 0.27007,-0.14454 0.4984,-0.7467 0.79631,-2.1 0.14575,-0.66211 0.37472,-1.41582 0.50881,-1.67491 0.13409,-0.25909 0.43969,-0.83868 0.67912,-1.28799 0.23943,-0.44931 0.43533,-0.94935 0.43533,-1.11121 0,-0.4483 -0.35937,-0.8202 -0.96689,-1.00062 -2.48244,-0.73721 -4.92122,1.24725 -4.76413,3.87661 0.0813,1.3602 0.81118,2.49056 1.98794,3.0786 0.65964,0.32962 1.00939,0.38763 1.32351,0.21952 z"
         style="fill:url(#linearGradient4255);fill-opacity:1" />
    </g>
  </g>
</svg>
