<?xml version="1.0" encoding="UTF-8" standalone="no"?>
<!-- Created with Inkscape (http://www.inkscape.org/) -->

<svg
   xmlns:dc="http://purl.org/dc/elements/1.1/"
   xmlns:cc="http://creativecommons.org/ns#"
   xmlns:rdf="http://www.w3.org/1999/02/22-rdf-syntax-ns#"
   xmlns:svg="http://www.w3.org/2000/svg"
   xmlns="http://www.w3.org/2000/svg"
   xmlns:xlink="http://www.w3.org/1999/xlink"
   xmlns:sodipodi="http://sodipodi.sourceforge.net/DTD/sodipodi-0.dtd"
   xmlns:inkscape="http://www.inkscape.org/namespaces/inkscape"
   width="48"
   height="48"
   id="svg5453"
   version="1.1"
   inkscape:version="0.91 r13725"
   sodipodi:docname="kmouth.svg">
  <defs
     id="defs5455">
    <linearGradient
       gradientTransform="translate(-398.69674,-516.92337)"
       y2="518.13873"
       x2="399.9939"
       y1="545.13873"
       x1="399.9939"
       gradientUnits="userSpaceOnUse"
       id="linearGradient4181"
       xlink:href="#linearGradient4325"
       inkscape:collect="always" />
    <linearGradient
       inkscape:collect="always"
       id="linearGradient4325">
      <stop
         style="stop-color:#4dc003;stop-opacity:1"
         offset="0"
         id="stop4327" />
      <stop
         style="stop-color:#89f907;stop-opacity:1"
         offset="1"
         id="stop4329" />
    </linearGradient>
  </defs>
  <sodipodi:namedview
     id="base"
     pagecolor="#ffffff"
     bordercolor="#666666"
     borderopacity="1.0"
     inkscape:pageopacity="0"
     inkscape:pageshadow="2"
     inkscape:zoom="4"
     inkscape:cx="-80.941894"
     inkscape:cy="15.968792"
     inkscape:document-units="px"
     inkscape:current-layer="g4182"
     showgrid="true"
     fit-margin-top="0"
     fit-margin-left="0"
     fit-margin-right="0"
     fit-margin-bottom="0"
     inkscape:window-width="1366"
     inkscape:window-height="634"
     inkscape:window-x="0"
     inkscape:window-y="36"
     inkscape:window-maximized="1"
     inkscape:showpageshadow="false"
     borderlayer="true"
     showguides="false">
    <inkscape:grid
       type="xygrid"
       id="grid4063" />
    <sodipodi:guide
       position="1.1650391e-05,32.000026"
       orientation="32,0"
       id="guide4157" />
    <sodipodi:guide
       position="1.1650391e-05,2.6367188e-05"
       orientation="0,32"
       id="guide4159" />
    <sodipodi:guide
       position="32.000012,2.6367188e-05"
       orientation="-32,0"
       id="guide4161" />
    <sodipodi:guide
       position="32.000012,32.000026"
       orientation="0,-32"
       id="guide4163" />
    <sodipodi:guide
       position="2.0000117,30.000026"
       orientation="28,0"
       id="guide4167" />
    <sodipodi:guide
       position="2.0000117,2.0000264"
       orientation="0,28"
       id="guide4169" />
    <sodipodi:guide
       position="30.000012,2.0000264"
       orientation="-28,0"
       id="guide4171" />
    <sodipodi:guide
       position="30.000012,30.000026"
       orientation="0,-28"
       id="guide4173" />
    <sodipodi:guide
       position="2.0000117,30.000026"
       orientation="28,0"
       id="guide4181" />
    <sodipodi:guide
       position="2.0000117,2.0000264"
       orientation="0,14"
       id="guide4183" />
    <sodipodi:guide
       position="16.000012,2.0000264"
       orientation="-28,0"
       id="guide4185" />
    <sodipodi:guide
       position="16.000012,30.000026"
       orientation="0,-14"
       id="guide4187" />
    <sodipodi:guide
       position="9.0000117,23.000026"
       orientation="14,0"
       id="guide4193" />
    <sodipodi:guide
       position="9.0000117,9.0000264"
       orientation="0,14.000031"
       id="guide4195" />
    <sodipodi:guide
       position="23.000042,9.0000264"
       orientation="-14,0"
       id="guide4197" />
    <sodipodi:guide
       position="23.000042,23.000026"
       orientation="0,-14.000031"
       id="guide4199" />
  </sodipodi:namedview>
  <metadata
     id="metadata5458">
    <rdf:RDF>
      <cc:Work
         rdf:about="">
        <dc:format>image/svg+xml</dc:format>
        <dc:type
           rdf:resource="http://purl.org/dc/dcmitype/StillImage" />
        <dc:title></dc:title>
      </cc:Work>
    </rdf:RDF>
  </metadata>
  <g
     inkscape:label="Capa 1"
     inkscape:groupmode="layer"
     id="layer1"
     transform="translate(-384.57143,-499.798)">
    <g
       style="display:inline;enable-background:new"
       id="g4238"
       transform="translate(225.81911,462.44565)">
      <g
         style="display:inline"
         id="layer1-8"
         transform="matrix(0.22655187,0,0,0.22655187,106.94841,54.31088)">
        <g
           style="display:none"
           id="layer6" />
        <g
           id="g4027" />
        <g
           id="g4061" />
        <g
           id="g3751" />
        <g
           id="g3782" />
        <g
           id="g3725" />
        <g
           id="g4370"
           transform="matrix(4.4140002,0,0,4.4140002,59.275211,39.357303)">
          <g
             id="g4182"
             transform="matrix(1.7142857,0,0,1.7142857,-30.839285,-12.375017)">
            <g
               id="g4189"
               transform="translate(52.500032,-8.7499684)">
              <circle
                 r="13.999969"
                 cy="14.874978"
                 cx="1.8749682"
                 id="path3377"
                 style="opacity:1;fill:url(#linearGradient4181);fill-opacity:1;stroke:none;stroke-width:1.29999995;stroke-miterlimit:4;stroke-dasharray:none;stroke-dashoffset:0;stroke-opacity:1" />
              <path
                 style="fill:#ffffff;fill-opacity:0.85"
                 inkscape:connector-curvature="0"
                 id="path4989-5"
                 d="m 1.9271917,17.567156 c 0.740419,0 1.374163,-0.263639 1.901337,-0.790709 0.527173,-0.527071 0.790812,-1.161022 0.790812,-1.90144 l 0,-4.307644 c 0,-0.7404184 -0.263432,-1.3741629 -0.790812,-1.9014402 -0.527174,-0.5271735 -1.160918,-0.7909154 -1.901337,-0.7909154 -0.740418,0 -1.37416299,0.2637419 -1.90143899,0.7909154 -0.527278,0.5271741 -0.790916,1.1610218 -0.790916,1.9014402 l 0,4.307644 c 0,0.740418 0.263741,1.374369 0.790916,1.90144 0.527173,0.52707 1.16102099,0.790709 1.90143899,0.790709 l 0,0 z" />
              <path
                 style="fill:#ffffff;fill-opacity:0.85"
                 inkscape:connector-curvature="0"
                 id="path4991-8"
                 d="m 6.6134107,13.419471 c -0.106365,-0.106571 -0.232762,-0.159857 -0.378574,-0.159857 -0.145812,0 -0.272004,0.05329 -0.378574,0.159857 -0.106571,0.10657 -0.159856,0.232762 -0.159856,0.378574 l 0,1.076962 c 0,1.037722 -0.368867,1.925191 -1.106394,2.662821 -0.737423,0.737631 -1.625099,1.106394 -2.662821,1.106394 -1.03772099,0 -1.92529399,-0.368763 -2.66292399,-1.106394 C -1.4732593,16.800405 -1.8420233,15.912729 -1.8420233,14.875007 l 0,-1.076962 c 0,-0.145812 -0.05329,-0.272004 -0.159856,-0.378574 -0.106571,-0.106571 -0.232658,-0.159857 -0.378574,-0.159857 -0.145915,0 -0.272106,0.05329 -0.378676,0.159857 -0.106571,0.10657 -0.159856,0.232762 -0.159856,0.378574 l 0,1.076962 c 0,1.239607 0.413684,2.317912 1.240949,3.234916 0.82726501,0.917004 1.84949701,1.442835 3.066695,1.577391 l 0,1.110731 -2.15382199,0 c -0.145812,0 -0.27200301,0.05329 -0.37857401,0.159856 -0.10657,0.106571 -0.159856,0.232762 -0.159856,0.378574 0,0.145708 0.05329,0.272106 0.159856,0.378573 0.106571,0.106571 0.23276201,0.159959 0.37857401,0.159959 l 5.38450399,0 c 0.145812,0 0.27221,-0.05339 0.378574,-0.159959 0.106674,-0.106467 0.160063,-0.232865 0.160063,-0.378573 0,-0.145812 -0.05339,-0.272003 -0.160063,-0.378574 -0.106364,-0.106571 -0.232762,-0.159856 -0.378574,-0.159856 l -2.153616,0 0,-1.110731 c 1.216992,-0.134556 2.239224,-0.660387 3.066592,-1.577391 0.827369,-0.917004 1.241156,-1.995309 1.241156,-3.234916 l 0,-1.076962 c 0,-0.145812 -0.05339,-0.2719 -0.160062,-0.378574 l 0,0 z" />
              <path
                 id="path5-9"
                 d="m 9.8973657,14.875559 c 0,0.961051 -0.408602,1.883095 -1.121468,2.52965 -0.13994,0.127262 -0.315474,0.190162 -0.491498,0.190162 -0.19894,0 -0.396902,-0.08094 -0.541231,-0.239896 -0.271591,-0.298902 -0.249163,-0.761627 0.0502,-1.032729 0.407625,-0.370574 0.641188,-0.897667 0.641188,-1.447187 0,-0.550982 -0.233068,-1.077586 -0.638749,-1.445721 -0.299384,-0.271102 -0.322301,-0.733838 -0.050708,-1.033218 0.271102,-0.299875 0.73335,-0.322302 1.032729,-0.05071 0.711399,0.644599 1.119518,1.566644 1.119518,2.529644 z M 10.635588,10.74757 c -0.284757,-0.286218 -0.7484613,-0.287197 -1.0341903,-0.0023 -0.286708,0.284752 -0.28768,0.747972 -0.0029,1.034679 0.8216003,0.825011 1.2740863,1.924541 1.2740863,3.095743 0,1.168279 -0.453465,2.266837 -1.2765253,3.094776 -0.284758,0.286219 -0.28378,0.749432 0.0029,1.034196 0.142373,0.141885 0.32913,0.213074 0.5158763,0.213074 0.187728,0 0.375935,-0.07168 0.518314,-0.215518 1.097574,-1.103914 1.702195,-2.569145 1.702195,-4.126528 0,-1.560305 -0.603638,-3.026509 -1.699756,-4.127989 z"
                 style="fill:#ffffff;fill-opacity:0.8508065;stroke-width:1.31742239;stroke-miterlimit:4;stroke-dasharray:none"
                 inkscape:connector-curvature="0"
                 sodipodi:nodetypes="scsccscccscccsccscscc" />
              <path
                 id="path5-9-8"
                 d="m -6.1473723,14.937805 c 0,0.961051 0.408603,1.883096 1.121469,2.529651 0.13994,0.127261 0.315474,0.190162 0.491497,0.190162 0.198941,0 0.396903,-0.08094 0.541232,-0.239896 0.271591,-0.298902 0.249163,-0.761628 -0.050202,-1.032729 -0.407625,-0.370575 -0.641187,-0.897668 -0.641187,-1.447188 0,-0.550981 0.233068,-1.077585 0.638749,-1.445721 0.299385,-0.271101 0.322302,-0.733838 0.05071,-1.033218 -0.271102,-0.299874 -0.73335,-0.322302 -1.03273,-0.05071 -0.711398,0.644599 -1.119518,1.566644 -1.119518,2.529645 z m -0.738221,-4.127988 c 0.284757,-0.286219 0.74846,-0.287197 1.03419,-0.0023 0.286708,0.284752 0.287679,0.747971 0.0029,1.034679 -0.8216,0.825011 -1.274086,1.924541 -1.274086,3.095743 0,1.16828 0.453464,2.266837 1.276525,3.094776 0.284758,0.286218 0.28378,0.749433 -0.0029,1.034196 -0.142373,0.141884 -0.32913,0.213074 -0.515876,0.213074 -0.187729,0 -0.375936,-0.07168 -0.518314,-0.215518 -1.097574,-1.103913 -1.702195,-2.569146 -1.702195,-4.126528 0,-1.560305 0.603637,-3.026509 1.699756,-4.127989 z"
                 style="fill:#ffffff;fill-opacity:0.8508065;stroke-width:1.31742239;stroke-miterlimit:4;stroke-dasharray:none"
                 inkscape:connector-curvature="0"
                 sodipodi:nodetypes="scsccscccscccsccscscc" />
            </g>
          </g>
        </g>
      </g>
    </g>
  </g>
</svg>
