<?xml version="1.0" encoding="UTF-8" standalone="no"?>
<!-- Created with Inkscape (http://www.inkscape.org/) -->

<svg
   xmlns:dc="http://purl.org/dc/elements/1.1/"
   xmlns:cc="http://creativecommons.org/ns#"
   xmlns:rdf="http://www.w3.org/1999/02/22-rdf-syntax-ns#"
   xmlns:svg="http://www.w3.org/2000/svg"
   xmlns="http://www.w3.org/2000/svg"
   xmlns:xlink="http://www.w3.org/1999/xlink"
   xmlns:sodipodi="http://sodipodi.sourceforge.net/DTD/sodipodi-0.dtd"
   xmlns:inkscape="http://www.inkscape.org/namespaces/inkscape"
   width="48"
   height="48"
   id="svg5453"
   version="1.1"
   inkscape:version="0.91 r13725"
   sodipodi:docname="konqueror.svg">
  <defs
     id="defs5455">
    <linearGradient
       inkscape:collect="always"
       xlink:href="#linearGradient4263"
       id="linearGradient4161-1"
       x1="16.000011"
       y1="29.999973"
       x2="16.000011"
       y2="1.999974"
       gradientUnits="userSpaceOnUse"
       gradientTransform="matrix(1.7872491,-0.13984582,0.13984582,1.7872491,31.671622,-38.127878)" />
    <linearGradient
       id="linearGradient4263"
       inkscape:collect="always">
      <stop
         id="stop4265"
         offset="0"
         style="stop-color:#0164c2;stop-opacity:1" />
      <stop
         id="stop4267"
         offset="1"
         style="stop-color:#00a9f3;stop-opacity:1" />
    </linearGradient>
    <linearGradient
       gradientTransform="matrix(0.1383708,0,0,0.1383708,107.56629,-78.059562)"
       inkscape:collect="always"
       xlink:href="#linearGradient4613"
       id="linearGradient4262"
       gradientUnits="userSpaceOnUse"
       x1="-324.94363"
       y1="649.7406"
       x2="-328.20999"
       y2="307.75275" />
    <linearGradient
       id="linearGradient4613"
       inkscape:collect="always">
      <stop
         id="stop4615"
         offset="0"
         style="stop-color:#197dec;stop-opacity:1" />
      <stop
         id="stop4617"
         offset="1"
         style="stop-color:#3fcffb;stop-opacity:1" />
    </linearGradient>
  </defs>
  <sodipodi:namedview
     id="base"
     pagecolor="#ffffff"
     bordercolor="#666666"
     borderopacity="1.0"
     inkscape:pageopacity="0"
     inkscape:pageshadow="2"
     inkscape:zoom="4"
     inkscape:cx="-39.601104"
     inkscape:cy="15.968792"
     inkscape:document-units="px"
     inkscape:current-layer="g4370"
     showgrid="true"
     fit-margin-top="0"
     fit-margin-left="0"
     fit-margin-right="0"
     fit-margin-bottom="0"
     inkscape:window-width="1366"
     inkscape:window-height="634"
     inkscape:window-x="0"
     inkscape:window-y="36"
     inkscape:window-maximized="1"
     inkscape:showpageshadow="false"
     borderlayer="true"
     showguides="false">
    <inkscape:grid
       type="xygrid"
       id="grid4063" />
    <sodipodi:guide
       position="1.1650391e-05,32.000026"
       orientation="32,0"
       id="guide4157" />
    <sodipodi:guide
       position="1.1650391e-05,2.6367188e-05"
       orientation="0,32"
       id="guide4159" />
    <sodipodi:guide
       position="32.000012,2.6367188e-05"
       orientation="-32,0"
       id="guide4161" />
    <sodipodi:guide
       position="32.000012,32.000026"
       orientation="0,-32"
       id="guide4163" />
    <sodipodi:guide
       position="2.0000117,30.000026"
       orientation="28,0"
       id="guide4167" />
    <sodipodi:guide
       position="2.0000117,2.0000264"
       orientation="0,28"
       id="guide4169" />
    <sodipodi:guide
       position="30.000012,2.0000264"
       orientation="-28,0"
       id="guide4171" />
    <sodipodi:guide
       position="30.000012,30.000026"
       orientation="0,-28"
       id="guide4173" />
    <sodipodi:guide
       position="2.0000117,30.000026"
       orientation="28,0"
       id="guide4181" />
    <sodipodi:guide
       position="2.0000117,2.0000264"
       orientation="0,14"
       id="guide4183" />
    <sodipodi:guide
       position="16.000012,2.0000264"
       orientation="-28,0"
       id="guide4185" />
    <sodipodi:guide
       position="16.000012,30.000026"
       orientation="0,-14"
       id="guide4187" />
    <sodipodi:guide
       position="9.0000117,23.000026"
       orientation="14,0"
       id="guide4193" />
    <sodipodi:guide
       position="9.0000117,9.0000264"
       orientation="0,14.000031"
       id="guide4195" />
    <sodipodi:guide
       position="23.000042,9.0000264"
       orientation="-14,0"
       id="guide4197" />
    <sodipodi:guide
       position="23.000042,23.000026"
       orientation="0,-14.000031"
       id="guide4199" />
  </sodipodi:namedview>
  <metadata
     id="metadata5458">
    <rdf:RDF>
      <cc:Work
         rdf:about="">
        <dc:format>image/svg+xml</dc:format>
        <dc:type
           rdf:resource="http://purl.org/dc/dcmitype/StillImage" />
        <dc:title></dc:title>
      </cc:Work>
    </rdf:RDF>
  </metadata>
  <g
     inkscape:label="Capa 1"
     inkscape:groupmode="layer"
     id="layer1"
     transform="translate(-384.57143,-499.798)">
    <g
       style="display:inline;enable-background:new"
       id="g4238"
       transform="translate(225.81911,462.44565)">
      <g
         style="display:inline"
         id="layer1-8"
         transform="matrix(0.22655187,0,0,0.22655187,106.94841,54.31088)">
        <g
           style="display:none"
           id="layer6" />
        <g
           id="g4027" />
        <g
           id="g4061" />
        <g
           id="g3751" />
        <g
           id="g3782" />
        <g
           id="g3725" />
        <g
           id="g4370"
           transform="matrix(4.4140002,0,0,4.4140002,59.275211,39.357303)">
          <g
             id="g4501"
             transform="translate(-0.09800325,9.9399999)">
            <circle
               style="opacity:1;fill:url(#linearGradient4262);fill-opacity:1;stroke:none;stroke-width:15.44461155;stroke-linecap:round;stroke-linejoin:round;stroke-miterlimit:4;stroke-dasharray:none;stroke-opacity:1"
               id="path4217"
               cx="62.473003"
               cy="-11.815001"
               r="24.000002" />
            <path
               id="path34-7"
               d="m 60.686788,-35.591412 c -3.005327,0.235156 -5.821009,1.03229 -8.385765,2.245776 -0.178482,0.191774 -0.417673,0.346957 -0.616769,0.345586 -0.02699,-2.85e-4 -0.05567,-0.01602 -0.08386,-0.02388 -1.260416,0.647152 -2.444255,1.411881 -3.55715,2.261269 0.17173,0.235284 0.238469,0.507011 -0.06505,0.665286 -0.05087,0.02699 -0.708495,0.145456 -0.940483,0.157854 -3.143637,2.682712 -5.562536,6.149381 -6.973986,10.085773 0.027,-0.0057 0.04969,-0.02067 0.07765,-0.02477 0.259115,-0.02387 0.638314,0.02137 0.891542,0.05431 0.23361,0.02931 0.431093,0.168926 0.631222,0.168333 0.567966,-0.0013 0.669424,-0.451004 1.110861,-0.733068 0.481204,0.03007 0.785465,-0.142488 1.219065,-0.12811 0.295539,0.0095 0.53168,0.305984 0.761364,0.305644 0.193612,0.0045 0.346909,-0.20795 0.534988,-0.194042 0.182734,0.01363 0.524839,0.383077 0.571472,0.601443 0.05866,0.27176 -0.161209,0.537829 -0.05888,0.833357 0.310631,0.270528 0.838069,0.288986 1.262393,0.425634 0.250484,-0.241566 -0.01391,-0.632772 -0.07428,-0.94936 -0.01457,-0.140253 -0.0013,-0.267548 -0.03095,-0.395567 -0.04223,-0.217968 -0.152218,-0.41209 -0.168697,-0.600176 -0.0716,-0.869068 0.601459,-1.331097 1.157721,-1.720015 0.240691,-0.169409 0.418931,-0.446999 0.629357,-0.573657 0.297176,-0.179318 0.524727,-0.233406 0.769575,-0.397338 0.442466,-0.29618 0.823089,-0.535907 1.161891,-0.858796 0.136459,-0.407277 -0.05564,-0.924065 -0.07243,-1.314723 0.159407,-0.115678 0.31463,0.01985 0.491004,-0.008 0.274763,-0.07987 0.267086,-0.475944 0.413021,-0.645693 0.08515,-0.0974 0.331988,-0.181718 0.439282,-0.280192 0.261205,-0.240128 0.326004,-0.576998 0.561716,-0.690099 0.08445,-0.04209 0.2864,-0.04818 0.420903,-0.0961 0.177161,-0.06205 0.417825,-0.296302 0.704558,-0.420348 0.186837,-0.08222 0.625478,-0.129491 0.69303,-0.208745 0.08297,-0.09927 -0.02863,-0.350584 -0.008,-0.491005 0.09412,-0.701242 1.121575,-0.928723 1.717433,-1.208965 0.417639,-0.196811 0.835929,-0.529899 1.31599,-0.475214 -0.06692,0.334999 -0.516526,0.253357 -0.410697,0.645511 0.146152,0.544285 0.830325,-0.224211 1.019029,-0.320868 0.360478,-0.186272 0.992042,-0.332193 1.467189,-0.547888 0.416524,-0.190682 1.166686,-0.489757 0.724102,-0.948625 -0.338601,0.0068 -0.46868,0.434686 -0.752687,0.583307 -0.200341,0.04828 -0.177542,-0.156989 -0.351959,-0.159751 -0.166163,-0.0067 -0.244842,0.171975 -0.416166,0.156649 -0.170178,-0.01461 -0.427025,-0.260474 -0.468709,-0.454966 -0.107099,-0.50474 0.374629,-0.753972 0.556095,-1.150866 -0.175783,-0.450389 -0.785158,-0.03314 -1.184919,-0.183538 0.01556,-0.277544 0.285083,-0.489195 0.601795,-0.566813 0.259519,-0.06514 0.851547,-0.08857 1.019154,0.03964 0.09647,0.07012 0.02588,0.269422 0.184712,0.385873 0.166602,0.128382 0.356956,0.09891 0.556414,0.05008 0.04567,-0.353808 -0.473052,-0.225383 -0.433984,-0.46002 0.391564,-0.302253 1.080244,-0.13307 1.579614,-0.247683 0.287502,-0.06565 0.576795,-0.29486 0.823185,-0.460064 0.234205,-0.158856 0.533765,-0.426126 0.811703,-0.218019 0.08993,0.243997 -0.200484,0.349776 -0.329634,0.484649 -0.434927,0.452423 -0.879189,0.966479 -1.204752,1.477875 0.239952,0.19998 0.636533,0.05927 1.017227,0.07491 0.148996,0.008 0.337673,0.03723 0.49574,0.05255 0.184623,0.01816 0.378095,-0.0061 0.523633,0.01992 0.261541,0.04282 0.351713,0.311939 0.605794,0.292058 0.417907,-0.03346 0.387499,-0.485953 0.128616,-0.749861 0.05226,-0.2942 0.157724,-0.452919 0.04071,-0.646995 -0.217721,-0.361835 -0.880479,0.04936 -0.952696,-0.417083 -0.04647,-0.302836 0.232098,-0.310944 0.324717,-0.547482 -0.09621,-0.584655 0.433372,-0.669005 0.335145,-1.192108 -0.04228,-0.218706 -0.228316,-0.207218 -0.399002,-0.401889 -0.08528,-0.09569 -0.140904,-0.28726 -0.237123,-0.367725 -0.7179,-0.0078 -1.441989,0.0099 -2.172008,0.06699 z m -11.919057,5.769388 0.0024,-1.86e-4 c 0.143873,0.0095 0.327562,0.14851 0.500879,0.148097 0.163401,-0.0092 0.290502,-0.113109 0.39299,-0.09392 0.260719,0.04732 0.398643,0.424716 0.17357,0.632578 -0.197798,0.04065 -0.284364,-0.06489 -0.432875,-0.02702 -0.40943,0.102877 -0.505011,0.928102 -0.817214,0.925478 -0.294407,-0.0021 -0.50841,-0.701996 -0.227881,-0.937355 0.005,-0.186714 -0.151952,-0.204336 -0.156787,-0.388059 0.07899,-0.119454 0.320397,-0.260162 0.564979,-0.259594 z m -1.367721,0.203031 c 0.08525,-0.0043 0.150818,0.01169 0.186227,0.04632 -0.01491,0.328783 -0.271553,0.327397 -0.511125,0.498851 -0.413857,0.296147 -0.633729,0.715248 -0.728132,1.286063 -0.02726,0.166277 -0.421544,0.631293 -0.631637,0.604269 -0.492453,-0.06431 0.05579,-1.005602 0.155839,-1.149981 0.110438,-0.160008 0.264309,-0.304775 0.394777,-0.489747 0.126538,-0.179128 0.199776,-0.413346 0.327084,-0.517234 0.139492,-0.113759 0.551001,-0.268341 0.806969,-0.278517 z m 3.701907,0.815344 c 0.155361,-0.0098 0.296862,0.0049 0.365441,0.06274 -0.06815,0.411257 -0.945676,0.372748 -1.27493,0.25194 0.0086,-0.153741 0.243236,-0.214246 0.441649,-0.249944 0.140277,-0.01457 0.312582,-0.05718 0.467847,-0.06466 z m -1.919587,0.89936 c 0.102747,-0.01044 0.209565,0.0037 0.320283,0.02408 -0.26277,0.257199 -0.556403,0.414232 -1.02726,0.604791 -0.226424,0.09131 -0.62024,0.213742 -0.67993,-0.04281 -0.07276,-0.314012 0.320412,-0.270387 0.530166,-0.3154 0.263978,-0.05793 0.544859,-0.23624 0.856737,-0.270712 z m 30.484123,-0.563881 c -0.02921,0.08931 -0.04896,0.177048 -0.03811,0.260513 0.03107,0.145902 0.202966,0.275104 0.254632,0.471704 0.0278,0.104026 -0.02354,0.337969 0.03368,0.430475 0.169421,0.273785 0.538327,0.03843 0.8149,0.03225 -0.346531,-0.406295 -0.692743,-0.813382 -1.065064,-1.194908 z m 1.725747,1.978998 c -0.02713,0.213914 -0.148925,0.499662 -0.250791,0.684505 -0.234601,0.425864 -0.59482,0.47306 -0.959788,0.71891 -0.304336,0.205457 -0.417842,0.517431 -0.579959,0.846045 -0.175729,0.355007 -0.285052,0.569706 -0.163303,1.054577 -0.230617,0.56287 -0.618001,0.926971 -1.163372,1.228817 -0.161402,0.0885 -0.38759,0.134131 -0.532383,0.257044 -0.115352,0.09737 -0.166355,0.338787 -0.324718,0.54747 -0.195611,0.255192 -0.412321,0.373388 -0.510698,0.564372 -0.07621,0.14738 -0.08514,0.429967 -0.166361,0.626392 -0.110282,0.266784 -0.378261,0.41421 -0.529143,0.687563 -0.06851,0.126317 -0.101607,0.373972 -0.175615,0.538153 -0.16598,0.366866 -0.476827,0.646131 -0.417096,0.952688 0.05866,0.296188 0.402224,0.322046 0.445788,0.580843 0.0151,0.147033 -0.07876,0.244947 -0.05965,0.404994 0.02192,0.234133 0.194187,0.38626 0.226827,0.565194 0.08088,0.450011 -0.104629,0.646638 -0.165745,0.963466 -0.0288,0.151247 0.0014,0.316588 -0.0291,0.435376 -0.05705,0.232927 -0.357848,0.462608 -0.343099,0.731535 0.01254,0.190947 0.2226,0.328862 0.259637,0.595398 0.01802,0.184321 -0.06079,0.388818 -0.01499,0.556018 0.09094,0.327357 0.714654,0.667493 0.993257,0.90555 0.372658,0.318582 0.846045,0.550699 1.023506,0.903183 0.149696,0.299433 0.180014,0.701919 0.439239,0.916128 0.19167,0.15816 0.496332,0.2422614 0.738592,0.4034154 0.22596,0.150442 0.469238,0.276516 0.710698,0.436018 0.394584,0.261789 1.002159,0.797658 1.591066,0.706605 0.307578,-0.04684 0.604858,-0.324086 0.950885,-0.413863 0.355933,-0.09294 0.821802,-0.162952 1.188949,-0.153922 0.281129,0.0059 0.581546,0.150512 0.870492,0.11449 0.304651,-0.0435 0.638032,-0.297338 0.974077,-0.476545 0.2704,-0.143744 0.603365,-0.305641 0.972707,-0.4343054 0.08195,-1.175772 0.08115,-2.373681 -0.01367,-3.585534 -0.381756,-4.878861 -2.194487,-9.286804 -4.986206,-12.860606 z m -38.781488,11.090325 c -0.505312,0.06747 -0.83606,0.116601 -1.114328,0.269795 -0.637524,0.352544 -0.439856,1.235817 -1.083725,1.498839 -0.222715,0.09078 -0.536025,0.118896 -0.78381,0.185403 -0.213926,0.05665 -0.469018,0.195976 -0.69303,0.208746 -0.06261,0.004 -0.153774,-0.03567 -0.233676,-0.05435 -0.02608,0.423499 -0.04143,0.85081 -0.04505,1.279433 0.637709,0.07124 1.027094,0.878569 1.603955,1.110609 0.158038,0.06351 0.35716,0.05188 0.556461,0.08054 0.160877,0.02289 0.286145,0.08045 0.442492,0.119895 0.331694,0.08444 0.726406,0.04025 0.993853,0.135271 0.402979,0.142357 0.745754,0.8518824 1.095988,1.0215974 0.03499,0.195891 -0.0022,0.465452 0.07796,0.607275 0.17494,0.202165 0.394656,0.137399 0.666248,0.256894 0.324965,0.143811 0.454366,0.570679 0.760258,0.68031 0.105642,0.03728 0.360804,0.01144 0.525803,0.0478 0.414536,0.09091 0.583395,0.549004 0.92245,0.41945 0.222411,-0.08501 0.186201,-0.317685 0.206046,-0.538184 0.137669,-0.174904 0.281642,-0.44587 0.515827,-0.468797 0.378051,-0.04924 0.444057,0.359887 0.611006,0.717748 0.0941,0.202234 0.312349,0.367843 0.382773,0.583425 0.124417,0.372204 0.16615,1.512192 0.103846,1.745375 -0.07365,0.285816 -0.441666,0.433399 -0.649881,0.760203 -0.0984,0.153288 -0.133865,0.369351 -0.208456,0.477517 -0.135387,0.193796 -0.354057,0.258912 -0.452857,0.435761 -0.05561,0.09964 -0.101096,0.307586 -0.152831,0.440382 -0.153066,0.403074 -0.37691,0.697718 -0.186075,1.152347 0.07972,0.187033 0.389666,0.292224 0.408105,0.518238 0.02165,0.265918 -0.526316,0.548429 -0.547375,0.84349598 -0.01543,0.219482 0.222777,0.590478 0.313693,0.867421 0.06709,0.2094176 0.48074,0.3112166 0.617617,0.4433016 0.233283,0.223983 0.431336,0.551637 0.650904,0.83869902 0.43391,0.564465 0.794192,1.266099 1.21643,1.812838 0.222944,0.286235 0.524018,0.53573 0.681335,0.838655 0.08016,0.152813 0.08561,0.341978 0.159229,0.479169 0.256898,0.475687 1.261277,0.914749 1.777964,1.120416 0.241769,0.09483 0.503345,0.115433 0.726349,0.21707 0.337879,0.155219 1.017168,0.589955 1.202813,0.861069 0.165527,0.243788 0.304899,0.857825 0.407465,1.258074 0.136672,0.528832 0.07525,0.947893 0.14988,1.526386 0.04411,0.312514 0.169291,0.620483 0.19725,0.935063 0.0098,0.110108 -0.04285,0.196828 -0.03893,0.309735 0.0013,0.0186 0.0078,0.03894 0.0093,0.05777 3.106998,1.123188 6.492652,1.636439 10.011789,1.361079 0.635806,-0.04975 1.261547,-0.131914 1.880716,-0.229147 0.02349,-0.04906 0.04494,-0.09965 0.07521,-0.146355 0.128616,-0.199451 0.243107,-0.374292 0.32473,-0.547471 0.04654,-0.56484 -0.296584,-0.930024 -0.203119,-1.428582 0.102931,-0.559879 0.835035,-0.954165 1.347187,-1.2432 0.176192,-0.09925 0.35255,-0.25183 0.497413,-0.315175 0.357829,-0.156782 0.822497,-0.123571 1.149234,-0.272526 0.555988,-0.254252 0.567752,-0.872911 0.809228,-1.416493 0.113703,-0.257378 0.270295,-0.518424 0.282635,-0.696359 0.01026,-0.1599 -0.08191,-0.302328 -0.07112,-0.49075 0.01331,-0.186773 0.166199,-0.359164 0.201538,-0.565928 0.04649,-0.269871 0.04439,-0.659749 0.02133,-0.954516 -0.01893,-0.241929 -0.14872,-0.445362 -0.175947,-0.662813 -0.101675,-0.789294 0.217258,-0.903489 0.476707,-1.357691 0.130406,-0.225746 0.166279,-0.474253 0.256937,-0.635818 0.434729,-0.77284302 1.261015,-1.19419162 1.112386,-2.2994086 -0.04923,-0.365717 -0.34469,-1.177786 -0.624089,-1.273895 -0.159918,-0.05521 -0.509611,0.03628 -0.740077,-0.03343 -0.743161,-0.212866 -1.237012,-1.074785 -1.989659,-1.073405 -0.161338,-0.007 -0.301375,0.08951 -0.481413,0.100838 -0.297689,0.0036 -0.758723,-0.14933 -1.089472,-0.160573 -0.210081,-0.0063 -0.482053,0.100169 -0.611978,0.04789 -0.19799,-0.07776 -0.244924,-0.427886 -0.408288,-0.520561 -0.129588,-0.07508 -0.371443,-0.08553 -0.5637,-0.143182 -0.309896,-0.09202 -0.558992,-0.208182 -0.908023,-0.205204 -0.107502,0.0048 -0.236568,0.07029 -0.362774,0.06111 -0.194631,-0.01737 -0.364308,-0.232861 -0.549987,-0.326859 -0.232547,-0.117743 -0.442803,-0.167074 -0.549667,-0.352642 0.149125,-0.673722 -0.419601,-0.813742 -0.584236,-1.183375 -0.07863,-0.173094 -0.0655,-0.389819 -0.133932,-0.544366 -0.09751,-0.22142 -0.332846,-0.335386 -0.594437,-0.505995 -0.468689,-0.305639 -0.885786,-0.594422 -1.52365,-0.622915 -0.280514,-0.01353 -0.546809,0.126452 -0.88395,0.132335 -0.357381,0.0052 -0.828136,-0.270801 -1.117931,-0.553998 -0.281796,-0.27656 -0.428422,-0.533082 -0.664798,-0.657334 -0.22413,-0.120488 -0.506937,-0.09439 -0.663529,-0.221998 -0.06966,-0.05532 -0.0666,-0.160216 -0.147351,-0.297496 -0.124729,-0.213813 -0.314467,-0.323232 -0.201462,-0.5999494 -0.253207,-0.106046 -0.231995,0.2519024 -0.501997,0.2265694 -0.263836,-0.3184794 -0.476908,-0.4624754 -1.00842,-0.3214334 -0.243381,0.06471 -0.35676,0.3876674 -0.64389,0.4179374 -0.234432,0.038 -0.441882,-0.2299074 -0.756994,-0.2497934 -0.237758,-0.014 -0.497698,0.1031914 -0.667596,0.08496 -0.264824,-0.03178 -0.36228,-0.242489 -0.612713,-0.38048 -0.183628,-0.101183 -0.538278,-0.270048 -0.635999,-0.259261 -0.305533,0.04356 -0.474843,0.693694 -0.915872,0.502424 -0.226188,-0.244675 0.304067,-0.424442 0.04053,-0.649318 -0.199649,-0.170673 -0.334057,0.110404 -0.474071,0.224384 -0.160465,0.130504 -0.310849,0.258864 -0.492905,0.342919 -0.407351,0.189952 -0.676045,0.128173 -0.99074,0.32333 -0.291358,0.181056 -0.28368,0.445238 -0.431296,0.771208 -0.120524,0.267021 -0.411869,0.665165 -0.622031,0.697156 -0.254502,0.039559 -0.528746,-0.3188 -0.768835,-0.401049 -0.723327,-0.248304 -1.017488,0.350379 -1.597834,0.403616 -0.537634,0.061726 -1.377321,-0.76817 -1.389892,-1.27719 -0.02063,-0.309581 0.116955,-0.792413 0.123211,-1.177862 0.0086,-0.306857 0.202655,-0.506611 0.184423,-0.784663 -0.02546,-0.371341 -0.543581,-0.617853 -0.787764,-0.643037 -0.578994,-0.0603 -1.345283,0.336304 -2.019948,0.12533 -0.141293,-0.197246 0.118883,-0.361527 0.173248,-0.568401 0.0307,-0.117713 -0.0042,-0.268623 0.02737,-0.397794 0.05733,-0.200238 0.249387,-0.366956 0.324492,-0.580236 0.05572,-0.16263 0.05512,-0.390867 0.108244,-0.591399 0.06231,-0.228473 0.198545,-0.383127 0.203528,-0.540337 0.0065,-0.207567 -0.08988,-0.439371 -0.261734,-0.562462 z m 8.67331,5.8273204 c 0.208599,0.0033 0.26799,0.429018 0.05866,0.480027 -0.225662,0.05326 -0.372574,-0.331307 -0.159367,-0.451074 0.03564,-0.02245 0.07177,-0.02647 0.100883,-0.02659 l -1.86e-4,-0.0024 z"
               style="fill:url(#linearGradient4161-1);fill-opacity:1;fill-rule:nonzero;stroke:none"
               inkscape:connector-curvature="0" />
            <path
               style="fill:#ffffff;fill-opacity:1;stroke:#ffffff;stroke-width:0.18500002;stroke-miterlimit:4;stroke-dasharray:none;stroke-opacity:1"
               inkscape:connector-curvature="0"
               id="path11"
               d="m 71.877453,-27.853062 c 0.06962,0.04031 0.1458,0.05948 0.220959,0.05948 0.153043,0 0.301911,-0.07942 0.383802,-0.22147 l 0.988819,-1.712454 c 0.122367,-0.211756 0.04985,-0.482565 -0.162076,-0.604846 -0.211586,-0.122367 -0.482565,-0.04968 -0.604847,0.162076 l -0.988819,1.712454 c -0.122111,0.211585 -0.04959,0.482394 0.162162,0.604761 z" />
            <path
               style="fill:#ffffff;fill-opacity:1;stroke:#ffffff;stroke-width:0.18500002;stroke-miterlimit:4;stroke-dasharray:none;stroke-opacity:1"
               inkscape:connector-curvature="0"
               id="path13"
               d="m 79.083119,-20.809728 c 0.07516,0 0.151169,-0.01917 0.220959,-0.05948 l 1.712283,-0.988649 c 0.211756,-0.122196 0.284273,-0.393005 0.162076,-0.604846 -0.122196,-0.211756 -0.393005,-0.284444 -0.604846,-0.162077 l -1.712283,0.988649 c -0.211756,0.122196 -0.284273,0.393005 -0.162077,0.604846 0.08198,0.142052 0.230844,0.221556 0.383888,0.221556 z" />
            <path
               style="fill:#ffffff;fill-opacity:1;stroke:#ffffff;stroke-width:0.18500002;stroke-miterlimit:4;stroke-dasharray:none;stroke-opacity:1"
               inkscape:connector-curvature="0"
               id="path15"
               d="m 83.616144,-12.155685 -1.977297,0 c -0.244564,0 -0.442856,0.198292 -0.442856,0.442855 0,0.244563 0.198292,0.442855 0.442856,0.442855 l 1.977297,0 c 0.244563,0 0.442855,-0.198292 0.442855,-0.442855 0,-0.244563 -0.198292,-0.442855 -0.442855,-0.442855 z" />
            <path
               style="fill:#ffffff;fill-opacity:1;stroke:#ffffff;stroke-width:0.18500002;stroke-miterlimit:4;stroke-dasharray:none;stroke-opacity:1"
               inkscape:connector-curvature="0"
               id="path17"
               d="m 81.016446,-1.5677186 -1.712453,-0.988819 c -0.211756,-0.122367 -0.482565,-0.04968 -0.604847,0.162076 -0.122367,0.211756 -0.04985,0.482565 0.162076,0.604847 l 1.712454,0.98881898 c 0.06962,0.04031 0.1458,0.05948 0.220959,0.05948 0.153044,0 0.301912,-0.07942 0.383802,-0.22147 0.122282,-0.21175598 0.04977,-0.48256498 -0.161991,-0.60493198 z" />
            <path
               style="fill:#ffffff;fill-opacity:1;stroke:#ffffff;stroke-width:0.18500002;stroke-miterlimit:4;stroke-dasharray:none;stroke-opacity:1"
               inkscape:connector-curvature="0"
               id="path19"
               d="M 72.482129,4.589308 C 72.359932,4.377552 72.089208,4.304865 71.877197,4.427402 71.665441,4.549769 71.592924,4.820578 71.715291,5.032334 l 0.988904,1.712283 c 0.08206,0.141966 0.230759,0.22147 0.383803,0.22147 0.07516,0 0.151169,-0.01917 0.220959,-0.05948 0.211756,-0.122367 0.284272,-0.393176 0.161906,-0.604932 L 72.482129,4.589307 Z" />
            <path
               style="fill:#ffffff;fill-opacity:1;stroke:#ffffff;stroke-width:0.18500002;stroke-miterlimit:4;stroke-dasharray:none;stroke-opacity:1"
               inkscape:connector-curvature="0"
               id="path21"
               d="m 62.559084,6.923736 c -0.244563,0 -0.442855,0.198292 -0.442855,0.442855 l 0,1.977554 c 0,0.244563 0.198292,0.442855 0.442855,0.442855 0.244563,0 0.442856,-0.198292 0.442856,-0.442855 l 0,-1.977554 c 0,-0.244563 -0.198293,-0.442855 -0.442856,-0.442855 z" />
            <path
               style="fill:#ffffff;fill-opacity:1;stroke:#ffffff;stroke-width:0.18500002;stroke-miterlimit:4;stroke-dasharray:none;stroke-opacity:1"
               inkscape:connector-curvature="0"
               id="path23"
               d="M 53.240546,4.427402 C 53.02879,4.305035 52.757981,4.377722 52.635699,4.589478 L 51.64705,6.301762 c -0.122367,0.211755 -0.04985,0.482564 0.162077,0.604761 0.06979,0.04031 0.1458,0.05948 0.220959,0.05948 0.153043,0 0.301912,-0.07942 0.383802,-0.22147 L 53.402537,5.03225 c 0.122452,-0.211842 0.04993,-0.482651 -0.161991,-0.604847 z" />
            <path
               style="fill:#ffffff;fill-opacity:1;stroke:#ffffff;stroke-width:0.18500002;stroke-miterlimit:4;stroke-dasharray:none;stroke-opacity:1"
               inkscape:connector-curvature="0"
               id="path25"
               d="m 45.814176,-2.5563676 -1.712453,0.988819 c -0.211756,0.122197 -0.284273,0.393006 -0.162077,0.60484698 0.08206,0.141966 0.230759,0.22147 0.383803,0.22147 0.07516,0 0.151169,-0.01917 0.220959,-0.05948 l 1.712453,-0.98881798 c 0.211756,-0.122197 0.284273,-0.393005 0.162076,-0.604847 -0.122111,-0.211841 -0.393005,-0.284528 -0.604761,-0.161991 z" />
            <path
               style="fill:#ffffff;fill-opacity:1;stroke:#ffffff;stroke-width:0.18500002;stroke-miterlimit:4;stroke-dasharray:none;stroke-opacity:1"
               inkscape:connector-curvature="0"
               id="path27"
               d="m 43.479322,-12.155685 -1.977468,0 c -0.244563,0 -0.442855,0.198292 -0.442855,0.442855 0,0.244563 0.198292,0.442855 0.442855,0.442855 l 1.977468,0 c 0.244563,0 0.442855,-0.198292 0.442855,-0.442855 -1.7e-4,-0.244563 -0.198462,-0.442855 -0.442855,-0.442855 z" />
            <path
               style="fill:#ffffff;fill-opacity:1;stroke:#ffffff;stroke-width:0.18500002;stroke-miterlimit:4;stroke-dasharray:none;stroke-opacity:1"
               inkscape:connector-curvature="0"
               id="path29"
               d="m 46.256946,-21.63613 -1.712453,-0.988649 c -0.211927,-0.122026 -0.482565,-0.04968 -0.604932,0.162077 -0.122196,0.211755 -0.04968,0.482564 0.162076,0.604931 l 1.712454,0.988649 c 0.06979,0.04014 0.1458,0.05931 0.220959,0.05931 0.153044,0 0.301912,-0.07942 0.383973,-0.221471 0.122366,-0.211841 0.04968,-0.48265 -0.162077,-0.604846 z" />
            <path
               style="fill:#ffffff;fill-opacity:1;stroke:#ffffff;stroke-width:0.18500002;stroke-miterlimit:4;stroke-dasharray:none;stroke-opacity:1"
               inkscape:connector-curvature="0"
               id="path31"
               d="m 52.635784,-28.015138 c 0.08206,0.141966 0.230759,0.22147 0.383803,0.22147 0.07516,0 0.151169,-0.01917 0.220959,-0.05948 0.211755,-0.122197 0.284272,-0.393006 0.162076,-0.604847 l -0.988649,-1.712453 c -0.122196,-0.211756 -0.393005,-0.284443 -0.604846,-0.162077 -0.211756,0.122197 -0.284273,0.393006 -0.162077,0.604847 l 0.988734,1.712539 z" />
            <path
               style="fill:#ffffff;fill-opacity:1;stroke:#ffffff;stroke-width:0.18500002;stroke-miterlimit:4;stroke-dasharray:none;stroke-opacity:1"
               inkscape:connector-curvature="0"
               id="path33"
               d="m 62.559084,-30.349907 c 0.244563,0 0.442856,-0.198292 0.442856,-0.442855 l 0,-1.977298 c 0,-0.244563 -0.198293,-0.442855 -0.442856,-0.442855 -0.244563,0 -0.442855,0.198292 -0.442855,0.442855 l 0,1.977298 c 0,0.244563 0.198292,0.442855 0.442855,0.442855 z" />
            <path
               style="fill:#ffffff;fill-opacity:1;stroke:#ffffff;stroke-width:0.18500002;stroke-miterlimit:4;stroke-dasharray:none;stroke-opacity:1"
               inkscape:connector-curvature="0"
               id="path11-9"
               d="m 67.562408,-29.675515 c 0.07747,0.02169 0.156022,0.02128 0.22881,0.0025 0.148218,-0.03813 0.272605,-0.152135 0.316522,-0.310109 l 0.530992,-1.904809 c 0.06575,-0.235565 -0.07195,-0.479767 -0.307659,-0.545393 -0.235401,-0.06579 -0.479726,0.07212 -0.545394,0.307659 l -0.530991,1.904812 c -0.06555,0.235337 0.07215,0.479539 0.30772,0.54529 z" />
            <path
               style="fill:#ffffff;fill-opacity:1;stroke:#ffffff;stroke-width:0.18500002;stroke-miterlimit:4;stroke-dasharray:none;stroke-opacity:1"
               inkscape:connector-curvature="0"
               id="path13-6"
               d="m 76.295656,-24.649527 c 0.07279,-0.01873 0.141625,-0.05623 0.199173,-0.112654 l 1.411973,-1.384078 c 0.174634,-0.1711 0.177394,-0.451437 0.0063,-0.626153 -0.171101,-0.174634 -0.45148,-0.177559 -0.626154,-0.0063 l -1.411973,1.384077 c -0.174634,0.171101 -0.177394,0.451437 -0.0063,0.626154 0.114781,0.117148 0.278763,0.157056 0.426981,0.118926 z" />
            <path
               style="fill:#ffffff;fill-opacity:1;stroke:#ffffff;stroke-width:0.18500002;stroke-miterlimit:4;stroke-dasharray:none;stroke-opacity:1"
               inkscape:connector-curvature="0"
               id="path15-8"
               d="m 82.841838,-17.39775 -1.914946,0.492631 c -0.236852,0.06093 -0.379488,0.302373 -0.318556,0.539225 0.06093,0.236851 0.302373,0.379487 0.539225,0.318556 l 1.914946,-0.492631 c 0.236852,-0.06093 0.379488,-0.302374 0.318556,-0.539225 -0.06093,-0.236852 -0.302374,-0.379488 -0.539225,-0.318556 z" />
            <path
               style="fill:#ffffff;fill-opacity:1;stroke:#ffffff;stroke-width:0.18500002;stroke-miterlimit:4;stroke-dasharray:none;stroke-opacity:1"
               inkscape:connector-curvature="0"
               id="path17-6"
               d="m 82.962041,-6.4959606 -1.904812,-0.530992 c -0.235565,-0.06575 -0.479725,0.07212 -0.545393,0.307659 -0.06575,0.235566 0.07195,0.479768 0.307659,0.545394 l 1.904812,0.530991 c 0.07747,0.02169 0.156022,0.02128 0.22881,0.0026 0.148218,-0.03813 0.272605,-0.152134 0.316522,-0.310108 0.06567,-0.235544 -0.07203,-0.479747 -0.307598,-0.545497 z" />
            <path
               style="fill:#ffffff;fill-opacity:1;stroke:#ffffff;stroke-width:0.18500002;stroke-miterlimit:4;stroke-dasharray:none;stroke-opacity:1"
               inkscape:connector-curvature="0"
               id="path19-8"
               d="m 76.230823,1.593184 c -0.1711,-0.174634 -0.451397,-0.17758 -0.626194,-0.0061 -0.174591,0.171266 -0.177351,0.451602 -0.0061,0.626194 l 1.384325,1.41191 c 0.114843,0.117044 0.27866,0.156994 0.426877,0.118864 0.07279,-0.01873 0.141626,-0.05623 0.199173,-0.112654 0.174592,-0.171265 0.177351,-0.451602 0.0061,-0.626193 L 76.230822,1.59317 Z" />
            <path
               style="fill:#ffffff;fill-opacity:1;stroke:#ffffff;stroke-width:0.18500002;stroke-miterlimit:4;stroke-dasharray:none;stroke-opacity:1"
               inkscape:connector-curvature="0"
               id="path21-5"
               d="m 67.202295,6.326261 c -0.236852,0.06093 -0.379488,0.302374 -0.318557,0.539226 l 0.492695,1.915194 c 0.06093,0.236851 0.302374,0.379487 0.539225,0.318556 0.236851,-0.06093 0.379488,-0.302374 0.318556,-0.539225 L 67.74152,6.644818 C 67.68059,6.407966 67.439146,6.26533 67.202295,6.326261 Z" />
            <path
               style="fill:#ffffff;fill-opacity:1;stroke:#ffffff;stroke-width:0.18500002;stroke-miterlimit:4;stroke-dasharray:none;stroke-opacity:1"
               inkscape:connector-curvature="0"
               id="path23-6"
               d="m 57.555656,6.230299 c -0.235565,-0.06575 -0.479725,0.07212 -0.545393,0.307659 l -0.530869,1.904605 c -0.06575,0.235565 0.07195,0.479768 0.307638,0.545311 0.07763,0.02165 0.156021,0.02128 0.22881,0.0026 0.148218,-0.03813 0.272605,-0.152135 0.316522,-0.310109 l 0.530869,-1.904604 c 0.06581,-0.235669 -0.07189,-0.479872 -0.307577,-0.545415 z" />
            <path
               style="fill:#ffffff;fill-opacity:1;stroke:#ffffff;stroke-width:0.18500002;stroke-miterlimit:4;stroke-dasharray:none;stroke-opacity:1"
               inkscape:connector-curvature="0"
               id="path25-1"
               d="m 48.623504,1.316984 -1.412096,1.384285 c -0.174634,0.1711 -0.177393,0.451437 -0.0063,0.626154 0.114843,0.117044 0.27866,0.156994 0.426878,0.118864 0.07279,-0.01873 0.141625,-0.05623 0.199173,-0.112654 l 1.412095,-1.384285 c 0.174635,-0.1711 0.177394,-0.451437 0.0063,-0.626154 -0.171039,-0.174737 -0.451501,-0.177641 -0.62605,-0.0062 z" />
            <path
               style="fill:#ffffff;fill-opacity:1;stroke:#ffffff;stroke-width:0.18500002;stroke-miterlimit:4;stroke-dasharray:none;stroke-opacity:1"
               inkscape:connector-curvature="0"
               id="path27-7"
               d="m 43.970668,-7.3979206 -1.915111,0.492674 c -0.236851,0.06093 -0.379487,0.302374 -0.318556,0.539225 0.06093,0.236851 0.302374,0.379487 0.539225,0.318556 l 1.915112,-0.492673 c 0.236851,-0.060932 0.379487,-0.302374 0.318556,-0.539226 -0.0611,-0.236808 -0.302539,-0.379445 -0.539226,-0.318556 z" />
            <path
               style="fill:#ffffff;fill-opacity:1;stroke:#ffffff;stroke-width:0.18500002;stroke-miterlimit:4;stroke-dasharray:none;stroke-opacity:1"
               inkscape:connector-curvature="0"
               id="path29-7"
               d="m 44.298713,-17.271441 -1.904769,-0.530827 c -0.235646,-0.06538 -0.479726,0.07212 -0.545476,0.307681 -0.06559,0.235523 0.07211,0.479725 0.30768,0.545475 l 1.90477,0.530827 c 0.07759,0.02148 0.155979,0.02111 0.228767,0.0024 0.148218,-0.03813 0.272605,-0.152134 0.316687,-0.310151 0.06573,-0.235648 -0.07214,-0.479808 -0.307659,-0.545393 z" />
            <path
               style="fill:#ffffff;fill-opacity:1;stroke:#ffffff;stroke-width:0.18500002;stroke-miterlimit:4;stroke-dasharray:none;stroke-opacity:1"
               inkscape:connector-curvature="0"
               id="path31-8"
               d="m 48.887116,-25.038544 c 0.114843,0.117044 0.278659,0.156994 0.426877,0.118865 0.07279,-0.01873 0.141625,-0.05623 0.199173,-0.112654 0.174634,-0.171101 0.177394,-0.451438 0.0063,-0.626154 l -1.384148,-1.412138 c -0.171101,-0.174635 -0.45148,-0.177559 -0.626154,-0.0063 -0.174634,0.1711 -0.177394,0.451437 -0.0063,0.626153 l 1.384224,1.4122 z" />
            <path
               style="fill:#ffffff;fill-opacity:1;stroke:#ffffff;stroke-width:0.18500002;stroke-miterlimit:4;stroke-dasharray:none;stroke-opacity:1"
               inkscape:connector-curvature="0"
               id="path33-0"
               d="m 57.915807,-29.772015 c 0.236851,-0.06093 0.379488,-0.302374 0.318556,-0.539225 l -0.492631,-1.914947 c -0.06093,-0.236851 -0.302374,-0.379487 -0.539225,-0.318556 -0.236851,0.06093 -0.379487,0.302374 -0.318556,0.539225 l 0.492631,1.914947 c 0.06093,0.236851 0.302374,0.379487 0.539225,0.318556 z" />
            <path
               id="Bottom_Right"
               d="M 62.457365,-11.847533 50.400448,0.10595598 64.784182,-9.4953356 c -0.954358,-0.9646264 -1.909111,-1.9296534 -2.327583,-2.3526294 l 7.66e-4,4.32e-4 z"
               inkscape:connector-curvature="0"
               style="opacity:1;fill:#e0e0e0;fill-opacity:1;stroke:none" />
            <path
               id="Bottom_Left"
               d="m 50.385211,0.19807798 12.056917,-11.95349098 -7.94e-4,-8.02e-4 c -0.954355,-0.964626 -1.909108,-1.929652 -2.32758,-2.352628 L 50.385211,0.19807798 Z"
               inkscape:connector-curvature="0"
               style="opacity:1;fill:#f6f6f6;fill-opacity:1;stroke:none" />
            <polygon
               id="Top_Right"
               points="95.342,95.341 130.562,60.122 101.209,101.21 "
               style="opacity:1;fill:#f32d2c;fill-opacity:1;stroke:none"
               transform="matrix(0.36949403,0.03076507,0.02716249,0.37015998,24.486777,-49.944888)" />
            <polyline
               id="Top_Left"
               points="130.562,60.122 89.472,89.473 95.342,95.341 130.562,60.122  "
               style="opacity:1;fill:#f44a4a;fill-opacity:1;stroke:none"
               transform="matrix(0.36949403,0.03076507,0.02716249,0.37015998,24.531883,-49.889788)" />
          </g>
        </g>
      </g>
    </g>
  </g>
</svg>
