<?xml version="1.0" encoding="UTF-8" standalone="no"?>
<!-- Created with Inkscape (http://www.inkscape.org/) -->

<svg
   xmlns:dc="http://purl.org/dc/elements/1.1/"
   xmlns:cc="http://creativecommons.org/ns#"
   xmlns:rdf="http://www.w3.org/1999/02/22-rdf-syntax-ns#"
   xmlns:svg="http://www.w3.org/2000/svg"
   xmlns="http://www.w3.org/2000/svg"
   xmlns:xlink="http://www.w3.org/1999/xlink"
   xmlns:sodipodi="http://sodipodi.sourceforge.net/DTD/sodipodi-0.dtd"
   xmlns:inkscape="http://www.inkscape.org/namespaces/inkscape"
   width="48"
   height="48"
   id="svg5453"
   version="1.1"
   inkscape:version="0.91 r13725"
   sodipodi:docname="kwin.svg">
  <defs
     id="defs5455">
    <linearGradient
       gradientTransform="matrix(1.0909091,0,0,1.0652838,-428.33932,-535.93378)"
       gradientUnits="userSpaceOnUse"
       y2="507.798"
       x2="409.57144"
       y1="542.79797"
       x1="409.57144"
       id="linearGradient4222-5"
       xlink:href="#linearGradient4143"
       inkscape:collect="always" />
    <linearGradient
       id="linearGradient4143"
       inkscape:collect="always">
      <stop
         id="stop4145"
         offset="0"
         style="stop-color:#197cf1;stop-opacity:1" />
      <stop
         id="stop4147"
         offset="1"
         style="stop-color:#20bcfa;stop-opacity:1" />
    </linearGradient>
  </defs>
  <sodipodi:namedview
     id="base"
     pagecolor="#ffffff"
     bordercolor="#666666"
     borderopacity="1.0"
     inkscape:pageopacity="0"
     inkscape:pageshadow="2"
     inkscape:zoom="4"
     inkscape:cx="-66.532983"
     inkscape:cy="15.968792"
     inkscape:document-units="px"
     inkscape:current-layer="g4370"
     showgrid="true"
     fit-margin-top="0"
     fit-margin-left="0"
     fit-margin-right="0"
     fit-margin-bottom="0"
     inkscape:window-width="1366"
     inkscape:window-height="634"
     inkscape:window-x="0"
     inkscape:window-y="36"
     inkscape:window-maximized="1"
     inkscape:showpageshadow="false"
     borderlayer="true"
     showguides="false">
    <inkscape:grid
       type="xygrid"
       id="grid4063" />
    <sodipodi:guide
       position="1.1650391e-05,32.000026"
       orientation="32,0"
       id="guide4157" />
    <sodipodi:guide
       position="1.1650391e-05,2.6367188e-05"
       orientation="0,32"
       id="guide4159" />
    <sodipodi:guide
       position="32.000012,2.6367188e-05"
       orientation="-32,0"
       id="guide4161" />
    <sodipodi:guide
       position="32.000012,32.000026"
       orientation="0,-32"
       id="guide4163" />
    <sodipodi:guide
       position="2.0000117,30.000026"
       orientation="28,0"
       id="guide4167" />
    <sodipodi:guide
       position="2.0000117,2.0000264"
       orientation="0,28"
       id="guide4169" />
    <sodipodi:guide
       position="30.000012,2.0000264"
       orientation="-28,0"
       id="guide4171" />
    <sodipodi:guide
       position="30.000012,30.000026"
       orientation="0,-28"
       id="guide4173" />
    <sodipodi:guide
       position="2.0000117,30.000026"
       orientation="28,0"
       id="guide4181" />
    <sodipodi:guide
       position="2.0000117,2.0000264"
       orientation="0,14"
       id="guide4183" />
    <sodipodi:guide
       position="16.000012,2.0000264"
       orientation="-28,0"
       id="guide4185" />
    <sodipodi:guide
       position="16.000012,30.000026"
       orientation="0,-14"
       id="guide4187" />
    <sodipodi:guide
       position="9.0000117,23.000026"
       orientation="14,0"
       id="guide4193" />
    <sodipodi:guide
       position="9.0000117,9.0000264"
       orientation="0,14.000031"
       id="guide4195" />
    <sodipodi:guide
       position="23.000042,9.0000264"
       orientation="-14,0"
       id="guide4197" />
    <sodipodi:guide
       position="23.000042,23.000026"
       orientation="0,-14.000031"
       id="guide4199" />
  </sodipodi:namedview>
  <metadata
     id="metadata5458">
    <rdf:RDF>
      <cc:Work
         rdf:about="">
        <dc:format>image/svg+xml</dc:format>
        <dc:type
           rdf:resource="http://purl.org/dc/dcmitype/StillImage" />
        <dc:title></dc:title>
      </cc:Work>
    </rdf:RDF>
  </metadata>
  <g
     inkscape:label="Capa 1"
     inkscape:groupmode="layer"
     id="layer1"
     transform="translate(-384.57143,-499.798)">
    <g
       style="display:inline;enable-background:new"
       id="g4238"
       transform="translate(225.81911,462.44565)">
      <g
         style="display:inline"
         id="layer1-8"
         transform="matrix(0.22655187,0,0,0.22655187,106.94841,54.31088)">
        <g
           style="display:none"
           id="layer6" />
        <g
           id="g4027" />
        <g
           id="g4061" />
        <g
           id="g3751" />
        <g
           id="g3782" />
        <g
           id="g3725" />
        <g
           id="g4370"
           transform="matrix(4.4140002,0,0,4.4140002,59.275211,39.357303)">
          <g
             id="g4184"
             transform="translate(44.999999,-25.000001)">
            <rect
               ry="1.7044541"
               y="5.0151772"
               x="-6.6249986"
               height="36.219646"
               width="48"
               id="rect4195-7"
               style="opacity:1;fill:url(#linearGradient4222-5);fill-opacity:1;stroke:none;stroke-width:0.2;stroke-linecap:round;stroke-linejoin:round;stroke-miterlimit:4;stroke-dasharray:none;stroke-opacity:1" />
            <path
               inkscape:connector-curvature="0"
               id="path5692_1_"
               style="display:inline;fill:#ffffff;fill-opacity:0.85;stroke:none;stroke-opacity:0.8"
               d="m 18.501816,12.924754 -3.656252,0.351562 0,15.062508 3.61719,-0.546875 0,-6.421878 4.86719,7.125004 3.812501,-1.210939 -4.984377,-6.851566 5.023439,-6.460941 -3.890626,-0.890625 -4.828127,6.46094 0.03906,-6.61719 z M 10.21275,16.59663 c -0.04134,0.0043 -0.08606,0.01569 -0.117188,0.04687 l -1.4375005,1.437506 c -0.06038,0.06056 -0.06775,0.15325 -0.02344,0.226562 l 1.6796875,2.77344 C 10.01606,21.58238 9.7738705,22.120199 9.6033715,22.690384 l -3.085939,0.640625 c -0.08587,0.01775 -0.148437,0.0995 -0.148437,0.187501 l 0,2.031251 c 0,0.08587 0.06531,0.159436 0.148437,0.179687 l 2.992189,0.726563 c 0.159999,0.660122 0.40719,1.291816 0.7343755,1.867188 l -1.7343755,2.640627 c -0.04838,0.07375 -0.03894,0.172125 0.02344,0.234375 l 1.437501,1.437501 c 0.06056,0.06037 0.1534375,0.06793 0.2265615,0.02342 l 2.718752,-1.648439 c 0.533248,0.307874 1.110567,0.554501 1.718751,0.718751 l 0.632812,3.046876 c 0.01775,0.08613 0.09175,0.148438 0.179688,0.148438 l 2.031251,0 c 0.08525,0 0.159438,-0.05725 0.179688,-0.140625 l 0.75,-3.062502 c 0.627247,-0.169124 1.218628,-0.42019 1.765626,-0.742188 l 2.679689,1.757814 c 0.07387,0.04812 0.17175,0.03881 0.234375,-0.02342 l 1.429688,-1.437501 c 0.06075,-0.06062 0.07575,-0.153438 0.03125,-0.226563 l -0.976563,-1.609375 -0.320312,0.101562 c -0.04625,0.01425 -0.0975,-0.0066 -0.125,-0.04687 -1e-6,0 -0.616879,-0.907445 -1.421876,-2.085938 -0.962745,1.883864 -2.92614,3.171876 -5.187503,3.171876 -3.213358,0 -5.820315,-2.606957 -5.820315,-5.820315 0,-2.363675 1.413449,-4.393822 3.437501,-5.304692 l 0,-1.5 c -0.368373,0.128936 -0.724252,0.2845 -1.0625,0.46875 -6.26e-4,-3.88e-4 6.26e-4,-0.0074 0,-0.0078 l -2.742189,-1.796877 c -0.03687,-0.02412 -0.07584,-0.0277 -0.117187,-0.02344 z" />
          </g>
        </g>
      </g>
    </g>
  </g>
</svg>
