<?xml version="1.0" encoding="UTF-8" standalone="no"?>
<!-- Created with Inkscape (http://www.inkscape.org/) -->

<svg
   xmlns:osb="http://www.openswatchbook.org/uri/2009/osb"
   xmlns:dc="http://purl.org/dc/elements/1.1/"
   xmlns:cc="http://creativecommons.org/ns#"
   xmlns:rdf="http://www.w3.org/1999/02/22-rdf-syntax-ns#"
   xmlns:svg="http://www.w3.org/2000/svg"
   xmlns="http://www.w3.org/2000/svg"
   xmlns:xlink="http://www.w3.org/1999/xlink"
   xmlns:sodipodi="http://sodipodi.sourceforge.net/DTD/sodipodi-0.dtd"
   xmlns:inkscape="http://www.inkscape.org/namespaces/inkscape"
   width="48px"
   height="48px"
   id="svg2985"
   version="1.1"
   inkscape:version="0.91 r13725"
   sodipodi:docname="libreoffice-impress.svg">
  <defs
     id="defs2987">
    <linearGradient
       id="linearGradient4207"
       osb:paint="gradient">
      <stop
         style="stop-color:#3498db;stop-opacity:1;"
         offset="0"
         id="stop3371" />
      <stop
         style="stop-color:#3498db;stop-opacity:0;"
         offset="1"
         id="stop3373" />
    </linearGradient>
    <linearGradient
       id="linearGradient4613"
       inkscape:collect="always">
      <stop
         id="stop4615"
         offset="0"
         style="stop-color:#dc3c30;stop-opacity:1" />
      <stop
         id="stop4617"
         offset="1"
         style="stop-color:#ff786d;stop-opacity:1" />
    </linearGradient>
    <linearGradient
       inkscape:collect="always"
       xlink:href="#linearGradient4320"
       id="linearGradient4738-6-4"
       x1="-123.9715"
       y1="73.496605"
       x2="-125.19291"
       y2="-26.047026"
       gradientUnits="userSpaceOnUse" />
    <linearGradient
       inkscape:collect="always"
       xlink:href="#linearGradient4613"
       id="linearGradient4180"
       x1="38.800407"
       y1="14.249936"
       x2="38.541626"
       y2="-37.095875"
       gradientUnits="userSpaceOnUse"
       gradientTransform="translate(-28.434456,36.349091)" />
    <linearGradient
       inkscape:collect="always"
       xlink:href="#linearGradient4489"
       id="linearGradient4487"
       x1="46.037296"
       y1="15.657343"
       x2="46.042"
       y2="1.0779999"
       gradientUnits="userSpaceOnUse"
       gradientTransform="matrix(1.2127051,0,0,1.2127051,-9.7933672,-0.22929607)" />
    <linearGradient
       inkscape:collect="always"
       id="linearGradient4489">
      <stop
         style="stop-color:#f26156;stop-opacity:1"
         offset="0"
         id="stop4491" />
      <stop
         style="stop-color:#fe766b;stop-opacity:1"
         offset="1"
         id="stop4493" />
    </linearGradient>
    <linearGradient
       inkscape:collect="always"
       id="linearGradient4320">
      <stop
         style="stop-color:#dce2ff;stop-opacity:1"
         offset="0"
         id="stop4322" />
      <stop
         style="stop-color:#f8feff;stop-opacity:1"
         offset="1"
         id="stop4324" />
    </linearGradient>
  </defs>
  <sodipodi:namedview
     id="base"
     pagecolor="#5a5a5a"
     bordercolor="#666666"
     borderopacity="1.0"
     inkscape:pageopacity="0"
     inkscape:pageshadow="2"
     inkscape:zoom="3.0323572"
     inkscape:cx="8.8280079"
     inkscape:cy="27.054775"
     inkscape:current-layer="layer1"
     showgrid="false"
     inkscape:grid-bbox="true"
     inkscape:document-units="px"
     inkscape:snap-global="true"
     inkscape:window-width="1366"
     inkscape:window-height="687"
     inkscape:window-x="0"
     inkscape:window-y="0"
     inkscape:window-maximized="1"
     inkscape:snap-bbox="true"
     inkscape:bbox-nodes="true"
     inkscape:object-nodes="true"
     inkscape:snap-nodes="true"
     inkscape:snap-others="false"
     inkscape:snap-bbox-edge-midpoints="true"
     showborder="false">
    <inkscape:grid
       type="xygrid"
       id="grid2993" />
  </sodipodi:namedview>
  <metadata
     id="metadata2990">
    <rdf:RDF>
      <cc:Work
         rdf:about="">
        <dc:format>image/svg+xml</dc:format>
        <dc:type
           rdf:resource="http://purl.org/dc/dcmitype/StillImage" />
        <dc:title />
      </cc:Work>
    </rdf:RDF>
  </metadata>
  <g
     id="layer1"
     inkscape:label="Layer 1"
     inkscape:groupmode="layer">
    <g
       transform="matrix(0.96853196,0,0,0.96853196,0.75523296,0.75523296)"
       id="g5838">
      <rect
         ry="6.2409248"
         y="-27.421095"
         x="-175.27007"
         height="100.45968"
         width="97.100838"
         id="rect4177-3-6"
         style="opacity:1;fill:url(#linearGradient4738-6-4);fill-opacity:1.0;fill-rule:evenodd;stroke:none;stroke-width:8;stroke-linecap:round;stroke-linejoin:round;stroke-miterlimit:4;stroke-dasharray:none;stroke-dashoffset:0;stroke-opacity:1"
         transform="matrix(0.4643084,0,0,0.4643084,82.836996,13.409708)" />
      <path
         style="fill:#eb554a;fill-opacity:1;stroke:none;stroke-width:0.04756193;stroke-miterlimit:4;stroke-dasharray:none;stroke-opacity:1"
         sodipodi:nodetypes="cccccccssc"
         inkscape:connector-curvature="0"
         id="path8-7-6-3"
         d="m 17.79914,1020.3406 c 2.099214,0 3.801279,1.6989 3.801279,3.798 l -3.801279,0 c 7.88e-4,0 7.88e-4,-3.798 0,-3.798 z m -1.068518,1.0329 0,3.8014 3.801279,0 c 0,2.1016 -1.701278,3.8013 -3.801279,3.8013 -2.100003,0 -3.799704,-1.6997 -3.799704,-3.8013 0,-2.1 1.700489,-3.8014 3.799704,-3.8014 z"
         transform="matrix(2.0431376,0,0,2.0431376,-20.168482,-2067.3265)" />
      <path
         id="rect4157-1"
         transform="matrix(0.97175572,0,0,0.97175572,0.67786276,0.67786272)"
         d="m 28.490234,20.529297 c -0.756659,0 -1.365234,0.610528 -1.365234,1.367187 0,0.756658 0.608575,1.365235 1.365234,1.365235 l 11.529297,0 c 0.756659,0 1.365235,-0.608577 1.365235,-1.365235 0,-0.756659 -0.608576,-1.367187 -1.365235,-1.367187 l -11.529297,0 z m 0.01563,4.832031 c -0.756658,0 -1.367187,0.608576 -1.367187,1.365234 l 0,0.04492 c 0,0.756658 0.610529,1.365235 1.367187,1.365235 l 11.335938,0 c 0.756659,0 1.367187,-0.608577 1.367187,-1.365235 l 0,-0.04492 c 0,-0.756659 -0.610528,-1.365234 -1.367187,-1.365234 l -11.335938,0 z m 0.01563,4.990234 c -0.753227,10e-7 -1.359375,0.606149 -1.359375,1.359376 0,0.753227 0.606148,1.359374 1.359375,1.359374 l 11.503907,0 c 0.753227,10e-7 1.359375,-0.606147 1.359375,-1.359374 0,-0.753228 -0.606148,-1.359376 -1.359375,-1.359376 l -11.503907,0 z"
         style="opacity:1;fill:#ea5549;fill-opacity:1;fill-rule:evenodd;stroke:none;stroke-width:0.40000001;stroke-linecap:round;stroke-linejoin:round;stroke-miterlimit:4;stroke-dasharray:none;stroke-dashoffset:0;stroke-opacity:1"
         inkscape:connector-curvature="0" />
      <path
         sodipodi:nodetypes="scssssssss"
         inkscape:connector-curvature="0"
         id="rect4177-3-2"
         d="m 3.7843714,0 34.1399206,0 6.291337,0 c 1.651992,0 2.981936,1.3299437 2.981936,2.9819365 l 0,42.0361275 C 47.197565,46.670056 45.867621,48 44.215629,48 L 3.7843714,48 C 2.1323786,48 0.80243492,46.670056 0.80243492,45.018064 l 0,-42.0361275 C 0.80243492,1.3299437 2.1323786,0 3.7843714,0 Z"
         style="opacity:1;fill:none;fill-opacity:1;fill-rule:evenodd;stroke:url(#linearGradient4180);stroke-width:3;stroke-linecap:round;stroke-linejoin:round;stroke-miterlimit:4;stroke-dasharray:none;stroke-dashoffset:0;stroke-opacity:1"
         transform="matrix(0.97175572,0,0,0.97175572,0.67786276,0.67786272)" />
      <path
         style="fill:url(#linearGradient4487);fill-opacity:1;fill-rule:evenodd;stroke:none;stroke-width:1px;stroke-linecap:butt;stroke-linejoin:miter;stroke-opacity:1"
         d="M 26.107226,1.090828 46.036295,18.758443 46.042,1.078 Z"
         id="path4479"
         inkscape:connector-curvature="0"
         sodipodi:nodetypes="cccc" />
    </g>
  </g>
</svg>
