<?xml version="1.0" encoding="UTF-8" standalone="no"?>
<!-- Created with Inkscape (http://www.inkscape.org/) -->

<svg
   xmlns:osb="http://www.openswatchbook.org/uri/2009/osb"
   xmlns:dc="http://purl.org/dc/elements/1.1/"
   xmlns:cc="http://creativecommons.org/ns#"
   xmlns:rdf="http://www.w3.org/1999/02/22-rdf-syntax-ns#"
   xmlns:svg="http://www.w3.org/2000/svg"
   xmlns="http://www.w3.org/2000/svg"
   xmlns:xlink="http://www.w3.org/1999/xlink"
   xmlns:sodipodi="http://sodipodi.sourceforge.net/DTD/sodipodi-0.dtd"
   xmlns:inkscape="http://www.inkscape.org/namespaces/inkscape"
   width="48px"
   height="48px"
   id="svg2985"
   version="1.1"
   inkscape:version="0.91 r13725"
   sodipodi:docname="libreoffice-base.svg">
  <defs
     id="defs2987">
    <linearGradient
       id="linearGradient5845">
      <stop
         id="stop5847"
         offset="0"
         style="stop-color:#974eb7;stop-opacity:1" />
      <stop
         style="stop-color:#d164ff;stop-opacity:1"
         offset="1"
         id="stop5849" />
    </linearGradient>
    <linearGradient
       id="linearGradient4207"
       osb:paint="gradient">
      <stop
         style="stop-color:#3498db;stop-opacity:1;"
         offset="0"
         id="stop3371" />
      <stop
         style="stop-color:#3498db;stop-opacity:0;"
         offset="1"
         id="stop3373" />
    </linearGradient>
    <linearGradient
       inkscape:collect="always"
       xlink:href="#linearGradient4320"
       id="linearGradient4738-6-1-9-82"
       x1="-126.32751"
       y1="75.067284"
       x2="-122.18122"
       y2="-26.531675"
       gradientUnits="userSpaceOnUse" />
    <linearGradient
       inkscape:collect="always"
       xlink:href="#linearGradient5845"
       id="linearGradient5089"
       gradientUnits="userSpaceOnUse"
       gradientTransform="translate(-28.434456,36.349091)"
       x1="38.800407"
       y1="14.249936"
       x2="38.541626"
       y2="-37.095875" />
    <linearGradient
       inkscape:collect="always"
       xlink:href="#linearGradient5417"
       id="linearGradient5091"
       gradientUnits="userSpaceOnUse"
       gradientTransform="matrix(1.2127051,0,0,1.2127051,-9.7933672,-0.22929607)"
       x1="46.037296"
       y1="15.657343"
       x2="46.042"
       y2="1.0779999" />
    <linearGradient
       id="linearGradient5417">
      <stop
         id="stop5419"
         offset="0"
         style="stop-color:#bb5ce4;stop-opacity:1" />
      <stop
         style="stop-color:#cf63fc;stop-opacity:1"
         offset="1"
         id="stop5421" />
    </linearGradient>
    <linearGradient
       inkscape:collect="always"
       id="linearGradient4320">
      <stop
         style="stop-color:#dce2ff;stop-opacity:1"
         offset="0"
         id="stop4322" />
      <stop
         style="stop-color:#f8feff;stop-opacity:1"
         offset="1"
         id="stop4324" />
    </linearGradient>
  </defs>
  <sodipodi:namedview
     id="base"
     pagecolor="#5a5a5a"
     bordercolor="#666666"
     borderopacity="1.0"
     inkscape:pageopacity="0"
     inkscape:pageshadow="2"
     inkscape:zoom="5.663083"
     inkscape:cx="51.908536"
     inkscape:cy="13.670461"
     inkscape:current-layer="layer1"
     showgrid="false"
     inkscape:grid-bbox="true"
     inkscape:document-units="px"
     inkscape:snap-global="true"
     inkscape:window-width="1366"
     inkscape:window-height="687"
     inkscape:window-x="0"
     inkscape:window-y="0"
     inkscape:window-maximized="1"
     inkscape:snap-bbox="true"
     inkscape:bbox-nodes="true"
     inkscape:object-nodes="true"
     inkscape:snap-nodes="true"
     showguides="false"
     showborder="false">
    <inkscape:grid
       type="xygrid"
       id="grid2993" />
  </sodipodi:namedview>
  <metadata
     id="metadata2990">
    <rdf:RDF>
      <cc:Work
         rdf:about="">
        <dc:format>image/svg+xml</dc:format>
        <dc:type
           rdf:resource="http://purl.org/dc/dcmitype/StillImage" />
        <dc:title />
      </cc:Work>
    </rdf:RDF>
  </metadata>
  <g
     id="layer1"
     inkscape:label="Layer 1"
     inkscape:groupmode="layer">
    <g
       transform="matrix(0.02824395,0,0,0.02824395,12.377629,15.683215)"
       style="display:inline;fill:#a654c9;fill-opacity:1;enable-background:new"
       id="g5731">
      <rect
         ry="6.2409248"
         y="-27.421095"
         x="-175.27007"
         height="100.45968"
         width="97.100838"
         id="rect4177-3-0-7-7"
         style="opacity:1;fill:url(#linearGradient4738-6-1-9-82);fill-opacity:1;fill-rule:evenodd;stroke:none;stroke-width:8;stroke-linecap:round;stroke-linejoin:round;stroke-miterlimit:4;stroke-dasharray:none;stroke-dashoffset:0;stroke-opacity:1"
         transform="matrix(15.921909,0,0,15.921909,2429.1181,-68.696221)" />
      <path
         transform="matrix(33.323123,0,0,33.323123,-388.25545,-505.29241)"
         sodipodi:nodetypes="scssssssss"
         inkscape:connector-curvature="0"
         id="rect4177-3-2-4-6-4"
         d="m 3.7843714,0 34.1399206,0 6.291337,0 c 1.651992,0 2.981936,1.3299437 2.981936,2.9819365 l 0,42.0361275 C 47.197565,46.670056 45.867621,48 44.215629,48 L 3.7843714,48 C 2.1323786,48 0.80243492,46.670056 0.80243492,45.018064 l 0,-42.0361275 C 0.80243492,1.3299437 2.1323786,0 3.7843714,0 Z"
         style="opacity:1;fill:none;fill-opacity:1;fill-rule:evenodd;stroke:url(#linearGradient5089);stroke-width:3;stroke-linecap:round;stroke-linejoin:round;stroke-miterlimit:4;stroke-dasharray:none;stroke-dashoffset:0;stroke-opacity:1" />
      <path
         style="fill:url(#linearGradient5091);fill-opacity:1;fill-rule:evenodd;stroke:none;stroke-width:1px;stroke-linecap:butt;stroke-linejoin:miter;stroke-opacity:1"
         d="M 26.107226,1.090828 46.036295,18.758443 46.042,1.078 Z"
         id="path4479-8-1-9"
         inkscape:connector-curvature="0"
         sodipodi:nodetypes="cccc"
         transform="matrix(34.291667,0,0,34.291667,-411.5005,-528.53746)" />
      <path
         d="m 411.5,823 c 210.4,0 381,-48.4 381,-108 l 0,-136.2 c -2.5,1.9 -5,3.7 -7.699,5.5 -22.701,15.2 -54,28.5 -93,39.601 C 616.4,645.2 516.9,657 411.5,657 306.1,657 206.6,645.2 131.2,623.9 c -39,-11.101 -70.3,-24.4 -93,-39.601 -2.7,-1.8 -5.2,-3.6 -7.7,-5.5 L 30.5,715 c 0,59.6 170.601,108 381,108 z"
         id="path7-5-1"
         inkscape:connector-curvature="0"
         style="fill:#a654c9;fill-opacity:1" />
      <path
         d="m 411.5,617 c 203.3,0 369.4,-45.1 380.4,-102 0.4,-2 0.6,-4 0.6,-6 l 0,-137.2 c -2.5,1.9 -5,3.7 -7.699,5.5 -19.1,12.8 -44.4,24.3 -75.301,34.2 -5.699,1.8 -11.6,3.6 -17.699,5.4 -6.1,1.699 -12.301,3.399 -18.701,5 -14.799,3.699 -30.299,7 -46.5,10 -63.7,11.8 -137.799,18.1 -215.1,18.1 -77.3,0 -151.4,-6.3 -215.2,-18.1 -16.2,-3 -31.7,-6.4 -46.5,-10 -6.4,-1.601 -12.6,-3.2 -18.7,-5 -6.1,-1.7 -12,-3.5 -17.7,-5.4 -30.9,-9.9 -56.2,-21.4 -75.3,-34.2 -2.7,-1.8 -5.2,-3.6 -7.7,-5.5 l 0,137.2 c 0,2 0.2,4 0.6,6 11.101,56.9 177.201,102 380.5,102 z"
         id="path9-8"
         inkscape:connector-curvature="0"
         style="fill:#a654c9;fill-opacity:1" />
      <path
         sodipodi:nodetypes="ccscccssssscc"
         d="m 196.3,391.1 c 20.7,4 42.8,7.5 66.101,10.301 45.8,5.5 96.199,8.6 149.1,8.6 52.9,0 103.3,-3.1 149.099,-8.6 23.3,-2.801 45.4,-6.301 66.101,-10.301 94.199,-18.3 158,-48.3 165.199,-82.6 0.5,-2.2 0.699,-4.3 0.699,-6.5 l 0,-194 c 0,-59.6 -170.6,-108 -381,-108 -210.399,0 -381,48.4 -381,108 l 0,194 c 0,2.2 0.2,4.3 0.7,6.5 7.101,34.3 70.802,64.3 165.001,82.6 z"
         id="path11-1"
         inkscape:connector-curvature="0"
         style="fill:#a654c9;fill-opacity:1" />
    </g>
  </g>
</svg>
