<?xml version="1.0" encoding="UTF-8" standalone="no"?>
<!-- Created with Inkscape (http://www.inkscape.org/) -->

<svg
   xmlns:dc="http://purl.org/dc/elements/1.1/"
   xmlns:cc="http://creativecommons.org/ns#"
   xmlns:rdf="http://www.w3.org/1999/02/22-rdf-syntax-ns#"
   xmlns:svg="http://www.w3.org/2000/svg"
   xmlns="http://www.w3.org/2000/svg"
   xmlns:xlink="http://www.w3.org/1999/xlink"
   xmlns:sodipodi="http://sodipodi.sourceforge.net/DTD/sodipodi-0.dtd"
   xmlns:inkscape="http://www.inkscape.org/namespaces/inkscape"
   width="48"
   height="48"
   id="svg5453"
   version="1.1"
   inkscape:version="0.91 r13725"
   sodipodi:docname="linguist.svg">
  <defs
     id="defs5455">
    <linearGradient
       gradientTransform="matrix(1.1067024,0,0,1.1067024,-355.737,-574.86549)"
       gradientUnits="userSpaceOnUse"
       y2="507.798"
       x2="373.57144"
       y1="544.49469"
       x1="373.61014"
       id="linearGradient4182"
       xlink:href="#linearGradient4793"
       inkscape:collect="always" />
    <linearGradient
       id="linearGradient4793"
       inkscape:collect="always">
      <stop
         id="stop4795"
         offset="0"
         style="stop-color:#54b60f;stop-opacity:1" />
      <stop
         id="stop4797"
         offset="1"
         style="stop-color:#92dc41;stop-opacity:1" />
    </linearGradient>
  </defs>
  <sodipodi:namedview
     id="base"
     pagecolor="#ffffff"
     bordercolor="#666666"
     borderopacity="1.0"
     inkscape:pageopacity="0"
     inkscape:pageshadow="2"
     inkscape:zoom="4"
     inkscape:cx="-39.601104"
     inkscape:cy="15.968792"
     inkscape:document-units="px"
     inkscape:current-layer="layer1-8"
     showgrid="true"
     fit-margin-top="0"
     fit-margin-left="0"
     fit-margin-right="0"
     fit-margin-bottom="0"
     inkscape:window-width="1366"
     inkscape:window-height="634"
     inkscape:window-x="0"
     inkscape:window-y="36"
     inkscape:window-maximized="1"
     inkscape:showpageshadow="false"
     borderlayer="true"
     showguides="false">
    <inkscape:grid
       type="xygrid"
       id="grid4063" />
    <sodipodi:guide
       position="1.1650391e-05,32.000026"
       orientation="32,0"
       id="guide4157" />
    <sodipodi:guide
       position="1.1650391e-05,2.6367188e-05"
       orientation="0,32"
       id="guide4159" />
    <sodipodi:guide
       position="32.000012,2.6367188e-05"
       orientation="-32,0"
       id="guide4161" />
    <sodipodi:guide
       position="32.000012,32.000026"
       orientation="0,-32"
       id="guide4163" />
    <sodipodi:guide
       position="2.0000117,30.000026"
       orientation="28,0"
       id="guide4167" />
    <sodipodi:guide
       position="2.0000117,2.0000264"
       orientation="0,28"
       id="guide4169" />
    <sodipodi:guide
       position="30.000012,2.0000264"
       orientation="-28,0"
       id="guide4171" />
    <sodipodi:guide
       position="30.000012,30.000026"
       orientation="0,-28"
       id="guide4173" />
    <sodipodi:guide
       position="2.0000117,30.000026"
       orientation="28,0"
       id="guide4181" />
    <sodipodi:guide
       position="2.0000117,2.0000264"
       orientation="0,14"
       id="guide4183" />
    <sodipodi:guide
       position="16.000012,2.0000264"
       orientation="-28,0"
       id="guide4185" />
    <sodipodi:guide
       position="16.000012,30.000026"
       orientation="0,-14"
       id="guide4187" />
    <sodipodi:guide
       position="9.0000117,23.000026"
       orientation="14,0"
       id="guide4193" />
    <sodipodi:guide
       position="9.0000117,9.0000264"
       orientation="0,14.000031"
       id="guide4195" />
    <sodipodi:guide
       position="23.000042,9.0000264"
       orientation="-14,0"
       id="guide4197" />
    <sodipodi:guide
       position="23.000042,23.000026"
       orientation="0,-14.000031"
       id="guide4199" />
  </sodipodi:namedview>
  <metadata
     id="metadata5458">
    <rdf:RDF>
      <cc:Work
         rdf:about="">
        <dc:format>image/svg+xml</dc:format>
        <dc:type
           rdf:resource="http://purl.org/dc/dcmitype/StillImage" />
        <dc:title></dc:title>
      </cc:Work>
    </rdf:RDF>
  </metadata>
  <g
     inkscape:label="Capa 1"
     inkscape:groupmode="layer"
     id="layer1"
     transform="translate(-384.57143,-499.798)">
    <g
       style="display:inline;enable-background:new"
       id="g4238"
       transform="translate(225.81911,462.44565)">
      <g
         style="display:inline"
         id="layer1-8"
         transform="matrix(0.22655187,0,0,0.22655187,106.94841,54.31088)">
        <g
           style="display:none"
           id="layer6" />
        <g
           id="g4027" />
        <g
           id="g4061" />
        <g
           id="g3751" />
        <g
           id="g3782" />
        <g
           id="g3725" />
        <g
           id="g4370"
           transform="matrix(4.4140002,0,0,4.4140002,59.275211,39.357303)">
          <g
             id="g4182"
             transform="translate(4.9999996,-10)">
            <path
               style="fill:url(#linearGradient4182);fill-opacity:1"
               sodipodi:nodetypes="csssccccccccscscc"
               inkscape:connector-curvature="0"
               id="path3"
               d="m 74.295962,-7.3506796 c -4.52579,-3.6832224 -10.535091,-5.7115524 -16.92082,-5.7115524 -6.385846,0 -12.395157,2.028466 -16.92084,5.7115524 -4.565154,3.7152 -7.0793,8.666576 -7.0793,13.9422014 0,5.0352512 2.291724,9.7743222 6.469466,13.4257052 -0.07534,0.169433 -0.135118,0.347687 -0.173283,0.535092 l -1.372738,6.752322 c -0.163225,0.802482 0.05614,1.280999 0.268667,1.541285 0.245735,0.300633 0.609961,0.466305 1.025684,0.466305 l 0,0 c 0.313889,0 0.651235,-0.09259 1.002753,-0.275333 l 7.984407,-4.147988 c 2.764354,0.889777 5.73619,1.356345 8.795018,1.356345 6.385875,0 12.39502,-2.028427 16.920859,-5.711522 4.565018,-3.715082 7.079164,-8.666469 7.079164,-13.9420842 0,-5.2757524 -2.514029,-10.2271284 -7.079047,-13.9423284 z" />
            <path
               style="clip-rule:evenodd;fill:#ffffff;fill-opacity:0.84693879;fill-rule:evenodd;stroke-width:1.31742239;stroke-miterlimit:4;stroke-dasharray:none"
               d="m 69.299316,5.5925338 c -0.03795,-0.337366 -0.431307,-0.590881 -0.77144,-0.590881 -1.099698,0 -2.07554,-0.64571 -2.48479,-1.644323 -0.418091,-1.0228124 -0.148502,-2.2156474 0.67107,-2.9674424 0.25798,-0.235834 0.289323,-0.630618 0.07296,-0.904851 -0.562842,-0.714736 -1.202568,-1.360356 -1.901053,-1.919894 -0.273518,-0.219493 -0.67482,-0.188953 -0.911994,0.07367 -0.715272,0.792158 -2.000084,1.086571 -2.992892,0.672321 -1.033175,-0.434611 -1.684689,-1.481533 -1.620931,-2.605341 0.02099,-0.352993 -0.236995,-0.659908 -0.588916,-0.700896 -0.896368,-0.103674 -1.800593,-0.106889 -2.699639,-0.0071 -0.347903,0.0384 -0.605883,0.33808 -0.594185,0.686607 0.03911,1.112735 -0.62026,2.141352 -1.643162,2.560335 -0.980932,0.400678 -2.256724,0.108765 -2.970568,-0.676338 -0.235923,-0.258606 -0.630707,-0.290395 -0.905565,-0.07617 -0.719201,0.56427 -1.373305,1.210426 -1.941325,1.919269 -0.221547,0.275572 -0.188954,0.674999 0.07162,0.912084 0.835199,0.756349 1.104877,1.959542 0.670981,2.9941424 -0.414251,0.986379 -1.438492,1.622088 -2.611056,1.622088 -0.380497,-0.01223 -0.651514,0.243157 -0.693127,0.589095 -0.105549,0.901546 -0.1068,1.820149 -0.0052,2.729018 0.03768,0.338794 0.443004,0.590077 0.786889,0.590077 1.044958,-0.0267 2.048214,0.62026 2.469073,1.6444122 0.419519,1.022812 0.149841,2.214933 -0.670981,2.967353 -0.25673,0.235834 -0.289323,0.629993 -0.07296,0.904225 0.557573,0.710183 1.197389,1.356428 1.898374,1.920609 0.274947,0.221547 0.674999,0.190293 0.913334,-0.07233 0.717951,-0.794122 2.002673,-1.087999 2.991552,-0.672945 1.035761,0.433271 1.687275,1.480105 1.623517,2.604538 -0.02081,0.353171 0.238424,0.660622 0.588916,0.700984 0.458542,0.05349 0.919853,0.08019 1.382413,0.08019 0.439076,0 0.87824,-0.02411 1.317316,-0.07296 0.347992,-0.0384 0.605793,-0.33808 0.594095,-0.687233 -0.04027,-1.11211 0.62026,-2.140726 1.641822,-2.558995 0.98754,-0.403357 2.257975,-0.10814 2.971907,0.67616 0.237264,0.258069 0.629279,0.289234 0.905655,0.07572 0.717862,-0.562931 1.370626,-1.208551 1.941326,-1.919359 0.221457,-0.274947 0.190203,-0.674999 -0.07171,-0.911994 -0.835199,-0.756349 -1.106217,-1.959721 -0.672321,-2.993607 0.407911,-0.9732522 1.394112,-1.6267312 2.454876,-1.6267312 l 0.148412,0.0038 c 0.344063,0.02795 0.660622,-0.237084 0.702324,-0.588291 0.105728,-0.90235 0.106978,-1.820149 0.0054,-2.729018 z M 57.393739,10.953057 c -2.207254,0 -4.002667,-1.7954132 -4.002667,-4.0026672 0,-2.207164 1.795413,-4.002667 4.002667,-4.002667 2.207164,0 4.002577,1.795503 4.002577,4.002667 0,2.207254 -1.795413,4.0026672 -4.002577,4.0026672 z"
               id="path6"
               inkscape:connector-curvature="0" />
          </g>
        </g>
      </g>
    </g>
  </g>
</svg>
