<?xml version="1.0" encoding="UTF-8" standalone="no"?>
<!-- Created with Inkscape (http://www.inkscape.org/) -->

<svg
   xmlns:dc="http://purl.org/dc/elements/1.1/"
   xmlns:cc="http://creativecommons.org/ns#"
   xmlns:rdf="http://www.w3.org/1999/02/22-rdf-syntax-ns#"
   xmlns:svg="http://www.w3.org/2000/svg"
   xmlns="http://www.w3.org/2000/svg"
   xmlns:xlink="http://www.w3.org/1999/xlink"
   xmlns:sodipodi="http://sodipodi.sourceforge.net/DTD/sodipodi-0.dtd"
   xmlns:inkscape="http://www.inkscape.org/namespaces/inkscape"
   width="48"
   height="48"
   id="svg5453"
   version="1.1"
   inkscape:version="0.91 r13725"
   sodipodi:docname="mameexecutor.svg">
  <defs
     id="defs5455">
    <linearGradient
       gradientTransform="matrix(0.38361611,0,0,0.38361611,-144.01662,-170.79926)"
       inkscape:collect="always"
       xlink:href="#linearGradient4395"
       id="linearGradient4343"
       x1="374.59808"
       y1="545.91602"
       x2="374.97485"
       y2="526.02411"
       gradientUnits="userSpaceOnUse" />
    <linearGradient
       id="linearGradient4395"
       inkscape:collect="always">
      <stop
         id="stop4397"
         offset="0"
         style="stop-color:#00cafe;stop-opacity:1" />
      <stop
         id="stop4399"
         offset="1"
         style="stop-color:#1460f3;stop-opacity:1" />
    </linearGradient>
    <linearGradient
       gradientTransform="matrix(0.63636365,0,0,0.62141556,-261.04169,-296.65928)"
       gradientUnits="userSpaceOnUse"
       y2="507.798"
       x2="409.57144"
       y1="542.79797"
       x1="409.57144"
       id="linearGradient4222"
       xlink:href="#linearGradient4503"
       inkscape:collect="always" />
    <linearGradient
       id="linearGradient4503"
       inkscape:collect="always">
      <stop
         id="stop4505-8"
         offset="0"
         style="stop-color:#141414;stop-opacity:1" />
      <stop
         id="stop4507"
         offset="1"
         style="stop-color:#2d2d2f;stop-opacity:1" />
    </linearGradient>
    <linearGradient
       gradientTransform="matrix(0.58333334,0,0,0.58333334,-15.041668,15.458342)"
       inkscape:collect="always"
       xlink:href="#linearGradient4395"
       id="linearGradient4352"
       x1="24.785156"
       y1="29.703125"
       x2="24.714844"
       y2="10.703125"
       gradientUnits="userSpaceOnUse" />
  </defs>
  <sodipodi:namedview
     id="base"
     pagecolor="#ffffff"
     bordercolor="#666666"
     borderopacity="1.0"
     inkscape:pageopacity="0"
     inkscape:pageshadow="2"
     inkscape:zoom="4"
     inkscape:cx="-80.941894"
     inkscape:cy="15.968792"
     inkscape:document-units="px"
     inkscape:current-layer="g4182"
     showgrid="true"
     fit-margin-top="0"
     fit-margin-left="0"
     fit-margin-right="0"
     fit-margin-bottom="0"
     inkscape:window-width="1366"
     inkscape:window-height="634"
     inkscape:window-x="0"
     inkscape:window-y="36"
     inkscape:window-maximized="1"
     inkscape:showpageshadow="false"
     borderlayer="true"
     showguides="false">
    <inkscape:grid
       type="xygrid"
       id="grid4063" />
    <sodipodi:guide
       position="1.1650391e-05,32.000026"
       orientation="32,0"
       id="guide4157" />
    <sodipodi:guide
       position="1.1650391e-05,2.6367188e-05"
       orientation="0,32"
       id="guide4159" />
    <sodipodi:guide
       position="32.000012,2.6367188e-05"
       orientation="-32,0"
       id="guide4161" />
    <sodipodi:guide
       position="32.000012,32.000026"
       orientation="0,-32"
       id="guide4163" />
    <sodipodi:guide
       position="2.0000117,30.000026"
       orientation="28,0"
       id="guide4167" />
    <sodipodi:guide
       position="2.0000117,2.0000264"
       orientation="0,28"
       id="guide4169" />
    <sodipodi:guide
       position="30.000012,2.0000264"
       orientation="-28,0"
       id="guide4171" />
    <sodipodi:guide
       position="30.000012,30.000026"
       orientation="0,-28"
       id="guide4173" />
    <sodipodi:guide
       position="2.0000117,30.000026"
       orientation="28,0"
       id="guide4181" />
    <sodipodi:guide
       position="2.0000117,2.0000264"
       orientation="0,14"
       id="guide4183" />
    <sodipodi:guide
       position="16.000012,2.0000264"
       orientation="-28,0"
       id="guide4185" />
    <sodipodi:guide
       position="16.000012,30.000026"
       orientation="0,-14"
       id="guide4187" />
    <sodipodi:guide
       position="9.0000117,23.000026"
       orientation="14,0"
       id="guide4193" />
    <sodipodi:guide
       position="9.0000117,9.0000264"
       orientation="0,14.000031"
       id="guide4195" />
    <sodipodi:guide
       position="23.000042,9.0000264"
       orientation="-14,0"
       id="guide4197" />
    <sodipodi:guide
       position="23.000042,23.000026"
       orientation="0,-14.000031"
       id="guide4199" />
  </sodipodi:namedview>
  <metadata
     id="metadata5458">
    <rdf:RDF>
      <cc:Work
         rdf:about="">
        <dc:format>image/svg+xml</dc:format>
        <dc:type
           rdf:resource="http://purl.org/dc/dcmitype/StillImage" />
        <dc:title></dc:title>
      </cc:Work>
    </rdf:RDF>
  </metadata>
  <g
     inkscape:label="Capa 1"
     inkscape:groupmode="layer"
     id="layer1"
     transform="translate(-384.57143,-499.798)">
    <g
       style="display:inline;enable-background:new"
       id="g4238"
       transform="translate(225.81911,462.44565)">
      <g
         style="display:inline"
         id="layer1-8"
         transform="matrix(0.22655187,0,0,0.22655187,106.94841,54.31088)">
        <g
           style="display:none"
           id="layer6" />
        <g
           id="g4027" />
        <g
           id="g4061" />
        <g
           id="g3751" />
        <g
           id="g3782" />
        <g
           id="g3725" />
        <g
           id="g4370"
           transform="matrix(4.4140002,0,0,4.4140002,59.275211,39.357303)">
          <g
             id="g4182"
             transform="matrix(1.7142857,0,0,1.7142857,-30.839285,-12.375017)">
            <g
               id="g4198"
               transform="translate(55.416666,-23.333334)">
              <rect
                 ry="0.9942649"
                 y="18.894279"
                 x="-15.041666"
                 height="21.128128"
                 width="28"
                 id="rect4195"
                 style="opacity:1;fill:url(#linearGradient4222);fill-opacity:1;stroke:none;stroke-width:0.2;stroke-linecap:round;stroke-linejoin:round;stroke-miterlimit:4;stroke-dasharray:none;stroke-opacity:1" />
              <path
                 sodipodi:nodetypes="sscssscccccccccccccccccssscssscccccccccsssscccsscssscccsssscccccccscsccss"
                 inkscape:connector-curvature="0"
                 id="path4147"
                 d="m -9.4542894,37.824594 c 0,-0.02214 0.425004,-0.457459 0.944455,-0.967392 l 0.944459,-0.927154 0,-0.749801 c 0,-0.412391 -0.02966,-0.7498 -0.06586,-0.7498 -0.03621,0 -0.490208,0.425832 -1.008849,0.946292 l -0.942994,0.946296 -0.04293,-1.121815 -0.04293,-1.121817 -1.0732456,1.030597 -1.073243,1.030596 -1.029787,0.0038 -1.029787,0.0038 2.618188,-2.619619 2.6181876,-2.619622 0.04294,1.106705 0.04293,1.106706 1.159104,-1.098408 1.159107,-1.098404 0.04293,1.793977 0.04293,1.793973 1.824521,-1.816441 1.824516,-1.816442 0,2.03277 c 0,1.118019 0.0239,2.032767 0.05305,2.032767 0.02916,0 0.9951,-0.912769 2.14648903,-2.028374 l 2.09344297,-2.028378 0,1.083923 c 0,0.596158 0.02954,1.083919 0.06563,1.083919 0.0361,0 0.567353,-0.502925 1.180571,-1.117605 l 1.114938,-1.117611 0.04293,1.764848 0.04293,1.764846 1.760122,-1.717281 1.760119,-1.717281 2.015554,-0.0034 2.0155534,-0.0034 -0.639649,0.643946 -0.639653,0.643949 -1.0473414,0 c -1.001483,0 -1.058903,0.0097 -1.311507,0.222279 -0.14529,0.122255 -0.264165,0.257483 -0.264165,0.300506 0,0.04303 0.221254,0.07823 0.49168,0.07823 l 0.491677,0 -0.682848,0.68688 -0.682848,0.686876 -0.564725,0 c -0.532678,0 -0.581252,0.01707 -0.855986,0.300506 l -0.291268,0.300509 1.776967,0 c 0.977328,0 1.776968,0.03315 1.776968,0.07362 0,0.04049 -0.305627,0.349594 -0.679166,0.686876 l -0.679169,0.613257 -2.770184,0 -2.770184,0 0.186687,-0.198717 c 0.158241,-0.16845 0.186683,-0.299259 0.186683,-0.858599 0,-0.362934 -0.02444,-0.659877 -0.0543,-0.659877 -0.02989,0 -0.493507,0.409626 -1.030316,0.910283 l -0.97601597,0.910287 0,-1.14516 0,-1.145159 -1.095903,1.093467 -1.09590303,1.093475 -1.179374,0 -1.179377,0 0,-0.858602 c 0,-0.472224 -0.029,-0.856922 -0.0644,-0.854873 -0.03541,0.0023 -0.85645,0.774705 -1.824513,1.717023 l -1.760123,1.713307 -1.008853,1.68e-4 c -0.554862,1.16e-4 -1.008849,-0.01795 -1.008849,-0.04007 z"
                 style="fill:url(#linearGradient4343);fill-opacity:1" />
              <path
                 id="path5"
                 d="m -4.2602554,21.591318 c -0.06504,-1.16e-4 -0.08089,0.05448 -0.08089,0.119628 l 0,0.708659 c -1.9e-5,0.06502 0.01584,0.113932 0.08089,0.113932 l 0.713216,0 c 0.06504,0 0.116673,-0.05118 0.116211,-0.11621 -0.0019,-0.23566 -0.0022,-0.472884 -0.0023,-0.708659 0,-0.06504 -0.0522,-0.11735 -0.11735,-0.11735 l -0.709798,0 z m 5.728516,0 c -0.06502,0 -0.153809,0.05343 -0.153809,0.118489 l 0,0.713216 c 0,0.06504 0.07052,0.117928 0.135579,0.11735 0.235661,-0.0019 0.46377,-0.0022 0.699545,-0.0023 0.06513,0 0.108236,-0.05345 0.108236,-0.118489 l 0,-0.709798 c 0,-0.06504 -0.01587,-0.11849 -0.08089,-0.11849 l -0.708659,0 z m -4.756673,0.946777 c -0.06529,-4.62e-4 -0.109375,0.05231 -0.109375,0.11735 l 0,0.729167 c 0,0.06517 -0.0841,0.09229 -0.149252,0.09229 l -0.72347,0 c -0.06504,0 -0.07064,0.07852 -0.07064,0.143555 l 0,0.720051 c 0,0.06515 -0.100164,0.07861 -0.165202,0.07861 l -0.721191,0 c -0.06504,0 -0.174316,0.09207 -0.174316,0.157227 l 0,0.721192 c 0,0.06504 0.0035,0.0638 -0.06152,0.0638 l -0.709798,0 c -0.06504,0 -0.170899,0.107001 -0.170899,0.172038 l 0,2.612467 c 0,0.06517 0.105842,0.161784 0.170899,0.161784 l 0.709798,0 c 0.06504,0 0.06152,-0.09675 0.06152,-0.161784 l 0,-1.662272 c 0,-0.06517 0.10812,-0.06152 0.173177,-0.06152 l 0.729167,0 c 0.06504,0 0.158365,-0.0035 0.158365,0.06152 l 0,1.673665 c 0,0.06504 0.03281,0.117351 0.09798,0.117351 0.241782,0 0.486083,5.27e-4 0.718913,0.0023 0.06504,5.83e-4 0.126465,-0.0523 0.126465,-0.11735 l 0,-0.717773 c 0,-0.06506 0.0146,-0.07747 0.07975,-0.07747 l 4.553874,0 c 0.06506,0 0.11735,0.03295 0.11735,0.09798 0,0.241802 -4.11e-4,0.485763 -0.0023,0.721191 -4.81e-4,0.06515 0.0523,0.124187 0.117351,0.124187 l 0.717773,0 c 0.0649,0 0.07178,-0.08649 0.07178,-0.15153 l 0,-1.671387 c 0,-0.06506 0.09779,-0.06266 0.162923,-0.06266 l 0.732584,0 c 0.06502,0 0.165202,-0.0024 0.165202,0.06266 l 0,1.661133 c 0,0.06504 0.0056,0.161784 0.07064,0.161784 l 0.700684,0 c 0.06506,0 0.170898,-0.09673 0.170898,-0.161784 l 0,-2.617025 c 3.9e-5,-0.06513 -0.10588,-0.167481 -0.170898,-0.167481 l -0.716634,0 c -0.06506,0 -0.173178,-0.0033 -0.173178,-0.06836 l 0,-0.72347 c 0,-0.06504 0.0036,-0.150391 -0.06152,-0.150391 l -0.720052,0 c -0.06517,0 -0.160644,-0.02041 -0.160644,-0.08545 l 0,-0.718912 c 0,-0.06515 -0.01014,-0.138998 -0.0752,-0.138998 l -0.717773,0 c -0.06506,0 -0.150391,-0.0318 -0.150391,-0.09684 l 0,-0.72347 c 0,-0.06504 -0.03638,-0.116788 -0.1014,-0.116211 -0.23510097,0.0019 -0.47599697,0.0023 -0.72005197,0.0023 -0.06502,0 -0.120768,0.05231 -0.120768,0.117351 l 0,0.716634 c -1.15e-4,0.06527 -0.02941,0.10026 -0.09456,0.10026 l -2.64436903,0 c -0.06504,0 -0.08887,-0.03522 -0.08887,-0.10026 l 0,-0.716634 c 0,-0.06504 -0.06712,-0.11849 -0.132162,-0.11849 -0.241667,0 -0.467969,-3.92e-4 -0.700683,-0.0023 z m -0.0262,1.881022 0.720052,0 c 0.06504,0 0.138997,0.08408 0.138997,0.149252 -1.9e-5,0.239529 0,0.477726 0,0.718912 0,0.06506 -0.07396,0.07406 -0.138997,0.07406 l -0.720052,0 c -0.06515,0 -0.08317,-0.009 -0.08317,-0.07406 l 0,-0.718912 c 0,-0.06504 0.018,-0.149252 0.08317,-0.149252 z m 3.82584503,0 0.71891297,0 c 0.06502,0 0.08431,0.08533 0.08431,0.150391 l 0,0.720052 c 0,0.06504 -0.01929,0.07178 -0.08431,0.07178 l -0.71891297,0 c -0.06517,0 -0.138997,-0.0066 -0.138997,-0.07178 l 0,-0.720052 c 0,-0.06492 0.07394,-0.150391 0.138997,-0.150391 z m -3.82812803,3.858887 c -0.06504,-2.31e-4 -0.117947,0.05332 -0.117349,0.11849 0.0019,0.23564 0.0022,0.486555 0.0023,0.72233 0,0.06504 0.05115,0.131022 0.11621,0.131022 l 1.66683,0 c 0.06504,-1.15e-4 0.135579,-0.0808 0.135579,-0.145833 l 0,-0.702962 c 0,-0.06517 -0.06143,-0.118625 -0.126465,-0.11849 -0.177322,1.16e-4 -0.356528,4.81e-4 -0.530924,0 -0.38131,-0.0012 -0.764867,-0.003 -1.146159,-0.0046 z m 4.59375,0.0023 c -0.01827,0.0014 -0.02809,0.01481 -0.04671,0.01481 -0.56101997,3.46e-4 -1.11268297,0.01253 -1.67366497,0.01253 l -0.05355,0 c -0.02944,0 -0.07292,0.02839 -0.07292,0.09342 l 0,0.704101 c 0,0.06504 0.0727,0.144694 0.137858,0.144694 l 1.66455097,0 c 0.06506,0 0.08203,-0.07966 0.08203,-0.144694 l 0,-0.713216 c 2e-5,-0.06504 -0.0068,-0.114022 -0.0376,-0.111653 z"
                 style="fill:url(#linearGradient4352);fill-opacity:1"
                 inkscape:connector-curvature="0" />
            </g>
          </g>
        </g>
      </g>
    </g>
  </g>
</svg>
