<?xml version="1.0" encoding="UTF-8" standalone="no"?>
<!-- Created with Inkscape (http://www.inkscape.org/) -->

<svg
   xmlns:dc="http://purl.org/dc/elements/1.1/"
   xmlns:cc="http://creativecommons.org/ns#"
   xmlns:rdf="http://www.w3.org/1999/02/22-rdf-syntax-ns#"
   xmlns:svg="http://www.w3.org/2000/svg"
   xmlns="http://www.w3.org/2000/svg"
   xmlns:xlink="http://www.w3.org/1999/xlink"
   xmlns:sodipodi="http://sodipodi.sourceforge.net/DTD/sodipodi-0.dtd"
   xmlns:inkscape="http://www.inkscape.org/namespaces/inkscape"
   width="48"
   height="48"
   id="svg5453"
   version="1.1"
   inkscape:version="0.91 r13725"
   sodipodi:docname="ModemManager.svg">
  <defs
     id="defs5455">
    <linearGradient
       inkscape:collect="always"
       id="linearGradient4194">
      <stop
         style="stop-color:#187ced;stop-opacity:1"
         offset="0"
         id="stop4196" />
      <stop
         style="stop-color:#42d6fc;stop-opacity:1"
         offset="1"
         id="stop4198" />
    </linearGradient>
    <linearGradient
       gradientTransform="matrix(1.7992084,0,0,1.7945613,-6.4450007,9.4008207)"
       gradientUnits="userSpaceOnUse"
       y2="2.3195643"
       x2="16.038231"
       y1="29.505291"
       x1="16.038231"
       id="linearGradient4161-1-2"
       xlink:href="#linearGradient4263"
       inkscape:collect="always" />
    <linearGradient
       id="linearGradient4263"
       inkscape:collect="always">
      <stop
         id="stop4265"
         offset="0"
         style="stop-color:#0164c2;stop-opacity:1" />
      <stop
         id="stop4267"
         offset="1"
         style="stop-color:#00a9f3;stop-opacity:1" />
    </linearGradient>
    <linearGradient
       inkscape:collect="always"
       xlink:href="#linearGradient4194"
       id="linearGradient4208"
       x1="23.375189"
       y1="62.124619"
       x2="23.375189"
       y2="17.124619"
       gradientUnits="userSpaceOnUse"
       gradientTransform="matrix(1.0516635,0,0,1.0509782,-1.1397829,-1.9435207)" />
  </defs>
  <sodipodi:namedview
     id="base"
     pagecolor="#ffffff"
     bordercolor="#666666"
     borderopacity="1.0"
     inkscape:pageopacity="0"
     inkscape:pageshadow="2"
     inkscape:zoom="4"
     inkscape:cx="-39.601104"
     inkscape:cy="15.968792"
     inkscape:document-units="px"
     inkscape:current-layer="g4370"
     showgrid="true"
     fit-margin-top="0"
     fit-margin-left="0"
     fit-margin-right="0"
     fit-margin-bottom="0"
     inkscape:window-width="1366"
     inkscape:window-height="634"
     inkscape:window-x="0"
     inkscape:window-y="36"
     inkscape:window-maximized="1"
     inkscape:showpageshadow="false"
     borderlayer="true"
     showguides="false">
    <inkscape:grid
       type="xygrid"
       id="grid4063" />
    <sodipodi:guide
       position="1.1650391e-05,32.000026"
       orientation="32,0"
       id="guide4157" />
    <sodipodi:guide
       position="1.1650391e-05,2.6367188e-05"
       orientation="0,32"
       id="guide4159" />
    <sodipodi:guide
       position="32.000012,2.6367188e-05"
       orientation="-32,0"
       id="guide4161" />
    <sodipodi:guide
       position="32.000012,32.000026"
       orientation="0,-32"
       id="guide4163" />
    <sodipodi:guide
       position="2.0000117,30.000026"
       orientation="28,0"
       id="guide4167" />
    <sodipodi:guide
       position="2.0000117,2.0000264"
       orientation="0,28"
       id="guide4169" />
    <sodipodi:guide
       position="30.000012,2.0000264"
       orientation="-28,0"
       id="guide4171" />
    <sodipodi:guide
       position="30.000012,30.000026"
       orientation="0,-28"
       id="guide4173" />
    <sodipodi:guide
       position="2.0000117,30.000026"
       orientation="28,0"
       id="guide4181" />
    <sodipodi:guide
       position="2.0000117,2.0000264"
       orientation="0,14"
       id="guide4183" />
    <sodipodi:guide
       position="16.000012,2.0000264"
       orientation="-28,0"
       id="guide4185" />
    <sodipodi:guide
       position="16.000012,30.000026"
       orientation="0,-14"
       id="guide4187" />
    <sodipodi:guide
       position="9.0000117,23.000026"
       orientation="14,0"
       id="guide4193" />
    <sodipodi:guide
       position="9.0000117,9.0000264"
       orientation="0,14.000031"
       id="guide4195" />
    <sodipodi:guide
       position="23.000042,9.0000264"
       orientation="-14,0"
       id="guide4197" />
    <sodipodi:guide
       position="23.000042,23.000026"
       orientation="0,-14.000031"
       id="guide4199" />
  </sodipodi:namedview>
  <metadata
     id="metadata5458">
    <rdf:RDF>
      <cc:Work
         rdf:about="">
        <dc:format>image/svg+xml</dc:format>
        <dc:type
           rdf:resource="http://purl.org/dc/dcmitype/StillImage" />
        <dc:title></dc:title>
      </cc:Work>
    </rdf:RDF>
  </metadata>
  <g
     inkscape:label="Capa 1"
     inkscape:groupmode="layer"
     id="layer1"
     transform="translate(-384.57143,-499.798)">
    <g
       style="display:inline;enable-background:new"
       id="g4238"
       transform="translate(225.81911,462.44565)">
      <g
         style="display:inline"
         id="layer1-8"
         transform="matrix(0.22655187,0,0,0.22655187,106.94841,54.31088)">
        <g
           style="display:none"
           id="layer6" />
        <g
           id="g4027" />
        <g
           id="g4061" />
        <g
           id="g3751" />
        <g
           id="g3782" />
        <g
           id="g3725" />
        <g
           id="g4370"
           transform="matrix(4.4140002,0,0,4.4140002,59.275211,39.357303)">
          <g
             id="g4197"
             transform="translate(39.999811,-39.999619)">
            <circle
               style="opacity:1;fill:url(#linearGradient4208);fill-opacity:1;stroke:none;stroke-width:2.32755327;stroke-miterlimit:4;stroke-dasharray:none;stroke-dashoffset:0;stroke-opacity:1"
               id="path3377"
               cx="22.375189"
               cy="38.124619"
               r="24" />
            <path
               id="path34-7-3"
               d="m 22.38797,14.197917 c -3.025388,0 -5.90503,0.575645 -8.566259,1.586396 -0.193539,0.177419 -0.445141,0.313636 -0.644173,0.296753 -0.02804,-0.0033 -0.05412,-0.01892 -0.08313,-0.03034 -1.311819,0.54741 -2.556186,1.218102 -3.7361327,1.978898 0.153227,0.248226 0.198869,0.524606 -0.116224,0.658882 -0.05298,0.02137 -0.720314,0.08988 -0.95335,0.08498 -3.355429,2.431864 -6.047091,5.702606 -7.76750502,9.520824 0.02771,-0.0049 0.05167,-0.01631 0.08085,-0.01762 0.261122,-0.0049 0.63687002,0.06981 0.88767402,0.123314 0.231438,0.04747 0.418114,0.202327 0.618434,0.217333 0.56844,0.04339 0.705106,-0.397883 1.16883,-0.644854 0.479225,0.06688 0.797172,-0.08156 1.229843,-0.03327 0.294945,0.03327 0.508029,0.346845 0.737853,0.364478 0.193343,0.01892 0.363458,-0.180714 0.550509,-0.152185 0.18177,0.02854 0.495152,0.423231 0.524738,0.644837 0.03831,0.275793 -0.203433,0.52415 -0.123886,0.827102 0.289697,0.294208 0.815983,0.353843 1.229794,0.523351 0.26955,-0.221542 0.03619,-0.632589 0,-0.953238 -0.0049,-0.141583 0.01891,-0.267115 0,-0.397215 -0.0238,-0.220839 -0.119158,-0.423101 -0.120625,-0.612117 -0.0049,-0.872904 0.706018,-1.281455 1.293008,-1.626082 0.254096,-0.150228 0.454155,-0.413477 0.674607,-0.523432 0.311426,-0.155611 0.54332,-0.191969 0.8010997,-0.336455 0.465957,-0.261031 0.865489,-0.470502 1.229827,-0.766292 0.168175,-0.395829 0.0163,-0.926552 0.0313,-1.317748 0.168257,-0.102925 0.313236,0.04437 0.491876,0.0305 0.28109,-0.05791 0.304498,-0.454093 0.463805,-0.612052 0.09243,-0.09085 0.346391,-0.155121 0.461377,-0.245389 0.28021,-0.219159 0.371429,-0.550297 0.616201,-0.644789 0.08786,-0.03589 0.290202,-0.0243 0.428661,-0.06231 0.182047,-0.04828 0.441229,-0.262955 0.737805,-0.364363 0.193294,-0.06688 0.636006,-0.0809 0.709767,-0.15398 0.09112,-0.09249 -0.0013,-0.352097 0.0313,-0.49063 0.149151,-0.692467 1.194829,-0.839237 1.813002,-1.072424 0.43329,-0.162951 0.877828,-0.46357 1.353941,-0.371508 -0.0934,0.329114 -0.536686,0.212488 -0.461523,0.612166 0.103672,0.554587 0.848389,-0.158384 1.044829,-0.240658 0.375104,-0.157407 1.018478,-0.254069 1.51081,-0.432238 0.431726,-0.157405 1.205702,-0.397671 0.798851,-0.890145 -0.339463,-0.01892 -0.503008,0.397199 -0.798851,0.523335 -0.20433,0.03344 -0.164866,-0.170552 -0.339642,-0.186831 -0.165143,-0.01892 -0.258481,0.152349 -0.428759,0.122825 -0.169137,-0.02773 -0.406834,-0.293246 -0.43329,-0.490614 -0.067,-0.512063 0.433877,-0.723165 0.646569,-1.105161 -0.141165,-0.46313 -0.783039,-0.09444 -1.171242,-0.27563 0.03814,-0.275793 0.323489,-0.465984 0.646472,-0.51867 0.264773,-0.04437 0.858968,-0.02137 1.016645,0.118095 0.09145,0.07862 0.0065,0.270867 0.154368,0.399498 0.156651,0.141583 0.349521,0.12625 0.552906,0.09379 0.07238,-0.349536 -0.455737,-0.261846 -0.398211,-0.492995 0.415424,-0.271062 1.091286,-0.04877 1.599935,-0.123314 0.292745,-0.04339 0.600096,-0.249221 0.85962,-0.394817 0.246777,-0.140114 0.567364,-0.383627 0.82922,-0.154142 0.06944,0.250477 -0.228064,0.333372 -0.367794,0.457926 -0.470489,0.417538 -0.955322,0.895853 -1.321046,1.380775 0.224315,0.218327 0.632143,0.108307 1.011935,0.153979 0.148499,0.01892 0.33485,0.0628 0.491826,0.09167 0.183775,0.03344 0.378813,0.02284 0.522341,0.06068 0.258449,0.06264 0.327482,0.338771 0.583307,0.338771 0.420771,-7.5e-4 0.425792,-0.454729 0.187312,-0.738318 0.07531,-0.289511 0.193294,-0.439723 0.09194,-0.642522 -0.189533,-0.378081 -0.884874,-0.01892 -0.920573,-0.49063 -0.02184,-0.305871 0.25659,-0.292202 0.367745,-0.520969 -0.05053,-0.590994 0.485958,-0.633812 0.428628,-1.163524 -0.02396,-0.221606 -0.212154,-0.224673 -0.367761,-0.432268 -0.07906,-0.101293 -0.117854,-0.297683 -0.208454,-0.385487 -0.71769,-0.06247 -1.443481,-0.102598 -2.178384,-0.102598 z m -12.377473,4.826946 0.0033,0 c 0.143447,0.01892 0.31617,0.173766 0.489528,0.187059 0.163399,0.0049 0.299527,-0.09053 0.400591,-0.06247 0.257177,0.06704 0.365594,0.454974 0.122908,0.644822 -0.201037,0.0243 -0.279411,-0.08825 -0.430959,-0.06084 -0.417707,0.06998 -0.57796,0.88685 -0.8901677,0.859822 -0.294376,-0.02365 -0.453699,-0.740243 -0.154206,-0.953221 0.01891,-0.186031 -0.1366,-0.215767 -0.126167,-0.399547 0.08884,-0.112875 0.340979,-0.234591 0.5856037,-0.214903 z m -1.3843417,0.09607 c 0.08558,0.0033 0.149641,0.02284 0.182683,0.06035 -0.04108,0.326978 -0.297326,0.305513 -0.550493,0.45791 -0.4373,0.263201 -0.69006,0.664363 -0.829203,1.226616 -0.04059,0.162951 -0.471173,0.597127 -0.679301,0.553739 -0.487719,-0.102435 0.135459,-0.999235 0.245946,-1.135533 0.123722,-0.151044 0.288344,-0.283476 0.433355,-0.45791 0.140513,-0.168839 0.232221,-0.396921 0.367762,-0.49063 0.148499,-0.102435 0.572303,-0.224787 0.829219,-0.21487 z m 3.6401057,1.102748 c 0.155998,0.0033 0.296673,0.02855 0.360768,0.09167 -0.10025,0.40511 -0.975388,0.298139 -1.295339,0.151533 0.01891,-0.152675 0.260111,-0.19497 0.461425,-0.214886 0.14198,-0.0049 0.317245,-0.03344 0.473146,-0.02822 z m -1.990975,0.747697 c 0.103673,-0.0033 0.20927,0.01892 0.318517,0.04877 -0.283013,0.23614 -0.589125,0.369894 -1.0751977,0.523319 -0.233703,0.07291 -0.637294,0.164402 -0.676937,-0.09607 -0.04841,-0.319051 0.341761,-0.244834 0.555106,-0.273363 0.268734,-0.03752 0.56368,-0.193176 0.8785117,-0.203338 z m 30.545447,1.817708 c -0.037,0.08808 -0.06243,0.17295 -0.05852,0.256954 0.01891,0.148107 0.18159,0.290456 0.217794,0.490695 0.01891,0.10635 -0.04988,0.335411 0,0.432252 0.148174,0.286395 0.535627,0.08139 0.81287,0.09607 -0.31493,-0.432529 -0.629453,-0.865874 -0.972144,-1.275632 z m 1.571784,2.109763 c -0.04434,0.211347 -0.18811,0.487009 -0.304514,0.663515 -0.268082,0.406675 -0.632241,0.425645 -1.016629,0.642489 -0.320555,0.181285 -0.458589,0.483812 -0.646521,0.799046 -0.203694,0.340565 -0.329846,0.546317 -0.245897,1.039769 -0.274879,0.543724 -0.691021,0.876818 -1.260276,1.135452 -0.16811,0.07585 -0.398358,0.104066 -0.55284,0.21487 -0.122582,0.08857 -0.192855,0.325134 -0.367745,0.520985 -0.215627,0.239419 -0.441783,0.340435 -0.555155,0.523351 -0.08786,0.141583 -0.117529,0.422497 -0.215447,0.612134 -0.131873,0.257654 -0.410893,0.383855 -0.583372,0.64487 -0.07857,0.120378 -0.13171,0.36531 -0.217761,0.523384 -0.194925,0.353125 -0.527705,0.607533 -0.491974,0.918167 0.03603,0.300228 0.377281,0.352767 0.400543,0.614466 0.0049,0.147945 -0.09797,0.238375 -0.09194,0.399531 0.0049,0.235406 0.164116,0.400657 0.182683,0.581795 0.04597,0.45543 -0.15502,0.637188 -0.241251,0.94854 -0.04108,0.148759 -0.02282,0.316114 -0.0626,0.432268 -0.07661,0.227935 -0.394201,0.433687 -0.400591,0.7032 -0.0033,0.191626 0.197157,0.345622 0.213279,0.614547 0.0049,0.185624 -0.09177,0.383269 -0.05803,0.553739 0.06488,0.333731 0.662805,0.721942 0.922998,0.981211 0.347874,0.34709 0.803366,0.615641 0.953333,0.981342 0.125842,0.310536 0.124701,0.714455 0.367778,0.948572 0.179357,0.172754 0.477645,0.280524 0.707404,0.46021 0.214387,0.167501 0.447879,0.312673 0.67697,0.490614 0.374314,0.292169 0.940309,0.874404 1.536623,0.829515 0.311443,-0.02137 0.630595,-0.276184 0.983898,-0.33882 0.363376,-0.06443 0.835006,-0.09868 1.201593,-0.06035 0.280846,0.02773 0.570103,0.19559 0.862033,0.182182 0.308231,-0.01892 0.661729,-0.246922 1.011967,-0.399466 0.281808,-0.122009 0.627645,-0.257965 1.007224,-0.357529 0.174206,-1.166933 0.267055,-2.362492 0.267055,-3.579354 0,-4.898863 -1.468632,-9.439414 -3.982095,-13.223982 z M 2.7208483,32.938355 c -0.510947,0.02822 -0.845634,0.05106 -1.136097,0.182231 -0.66542902,0.302038 -0.536931,1.198952 -1.20177302,1.41118 -0.229776,0.07275 -0.545521,0.07683 -0.798574,0.122987 -0.21861,0.04029 -0.484752,0.158384 -0.70978398,0.153817 -0.06259,-7.67e-4 -0.151108,-0.04763 -0.229629,-0.07144 -0.05852,0.42054 -0.107748,0.845827 -0.145728,1.27325 0.63253398,0.120215 0.95897298,0.957005 1.51800698,1.23363 0.153065,0.07617 0.353238,0.08074 0.550412,0.123641 0.158606,0.03589 0.280047,0.102435 0.43327402,0.154305 0.325363,0.109776 0.723704,0.09689 0.98393,0.212717 0.391968,0.173553 0.67948,0.908397 1.016613,1.105113 0.01891,0.198215 -0.03928,0.464385 0.0313,0.612068 0.158769,0.215555 0.384045,0.167697 0.646422,0.308416 0.313969,0.168839 0.41003,0.605038 0.707486,0.738302 0.102531,0.04567 0.360051,0.03964 0.522357,0.08939 0.40765,0.122662 0.540696,0.59349 0.890152,0.490679 0.229156,-0.06688 0.211079,-0.302527 0.248261,-0.521051 0.151434,-0.16295 0.316739,-0.422921 0.552807,-0.427554 0.382139,-0.01892 0.416175,0.393855 0.555139,0.763977 0.0789,0.209258 0.28373,0.391489 0.337344,0.61215 0.09536,0.38118 0.04792,1.522162 -0.03358,1.749983 -0.09634,0.279512 -0.475819,0.39803 -0.709752,0.70793 -0.11003,0.145498 -0.162355,0.358149 -0.245962,0.460258 -0.150619,0.183047 -0.374493,0.230774 -0.487164,0.399548 -0.06325,0.0951 -0.125516,0.299036 -0.187557,0.427521 -0.184654,0.39038 -0.431741,0.666924 -0.276428,1.135517 0.06455,0.192817 0.366979,0.322085 0.367794,0.549041 8.64e-4,0.267099 -0.569548,0.506224 -0.613674,0.79903 -0.03358,0.217887 0.176423,0.606718 0.24588,0.890194 0.05086,0.21425 0.456666,0.348166 0.583307,0.49063 0.215854,0.241751 0.388398,0.584208 0.585572,0.887861 0.389962,0.597209 0.695553,1.325528 1.07523,1.904158 0.200597,0.303082 0.482356,0.575547 0.616022,0.890145 0.06781,0.158384 0.05852,0.347987 0.121114,0.490647 0.219702,0.494789 1.190298,1.011387 1.6912197,1.257004 0.234421,0.113364 0.494614,0.153979 0.709767,0.273313 0.325934,0.181301 0.971542,0.668212 1.136114,0.953303 0.14687,0.256203 0.237893,0.879885 0.309144,1.287294 0.09552,0.538455 0.0011,0.9519 0.0313,1.535032 0.01891,0.315381 0.119811,0.632425 0.123886,0.948605 0.0012,0.110428 -0.05852,0.193029 -0.06292,0.306034 -1.79e-4,0.01762 0.0065,0.03964 0.0065,0.0579 3.020791,1.363485 6.368167,2.140136 9.910876,2.140136 0.640049,0 1.272567,-0.03377 1.899673,-0.08286 0.0282,-0.04714 0.05265,-0.09624 0.08754,-0.140278 0.144751,-0.189082 0.272679,-0.35461 0.367908,-0.521051 0.09112,-0.560133 -0.224005,-0.951362 -0.09194,-1.441486 0.147033,-0.550786 0.910251,-0.887095 1.445421,-1.135631 0.183889,-0.08531 0.372407,-0.223694 0.522227,-0.275663 0.370369,-0.128696 0.832757,-0.05823 1.171242,-0.182214 0.576264,-0.210335 0.636447,-0.826824 0.920569,-1.350485 0.134644,-0.247835 0.3111,-0.496257 0.337344,-0.672812 0.02266,-0.158383 -0.05819,-0.308056 -0.03342,-0.495327 0.02755,-0.185233 0.194403,-0.345476 0.24593,-0.549091 0.067,-0.265663 0.09634,-0.654934 0.09634,-0.950855 0,-0.242958 -0.113616,-0.456067 -0.122744,-0.675259 -0.04026,-0.795637 0.288164,-0.884648 0.583306,-1.317683 0.148174,-0.215065 0.203498,-0.46034 0.306829,-0.614515 0.495559,-0.737291 1.355228,-1.093254 1.293041,-2.207843 -0.01891,-0.368817 -0.252629,-1.202345 -0.524689,-1.320032 -0.155509,-0.06704 -0.512691,-0.0049 -0.737902,-0.09167 -0.7269,-0.270377 -1.153474,-1.169167 -1.906749,-1.226648 -0.160399,-0.01892 -0.308475,0.06541 -0.489511,0.06247 -0.298108,-0.01892 -0.747569,-0.208215 -1.077529,-0.245339 -0.209774,-0.02137 -0.490229,0.06182 -0.616152,0 -0.19186,-0.0933 -0.211503,-0.446149 -0.367762,-0.551407 -0.12307,-0.0858 -0.364859,-0.113527 -0.552807,-0.186781 -0.302835,-0.114996 -0.542995,-0.251391 -0.892401,-0.275646 -0.107585,-0.0049 -0.242197,0.05105 -0.367778,0.03344 -0.193327,-0.03344 -0.346309,-0.260868 -0.524656,-0.369176 -0.223532,-0.1362 -0.430046,-0.201396 -0.522423,-0.394849 0.201918,-0.660677 -0.356122,-0.844832 -0.49194,-1.2266 -0.06455,-0.17892 -0.03554,-0.394148 -0.09194,-0.553706 -0.08101,-0.228621 -0.306763,-0.360678 -0.555171,-0.551374 -0.445027,-0.341642 -0.839749,-0.662422 -1.47574,-0.740651 -0.279606,-0.03589 -0.556996,0.08417 -0.894846,0.06247 -0.357932,-0.02137 -0.807393,-0.334955 -1.0751,-0.64019 -0.260372,-0.298041 -0.386947,-0.565483 -0.613756,-0.70793 -0.214811,-0.137831 -0.499911,-0.134569 -0.646537,-0.273346 -0.0652,-0.06068 -0.05347,-0.164582 -0.124048,-0.308481 -0.107748,-0.223042 -0.289388,-0.347123 -0.154206,-0.614401 -0.245098,-0.125761 -0.251846,0.233236 -0.52001,0.186782 -0.239132,-0.338364 -0.441017,-0.498688 -0.983881,-0.399499 -0.248554,0.04584 -0.387322,0.359046 -0.676938,0.366876 -0.237551,0.01892 -0.424162,-0.264033 -0.737837,-0.308497 -0.236834,-0.03344 -0.506122,0.06329 -0.674672,0.03279 -0.262475,-0.0522 -0.34349,-0.27028 -0.58329,-0.427571 -0.17582,-0.114832 -0.517419,-0.311564 -0.616038,-0.308399 -0.309111,0.01892 -0.5294,0.655212 -0.955697,0.429968 -0.207199,-0.261961 0.337442,-0.399939 0.09194,-0.644985 -0.186269,-0.185803 -0.34287,0.08498 -0.491859,0.187043 -0.170815,0.117116 -0.331313,0.234052 -0.520075,0.303734 -0.4224667,0.157405 -0.6864897,0.07552 -1.0166127,0.24534 -0.305688,0.157568 -0.318729,0.422155 -0.491908,0.735937 -0.14198,0.257067 -0.464164,0.631625 -0.677003,0.647154 -0.257715,0.01892 -0.504068,-0.359389 -0.737837,-0.460193 -0.704323,-0.304338 -1.045498,0.270165 -1.630271,0.277962 -0.542783,0.01892 -1.317998,-0.87416 -1.290759,-1.383124 0.0049,-0.310503 0.179063,-0.781658 0.215447,-1.165905 0.03358,-0.305545 0.242473,-0.489651 0.246043,-0.768657 0.0049,-0.372553 -0.49551,-0.658997 -0.737967,-0.70325 -0.574553,-0.105208 -1.372247,0.230611 -2.030765,-0.03344 -0.12519,-0.207856 0.147522,-0.351543 0.217795,-0.553722 0.04043,-0.114506 0.0163,-0.268372 0.05836,-0.394866 0.07238,-0.195378 0.278221,-0.34678 0.369978,-0.553707 0.06765,-0.157568 0.08607,-0.385829 0.154205,-0.581761 0.08167,-0.223108 0.228585,-0.36686 0.245995,-0.523335 0.02135,-0.206616 -0.05542,-0.445562 -0.217941,-0.581762 z m 8.2219707,6.492861 c 0.208486,0.01892 0.234551,0.449085 0.02103,0.483698 -0.229988,0.03605 -0.34688,-0.359748 -0.123234,-0.462705 0.03798,-0.01892 0.07335,-0.01892 0.102858,-0.01762 l 0,-0.0033 z"
               style="fill:url(#linearGradient4161-1-2);fill-opacity:1;fill-rule:nonzero;stroke:none;stroke-width:0.69999957"
               inkscape:connector-curvature="0" />
            <path
               style="opacity:0.9;fill:#ffffff;fill-opacity:0.85204091"
               inkscape:connector-curvature="0"
               d="m 34.153179,47.251817 -8.59664,-8.596973 c -0.08051,-0.08084 -0.166615,-0.15255 -0.255266,-0.219661 l 1.522569,-1.603246 c 0.07785,-0.07841 0.151498,-0.160856 0.219273,-0.245631 2.021361,0.762475 4.393228,0.333839 6.017959,-1.29067 1.185075,-1.185462 1.782707,-2.8247 1.638074,-4.497659 -0.01567,-0.189318 -0.141088,-0.352998 -0.319442,-0.417617 -0.178741,-0.06528 -0.379022,-0.02077 -0.513521,0.113236 l -2.755153,2.754987 -2.789484,-0.703172 -0.791102,-2.877525 2.754488,-2.754655 c 0.135164,-0.13472 0.179351,-0.335168 0.114233,-0.513687 -0.06484,-0.179019 -0.228465,-0.303385 -0.418337,-0.320052 -1.672793,-0.144189 -3.312141,0.453111 -4.497659,1.638574 -1.623346,1.623346 -2.05309,3.993939 -1.291446,6.014469 -0.08284,0.07005 -0.165285,0.144522 -0.246129,0.224202 l -2.240967,2.152261 -4.115204,-4.114816 c -0.05139,-0.05155 -0.106204,-0.0969 -0.162684,-0.139483 0.04828,-0.08472 0.09524,-0.171931 0.139095,-0.262464 0.869122,0.167279 2.457971,-1.525171 3.807391,-2.874093 l -3.931203,-3.931645 c -1.7579,1.758177 -3.041538,2.938103 -2.874923,3.807224 -0.401891,0.19635 -0.760149,0.436444 -1.01475,0.691377 l -0.553777,0.553611 c -0.359532,0.36003 -0.576369,0.807769 -0.65378,1.274335 -0.05371,0.06135 -0.108363,0.125972 -0.162683,0.195076 l -0.206372,0.259364 c -0.0058,0.0064 -0.02353,0.03189 -0.02846,0.03843 l -0.187047,0.261855 c -0.117001,0.156094 -0.219273,0.325644 -0.318168,0.489268 -0.03649,0.06074 -0.07364,0.121598 -0.111575,0.182286 -0.006,0.01046 -0.01196,0.02076 -0.01733,0.03112 l -0.08311,0.156592 c -0.100445,0.188376 -0.204711,0.383397 -0.293916,0.597964 l -0.0144,0.03417 c -0.105208,0.249894 -0.214235,0.508649 -0.290317,0.782907 l -0.03682,0.118663 c -0.03012,0.09756 -0.06074,0.19491 -0.08887,0.311247 l -0.07641,0.378358 c -0.05698,0.236605 -0.07614,0.469999 -0.0928,0.676703 l -0.01113,0.135828 c -0.02813,0.214345 -0.01993,0.416454 -0.01229,0.594808 0.0026,0.05975 0.0049,0.11833 0.0067,0.197346 0.002,0.03289 0.0023,0.06495 0.0033,0.09657 0.0019,0.07968 0.0041,0.170214 0.01949,0.265399 l 0.04795,0.307039 c 0.0103,0.05936 0.01899,0.117001 0.02719,0.172262 0.01833,0.124699 0.03715,0.25366 0.07431,0.376088 l 0.201112,0.6978 c 0.06202,0.212076 0.263461,0.3525 0.483898,0.337106 0.116669,-0.0081 0.221544,-0.05858 0.299618,-0.136825 0.06971,-0.06971 0.117999,-0.161354 0.132728,-0.264734 l 0.104265,-0.709428 c 0.0077,-0.05631 0.0319,-0.138763 0.05692,-0.226029 0.01783,-0.06052 0.03516,-0.122262 0.04856,-0.174921 l 0.07414,-0.26479 c 0.009,-0.03583 0.02652,-0.07071 0.04192,-0.106536 0.01473,-0.03322 0.02946,-0.06744 0.04258,-0.101165 0.02486,-0.05631 0.04828,-0.112571 0.07132,-0.170325 0.04568,-0.113236 0.08887,-0.219772 0.15482,-0.32437 0.02868,-0.04828 0.05532,-0.09624 0.0825,-0.145186 0.06872,-0.123037 0.134001,-0.239207 0.211577,-0.3355 0.0049,-0.0057 0.0093,-0.01207 0.0144,-0.01883 l 0.174921,-0.241201 c 0.03583,-0.04535 0.07608,-0.08821 0.115229,-0.131398 0.0278,-0.03045 0.05565,-0.06108 0.09081,-0.101331 0.103269,-0.1242 0.224535,-0.232508 0.341536,-0.3391 l 0.06268,-0.05631 c 0.08671,-0.08051 0.187047,-0.15626 0.292587,-0.236329 0.04319,-0.03228 0.08544,-0.06434 0.126968,-0.0959 0.05332,-0.03455 0.10493,-0.06905 0.155762,-0.103269 0.09524,-0.06434 0.177689,-0.119992 0.272985,-0.16955 l 0.207369,-0.117998 0.209805,-0.102881 c 0.07315,-0.03782 0.145186,-0.06695 0.211577,-0.09375 0.03942,-0.01639 0.07841,-0.03228 0.114565,-0.04795 0.03682,-0.01273 0.07232,-0.02652 0.105871,-0.03893 0.04496,-0.01639 0.08378,-0.03212 0.136493,-0.04585 l 0.05659,-0.01273 c 0.06168,0.09984 0.134001,0.194744 0.220769,0.281457 l 4.070685,4.070851 -8.689997,8.346801 c -0.0034,0.0033 -0.0067,0.0069 -0.0099,0.0099 -1.0813627,1.081363 -1.2574457,2.665118 -0.175917,3.746813 1.081529,1.081363 2.564617,0.804115 3.645704,-0.276861 0.0048,-0.0046 0.0089,-0.0089 0.01307,-0.01379 l 7.666167,-8.072266 c 0.04496,0.05299 0.08948,0.106314 0.139427,0.156371 l 8.595975,8.596695 c 0.963255,0.963532 2.525691,0.963532 3.488945,0 0.962978,-0.962922 0.962978,-2.525413 5.6e-5,-3.48828 z m -21.025533,1.929665 c -0.398181,0.398624 -1.044042,0.398624 -1.442556,0 -0.398126,-0.398292 -0.398126,-1.043766 0,-1.442058 0.398126,-0.398015 1.044043,-0.398292 1.442556,0 0.397794,0.398348 0.397794,1.043766 0,1.442058 z"
               id="path4330" />
          </g>
        </g>
      </g>
    </g>
  </g>
</svg>
