<?xml version="1.0" encoding="UTF-8" standalone="no"?>
<!-- Created with Inkscape (http://www.inkscape.org/) -->

<svg
   xmlns:dc="http://purl.org/dc/elements/1.1/"
   xmlns:cc="http://creativecommons.org/ns#"
   xmlns:rdf="http://www.w3.org/1999/02/22-rdf-syntax-ns#"
   xmlns:svg="http://www.w3.org/2000/svg"
   xmlns="http://www.w3.org/2000/svg"
   xmlns:xlink="http://www.w3.org/1999/xlink"
   xmlns:sodipodi="http://sodipodi.sourceforge.net/DTD/sodipodi-0.dtd"
   xmlns:inkscape="http://www.inkscape.org/namespaces/inkscape"
   width="48"
   height="48"
   id="svg5453"
   version="1.1"
   inkscape:version="0.91 r13725"
   sodipodi:docname="nmap.svg">
  <defs
     id="defs5455">
    <linearGradient
       gradientTransform="translate(-346.19674,-525.67337)"
       inkscape:collect="always"
       xlink:href="#linearGradient4335"
       id="linearGradient4598"
       gradientUnits="userSpaceOnUse"
       x1="400.57144"
       y1="545.79791"
       x2="400.79395"
       y2="517.62671" />
    <linearGradient
       id="linearGradient4335"
       inkscape:collect="always">
      <stop
         id="stop4338"
         offset="0"
         style="stop-color:#7d19be;stop-opacity:1" />
      <stop
         id="stop4340"
         offset="1"
         style="stop-color:#b92ff5;stop-opacity:1" />
    </linearGradient>
  </defs>
  <sodipodi:namedview
     id="base"
     pagecolor="#ffffff"
     bordercolor="#666666"
     borderopacity="1.0"
     inkscape:pageopacity="0"
     inkscape:pageshadow="2"
     inkscape:zoom="4"
     inkscape:cx="-25.264599"
     inkscape:cy="42.206012"
     inkscape:document-units="px"
     inkscape:current-layer="g4182"
     showgrid="true"
     fit-margin-top="0"
     fit-margin-left="0"
     fit-margin-right="0"
     fit-margin-bottom="0"
     inkscape:window-width="1366"
     inkscape:window-height="634"
     inkscape:window-x="0"
     inkscape:window-y="36"
     inkscape:window-maximized="1"
     inkscape:showpageshadow="false"
     borderlayer="true"
     showguides="false">
    <inkscape:grid
       type="xygrid"
       id="grid4063" />
    <sodipodi:guide
       position="1.1650391e-05,32.000026"
       orientation="32,0"
       id="guide4157" />
    <sodipodi:guide
       position="1.1650391e-05,2.6367188e-05"
       orientation="0,32"
       id="guide4159" />
    <sodipodi:guide
       position="32.000012,2.6367188e-05"
       orientation="-32,0"
       id="guide4161" />
    <sodipodi:guide
       position="32.000012,32.000026"
       orientation="0,-32"
       id="guide4163" />
    <sodipodi:guide
       position="2.0000117,30.000026"
       orientation="28,0"
       id="guide4167" />
    <sodipodi:guide
       position="2.0000117,2.0000264"
       orientation="0,28"
       id="guide4169" />
    <sodipodi:guide
       position="30.000012,2.0000264"
       orientation="-28,0"
       id="guide4171" />
    <sodipodi:guide
       position="30.000012,30.000026"
       orientation="0,-28"
       id="guide4173" />
    <sodipodi:guide
       position="2.0000117,30.000026"
       orientation="28,0"
       id="guide4181" />
    <sodipodi:guide
       position="2.0000117,2.0000264"
       orientation="0,14"
       id="guide4183" />
    <sodipodi:guide
       position="16.000012,2.0000264"
       orientation="-28,0"
       id="guide4185" />
    <sodipodi:guide
       position="16.000012,30.000026"
       orientation="0,-14"
       id="guide4187" />
    <sodipodi:guide
       position="9.0000117,23.000026"
       orientation="14,0"
       id="guide4193" />
    <sodipodi:guide
       position="9.0000117,9.0000264"
       orientation="0,14.000031"
       id="guide4195" />
    <sodipodi:guide
       position="23.000042,9.0000264"
       orientation="-14,0"
       id="guide4197" />
    <sodipodi:guide
       position="23.000042,23.000026"
       orientation="0,-14.000031"
       id="guide4199" />
  </sodipodi:namedview>
  <metadata
     id="metadata5458">
    <rdf:RDF>
      <cc:Work
         rdf:about="">
        <dc:format>image/svg+xml</dc:format>
        <dc:type
           rdf:resource="http://purl.org/dc/dcmitype/StillImage" />
        <dc:title></dc:title>
      </cc:Work>
    </rdf:RDF>
  </metadata>
  <g
     inkscape:label="Capa 1"
     inkscape:groupmode="layer"
     id="layer1"
     transform="translate(-384.57143,-499.798)">
    <g
       style="display:inline;enable-background:new"
       id="g4238"
       transform="translate(225.81911,462.44565)">
      <g
         style="display:inline"
         id="layer1-8"
         transform="matrix(0.22655187,0,0,0.22655187,106.94841,54.31088)">
        <g
           style="display:none"
           id="layer6" />
        <g
           id="g4027" />
        <g
           id="g4061" />
        <g
           id="g3751" />
        <g
           id="g3782" />
        <g
           id="g3725" />
        <g
           id="g4370"
           transform="matrix(4.4140002,0,0,4.4140002,59.275211,39.357303)">
          <g
             id="g4182"
             transform="matrix(1.7142857,0,0,1.7142857,-30.839285,-12.375017)">
            <circle
               r="13.999969"
               cy="6.1250095"
               cx="54.375"
               id="circle4174"
               style="opacity:1;fill:url(#linearGradient4598);fill-opacity:1;stroke:none;stroke-width:1.29999995;stroke-miterlimit:4;stroke-dasharray:none;stroke-dashoffset:0;stroke-opacity:1" />
            <path
               id="path34-7-3"
               d="m 54.346169,-7.8904863 c -1.767731,0 -3.450304,0.3372283 -5.00527,0.9293458 -0.113071,0.103938 -0.260082,0.183733 -0.37639,0.17385 -0.01643,-0.0019 -0.03162,-0.01101 -0.04861,-0.01785 -0.76649,0.32068 -1.49359,0.71358 -2.183027,1.159265 0.08953,0.145417 0.116194,0.307323 -0.06788,0.385989 -0.03095,0.01244 -0.420859,0.05269 -0.557047,0.04984 -1.960569,1.424635 -3.533317,3.340688 -4.538556,5.57746802 0.01624,-0.0029 0.03019,-0.0095 0.04728,-0.01026 0.152574,-0.0029 0.372127,0.04082 0.518682,0.07215 0.13522,0.02781 0.244294,0.11853 0.361333,0.127321 0.33214,0.02545 0.412002,-0.233091 0.682954,-0.377767 0.280009,0.03911 0.465784,-0.04785 0.718593,-0.01956 0.172341,0.01956 0.296842,0.203196 0.431132,0.213525 0.112966,0.01101 0.212366,-0.105865 0.321658,-0.08915 0.106216,0.01671 0.289323,0.247939 0.306611,0.377757 0.0224,0.161565 -0.118871,0.307057 -0.07225,0.48453398 0.169265,0.172349 0.476778,0.207286 0.718565,0.306582 0.157502,-0.12978 0.02117,-0.37058 0,-0.55842398 -0.0028,-0.08298 0.01101,-0.156476 0,-0.232692 -0.01396,-0.129372 -0.06959,-0.247854 -0.07044,-0.35859 -0.0028,-0.511363 0.412524,-0.750691 0.755506,-0.952586 0.148463,-0.08801 0.26536,-0.242215 0.394171,-0.30663 0.181968,-0.09114 0.317463,-0.11246302 0.468082,-0.19710002 0.272272,-0.152917 0.505704,-0.275633 0.718602,-0.448913 0.09825,-0.231886 0.0095,-0.542797 0.01832,-0.771967 0.0983,-0.06029 0.183011,0.02601 0.287404,0.01794 0.164243,-0.03389 0.177904,-0.266016 0.271,-0.358552 0.05402,-0.05326 0.202398,-0.09085 0.269586,-0.143745 0.16371,-0.128394 0.217018,-0.32238 0.360041,-0.377738 0.05136,-0.02108 0.169569,-0.01415 0.250456,-0.03646 0.106387,-0.02829 0.257822,-0.154056 0.431112,-0.213458 0.112928,-0.03911 0.371615,-0.04747 0.414716,-0.09019 0.05326,-0.05421 -7.58e-4,-0.206272 0.01832,-0.287424 0.08715,-0.40566 0.698134,-0.491635 1.059334,-0.628241 0.253171,-0.09546 0.51292,-0.27157 0.791107,-0.217636 -0.05459,0.1928 -0.313579,0.124473 -0.269661,0.358618 0.06057,0.324887 0.495708,-0.09275 0.610488,-0.140982 0.219201,-0.09218 0.595107,-0.148834 0.882778,-0.253209 0.25225,-0.09218 0.704495,-0.232968 0.466762,-0.521464 -0.198326,-0.01101 -0.293909,0.232683 -0.466762,0.306573 -0.119375,0.01965 -0.09631,-0.09991 -0.198448,-0.109445 -0.09651,-0.01101 -0.151037,0.08924 -0.250512,0.07187 -0.09885,-0.01633 -0.237715,-0.171789 -0.25319,-0.287414 -0.03911,-0.299975 0.253531,-0.423641 0.377786,-0.647419 -0.0825,-0.271313 -0.457524,-0.05535 -0.684359,-0.16147 0.02231,-0.161565 0.189021,-0.272984 0.377757,-0.303848 0.154692,-0.02601 0.501879,-0.01244 0.594016,0.06912 0.05345,0.04604 0.0038,0.158679 0.09019,0.234031 0.09152,0.08297 0.20423,0.07396 0.323054,0.05497 0.04225,-0.204771 -0.266271,-0.153391 -0.232673,-0.2888 0.242746,-0.158793 0.63764,-0.02858 0.934842,-0.07225 0.171059,-0.02544 0.350662,-0.145996 0.502288,-0.231288 0.144191,-0.08212 0.331513,-0.224736 0.484514,-0.09029 0.04054,0.146727 -0.133245,0.195287 -0.214901,0.268257 -0.274921,0.244597 -0.558196,0.524806 -0.771901,0.808879 0.131081,0.1279 0.369374,0.06342 0.591273,0.09019 0.08677,0.01101 0.195666,0.03674 0.287385,0.05373 0.107384,0.01965 0.221348,0.01329 0.305206,0.03551 0.150999,0.03665 0.191347,0.198458 0.340827,0.198458 0.24586,-4.37e-4 0.248794,-0.266386 0.109444,-0.432518 0.04395,-0.169597 0.112947,-0.257594 0.05374,-0.3764 -0.110745,-0.221486 -0.517022,-0.01101 -0.537889,-0.287411 -0.01272,-0.179185 0.149926,-0.171182 0.214873,-0.305196 -0.02953,-0.346219 0.28394,-0.371302 0.250445,-0.681615 -0.01414,-0.129818 -0.12395,-0.131622 -0.214872,-0.2532278 -0.04624,-0.059336 -0.06883,-0.1743816 -0.121815,-0.2258284 -0.41933,-0.036551 -0.843436,-0.060096 -1.27284,-0.060096 z m -7.232139,2.8277208 0.0019,0 c 0.08383,0.01101 0.184739,0.101792 0.286057,0.109577 0.09546,0.0028 0.174989,-0.05307 0.23404,-0.03655 0.150268,0.03921 0.213629,0.266538 0.07196,0.377748 -0.117467,0.01415 -0.163274,-0.05174 -0.251822,-0.0356 -0.244066,0.04092 -0.337703,0.519537 -0.520126,0.503701 -0.171999,-0.01377 -0.265095,-0.433647 -0.0901,-0.558414 0.01101,-0.108979 -0.07984,-0.1264 -0.07377,-0.234059 0.05193,-0.06608 0.199236,-0.137432 0.342185,-0.125897 z m -0.808898,0.0563 c 0.05003,0.0019 0.08744,0.01329 0.106748,0.03532 -0.02402,0.191546 -0.173708,0.178976 -0.321659,0.268246 -0.255515,0.154198 -0.4032,0.389198 -0.484495,0.718584 -0.02373,0.09545 -0.27531,0.349808 -0.396916,0.324383 -0.284975,-0.06 0.07918,-0.585367 0.143698,-0.665209 0.07225,-0.08848 0.168495,-0.166075 0.253218,-0.268256 0.08212,-0.09891 0.135694,-0.232522 0.214882,-0.287415 0.08677,-0.06 0.334389,-0.131688 0.484505,-0.125878 z m 2.126928,0.646013 c 0.09114,0.0019 0.173347,0.01671 0.2108,0.05374 -0.05858,0.237325 -0.569921,0.174657 -0.756882,0.08877 0.01101,-0.08943 0.151995,-0.11421 0.269623,-0.125878 0.08298,-0.0028 0.185357,-0.01965 0.276459,-0.01661 z m -1.163338,0.438014 c 0.06057,-0.0019 0.122288,0.01101 0.186116,0.02858 -0.165372,0.138334 -0.344235,0.216686 -0.628242,0.306573 -0.136558,0.04263 -0.372374,0.09631 -0.395539,-0.0563 -0.02829,-0.186904 0.199692,-0.143422 0.324374,-0.160141 0.156999,-0.02202 0.329349,-0.113165 0.513291,-0.119118 z m 17.847735,1.064841 c -0.02165,0.05165 -0.03646,0.101318 -0.03418,0.150524 0.01101,0.08677 0.106103,0.170157 0.127274,0.287462 0.01101,0.06228 -0.02915,0.196492 0,0.253218 0.08658,0.167774 0.312962,0.04775 0.474954,0.0563 -0.184009,-0.25338 -0.367789,-0.507234 -0.568032,-0.747284 z m 0.918389,1.235928 c -0.02592,0.123827 -0.109909,0.285297 -0.177923,0.388713 -0.156638,0.23823702 -0.369412,0.24934502 -0.594006,0.37638102 -0.187303,0.106197 -0.267952,0.283418 -0.377776,0.46809 -0.119005,0.199512 -0.192715,0.320045 -0.143679,0.609111 -0.160597,0.318526 -0.403751,0.513661 -0.736366,0.665172 -0.09824,0.04443 -0.232759,0.06095 -0.323026,0.12586798 -0.07158,0.05193 -0.1127,0.190474 -0.214872,0.305206 -0.126001,0.140262 -0.258145,0.199436 -0.324392,0.306592 -0.05136,0.08298 -0.06864,0.247503 -0.125888,0.358599 -0.07709,0.150932 -0.240079,0.22487 -0.340846,0.377777 -0.04595,0.07044 -0.07699,0.213998 -0.127254,0.306601 -0.113897,0.206869 -0.308339,0.355912 -0.287462,0.537879 0.02108,0.175882 0.220445,0.206661 0.234041,0.359966 0.0029,0.08668 -0.05725,0.139644 -0.05374,0.23406 0.0029,0.137906 0.09589,0.234705 0.106738,0.340826 0.02687,0.266794 -0.09057,0.373276 -0.140963,0.555671 -0.02402,0.08715 -0.01339,0.185185 -0.03655,0.253227 -0.0449,0.133521 -0.230347,0.254054 -0.234078,0.411945 -0.0019,0.112254 0.115197,0.202473 0.124615,0.360003 0.0029,0.108742 -0.05364,0.224537 -0.03389,0.324403 0.03788,0.195495 0.387289,0.422928 0.539303,0.5748 0.203282,0.203338 0.469411,0.360659 0.557038,0.574896 0.07348,0.181919 0.07282,0.418533 0.214892,0.555689 0.104811,0.101204 0.279088,0.164338 0.41335,0.269595 0.125251,0.09813 0.261695,0.183173 0.395539,0.287415 0.218726,0.171153 0.549423,0.512236 0.897863,0.485939 0.181977,-0.01244 0.368454,-0.161794 0.574877,-0.198487 0.212338,-0.03769 0.487895,-0.05782 0.702102,-0.03532 0.164091,0.01633 0.333118,0.11458 0.503693,0.106729 0.180087,-0.01101 0.386634,-0.144657 0.591282,-0.234012 0.16466,-0.07149 0.366754,-0.151122 0.588518,-0.209452 0.101812,-0.683609 0.15604,-1.383983 0.15604,-2.096851 0,-2.869836 -0.858123,-5.52976298 -2.326743,-7.746844 z m -23.180188,4.709689 c -0.298542,0.01661 -0.494104,0.02991 -0.663824,0.106757 -0.388808,0.176935 -0.313722,0.702359 -0.702178,0.826699 -0.134271,0.04253 -0.318763,0.0451 -0.46662,0.07196 -0.127738,0.02364 -0.283246,0.09275 -0.414726,0.0901 -0.03655,-4.56e-4 -0.08829,-0.02791 -0.134175,-0.04187 -0.03418,0.246354 -0.06294,0.495499 -0.08516,0.745887 0.369592,0.07035 0.560332,0.560636 0.886975,0.722686 0.08943,0.04462 0.206394,0.04737 0.321601,0.07253 0.09266,0.02108 0.163635,0.06 0.253161,0.09038 0.190113,0.06427 0.422862,0.05678 0.574915,0.124605 0.229037,0.10166 0.39702,0.532155 0.594006,0.64739 0.01101,0.116128 -0.02297,0.272054 0.01832,0.358561 0.09275,0.126277 0.224405,0.09824 0.37771,0.180676 0.183448,0.09891 0.239575,0.35444 0.413378,0.432517 0.05991,0.02678 0.210392,0.02326 0.305215,0.05241 0.23819,0.07177 0.315934,0.347681 0.520126,0.287443 0.133891,-0.03911 0.123334,-0.17722 0.145056,-0.305234 0.08848,-0.09547 0.185071,-0.24776 0.323016,-0.250474 0.223284,-0.01101 0.243164,0.230736 0.324355,0.447555 0.04614,0.122583 0.165789,0.229341 0.197109,0.358608 0.05573,0.223303 0.02801,0.891712 -0.01965,1.025167 -0.0563,0.163748 -0.278025,0.233176 -0.414707,0.414726 -0.06427,0.08525 -0.09484,0.209803 -0.143716,0.269623 -0.08801,0.107232 -0.218822,0.135191 -0.284662,0.2340595 -0.03693,0.05573 -0.07329,0.175189 -0.109577,0.250455 -0.107906,0.228686 -0.252278,0.390688 -0.161517,0.66521 0.03769,0.112947 0.214426,0.188679 0.214891,0.32163 5.03e-4,0.156467 -0.332776,0.296557 -0.35857,0.468081 -0.01965,0.127654 0.103083,0.355428 0.143679,0.521503 0.02972,0.125497 0.266822,0.203954 0.340826,0.287414 0.126115,0.141628 0.22693,0.342241 0.342146,0.520116 0.227851,0.349856 0.40641,0.776534 0.62826,1.1155 0.117201,0.177543 0.281832,0.337162 0.359938,0.521455 0.03959,0.09275 0.03418,0.20386 0.07073,0.287433 0.128385,0.289855 0.695514,0.592488 0.988178,0.736376 0.136986,0.06636 0.289001,0.09019 0.414717,0.160112 0.190445,0.106207 0.567671,0.391448 0.663833,0.558462 0.08582,0.150087 0.138999,0.515455 0.180648,0.754118 0.05582,0.315441 6.41e-4,0.557646 0.01832,0.899251 0.01101,0.184758 0.06997,0.370485 0.07225,0.555709 7e-4,0.06465 -0.03418,0.11308 -0.03674,0.17928 -1.04e-4,0.01026 0.0038,0.02326 0.0038,0.03389 1.765054,0.79875 3.720933,1.25373 5.790956,1.25373 0.373969,0 0.743552,-0.01985 1.109964,-0.04861 0.01652,-0.02763 0.03076,-0.05639 0.05117,-0.08222 0.08459,-0.110764 0.159315,-0.207734 0.214958,-0.305235 0.05326,-0.328143 -0.130891,-0.557331 -0.05374,-0.844462 0.08592,-0.322645 0.53187,-0.51967 0.844576,-0.665266 0.107441,-0.05003 0.217597,-0.131042 0.305139,-0.161489 0.216401,-0.07538 0.486575,-0.03408 0.684368,-0.106739 0.336697,-0.12322 0.371862,-0.484372 0.537889,-0.791145 0.0787,-0.145178 0.181759,-0.290708 0.19711,-0.394143 0.0131,-0.09275 -0.03399,-0.180467 -0.01956,-0.290168 0.01595,-0.108513 0.113612,-0.202388 0.143698,-0.321668 0.03911,-0.155631 0.0563,-0.383672 0.0563,-0.557028 0,-0.142331 -0.06636,-0.267173 -0.07158,-0.395577 -0.02354,-0.466106 0.168353,-0.518237 0.340826,-0.771929 0.08658,-0.125982 0.118881,-0.269661 0.179281,-0.359985 0.289531,-0.43192 0.791847,-0.64045 0.755524,-1.293394 -0.01101,-0.216069 -0.147629,-0.704362 -0.306592,-0.773296 -0.09086,-0.03921 -0.299567,-0.0029 -0.431141,-0.05374 -0.424742,-0.158384 -0.673992,-0.684918 -1.114113,-0.718593 -0.0937,-0.01101 -0.180259,0.03826 -0.286038,0.03655 -0.174183,-0.01101 -0.4368,-0.121977 -0.629599,-0.143718 -0.122574,-0.01253 -0.286437,0.03617 -0.360014,0 -0.112112,-0.05468 -0.123599,-0.261363 -0.214891,-0.323025 -0.07187,-0.05032 -0.213183,-0.06646 -0.322997,-0.109425 -0.176955,-0.06731 -0.317272,-0.147267 -0.521436,-0.16148 -0.06285,-0.0029 -0.141515,0.02991 -0.214892,0.01965 -0.112957,-0.01965 -0.20235,-0.152812 -0.306554,-0.216259 -0.130625,-0.07984 -0.251291,-0.117988 -0.305253,-0.231315 0.11797,-0.3870195 -0.208094,-0.4949065 -0.287452,-0.7185515 -0.03769,-0.104811 -0.02079,-0.230898 -0.05374,-0.324364 -0.04737,-0.133938 -0.179243,-0.211293 -0.324403,-0.323006 -0.260015,-0.200139 -0.490657,-0.388059 -0.862271,-0.433895 -0.163369,-0.02108 -0.325447,0.04937 -0.522861,0.03655 -0.209138,-0.01244 -0.471736,-0.196226 -0.628174,-0.375042 -0.152119,-0.174591 -0.226094,-0.331266 -0.358618,-0.414716 -0.125508,-0.08079 -0.292104,-0.07889 -0.377776,-0.160132 -0.03807,-0.03551 -0.03123,-0.09641 -0.07234,-0.180714 -0.06294,-0.130653 -0.169084,-0.203347 -0.0901,-0.359918 -0.143213,-0.07367 -0.147153,0.136624 -0.303839,0.109415 -0.139715,-0.198216 -0.257694,-0.292138 -0.574881,-0.234036 -0.145227,0.026868 -0.226313,0.210344 -0.39553,0.21492 -0.138809,0.011013 -0.247835,-0.154663 -0.431131,-0.180714 -0.138381,-0.019653 -0.295722,0.037024 -0.39421,0.019273 -0.153354,-0.030573 -0.200689,-0.158328 -0.340818,-0.250484 -0.102732,-0.067216 -0.302328,-0.182518 -0.359937,-0.180657 -0.180628,0.011013 -0.309345,0.383824 -0.558414,0.251879 -0.121084,-0.153467 0.197166,-0.234287 0.05374,-0.377842 -0.108836,-0.108846 -0.200328,0.04984 -0.287395,0.109567 -0.09981,0.068545 -0.193587,0.137119 -0.303877,0.177942 -0.246847,0.092185 -0.401121,0.04424 -0.594006,0.143726 -0.178616,0.09228 -0.18624,0.247304 -0.287424,0.431113 -0.08297,0.150599 -0.271202,0.370019 -0.395561,0.379114 -0.15059,0.011013 -0.294535,-0.210525 -0.431122,-0.269585 -0.411527,-0.178284 -0.610886,0.158261 -0.952577,0.162837 -0.317139,0.011013 -0.770106,-0.512094 -0.754185,-0.810265 0.0028,-0.181901 0.104621,-0.457894 0.125887,-0.683001 0.01965,-0.178996 0.141676,-0.286855 0.143765,-0.45029 0.0028,-0.218243 -0.289523,-0.386055 -0.431198,-0.411973 -0.33571,-0.06161 -0.801806,0.135097 -1.18658,-0.01965 -0.07329,-0.121767 0.0862,-0.205939 0.127255,-0.324374 0.02364,-0.06703 0.0095,-0.157226 0.03408,-0.231325 0.04225,-0.114457 0.162562,-0.203148 0.216183,-0.324374 0.03949,-0.09228 0.05032,-0.226018 0.0901,-0.340807 0.04775,-0.130701 0.133568,-0.214911 0.143736,-0.306573 0.01244,-0.121046 -0.03237,-0.261022 -0.127331,-0.340808 z m 4.804105,3.803632 c 0.121816,0.01101 0.137062,0.263082 0.01225,0.283352 -0.134385,0.02117 -0.202683,-0.210734 -0.07187,-0.271057 0.02221,-0.01101 0.04282,-0.01101 0.0601,-0.01025 l 0,-0.0019 z"
               style="fill:#ffffff;fill-opacity:0.39097744;fill-rule:nonzero;stroke:none;stroke-width:0.69999957"
               inkscape:connector-curvature="0" />
          </g>
        </g>
      </g>
    </g>
  </g>
</svg>
