<?xml version="1.0" encoding="UTF-8" standalone="no"?>
<!-- Created with Inkscape (http://www.inkscape.org/) -->

<svg
   xmlns:dc="http://purl.org/dc/elements/1.1/"
   xmlns:cc="http://creativecommons.org/ns#"
   xmlns:rdf="http://www.w3.org/1999/02/22-rdf-syntax-ns#"
   xmlns:svg="http://www.w3.org/2000/svg"
   xmlns="http://www.w3.org/2000/svg"
   xmlns:xlink="http://www.w3.org/1999/xlink"
   xmlns:sodipodi="http://sodipodi.sourceforge.net/DTD/sodipodi-0.dtd"
   xmlns:inkscape="http://www.inkscape.org/namespaces/inkscape"
   width="48"
   height="48"
   id="svg5453"
   version="1.1"
   inkscape:version="0.91 r13725"
   sodipodi:docname="octopi-notifier.svg">
  <defs
     id="defs5455">
    <linearGradient
       gradientTransform="matrix(0.13837079,0,0,0.13837079,97.46629,-12.959555)"
       inkscape:collect="always"
       xlink:href="#linearGradient4613"
       id="linearGradient5299"
       gradientUnits="userSpaceOnUse"
       x1="-318.57867"
       y1="653.95679"
       x2="-318.57867"
       y2="301.29816" />
    <linearGradient
       id="linearGradient4613"
       inkscape:collect="always">
      <stop
         id="stop4615"
         offset="0"
         style="stop-color:#dc3c30;stop-opacity:1" />
      <stop
         id="stop4617"
         offset="1"
         style="stop-color:#ff786d;stop-opacity:1" />
    </linearGradient>
  </defs>
  <sodipodi:namedview
     id="base"
     pagecolor="#ffffff"
     bordercolor="#666666"
     borderopacity="1.0"
     inkscape:pageopacity="0"
     inkscape:pageshadow="2"
     inkscape:zoom="4"
     inkscape:cx="-39.601104"
     inkscape:cy="15.968792"
     inkscape:document-units="px"
     inkscape:current-layer="g4182"
     showgrid="true"
     fit-margin-top="0"
     fit-margin-left="0"
     fit-margin-right="0"
     fit-margin-bottom="0"
     inkscape:window-width="1366"
     inkscape:window-height="634"
     inkscape:window-x="0"
     inkscape:window-y="36"
     inkscape:window-maximized="1"
     inkscape:showpageshadow="false"
     borderlayer="true"
     showguides="false">
    <inkscape:grid
       type="xygrid"
       id="grid4063" />
    <sodipodi:guide
       position="1.1650391e-05,32.000026"
       orientation="32,0"
       id="guide4157" />
    <sodipodi:guide
       position="1.1650391e-05,2.6367188e-05"
       orientation="0,32"
       id="guide4159" />
    <sodipodi:guide
       position="32.000012,2.6367188e-05"
       orientation="-32,0"
       id="guide4161" />
    <sodipodi:guide
       position="32.000012,32.000026"
       orientation="0,-32"
       id="guide4163" />
    <sodipodi:guide
       position="2.0000117,30.000026"
       orientation="28,0"
       id="guide4167" />
    <sodipodi:guide
       position="2.0000117,2.0000264"
       orientation="0,28"
       id="guide4169" />
    <sodipodi:guide
       position="30.000012,2.0000264"
       orientation="-28,0"
       id="guide4171" />
    <sodipodi:guide
       position="30.000012,30.000026"
       orientation="0,-28"
       id="guide4173" />
    <sodipodi:guide
       position="2.0000117,30.000026"
       orientation="28,0"
       id="guide4181" />
    <sodipodi:guide
       position="2.0000117,2.0000264"
       orientation="0,14"
       id="guide4183" />
    <sodipodi:guide
       position="16.000012,2.0000264"
       orientation="-28,0"
       id="guide4185" />
    <sodipodi:guide
       position="16.000012,30.000026"
       orientation="0,-14"
       id="guide4187" />
    <sodipodi:guide
       position="9.0000117,23.000026"
       orientation="14,0"
       id="guide4193" />
    <sodipodi:guide
       position="9.0000117,9.0000264"
       orientation="0,14.000031"
       id="guide4195" />
    <sodipodi:guide
       position="23.000042,9.0000264"
       orientation="-14,0"
       id="guide4197" />
    <sodipodi:guide
       position="23.000042,23.000026"
       orientation="0,-14.000031"
       id="guide4199" />
  </sodipodi:namedview>
  <metadata
     id="metadata5458">
    <rdf:RDF>
      <cc:Work
         rdf:about="">
        <dc:format>image/svg+xml</dc:format>
        <dc:type
           rdf:resource="http://purl.org/dc/dcmitype/StillImage" />
        <dc:title></dc:title>
      </cc:Work>
    </rdf:RDF>
  </metadata>
  <g
     inkscape:label="Capa 1"
     inkscape:groupmode="layer"
     id="layer1"
     transform="translate(-384.57143,-499.798)">
    <g
       style="display:inline;enable-background:new"
       id="g4238"
       transform="translate(225.81911,462.44565)">
      <g
         style="display:inline"
         id="layer1-8"
         transform="matrix(0.22655187,0,0,0.22655187,106.94841,54.31088)">
        <g
           style="display:none"
           id="layer6" />
        <g
           id="g4027" />
        <g
           id="g4061" />
        <g
           id="g3751" />
        <g
           id="g3782" />
        <g
           id="g3725" />
        <g
           id="g4370"
           transform="matrix(4.4140002,0,0,4.4140002,59.275211,39.357303)">
          <g
             id="g4182"
             transform="translate(-20,-25.000001)">
            <g
               id="g4183"
               transform="translate(30.001999,-30.159999)">
              <circle
                 r="24"
                 cy="53.285"
                 cx="52.373001"
                 id="path4217"
                 style="opacity:1;fill:url(#linearGradient5299);fill-opacity:1;stroke:none;stroke-width:15.44461155;stroke-linecap:round;stroke-linejoin:round;stroke-miterlimit:4;stroke-dasharray:none;stroke-opacity:1" />
              <path
                 d="m 58.702043,51.572001 a 2.2500001,2.2500001 0 0 1 -2.25,2.25 2.2500001,2.2500001 0 0 1 -2.25,-2.25 2.2500001,2.2500001 0 0 1 2.25,-2.25 2.2500001,2.2500001 0 0 1 2.25,2.25 z m -8.189815,4.45e-4 a 2.2500001,2.2500001 0 0 1 -2.25,2.25 2.2500001,2.2500001 0 0 1 -2.25,-2.25 2.2500001,2.2500001 0 0 1 2.25,-2.25 2.2500001,2.2500001 0 0 1 2.25,2.25 z m 11.91816,13.394825 c 0.0037,-0.0052 0.0072,-0.0104 0.01059,-0.01575 0.0033,-0.0052 0.0065,-0.01036 0.0095,-0.01561 0.003,-0.0052 0.0059,-0.01059 0.0086,-0.01598 0.0028,-0.0055 0.0055,-0.01106 0.0081,-0.01673 0.0024,-0.0055 0.0047,-0.01106 0.0069,-0.01668 0.0022,-0.0057 0.0044,-0.01148 0.0063,-0.01725 0.0019,-0.0058 0.0037,-0.01158 0.0053,-0.01748 0.0017,-0.006 0.0032,-0.0119 0.0046,-0.0179 0.0013,-0.0058 0.0025,-0.01167 0.0036,-0.01757 0.0011,-0.0064 0.0021,-0.01275 0.0029,-0.01912 6.68e-4,-0.0056 0.0013,-0.01129 0.0017,-0.01701 5.57e-4,-0.0068 8.91e-4,-0.01369 0.001,-0.02057 9.4e-5,-0.0032 4.46e-4,-0.0063 4.46e-4,-0.0095 l 0,-13.50015 c 0,-2.704491 -1.053182,-5.247066 -2.965526,-7.159457 -1.912344,-1.912345 -4.454919,-2.965526 -7.159411,-2.965526 -2.704492,0 -5.247113,1.053181 -7.159504,2.965526 -1.912345,1.912391 -2.965526,4.454966 -2.965526,7.159457 l 0,13.50015 c 0,0.0033 4.45e-4,0.0064 4.45e-4,0.0097 2.23e-4,0.0068 4.46e-4,0.01368 10e-4,0.02053 4.45e-4,0.0057 0.0011,0.01143 0.0018,0.01711 7.8e-4,0.0064 0.0018,0.01275 0.0029,0.01907 0.0011,0.0059 0.0022,0.01176 0.0036,0.01757 0.0014,0.006 0.0029,0.01195 0.0046,0.0179 0.0016,0.0059 0.0034,0.01167 0.0053,0.01743 0.002,0.0058 0.0041,0.01153 0.0063,0.01725 0.0022,0.0056 0.0045,0.0112 0.007,0.01669 0.0025,0.0056 0.0052,0.01115 0.008,0.01664 0.0028,0.0054 0.0056,0.01078 0.0087,0.01608 0.003,0.0052 0.0061,0.01036 0.0094,0.01551 0.0035,0.0054 0.007,0.01069 0.01074,0.01589 0.0033,0.0047 0.0067,0.0093 0.01031,0.01383 0.0042,0.0054 0.0086,0.01064 0.01317,0.01579 0.0022,0.0024 0.004,0.005 0.0062,0.0074 0.0015,0.0017 0.0032,0.003 0.0048,0.0047 0.0052,0.0055 0.01069,0.01069 0.01626,0.01584 0.004,0.0037 0.0079,0.0074 0.012,0.01093 0.0054,0.0045 0.01097,0.0088 0.01659,0.01303 0.0045,0.0034 0.009,0.007 0.01364,0.01021 0.0057,0.0039 0.01162,0.0074 0.01748,0.01097 0.0048,0.0029 0.0095,0.006 0.01439,0.0087 0.0069,0.0038 0.01406,0.0071 0.02123,0.0104 0.0041,0.0019 0.008,0.0041 0.01214,0.0059 0.03407,0.01453 0.07072,0.02418 0.1091,0.02802 0.0081,8.91e-4 0.01631,8.91e-4 0.02446,0.0012 0.0045,1.11e-4 0.0088,6.68e-4 0.01331,6.68e-4 l 4.7e-5,0 4.7e-5,0 c 0.01209,0 0.02413,-6.68e-4 0.03618,-0.0018 0.0045,-4.46e-4 0.0089,-0.0012 0.01331,-0.0018 0.0074,-10e-4 0.01481,-0.002 0.02217,-0.0034 0.0052,-10e-4 0.01036,-0.0023 0.01551,-0.0036 0.0064,-0.0015 0.01284,-0.0031 0.01917,-0.0049 0.0053,-0.0015 0.01045,-0.0034 0.01565,-0.0052 0.0061,-0.0021 0.01214,-0.0042 0.01814,-0.0067 0.0051,-0.0021 0.01008,-0.0043 0.01504,-0.0066 0.0059,-0.0027 0.01167,-0.0054 0.01743,-0.0084 0.0049,-0.0025 0.0097,-0.0053 0.01448,-0.0081 0.0055,-0.0032 0.01092,-0.0064 0.01626,-0.0099 0.0049,-0.0031 0.0096,-0.0065 0.01429,-0.0098 0.0049,-0.0035 0.0098,-0.0071 0.01458,-0.01087 0.0048,-0.0038 0.0095,-0.0078 0.01415,-0.0119 0.0026,-0.0022 0.0053,-0.0043 0.0079,-0.0066 l 2.182189,-2.015164 2.182189,2.015164 c 0.143545,0.132626 0.365025,0.132626 0.508665,0 l 2.182283,-2.015164 2.182844,2.015164 c 0.143687,0.132673 0.365167,0.132626 0.508712,-4.6e-5 l 2.181627,-2.015165 2.183642,2.015258 c 0.143545,0.132486 0.364791,0.132533 0.508478,9.4e-5 l 2.185515,-2.015586 2.185516,2.015586 c 0.0024,0.0022 0.005,0.0041 0.0075,0.0062 0.0051,0.0045 0.01021,0.0088 0.01551,0.01293 0.0046,0.0036 0.0093,0.0071 0.01401,0.0105 0.0052,0.0037 0.0104,0.0072 0.01575,0.01064 0.0052,0.0033 0.01031,0.0064 0.01556,0.0095 0.0053,0.003 0.01064,0.0059 0.01608,0.0086 0.0055,0.0028 0.01101,0.0055 0.01659,0.008 0.0055,0.0025 0.01115,0.0048 0.01687,0.007 0.0056,0.0022 0.01129,0.0043 0.01701,0.0062 0.0059,0.002 0.01176,0.0038 0.01776,0.0054 0.0058,0.0016 0.01162,0.0031 0.01753,0.0045 0.0059,0.0014 0.01195,0.0026 0.018,0.0037 0.0062,0.0011 0.01237,0.0021 0.01856,0.0028 0.0059,7.8e-4 0.01172,0.0014 0.01762,0.0018 0.0066,5.56e-4 0.01326,8.9e-4 0.01987,0.001 0.0033,9.3e-5 0.0066,5.57e-4 0.0099,5.57e-4 0.0025,0 0.0049,-3.34e-4 0.0075,-3.34e-4 0.0065,-1.12e-4 0.01293,-5.57e-4 0.0194,-0.001 0.0061,-4.45e-4 0.01219,-8.91e-4 0.01823,-0.0016 0.0058,-6.68e-4 0.01148,-0.0017 0.01725,-0.0026 0.0065,-0.0011 0.01298,-0.0022 0.0194,-0.0036 0.0052,-0.0012 0.01046,-0.0026 0.01565,-0.004 0.0066,-0.0018 0.01312,-0.0035 0.01954,-0.0056 0.0052,-0.0017 0.01031,-0.0037 0.01546,-0.0057 0.0061,-0.0023 0.01223,-0.0046 0.01823,-0.0072 0.0054,-0.0024 0.01073,-0.0051 0.01603,-0.0077 0.0054,-0.0027 0.01097,-0.0054 0.01626,-0.0083 0.0054,-0.0031 0.01073,-0.0064 0.01603,-0.0097 0.005,-0.0031 0.01003,-0.0062 0.01486,-0.0096 0.0051,-0.0035 0.01,-0.0074 0.0149,-0.01115 0.0049,-0.0038 0.0097,-0.0076 0.01443,-0.01153 0.0044,-0.0038 0.0087,-0.0078 0.01298,-0.01181 0.0049,-0.0046 0.0097,-0.0092 0.01434,-0.01406 0.0017,-0.0017 0.0035,-0.0033 0.0052,-0.0051 0.0022,-0.0024 0.0041,-0.005 0.0062,-0.0075 0.0045,-0.0051 0.0088,-0.01021 0.01293,-0.01551 0.0037,-0.0045 0.0072,-0.0091 0.01055,-0.01387 z"
                 style="opacity:1;fill:#ffffff;fill-opacity:0.85185188;fill-rule:nonzero;stroke:none;stroke-width:0.2;stroke-linecap:round;stroke-linejoin:miter;stroke-miterlimit:4;stroke-dasharray:none;stroke-dashoffset:0;stroke-opacity:0.84693879"
                 id="path4301-6"
                 inkscape:connector-curvature="0" />
            </g>
          </g>
        </g>
      </g>
    </g>
  </g>
</svg>
