<?xml version="1.0" encoding="UTF-8" standalone="no"?>
<!-- Created with Inkscape (http://www.inkscape.org/) -->

<svg
   xmlns:dc="http://purl.org/dc/elements/1.1/"
   xmlns:cc="http://creativecommons.org/ns#"
   xmlns:rdf="http://www.w3.org/1999/02/22-rdf-syntax-ns#"
   xmlns:svg="http://www.w3.org/2000/svg"
   xmlns="http://www.w3.org/2000/svg"
   xmlns:xlink="http://www.w3.org/1999/xlink"
   xmlns:sodipodi="http://sodipodi.sourceforge.net/DTD/sodipodi-0.dtd"
   xmlns:inkscape="http://www.inkscape.org/namespaces/inkscape"
   width="48"
   height="48"
   id="svg5453"
   version="1.1"
   inkscape:version="0.91 r13725"
   sodipodi:docname="acroread.svg">
  <defs
     id="defs5455">
    <linearGradient
       gradientTransform="matrix(0.13837079,0,0,0.13837079,127.46829,-43.119557)"
       inkscape:collect="always"
       xlink:href="#linearGradient5076"
       id="linearGradient5299"
       gradientUnits="userSpaceOnUse"
       x1="-318.57867"
       y1="653.95679"
       x2="-318.57867"
       y2="301.29816" />
    <linearGradient
       id="linearGradient5076"
       inkscape:collect="always">
      <stop
         id="stop5078"
         offset="0"
         style="stop-color:#c52828;stop-opacity:1" />
      <stop
         id="stop5080"
         offset="1"
         style="stop-color:#ff5454;stop-opacity:1" />
    </linearGradient>
  </defs>
  <sodipodi:namedview
     id="base"
     pagecolor="#ffffff"
     bordercolor="#666666"
     borderopacity="1.0"
     inkscape:pageopacity="0"
     inkscape:pageshadow="2"
     inkscape:zoom="4"
     inkscape:cx="34.016766"
     inkscape:cy="15.968792"
     inkscape:document-units="px"
     inkscape:current-layer="g4370"
     showgrid="true"
     fit-margin-top="0"
     fit-margin-left="0"
     fit-margin-right="0"
     fit-margin-bottom="0"
     inkscape:window-width="1366"
     inkscape:window-height="634"
     inkscape:window-x="0"
     inkscape:window-y="36"
     inkscape:window-maximized="1"
     inkscape:showpageshadow="false"
     borderlayer="true"
     showguides="true">
    <inkscape:grid
       type="xygrid"
       id="grid4063" />
    <sodipodi:guide
       position="1.1650391e-05,32.000026"
       orientation="32,0"
       id="guide4157" />
    <sodipodi:guide
       position="1.1650391e-05,2.6367188e-05"
       orientation="0,32"
       id="guide4159" />
    <sodipodi:guide
       position="32.000012,2.6367188e-05"
       orientation="-32,0"
       id="guide4161" />
    <sodipodi:guide
       position="32.000012,32.000026"
       orientation="0,-32"
       id="guide4163" />
    <sodipodi:guide
       position="2.0000117,30.000026"
       orientation="28,0"
       id="guide4167" />
    <sodipodi:guide
       position="2.0000117,2.0000264"
       orientation="0,28"
       id="guide4169" />
    <sodipodi:guide
       position="30.000012,2.0000264"
       orientation="-28,0"
       id="guide4171" />
    <sodipodi:guide
       position="30.000012,30.000026"
       orientation="0,-28"
       id="guide4173" />
    <sodipodi:guide
       position="2.0000117,30.000026"
       orientation="28,0"
       id="guide4181" />
    <sodipodi:guide
       position="2.0000117,2.0000264"
       orientation="0,14"
       id="guide4183" />
    <sodipodi:guide
       position="16.000012,2.0000264"
       orientation="-28,0"
       id="guide4185" />
    <sodipodi:guide
       position="16.000012,30.000026"
       orientation="0,-14"
       id="guide4187" />
    <sodipodi:guide
       position="9.0000117,23.000026"
       orientation="14,0"
       id="guide4193" />
    <sodipodi:guide
       position="9.0000117,9.0000264"
       orientation="0,14.000031"
       id="guide4195" />
    <sodipodi:guide
       position="23.000042,9.0000264"
       orientation="-14,0"
       id="guide4197" />
    <sodipodi:guide
       position="23.000042,23.000026"
       orientation="0,-14.000031"
       id="guide4199" />
  </sodipodi:namedview>
  <metadata
     id="metadata5458">
    <rdf:RDF>
      <cc:Work
         rdf:about="">
        <dc:format>image/svg+xml</dc:format>
        <dc:type
           rdf:resource="http://purl.org/dc/dcmitype/StillImage" />
        <dc:title />
      </cc:Work>
    </rdf:RDF>
  </metadata>
  <g
     inkscape:label="Capa 1"
     inkscape:groupmode="layer"
     id="layer1"
     transform="translate(-384.57143,-499.798)">
    <g
       style="display:inline;enable-background:new"
       id="g4238"
       transform="translate(225.81911,462.44565)">
      <g
         style="display:inline"
         id="layer1-8"
         transform="matrix(0.22655187,0,0,0.22655187,106.94841,54.31088)">
        <g
           style="display:none"
           id="layer6" />
        <g
           id="g4027" />
        <g
           id="g4061" />
        <g
           id="g3751" />
        <g
           id="g3782" />
        <g
           id="g3725" />
        <g
           id="g4370"
           transform="matrix(4.4140002,0,0,4.4140002,59.275211,39.357303)">
          <g
             id="g4182"
             transform="translate(-20,-25.000001)">
            <circle
               style="opacity:1;fill:url(#linearGradient5299);fill-opacity:1;stroke:none;stroke-width:15.44461155;stroke-linecap:round;stroke-linejoin:round;stroke-miterlimit:4;stroke-dasharray:none;stroke-opacity:1"
               id="path4217"
               cx="82.375"
               cy="23.125"
               r="24" />
          </g>
          <path
             d="m 77.017917,0.57761614 c -0.571907,-0.56333197 -1.840286,-0.86173697 -3.770383,-0.88710697 -1.306513,-0.02079 -2.879042,0.09981 -4.533071,0.332093 -0.740628,-0.427333 -1.503874,-0.89230607 -2.103151,-1.45231007 -1.611862,-1.505128 -2.957328,-3.5943826 -3.795726,-5.8917916 0.05463,-0.214603 0.101125,-0.403212 0.14442,-0.595564 0,0 0.907915,-5.1571145 0.667579,-6.9005505 -0.03306,-0.239141 -0.05342,-0.308595 -0.117719,-0.494501 l -0.07885,-0.20171 c -0.246934,-0.569569 -0.731145,-1.173035 -1.490291,-1.140179 l -0.445188,-0.02079 -0.01227,-2.08e-4 c -0.846525,0 -1.536474,0.432948 -1.71759,1.080083 -0.550512,2.029573 0.01747,5.066032 1.046952,8.9987465 l -0.263508,0.640688 c -0.737099,1.7966706 -1.660785,3.6064426 -2.475769,5.2028616 l -0.105971,0.20794811 C 57.109993,1.1332581 56.332022,2.5577021 55.626785,3.7642171 l -0.728168,0.38512 c -0.05303,0.02703 -1.300969,0.687892 -1.593683,0.865064 -2.483172,1.482669 -4.128672,3.165801 -4.401674,4.5014505 -0.0869,0.4260852 -0.02221,0.9715334 0.419602,1.2241894 l 0.704272,0.354343 c 0.305507,0.153882 0.62767,0.230615 0.957719,0.230615 1.768605,0 3.821878,-2.2032079 6.650388,-7.1394789 3.265732,-1.063239 6.983888,-1.94681 10.242542,-2.434241 2.483339,1.398243 5.537615,2.369361 7.465369,2.369361 0.342282,0 0.63733,-0.03327 0.877104,-0.09566 0.369721,-0.09774 0.681336,-0.308803 0.871313,-0.594732 0.373974,-0.562915 0.449848,-1.338146 0.348305,-2.132091 -0.03026,-0.235398 -0.218452,-0.52673298 -0.422012,-0.72553096 z M 50.601515,9.9885118 c 0.322486,-0.8819057 1.599152,-2.6251347 3.486757,-4.1720607 0.118675,-0.09566 0.410992,-0.370147 0.678684,-0.624468 -1.973937,3.148334 -3.295823,4.4030925 -4.165441,4.7965287 z M 61.781668,-15.757332 c 0.568534,0 0.891906,1.433178 0.918779,2.776523 0.0268,1.343552 -0.287405,2.28639 -0.677156,2.984057 -0.322808,-1.03288 -0.478821,-2.660906 -0.478821,-3.7256 0,0 -0.02373,-2.03498 0.237198,-2.03498 z m -3.33509,18.3470531 c 0.396027,-0.708895 0.808065,-1.456468 1.229117,-2.24937395 1.026352,-1.94098805 1.674543,-3.45963305 2.157307,-4.70815305 0.960136,1.746971 2.15586,3.231928 3.561512,4.42180807 0.175321,0.14764299 0.361098,0.29757398 0.556211,0.44625698 C 63.09229,1.0658781 60.621748,1.7537701 58.446578,2.5897211 Z m 18.022117,-0.16012 c -0.174115,0.108133 -0.672808,0.172597 -0.993605,0.172597 -1.035282,0 -2.316223,-0.47329 -4.111944,-1.243114 0.689948,-0.05199 1.322618,-0.07694 1.889946,-0.07694 1.038416,0 1.346025,0 2.361429,0.25432 1.015417,0.259103 1.02821,0.785212 0.854174,0.893969 z"
             id="path5-89"
             inkscape:connector-curvature="0"
             sodipodi:nodetypes="cccccccccccccccccccccccsccsccccccccscccscccccccscssc"
             style="fill:#ffffff;fill-opacity:0.86290325" />
        </g>
      </g>
    </g>
  </g>
</svg>
