<?xml version="1.0" encoding="UTF-8" standalone="no"?>
<!-- Created with Inkscape (http://www.inkscape.org/) -->

<svg
   xmlns:sketch="http://www.bohemiancoding.com/sketch/ns"
   xmlns:dc="http://purl.org/dc/elements/1.1/"
   xmlns:cc="http://creativecommons.org/ns#"
   xmlns:rdf="http://www.w3.org/1999/02/22-rdf-syntax-ns#"
   xmlns:svg="http://www.w3.org/2000/svg"
   xmlns="http://www.w3.org/2000/svg"
   xmlns:xlink="http://www.w3.org/1999/xlink"
   xmlns:sodipodi="http://sodipodi.sourceforge.net/DTD/sodipodi-0.dtd"
   xmlns:inkscape="http://www.inkscape.org/namespaces/inkscape"
   width="48"
   height="48"
   id="svg5453"
   version="1.1"
   inkscape:version="0.91 r13725"
   sodipodi:docname="picmi.svg">
  <defs
     id="defs5455">
    <linearGradient
       inkscape:collect="always"
       xlink:href="#linearGradient4422"
       id="linearGradient4342"
       x1="403.43668"
       y1="544.98895"
       x2="402.48508"
       y2="518.34387"
       gradientUnits="userSpaceOnUse"
       gradientTransform="matrix(1.0000031,0,0,1.0000031,-360.78096,-519.83326)" />
    <linearGradient
       id="linearGradient4422">
      <stop
         id="stop4424"
         offset="0"
         style="stop-color:#74cb32;stop-opacity:1" />
      <stop
         id="stop4426"
         offset="1"
         style="stop-color:#abeb6b;stop-opacity:1" />
    </linearGradient>
  </defs>
  <sodipodi:namedview
     id="base"
     pagecolor="#ffffff"
     bordercolor="#666666"
     borderopacity="1.0"
     inkscape:pageopacity="0"
     inkscape:pageshadow="2"
     inkscape:zoom="4"
     inkscape:cx="-80.941894"
     inkscape:cy="15.968792"
     inkscape:document-units="px"
     inkscape:current-layer="g4182"
     showgrid="true"
     fit-margin-top="0"
     fit-margin-left="0"
     fit-margin-right="0"
     fit-margin-bottom="0"
     inkscape:window-width="1366"
     inkscape:window-height="634"
     inkscape:window-x="0"
     inkscape:window-y="36"
     inkscape:window-maximized="1"
     inkscape:showpageshadow="false"
     borderlayer="true"
     showguides="false">
    <inkscape:grid
       type="xygrid"
       id="grid4063" />
    <sodipodi:guide
       position="1.1650391e-05,32.000026"
       orientation="32,0"
       id="guide4157" />
    <sodipodi:guide
       position="1.1650391e-05,2.6367188e-05"
       orientation="0,32"
       id="guide4159" />
    <sodipodi:guide
       position="32.000012,2.6367188e-05"
       orientation="-32,0"
       id="guide4161" />
    <sodipodi:guide
       position="32.000012,32.000026"
       orientation="0,-32"
       id="guide4163" />
    <sodipodi:guide
       position="2.0000117,30.000026"
       orientation="28,0"
       id="guide4167" />
    <sodipodi:guide
       position="2.0000117,2.0000264"
       orientation="0,28"
       id="guide4169" />
    <sodipodi:guide
       position="30.000012,2.0000264"
       orientation="-28,0"
       id="guide4171" />
    <sodipodi:guide
       position="30.000012,30.000026"
       orientation="0,-28"
       id="guide4173" />
    <sodipodi:guide
       position="2.0000117,30.000026"
       orientation="28,0"
       id="guide4181" />
    <sodipodi:guide
       position="2.0000117,2.0000264"
       orientation="0,14"
       id="guide4183" />
    <sodipodi:guide
       position="16.000012,2.0000264"
       orientation="-28,0"
       id="guide4185" />
    <sodipodi:guide
       position="16.000012,30.000026"
       orientation="0,-14"
       id="guide4187" />
    <sodipodi:guide
       position="9.0000117,23.000026"
       orientation="14,0"
       id="guide4193" />
    <sodipodi:guide
       position="9.0000117,9.0000264"
       orientation="0,14.000031"
       id="guide4195" />
    <sodipodi:guide
       position="23.000042,9.0000264"
       orientation="-14,0"
       id="guide4197" />
    <sodipodi:guide
       position="23.000042,23.000026"
       orientation="0,-14.000031"
       id="guide4199" />
  </sodipodi:namedview>
  <metadata
     id="metadata5458">
    <rdf:RDF>
      <cc:Work
         rdf:about="">
        <dc:format>image/svg+xml</dc:format>
        <dc:type
           rdf:resource="http://purl.org/dc/dcmitype/StillImage" />
        <dc:title></dc:title>
      </cc:Work>
    </rdf:RDF>
  </metadata>
  <g
     inkscape:label="Capa 1"
     inkscape:groupmode="layer"
     id="layer1"
     transform="translate(-384.57143,-499.798)">
    <g
       style="display:inline;enable-background:new"
       id="g4238"
       transform="translate(225.81911,462.44565)">
      <g
         style="display:inline"
         id="layer1-8"
         transform="matrix(0.22655187,0,0,0.22655187,106.94841,54.31088)">
        <g
           style="display:none"
           id="layer6" />
        <g
           id="g4027" />
        <g
           id="g4061" />
        <g
           id="g3751" />
        <g
           id="g3782" />
        <g
           id="g3725" />
        <g
           id="g4370"
           transform="matrix(4.4140002,0,0,4.4140002,59.275211,39.357303)">
          <g
             id="g4182"
             transform="matrix(1.7142857,0,0,1.7142857,-30.839285,-12.375017)">
            <g
               id="g4183"
               transform="translate(14.583332,-5.8333329)">
              <circle
                 r="14"
                 cy="11.958343"
                 cx="39.791668"
                 id="path3377"
                 style="opacity:1;fill:url(#linearGradient4342);fill-opacity:1;stroke:none;stroke-width:1.52419364;stroke-miterlimit:4;stroke-dasharray:none;stroke-dashoffset:0;stroke-opacity:1" />
              <path
                 inkscape:connector-curvature="0"
                 d="M 47.536562,11.550999 45.18108,9.1948829 c -0.224407,-0.2240898 -0.154459,-0.4636905 0.154774,-0.5333224 0,0 0.255426,-0.057604 0.570037,-0.3722174 0.675439,-0.6751215 0.674804,-1.7712018 0,-2.4453724 -0.675753,-0.6754429 -1.770251,-0.6754429 -2.445688,0 -0.314928,0.3146126 -0.3719,0.5697212 -0.3719,0.5697212 -0.06963,0.3098655 -0.309865,0.3791813 -0.533641,0.1544574 L 40.199181,4.2136117 c -0.22409,-0.2244072 -0.591244,-0.2244072 -0.815335,0 l -2.355169,2.3548549 c -0.223774,0.2247239 -0.154457,0.4649557 0.154775,0.534272 0,0 0.255742,0.05761 0.570039,0.3715845 0.674488,0.675122 0.675437,1.7705695 0,2.446321 -0.675121,0.6751219 -1.771203,0.6744879 -2.44569,0 -0.314296,-0.31493 -0.3719,-0.5703525 -0.3719,-0.5703525 -0.06932,-0.3095505 -0.309866,-0.3788662 -0.533957,-0.154777 L 32.04678,11.550999 c -0.224092,0.22409 -0.224092,0.59061 0,0.8147 l 2.355164,2.35549 c 0.224091,0.22409 0.154458,0.464322 -0.154775,0.533956 0,0 -0.255425,0.05761 -0.570037,0.372218 -0.675436,0.675436 -0.675436,1.770252 0,2.445372 0.675119,0.674803 1.770251,0.675436 2.445689,0 0.314929,-0.314612 0.371901,-0.569722 0.371901,-0.569722 0.06963,-0.309866 0.309866,-0.379182 0.533639,-0.154458 l 2.355485,2.354532 c 0.224091,0.224409 0.591245,0.224409 0.815335,0 l 2.355798,-2.355165 c 0.224091,-0.224091 0.154459,-0.464956 -0.154773,-0.533956 0,0 -0.256059,-0.0576 -0.570356,-0.371585 -0.675753,-0.675435 -0.675436,-1.770567 0,-2.446327 0.675121,-0.675119 1.770254,-0.675755 2.445689,0 0.314614,0.314619 0.371586,0.570361 0.371586,0.570361 0.06963,0.309548 0.309548,0.379497 0.533955,0.155407 l 2.355482,-2.356123 c 0.22409,-0.22409 0.22409,-0.59061 0,-0.8147 l 0,0 z"
                 id="Templates"
                 sketch:type="MSShapeGroup"
                 style="fill:#000000;fill-opacity:0.63082437;stroke:none;stroke-width:1634.15478516;stroke-miterlimit:4;stroke-dasharray:none;stroke-opacity:1" />
            </g>
          </g>
        </g>
      </g>
    </g>
  </g>
</svg>
