<?xml version="1.0" encoding="UTF-8" standalone="no"?>
<!-- Created with Inkscape (http://www.inkscape.org/) -->

<svg
   xmlns:sketch="http://www.bohemiancoding.com/sketch/ns"
   xmlns:osb="http://www.openswatchbook.org/uri/2009/osb"
   xmlns:dc="http://purl.org/dc/elements/1.1/"
   xmlns:cc="http://creativecommons.org/ns#"
   xmlns:rdf="http://www.w3.org/1999/02/22-rdf-syntax-ns#"
   xmlns:svg="http://www.w3.org/2000/svg"
   xmlns="http://www.w3.org/2000/svg"
   xmlns:xlink="http://www.w3.org/1999/xlink"
   xmlns:sodipodi="http://sodipodi.sourceforge.net/DTD/sodipodi-0.dtd"
   xmlns:inkscape="http://www.inkscape.org/namespaces/inkscape"
   width="48"
   height="48"
   id="svg2"
   version="1.1"
   inkscape:version="0.91 r13725"
   sodipodi:docname="accessories-podcast.svg">
  <defs
     id="defs4">
    <linearGradient
       id="linearGradient4232">
      <stop
         id="stop4234-0"
         offset="0"
         style="stop-color:#3889e9;stop-opacity:1" />
      <stop
         id="stop4236"
         offset="1"
         style="stop-color:#5ea5fb;stop-opacity:1" />
    </linearGradient>
    <linearGradient
       inkscape:collect="always"
       xlink:href="#linearGradient4232"
       id="linearGradient3426"
       x1="399.57144"
       y1="545.79797"
       x2="399.57144"
       y2="517.79797"
       gradientUnits="userSpaceOnUse" />
    <linearGradient
       inkscape:collect="always"
       xlink:href="#linearGradient4531"
       id="linearGradient4181"
       gradientUnits="userSpaceOnUse"
       x1="399.9939"
       y1="545.13873"
       x2="399.9939"
       y2="518.13873" />
    <linearGradient
       osb:paint="gradient"
       id="linearGradient4207">
      <stop
         id="stop3371"
         offset="0"
         style="stop-color:#3498db;stop-opacity:1;" />
      <stop
         id="stop3373"
         offset="1"
         style="stop-color:#3498db;stop-opacity:0;" />
    </linearGradient>
    <linearGradient
       id="linearGradient4531"
       inkscape:collect="always">
      <stop
         id="stop4533"
         offset="0"
         style="stop-color:#a150c9;stop-opacity:1" />
      <stop
         id="stop4535"
         offset="1"
         style="stop-color:#e39aff;stop-opacity:1" />
    </linearGradient>
  </defs>
  <sodipodi:namedview
     id="base"
     pagecolor="#ffffff"
     bordercolor="#666666"
     borderopacity="1.0"
     inkscape:pageopacity="0.0"
     inkscape:pageshadow="2"
     inkscape:zoom="6.2692068"
     inkscape:cx="-25.48939"
     inkscape:cy="23.438929"
     inkscape:document-units="px"
     inkscape:current-layer="g4284"
     showgrid="true"
     inkscape:window-width="1366"
     inkscape:window-height="687"
     inkscape:window-x="0"
     inkscape:window-y="0"
     inkscape:window-maximized="1">
    <inkscape:grid
       type="xygrid"
       id="grid3850" />
  </sodipodi:namedview>
  <metadata
     id="metadata7">
    <rdf:RDF>
      <cc:Work
         rdf:about="">
        <dc:format>image/svg+xml</dc:format>
        <dc:type
           rdf:resource="http://purl.org/dc/dcmitype/StillImage" />
        <dc:title />
      </cc:Work>
    </rdf:RDF>
  </metadata>
  <g
     inkscape:label="Capa 1"
     inkscape:groupmode="layer"
     id="layer1"
     transform="translate(0,-1004.3622)">
    <g
       transform="translate(-384.57143,504.5642)"
       id="layer1-92"
       inkscape:label="Capa 1">
      <flowRoot
         transform="translate(355.61641,516.06468)"
         style="font-style:normal;font-variant:normal;font-weight:normal;font-stretch:normal;font-size:10px;line-height:125%;font-family:sans-serif;-inkscape-font-specification:'sans-serif, Normal';text-align:start;letter-spacing:0px;word-spacing:0px;writing-mode:lr-tb;text-anchor:start;fill:#000000;fill-opacity:1;stroke:none"
         id="flowRoot4170"
         xml:space="preserve"><flowRegion
           id="flowRegion4172"><rect
             y="3"
             x="22"
             height="15"
             width="27"
             id="rect4174" /></flowRegion><flowPara
           id="flowPara4176">Plasm</flowPara></flowRoot>      <rect
         y="525.92297"
         x="334.45468"
         height="10.999983"
         width="0"
         id="rect4035"
         style="fill:#ffffff;fill-opacity:1;stroke:none" />
      <rect
         y="524.92297"
         x="334.13391"
         height="10.999983"
         width="0"
         id="rect4035-4"
         style="fill:#ffffff;fill-opacity:1;stroke:none" />
      <rect
         y="524.80914"
         x="332.59805"
         height="11.113901"
         width="0"
         id="rect4035-3"
         style="fill:#fbd2bf;fill-opacity:1;stroke:none" />
      <rect
         y="524.92297"
         x="334.13391"
         height="10.999983"
         width="0"
         id="rect4035-1"
         style="fill:#fbd2bf;fill-opacity:1;stroke:none" />
      <rect
         y="524.92297"
         x="334.13391"
         height="10.999983"
         width="0"
         id="rect4035-5"
         style="fill:#fbfbfb;fill-opacity:1;stroke:none" />
      <rect
         y="524.92297"
         x="334.13391"
         height="10.999983"
         width="0"
         id="rect4035-8"
         style="fill:#fffcf9;fill-opacity:1;stroke:none" />
      <rect
         y="524.92297"
         x="334.13391"
         height="10.999983"
         width="0"
         id="rect4035-44"
         style="fill:#e8d9eb;fill-opacity:1;stroke:none" />
      <rect
         y="524.92297"
         x="334.13391"
         height="10.999983"
         width="0"
         id="rect4035-7"
         style="fill:#e8d9eb;fill-opacity:1;stroke:none" />
      <g
         inkscape:label="Capa 1"
         id="layer1-5">
        <g
           id="layer1-9"
           inkscape:label="Capa 1"
           transform="matrix(0.87499998,0,0,0.87499998,50.025937,66.450093)">
          <g
             transform="matrix(1.1428581,0,0,1.1428581,-57.327415,-75.995025)"
             id="g4284">
            <g
               transform="matrix(1.5930954,0,0,1.5930954,-229.65728,-322.73704)"
               id="g4189">
              <g
                 transform="matrix(1.0760722,0,0,1.0760722,-30.482637,-40.895776)"
                 id="g4207">
                <g
                   id="layer1-3"
                   inkscape:label="Capa 1"
                   transform="translate(0.13524268,0.04517549)"
                   style="stroke:none;stroke-width:1.29999995;stroke-miterlimit:4;stroke-dasharray:none;stroke-opacity:1">
                  <circle
                     r="13.999958"
                     cy="531.79791"
                     cx="400.57138"
                     id="path3377"
                     style="opacity:1;fill:url(#linearGradient4181);fill-opacity:1;stroke:none;stroke-width:1.29999995;stroke-miterlimit:4;stroke-dasharray:none;stroke-dashoffset:0;stroke-opacity:1" />
                  <circle
                     style="opacity:1;fill:#5ea5fb;fill-opacity:0;stroke:none;stroke-width:1.29999995;stroke-miterlimit:4;stroke-dasharray:none;stroke-dashoffset:0;stroke-opacity:1"
                     id="circle4174"
                     cx="400.57144"
                     cy="531.79797"
                     r="13.999958" />
                  <circle
                     style="opacity:1;fill:url(#linearGradient3426);fill-opacity:1;stroke:none;stroke-width:1.29999995;stroke-miterlimit:4;stroke-dasharray:none;stroke-dashoffset:0;stroke-opacity:1"
                     id="ellipse4233"
                     cx="400.57138"
                     cy="531.79791"
                     r="0" />
                </g>
                <g
                   style="fill:#ffffff;fill-opacity:0.85"
                   inkscape:label="Capa 1"
                   id="layer1-0"
                   transform="matrix(0.87499927,0,0,0.87499927,393.70666,-381.97302)">
                  <g
                     style="fill:#ffffff;fill-opacity:0.85"
                     transform="translate(-412.88298,512.00351)"
                     id="layer1-4"
                     inkscape:label="Capa 1">
                    <g
                       style="fill:#ffffff;fill-opacity:0.85"
                       inkscape:label="Capa 1"
                       id="layer1-7"
                       transform="translate(392.57143,-514.5642)" />
                    <g
                       style="fill:#ffffff;fill-opacity:0.85"
                       transform="translate(341.79698,500.25245)"
                       id="g4240">
                      <g
                         style="fill:#ffffff;fill-opacity:0.85"
                         transform="translate(-392.98822,-511.27795)"
                         id="layer1-1"
                         inkscape:label="Capa 1"
                         inkscape:transform-center-x="5.4653607"
                         inkscape:transform-center-y="-9.4924686">
                        <g
                           style="fill:#ffffff;fill-opacity:0.85"
                           inkscape:label="Capa 1"
                           id="layer1-5-4"
                           transform="matrix(0.71733438,0,0,0.71733438,181.16816,163.89609)">
                          <g
                             style="fill:#ffffff;fill-opacity:0.85"
                             inkscape:label="Capa 1"
                             id="layer1-5-5"
                             transform="matrix(2.0802722,0,0,2.0802722,350.91598,-1637.5069)">
                            <g
                               id="microphone28"
                               sketch:type="MSLayerGroup"
                               transform="matrix(0.07908756,0,0,0.07908756,22.539801,1036.0878)"
                               style="fill:#ffffff;fill-opacity:0.85">
                              <g
                                 id="g4987"
                                 sketch:type="MSShapeGroup"
                                 style="fill:#ffffff;fill-opacity:0.85">
                                <path
                                   d="m 47,94.07 c 7.17,0 13.307,-2.553 18.412,-7.657 C 70.517,81.309 73.07,75.17 73.07,68 l 0,-41.714 C 73.07,19.116 70.519,12.979 65.412,7.873 60.307,2.768 54.17,0.214 47,0.214 c -7.17,0 -13.307,2.554 -18.413,7.659 -5.106,5.105 -7.659,11.243 -7.659,18.413 l 0,41.714 c 0,7.17 2.554,13.309 7.659,18.413 C 33.692,91.517 39.83,94.07 47,94.07 l 0,0 z"
                                   id="path4989"
                                   inkscape:connector-curvature="0"
                                   style="fill:#ffffff;fill-opacity:0.85" />
                                <path
                                   d="m 92.38,53.905 c -1.03,-1.032 -2.254,-1.548 -3.666,-1.548 -1.412,0 -2.634,0.516 -3.666,1.548 -1.032,1.032 -1.548,2.254 -1.548,3.666 L 83.5,68 C 83.5,78.049 79.928,86.643 72.786,93.786 65.645,100.929 57.049,104.5 47,104.5 36.951,104.5 28.356,100.929 21.213,93.786 14.071,86.645 10.5,78.049 10.5,68 l 0,-10.429 C 10.5,56.159 9.984,54.937 8.952,53.905 7.92,52.873 6.699,52.357 5.286,52.357 c -1.413,0 -2.635,0.516 -3.667,1.548 -1.032,1.032 -1.548,2.254 -1.548,3.666 l 0,10.429 c 0,12.004 4.006,22.446 12.017,31.326 8.011,8.88 17.91,13.972 29.697,15.275 l 0,10.756 -20.857,0 c -1.412,0 -2.634,0.516 -3.666,1.548 -1.032,1.032 -1.548,2.254 -1.548,3.666 0,1.411 0.516,2.635 1.548,3.666 1.032,1.032 2.254,1.549 3.666,1.549 l 52.142,0 c 1.412,0 2.636,-0.517 3.666,-1.549 1.033,-1.031 1.55,-2.255 1.55,-3.666 0,-1.412 -0.517,-2.634 -1.55,-3.666 -1.03,-1.032 -2.254,-1.548 -3.666,-1.548 l -20.855,0 0,-10.756 C 64,113.298 73.899,108.206 81.911,99.326 89.923,90.446 93.93,80.004 93.93,68 l 0,-10.429 c 0,-1.412 -0.517,-2.633 -1.55,-3.666 l 0,0 z"
                                   id="path4991"
                                   inkscape:connector-curvature="0"
                                   style="fill:#ffffff;fill-opacity:0.85" />
                              </g>
                            </g>
                          </g>
                        </g>
                      </g>
                    </g>
                  </g>
                </g>
              </g>
            </g>
          </g>
        </g>
      </g>
    </g>
  </g>
</svg>
