<?xml version="1.0" encoding="UTF-8" standalone="no"?>
<!-- Created with Inkscape (http://www.inkscape.org/) -->

<svg
   xmlns:sketch="http://www.bohemiancoding.com/sketch/ns"
   xmlns:osb="http://www.openswatchbook.org/uri/2009/osb"
   xmlns:dc="http://purl.org/dc/elements/1.1/"
   xmlns:cc="http://creativecommons.org/ns#"
   xmlns:rdf="http://www.w3.org/1999/02/22-rdf-syntax-ns#"
   xmlns:svg="http://www.w3.org/2000/svg"
   xmlns="http://www.w3.org/2000/svg"
   xmlns:xlink="http://www.w3.org/1999/xlink"
   xmlns:sodipodi="http://sodipodi.sourceforge.net/DTD/sodipodi-0.dtd"
   xmlns:inkscape="http://www.inkscape.org/namespaces/inkscape"
   width="48"
   height="48"
   id="svg5453"
   version="1.1"
   inkscape:version="0.91 r13725"
   sodipodi:docname="podcast-amarok.svg">
  <defs
     id="defs5455">
    <linearGradient
       id="linearGradient4232">
      <stop
         style="stop-color:#3889e9;stop-opacity:1"
         offset="0"
         id="stop4234-0" />
      <stop
         style="stop-color:#5ea5fb;stop-opacity:1"
         offset="1"
         id="stop4236" />
    </linearGradient>
    <linearGradient
       gradientUnits="userSpaceOnUse"
       y2="517.79797"
       x2="399.57144"
       y1="545.79797"
       x1="399.57144"
       id="linearGradient3426"
       xlink:href="#linearGradient4232"
       inkscape:collect="always" />
    <linearGradient
       y2="518.13873"
       x2="399.9939"
       y1="545.13873"
       x1="399.9939"
       gradientUnits="userSpaceOnUse"
       id="linearGradient4181"
       xlink:href="#linearGradient4531"
       inkscape:collect="always" />
    <linearGradient
       id="linearGradient4207"
       osb:paint="gradient">
      <stop
         style="stop-color:#3498db;stop-opacity:1;"
         offset="0"
         id="stop3371" />
      <stop
         style="stop-color:#3498db;stop-opacity:0;"
         offset="1"
         id="stop3373" />
    </linearGradient>
    <linearGradient
       inkscape:collect="always"
       id="linearGradient4531">
      <stop
         style="stop-color:#ac5dd3;stop-opacity:1"
         offset="0"
         id="stop4533" />
      <stop
         style="stop-color:#c972eb;stop-opacity:1"
         offset="1"
         id="stop4535" />
    </linearGradient>
  </defs>
  <sodipodi:namedview
     id="base"
     pagecolor="#ffffff"
     bordercolor="#666666"
     borderopacity="1.0"
     inkscape:pageopacity="0"
     inkscape:pageshadow="2"
     inkscape:zoom="5.656854"
     inkscape:cx="-50.809861"
     inkscape:cy="12.225017"
     inkscape:document-units="px"
     inkscape:current-layer="g4189"
     showgrid="true"
     fit-margin-top="0"
     fit-margin-left="0"
     fit-margin-right="0"
     fit-margin-bottom="0"
     inkscape:window-width="1366"
     inkscape:window-height="633"
     inkscape:window-x="0"
     inkscape:window-y="33"
     inkscape:window-maximized="1"
     inkscape:showpageshadow="false"
     borderlayer="true"
     showguides="false"
     inkscape:snap-bbox="true"
     inkscape:snap-global="true"
     inkscape:object-nodes="true">
    <inkscape:grid
       type="xygrid"
       id="grid4063" />
    <sodipodi:guide
       position="4.2167969e-05,32.000026"
       orientation="32,0"
       id="guide4625" />
    <sodipodi:guide
       position="4.2167969e-05,2.6367188e-05"
       orientation="0,31.999969"
       id="guide4627" />
    <sodipodi:guide
       position="32.000012,2.6367188e-05"
       orientation="-32,0"
       id="guide4629" />
    <sodipodi:guide
       position="32.000012,32.000026"
       orientation="0,-31.999969"
       id="guide4631" />
    <sodipodi:guide
       position="2.0000422,30.000026"
       orientation="28,0"
       id="guide4633" />
    <sodipodi:guide
       position="2.0000422,2.0000264"
       orientation="0,27.999969"
       id="guide4635" />
    <sodipodi:guide
       position="30,17"
       orientation="-28,0"
       id="guide4637" />
    <sodipodi:guide
       position="30.000012,30.000026"
       orientation="0,-27.999969"
       id="guide4639" />
    <sodipodi:guide
       position="9.0000727,23.000026"
       orientation="14,0"
       id="guide4175" />
    <sodipodi:guide
       position="9.0000727,9.0000264"
       orientation="0,13.999969"
       id="guide4177" />
    <sodipodi:guide
       position="23.000042,9.0000264"
       orientation="-14,0"
       id="guide4179" />
    <sodipodi:guide
       position="23.000042,23.000026"
       orientation="0,-13.999969"
       id="guide4181" />
  </sodipodi:namedview>
  <metadata
     id="metadata5458">
    <rdf:RDF>
      <cc:Work
         rdf:about="">
        <dc:format>image/svg+xml</dc:format>
        <dc:type
           rdf:resource="http://purl.org/dc/dcmitype/StillImage" />
        <dc:title />
      </cc:Work>
    </rdf:RDF>
  </metadata>
  <g
     inkscape:label="Capa 1"
     inkscape:groupmode="layer"
     id="layer1"
     transform="translate(-384.57143,-499.798)">
    <flowRoot
       xml:space="preserve"
       id="flowRoot4170"
       style="font-style:normal;font-variant:normal;font-weight:normal;font-stretch:normal;font-size:10px;line-height:125%;font-family:sans-serif;-inkscape-font-specification:'sans-serif, Normal';text-align:start;letter-spacing:0px;word-spacing:0px;writing-mode:lr-tb;text-anchor:start;fill:#000000;fill-opacity:1;stroke:none"
       transform="translate(355.61641,516.06468)"><flowRegion
         id="flowRegion4172"><rect
           id="rect4174"
           width="27"
           height="15"
           x="22"
           y="3" /></flowRegion><flowPara
         id="flowPara4176">Plasm</flowPara></flowRoot>    <rect
       style="fill:#ffffff;fill-opacity:1;stroke:none"
       id="rect4035"
       width="0"
       height="10.999983"
       x="334.45468"
       y="525.92297" />
    <rect
       style="fill:#ffffff;fill-opacity:1;stroke:none"
       id="rect4035-4"
       width="0"
       height="10.999983"
       x="334.13391"
       y="524.92297" />
    <rect
       style="fill:#fbd2bf;fill-opacity:1;stroke:none"
       id="rect4035-3"
       width="0"
       height="11.113901"
       x="332.59805"
       y="524.80914" />
    <rect
       style="fill:#fbd2bf;fill-opacity:1;stroke:none"
       id="rect4035-1"
       width="0"
       height="10.999983"
       x="334.13391"
       y="524.92297" />
    <rect
       style="fill:#fbfbfb;fill-opacity:1;stroke:none"
       id="rect4035-5"
       width="0"
       height="10.999983"
       x="334.13391"
       y="524.92297" />
    <rect
       style="fill:#fffcf9;fill-opacity:1;stroke:none"
       id="rect4035-8"
       width="0"
       height="10.999983"
       x="334.13391"
       y="524.92297" />
    <rect
       style="fill:#e8d9eb;fill-opacity:1;stroke:none"
       id="rect4035-44"
       width="0"
       height="10.999983"
       x="334.13391"
       y="524.92297" />
    <rect
       style="fill:#e8d9eb;fill-opacity:1;stroke:none"
       id="rect4035-7"
       width="0"
       height="10.999983"
       x="334.13391"
       y="524.92297" />
    <g
       id="layer1-5"
       inkscape:label="Capa 1">
      <g
         transform="matrix(0.87499998,0,0,0.87499998,50.025937,66.450093)"
         inkscape:label="Capa 1"
         id="layer1-9">
        <g
           id="g4284"
           transform="matrix(1.1428581,0,0,1.1428581,-57.327415,-75.995025)">
          <g
             id="g4189"
             transform="matrix(1.5930954,0,0,1.5930954,-229.65728,-322.73704)">
            <g
               id="g4207"
               transform="matrix(1.0760722,0,0,1.0760722,-30.482637,-40.895776)">
              <g
                 style="stroke:none;stroke-width:1.29999995;stroke-miterlimit:4;stroke-dasharray:none;stroke-opacity:1"
                 transform="translate(0.13524268,0.04517549)"
                 inkscape:label="Capa 1"
                 id="layer1-3">
                <circle
                   style="opacity:1;fill:url(#linearGradient4181);fill-opacity:1;stroke:none;stroke-width:1.29999995;stroke-miterlimit:4;stroke-dasharray:none;stroke-dashoffset:0;stroke-opacity:1"
                   id="path3377"
                   cx="400.57138"
                   cy="531.79791"
                   r="13.999958" />
                <circle
                   r="13.999958"
                   cy="531.79797"
                   cx="400.57144"
                   id="circle4174"
                   style="opacity:1;fill:#5ea5fb;fill-opacity:0;stroke:none;stroke-width:1.29999995;stroke-miterlimit:4;stroke-dasharray:none;stroke-dashoffset:0;stroke-opacity:1" />
                <circle
                   r="0"
                   cy="531.79791"
                   cx="400.57138"
                   id="ellipse4233"
                   style="opacity:1;fill:url(#linearGradient3426);fill-opacity:1;stroke:none;stroke-width:1.29999995;stroke-miterlimit:4;stroke-dasharray:none;stroke-dashoffset:0;stroke-opacity:1" />
              </g>
              <g
                 transform="matrix(0.87499927,0,0,0.87499927,393.70666,-381.97302)"
                 id="layer1-0"
                 inkscape:label="Capa 1"
                 style="fill:#ffffff;fill-opacity:0.85">
                <g
                   inkscape:label="Capa 1"
                   id="layer1-4"
                   transform="translate(-412.88298,512.00351)"
                   style="fill:#ffffff;fill-opacity:0.85">
                  <g
                     transform="translate(392.57143,-514.5642)"
                     id="layer1-7"
                     inkscape:label="Capa 1"
                     style="fill:#ffffff;fill-opacity:0.85" />
                  <g
                     id="g4240"
                     transform="translate(341.79698,500.25245)"
                     style="fill:#ffffff;fill-opacity:0.85">
                    <g
                       inkscape:transform-center-y="-9.4924686"
                       inkscape:transform-center-x="5.4653607"
                       inkscape:label="Capa 1"
                       id="layer1-1"
                       transform="translate(-392.98822,-511.27795)"
                       style="fill:#ffffff;fill-opacity:0.85">
                      <g
                         transform="matrix(0.71733438,0,0,0.71733438,181.16816,163.89609)"
                         id="layer1-5-4"
                         inkscape:label="Capa 1"
                         style="fill:#ffffff;fill-opacity:0.85">
                        <g
                           transform="matrix(2.0802722,0,0,2.0802722,350.91598,-1637.5069)"
                           id="layer1-5-5"
                           inkscape:label="Capa 1"
                           style="fill:#ffffff;fill-opacity:0.85">
                          <g
                             style="fill:#ffffff;fill-opacity:0.85"
                             transform="matrix(0.07908756,0,0,0.07908756,22.539801,1036.0878)"
                             sketch:type="MSLayerGroup"
                             id="microphone28">
                            <g
                               style="fill:#ffffff;fill-opacity:0.85"
                               sketch:type="MSShapeGroup"
                               id="g4987">
                              <path
                                 style="fill:#ffffff;fill-opacity:0.85"
                                 inkscape:connector-curvature="0"
                                 id="path4989"
                                 d="m 47,94.07 c 7.17,0 13.307,-2.553 18.412,-7.657 C 70.517,81.309 73.07,75.17 73.07,68 l 0,-41.714 C 73.07,19.116 70.519,12.979 65.412,7.873 60.307,2.768 54.17,0.214 47,0.214 c -7.17,0 -13.307,2.554 -18.413,7.659 -5.106,5.105 -7.659,11.243 -7.659,18.413 l 0,41.714 c 0,7.17 2.554,13.309 7.659,18.413 C 33.692,91.517 39.83,94.07 47,94.07 l 0,0 z" />
                              <path
                                 style="fill:#ffffff;fill-opacity:0.85"
                                 inkscape:connector-curvature="0"
                                 id="path4991"
                                 d="m 92.38,53.905 c -1.03,-1.032 -2.254,-1.548 -3.666,-1.548 -1.412,0 -2.634,0.516 -3.666,1.548 -1.032,1.032 -1.548,2.254 -1.548,3.666 L 83.5,68 C 83.5,78.049 79.928,86.643 72.786,93.786 65.645,100.929 57.049,104.5 47,104.5 36.951,104.5 28.356,100.929 21.213,93.786 14.071,86.645 10.5,78.049 10.5,68 l 0,-10.429 C 10.5,56.159 9.984,54.937 8.952,53.905 7.92,52.873 6.699,52.357 5.286,52.357 c -1.413,0 -2.635,0.516 -3.667,1.548 -1.032,1.032 -1.548,2.254 -1.548,3.666 l 0,10.429 c 0,12.004 4.006,22.446 12.017,31.326 8.011,8.88 17.91,13.972 29.697,15.275 l 0,10.756 -20.857,0 c -1.412,0 -2.634,0.516 -3.666,1.548 -1.032,1.032 -1.548,2.254 -1.548,3.666 0,1.411 0.516,2.635 1.548,3.666 1.032,1.032 2.254,1.549 3.666,1.549 l 52.142,0 c 1.412,0 2.636,-0.517 3.666,-1.549 1.033,-1.031 1.55,-2.255 1.55,-3.666 0,-1.412 -0.517,-2.634 -1.55,-3.666 -1.03,-1.032 -2.254,-1.548 -3.666,-1.548 l -20.855,0 0,-10.756 C 64,113.298 73.899,108.206 81.911,99.326 89.923,90.446 93.93,80.004 93.93,68 l 0,-10.429 c 0,-1.412 -0.517,-2.633 -1.55,-3.666 l 0,0 z" />
                            </g>
                          </g>
                        </g>
                      </g>
                    </g>
                  </g>
                </g>
              </g>
            </g>
          </g>
        </g>
      </g>
    </g>
  </g>
</svg>
