<?xml version="1.0" encoding="UTF-8" standalone="no"?>
<!-- Created with Inkscape (http://www.inkscape.org/) -->

<svg
   xmlns:osb="http://www.openswatchbook.org/uri/2009/osb"
   xmlns:dc="http://purl.org/dc/elements/1.1/"
   xmlns:cc="http://creativecommons.org/ns#"
   xmlns:rdf="http://www.w3.org/1999/02/22-rdf-syntax-ns#"
   xmlns:svg="http://www.w3.org/2000/svg"
   xmlns="http://www.w3.org/2000/svg"
   xmlns:xlink="http://www.w3.org/1999/xlink"
   xmlns:sodipodi="http://sodipodi.sourceforge.net/DTD/sodipodi-0.dtd"
   xmlns:inkscape="http://www.inkscape.org/namespaces/inkscape"
   width="48"
   height="48"
   id="svg5453"
   version="1.1"
   inkscape:version="0.91 r13725"
   sodipodi:docname="preferences-desktop-peripherals.svg">
  <defs
     id="defs5455">
    <linearGradient
       id="linearGradient4143"
       inkscape:collect="always">
      <stop
         id="stop4145"
         offset="0"
         style="stop-color:#197cf1;stop-opacity:1" />
      <stop
         id="stop4147"
         offset="1"
         style="stop-color:#20bcfa;stop-opacity:1" />
    </linearGradient>
    <linearGradient
       osb:paint="gradient"
       id="linearGradient4207">
      <stop
         id="stop3371"
         offset="0"
         style="stop-color:#3498db;stop-opacity:1;" />
      <stop
         id="stop3373"
         offset="1"
         style="stop-color:#3498db;stop-opacity:0;" />
    </linearGradient>
    <linearGradient
       gradientUnits="userSpaceOnUse"
       y2="513.9823"
       x2="357.30374"
       y1="547.43585"
       x1="357.30374"
       id="linearGradient4534"
       xlink:href="#linearGradient4143"
       inkscape:collect="always" />
    <linearGradient
       y2="513.9823"
       x2="357.30374"
       y1="547.43585"
       x1="357.30374"
       gradientUnits="userSpaceOnUse"
       id="linearGradient4642"
       xlink:href="#linearGradient4191"
       inkscape:collect="always" />
    <linearGradient
       inkscape:collect="always"
       xlink:href="#linearGradient4143"
       id="linearGradient4335"
       gradientUnits="userSpaceOnUse"
       x1="357.30374"
       y1="547.43585"
       x2="357.30374"
       y2="513.9823" />
    <linearGradient
       inkscape:collect="always"
       xlink:href="#linearGradient4143"
       id="linearGradient4337"
       gradientUnits="userSpaceOnUse"
       x1="357.30374"
       y1="547.43585"
       x2="357.30374"
       y2="513.9823" />
    <linearGradient
       inkscape:collect="always"
       xlink:href="#linearGradient4143"
       id="linearGradient4339"
       gradientUnits="userSpaceOnUse"
       x1="357.30374"
       y1="547.43585"
       x2="357.30374"
       y2="513.9823" />
    <linearGradient
       inkscape:collect="always"
       xlink:href="#linearGradient4143"
       id="linearGradient4341"
       gradientUnits="userSpaceOnUse"
       x1="357.30374"
       y1="547.43585"
       x2="357.30374"
       y2="513.9823" />
    <linearGradient
       inkscape:collect="always"
       xlink:href="#linearGradient4143"
       id="linearGradient4343"
       gradientUnits="userSpaceOnUse"
       x1="357.30374"
       y1="547.43585"
       x2="357.30374"
       y2="513.9823" />
    <linearGradient
       inkscape:collect="always"
       xlink:href="#linearGradient4143"
       id="linearGradient4385"
       gradientUnits="userSpaceOnUse"
       x1="357.30374"
       y1="547.43585"
       x2="357.30374"
       y2="513.9823" />
    <linearGradient
       id="linearGradient4210">
      <stop
         offset="0"
         style="stop-color:#ff584c;stop-opacity:1"
         id="stop4212" />
      <stop
         offset="1"
         style="stop-color:#ff8077;stop-opacity:1"
         id="stop4214-3" />
    </linearGradient>
    <linearGradient
       id="linearGradient8467">
      <stop
         offset="0"
         style="stop-color:#9e9e9e;stop-opacity:1"
         id="stop8469" />
      <stop
         offset="1"
         style="stop-color:#d1d1d1;stop-opacity:1"
         id="stop8471" />
    </linearGradient>
    <linearGradient
       id="linearGradient4232">
      <stop
         id="stop4234"
         offset="0"
         style="stop-color:#333333;stop-opacity:1" />
      <stop
         id="stop4236"
         offset="1"
         style="stop-color:#353535;stop-opacity:1" />
    </linearGradient>
    <linearGradient
       id="linearGradient4179-7">
      <stop
         offset="0"
         style="stop-color:#e8d800;stop-opacity:1"
         id="stop4181-2" />
      <stop
         offset="1"
         style="stop-color:#feff68;stop-opacity:1"
         id="stop4183-1" />
    </linearGradient>
    <linearGradient
       inkscape:collect="always"
       id="linearGradient4191">
      <stop
         style="stop-color:#2e3e46;stop-opacity:1"
         offset="0"
         id="stop4193" />
      <stop
         style="stop-color:#47606a;stop-opacity:1"
         offset="1"
         id="stop4195" />
    </linearGradient>
    <linearGradient
       inkscape:collect="always"
       xlink:href="#linearGradient4143"
       id="linearGradient4248"
       gradientUnits="userSpaceOnUse"
       x1="357.30374"
       y1="547.43585"
       x2="357.30374"
       y2="513.9823" />
  </defs>
  <sodipodi:namedview
     id="base"
     pagecolor="#6c6c6c"
     bordercolor="#666666"
     borderopacity="1.0"
     inkscape:pageopacity="0"
     inkscape:pageshadow="2"
     inkscape:zoom="2.7952815"
     inkscape:cx="-20.471015"
     inkscape:cy="26.188536"
     inkscape:document-units="px"
     inkscape:current-layer="g4403"
     showgrid="true"
     fit-margin-top="0"
     fit-margin-left="0"
     fit-margin-right="0"
     fit-margin-bottom="0"
     inkscape:window-width="1366"
     inkscape:window-height="633"
     inkscape:window-x="0"
     inkscape:window-y="33"
     inkscape:window-maximized="1"
     inkscape:showpageshadow="false"
     borderlayer="true"
     showguides="false">
    <inkscape:grid
       type="xygrid"
       id="grid4063" />
    <sodipodi:guide
       position="4.2167969e-05,32.000026"
       orientation="32,0"
       id="guide4625" />
    <sodipodi:guide
       position="4.2167969e-05,2.6367188e-05"
       orientation="0,31.999969"
       id="guide4627" />
    <sodipodi:guide
       position="32.000012,2.6367188e-05"
       orientation="-32,0"
       id="guide4629" />
    <sodipodi:guide
       position="32.000012,32.000026"
       orientation="0,-31.999969"
       id="guide4631" />
    <sodipodi:guide
       position="2.0000422,30.000026"
       orientation="28,0"
       id="guide4633" />
    <sodipodi:guide
       position="-44,2"
       orientation="0,27.999969"
       id="guide4635" />
    <sodipodi:guide
       position="30.000012,30.000026"
       orientation="0,-27.999969"
       id="guide4639" />
    <sodipodi:guide
       position="30,4"
       orientation="0,-5"
       id="guide4190" />
    <sodipodi:guide
       position="25,4"
       orientation="0,5"
       id="guide4192" />
    <sodipodi:guide
       position="30,4"
       orientation="0,-1"
       id="guide4194" />
    <sodipodi:guide
       position="29,4"
       orientation="0,-1.5"
       id="guide4196" />
    <sodipodi:guide
       position="16.000012,22.000026"
       orientation="14,0"
       id="guide4188" />
    <sodipodi:guide
       position="16.000012,8.0000264"
       orientation="0,14"
       id="guide4191" />
    <sodipodi:guide
       position="30.000012,8.0000264"
       orientation="-14,0"
       id="guide4193" />
    <sodipodi:guide
       position="30.000012,22.000026"
       orientation="0,-14"
       id="guide4195" />
  </sodipodi:namedview>
  <metadata
     id="metadata5458">
    <rdf:RDF>
      <cc:Work
         rdf:about="">
        <dc:format>image/svg+xml</dc:format>
        <dc:type
           rdf:resource="http://purl.org/dc/dcmitype/StillImage" />
        <dc:title />
      </cc:Work>
    </rdf:RDF>
  </metadata>
  <g
     inkscape:label="Capa 1"
     inkscape:groupmode="layer"
     id="layer1"
     transform="translate(-384.57143,-499.798)">
    <g
       id="layer1-0"
       inkscape:label="Capa 1"
       transform="translate(-7.2889115,1.6748485)">
      <g
         transform="matrix(0.65762761,0,0,0.65762761,170.68869,178.89615)"
         id="g4447">
        <g
           transform="translate(-48.123492,9.4954666)"
           id="layer1-6"
           inkscape:label="Capa 1">
          <g
             transform="translate(-51.525445,5.4558218)"
             inkscape:label="Capa 1"
             id="layer1-4">
            <g
               id="layer1-3"
               inkscape:label="Capa 1"
               transform="translate(-34.965532,2.4832225)" />
          </g>
          <g
             style="fill:url(#linearGradient4534);fill-opacity:1"
             transform="translate(51.385479,-6.0099446)"
             id="g4403">
            <g
               style="fill:url(#linearGradient4343);fill-opacity:1"
               inkscape:label="Capa 1"
               id="layer1-1"
               transform="matrix(1.5206174,0,0,1.5206174,-205.87819,-277.23658)">
              <flowRoot
                 xml:space="preserve"
                 id="flowRoot4170-8"
                 style="font-style:normal;font-variant:normal;font-weight:normal;font-stretch:normal;font-size:10px;line-height:125%;font-family:sans-serif;-inkscape-font-specification:'sans-serif, Normal';text-align:start;letter-spacing:0px;word-spacing:0px;writing-mode:lr-tb;text-anchor:start;fill:url(#linearGradient4341);fill-opacity:1;stroke:none"
                 transform="translate(389.57142,520.79806)"><flowRegion
                   style="fill:url(#linearGradient4337);fill-opacity:1"
                   id="flowRegion4172-7"><rect
                     style="fill:url(#linearGradient4335);fill-opacity:1"
                     id="rect4174-74"
                     width="27"
                     height="15"
                     x="22"
                     y="3" /></flowRegion><flowPara
                   style="fill:url(#linearGradient4339);fill-opacity:1"
                   id="flowPara4176-9">Plasm</flowPara></flowRoot>            </g>
            <g
               id="g4220"
               style="fill:url(#linearGradient4248)"
               transform="matrix(1.5763602,0,0,1.5763602,-193.81776,-317.97958)">
              <rect
                 style="opacity:1;fill:url(#linearGradient4642);fill-opacity:1;stroke:none;stroke-width:0.2;stroke-linecap:round;stroke-linejoin:round;stroke-miterlimit:4;stroke-dasharray:none;stroke-opacity:1"
                 id="rect4195"
                 width="46.302639"
                 height="34.938858"
                 x="334.23404"
                 y="513.12695"
                 ry="1.6441816" />
              <g
                 id="g4247"
                 style="opacity:1;fill:#ffffff;fill-opacity:0.85204091"
                 transform="matrix(0.83317883,0,0,0.83317883,66.203241,83.630876)">
                <circle
                   r="2.25"
                   cy="520.66296"
                   cx="326.6312"
                   id="path4224-8"
                   style="opacity:1;fill:#ffffff;fill-opacity:0.85204091;stroke:none;stroke-width:0.2;stroke-linecap:round;stroke-linejoin:round;stroke-miterlimit:4;stroke-dasharray:none;stroke-opacity:1" />
                <circle
                   r="2.25"
                   cy="526.66681"
                   cx="326.70419"
                   id="path4224-8-8"
                   style="opacity:1;fill:#ffffff;fill-opacity:0.85204091;stroke:none;stroke-width:0.2;stroke-linecap:round;stroke-linejoin:round;stroke-miterlimit:4;stroke-dasharray:none;stroke-opacity:1" />
                <circle
                   r="2.25"
                   cy="532.41583"
                   cx="326.69324"
                   id="path4224-8-5"
                   style="opacity:1;fill:#ffffff;fill-opacity:0.85204091;stroke:none;stroke-width:0.2;stroke-linecap:round;stroke-linejoin:round;stroke-miterlimit:4;stroke-dasharray:none;stroke-opacity:1" />
              </g>
              <g
                 transform="matrix(1.5206174,0,0,1.5206174,-299.88598,-277.35548)"
                 id="layer1-18"
                 inkscape:label="Capa 1"
                 style="fill:url(#linearGradient4385)">
                <g
                   id="g4442"
                   transform="matrix(0.5874244,0,0,0.5874244,424.72155,523.76097)"
                   style="fill:#ffffff;fill-opacity:0.85204091">
                  <g
                     id="g4398"
                     style="fill:#ffffff;fill-opacity:0.85204091">
                    <g
                       id="g4400"
                       style="fill:#ffffff;fill-opacity:0.85204091">
                      <g
                         id="g4402"
                         style="fill:#ffffff;fill-opacity:0.85204091">
                        <path
                           id="path4404"
                           d="m 12.171,25.303 c -0.033,0 -0.066,-0.004 -0.099,-0.011 -0.117,-0.027 -0.219,-0.1 -0.283,-0.201 -0.744,-1.19 1.774,-3.053 7.697,-7.016 1.585,-1.062 3.523,-2.357 4.847,-3.372 -1.342,0.865 -3.15,2.076 -4.832,3.203 -7.479,5.009 -9.104,6 -9.658,5.88 C 9.724,23.761 9.587,23.667 9.522,23.563 9.392,23.356 9.452,23.083 9.657,22.948 16.747,18.309 24.036,12.977 25.947,10.76 22.939,12.579 14.13,18.146 8.008,22.036 7.906,22.099 7.785,22.123 7.667,22.095 7.55,22.07 7.449,21.996 7.385,21.896 7.283,21.733 7.181,21.458 7.272,21.072 7.383,20.601 7.796,20.021 8.446,19.356 7.754,19.796 7.081,20.227 6.437,20.639 6.335,20.703 6.213,20.724 6.096,20.701 5.978,20.675 5.877,20.601 5.813,20.5 5.733,20.372 5.652,20.154 5.726,19.851 5.805,19.526 6.118,19.088 6.613,18.575 5.213,19.43 5.006,19.464 4.815,19.425 4.697,19.4 4.584,19.321 4.52,19.217 3.307,17.278 9.337,12.81 20.163,5.747 21.268,5.025 22.336,4.33 23.011,3.867 21.043,4.445 15.695,7.924 9.881,12.151 8.549,13.16 7.062,14.276 5.404,15.513 4.865,15.914 4.365,16.287 3.995,16.566 3.777,16.735 3.56,16.904 3.343,17.073 3.242,17.151 3.112,17.178 2.988,17.161 2.863,17.139 2.752,17.064 2.685,16.956 2.568,16.768 2.511,16.676 2.81,16.388 L 2.791,16.364 C 3.477,15.83 6.166,13.746 9.423,11.374 12.563,8.997 16.245,6.153 18.397,4.288 16.341,5.573 13.298,7.517 10.654,9.205 1.847,14.83 1.838,14.83 1.543,14.758 1.426,14.733 1.322,14.658 1.258,14.557 0.804,13.83 1.691,12.851 8.795,7.342 9.579,6.734 10.414,6.087 11.097,5.543 9.329,6.606 6.613,8.599 4.916,9.844 1.582,12.291 1.111,12.589 0.734,12.518 0.611,12.495 0.48,12.407 0.413,12.3 -0.025,11.6 0.868,10.89 5.22,7.894 5.606,7.627 6.029,7.336 6.462,7.036 1.066,10.544 0.682,10.663 0.375,10.596 0.257,10.57 0.141,10.489 0.076,10.386 -0.125,10.065 -0.185,9.97 3.408,6.671 2.028,7.536 0.952,8.093 0.577,8.028 0.455,8.005 0.29,7.895 0.224,7.79 0.081,7.562 -0.218,7.082 2.19,4.468 L 2.331,3.733 2.242,4.174 1.994,3.8 C 2.019,3.781 2.079,3.734 2.163,3.667 3.71,2.436 4.142,2.25 4.485,2.306 4.611,2.327 4.779,2.437 4.847,2.545 4.959,2.725 4.931,2.958 4.78,3.107 3.458,4.398 2.03,5.946 1.383,6.838 2.753,6.095 5.696,4.105 8.33,2.196 8.524,2.055 8.793,2.092 8.944,2.277 9.095,2.462 9.074,2.733 8.897,2.893 7.257,4.379 5.047,6.398 3.354,7.969 4.969,6.943 6.896,5.681 8.222,4.812 c 2.87,-1.878 2.866,-1.873 3.088,-1.826 0.118,0.026 0.221,0.1 0.286,0.202 0.207,0.332 0.127,0.705 -0.342,1.24 0.757,-0.398 1.278,-0.561 1.617,-0.495 0.194,0.037 0.355,0.145 0.454,0.302 0.292,0.467 0.31,0.495 -3.976,3.818 C 7.703,9.328 5.367,11.14 3.786,12.507 5.502,11.429 7.924,9.881 10.173,8.445 20.375,1.93 20.426,1.945 20.729,2.007 c 0.117,0.026 0.222,0.101 0.286,0.202 0.202,0.324 0.39,0.624 -1.927,2.66 2.175,-1.271 3.941,-2.06 4.743,-1.923 0.354,0.063 0.538,0.254 0.632,0.403 C 24.76,3.826 24.76,3.826 20.659,6.5 16.89,8.959 5.941,16.102 5.264,18.332 6.627,17.564 10.669,14.923 14.292,12.555 24.405,5.946 25.624,5.257 26.067,5.352 c 0.118,0.026 0.237,0.109 0.302,0.212 0.064,0.103 0.084,0.227 0.057,0.344 C 26.398,6.025 26.322,6.127 26.22,6.188 18.28,10.949 10.1,16.397 7.47,18.915 26.197,6.94 26.476,7.014 26.698,7.069 26.815,7.095 26.922,7.17 26.985,7.272 27.049,7.374 27.07,7.501 27.043,7.62 26.979,7.891 26.978,7.897 23.852,9.811 19.664,12.374 10.295,18.111 8.453,20.693 26.509,9.218 26.693,9.264 26.932,9.306 c 0.117,0.027 0.22,0.101 0.284,0.202 0.479,0.766 -1.133,2.523 -3.674,4.643 2.182,-1.418 2.559,-1.563 2.82,-1.508 0.119,0.025 0.239,0.108 0.305,0.212 0.608,0.975 -1.239,2.334 -6.674,5.97 -1.977,1.323 -4.898,3.277 -6.419,4.604 9.929,-6.338 10.069,-6.311 10.304,-6.266 0.116,0.026 0.221,0.1 0.284,0.201 0.133,0.211 0.068,0.487 -0.142,0.62 -0.041,0.024 -0.084,0.044 -0.128,0.056 -0.688,0.337 -7.196,4.46 -11.472,7.193 -0.08,0.046 -0.164,0.07 -0.249,0.07 z"
                           inkscape:connector-curvature="0"
                           style="fill:#ffffff;fill-opacity:0.85204091" />
                      </g>
                    </g>
                  </g>
                  <g
                     id="g4406"
                     style="fill:#ffffff;fill-opacity:0.85204091" />
                  <g
                     id="g4408"
                     style="fill:#ffffff;fill-opacity:0.85204091" />
                  <g
                     id="g4410"
                     style="fill:#ffffff;fill-opacity:0.85204091" />
                  <g
                     id="g4412"
                     style="fill:#ffffff;fill-opacity:0.85204091" />
                  <g
                     id="g4414"
                     style="fill:#ffffff;fill-opacity:0.85204091" />
                  <g
                     id="g4416"
                     style="fill:#ffffff;fill-opacity:0.85204091" />
                  <g
                     id="g4418"
                     style="fill:#ffffff;fill-opacity:0.85204091" />
                  <g
                     id="g4420"
                     style="fill:#ffffff;fill-opacity:0.85204091" />
                  <g
                     id="g4422"
                     style="fill:#ffffff;fill-opacity:0.85204091" />
                  <g
                     id="g4424"
                     style="fill:#ffffff;fill-opacity:0.85204091" />
                  <g
                     id="g4426"
                     style="fill:#ffffff;fill-opacity:0.85204091" />
                  <g
                     id="g4428"
                     style="fill:#ffffff;fill-opacity:0.85204091" />
                  <g
                     id="g4430"
                     style="fill:#ffffff;fill-opacity:0.85204091" />
                  <g
                     id="g4432"
                     style="fill:#ffffff;fill-opacity:0.85204091" />
                  <g
                     id="g4434"
                     style="fill:#ffffff;fill-opacity:0.85204091" />
                </g>
              </g>
            </g>
          </g>
        </g>
      </g>
      <g
         transform="translate(-36.835678,-0.95376595)"
         inkscape:label="Capa 1"
         id="layer1-81">
        <flowRoot
           xml:space="preserve"
           id="flowRoot4170"
           style="font-style:normal;font-variant:normal;font-weight:normal;font-stretch:normal;font-size:10px;line-height:125%;font-family:sans-serif;-inkscape-font-specification:'sans-serif, Normal';text-align:start;letter-spacing:0px;word-spacing:0px;writing-mode:lr-tb;text-anchor:start;fill:#000000;fill-opacity:1;stroke:none;stroke-width:1px;stroke-linecap:butt;stroke-linejoin:miter;stroke-opacity:1"
           transform="translate(389.57143,520.79802)"><flowRegion
             id="flowRegion4172"><rect
               id="rect4174"
               width="27"
               height="15"
               x="22"
               y="3" /></flowRegion><flowPara
             id="flowPara4176">Plasm</flowPara></flowRoot>      </g>
    </g>
  </g>
</svg>
