<?xml version="1.0" encoding="UTF-8" standalone="no"?>
<!-- Created with Inkscape (http://www.inkscape.org/) -->

<svg
   xmlns:sketch="http://www.bohemiancoding.com/sketch/ns"
   xmlns:osb="http://www.openswatchbook.org/uri/2009/osb"
   xmlns:dc="http://purl.org/dc/elements/1.1/"
   xmlns:cc="http://creativecommons.org/ns#"
   xmlns:rdf="http://www.w3.org/1999/02/22-rdf-syntax-ns#"
   xmlns:svg="http://www.w3.org/2000/svg"
   xmlns="http://www.w3.org/2000/svg"
   xmlns:xlink="http://www.w3.org/1999/xlink"
   xmlns:sodipodi="http://sodipodi.sourceforge.net/DTD/sodipodi-0.dtd"
   xmlns:inkscape="http://www.inkscape.org/namespaces/inkscape"
   width="48"
   height="48"
   id="svg5453"
   version="1.1"
   inkscape:version="0.91 r13725"
   sodipodi:docname="preferences-system-windows-actions.svg">
  <defs
     id="defs5455">
    <linearGradient
       gradientTransform="matrix(1.0523327,0,0,1.0276135,-21.151387,-14.039869)"
       gradientUnits="userSpaceOnUse"
       y2="507.798"
       x2="409.57144"
       y1="542.79797"
       x1="409.57144"
       id="linearGradient4222"
       xlink:href="#linearGradient4143"
       inkscape:collect="always" />
    <linearGradient
       osb:paint="gradient"
       id="linearGradient4207">
      <stop
         id="stop3371"
         offset="0"
         style="stop-color:#3498db;stop-opacity:1;" />
      <stop
         id="stop3373"
         offset="1"
         style="stop-color:#3498db;stop-opacity:0;" />
    </linearGradient>
    <linearGradient
       id="linearGradient4227-2">
      <stop
         id="stop4229-9"
         style="stop-color:#566069;stop-opacity:1"
         offset="0" />
      <stop
         id="stop4231-4"
         style="stop-color:#6c7884;stop-opacity:1"
         offset="1" />
    </linearGradient>
    <linearGradient
       inkscape:collect="always"
       id="linearGradient4143">
      <stop
         style="stop-color:#197cf1;stop-opacity:1"
         offset="0"
         id="stop4145" />
      <stop
         style="stop-color:#20bcfa;stop-opacity:1"
         offset="1"
         id="stop4147" />
    </linearGradient>
  </defs>
  <sodipodi:namedview
     id="base"
     pagecolor="#ffffff"
     bordercolor="#666666"
     borderopacity="1.0"
     inkscape:pageopacity="0"
     inkscape:pageshadow="2"
     inkscape:zoom="5.6568542"
     inkscape:cx="-27.054036"
     inkscape:cy="17.564187"
     inkscape:document-units="px"
     inkscape:current-layer="layer1-37"
     showgrid="true"
     fit-margin-top="0"
     fit-margin-left="0"
     fit-margin-right="0"
     fit-margin-bottom="0"
     inkscape:window-width="1366"
     inkscape:window-height="633"
     inkscape:window-x="0"
     inkscape:window-y="33"
     inkscape:window-maximized="1"
     inkscape:showpageshadow="false"
     borderlayer="true"
     showguides="false">
    <inkscape:grid
       type="xygrid"
       id="grid4063" />
    <sodipodi:guide
       position="4.2167969e-05,32.000026"
       orientation="32,0"
       id="guide4625" />
    <sodipodi:guide
       position="4.2167969e-05,2.6367188e-05"
       orientation="0,31.999969"
       id="guide4627" />
    <sodipodi:guide
       position="32.000012,2.6367188e-05"
       orientation="-32,0"
       id="guide4629" />
    <sodipodi:guide
       position="32.000012,32.000026"
       orientation="0,-31.999969"
       id="guide4631" />
    <sodipodi:guide
       position="2.0000422,30.000026"
       orientation="28,0"
       id="guide4633" />
    <sodipodi:guide
       position="2.0000422,2.0000264"
       orientation="0,27.999969"
       id="guide4635" />
    <sodipodi:guide
       position="30,17"
       orientation="-28,0"
       id="guide4637" />
    <sodipodi:guide
       position="30.000012,30.000026"
       orientation="0,-27.999969"
       id="guide4639" />
    <sodipodi:guide
       position="9.0000117,21.000026"
       orientation="14,0"
       id="guide4158" />
    <sodipodi:guide
       position="9.0000117,7.0000264"
       orientation="0,14"
       id="guide4160" />
    <sodipodi:guide
       position="23.000012,21.000026"
       orientation="0,-14"
       id="guide4164" />
  </sodipodi:namedview>
  <metadata
     id="metadata5458">
    <rdf:RDF>
      <cc:Work
         rdf:about="">
        <dc:format>image/svg+xml</dc:format>
        <dc:type
           rdf:resource="http://purl.org/dc/dcmitype/StillImage" />
        <dc:title />
      </cc:Work>
    </rdf:RDF>
  </metadata>
  <g
     inkscape:label="Capa 1"
     inkscape:groupmode="layer"
     id="layer1"
     transform="translate(-384.57143,-499.798)">
    <g
       id="layer1-37"
       inkscape:label="Capa 1"
       transform="translate(0.01805765,0.00238029)">
      <g
         transform="matrix(0.65762761,0,0,0.65762761,163.45346,180.49688)"
         id="g4447">
        <g
           transform="translate(-48.123492,9.4954666)"
           id="layer1-6"
           inkscape:label="Capa 1">
          <g
             transform="translate(-51.525445,5.4558218)"
             inkscape:label="Capa 1"
             id="layer1-4">
            <g
               id="layer1-3"
               inkscape:label="Capa 1"
               transform="translate(-34.965532,2.4832225)" />
          </g>
          <g
             transform="translate(51.385479,-6.0099446)"
             id="g4403" />
        </g>
        <g
           id="g4172"
           transform="matrix(1.5763602,0,0,1.5763602,-195.63497,-320.05135)">
          <rect
             style="opacity:1;fill:url(#linearGradient4222);fill-opacity:1.0;stroke:none;stroke-width:0.2;stroke-linecap:round;stroke-linejoin:round;stroke-miterlimit:4;stroke-dasharray:none;stroke-opacity:1"
             id="rect4195"
             width="46.302639"
             height="34.938858"
             x="385.65039"
             y="507.78021"
             ry="1.6441816"
             transform="translate(-48.263451,8.9413364)" />
          <g
             id="g4247"
             style="fill:#ffffff;fill-opacity:0.84693879"
             transform="matrix(0.83317883,0,0,0.83317883,69.00953,88.18103)" />
          <g
             style="fill:#ffffff;fill-opacity:0.84693879"
             transform="matrix(1.5206174,0,0,1.5206174,-302.66502,-281.34008)"
             id="layer1-66"
             inkscape:label="Capa 1">
            <g
               style="fill:#ffffff;fill-opacity:0.84693879"
               transform="translate(-0.86098561,-2.0807143)"
               id="layer1-0"
               inkscape:label="Capa 1">
              <g
                 style="fill:#ffffff;fill-opacity:0.84693879"
                 transform="matrix(0.11986343,0,0,0.11986343,429.63077,532.36817)"
                 sketch:type="MSLayerGroup"
                 id="trello">
                <path
                   style="fill:#ffffff;fill-opacity:0.84693879"
                   inkscape:connector-curvature="0"
                   sketch:type="MSShapeGroup"
                   id="path1319"
                   d="m 123.43394,-11.645354 c -1.04747,-1.047472 -2.28779,-1.571207 -3.72096,-1.571207 l -116.4337742,0 c -1.434184,0 -2.67450397,0.523735 -3.72197497,1.571207 -1.04747103,1.047471 -1.57120803,2.2877908 -1.57120803,3.7209593 l 0,116.4337647 c 0,1.43317 0.523737,2.67451 1.57120803,3.72096 1.048486,1.04748 2.28880597,1.57222 3.72197497,1.57222 l 116.4337742,0 c 1.43317,0 2.67349,-0.52474 3.72096,-1.57222 1.04646,-1.04645 1.57019,-2.28779 1.57019,-3.72096 l 0,-116.4337647 c 0,-1.4341834 -0.52272,-2.6734883 -1.57019,-3.7209593 l 0,0 z M 56.203922,87.339692 c 0,0.772406 -0.247659,1.405763 -0.74399,1.902083 -0.49633,0.49533 -1.1307,0.744 -1.902094,0.744 l -39.693283,0 c -0.772409,0 -1.405764,-0.24867 -1.902094,-0.744 -0.495317,-0.49632 -0.74399,-1.129677 -0.74399,-1.902083 l 0,-84.6797522 c 0,-0.772409 0.247658,-1.405764 0.74399,-1.90209406 0.49633,-0.495316 1.129685,-0.743988 1.902094,-0.743988 l 39.693283,0 c 0.771394,0 1.405764,0.248672 1.902094,0.743988 0.496331,0.49633006 0.74399,1.12968506 0.74399,1.90209406 l 0,84.6797522 0,0 z M 111.77473,55.584656 c 0,0.772409 -0.24766,1.406779 -0.74399,1.902096 -0.49532,0.49633 -1.12969,0.743988 -1.90108,0.743988 l -39.692275,0 c -0.774439,0 -1.406779,-0.247658 -1.903111,-0.743988 -0.495315,-0.495317 -0.742973,-1.129687 -0.742973,-1.902096 l 0,-52.9247162 c 0,-0.772409 0.247658,-1.405764 0.742973,-1.90209406 0.496332,-0.495316 1.128672,-0.743988 1.903111,-0.743988 l 39.692275,0 c 0.77139,0 1.40576,0.248672 1.90108,0.743988 0.49633,0.49633006 0.74399,1.12968506 0.74399,1.90209406 l 0,52.9247162 0,0 z" />
              </g>
            </g>
          </g>
        </g>
      </g>
    </g>
  </g>
</svg>
