<?xml version="1.0" encoding="UTF-8" standalone="no"?>
<!-- Created with Inkscape (http://www.inkscape.org/) -->

<svg
   xmlns:dc="http://purl.org/dc/elements/1.1/"
   xmlns:cc="http://creativecommons.org/ns#"
   xmlns:rdf="http://www.w3.org/1999/02/22-rdf-syntax-ns#"
   xmlns:svg="http://www.w3.org/2000/svg"
   xmlns="http://www.w3.org/2000/svg"
   xmlns:xlink="http://www.w3.org/1999/xlink"
   xmlns:sodipodi="http://sodipodi.sourceforge.net/DTD/sodipodi-0.dtd"
   xmlns:inkscape="http://www.inkscape.org/namespaces/inkscape"
   width="48"
   height="48"
   id="svg5453"
   version="1.1"
   inkscape:version="0.91 r13725"
   sodipodi:docname="scribus.svg">
  <defs
     id="defs5455">
    <linearGradient
       gradientTransform="matrix(0.13837079,0,0,0.13837079,72.46629,-72.959556)"
       inkscape:collect="always"
       xlink:href="#linearGradient4408"
       id="linearGradient5299"
       gradientUnits="userSpaceOnUse"
       x1="-318.57867"
       y1="653.95679"
       x2="-318.57867"
       y2="301.29816" />
    <linearGradient
       inkscape:collect="always"
       id="linearGradient4408">
      <stop
         style="stop-color:#183b69;stop-opacity:1"
         offset="0"
         id="stop4410" />
      <stop
         style="stop-color:#245aa1;stop-opacity:1"
         offset="1"
         id="stop4412" />
    </linearGradient>
  </defs>
  <sodipodi:namedview
     id="base"
     pagecolor="#ffffff"
     bordercolor="#666666"
     borderopacity="1.0"
     inkscape:pageopacity="0"
     inkscape:pageshadow="2"
     inkscape:zoom="4"
     inkscape:cx="-39.601104"
     inkscape:cy="15.968792"
     inkscape:document-units="px"
     inkscape:current-layer="g4370"
     showgrid="true"
     fit-margin-top="0"
     fit-margin-left="0"
     fit-margin-right="0"
     fit-margin-bottom="0"
     inkscape:window-width="1366"
     inkscape:window-height="634"
     inkscape:window-x="0"
     inkscape:window-y="36"
     inkscape:window-maximized="1"
     inkscape:showpageshadow="false"
     borderlayer="true"
     showguides="false">
    <inkscape:grid
       type="xygrid"
       id="grid4063" />
    <sodipodi:guide
       position="1.1650391e-05,32.000026"
       orientation="32,0"
       id="guide4157" />
    <sodipodi:guide
       position="1.1650391e-05,2.6367188e-05"
       orientation="0,32"
       id="guide4159" />
    <sodipodi:guide
       position="32.000012,2.6367188e-05"
       orientation="-32,0"
       id="guide4161" />
    <sodipodi:guide
       position="32.000012,32.000026"
       orientation="0,-32"
       id="guide4163" />
    <sodipodi:guide
       position="2.0000117,30.000026"
       orientation="28,0"
       id="guide4167" />
    <sodipodi:guide
       position="2.0000117,2.0000264"
       orientation="0,28"
       id="guide4169" />
    <sodipodi:guide
       position="30.000012,2.0000264"
       orientation="-28,0"
       id="guide4171" />
    <sodipodi:guide
       position="30.000012,30.000026"
       orientation="0,-28"
       id="guide4173" />
    <sodipodi:guide
       position="2.0000117,30.000026"
       orientation="28,0"
       id="guide4181" />
    <sodipodi:guide
       position="2.0000117,2.0000264"
       orientation="0,14"
       id="guide4183" />
    <sodipodi:guide
       position="16.000012,2.0000264"
       orientation="-28,0"
       id="guide4185" />
    <sodipodi:guide
       position="16.000012,30.000026"
       orientation="0,-14"
       id="guide4187" />
    <sodipodi:guide
       position="9.0000117,23.000026"
       orientation="14,0"
       id="guide4193" />
    <sodipodi:guide
       position="9.0000117,9.0000264"
       orientation="0,14.000031"
       id="guide4195" />
    <sodipodi:guide
       position="23.000042,9.0000264"
       orientation="-14,0"
       id="guide4197" />
    <sodipodi:guide
       position="23.000042,23.000026"
       orientation="0,-14.000031"
       id="guide4199" />
  </sodipodi:namedview>
  <metadata
     id="metadata5458">
    <rdf:RDF>
      <cc:Work
         rdf:about="">
        <dc:format>image/svg+xml</dc:format>
        <dc:type
           rdf:resource="http://purl.org/dc/dcmitype/StillImage" />
        <dc:title></dc:title>
      </cc:Work>
    </rdf:RDF>
  </metadata>
  <g
     inkscape:label="Capa 1"
     inkscape:groupmode="layer"
     id="layer1"
     transform="translate(-384.57143,-499.798)">
    <g
       style="display:inline;enable-background:new"
       id="g4238"
       transform="translate(225.81911,462.44565)">
      <g
         style="display:inline"
         id="layer1-8"
         transform="matrix(0.22655187,0,0,0.22655187,106.94841,54.31088)">
        <g
           style="display:none"
           id="layer6" />
        <g
           id="g4027" />
        <g
           id="g4061" />
        <g
           id="g3751" />
        <g
           id="g3782" />
        <g
           id="g3725" />
        <g
           id="g4370"
           transform="matrix(4.4140002,0,0,4.4140002,59.275211,39.357303)">
          <g
             id="g4184"
             transform="translate(35.002001,4.8399991)">
            <circle
               style="opacity:1;fill:url(#linearGradient5299);fill-opacity:1;stroke:none;stroke-width:15.44461155;stroke-linecap:round;stroke-linejoin:round;stroke-miterlimit:4;stroke-dasharray:none;stroke-opacity:1"
               id="path4217"
               cx="27.372999"
               cy="-6.7149997"
               r="24" />
            <path
               style="fill:#ffffff;fill-opacity:0.8508065;stroke:none;stroke-opacity:1"
               inkscape:connector-curvature="0"
               id="path7"
               d="m 29.096453,-14.941056 c -0.209989,-0.209913 -0.547684,-0.21886 -0.768226,-0.02049 -1.136509,1.021191 -7.111788,6.2082084 -13.148549,8.0418264 l -0.06538,0.01981 c -0.156842,0.04764 -0.285007,0.16166 -0.35039,0.312154 -0.06531,0.150571 -0.06125,0.321866 0.01117,0.468996 l 0.03021,0.0611 c 3.06e-4,8.41e-4 6.12e-4,0.0015 0.0011,0.0021 0.02072,0.04313 0.891115,1.860382 1.004291,4.420855 0.07005,1.59212299 -0.160665,3.122458 -0.684031,4.551468 -0.186742,0.01453 -0.36966,0.09291 -0.512584,0.235836 -0.318731,0.318654 -0.318578,0.835138 0,1.153716 0.318577,0.318578 0.835061,0.318654 1.153639,0 0.184142,-0.184218 0.261224,-0.434507 0.232395,-0.674473 l 5.848948,-5.849178 c 0.145907,-0.14583 0.199513,-0.360178 0.139483,-0.557396 -0.2067,-0.679826 -0.02225,-1.415399 0.48169,-1.919189 0.363695,-0.363848 0.847144,-0.564125 1.361869,-0.564125 0.514725,0 0.998556,0.200277 1.362175,0.564125 0.363849,0.363696 0.563973,0.847297 0.563973,1.361793 0,0.514496 -0.200124,0.998021 -0.564126,1.361946 -0.363542,0.363542 -0.846838,0.563666 -1.361104,0.563743 -0.190718,0 -0.37876,-0.02768 -0.559002,-0.08221 -0.197448,-0.05988 -0.411337,-0.0061 -0.556937,0.139483 l -5.848413,5.849178 c -0.240272,-0.02891 -0.490637,0.04802 -0.674932,0.232318 -0.318578,0.318578 -0.318425,0.8351376 0,1.1537156 0.318577,0.318577 0.835214,0.318654 1.153792,0 0.142924,-0.142924 0.221154,-0.325613 0.235836,-0.512508 1.260239,-0.4615776 2.601079,-0.6962666 3.987954,-0.6962666 0.174048,0 0.352072,0.0037 0.529331,0.01109 2.568503,0.105912 4.442039,0.9990146 4.459398,1.0073506 l 0.05926,0.02921 c 0.07754,0.03808 0.161889,0.05728 0.246313,0.0572 0.07571,7.6e-5 0.151412,-0.01529 0.22253,-0.04611 0.150112,-0.06538 0.26436,-0.193395 0.312001,-0.35016 l 0.01973,-0.06531 c 1.833694,-6.03683761 7.020558,-12.0122686 8.041673,-13.1487016 0.198366,-0.220848 0.189418,-0.558238 -0.02072,-0.768226 l -6.344404,-6.3446334 z" />
            <path
               style="fill:#ffffff;fill-opacity:0.8508065;stroke:none;stroke-opacity:1"
               inkscape:connector-curvature="0"
               id="path9"
               d="m 40.211184,-13.224056 -6.487557,-6.487404 c -0.104765,-0.104765 -0.246847,-0.163571 -0.394971,-0.163571 -0.148125,-7.7e-5 -0.290284,0.05873 -0.394896,0.163418 l -2.775509,2.775815 c -0.218248,0.218171 -0.218248,0.571773 0,0.789867 l 6.487786,6.4873284 c 0.104689,0.104841 0.246618,0.163647 0.394895,0.163647 0.148048,0 0.290054,-0.05896 0.394743,-0.163647 l 2.775662,-2.7756624 c 0.218095,-0.218019 0.218095,-0.57162 -1.53e-4,-0.789791 z" />
          </g>
        </g>
      </g>
    </g>
  </g>
</svg>
