<?xml version="1.0" encoding="UTF-8" standalone="no"?>
<!-- Created with Inkscape (http://www.inkscape.org/) -->

<svg
   xmlns:dc="http://purl.org/dc/elements/1.1/"
   xmlns:cc="http://creativecommons.org/ns#"
   xmlns:rdf="http://www.w3.org/1999/02/22-rdf-syntax-ns#"
   xmlns:svg="http://www.w3.org/2000/svg"
   xmlns="http://www.w3.org/2000/svg"
   xmlns:xlink="http://www.w3.org/1999/xlink"
   xmlns:sodipodi="http://sodipodi.sourceforge.net/DTD/sodipodi-0.dtd"
   xmlns:inkscape="http://www.inkscape.org/namespaces/inkscape"
   width="48"
   height="48"
   id="svg5453"
   version="1.1"
   inkscape:version="0.91 r13725"
   sodipodi:docname="skrooge-black.svg">
  <defs
     id="defs5455">
    <linearGradient
       inkscape:collect="always"
       id="linearGradient4194">
      <stop
         style="stop-color:#2e3e46;stop-opacity:1"
         offset="0"
         id="stop4196" />
      <stop
         style="stop-color:#5c7c89;stop-opacity:1"
         offset="1"
         id="stop4198" />
    </linearGradient>
    <linearGradient
       gradientTransform="matrix(2.6606024,0,0,2.6606089,-1759.2501,-2220.9443)"
       gradientUnits="userSpaceOnUse"
       y2="833.6698"
       x2="651.21533"
       y1="852.41547"
       x1="651.16833"
       id="linearGradient4288-9"
       xlink:href="#linearGradient4194"
       inkscape:collect="always" />
  </defs>
  <sodipodi:namedview
     id="base"
     pagecolor="#ffffff"
     bordercolor="#666666"
     borderopacity="1.0"
     inkscape:pageopacity="0"
     inkscape:pageshadow="2"
     inkscape:zoom="8"
     inkscape:cx="12.081884"
     inkscape:cy="21.178213"
     inkscape:document-units="px"
     inkscape:current-layer="g4370"
     showgrid="false"
     fit-margin-top="0"
     fit-margin-left="0"
     fit-margin-right="0"
     fit-margin-bottom="0"
     inkscape:window-width="1366"
     inkscape:window-height="634"
     inkscape:window-x="0"
     inkscape:window-y="36"
     inkscape:window-maximized="1"
     inkscape:showpageshadow="false"
     borderlayer="true"
     showguides="false">
    <inkscape:grid
       type="xygrid"
       id="grid4063" />
    <sodipodi:guide
       position="1.1650391e-05,32.000026"
       orientation="32,0"
       id="guide4157" />
    <sodipodi:guide
       position="1.1650391e-05,2.6367188e-05"
       orientation="0,32"
       id="guide4159" />
    <sodipodi:guide
       position="32.000012,2.6367188e-05"
       orientation="-32,0"
       id="guide4161" />
    <sodipodi:guide
       position="32.000012,32.000026"
       orientation="0,-32"
       id="guide4163" />
    <sodipodi:guide
       position="2.0000117,30.000026"
       orientation="28,0"
       id="guide4167" />
    <sodipodi:guide
       position="2.0000117,2.0000264"
       orientation="0,28"
       id="guide4169" />
    <sodipodi:guide
       position="30.000012,2.0000264"
       orientation="-28,0"
       id="guide4171" />
    <sodipodi:guide
       position="30.000012,30.000026"
       orientation="0,-28"
       id="guide4173" />
    <sodipodi:guide
       position="2.0000117,30.000026"
       orientation="28,0"
       id="guide4181" />
    <sodipodi:guide
       position="2.0000117,2.0000264"
       orientation="0,14"
       id="guide4183" />
    <sodipodi:guide
       position="16.000012,2.0000264"
       orientation="-28,0"
       id="guide4185" />
    <sodipodi:guide
       position="16.000012,30.000026"
       orientation="0,-14"
       id="guide4187" />
    <sodipodi:guide
       position="9.0000117,23.000026"
       orientation="14,0"
       id="guide4193" />
    <sodipodi:guide
       position="9.0000117,9.0000264"
       orientation="0,14.000031"
       id="guide4195" />
    <sodipodi:guide
       position="23.000042,9.0000264"
       orientation="-14,0"
       id="guide4197" />
    <sodipodi:guide
       position="23.000042,23.000026"
       orientation="0,-14.000031"
       id="guide4199" />
  </sodipodi:namedview>
  <metadata
     id="metadata5458">
    <rdf:RDF>
      <cc:Work
         rdf:about="">
        <dc:format>image/svg+xml</dc:format>
        <dc:type
           rdf:resource="http://purl.org/dc/dcmitype/StillImage" />
        <dc:title></dc:title>
      </cc:Work>
    </rdf:RDF>
  </metadata>
  <g
     inkscape:label="Capa 1"
     inkscape:groupmode="layer"
     id="layer1"
     transform="translate(-384.57143,-499.798)">
    <g
       style="display:inline;enable-background:new"
       id="g4238"
       transform="translate(225.81911,462.44565)">
      <g
         style="display:inline"
         id="layer1-8"
         transform="matrix(0.22655187,0,0,0.22655187,106.94841,54.31088)">
        <g
           style="display:none"
           id="layer6" />
        <g
           id="g4027" />
        <g
           id="g4061" />
        <g
           id="g3751" />
        <g
           id="g3782" />
        <g
           id="g3725" />
        <g
           id="g4370"
           transform="matrix(4.4140002,0,0,4.4140002,59.275211,39.357303)">
          <g
             id="g4189"
             transform="translate(90,-24.999999)">
            <ellipse
               cy="23.124998"
               cx="-27.625"
               id="path3377"
               style="opacity:1;fill:url(#linearGradient4288-9);fill-opacity:1;stroke:url(#linearGradient4288-9);stroke-width:2.32830906;stroke-miterlimit:4;stroke-dasharray:none;stroke-dashoffset:0;stroke-opacity:1"
               rx="22.835825"
               ry="22.835854" />
            <path
               style="fill:#ffffff;fill-opacity:0.84771573"
               inkscape:connector-curvature="0"
               id="path7"
               d="m -16.702623,17.154105 c -1.138671,-1.047414 -2.458495,-1.865301 -3.875364,-2.460128 -0.184387,0.278017 -0.394653,0.53987 -0.634032,0.779094 -0.317049,0.31681 -0.672884,0.588362 -1.061067,0.804957 0.410827,0.135775 0.80548,0.290948 1.183991,0.468749 0.384916,0.181035 0.533752,0.653017 0.320219,1.021552 l 0,0 c -0.187622,0.326508 -0.598449,0.455818 -0.93811,0.29418 -2.581419,-1.218749 -5.463647,-0.989223 -6.72851,-0.798491 -0.372009,0.05496 -0.727844,-0.181034 -0.815153,-0.546336 l 0,-0.0032 c -0.100313,-0.413793 0.177917,-0.824353 0.598449,-0.889008 0.229675,-0.03556 0.507841,-0.07112 0.81842,-0.100216 -0.09381,-0.08082 -0.184387,-0.164871 -0.271728,-0.252155 -0.446411,-0.44612 -0.799011,-0.966594 -1.04486,-1.548491 -0.02588,-0.06142 -0.05176,-0.126077 -0.0744,-0.187499 -0.384949,0.06466 -0.766662,0.145474 -1.138671,0.239224 -2.167357,-1.260776 -4.768185,-1.264008 -6.314449,-1.112069 -0.672851,0.06466 -1.070739,0.782327 -0.776367,1.390086 l 1.310119,2.683188 c -1.455687,1.267241 -2.55554,2.818964 -3.173398,4.548489 l -1.598022,-0.0065 c -0.536987,-0.0032 -0.973693,0.433189 -0.973693,0.969827 l 0,3.581894 c 0,0.362037 0.200562,0.691778 0.520813,0.859914 l 2.073546,1.079741 c 0.866942,2.388975 2.66229,4.438575 5.030208,5.85129 l 0,3.171334 c 0,0.623922 0.507874,1.131465 1.132202,1.131465 l 2.904905,0 c 0.449613,0 0.857238,-0.268318 1.03839,-0.678879 l 0.727844,-1.671335 c 0.627563,0.07759 1.264863,0.116412 1.918273,0.116412 1.028718,0 2.028257,-0.09698 2.989011,-0.28125 l 0,1.383587 c 0,0.623922 0.507873,1.131465 1.132202,1.131465 l 2.891965,0 c 0.417265,0 0.802246,-0.229525 0.99954,-0.59806 1.539826,-2.890084 3.212217,-5.789867 4.447934,-8.815728 0.624328,-1.532295 0.850768,-3.158404 0.714936,-4.745687 -0.220002,-2.560344 -1.384552,-5.020472 -3.335141,-6.811419 z m -17.377673,6.01616 c -0.805481,0 -1.455688,-0.649816 -1.455688,-1.45474 0,-0.804957 0.650207,-1.454741 1.455688,-1.454741 0.80548,0 1.455687,0.649784 1.455687,1.454741 -3.2e-5,0.804956 -0.650207,1.45474 -1.455687,1.45474 z" />
            <path
               style="fill:#ffffff;fill-opacity:0.84771573"
               inkscape:connector-curvature="0"
               id="path9"
               d="m -26.093425,15.657338 c 0.443176,0.174569 0.928405,0.271552 1.436279,0.271552 0.249052,0 0.491666,-0.02263 0.724576,-0.06789 0.9899,-0.184267 1.847138,-0.743534 2.419676,-1.522629 0.475525,-0.646551 0.756958,-1.445042 0.756958,-2.311421 0.0032,-2.1562494 -1.746825,-3.9019374 -3.901243,-3.9019374 -2.157652,0 -3.904477,1.745688 -3.904477,3.9019374 0,0.559267 0.116455,1.089439 0.329956,1.57112 0.410827,0.9375 1.183991,1.681034 2.138275,2.059266 z" />
          </g>
        </g>
      </g>
    </g>
  </g>
</svg>
