<?xml version="1.0" encoding="UTF-8" standalone="no"?>
<!-- Created with Inkscape (http://www.inkscape.org/) -->

<svg
   xmlns:dc="http://purl.org/dc/elements/1.1/"
   xmlns:cc="http://creativecommons.org/ns#"
   xmlns:rdf="http://www.w3.org/1999/02/22-rdf-syntax-ns#"
   xmlns:svg="http://www.w3.org/2000/svg"
   xmlns="http://www.w3.org/2000/svg"
   xmlns:xlink="http://www.w3.org/1999/xlink"
   xmlns:sodipodi="http://sodipodi.sourceforge.net/DTD/sodipodi-0.dtd"
   xmlns:inkscape="http://www.inkscape.org/namespaces/inkscape"
   width="48"
   height="48"
   id="svg5453"
   version="1.1"
   inkscape:version="0.91 r13725"
   sodipodi:docname="skrooge.svg">
  <defs
     id="defs5455">
    <linearGradient
       gradientTransform="matrix(2.6571461,0,0,2.6606125,-1587.5068,-2270.9476)"
       gradientUnits="userSpaceOnUse"
       y2="841.18683"
       x2="619.41138"
       y1="863.73804"
       x1="619.41138"
       id="linearGradient4288-9"
       xlink:href="#linearGradient4422"
       inkscape:collect="always" />
    <linearGradient
       id="linearGradient4422">
      <stop
         id="stop4424"
         offset="0"
         style="stop-color:#ff9300;stop-opacity:1" />
      <stop
         id="stop4426"
         offset="1"
         style="stop-color:#ffd702;stop-opacity:1" />
    </linearGradient>
    <linearGradient
       gradientUnits="userSpaceOnUse"
       y2="516.4751"
       x2="400.55615"
       y1="546.92657"
       x1="400.55615"
       id="linearGradient4270"
       xlink:href="#linearGradient4422"
       inkscape:collect="always" />
  </defs>
  <sodipodi:namedview
     id="base"
     pagecolor="#ffffff"
     bordercolor="#666666"
     borderopacity="1.0"
     inkscape:pageopacity="0"
     inkscape:pageshadow="2"
     inkscape:zoom="4"
     inkscape:cx="-21.83349"
     inkscape:cy="37.462849"
     inkscape:document-units="px"
     inkscape:current-layer="g4370"
     showgrid="true"
     fit-margin-top="0"
     fit-margin-left="0"
     fit-margin-right="0"
     fit-margin-bottom="0"
     inkscape:window-width="1366"
     inkscape:window-height="634"
     inkscape:window-x="0"
     inkscape:window-y="36"
     inkscape:window-maximized="1"
     inkscape:showpageshadow="false"
     borderlayer="true"
     showguides="false">
    <inkscape:grid
       type="xygrid"
       id="grid4063" />
    <sodipodi:guide
       position="1.1650391e-05,32.000026"
       orientation="32,0"
       id="guide4157" />
    <sodipodi:guide
       position="1.1650391e-05,2.6367188e-05"
       orientation="0,32"
       id="guide4159" />
    <sodipodi:guide
       position="32.000012,2.6367188e-05"
       orientation="-32,0"
       id="guide4161" />
    <sodipodi:guide
       position="32.000012,32.000026"
       orientation="0,-32"
       id="guide4163" />
    <sodipodi:guide
       position="2.0000117,30.000026"
       orientation="28,0"
       id="guide4167" />
    <sodipodi:guide
       position="2.0000117,2.0000264"
       orientation="0,28"
       id="guide4169" />
    <sodipodi:guide
       position="30.000012,2.0000264"
       orientation="-28,0"
       id="guide4171" />
    <sodipodi:guide
       position="30.000012,30.000026"
       orientation="0,-28"
       id="guide4173" />
    <sodipodi:guide
       position="2.0000117,30.000026"
       orientation="28,0"
       id="guide4181" />
    <sodipodi:guide
       position="2.0000117,2.0000264"
       orientation="0,14"
       id="guide4183" />
    <sodipodi:guide
       position="16.000012,2.0000264"
       orientation="-28,0"
       id="guide4185" />
    <sodipodi:guide
       position="16.000012,30.000026"
       orientation="0,-14"
       id="guide4187" />
    <sodipodi:guide
       position="9.0000117,23.000026"
       orientation="14,0"
       id="guide4193" />
    <sodipodi:guide
       position="9.0000117,9.0000264"
       orientation="0,14.000031"
       id="guide4195" />
    <sodipodi:guide
       position="23.000042,9.0000264"
       orientation="-14,0"
       id="guide4197" />
    <sodipodi:guide
       position="23.000042,23.000026"
       orientation="0,-14.000031"
       id="guide4199" />
  </sodipodi:namedview>
  <metadata
     id="metadata5458">
    <rdf:RDF>
      <cc:Work
         rdf:about="">
        <dc:format>image/svg+xml</dc:format>
        <dc:type
           rdf:resource="http://purl.org/dc/dcmitype/StillImage" />
        <dc:title></dc:title>
      </cc:Work>
    </rdf:RDF>
  </metadata>
  <g
     inkscape:label="Capa 1"
     inkscape:groupmode="layer"
     id="layer1"
     transform="translate(-384.57143,-499.798)">
    <g
       style="display:inline;enable-background:new"
       id="g4238"
       transform="translate(225.81911,462.44565)">
      <g
         style="display:inline"
         id="layer1-8"
         transform="matrix(0.22655187,0,0,0.22655187,106.94841,54.31088)">
        <g
           style="display:none"
           id="layer6" />
        <g
           id="g4027" />
        <g
           id="g4061" />
        <g
           id="g3751" />
        <g
           id="g3782" />
        <g
           id="g3725" />
        <g
           id="g4370"
           transform="matrix(4.4140002,0,0,4.4140002,59.275211,39.357303)">
          <g
             id="g4189"
             transform="translate(5.0152131,3.8254489e-4)">
            <ellipse
               style="opacity:1;fill:url(#linearGradient4288-9);fill-opacity:1;stroke:url(#linearGradient4288-9);stroke-width:2.32755327;stroke-miterlimit:4;stroke-dasharray:none;stroke-dashoffset:0;stroke-opacity:1"
               id="path3377"
               cx="57.359787"
               cy="-1.8753831"
               rx="22.820988"
               ry="22.835869" />
            <path
               d="m 68.275042,-7.8462879 c -1.137931,-1.047414 -2.456897,-1.865302 -3.872845,-2.4601301 -0.184268,0.278017 -0.394397,0.5398711 -0.633621,0.7790951 -0.316843,0.31681 -0.672446,0.588362 -1.060377,0.804957 0.41056,0.135776 0.804957,0.290948 1.183222,0.46875 0.384666,0.181034 0.533405,0.653017 0.320011,1.021552 l 0,0 c -0.1875,0.326508 -0.598061,0.455819 -0.937501,0.294181 -2.579741,-1.21875 -5.460097,-0.989224 -6.724138,-0.798492 -0.371768,0.05496 -0.727371,-0.181034 -0.814623,-0.546336 l 0,-0.0032 c -0.100248,-0.413793 0.177802,-0.824353 0.59806,-0.889008 0.229526,-0.03556 0.507511,-0.07112 0.817888,-0.100216 -0.09375,-0.08082 -0.184267,-0.164871 -0.271552,-0.252155 -0.44612,-0.446121 -0.798491,-0.9665951 -1.044181,-1.5484921 -0.02586,-0.06142 -0.05172,-0.126077 -0.07435,-0.1875 -0.384698,0.06466 -0.766164,0.145474 -1.137931,0.239224 -2.165949,-1.260776 -4.765087,-1.264008 -6.310346,-1.112069 -0.672414,0.06466 -1.070043,0.782328 -0.775862,1.390087 l 1.309267,2.6831901 c -1.454741,1.267241 -2.553879,2.818966 -3.171336,4.548492 l -1.596983,-0.0065 c -0.536638,-0.0032 -0.97306,0.43319 -0.97306,0.969828 l 0,3.581897 c 0,0.362036 0.200431,0.691778 0.520474,0.859914 l 2.072198,1.079741 c 0.86638,2.388977 2.660561,4.438578 5.02694,5.851294 l 0,3.1713369 c 0,0.623922 0.507544,1.131465 1.131466,1.131465 l 2.903018,0 c 0.449321,0 0.856681,-0.268319 1.037715,-0.678879 l 0.727371,-1.671337 c 0.627155,0.07759 1.264041,0.116412 1.917026,0.116412 1.02805,0 2.02694,-0.09698 2.987069,-0.28125 l 0,1.383589 c 0,0.623922 0.507544,1.131465 1.131466,1.131465 l 2.890087,0 c 0.416993,0 0.801724,-0.229526 0.99889,-0.59806 1.538825,-2.8900869 3.210129,-5.7898719 4.445043,-8.8157339 0.623923,-1.532295 0.850216,-3.15840602 0.714472,-4.74569 -0.219859,-2.560345 -1.383653,-5.020475 -3.332974,-6.811423 z m -17.366381,6.016164 c -0.804957,0 -1.454742,-0.649817 -1.454742,-1.454741 0,-0.804957 0.649785,-1.454742 1.454742,-1.454742 0.804957,0 1.454741,0.649785 1.454741,1.454742 -3.2e-5,0.804957 -0.649784,1.454741 -1.454741,1.454741 z"
               id="path7"
               inkscape:connector-curvature="0"
               style="fill:#000000;fill-opacity:0.79695435" />
            <path
               d="m 58.890343,-9.3430559 c 0.442888,0.174569 0.927801,0.271552 1.435345,0.271552 0.24889,0 0.491347,-0.02263 0.724105,-0.06789 0.989257,-0.184267 1.845938,-0.743535 2.418104,-1.5226301 0.475216,-0.646551 0.756466,-1.445043 0.756466,-2.311422 0.0032,-2.15625 -1.74569,-3.90194 -3.898708,-3.90194 -2.15625,0 -3.90194,1.74569 -3.90194,3.90194 0,0.559267 0.116379,1.08944 0.329742,1.571121 0.41056,0.9375 1.183222,1.6810341 2.136886,2.0592671 z"
               id="path9"
               inkscape:connector-curvature="0"
               style="fill:#000000;fill-opacity:0.79695435" />
          </g>
        </g>
      </g>
    </g>
  </g>
</svg>
