<?xml version="1.0" encoding="UTF-8" standalone="no"?>
<!-- Created with Inkscape (http://www.inkscape.org/) -->

<svg
   xmlns:dc="http://purl.org/dc/elements/1.1/"
   xmlns:cc="http://creativecommons.org/ns#"
   xmlns:rdf="http://www.w3.org/1999/02/22-rdf-syntax-ns#"
   xmlns:svg="http://www.w3.org/2000/svg"
   xmlns="http://www.w3.org/2000/svg"
   xmlns:xlink="http://www.w3.org/1999/xlink"
   xmlns:sodipodi="http://sodipodi.sourceforge.net/DTD/sodipodi-0.dtd"
   xmlns:inkscape="http://www.inkscape.org/namespaces/inkscape"
   width="48"
   height="48"
   id="svg5453"
   version="1.1"
   inkscape:version="0.91 r13725"
   sodipodi:docname="ssh-add.svg">
  <defs
     id="defs5455">
    <linearGradient
       gradientTransform="matrix(2.6571504,0,0,2.6606167,-1577.4785,-2270.9496)"
       inkscape:collect="always"
       xlink:href="#linearGradient4194"
       id="linearGradient4288"
       x1="615.64203"
       y1="863.73755"
       x2="615.64203"
       y2="841.1864"
       gradientUnits="userSpaceOnUse" />
    <linearGradient
       id="linearGradient4194"
       inkscape:collect="always">
      <stop
         id="stop4196"
         offset="0"
         style="stop-color:#187ced;stop-opacity:1" />
      <stop
         id="stop4198"
         offset="1"
         style="stop-color:#42d6fc;stop-opacity:1" />
    </linearGradient>
    <linearGradient
       inkscape:collect="always"
       xlink:href="#linearGradient4263"
       id="linearGradient4161-1-2"
       x1="16.038231"
       y1="29.505291"
       x2="16.038231"
       y2="2.3195643"
       gradientUnits="userSpaceOnUse"
       gradientTransform="matrix(1.7992098,0,0,1.7945628,33.492663,-30.596789)" />
    <linearGradient
       inkscape:collect="always"
       id="linearGradient4263">
      <stop
         style="stop-color:#0164c2;stop-opacity:1"
         offset="0"
         id="stop4265" />
      <stop
         style="stop-color:#00a9f3;stop-opacity:1"
         offset="1"
         id="stop4267" />
    </linearGradient>
  </defs>
  <sodipodi:namedview
     id="base"
     pagecolor="#ffffff"
     bordercolor="#666666"
     borderopacity="1.0"
     inkscape:pageopacity="0"
     inkscape:pageshadow="2"
     inkscape:zoom="2.8284271"
     inkscape:cx="66.474946"
     inkscape:cy="29.739741"
     inkscape:document-units="px"
     inkscape:current-layer="g4370"
     showgrid="true"
     fit-margin-top="0"
     fit-margin-left="0"
     fit-margin-right="0"
     fit-margin-bottom="0"
     inkscape:window-width="1366"
     inkscape:window-height="634"
     inkscape:window-x="0"
     inkscape:window-y="36"
     inkscape:window-maximized="1"
     inkscape:showpageshadow="false"
     borderlayer="true"
     showguides="false">
    <inkscape:grid
       type="xygrid"
       id="grid4063" />
    <sodipodi:guide
       position="1.1650391e-05,32.000026"
       orientation="32,0"
       id="guide4157" />
    <sodipodi:guide
       position="1.1650391e-05,2.6367188e-05"
       orientation="0,32"
       id="guide4159" />
    <sodipodi:guide
       position="32.000012,2.6367188e-05"
       orientation="-32,0"
       id="guide4161" />
    <sodipodi:guide
       position="32.000012,32.000026"
       orientation="0,-32"
       id="guide4163" />
    <sodipodi:guide
       position="2.0000117,30.000026"
       orientation="28,0"
       id="guide4167" />
    <sodipodi:guide
       position="2.0000117,2.0000264"
       orientation="0,28"
       id="guide4169" />
    <sodipodi:guide
       position="30.000012,2.0000264"
       orientation="-28,0"
       id="guide4171" />
    <sodipodi:guide
       position="30.000012,30.000026"
       orientation="0,-28"
       id="guide4173" />
    <sodipodi:guide
       position="2.0000117,30.000026"
       orientation="28,0"
       id="guide4181" />
    <sodipodi:guide
       position="2.0000117,2.0000264"
       orientation="0,14"
       id="guide4183" />
    <sodipodi:guide
       position="16.000012,2.0000264"
       orientation="-28,0"
       id="guide4185" />
    <sodipodi:guide
       position="16.000012,30.000026"
       orientation="0,-14"
       id="guide4187" />
    <sodipodi:guide
       position="9.0000117,23.000026"
       orientation="14,0"
       id="guide4193" />
    <sodipodi:guide
       position="9.0000117,9.0000264"
       orientation="0,14.000031"
       id="guide4195" />
    <sodipodi:guide
       position="23.000042,9.0000264"
       orientation="-14,0"
       id="guide4197" />
    <sodipodi:guide
       position="23.000042,23.000026"
       orientation="0,-14.000031"
       id="guide4199" />
  </sodipodi:namedview>
  <metadata
     id="metadata5458">
    <rdf:RDF>
      <cc:Work
         rdf:about="">
        <dc:format>image/svg+xml</dc:format>
        <dc:type
           rdf:resource="http://purl.org/dc/dcmitype/StillImage" />
        <dc:title></dc:title>
      </cc:Work>
    </rdf:RDF>
  </metadata>
  <g
     inkscape:label="Capa 1"
     inkscape:groupmode="layer"
     id="layer1"
     transform="translate(-384.57143,-499.798)">
    <g
       style="display:inline;enable-background:new"
       id="g4238"
       transform="translate(225.81911,462.44565)">
      <g
         style="display:inline"
         id="layer1-8"
         transform="matrix(0.22655187,0,0,0.22655187,106.94841,54.31088)">
        <g
           style="display:none"
           id="layer6" />
        <g
           id="g4027" />
        <g
           id="g4061" />
        <g
           id="g3751" />
        <g
           id="g3782" />
        <g
           id="g3725" />
        <g
           id="g4370"
           transform="matrix(4.4140002,0,0,4.4140002,59.275211,39.357303)">
          <ellipse
             ry="22.835888"
             rx="22.821007"
             style="opacity:1;fill:url(#linearGradient4288);fill-opacity:1;stroke:url(#linearGradient4288);stroke-width:2.32755518;stroke-miterlimit:4;stroke-dasharray:none;stroke-dashoffset:0;stroke-opacity:1"
             id="path3377"
             cx="62.375"
             cy="-1.8750006" />
          <path
             id="path34-7-3"
             d="m 62.325657,-25.799689 c -3.02539,0 -5.905035,0.575646 -8.566265,1.586398 -0.193539,0.177419 -0.445142,0.313635 -0.644174,0.296753 -0.02804,-0.0033 -0.05412,-0.01892 -0.08313,-0.03034 -1.311821,0.54741 -2.556189,1.218102 -3.736136,1.978899 0.153227,0.248226 0.198869,0.524607 -0.116224,0.658882 -0.05298,0.02137 -0.720315,0.08988 -0.953351,0.08498 -3.355431,2.431866 -6.047096,5.702611 -7.767511,9.520832 0.02771,-0.0049 0.05167,-0.01631 0.08085,-0.01762 0.261122,-0.0049 0.636871,0.06981 0.887674,0.123314 0.231439,0.04747 0.418115,0.202326 0.618435,0.217333 0.568441,0.04339 0.705106,-0.397884 1.16883,-0.644855 0.479227,0.06688 0.797173,-0.08156 1.229844,-0.03327 0.294947,0.03327 0.50803,0.346845 0.737855,0.364478 0.193343,0.01892 0.363458,-0.180714 0.550509,-0.152185 0.18177,0.02855 0.495152,0.423232 0.524738,0.644838 0.03831,0.275793 -0.203433,0.524151 -0.123886,0.827102 0.289698,0.294209 0.815984,0.353843 1.229796,0.5233508 0.269549,-0.2215408 0.03619,-0.6325878 0,-0.9532378 -0.0049,-0.141583 0.01891,-0.267115 0,-0.397215 -0.0238,-0.22084 -0.119159,-0.423101 -0.120626,-0.612118 -0.0049,-0.872904 0.706019,-1.281456 1.293009,-1.626083 0.254096,-0.150228 0.454156,-0.413477 0.674607,-0.523433 0.311427,-0.15561 0.543321,-0.191968 0.801102,-0.336455 0.465957,-0.261031 0.865489,-0.470502 1.229827,-0.766293 0.168175,-0.395829 0.0163,-0.926552 0.0313,-1.317748 0.168256,-0.102925 0.313235,0.04437 0.491875,0.0305 0.281091,-0.05791 0.304499,-0.454093 0.463806,-0.612053 0.09243,-0.09086 0.346392,-0.155121 0.461377,-0.245389 0.28021,-0.21916 0.371429,-0.550297 0.616202,-0.644789 0.08786,-0.03589 0.290202,-0.0243 0.428661,-0.06231 0.182047,-0.04828 0.441229,-0.262956 0.737805,-0.364364 0.193295,-0.06688 0.636008,-0.0809 0.709769,-0.15398 0.09112,-0.09249 -0.0013,-0.352098 0.0313,-0.49063 0.149152,-0.692468 1.19483,-0.839238 1.813004,-1.072426 0.433291,-0.162951 0.877829,-0.46357 1.353942,-0.371508 -0.0934,0.329115 -0.536687,0.212489 -0.461524,0.612167 0.103673,0.554587 0.84839,-0.158384 1.04483,-0.240659 0.375114,-0.157405 1.018489,-0.254066 1.510821,-0.432235 0.431726,-0.157405 1.205702,-0.397672 0.798852,-0.890146 -0.339464,-0.01892 -0.50301,0.397199 -0.798852,0.523335 -0.20433,0.03344 -0.164866,-0.170552 -0.339643,-0.186831 -0.165143,-0.01892 -0.258481,0.152349 -0.428759,0.122825 -0.169137,-0.02773 -0.406835,-0.293246 -0.433291,-0.490614 -0.067,-0.512064 0.433878,-0.723166 0.64657,-1.105163 -0.141164,-0.463129 -0.78304,-0.09444 -1.171243,-0.27563 0.03814,-0.275793 0.323489,-0.465984 0.646473,-0.518669 0.264773,-0.04437 0.858969,-0.02137 1.016646,0.118094 0.09145,0.07862 0.0065,0.270867 0.154368,0.399499 0.156651,0.141583 0.349521,0.12625 0.552906,0.09379 0.07238,-0.349537 -0.455737,-0.261847 -0.398212,-0.492996 0.415426,-0.271063 1.091288,-0.04877 1.599937,-0.123314 0.292746,-0.04339 0.600097,-0.249222 0.859621,-0.394817 0.246777,-0.140115 0.567365,-0.383628 0.82922,-0.154143 0.06944,0.250478 -0.228064,0.333372 -0.367794,0.457926 -0.470489,0.417539 -0.955323,0.895855 -1.321047,1.380776 0.224315,0.218328 0.632144,0.108308 1.011935,0.15398 0.1485,0.01892 0.334851,0.0628 0.491827,0.09167 0.183775,0.03344 0.378814,0.02284 0.522342,0.06068 0.258449,0.06264 0.327483,0.338771 0.583307,0.338771 0.420771,-7.5e-4 0.425792,-0.454729 0.187312,-0.738319 0.07531,-0.289511 0.193294,-0.439723 0.09194,-0.642522 -0.189542,-0.378083 -0.884884,-0.01892 -0.920582,-0.490632 -0.02184,-0.305871 0.25659,-0.292202 0.367745,-0.520969 -0.05053,-0.590995 0.485958,-0.633812 0.428629,-1.163525 -0.02396,-0.221607 -0.212155,-0.224673 -0.367762,-0.432268 -0.07906,-0.101294 -0.117855,-0.297683 -0.208454,-0.385488 -0.71769,-0.06247 -1.443482,-0.102598 -2.178386,-0.102598 z m -12.377483,4.82695 0.0033,0 c 0.143447,0.01892 0.31617,0.173766 0.489529,0.187059 0.163399,0.0049 0.299526,-0.09053 0.400591,-0.06247 0.257177,0.06704 0.365594,0.454974 0.122908,0.644823 -0.201037,0.0243 -0.279411,-0.08825 -0.43096,-0.06084 -0.417707,0.06998 -0.57796,0.88685 -0.890168,0.859822 -0.294376,-0.02365 -0.4537,-0.740244 -0.154206,-0.953221 0.01891,-0.186032 -0.1366,-0.215768 -0.126168,-0.399548 0.08884,-0.112875 0.34098,-0.234591 0.585606,-0.214903 z m -1.384342,0.09607 c 0.08558,0.0033 0.149641,0.02284 0.182682,0.06035 -0.04108,0.326979 -0.297326,0.305513 -0.550493,0.45791 -0.4373,0.263201 -0.69006,0.664364 -0.829204,1.226618 -0.04059,0.16295 -0.471173,0.597127 -0.679301,0.553739 -0.487719,-0.102436 0.135459,-0.999236 0.245946,-1.135534 0.123722,-0.151044 0.288344,-0.283476 0.433355,-0.45791 0.140513,-0.168839 0.232221,-0.396922 0.367762,-0.490631 0.1485,-0.102435 0.572304,-0.224787 0.82922,-0.21487 z m 3.640108,1.102749 c 0.155998,0.0033 0.296674,0.02855 0.360768,0.09167 -0.100249,0.405109 -0.975389,0.298139 -1.29534,0.151532 0.01891,-0.152674 0.260111,-0.19497 0.461426,-0.214886 0.141979,-0.0049 0.317245,-0.03344 0.473146,-0.02822 z m -1.990976,0.747698 c 0.103673,-0.0033 0.209269,0.01892 0.318517,0.04877 -0.283014,0.23614 -0.589126,0.369893 -1.075199,0.523318 -0.233704,0.07291 -0.637294,0.164403 -0.676938,-0.09607 -0.04841,-0.319051 0.341762,-0.244834 0.555106,-0.273362 0.268735,-0.03752 0.563681,-0.193176 0.878514,-0.203338 z m 30.545471,1.817709 c -0.037,0.08808 -0.06243,0.17295 -0.05852,0.256954 0.01891,0.148107 0.181591,0.290457 0.217795,0.490696 0.01891,0.10635 -0.04988,0.335411 0,0.432252 0.148174,0.286395 0.535627,0.08139 0.81287,0.09607 -0.31493,-0.43253 -0.629454,-0.865875 -0.972145,-1.275633 z m 1.571785,2.109765 c -0.04434,0.211347 -0.18811,0.487009 -0.304514,0.663515 -0.268083,0.406676 -0.632242,0.425646 -1.01663,0.64249 -0.320555,0.181285 -0.45859,0.483812 -0.646521,0.799046 -0.203695,0.340566 -0.329846,0.546318 -0.245897,1.03977 -0.27488,0.543724 -0.691022,0.876819 -1.260278,1.135453 -0.16811,0.07585 -0.398358,0.104066 -0.55284,0.21487 -0.122582,0.08857 -0.192855,0.325135 -0.367746,0.520986 -0.215626,0.2394179 -0.441783,0.3404349 -0.555155,0.5233509 -0.08786,0.141583 -0.117529,0.422498 -0.215447,0.612134 -0.131873,0.257655 -0.410894,0.383856 -0.583372,0.644871 -0.07857,0.120378 -0.13171,0.36531 -0.217762,0.523384 -0.194925,0.353125 -0.527705,0.607534 -0.491974,0.918168 0.03602,0.300228 0.377282,0.352767 0.400543,0.614467 0.0049,0.147944 -0.09797,0.238375 -0.09194,0.399531 0.0049,0.235407 0.164116,0.400657 0.182682,0.581795 0.04597,0.455431 -0.15502,0.637189 -0.241251,0.948541 -0.04108,0.14876 -0.02282,0.316115 -0.0626,0.432268 -0.07661,0.227936 -0.394202,0.433687 -0.400591,0.703201 -0.0033,0.191626 0.197157,0.345622 0.213279,0.614548 0.0049,0.185624 -0.09177,0.383269 -0.05803,0.553739 0.06488,0.333731 0.662806,0.721943 0.922998,0.981212 0.347875,0.34709004 0.803368,0.61564104 0.953335,0.98134304 0.125841,0.310536 0.1247,0.714455 0.367777,0.948573 0.179358,0.17275396 0.477646,0.28052296 0.707405,0.46020996 0.214388,0.167501 0.44788,0.312673 0.676971,0.490614 0.374314,0.29217 0.94031,0.874405 1.536624,0.829516 0.311443,-0.02137 0.630596,-0.276185 0.983898,-0.33882 0.363377,-0.06443 0.835007,-0.09868 1.201595,-0.06035 0.280846,0.02773 0.570103,0.19559 0.862034,0.182182 0.308231,-0.01892 0.661729,-0.246922 1.011968,-0.399466 0.281815,-0.122012 0.627652,-0.257967 1.007232,-0.357532 0.174206,-1.16693396 0.267056,-2.36249396 0.267056,-3.579357 0,-4.898867 -1.468634,-9.4394219 -3.982099,-13.2239919 z m -39.6717,8.0395119 c -0.510948,0.02822 -0.845635,0.05106 -1.136098,0.182231 -0.66543,0.302039 -0.536931,1.198953 -1.201775,1.411181 -0.229775,0.07275 -0.545521,0.07683 -0.798574,0.122988 -0.21861,0.04029 -0.484752,0.158383 -0.709785,0.153816 -0.06259,-7.66e-4 -0.151108,-0.04763 -0.229628,-0.07144 -0.05852,0.420541 -0.107749,0.845828 -0.145729,1.273252 0.632535,0.120215 0.958974,0.957006 1.518009,1.233631 0.153064,0.07617 0.353237,0.08074 0.550411,0.12364 0.158607,0.03589 0.280048,0.102436 0.433275,0.154306 0.325363,0.109776 0.723705,0.09689 0.983931,0.212717 0.391968,0.173553 0.679481,0.908398 1.016613,1.105113 0.01891,0.19821604 -0.03928,0.46438604 0.0313,0.61206904 0.15877,0.215555 0.384046,0.167698 0.646423,0.308416 0.31397,0.168839 0.41003,0.605039 0.707486,0.738303 0.102532,0.04567 0.360052,0.03964 0.522359,0.08939 0.407649,0.122662 0.540696,0.59348996 0.890152,0.49067996 0.229156,-0.06688 0.211078,-0.30252796 0.248261,-0.52105196 0.151434,-0.16295 0.31674,-0.422921 0.552807,-0.427554 0.382139,-0.01892 0.416175,0.393855 0.555139,0.763977 0.0789,0.20925896 0.283732,0.39148996 0.337345,0.61214996 0.09536,0.381181 0.04792,1.522164 -0.03358,1.749985 -0.09634,0.279512 -0.47582,0.398031 -0.709752,0.707931 -0.11003,0.145498 -0.162356,0.358149 -0.245962,0.460259 -0.150619,0.183046 -0.374494,0.230773 -0.487165,0.399547 -0.06325,0.0951 -0.125516,0.299037 -0.187557,0.427522 -0.184655,0.390381 -0.431742,0.666924 -0.276428,1.135518 0.06455,0.192817 0.366979,0.322085 0.367794,0.549041 8.64e-4,0.2671 -0.569549,0.506225 -0.613675,0.799031 -0.03358,0.217887 0.176423,0.606718 0.245881,0.890194 0.05086,0.21425 0.456666,0.348167 0.583307,0.490631 0.215854,0.241751 0.388398,0.584209 0.585572,0.8878621 0.389963,0.597209 0.695554,1.325529 1.075231,1.904159 0.200598,0.303082 0.482356,0.575548 0.616023,0.890146 0.06781,0.158384 0.05852,0.347987 0.121114,0.490647 0.219702,0.49479 1.190299,1.011388 1.691221,1.257005 0.234422,0.113364 0.494614,0.15398 0.709768,0.273314 0.325934,0.181301 0.971542,0.668212 1.136115,0.953303 0.14687,0.256203 0.237893,0.879886 0.309144,1.287295 0.09552,0.538456 0.0011,0.951901 0.0313,1.535033 0.01891,0.315381 0.119811,0.632426 0.123886,0.948606 0.0012,0.110428 -0.05852,0.193029 -0.06292,0.306034 -1.79e-4,0.01762 0.0065,0.03964 0.0065,0.05791 3.020793,1.363486 6.368172,2.140137 9.910883,2.140137 0.640049,0 1.272568,-0.03377 1.899675,-0.08286 0.0282,-0.04714 0.05265,-0.09624 0.08753,-0.140278 0.144751,-0.189082 0.272679,-0.35461 0.367908,-0.521051 0.09112,-0.560134 -0.224005,-0.951363 -0.09194,-1.441488 0.147033,-0.550786 0.910251,-0.887095 1.445422,-1.135632 0.183889,-0.08531 0.372407,-0.223694 0.522228,-0.275662 0.370369,-0.128697 0.832757,-0.05823 1.171242,-0.182215 0.576265,-0.210335 0.636448,-0.826825 0.92057,-1.350486 0.134644,-0.247835 0.3111,-0.496258 0.337344,-0.672812 0.02266,-0.158384 -0.05819,-0.308057 -0.03342,-0.495328 0.02755,-0.185233 0.194403,-0.345476 0.245929,-0.549091 0.067,-0.265664 0.09634,-0.654935 0.09634,-0.950856 0,-0.242959 -0.113616,-0.456067 -0.122745,-0.67526 -0.04026,-0.795637 0.288165,-0.884648 0.583307,-1.317683 0.148174,-0.215066 0.203499,-0.46034 0.306829,-0.614516 0.49556,-0.737291 1.35523,-1.093255 1.293042,-2.2078451 -0.01891,-0.368817 -0.252629,-1.202346 -0.524689,-1.320033 -0.155509,-0.06704 -0.512692,-0.0049 -0.737903,-0.09167 -0.7269,-0.270377 -1.153475,-1.169168 -1.90675,-1.226649 -0.160399,-0.01892 -0.308475,0.06541 -0.489512,0.06247 -0.298108,-0.01892 -0.747569,-0.208215 -1.077529,-0.24534 -0.209775,-0.02137 -0.49023,0.06182 -0.616153,0 -0.19186,-0.0933 -0.211503,-0.446149 -0.367762,-0.551406 -0.123071,-0.0858 -0.36486,-0.113528 -0.552808,-0.186782 -0.302835,-0.114995 -0.542995,-0.251391 -0.892402,-0.275646 -0.107585,-0.0049 -0.242196,0.05105 -0.367777,0.03344 -0.193328,-0.03344 -0.34631,-0.260868 -0.524657,-0.369176 -0.223532,-0.1362 -0.430047,-0.201397 -0.522423,-0.39485 0.201917,-0.660677 -0.356123,-0.844832 -0.491941,-1.226601 -0.06455,-0.178919 -0.03554,-0.394148 -0.09194,-0.553706 -0.08101,-0.228621 -0.306764,-0.360678 -0.555171,-0.551374 -0.445027,-0.341643 -0.83975,-0.662423 -1.475741,-0.740652 -0.279607,-0.03589 -0.556997,0.08417 -0.894847,0.06247 -0.357932,-0.02137 -0.807394,-0.334955 -1.075101,-0.64019 -0.260372,-0.29804196 -0.386948,-0.56548396 -0.613757,-0.70793096 -0.214811,-0.137831 -0.499911,-0.134569 -0.646537,-0.273346 -0.0652,-0.06068 -0.05347,-0.164582 -0.124049,-0.308482 -0.107748,-0.223042 -0.289387,-0.347122 -0.154205,-0.614401 -0.245098,-0.125761 -0.251847,0.233237 -0.520011,0.186782 -0.239132,-0.338364 -0.441017,-0.498688 -0.983882,-0.399499 -0.248554,0.04583 -0.387322,0.359047 -0.676938,0.366876 -0.237551,0.01892 -0.424162,-0.264033 -0.737838,-0.308497 -0.236834,-0.03344 -0.506122,0.06329 -0.674672,0.03279 -0.262475,-0.0522 -0.34349,-0.27028004 -0.583291,-0.42757104 -0.17582,-0.114832 -0.517419,-0.311564 -0.616038,-0.3084 -0.309112,0.01892 -0.5294,0.65521304 -0.955698,0.429969 -0.207199,-0.261961 0.337442,-0.399939 0.09194,-0.644986 -0.186269,-0.185803 -0.34287,0.08498 -0.491859,0.187043 -0.170816,0.117116 -0.331313,0.234052 -0.520076,0.303735 -0.422467,0.157405 -0.686491,0.07552 -1.016614,0.245339 -0.305688,0.15756904 -0.318729,0.42215604 -0.491908,0.73593804 -0.14198,0.257068 -0.464164,0.631626 -0.677003,0.647155 -0.257715,0.01892 -0.504069,-0.359389 -0.737838,-0.460194 -0.704324,-0.304338 -1.045499,0.270166 -1.630273,0.277963 -0.542783,0.01892 -1.317998,-0.874161 -1.29076,-1.38312504 0.0049,-0.310504 0.179064,-0.781659 0.215448,-1.165906 0.03358,-0.305545 0.242473,-0.489652 0.246043,-0.768658 0.0049,-0.372553 -0.49551,-0.658997 -0.737968,-0.70325 -0.574553,-0.105208 -1.372248,0.230611 -2.030766,-0.03344 -0.12519,-0.207856 0.147522,-0.351544 0.217795,-0.553723 0.04043,-0.114506 0.0163,-0.268372 0.05836,-0.394867 0.07237,-0.195378 0.278221,-0.34678 0.369978,-0.553706 0.06765,-0.157568 0.08607,-0.38583 0.154205,-0.581763 0.08167,-0.223107 0.228586,-0.366859 0.245995,-0.523334 0.02135,-0.206617 -0.05542,-0.445563 -0.217941,-0.581763 z m 8.221977,6.49286604 c 0.208487,0.01892 0.234551,0.449086 0.02103,0.483698 -0.229988,0.03605 -0.346881,-0.359747 -0.123234,-0.462705 0.03798,-0.01892 0.07335,-0.01892 0.102858,-0.01762 l 0,-0.0033 z"
             style="fill:url(#linearGradient4161-1-2);fill-opacity:1;fill-rule:nonzero;stroke:none;stroke-width:0.69999957"
             inkscape:connector-curvature="0" />
          <path
             d="m 66.182049,-12.160734 c -3.578606,0 -6.471963,2.8952434 -6.471963,6.4761824 0,0.761906 0.152282,1.523812 0.380685,2.285718 l -7.994781,8.000035 0,3.809531 3.807048,0 0,-2.285719 2.284229,0 0,-2.285718 2.284229,0 3.426324,-3.42855796 c 0.685288,0.228552 1.446698,0.380933 2.284229,0.380933 3.578645,0 6.471962,-2.89524304 6.471962,-6.47618204 0,-3.580939 -2.893317,-6.4762224 -6.471962,-6.4762224 z m 1.903544,6.8571554 c -1.294417,0 -2.284229,-0.990458 -2.284229,-2.285718 0,-1.295261 0.989812,-2.285719 2.284229,-2.285719 1.294416,0 2.284229,0.990458 2.284229,2.285719 0,1.29526 -0.989813,2.285718 -2.284229,2.285718 z"
             id="path5-1"
             inkscape:connector-curvature="0"
             style="fill:#ffffff;fill-opacity:0.84693879;stroke:none;stroke-opacity:1" />
        </g>
      </g>
    </g>
  </g>
</svg>
