<?xml version="1.0" encoding="UTF-8" standalone="no"?>
<!-- Created with Inkscape (http://www.inkscape.org/) -->

<svg
   xmlns:dc="http://purl.org/dc/elements/1.1/"
   xmlns:cc="http://creativecommons.org/ns#"
   xmlns:rdf="http://www.w3.org/1999/02/22-rdf-syntax-ns#"
   xmlns:svg="http://www.w3.org/2000/svg"
   xmlns="http://www.w3.org/2000/svg"
   xmlns:xlink="http://www.w3.org/1999/xlink"
   xmlns:sodipodi="http://sodipodi.sourceforge.net/DTD/sodipodi-0.dtd"
   xmlns:inkscape="http://www.inkscape.org/namespaces/inkscape"
   width="48"
   height="48"
   id="svg5453"
   version="1.1"
   inkscape:version="0.91 r13725"
   sodipodi:docname="transmission.svg">
  <defs
     id="defs5455">
    <linearGradient
       gradientTransform="translate(-369.53011,-531.50675)"
       inkscape:collect="always"
       xlink:href="#linearGradient5076"
       id="linearGradient4598"
       gradientUnits="userSpaceOnUse"
       x1="400.57144"
       y1="545.79791"
       x2="400.79395"
       y2="517.62671" />
    <linearGradient
       id="linearGradient5076"
       inkscape:collect="always">
      <stop
         id="stop5078"
         offset="0"
         style="stop-color:#c52828;stop-opacity:1" />
      <stop
         id="stop5080"
         offset="1"
         style="stop-color:#ff5454;stop-opacity:1" />
    </linearGradient>
    <linearGradient
       inkscape:collect="always"
       xlink:href="#linearGradient5076"
       id="linearGradient4206"
       x1="349.50967"
       y1="535.45831"
       x2="349.89813"
       y2="486.27362"
       gradientUnits="userSpaceOnUse"
       gradientTransform="matrix(0.55792835,0,0,0.55792835,-163.95969,-284.81842)" />
  </defs>
  <sodipodi:namedview
     id="base"
     pagecolor="#ffffff"
     bordercolor="#666666"
     borderopacity="1.0"
     inkscape:pageopacity="0"
     inkscape:pageshadow="2"
     inkscape:zoom="4"
     inkscape:cx="-80.941894"
     inkscape:cy="15.968792"
     inkscape:document-units="px"
     inkscape:current-layer="g4182"
     showgrid="true"
     fit-margin-top="0"
     fit-margin-left="0"
     fit-margin-right="0"
     fit-margin-bottom="0"
     inkscape:window-width="1366"
     inkscape:window-height="634"
     inkscape:window-x="0"
     inkscape:window-y="36"
     inkscape:window-maximized="1"
     inkscape:showpageshadow="false"
     borderlayer="true"
     showguides="false">
    <inkscape:grid
       type="xygrid"
       id="grid4063" />
    <sodipodi:guide
       position="1.1650391e-05,32.000026"
       orientation="32,0"
       id="guide4157" />
    <sodipodi:guide
       position="1.1650391e-05,2.6367188e-05"
       orientation="0,32"
       id="guide4159" />
    <sodipodi:guide
       position="32.000012,2.6367188e-05"
       orientation="-32,0"
       id="guide4161" />
    <sodipodi:guide
       position="32.000012,32.000026"
       orientation="0,-32"
       id="guide4163" />
    <sodipodi:guide
       position="2.0000117,30.000026"
       orientation="28,0"
       id="guide4167" />
    <sodipodi:guide
       position="2.0000117,2.0000264"
       orientation="0,28"
       id="guide4169" />
    <sodipodi:guide
       position="30.000012,2.0000264"
       orientation="-28,0"
       id="guide4171" />
    <sodipodi:guide
       position="30.000012,30.000026"
       orientation="0,-28"
       id="guide4173" />
    <sodipodi:guide
       position="2.0000117,30.000026"
       orientation="28,0"
       id="guide4181" />
    <sodipodi:guide
       position="2.0000117,2.0000264"
       orientation="0,14"
       id="guide4183" />
    <sodipodi:guide
       position="16.000012,2.0000264"
       orientation="-28,0"
       id="guide4185" />
    <sodipodi:guide
       position="16.000012,30.000026"
       orientation="0,-14"
       id="guide4187" />
    <sodipodi:guide
       position="9.0000117,23.000026"
       orientation="14,0"
       id="guide4193" />
    <sodipodi:guide
       position="9.0000117,9.0000264"
       orientation="0,14.000031"
       id="guide4195" />
    <sodipodi:guide
       position="23.000042,9.0000264"
       orientation="-14,0"
       id="guide4197" />
    <sodipodi:guide
       position="23.000042,23.000026"
       orientation="0,-14.000031"
       id="guide4199" />
  </sodipodi:namedview>
  <metadata
     id="metadata5458">
    <rdf:RDF>
      <cc:Work
         rdf:about="">
        <dc:format>image/svg+xml</dc:format>
        <dc:type
           rdf:resource="http://purl.org/dc/dcmitype/StillImage" />
        <dc:title></dc:title>
      </cc:Work>
    </rdf:RDF>
  </metadata>
  <g
     inkscape:label="Capa 1"
     inkscape:groupmode="layer"
     id="layer1"
     transform="translate(-384.57143,-499.798)">
    <g
       style="display:inline;enable-background:new"
       id="g4238"
       transform="translate(225.81911,462.44565)">
      <g
         style="display:inline"
         id="layer1-8"
         transform="matrix(0.22655187,0,0,0.22655187,106.94841,54.31088)">
        <g
           style="display:none"
           id="layer6" />
        <g
           id="g4027" />
        <g
           id="g4061" />
        <g
           id="g3751" />
        <g
           id="g3782" />
        <g
           id="g3725" />
        <g
           id="g4370"
           transform="matrix(4.4140002,0,0,4.4140002,59.275211,39.357303)">
          <g
             id="g4182"
             transform="matrix(1.7142857,0,0,1.7142857,-30.839285,-12.375017)">
            <g
               id="g4194"
               transform="translate(23.333326,5.8333166)">
              <circle
                 r="13.999969"
                 cy="0.29169306"
                 cx="31.041674"
                 id="circle4174"
                 style="opacity:1;fill:url(#linearGradient4598);fill-opacity:1;stroke:none;stroke-width:1.29999995;stroke-miterlimit:4;stroke-dasharray:none;stroke-dashoffset:0;stroke-opacity:1" />
              <path
                 sodipodi:nodetypes="cccccsccc"
                 inkscape:connector-curvature="0"
                 d="m 23.94768,-4.0161897 c -2.270214,2.2765488 -3.517729,5.3130053 -3.511395,8.5552702 0.0095,6.7631525 5.074169,9.8444655 11.293336,9.5294695 l 0.07457,-0.06736 c -5.509315,0 -9.25601,-3.936689 -9.265508,-9.4681645 -0.0031,-2.6786661 1.022705,-5.18662088 2.897136,-7.0642222 1.883935,-1.8870991 4.410619,-2.9288005 7.114616,-2.9288005 l 0,-2.1024052 c -3.267589,0 -6.319879,1.260171 -8.602761,3.546224"
                 id="path3942-4"
                 style="opacity:1;fill:#ffffff;fill-opacity:0.85185188;fill-rule:nonzero;stroke:none" />
              <path
                 inkscape:connector-curvature="0"
                 d="m 30.227835,-4.3963089 c -2.419033,0.6522524 -4.413783,2.1688922 -5.616965,4.27129792 -2.52669,4.41695248 -1.184186,9.80911348 3.191597,12.82023998 3.363287,2.953814 9.164112,0.421993 10.487899,-0.675029 -0.11082,0.02846 -3.582255,2.866175 -9.294214,-1.056836 -3.454401,-2.3747005 -4.530931,-6.5985145 -2.558348,-10.04341608 0.924553,-1.6116345 2.46336,-2.77998822 4.337797,-3.28342182 1.921928,-0.5192717 3.910343,-0.2659668 5.601133,0.7092412 l 1.051205,-1.8237701 C 35.249543,-4.7350162 32.691195,-5.0611421 30.227835,-4.396222"
                 id="path3946-2"
                 style="opacity:1;fill:#ffffff;fill-opacity:0.85185188;fill-rule:nonzero;stroke:none"
                 sodipodi:nodetypes="cccccccccc" />
              <path
                 inkscape:connector-curvature="0"
                 d="m 29.672825,-0.89880258 c -2.099235,1.2126811 -3.273923,3.41957818 -3.273923,5.68662808 0,1.0512 0.262803,2.111904 0.791566,3.093446 l -0.0064,0.0064 c 0,0.0031 0.01899,0.03482 0.02535,0.04752 l -0.0031,0 c 0,0 0.01264,0.019 0.02217,0.03482 0.01264,0.02535 0.04434,0.08233 0.04752,0.08549 l 0,0 c 0.32929,0.566763 1.598966,2.4760225 4.382118,3.4892355 3.373314,1.231228 4.508876,1.138757 6.084231,0.857057 1.714774,-0.979848 2.633068,-1.853012 2.633068,-1.853012 -1.804194,0.19537 -4.361565,0.346387 -7.998553,-0.9798105 -2.191066,-0.797901 -3.106115,-2.254389 -3.27393,-2.555184 l 0,0 c 0,0 -0.0064,-0.0095 -0.0064,-0.01264 -0.402118,-0.699743 -0.595263,-1.462815 -0.595263,-2.21639 0,-1.5388064 0.797901,-3.0364564 2.222724,-3.86285188 1.029039,-0.5920932 2.229057,-0.7504041 3.378415,-0.4432744 1.146187,0.3071238 2.105569,1.04486548 2.700826,2.07390458 l 1.855541,-0.9879212 -0.03482,-0.063323 C 37.750079,-0.01535478 36.337919,-1.0982192 34.647129,-1.5541619 32.95634,-2.00694 31.189559,-1.7726377 29.672912,-0.89874548"
                 id="path3950-4"
                 style="opacity:1;fill:#ffffff;fill-opacity:0.85185188;fill-rule:nonzero;stroke:none"
                 sodipodi:nodetypes="csccccccccccccccsccccccc" />
              <circle
                 r="13.637347"
                 cy="0.29169306"
                 cx="31.041674"
                 id="circle4174-0"
                 style="opacity:1;fill:none;fill-opacity:1;stroke:url(#linearGradient4206);stroke-width:0.58333331;stroke-miterlimit:4;stroke-dasharray:none;stroke-dashoffset:0;stroke-opacity:1" />
            </g>
          </g>
        </g>
      </g>
    </g>
  </g>
</svg>
