<?xml version="1.0" encoding="UTF-8" standalone="no"?>
<!-- Created with Inkscape (http://www.inkscape.org/) -->

<svg
   xmlns:dc="http://purl.org/dc/elements/1.1/"
   xmlns:cc="http://creativecommons.org/ns#"
   xmlns:rdf="http://www.w3.org/1999/02/22-rdf-syntax-ns#"
   xmlns:svg="http://www.w3.org/2000/svg"
   xmlns="http://www.w3.org/2000/svg"
   xmlns:xlink="http://www.w3.org/1999/xlink"
   xmlns:sodipodi="http://sodipodi.sourceforge.net/DTD/sodipodi-0.dtd"
   xmlns:inkscape="http://www.inkscape.org/namespaces/inkscape"
   width="48"
   height="48"
   id="svg5453"
   version="1.1"
   inkscape:version="0.91 r13725"
   sodipodi:docname="qwinff.svg">
  <defs
     id="defs5455">
    <linearGradient
       inkscape:collect="always"
       xlink:href="#linearGradient4428"
       id="linearGradient5086"
       gradientUnits="userSpaceOnUse"
       x1="412.03708"
       y1="542.20105"
       x2="412.03708"
       y2="526.20105" />
    <linearGradient
       id="linearGradient4428"
       inkscape:collect="always">
      <stop
         id="stop4430"
         offset="0"
         style="stop-color:#d0d0d0;stop-opacity:1" />
      <stop
         id="stop4432"
         offset="1"
         style="stop-color:#f1eeee;stop-opacity:1" />
    </linearGradient>
    <linearGradient
       y2="147.64192"
       x2="3.4191015"
       y1="204.54808"
       x1="0.9673245"
       gradientUnits="userSpaceOnUse"
       id="linearGradient4991"
       xlink:href="#linearGradient4227-3"
       inkscape:collect="always"
       gradientTransform="matrix(0.41708449,-3.0184975e-4,3.1664847e-4,0.39759146,-41.924612,-57.564659)" />
    <linearGradient
       id="linearGradient4227-3">
      <stop
         offset="0"
         style="stop-color:#566069;stop-opacity:1"
         id="stop4229-4" />
      <stop
         offset="1"
         style="stop-color:#6c7884;stop-opacity:1"
         id="stop4231-6" />
    </linearGradient>
    <linearGradient
       gradientTransform="matrix(0.10608038,0,0,0.10608037,430.88601,501.39188)"
       inkscape:collect="always"
       xlink:href="#linearGradient4422-1"
       id="linearGradient4155-9"
       x1="371.47604"
       y1="473.93784"
       x2="371.47604"
       y2="253.9286"
       gradientUnits="userSpaceOnUse" />
    <linearGradient
       id="linearGradient4422-1">
      <stop
         id="stop4424-7"
         offset="0"
         style="stop-color:#197ff1;stop-opacity:1" />
      <stop
         id="stop4426-3"
         offset="1"
         style="stop-color:#21c6fb;stop-opacity:1" />
    </linearGradient>
    <linearGradient
       inkscape:collect="always"
       xlink:href="#linearGradient4428"
       id="linearGradient13248"
       gradientUnits="userSpaceOnUse"
       x1="412.03708"
       y1="542.20105"
       x2="412.03708"
       y2="526.20105" />
    <linearGradient
       inkscape:collect="always"
       xlink:href="#linearGradient4428"
       id="linearGradient13250"
       gradientUnits="userSpaceOnUse"
       x1="412.03708"
       y1="542.20105"
       x2="412.03708"
       y2="526.20105" />
  </defs>
  <sodipodi:namedview
     id="base"
     pagecolor="#5a5a5a"
     bordercolor="#666666"
     borderopacity="1.0"
     inkscape:pageopacity="0"
     inkscape:pageshadow="2"
     inkscape:zoom="4.3179308"
     inkscape:cx="-2.7706196"
     inkscape:cy="30.042059"
     inkscape:document-units="px"
     inkscape:current-layer="g4928"
     showgrid="false"
     fit-margin-top="0"
     fit-margin-left="0"
     fit-margin-right="0"
     fit-margin-bottom="0"
     inkscape:window-width="1366"
     inkscape:window-height="633"
     inkscape:window-x="0"
     inkscape:window-y="33"
     inkscape:window-maximized="1"
     inkscape:showpageshadow="false"
     borderlayer="true"
     showguides="false"
     inkscape:snap-bbox="true"
     inkscape:snap-bbox-edge-midpoints="true"
     showborder="false">
    <inkscape:grid
       type="xygrid"
       id="grid4063" />
    <sodipodi:guide
       position="1.1650391e-05,47.999996"
       orientation="4,0"
       id="guide4146" />
    <sodipodi:guide
       position="1.1650391e-05,43.999996"
       orientation="0,48"
       id="guide4148" />
    <sodipodi:guide
       position="48.000012,43.999996"
       orientation="-4,0"
       id="guide4150" />
    <sodipodi:guide
       position="48.000012,47.999996"
       orientation="0,-48"
       id="guide4152" />
    <sodipodi:guide
       position="1.1650391e-05,4.0000264"
       orientation="4,0"
       id="guide4154" />
    <sodipodi:guide
       position="1.1650391e-05,2.6367188e-05"
       orientation="0,48"
       id="guide4156" />
    <sodipodi:guide
       position="48.000012,2.6367188e-05"
       orientation="-4,0"
       id="guide4158" />
    <sodipodi:guide
       position="48.000012,4.0000264"
       orientation="0,-48"
       id="guide4160" />
    <sodipodi:guide
       position="48.000012,48.000026"
       orientation="0,-4"
       id="guide4162" />
    <sodipodi:guide
       position="44.000012,48.000026"
       orientation="48,0"
       id="guide4164" />
    <sodipodi:guide
       position="44.000012,2.6367188e-05"
       orientation="0,4"
       id="guide4166" />
    <sodipodi:guide
       position="48.000012,2.6367188e-05"
       orientation="-48,0"
       id="guide4168" />
    <sodipodi:guide
       position="4.0000422,48.000026"
       orientation="0,-4"
       id="guide4170" />
    <sodipodi:guide
       position="4.2167969e-05,48.000026"
       orientation="48,0"
       id="guide4172" />
    <sodipodi:guide
       position="4.2167969e-05,2.6367188e-05"
       orientation="0,4"
       id="guide4174" />
    <sodipodi:guide
       position="4.0000422,2.6367188e-05"
       orientation="-48,0"
       id="guide4176" />
  </sodipodi:namedview>
  <metadata
     id="metadata5458">
    <rdf:RDF>
      <cc:Work
         rdf:about="">
        <dc:format>image/svg+xml</dc:format>
        <dc:type
           rdf:resource="http://purl.org/dc/dcmitype/StillImage" />
        <dc:title></dc:title>
      </cc:Work>
    </rdf:RDF>
  </metadata>
  <g
     inkscape:label="Capa 1"
     inkscape:groupmode="layer"
     id="layer1"
     transform="translate(-384.57143,-499.798)">
    <g
       transform="matrix(1.6275041,0,0,1.6275041,-243.36839,-341.7296)"
       style="fill:url(#linearGradient5086);fill-opacity:1"
       id="g4928">
      <g
         transform="matrix(0.42545212,0,0,0.42545212,397.06294,527.79633)"
         style="fill:url(#linearGradient13250);stroke-width:1.31742239;stroke-miterlimit:4;stroke-dasharray:none"
         id="g4884">
        <g
           id="g4878"
           style="fill:url(#linearGradient13248)">
          <path
             inkscape:connector-curvature="0"
             style="opacity:1;fill:url(#linearGradient4991);fill-opacity:1;fill-rule:evenodd;stroke:none;stroke-width:2.76384115px;stroke-linecap:butt;stroke-linejoin:miter;stroke-miterlimit:4;stroke-dasharray:none;stroke-opacity:1"
             d="m -51.798828,2.0566406 c -0.167933,-5.8e-6 -3.169838,-0.2178509 -3.169922,2.9726563 l 0,19.9453121 -0.105469,0 0,20.072266 c -3e-6,3.190507 3.000038,2.970709 3.167969,2.970703 l 19.919922,0 19.80664,0 c 0.167931,5e-6 3.1680072,0.219804 3.1679692,-2.970703 l 0,-19.947266 0.046875,0 0,-20.0703121 c 5.01e-5,-3.1905063 -3.0000422,-2.9726625 -3.1679682,-2.9726563 l -19.746094,0 -0.173828,0 -19.746094,0 z"
             transform="matrix(1.4441996,0,0,1.4441996,53.079091,-28.062413)"
             id="path4271-0" />
          <path
             style="display:inline;fill:#ffffff;fill-opacity:0.84677423;stroke:none;stroke-width:46.76432037;stroke-miterlimit:4;stroke-dasharray:none;stroke-opacity:1"
             inkscape:connector-curvature="0"
             d="m 471.14223,516.73701 -1.32612,0 c -0.31492,0 -0.5702,0.25528 -0.5702,0.5702 l 0,0.70962 c 0,0.31489 -0.25529,0.5702 -0.57021,0.5702 l -1.23648,0 c -0.31493,0 -0.57021,-0.25531 -0.57021,-0.5702 l 0,-0.70962 c 0,-0.31492 -0.25525,-0.5702 -0.5702,-0.5702 l -14.88784,0 c -0.31492,0 -0.5702,0.25528 -0.5702,0.5702 l 0,0.70962 c 0,0.31489 -0.25528,0.5702 -0.57021,0.5702 l -1.23648,0 c -0.31493,0 -0.57021,-0.25531 -0.57021,-0.5702 l 0,-0.70962 c 0,-0.31492 -0.25528,-0.5702 -0.5702,-0.5702 l -1.28153,0 c -0.31492,0 -0.5702,0.25528 -0.5702,0.5702 l 0,25.65915 c 0,0.31493 0.25528,0.57021 0.5702,0.57021 l 1.28153,0 c 0.31492,0 0.5702,-0.25528 0.5702,-0.57021 l 0,-0.52131 c 0,-0.31492 0.25528,-0.5702 0.57021,-0.5702 l 1.23648,0 c 0.31493,0 0.57021,0.25528 0.57021,0.5702 l 0,0.52131 c 0,0.31493 0.25528,0.57021 0.5702,0.57021 l 14.88784,0 c 0.31495,0 0.5702,-0.25528 0.5702,-0.57021 l 0,-0.52131 c 0,-0.31492 0.25528,-0.5702 0.57021,-0.5702 l 1.23648,0 c 0.31492,0 0.57021,0.25528 0.57021,0.5702 l 0,0.52131 c 0,0.31493 0.25528,0.57021 0.5702,0.57021 l 1.32612,0 c 0.31492,0 0.5702,-0.25528 0.5702,-0.57021 l 0,-25.65915 c 0,-0.31489 -0.25528,-0.5702 -0.5702,-0.5702 z m -20.30146,21.8208 c 0,0.31492 -0.25528,0.5702 -0.57021,0.5702 l -1.23648,0 c -0.31493,0 -0.57021,-0.25528 -0.57021,-0.5702 l 0,-1.23649 c 0,-0.31489 0.25528,-0.5702 0.57021,-0.5702 l 1.23648,0 c 0.31493,0 0.57021,0.25531 0.57021,0.5702 l 0,1.23649 z m 0,-5.12374 c 0,0.3149 -0.25528,0.57021 -0.57021,0.57021 l -1.23648,0 c -0.31493,0 -0.57021,-0.25531 -0.57021,-0.57021 l 0,-1.23651 c 0,-0.3149 0.25528,-0.5702 0.57021,-0.5702 l 1.23648,0 c 0.31493,0 0.57021,0.2553 0.57021,0.5702 l 0,1.23651 z m 0,-5.12376 c 0,0.31495 -0.25528,0.57021 -0.57021,0.57021 l -1.23648,0 c -0.31493,0 -0.57021,-0.25526 -0.57021,-0.57021 l 0,-1.23648 c 0,-0.31493 0.25528,-0.57021 0.57021,-0.57021 l 1.23648,0 c 0.31493,0 0.57021,0.25528 0.57021,0.57021 l 0,1.23648 z m 0,-5.12373 c 0,0.31492 -0.25528,0.5702 -0.57021,0.5702 l -1.23648,0 c -0.31493,0 -0.57021,-0.25528 -0.57021,-0.5702 l 0,-1.23649 c 0,-0.31489 0.25528,-0.5702 0.57021,-0.5702 l 1.23648,0 c 0.31493,0 0.57021,0.25531 0.57021,0.5702 l 0,1.23649 z m 13.56271,17.33552 c 0,0.31495 -0.25528,0.5702 -0.5702,0.5702 l -9.91219,0 c -0.31492,0 -0.5702,-0.25525 -0.5702,-0.5702 l 0,-4.58221 c 0,-0.31492 0.25528,-0.5702 0.5702,-0.5702 l 9.91219,0 c 0.31492,0 0.5702,0.25528 0.5702,0.5702 l 0,4.58221 0,0 z m 0,-8.09421 c 0,0.31493 -0.25528,0.57021 -0.5702,0.57021 l -9.91219,0 c -0.31492,0 -0.5702,-0.25528 -0.5702,-0.57021 l 0,-4.58221 c 0,-0.31489 0.25528,-0.5702 0.5702,-0.5702 l 9.91219,0 c 0.31492,0 0.5702,0.25531 0.5702,0.5702 l 0,4.58221 0,0 z m 0,-8.09423 c 0,0.31492 -0.25528,0.5702 -0.5702,0.5702 l -9.91219,0 c -0.31492,0 -0.5702,-0.25528 -0.5702,-0.5702 l 0,-4.58221 c 0,-0.3149 0.25528,-0.57021 0.5702,-0.57021 l 9.91219,0 c 0.31492,0 0.5702,0.25531 0.5702,0.57021 l 0,4.58221 0,0 z m 4.84245,14.22415 c 0,0.31492 -0.25528,0.5702 -0.5702,0.5702 l -1.23649,0 c -0.31492,0 -0.5702,-0.25528 -0.5702,-0.5702 l 0,-1.23649 c 0,-0.31489 0.25528,-0.5702 0.5702,-0.5702 l 1.23649,0 c 0.31492,0 0.5702,0.25531 0.5702,0.5702 l 0,1.23649 z m 0,-5.12374 c 0,0.3149 -0.25528,0.57021 -0.5702,0.57021 l -1.23649,0 c -0.31492,0 -0.5702,-0.25531 -0.5702,-0.57021 l 0,-1.23651 c 0,-0.3149 0.25528,-0.5702 0.5702,-0.5702 l 1.23649,0 c 0.31492,0 0.5702,0.2553 0.5702,0.5702 l 0,1.23651 z m 0,-5.12376 c 0,0.31495 -0.25528,0.57021 -0.5702,0.57021 l -1.23649,0 c -0.31492,0 -0.5702,-0.25526 -0.5702,-0.57021 l 0,-1.23648 c 0,-0.31493 0.25528,-0.57021 0.5702,-0.57021 l 1.23649,0 c 0.31492,0 0.5702,0.25528 0.5702,0.57021 l 0,1.23648 z m 0,-5.12373 c 0,0.31492 -0.25528,0.5702 -0.5702,0.5702 l -1.23649,0 c -0.31492,0 -0.5702,-0.25528 -0.5702,-0.5702 l 0,-1.23649 c 0,-0.31489 0.25528,-0.5702 0.5702,-0.5702 l 1.23649,0 c 0.31492,0 0.5702,0.25531 0.5702,0.5702 l 0,1.23649 z"
             id="path14795-6"
             transform="matrix(1.4873345,0,0,1.4873345,-675.4015,-779.05015)" />
          <circle
             r="13.066079"
             style="opacity:1;fill:url(#linearGradient4155-9);fill-opacity:1;stroke:none;stroke-width:5.23831511;stroke-linecap:butt;stroke-linejoin:miter;stroke-miterlimit:4;stroke-dasharray:none;stroke-dashoffset:0;stroke-opacity:1"
             id="path3340-8"
             cx="469.9303"
             cy="540.29169"
             transform="matrix(1.4873345,0,0,1.4873345,-675.4015,-779.05015)" />
          <path
             inkscape:connector-curvature="0"
             id="path5634-9"
             style="opacity:1;fill:#ffffff;fill-opacity:0.84771573;enable-background:new"
             d="m 24.026,12.005066 c 2.735,0.006 5.5083,0.85839 7.6746,2.5456 1.5229,1.7544 -1.3789,3.6333 -2.6858,1.9226 -3.9343,-2.3806 -9.4829,-1.5424 -12.443,2.0167 -1.5749,1.7662 -2.4622,4.1231 -2.4518,6.4891 l 2.6,0 -4.16,6.24 -4.1599998,-6.24 2.5999998,0 c -0.083,-5.649 3.98,-11.023 9.435,-12.486 1.17,-0.321 2.376,-0.501 3.591,-0.488 z m 11.414,6.76 4.16,6.24 -2.6,0 c 0.0737,5.7169 -4.093,11.151 -9.6433,12.537 -3.7452,1.0459 -7.9801,0.2827 -11.058,-2.1101 -1.5705,-1.7837 1.3716,-3.6445 2.6907,-1.9181 3.8119,2.3127 9.1499,1.5792 12.159,-1.724 1.742,-1.795 2.744,-4.283 2.731,-6.785 l -2.6,0 4.16,-6.24 z" />
        </g>
      </g>
    </g>
  </g>
</svg>
