<?xml version="1.0" encoding="UTF-8" standalone="no"?>
<!-- Created with Inkscape (http://www.inkscape.org/) -->

<svg
   xmlns:dc="http://purl.org/dc/elements/1.1/"
   xmlns:cc="http://creativecommons.org/ns#"
   xmlns:rdf="http://www.w3.org/1999/02/22-rdf-syntax-ns#"
   xmlns:svg="http://www.w3.org/2000/svg"
   xmlns="http://www.w3.org/2000/svg"
   xmlns:xlink="http://www.w3.org/1999/xlink"
   xmlns:sodipodi="http://sodipodi.sourceforge.net/DTD/sodipodi-0.dtd"
   xmlns:inkscape="http://www.inkscape.org/namespaces/inkscape"
   width="48"
   height="48"
   id="svg5453"
   version="1.1"
   inkscape:version="0.91 r13725"
   sodipodi:docname="muon.svg">
  <defs
     id="defs5455">
    <linearGradient
       gradientTransform="matrix(0.13837079,0,0,0.13837079,57.46629,-77.959556)"
       inkscape:collect="always"
       xlink:href="#linearGradient4264"
       id="linearGradient5299"
       gradientUnits="userSpaceOnUse"
       x1="-318.57867"
       y1="653.95679"
       x2="-318.57867"
       y2="301.29816" />
    <linearGradient
       inkscape:collect="always"
       id="linearGradient4264">
      <stop
         style="stop-color:#0a80fd;stop-opacity:1"
         offset="0"
         id="stop4266" />
      <stop
         style="stop-color:#56c5fa;stop-opacity:1"
         offset="1"
         id="stop4268" />
    </linearGradient>
  </defs>
  <sodipodi:namedview
     id="base"
     pagecolor="#ffffff"
     bordercolor="#666666"
     borderopacity="1.0"
     inkscape:pageopacity="0"
     inkscape:pageshadow="2"
     inkscape:zoom="4"
     inkscape:cx="-39.601104"
     inkscape:cy="15.968792"
     inkscape:document-units="px"
     inkscape:current-layer="g4370"
     showgrid="true"
     fit-margin-top="0"
     fit-margin-left="0"
     fit-margin-right="0"
     fit-margin-bottom="0"
     inkscape:window-width="1366"
     inkscape:window-height="634"
     inkscape:window-x="0"
     inkscape:window-y="36"
     inkscape:window-maximized="1"
     inkscape:showpageshadow="false"
     borderlayer="true"
     showguides="false">
    <inkscape:grid
       type="xygrid"
       id="grid4063" />
    <sodipodi:guide
       position="1.1650391e-05,32.000026"
       orientation="32,0"
       id="guide4157" />
    <sodipodi:guide
       position="1.1650391e-05,2.6367188e-05"
       orientation="0,32"
       id="guide4159" />
    <sodipodi:guide
       position="32.000012,2.6367188e-05"
       orientation="-32,0"
       id="guide4161" />
    <sodipodi:guide
       position="32.000012,32.000026"
       orientation="0,-32"
       id="guide4163" />
    <sodipodi:guide
       position="2.0000117,30.000026"
       orientation="28,0"
       id="guide4167" />
    <sodipodi:guide
       position="2.0000117,2.0000264"
       orientation="0,28"
       id="guide4169" />
    <sodipodi:guide
       position="30.000012,2.0000264"
       orientation="-28,0"
       id="guide4171" />
    <sodipodi:guide
       position="30.000012,30.000026"
       orientation="0,-28"
       id="guide4173" />
    <sodipodi:guide
       position="2.0000117,30.000026"
       orientation="28,0"
       id="guide4181" />
    <sodipodi:guide
       position="2.0000117,2.0000264"
       orientation="0,14"
       id="guide4183" />
    <sodipodi:guide
       position="16.000012,2.0000264"
       orientation="-28,0"
       id="guide4185" />
    <sodipodi:guide
       position="16.000012,30.000026"
       orientation="0,-14"
       id="guide4187" />
    <sodipodi:guide
       position="9.0000117,23.000026"
       orientation="14,0"
       id="guide4193" />
    <sodipodi:guide
       position="9.0000117,9.0000264"
       orientation="0,14.000031"
       id="guide4195" />
    <sodipodi:guide
       position="23.000042,9.0000264"
       orientation="-14,0"
       id="guide4197" />
    <sodipodi:guide
       position="23.000042,23.000026"
       orientation="0,-14.000031"
       id="guide4199" />
  </sodipodi:namedview>
  <metadata
     id="metadata5458">
    <rdf:RDF>
      <cc:Work
         rdf:about="">
        <dc:format>image/svg+xml</dc:format>
        <dc:type
           rdf:resource="http://purl.org/dc/dcmitype/StillImage" />
        <dc:title></dc:title>
      </cc:Work>
    </rdf:RDF>
  </metadata>
  <g
     inkscape:label="Capa 1"
     inkscape:groupmode="layer"
     id="layer1"
     transform="translate(-384.57143,-499.798)">
    <g
       style="display:inline;enable-background:new"
       id="g4238"
       transform="translate(225.81911,462.44565)">
      <g
         style="display:inline"
         id="layer1-8"
         transform="matrix(0.22655187,0,0,0.22655187,106.94841,54.31088)">
        <g
           style="display:none"
           id="layer6" />
        <g
           id="g4027" />
        <g
           id="g4061" />
        <g
           id="g3751" />
        <g
           id="g3782" />
        <g
           id="g3725" />
        <g
           id="g4370"
           transform="matrix(4.4140002,0,0,4.4140002,59.275211,39.357303)">
          <g
             id="g4182"
             transform="translate(50.002,9.8399986)">
            <circle
               r="24"
               cy="-11.714999"
               cx="12.373"
               id="path4217"
               style="opacity:1;fill:url(#linearGradient5299);fill-opacity:1;stroke:none;stroke-width:15.44461155;stroke-linecap:round;stroke-linejoin:round;stroke-miterlimit:4;stroke-dasharray:none;stroke-opacity:1" />
            <path
               inkscape:connector-curvature="0"
               id="path3319"
               d="M -0.10494691,-0.84272661 C 0.83897709,-1.6950736 1.8240951,-2.5799816 2.0842021,-2.8091896 c 0.260108,-0.229198 0.47446,-0.440174 0.476328,-0.468822 0.0032,-0.0523 -2.76253901,-1.913528 -2.88791301,-1.943274 -0.03711,-0.0084 -0.0913,0.06079 -0.12161,0.156272 -0.0675,0.212679 -0.92894999,3.434813 -1.40902199,5.27054259 -0.102407,0.391697 -0.103979,0.501474 -0.0074,0.501474 0.0241,0 0.816117,-0.6973776 1.76005099,-1.5497296 z M 26.027525,0.53550999 c 0.502614,-0.6589626 0.784273,-2.08485259 0.66433,-3.36317959 -0.136463,-1.454264 -0.532185,-2.460711 -1.290894,-3.283171 -0.562739,-0.610012 -1.039486,-0.742963 -1.584354,-0.441842 -0.849524,0.469484 -1.655476,0.967203 -1.775303,1.09634 -0.357443,0.385229 -0.332884,1.012423 0.07107,1.813688 0.408438,0.810302 0.852332,1.272939 1.84007,1.917791 1.01908,0.665306 1.432695,1.17392999 1.655987,2.03637659 0.0717,0.276723 0.145458,0.392367 0.251934,0.394694 0.02002,5.56e-4 0.09528,-0.07641 0.167216,-0.170697 z M 3.9625201,-5.4436886 c 1.927668,-3.436722 4.387141,-7.7011114 5.914642,-10.2551764 0.3331469,-0.557027 0.6057069,-1.02891 0.6057069,-1.048627 0,-0.06373 -2.8681119,-1.826557 -2.9442829,-1.809693 -0.07662,0.01698 -2.640894,4.333424 -4.461436,7.5099 -0.577134,1.006951 -1.434885,2.4402934 -1.90614,3.1851974 -0.47125201,0.744914 -0.92803101,1.467104 -1.01507401,1.604867 -0.0913,0.144546 -0.138612,0.269302 -0.11181,0.295002 0.129075,0.123729 3.02286501,1.975917 3.06636501,1.962647 0.02788,-0.0084 0.411288,-0.658357 0.852029,-1.444117 z M 22.69838,-6.6644716 c 0.744916,-0.423594 1.399162,-0.812145 1.453886,-0.863455 0.09738,-0.0913 0.09361,-0.103454 -0.181356,-0.578357 -0.15448,-0.266794 -0.529837,-0.918747 -0.834137,-1.448782 -0.304299,-0.5300364 -0.588379,-0.9706004 -0.631291,-0.9790394 -0.113654,-0.02232 -2.929293,1.6204144 -2.948528,1.7202954 -0.01604,0.08312 1.462681,2.68994 1.626892,2.867996 0.04717,0.05115 0.10251,0.08375 0.122982,0.07232 0.02044,-0.01144 0.646636,-0.367347 1.391552,-0.790942 z m 5.610408,-2.755 c 0.02096,-0.03753 0.03312,-0.8393994 0.02683,-1.7818874 l -0.01133,-1.713626 -3.16847,-0.01342 c -2.764687,-0.01173 -3.166309,-0.0042 -3.151549,0.0631 0.0094,0.04214 0.450467,0.849944 0.980369,1.795206 l 0.963458,1.7186604 0.208602,0.01541 c 0.114745,0.0084 1.087296,0.0084 2.161245,0 1.543645,-0.01205 1.960634,-0.02956 1.990842,-0.08354 z m -10.024163,-0.07348 c 0.0084,-0.0261 -0.393082,-0.7833514 -0.892876,-1.6826764 l -0.908729,-1.635126 -3.863423,0 -3.8634169,0 -0.912247,1.651658 c -0.501725,0.908399 -0.900736,1.6702434 -0.886692,1.6929784 0.03637,0.0588 11.3077509,0.03207 11.3273839,-0.02683 z m -16.5953289,-0.28346 c 0.103354,-0.179072 0.530131,-0.9172044 0.948474,-1.6403174 0.418341,-0.723103 0.760627,-1.338617 0.760627,-1.367797 0,-0.03564 -1.0674,-0.04864 -3.24271201,-0.03962 l -3.24270499,0.01342 -0.01739,0.364643 c -0.0094,0.20055 -0.0011,0.956535 0.01886,1.679961 l 0.03627,1.3153054 2.27532899,0 2.27532901,0 z M 20.797034,-10.440534 c 1.322916,-0.728141 1.302297,-0.715344 1.302297,-0.808442 0,-0.09067 -0.697054,-1.323168 -3.063471,-5.416569 -2.601169,-4.499496 -3.746744,-6.482906 -4.508125,-7.805277 -0.75049,-1.303482 -0.927991,-1.546411 -1.249908,-1.710641 -0.253557,-0.129355 -0.658858,-0.149459 -0.920949,-0.0457 -0.249656,0.09884 -1.129367,0.611104 -1.362013,0.793078 -0.373092,0.291837 -0.514533,0.868917 -0.324468,1.32382 0.102514,0.24539 0.03281,0.123098 2.493448,4.371283 3.873815,6.68788 5.865044,10.0605874 5.988216,10.1427134 0.0304,0.02034 0.172753,-0.02914 0.316237,-0.109798 0.143469,-0.08071 0.741404,-0.4112144 1.328736,-0.7344954 z m -9.568214,-7.696601 c 0.616869,-1.029233 0.707233,-1.209344 0.74501,-1.484985 0.07851,-0.572552 -0.222815,-0.956209 -1.174892,-1.496088 -0.539743,-0.306062 -0.627466,-0.339244 -0.9439539,-0.357129 -0.432493,-0.02442 -0.646018,0.06646 -0.943693,0.4018 -0.22294,0.251138 -1.085744,1.786731 -1.084214,1.929653 5.57e-4,0.05104 0.537489,0.411201 1.419498,0.952096 0.7802369,0.478489 1.4347989,0.871138 1.4545669,0.872542 0.01981,8.91e-4 0.257226,-0.366643 0.527678,-0.817889 z"
               style="fill:#ffffff;fill-opacity:0.85185188;stroke:none;stroke-opacity:1"
               sodipodi:nodetypes="ssccscsssssscssscsssscsssccsscssccccscscscsccccccscccsccsssscsscccsssssscsssscsssssscscs" />
          </g>
        </g>
      </g>
    </g>
  </g>
</svg>
