<?xml version="1.0" encoding="UTF-8" standalone="no"?>
<!-- Created with Inkscape (http://www.inkscape.org/) -->

<svg
   xmlns:dc="http://purl.org/dc/elements/1.1/"
   xmlns:cc="http://creativecommons.org/ns#"
   xmlns:rdf="http://www.w3.org/1999/02/22-rdf-syntax-ns#"
   xmlns:svg="http://www.w3.org/2000/svg"
   xmlns="http://www.w3.org/2000/svg"
   xmlns:xlink="http://www.w3.org/1999/xlink"
   xmlns:sodipodi="http://sodipodi.sourceforge.net/DTD/sodipodi-0.dtd"
   xmlns:inkscape="http://www.inkscape.org/namespaces/inkscape"
   width="48"
   height="48"
   id="svg5453"
   version="1.1"
   inkscape:version="0.91 r13725"
   sodipodi:docname="applications-internet.svg">
  <defs
     id="defs5455">
    <linearGradient
       id="linearGradient4422">
      <stop
         style="stop-color:#197ff1;stop-opacity:1"
         offset="0"
         id="stop4424" />
      <stop
         style="stop-color:#21c6fb;stop-opacity:1"
         offset="1"
         id="stop4426" />
    </linearGradient>
    <linearGradient
       inkscape:collect="always"
       xlink:href="#linearGradient6537"
       id="linearGradient4200"
       x1="374.5661"
       y1="574.65442"
       x2="374.5661"
       y2="547.04834"
       gradientUnits="userSpaceOnUse"
       gradientTransform="matrix(1.6300768,0,0,1.6300768,-542.19653,-934.60584)" />
    <linearGradient
       inkscape:collect="always"
       id="linearGradient6537">
      <stop
         style="stop-color:#187ced;stop-opacity:1"
         offset="0"
         id="stop6539" />
      <stop
         style="stop-color:#42d6fc;stop-opacity:1"
         offset="1"
         id="stop6541" />
    </linearGradient>
    <linearGradient
       inkscape:collect="always"
       xlink:href="#linearGradient4263"
       id="linearGradient4161-1-2"
       x1="16.038231"
       y1="29.505291"
       x2="16.038231"
       y2="2.3195643"
       gradientUnits="userSpaceOnUse"
       gradientTransform="matrix(1.7992098,0,0,1.7933934,38.492674,-50.578123)" />
    <linearGradient
       inkscape:collect="always"
       id="linearGradient4263">
      <stop
         style="stop-color:#0164c2;stop-opacity:1"
         offset="0"
         id="stop4265" />
      <stop
         style="stop-color:#00a9f3;stop-opacity:1"
         offset="1"
         id="stop4267" />
    </linearGradient>
  </defs>
  <sodipodi:namedview
     id="base"
     pagecolor="#ffffff"
     bordercolor="#666666"
     borderopacity="1.0"
     inkscape:pageopacity="0"
     inkscape:pageshadow="2"
     inkscape:zoom="4"
     inkscape:cx="11.047071"
     inkscape:cy="35.968792"
     inkscape:document-units="px"
     inkscape:current-layer="g4370"
     showgrid="true"
     fit-margin-top="0"
     fit-margin-left="0"
     fit-margin-right="0"
     fit-margin-bottom="0"
     inkscape:window-width="1366"
     inkscape:window-height="634"
     inkscape:window-x="0"
     inkscape:window-y="36"
     inkscape:window-maximized="1"
     inkscape:showpageshadow="false"
     borderlayer="true"
     showguides="false">
    <inkscape:grid
       type="xygrid"
       id="grid4063" />
    <sodipodi:guide
       position="1.1650391e-05,32.000026"
       orientation="32,0"
       id="guide4157" />
    <sodipodi:guide
       position="1.1650391e-05,2.6367188e-05"
       orientation="0,32"
       id="guide4159" />
    <sodipodi:guide
       position="32.000012,2.6367188e-05"
       orientation="-32,0"
       id="guide4161" />
    <sodipodi:guide
       position="32.000012,32.000026"
       orientation="0,-32"
       id="guide4163" />
    <sodipodi:guide
       position="2.0000117,30.000026"
       orientation="28,0"
       id="guide4167" />
    <sodipodi:guide
       position="2.0000117,2.0000264"
       orientation="0,28"
       id="guide4169" />
    <sodipodi:guide
       position="30.000012,2.0000264"
       orientation="-28,0"
       id="guide4171" />
    <sodipodi:guide
       position="30.000012,30.000026"
       orientation="0,-28"
       id="guide4173" />
    <sodipodi:guide
       position="2.0000117,30.000026"
       orientation="28,0"
       id="guide4181" />
    <sodipodi:guide
       position="2.0000117,2.0000264"
       orientation="0,14"
       id="guide4183" />
    <sodipodi:guide
       position="16.000012,2.0000264"
       orientation="-28,0"
       id="guide4185" />
    <sodipodi:guide
       position="16.000012,30.000026"
       orientation="0,-14"
       id="guide4187" />
    <sodipodi:guide
       position="9.0000117,23.000026"
       orientation="14,0"
       id="guide4193" />
    <sodipodi:guide
       position="9.0000117,9.0000264"
       orientation="0,14.000031"
       id="guide4195" />
    <sodipodi:guide
       position="23.000042,9.0000264"
       orientation="-14,0"
       id="guide4197" />
    <sodipodi:guide
       position="23.000042,23.000026"
       orientation="0,-14.000031"
       id="guide4199" />
  </sodipodi:namedview>
  <metadata
     id="metadata5458">
    <rdf:RDF>
      <cc:Work
         rdf:about="">
        <dc:format>image/svg+xml</dc:format>
        <dc:type
           rdf:resource="http://purl.org/dc/dcmitype/StillImage" />
        <dc:title></dc:title>
      </cc:Work>
    </rdf:RDF>
  </metadata>
  <g
     inkscape:label="Capa 1"
     inkscape:groupmode="layer"
     id="layer1"
     transform="translate(-384.57143,-499.798)">
    <g
       style="display:inline;enable-background:new"
       id="g4238"
       transform="translate(225.81911,462.44565)">
      <g
         style="display:inline"
         id="layer1-8"
         transform="matrix(0.22655187,0,0,0.22655187,106.94841,54.31088)">
        <g
           style="display:none"
           id="layer6" />
        <g
           id="g4027" />
        <g
           id="g4061" />
        <g
           id="g3751" />
        <g
           id="g3782" />
        <g
           id="g3725" />
        <g
           id="g4370"
           transform="matrix(4.4140002,0,0,4.4140002,59.275211,39.357303)">
          <g
             id="g4197"
             transform="translate(-4.9999999,20.000015)">
            <circle
               style="opacity:1;fill:url(#linearGradient4200);fill-opacity:1;stroke:url(#linearGradient4200);stroke-width:2.32679677;stroke-miterlimit:4;stroke-dasharray:none;stroke-dashoffset:0;stroke-opacity:1"
               id="path3377"
               cx="67.375"
               cy="-21.875015"
               r="22.821007" />
            <path
               id="path34-7-3"
               d="m 67.325666,-45.784143 c -3.025388,0 -5.905033,0.575267 -8.56627,1.585365 -0.193535,0.177299 -0.44514,0.313427 -0.644171,0.29656 -0.02806,-0.0032 -0.05412,-0.01891 -0.08312,-0.03037 -1.311818,0.547063 -2.556183,1.217316 -3.73613,1.977617 0.153224,0.248064 0.198863,0.524259 -0.116235,0.658452 -0.05296,0.02133 -0.720305,0.08985 -0.953341,0.08491 -3.355439,2.430281 -6.047098,5.698888 -7.767519,9.51462 0.02774,-0.0053 0.0517,-0.01629 0.08081,-0.01765 0.261126,-0.0053 0.636879,0.06978 0.887675,0.123233 0.231439,0.04739 0.418112,0.202194 0.618435,0.21719 0.568448,0.0434 0.705111,-0.397621 1.16883,-0.644434 0.47923,0.06683 0.797175,-0.08155 1.229842,-0.03321 0.294952,0.03321 0.508033,0.346612 0.737854,0.364235 0.193346,0.01892 0.363458,-0.180599 0.550509,-0.152079 0.181776,0.02848 0.495161,0.422946 0.524742,0.644413 0.03836,0.275617 -0.203434,0.523807 -0.123884,0.826568 0.289698,0.294017 0.815985,0.353611 1.229799,0.523008 0.269543,-0.221404 0.03615,-0.632181 0,-0.952617 -0.0053,-0.141497 0.01891,-0.266948 0,-0.396959 -0.02375,-0.220699 -0.119166,-0.422831 -0.120627,-0.611721 -0.0052,-0.872332 0.706014,-1.280619 1.293009,-1.625024 0.254095,-0.150125 0.454156,-0.413205 0.674604,-0.523093 0.31143,-0.155505 0.543321,-0.191843 0.801105,-0.33623 0.465958,-0.260863 0.865491,-0.470192 1.229821,-0.765797 0.168178,-0.395571 0.01629,-0.925946 0.03131,-1.316893 0.168252,-0.102879 0.313238,0.04435 0.491872,0.03048 0.281092,-0.0579 0.304494,-0.4538 0.463803,-0.611648 0.09247,-0.09079 0.346392,-0.155021 0.461376,-0.245237 0.28022,-0.219008 0.371433,-0.549931 0.616208,-0.64436 0.08785,-0.03583 0.290203,-0.02427 0.428663,-0.06232 0.182039,-0.04823 0.44122,-0.262786 0.737802,-0.364131 0.193293,-0.06683 0.636006,-0.08081 0.709765,-0.153876 0.09111,-0.09237 -0.001,-0.351866 0.03132,-0.490305 0.149147,-0.692017 1.194827,-0.838695 1.813,-1.071731 0.433287,-0.16285 0.877828,-0.463268 1.353937,-0.371266 -0.09342,0.328896 -0.53668,0.212346 -0.461523,0.611764 0.103719,0.554229 0.848394,-0.15828 1.044829,-0.240498 0.37512,-0.157304 1.018493,-0.253908 1.510827,-0.431954 0.431721,-0.157302 1.205703,-0.39741 0.798846,-0.889566 -0.339467,-0.01891 -0.503011,0.396938 -0.798846,0.522987 -0.204338,0.03342 -0.164868,-0.170437 -0.339646,-0.186704 -0.165141,-0.01891 -0.258477,0.152247 -0.428757,0.12275 -0.169145,-0.02774 -0.406837,-0.293061 -0.433297,-0.490296 -0.06694,-0.511732 0.433885,-0.722701 0.646577,-1.104443 -0.141171,-0.462826 -0.783041,-0.09437 -1.171246,-0.275449 0.03815,-0.275617 0.323483,-0.465685 0.646473,-0.518332 0.264772,-0.04435 0.858965,-0.02133 1.016645,0.11801 0.09142,0.0786 0.0063,0.270689 0.15437,0.399239 0.15665,0.141497 0.349523,0.126165 0.552905,0.09374 0.0724,-0.349313 -0.455733,-0.261682 -0.398209,-0.49268 0.415422,-0.270889 1.091287,-0.04876 1.59993,-0.123234 0.292746,-0.0434 0.600099,-0.249062 0.859627,-0.394562 0.246771,-0.140016 0.567365,-0.383372 0.829216,-0.154034 0.06946,0.250313 -0.228066,0.333151 -0.367798,0.457624 -0.470487,0.417261 -0.955318,0.895272 -1.321045,1.379872 0.224314,0.218188 0.632149,0.108238 1.011937,0.153886 0.148506,0.01891 0.334854,0.06274 0.49183,0.09163 0.183773,0.03342 0.37881,0.0228 0.522336,0.06063 0.258456,0.06263 0.327487,0.338553 0.583306,0.338553 0.420781,-7.57e-4 0.425794,-0.45444 0.187314,-0.737844 0.07535,-0.28932 0.193293,-0.439434 0.09195,-0.642101 -0.189532,-0.377833 -0.88487,-0.01891 -0.920567,-0.490306 -0.02186,-0.305682 0.256586,-0.292021 0.367745,-0.520633 -0.05055,-0.59061 0.485955,-0.6334 0.428621,-1.162766 -0.02396,-0.221467 -0.212146,-0.224525 -0.367756,-0.431984 -0.07902,-0.101197 -0.117852,-0.297495 -0.208457,-0.385241 -0.717689,-0.06242 -1.443479,-0.102563 -2.178381,-0.102563 z m -12.377484,4.823802 0.0032,0 c 0.143451,0.01891 0.316169,0.173653 0.489528,0.186936 0.163397,0.0053 0.299534,-0.09048 0.400595,-0.06242 0.257174,0.06694 0.36559,0.454682 0.122907,0.644402 -0.201038,0.02428 -0.279411,-0.08817 -0.430964,-0.06084 -0.417703,0.06999 -0.577957,0.886277 -0.890165,0.85926 -0.294375,-0.02364 -0.453694,-0.739757 -0.154202,-0.952596 0.01891,-0.185917 -0.1366,-0.215624 -0.126175,-0.399292 0.0888,-0.112798 0.34098,-0.234434 0.585607,-0.214762 z m -1.384338,0.09605 c 0.08554,0.0032 0.149642,0.0228 0.18268,0.06032 -0.04109,0.326762 -0.297327,0.305314 -0.550498,0.457614 -0.437301,0.263027 -0.690062,0.663927 -0.829205,1.225817 -0.04056,0.162839 -0.47117,0.596735 -0.679301,0.553377 -0.48771,-0.102352 0.135465,-0.998581 0.245951,-1.134792 0.123717,-0.150944 0.288343,-0.283299 0.43335,-0.457614 0.14052,-0.168724 0.232227,-0.396664 0.367766,-0.490316 0.148496,-0.102353 0.572304,-0.22464 0.829215,-0.21472 z m 3.640104,1.102027 c 0.155999,0.0032 0.296676,0.02848 0.360768,0.09163 -0.100251,0.40484 -0.975389,0.297937 -1.295342,0.151427 0.01892,-0.152572 0.260117,-0.194838 0.461429,-0.214741 0.14198,-0.0053 0.317241,-0.03342 0.473145,-0.02816 z m -1.990972,0.747207 c 0.103718,-0.0032 0.209266,0.01891 0.318512,0.04876 -0.283015,0.23599 -0.589127,0.369658 -1.075198,0.522977 -0.233699,0.07282 -0.637299,0.1643 -0.676937,-0.09605 -0.04844,-0.318849 0.341757,-0.24468 0.555101,-0.27319 0.268734,-0.03752 0.563687,-0.193051 0.878522,-0.203203 z m 30.545467,1.816532 c -0.03699,0.08806 -0.06242,0.172833 -0.05853,0.256786 0.01891,0.148001 0.181598,0.290265 0.217799,0.490368 0.01892,0.106283 -0.04991,0.335201 0,0.431973 0.14817,0.28621 0.535629,0.08134 0.812865,0.09605 -0.314932,-0.432257 -0.629451,-0.865312 -0.972144,-1.274808 z m 1.571789,2.108384 c -0.04435,0.211211 -0.188113,0.486691 -0.304516,0.663087 -0.268082,0.406406 -0.632244,0.425363 -1.016634,0.642069 -0.320552,0.181167 -0.458591,0.483497 -0.646515,0.798521 -0.203697,0.340349 -0.329851,0.545969 -0.245899,1.039102 -0.274881,0.543363 -0.691029,0.876241 -1.260274,1.134708 -0.168115,0.07577 -0.398367,0.104034 -0.552842,0.214731 -0.122582,0.08848 -0.192863,0.324923 -0.367745,0.520643 -0.215635,0.239268 -0.441788,0.340212 -0.555165,0.523008 -0.08785,0.141497 -0.117527,0.422221 -0.215445,0.611742 -0.131871,0.257479 -0.410893,0.383602 -0.583369,0.644444 -0.0786,0.120302 -0.131714,0.365076 -0.217757,0.523051 -0.194933,0.352886 -0.527706,0.607128 -0.491977,0.91756 0.03604,0.300039 0.377276,0.352539 0.400542,0.614075 0.0053,0.147844 -0.09794,0.238217 -0.09195,0.399271 0.0053,0.235253 0.164122,0.400395 0.18268,0.581414 0.04592,0.455134 -0.155011,0.636773 -0.241244,0.94792 -0.04109,0.148664 -0.0228,0.315906 -0.06263,0.431983 -0.07661,0.227793 -0.394205,0.433413 -0.400594,0.702746 -0.0032,0.191507 0.19716,0.345393 0.21328,0.614148 0.0053,0.185507 -0.09174,0.383014 -0.05801,0.553378 0.06484,0.333519 0.662803,0.721472 0.922994,0.98057 0.347884,0.346865 0.803375,0.615241 0.953342,0.980706 0.125839,0.310337 0.124694,0.71399 0.367776,0.947951 0.179359,0.172644 0.477643,0.280346 0.707401,0.459915 0.214395,0.16739 0.447883,0.312471 0.676969,0.490296 0.374323,0.291978 0.940311,0.873834 1.536627,0.828973 0.31144,-0.02133 0.630594,-0.276005 0.9839,-0.338594 0.363374,-0.06442 0.835006,-0.09857 1.201595,-0.06032 0.280851,0.02774 0.570108,0.195469 0.862034,0.18206 0.308235,-0.01891 0.661731,-0.246761 1.011969,-0.399197 0.281806,-0.12193 0.627641,-0.257805 1.007219,-0.3573 0.17421,-1.166171 0.267063,-2.360956 0.267063,-3.577021 0,-4.895681 -1.468637,-9.433273 -3.982103,-13.215378 z m -39.671704,8.034276 c -0.510945,0.02816 -0.84563,0.05107 -1.136096,0.182112 -0.66543,0.301836 -0.536932,1.198169 -1.201773,1.410263 -0.229779,0.07272 -0.545528,0.07682 -0.798573,0.122907 -0.218619,0.04025 -0.484757,0.158279 -0.709786,0.153718 -0.06263,-7.67e-4 -0.151113,-0.0476 -0.229632,-0.07135 -0.05853,0.420266 -0.107744,0.845283 -0.145732,1.272422 0.632538,0.120144 0.958974,0.956389 1.518016,1.232826 0.153057,0.07608 0.353233,0.0807 0.550404,0.123559 0.158605,0.03583 0.280052,0.102353 0.433276,0.154212 0.325365,0.109699 0.723711,0.09678 0.983933,0.212577 0.391967,0.173443 0.67948,0.907809 1.016613,1.104391 0.01891,0.198085 -0.0393,0.464087 0.03131,0.611669 0.158773,0.215413 0.384055,0.167589 0.646431,0.308214 0.313963,0.168735 0.410021,0.604649 0.707485,0.737823 0.102563,0.04561 0.360053,0.03962 0.522357,0.08932 0.407646,0.122582 0.540694,0.5931 0.890154,0.490359 0.229149,-0.06683 0.211074,-0.30233 0.248253,-0.520718 0.151438,-0.162839 0.316747,-0.422641 0.55281,-0.427275 0.382142,-0.01892 0.416179,0.393606 0.555144,0.763484 0.07892,0.20912 0.283729,0.391232 0.337344,0.611753 0.09531,0.380933 0.04792,1.521169 -0.03363,1.748846 -0.09636,0.279327 -0.475815,0.397768 -0.709745,0.707464 -0.110034,0.145406 -0.162356,0.35792 -0.245962,0.459957 -0.150618,0.182933 -0.374502,0.230631 -0.487174,0.399292 -0.06326,0.095 -0.125514,0.298841 -0.187556,0.427244 -0.184655,0.390129 -0.431742,0.666492 -0.276426,1.134772 0.06452,0.192694 0.366978,0.321875 0.367798,0.548691 8.61e-4,0.266926 -0.569551,0.50589 -0.613676,0.798509 -0.03363,0.217747 0.176427,0.60632 0.245878,0.889608 0.05086,0.214111 0.456668,0.347947 0.583306,0.490317 0.215855,0.24159 0.388405,0.583821 0.585576,0.887285 0.38996,0.5968196 0.695558,1.3246596 1.07523,1.9029116 0.200597,0.302886 0.482361,0.575172 0.616019,0.889565 0.06778,0.15828 0.05853,0.347769 0.121121,0.490327 0.219701,0.494467 1.190298,1.010729 1.691218,1.256187 0.234423,0.113292 0.494614,0.153886 0.709765,0.273137 0.325942,0.181187 0.971543,0.667773 1.136116,0.95268 0.146867,0.25604 0.237892,0.87932 0.30915,1.286461 0.09552,0.538099 0.0011,0.951283 0.03131,1.534032 0.01892,0.315171 0.119808,0.63201302 0.123885,0.94798202 0.0011,0.110361 -0.05853,0.192905 -0.06295,0.30584 -1.78e-4,0.01765 0.0063,0.03962 0.0063,0.0579 3.020796,1.36259498 6.368175,2.13874298 9.910886,2.13874298 0.640041,0 1.272569,-0.03373 1.899675,-0.08281 0.02816,-0.04708 0.05265,-0.09615 0.08754,-0.140194 0.144745,-0.188953 0.272675,-0.354378 0.367903,-0.520707 0.09111,-0.55976698 -0.223999,-0.95074598 -0.09195,-1.44054798 0.147035,-0.550424 0.910257,-0.88651802 1.445423,-1.13489702 0.183889,-0.08522 0.372411,-0.223547 0.522231,-0.27548 0.370372,-0.128614 0.832757,-0.05822 1.171246,-0.182092 0.576266,-0.210201 0.636448,-0.826294 0.920566,-1.349607 0.134646,-0.247675 0.311105,-0.495938 0.337344,-0.672376 0.0227,-0.158279 -0.05822,-0.307857 -0.03342,-0.495003 0.02753,-0.185118 0.194408,-0.345257 0.245931,-0.548733 0.06704,-0.265498 0.09636,-0.654512 0.09636,-0.950242 0,-0.242799 -0.113618,-0.455764 -0.12275,-0.674814 -0.04025,-0.795126 0.288164,-0.88407 0.583306,-1.316831 0.14817,-0.21492 0.203497,-0.460042 0.306827,-0.614107 0.49556,-0.736814 1.355229,-1.092548 1.293051,-2.2064066 -0.01892,-0.368586 -0.252635,-1.201564 -0.52469,-1.319175 -0.155515,-0.06704 -0.512699,-0.0053 -0.737907,-0.09163 -0.726905,-0.270205 -1.153477,-1.168409 -1.906747,-1.225849 -0.160402,-0.01891 -0.308477,0.06536 -0.489518,0.06242 -0.298105,-0.01891 -0.747564,-0.208079 -1.077531,-0.245185 -0.209771,-0.02133 -0.490222,0.06179 -0.616145,0 -0.191865,-0.09321 -0.211505,-0.445854 -0.367766,-0.551044 -0.123066,-0.08575 -0.364856,-0.11345 -0.552811,-0.186663 -0.302834,-0.114921 -0.542995,-0.251227 -0.892403,-0.275459 -0.107576,-0.0053 -0.24219,0.05097 -0.367777,0.03342 -0.193325,-0.03342 -0.346307,-0.260706 -0.524658,-0.368943 -0.223526,-0.136107 -0.430039,-0.201259 -0.522419,-0.394584 0.20192,-0.66025 -0.356123,-0.844285 -0.491935,-1.225807 -0.06452,-0.178802 -0.03552,-0.39389 -0.09195,-0.553346 -0.08102,-0.228465 -0.306765,-0.360442 -0.555175,-0.551013 -0.445025,-0.341422 -0.839745,-0.661994 -1.475741,-0.740167 -0.27961,-0.03583 -0.556993,0.08407 -0.894852,0.06242 -0.35793,-0.02133 -0.807389,-0.334738 -1.075093,-0.639779 -0.260369,-0.297843 -0.386955,-0.565116 -0.61376,-0.707464 -0.214815,-0.137746 -0.49991,-0.134488 -0.646536,-0.273169 -0.06515,-0.06063 -0.05349,-0.164479 -0.124052,-0.308277 -0.107744,-0.222896 -0.289384,-0.346896 -0.154202,-0.614002 -0.245101,-0.125681 -0.251847,0.233079 -0.520014,0.186652 -0.239131,-0.338142 -0.44101,-0.498355 -0.983879,-0.399228 -0.248558,0.04582 -0.387323,0.358802 -0.676937,0.366631 -0.237555,0.01891 -0.424165,-0.263858 -0.737844,-0.308298 -0.23683,-0.03342 -0.506121,0.06326 -0.674667,0.03279 -0.262471,-0.05212 -0.343492,-0.2701 -0.583296,-0.427286 -0.175817,-0.114764 -0.517417,-0.311367 -0.616029,-0.308204 -0.309118,0.01891 -0.529408,0.654785 -0.955707,0.429693 -0.207196,-0.261799 0.337449,-0.399681 0.09195,-0.644571 -0.186263,-0.185675 -0.342872,0.08491 -0.491861,0.186925 -0.170816,0.117034 -0.331312,0.233899 -0.520077,0.303538 -0.422463,0.157302 -0.686489,0.07545 -1.016613,0.245174 -0.305682,0.15747 -0.318723,0.421885 -0.491903,0.735459 -0.141981,0.256901 -0.464171,0.631214 -0.677,0.646735 -0.257721,0.01892 -0.504072,-0.359159 -0.737844,-0.459894 -0.704322,-0.304137 -1.045502,0.269985 -1.630269,0.277782 -0.542785,0.01891 -1.317997,-0.873593 -1.290759,-1.382226 0.0053,-0.310295 0.179065,-0.781149 0.215445,-1.16514 0.03363,-0.305346 0.242473,-0.489339 0.246046,-0.768162 0.0052,-0.372305 -0.495518,-0.658568 -0.73797,-0.702787 -0.574552,-0.105148 -1.372253,0.230451 -2.030768,-0.03342 -0.125188,-0.207722 0.147518,-0.351321 0.217799,-0.553368 0.04046,-0.114427 0.01629,-0.268198 0.05832,-0.394604 0.0724,-0.195248 0.278223,-0.34656 0.369973,-0.553347 0.06768,-0.15747 0.08606,-0.385578 0.154212,-0.581383 0.08165,-0.222959 0.228581,-0.36662 0.245994,-0.522997 0.02133,-0.206482 -0.05538,-0.445267 -0.217947,-0.581383 z m 8.221979,6.488633 c 0.208489,0.01892 0.23455,0.448798 0.02102,0.483381 -0.229989,0.03604 -0.346885,-0.359506 -0.123233,-0.462406 0.03794,-0.01891 0.07335,-0.01891 0.102878,-0.01765 l 0,-0.0032 z"
               style="fill:url(#linearGradient4161-1-2);fill-opacity:1;fill-rule:nonzero;stroke:none;stroke-width:0.69999957"
               inkscape:connector-curvature="0" />
          </g>
        </g>
      </g>
    </g>
  </g>
</svg>
