<?xml version="1.0" encoding="UTF-8" standalone="no"?>
<!-- Created with Inkscape (http://www.inkscape.org/) -->

<svg
   xmlns:dc="http://purl.org/dc/elements/1.1/"
   xmlns:cc="http://creativecommons.org/ns#"
   xmlns:rdf="http://www.w3.org/1999/02/22-rdf-syntax-ns#"
   xmlns:svg="http://www.w3.org/2000/svg"
   xmlns="http://www.w3.org/2000/svg"
   xmlns:sodipodi="http://sodipodi.sourceforge.net/DTD/sodipodi-0.dtd"
   xmlns:inkscape="http://www.inkscape.org/namespaces/inkscape"
   version="1.0"
   width="48"
   height="48"
   id="svg2408"
   inkscape:version="0.48.4 r9939"
   sodipodi:docname="cantor.svg">
  <defs
     id="defs12" />
  <sodipodi:namedview
     pagecolor="#ffffff"
     bordercolor="#666666"
     borderopacity="1"
     objecttolerance="10"
     gridtolerance="10"
     guidetolerance="10"
     inkscape:pageopacity="0"
     inkscape:pageshadow="2"
     inkscape:window-width="688"
     inkscape:window-height="694"
     id="namedview180"
     showgrid="false"
     inkscape:zoom="4.7345621"
     inkscape:cx="43.074797"
     inkscape:cy="25.408824"
     inkscape:window-x="1053"
     inkscape:window-y="115"
     inkscape:window-maximized="0"
     inkscape:current-layer="svg2408" />
  <metadata
     id="metadata2413">
    <rdf:RDF>
      <cc:Work
         rdf:about="">
        <dc:format>image/svg+xml</dc:format>
        <dc:type
           rdf:resource="http://purl.org/dc/dcmitype/StillImage" />
        <dc:title />
      </cc:Work>
    </rdf:RDF>
  </metadata>
  <g
     id="layer4"
     style="display:none" />
  <g
     style="fill:#2980b9"
     id="g3168"
     transform="matrix(1.0543627,0,0,1.0579224,-1.6429867,-1.4152792)">
    <path
       d="M 8.44613,0.00337054 C 8.35527,0.0126868 8.25702,0.0375765 8.18871,0.105664 c 0,0 -3.1588,3.137316 -3.1588,3.137316 -0.13269,0.13213 -0.14888,0.33445 -0.05148,0.49439 0,0 3.69093,6.05297 3.69093,6.05297 -0.65538,1.09426 -1.1876,2.26806 -1.56227,3.51246 0,0 -6.780918,1.3981 -6.780918,1.3981 C 0.137473,14.7397 0,14.918 0,15.1101 c 0,0 0,4.4331 0,4.4331 0,0.1875 0.143515,0.3479 0.326172,0.3922 0,0 6.574938,1.5857 6.574938,1.5857 0.35161,1.4407 0.89474,2.8194 1.61372,4.075 0,0 -3.81108,5.7631 -3.81108,5.7631 -0.1063,0.161 -0.08557,0.3757 0.05147,0.5117 0,0 3.15876,3.1372 3.15876,3.1372 0.13308,0.1317 0.33715,0.1483 0.49783,0.0511 0,0 5.97409,-3.5976 5.97409,-3.5976 1.1718,0.6718 2.4403,1.2102 3.7767,1.5687 0,0 1.3907,6.6497 1.3907,6.6497 0.0388,0.1877 0.2015,0.324 0.3947,0.324 0,0 4.4633,0 4.4633,0 0.1875,0 0.3504,-0.1252 0.3949,-0.3074 0,0 1.648,-6.6835 1.648,-6.6835 1.3784,-0.3692 2.6779,-0.9171 3.8799,-1.6198 0,0 5.8882,3.8364 5.8882,3.8364 0.1623,0.105 0.3773,0.0847 0.515,-0.0511 0,0 3.1416,-3.1374 3.1416,-3.1374 0.1334,-0.1323 0.1663,-0.3348 0.0685,-0.4944 0,0 -2.1458,-3.5125 -2.1458,-3.5125 0,0 -0.9181,0.2073 -0.9785,0.1194 0,0 -1.3555,-1.9804 -3.1245,-4.5524 -2.1154,4.1115 -6.4298,6.9225 -11.3988,6.9225 -7.0609,0 -12.7893,-5.6896 -12.7893,-12.7026 0,-5.1586 3.1058,-9.58935 7.5534,-11.57732 0,0 0,-3.27373 0,-3.27373 -0.8093,0.28139 -1.5914,0.6209 -2.3346,1.02304 -0.0015,-8.5e-4 0.0013,-0.01627 0,-0.01702 0,0 -6.02562,-3.9216758 -6.02562,-3.9216758 C 8.62261,0.00188736 8.53699,-0.0059457 8.44613,0.00337054 c 0,0 0,0 0,0 z"
       stroke-miterlimit=""
       id="path3170"
       inkscape:connector-curvature="0"
       style="fill:#3498db;stroke:#3498db;stroke-width:0"
       transform="translate(4.00394,4.00394)" />
  </g>
  <g
     transform="matrix(1.0365627,0,0,1.0294423,-0.85964412,-1.3012467)"
     id="layer1-6"
     style="fill:#2980b9">
    <path
       style="fill:#2980b9;stroke:#2980b9;stroke-width:0;stroke-miterlimit:1"
       inkscape:connector-curvature="0"
       id="gear_path"
       transform="translate(4.00394,4.00394)"
       stroke-miterlimit="0"
       d="M 8.44613,0.00337054 C 8.35527,0.0126868 8.25702,0.0375765 8.18871,0.105664 c 0,0 -3.1588,3.137316 -3.1588,3.137316 -0.13269,0.13213 -0.14888,0.33445 -0.05148,0.49439 0,0 3.69093,6.05297 3.69093,6.05297 -0.65538,1.09426 -1.1876,2.26806 -1.56227,3.51246 0,0 -6.780918,1.3981 -6.780918,1.3981 C 0.137473,14.7397 0,14.918 0,15.1101 c 0,0 0,4.4331 0,4.4331 0,0.1875 0.143515,0.3479 0.326172,0.3922 0,0 6.574938,1.5857 6.574938,1.5857 0.35161,1.4407 0.89474,2.8194 1.61372,4.075 0,0 -3.81108,5.7631 -3.81108,5.7631 -0.1063,0.161 -0.08557,0.3757 0.05147,0.5117 0,0 3.15876,3.1372 3.15876,3.1372 0.13308,0.1317 0.33715,0.1483 0.49783,0.0511 0,0 5.97409,-3.5976 5.97409,-3.5976 1.1718,0.6718 2.4403,1.2102 3.7767,1.5687 0,0 1.3907,6.6497 1.3907,6.6497 0.0388,0.1877 0.2015,0.324 0.3947,0.324 0,0 4.4633,0 4.4633,0 0.1875,0 0.3504,-0.1252 0.3949,-0.3074 0,0 1.648,-6.6835 1.648,-6.6835 1.3784,-0.3692 2.6779,-0.9171 3.8799,-1.6198 0,0 5.8882,3.8364 5.8882,3.8364 0.1623,0.105 0.3773,0.0847 0.515,-0.0511 0,0 3.1416,-3.1374 3.1416,-3.1374 0.1334,-0.1323 0.1663,-0.3348 0.0685,-0.4944 0,0 -2.1458,-3.5125 -2.1458,-3.5125 0,0 -0.9181,0.2073 -0.9785,0.1194 0,0 -1.3555,-1.9804 -3.1245,-4.5524 -2.1154,4.1115 -6.4298,6.9225 -11.3988,6.9225 -7.0609,0 -12.7893,-5.6896 -12.7893,-12.7026 0,-5.1586 3.1058,-9.58935 7.5534,-11.57732 0,0 0,-3.27373 0,-3.27373 -0.8093,0.28139 -1.5914,0.6209 -2.3346,1.02304 -0.0015,-8.5e-4 0.0013,-0.01627 0,-0.01702 0,0 -6.02562,-3.9216758 -6.02562,-3.9216758 C 8.62261,0.00188736 8.53699,-0.0059457 8.44613,0.00337054 c 0,0 0,0 0,0 z" />
  </g>
  <path
     style="fill:#3498db;fill-opacity:1;fill-rule:nonzero;stroke:none"
     d="m 26.162969,10.661711 c -6.228444,0 -11.269313,4.862805 -11.269313,10.877335 0,6.014532 5.040869,10.896936 11.269313,10.896936 5.577349,0 10.203211,-3.9175 11.112521,-9.054648 l -1.82269,0 c -0.912081,3.070172 -3.75141,5.311276 -7.114364,5.311276 -4.096857,0 -7.408348,-3.33109 -7.408348,-7.427947 0,-4.096855 3.311491,-7.408347 7.408348,-7.408347 3.164048,0 5.869165,1.97581 6.937976,4.762509 l 1.744293,0 c -1.327261,-4.58906 -5.680019,-7.957114 -10.857736,-7.957114 z"
     id="path3172"
     inkscape:connector-curvature="0" />
  <path
     style="fill:#2980b9;fill-opacity:1;fill-rule:nonzero;stroke:none"
     d="m 26.47655,10.446125 c -6.123295,0 -11.073325,4.750338 -11.073325,10.602952 0,5.852614 4.95003,10.583354 11.073325,10.583354 5.285149,0 9.706,-3.523017 10.818539,-8.251097 l -2.116671,0 c -0.907351,3.070172 -3.731813,5.311276 -7.094768,5.311276 -4.096857,0 -7.427946,-3.33109 -7.427946,-7.427947 0,-4.096855 3.331089,-7.408347 7.427946,-7.408347 3.16405,0 5.854892,1.97581 6.918377,4.762509 l 2.253863,0 c -1.151812,-4.680767 -5.532287,-8.1727 -10.77934,-8.1727 z"
     id="path2985"
     inkscape:connector-curvature="0" />
</svg>
