<?xml version="1.0" encoding="UTF-8" standalone="no"?>
<!-- Created with Inkscape (http://www.inkscape.org/) -->

<svg
   xmlns:dc="http://purl.org/dc/elements/1.1/"
   xmlns:cc="http://creativecommons.org/ns#"
   xmlns:rdf="http://www.w3.org/1999/02/22-rdf-syntax-ns#"
   xmlns:svg="http://www.w3.org/2000/svg"
   xmlns="http://www.w3.org/2000/svg"
   xmlns:sodipodi="http://sodipodi.sourceforge.net/DTD/sodipodi-0.dtd"
   xmlns:inkscape="http://www.inkscape.org/namespaces/inkscape"
   width="48"
   height="48"
   id="svg2816"
   version="1.1"
   inkscape:version="0.48.4 r9939"
   sodipodi:docname="filelight.svg">
  <defs
     id="defs31" />
  <sodipodi:namedview
     id="base"
     pagecolor="#ffffff"
     bordercolor="#666666"
     borderopacity="1.0"
     inkscape:pageopacity="0.0"
     inkscape:pageshadow="2"
     inkscape:zoom="9.0580379"
     inkscape:cx="18.930253"
     inkscape:cy="24.120928"
     inkscape:current-layer="layer1"
     showgrid="false"
     inkscape:grid-bbox="true"
     inkscape:document-units="px"
     inkscape:snap-grids="true"
     inkscape:window-width="731"
     inkscape:window-height="655"
     inkscape:window-x="841"
     inkscape:window-y="239"
     inkscape:window-maximized="0">
    <inkscape:grid
       type="xygrid"
       id="grid3602" />
  </sodipodi:namedview>
  <metadata
     id="metadata2821">
    <rdf:RDF>
      <cc:Work
         rdf:about="">
        <dc:format>image/svg+xml</dc:format>
        <dc:type
           rdf:resource="http://purl.org/dc/dcmitype/StillImage" />
        <dc:title />
      </cc:Work>
    </rdf:RDF>
  </metadata>
  <g
     id="layer1"
     inkscape:label="Layer 1"
     inkscape:groupmode="layer">
    <g
       id="g23615"
       transform="matrix(1.421589,0,0,1.421589,53.338767,3.1796373)">
      <path
         d="m -7.9889074,25.874968 c 0,0.234807 -0.2122977,0.425306 -0.4738788,0.425306 l -26.0633348,0 C -34.787702,26.300274 -35,26.109775 -35,25.874968 l 0,-3.049884 27.0110926,0 0,3.049884 z"
         style="fill:#4d4d4d"
         id="path46"
         inkscape:connector-curvature="0" />
      <path
         id="path68"
         style="fill:#7f8c8d"
         d="m -30.735091,24.997108 -3.82278,0 c -0.215141,0 -0.384316,-0.112073 -0.428861,-0.264425 l -0.01208,0.131739 c -0.01896,0.204004 0.178415,0.369625 0.440944,0.369625 l 3.82278,0 0,-0.236939 z"
         inkscape:connector-curvature="0" />
      <path
         d="m -32.495314,0 c -0.221064,0 -0.410853,0.11775888 -0.424358,0.26347663 L -34.998815,22.731967 c -0.01896,0.204005 0.178415,0.369625 0.440944,0.369625 l 26.1270716,0 c 0.262055,0 0.4596625,-0.16562 0.4404704,-0.369862 L -10.069235,0.26347663 C -10.082741,0.11775888 -10.272529,0 -10.493594,0 l -22.00172,0 0,0 z"
         style="opacity:0.5;fill:#7f8c8d"
         id="path363"
         inkscape:connector-curvature="0" />
      <path
         d="m -11.094235,13.470953 c -0.133397,-1.677768 -1.02737,-3.277583 -2.512743,-4.5399959 -0.02985,-0.4852519 -0.410616,-6.6928275 -0.410616,-6.6928275 -0.02914,-0.4771959 -0.472931,-0.8373439 -1.032582,-0.8373439 l -3.512153,0 c -0.563678,0 -0.99941,0.3648867 -1.013626,0.848717 -0.06445,2.186003 -2.029623,3.3273401 -4.961038,4.3656086 -1.027132,0.2438107 -3.705021,1.3898866 -4.319642,1.892909 -1.809269,1.3214111 -2.888292,3.0830557 -3.0378,4.9629327 -0.136004,1.709755 0.517712,3.420694 1.840782,4.817689 1.936506,2.044787 5.136136,3.265736 8.559199,3.265736 3.423064,0 6.622694,-1.220949 8.559436,-3.265736 1.208391,-1.275682 1.858316,-2.813655 1.858316,-4.37319 0,-0.148088 -0.0062,-0.296412 -0.01753,-0.444499 z m -10.400219,7.235419 c -5.701236,0 -10.066844,-3.426381 -9.751004,-7.398196 0.13624,-1.712361 1.136361,-3.5403489 2.792568,-4.7449488 0.310153,-0.3203421 3.111251,-1.5664065 4.116111,-1.7853385 2.784986,-0.9842463 5.331848,-2.2615867 5.411696,-4.9534553 0.0038,-0.128895 0.163962,-0.2310159 0.362754,-0.2310159 l 3.511679,0 c 0.203294,0 0.374839,0.1070966 0.382895,0.2393088 l 0.42649,6.9546456 c 1.476133,1.1721392 2.370579,2.9217001 2.497579,4.5208041 0.316077,3.971815 -4.049532,7.398196 -9.750768,7.398196 z"
         style="fill:#ecf0f1"
         id="path424"
         inkscape:connector-curvature="0" />
      <path
         d="m -20.605931,2.9434982 -0.05568,-0.187656 c -0.07321,-0.2665568 -0.20898,-0.762471 -0.872648,-0.762471 l -8.204264,0 c -0.74707,0 -1.375196,0.6044324 -1.429929,1.3761441 0,0 -0.218695,3.0930071 -0.218695,3.0930071 -0.02962,0.4172503 0.111835,0.821232 0.38787,1.1079286 0.395689,0.4118007 0.94681,0.2947527 1.154369,0.250445 5.350328,-1.1392047 8.728374,-3.5832347 9.170976,-4.3637131 0.125578,-0.2215384 0.106149,-0.4016123 0.068,-0.5136847 z m -0.448526,0.1530629 c 0.129843,0.3800508 -3.256496,3.0612572 -8.889256,4.2606445 -0.258264,0.05497 -0.530271,0.075821 -0.714136,-0.1156265 -0.183628,-0.1909731 -0.276745,-0.4622687 -0.256605,-0.7458852 l 0.0047,-0.066343 c -0.005,-0.056155 -0.0088,-0.1127831 -0.0047,-0.1705963 l 0.218695,-3.0927701 c 0.03673,-0.5186604 0.465112,-0.9356738 0.957235,-0.9356738 l 8.204264,0 c 0.380051,0 0.350908,0.2521036 0.479803,0.629548 0.01,0.029144 -0.0033,0.073214 -0.03412,0.1274734 0.01066,0.035304 0.02133,0.071319 0.03412,0.1092291 z"
         style="fill:#ecf0f1"
         id="path472"
         inkscape:connector-curvature="0" />
      <path
         d="m -33.823359,21.835862 0,0 c -0.01043,0.121787 0.04786,0.213009 0.09857,0.268452 0.118469,0.129369 0.322711,0.206375 0.546382,0.206375 0.392372,0 0.741147,-0.23457 0.76176,-0.5125 0.009,-0.120839 -0.04999,-0.21135 -0.100699,-0.266083 -0.118944,-0.128184 -0.322475,-0.204479 -0.54425,-0.204479 -0.389054,0 -0.737829,0.232675 -0.76176,0.508235 z"
         style="fill:#4d4d4d"
         id="path533"
         inkscape:connector-curvature="0" />
      <path
         d="m -11.423107,9.1432548 c -0.04597,0.04952 -0.06942,0.1025948 -0.06942,0.1575648 0,0.00474 2.37e-4,0.00948 4.74e-4,0.014216 0.01398,0.1852866 0.292857,0.3918978 0.671486,0.3918978 0.209928,0 0.403745,-0.069186 0.506103,-0.1807848 0.04999,-0.054259 0.0725,-0.1125462 0.06729,-0.1729657 -0.01588,-0.184102 -0.295464,-0.3890545 -0.671013,-0.3890545 -0.208507,-2.37e-4 -0.402086,0.068475 -0.504918,0.1791261 z"
         style="fill:#4d4d4d"
         id="path557"
         inkscape:connector-curvature="0" />
      <path
         d="m -32.741731,9.3529462 0,0 c -0.0052,0.06042 0.01753,0.1187067 0.06729,0.1729658 0.102358,0.1115985 0.296174,0.1807848 0.50634,0.1807848 0.378629,0 0.657507,-0.2063743 0.671249,-0.3916609 0.0045,-0.060183 -0.01872,-0.1179958 -0.06871,-0.1717811 -0.102832,-0.1106507 -0.296175,-0.1793631 -0.504918,-0.1793631 -0.375786,0 -0.655375,0.2049526 -0.67125,0.3890545 z"
         style="fill:#4d4d4d"
         id="path581"
         inkscape:connector-curvature="0" />
      <path
         d="m -12.072084,0.66153483 c -0.04407,0.0471509 -0.04952,0.0850612 -0.04952,0.10472722 0,0.004265 2.37e-4,0.007582 4.74e-4,0.009951 0.0109,0.14595469 0.279588,0.31536635 0.609882,0.31536635 0.241678,0 0.404455,-0.083877 0.476722,-0.16254043 0.0526,-0.0573393 0.04881,-0.10069924 0.04763,-0.11515255 -0.01303,-0.14808713 -0.276272,-0.31370778 -0.609645,-0.31370778 -0.240257,2.3694e-4 -0.403271,0.0834027 -0.475538,0.16135574 z"
         style="fill:#4d4d4d"
         id="path605"
         inkscape:connector-curvature="0" />
      <path
         d="m -32.002006,0.81412382 c 0,2.3693e-4 0,2.3693e-4 0,0 -0.0012,0.0144533 -0.005,0.0578132 0.04763,0.11515255 0.07203,0.078427 0.235044,0.16230343 0.476722,0.16230343 0.330531,0 0.59922,-0.16941161 0.609882,-0.31536629 9.48e-4,-0.0142164 0.0043,-0.0573393 -0.04905,-0.11444173 -0.0725,-0.0779531 -0.235518,-0.16135574 -0.475538,-0.16135574 -0.333373,0 -0.596613,0.16562065 -0.609645,0.31370778 z"
         style="fill:#4d4d4d"
         id="path629"
         inkscape:connector-curvature="0" />
      <polygon
         transform="matrix(0.23693941,0,0,0.23693941,-36.658576,-1.3031668)"
         points="30.417,7.289 30.417,7.289 69.08,7.289 69.126,12.003 30.115,12.003 "
         style="fill:#ecf0f1"
         id="polygon642" />
    </g>
    <g
       id="g23392"
       transform="matrix(1.883183,0,0,1.883183,-14.057529,-14.293522)">
      <path
         id="path2826"
         d="m 21.173947,14.739473 c -1.943928,0.606795 -3.72907,1.814091 -5.03893,3.571919 l 2.40558,1.792536 c 0.991702,-1.330861 2.351103,-2.207811 3.841964,-2.593196 l -1.208614,-2.771259 z"
         style="fill:#9b59b6;fill-opacity:1;stroke:none"
         inkscape:connector-curvature="0" />
      <path
         id="path3600-9"
         d="m 20.209746,23.274174 c -0.400987,2.18271 0.891372,4.313809 2.99238,4.785875 l 0.879832,-3.915846 -3.872212,-0.870029 z"
         style="fill:#e74c3c;fill-opacity:1;stroke:none"
         inkscape:connector-curvature="0" />
      <path
         id="path3600-9-0"
         d="m 26.159403,20.793412 c -1.911614,-1.061774 -4.321777,-0.506035 -5.441667,1.333238 l 3.37768,2.05659 2.063987,-3.389828 z"
         style="fill:#34495e;fill-opacity:1;stroke:none"
         inkscape:connector-curvature="0" />
      <path
         id="path3600-9-8"
         d="m 27.293977,21.75693 -3.21875,2.40625 0,0.03125 0.46875,3.9375 c 0.719017,-0.117585 1.363734,-0.434902 1.90625,-0.84375 l 0.03125,0.0625 c 0.07888,-0.06499 0.14554,-0.14948 0.21875,-0.21875 0.133156,-0.115406 0.258378,-0.244888 0.375,-0.375 0.01889,-0.02261 0.04413,-0.03959 0.0625,-0.0625 0.15494,-0.180387 0.254574,-0.390385 0.375,-0.59375 0.128569,-0.217117 0.22782,-0.449339 0.3125,-0.6875 0.16916,-0.475761 0.252841,-0.972059 0.21875,-1.5 -0.0048,-0.07413 0.0092,-0.144068 0,-0.21875 l -0.03125,0 c -0.06706,-0.684956 -0.275908,-1.354715 -0.71875,-1.9375 z"
         style="fill:#27ae60;fill-opacity:1;stroke:none"
         inkscape:connector-curvature="0" />
      <path
         id="path3600-92"
         d="m 17.162457,24.115773 c 0.04083,1.919452 0.814227,3.637554 2.03125,4.90625 l 2.125,-2.09375 c -0.0059,-0.0058 0.0058,-0.0254 0,-0.03125 -0.713539,-0.715828 -1.15625,-1.690339 -1.15625,-2.78125 l -3,0 z"
         style="fill:#d35400;fill-opacity:1;stroke:none"
         inkscape:connector-curvature="0" />
      <path
         id="path3600-92-4"
         d="m 30.374141,27.002541 c 0.748806,-1.767839 0.746833,-3.651987 0.156099,-5.307815 l -2.796073,1.039899 c 0.003,0.0077 -0.01569,0.0208 -0.0128,0.02851 0.357815,0.945259 0.362619,2.015606 -0.08413,3.010845 l 2.736903,1.228562 z"
         style="fill:#2ecc71;fill-opacity:1;stroke:none"
         inkscape:connector-curvature="0" />
      <path
         id="path3600-92-5"
         d="m 27.307985,18.024648 c -1.727844,-0.83697 -3.609696,-0.929979 -5.293197,-0.423465 l 0.897628,2.844939 c 0.0078,-0.0027 0.01998,0.01672 0.02782,0.01422 0.962094,-0.30971 2.031322,-0.260555 3.002776,0.2358 l 1.364965,-2.671492 z"
         style="fill:#3498db;fill-opacity:1;stroke:none"
         inkscape:connector-curvature="0" />
      <path
         id="path3600-92-48"
         d="m 22.981324,17.366447 c -1.890944,0.332101 -3.471533,1.357653 -4.540508,2.75337 l 2.39241,1.782071 c 0.0048,-0.0067 0.02598,0.0019 0.03089,-0.0047 0.599058,-0.814048 1.494957,-1.399735 2.573193,-1.565547 l -0.455985,-2.965194 z"
         style="fill:#8e44ad;fill-opacity:1;stroke:none"
         inkscape:connector-curvature="0" />
      <path
         id="path3600-92-4-7"
         d="m 28.481051,29.555777 c 1.450123,-1.258216 2.277172,-2.951145 2.475048,-4.698021 L 27.98764,24.561669 c -7.18e-4,0.0083 -0.02324,0.01177 -0.02403,0.01997 -0.09447,1.006291 -0.560997,1.96963 -1.399999,2.666885 l 1.917445,2.307251 z"
         style="fill:#16a085;fill-opacity:1;stroke:none"
         inkscape:connector-curvature="0" />
      <path
         inkscape:transform-center-y="8.6716203"
         inkscape:transform-center-x="-3.5020005"
         id="path3600-92-4-7-1"
         d="m 25.006922,31.059234 c 1.895027,-0.307956 3.488568,-1.313265 4.575258,-2.695232 l -2.369486,-1.812444 c -0.005,0.0067 -0.02596,-0.0022 -0.03094,0.0044 -0.609388,0.806345 -1.512688,1.380555 -2.592952,1.532602 l 0.418125,2.970719 z"
         style="fill:#1abc9c;fill-opacity:1;stroke:none"
         inkscape:connector-curvature="0" />
      <path
         id="path3600-92-7"
         d="m 18.179299,27.660766 c 1.003526,1.636735 2.538007,2.730072 4.22883,3.211585 l 0.778613,-2.879788 c -0.008,-0.0021 -0.0078,-0.02485 -0.01576,-0.02698 -0.977198,-0.258126 -1.851047,-0.876234 -2.401359,-1.818171 l -2.59032,1.513356 z"
         style="fill:#f1c40f;fill-opacity:1;stroke:none"
         inkscape:connector-curvature="0" />
    </g>
  </g>
</svg>
