<?xml version="1.0" encoding="UTF-8" standalone="no"?>
<!-- Created with Inkscape (http://www.inkscape.org/) -->

<svg
   xmlns:dc="http://purl.org/dc/elements/1.1/"
   xmlns:cc="http://creativecommons.org/ns#"
   xmlns:rdf="http://www.w3.org/1999/02/22-rdf-syntax-ns#"
   xmlns:svg="http://www.w3.org/2000/svg"
   xmlns="http://www.w3.org/2000/svg"
   xmlns:sodipodi="http://sodipodi.sourceforge.net/DTD/sodipodi-0.dtd"
   xmlns:inkscape="http://www.inkscape.org/namespaces/inkscape"
   width="48"
   height="48"
   id="svg2"
   version="1.1"
   inkscape:version="0.48.4 r9939"
   sodipodi:docname="imagewriter.svg">
  <defs
     id="defs4" />
  <sodipodi:namedview
     id="base"
     pagecolor="#ffffff"
     bordercolor="#666666"
     borderopacity="1.0"
     inkscape:pageopacity="0.0"
     inkscape:pageshadow="2"
     inkscape:zoom="5.7966622"
     inkscape:cx="29.230492"
     inkscape:cy="14.740765"
     inkscape:document-units="px"
     inkscape:current-layer="layer1"
     showgrid="false"
     inkscape:window-width="518"
     inkscape:window-height="582"
     inkscape:window-x="1291"
     inkscape:window-y="44"
     inkscape:window-maximized="0"
     showguides="false">
    <inkscape:grid
       type="xygrid"
       id="grid3803" />
  </sodipodi:namedview>
  <metadata
     id="metadata7">
    <rdf:RDF>
      <cc:Work
         rdf:about="">
        <dc:format>image/svg+xml</dc:format>
        <dc:type
           rdf:resource="http://purl.org/dc/dcmitype/StillImage" />
        <dc:title></dc:title>
      </cc:Work>
    </rdf:RDF>
  </metadata>
  <g
     inkscape:label="Capa 1"
     inkscape:groupmode="layer"
     id="layer1"
     transform="translate(0,-1004.3622)">
    <path
       style="fill:#000000"
       d=""
       id="path906"
       inkscape:connector-curvature="0" />
    <path
       id="path4124"
       d="m 21.843587,1009.1518 c -9.13287,0 -16.5365184,7.4035 -16.5365184,16.5365 0,9.133 7.4036484,16.5365 16.5365184,16.5365 9.132868,0 16.536518,-7.4035 16.536518,-16.5365 0,-9.133 -7.40365,-16.5365 -16.536518,-16.5365 z m 0,3.6745 c 7.103341,0 12.861737,5.7592 12.861737,12.862 0,7.1037 -5.758396,12.862 -12.861737,12.862 -3.379996,0 -6.432129,-1.313 -8.727609,-3.4449 0.740186,-0.1017 1.915953,-0.1157 3.445114,0.053 2.236552,0.2536 3.463199,0.3413 4.937987,0.2292 3.358589,-0.2534 5.577029,-0.8064 8.038583,-2.0094 1.286449,-0.6292 1.559146,-0.913 1.837391,-1.6653 0.265298,-0.7172 0.364945,-1.3782 0.229664,-1.3782 -0.04792,0 -0.471312,0.1637 -0.976109,0.4018 -1.894201,0.8954 -3.551562,1.3407 -4.995411,1.2634 -1.500952,-0.081 -3.915352,-0.9512 -6.83279,-2.354 l -1.37804,-0.6317 -1.033532,-2.5839 0.976113,0.6317 c 1.665827,1.1063 4.387014,2.4091 6.028938,2.9283 2.508392,0.7933 4.468435,0.6844 6.488286,-0.3444 0.711932,-0.363 2.067064,-1.2513 2.067064,-1.3783 0,-0.2398 -0.693373,-2.5635 -1.090951,-3.6172 -0.994206,-2.6353 -1.691782,-3.5249 -3.330267,-4.3063 -1.819056,-0.8677 -3.835879,-1.4566 -7.521819,-2.2967 -1.762246,-0.3741 -3.493989,-0.7534 -5.282495,-0.976 l -0.05739,2.1818 c -1.169626,-0.3638 -2.28072,-0.6436 -3.387691,-0.9191 2.325176,-3.3245 6.200046,-5.512 10.564993,-5.512 z m 3.04318,9.3018 c 1.204261,-0.03 2.351429,0.767 2.698665,2.1248 0.174921,0.6844 0.119598,1.1691 -0.229664,1.895 -0.510715,1.0603 -1.640929,1.6368 -2.870923,1.4353 -0.867398,-0.1365 -1.617137,-0.7011 -2.00966,-1.5507 -0.478093,-1.0339 -0.254272,-2.408 0.574183,-3.1573 0.542607,-0.4912 1.20657,-0.7339 1.837389,-0.7471 z m 0.631601,1.4355 c -0.961026,0 -1.564757,0.706 -1.033533,1.2065 0.430892,0.4053 1.15011,0.4647 1.722556,0.169 0.37073,-0.1883 0.497637,-0.4794 0.401934,-0.8613 -0.07045,-0.2812 -0.623328,-0.5165 -1.090957,-0.5165 z"
       style="color:#000000;fill:#27ae60;fill-opacity:1;fill-rule:nonzero;stroke:none;stroke-width:1;marker:none;visibility:visible;display:inline;overflow:visible;enable-background:accumulate"
       inkscape:connector-curvature="0" />
    <g
       transform="matrix(0.62467411,0,0,0.62467411,22.173668,1020.5175)"
       id="layer1-5">
      <rect
         style="fill:#c4cbcf;fill-rule:evenodd;stroke:#003bc3;stroke-width:0;stroke-linecap:square;stroke-linejoin:miter;stroke-miterlimit:2.01260185"
         y="0"
         x="0"
         id="shape0"
         transform="translate(18.2027,34.35)"
         stroke-miterlimit="2.01260185242"
         width="5.9544301"
         height="11.362026" />
      <rect
         style="fill:#a8b2b8;fill-rule:evenodd;stroke:#003bc3;stroke-width:0;stroke-linecap:square;stroke-linejoin:miter;stroke-miterlimit:2"
         y="0"
         x="0"
         id="shape1"
         transform="translate(24.1571,34.35)"
         stroke-miterlimit="2.00000000000"
         width="5.9544301"
         height="11.362026" />
      <rect
         style="fill:#c0392b;fill-rule:evenodd;stroke:#003bc3;stroke-width:0;stroke-linecap:square;stroke-linejoin:miter;stroke-miterlimit:2.01260185"
         y="0"
         x="0"
         id="shape2"
         transform="translate(13.6828,1.22708)"
         stroke-miterlimit="2.01260185242"
         width="20.646334"
         height="33.709625"
         rx="5.3468351"
         ry="4.4156418" />
      <rect
         style="fill:#4d4d4d;fill-rule:evenodd;stroke:#003bc3;stroke-width:0;stroke-linecap:square;stroke-linejoin:miter;stroke-miterlimit:2.01260185"
         y="0"
         x="0"
         id="shape3"
         transform="translate(19.5913,40.9871)"
         stroke-miterlimit="2.01260185242"
         width="3.1363318"
         height="1.8903918" />
      <rect
         style="fill:#4d4d4d;fill-rule:evenodd;stroke:#003bc3;stroke-width:0;stroke-linecap:square;stroke-linejoin:miter;stroke-miterlimit:2"
         y="0"
         x="0"
         id="shape4"
         transform="translate(25.7781,40.9871)"
         stroke-miterlimit="2.00000000000"
         width="3.1578135"
         height="1.8903918" />
      <rect
         style="fill:#ffffff;stroke:#ffffff;stroke-width:0;stroke-linecap:butt;stroke-linejoin:miter;stroke-miterlimit:0"
         y="0"
         x="0"
         id="rect1933"
         transform="matrix(0,-1,1,0,26.6154,13.7337)"
         stroke-miterlimit="0.00000000000"
         width="3.2194324"
         height="3.227272" />
      <path
         style="fill:#ffffff;stroke:#ffffff;stroke-width:0;stroke-linecap:butt;stroke-linejoin:miter;stroke-miterlimit:0"
         inkscape:connector-curvature="0"
         id="path2830"
         transform="matrix(0,-1,1,0,21.8234,30.5729)"
         stroke-miterlimit="0.00000000000"
         d="M 4.68084,2.34137 C 4.6811,3.63439 3.63318,4.68274 2.34041,4.68274 1.04765,4.68274 -2.62717e-4,3.63439 4.9406e-8,2.34137 -2.62717e-4,1.04834 1.04765,0 2.34041,0 3.63318,0 4.6811,1.04834 4.68084,2.34137 z" />
      <path
         style="fill:#ffffff;stroke:#ffffff;stroke-width:0;stroke-linecap:butt;stroke-linejoin:miter;stroke-miterlimit:0"
         inkscape:connector-curvature="0"
         id="path4602"
         transform="matrix(0,-1,1,0,18.5557,17.3575)"
         stroke-miterlimit="0.00000000000"
         d="m 3.11475,1.55801 c 1.7e-4,0.86041 -0.69714,1.558 -1.55738,1.558 C 0.697136,3.11601 -1.74819e-4,2.41842 3.2876e-8,1.55801 -1.74819e-4,0.697595 0.697136,0 1.55737,0 2.41761,0 3.11492,0.697595 3.11475,1.55801 z" />
      <path
         style="fill:#ffffff;fill-rule:evenodd;stroke:#ffffff;stroke-width:0;stroke-linecap:butt;stroke-linejoin:miter;stroke-miterlimit:0"
         inkscape:connector-curvature="0"
         id="path4608"
         transform="matrix(0,-1,1,0,22.6836,8.57027)"
         stroke-miterlimit="0.00000000000"
         d="M 0,0 C 0,0 3.14874,1.46419 3.10138,1.5002 3.05403,1.5362 0,2.95239 0,2.95239 z" />
      <path
         style="fill:none;stroke:#ffffff;stroke-width:0.6377964;stroke-linecap:butt;stroke-linejoin:miter;stroke-miterlimit:0"
         inkscape:connector-curvature="0"
         id="path2766"
         transform="matrix(0,-1,1,0,20.1067,25.1978)"
         stroke-miterlimit="0.00000000000"
         d="M 0,4.00224 C 2.77111,3.74317 4.16916,0 5.77687,0 c 1.087,0 1.56255,0.0499966 2.94574,0.0499966" />
      <path
         style="fill:none;stroke:#ffffff;stroke-width:0.6377964;stroke-linecap:butt;stroke-linejoin:miter;stroke-miterlimit:0"
         inkscape:connector-curvature="0"
         id="path3653"
         transform="matrix(0,-1,1,0,24.1418,21.9256)"
         stroke-miterlimit="0.00000000000"
         d="M 0,0 C 2.8682,0 3.54372,2.69764 5.66536,4.03486 6.02484,4.23909 9.26713,4.10631 9.47437,4.10631" />
      <path
         style="fill:none;stroke:#ffffff;stroke-width:0.6377964;stroke-linecap:butt;stroke-linejoin:miter;stroke-miterlimit:0"
         inkscape:connector-curvature="0"
         id="path5436"
         transform="matrix(0,-1,1,0,24.1335,28.1572)"
         stroke-miterlimit="0.00000000000"
         d="M 0,0 20.3876,0" />
    </g>
  </g>
</svg>
