<?xml version="1.0" encoding="UTF-8" standalone="no"?>
<!-- Created with Inkscape (http://www.inkscape.org/) -->

<svg
   xmlns:dc="http://purl.org/dc/elements/1.1/"
   xmlns:cc="http://creativecommons.org/ns#"
   xmlns:rdf="http://www.w3.org/1999/02/22-rdf-syntax-ns#"
   xmlns:svg="http://www.w3.org/2000/svg"
   xmlns="http://www.w3.org/2000/svg"
   xmlns:sodipodi="http://sodipodi.sourceforge.net/DTD/sodipodi-0.dtd"
   xmlns:inkscape="http://www.inkscape.org/namespaces/inkscape"
   width="48"
   height="48"
   id="svg3266"
   sodipodi:version="0.32"
   inkscape:version="0.48.4 r9939"
   sodipodi:modified="true"
   version="1.1"
   sodipodi:docname="jitsi.svg">
  <defs
     id="defs3268" />
  <sodipodi:namedview
     id="base"
     pagecolor="#ffffff"
     bordercolor="#666666"
     borderopacity="1.0"
     inkscape:pageopacity="0.0"
     inkscape:pageshadow="2"
     inkscape:zoom="5.5"
     inkscape:cx="38.655627"
     inkscape:cy="30.073418"
     inkscape:current-layer="layer1"
     showgrid="true"
     inkscape:document-units="px"
     inkscape:grid-bbox="true"
     inkscape:window-width="796"
     inkscape:window-height="588"
     inkscape:window-x="1021"
     inkscape:window-y="124"
     inkscape:window-maximized="0" />
  <metadata
     id="metadata3271">
    <rdf:RDF>
      <cc:Work
         rdf:about="">
        <dc:format>image/svg+xml</dc:format>
        <dc:type
           rdf:resource="http://purl.org/dc/dcmitype/StillImage" />
        <dc:title></dc:title>
      </cc:Work>
    </rdf:RDF>
  </metadata>
  <g
     id="layer1"
     inkscape:label="Layer 1"
     inkscape:groupmode="layer"
     transform="matrix(0.71474861,0,0,0.71474861,1.1114449,1.1651783)">
    <g
       style="display:inline"
       id="g12555"
       transform="matrix(0.0670166,0,0,0.0670166,7.882512,-2.6095143)"
       inkscape:export-filename="/home/yana/sc_logo139x208.png"
       inkscape:export-xdpi="139.00000"
       inkscape:export-ydpi="139.00000">
      <path
         inkscape:export-ydpi=""
         inkscape:export-xdpi=""
         inkscape:export-filename="/home/emcho/storage/images/sc_logo/sc_logo136x203.png"
         sodipodi:nodetypes=""
         id="path4159"
         d="m 73.909567,980.42684 c -2.43205,-5.3481 -4.4219,-10.1647 -4.4219,-10.7041 0,-0.5393 -8.46713,-45.0694 -9.431913,-56.51269 -4.212221,-49.96117 -10.855531,-54.74588 -9.000761,-99.29058 1.1236,-26.9834 -2.620446,-36.18763 5.345074,-58.25433 16.40431,-45.44413 28.4322,-63.32526 49.750333,-73.96008 17.29442,-8.62757 33.52045,-7.45566 48.75,3.52085 4.01395,2.89312 17.48175,12.00704 29.92832,20.25314 12.44668,8.24624 27.22932,18.24349 32.85037,22.21629 5.62105,3.973 14.99667,9.7057 20.83483,12.7395 10.29827,5.3518 10.67888,5.4332 12.76727,2.7308 4.58887,-5.9377 15.66554,-22.60194 21.65493,-30.55616 30.00091,-39.84279 1.74638,-35.41391 -5.31448,-37.49219 -11.10097,-3.26757 -15.7769,-8.0551 -26.15245,-20.21568 -24.09822,-28.24393 -35.51868,-59.66792 -37.20614,-98.49627 -1.95963,-45.08919 2.57465,-81.45279 22.37381,-102.1486 8.48607,-8.87048 26.44982,-21.75261 42.87265,-30.74507 13.90841,-7.61568 99.21023,-23.53128 106.69628,-20.22453 3.73981,1.65195 -14.80478,-47.36363 -4.13271,-111.09373 2.12008,-12.66043 16.51958,-51.83713 18.04111,-54.50306 3.7567,-6.58222 65.6619,-27.77025 83.27144,-38.11172 19.67558,-11.55478 62.22605,-39.38822 65.43157,-60.08926 7.0443,-45.491593 8.2947,-64.931694 11.23109,-66.639719 4.37021,-2.542041 33.58379,57.688189 13.81001,114.480429 -3.90238,11.20803 -22.51284,37.23062 -30.84596,48.11519 -6.00058,7.83799 7.03111,11.50134 14.52758,22.81698 6.81786,10.29109 11.30005,35.44903 12.17523,48.48495 0.8936,13.31144 -3.31842,40.6234 -7.09118,45.98072 -1.52803,2.17007 -2.15394,4.30186 -1.39935,4.7669 0.75075,0.46262 5.83635,-0.14316 11.30137,-1.34607 5.46492,-1.20291 17.31037,-3.11848 26.32317,-4.2567 16.04449,-2.0261 16.61931,-1.99793 27.50795,1.35159 16.33452,5.02491 95.78803,24.22089 45.08818,246.23641 -16.79709,73.55473 -95.18101,170.61433 -105.03684,163.09959 l -24.27092,-18.50576 -27.97087,41.46936 c -14.27582,14.6622 -29.66946,28.8134 -38.74867,35.621 -14.32679,10.7424 -42.9926,27.6646 -46.86308,27.6646 -0.99672,0 -6.64354,2.3168 -12.54853,5.1486 -17.07197,8.1869 -42.64254,14.89775 -69.72842,16.6767 -104.8771,6.7943 -64.86717,-5.86793 -151.70605,-47.91924 -6.84968,-3.31693 -22.6165,13.41634 -41.61978,30.70744 -20.28757,18.4596 -30.93759,32.5092 -38.98591,51.4303 -2.72441,6.405 -6.965704,16.2308 -9.425093,21.8351 -6.69208,15.2498 -12.19712,36.3502 -13.01504,49.8848 -0.40007,6.6205 -1.28249,12.3792 -1.96098,12.7974 -0.67851,0.418 -3.22348,-3.6154 -5.65554,-8.9631 z M 189.20718,793.59964 c 13.44215,-3.3995 14.91387,-4.1495 29.37241,-14.9687 10.36,-7.7525 16.77948,-21.74999 19.53532,-22.9728 18.03778,-8.00366 -13.46321,-15.20746 -25.24023,-23.15116 -11.77711,-7.9438 -27.0918,-13.81636 -37.5247,-21.78047 -10.43291,-7.96398 -19.46678,-14.17333 -20.07525,-13.79848 -0.60848,0.37487 -1.11796,5.71978 -1.13221,11.87738 -0.0416,17.95973 -2.45025,35.98123 -5.81677,43.52143 -1.71345,3.8376 -3.44326,11.2354 -3.8441,16.4396 -0.92849,12.0548 1.8764,17.8523 11.85334,24.5 8.40743,5.6021 11.89868,5.6376 32.87219,0.3332 z M 676.35256,453.44871 c -4.37711,-29.401 -0.75276,-69.83518 -23.66201,-84.55363 -52.85361,-33.95673 -58.65607,-0.2834 -61.89828,7.15824 -5.33401,12.24237 -8.61737,22.25593 -4.56898,35.71456 12.43813,41.34987 28.35005,77.9648 35.90357,107.35522 8.66895,33.7305 18.22322,55.06379 19.17918,81.51198 0.67872,18.77591 0.50064,20.74999 -2.26272,25.08758 -3.92912,6.16702 -63.28981,21.27351 -93.18258,30.08091 -10.2638,3.02413 -1.17222,24.91264 -2.34796,32.11827 -1.17576,7.20549 -17.24261,47.47967 -12.07546,55.57678 50.98798,79.89996 163.73754,-163.62067 144.91524,-290.04991 z m -109.82955,196.4441 c 7.97562,-1.918 15.4324,-4.25778 16.57069,-5.19974 1.13827,-0.94181 4.03149,-1.56348 6.42949,-1.38125 4.29055,0.32594 21.08899,-4.96276 22.38032,-7.04629 0.36366,-0.58662 15.35108,-8.40586 12.35303,-10.39182 -2.99816,-1.98607 -61.58153,-45.04983 -69.9815,-49.42955 C 457.54231,526.00795 406.6927,522.5358 374.75177,528.9709 c -54.71297,11.02296 -101.96831,38.76622 -107.65298,45.60939 -1.71643,2.06627 85.65996,-27.10698 147.68208,3.54396 11.4594,5.66317 35.11857,15.39517 52.90618,34.43909 16.2483,17.39587 31.06387,35.80277 42.72467,38.91156 12.64379,3.37096 38.55209,2.64039 56.11129,-1.58209 z M 449.9014,441.95288 c 30.62799,-5.35958 78.07899,-68.988 74.38659,-74.94459 -0.49959,-0.80609 9.17788,-16.86652 7.60609,-17.17993 -57.31597,-11.42857 -55.935,-68.49994 -56.76143,-69.00907 -0.82644,-0.50926 -84.50467,39.51594 -103.78816,47.85224 -16.36325,7.07387 2.34008,49.24973 12.20568,75.42607 4.3892,11.64584 28.55764,27.17569 38.28469,33.50703 11.50753,7.49018 25.44992,4.80613 28.06654,4.34825 z M 515.90781,247.7663 c 16.53875,-13.03423 60.58714,-78.27408 55.91367,-104.74903 -19.04023,-107.861906 -27.24827,-41.08673 -28.47031,-31.46101 -0.50609,3.98663 -1.94801,12.81639 -3.20434,19.62166 -1.2562,6.80536 -2.85777,16.63124 -3.55903,21.83522 -0.70119,5.20411 -2.6397,14.37491 -4.3078,20.37954 -1.6681,6.00474 -4.30249,15.98637 -5.85426,22.18159 -1.55164,6.19512 -6.77517,21.45598 -11.60767,33.91294 -4.83251,12.45698 -8.78642,22.94584 -8.78642,23.30855 0,1.81906 3.353,0.11152 9.87616,-5.02946 z"
         style="fill:#2980b9;fill-opacity:1"
         inkscape:connector-curvature="0" />
      <path
         inkscape:export-ydpi=""
         inkscape:export-xdpi=""
         inkscape:export-filename="/home/emcho/storage/images/sc_logo/sc_logo136x203.png"
         sodipodi:nodetypes=""
         id="path13135"
         d="m 557.21242,763.20154 c 135.04747,-100.5158 117.66494,-301.7918 119.84662,-312.09791 5.54672,-26.20228 -27.0605,-114.97035 -66.22675,-98.68383 -65.21102,27.11674 45.8908,180.86822 30.98563,265.19502 -3.10674,17.57655 -56.9305,30.5334 -93.51854,36.21321 -4.21966,0.65505 -0.47327,57.36199 -18.82859,83.46296 -2.62771,3.73657 25.27267,27.7482 27.74163,25.91055 z"
         style="fill:#f39c12;fill-opacity:1;fill-rule:evenodd;stroke:none;display:inline"
         inkscape:connector-curvature="0" />
      <path
         inkscape:export-ydpi=""
         inkscape:export-xdpi=""
         inkscape:export-filename="/home/emcho/storage/images/sc_logo/sc_logo136x203.png"
         sodipodi:nodetypes=""
         id="path11671"
         d="m 247.69118,751.78447 c 3.19876,-4.31599 -56.49115,-24.75424 -92.56695,-57.23668 -4.00002,-3.6016 -4.64512,52.54738 -8.42513,75.95971 -2.3486,14.54656 22.35183,29.19276 27.99738,31.01725 4.68325,1.51351 59.86327,-32.02242 72.9947,-49.74028 z"
         style="fill:#f39c12;fill-opacity:1;fill-rule:evenodd;stroke:none;display:inline"
         inkscape:connector-curvature="0" />
      <path
         inkscape:export-ydpi=""
         inkscape:export-xdpi=""
         inkscape:export-filename="/home/emcho/storage/images/sc_logo/sc_logo136x203.png"
         sodipodi:nodetypes=""
         id="path9481"
         d="m 273.89208,573.20681 c 17.95401,-6.43281 69.21129,-21.93615 130.4454,-0.61816 41.93927,14.6007 66.00561,51.4108 84.10953,65.56817 42.64417,33.34799 121.36496,-3.69687 135.60354,-3.47296 5.85008,0.092 -105.67307,-100.11815 -189.75553,-105.18822 -113.03259,-6.81573 -183.5822,52.01616 -160.40294,43.71117 z"
         style="fill:#f39c12;fill-opacity:1;fill-rule:evenodd;stroke:none;display:inline"
         inkscape:connector-curvature="0" />
      <path
         inkscape:export-ydpi=""
         inkscape:export-xdpi=""
         inkscape:export-filename="/home/emcho/storage/images/sc_logo/sc_logo136x203.png"
         sodipodi:nodetypes=""
         id="path8745"
         d="M 549.6905,74.858261 C 549.06868,109.05846 538.30931,190.69068 503.67569,246.48109 487.83407,271.99993 562.7655,212.79924 570.83244,161.91332 575.2694,133.92519 550.20477,47.602058 549.6905,74.858261 z"
         style="fill:#f39c12;fill-opacity:1;fill-rule:evenodd;stroke:none"
         inkscape:connector-curvature="0" />
      <path
         inkscape:export-ydpi=""
         inkscape:export-xdpi=""
         inkscape:export-filename="/home/emcho/storage/images/sc_logo/sc_logo136x203.png"
         sodipodi:nodetypes=""
         id="path8003"
         d="m 437.22329,447.91866 c 37.5996,-19.19935 71.85371,-44.44705 93.56356,-91.33069 3.67557,-7.93759 -17.90459,-0.23852 -34.49147,-23.78361 -16.42335,-23.31296 -12.54802,-46.97432 -26.6147,-45.08174 -43.95173,5.91342 -102.55537,47.35941 -102.55537,47.35941 0,0 3.37056,45.35108 15.25058,63.78455 24.49441,38.00643 54.8474,49.05208 54.8474,49.05208 z"
         style="fill:#f39c12;fill-opacity:1;fill-rule:evenodd;stroke:none;display:inline"
         inkscape:connector-curvature="0" />
      <path
         inkscape:export-ydpi=""
         inkscape:export-xdpi=""
         inkscape:export-filename="/home/emcho/storage/images/sc_logo/sc_logo136x203.png"
         sodipodi:nodetypes=""
         id="path1378"
         d="m 430.17026,221.8711 c -16.06356,9.36217 -35.37646,19.83375 -39.21113,29.30135 -12.86853,27.03531 -17.69203,75.55281 -13.77389,72.76668 38.18846,-27.15532 82.40259,-34.68386 98.49082,-49.22782 47.67402,-43.09805 66.18213,-132.19246 56.16424,-118.98594 -32.43061,42.75297 -85.09818,56.4873 -101.67004,66.14573 z M 180.26693,820.13928 c 0,0 -45.09405,-31.19026 -44.26296,-41.19701 6.90599,-83.15132 -7.85182,-88.00345 -15.28943,-87.12148 -8.98565,1.06555 -55.680059,30.54391 -64.789204,113.77716 C 49.315339,865.99566 73.18066,960.3603 76.816143,965.4662 95.628544,914.9073 88.288877,874.214 180.26693,820.13928 z M 672.91449,451.75686 c -2.24369,-62.33585 -39.7748,-105.19634 -65.26486,-95.15858 -10.81421,4.25854 -18.07477,33.28411 -14.27776,51.28108 3.36773,15.96296 26.31495,77.73412 27.96492,82.95607 3.90139,12.34768 30.24011,88.02289 25.55805,124.38381 -4.10398,31.87089 -96.4872,42.89806 -96.4872,42.89806 0,0 -1.55248,25.94116 -4.73721,43.46973 -3.91494,21.5478 -11.67684,38.45835 -11.67684,38.45835 0,0 20.11367,18.73725 20.92646,18.71647 0.81279,-0.0208 126.59655,-68.01275 117.99444,-307.00499 z m -96.43412,193.09743 c 6.50231,-1.81998 44.89501,-11.97151 42.83733,-13.32122 -14.2472,-9.34526 -30.46053,-21.10919 -57.61548,-42.22917 -150.75763,-117.25305 -287.69369,-18.49605 -284.99547,-19.39345 25.0338,-8.32601 51.46944,-13.0311 88.19599,-10.57792 29.58211,1.97596 76.08459,16.97109 116.82007,65.52926 15.15196,18.06167 32.34449,30.31674 94.75756,19.9925 z M 509.23155,390.34402 c 4.56133,-3.94588 20.41501,-33.83138 17.56019,-34.52563 -40.0065,-9.72917 -43.90299,-27.42985 -47.81865,-46.6884 -3.66756,-18.03832 -3.10176,-20.61074 -10.68053,-18.1075 -61.23427,20.22543 -78.17225,31.3407 -87.54184,39.11687 -14.67741,12.18134 -4.38208,44.91262 1.35714,57.92144 7.99917,18.13134 37.40837,50.94058 51.09031,53.58263 19.95656,3.85372 67.12044,-37.0316 76.03338,-51.29941 z m 44.5042,-110.45039 c -3.31862,-13.57285 -13.98038,-31.05317 -16.82133,-31.05317 -2.67548,0 -31.00472,21.92117 -38.3219,29.55916 -16.60716,17.3349 -8.51368,48.74852 9.90861,59.52373 31.18094,18.23776 54.07884,-21.85784 45.23462,-58.02972 z m -23.50986,-51.91256 c 13.64191,-13.62727 31.77663,-35.99625 36.59903,-69.98927 1.89001,-13.32297 2.98746,-25.04239 -5.29871,-51.38405 -1.92045,-6.10518 -7.75824,-23.663443 -7.97648,-21.350153 -4.30992,45.675573 -10.62485,96.392863 -40.43588,150.294283 -9.35723,16.91886 -4.32535,13.84346 17.11204,-7.57081 z M 210.28362,500.02115 c -16.25163,68.16874 26.81519,157.6966 61.70273,162.79953 33.72441,4.9328 130.40733,-24.25815 181.1135,-38.35803 13.28519,-3.69423 20.43199,-1.7673 -8.95828,-26.38903 -46.0776,-31.32536 -83.26648,-35.35878 -120.36677,-31.14783 -40.92235,4.64476 -71.58708,16.75716 -68.71821,14.35496 18.76265,-15.71063 52.18148,-43.80439 116.74698,-56.52622 28.06282,-5.52943 71.37083,-6.01508 123.65708,14.40633 64.85498,25.33034 98.63465,62.8962 126.05476,75.62727 9.7642,4.5335 13.25215,2.42559 17.11016,-8.90481 6.46362,-18.98237 -32.82737,-137.50668 -47.06227,-172.06907 -21.72319,-52.74402 3.62204,-77.95407 -1.91774,-76.73294 -26.86988,5.92289 -50.56419,23.19351 -70.4272,40.97732 -48.55281,43.47056 -78.14594,52.73097 -82.53761,52.35765 -13.86599,-1.17904 -39.81008,-25.72031 -49.23625,-38.18196 -6.01455,-7.95139 -113.65972,12.82623 -145.40294,40.40336 -0.7262,0.63089 -25.21901,16.33904 -31.75794,47.38347 z m -34.48971,296.7856 c 35.50393,-14.89646 70.26378,-46.55286 67.25737,-47.07571 -18.43244,-3.20562 -86.41142,-49.78585 -86.3645,-49.30286 2.33503,24.03855 -2.90386,45.63861 -5.2941,69.46451 -0.9968,9.93617 12.24825,25.32985 24.40123,26.91406 z M 290.35807,692.60692 c -6.79208,15.14099 -13.8834,74.68066 -112.03514,112.88822 -2.84311,1.10674 82.25345,59.29446 86.88442,59.49776 281.01853,12.3365 278.63688,-201.66267 274.90692,-207.05804 -0.53981,-0.78086 -24.5754,0.0562 -43.19196,-8.77761 -1.41974,-0.6735 -14.04815,-7.18281 -21.57773,-16.98713 -2.55389,-3.3254 -2.95137,-5.13257 -12.41506,-2.38233 -43.79902,12.72848 -174.56382,59.64682 -172.57145,62.81913 z M 202.81372,588.22659 c -50.1824,-175.3414 125.92446,-183.47592 153.84636,-190.22742 21.59259,-5.22108 16.88755,-7.25143 12.33426,-27.6741 -6.39317,-28.67504 -4.40158,-53.67054 1.07897,-80.4633 5.18258,-25.33607 7.85559,-38.14749 18.80109,-50.8516 8.82231,-10.23979 58.53519,-33.65696 70.85897,-39.56779 52.51837,-25.18928 72.58345,-52.87644 78.43688,-74.65398 4.12651,-15.35249 10.16481,-53.192483 7.45054,-80.239893 -0.66806,-6.65735 3.62737,3.77429 24.9952,70.165063 10.91826,33.92327 5.54177,74.6555 -28.89335,111.43054 -4.67663,4.99437 -2.40854,5.98344 3.88043,16.3753 13.06634,21.59101 20.28957,48.58983 18.25452,68.23214 -1.66738,16.09221 -8.54632,31.3085 1.29223,30.12611 1.42235,-0.17093 44.88009,-6.75029 74.62888,12.158 20.14609,12.80486 48.84477,37.3504 41.39537,139.88343 -16.31238,224.52326 -126.01242,273.38623 -126.78142,273.41267 -1.85695,0.0636 -22.38061,-21.2459 -23.59536,-18.73635 C 467.89561,877.5395 338.1029,872.8711 265.71561,874.237 251.24295,874.5101 191.06249,823.83721 185.99004,827.30374 121.92377,871.087 104.1376,882.0221 79.434719,993.92554 c -0.946745,-1.7741 -34.257409,-60.86221 -32.8747,-179.69687 1.132868,-97.36427 54.325041,-143.313 77.971951,-140.66298 28.70735,3.21713 43.1143,18.19418 83.54419,44.75641 7.21671,4.74134 32.71411,20.15946 38.5163,20.01904 14.45536,-0.34083 24.3168,-26.89828 26.67608,-44.09265 2.37967,-17.343 4.68035,-13.15136 -8.85546,-17.80955 -17.06515,-5.87277 -46.50052,-37.83029 -61.59936,-88.21235 z"
         style="fill:#2980b9;fill-opacity:1;fill-rule:nonzero;stroke:none"
         inkscape:connector-curvature="0" />
    </g>
  </g>
</svg>
