<?xml version="1.0" encoding="UTF-8" standalone="no"?>
<!-- Created with Inkscape (http://www.inkscape.org/) -->

<svg
   xmlns:dc="http://purl.org/dc/elements/1.1/"
   xmlns:cc="http://creativecommons.org/ns#"
   xmlns:rdf="http://www.w3.org/1999/02/22-rdf-syntax-ns#"
   xmlns:svg="http://www.w3.org/2000/svg"
   xmlns="http://www.w3.org/2000/svg"
   xmlns:sodipodi="http://sodipodi.sourceforge.net/DTD/sodipodi-0.dtd"
   xmlns:inkscape="http://www.inkscape.org/namespaces/inkscape"
   version="1.0"
   width="48"
   height="48"
   id="svg3827"
   inkscape:version="0.48.4 r9939"
   sodipodi:docname="marble.svg">
  <metadata
     id="metadata164">
    <rdf:RDF>
      <cc:Work
         rdf:about="">
        <dc:format>image/svg+xml</dc:format>
        <dc:type
           rdf:resource="http://purl.org/dc/dcmitype/StillImage" />
      </cc:Work>
    </rdf:RDF>
  </metadata>
  <sodipodi:namedview
     pagecolor="#ffffff"
     bordercolor="#666666"
     borderopacity="1"
     objecttolerance="10"
     gridtolerance="10"
     guidetolerance="10"
     inkscape:pageopacity="0"
     inkscape:pageshadow="2"
     inkscape:window-width="677"
     inkscape:window-height="729"
     id="namedview162"
     showgrid="false"
     inkscape:zoom="3.6875"
     inkscape:cx="64"
     inkscape:cy="-2.3163102"
     inkscape:window-x="1125"
     inkscape:window-y="148"
     inkscape:window-maximized="0"
     inkscape:current-layer="svg3827" />
  <defs
     id="defs3829" />
  <g
     id="layer5"
     style="display:inline"
     transform="matrix(0.37783006,0,0,0.37783006,0.01395661,-0.81782586)">
    <path
       d="m -306.88433,-2.8147557 a 79.195961,79.195961 0 1 1 -158.39192,0 79.195961,79.195961 0 1 1 158.39192,0 z"
       transform="matrix(0.2047878,0,0,0.1565016,144.00475,29.828927)"
       id="path3668"
       style="fill:#34495e;fill-opacity:0.8;stroke:none"
       inkscape:connector-curvature="0" />
    <g
       transform="translate(-1.3477794,-4.7188739)"
       id="g3637">
      <path
         d="m 65.393934,29.064409 c -32.51393,0 -58.9067298,17.970633 -58.9067298,40.104894 l 0,13.123225 c 0,22.134342 26.3927498,40.104922 58.9067298,40.104922 32.51393,0 58.892176,-17.97058 58.892176,-40.104922 l 0,-13.123225 c 0,-22.134268 -26.378246,-40.104894 -58.892176,-40.104894 z"
         id="path5204"
         style="fill:#7f8c8d;fill-opacity:1;stroke:none;display:inline"
         inkscape:connector-curvature="0" />
      <g
         transform="matrix(0.9355441,0,0,0.5848677,6.0646642,43.203763)"
         id="g4163"
         style="display:inline">
        <path
           d="m 126.43752,59.005695 a 55.257881,55.257881 0 1 1 -110.515759,0 55.257881,55.257881 0 1 1 110.515759,0 z"
           transform="matrix(1.0428576,0,0,1.0428576,-11.167561,0.7759522)"
           id="path2196"
           style="fill:#3498db;fill-opacity:1;stroke:none"
           inkscape:connector-curvature="0" />
        <path
           d="M 46.410297,7.2359424 C 26.503847,13.296653 11.178877,29.910323 6.9686367,50.552227 l 1.64636,5.166162 0.72383,-2.597274 1.3483103,-2.497924 1.14961,0 0.31224,-0.837373 0.31224,-1.149613 0.11355,-3.746887 c 0,0 0.61937,-1.456744 1.03607,-1.873444 0.0032,-0.0033 0.01097,-0.01085 0.01419,-0.01419 0.0031,-0.0034 0.0111,-0.01073 0.0142,-0.01419 0.38559,-0.445952 0.49674,-1.532817 0.49674,-1.532817 l 0.62448,-2.185684 1.7599,-1.674745 1.05027,0.212891 1.46185,-0.525132 2.07214,-0.72383 1.26316,1.461853 0.62448,0.09935 0.62448,-0.936721 1.34831,0.936721 0.93672,1.036072 0.31224,-1.036072 0.83737,-0.936721 0.4116,-1.362504 0.31224,-0.936722 1.14961,0.212891 0.72383,2.285033 -0.93673,2.299226 -0.72382,1.972793 1.77409,2.710816 0.93673,-3.221755 -0.42579,-1.986985 3.3353,-2.185685 -0.51094,-1.348311 c 0,0 1.55126,-0.321606 2.07214,-0.425783 0.01526,-0.0031 0.03876,-0.01019 0.05677,-0.01419 0.0013,3.1e-5 0.01275,-1e-4 0.0142,0 0.01995,-0.0074 0.05134,-0.01832 0.07096,-0.02839 0.01955,-0.01058 0.05177,-0.0295 0.07096,-0.04258 0.42068,-0.298434 0.75767,-1.18125 0.93672,-1.986986 0.20835,-0.93758 -0.62447,-2.086335 -0.62448,-2.086334 0,0 1.65631,-3.237084 1.47605,-4.101706 1.4e-4,-0.0049 -8e-5,-0.02352 0,-0.02839 -0.0025,-0.005 -0.01163,-0.02349 -0.0142,-0.02839 5e-5,-0.0012 -1.5e-4,-0.01278 0,-0.01419 -0.02929,-0.06837 -0.06638,-0.127614 -0.09934,-0.170313 -0.005,-0.005 -0.0234,-0.02355 -0.02839,-0.02839 -0.0028,-0.0029 -0.01132,-0.01144 -0.01419,-0.01419 -0.01903,-0.01707 -0.04994,-0.04457 -0.07097,-0.05677 -0.0015,9.1e-5 -0.01291,-2.9e-5 -0.01419,0 -0.0049,-0.0025 -0.02335,-0.01158 -0.02838,-0.01419 -0.0013,9e-6 -0.01262,-6.8e-5 -0.01419,0 -0.0014,7.3e-5 -0.01293,-8e-6 -0.0142,0 -0.01003,-0.0033 -0.03242,-0.01151 -0.04258,-0.01419 -0.0014,-1.35e-4 -0.01132,-2.9e-5 -0.01419,0 -0.0016,-6.2e-5 -0.0129,1e-6 -0.0142,0 -0.0051,0.0027 -0.02354,0.01179 -0.02838,0.01419 -0.0016,5.2e-5 -0.01237,6.1e-5 -0.01419,0 -0.002,-1.36e-4 -0.01224,9.6e-5 -0.01419,0 -0.0018,-7e-6 -0.01256,-1.35e-4 -0.0142,0 -0.29459,0.07807 -0.67395,0.464248 -1.13542,0.596095 -0.72923,0.208352 -2.60635,1.144785 -3.02305,1.248963 -0.41671,0.104176 -2.71081,0.425782 -2.71082,0.425782 0,0 0.4113,-0.945803 0.72383,-1.362504 0.31253,-0.416703 1.04515,-0.624197 1.46185,-0.936721 0.4167,-0.312528 1.14961,-1.248963 1.14962,-1.248963 l 1.34831,-2.710816 c 0,0 1.88224,-1.461281 2.61146,-2.086335 0.72923,-0.625054 2.18569,0.425785 2.18569,0.425783 l 1.34831,0.936721 c 0,0 -0.09206,1.925717 -0.42578,2.412769 -0.01699,0.02325 -0.04864,0.05169 -0.07096,0.07096 -0.0035,0.0028 -0.01093,0.01189 -0.0142,0.01419 -0.0049,0.0024 -0.02097,0.01035 -0.02838,0.01419 -0.0014,0.0015 -0.01297,0.01292 -0.0142,0.01419 -0.0027,0.0028 -0.01246,0.01265 -0.01419,0.01419 -0.0035,0.0033 -0.01067,0.01071 -0.01419,0.01419 -0.44966,0.466384 -1.29154,2.654045 -1.29154,2.654045 0,0 2.39828,-1.149041 2.71082,-1.774094 0.31252,-0.625054 2.39857,-1.774095 2.39857,-1.774094 l 1.87344,-0.312241 1.03607,0.738023 c 0,0 0.94581,0.09481 1.36251,-0.113542 0.41669,-0.208351 2.71024,-0.93672 3.33529,-0.936721 0.12014,0 0.2769,0.0332 0.46837,0.08516 l 2.63985,-0.624481 -0.08516,-1.745709 -2.08633,0.312241 -1.05027,0.09935 c 0,0 -2.18511,0.21318 -2.81016,-0.09935 -0.62506,-0.312527 -0.93104,-0.425783 -1.97279,-0.425783 -0.78133,0 -1.0431,0.125907 -1.12123,0.184506 -0.003,0.003 -0.01272,0.01268 -0.01419,0.01419 -0.0017,0.0017 -0.01128,0.01135 -0.0142,0.01419 l -2.49792,-0.31224 0.72383,-1.149613 c 0,0 2.29411,-0.09452 2.71082,-0.198699 0.4167,-0.104175 2.91859,-0.208064 3.33529,-0.31224 0.39066,-0.09766 0.96588,-0.756877 1.03607,-0.837373 l -1.87344,-0.212891 -1.14962,-0.510939 0.73803,-1.575396 2.90951,-1.561203 1.77409,-0.936721 c 0,0 2.49736,-0.728371 3.12241,-0.936722 0.62506,-0.208351 2.39858,0.113541 2.39858,0.113542 0,0 4.28052,0.515765 5.32228,0.41159 1.04176,-0.104176 1.5612,-2.086335 1.5612,-2.086335 l -0.83737,-1.7740944 -2.18568,-1.2489624 c 0,0 -2.0903,-0.4070499 -2.92371,-0.1986985 -0.8334,0.2083515 -4.05913,0.8231802 -4.05913,0.8231797 l -3.74688,0.8373725 -3.12241,-0.099349 -1.5754,0.099349 -0.72382,-1.8166725 c -0.0013,-1.603e-4 -0.013,4e-5 -0.0142,0 z m 27.83199,2.1289131 -2.61147,0.099349 -0.82318,0.7380235 -0.52513,0.198698 1.14962,1.774095 1.7599,-0.09935 1.77409,0.624482 1.14962,1.248962 0.93672,0.936722 0.62448,1.036071 0.41159,1.461853 0.95091,0.113542 1.13542,0.09935 0.73802,1.149613 c -0.0093,0.0061 -0.03139,0.02101 -0.04257,0.02839 -0.03774,0.02577 -0.0987,0.06971 -0.15612,0.127735 -0.14689,0.152449 -0.32644,0.419242 -0.32644,0.780602 0,0.625053 0.41159,1.561203 0.41159,1.561203 l -0.93672,1.03607 0.42579,1.248963 0.41158,0.525132 -0.93672,0.212891 c -0.06845,0.05962 -0.62616,0.566994 -0.72383,1.348312 -0.09115,0.729228 -0.11032,0.825218 -0.11354,0.837372 l 0.52513,1.036071 0.83738,0.624481 0.31223,0.312241 0.93673,0.31224 0.82318,0.525132 c 0,-10e-7 -1.1445,0.619655 -1.56121,0.72383 -0.4167,0.104176 -1.87344,0.113543 -1.87344,0.113543 l 1.5612,1.972792 1.87345,0.936723 0,1.050263 -1.9728,-0.624481 -1.34831,0.72383 -0.32643,0.624481 c 0,0 -0.0025,1.355415 -0.25547,1.830866 -0.0024,0.0049 -0.01177,0.02357 -0.01419,0.02839 -0.0075,0.01148 -0.02051,0.03259 -0.02839,0.04258 -0.0074,0.0076 -0.02423,0.02418 -0.02838,0.02839 -0.0028,0.0026 -0.01133,0.01176 -0.0142,0.01419 -0.0049,0.0025 -0.02341,0.01189 -0.02839,0.01419 -0.0046,0.0025 -0.02094,0.01063 -0.02838,0.01419 -0.0014,-1.13e-4 -0.01296,4.1e-5 -0.01419,0 -6.8e-4,8.31e-4 -0.01097,0.01102 -0.01419,0.01419 -0.43218,0.130914 -1.54701,1.135421 -1.54701,1.135421 l -0.83738,2.185683 -0.51094,0.312241 -0.31224,1.149613 -0.42578,0.723831 -0.72383,0.31224 -0.62448,-1.13542 -0.62448,-0.624481 c 0,0 -0.0083,-0.01551 -0.01419,-0.02839 -0.01958,-0.04017 -0.06992,-0.121735 -0.15613,-0.184506 -0.0099,-0.0069 -0.0316,-0.02193 -0.04258,-0.02839 -0.07553,-0.04197 -0.18201,-0.07096 -0.31224,-0.07096 -0.41669,0 -1.46185,-0.212891 -1.46185,-0.212891 l -0.51094,-0.624482 0.31224,-2.086334 c 0,0 -0.60825,-0.679776 -1.10703,-0.738024 -0.0051,-2.09e-4 -0.02264,-1.49e-4 -0.02838,0 -0.0036,7.3e-5 -0.01123,1.05e-4 -0.0142,0 -0.02971,-3.31e-4 -0.07068,0.0093 -0.09935,0.01419 -0.52088,0.104178 -2.61147,1.036072 -2.61147,1.036072 l -2.28503,2.185683 c -0.03556,0.05012 -0.3298,0.483521 -0.52513,1.362505 -0.20835,0.937584 -1.46185,2.185684 -1.46185,2.185684 l -1.7741,1.036071 -0.62448,1.461853 0,2.185684 0.21289,0.837373 1.24896,0.525132 1.03608,-1.461854 0.52513,0.312241 0,1.348311 0.62448,1.050264 0.52513,0.82318 1.34832,-0.312241 1.05026,-0.624481 -0.83737,-1.348312 0.21289,-2.398575 0.09935,-1.660552 1.24895,-1.362504 0.4116,-1.561203 0.73802,-0.624481 0.52513,0.837372 -0.52513,0.72383 -0.83737,1.561203 -0.21289,0.837373 0.21289,0.411589 0.52513,0.936723 1.14961,0.31224 0,0.525132 0.82318,0.212891 -0.31224,0.936722 -0.31224,0.72383 -1.03607,-0.198698 -0.73802,1.036071 0.11354,1.348312 0.09935,0.837372 -1.03607,0.09935 -1.56121,-0.09935 -1.46185,0.09935 -1.14961,-1.036071 -0.62448,-1.036071 -0.52514,-0.837372 -0.41159,1.149613 0.2129,1.13542 0,0.837373 -1.36251,0.425782 -0.82318,0 -0.83737,1.660553 -0.93672,0.31224 -1.24897,1.561203 -1.14961,0.525132 -1.14961,0.09935 -1.77409,-0.525132 -0.41159,0.837373 2.08633,0.738023 -0.31224,1.348312 0,1.348312 -0.09935,1.24896 -0.21289,0.837376 -1.46185,-1.248964 -1.66055,-0.624481 -1.56121,-0.312241 -0.21289,0.41159 -0.42579,1.887638 -0.19869,0.723828 -0.83737,0.723833 0,0.624479 0.52513,0.738022 -0.31224,0.624484 0,0.411589 1.34831,0.312239 0.52513,0.723834 1.97279,0.52513 0.62448,0 0.93673,-0.723834 0.73802,-0.52513 0.52513,-0.723828 0,-0.738027 0.62448,-0.936718 1.03607,-0.411588 1.03607,-0.212897 0.11354,-1.561198 0.82319,-0.212896 1.05026,0.638678 1.24896,-0.425782 1.24896,-0.312245 0.62448,1.050266 1.03608,1.135422 1.46185,0.936719 c 0.06668,0.0025 0.61866,0.03314 0.99349,0.369013 0.01569,0.01447 0.04173,0.04114 0.05677,0.05677 0.07803,0.08361 0.14743,0.192601 0.1987,0.312245 0.29299,0.683651 0.31113,1.189192 0.31225,1.248958 l -0.19871,1.149615 -1.14961,0 -1.3625,0 1.14961,0.936719 0.42578,0.624485 0.09935,0.936718 0.52513,-1.149609 0.1987,-0.936725 0.93672,-0.411588 0.31224,-0.950918 0.11355,-0.823176 0.82318,0.09935 -0.31225,-0.936725 -1.56119,-1.036067 -1.34832,-1.561204 -1.46185,-1.575396 0.83737,-0.624481 0.93672,0.31224 c 0,5e-6 0.42067,0.841627 0.83737,1.362507 0.4167,0.520875 1.66055,1.348307 1.66055,1.348307 l 0.93673,0.425787 0.09935,1.135416 0.63867,0.624485 0.93672,0.738021 c 0,0 0,0.832259 0,1.248964 0,0.416706 0.10389,0.73291 0.31224,1.14961 0.19533,0.390653 0.75487,0.600132 0.82318,0.624485 0,0 0.57992,0.186209 0.87996,0.07096 0.0075,-0.0037 0.02413,-0.01219 0.02838,-0.01419 0.0062,-0.0032 0.02126,-0.01051 0.02838,-0.01419 0.0025,-0.0025 0.0117,-0.01163 0.0142,-0.01419 0.0025,-0.0025 0.01168,-0.01164 0.01419,-0.01419 0.007,-0.0068 0.02147,-0.02137 0.02839,-0.02839 8.5e-4,-9.43e-4 0.01105,-0.01111 0.01419,-0.01419 0.0026,-0.0025 0.01165,-0.01168 0.01419,-0.01419 0.0025,-0.0046 0.01167,-0.02318 0.01419,-0.02839 -2e-5,-0.0013 1.4e-4,-0.01281 0,-0.01419 0.0026,-0.0049 0.0117,-0.02342 0.0142,-0.02839 0.10417,-0.416711 0.3077,-0.831973 0.09935,-1.561203 -0.20835,-0.72923 -0.2129,-2.398573 -0.2129,-2.398573 l 0.93673,-0.624485 1.3625,0.113542 0.83737,-1.674746 -0.42578,-1.036067 0.31224,-1.986987 0.42578,-1.036072 1.34832,-1.248962 1.66055,0.312241 1.3625,-0.624482 c 0,0 0.92804,-0.07252 1.31993,0.170314 0.01737,0.0113 0.04178,0.0299 0.05677,0.04258 0.0133,0.0119 0.04181,0.0404 0.05677,0.05677 0.0025,0.0049 0.01184,0.02342 0.01419,0.02839 0.0026,0.0025 0.01166,0.01173 0.01419,0.01419 0.20836,0.416699 0.51095,1.036071 0.51095,1.036071 0,0 0.63355,0.217433 1.05026,0.425783 0.4167,0.20835 1.13542,0.72383 1.13542,0.72383 l 0.21289,1.561201 -1.34831,0.525136 -2.18568,0.31224 c 0,-6e-6 -0.94098,-0.09935 -1.46186,-0.09935 -0.52087,0 -1.67475,0.510937 -1.67475,0.510937 l -0.41158,0.738021 -0.83738,0.723834 -1.03607,0.312239 -0.83737,0.31224 -0.31224,1.036073 0.83737,1.575397 0.62448,0.936718 1.14962,0.510943 2.18568,-0.198703 0.72383,-0.425782 1.05027,-0.198697 0.31223,-0.113542 0.62448,0.738021 0,1.561203 -0.62448,0.936725 -0.31223,1.248964 -1.5754,0.312239 -1.24897,0 -1.87344,0.411588 -2.18568,-0.09935 -2.39857,-0.31224 c 0,0 -0.91404,-0.254796 -1.34832,-0.05677 -0.01529,0.0074 -0.04148,0.01965 -0.05677,0.02839 -0.0025,0.0025 -0.01174,0.01164 -0.01419,0.01419 -0.01873,0.01659 -0.04118,0.03803 -0.05677,0.05677 -0.0025,0.0025 -0.01168,0.01171 -0.0142,0.01419 -0.0084,0.01192 -0.02119,0.02977 -0.02838,0.04258 -0.0029,0.0055 -0.01157,0.02273 -0.01419,0.02839 -0.0026,0.0025 -0.01162,0.01171 -0.01419,0.01419 8e-5,0.0049 -1.7e-4,0.02342 0,0.02839 -0.0026,0.0049 -0.01168,0.02344 -0.0142,0.02839 7e-5,0.0014 -2e-5,0.01296 0,0.01419 -0.10418,0.62505 -0.41159,1.561203 -0.41159,1.561203 l -1.7741,0.198698 -2.81016,-1.248964 -2.29922,-1.036067 -0.82318,-0.425788 0.09934,-2.07214 -0.31224,-1.461855 -2.59727,0 -2.92371,-0.31224 -2.39858,0.09935 -1.24895,0.525136 -2.39858,-0.411594 -1.03607,-0.624479 -0.52514,1.248964 c 0,0 -1.13966,0.09423 -1.66055,0.510937 -0.52088,0.416706 -2.81016,2.086334 -2.81016,2.086334 l 0.09935,1.362506 -3.02306,0.09935 -0.72383,1.774094 -3.02306,1.873443 0.51094,1.774094 -0.41159,2.285031 -0.72382,1.248964 -0.52514,2.398574 0,1.561203 1.77409,2.185688 0.83738,1.674746 0.1987,0.510937 3.64753,3.647537 1.46186,0.425782 1.46185,0.09935 1.87345,0.212891 1.46185,0.723833 2.38438,0 3.64754,-0.09935 1.5612,1.972792 1.87345,0.09935 1.57539,0.52513 -0.11354,2.185686 -0.72383,1.5612 1.24896,0.93673 1.46186,1.5754 0.93672,1.24895 0.82318,1.44766 0.52513,1.14962 -1.34831,1.24896 -0.52514,1.7741 0.4116,0.62448 1.14961,0.72383 1.14961,0.62448 0.31224,1.36251 0.72384,0.93671 1.24895,0.2129 1.05027,0.72383 0.72383,0.62448 1.67474,-0.0994 2.59728,-0.83737 1.77409,0 0.93672,0.31224 1.34832,-1.24896 2.08633,-0.31224 1.5612,-1.67475 1.98699,-0.93672 0.62448,-1.66056 1.24896,-0.72382 1.14962,-1.5754 2.81016,-0.72383 0.1987,-1.87344 0.11354,-2.08634 -0.31224,-2.71081 2.39858,-4.059134 1.97279,-1.660558 0.93672,-2.086334 2.49792,-1.986985 1.46186,-1.873443 0.31224,-2.810161 -0.41159,-1.774095 c 0,-6e-6 -2.41593,1.64559 -2.88113,2.143102 -0.0056,0.0057 -0.02263,0.02308 -0.02839,0.02839 -0.0017,0.0017 -0.01271,0.01253 -0.01419,0.01419 -0.0063,0.0094 -0.02115,0.03275 -0.02839,0.04257 -0.39411,0.446065 -2.15729,1.532823 -2.15729,1.532823 l -1.7741,-1.050267 -3.64753,-2.909516 -2.07215,-2.611464 -1.46185,-2.086334 c 0,0 -0.42067,-0.207779 -0.83737,-0.624485 -0.0031,-0.0031 -0.01106,-0.01086 -0.0142,-0.01419 -0.0014,-0.0014 -0.01295,-0.01296 -0.01418,-0.01419 -0.37317,-0.462715 -0.76245,-2.272881 -1.13543,-2.710819 -0.0074,-0.0075 -0.02369,-0.02375 -0.02838,-0.02839 -0.0016,-0.0014 -0.01143,-0.01134 -0.0142,-0.01419 -0.0014,-0.0015 -0.01292,-0.01292 -0.01419,-0.01419 -0.0051,-0.0026 -0.0237,-0.01202 -0.02838,-0.01419 -0.41671,-0.20835 -1.66055,-1.348313 -1.66055,-1.348313 l 0.82317,-1.050267 1.24897,0.425788 1.14961,1.759901 1.14961,1.3625 0.41159,1.149615 1.77409,0.09935 0.4116,1.461855 1.14961,0.823176 0.72383,0.936724 c 0,-5e-6 0.79328,0.405313 0.93672,0.808989 -2e-5,0.0012 1.3e-4,0.01281 0,0.01419 0.0026,0.0025 0.0116,0.01173 0.01419,0.01419 0.10418,0.416706 0.82319,1.561204 0.82319,1.561204 l 0.21289,1.873443 2.59727,-0.198698 1.05026,-1.674745 2.08634,-1.660552 2.18568,-2.398574 1.774093,-2.710818 0.72384,-2.086334 0.83737,-2.69662 -0.83737,-1.050266 -1.561213,0.09935 -0.93672,-0.723828 -0.93672,1.348312 -0.73803,1.263152 -1.87344,-0.113542 -1.87344,-1.774094 -0.52513,-1.248959 -0.09935,-1.348312 2.81016,0.411588 0.31225,0.738021 2.29922,0.198703 0.82318,-1.135421 2.398583,-0.113543 c 0,-5e-6 1.69958,-0.496964 1.97279,-0.908337 0.004,-0.0074 0.0118,-0.0235 0.0142,-0.02839 0.20836,-0.416705 1.24896,-1.972792 1.24896,-1.972792 l 1.34831,-0.312239 1.36251,1.036073 1.03607,-0.411594 -0.0994,1.248964 1.03607,-0.411588 0.21289,-1.774095 1.03607,2.398574 1.24897,1.873443 1.24896,1.660552 c 0,0 0.10331,1.248679 0.93672,1.561203 0.78132,0.292999 1.20013,0.676904 1.24896,0.723834 l 0.42579,-1.873449 c 0.0279,-0.06066 0.18497,-0.378177 0.34062,-0.510937 0.009,-0.0062 0.0318,-0.02091 0.0426,-0.02839 0.001,-0.0013 0.0127,-0.01261 0.0142,-0.01419 0.001,2.9e-5 0.0127,-1.23e-4 0.0142,0 0.001,-0.0013 0.0127,-0.01251 0.0142,-0.01419 10e-4,6e-6 0.0127,-6.4e-5 0.0142,0 10e-4,0 0.0127,-4.1e-5 0.0142,0 0.002,-1.34e-4 0.0121,1.7e-5 0.0142,0 0.001,4.7e-5 0.0112,4.1e-5 0.0142,0 0.001,-2.3e-5 0.0127,5.8e-5 0.0142,0 0.003,0.0026 0.0117,0.01156 0.0142,0.01419 10e-4,-4.1e-5 0.0127,1.28e-4 0.0142,0 0.002,0.0024 0.0118,0.01164 0.0142,0.01419 0.002,0.0017 0.0123,0.01239 0.0142,0.01419 0.002,0.0021 0.0123,0.01195 0.0142,0.01419 0.003,0.0025 0.0116,0.01167 0.0142,0.01419 0.002,0.0049 0.0118,0.02334 0.0142,0.02839 0.004,0.0064 0.0108,0.0213 0.0142,0.02838 0.002,0.0048 0.0117,0.02347 0.0142,0.02839 0.18231,0.45577 0.13064,1.312107 0.11355,1.518623 l 0.51094,-0.993493 0.41159,-1.461849 -1.03608,-0.312245 -0.62447,-0.936719 -0.42579,-1.873443 -0.0993,-2.398579 0.52514,-3.023052 0.31223,-3.533998 0.41159,-2.398575 0.93673,1.873444 1.24896,1.774094 0.11354,0.198699 0.1987,-1.759902 0.42578,-1.362504 0.0994,-1.348312 0.62448,-0.525132 0.3974,-0.681252 C 118.84772,44.607716 114.37634,34.305235 107.59526,25.956184 l -0.63867,0.908337 -1.05026,-1.972793 -1.56121,-1.050264 -1.14961,-0.09935 -0.1987,-1.674745 -1.46185,-1.348312 -1.972803,-0.837372 -0.52513,-0.41159 -1.67474,-0.525132 -1.7599,-0.510939 -1.67475,-0.525132 -1.77409,-1.362504 -3.95978,-1.036071 -0.72383,-0.837373 -1.46186,-1.248962 -1.5612,-0.624481 -1.34831,-1.149613 -2.18569,-1.135421 -2.08633,-0.425782 -2.29922,-0.5109392 -2.28504,-0.2128913 z m -19.27376,16.9319555 -3.42045,0.09935 c -0.02617,0.01162 -0.12774,0.05677 -0.12774,0.05677 0,0 -2.80447,2.081222 -3.84623,2.497925 -1.04175,0.416702 -2.08633,1.972791 -2.08634,1.972793 0,0 -2.08121,0.108717 -2.49792,0.212891 -0.0049,0.0024 -0.02345,0.01154 -0.02839,0.01419 -0.0036,0.0018 -0.02081,0.01035 -0.02838,0.01419 -0.0014,0.0016 -0.01294,0.01291 -0.0142,0.01419 -0.01999,0.01442 -0.04942,0.03745 -0.07096,0.05677 -0.0035,0.0033 -0.01078,0.01075 -0.01419,0.01419 -0.4337,0.453746 -1.17208,2.068867 -1.71733,2.441153 -0.03644,0.02362 -0.07897,0.04525 -0.11354,0.05677 -0.0013,-3.2e-5 -0.01272,1.19e-4 -0.01419,0 -0.0074,0.0032 -0.01911,0.0089 -0.02839,0.01419 -0.01262,0.0075 -0.03196,0.02031 -0.04258,0.02839 -0.0012,0.0013 -0.01281,0.01274 -0.01419,0.01419 -0.52647,0.480696 -0.62448,2.952092 -0.62448,2.952092 l 1.03607,1.774094 0.31224,-1.348311 2.29923,-1.248962 2.49793,-0.738024 c 0,0 3.64241,-0.198698 4.05912,-0.198698 0.0033,0 0.01075,-8.6e-5 0.0142,0 0.45748,0.02192 2.38438,0.72383 2.38438,0.72383 l 3.1224,-2.710815 c 0,0 -1.04118,-0.93615 -0.62448,-1.561203 0.41671,-0.625056 2.08634,-1.873445 2.08634,-1.873444 l 0.52513,-0.113542 0.09935,-0.312241 -3.12241,-2.852743 z m -0.09935,21.090432 -1.3625,0.09935 -0.51094,1.986985 0.19869,1.149614 -1.56119,-0.113542 -1.66055,0.936721 0,1.362505 0.62447,0.936722 1.44767,0.09935 c 0,4e-6 0.20777,-0.832259 0.62447,-1.248963 0.4167,-0.416704 1.36251,-0.624481 1.36251,-0.624481 l 0.52513,0.525132 -0.73802,0.41159 -1.03607,0.936722 -0.21289,1.362504 -0.09935,0.41159 1.14961,0.09935 0.72383,-0.09935 1.87344,0.212892 0,-1.248963 0.72384,-0.312241 -0.51095,-0.936721 0,-1.774095 -0.93671,-0.624481 0.19869,-1.461854 0.52513,-0.72383 -1.34831,-1.362504 z m -20.01178,12.503816 -1.03607,0.09935 0.93672,1.050263 0.09935,-1.149613 z m 25.94435,4.059128 -1.34831,1.873443 0.09935,1.986985 0.62448,0.723834 0.72383,-0.525136 -0.09935,-1.873443 0,-2.185683 z m 35.21223,39.796483 -1.46186,1.03607 -2.08633,0.83737 -0.82318,0.62448 -1.05027,2.08634 -0.82318,1.24896 1.24897,1.24896 2.07214,-0.82318 1.46185,-2.9237 1.24897,-2.29923 0.21289,-1.03607 z"
           id="path3156"
           style="fill:#95a5a6;fill-opacity:1;fill-rule:evenodd;stroke:none"
           inkscape:connector-curvature="0" />
      </g>
      <path
         d="m 64.398654,67.482595 c -3.49439,0 -6.33091,1.931394 -6.33091,4.310241 0.28815,1.095356 0.03932,5.890067 0,6.866293 0,2.378913 2.83652,4.31024 6.33091,4.31024 3.49444,0 6.33096,-1.931327 6.33096,-4.31024 -0.28551,-1.089794 -0.03853,-5.893577 0,-6.866293 0,-2.378847 -2.83652,-4.310241 -6.33096,-4.310241 z"
         id="path3310"
         style="fill:#34495e;fill-opacity:1;stroke:#34495e;stroke-width:0.05980169;stroke-linecap:round;stroke-linejoin:round;stroke-miterlimit:4;stroke-opacity:1;stroke-dasharray:none;stroke-dashoffset:1.08779998;display:inline"
         inkscape:connector-curvature="0" />
      <path
         d="m 34.643344,49.462423 29.01772,18.112021 -4.8542,7.902118 -24.16352,-26.014139 z"
         id="path3286"
         style="fill:#c0392b;fill-opacity:1;fill-rule:evenodd;stroke:none;display:inline"
         inkscape:connector-curvature="0" />
      <path
         d="m 34.605364,49.432848 29.0838,18.148615 35.865732,30.130426 0.521694,-0.227601 L 70.427594,67.188311 34.605364,49.432848 z"
         id="path3288"
         style="fill:#c0392b;fill-opacity:1;fill-rule:evenodd;stroke:none;display:inline"
         inkscape:connector-curvature="0" />
      <path
         d="m 63.660184,67.581463 -4.85453,7.905098 39.633399,22.721984 1.057883,-0.475929 -35.836752,-30.151153 z"
         id="path3290"
         style="fill:#bdc3c7;fill-opacity:1;fill-rule:evenodd;stroke:none;display:inline"
         inkscape:connector-curvature="0" />
      <path
         d="m 34.600544,49.435656 35.82538,17.744708 -6.7394,0.403946 -29.08598,-18.148654 z"
         id="path3292"
         style="fill:#ecf0f1;fill-opacity:1;fill-rule:evenodd;stroke:none;display:inline"
         inkscape:connector-curvature="0" />
      <path
         d="m 8.4159042,86.695411 11.9552498,16.120569 42.2708,15.68604 c 18.29242,-3.16974 37.399016,-4.56262 50.994496,-17.98303 l 6.46312,-24.897007 C 104.04462,108.76049 45.282334,121.0092 12.302184,80.232864 l -3.8862798,6.462547 z"
         id="path3635"
         style="fill:#7f8c8d;fill-opacity:1;stroke:none;display:inline"
         inkscape:connector-curvature="0" />
      <path
         d="m 65.358644,29.205625 c -2.9494,0 -5.84795,0.149908 -8.68068,0.4375 -2.17852,0.221172 -4.31583,0.525877 -6.4094,0.90625 -1.53953,0.279713 -3.05548,0.607392 -4.54258,0.96875 -10.99756,2.672365 -20.48519,7.508202 -27.34881,13.78125 -0.56304,0.514671 -1.09079,1.060411 -1.61791,1.59375 -2.10104,2.127847 -3.93355,4.389627 -5.41375,6.78125 -0.0045,0.0073 0.0045,0.02397 0,0.03125 -1.8476296,2.990469 -3.2115598,6.1602 -3.9514298,9.46875 -0.00218,0.0097 0.00217,0.02157 0,0.03125 -0.1454,0.653543 -0.27474,1.305247 -0.37336,1.96875 -0.00152,0.01017 0.00151,0.02108 0,0.03125 -0.1973,1.337542 -0.28002,2.72072 -0.28002,4.09375 0,9.683755 5.0127098,18.566351 13.3788298,25.5 1.19516,0.990521 2.46932,1.93632 3.79585,2.84375 1.32653,0.90743 2.72115,1.776153 4.16922,2.593745 3.62016,2.044 7.58216,3.7787 11.85426,5.1875 0.0093,0.003 0.02179,-0.003 0.03112,0 1.70005,0.55986 3.4409,1.0836 5.22707,1.53125 0.0097,0.002 0.02137,-0.002 0.03112,0 0.88848,0.2223 1.7989,0.43169 2.70688,0.625 1.83578,0.39085 3.72344,0.73269 5.63155,1 0.95406,0.13365 1.89215,0.24225 2.86245,0.34375 0.01029,0.001 0.02082,-10e-4 0.03111,0 2.90123,0.30244 5.87418,0.46875 8.89848,0.46875 4.04649,0 8.00653,-0.27788 11.82315,-0.8125 1.90831,-0.26731 3.79549,-0.60915 5.631554,-1 7.344246,-1.5634 14.05641,-4.07336 19.850452,-7.34375 1.44851,-0.817592 2.84224,-1.686315 4.16922,-2.593745 1.32699,-0.90743 2.60024,-1.853228 3.79585,-2.84375 4.18462,-3.466826 7.52832,-7.419874 9.83188,-11.71875 0.65817,-1.22825 1.22882,-2.500246 1.71125,-3.78125 0.24122,-0.640502 0.45795,-1.285074 0.65338,-1.9375 0.58632,-1.957279 0.96797,-3.95057 1.12009,-6 0.0507,-0.683143 0.0622,-1.370803 0.0622,-2.0625 0,-0.691697 -0.0115,-1.379396 -0.0622,-2.0625 -0.15212,-2.049312 -0.53377,-4.074395 -1.12009,-6.03125 -0.19543,-0.652285 -0.41216,-1.297168 -0.65338,-1.9375 -0.48243,-1.280663 -1.05308,-2.522192 -1.71125,-3.75 -0.32489,-0.606093 -0.69193,-1.22051 -1.05786,-1.8125 -0.005,-0.0073 0.005,-0.02397 0,-0.03125 -1.48088,-2.391623 -3.31186,-4.653403 -5.41376,-6.78125 -0.52711,-0.533339 -1.05486,-1.079079 -1.6179,-1.59375 -2.24645,-2.052359 -4.79131,-3.96571 -7.56059,-5.6875 -0.008,-0.0047 -0.0236,0.0047 -0.0311,0 -2.77034,-1.720692 -5.777144,-3.257046 -8.991819,-4.59375 -0.0088,-0.0037 -0.02227,0.0037 -0.03111,0 -0.797317,-0.331139 -1.605237,-0.66327 -2.426857,-0.96875 -0.009,-0.0033 -0.0221,0.0033 -0.03111,0 -2.492993,-0.925726 -5.084027,-1.731776 -7.778389,-2.40625 -1.79624,-0.44965 -3.633681,-0.85792 -5.507103,-1.1875 -1.87341,-0.32958 -3.78415,-0.578461 -5.72489,-0.78125 -2.91111,-0.304184 -5.89472,-0.46875 -8.92959,-0.46875 z m 0,2.5 c 29.395242,0 53.266406,16.307295 53.266406,36.40625 0,20.09896 -23.871212,36.406245 -53.266406,36.406245 -29.39524,0 -53.2353,-16.307289 -53.2353,-36.406245 1e-5,-20.098957 23.84006,-36.40625 53.2353,-36.40625 z"
         id="path5181"
         style="fill:#2c3e50;fill-opacity:1;stroke:none;display:inline"
         inkscape:connector-curvature="0" />
    </g>
  </g>
</svg>
