<?xml version="1.0" encoding="UTF-8" standalone="no"?>
<!-- Created with Inkscape (http://www.inkscape.org/) -->

<svg
   xmlns:dc="http://purl.org/dc/elements/1.1/"
   xmlns:cc="http://creativecommons.org/ns#"
   xmlns:rdf="http://www.w3.org/1999/02/22-rdf-syntax-ns#"
   xmlns:svg="http://www.w3.org/2000/svg"
   xmlns="http://www.w3.org/2000/svg"
   xmlns:sodipodi="http://sodipodi.sourceforge.net/DTD/sodipodi-0.dtd"
   xmlns:inkscape="http://www.inkscape.org/namespaces/inkscape"
   id="svg2"
   sodipodi:version="0.32"
   inkscape:version="0.48.4 r9939"
   width="48"
   height="48"
   sodipodi:docname="okular.svg"
   inkscape:output_extension="org.inkscape.output.svgz.inkscape"
   version="1.0"
   inkscape:export-filename="/home/pinheiro/pics/oxygen/scalable/apps/okular.png"
   inkscape:export-xdpi="180"
   inkscape:export-ydpi="180">
  <defs
     id="defs19" />
  <metadata
     id="metadata7">
    <rdf:RDF>
      <cc:Work
         rdf:about="">
        <dc:format>image/svg+xml</dc:format>
        <dc:type
           rdf:resource="http://purl.org/dc/dcmitype/StillImage" />
        <dc:title />
      </cc:Work>
    </rdf:RDF>
  </metadata>
  <sodipodi:namedview
     inkscape:window-height="677"
     inkscape:window-width="585"
     inkscape:pageshadow="2"
     inkscape:pageopacity="0.0"
     guidetolerance="10.0"
     gridtolerance="10.0"
     objecttolerance="10.0"
     borderopacity="1.0"
     bordercolor="#666666"
     pagecolor="#ffffff"
     id="base"
     showguides="true"
     inkscape:guide-bbox="true"
     inkscape:zoom="4.7195899"
     inkscape:cx="27.460601"
     inkscape:cy="42.648878"
     inkscape:window-x="1154"
     inkscape:window-y="89"
     inkscape:current-layer="svg2"
     height="128px"
     width="128px"
     showgrid="false"
     inkscape:window-maximized="0" />
  <path
     d="M 5.2863583,8.4705871 C 5.4143563,9.1102189 12.645229,45.244218 12.773163,45.883517 13.403906,45.75732 32.346576,41.96722 32.616,41.913315 L 41.555678,39.318736 40.310017,29.98706 C 40.257792,29.726485 34.949387,3.1990724 34.821719,2.5610839 34.186382,2.6882033 5.9213693,8.3435335 5.2863583,8.4705871 z"
     id="path3856"
     style="fill:#bdc3c7;fill-opacity:1"
     inkscape:export-filename="/home/pinheiro/pics/oxygen/scalable/apps/rect2875.png"
     inkscape:export-xdpi="1800.0059"
     inkscape:export-ydpi="1800.0059"
     inkscape:connector-curvature="0" />
  <path
     style="fill:#2980b9;fill-opacity:1"
     d="m 24.717024,4.5897415 c -2.248342,0.4498554 -2.596622,0.5168682 -5.079912,1.0137305 -1.698081,2.3635576 -2.982908,5.169823 -3.852171,8.413955 -1.342228,5.009249 -1.1277,8.98161 0.664556,11.928216 1.792242,2.946611 4.889386,4.415353 9.281255,4.415353 4.616333,0 8.618923,-1.443256 12.007063,-4.347772 0.518271,-0.444304 1.015603,-0.922713 1.486802,-1.419221 -0.317193,-1.585062 -0.543628,-2.719465 -1.013728,-5.068647 -1.011018,2.164562 -2.204315,3.991007 -3.593115,5.474138 -2.457021,2.623889 -5.265382,3.931019 -8.436475,3.931019 -3.016783,0 -5.041809,-1.324122 -6.071112,-3.976072 -1.011535,-2.665975 -0.895304,-6.315111 0.349172,-10.959543 1.020466,-3.808447 2.436137,-6.9471411 4.257665,-9.4051565 z"
     id="path6210"
     inkscape:connector-curvature="0" />
  <g
     id="g4954"
     transform="matrix(0.02443697,-0.00654786,0.00654786,0.02443697,47.135479,17.753597)">
    <path
       style="fill:#2c3e50;fill-opacity:1;fill-rule:evenodd;stroke:none"
       d="m -1954.2626,594.89081 c -1.9878,1.28631 -1.2854,4.74881 -0.9206,7.09444 3.1999,20.57609 12.771,39.7751 26.6949,56.64393 1.374,1.66463 3.6003,4.60805 5.4602,3.53592 101.1694,-58.31867 201.265,-117.09842 317.1502,-168.18574 81.9683,-36.13524 163.1406,-59.55617 248.6747,-73.28092 235.2218,-37.74356 503.6309,-38.94642 753.9166,-61.22361 9.724,0 17.3351,-7.01063 17.3351,-14.45998 0,-10.3204 -1.0555,-18.89875 -1.0555,-28.68609 0,-5.33863 -6.9195,-12.39222 -14.5617,-12.15901 -250.5313,7.6452 -515.1514,33.50667 -761.6412,54.0597 -113.7596,9.48561 -191.8738,34.5294 -271.4998,67.27429 -112.4549,46.2452 -220.9684,105.5941 -319.5529,169.38707 z"
       id="path4046"
       sodipodi:nodetypes="csssssccsssss"
       inkscape:connector-curvature="0" />
    <path
       transform="translate(174.99005,-141.0114)"
       clip-path=""
       sodipodi:nodetypes="ccsccsccc"
       id="path3956"
       d="m -2127.6998,482.33267 c 11.385,16.00223 30.2107,14.50896 38.023,14.04444 93.2473,-11.3528 181.809,-7.68439 253.3257,-6.40608 28.5779,0.51081 51.8154,-4.65464 66.5606,-4.25192 l 1.7593,-25.45128 c -15.241,-0.34657 -38.8745,-6.24493 -67.2886,-6.33919 -71.7731,-0.2381 -171.4672,15.99403 -249.5827,4.37749 l -42.6471,0 -0.1502,24.02654 z"
       style="fill:none;stroke:#2c3e50;stroke-width:20.10000038;stroke-linecap:butt;stroke-linejoin:miter;stroke-miterlimit:4;stroke-opacity:1;stroke-dasharray:none"
       inkscape:connector-curvature="0" />
    <path
       sodipodi:nodetypes="csssssccsssss"
       id="path2264"
       d="m -234.578,594.89081 c 1.9878,1.28631 1.2854,4.74881 0.9206,7.09444 -3.1999,20.57609 -12.77099,39.7751 -26.69489,56.64393 -1.374,1.66463 -3.6003,4.60805 -5.4602,3.53592 -101.1694,-58.31867 -201.265,-117.09842 -317.1502,-168.18574 -81.9683,-36.13524 -163.1406,-59.55617 -248.6747,-73.28092 -235.22181,-37.74356 -503.63091,-38.94642 -753.91661,-61.22361 -9.724,0 -17.3351,-7.01063 -17.3351,-14.45998 0,-10.3204 1.0555,-18.89875 1.0555,-28.68609 0,-5.33863 6.9195,-12.39222 14.5617,-12.15901 250.5313,7.6452 515.1514,33.50667 761.64121,54.0597 113.7596,9.48561 191.8738,34.5294 271.4998,67.27429 112.4549,46.2452 220.9684,105.5941 319.55289,169.38707 z"
       style="fill:#2c3e50;fill-opacity:1;fill-rule:evenodd;stroke:none"
       inkscape:connector-curvature="0" />
    <path
       clip-path=""
       sodipodi:nodetypes="cssssssssccssssssssc"
       id="path3582"
       d="m -2267.1314,169.8125 c -105.1198,-0.10643 -198.8702,24.50147 -281.5,62.03125 -25.425,11.54786 -47.4158,30.53273 -52.8437,54.0625 -9.2126,39.93605 -8.8832,82.67109 7.1875,134.5625 12.0312,38.84835 31.2606,62.62651 55.2812,79.28125 120.1169,83.28332 415.3055,103.19353 564.625,-19.21875 41.3,-33.85778 44.606,-93.18742 46.8438,-150.15625 0.9113,-23.20056 -6.4775,-50.94062 -15.625,-61.28125 -33.0048,-37.30936 -69.4682,-65.49363 -205.4063,-88.90625 -41.0076,-7.06274 -80.5404,-10.3365 -118.5625,-10.375 z m 0,12.625 c 36.1833,0.0366 73.7568,3.15382 112.7813,9.875 129.364,22.28036 161.0913,49.0887 192.5,84.59375 8.7051,9.84055 15.7422,33.23396 14.875,55.3125 -2.1295,54.21375 -5.2911,107.68587 -44.5938,139.90625 -142.0982,116.49228 -417.0046,97.53689 -531.3125,18.28125 -22.8589,-15.8493 -41.1443,-38.46791 -52.5937,-75.4375 -15.2936,-49.38188 -15.6108,-87.05781 -6.8438,-125.0625 5.1654,-22.39184 26.0858,-37.44811 50.2813,-48.4375 78.6337,-35.7148 164.8701,-59.13254 264.9062,-59.03125 z"
       style="fill:#2c3e50;stroke:#2c3e50;stroke-width:35;stroke-linecap:butt;stroke-linejoin:miter;stroke-miterlimit:4;stroke-opacity:1;stroke-dasharray:none"
       transform="translate(723.83411,1.3241336e-6)"
       inkscape:connector-curvature="0" />
    <path
       transform="matrix(-1,0,0,1,-2188.8406,0)"
       style="fill:#ecf0f1;fill-opacity:1;fill-rule:evenodd;stroke:#2c3e50;stroke-width:17px;stroke-linecap:butt;stroke-linejoin:miter;stroke-opacity:1;filter:url(#filter3902)"
       d="m -1875.6215,342.20839 c 0,0 144.4092,3.8226 215.7644,3.39787 71.3552,-0.42473 69.6563,-5.0968 69.6563,-5.0968 l -3.3979,-16.98932 c 0,0 8.9194,-6.371 -61.1616,-5.0968 -70.081,1.2742 -219.1623,10.19359 -219.1623,10.19359 l -1.6989,13.59146 z"
       id="path4042"
       sodipodi:nodetypes="csccscc"
       inkscape:connector-curvature="0" />
    <path
       style="fill:none;stroke:#2c3e50;stroke-width:30.20000076;stroke-linecap:butt;stroke-linejoin:miter;stroke-miterlimit:4;stroke-opacity:1;stroke-dasharray:none;filter:url(#filter3848)"
       d="m -2318.8543,305.64517 c 10.6678,-4.33384 53.7173,-14.57613 79.692,-15.25421 -6.2348,15.29219 -4.0893,27.79094 -0.8495,39.92491 l -67.1078,2.5484 c -3.9642,2.25002 -7.9283,3.33133 -11.8925,9.34413 -8.3229,-8.35753 -8.6597,-32.98108 0.1578,-36.56323 z"
       id="path4066"
       sodipodi:nodetypes="cccccs"
       clip-path=""
       transform="matrix(-1,0,0,1,-2555.7983,0)"
       inkscape:connector-curvature="0" />
    <path
       style="fill:#2c3e50;fill-opacity:1;fill-rule:evenodd;stroke:#2c3e50;stroke-width:35px;stroke-linecap:butt;stroke-linejoin:miter;stroke-opacity:1"
       d="m -1216.7186,297.33167 c 64.1461,-48.45971 225.20277,-36.79153 246.27197,-1.20132 l -7.0872,4.98856 c -0.6359,-0.93106 -3.9242,-3.29904 -9.108,-6.99688 -36.47777,-26.02127 -169.69057,-24.08497 -211.36017,3.16745 -5.3043,3.46907 -10.5607,10.37235 -11.4961,11.97223 l -7.2205,-11.93004 z"
       id="path2869"
       sodipodi:nodetypes="cccsscc"
       inkscape:connector-curvature="0" />
    <path
       style="fill:none;stroke:#2c3e50;stroke-width:50px;stroke-linecap:butt;stroke-linejoin:miter;stroke-opacity:1"
       d="m -316.67745,273.27856 c -145.6266,-97.10725 -299.4748,-111.99814 -457.8615,-81.50413 -89.7445,26.11925 -203.7418,27.98562 -196.5688,151.02236 1.0305,65.94344 17.3318,127.18819 100.6816,167.80263 152.2984,68.905 311.9624,60.47048 477.0389,-4.79436 112.1456,-87.45935 72.3184,-139.36449 76.7098,-232.5265 z"
       id="path4182"
       sodipodi:nodetypes="cccccc"
       inkscape:connector-curvature="0" />
  </g>
</svg>
