<svg xmlns="http://www.w3.org/2000/svg" xmlns:xlink="http://www.w3.org/1999/xlink" viewBox="0 0 32 32"><defs><linearGradient gradientUnits="userSpaceOnUse" y2="-27.2" x2="40.29" y1="9.431" x1="41.488" id="3"><stop stop-color="#289bf7"/><stop offset="1" stop-color="#4caaf4"/></linearGradient><linearGradient xlink:href="#1" id="4" x1="32.672" y1="2.465" x2="32.844" y2="-21.02" gradientUnits="userSpaceOnUse"/><linearGradient gradientUnits="userSpaceOnUse" y2="354.29" x2="-704.05" y1="647.77" x1="-701.19" id="2"><stop stop-color="#9fd2fa"/><stop offset="1" stop-color="#cde8fe"/></linearGradient><linearGradient xlink:href="#1" id="0" x1="59.12" y1="-13.295" x2="59.15" y2="-37.783" gradientUnits="userSpaceOnUse" gradientTransform="matrix(4.17478 0 0 4.16765-1069.7 447.73)"/><linearGradient id="1"><stop stop-color="#289bf7"/><stop offset="1" stop-color="#71b9f1"/></linearGradient></defs><g transform="matrix(.47375 0 0 .47375.104 22.09)" fill="#6997c9"><path d="m-884.1 294.78c-4.626 0-8.349 3.718-8.349 8.335v161.41l468.19 1v-121.2c0-4.618-3.724-8.335-8.35-8.335h-272.65c-8.51.751-9.607-.377-13.812-5.981-5.964-7.968-14.969-21.443-20.84-29.21-4.712-6.805-5.477-6.02-13.292-6.02z" transform="matrix(.11779 0 0 .11779 111.1-68.775)" fill="url(#0)" color="#000"/><rect width="463.85" height="295.13" x="-890.28" y="356.85" transform="matrix(.11779 0 0 .11779 111.1-68.775)" fill="url(#2)" stroke="url(#2)" stroke-width="2.378" rx="9.63"/><rect width="54.635" height="34.762" x="6.236" y="-26.743" fill="none" stroke="url(#3)" stroke-linejoin="round" stroke-linecap="round" stroke-width=".633" rx="1.134"/><path d="m37.07-5.998c-.159-.052-1.164-.505-.536-2.414h-.009c1.637-1.686 2.888-4.399 2.888-7.07 0-4.107-2.731-6.26-5.905-6.26-3.176 0-5.892 2.152-5.892 6.26 0 2.682 1.244 5.406 2.891 7.088.642 1.684-.506 2.309-.746 2.396-2.238.724-8.325 4.332-8.229 9.586h24.05c.107-5.02-4.708-8.279-8.513-9.586" fill="url(#4)"/></g></svg>