<svg xmlns="http://www.w3.org/2000/svg" xmlns:xlink="http://www.w3.org/1999/xlink" viewBox="0 0 32 32"><defs><linearGradient gradientUnits="userSpaceOnUse" y2="352.98" x2="-601.15" y1="663.95" x1="-591.02" id="3"><stop stop-color="#289bf7"/><stop offset="1" stop-color="#4caaf4"/></linearGradient><linearGradient xlink:href="#1" id="4" x1="399.54" y1="538.96" x2="400.47" y2="528.83" gradientUnits="userSpaceOnUse"/><linearGradient gradientUnits="userSpaceOnUse" y2="354.29" x2="-704.05" y1="647.77" x1="-701.19" id="2"><stop stop-color="#9fd2fa"/><stop offset="1" stop-color="#cde8fe"/></linearGradient><linearGradient xlink:href="#1" id="0" x1="59.12" y1="-13.295" x2="59.15" y2="-37.783" gradientUnits="userSpaceOnUse" gradientTransform="matrix(4.17478 0 0 4.16765-1069.7 447.73)"/><linearGradient id="1"><stop stop-color="#289bf7"/><stop offset="1" stop-color="#71b9f1"/></linearGradient></defs><g transform="translate(-384.57-515.8)"><g transform="matrix(.0558 0 0 .0558 437.31 505.35)"><path d="m-884.1 294.78c-4.626 0-8.349 3.718-8.349 8.335v161.41l468.19 1v-121.2c0-4.618-3.724-8.335-8.35-8.335h-272.65c-8.51.751-9.607-.377-13.812-5.981-5.964-7.968-14.969-21.443-20.84-29.21-4.712-6.805-5.477-6.02-13.292-6.02z" fill="url(#0)" color="#000"/><rect y="356.85" x="-890.28" height="295.13" width="463.85" fill="url(#2)" stroke="url(#2)" stroke-width="2.378" rx="9.63"/><rect y="356.85" x="-890.28" height="295.13" width="463.85" fill="none" stroke="url(#3)" stroke-linejoin="round" stroke-linecap="round" stroke-width="5.376" rx="9.63"/></g><path d="m400.47 528.83l-4.424 5.662c-.829 1.062-.597 2.953.464 3.782 1.062.829 2.953.597 3.782-.464l4.424-5.662.553-.708c.553-.708.398-1.969-.31-2.521-.708-.553-1.969-.398-2.522.31l-.553.708-3.318 4.247-.553.708c-.276.354-.199.984.155 1.261.354.276.984.199 1.261-.155l3.871-4.954.708.553-3.871 4.954c-.553.708-1.814.863-2.521.31-.708-.553-.863-1.814-.31-2.521l.553-.708 3.871-4.954c.829-1.062 2.721-1.294 3.782-.464 1.062.829 1.294 2.721.464 3.782l-.553.708-4.424 5.662c-1.106 1.416-3.627 1.725-5.04.619-1.416-1.106-1.725-3.627-.619-5.04l4.424-5.662.708.553z" fill="url(#4)" stroke="url(#4)" stroke-width=".06"/></g></svg>