<?xml version="1.0" encoding="UTF-8" standalone="no"?>
<!-- Created with Inkscape (http://www.inkscape.org/) -->

<svg
   xmlns:dc="http://purl.org/dc/elements/1.1/"
   xmlns:cc="http://creativecommons.org/ns#"
   xmlns:rdf="http://www.w3.org/1999/02/22-rdf-syntax-ns#"
   xmlns:svg="http://www.w3.org/2000/svg"
   xmlns="http://www.w3.org/2000/svg"
   xmlns:xlink="http://www.w3.org/1999/xlink"
   xmlns:sodipodi="http://sodipodi.sourceforge.net/DTD/sodipodi-0.dtd"
   xmlns:inkscape="http://www.inkscape.org/namespaces/inkscape"
   width="32"
   height="32"
   id="svg5453"
   version="1.1"
   inkscape:version="0.91 r13725"
   sodipodi:docname="folder-remote.svg">
  <defs
     id="defs5455">
    <linearGradient
       inkscape:collect="always"
       xlink:href="#linearGradient4193"
       id="linearGradient4534"
       x1="59.12455"
       y1="-13.294993"
       x2="59.148849"
       y2="-37.783325"
       gradientUnits="userSpaceOnUse"
       gradientTransform="matrix(4.1747839,0,0,4.1676538,-1069.6998,447.73055)" />
    <linearGradient
       inkscape:collect="always"
       id="linearGradient4193">
      <stop
         style="stop-color:#289bf7;stop-opacity:1"
         offset="0"
         id="stop4195" />
      <stop
         style="stop-color:#71b9f1;stop-opacity:1"
         offset="1"
         id="stop4197" />
    </linearGradient>
    <linearGradient
       gradientTransform="matrix(7.9277484,0,0,7.9277484,-1273.2754,-154.3544)"
       gradientUnits="userSpaceOnUse"
       y2="64.160583"
       x2="71.801933"
       y1="101.17968"
       x1="72.161911"
       id="linearGradient4284-7-0"
       xlink:href="#linearGradient4314"
       inkscape:collect="always" />
    <linearGradient
       inkscape:collect="always"
       id="linearGradient4314">
      <stop
         style="stop-color:#9fd2fa;stop-opacity:1"
         offset="0"
         id="stop4316" />
      <stop
         style="stop-color:#cde8fe;stop-opacity:1"
         offset="1"
         id="stop4318" />
    </linearGradient>
    <linearGradient
       gradientTransform="matrix(7.9277471,0,0,7.9277471,-2010.8435,-3045.4453)"
       gradientUnits="userSpaceOnUse"
       y2="428.6745"
       x2="177.81706"
       y1="467.90091"
       x1="179.09601"
       id="linearGradient4284-7-0-1"
       xlink:href="#linearGradient4308"
       inkscape:collect="always" />
    <linearGradient
       id="linearGradient4308"
       inkscape:collect="always">
      <stop
         id="stop4310"
         offset="0"
         style="stop-color:#289bf7;stop-opacity:1" />
      <stop
         id="stop4312"
         offset="1"
         style="stop-color:#4caaf4;stop-opacity:1" />
    </linearGradient>
    <linearGradient
       inkscape:collect="always"
       xlink:href="#linearGradient4193"
       id="linearGradient4387"
       x1="370.45337"
       y1="548.44684"
       x2="369.74545"
       y2="536.05658"
       gradientUnits="userSpaceOnUse"
       gradientTransform="matrix(0.92307692,0,0,0.92307692,57.157445,33.184019)" />
  </defs>
  <sodipodi:namedview
     id="base"
     pagecolor="#ffffff"
     bordercolor="#666666"
     borderopacity="1.0"
     inkscape:pageopacity="0"
     inkscape:pageshadow="2"
     inkscape:zoom="10.606602"
     inkscape:cx="-5.2493223"
     inkscape:cy="17.69994"
     inkscape:document-units="px"
     inkscape:current-layer="layer1"
     showgrid="true"
     fit-margin-top="0"
     fit-margin-left="0"
     fit-margin-right="0"
     fit-margin-bottom="0"
     inkscape:window-width="1366"
     inkscape:window-height="687"
     inkscape:window-x="0"
     inkscape:window-y="0"
     inkscape:window-maximized="1"
     inkscape:showpageshadow="false"
     borderlayer="true"
     showguides="true"
     inkscape:guide-bbox="true"
     inkscape:object-nodes="true"
     inkscape:snap-bbox="true">
    <inkscape:grid
       type="xygrid"
       id="grid4063" />
    <sodipodi:guide
       position="2.0000117,30.000026"
       orientation="28,0"
       id="guide4167" />
    <sodipodi:guide
       position="17,5"
       orientation="0,28"
       id="guide4169" />
    <sodipodi:guide
       position="30.000012,2.0000264"
       orientation="-28,0"
       id="guide4171" />
    <sodipodi:guide
       position="30.000012,30.000026"
       orientation="0,-28"
       id="guide4173" />
    <sodipodi:guide
       position="2.0000117,30.000026"
       orientation="28,0"
       id="guide4181" />
    <sodipodi:guide
       position="16.000012,30.000026"
       orientation="0,-14"
       id="guide4187" />
    <sodipodi:guide
       position="5.0000117,30.000026"
       orientation="28,0"
       id="guide4143" />
    <sodipodi:guide
       position="5.0000117,2.0000264"
       orientation="0,22"
       id="guide4145" />
    <sodipodi:guide
       position="27.000012,2.0000264"
       orientation="-28,0"
       id="guide4147" />
    <sodipodi:guide
       position="27.000012,30.000026"
       orientation="0,-22"
       id="guide4149" />
    <sodipodi:guide
       position="27,30"
       orientation="0,-7"
       id="guide4155" />
    <sodipodi:guide
       position="27.00001,23"
       orientation="-7,-1e-05"
       id="guide4162" />
    <sodipodi:guide
       position="24,27"
       orientation="0,1"
       id="guide3378" />
  </sodipodi:namedview>
  <metadata
     id="metadata5458">
    <rdf:RDF>
      <cc:Work
         rdf:about="">
        <dc:format>image/svg+xml</dc:format>
        <dc:type
           rdf:resource="http://purl.org/dc/dcmitype/StillImage" />
        <dc:title></dc:title>
      </cc:Work>
    </rdf:RDF>
  </metadata>
  <g
     inkscape:label="Capa 1"
     inkscape:groupmode="layer"
     id="layer1"
     transform="translate(-384.57143,-515.798)">
    <g
       transform="translate(-1.6146091e-6,-0.04181819)"
       id="g4392">
      <path
         style="color:#000000;display:inline;overflow:visible;visibility:visible;fill:url(#linearGradient4534);fill-opacity:1;fill-rule:nonzero;stroke:none;stroke-width:0.99992168;stroke-opacity:1;marker:none;enable-background:accumulate"
         id="rect8678-4-5-5-9"
         inkscape:connector-curvature="0"
         d="m -884.09987,294.78348 c -4.62566,0 -8.34918,3.71755 -8.34918,8.33531 l 0,161.40825 468.19182,1.00001 0,-121.19727 c 0,-4.61776 -3.7239,-8.3353 -8.34956,-8.3353 l -272.65225,0 c -8.5104,0.75134 -9.60667,-0.37701 -13.8121,-5.98088 -5.9637,-7.96762 -14.96889,-21.44253 -20.83998,-29.21462 -4.71246,-6.80467 -5.47678,-6.0155 -13.29224,-6.0155 z"
         sodipodi:nodetypes="scccssccccs"
         transform="matrix(0.05580183,0,0,0.05580183,437.30872,505.3501)" />
      <rect
         style="opacity:1;fill:url(#linearGradient4284-7-0);fill-opacity:1;stroke:url(#linearGradient4284-7-0);stroke-width:2.37832451;stroke-linecap:butt;stroke-linejoin:miter;stroke-miterlimit:4;stroke-dasharray:none;stroke-opacity:1"
         id="rect4158-4-0"
         width="463.84714"
         height="295.12872"
         x="-890.27637"
         y="356.84882"
         ry="9.629776"
         transform="matrix(0.05580183,0,0,0.05580183,437.30872,505.3501)" />
      <rect
         style="opacity:1;fill:none;fill-opacity:1;stroke:url(#linearGradient4284-7-0-1);stroke-width:5.37616777;stroke-linecap:round;stroke-linejoin:round;stroke-miterlimit:4;stroke-dasharray:none;stroke-opacity:1"
         id="rect4158-4-0-3"
         width="463.84711"
         height="295.12872"
         x="-890.27631"
         y="356.84882"
         ry="9.629776"
         transform="matrix(0.05580183,0,0,0.05580183,437.30872,505.3501)" />
      <path
         style="fill:url(#linearGradient4387);fill-opacity:1"
         inkscape:connector-curvature="0"
         d="m 397.48918,531.61004 c 0.13044,0 0.25696,0.0189 0.37565,0.0561 0.45,-0.50413 0.94892,-0.96326 1.48892,-1.36956 -0.0228,-0.0952 -0.0352,-0.195 -0.0352,-0.29675 0,-0.14152 0.0235,-0.27782 0.0666,-0.405 -0.60586,-0.43304 -1.26326,-0.79761 -1.9637,-1.07869 -0.65543,0.405 -1.22738,0.93325 -1.68391,1.55282 0.33848,0.6 0.74087,1.15892 1.1987,1.66762 0.16696,-0.0809 0.35413,-0.12653 0.55304,-0.12653 z m -1.27695,1.2763 c 0,-0.17934 0.0378,-0.35021 0.1037,-0.50412 -0.40957,-0.45131 -0.78066,-0.93652 -1.10544,-1.4537 -0.40761,0.81 -0.63913,1.725 -0.63913,2.69413 0,1.12109 0.30913,2.17044 0.84457,3.06848 0.19173,-1.0787 0.55499,-2.09935 1.05652,-3.03391 -0.16305,-0.21392 -0.26022,-0.48196 -0.26022,-0.77088 z m 4.38261,-4.16282 c 0.33717,0 0.64239,0.13109 0.8713,0.345 0.66588,-0.2863 1.36696,-0.50674 2.09674,-0.64695 -0.88108,-0.50805 -1.90239,-0.79957 -2.99151,-0.79957 -0.74284,0 -1.45371,0.1363 -2.11044,0.38348 0.52108,0.25761 1.01804,0.55761 1.48499,0.89674 0.19043,-0.11348 0.41152,-0.1787 0.64892,-0.1787 z m 1.90825,6.01239 c 0.0796,-0.16565 0.1924,-0.31239 0.33197,-0.42782 -0.37696,-1.15892 -0.97371,-2.22 -1.74261,-3.13239 -0.15262,0.0653 -0.32087,0.10043 -0.49827,0.10043 -0.27717,0 -0.53217,-0.0893 -0.74152,-0.23804 -0.46303,0.35152 -0.89152,0.74543 -1.28087,1.17587 0.12262,0.195 0.1937,0.42521 0.1937,0.67238 0,0.1324 -0.0202,0.26088 -0.0587,0.38218 1.1198,0.74739 2.40913,1.26131 3.7963,1.46739 z m 1.65587,1.7237 c 0.017,0.24196 0.0268,0.48522 0.0268,0.73109 0,0.43304 -0.0274,0.85956 -0.0796,1.27891 1.01739,-0.74283 1.79218,-1.7987 2.18283,-3.02544 -0.46304,0.11218 -0.93783,0.1924 -1.42239,0.23805 -0.11282,0.35021 -0.37305,0.63195 -0.70761,0.77739 z m -1.95456,-0.86544 c -1.48174,-0.24587 -2.85457,-0.8113 -4.05,-1.62 -0.19435,0.1187 -0.42195,0.18848 -0.66587,0.18848 -0.0906,0 -0.17739,-0.009 -0.26218,-0.0268 -0.57195,1.08391 -0.93782,2.2937 -1.04282,3.57651 0.57131,0.61306 1.26782,1.10675 2.05109,1.43806 0.97304,-1.49544 2.33217,-2.73197 3.96978,-3.55631 z m 2.39478,-6.41934 c -0.96195,0.0933 -1.88022,0.33521 -2.73456,0.69651 0.004,0.043 0.006,0.0855 0.006,0.12849 0,0.20151 -0.0483,0.3913 -0.13109,0.56021 0.855,1.0037 1.51762,2.17174 1.93631,3.45066 0.51978,0.0104 0.96326,0.32739 1.15435,0.77934 0.57783,-0.0587 1.14,-0.16956 1.68131,-0.32869 0.0391,-0.27392 0.06,-0.55435 0.06,-0.83935 -9.2e-4,-1.76348 -0.7611,-3.34957 -1.97283,-4.44717 z m -1.75239,7.10087 c -1.5287,0.71608 -2.80696,1.81891 -3.73239,3.16695 0.4663,0.11674 0.95413,0.17935 1.45696,0.17935 0.90456,0 1.76217,-0.20152 2.53174,-0.56022 0.12391,-0.60521 0.18912,-1.23065 0.18912,-1.87108 0,-0.23153 -0.0104,-0.46109 -0.0281,-0.68805 -0.15391,-0.0496 -0.29543,-0.12587 -0.41739,-0.22695 z"
         id="path4172-9" />
    </g>
  </g>
</svg>
