<svg xmlns="http://www.w3.org/2000/svg" xmlns:xlink="http://www.w3.org/1999/xlink" viewBox="0 0 32 32"><defs><linearGradient gradientUnits="userSpaceOnUse" y2="352.98" x2="-601.15" y1="663.95" x1="-591.02" id="3"><stop stop-color="#289bf7"/><stop offset="1" stop-color="#4caaf4"/></linearGradient><linearGradient xlink:href="#1" id="4" x1="400.7" y1="539.78" x2="400.35" y2="528.56" gradientUnits="userSpaceOnUse"/><linearGradient gradientUnits="userSpaceOnUse" y2="354.29" x2="-704.05" y1="647.77" x1="-701.19" id="2"><stop stop-color="#9fd2fa"/><stop offset="1" stop-color="#cde8fe"/></linearGradient><linearGradient xlink:href="#1" id="0" x1="59.12" y1="-13.295" x2="59.15" y2="-37.783" gradientUnits="userSpaceOnUse" gradientTransform="matrix(4.17478 0 0 4.16765-1069.7 447.73)"/><linearGradient id="1"><stop stop-color="#289bf7"/><stop offset="1" stop-color="#71b9f1"/></linearGradient></defs><g transform="translate(-384.57-515.8)"><g transform="matrix(.0558 0 0 .0558 437.31 505.35)"><path d="m-884.1 294.78c-4.626 0-8.349 3.718-8.349 8.335v161.41l468.19 1v-121.2c0-4.618-3.724-8.335-8.35-8.335h-272.65c-8.51.751-9.607-.377-13.812-5.981-5.964-7.968-14.969-21.443-20.84-29.21-4.712-6.805-5.477-6.02-13.292-6.02z" fill="url(#0)" color="#000"/><rect y="356.85" x="-890.28" height="295.13" width="463.85" fill="url(#2)" stroke="url(#2)" stroke-width="2.378" rx="9.63"/><rect y="356.85" x="-890.28" height="295.13" width="463.85" fill="none" stroke="url(#3)" stroke-linejoin="round" stroke-linecap="round" stroke-width="5.376" rx="9.63"/></g><path d="m406.45 530.51c-.332-.323-.733-.485-1.202-.485h-1.488l-.339-.88c-.084-.211-.238-.394-.462-.547-.224-.153-.453-.23-.687-.23h-3.4c-.235 0-.464.077-.687.23-.224.153-.377.335-.461.547l-.339.88h-1.488c-.469 0-.87.162-1.202.485-.332.324-.498.714-.498 1.171v5.797c0 .457.166.848.498 1.171.332.324.733.485 1.202.485h9.35c.469 0 .87-.162 1.202-.485.332-.323.498-.714.498-1.171v-5.797c0-.457-.166-.848-.498-1.171m-3.775 6.118c-.582.567-1.283.851-2.102.851-.819 0-1.52-.284-2.102-.851-.582-.567-.873-1.25-.873-2.048 0-.798.291-1.481.873-2.048.582-.567 1.283-.851 2.102-.851.819 0 1.52.284 2.102.851.582.567.873 1.25.873 2.048 0 .798-.291 1.481-.873 2.048m-2.102-3.911c-.527 0-.977.182-1.351.547-.374.365-.561.803-.561 1.317 0 .513.187.952.561 1.317.374.364.825.547 1.351.547.527 0 .977-.182 1.351-.547.374-.365.561-.803.561-1.317 0-.513-.187-.952-.561-1.317-.374-.365-.825-.547-1.351-.547" fill="url(#4)"/></g></svg>