<?xml version="1.0" encoding="UTF-8" standalone="no"?>
<!-- Created with Inkscape (http://www.inkscape.org/) -->

<svg
   xmlns:dc="http://purl.org/dc/elements/1.1/"
   xmlns:cc="http://creativecommons.org/ns#"
   xmlns:rdf="http://www.w3.org/1999/02/22-rdf-syntax-ns#"
   xmlns:svg="http://www.w3.org/2000/svg"
   xmlns="http://www.w3.org/2000/svg"
   xmlns:xlink="http://www.w3.org/1999/xlink"
   xmlns:sodipodi="http://sodipodi.sourceforge.net/DTD/sodipodi-0.dtd"
   xmlns:inkscape="http://www.inkscape.org/namespaces/inkscape"
   width="32"
   height="32"
   id="svg5453"
   version="1.1"
   inkscape:version="0.91 r13725"
   sodipodi:docname="folder-video.svg">
  <defs
     id="defs5455">
    <linearGradient
       inkscape:collect="always"
       xlink:href="#linearGradient4193"
       id="linearGradient4534"
       x1="59.12455"
       y1="-13.294993"
       x2="59.148849"
       y2="-37.783325"
       gradientUnits="userSpaceOnUse"
       gradientTransform="matrix(4.1747839,0,0,4.1676538,-1069.6998,447.73055)" />
    <linearGradient
       inkscape:collect="always"
       id="linearGradient4193">
      <stop
         style="stop-color:#289bf7;stop-opacity:1"
         offset="0"
         id="stop4195" />
      <stop
         style="stop-color:#71b9f1;stop-opacity:1"
         offset="1"
         id="stop4197" />
    </linearGradient>
    <linearGradient
       gradientTransform="matrix(7.9277484,0,0,7.9277484,-1273.2754,-154.3544)"
       gradientUnits="userSpaceOnUse"
       y2="64.160583"
       x2="71.801933"
       y1="101.17968"
       x1="72.161911"
       id="linearGradient4284-7-0"
       xlink:href="#linearGradient4314"
       inkscape:collect="always" />
    <linearGradient
       inkscape:collect="always"
       id="linearGradient4314">
      <stop
         style="stop-color:#9fd2fa;stop-opacity:1"
         offset="0"
         id="stop4316" />
      <stop
         style="stop-color:#cde8fe;stop-opacity:1"
         offset="1"
         id="stop4318" />
    </linearGradient>
    <linearGradient
       gradientTransform="matrix(7.9277471,0,0,7.9277471,-2010.8435,-3045.4453)"
       gradientUnits="userSpaceOnUse"
       y2="428.6745"
       x2="177.81706"
       y1="467.90091"
       x1="179.09601"
       id="linearGradient4284-7-0-1"
       xlink:href="#linearGradient4308"
       inkscape:collect="always" />
    <linearGradient
       id="linearGradient4308"
       inkscape:collect="always">
      <stop
         id="stop4310"
         offset="0"
         style="stop-color:#289bf7;stop-opacity:1" />
      <stop
         id="stop4312"
         offset="1"
         style="stop-color:#4caaf4;stop-opacity:1" />
    </linearGradient>
    <linearGradient
       inkscape:collect="always"
       xlink:href="#linearGradient4193"
       id="linearGradient4550"
       x1="201.84729"
       y1="414.36343"
       x2="203.07623"
       y2="-0.13560632"
       gradientUnits="userSpaceOnUse" />
  </defs>
  <sodipodi:namedview
     id="base"
     pagecolor="#ffffff"
     bordercolor="#666666"
     borderopacity="1.0"
     inkscape:pageopacity="0"
     inkscape:pageshadow="2"
     inkscape:zoom="15"
     inkscape:cx="-7.8331957"
     inkscape:cy="16.914865"
     inkscape:document-units="px"
     inkscape:current-layer="layer1"
     showgrid="true"
     fit-margin-top="0"
     fit-margin-left="0"
     fit-margin-right="0"
     fit-margin-bottom="0"
     inkscape:window-width="1366"
     inkscape:window-height="687"
     inkscape:window-x="0"
     inkscape:window-y="0"
     inkscape:window-maximized="1"
     inkscape:showpageshadow="false"
     borderlayer="true"
     showguides="true"
     inkscape:guide-bbox="true"
     inkscape:object-nodes="true"
     inkscape:snap-bbox="true">
    <inkscape:grid
       type="xygrid"
       id="grid4063" />
    <sodipodi:guide
       position="2.0000117,30.000026"
       orientation="28,0"
       id="guide4167" />
    <sodipodi:guide
       position="17,5"
       orientation="0,28"
       id="guide4169" />
    <sodipodi:guide
       position="30.000012,2.0000264"
       orientation="-28,0"
       id="guide4171" />
    <sodipodi:guide
       position="30.000012,30.000026"
       orientation="0,-28"
       id="guide4173" />
    <sodipodi:guide
       position="2.0000117,30.000026"
       orientation="28,0"
       id="guide4181" />
    <sodipodi:guide
       position="16.000012,30.000026"
       orientation="0,-14"
       id="guide4187" />
    <sodipodi:guide
       position="5.0000117,30.000026"
       orientation="28,0"
       id="guide4143" />
    <sodipodi:guide
       position="5.0000117,2.0000264"
       orientation="0,22"
       id="guide4145" />
    <sodipodi:guide
       position="27.000012,2.0000264"
       orientation="-28,0"
       id="guide4147" />
    <sodipodi:guide
       position="27.000012,30.000026"
       orientation="0,-22"
       id="guide4149" />
    <sodipodi:guide
       position="27,30"
       orientation="0,-7"
       id="guide4155" />
    <sodipodi:guide
       position="27.00001,23"
       orientation="-7,-1e-05"
       id="guide4162" />
    <sodipodi:guide
       position="24,27"
       orientation="0,1"
       id="guide3378" />
  </sodipodi:namedview>
  <metadata
     id="metadata5458">
    <rdf:RDF>
      <cc:Work
         rdf:about="">
        <dc:format>image/svg+xml</dc:format>
        <dc:type
           rdf:resource="http://purl.org/dc/dcmitype/StillImage" />
        <dc:title />
      </cc:Work>
    </rdf:RDF>
  </metadata>
  <g
     inkscape:label="Capa 1"
     inkscape:groupmode="layer"
     id="layer1"
     transform="translate(-384.57143,-515.798)">
    <g
       transform="matrix(0.02949715,0,0,0.02949715,394.57143,527.68418)"
       style="fill:#6a98ca;fill-opacity:1"
       id="g4555">
      <path
         style="color:#000000;display:inline;overflow:visible;visibility:visible;fill:url(#linearGradient4534);fill-opacity:1;fill-rule:nonzero;stroke:none;stroke-width:0.99992168;stroke-opacity:1;marker:none;enable-background:accumulate"
         id="rect8678-4-5-5-9"
         inkscape:connector-curvature="0"
         d="m -884.09987,294.78348 c -4.62566,0 -8.34918,3.71755 -8.34918,8.33531 l 0,161.40825 468.19182,1.00001 0,-121.19727 c 0,-4.61776 -3.7239,-8.3353 -8.34956,-8.3353 l -272.65225,0 c -8.5104,0.75134 -9.60667,-0.37701 -13.8121,-5.98088 -5.9637,-7.96762 -14.96889,-21.44253 -20.83998,-29.21462 -4.71246,-6.80467 -5.47678,-6.0155 -13.29224,-6.0155 z"
         sodipodi:nodetypes="scccssccccs"
         transform="matrix(1.8917702,0,0,1.8917702,1448.8617,-758.57837)" />
      <rect
         style="opacity:1;fill:url(#linearGradient4284-7-0);fill-opacity:1;stroke:url(#linearGradient4284-7-0);stroke-width:2.37832451;stroke-linecap:butt;stroke-linejoin:miter;stroke-miterlimit:4;stroke-dasharray:none;stroke-opacity:1"
         id="rect4158-4-0"
         width="463.84714"
         height="295.12872"
         x="-890.27637"
         y="356.84882"
         ry="9.629776"
         transform="matrix(1.8917702,0,0,1.8917702,1448.8617,-758.57837)" />
      <rect
         style="opacity:1;fill:none;fill-opacity:1;stroke:url(#linearGradient4284-7-0-1);stroke-width:5.37616777;stroke-linecap:round;stroke-linejoin:round;stroke-miterlimit:4;stroke-dasharray:none;stroke-opacity:1"
         id="rect4158-4-0-3"
         width="463.84711"
         height="295.12872"
         x="-890.27631"
         y="356.84882"
         ry="9.629776"
         transform="matrix(1.8917702,0,0,1.8917702,1448.8617,-758.57837)" />
      <path
         inkscape:connector-curvature="0"
         style="fill:url(#linearGradient4550);fill-opacity:1"
         d="m 36.01,406.819 334.816,0 c 14.258,0 25.922,-11.656 25.922,-25.906 l 0,-355.007 C 396.748,11.689 385.075,0 370.826,0 L 36.01,0 C 21.72,0 10.071,11.689 10.071,25.906 l 0,355.007 c 0,14.25 11.649,25.906 25.939,25.906 z M 333.515,31.693 c 0,-4.3 3.52,-7.771 7.779,-7.771 l 24.304,0 c 4.292,0 7.763,3.471 7.763,7.771 l 0,25.028 c 0,4.3 -3.471,7.771 -7.763,7.771 l -24.304,0 c -4.259,0 -7.779,-3.463 -7.779,-7.771 l 0,-25.028 z m 0,63.671 c 0,-4.3 3.52,-7.779 7.779,-7.779 l 24.304,0 c 4.292,0 7.763,3.479 7.763,7.779 l 0,25.028 c 0,4.292 -3.471,7.795 -7.763,7.795 l -24.304,0 c -4.259,0 -7.779,-3.503 -7.779,-7.795 l 0,-25.028 z m 0,63.72 c 0,-4.292 3.52,-7.795 7.779,-7.795 l 24.304,0 c 4.292,0 7.763,3.503 7.763,7.795 l 0,25.036 c 0,4.259 -3.471,7.763 -7.763,7.763 l -24.304,0 c -4.259,0 -7.779,-3.503 -7.779,-7.763 l 0,-25.036 z m 0,63.671 c 0,-4.3 3.52,-7.795 7.779,-7.795 l 24.304,0 c 4.292,0 7.763,3.495 7.763,7.795 l 0,25.036 c 0,4.292 -3.471,7.771 -7.763,7.771 l -24.304,0 c -4.259,0 -7.779,-3.479 -7.779,-7.771 l 0,-25.036 z m 0,63.672 c 0,-4.3 3.52,-7.771 7.779,-7.771 l 24.304,0 c 4.292,0 7.763,3.463 7.763,7.771 l 0,25.052 c 0,4.276 -3.471,7.755 -7.763,7.755 l -24.304,0 c -4.259,0 -7.779,-3.479 -7.779,-7.755 l 0,-25.052 z m 0,63.671 c 0,-4.276 3.52,-7.771 7.779,-7.771 l 24.304,0 c 4.292,0 7.763,3.495 7.763,7.771 l 0,25.077 c 0,4.243 -3.471,7.755 -7.763,7.755 l -24.304,0 c -4.259,0 -7.779,-3.503 -7.779,-7.755 l 0,-25.077 z M 99.981,50.478 c 0,-4.3 3.503,-7.771 7.795,-7.771 l 191.298,0 c 4.268,0 7.763,3.471 7.763,7.771 l 0,123.945 c 0,4.259 -3.495,7.795 -7.763,7.795 l -191.297,0 c -4.292,0 -7.795,-3.536 -7.795,-7.795 -0.001,0 -0.001,-123.945 -0.001,-123.945 z m 0,191.12 c 0,-4.268 3.503,-7.747 7.795,-7.747 l 191.298,0 c 4.268,0 7.763,3.479 7.763,7.747 l 0,114.572 c 0,4.276 -3.495,7.771 -7.763,7.771 l -191.297,0 c -4.292,0 -7.795,-3.495 -7.795,-7.771 -0.001,0 -0.001,-114.572 -0.001,-114.572 z M 33.457,31.693 c 0,-4.3 3.495,-7.771 7.779,-7.771 l 24.313,0 c 4.268,0 7.755,3.471 7.755,7.771 l 0,25.028 c 0,4.3 -3.487,7.771 -7.755,7.771 l -24.313,0 c -4.284,0 -7.779,-3.463 -7.779,-7.771 0,0 0,-25.028 0,-25.028 z m 0,63.671 c 0,-4.3 3.495,-7.779 7.779,-7.779 l 24.313,0 c 4.268,0 7.755,3.479 7.755,7.779 l 0,25.028 c 0,4.292 -3.487,7.795 -7.755,7.795 l -24.313,0 c -4.284,0 -7.779,-3.503 -7.779,-7.795 0,0 0,-25.028 0,-25.028 z m 0,63.72 c 0,-4.292 3.495,-7.795 7.779,-7.795 l 24.313,0 c 4.268,0 7.755,3.503 7.755,7.795 l 0,25.036 c 0,4.259 -3.487,7.763 -7.755,7.763 l -24.313,0 c -4.284,0 -7.779,-3.503 -7.779,-7.763 0,0 0,-25.036 0,-25.036 z m 0,63.671 c 0,-4.3 3.495,-7.795 7.779,-7.795 l 24.313,0 c 4.268,0 7.755,3.495 7.755,7.795 l 0,25.036 c 0,4.292 -3.487,7.771 -7.755,7.771 l -24.313,0 c -4.284,0 -7.779,-3.479 -7.779,-7.771 0,0 0,-25.036 0,-25.036 z m 0,63.672 c 0,-4.3 3.495,-7.771 7.779,-7.771 l 24.313,0 c 4.268,0 7.755,3.463 7.755,7.771 l 0,25.052 c 0,4.276 -3.487,7.755 -7.755,7.755 l -24.313,0 c -4.284,0 -7.779,-3.479 -7.779,-7.755 0,0 0,-25.052 0,-25.052 z m 0,63.671 c 0,-4.276 3.495,-7.771 7.779,-7.771 l 24.313,0 c 4.268,0 7.755,3.495 7.755,7.771 l 0,25.077 c 0,4.243 -3.487,7.755 -7.755,7.755 l -24.313,0 c -4.284,0 -7.779,-3.503 -7.779,-7.755 0,-0.001 0,-25.077 0,-25.077 z"
         id="path4175-6" />
    </g>
  </g>
</svg>
