<svg xmlns="http://www.w3.org/2000/svg" xmlns:xlink="http://www.w3.org/1999/xlink" viewBox="0 0 32 32"><defs><linearGradient gradientTransform="matrix(.57076 0 0-.56972 24.384 830.48)" xlink:href="#1" id="5" x1="562.35" y1="504.57" x2="562.67" y2="546.41" gradientUnits="userSpaceOnUse"/><linearGradient gradientTransform="matrix(.57076 0 0-.56972 23.521 831.68)" xlink:href="#1" id="4" x1="564.19" y1="506.51" x2="564" y2="548.15" gradientUnits="userSpaceOnUse"/><linearGradient gradientTransform="matrix(.57076 0 0-.56972 25.802 830.86)" xlink:href="#1" id="6" x1="559.17" y1="505.95" x2="560.09" y2="546.67" gradientUnits="userSpaceOnUse"/><linearGradient gradientUnits="userSpaceOnUse" y2="352.98" x2="-601.15" y1="663.95" x1="-591.02" id="3"><stop stop-color="#289bf7"/><stop offset="1" stop-color="#4caaf4"/></linearGradient><linearGradient id="1"><stop stop-color="#289bf7"/><stop offset="1" stop-color="#71b9f1"/></linearGradient><linearGradient xlink:href="#1" id="0" x1="59.12" y1="-13.295" x2="59.15" y2="-37.783" gradientUnits="userSpaceOnUse" gradientTransform="matrix(4.17478 0 0 4.16765-1069.7 447.73)"/><linearGradient gradientUnits="userSpaceOnUse" y2="354.29" x2="-704.05" y1="647.77" x1="-701.19" id="2"><stop stop-color="#9fd2fa"/><stop offset="1" stop-color="#cde8fe"/></linearGradient></defs><g transform="translate(-384.57-515.8)"><g transform="matrix(.0558 0 0 .0558 437.31 505.35)"><path d="m-884.1 294.78c-4.626 0-8.349 3.718-8.349 8.335v161.41l468.19 1v-121.2c0-4.618-3.724-8.335-8.35-8.335h-272.65c-8.51.751-9.607-.377-13.812-5.981-5.964-7.968-14.969-21.443-20.84-29.21-4.712-6.805-5.477-6.02-13.292-6.02z" fill="url(#0)" color="#000"/><rect y="356.85" x="-890.28" height="295.13" width="463.85" fill="url(#2)" stroke="url(#2)" stroke-width="2.378" rx="9.63"/><rect y="356.85" x="-890.28" height="295.13" width="463.85" fill="none" stroke="url(#3)" stroke-linejoin="round" stroke-linecap="round" stroke-width="5.376" rx="9.63"/></g><g transform="matrix(.5 0 0 .5 225.07 268.15)" fill-rule="evenodd"><path d="m363.98 540.15c-3.974-3.795-11.971-10.05-18.05-8.134-3.398 1.072-5.04 4.17-1.173 4.239 7.898.142 11.77-.416 19.224 3.895" fill="url(#4)"/><path d="m342.16 536.15c1.285-5.337 4.619-14.919 10.773-16.589 3.438-.934 6.503.782 3.284 2.932-6.565 4.385-10.124 6.01-14.06 13.657" fill="url(#5)"/><path d="m345.48 543.3c-3.523-4.215-9.234-12.604-6.903-18.53 1.302-3.311 4.51-4.741 4.317-.88-.394 7.875-1.216 11.693 2.586 19.409" fill="url(#6)"/></g></g></svg>