<svg xmlns="http://www.w3.org/2000/svg" xmlns:xlink="http://www.w3.org/1999/xlink" viewBox="0 0 32 32"><defs><linearGradient gradientUnits="userSpaceOnUse" y2="525.05" x2="403.76" y1="542.4" x1="404.33" id="3"><stop stop-color="#289bf7"/><stop offset="1" stop-color="#4caaf4"/></linearGradient><linearGradient xlink:href="#1" id="4" x1="400.65" y1="539.76" x2="400.56" y2="527.59" gradientUnits="userSpaceOnUse"/><linearGradient gradientUnits="userSpaceOnUse" y2="354.29" x2="-704.05" y1="647.77" x1="-701.19" id="2"><stop stop-color="#9fd2fa"/><stop offset="1" stop-color="#cde8fe"/></linearGradient><linearGradient xlink:href="#1" id="0" x1="59.12" y1="-13.295" x2="59.15" y2="-37.783" gradientUnits="userSpaceOnUse" gradientTransform="matrix(4.17478 0 0 4.16765-1069.7 447.73)"/><linearGradient id="1"><stop stop-color="#289bf7"/><stop offset="1" stop-color="#71b9f1"/></linearGradient></defs><g transform="translate(-384.57-515.84)"><path d="m-884.1 294.78c-4.626 0-8.349 3.718-8.349 8.335v161.41l468.19 1v-121.2c0-4.618-3.724-8.335-8.35-8.335h-272.65c-8.51.751-9.607-.377-13.812-5.981-5.964-7.968-14.969-21.443-20.84-29.21-4.712-6.805-5.477-6.02-13.292-6.02z" transform="matrix(.0558 0 0 .0558 437.31 505.35)" fill="url(#0)" color="#000"/><rect width="463.85" height="295.13" x="-890.28" y="356.85" transform="matrix(.0558 0 0 .0558 437.31 505.35)" fill="url(#2)" stroke="url(#2)" stroke-width="2.378" rx="9.63"/><rect width="25.884" height="16.469" x="387.63" y="525.26" fill="none" stroke="url(#3)" stroke-linejoin="round" stroke-linecap="round" stroke-width=".3" rx=".537"/><path d="m400.56 527.72c-.814 0-1.588.161-2.331.48-1.476.633-2.556 1.706-3.19 3.184-.318.74-.472 1.515-.472 2.329 0 .814.154 1.596.472 2.337.634 1.478 1.715 2.557 3.19 3.19.743.319 1.517.48 2.331.48.814 0 1.593-.163 2.337-.48 1.488-.635 2.563-1.715 3.196-3.19.319-.743.48-1.523.48-2.337 0-.814-.161-1.586-.48-2.329-.633-1.476-1.708-2.55-3.196-3.184-.744-.317-1.523-.48-2.337-.48m-.372 2.201c.306 0 .557.251.557.557v3.812l2.162 1.69c.25.186.288.538.102.779-.102.139-.27.212-.437.212-.121 0-.24-.046-.342-.12l-2.384-1.855c-.13-.102-.214-.26-.214-.437v-4.081c0-.306.251-.557.557-.557" opacity=".99" fill="url(#4)"/></g></svg>