<svg xmlns="http://www.w3.org/2000/svg" xmlns:xlink="http://www.w3.org/1999/xlink" viewBox="0 0 32 32"><defs><linearGradient gradientUnits="userSpaceOnUse" y2="352.98" x2="-601.15" y1="663.95" x1="-591.02" id="3"><stop stop-color="#289bf7"/><stop offset="1" stop-color="#4caaf4"/></linearGradient><linearGradient xlink:href="#1" id="4" x1="1762.05" y1="1644.32" x2="1724.85" y2="226.71" gradientUnits="userSpaceOnUse"/><linearGradient gradientUnits="userSpaceOnUse" y2="354.29" x2="-704.05" y1="647.77" x1="-701.19" id="2"><stop stop-color="#9fd2fa"/><stop offset="1" stop-color="#cde8fe"/></linearGradient><linearGradient xlink:href="#1" id="0" x1="59.12" y1="-13.295" x2="59.15" y2="-37.783" gradientUnits="userSpaceOnUse" gradientTransform="matrix(4.17478 0 0 4.16765-1069.7 447.73)"/><linearGradient id="1"><stop stop-color="#289bf7"/><stop offset="1" stop-color="#71b9f1"/></linearGradient></defs><g transform="matrix(.00788 0 0 .0078 2.409 10.112)" fill="#60aae5"><path d="m-884.1 294.78c-4.626 0-8.349 3.718-8.349 8.335v161.41l468.19 1v-121.2c0-4.618-3.724-8.335-8.35-8.335h-272.65c-8.51.751-9.607-.377-13.812-5.981-5.964-7.968-14.969-21.443-20.84-29.21-4.712-6.805-5.477-6.02-13.292-6.02z" transform="matrix(7.08422 0 0 7.15657 6390.02-2642.48)" fill="url(#0)" color="#000"/><rect width="463.85" height="295.13" x="-890.28" y="356.85" transform="matrix(7.08422 0 0 7.15657 6390.02-2642.48)" fill="url(#2)" stroke="url(#2)" stroke-width="2.378" rx="9.63"/><rect width="463.85" height="295.13" x="-890.28" y="356.85" transform="matrix(7.08422 0 0 7.15657 6390.02-2642.48)" fill="none" stroke="url(#3)" stroke-linejoin="round" stroke-linecap="round" stroke-width="5.376" rx="9.63"/><path d="m2471.63 955.19l-226.74-229.12c-21.602-21.791-14.868-45.09 14.899-51.863 0 0 24.588-5.602 54.872-36.2 65.02-65.65 64.957-172.24 0-237.8-65.05-65.68-170.41-65.68-235.42 0-30.32 30.594-35.8 55.4-35.8 55.4-6.703 30.13-29.828 36.873-51.37 15.02l-226.74-228.97c-21.571-21.822-56.914-21.822-78.48 0l-226.71 229c-21.541 21.853-14.868 45.21 14.899 51.955 0 0 24.618 5.602 54.872 36.13 64.927 65.65 65.02 172.18 0 237.89-64.988 65.65-170.5 65.59-235.42 0-30.25-30.625-35.8-55.46-35.8-55.46-6.672-30.1-29.828-36.843-51.4-15.05l-226.71 229.06c-21.571 21.791-21.571 57.43 0 79.22l226.71 229.06c21.571 21.792 14.868 45.15-14.899 51.924 0 0-24.588 5.602-54.872 36.2-65.02 65.68-65.02 172.15 0 237.8 64.988 65.62 170.41 65.68 235.42 0 30.32-30.594 35.8-55.4 35.8-55.4 6.703-30.13 29.828-36.873 51.37-15.02l226.74 228.96c21.571 21.822 56.914 21.822 78.48 0l226.77-229.03c21.571-21.792 14.868-45.21-14.899-51.924 0 0-24.649-5.602-54.903-36.13-65.05-65.68-65.02-172.18 0-237.89 64.988-65.65 170.41-65.71 235.42 0 30.28 30.595 35.769 55.46 35.769 55.46 6.703 30.1 29.797 36.904 51.4 15.11l226.74-229.12c21.571-21.791 21.571-57.43 0-79.22" fill="url(#4)"/></g></svg>