<svg xmlns="http://www.w3.org/2000/svg" xmlns:xlink="http://www.w3.org/1999/xlink" viewBox="0 0 32 32"><defs><linearGradient gradientUnits="userSpaceOnUse" y2="352.98" x2="-601.15" y1="663.95" x1="-591.02" id="3"><stop stop-color="#289bf7"/><stop offset="1" stop-color="#4caaf4"/></linearGradient><linearGradient xlink:href="#1" id="4" x1="399.1" y1="539.43" x2="399.46" y2="527.73" gradientUnits="userSpaceOnUse"/><linearGradient gradientUnits="userSpaceOnUse" y2="354.29" x2="-704.05" y1="647.77" x1="-701.19" id="2"><stop stop-color="#9fd2fa"/><stop offset="1" stop-color="#cde8fe"/></linearGradient><linearGradient xlink:href="#1" id="0" x1="59.12" y1="-13.295" x2="59.15" y2="-37.783" gradientUnits="userSpaceOnUse" gradientTransform="matrix(4.17478 0 0 4.16765-1069.7 447.73)"/><linearGradient id="1"><stop stop-color="#289bf7"/><stop offset="1" stop-color="#71b9f1"/></linearGradient></defs><g transform="translate(-384.57-515.8)"><g transform="matrix(.0558 0 0 .0558 437.31 505.35)"><path d="m-884.1 294.78c-4.626 0-8.349 3.718-8.349 8.335v161.41l468.19 1v-121.2c0-4.618-3.724-8.335-8.35-8.335h-272.65c-8.51.751-9.607-.377-13.812-5.981-5.964-7.968-14.969-21.443-20.84-29.21-4.712-6.805-5.477-6.02-13.292-6.02z" fill="url(#0)" color="#000"/><rect y="356.85" x="-890.28" height="295.13" width="463.85" fill="url(#2)" stroke="url(#2)" stroke-width="2.378" rx="9.63"/><rect y="356.85" x="-890.28" height="295.13" width="463.85" fill="none" stroke="url(#3)" stroke-linejoin="round" stroke-linecap="round" stroke-width="5.376" rx="9.63"/></g><path d="m399.46 527.73l.089.019c1.035-.344 3.358 1.01 2.841 2.216-.131.189-.109.526.049.738l-2.905 2.901c-.163-.162-.525-.159-.691 0l-4.804 4.603c-.438.42-.094.776.091.964l.862.86c.189.187.686.439 1.04.066l4.534-4.77c.158-.166.159-.522 0-.686 0 0 .002-.002 0-.002l2.917-2.91c.308.277.599.301.875.226.533-.146.83.375 1.149.755l-.144.141c-.213.215-.193.577.046.816.239.238.603.258.816.046l.953-.95c.213-.215.193-.577-.047-.815-.215-.216-.528-.244-.746-.09-.653-.732-.31-.842-1.172-1.794l-1.615-1.647c-1.163-1.138-2.673-1.137-4.137-.685" fill="url(#4)"/></g></svg>