<svg xmlns="http://www.w3.org/2000/svg" xmlns:xlink="http://www.w3.org/1999/xlink" viewBox="0 0 32 32"><defs><linearGradient gradientUnits="userSpaceOnUse" y2="525.05" x2="403.76" y1="542.4" x1="404.33" id="3"><stop stop-color="#289bf7"/><stop offset="1" stop-color="#4caaf4"/></linearGradient><linearGradient xlink:href="#1" id="4" x1="400.38" y1="538.35" x2="400.56" y2="528.06" gradientUnits="userSpaceOnUse"/><linearGradient gradientUnits="userSpaceOnUse" y2="354.29" x2="-704.05" y1="647.77" x1="-701.19" id="2"><stop stop-color="#9fd2fa"/><stop offset="1" stop-color="#cde8fe"/></linearGradient><linearGradient xlink:href="#1" id="0" x1="59.12" y1="-13.295" x2="59.15" y2="-37.783" gradientUnits="userSpaceOnUse" gradientTransform="matrix(4.17478 0 0 4.16765-1069.7 447.73)"/><linearGradient id="1"><stop stop-color="#289bf7"/><stop offset="1" stop-color="#71b9f1"/></linearGradient></defs><g transform="translate(-384.57-515.84)"><path d="m-884.1 294.78c-4.626 0-8.349 3.718-8.349 8.335v161.41l468.19 1v-121.2c0-4.618-3.724-8.335-8.35-8.335h-272.65c-8.51.751-9.607-.377-13.812-5.981-5.964-7.968-14.969-21.443-20.84-29.21-4.712-6.805-5.477-6.02-13.292-6.02z" transform="matrix(.0558 0 0 .0558 437.31 505.35)" fill="url(#0)" color="#000"/><rect width="463.85" height="295.13" x="-890.28" y="356.85" transform="matrix(.0558 0 0 .0558 437.31 505.35)" fill="url(#2)" stroke="url(#2)" stroke-width="2.378" rx="9.63"/><rect width="25.884" height="16.469" x="387.63" y="525.26" fill="none" stroke="url(#3)" stroke-linejoin="round" stroke-linecap="round" stroke-width=".3" rx=".537"/><path d="m394.63 530.36c.178.161.411.25.654.25.156 0 .31-.038.447-.109.05-.026.099-.057.144-.092l.278-.213.742.693c.019.018.045.028.07.028.003 0 .006 0 .001 0 .029-.003.056-.018.074-.042.187-.257.408-.494.658-.704.023-.019.036-.047.037-.076.002-.03-.011-.058-.033-.078l-.76-.709.177-.288c.246-.4.171-.919-.178-1.234-.178-.161-.411-.249-.655-.249-.156 0-.31.038-.447.108-.103.054-.195.125-.274.213-.127.14-.209.314-.238.501l-.041.268-.262.069c-.183.048-.347.148-.474.289-.174.193-.263.443-.249.703.014.26.127.499.321.673m3.323 6.209v-.754c0-.028-.012-.055-.032-.075-.02-.019-.048-.03-.076-.029-.077.003-.153-.009-.225-.037-.037-.014-.079-.006-.107.021l-1.262 1.179-.278-.213c-.046-.035-.094-.066-.144-.092-.137-.071-.291-.109-.447-.109-.243 0-.476.088-.654.249-.193.174-.307.413-.321.673-.014.26.075.51.249.703.127.141.291.24.474.288l.263.068.041.269c.029.187.111.361.238.502.078.087.171.159.274.212.137.071.291.108.447.108.244 0 .476-.088.654-.249.193-.174.307-.413.321-.674.001-.199-.039-.392-.142-.56l-.178-.288.907-.847c.028-.026.039-.065.029-.102-.021-.081-.032-.164-.032-.247m8.637-7.585c-.127-.141-.291-.241-.474-.289l-.262-.069-.041-.268c-.029-.188-.111-.361-.238-.501-.079-.087-.171-.159-.274-.213-.136-.071-.291-.108-.447-.108-.244 0-.476.088-.655.249-.349.315-.424.834-.178 1.234l.177.288-.759.71c-.022.02-.034.048-.033.078.002.03.014.057.037.076.249.21.471.447.658.704.017.024.044.039.074.042.003 0 .006 0 .001 0 .026 0 .051-.001.07-.028l.742-.693.278.213c.046.035.094.066.144.092.137.071.291.109.447.109.243 0 .476-.089.654-.25.193-.174.307-.413.321-.673.014-.26-.075-.509-.249-.703m-.171 7.727c-.178-.161-.41-.249-.654-.249-.156 0-.31.038-.447.109-.05.026-.098.057-.144.092l-.278.213-1.262-1.179c-.029-.027-.071-.035-.108-.021-.072.028-.148.04-.225.037-.028-.002-.056.009-.076.029-.02.019-.032.047-.032.075v.754c0 .083-.011.166-.032.247-.001.037.002.076.029.102l.907.847-.178.288c-.103.168-.153.361-.142.56.014.26.128.499.321.674.178.161.41.249.654.249.156 0 .31-.038.447-.108.103-.054.195-.125.274-.212.127-.141.209-.315.238-.502l.041-.269.263-.068c.183-.048.347-.147.474-.288.174-.194.263-.444.249-.703-.013-.26-.127-.499-.321-.673m-3.159-1.413c.044.006.088-.008.119-.04.618-.626.958-1.433.958-2.271 0-1.871-1.681-3.398-3.763-3.435-2.082.037-3.763 1.563-3.763 3.435 0 .838.34 1.645.958 2.271.031.031.075.046.119.04.044-.006.082-.033.103-.072l.338-.631c.001-.019.031-.028.052-.023.021.005.035.024.035.045v1.953c0 .219.126.423.322.52.379.187.999.408 1.836.429.837-.021 1.457-.242 1.836-.429.196-.097.322-.301.322-.52v-1.953c0-.021.014-.04.035-.045.021-.005.042.005.052.023l.338.631c.021.039.059.066.103.072m-3.968-1.42c-.528 0-.957-.511-.957-1.139 0-.144.118-.262.262-.262h1.39c.145 0 .262.118.263.263 0 .627-.43 1.137-.957 1.137m1.936 1.271l-.268.231c-.014.012-.035.015-.052.006l-.288-.151c-.038-.02-.055-.02-.093 0l-.288.151c-.017.008-.038.006-.052-.006l-.268-.231c-.019-.017-.022-.046-.005-.065l.528-.613c.079-.092.182-.092.261 0l.528.613c.017.019.015.049-.005.065m.628-1.271c-.528 0-.957-.51-.957-1.137 0-.145.118-.263.263-.263h1.39c.145 0 .262.117.262.262 0 .628-.429 1.139-.957 1.139" fill="url(#4)"/></g></svg>