<svg xmlns="http://www.w3.org/2000/svg" xmlns:xlink="http://www.w3.org/1999/xlink" viewBox="0 0 32 32"><defs><linearGradient gradientUnits="userSpaceOnUse" y2="-13.612" x2="69.2" y1="104.2" x1="73.04" id="3"><stop stop-color="#289bf7"/><stop offset="1" stop-color="#4caaf4"/></linearGradient><linearGradient xlink:href="#1" id="4" x1="46.724" y1="84.21" x2="47.46" y2="2.502" gradientUnits="userSpaceOnUse"/><linearGradient gradientUnits="userSpaceOnUse" y2="354.29" x2="-704.05" y1="647.77" x1="-701.19" id="2"><stop stop-color="#9fd2fa"/><stop offset="1" stop-color="#cde8fe"/></linearGradient><linearGradient xlink:href="#1" id="0" x1="59.12" y1="-13.295" x2="59.15" y2="-37.783" gradientUnits="userSpaceOnUse" gradientTransform="matrix(4.17478 0 0 4.16765-1069.7 447.73)"/><linearGradient id="1"><stop stop-color="#289bf7"/><stop offset="1" stop-color="#71b9f1"/></linearGradient></defs><g transform="matrix(.1473 0 0 .1473 9 11.213)" fill="#6a98ca"><path d="m-884.1 294.78c-4.626 0-8.349 3.718-8.349 8.335v161.41l468.19 1v-121.2c0-4.618-3.724-8.335-8.35-8.335h-272.65c-8.51.751-9.607-.377-13.812-5.981-5.964-7.968-14.969-21.443-20.84-29.21-4.712-6.805-5.477-6.02-13.292-6.02z" transform="matrix(.37883 0 0 .37883 296.93-147.34)" fill="url(#0)" color="#000"/><rect width="463.85" height="295.13" x="-890.28" y="356.85" transform="matrix(.37883 0 0 .37883 296.93-147.34)" fill="url(#2)" stroke="url(#2)" stroke-width="2.378" rx="9.63"/><rect width="175.72" height="111.8" x="-40.34" y="-12.154" fill="none" stroke="url(#3)" stroke-linejoin="round" stroke-linecap="round" stroke-width="2.037" rx="3.648"/><path d="m93.23 21.484c-1.104-.507-2.408-.324-3.33.471l-18.385 15.83v-18.05c0-1.778-1.447-3.226-3.226-3.226h-65.06c-1.778 0-3.225 1.447-3.225 3.226v51.51c0 1.777 1.446 3.226 3.225 3.226h65.06c1.777 0 3.227-1.446 3.227-3.226v-18.05l18.385 15.829c.922.796 2.228.978 3.33.472 1.106-.508 1.815-1.613 1.815-2.832v-42.34c-.0001-1.218-.709-2.323-1.817-2.831" fill="url(#4)"/></g></svg>