<?xml version="1.0" encoding="UTF-8" standalone="no"?>
<!-- Created with Inkscape (http://www.inkscape.org/) -->

<svg
   xmlns:dc="http://purl.org/dc/elements/1.1/"
   xmlns:cc="http://creativecommons.org/ns#"
   xmlns:rdf="http://www.w3.org/1999/02/22-rdf-syntax-ns#"
   xmlns:svg="http://www.w3.org/2000/svg"
   xmlns="http://www.w3.org/2000/svg"
   xmlns:xlink="http://www.w3.org/1999/xlink"
   xmlns:sodipodi="http://sodipodi.sourceforge.net/DTD/sodipodi-0.dtd"
   xmlns:inkscape="http://www.inkscape.org/namespaces/inkscape"
   width="32"
   height="32"
   id="svg5453"
   version="1.1"
   inkscape:version="0.91 r13725"
   sodipodi:docname="folder-vbox.svg">
  <defs
     id="defs5455">
    <linearGradient
       inkscape:collect="always"
       xlink:href="#linearGradient4193"
       id="linearGradient4534"
       x1="59.12455"
       y1="-13.294993"
       x2="59.148849"
       y2="-37.783325"
       gradientUnits="userSpaceOnUse"
       gradientTransform="matrix(4.1747839,0,0,4.1676538,-1069.6998,447.73055)" />
    <linearGradient
       inkscape:collect="always"
       id="linearGradient4193">
      <stop
         style="stop-color:#289bf7;stop-opacity:1"
         offset="0"
         id="stop4195" />
      <stop
         style="stop-color:#71b9f1;stop-opacity:1"
         offset="1"
         id="stop4197" />
    </linearGradient>
    <linearGradient
       gradientTransform="matrix(7.9277484,0,0,7.9277484,-1273.2754,-154.3544)"
       gradientUnits="userSpaceOnUse"
       y2="64.160583"
       x2="71.801933"
       y1="101.17968"
       x1="72.161911"
       id="linearGradient4284-7-0"
       xlink:href="#linearGradient4314"
       inkscape:collect="always" />
    <linearGradient
       inkscape:collect="always"
       id="linearGradient4314">
      <stop
         style="stop-color:#9fd2fa;stop-opacity:1"
         offset="0"
         id="stop4316" />
      <stop
         style="stop-color:#cde8fe;stop-opacity:1"
         offset="1"
         id="stop4318" />
    </linearGradient>
    <linearGradient
       gradientTransform="matrix(7.9277471,0,0,7.9277471,-2010.8435,-3045.4453)"
       gradientUnits="userSpaceOnUse"
       y2="428.6745"
       x2="177.81706"
       y1="467.90091"
       x1="179.09601"
       id="linearGradient4284-7-0-1"
       xlink:href="#linearGradient4308"
       inkscape:collect="always" />
    <linearGradient
       id="linearGradient4308"
       inkscape:collect="always">
      <stop
         id="stop4310"
         offset="0"
         style="stop-color:#289bf7;stop-opacity:1" />
      <stop
         id="stop4312"
         offset="1"
         style="stop-color:#4caaf4;stop-opacity:1" />
    </linearGradient>
    <linearGradient
       inkscape:collect="always"
       xlink:href="#linearGradient4193"
       id="linearGradient4453"
       x1="400.41687"
       y1="539.7041"
       x2="400.55521"
       y2="527.62189"
       gradientUnits="userSpaceOnUse" />
  </defs>
  <sodipodi:namedview
     id="base"
     pagecolor="#ffffff"
     bordercolor="#666666"
     borderopacity="1.0"
     inkscape:pageopacity="0"
     inkscape:pageshadow="2"
     inkscape:zoom="15"
     inkscape:cx="-1.097974"
     inkscape:cy="16.914865"
     inkscape:document-units="px"
     inkscape:current-layer="layer1"
     showgrid="true"
     fit-margin-top="0"
     fit-margin-left="0"
     fit-margin-right="0"
     fit-margin-bottom="0"
     inkscape:window-width="1366"
     inkscape:window-height="687"
     inkscape:window-x="0"
     inkscape:window-y="0"
     inkscape:window-maximized="1"
     inkscape:showpageshadow="false"
     borderlayer="true"
     showguides="true"
     inkscape:guide-bbox="true"
     inkscape:object-nodes="true"
     inkscape:snap-bbox="true">
    <inkscape:grid
       type="xygrid"
       id="grid4063" />
    <sodipodi:guide
       position="2.0000117,30.000026"
       orientation="28,0"
       id="guide4167" />
    <sodipodi:guide
       position="17,5"
       orientation="0,28"
       id="guide4169" />
    <sodipodi:guide
       position="30.000012,2.0000264"
       orientation="-28,0"
       id="guide4171" />
    <sodipodi:guide
       position="30.000012,30.000026"
       orientation="0,-28"
       id="guide4173" />
    <sodipodi:guide
       position="2.0000117,30.000026"
       orientation="28,0"
       id="guide4181" />
    <sodipodi:guide
       position="16.000012,30.000026"
       orientation="0,-14"
       id="guide4187" />
    <sodipodi:guide
       position="5.0000117,30.000026"
       orientation="28,0"
       id="guide4143" />
    <sodipodi:guide
       position="5.0000117,2.0000264"
       orientation="0,22"
       id="guide4145" />
    <sodipodi:guide
       position="27.000012,2.0000264"
       orientation="-28,0"
       id="guide4147" />
    <sodipodi:guide
       position="27.000012,30.000026"
       orientation="0,-22"
       id="guide4149" />
    <sodipodi:guide
       position="27,30"
       orientation="0,-7"
       id="guide4155" />
    <sodipodi:guide
       position="27.00001,23"
       orientation="-7,-1e-05"
       id="guide4162" />
    <sodipodi:guide
       position="24,27"
       orientation="0,1"
       id="guide3378" />
  </sodipodi:namedview>
  <metadata
     id="metadata5458">
    <rdf:RDF>
      <cc:Work
         rdf:about="">
        <dc:format>image/svg+xml</dc:format>
        <dc:type
           rdf:resource="http://purl.org/dc/dcmitype/StillImage" />
        <dc:title />
      </cc:Work>
    </rdf:RDF>
  </metadata>
  <g
     inkscape:label="Capa 1"
     inkscape:groupmode="layer"
     id="layer1"
     transform="translate(-384.57143,-515.798)">
    <g
       transform="translate(-1.6146091e-6,-0.04181819)"
       id="g4458">
      <path
         style="color:#000000;display:inline;overflow:visible;visibility:visible;fill:url(#linearGradient4534);fill-opacity:1;fill-rule:nonzero;stroke:none;stroke-width:0.99992168;stroke-opacity:1;marker:none;enable-background:accumulate"
         id="rect8678-4-5-5-9"
         inkscape:connector-curvature="0"
         d="m -884.09987,294.78348 c -4.62566,0 -8.34918,3.71755 -8.34918,8.33531 l 0,161.40825 468.19182,1.00001 0,-121.19727 c 0,-4.61776 -3.7239,-8.3353 -8.34956,-8.3353 l -272.65225,0 c -8.5104,0.75134 -9.60667,-0.37701 -13.8121,-5.98088 -5.9637,-7.96762 -14.96889,-21.44253 -20.83998,-29.21462 -4.71246,-6.80467 -5.47678,-6.0155 -13.29224,-6.0155 z"
         sodipodi:nodetypes="scccssccccs"
         transform="matrix(0.05580183,0,0,0.05580183,437.30872,505.3501)" />
      <rect
         style="opacity:1;fill:url(#linearGradient4284-7-0);fill-opacity:1;stroke:url(#linearGradient4284-7-0);stroke-width:2.37832451;stroke-linecap:butt;stroke-linejoin:miter;stroke-miterlimit:4;stroke-dasharray:none;stroke-opacity:1"
         id="rect4158-4-0"
         width="463.84714"
         height="295.12872"
         x="-890.27637"
         y="356.84882"
         ry="9.629776"
         transform="matrix(0.05580183,0,0,0.05580183,437.30872,505.3501)" />
      <rect
         style="opacity:1;fill:none;fill-opacity:1;stroke:url(#linearGradient4284-7-0-1);stroke-width:5.37616777;stroke-linecap:round;stroke-linejoin:round;stroke-miterlimit:4;stroke-dasharray:none;stroke-opacity:1"
         id="rect4158-4-0-3"
         width="463.84711"
         height="295.12872"
         x="-890.27631"
         y="356.84882"
         ry="9.629776"
         transform="matrix(0.05580183,0,0,0.05580183,437.30872,505.3501)" />
      <path
         id="path3340-0"
         d="m 400.57099,527.623 a 6.0001274,6.0001274 0 0 0 -5.99956,6.00044 6.0001274,6.0001274 0 0 0 5.99956,5.99956 6.0001274,6.0001274 0 0 0 6.00044,-5.99956 6.0001274,6.0001274 0 0 0 -6.00044,-6.00044 z m 1.51448,2.6719 c 0.0221,9.9e-4 0.0482,0.0108 0.0688,0.0174 0.10572,0.0302 0.19541,0.12096 0.22556,0.22729 l 1.09298,3.98085 0.57304,-0.77684 c 0.0584,-0.0864 0.14699,-0.14612 0.25082,-0.14892 l 0.42499,0 0.19159,0 0.0164,0 c 0.0126,0 0.026,0.0136 0.026,0.026 l 0,0.61136 c 0,0.0125 -0.0127,0.0174 -0.0252,0.0174 l -0.0174,0 -0.19159,0 -0.25953,0 -0.84128,1.16961 c -0.14398,0.18959 -0.50311,0.12351 -0.57305,-0.10452 l -0.99716,-3.54454 -0.68539,2.26084 c -0.042,0.12847 -0.1775,0.21578 -0.31179,0.2186 l -0.47724,0 -0.0958,0 -0.23429,0 -0.0862,0 -0.24297,0 -0.92837,3.07249 c -0.0464,0.1666 -0.24288,0.27695 -0.40758,0.22731 -0.10572,-0.0304 -0.19542,-0.12094 -0.22555,-0.22731 l -1.10169,-3.98868 -0.56347,0.77684 c -0.0584,0.0865 -0.15657,0.13654 -0.2604,0.13935 l -0.41628,0 -0.20814,0 -0.026,0 c -0.0125,0 -0.0174,-0.005 -0.0174,-0.0174 l 0,-0.61137 c 0,-0.0126 0.005,-0.0262 0.0174,-0.026 l 0.026,0 0.20814,0 0.26039,0 0.84128,-1.15218 c 0.14399,-0.18954 0.50226,-0.1234 0.57219,0.10452 l 0.98934,3.54453 0.69321,-2.26955 c 0.042,-0.12847 0.16966,-0.2245 0.30395,-0.2273 l 0.48595,0 0.0862,0 0.23429,0 0.0958,0 0.23428,0 0.93619,-3.05509 c 0.0349,-0.12493 0.15138,-0.21868 0.27782,-0.23601 0.0211,-0.002 0.0389,-0.008 0.061,-0.008 z"
         style="opacity:1;fill:url(#linearGradient4453);fill-opacity:1;stroke:none;stroke-width:5.23831511;stroke-linecap:butt;stroke-linejoin:miter;stroke-miterlimit:4;stroke-dasharray:none;stroke-dashoffset:0;stroke-opacity:1"
         inkscape:connector-curvature="0" />
    </g>
  </g>
</svg>
