<svg xmlns="http://www.w3.org/2000/svg" xmlns:xlink="http://www.w3.org/1999/xlink" viewBox="0 0 32 32"><defs><linearGradient gradientUnits="userSpaceOnUse" y2="524.84" x2="395.68" y1="546.94" x1="396.4" id="3"><stop stop-color="#289bf7"/><stop offset="1" stop-color="#4caaf4"/></linearGradient><linearGradient xlink:href="#1" id="4" x1="391.64" y1="543.7" x2="391.65" y2="528.07" gradientUnits="userSpaceOnUse"/><linearGradient gradientUnits="userSpaceOnUse" y2="354.29" x2="-704.05" y1="647.77" x1="-701.19" id="2"><stop stop-color="#9fd2fa"/><stop offset="1" stop-color="#cde8fe"/></linearGradient><linearGradient xlink:href="#1" id="0" x1="59.12" y1="-13.295" x2="59.15" y2="-37.783" gradientUnits="userSpaceOnUse" gradientTransform="matrix(4.17478 0 0 4.16765-1069.7 447.73)"/><linearGradient id="1"><stop stop-color="#289bf7"/><stop offset="1" stop-color="#71b9f1"/></linearGradient></defs><g transform="matrix(.78516 0 0 .78516-291.48-402.88)" fill="#60aae5" stroke="#60aae5" stroke-width=".102"><path d="m-884.1 294.78c-4.626 0-8.349 3.718-8.349 8.335v161.41l468.19 1v-121.2c0-4.618-3.724-8.335-8.35-8.335h-272.65c-8.51.751-9.607-.377-13.812-5.981-5.964-7.968-14.969-21.443-20.84-29.21-4.712-6.805-5.477-6.02-13.292-6.02z" transform="matrix(.07107 0 0 .07107 438.4 499.76)" fill="url(#0)" stroke="none" color="#000"/><rect width="463.85" height="295.13" x="-890.28" y="356.85" transform="matrix(.07107 0 0 .07107 438.4 499.76)" fill="url(#2)" stroke="url(#2)" stroke-width="2.378" rx="9.63"/><rect width="32.966" height="20.975" x="375.13" y="525.12" fill="none" stroke="url(#3)" stroke-linejoin="round" stroke-linecap="round" stroke-width=".382" rx=".684"/><path d="m391.65 528.07q3.324 0 5.594 2.29 2.27 2.29 2.27 5.533 0 1.824-.79 3.02-.77 1.196-2.25 1.196-1.52 0-2.27-1.48-.993 1.48-2.837 1.48-1.662 0-2.797-1.155-1.135-1.176-1.135-2.979 0-1.784 1.135-2.959 1.135-1.176 2.716-1.176 1.561 0 2.594 1.196h.081v-.912h1.459v5.29q0 .527.284.953.304.426.912.426 1.439 0 1.439-2.898 0-2.675-1.865-4.52-1.865-1.844-4.54-1.844-2.675 0-4.54 1.844-1.865 1.844-1.865 4.52 0 2.675 1.865 4.52 1.865 1.844 4.54 1.844 1.439 0 2.574-.567l.567 1.378q-1.419.649-3.141.649-3.364 0-5.655-2.27-2.29-2.29-2.29-5.553 0-3.243 2.29-5.533 2.31-2.29 5.655-2.29m-1.885 9.789q.73.709 1.743.709 1.013 0 1.723-.709.73-.709.73-1.885 0-1.176-.73-1.885-.709-.709-1.723-.709-1.013 0-1.743.709-.709.709-.709 1.885 0 1.176.709 1.885" fill="url(#4)" stroke="none"/></g></svg>