<?xml version="1.0" encoding="UTF-8" standalone="no"?>
<!-- Created with Inkscape (http://www.inkscape.org/) -->

<svg
   xmlns:dc="http://purl.org/dc/elements/1.1/"
   xmlns:cc="http://creativecommons.org/ns#"
   xmlns:rdf="http://www.w3.org/1999/02/22-rdf-syntax-ns#"
   xmlns:svg="http://www.w3.org/2000/svg"
   xmlns="http://www.w3.org/2000/svg"
   xmlns:xlink="http://www.w3.org/1999/xlink"
   xmlns:sodipodi="http://sodipodi.sourceforge.net/DTD/sodipodi-0.dtd"
   xmlns:inkscape="http://www.inkscape.org/namespaces/inkscape"
   width="32"
   height="32"
   id="svg5453"
   version="1.1"
   inkscape:version="0.91 r13725"
   sodipodi:docname="user-desktop.svg">
  <defs
     id="defs5455">
    <linearGradient
       inkscape:collect="always"
       xlink:href="#linearGradient4193"
       id="linearGradient4534"
       x1="59.12455"
       y1="-13.294993"
       x2="59.148849"
       y2="-37.783325"
       gradientUnits="userSpaceOnUse"
       gradientTransform="matrix(4.1747839,0,0,4.1676538,-1069.6998,447.73055)" />
    <linearGradient
       inkscape:collect="always"
       id="linearGradient4193">
      <stop
         style="stop-color:#289bf7;stop-opacity:1"
         offset="0"
         id="stop4195" />
      <stop
         style="stop-color:#71b9f1;stop-opacity:1"
         offset="1"
         id="stop4197" />
    </linearGradient>
    <linearGradient
       gradientTransform="matrix(7.9277484,0,0,7.9277484,-1273.2754,-154.3544)"
       gradientUnits="userSpaceOnUse"
       y2="64.160583"
       x2="71.801933"
       y1="101.17968"
       x1="72.161911"
       id="linearGradient4284-7-0"
       xlink:href="#linearGradient4314"
       inkscape:collect="always" />
    <linearGradient
       inkscape:collect="always"
       id="linearGradient4314">
      <stop
         style="stop-color:#9fd2fa;stop-opacity:1"
         offset="0"
         id="stop4316" />
      <stop
         style="stop-color:#cde8fe;stop-opacity:1"
         offset="1"
         id="stop4318" />
    </linearGradient>
    <linearGradient
       gradientTransform="matrix(7.9277471,0,0,7.9277471,-2010.8435,-3045.4453)"
       gradientUnits="userSpaceOnUse"
       y2="428.6745"
       x2="177.81706"
       y1="467.90091"
       x1="179.09601"
       id="linearGradient4284-7-0-1"
       xlink:href="#linearGradient4308"
       inkscape:collect="always" />
    <linearGradient
       id="linearGradient4308"
       inkscape:collect="always">
      <stop
         id="stop4310"
         offset="0"
         style="stop-color:#289bf7;stop-opacity:1" />
      <stop
         id="stop4312"
         offset="1"
         style="stop-color:#4caaf4;stop-opacity:1" />
    </linearGradient>
    <linearGradient
       inkscape:collect="always"
       xlink:href="#linearGradient4193"
       id="linearGradient4891"
       x1="232.53448"
       y1="114.57373"
       x2="236.287"
       y2="-347.18533"
       gradientUnits="userSpaceOnUse"
       gradientTransform="translate(-18.889857,3.7719734)" />
  </defs>
  <sodipodi:namedview
     id="base"
     pagecolor="#ffffff"
     bordercolor="#666666"
     borderopacity="1.0"
     inkscape:pageopacity="0"
     inkscape:pageshadow="2"
     inkscape:zoom="15"
     inkscape:cx="15.133333"
     inkscape:cy="16.981531"
     inkscape:document-units="px"
     inkscape:current-layer="g4896"
     showgrid="true"
     fit-margin-top="0"
     fit-margin-left="0"
     fit-margin-right="0"
     fit-margin-bottom="0"
     inkscape:window-width="1366"
     inkscape:window-height="687"
     inkscape:window-x="0"
     inkscape:window-y="0"
     inkscape:window-maximized="1"
     inkscape:showpageshadow="false"
     borderlayer="true"
     showguides="true"
     inkscape:guide-bbox="true"
     inkscape:object-nodes="true"
     inkscape:snap-bbox="true">
    <inkscape:grid
       type="xygrid"
       id="grid4063" />
    <sodipodi:guide
       position="2.0000117,30.000026"
       orientation="28,0"
       id="guide4167" />
    <sodipodi:guide
       position="17,5"
       orientation="0,28"
       id="guide4169" />
    <sodipodi:guide
       position="30.000012,2.0000264"
       orientation="-28,0"
       id="guide4171" />
    <sodipodi:guide
       position="30.000012,30.000026"
       orientation="0,-28"
       id="guide4173" />
    <sodipodi:guide
       position="2.0000117,30.000026"
       orientation="28,0"
       id="guide4181" />
    <sodipodi:guide
       position="16.000012,30.000026"
       orientation="0,-14"
       id="guide4187" />
    <sodipodi:guide
       position="5.0000117,30.000026"
       orientation="28,0"
       id="guide4143" />
    <sodipodi:guide
       position="5.0000117,2.0000264"
       orientation="0,22"
       id="guide4145" />
    <sodipodi:guide
       position="27.000012,2.0000264"
       orientation="-28,0"
       id="guide4147" />
    <sodipodi:guide
       position="27.000012,30.000026"
       orientation="0,-22"
       id="guide4149" />
    <sodipodi:guide
       position="27,30"
       orientation="0,-7"
       id="guide4155" />
    <sodipodi:guide
       position="27.00001,23"
       orientation="-7,-1e-05"
       id="guide4162" />
    <sodipodi:guide
       position="24,27"
       orientation="0,1"
       id="guide3378" />
  </sodipodi:namedview>
  <metadata
     id="metadata5458">
    <rdf:RDF>
      <cc:Work
         rdf:about="">
        <dc:format>image/svg+xml</dc:format>
        <dc:type
           rdf:resource="http://purl.org/dc/dcmitype/StillImage" />
        <dc:title />
      </cc:Work>
    </rdf:RDF>
  </metadata>
  <g
     inkscape:label="Capa 1"
     inkscape:groupmode="layer"
     id="layer1"
     transform="translate(-384.57143,-515.798)">
    <g
       id="g4187"
       transform="matrix(0.7863692,0,0,0.78394543,93.325829,112.35451)">
      <g
         transform="matrix(0.03365071,0,0,0.03375476,382.74309,541.33976)"
         style="fill:#60aa5f;fill-opacity:1"
         id="g4896">
        <path
           style="color:#000000;display:inline;overflow:visible;visibility:visible;fill:url(#linearGradient4534);fill-opacity:1;fill-rule:nonzero;stroke:none;stroke-width:0.99992168;stroke-opacity:1;marker:none;enable-background:accumulate"
           id="rect8678-4-5-5-9"
           inkscape:connector-curvature="0"
           d="m -884.09987,294.78348 c -4.62566,0 -8.34918,3.71755 -8.34918,8.33531 l 0,161.40825 468.19182,1.00001 0,-121.19727 c 0,-4.61776 -3.7239,-8.3353 -8.34956,-8.3353 l -272.65225,0 c -8.5104,0.75134 -9.60667,-0.37701 -13.8121,-5.98088 -5.9637,-7.96762 -14.96889,-21.44253 -20.83998,-29.21462 -4.71246,-6.80467 -5.47678,-6.0155 -13.29224,-6.0155 z"
           sodipodi:nodetypes="scccssccccs"
           transform="matrix(2.1087629,0,0,2.1087622,1625.1872,-1187.6348)" />
        <rect
           style="opacity:1;fill:url(#linearGradient4284-7-0);fill-opacity:1;stroke:url(#linearGradient4284-7-0);stroke-width:2.37832451;stroke-linecap:butt;stroke-linejoin:miter;stroke-miterlimit:4;stroke-dasharray:none;stroke-opacity:1"
           id="rect4158-4-0"
           width="463.84714"
           height="295.12872"
           x="-890.27637"
           y="356.84882"
           ry="9.629776"
           transform="matrix(2.1087629,0,0,2.1087622,1625.1872,-1187.6348)" />
        <rect
           style="opacity:1;fill:none;fill-opacity:1;stroke:url(#linearGradient4284-7-0-1);stroke-width:5.37616777;stroke-linecap:round;stroke-linejoin:round;stroke-miterlimit:4;stroke-dasharray:none;stroke-opacity:1"
           id="rect4158-4-0-3"
           width="463.84711"
           height="295.12872"
           x="-890.27631"
           y="356.84882"
           ry="9.629776"
           transform="matrix(2.1087629,0,0,2.1087622,1625.1872,-1187.6348)" />
        <path
           inkscape:connector-curvature="0"
           id="path5692_1_-1"
           style="fill:url(#linearGradient4891);fill-opacity:1"
           d="m 253.57685,-340.20006 -75.36569,7.2467 0,310.480872 74.5605,-11.272645 0,-132.373077 100.32655,146.866478 78.58643,-24.960858 -102.7421,-141.23015 103.54729,-133.17826 -80.19681,-18.35831 -99.52136,133.17826 0.80519,-136.39901 z M 82.715743,-264.5123 c -0.85221,0.0879 -1.773994,0.32336 -2.415569,0.96623 l -29.630954,29.63095 c -1.244495,1.24835 -1.39651,3.15893 -0.483114,4.6701 l 34.623127,57.16842 c -6.147748,10.33469 -11.139972,21.42066 -14.65444,33.17378 l -63.6099297,13.2051 c -1.7701217,0.36588 -3.0597177,2.05099 -3.0597177,3.86491 l 0,41.869829 c 0,1.770117 1.346271,3.286444 3.0597177,3.703869 l 61.6774757,14.976515 c 3.298034,13.606978 8.393337,26.627989 15.137554,38.488034 L 47.609501,31.636212 c -0.99714,1.520197 -0.802591,3.54799 0.483114,4.831134 l 29.630955,29.63096 c 1.248344,1.244449 3.162787,1.400333 4.670093,0.482856 L 138.43483,32.602181 c 10.99174,6.346142 22.89192,11.429819 35.42831,14.815478 L 186.9072,110.2224 c 0.36588,1.77528 1.89125,3.05972 3.70387,3.05972 l 41.86983,0 c 1.75724,0 3.28647,-1.18008 3.70387,-2.89868 L 251.6444,47.256621 c 12.92932,-3.486126 25.11937,-8.661314 36.39454,-15.298591 l 55.23596,36.23351 c 1.52277,0.991993 3.54026,0.800036 4.83114,-0.482856 l 29.46991,-29.63096 c 1.25222,-1.249632 1.56141,-3.162787 0.64416,-4.670096 L 358.09038,0.23384221 351.48783,2.3273336 c -0.95335,0.293733 -2.00977,-0.13656 -2.5766,-0.9662268 -10e-6,-5.1e-6 -12.71562,-18.7050118 -29.30888,-42.9970918 -19.84489,38.8317732 -60.31602,65.381345 -106.9291,65.381345 -66.2364,-1e-5 -119.973162,-53.736762 -119.973162,-119.973159 0,-48.722031 29.135192,-90.569061 70.856632,-109.344671 l 0,-30.91925 c -7.59321,2.65774 -14.92888,5.86435 -21.90114,9.66226 -0.0129,-0.008 0.0129,-0.1533 0,-0.16103 l -56.524263,-37.0387 c -0.760104,-0.49728 -1.563364,-0.57104 -2.415574,-0.48311 z" />
      </g>
    </g>
  </g>
</svg>
