<svg xmlns="http://www.w3.org/2000/svg" xmlns:xlink="http://www.w3.org/1999/xlink" viewBox="0 0 32 32"><defs><linearGradient gradientUnits="userSpaceOnUse" y2="-443.29" x2="357.5" y1="212.49" x1="378.88" id="3"><stop stop-color="#289bf7"/><stop offset="1" stop-color="#4caaf4"/></linearGradient><linearGradient xlink:href="#1" id="4" x1="213.64" y1="118.35" x2="217.4" y2="-343.41" gradientUnits="userSpaceOnUse"/><linearGradient gradientUnits="userSpaceOnUse" y2="354.29" x2="-704.05" y1="647.77" x1="-701.19" id="2"><stop stop-color="#9fd2fa"/><stop offset="1" stop-color="#cde8fe"/></linearGradient><linearGradient xlink:href="#1" id="0" x1="59.12" y1="-13.295" x2="59.15" y2="-37.783" gradientUnits="userSpaceOnUse" gradientTransform="matrix(4.17478 0 0 4.16765-1069.7 447.73)"/><linearGradient id="1"><stop stop-color="#289bf7"/><stop offset="1" stop-color="#71b9f1"/></linearGradient></defs><g transform="matrix(.02646 0 0 .02646 9.729 20.942)" fill="#60aa5f"><path d="m-884.1 294.78c-4.626 0-8.349 3.718-8.349 8.335v161.41l468.19 1v-121.2c0-4.618-3.724-8.335-8.35-8.335h-272.65c-8.51.751-9.607-.377-13.812-5.981-5.964-7.968-14.969-21.443-20.84-29.21-4.712-6.805-5.477-6.02-13.292-6.02z" transform="matrix(2.10876 0 0 2.10876 1625.19-1187.63)" fill="url(#0)" color="#000"/><rect width="463.85" height="295.13" x="-890.28" y="356.85" transform="matrix(2.10876 0 0 2.10876 1625.19-1187.63)" fill="url(#2)" stroke="url(#2)" stroke-width="2.378" rx="9.63"/><rect width="978.14" height="622.36" x="-252.19" y="-435.13" fill="none" stroke="url(#3)" stroke-linejoin="round" stroke-linecap="round" stroke-width="11.337" rx="20.307"/><path d="m253.58-340.2l-75.37 7.247v310.48l74.56-11.273v-132.37l100.33 146.87 78.59-24.961-102.74-141.23 103.55-133.18-80.2-18.358-99.52 133.18.805-136.4m-170.86 75.69c-.852.088-1.774.323-2.416.966l-29.631 29.631c-1.244 1.248-1.397 3.159-.483 4.67l34.623 57.17c-6.148 10.335-11.14 21.421-14.654 33.17l-63.61 13.205c-1.77.366-3.06 2.051-3.06 3.865v41.87c0 1.77 1.346 3.286 3.06 3.704l61.677 14.977c3.298 13.607 8.393 26.628 15.14 38.488l-35.75 54.43c-.997 1.52-.803 3.548.483 4.831l29.631 29.631c1.248 1.244 3.163 1.4 4.67.483l56.04-33.979c10.992 6.346 22.892 11.43 35.428 14.815l13.04 62.805c.366 1.775 1.891 3.06 3.704 3.06h41.87c1.757 0 3.286-1.18 3.704-2.899l15.46-63.13c12.929-3.486 25.12-8.661 36.39-15.299l55.24 36.23c1.523.992 3.54.8 4.831-.483l29.47-29.631c1.252-1.25 1.561-3.163.644-4.67l-20.13-33.17-6.603 2.093c-.953.294-2.01-.137-2.577-.966 0 0-12.716-18.705-29.31-42.997-19.845 38.832-60.32 65.38-106.93 65.38-66.24 0-119.97-53.737-119.97-119.97 0-48.722 29.14-90.57 70.857-109.34v-30.919c-7.593 2.658-14.929 5.864-21.901 9.662-.013-.008.013-.153 0-.161l-56.52-37.04c-.76-.497-1.563-.571-2.416-.483" fill="url(#4)"/></g></svg>