<svg xmlns="http://www.w3.org/2000/svg" viewBox="0 0 32 32"><defs><linearGradient id="0" x1="407.14" y1="545.63" x2="406.42" y2="528.88" gradientUnits="userSpaceOnUse"><stop stop-color="#dcdcdc"/><stop offset="1" stop-color="#fcf9f9"/></linearGradient></defs><g transform="matrix(1.28109 0 0 1.28109-506.16-669.64)"><path d="m399.97 525.15h15.238c.422 0 .619.365.762.762l.686 1.905c.143.397-.34.762-.762.762h-16.61c-.422 0-.905-.365-.762-.762l.686-1.905c.143-.397.34-.762.762-.762z" fill="#c9c9c9" stroke="#c9c9c9" stroke-width=".19"/><path d="m415.21 525.25l-2.4 16.397c-.06.409-.34.745-.762.745h-8.914c-.422 0-.702-.337-.762-.745l-2.4-16.397z" opacity=".3" fill="#fff"/><path d="m416.66 528.2l-1.638 16.215c-.041.406-.34.737-.762.737h-13.333c-.422 0-.721-.331-.762-.737l-1.638-16.215z" fill="url(#0)" stroke="#c9c9c9" stroke-width=".4"/><path d="m404.47 539.16c-.098.175-.175.439-.175.605 0 .038 0 .088.001.156l-1.218-2.096c-.039-.068-.068-.166-.068-.253 0-.088.029-.195.068-.263l.585-1.023-.653-.37 2.125-.039 1.033 1.862-.663-.38zm.936-6.135c.185-.322.487-.497.858-.497.4 0 .712.185.936.565l.331.556-1.15 2.217-1.862-1.311zm.136 7.821c-.556 0-1.014-.458-1.014-1.014 0-.156.068-.419.166-.585l.312-.556h2.31v2.154h-1.774m1.852-7.88c-.146-.253-.341-.429-.575-.527h2.398c.214 0 .38.088.478.254l.595 1.014.643-.38-1.033 1.852-2.115-.03.653-.37zm3.694 5.745c.292 0 .536-.078.741-.234l-1.209 2.105c-.098.166-.273.27-.477.263h-1.141v.75l-1.092-1.823 1.092-1.823v.76h2.086m.935-1.754c.088.156.137.322.137.497 0 .351-.224.721-.536.896-.146.078-.352.139-.555.127h-.644l-1.15-1.989 1.862-1.062z" fill="#249ddc"/></g></svg>