<?xml version="1.0" encoding="UTF-8" standalone="no"?>
<!-- Created with Inkscape (http://www.inkscape.org/) -->

<svg
   xmlns:dc="http://purl.org/dc/elements/1.1/"
   xmlns:cc="http://creativecommons.org/ns#"
   xmlns:rdf="http://www.w3.org/1999/02/22-rdf-syntax-ns#"
   xmlns:svg="http://www.w3.org/2000/svg"
   xmlns="http://www.w3.org/2000/svg"
   xmlns:sodipodi="http://sodipodi.sourceforge.net/DTD/sodipodi-0.dtd"
   xmlns:inkscape="http://www.inkscape.org/namespaces/inkscape"
   width="22"
   height="22"
   viewBox="0 0 5.8208332 5.8208335"
   id="svg2"
   version="1.1"
   inkscape:version="0.91 r13725"
   sodipodi:docname="drink-beer.svg">
  <defs
     id="defs4" />
  <sodipodi:namedview
     id="base"
     pagecolor="#ffffff"
     bordercolor="#666666"
     borderopacity="1.0"
     inkscape:pageopacity="0.0"
     inkscape:pageshadow="2"
     inkscape:zoom="16.000001"
     inkscape:cx="13.28156"
     inkscape:cy="7.2961145"
     inkscape:document-units="px"
     inkscape:current-layer="layer1"
     showgrid="false"
     inkscape:window-width="1366"
     inkscape:window-height="630"
     inkscape:window-x="0"
     inkscape:window-y="36"
     inkscape:window-maximized="1"
     units="px"
     inkscape:showpageshadow="false"
     borderlayer="true"
     showguides="false">
    <inkscape:grid
       type="xygrid"
       id="grid4160" />
    <sodipodi:guide
       position="-6.2596835e-15,5.8208248"
       orientation="21.999992,0"
       id="guide4164" />
    <sodipodi:guide
       position="-6.2596835e-15,-6.4613886e-06"
       orientation="0,22"
       id="guide4166" />
    <sodipodi:guide
       position="5.8208331,-6.4613886e-06"
       orientation="-21.999992,0"
       id="guide4168" />
    <sodipodi:guide
       position="5.8208331,5.8208248"
       orientation="0,-22"
       id="guide4170" />
    <sodipodi:guide
       position="0.52916662,5.29165"
       orientation="18.000046,0"
       id="guide4176" />
    <sodipodi:guide
       position="0.52916662,0.52913782"
       orientation="0,18"
       id="guide4178" />
    <sodipodi:guide
       position="5.2916665,0.52913782"
       orientation="-18.000046,0"
       id="guide4180" />
    <sodipodi:guide
       position="5.2916665,5.29165"
       orientation="0,-18"
       id="guide4182" />
  </sodipodi:namedview>
  <metadata
     id="metadata7">
    <rdf:RDF>
      <cc:Work
         rdf:about="">
        <dc:format>image/svg+xml</dc:format>
        <dc:type
           rdf:resource="http://purl.org/dc/dcmitype/StillImage" />
        <dc:title />
      </cc:Work>
    </rdf:RDF>
  </metadata>
  <g
     inkscape:label="Capa 1"
     inkscape:groupmode="layer"
     id="layer1"
     transform="translate(0,-291.17916)">
    <path
       d="m 5.2906195,294.13209 c 2.82e-4,-0.0142 0.001,-0.0283 0.001,-0.0426 0,-0.0143 -7.6e-4,-0.0284 -0.001,-0.0426 -0.239123,-0.1385 -0.255497,-0.27856 -0.05341,-0.46359 -0.0058,-0.0264 -0.0116,-0.0528 -0.01824,-0.0789 -0.263515,-0.0748 -0.3099,-0.20352 -0.152564,-0.42607 -0.01129,-0.024 -0.02321,-0.0477 -0.03515,-0.0712 -0.271759,-0.012 -0.344173,-0.1254 -0.238756,-0.37537 -0.01609,-0.0208 -0.03213,-0.0416 -0.04895,-0.0618 -0.267524,0.0488 -0.362326,-0.0459 -0.313428,-0.31346 -0.02021,-0.0168 -0.04108,-0.0329 -0.06186,-0.049 -0.249992,0.10538 -0.363484,0.033 -0.375369,-0.2387 -0.02363,-0.012 -0.04726,-0.0239 -0.07123,-0.0351 -0.222523,0.15716 -0.351316,0.11086 -0.426074,-0.15259 -0.02617,-0.007 -0.05248,-0.0125 -0.07902,-0.0183 -0.184975,0.20203 -0.325032,0.18568 -0.463537,-0.0534 -0.01426,-2.5e-4 -0.02832,-10e-4 -0.04263,-10e-4 -0.01429,0 -0.02837,7.7e-4 -0.0426,10e-4 -0.138561,0.23901 -0.278591,0.25535 -0.463593,0.0533 -0.02651,0.006 -0.05291,0.0116 -0.07896,0.0183 -0.07487,0.26346 -0.203579,0.30976 -0.426073,0.15259 -0.02402,0.0113 -0.04765,0.0231 -0.07123,0.0351 -0.01194,0.2717 -0.125462,0.34409 -0.375425,0.2387 -0.02081,0.0161 -0.04161,0.0322 -0.0618,0.049 0.04884,0.26755 -0.0459,0.36229 -0.313428,0.31345 -0.0168,0.0202 -0.03292,0.041 -0.04898,0.0619 0.105361,0.24996 0.03298,0.3634 -0.23869898,0.37537 -0.01197,0.0236 -0.02388,0.0472 -0.03518,0.0712 0.157251,0.22255 0.110895,0.35123 -0.15262,0.42607 -0.0066,0.0261 -0.01242,0.0525 -0.01821,0.0789 0.202026,0.18503 0.18568,0.32508 -0.05339,0.46359 -1.97e-4,0.0143 -0.001,0.0283 -0.001,0.0426 0,0.0143 8.45e-4,0.0284 0.001,0.0426 0.239066,0.1385 0.255412,0.27853 0.05339,0.46356 0.0058,0.0265 0.01166,0.0529 0.01821,0.079 0.263515,0.0748 0.309871,0.20352 0.15262,0.42607 0.01129,0.024 0.02321,0.0477 0.03518,0.0713 0.27167398,0.0119 0.34405998,0.1254 0.23861498,0.3754 0.01615,0.0208 0.03224,0.0416 0.04907,0.0619 0.267524,-0.0489 0.362269,0.0459 0.313428,0.3134 0.02019,0.0168 0.04099,0.0329 0.06177,0.049 0.249992,-0.10539 0.363512,-0.0331 0.375454,0.23872 0.02355,0.012 0.0472,0.0239 0.07123,0.0351 0.222523,-0.15728 0.351231,-0.11095 0.426073,0.15262 0.02606,0.007 0.05245,0.0125 0.07896,0.0182 0.185002,-0.20208 0.325032,-0.18568 0.463593,0.0534 0.01423,3.4e-4 0.02832,0.001 0.0426,0.001 0.01431,0 0.02829,-7.7e-4 0.0426,-0.001 0.138505,-0.23904 0.27859,-0.25544 0.463621,-0.0534 0.02648,-0.006 0.05279,-0.0116 0.07896,-0.0182 0.07476,-0.26357 0.203551,-0.3099 0.426074,-0.15262 0.02397,-0.0112 0.0476,-0.0231 0.07117,-0.0351 0.01194,-0.27184 0.125434,-0.34417 0.375482,-0.23867 0.02072,-0.0161 0.04159,-0.0323 0.0618,-0.049 -0.0489,-0.26755 0.0459,-0.36233 0.313428,-0.31343 0.01683,-0.0202 0.03286,-0.0411 0.04895,-0.0618 -0.105417,-0.25005 -0.03303,-0.36357 0.238756,-0.37545 0.01203,-0.0236 0.02386,-0.0473 0.03515,-0.0712 -0.157336,-0.22264 -0.110951,-0.35135 0.152564,-0.42616 0.0066,-0.0261 0.01245,-0.0525 0.01824,-0.0789 -0.202083,-0.18506 -0.185709,-0.32515 0.05341,-0.46374"
       style="fill:#4f5050;fill-opacity:1;fill-rule:nonzero;stroke:none"
       id="path230"
       inkscape:connector-curvature="0" />
    <path
       d="m 2.9103745,295.96374 c -1.033367,0 -1.874108,-0.84077 -1.874108,-1.87417 0,-1.03337 0.840741,-1.87416 1.874108,-1.87416 1.033451,0 1.874192,0.84079 1.874192,1.87416 0,1.0334 -0.840741,1.87417 -1.874192,1.87417"
       style="fill:#ffffff;fill-opacity:1;fill-rule:nonzero;stroke:none"
       id="path236"
       inkscape:connector-curvature="0" />
    <g
       id="g5202"
       transform="matrix(0.02306223,0,0,-0.02264654,-11.231723,308.653)">
      <path
         inkscape:connector-curvature="0"
         id="path254"
         style="fill:#4f5050;fill-opacity:1;fill-rule:nonzero;stroke:none"
         d="m 562.733,628.886 c 2.103,0.305 4.066,2.853 4.08,6.716 0.012,3.647 -1.436,6.172 -4.19,5.91 -1.287,-0.127 -2.573,-0.259 -3.858,-0.395 -0.011,-4.273 -0.022,-8.547 -0.034,-12.82 1.333,0.204 2.667,0.4 4.002,0.589 m -3.947,20.557 c 1.019,0.077 2.037,0.152 3.057,0.225 2.659,0.193 3.418,2.327 3.429,5.783 0.011,3.309 -1.389,5.211 -3.293,5.153 -1.055,-0.035 -2.11,-0.071 -3.165,-0.109 -0.008,-3.683 -0.018,-7.368 -0.028,-11.052 m -13.256,-23.42 c 0.961,0.185 1.922,0.365 2.884,0.54 0.008,11.253 0.016,22.507 0.024,33.76 -0.97,-0.04 -1.939,-0.081 -2.908,-0.123 l 0,10.022 18.735,0 c 8.341,-0.034 12.294,-4.35 12.265,-11.921 -0.02,-5.857 -1.188,-8.747 -4.961,-11.113 3.609,-1.184 6.61,-4.676 6.585,-11.395 -0.031,-9.786 -4.034,-14.43 -13.698,-16.05 -6.339,-1.064 -12.65,-2.335 -18.926,-3.816 l 0,10.096 z" />
      <path
         inkscape:connector-curvature="0"
         id="path256"
         style="fill:#4f5050;fill-opacity:1;fill-rule:nonzero;stroke:none"
         d="m 610.329,670.222 c -0.002,-4.894 -0.004,-9.788 -0.006,-14.681 -2.903,-0.01 -5.804,-0.032 -8.707,-0.069 0.003,1.98 0.007,3.96 0.01,5.94 -2.683,-0.02 -5.365,-0.048 -8.048,-0.082 -0.008,-3.098 -0.016,-6.197 -0.024,-9.295 3.188,0.083 6.377,0.146 9.566,0.188 -0.004,-2.954 -0.009,-5.909 -0.013,-8.864 -3.193,-0.063 -6.385,-0.157 -9.577,-0.281 -0.009,-3.66 -0.019,-7.319 -0.029,-10.979 2.691,0.146 5.384,0.262 8.077,0.349 0.003,2.069 0.007,4.137 0.01,6.206 2.909,0.078 5.818,0.127 8.727,0.146 l -0.005,-15.011 c -10.166,-0.101 -20.329,-0.727 -30.445,-1.879 0.012,3.064 0.023,6.128 0.033,9.192 1.057,0.097 2.114,0.19 3.17,0.278 0.036,9.928 0.07,19.855 0.104,29.783 -1.056,-0.021 -2.11,-0.042 -3.166,-0.065 0.012,3.041 0.022,6.082 0.033,9.124 l 30.29,0 z" />
      <path
         inkscape:connector-curvature="0"
         id="path258"
         style="fill:#4f5050;fill-opacity:1;fill-rule:nonzero;stroke:none"
         d="m 643.131,670.222 c 0.017,-5.055 0.035,-10.109 0.053,-15.163 -2.901,0.094 -5.802,0.174 -8.704,0.241 l -0.017,6.009 c -2.681,0.037 -5.362,0.067 -8.044,0.09 l 0.018,-9.224 c 3.188,-0.056 6.376,-0.132 9.564,-0.228 0.009,-3 0.018,-5.999 0.026,-8.999 -3.19,0.143 -6.381,0.256 -9.574,0.339 0.007,-3.631 0.013,-7.263 0.02,-10.895 2.692,-0.098 5.382,-0.226 8.072,-0.385 -0.006,2.094 -0.012,4.186 -0.018,6.279 2.908,-0.143 5.813,-0.315 8.716,-0.517 0.018,-5.168 0.035,-10.336 0.054,-15.505 -10.125,1.039 -20.292,1.551 -30.458,1.539 10e-4,2.944 10e-4,5.887 10e-4,8.831 1.059,10e-4 2.119,-0.002 3.179,-0.01 -0.004,9.609 -0.008,19.219 -0.012,28.829 -1.056,0.002 -2.111,0.003 -3.165,0.002 l 0,8.767 30.289,0 z" />
      <path
         inkscape:connector-curvature="0"
         id="path260"
         style="fill:#4f5050;fill-opacity:1;fill-rule:nonzero;stroke:none"
         d="m 658.875,648.765 c 0.753,-0.051 1.506,-0.102 2.258,-0.156 2.909,-0.213 4.805,1.684 4.796,5.576 -0.012,4.328 -1.674,6.581 -4.584,6.663 -0.837,0.026 -1.674,0.051 -2.511,0.075 l 0.041,-12.158 z m 3.092,21.457 c 11.656,0.076 13.925,-6.962 13.933,-15.671 0.005,-5.96 -3.087,-9.822 -7.238,-10.287 3.456,-1.044 6.561,-5.95 6.567,-11.437 0.003,-3.26 0.303,-5.207 1.199,-5.366 0.746,-0.133 1.143,0.715 1.142,2.249 0,0.842 -0.001,1.684 -0.002,2.525 1.113,-0.176 2.225,-0.357 3.335,-0.542 l 0,-4.27 c -0.003,-6.482 -1.727,-12.018 -7.245,-10.787 -6.518,1.415 -9.693,6.927 -9.718,15.414 -0.02,6.617 -0.572,8.292 -5.037,8.705 l 0.038,-11.084 c 1.019,-0.13 2.038,-0.264 3.056,-0.403 0.01,-3.178 0.02,-6.356 0.03,-9.534 -5.387,0.905 -10.794,1.659 -16.214,2.261 -0.01,3.036 -0.021,6.071 -0.032,9.108 0.939,-0.085 1.877,-0.174 2.815,-0.266 -0.037,10.095 -0.074,20.189 -0.111,30.284 -0.937,0.022 -1.874,0.042 -2.811,0.062 -0.011,3.012 -0.022,6.025 -0.032,9.039 l 16.325,0 z" />
    </g>
  </g>
</svg>
