<?xml version="1.0" encoding="UTF-8" standalone="no"?>
<!-- Created with Inkscape (http://www.inkscape.org/) -->

<svg
   xmlns:dc="http://purl.org/dc/elements/1.1/"
   xmlns:cc="http://creativecommons.org/ns#"
   xmlns:rdf="http://www.w3.org/1999/02/22-rdf-syntax-ns#"
   xmlns:svg="http://www.w3.org/2000/svg"
   xmlns="http://www.w3.org/2000/svg"
   xmlns:xlink="http://www.w3.org/1999/xlink"
   xmlns:sodipodi="http://sodipodi.sourceforge.net/DTD/sodipodi-0.dtd"
   xmlns:inkscape="http://www.inkscape.org/namespaces/inkscape"
   width="22"
   height="22"
   viewBox="0 0 5.8208332 5.8208335"
   id="svg2"
   version="1.1"
   inkscape:version="0.91 r13725"
   sodipodi:docname="face-embarrassed.svg">
  <defs
     id="defs4">
    <linearGradient
       inkscape:collect="always"
       id="linearGradient4339">
      <stop
         style="stop-color:#ffeb96;stop-opacity:1"
         offset="0"
         id="stop4341" />
      <stop
         style="stop-color:#fff1b7;stop-opacity:1"
         offset="1"
         id="stop4343" />
    </linearGradient>
    <linearGradient
       inkscape:collect="always"
       xlink:href="#linearGradient4339"
       id="linearGradient4345"
       x1="480.69376"
       y1="555.8656"
       x2="480.60101"
       y2="545.79797"
       gradientUnits="userSpaceOnUse"
       gradientTransform="translate(1.5133247,-10.552129)" />
  </defs>
  <sodipodi:namedview
     id="base"
     pagecolor="#777777"
     bordercolor="#666666"
     borderopacity="1.0"
     inkscape:pageopacity="0"
     inkscape:pageshadow="2"
     inkscape:zoom="16.263456"
     inkscape:cx="10.505178"
     inkscape:cy="8.0336926"
     inkscape:document-units="px"
     inkscape:current-layer="layer1-6"
     showgrid="false"
     inkscape:window-width="1366"
     inkscape:window-height="630"
     inkscape:window-x="0"
     inkscape:window-y="36"
     inkscape:window-maximized="1"
     units="px"
     inkscape:showpageshadow="false"
     borderlayer="true"
     showborder="false"
     showguides="false">
    <inkscape:grid
       type="xygrid"
       id="grid4160" />
    <sodipodi:guide
       position="-6.2596835e-15,5.8208248"
       orientation="21.999992,0"
       id="guide4164" />
    <sodipodi:guide
       position="-6.2596835e-15,-6.4613886e-06"
       orientation="0,22"
       id="guide4166" />
    <sodipodi:guide
       position="7.9374998,0.52913782"
       orientation="-21.999992,0"
       id="guide4168" />
    <sodipodi:guide
       position="5.8208331,5.8208248"
       orientation="0,-22"
       id="guide4170" />
    <sodipodi:guide
       position="0.52916662,5.29165"
       orientation="18.000046,0"
       id="guide4176" />
    <sodipodi:guide
       position="0.52916662,0.52913782"
       orientation="0,18"
       id="guide4178" />
    <sodipodi:guide
       position="5.2916665,0.52913782"
       orientation="-18.000046,0"
       id="guide4180" />
    <sodipodi:guide
       position="5.2916665,5.29165"
       orientation="0,-18"
       id="guide4182" />
    <sodipodi:guide
       position="0.52916662,1.3229305"
       orientation="3.0001614,0"
       id="guide4239" />
    <sodipodi:guide
       position="0.52916662,0.52913782"
       orientation="0,18"
       id="guide4241" />
    <sodipodi:guide
       position="5.2916665,0.52913782"
       orientation="-3.0001614,0"
       id="guide4243" />
    <sodipodi:guide
       position="5.2916665,1.3229305"
       orientation="0,-18"
       id="guide4245" />
    <sodipodi:guide
       position="0.52916662,5.2916805"
       orientation="4.9999614,0"
       id="guide4249" />
    <sodipodi:guide
       position="0.52916662,3.968774"
       orientation="0,18"
       id="guide4251" />
    <sodipodi:guide
       position="5.2916665,3.968774"
       orientation="-4.9999614,0"
       id="guide4253" />
    <sodipodi:guide
       position="5.2916665,5.2916805"
       orientation="0,-18"
       id="guide4255" />
  </sodipodi:namedview>
  <metadata
     id="metadata7">
    <rdf:RDF>
      <cc:Work
         rdf:about="">
        <dc:format>image/svg+xml</dc:format>
        <dc:type
           rdf:resource="http://purl.org/dc/dcmitype/StillImage" />
        <dc:title></dc:title>
      </cc:Work>
    </rdf:RDF>
  </metadata>
  <g
     inkscape:label="Capa 1"
     inkscape:groupmode="layer"
     id="layer1"
     transform="translate(0,-291.17916)">
    <g
       transform="translate(2.5964907,1.052134)"
       id="layer1-0"
       inkscape:label="Capa 1">
      <g
         transform="matrix(0.29032258,0,0,0.29032258,2.0654577,208.70873)"
         id="g4249">
        <g
           transform="matrix(0.35661233,0,0,0.35661233,-142.7912,107.29675)"
           id="layer1-1"
           inkscape:label="Capa 1">
          <g
             transform="translate(-97.808975,18.359024)"
             id="g4401">
            <g
               id="g4389"
               transform="matrix(2.5454545,0,0,2.5454545,-748.58794,-815.133)">
              <g
                 transform="matrix(1.6428572,0,0,1.6428572,-311.7803,-338.6751)"
                 id="g4180">
                <g
                   id="g4368"
                   transform="translate(1.6119974,-20.41299)">
                  <circle
                     r="5.5"
                     cy="539.92188"
                     cx="482.2713"
                     id="path4337"
                     style="opacity:1;fill:url(#linearGradient4345);fill-opacity:1;fill-rule:nonzero;stroke:none;stroke-width:1.04999995;stroke-linecap:round;stroke-linejoin:round;stroke-miterlimit:4;stroke-dasharray:none;stroke-dashoffset:0;stroke-opacity:1" />
                  <g
                     id="g4364" />
                </g>
              </g>
            </g>
          </g>
        </g>
      </g>
    </g>
    <g
       id="g4267"
       transform="translate(-7.6659059,-1.2416641)">
      <g
         transform="translate(13.199529,0.96222689)"
         id="layer1-2"
         inkscape:label="Capa 1">
        <g
           transform="translate(-6.9826912,-0.27071537)"
           id="g4261">
          <g
             transform="matrix(0.10353261,0,0,0.10353261,-32.40736,240.30805)"
             id="layer1-5"
             inkscape:label="Capa 1" />
          <g
             transform="translate(-17.169033,2.1474527)"
             id="g4390">
            <g
               transform="matrix(0.99532763,-0.09655517,0.09655517,0.99532763,-32.68344,6.2998296)"
               id="g4253">
              <path
                 style="fill:none;fill-rule:evenodd;stroke:#414141;stroke-width:0.13229167;stroke-linecap:round;stroke-linejoin:miter;stroke-miterlimit:4;stroke-dasharray:none;stroke-opacity:1"
                 d="m 24.511333,289.95932 c 0.0025,-0.57152 0.683407,-0.63196 0.81453,-0.10727"
                 id="path4251-3"
                 inkscape:connector-curvature="0"
                 sodipodi:nodetypes="cc" />
              <path
                 style="fill:none;fill-rule:evenodd;stroke:#414141;stroke-width:0.13229167;stroke-linecap:round;stroke-linejoin:miter;stroke-miterlimit:4;stroke-dasharray:none;stroke-opacity:1"
                 d="m 27.171338,289.74363 c 0.0025,-0.57152 0.683407,-0.63196 0.81453,-0.10727"
                 id="path4251-3-7"
                 inkscape:connector-curvature="0"
                 sodipodi:nodetypes="cc" />
              <path
                 style="fill:none;fill-rule:evenodd;stroke:#414141;stroke-width:0.13229167;stroke-linecap:round;stroke-linejoin:miter;stroke-miterlimit:4;stroke-dasharray:none;stroke-opacity:1"
                 d="m 25.03268,291.28432 c 0.755439,0.84906 1.969513,0.69284 2.676182,-0.0813"
                 id="path4387"
                 inkscape:connector-curvature="0"
                 sodipodi:nodetypes="cc" />
            </g>
          </g>
        </g>
      </g>
      <g
         transform="translate(13.817088,0.75192468)"
         id="layer1-6"
         inkscape:label="Capa 1">
        <path
           inkscape:connector-curvature="0"
           id="rect4179"
           d="m -4.5490745,294.80752 c -0.049544,0.006 -0.092795,0.0415 -0.1067448,0.0973 l -0.052301,0.20835 c -0.00712,-0.005 -0.012135,-0.016 -0.021605,-0.0193 -0.039363,-0.0136 -0.079883,0.009 -0.090409,0.0519 l -0.038161,0.15374 c -0.010619,0.0425 0.012725,0.0876 0.052107,0.1013 0.039363,0.0136 0.079163,-0.01 0.089783,-0.0523 l 0.014229,-0.0564 c 0.016669,0.0262 0.040107,0.048 0.070053,0.0582 0.06888,0.0238 0.1389611,-0.0169 0.1575601,-0.0913 l 0.010987,-0.0442 c 0.015987,0.0348 0.043868,0.0631 0.08042,0.0757 0.06888,0.0238 0.1390779,-0.0164 0.157677,-0.0908 l 0.067093,-0.26882 c 0.018599,-0.0744 -0.021571,-0.15365 -0.09046,-0.17746 -0.068903,-0.0239 -0.1394473,0.017 -0.1580463,0.0915 l -0.010987,0.0442 c -0.016018,-0.0346 -0.043541,-0.0633 -0.079933,-0.0758 -0.017267,-0.006 -0.034717,-0.007 -0.051301,-0.006 z"
           style="opacity:1;fill:#ff8887;fill-opacity:1;stroke:none" />
        <path
           style="opacity:1;fill:#ff8887;fill-opacity:1;stroke:none"
           d="m -1.9866789,294.30409 c -0.04939,0.007 -0.091756,0.0438 -0.1043426,0.0999 l -0.047211,0.20956 c -0.00725,-0.005 -0.012521,-0.0157 -0.022069,-0.0188 -0.039682,-0.0126 -0.079642,0.0109 -0.089119,0.054 l -0.034406,0.15462 c -0.00958,0.0428 0.014856,0.0873 0.054559,0.1 0.039682,0.0126 0.078902,-0.0117 0.088482,-0.0545 l 0.012852,-0.0567 c 0.017303,0.0258 0.041263,0.047 0.071451,0.0565 0.069438,0.0221 0.1385076,-0.0203 0.1552889,-0.0951 l 0.00991,-0.0444 c 0.016831,0.0344 0.045392,0.062 0.08224,0.0737 0.069438,0.0221 0.1386362,-0.0198 0.1554176,-0.0947 l 0.060525,-0.27037 c 0.016782,-0.0748 -0.025307,-0.15308 -0.094756,-0.1752 -0.069464,-0.0222 -0.1389908,0.0204 -0.1557721,0.0953 l -0.00991,0.0444 c -0.016857,-0.0342 -0.045069,-0.0622 -0.081756,-0.0739 -0.017411,-0.006 -0.034889,-0.007 -0.05143,-0.005 z"
           id="path4216"
           inkscape:connector-curvature="0" />
      </g>
    </g>
  </g>
</svg>
