<?xml version="1.0" encoding="UTF-8" standalone="no"?>
<svg
   xmlns:dc="http://purl.org/dc/elements/1.1/"
   xmlns:cc="http://creativecommons.org/ns#"
   xmlns:rdf="http://www.w3.org/1999/02/22-rdf-syntax-ns#"
   xmlns:svg="http://www.w3.org/2000/svg"
   xmlns="http://www.w3.org/2000/svg"
   xmlns:xlink="http://www.w3.org/1999/xlink"
   xmlns:sodipodi="http://sodipodi.sourceforge.net/DTD/sodipodi-0.dtd"
   xmlns:inkscape="http://www.inkscape.org/namespaces/inkscape"
   viewBox="0 0 48 48"
   id="svg2"
   version="1.1"
   inkscape:version="0.91 r13725"
   sodipodi:docname="applications-education-miscellaneous.svg">
  <metadata
     id="metadata24">
    <rdf:RDF>
      <cc:Work
         rdf:about="">
        <dc:format>image/svg+xml</dc:format>
        <dc:type
           rdf:resource="http://purl.org/dc/dcmitype/StillImage" />
      </cc:Work>
    </rdf:RDF>
  </metadata>
  <sodipodi:namedview
     pagecolor="#ffffff"
     bordercolor="#666666"
     borderopacity="1"
     objecttolerance="10"
     gridtolerance="10"
     guidetolerance="10"
     inkscape:pageopacity="0"
     inkscape:pageshadow="2"
     inkscape:window-width="806"
     inkscape:window-height="687"
     id="namedview22"
     showgrid="false"
     inkscape:zoom="4.9166667"
     inkscape:cx="37.194189"
     inkscape:cy="-8.7457627"
     inkscape:window-x="560"
     inkscape:window-y="0"
     inkscape:window-maximized="0"
     inkscape:current-layer="svg2" />
  <defs
     id="defs4">
    <linearGradient
       y2="155.59"
       x2="20.030001"
       y1="261.26001"
       x1="18.6"
       gradientUnits="userSpaceOnUse"
       id="linearGradient4178"
       gradientTransform="matrix(0.43355,0,0,0.43481,-57.018323,-61.893693)">
      <stop
         id="stop4180"
         stop-color="#2a2c2f"
         style="stop-color:#18191b;stop-opacity:1" />
      <stop
         id="stop4182"
         stop-color="#424649"
         offset="1" />
    </linearGradient>
    <linearGradient
       id="0"
       x1="403.66"
       y1="545.75"
       x2="402.64999"
       y2="517.44"
       gradientUnits="userSpaceOnUse"
       xlink:href="#0-7">
      <stop
         stop-color="#d3d3d3"
         id="stop7" />
      <stop
         offset="1"
         stop-color="#fcf9f9"
         id="stop9" />
    </linearGradient>
    <linearGradient
       id="1"
       x1="12.613"
       y1="24.02"
       x2="11.598"
       y2="-.7"
       gradientUnits="userSpaceOnUse">
      <stop
         stop-color="#00cafe"
         id="stop12" />
      <stop
         offset="1"
         stop-color="#1460f3"
         id="stop14" />
    </linearGradient>
    <linearGradient
       gradientTransform="matrix(0.43355,0,0,0.43481,-57.018323,-61.893693)"
       id="0-7"
       gradientUnits="userSpaceOnUse"
       x1="18.6"
       y1="261.26001"
       x2="20.030001"
       y2="155.59">
      <stop
         stop-color="#2a2c2f"
         id="stop11" />
      <stop
         offset="1"
         stop-color="#424649"
         id="stop13" />
    </linearGradient>
    <linearGradient
       inkscape:collect="always"
       xlink:href="#linearGradient4178"
       id="linearGradient4247"
       x1="30.711863"
       y1="103.11864"
       x2="29.898296"
       y2="54.915257"
       gradientUnits="userSpaceOnUse"
       gradientTransform="translate(-6.9152489,-55.322037)" />
  </defs>
  <ellipse
     style="opacity:1;fill:url(#linearGradient4247);fill-opacity:1;stroke:#3daee6;stroke-width:0;stroke-linecap:round;stroke-linejoin:round;stroke-miterlimit:4;stroke-dasharray:none;stroke-opacity:1"
     id="path4239"
     cx="24"
     cy="24"
     rx="23.999992"
     ry="23.999994" />
  <g
     transform="matrix(1.61348 0 0 1.61348-622.39-833.94)"
     id="g16">
    <path
       d="m23.09 18.561c-.37.644-1.042 1-1.734 1-.339 0-.683-.086-.998-.268l-5.982-3.455v6.91c0 1.104-.896 2-2 2-1.104 0-2-.896-2-2v-6.911l-5.985 3.456c-.315.182-.659.268-.998.268-.691 0-1.364-.356-1.734-1-.552-.957-.225-2.18.732-2.73l5.983-3.456-5.985-3.456c-.957-.553-1.284-1.774-.732-2.731.552-.957 1.776-1.285 2.732-.732l5.984 3.455v-6.911c0-1.104.896-2 2-2 1.104 0 2 .896 2 2v6.91l5.982-3.455c.956-.553 2.183-.225 2.732.732.552.957.225 2.18-.732 2.731l-5.981 3.456 5.982 3.455c.957.552 1.286 1.775.734 2.732"
       transform="matrix(.73501 0 0 .73501 391.58 523.08)"
       fill="url(#1)"
       id="path20" />
  </g>
</svg>
