<svg xmlns="http://www.w3.org/2000/svg" viewBox="0 0 48 48"><defs><linearGradient id="0" x1="409.57" y1="542.8" x2="409.94" y2="501.23" gradientUnits="userSpaceOnUse" gradientTransform="matrix(1.09091 0 0 1.20731-398.34-633.16)"><stop stop-color="#08f"/><stop offset="1" stop-color="#02c3ff"/></linearGradient><linearGradient id="1" x1="50.933" y1="24.848" x2="49.43" y2="1.037" gradientUnits="userSpaceOnUse"><stop stop-color="#e6f3ff"/><stop offset="1" stop-color="#dcffe7"/></linearGradient></defs><g transform="matrix(.99999 0 0 .99999-23.371 20.882)" enable-background="new"><rect width="48" height="41.05" x="23.375" y="-20.09" fill="url(#0)" rx="1.932"/><g fill-rule="evenodd"><path d="m70.76.469c0 8.714-4.594 16.335-11.449 20.487l-23.938-.042c-6.817-4.162-11.379-11.761-11.379-20.445 0-8.766 4.648-16.426 11.571-20.561h23.683c6.89 4.144 11.512 11.821 11.512 20.561" opacity=".9" fill-opacity=".16"/><circle cx="47.38" cy=".432" r="17.359" opacity=".9" fill-opacity=".2"/><circle cx="47.38" cy=".432" r="10.803" opacity=".9" fill-opacity=".232"/></g><path d="m55.55 8.347l-5.262-.008v-6.374c0-1.574-1.067-2.854-2.487-2.854-1.42 0-2.487 1.281-2.487 2.854v9.652c-.597-.678-1.233-1.084-2.031-1.084-.441 0-.884.128-1.272.37-1.225.768-1.668 2.45-1 3.837 1.091 2.171 4.67 9.298 4.913 9.662.808 1.224 2.035 1.939 3.368 1.939h7.03c2.695 0 4.114-1.415 4.114-3.836v-8.878c0-.045.061-.089.058-.133.003-.069-.003-.141-.003-.215 0-2.72-2.221-4.933-4.94-4.933" fill="url(#1)"/></g></svg>