<svg xmlns="http://www.w3.org/2000/svg" xmlns:xlink="http://www.w3.org/1999/xlink" viewBox="0 0 48 48"><defs><linearGradient gradientUnits="userSpaceOnUse" y2="20.836" x2="54.04" y1="89.36" x1="41.16"><stop stop-color="#e3e3e3"/><stop offset="1" stop-color="#fffcff"/></linearGradient><linearGradient xlink:href="#0" id="2" x1="394.82" y1="546.73" x2="396.73" y2="518.37" gradientUnits="userSpaceOnUse"/><linearGradient y2="517.77" x2="400.7" y1="546.07" x1="400.51" gradientUnits="userSpaceOnUse" id="1" xlink:href="#0"/><linearGradient id="0"><stop stop-color="#1365f4"/><stop offset="1" stop-color="#05b2fc"/></linearGradient><linearGradient gradientUnits="userSpaceOnUse" y2="517.8" x2="0" y1="545.8"><stop stop-color="#3889e9"/><stop offset="1" stop-color="#5ea5fb"/></linearGradient></defs><g transform="matrix(.88889 0 0 .88889-339.17-441.6)"><g transform="matrix(1.87451 0 0 1.87451-342.3-473.06)"><circle cx="400.57" cy="531.8" r="14" fill="url(#1)" stroke="url(#2)" stroke-width=".808"/><circle r="14" cy="531.8" cx="400.57" fill="#5ea5fb" fill-opacity="0"/></g><path d="m420.5 521.55c.034-.117.035-.24.035-.368v-1.367c0-3.235-1.222-6.259-3.472-8.515-2.252-2.258-5.265-3.502-8.499-3.502-3.234 0-6.234 1.244-8.486 3.502-2.25 2.256-3.467 5.28-3.467 8.515v1.367c0 .128.0001.251.035.368-2.062.163-3.71 2.362-3.71 5.04 0 2.692 1.649 4.899 3.724 5.05.555.748 1.45 1.202 2.402 1.202 1.656 0 3-1.348 3-3.01v-6.482c0-1.606-1.231-2.922-2.815-3v-.534c0-5.259 4.075-9.378 9.323-9.378 5.248 0 9.323 4.119 9.323 9.378v.534c-1.583.081-2.815 1.396-2.815 3v6.482c0 1.084.577 2.036 1.439 2.565-.983 1.446-2.364 2.589-3.999 3.287-.447-.498-1.096-.813-1.817-.813h-3.385c-1.346 0-2.442 1.095-2.442 2.442v.043c0 1.346 1.095 2.442 2.442 2.442h3.385c.99 0 1.844-.593 2.227-1.443 1.616-.588 3.093-1.52 4.336-2.76.926-.923 1.681-1.976 2.25-3.12.379-.205.714-.489.973-.838 2.075-.146 3.719-2.353 3.719-5.05 0-2.68-1.648-4.879-3.71-5.04" fill-opacity=".85"/></g></svg>