<svg xmlns="http://www.w3.org/2000/svg" xmlns:xlink="http://www.w3.org/1999/xlink" viewBox="0 0 48 48"><defs><linearGradient id="3" x1="414.08" y1="533.59" x2="414.2" y2="514" gradientUnits="userSpaceOnUse"><stop stop-color="#08f"/><stop offset="1" stop-color="#02c3ff"/></linearGradient><linearGradient xlink:href="#2" id="6" x1="384.61" y1="523.9" x2="406.77" y2="498.25" gradientUnits="userSpaceOnUse"/><linearGradient id="4" x1="415.32" y1="537.14" x2="414.58" y2="510.43" gradientUnits="userSpaceOnUse"><stop stop-color="#222c35"/><stop offset="1" stop-color="#545e67"/></linearGradient><linearGradient y2="527.8" x2="415.57" y1="512.8" x1="400.57" gradientUnits="userSpaceOnUse" xlink:href="#1"/><linearGradient xlink:href="#2" id="5" x1="407.2" y1="515.76" x2="424.07" y2="532.63" gradientUnits="userSpaceOnUse"/><linearGradient y2="527.53" x2="494.84" y1="509.8" x1="477.12" gradientUnits="userSpaceOnUse" xlink:href="#1"/><linearGradient id="0" y1="563.41" x2="0" y2="419.28" gradientUnits="userSpaceOnUse"><stop stop-color="#d3d3d3"/><stop offset="1" stop-color="#fcf9f9"/></linearGradient><linearGradient y2="534.53" x2="497.84" y1="516.8" x1="480.12" gradientUnits="userSpaceOnUse" xlink:href="#1"/><linearGradient id="1"><stop stop-color="#2e5d89"/><stop offset="1" stop-color="#1b92f4"/></linearGradient><linearGradient id="2"><stop stop-color="#18222a"/><stop offset="1" stop-color="#566069"/></linearGradient><linearGradient xlink:href="#1" gradientUnits="userSpaceOnUse" x1="479.57" y1="516.45" x2="494.57" y2="531.45"/><linearGradient xlink:href="#1" gradientUnits="userSpaceOnUse" x1="399.12" y1="510.3" x2="416.84" y2="528.03"/></defs><g transform="matrix(.92308 0 0 .92308-345.76-466.69)"><rect ry="72.06" y="419.28" x="382.1" height="144.13" width="144.13" stroke-opacity=".55" fill="url(#0)" stroke-width="6.929" rx="72.07" transform="matrix(.36078 0 0 .36078 236.72 354.32)" stroke="none"/><g transform="matrix(1.07143 0 0 1.0738-44.569-30.692)"><path d="m401.27124 523.8253a13.999973 13.999973 0 0 1 13.99997 -13.99997 13.999973 13.999973 0 0 1 13.99997 13.99997 13.999973 13.999973 0 0 1 -13.99997 13.99998 13.999973 13.999973 0 0 1 -13.99997 -13.99998" fill="url(#4)"/><circle cx="415.27" cy="523.83" r="11" fill="url(#5)"/><circle r="10" cy="523.83" cx="415.27" fill="url(#3)"/></g></g></svg>