<svg xmlns="http://www.w3.org/2000/svg" xmlns:xlink="http://www.w3.org/1999/xlink" viewBox="0 0 48 48"><defs><linearGradient y2="507.67" x2="390.88" y1="531.8" x1="391.57" gradientTransform="matrix(1.08333 0 0 1.33561-49.732-170.45)" gradientUnits="userSpaceOnUse" id="3"><stop stop-color="#d3d3d3"/><stop offset="1" stop-color="#fcf9f9"/></linearGradient><linearGradient gradientUnits="userSpaceOnUse" y2="510.72" x2="0" y1="515.9" id="7" xlink:href="#1"/><linearGradient y2="510.43" x2="414.58" y1="537.14" x1="415.32" gradientUnits="userSpaceOnUse" id="4" xlink:href="#1"/><linearGradient y2="514" x2="414.2" y1="535.92" x1="414.55" gradientUnits="userSpaceOnUse" id="6"><stop stop-color="#197ff1"/><stop offset="1" stop-color="#21c6fb"/></linearGradient><linearGradient y2="532.63" x2="424.07" y1="515.76" x1="407.2" gradientUnits="userSpaceOnUse" id="5" xlink:href="#1"/><linearGradient y2="505.69" x2="376" y1="509.1" x1="376.21" gradientUnits="userSpaceOnUse" id="2" xlink:href="#1"/><linearGradient id="0"><stop stop-color="#2e5d89"/><stop offset="1" stop-color="#1b92f4"/></linearGradient><linearGradient id="1"><stop stop-color="#222c35"/><stop offset="1" stop-color="#545e67"/></linearGradient><linearGradient y2="528.03" x2="416.84" y1="510.3" x1="399.12" gradientUnits="userSpaceOnUse" xlink:href="#0"/><linearGradient xlink:href="#0" gradientUnits="userSpaceOnUse" x1="480.12" y1="516.8" x2="497.84" y2="534.53"/><linearGradient xlink:href="#0" gradientUnits="userSpaceOnUse" x1="477.12" y1="509.8" x2="494.84" y2="527.53"/><linearGradient y2="531.45" x2="494.57" y1="516.45" x1="479.57" gradientUnits="userSpaceOnUse" xlink:href="#0"/></defs><g transform="matrix(.92311 0 0 .92311-338.67-459.62)" fill-opacity="1"><rect width="6" height="3" x="372.21" y="506.1" fill="url(#2)" rx="1"/><rect width="52" height="32.05" x="366.89" y="507.77" fill="url(#3)" rx="1.5"/><g transform="matrix(1.30143 0 0 1.30143-145.97-157.81)"><path d="m401.27124 523.8253a13.999973 13.999973 0 0 1 13.99997 -13.99997 13.999973 13.999973 0 0 1 13.99997 13.99997 13.999973 13.999973 0 0 1 -13.99997 13.99998 13.999973 13.999973 0 0 1 -13.99997 -13.99998" fill="url(#4)"/><circle r="11" cy="523.83" cx="415.27" fill="url(#5)"/><circle cx="415.27" cy="523.83" r="10" fill="url(#6)"/></g><circle cx="372.71" cy="513.31" r="2.591" fill="url(#7)" fill-rule="evenodd"/></g></svg>