<svg xmlns="http://www.w3.org/2000/svg" xmlns:xlink="http://www.w3.org/1999/xlink" viewBox="0 0 48 48"><defs><clipPath><path d="m108.81 58c-1.56 0-2.81 1.254-2.81 2.812v24.375c0 1.559 1.25 2.813 2.81 2.813h24.375c1.57 0 2.82-1.254 2.82-2.812v-24.375c0-1.559-1.25-2.813-2.81-2.813h-24.375zm7.188 4.5h10v8.75h5l-10 13.75-10-13.75h5v-8.75"/></clipPath><filter color-interpolation-filters="sRGB"><feGaussianBlur stdDeviation="1.71"/></filter><filter color-interpolation-filters="sRGB"><feGaussianBlur stdDeviation="1.2"/></filter><filter color-interpolation-filters="sRGB"><feGaussianBlur stdDeviation=".6375"/></filter><linearGradient gradientUnits="userSpaceOnUse" x1="-88" x2="-58"><stop stop-color="#499119"/><stop offset="1" stop-color="#8fd625"/></linearGradient><linearGradient xlink:href="#0" gradientUnits="userSpaceOnUse" y1="58" x2="0" y2="79.1"/><linearGradient gradientUnits="userSpaceOnUse" y1="72.38" x2="0" y2="63.54"><stop/><stop offset="1" stop-opacity="0"/></linearGradient><linearGradient id="2" x1="-42" x2="-6" gradientUnits="userSpaceOnUse"><stop stop-color="#d3d3d3"/><stop offset="1" stop-color="#fcf9f9"/></linearGradient><linearGradient gradientUnits="userSpaceOnUse" gradientTransform="scale(1.0059.99417)" y1="92.54" x2="0" y2="7.02"><stop/><stop offset="1" stop-opacity=".588"/></linearGradient><linearGradient id="0"><stop stop-color="#fff"/><stop offset="1" stop-opacity="0" stop-color="#fff"/></linearGradient><linearGradient xlink:href="#0" gradientUnits="userSpaceOnUse" y1="71.38" x2="0" y2="62.54"/><linearGradient id="1" x1="410.57" y1="547.8" x2="408.57" y2="499.8" gradientUnits="userSpaceOnUse"><stop stop-color="#124da4"/><stop offset="1" stop-color="#2896ff"/></linearGradient></defs><g transform="matrix(.90384 0 0 .90384-345.28-449.44)"><rect y="497.8" x="382.57" height="52" width="52" fill="url(#1)" fill-rule="evenodd" rx="1.5"/><g transform="matrix(.8 0 0 .8 389.37 504.6)"><g font-family="&apos;Bitstream Vera Sans&apos;"><g font-size="12.666"><text y="10.813" x="877.23" opacity=".8"><tspan y="10.813" x="877.23"/></text><text y="-29.929" x="901.19" opacity=".8"><tspan y="-29.929" x="901.19"/></text><text y="-60.01" x="-569.37" opacity=".8"><tspan y="-60.01" x="-569.37"/></text><text y="685.55" x="-2393.06" opacity=".8"><tspan y="685.55" x="-2393.06"/></text><text y="-445.33" x="-454.88" opacity=".8"><tspan y="-445.33" x="-454.88"/></text><text y="-858.8" x="352.72" opacity=".8"><tspan y="-858.8" x="352.72"/></text><text y="-899.54" x="376.68" opacity=".8"><tspan y="-899.54" x="376.68"/></text><text y="-906.75" x="-1114.78" opacity=".8"><tspan y="-906.75" x="-1114.78"/></text><text y="-1179.98" x="345.76" opacity=".8"><tspan y="-1179.98" x="345.76"/></text><text y="-553.29" x="1831.89" opacity=".8"><tspan y="-553.29" x="1831.89"/></text><text y="-594.03" x="1855.85" opacity=".8"><tspan y="-594.03" x="1855.85"/></text><text y="-601.24" x="364.38" opacity=".8"><tspan y="-601.24" x="364.38"/></text><text y="-874.48" x="1824.93" opacity=".8"><tspan y="-874.48" x="1824.93"/></text><text y="-649.34" x="-573.43" opacity=".8"><tspan y="-649.34" x="-573.43"/></text><text y="96.22" x="-2397.12" opacity=".8"><tspan y="96.22" x="-2397.12"/></text><text y="189.09" x="-682.36" opacity=".8"><tspan y="189.09" x="-682.36"/></text><text y="9.908" x="426.66" opacity=".8"><tspan y="9.908" x="426.66"/></text><text y="-30.834" x="450.62" opacity=".8"><tspan y="-30.834" x="450.62"/></text><text y="-38.04" x="-1040.84" opacity=".8"><tspan y="-38.04" x="-1040.84"/></text><text y="-311.28" x="419.7" opacity=".8"><tspan y="-311.28" x="419.7"/></text><text y="-40.758" x="-608.03" opacity=".8"><tspan y="-40.758" x="-608.03"/></text><text y="704.8" x="-2431.72" opacity=".8"><tspan y="704.8" x="-2431.72"/></text><text y="-902.29" x="-456.94" opacity=".8"><tspan y="-902.29" x="-456.94"/></text><text y="-1315.76" x="350.66" opacity=".8"><tspan y="-1315.76" x="350.66"/></text><text y="-1356.5" x="374.62" opacity=".8"><tspan y="-1356.5" x="374.62"/></text><text y="-1363.71" x="-1116.84" opacity=".8"><tspan y="-1363.71" x="-1116.84"/></text><text y="-1636.94" x="343.7" opacity=".8"><tspan y="-1636.94" x="343.7"/></text><text y="-1010.25" x="1829.83" opacity=".8"><tspan y="-1010.25" x="1829.83"/></text><text y="-1050.99" x="1853.79" opacity=".8"><tspan y="-1050.99" x="1853.79"/></text><text y="-1058.2" x="362.32" opacity=".8"><tspan y="-1058.2" x="362.32"/></text><text y="-1331.44" x="1822.87" opacity=".8"><tspan y="-1331.44" x="1822.87"/></text><text y="-1106.3" x="-575.49" opacity=".8"><tspan y="-1106.3" x="-575.49"/></text><text y="-360.74" x="-2399.18" opacity=".8"><tspan y="-360.74" x="-2399.18"/></text><text y="-267.87" x="-684.42" opacity=".8"><tspan y="-267.87" x="-684.42"/></text><text y="-26.956" x="155.59" opacity=".8"><tspan y="-26.956" x="155.59"/></text><text y="-67.7" x="179.55" opacity=".8"><tspan y="-67.7" x="179.55"/></text><text y="-261.73" x="-1090.26" opacity=".8"><tspan y="-261.73" x="-1090.26"/></text><text y="-675.2" x="-282.66" opacity=".8"><tspan y="-675.2" x="-282.66"/></text><text y="-715.94" x="-258.7" opacity=".8"><tspan y="-715.94" x="-258.7"/></text><text y="-723.15" x="-1750.16" opacity=".8"><tspan y="-723.15" x="-1750.16"/></text><text y="-996.38" x="-289.62" opacity=".8"><tspan y="-996.38" x="-289.62"/></text><text y="-369.69" x="1196.5" opacity=".8"><tspan y="-369.69" x="1196.5"/></text><text y="-410.43" x="1220.46" opacity=".8"><tspan y="-410.43" x="1220.46"/></text><text y="-417.64" x="-271" opacity=".8"><tspan y="-417.64" x="-271"/></text><text y="-690.88" x="1189.54" opacity=".8"><tspan y="-690.88" x="1189.54"/></text><text y="-465.73" x="-1208.82" opacity=".8"><tspan y="-465.73" x="-1208.82"/></text><text y="279.82" x="-3032.5" opacity=".8"><tspan y="279.82" x="-3032.5"/></text></g><text font-size="14" y="1159.42" x="-664.27" opacity=".8" transform="matrix(.90475 0 0 .90475-716.75-676.29)"><tspan y="1159.42" x="-664.27"/></text><g font-size="12.666"><text y="18.05" x="877.23" opacity=".8"><tspan y="18.05" x="877.23"/></text><text y="-22.691" x="901.19" opacity=".8"><tspan y="-22.691" x="901.19"/></text><text y="-52.769" x="-569.37" opacity=".8"><tspan y="-52.769" x="-569.37"/></text><text y="692.78" x="-2393.06" opacity=".8"><tspan y="692.78" x="-2393.06"/></text><text y="-438.09" x="-454.88" opacity=".8"><tspan y="-438.09" x="-454.88"/></text><text y="-851.56" x="352.72" opacity=".8"><tspan y="-851.56" x="352.72"/></text><text y="-892.3" x="376.68" opacity=".8"><tspan y="-892.3" x="376.68"/></text><text y="-899.51" x="-1114.78" opacity=".8"><tspan y="-899.51" x="-1114.78"/></text><text y="-1172.75" x="345.76" opacity=".8"><tspan y="-1172.75" x="345.76"/></text><text y="-546.05" x="1831.89" opacity=".8"><tspan y="-546.05" x="1831.89"/></text><text y="-586.8" x="1855.85" opacity=".8"><tspan y="-586.8" x="1855.85"/></text><text y="-594.01" x="364.38" opacity=".8"><tspan y="-594.01" x="364.38"/></text><text y="-867.24" x="1824.93" opacity=".8"><tspan y="-867.24" x="1824.93"/></text><text y="-642.1" x="-573.43" opacity=".8"><tspan y="-642.1" x="-573.43"/></text><text y="103.46" x="-2397.12" opacity=".8"><tspan y="103.46" x="-2397.12"/></text><text y="196.33" x="-682.36" opacity=".8"><tspan y="196.33" x="-682.36"/></text><text y="17.15" x="426.66" opacity=".8"><tspan y="17.15" x="426.66"/></text><text y="-23.596" x="450.62" opacity=".8"><tspan y="-23.596" x="450.62"/></text><text y="-30.806" x="-1040.84" opacity=".8"><tspan y="-30.806" x="-1040.84"/></text><text y="-304.04" x="419.7" opacity=".8"><tspan y="-304.04" x="419.7"/></text><text y="-33.52" x="-608.03" opacity=".8"><tspan y="-33.52" x="-608.03"/></text><text y="712.03" x="-2431.72" opacity=".8"><tspan y="712.03" x="-2431.72"/></text><text y="-895.05" x="-456.94" opacity=".8"><tspan y="-895.05" x="-456.94"/></text><text y="-1308.52" x="350.66" opacity=".8"><tspan y="-1308.52" x="350.66"/></text><text y="-1349.26" x="374.62" opacity=".8"><tspan y="-1349.26" x="374.62"/></text><text y="-1356.47" x="-1116.84" opacity=".8"><tspan y="-1356.47" x="-1116.84"/></text><text y="-1629.71" x="343.7" opacity=".8"><tspan y="-1629.71" x="343.7"/></text><text y="-1003.02" x="1829.83" opacity=".8"><tspan y="-1003.02" x="1829.83"/></text><text y="-1043.76" x="1853.79" opacity=".8"><tspan y="-1043.76" x="1853.79"/></text><text y="-1050.97" x="362.32" opacity=".8"><tspan y="-1050.97" x="362.32"/></text><text y="-1324.2" x="1822.87" opacity=".8"><tspan y="-1324.2" x="1822.87"/></text><text y="-1099.06" x="-575.49" opacity=".8"><tspan y="-1099.06" x="-575.49"/></text><text y="-353.5" x="-2399.18" opacity=".8"><tspan y="-353.5" x="-2399.18"/></text><text y="-260.63" x="-684.42" opacity=".8"><tspan y="-260.63" x="-684.42"/></text><text y="-19.718" x="155.59" opacity=".8"><tspan y="-19.718" x="155.59"/></text><text y="-60.46" x="179.55" opacity=".8"><tspan y="-60.46" x="179.55"/></text><text y="-254.49" x="-1090.26" opacity=".8"><tspan y="-254.49" x="-1090.26"/></text><text y="-667.96" x="-282.66" opacity=".8"><tspan y="-667.96" x="-282.66"/></text><text y="-708.7" x="-258.7" opacity=".8"><tspan y="-708.7" x="-258.7"/></text><text y="-715.91" x="-1750.16" opacity=".8"><tspan y="-715.91" x="-1750.16"/></text><text y="-989.14" x="-289.62" opacity=".8"><tspan y="-989.14" x="-289.62"/></text><text y="-362.45" x="1196.5" opacity=".8"><tspan y="-362.45" x="1196.5"/></text><text y="-403.19" x="1220.46" opacity=".8"><tspan y="-403.19" x="1220.46"/></text><text y="-410.4" x="-271" opacity=".8"><tspan y="-410.4" x="-271"/></text><text y="-683.64" x="1189.54" opacity=".8"><tspan y="-683.64" x="1189.54"/></text><text y="-458.5" x="-1208.82" opacity=".8"><tspan y="-458.5" x="-1208.82"/></text><text y="287.06" x="-3032.5" opacity=".8"><tspan y="287.06" x="-3032.5"/></text></g><text font-size="14" y="1159.42" x="-664.27" opacity=".8" transform="matrix(.90475 0 0 .90475-716.75-669.05)"><tspan y="1159.42" x="-664.27"/></text></g><g font-size="12.666"><text y="-361.23" x="435.9" font-family="&apos;Droid Sans&apos;"><tspan y="-361.23" x="435.9"/><tspan y="-345.39" x="435.9"/></text><g font-family="&apos;Bitstream Vera Sans&apos;"><text y="-843.27" x="901.09" opacity=".8"><tspan y="-843.27" x="901.09"/></text><text y="-97.72" x="-922.6" opacity=".8"><tspan y="-97.72" x="-922.6"/></text><text y="-1128.27" x="1628.17" opacity=".8"><tspan y="-1128.27" x="1628.17"/></text><text y="-1169.01" x="1652.13" opacity=".8"><tspan y="-1169.01" x="1652.13"/></text><text y="-1176.22" x="160.67" opacity=".8"><tspan y="-1176.22" x="160.67"/></text><text y="-1449.45" x="1621.21" opacity=".8"><tspan y="-1449.45" x="1621.21"/></text></g></g><rect ry="2.25" rx="1.8" transform="matrix(0-1-1 0 0 0)" height="36" width="36" y="-42" x="-42" fill="url(#2)"/><g transform="matrix(.64706 0 0 .63636 8.47 8.727)" opacity="1" fill="#1e74d4"><path d="m40.851 19.248c-1.601-7.633-16.702-8.117-26.435-2.301v.642c9.721-4.908 23.514-4.877 24.77 2.155.423 2.329-.909 4.752-3.298 6.146v1.824c2.875-1.032 5.814-4.372 4.963-8.466m-17.701 13.365c-6.717.608-13.716-.349-14.696-5.504-.487-2.538.698-5.232 2.261-6.904v-.895c-2.818 2.426-4.348 5.494-3.465 9.117 1.127 4.649 7.134 7.281 16.304 6.405 3.631-.343 8.383-1.49 11.68-3.271v-2.529c-2.997 1.756-7.953 3.206-12.08 3.58z"/><g transform="matrix(1.1214 0 0 1.1339-2.203-4.313)"><path d="m34.07 19.677h-1.657v7.01c0 .823.416 1.538 1.657 1.652"/><path d="m14.323 22.24h-1.658v4.576c0 .823.416 1.538 1.658 1.652"/><path d="m12.665 19.89h1.658v1.49h-1.658z"/><path d="m24.25 28.391c-1.344 0-1.91-.886-1.91-1.76v-6.077h1.639v1.683h1.241v1.26h-1.241v3.04c0 .358.181.554.572.554h.669v1.3h-.97"/><path d="m28.613 23.421c-.56 0-.994.275-1.175.647-.108.224-.145.395-.163.67h2.537c-.036-.673-.356-1.317-1.2-1.317m-1.338 2.379c0 .798.53 1.385 1.458 1.385.729 0 1.091-.193 1.513-.587l1.013.922c-.651.607-1.332.976-2.537.976-1.573 0-3.08-.815-3.08-3.188 0-2.029 1.314-3.176 3.044-3.176 1.754 0 2.76 1.343 2.76 3.105v.562h-4.17"/><path d="m18.789 23.497c.482 0 .681.224.681.59v4.311h1.645v-4.317c0-.877-.494-1.845-1.935-1.845h-3.393v6.162h1.639v-4.902"/></g></g></g><g fill-opacity="1"><g transform="translate(-.5 1.9)" fill="#eae8e8"><path d="m427.57 543.8v1h-1v-1h1m-1 1v1h-1v-1h1m-1 0h-1v-1h1v1m-1 0v1h-1v-1h1m-1 0h-1v-1h1v1m-1 0v1h-1v-1h1m-1 0h-1v-1h1v1m-1 0v1h-1v-1h1m-1 0h-1v-1h1v1m-1 0v1h-1v-1h1m-1 0h-1v-1h1v1m-1 0v1h-1v-1h1m-1 0h-1v-1h1v1m-1 0v1h-1v-1h1m-1 0h-1v-1h1v1m-1 0v1h-1v-1h1" color="#000"/><path d="m431.57 543.8l-2 2h2v-2" fill-rule="evenodd"/><g color="#000"><path d="m387.57 543.8v1h1v-1h-1m1 1v1h1v-1h-1m1 0h1v-1h-1v1m1 0v1h1v-1h-1m1 0h1v-1h-1v1m1 0v1h1v-1h-1m1 0h1v-1h-1v1m1 0v1h1v-1h-1m1 0h1v-1h-1v1m1 0v1h1v-1h-1m1 0h1v-1h-1v1m1 0v1h1v-1h-1m1 0h1v-1h-1v1m1 0v1h1v-1h-1m1 0h1v-1h-1v1m1 0v1h1v-1h-1"/><path d="m432.57 521.8h-1v-1h1v1m-1-1h-1v-1h1v1m0-1v-1h1v1h-1m0-1h-1v-1h1v1m0-1v-1h1v1h-1m0-1h-1v-1h1v1m0-1v-1h1v1h-1m0-1h-1v-1h1v1m0-1v-1h1v1h-1m0-1h-1v-1h1v1m0-1v-1h1v1h-1m0-1h-1v-1h1v1m0-1v-1h1v1h-1m0-1h-1v-1h1v1m0-1v-1h1v1h-1m0-1h-1v-1h1v1"/><path transform="translate(376.57 491.8)" d="m54 40v1h1v-1zm1 1v1h1v-1zm0 1h-1v1h1zm0 1v1h1v-1zm0 1h-1v1h1zm0 1v1h1v-1zm0 1h-1v1h1zm0 1v1h1v-1zm0 1h-1v1h1z"/></g></g><g transform="matrix(.29254 0 0 .29164 551.65 572.09)" fill="#1e74d4" color="#000"><ellipse ry="2.5" rx="2.5" cy="-130.51" cx="-462.61"/><ellipse ry="3" rx="3" cy="-123.01" cx="-458.11"/><ellipse ry="1.5" rx="1.5" cy="-138.51" cx="-460.61"/><path d="m-452.11-140.01l-2.844 2.844 4.375 4.375-4.531 5.156 3 2.625 7-8-7-7"/></g></g></g></svg>