<svg xmlns="http://www.w3.org/2000/svg" xmlns:xlink="http://www.w3.org/1999/xlink" viewBox="0 0 48 48"><defs><linearGradient id="2" x1="411.47" y1="542.07" x2="409.61" y2="521.6" gradientUnits="userSpaceOnUse"><stop stop-color="#ecce39"/><stop offset="1" stop-color="#fef05d"/></linearGradient><linearGradient id="1"><stop stop-color="#e6f3ff"/><stop offset="1" stop-color="#dcffe7"/></linearGradient><linearGradient xlink:href="#1" id="3" x1="131.44" y1="223.27" x2="123.9" y2="103.58" gradientUnits="userSpaceOnUse"/><linearGradient gradientUnits="userSpaceOnUse" x2="18.772" x1="3.147" xlink:href="#1"/><linearGradient gradientUnits="userSpaceOnUse" x1="0" x2="459"><stop stop-color="#e3203a"/><stop offset="1" stop-color="#fd5420"/></linearGradient><linearGradient gradientUnits="userSpaceOnUse" x2="47" x1="0"><stop stop-color="#a9a3d4"/><stop offset=".47" stop-color="#87baff"/><stop offset="1" stop-color="#89ec85"/></linearGradient><linearGradient id="0" x1="409.57" y1="542.8" x2="409.94" y2="501.23" gradientUnits="userSpaceOnUse" gradientTransform="matrix(1.05233 0 0 1.02761-72.57-8.693)"><stop stop-color="#08f"/><stop offset="1" stop-color="#02c3ff"/></linearGradient></defs><g transform="matrix(1.35024 0 0 1.35024 1.959-1364.47)"><path d="m63 48.667h-8v-16h8c8.836 0 16-7.164 16-16 0-8.836-7.164-16-16-16-8.837 0-16 7.164-16 16v8h-16v-8c0-8.836-7.164-16-16-16-8.836 0-16 7.164-16 16 0 8.836 7.164 16 16 16h8v16h-8c-8.836 0-16 7.164-16 16 0 8.836 7.164 16 16 16 8.837 0 16-7.164 16-16v-8h16v7.98c0 .008-.0001.014-.0001.02 0 8.836 7.164 16 16 16 8.836 0 16-7.164 16-16 0-8.836-7.163-15.998-15.999-16m0-40c4.418 0 8 3.582 8 8 0 4.418-3.582 8-8 8h-8v-8c0-4.418 3.582-8 8-8m-56 8c0-4.418 3.582-8 8-8 4.418 0 8 3.582 8 8v8h-8c-4.418 0-8-3.583-8-8m8 56c-4.418 0-8-3.582-8-8 0-4.418 3.582-8 8-8h8v8c0 4.418-3.582 8-8 8m16-24v-16h16v16h-16m32 24c-4.418 0-8-3.582-8-8v-8h7.999c4.418 0 8 3.582 8 8 0 4.418-3.581 8-7.999 8" fill="#fff" fill-opacity=".847" transform="matrix(.3 0 0 .3 4.327 1014.32)" stroke-width="1.317"/><g transform="matrix(.76768 0 0 .87003-258.02 564.67)"><rect y="513.13" x="334.23" height="34.939" width="46.3" fill="url(#0)" rx="1.644"/><flowRoot transform="matrix(1.71835 0 0 1.71835 390.33 513.78)" font-family="sans-serif" text-align="start" word-spacing="0" line-height="125%" letter-spacing="0" font-size="10"><flowRegion><path d="m22 3h27v15h-27z"/></flowRegion><flowPara>Plasm</flowPara></flowRoot></g><g fill-rule="evenodd"><path d="m33.643 1026.34c0 6.453-3.402 12.1-8.478 15.172l-17.727-.031c-5.05-3.082-8.427-8.709-8.427-15.14 0-6.491 3.442-12.164 8.569-15.226h17.538c5.102 3.069 8.525 8.754 8.525 15.226" opacity=".9" fill-opacity=".16"/><circle r="12.855" cy="1026.31" cx="16.327" opacity=".9" fill-opacity=".2"/><circle r="8" cy="1026.31" cx="16.327" opacity=".9" fill-opacity=".232"/></g><path d="m154.62 140.33l-26.45-.039v-32.04c0-7.911-5.363-14.348-12.5-14.348-7.138 0-12.5 6.437-12.5 14.348v48.52c-3-3.409-6.196-5.447-10.211-5.447-2.217 0-4.443.643-6.396 1.861-6.156 3.861-8.385 12.313-5.03 19.288 5.485 10.915 23.475 46.737 24.697 48.569 4.064 6.153 10.23 9.748 16.928 9.748h35.33c13.545 0 20.68-7.112 20.68-19.284v-44.628c0-.226.305-.448.291-.67.017-.349-.013-.708-.013-1.079 0-13.672-11.162-24.796-24.829-24.796" fill="url(#3)" transform="matrix(.14732 0 0 .14732-.401 1011.5)"/></g></svg>