<svg xmlns="http://www.w3.org/2000/svg" viewBox="0 0 48 48"><defs><linearGradient y2="506.8" x2="408.57" y1="540.96" x1="408.75" gradientTransform="matrix(1.52928 0 0 1.52941-592.82-769.1)" gradientUnits="userSpaceOnUse" id="0"><stop stop-color="#8798a9"/><stop offset="1" stop-color="#bfc8d1"/></linearGradient><linearGradient id="1" gradientUnits="userSpaceOnUse" y1="41" x2="0" y2="23"><stop stop-color="#3d434a"/><stop offset="1" stop-color="#5f6974"/></linearGradient></defs><g transform="matrix(.92308 0 0 .92308-353.14-459.51)"><path transform="translate(376.57 491.8)" d="m32 6c-14.403 0-25.998 11.596-25.998 26 0 14.404 11.595 26 25.998 26 14.403 0 25.998-11.596 25.998-26 0-14.404-11.595-26-25.998-26m0 23c1.662 0 3 1.338 3 3 0 1.662-1.338 3-3 3-1.662 0-3-1.338-3-3 0-1.662 1.338-3 3-3z" fill="url(#0)"/><g><path d="m32 23c-4.986 0-9 4.01-9 9 0 4.986 4.01 9 9 9 4.986 0 9-4.01 9-9 0-4.986-4.01-9-9-9m0 6c1.662 0 3 1.338 3 3 0 1.662-1.338 3-3 3-1.662 0-3-1.338-3-3 0-1.662 1.338-3 3-3" transform="translate(376.57 491.8)" fill="url(#1)"/><path d="m32 24a8 8 0 0 0 -8 8 8 8 0 0 0 8 8 8 8 0 0 0 8 -8 8 8 0 0 0 -8 -8m0 1a7 7 0 0 1 7 7 7 7 0 0 1 -7 7 7 7 0 0 1 -7 -7 7 7 0 0 1 7 -7" transform="translate(376.57 491.8)" fill="#9da9b5" stroke-linecap="round"/></g></g></svg>