<svg xmlns="http://www.w3.org/2000/svg" xmlns:xlink="http://www.w3.org/1999/xlink" viewBox="0 0 48 48"><defs><linearGradient xlink:href="#0" id="3" gradientUnits="userSpaceOnUse" gradientTransform="matrix(.85714 0 0 .88889 52.653 68.64)" y1="527.8" x2="0" y2="518.8"/><linearGradient xlink:href="#0" id="4" gradientUnits="userSpaceOnUse" gradientTransform="matrix(.85714 0 0 .88889 44.653 68.64)" y1="527.8" x2="0" y2="518.8"/><linearGradient xlink:href="#0" id="2" gradientUnits="userSpaceOnUse" gradientTransform="matrix(.85714 0 0 .88889 60.65 68.64)" y1="527.8" x2="0" y2="518.8"/><linearGradient id="0"><stop stop-color="#2a2c2f"/><stop offset="1" stop-color="#424649"/></linearGradient><linearGradient gradientTransform="matrix(1 0 0 .96869 61 10.211)" gradientUnits="userSpaceOnUse" y2="511.8" x2="0" y1="547.8" id="1"><stop stop-color="#63984b"/><stop offset="1" stop-color="#8fc278"/></linearGradient></defs><g transform="matrix(.82759 0 0 .82759-268.64-415.66)"><g transform="matrix(1 0 0 .73699-54.97 144.78)"><rect width="58" height="36.81" x="379.57" y="505.99" fill="url(#1)" fill-rule="evenodd" rx="1.453"/><path d="m379.57 538.82h58v2.688c-.03 1.292-1.474 1.289-1.474 1.289h-54.58c0 0-1.941.231-1.942-1.394z" fill="#e6ed6e"/></g><g transform="matrix(1.5 0 0 1.5-266.45-270.75)"><rect y="529.8" x="424.57" height="8" width="6" fill="url(#2)" rx=".5"/><rect width="6" height="8" x="416.57" y="529.8" fill="url(#3)" rx=".5"/><rect y="529.8" x="408.57" height="8" width="6" fill="url(#4)" rx=".5"/></g></g></svg>