<svg xmlns="http://www.w3.org/2000/svg" viewBox="0 0 48 48"><defs><linearGradient y2="506.8" x2="408.57" y1="544.88" x1="408.26" gradientTransform="matrix(1.52928 0 0 1.52941-592.82-769.1)" gradientUnits="userSpaceOnUse" id="0"><stop stop-color="#fa345d"/><stop offset="1" stop-color="#f76a8d"/></linearGradient><linearGradient id="1" gradientUnits="userSpaceOnUse" y1="41" x2="0" y2="23"><stop stop-color="#ffb0d4"/><stop offset="1" stop-color="#fbf6fa"/></linearGradient></defs><path transform="matrix(.92308 0 0 .92308-5.534-5.541)" d="m32 6c-14.403 0-25.998 11.596-25.998 26 0 14.404 11.595 26 25.998 26 14.403 0 25.998-11.596 25.998-26 0-14.404-11.595-26-25.998-26m0 23c1.662 0 3 1.338 3 3 0 1.662-1.338 3-3 3-1.662 0-3-1.338-3-3 0-1.662 1.338-3 3-3z" fill="url(#0)"/><path d="m32 23c-4.986 0-9 4.01-9 9 0 4.986 4.01 9 9 9 4.986 0 9-4.01 9-9 0-4.986-4.01-9-9-9m0 6c1.662 0 3 1.338 3 3 0 1.662-1.338 3-3 3-1.662 0-3-1.338-3-3 0-1.662 1.338-3 3-3" transform="matrix(.92308 0 0 .92308-5.534-5.541)" fill="url(#1)"/><path d="m32 24a8 8 0 0 0 -8 8 8 8 0 0 0 8 8 8 8 0 0 0 8 -8 8 8 0 0 0 -8 -8m0 1a7 7 0 0 1 7 7 7 7 0 0 1 -7 7 7 7 0 0 1 -7 -7 7 7 0 0 1 7 -7" transform="matrix(.92308 0 0 .92308-5.534-5.541)" fill="#f85278" stroke-linecap="round"/><path d="m900.2 0h-46.514c-11.05 0-20 8.954-20 20v24.89c0 11.05-8.954 20-20 20h-43.37c-11.05 0-20-8.955-20-20v-24.89c0-11.05-8.953-20-20-20h-522.19c-11.05 0-20 8.954-20 20v24.89c0 11.05-8.954 20-20 20h-43.37c-11.05 0-20-8.955-20-20v-24.89c0-11.05-8.954-20-20-20h-44.95c-11.05 0-20 8.954-20 20v900c0 11.05 8.954 20 20 20h44.95c11.05 0 20-8.954 20-20v-18.285c0-11.05 8.954-20 20-20h43.37c11.05 0 20 8.954 20 20v18.285c0 11.05 8.954 20 20 20h522.19c11.05 0 20-8.954 20-20v-18.285c0-11.05 8.954-20 20-20h43.37c11.05 0 20 8.954 20 20v18.285c0 11.05 8.954 20 20 20h46.514c11.05 0 20-8.954 20-20v-900c0-11.04-8.954-20-20-20m-712.08 765.37c0 11.05-8.954 20-20 20h-43.37c-11.05 0-20-8.954-20-20v-43.37c0-11.04 8.954-20 20-20h43.37c11.05 0 20 8.955 20 20v43.37m0-179.72c0 11.04-8.954 20-20 20h-43.37c-11.05 0-20-8.955-20-20v-43.37c0-11.04 8.954-20 20-20h43.37c11.05 0 20 8.955 20 20v43.37m0-179.72c0 11.05-8.954 20-20 20h-43.37c-11.05 0-20-8.953-20-20v-43.37c0-11.05 8.954-20 20-20h43.37c11.05 0 20 8.954 20 20v43.37m0-179.72c0 11.05-8.954 20-20 20h-43.37c-11.05 0-20-8.954-20-20v-43.37c0-11.04 8.954-20 20-20h43.37c11.05 0 20 8.955 20 20v43.37m475.72 608.05c0 11.05-8.954 20-20 20h-347.67c-11.05 0-20-8.953-20-20v-160.72c0-11.05 8.954-20 20-20h347.67c11.05 0 20 8.954 20 20v160.72m0-283.91c0 11.05-8.954 20-20 20h-347.67c-11.05 0-20-8.954-20-20v-160.72c0-11.05 8.954-20 20-20h347.67c11.05 0 20 8.955 20 20v160.72m0-283.91c0 11.05-8.954 20-20 20h-347.67c-11.05 0-20-8.954-20-20v-160.72c0-11.05 8.954-20 20-20h347.67c11.05 0 20 8.955 20 20v160.72m169.85 498.92c0 11.05-8.954 20-20 20h-43.37c-11.05 0-20-8.954-20-20v-43.37c0-11.04 8.954-20 20-20h43.37c11.05 0 20 8.955 20 20v43.37m0-179.72c0 11.04-8.954 20-20 20h-43.37c-11.05 0-20-8.955-20-20v-43.37c0-11.04 8.954-20 20-20h43.37c11.05 0 20 8.955 20 20v43.37m0-179.72c0 11.05-8.954 20-20 20h-43.37c-11.05 0-20-8.953-20-20v-43.37c0-11.05 8.954-20 20-20h43.37c11.05 0 20 8.954 20 20v43.37m0-179.72c0 11.05-8.954 20-20 20h-43.37c-11.05 0-20-8.954-20-20v-43.37c0-11.04 8.954-20 20-20h43.37c11.05 0 20 8.955 20 20v43.37" transform="matrix(.00888 0 0 .00887 35.11 19.725)" stroke="none" stroke-opacity=".8" fill="#fdd1e6"/></svg>