<svg xmlns="http://www.w3.org/2000/svg" xmlns:xlink="http://www.w3.org/1999/xlink" viewBox="0 0 48 48"><defs><linearGradient xlink:href="#0" id="3" x1="159.46" y1="668.03" x2="160.66" y2="596.97" gradientUnits="userSpaceOnUse"/><linearGradient xlink:href="#0" id="4" x1="159.46" y1="668.03" x2="160.66" y2="596.97" gradientUnits="userSpaceOnUse"/><linearGradient id="2" x1="8.167" y1="1050.47" x2="8.115" y2="1038.35" gradientUnits="userSpaceOnUse"><stop stop-color="#141414"/><stop offset="1" stop-color="#2d2d2f"/></linearGradient><linearGradient id="0"><stop stop-color="#ff3069"/><stop offset="1" stop-color="#ffa548"/></linearGradient><linearGradient xlink:href="#0" id="1" x1="169.5" y1="624.72" x2="159.24" y2="63.27" gradientUnits="userSpaceOnUse" gradientTransform="matrix(.93022 0 0 .91891 14.815 32.587)"/></defs><g transform="matrix(.07976 0 0 .06939 11.129.212)"><rect width="292.69" height="525.81" x="18.553" y="87.91" fill="url(#1)" fill-rule="evenodd" rx="9.302"/><path d="m11.404 1037.36h-6.807c-.31 0-.561.251-.561.561v12.877c0 .31.251.561.561.561h6.807c.31 0 .561-.251.561-.561v-12.877c0-.31-.251-.561-.561-.561m-.082 11.778h-6.644v-9.555h6.644z" transform="matrix(42.98335 0 0 49.4146-182.52-51263.92)" fill="url(#2)"/><ellipse cx="161.34" cy="637.98" rx="25.23" ry="29" fill="url(#3)" fill-rule="evenodd" stroke="url(#4)" stroke-linecap="round" stroke-width="7.411"/></g></svg>