<svg xmlns="http://www.w3.org/2000/svg" xmlns:xlink="http://www.w3.org/1999/xlink" viewBox="0 0 48 48"><defs><linearGradient xlink:href="#5" id="4" x1="154.9" y1="674.44" x2="155.81" y2="620.55" gradientUnits="userSpaceOnUse"/><linearGradient id="5"><stop stop-color="#08f"/><stop offset="1" stop-color="#02c3ff"/></linearGradient><linearGradient xlink:href="#0" id="3" gradientUnits="userSpaceOnUse" x1="7.393" y1="1050.47" x2="7.341" y2="1038.35"/><linearGradient xlink:href="#5" id="1" x1="169.5" y1="624.72" x2="159.24" y2="63.27" gradientUnits="userSpaceOnUse" gradientTransform="matrix(1.15257 0 0 1.01993-19.353-8.296)"/><linearGradient id="0"><stop stop-color="#141414"/><stop offset="1" stop-color="#2d2d2f"/></linearGradient><linearGradient xlink:href="#0" id="2" x1="8.167" y1="1050.47" x2="8.115" y2="1038.35" gradientUnits="userSpaceOnUse"/></defs><g transform="matrix(.07976 0 0 .06939 11.129.212)"><g><rect y="53.11" x="-14.721" height="583.62" width="362.65" fill="url(#1)" fill-rule="evenodd" rx="10.325"/><path d="m12.178 1037.36h-8.355c-.31 0-.561.251-.561.561v12.877c0 .31.251.561.561.561h8.355c.31 0 .561-.251.561-.561v-12.877c0-.31-.251-.561-.561-.561m-.082 12.419h-8.192v-10.868h8.192z" fill="url(#3)" transform="matrix(42.98335 0 0 49.4146-182.52-51263.92)"/></g><ellipse cx="156.33" cy="651.65" rx="19.13" ry="21.992" fill="url(#4)" fill-rule="evenodd" stroke="url(#4)" stroke-linecap="round" stroke-width="5.62"/></g></svg>