<svg xmlns="http://www.w3.org/2000/svg" xmlns:xlink="http://www.w3.org/1999/xlink" viewBox="0 0 48 48"><defs><linearGradient gradientTransform="matrix(1.16667 0 0 1.09091-67.788-49.8)" gradientUnits="userSpaceOnUse" y2="538.46" x2="0" y1="546.42" id="4" xlink:href="#0"/><linearGradient gradientUnits="userSpaceOnUse" x2="508.49" x1=".0001"><stop stop-color="#ececec"/><stop offset="1" stop-opacity="0"/></linearGradient><linearGradient gradientUnits="userSpaceOnUse" y2="546.59" x2="408.47" y1="547.81" x1="408.46" id="5" xlink:href="#0" gradientTransform="matrix(.77297 0 0 1.13761 93.07-75.23)"/><linearGradient x1="0" x2="47" gradientUnits="userSpaceOnUse"><stop stop-color="#a9a3d4"/><stop offset=".47" stop-color="#87baff"/><stop offset="1" stop-color="#89ec85"/></linearGradient><linearGradient gradientUnits="userSpaceOnUse" y2="504.79" x2="419.39" y1="537.32" x1="420.91" id="6"><stop stop-color="#151515"/><stop offset="1" stop-color="#2e2e2e"/></linearGradient><linearGradient gradientTransform="matrix(.97589 0 0 1.05112 9.851-26.23)" id="3" x1="408.33" y1="534.91" x2="407.33" y2="506.05" gradientUnits="userSpaceOnUse"><stop stop-color="#833cfc"/><stop offset="1" stop-color="#f461d4"/></linearGradient><linearGradient id="0"><stop stop-color="#151515"/><stop offset="1" stop-color="#272727"/></linearGradient><linearGradient id="2" x1="408.71" y1="538.93" x2="408.78" y2="503.88" gradientUnits="userSpaceOnUse"><stop stop-color="#141414"/><stop offset="1" stop-color="#2d2d2f"/></linearGradient><linearGradient id="1"><stop stop-color="#2e5d89"/><stop offset="1" stop-color="#1b92f4"/></linearGradient><linearGradient xlink:href="#1" gradientUnits="userSpaceOnUse" x1="458.2" y1="523.3" x2="473.2" y2="538.3"/><linearGradient y2="528.53" x2="416.84" y1="510.8" x1="399.12" gradientUnits="userSpaceOnUse" xlink:href="#1"/></defs><g transform="matrix(.80613 0 0 .80613-354.84-399.6)"><g transform="matrix(1.38696 0 0 1-97.15-3.354)"><path d="m401.88 535.8l1.339 12h11.322l1.339-12z" fill="url(#4)"/><rect y="546.72" x="401.28" height="1.339" width="15.203" fill="url(#5)" rx=".6"/></g><g transform="matrix(1.13652 0 0 .92672 5.598 39.651)" fill-rule="evenodd"><rect width="52" height="35.14" x="382.57" y="503.66" fill="url(#2)" stroke="url(#6)" stroke-linejoin="round" stroke-linecap="round" stroke-width=".392" rx=".958"/><rect width="46.679" height="31.697" x="385.23" y="505.39" fill="url(#3)" rx=".526"/></g></g></svg>