<svg xmlns="http://www.w3.org/2000/svg" viewBox="0 0 16 16"><path d="m404.72 528.39q3.038 0 5.113 2.093 2.075 2.093 2.075 5.058 0 1.667-.723 2.76-.704 1.093-2.056 1.093-1.389 0-2.075-1.352-.908 1.352-2.594 1.352-1.519 0-2.557-1.056-1.037-1.075-1.037-2.723 0-1.63 1.037-2.705 1.037-1.075 2.483-1.075 1.427 0 2.371 1.093h.074v-.834h1.334v4.835q0 .482.259.871.278.389.834.389 1.315 0 1.315-2.649 0-2.445-1.704-4.131-1.704-1.686-4.15-1.686-2.445 0-4.15 1.686-1.704 1.686-1.704 4.131 0 2.445 1.704 4.131 1.704 1.686 4.15 1.686 1.315 0 2.353-.519l.519 1.26q-1.297.593-2.872.593-3.075 0-5.169-2.075-2.093-2.093-2.093-5.076 0-2.964 2.093-5.058 2.112-2.093 5.169-2.093m-1.723 8.948q.667.648 1.593.648.926 0 1.575-.648.667-.648.667-1.723 0-1.075-.667-1.723-.648-.648-1.575-.648-.926 0-1.593.648-.648.648-.648 1.723 0 1.075.648 1.723" stroke-width=".093" transform="matrix(.78516 0 0 .78516-309.65-412.6)" stroke-opacity=".8" fill="#4d4d4d" stroke="none"/></svg>