<svg xmlns="http://www.w3.org/2000/svg" viewBox="0 0 16 16"><defs><linearGradient gradientUnits="userSpaceOnUse" y2="354.29" x2="-704.05" y1="647.77" x1="-701.19" id="0"><stop stop-color="#7ba2fd"/><stop offset="1" stop-color="#aec7ff"/></linearGradient></defs><g transform="matrix(.04235 0 0 .04193 12.359-25.862)" fill="#60aae5" stroke="#4f96d1"><g fill="#7fabfa" transform="matrix(.7872 0 0 .79524 415.34 430.11)"><path d="m-884.1 294.78c-4.626 0-8.349 3.718-8.349 8.335v161.41l468.19 1v-121.2c0-4.618-3.724-8.335-8.35-8.335h-272.65c-8.51.751-9.607-.377-13.812-5.981-5.964-7.968-14.969-21.443-20.84-29.21-4.712-6.805-5.477-6.02-13.292-6.02z" stroke="none" color="#000"/><rect y="356.85" x="-890.28" height="295.13" width="463.85" stroke="url(#0)" stroke-width="2.378" rx="9.63"/></g><rect transform="matrix(.7872 0 0 .79524 415.34 430.11)" y="356.85" x="-890.28" height="295.13" width="463.85" fill="none" stroke="#7fabfa" stroke-linejoin="round" stroke-linecap="round" stroke-width="5.376" rx="9.63"/></g></svg>