<svg xmlns="http://www.w3.org/2000/svg" viewBox="0 0 16 16"><path d="m414.79 533.19l-5.239-5.239c-.302-.302-.791-.302-1.093 0l-1.088 1.088 1.38 1.38c.321-.108.689-.036.944.22.257.257.329.628.218.95l1.33 1.33c.322-.111.693-.039.95.218.359.359.359.941 0 1.3-.359.359-.941.359-1.301 0-.27-.27-.337-.667-.2-1l-1.241-1.241v3.264c.087.043.17.101.243.174.359.359.359.941 0 1.301-.359.359-.941.359-1.3 0-.359-.36-.359-.942 0-1.301.089-.089.192-.156.301-.201v-3.295c-.11-.045-.212-.111-.301-.201-.272-.272-.337-.671-.198-1.01l-1.361-1.361-3.593 3.592c-.302.302-.302.791 0 1.093l5.239 5.239c.302.302.791.302 1.093 0l5.215-5.215c.302-.302.302-.791 0-1.093" fill="#4d4d4d" transform="translate(-401.01-525.73)"/></svg>