<svg xmlns="http://www.w3.org/2000/svg" viewBox="0 0 16 16"><path d="m404.75 529.22l.099.021c1.147-.382 3.721 1.122 3.148 2.463-.145.21-.121.585.055.82l-3.219 3.225c-.18-.181-.581-.177-.766 0l-5.324 5.116c-.485.466-.104.863.101 1.072l.955.956c.209.208.76.488 1.152.073l5.02-5.302c.175-.184.176-.581 0-.763 0 0 .002-.002 0-.002l3.232-3.235c.341.308.664.335.969.251.59-.162.92.417 1.273.839l-.16.157c-.236.239-.214.642.051.907.265.265.668.287.904.051l1.056-1.056c.236-.239.214-.642-.052-.906-.239-.24-.585-.272-.826-.1-.724-.813-.344-.935-1.299-1.994l-1.789-1.831c-1.288-1.265-2.962-1.264-4.584-.761" transform="matrix(.78637 0 0 .78395-311.22-412.43)" fill="#4d4d4d" fill-opacity=".8"/></svg>