<svg xmlns="http://www.w3.org/2000/svg" viewBox="0 0 16 16"><path d="m406.47 542.12l3.242-2.728-4.683-2.92-3.204 2.594 4.645 3.054m3.242-2.729l3.251 2.728 4.635-3.054-3.204-2.594-4.683 2.92m0 .594l-3.242 2.719-1.394-.919v1.034l4.635 2.805 4.664-2.805v-1.034l-1.394.919-3.27-2.719m-7.887-6.098l3.204 2.585 4.683-2.91-3.242-2.728-4.645 3.054m11.138-3.054l-3.251 2.728 4.683 2.91 3.204-2.585-4.635-3.054" stroke="none" transform="matrix(.78637 0 0 .78395-314.13-414.01)" fill="#4d4d4d" stroke-opacity=".8"/></svg>