<svg xmlns="http://www.w3.org/2000/svg" viewBox="0 0 16 16"><path d="m402.53 530.06c.205.185.472.287.751.287.179 0 .356-.043.513-.125.058-.03.113-.066.165-.106l.319-.245.852.798c.022.021.051.032.081.032.003 0 .008 0 .011 0 .034-.003.065-.021.085-.048.215-.296.469-.569.755-.811.026-.022.041-.054.042-.088.002-.034-.013-.067-.038-.09l-.872-.817.203-.331c.282-.461.196-1.058-.204-1.421-.205-.185-.472-.287-.752-.287-.179 0-.356.043-.513.125-.118.062-.224.144-.315.245-.145.162-.24.361-.273.577l-.047.309-.301.079c-.21.055-.399.17-.545.333-.2.223-.301.51-.286.809.015.299.146.574.368.775m3.816 7.151v-.869c0-.033-.013-.063-.037-.086-.023-.023-.055-.034-.087-.033-.088.003-.175-.001-.258-.042-.042-.016-.09-.007-.123.024l-1.449 1.358-.319-.245c-.053-.04-.108-.076-.165-.106-.157-.082-.334-.125-.513-.125-.279 0-.546.102-.751.287-.222.201-.353.476-.368.775-.016.299.086.587.286.81.146.162.334.277.544.332l.302.079.047.31c.033.216.127.415.273.578.09.1.196.183.315.244.157.082.334.125.513.125.28 0 .546-.102.751-.287.222-.201.353-.476.369-.776.012-.229-.045-.452-.163-.645l-.204-.332 1.041-.976c.032-.03.045-.075.034-.117-.024-.093-.037-.189-.037-.284m9.916-8.735c-.146-.162-.334-.277-.545-.333l-.301-.079-.047-.309c-.033-.216-.127-.416-.273-.577-.091-.101-.197-.183-.315-.245-.157-.082-.334-.125-.513-.125-.28 0-.547.102-.752.287-.401.363-.487.96-.204 1.421l.203.331-.872.817c-.025.023-.038.056-.038.09.002.034.016.066.042.088.286.242.54.515.755.811.02.028.051.045.084.048.003 0 .007 0 .011 0 .03 0 .059-.011.081-.032l.852-.798.319.245c.052.04.108.076.165.106.157.082.334.125.513.125.28 0 .546-.102.751-.288.222-.201.353-.476.368-.775.015-.299-.086-.587-.286-.809m-.196 8.899c-.205-.185-.471-.287-.751-.287-.179 0-.356.043-.513.125-.057.03-.113.065-.165.106l-.319.245-1.449-1.358c-.033-.031-.081-.04-.123-.024-.083.032-.17.046-.258.042-.033-.002-.064.001-.087.033-.023.022-.037.053-.037.086v.869c0 .095-.012.191-.037.284-.011.042.002.087.034.117l1.041.976-.204.332c-.119.193-.175.416-.163.645.016.3.147.575.369.776.205.185.471.287.751.287.179 0 .356-.043.513-.125.119-.062.224-.144.315-.244.146-.163.24-.363.273-.578l.047-.31.302-.079c.21-.055.398-.17.544-.332.2-.223.302-.511.286-.81-.015-.299-.146-.574-.368-.775m-3.627-1.627c.05.007.101-.001.136-.046.709-.721 1.1-1.65 1.1-2.615 0-2.155-1.93-3.913-4.32-3.956-2.39.043-4.32 1.801-4.32 3.956 0 .965.391 1.894 1.1 2.615.036.036.086.053.136.046.05-.007.094-.038.118-.083l.388-.727c.011-.021.036-.032.06-.027.024.006.04.027.04.052v2.249c0 .252.145.487.37.598.435.215 1.147.47 2.108.494.961-.024 1.673-.279 2.108-.494.225-.112.37-.347.37-.598v-2.249c0-.024.017-.046.04-.052.024-.006.048.005.06.027l.388.727c.024.045.068.076.118.083m-4.556-1.636c-.606 0-1.099-.588-1.099-1.311 0-.166.135-.302.301-.302h1.596c.166 0 .301.136.301.303 0 .722-.493 1.31-1.099 1.31m2.223 1.464l-.307.266c-.016.014-.04.017-.059.007l-.331-.174c-.043-.023-.063-.023-.107 0l-.331.174c-.019.001-.043.007-.059-.007l-.307-.266c-.022-.019-.025-.053-.005-.075l.607-.707c.091-.106.209-.106.3 0l.607.707c.019.022.017.056-.005.075zm.721-1.464c-.606 0-1.099-.588-1.099-1.31 0-.167.135-.303.301-.303h1.596c.166 0 .301.135.301.302 0 .723-.493 1.311-1.099 1.311" stroke="none" transform="matrix(.85511 0 0 .85247-341.9-447.04)" fill="#4d4d4d" stroke-opacity=".8"/></svg>