<?xml version="1.0" encoding="UTF-8" standalone="no"?>
<!-- Created with Inkscape (http://www.inkscape.org/) -->

<svg
   xmlns:sketch="http://www.bohemiancoding.com/sketch/ns"
   xmlns:osb="http://www.openswatchbook.org/uri/2009/osb"
   xmlns:dc="http://purl.org/dc/elements/1.1/"
   xmlns:cc="http://creativecommons.org/ns#"
   xmlns:rdf="http://www.w3.org/1999/02/22-rdf-syntax-ns#"
   xmlns:svg="http://www.w3.org/2000/svg"
   xmlns="http://www.w3.org/2000/svg"
   xmlns:sodipodi="http://sodipodi.sourceforge.net/DTD/sodipodi-0.dtd"
   xmlns:inkscape="http://www.inkscape.org/namespaces/inkscape"
   width="22"
   height="22"
   id="svg2"
   version="1.1"
   inkscape:version="0.91 r13725"
   viewBox="0 0 22 22"
   sodipodi:docname="vcs-update-required.svg">
  <defs
     id="defs4">
    <linearGradient
       id="linearGradient4207"
       osb:paint="gradient">
      <stop
         style="stop-color:#3498db;stop-opacity:1;"
         offset="0"
         id="stop3371" />
      <stop
         style="stop-color:#3498db;stop-opacity:0;"
         offset="1"
         id="stop3373" />
    </linearGradient>
  </defs>
  <sodipodi:namedview
     id="base"
     pagecolor="#ffffff"
     bordercolor="#666666"
     borderopacity="1.0"
     inkscape:pageopacity="0.0"
     inkscape:pageshadow="2"
     inkscape:zoom="11.5"
     inkscape:cx="0.77330677"
     inkscape:cy="6.8360873"
     inkscape:document-units="px"
     inkscape:current-layer="layer1"
     showgrid="false"
     inkscape:showpageshadow="false"
     borderlayer="true"
     units="px"
     inkscape:window-width="1366"
     inkscape:window-height="635"
     inkscape:window-x="0"
     inkscape:window-y="36"
     inkscape:window-maximized="1"
     inkscape:snap-bbox="true"
     showguides="true">
    <inkscape:grid
       type="xygrid"
       id="grid4062" />
    <sodipodi:guide
       position="0,22.000017"
       orientation="22,0"
       id="guide3338" />
    <sodipodi:guide
       position="0,1.7382813e-05"
       orientation="0,22"
       id="guide3340" />
    <sodipodi:guide
       position="22,1.7382813e-05"
       orientation="-22,0"
       id="guide3342" />
    <sodipodi:guide
       position="16,17"
       orientation="0,-22"
       id="guide3344" />
    <sodipodi:guide
       position="3,19.000017"
       orientation="16,0"
       id="guide3348" />
    <sodipodi:guide
       position="3,3.0000174"
       orientation="0,16"
       id="guide3350" />
    <sodipodi:guide
       position="19,3.0000174"
       orientation="-16,0"
       id="guide3352" />
    <sodipodi:guide
       position="19,19.000017"
       orientation="0,-16"
       id="guide3354" />
  </sodipodi:namedview>
  <metadata
     id="metadata7">
    <rdf:RDF>
      <cc:Work
         rdf:about="">
        <dc:format>image/svg+xml</dc:format>
        <dc:type
           rdf:resource="http://purl.org/dc/dcmitype/StillImage" />
        <dc:title></dc:title>
      </cc:Work>
    </rdf:RDF>
  </metadata>
  <g
     inkscape:label="Capa 1"
     inkscape:groupmode="layer"
     id="layer1"
     transform="translate(0,-1030.3622)">
    <circle
       style="opacity:0.98000004;fill:#1d99f3;fill-opacity:1;stroke:none;stroke-width:1.25835526;stroke-linecap:round;stroke-linejoin:round;stroke-miterlimit:4;stroke-dasharray:none;stroke-opacity:1"
       id="path4150"
       cx="11"
       cy="-1041.3622"
       r="8"
       transform="scale(1,-1)" />
    <g
       id="layer1-8"
       inkscape:label="Capa 1"
       transform="matrix(0.58864466,0,0,0.58864466,7.2099767,428.8499)"
       style="fill:#ffffff;fill-opacity:0.94715445;stroke:#f6f6f6;stroke-width:0.15665036;stroke-linecap:round;stroke-linejoin:round;stroke-miterlimit:4;stroke-dasharray:none;stroke-opacity:1">
      <g
         inkscape:label="Capa 1"
         id="layer1-7"
         transform="matrix(1.3308259,0,0,1.3308259,-3.9565145,-344.50953)"
         style="fill:#ffffff;fill-opacity:0.94715445;stroke:#f6f6f6;stroke-width:0.11770913;stroke-linecap:round;stroke-linejoin:round;stroke-miterlimit:4;stroke-dasharray:none;stroke-opacity:1">
        <g
           id="g3"
           transform="matrix(-0.02029499,0.02017839,0.02017839,0.02029499,-6.1153794,1032.0879)"
           style="fill:#ffffff;fill-opacity:0.94715445;stroke:#f6f6f6;stroke-width:4.11295414;stroke-linecap:round;stroke-linejoin:round;stroke-miterlimit:4;stroke-dasharray:none;stroke-opacity:1" />
      </g>
    </g>
    <g
       transform="matrix(0.56248651,0,0,0.5625,-178.35795,734.89596)"
       id="layer1-0"
       inkscape:label="Capa 1"
       style="fill:#ffffff;fill-opacity:1">
      <g
         inkscape:label="Capa 1"
         id="layer1-5"
         transform="matrix(0.66668266,0,0,0.66668266,69.945973,190.8217)"
         style="fill:#ffffff;fill-opacity:1">
        <g
           id="undo5"
           sketch:type="MSLayerGroup"
           transform="matrix(0.1917806,0,0,0.1917806,388.48954,519.71563)"
           style="fill:#ffffff;fill-opacity:1">
          <path
             d="M 120.6,38.723 C 117.288,31.01 112.834,24.356 107.24,18.762 101.645,13.168 94.992,8.715 87.278,5.401 79.565,2.087 71.473,0.431 63,0.431 55.016,0.431 47.29,1.937 39.821,4.952 32.353,7.967 25.713,12.217 19.901,17.703 L 9.308,7.192 C 7.678,5.508 5.805,5.128 3.686,6.051 1.513,6.975 0.427,8.578 0.427,10.859 l 0,36.5 c 0,1.412 0.516,2.634 1.548,3.666 1.033,1.032 2.255,1.548 3.667,1.548 l 36.5,0 c 2.282,0 3.884,-1.086 4.807,-3.259 0.923,-2.118 0.543,-3.992 -1.141,-5.622 L 34.646,32.449 c 3.803,-3.585 8.148,-6.341 13.036,-8.27 4.889,-1.928 9.994,-2.893 15.317,-2.893 5.649,0 11.04,1.101 16.173,3.3 5.133,2.2 9.572,5.174 13.32,8.922 3.748,3.747 6.722,8.187 8.922,13.32 2.199,5.133 3.299,10.523 3.299,16.173 0,5.65 -1.1,11.039 -3.299,16.172 -2.2,5.133 -5.174,9.573 -8.922,13.321 -3.748,3.748 -8.188,6.722 -13.32,8.921 -5.133,2.2 -10.525,3.3 -16.173,3.3 -6.464,0 -12.574,-1.412 -18.332,-4.236 -5.757,-2.824 -10.618,-6.816 -14.583,-11.977 -0.38,-0.543 -1.005,-0.87 -1.874,-0.979 -0.815,0 -1.494,0.244 -2.037,0.733 L 15.011,99.5 c -0.434,0.436 -0.665,0.991 -0.692,1.67 -0.027,0.68 0.15,1.29 0.53,1.833 5.921,7.17 13.09,12.724 21.509,16.661 8.419,3.937 17.3,5.907 26.642,5.907 8.473,0 16.566,-1.657 24.279,-4.97 7.713,-3.313 14.365,-7.768 19.961,-13.361 5.594,-5.596 10.047,-12.248 13.361,-19.961 3.313,-7.713 4.969,-15.807 4.969,-24.279 0,-8.474 -1.657,-16.564 -4.97,-24.277 l 0,0 z"
             id="path2117"
             sketch:type="MSShapeGroup"
             inkscape:connector-curvature="0"
             style="fill:#ffffff;fill-opacity:1" />
        </g>
      </g>
    </g>
  </g>
</svg>
