<svg xmlns="http://www.w3.org/2000/svg" viewBox="0 0 16 16"><path d="m25.24 20.433l-10.785-17.449c-.868-1.404-2.28-1.408-3.15 0l-10.787 17.449c-1.165 1.885-.315 3.402 1.889 3.402h20.944c2.204 0 3.05-1.523 1.889-3.402m-12.36.402c-.553 0-1-.447-1-1 0-.553.447-1 1-1 .554 0 1 .447 1 1 0 .553-.447 1-1 1m1-4.997c0 .544-.446.997-1 .997-.556 0-1-.446-1-.997v-6.01c0-.544.447-.997 1-.997.557 0 1 .446 1 .997v6.01" transform="matrix(.50556 0 0 .50557 1.473 1.508)" fill="#da4453" stroke="none" stroke-opacity=".8"/></svg>