<svg xmlns="http://www.w3.org/2000/svg" viewBox="0 0 16 16"><path d="m7.979 2.082c-.808 0-1.577.158-2.314.475-1.465.628-2.536 1.694-3.166 3.162-.316.735-.471 1.506-.471 2.314 0 .808.155 1.585.471 2.32.63 1.468 1.701 2.537 3.166 3.166.738.316 1.506.477 2.314.477.808 0 1.582-.162 2.32-.477 1.478-.63 2.545-1.701 3.174-3.166.316-.738.477-1.512.477-2.32 0-.808-.16-1.577-.477-2.314-.629-1.465-1.696-2.532-3.174-3.162-.738-.315-1.512-.475-2.32-.475m0 2.156c.202 0 .379.163.379.365v3.377l1.824 1.838c.14.141.15.358 0 .508-.13.13-.372.13-.502 0l-1.949-1.949c-.078-.078-.111-.176-.098-.293 0-.019-.012-.044-.012-.051v-3.43c0-.202.168-.365.357-.365z" transform="matrix(1.0072 0 0 1.0077-.088-.112)" fill="#fff" stroke="none" stroke-width="26.22" opacity=".99" stroke-opacity=".8"/></svg>