<?xml version="1.0" encoding="UTF-8" standalone="no"?>
<!-- Created with Inkscape (http://www.inkscape.org/) -->

<svg
   xmlns:dc="http://purl.org/dc/elements/1.1/"
   xmlns:cc="http://creativecommons.org/ns#"
   xmlns:rdf="http://www.w3.org/1999/02/22-rdf-syntax-ns#"
   xmlns:svg="http://www.w3.org/2000/svg"
   xmlns="http://www.w3.org/2000/svg"
   xmlns:sodipodi="http://sodipodi.sourceforge.net/DTD/sodipodi-0.dtd"
   xmlns:inkscape="http://www.inkscape.org/namespaces/inkscape"
   width="24"
   height="24"
   id="svg2"
   version="1.1"
   inkscape:version="0.48.5 r10040"
   viewBox="0 0 24 24"
   sodipodi:docname="emblem-symbolic-link.svg">
  <defs
     id="defs4" />
  <sodipodi:namedview
     id="base"
     pagecolor="#ffffff"
     bordercolor="#666666"
     borderopacity="1.0"
     inkscape:pageopacity="0.0"
     inkscape:pageshadow="2"
     inkscape:zoom="16.263456"
     inkscape:cx="-4.2694013"
     inkscape:cy="11.566463"
     inkscape:document-units="px"
     inkscape:current-layer="layer1"
     showgrid="true"
     inkscape:showpageshadow="false"
     borderlayer="true"
     units="px"
     inkscape:window-width="1301"
     inkscape:window-height="744"
     inkscape:window-x="65"
     inkscape:window-y="24"
     inkscape:window-maximized="1"
     inkscape:snap-bbox="true"
     showguides="true">
    <inkscape:grid
       type="xygrid"
       id="grid4062"
       empspacing="5"
       visible="true"
       enabled="true"
       snapvisiblegridlinesonly="true" />
    <sodipodi:guide
       position="0,22.000017"
       orientation="22,0"
       id="guide3338" />
    <sodipodi:guide
       position="0,1.7382813e-05"
       orientation="0,22"
       id="guide3340" />
    <sodipodi:guide
       position="22,1.7382813e-05"
       orientation="-22,0"
       id="guide3342" />
    <sodipodi:guide
       position="22,22.000017"
       orientation="0,-22"
       id="guide3344" />
    <sodipodi:guide
       position="3,19.000017"
       orientation="16,0"
       id="guide3348" />
    <sodipodi:guide
       position="3,3.0000174"
       orientation="0,16"
       id="guide3350" />
    <sodipodi:guide
       position="19,3.0000174"
       orientation="-16,0"
       id="guide3352" />
    <sodipodi:guide
       position="19,19.000017"
       orientation="0,-16"
       id="guide3354" />
  </sodipodi:namedview>
  <metadata
     id="metadata7">
    <rdf:RDF>
      <cc:Work
         rdf:about="">
        <dc:format>image/svg+xml</dc:format>
        <dc:type
           rdf:resource="http://purl.org/dc/dcmitype/StillImage" />
        <dc:title />
      </cc:Work>
    </rdf:RDF>
  </metadata>
  <g
     inkscape:label="Capa 1"
     inkscape:groupmode="layer"
     id="layer1"
     transform="translate(0,-1028.3622)">
    <path
       style="fill:#4d4d4d;fill-opacity:1;stroke:none"
       d="M 3.1111112,1036.9178 C 2.4955448,1036.9178 2,1037.4133 2,1038.0289 l 0,6.6666 c 0,0.6156 0.4955448,1.1111 1.1111112,1.1111 l 6.6666666,0 c 0.6155662,0 1.1111102,-0.4955 1.1111102,-1.1111 l 0,-1.1111 2.222224,0 0,1.1111 c 0,0.6156 0.495544,1.1111 1.11111,1.1111 l 6.666666,0 c 0.615568,0 1.111112,-0.4955 1.111112,-1.1111 l 0,-6.6666 c 0,-0.6156 -0.495544,-1.1111 -1.111112,-1.1111 l -6.666666,0 c -0.615566,0 -1.11111,0.4955 -1.11111,1.1111 l 0,1.1111 -2.222224,0 0,-1.1111 c 0,-0.6156 -0.495544,-1.1111 -1.1111102,-1.1111 l -6.6666666,0 z m 0,1.1111 4.4444444,0 2.2222222,0 0,1.1111 c -0.6155662,0 -1.1111112,0.4955 -1.1111112,1.1111 l 0,2.2222 c 0,0.6156 0.495545,1.1111 1.1111112,1.1111 l 0,1.1111 -2.2222222,0 -4.4444444,0 0,-6.6666 z m 11.1111108,0 3.333334,0 3.333332,0 0,6.6666 -3.333332,0 -3.333334,0 0,-1.1111 c 0.615566,0 1.111112,-0.4955 1.111112,-1.1111 l 0,-2.2222 c 0,-0.6156 -0.495546,-1.1111 -1.111112,-1.1111 l 0,-1.1111 z m -4.4444442,2.2222 4.4444442,0 0,2.2222 -4.4444442,0 0,-2.2222 z"
       id="rect4161"
       inkscape:connector-curvature="0" />
  </g>
</svg>
