<?xml version="1.0" encoding="UTF-8" standalone="no"?>
<svg
   xmlns:dc="http://purl.org/dc/elements/1.1/"
   xmlns:cc="http://creativecommons.org/ns#"
   xmlns:rdf="http://www.w3.org/1999/02/22-rdf-syntax-ns#"
   xmlns:svg="http://www.w3.org/2000/svg"
   xmlns="http://www.w3.org/2000/svg"
   xmlns:sodipodi="http://sodipodi.sourceforge.net/DTD/sodipodi-0.dtd"
   xmlns:inkscape="http://www.inkscape.org/namespaces/inkscape"
   width="16"
   viewBox="0 0 16 16"
   height="16"
   id="svg2"
   version="1.1"
   inkscape:version="0.91 r13725"
   sodipodi:docname="preferences-system-bluetooth.svg">
  <metadata
     id="metadata12">
    <rdf:RDF>
      <cc:Work
         rdf:about="">
        <dc:format>image/svg+xml</dc:format>
        <dc:type
           rdf:resource="http://purl.org/dc/dcmitype/StillImage" />
        <dc:title />
      </cc:Work>
    </rdf:RDF>
  </metadata>
  <defs
     id="defs10" />
  <sodipodi:namedview
     pagecolor="#ffffff"
     bordercolor="#666666"
     borderopacity="1"
     objecttolerance="10"
     gridtolerance="10"
     guidetolerance="10"
     inkscape:pageopacity="0"
     inkscape:pageshadow="2"
     inkscape:window-width="1366"
     inkscape:window-height="633"
     id="namedview8"
     showgrid="true"
     inkscape:showpageshadow="false"
     borderlayer="true"
     inkscape:zoom="16"
     inkscape:cx="-4.8356155"
     inkscape:cy="6.5719795"
     inkscape:window-x="0"
     inkscape:window-y="33"
     inkscape:window-maximized="1"
     inkscape:current-layer="svg2">
    <inkscape:grid
       type="xygrid"
       id="grid4141" />
    <sodipodi:guide
       position="0,16"
       orientation="16,0"
       id="guide4147" />
    <sodipodi:guide
       position="0,0"
       orientation="0,16"
       id="guide4149" />
    <sodipodi:guide
       position="16,0"
       orientation="-16,0"
       id="guide4151" />
    <sodipodi:guide
       position="16,16"
       orientation="0,-16"
       id="guide4153" />
    <sodipodi:guide
       position="2,14"
       orientation="12,0"
       id="guide4155" />
    <sodipodi:guide
       position="210,-10"
       orientation="0,12"
       id="guide4157" />
    <sodipodi:guide
       position="14,2"
       orientation="-12,0"
       id="guide4159" />
    <sodipodi:guide
       position="14,14"
       orientation="0,-12"
       id="guide4161" />
    <sodipodi:guide
       position="2,8"
       orientation="6,0"
       id="guide4182" />
    <sodipodi:guide
       position="2,2"
       orientation="0,12"
       id="guide4184" />
    <sodipodi:guide
       position="14,2"
       orientation="-6,0"
       id="guide4186" />
    <sodipodi:guide
       position="14,8"
       orientation="0,-12"
       id="guide4188" />
    <sodipodi:guide
       position="2,11"
       orientation="3,0"
       id="guide4196" />
    <sodipodi:guide
       position="2,8"
       orientation="0,12"
       id="guide4198" />
    <sodipodi:guide
       position="14,8"
       orientation="-3,0"
       id="guide4200" />
    <sodipodi:guide
       position="14,11"
       orientation="0,-12"
       id="guide4202" />
    <sodipodi:guide
       position="8.546875,11"
       orientation="0,1.4140625"
       id="guide4225" />
    <sodipodi:guide
       position="6.9609375,8"
       orientation="0,-0.9609375"
       id="guide4229" />
    <sodipodi:guide
       position="8.546875,5"
       orientation="0,1.4140625"
       id="guide4237" />
  </sodipodi:namedview>
  <g
     transform="matrix(0.03333333,0,0,0.03333333,2.0000006,2.0000006)"
     id="g3"
     style="opacity:1;fill:#ffffff;fill-opacity:1">
    <path
       inkscape:connector-curvature="0"
       d="M 180.003,0 C 113.723,0 60,53.723 60,120 l 0,120 c 0,66.277 53.723,120 120.003,120 C 246.277,360 300,306.277 300,240 l 0,-120 C 300,53.723 246.277,0 180.003,0 Z m 69.364,224.128 c 2.705,2.168 4.279,5.448 4.279,8.915 0,3.467 -1.574,6.746 -4.279,8.915 l -71.652,57.439 c -2.067,1.657 -4.597,2.511 -7.148,2.511 -1.68,0 -3.369,-0.371 -4.942,-1.125 -3.961,-1.901 -6.481,-5.906 -6.481,-10.3 l 0,-82.024 -34.182,27.632 c -2.114,1.709 -4.653,2.541 -7.176,2.541 -3.331,0 -6.634,-1.45 -8.892,-4.243 -3.967,-4.907 -3.204,-12.101 1.703,-16.068 l 47.385,-38.306 -47.385,-38.306 c -4.907,-3.967 -5.67,-11.161 -1.703,-16.068 3.967,-4.908 11.162,-5.669 16.068,-1.703 l 34.182,27.632 0,-82.051 c 0,-4.394 2.52,-8.399 6.481,-10.3 3.962,-1.901 8.663,-1.362 12.091,1.386 l 71.652,57.441 c 2.705,2.168 4.279,5.448 4.279,8.914 0,3.466 -1.574,6.746 -4.279,8.915 L 194.322,180 l 55.045,44.128 z"
       id="path5"
       style="fill:#ffffff;fill-opacity:1" />
    <polygon
       points="223.954,126.959 181.994,93.321 181.994,160.596 "
       id="polygon7"
       style="fill:#ffffff;fill-opacity:1" />
    <polygon
       points="223.954,233.042 181.994,199.404 181.994,266.679 "
       id="polygon9"
       style="fill:#ffffff;fill-opacity:1" />
  </g>
</svg>
