<?xml version="1.0" encoding="UTF-8" standalone="no"?>
<svg
   xmlns:dc="http://purl.org/dc/elements/1.1/"
   xmlns:cc="http://creativecommons.org/ns#"
   xmlns:rdf="http://www.w3.org/1999/02/22-rdf-syntax-ns#"
   xmlns:svg="http://www.w3.org/2000/svg"
   xmlns="http://www.w3.org/2000/svg"
   xmlns:sodipodi="http://sodipodi.sourceforge.net/DTD/sodipodi-0.dtd"
   xmlns:inkscape="http://www.inkscape.org/namespaces/inkscape"
   viewBox="0 0 128 128"
   id="svg2"
   version="1.1"
   inkscape:version="0.48.4 r9939"
   width="100%"
   height="100%"
   sodipodi:docname="cantata.svg">
  <sodipodi:namedview
     pagecolor="#ffffff"
     bordercolor="#666666"
     borderopacity="1"
     objecttolerance="10"
     gridtolerance="10"
     guidetolerance="10"
     inkscape:pageopacity="0"
     inkscape:pageshadow="2"
     inkscape:window-width="640"
     inkscape:window-height="480"
     id="namedview59"
     showgrid="false"
     inkscape:zoom="1.84375"
     inkscape:cx="64"
     inkscape:cy="64"
     inkscape:window-x="1141"
     inkscape:window-y="109"
     inkscape:window-maximized="0"
     inkscape:current-layer="svg2" />
  <defs
     id="defs4">
    <metadata
       id="metadata61">
      <rdf:RDF>
        <cc:Work
           rdf:about="">
          <dc:format>image/svg+xml</dc:format>
          <dc:type
             rdf:resource="http://purl.org/dc/dcmitype/StillImage" />
          <dc:title></dc:title>
        </cc:Work>
      </rdf:RDF>
    </metadata>
  </defs>
  <path
     d="M 116,58 A 58,58 0 1 0 0,58 58,58 0 1 0 116,58"
     id="path46"
     inkscape:connector-curvature="0"
     style="fill:#4d4d4d"
     transform="matrix(1.10345,0,0,1.10345,0,-2.8e-6)" />
  <path
     id="path52"
     d="m 12,64 c 0,28.673 23.327,52 52,52 28.673,0 52,-23.327 52,-52 C 116,35.327 92.673,12 64,12 35.327,12 12,35.327 12,64 z"
     inkscape:connector-curvature="0"
     style="fill:#ecf0f1" />
  <g
     id="g56"
     transform="matrix(.98393 -.18258 .25614 .66198 .43822 35.067)">
    <path
       id="path58"
       d="m 69,2.3125 c -4.182,6.7229 -5.162,15.576 -8.154,23.086 l -11.94,37.758 c -10.999,-12.496 -34.63,-4.748 -36,11.959 -2.9364,15.69 15.411,29.885 29.906,22.697 13.675,-7.188 14.049,-24.626 18.983,-37.496 L 72.5,24.8445 c 3.6591,9.5669 8.8614,23.029 -0.8167,30.796 -6.038,2.85 -4.285,14.034 3.223,11.735 13.141,-5.459 18.013,-23.406 12.055,-35.86 -4.419,-9.293 -10.011,-18.167 -15.22,-27.083 -0.763,-0.6828 -1.266,-3.03 -2.741,-2.1195 z"
       inkscape:connector-curvature="0"
       style="fill:#34495e" />
  </g>
</svg>
