<?xml version="1.0" encoding="UTF-8" standalone="no"?>
<!-- Created with Inkscape (http://www.inkscape.org/) -->

<svg
   xmlns:dc="http://purl.org/dc/elements/1.1/"
   xmlns:cc="http://creativecommons.org/ns#"
   xmlns:rdf="http://www.w3.org/1999/02/22-rdf-syntax-ns#"
   xmlns:svg="http://www.w3.org/2000/svg"
   xmlns="http://www.w3.org/2000/svg"
   xmlns:sodipodi="http://sodipodi.sourceforge.net/DTD/sodipodi-0.dtd"
   xmlns:inkscape="http://www.inkscape.org/namespaces/inkscape"
   width="48"
   height="48"
   id="svg2160"
   sodipodi:version="0.32"
   inkscape:version="0.48.4 r9939"
   sodipodi:docname="dragonplayer.svg"
   inkscape:output_extension="org.inkscape.output.svgz.inkscape"
   inkscape:export-filename="/home/it-s/Media/Pictures/Images/Vector/Icons/dragon_player128.png"
   inkscape:export-xdpi="180"
   inkscape:export-ydpi="180"
   version="1.1">
  <defs
     id="defs27" />
  <sodipodi:namedview
     id="base"
     pagecolor="#ffffff"
     bordercolor="#666666"
     borderopacity="1.0"
     inkscape:pageopacity="0.0"
     inkscape:pageshadow="2"
     inkscape:zoom="8"
     inkscape:cx="31.60151"
     inkscape:cy="17"
     inkscape:current-layer="layer1"
     showgrid="false"
     inkscape:document-units="px"
     inkscape:grid-bbox="true"
     inkscape:window-width="715"
     inkscape:window-height="732"
     inkscape:window-x="1100"
     inkscape:window-y="58"
     showguides="true"
     inkscape:guide-bbox="true"
     borderlayer="true"
     inkscape:window-maximized="0" />
  <metadata
     id="metadata2165">
    <rdf:RDF>
      <cc:Work
         rdf:about="">
        <dc:format>image/svg+xml</dc:format>
        <dc:type
           rdf:resource="http://purl.org/dc/dcmitype/StillImage" />
        <dc:title />
      </cc:Work>
    </rdf:RDF>
  </metadata>
  <g
     id="layer1"
     inkscape:label="Layer 1"
     inkscape:groupmode="layer">
    <path
       style="fill:#2c3e50;fill-opacity:1;fill-rule:evenodd;stroke:none"
       d="m 22.011936,29.075868 c -1.182419,0.899665 -2.723079,1.571671 -6.038993,2.856908 -0.773526,0.299817 -1.542005,0.563711 -2.276236,0.789715 l 0.04646,1.114891 c -0.400008,0.123686 -0.745746,0.218967 -1.114892,0.325176 l -0.02323,-1.114891 c -1.863893,0.534923 -3.3117151,0.884953 -3.3446733,1.231026 -0.051414,0.5398 0.1858152,8.617177 0.1858152,8.617177 0.1482436,-1.969835 5.8735761,-2.550175 9.0352631,-3.228537 0,0 5.534408,-3.555032 9.128289,-5.861249 l 0.07373,0.03033 c 0,0 2.429834,-1.121462 2.429834,-3.084021 0,-1.962559 -5.046578,-4.112028 -5.046578,-4.112028 l -3.054788,2.435516 z"
       id="path4252"
       inkscape:connector-curvature="0" />
    <g
       id="g5650"
       transform="matrix(0.5671004,0,0,0.6703211,5.0389182,3.3427124)">
      <path
         sodipodi:nodetypes="csssssssssssscsc"
         id="path4158"
         d="m 44.47474,17.588569 c 1.867524,-3.458378 1.867524,-7.124259 1.798356,-9.9601284 -0.06917,-2.8358699 0.415005,-5.6025722 -0.691676,-5.0492317 -1.10668,0.5533404 -2.934467,3.7340366 -9.33762,8.3692751 -6.847516,4.956913 -19.289151,11.677855 -21.856948,13.55684 -2.824804,2.067051 -7.0550909,5.39507 -8.8534474,8.023437 -1.7983565,2.628367 -2.1441943,3.942551 -0.9683458,2.974205 1.1758485,-0.968346 3.5275454,-4.080886 7.4009282,-4.565059 3.873384,-0.484172 4.910897,0.06917 5.810075,0.622508 0.899179,0.553341 1.660022,-0.06917 2.974205,-0.27667 1.314184,-0.207502 4.426724,-0.138335 5.39507,0.484173 0.968346,0.622508 1.867524,0.553341 3.11254,-0.27667 1.245016,-0.830011 1.660021,-1.314184 3.66588,-1.037513 2.00586,0.27667 3.665881,1.175848 3.665881,1.175848 0,0 4.980064,-2.766702 5.049232,-3.804216 0.06917,-1.037513 3.043372,-10.029295 2.83587,-10.236798 z"
         style="fill:#2dc3a9;fill-opacity:1;fill-rule:evenodd;stroke:none"
         inkscape:connector-curvature="0" />
    </g>
    <g
       id="g5656"
       transform="matrix(0.83332746,0,0,0.83332746,-3.9797788,-4.1981651)">
      <path
         style="fill:#2980b9;fill-opacity:1;fill-rule:evenodd;stroke:none"
         d="m 40.78125,42.03125 c 0.553341,-0.345837 -0.177498,-1.313747 -0.28125,-1.625 -0.103751,-0.311254 1.696658,-1.208747 2.25,-1.3125 0.55334,-0.103751 -0.157493,-1.737069 -0.46875,-2.84375 -0.237285,-0.84368 3.440998,-9.111583 4.1875,-14.4375 0.132298,-0.943875 1.593246,-1.170427 1.162974,-2.298578 C 47.30516,18.657688 45.080898,16.759093 45.03125,16.65625 44.831253,16.241971 46.016118,15.824064 45.6036,15.188547 45.017452,14.285539 43.254667,13.227807 43.011088,13.024824 42.596082,12.678987 43.209994,12.415005 43.625,12 c -0.50653,-1.025704 -1.430682,-1.491282 -2.775706,-1.663559 -0.691675,0 -0.182965,-1.084995 0.197456,-1.5 C 40.360222,8.1307324 39.076799,8.3584829 37.90625,8.59375 37.360404,8.5362193 38.200928,7.0578396 37.21875,7.25 c -0.46857,0.1007118 -2.180981,1.9299908 -2.9375,2.65625 -0.864595,0.830011 -0.934572,0.446659 -1.9375,1 -1.002929,0.55334 -1.619577,1.464574 -2,2.15625 C 29.963328,13.754175 29,14 28,15 c -1,1 -2,1.57331 -2,3.40625 0.04159,0.03458 -0.133755,0.274582 0.28125,0.34375 0.415005,0.06917 0.632914,-0.08833 0.875,-0.46875 0.242087,-0.380421 2.634563,-1.499157 4.15625,-2.15625 1.521686,-0.657092 2.48791,-0.999158 2.9375,-1.65625 0.449589,-0.657092 0.600821,-0.591663 1.5,-0.9375 0.899179,-0.345838 2.685815,0.05997 4,2.03125 1.314183,1.971275 0.815835,3.526198 0.78125,7.46875 -0.03458,3.942551 -0.690397,6.059133 -2.28125,8.6875 -1.076496,1.778559 -4.103019,3.586462 -6.440486,4.944653"
         id="path4254"
         sodipodi:nodetypes="csssssssscccccsssscssssssssc"
         inkscape:connector-curvature="0" />
      <path
         style="fill:none;stroke:#ecf0f1;stroke-width:0.5;stroke-linecap:butt;stroke-linejoin:miter;stroke-miterlimit:4;stroke-opacity:1"
         d="m 35.08055,13.579567 c 2.388998,-0.628683 2.891945,-0.502947 4.400786,1.508841 3.424679,5.22356 1.440365,10.467743 -0.04911,13.861692"
         id="path3305"
         sodipodi:nodetypes="ccc"
         inkscape:connector-curvature="0" />
      <g
         id="g3467"
         transform="matrix(0.8684577,0.07038316,-0.07038316,0.8684577,4.8342715,-0.71794)">
        <path
           sodipodi:nodetypes="cszsc"
           id="path3416"
           d="m 31.152535,13.192769 c 0.05584,-0.320661 0.350766,-0.637116 0.850366,-0.842216 0.4996,-0.205101 0.886776,-0.163848 0.955866,0.03369 0.07231,0.206734 -0.248667,0.534758 -0.761858,0.712304 -0.50953,0.176281 -0.916341,0.108278 -1.044374,0.09622 z"
           style="fill:#ecf0f1;fill-opacity:1;fill-rule:evenodd;stroke:#2c3e50;stroke-width:0.08919191;stroke-linecap:butt;stroke-linejoin:miter;stroke-miterlimit:4;stroke-opacity:1;stroke-dasharray:none"
           inkscape:connector-curvature="0" />
        <path
           id="path3440"
           d="m 31.891453,12.401016 c -0.04649,0.02353 -0.07913,0.06042 -0.121849,0.08765 -0.0088,0.09372 -0.002,0.208447 0.06015,0.3584 0.04918,0.118566 0.102283,0.238008 0.161659,0.304512 0.07642,-0.0222 0.134901,-0.02546 0.216425,-0.05367 0.0019,-0.09306 -0.03065,-0.21534 -0.08721,-0.351691 -0.06557,-0.158089 -0.153841,-0.289031 -0.229182,-0.345203 z"
           style="fill:#2c3e50;fill-opacity:1;stroke:none"
           inkscape:connector-curvature="0" />
      </g>
    </g>
    <path
       style="fill:#2dc3a9;fill-opacity:1;fill-rule:evenodd;stroke:none"
       d="m 18.35062,32.880367 c 0,0 4.580038,-1.701288 6.122324,-3.364936 0.794644,1.140005 1.878834,2.355658 2.729479,2.832297 -1.298826,1.785013 -7.776793,5.561409 -7.776793,5.561409 l -1.07501,-5.02877 z"
       id="path5173"
       sodipodi:nodetypes="ccccc"
       inkscape:connector-curvature="0" />
    <path
       style="fill:#2c3e50;fill-opacity:1;fill-rule:evenodd;stroke:none"
       d="m 27.708293,32.016125 c -0.60442,0.01324 -1.205101,0.05793 -1.788472,0.09291 l 0,0.952303 c -0.452973,0.02788 -0.892176,0.05205 -1.323933,0.09291 l 0,-0.952303 c -0.655868,0.06108 -1.272163,0.118581 -1.85815,0.209041 l 0,0.02323 0,0.952305 c -0.476484,0.07418 -0.909017,0.162288 -1.323933,0.255494 l 0,-0.975529 c -0.502206,0.111832 -0.980119,0.232382 -1.370388,0.37163 l 0,0.97553 c -0.213332,0.07638 -0.406391,0.14791 -0.580672,0.232269 -0.09483,0.04589 -0.153058,0.09195 -0.232269,0.139361 l 0,-0.97553 c -0.428357,0.255002 -0.628854,0.520887 -0.580673,0.789716 0.05392,0.300858 0.04893,8.465053 0,8.965581 0.06368,-0.190364 0.27798,-0.377252 0.580673,-0.557445 l 0,-0.929076 c 0.07436,-0.04428 0.143376,-0.09633 0.232269,-0.139361 0.168199,-0.08143 0.376155,-0.158196 0.580672,-0.232269 l 0,0.929077 c 0.389849,-0.139145 0.868773,-0.259857 1.370388,-0.371632 l 0,-0.952303 c 0.413288,-0.09267 0.849947,-0.181657 1.323933,-0.255496 l 0,0.975531 c 0.587313,-0.09075 1.200582,-0.194279 1.85815,-0.255497 l 0,-0.952302 c 0.426724,-0.04025 0.876343,-0.04229 1.323933,-0.06968 l 0,0.90585 c 0.894092,-0.05359 1.830228,-0.06739 2.764002,-0.06968 l 0,-0.929076 c 0.48634,2.12e-4 0.977961,0.0078 1.463294,0.02323 l 0,0.929076 c 0.8069,0.02169 1.593663,0.07791 2.369144,0.139361 l 0,-0.929075 c 0.452807,0.03744 0.891306,0.06664 1.323933,0.116135 l 0,0.929075 c 0.586811,0.06714 1.13734,0.147506 1.649109,0.232269 l 0,-0.929076 c 0.474889,0.078 0.914713,0.164766 1.323933,0.255497 l 0,0.929075 c 0.609274,0.136677 1.118246,0.280845 1.57943,0.441311 l 0,-0.929076 c 0.31728,0.109 0.61353,0.207465 0.859394,0.325176 l 0,0.929076 c 0.832676,0.403308 1.266059,0.873419 1.254253,1.323934 -0.02744,1.046871 -0.02744,-8.15098 0,-9.197852 0.01181,-0.450515 -0.421577,-0.8974 -1.254253,-1.300706 l 0,0.952303 c -0.24557,-0.119281 -0.542982,-0.237772 -0.859394,-0.348416 l 0,-0.929075 c -0.461252,-0.160491 -0.970045,-0.327846 -1.57943,-0.464538 l 0,0.952303 c -0.410288,-0.0928 -0.847438,-0.176152 -1.323933,-0.255496 l 0,-0.952302 c -0.511769,-0.08476 -1.062298,-0.165129 -1.649109,-0.23227 l 0,0.952303 c -0.42803,-0.04897 -0.876048,-0.08079 -1.323933,-0.116135 l 0,-0.952302 c -0.775464,-0.06144 -1.56226,-0.09445 -2.369144,-0.116136 l 0,0.952303 c -0.48739,-0.01277 -0.975189,-0.02485 -1.463294,-0.02323 l 0,-0.952303 c -0.324854,8.17e-4 -0.653268,-0.0071 -0.97553,0 z m 0.97553,0 c 0.486416,-0.0012 0.977885,0.01029 1.463294,0.02323 -0.487889,-0.01312 -0.974582,-0.02442 -1.463294,-0.02323 z m 9.708843,1.207798 c 0.274098,0.09543 0.51948,0.180714 0.74326,0.278723 -0.218329,-0.100329 -0.473339,-0.184805 -0.74326,-0.278723 z M 25.919821,32.109032 c -0.229768,0.01377 -0.448759,0.02935 -0.673579,0.04645 0.225677,-0.0094 0.445663,-0.03296 0.673579,-0.04645 z"
       id="path3153"
       inkscape:connector-curvature="0" />
    <path
       style="fill:#7f8c8d;fill-opacity:1;fill-rule:evenodd;stroke:none"
       d="m 27.708612,33.270144 c -1.096529,0.024 -2.143269,0.101725 -3.149654,0.196854 l 0,6.653645 c 2.794379,-0.264049 6.084718,-0.258779 8.937146,0.03937 l 0,-6.673332 c -1.825431,-0.190803 -3.839116,-0.259176 -5.787492,-0.216538 z m -4.507943,0.33465 c -1.568492,0.214687 -2.902327,0.539326 -3.740216,0.944898 -0.601376,0.291091 -0.88332,0.609754 -0.826783,0.92521 0.05258,0.293411 0.06492,5.863518 0.01968,6.417421 0.07931,-0.237093 0.356066,-0.470669 0.807098,-0.688985 0.837887,-0.405573 2.171724,-0.710526 3.740215,-0.925212 l 0,-6.673332 z m 11.476554,0.03937 0,6.673331 c 2.698588,0.375011 4.500203,0.958245 5.315043,1.614198 l 0,-6.673331 c -0.81484,-0.655956 -2.616455,-1.23919 -5.315043,-1.614201 z"
       id="path3210"
       inkscape:connector-curvature="0" />
    <path
       id="path3169"
       style="fill:#2c3e50;fill-opacity:1;fill-rule:evenodd;stroke:none"
       d="m 28.488406,43.301355 c 1.5386,0.0098 2.434555,0.298883 2.671098,0.613514 l 0,-9.029423 c 0.244309,-0.410801 -1.430245,-0.797655 -4.017592,-0.455102 0.672263,3.14426 1.710078,5.93392 1.346494,8.871011 z"
       sodipodi:nodetypes="ccccc"
       inkscape:connector-curvature="0" />
    <path
       style="fill:#2c3e50;fill-opacity:1;fill-rule:evenodd;stroke:none"
       d="m 18.626577,34.245906 c -0.143276,0.452336 -0.140519,8.418501 0.02323,9.035263 0.08247,0.310634 0.485408,0.620893 1.184571,0.882623 l 0,-0.812943 c 0.282625,0.106525 0.617997,0.188183 0.998757,0.278723 l 0,0.812942 c 0.672586,0.158817 1.489322,0.305482 2.46205,0.394857 0.120251,0.01105 0.248331,0.01392 0.371632,0.02323 l 0,-0.812941 c 0.431913,0.03266 0.869689,0.05813 1.323932,0.06968 l 0,0.789715 c 1.331366,0.03312 2.699446,-0.01651 3.832437,-0.162589 l 0,-0.789713 c 0.471822,-0.06041 0.888628,-0.141244 1.254254,-0.23227 l 0,0.789715 c 0.466525,-0.116493 0.852854,-0.252751 1.068437,-0.418085 1e-6,-3.029886 0,-6.02332 0,-9.012034 -0.215583,0.165332 -0.601912,0.301589 -1.068437,0.418083 l 0,0.789715 c -0.365626,0.09103 -0.782432,0.171866 -1.254254,0.232268 l 0,-0.789715 c -1.239006,0.159751 -2.760485,0.194205 -4.204068,0.139361 0.125211,0.0052 0.244058,0.01999 0.371631,0.02323 l 0,0.789716 c -0.454243,-0.01156 -0.892019,-0.03702 -1.323932,-0.06968 l 0,-0.789714 c -0.123301,-0.0093 -0.251381,-0.01218 -0.371632,-0.02323 -0.973521,-0.08944 -1.789164,-0.235864 -2.46205,-0.394857 l 0,0.812941 c -0.381448,-0.08867 -0.715723,-0.197483 -0.998757,-0.30195 l 0,-0.789714 c -0.6978,-0.261541 -1.102188,-0.572314 -1.184571,-0.882622 -0.0027,-0.01029 -0.02057,0.0057 -0.02323,0 z m 11.45086,10.266288 c -0.312042,0.07888 -0.679455,0.152048 -1.068437,0.209042 0.402312,-0.05654 0.749123,-0.129308 1.068437,-0.209042 z m -5.086691,0.394857 c -0.446192,-0.01039 -0.876231,-0.01562 -1.300707,-0.04645 0.424804,0.03164 0.854401,0.03534 1.300707,0.04645 z"
       id="path3161"
       inkscape:connector-curvature="0" />
    <path
       style="opacity:0.7;fill:#2980b9;fill-opacity:1;fill-rule:evenodd;stroke:none"
       d="m 19.873847,36.400113 0,6.496164 c 0.781005,0.286524 1.925946,0.531544 3.425248,0.669301 1.989751,0.18282 4.407431,0.127293 6.082771,-0.157482 l 0,-6.515848 c -1.67534,0.284776 -4.09302,0.340302 -6.082771,0.157483 -1.499302,-0.137757 -2.644243,-0.363092 -3.425248,-0.649618 z"
       id="path3220"
       inkscape:connector-curvature="0" />
    <path
       style="fill:#2dc3a9;fill-rule:evenodd;stroke:none"
       d="m 10.151749,35.567188 c 1.859576,-1.101581 4.593503,-1.23886 6.684493,-2.144634 l 1.019011,5.038133 c -5.04098,0.550581 -5.970134,0.865445 -7.483086,1.916614 0.166173,-1.761586 -0.1176,-4.604476 -0.220418,-4.810113 z"
       id="path5171"
       sodipodi:nodetypes="ccccc"
       inkscape:connector-curvature="0" />
    <path
       style="fill:#2c3e50;fill-opacity:1;fill-rule:evenodd;stroke:none"
       d="m 9.3125907,34.129771 c -0.033338,-1.374114 -0.033338,7.335973 0,8.710088 0.00829,0.343527 0.2046613,0.691597 0.580672,1.021982 l 0,-0.905849 c 0.2283823,0.200902 0.5456663,0.390019 0.9058483,0.580673 l 0,0.905849 c 0.463478,0.244603 1.041188,0.477687 1.718791,0.696807 l 0,-0.90585 c 0.343192,0.111448 0.718019,0.222079 1.114891,0.325178 l 0,0.905848 c 0.77912,0.201532 1.641922,0.394626 2.62464,0.557445 l 0,-0.905849 c 0.367458,0.06104 0.766039,0.107929 1.161344,0.16259 l 0,0.905848 c 0.205952,0.02845 0.39042,0.06627 0.603901,0.09291 0.780914,0.09747 1.587649,0.167352 2.415597,0.232268 l 0,-0.882621 c 0.413142,0.03238 0.833229,0.04532 1.254252,0.06968 l 0,0.905849 c 1.2465,0.07231 2.514617,0.112709 3.785984,0.116135 l 0,-0.905849 c 0.440864,9.82e-4 0.885446,0.0071 1.323933,0 l 0,0.905849 c 1.39762,-0.02214 2.749916,-0.105924 4.064706,-0.209042 l 0,-0.905849 c 0.412552,-0.03249 0.832414,-0.07584 1.231026,-0.116135 l 0,0.90585 c 1.191303,-0.120048 2.303837,-0.252881 3.321446,-0.441312 l 0,-0.905849 c 0.312468,-0.05779 0.614225,-0.121723 0.905849,-0.185815 l 0,0.90585 c 0.901163,-0.197812 1.685372,-0.439919 2.345918,-0.696808 l 0,-0.905848 c 0.0893,-0.03473 0.194464,-0.05711 0.278721,-0.09291 0.232706,-0.09886 0.448119,-0.197562 0.627127,-0.301949 l 0,0.882621 c -0.183545,0.106999 -0.387272,0.223285 -0.627127,0.325177 1.100485,-0.467497 1.602967,-0.997474 1.556203,-1.509749 -0.04428,-0.485038 -0.03957,-8.080721 0,-8.477817 -0.06999,0.330174 -0.38521,0.638698 -0.929076,0.952303 l 0,0.929076 c -0.183301,0.105065 -0.387729,0.200251 -0.627127,0.301949 -0.08426,0.03581 -0.189418,0.05816 -0.278721,0.09291 l 0,-0.905848 c -0.661627,0.257308 -1.442941,0.498771 -2.345918,0.696807 l 0,0.905848 c -0.291624,0.06409 -0.593381,0.12802 -0.905849,0.185816 l 0,-0.905849 c -1.017161,0.188288 -2.130806,0.32133 -3.321446,0.441311 l 0,0.905849 c -0.398612,0.04031 -0.818474,0.08364 -1.231026,0.116135 l 0,-0.905849 c -2.916938,0.228772 -6.118125,0.270227 -9.174623,0.09291 l 0,0.905849 c -0.421023,-0.02435 -0.84111,-0.0373 -1.254252,-0.06968 l 0,-0.90585 c 0.122459,0.0096 0.248106,0.01625 0.37163,0.02323 -0.958205,-0.0691 -1.88919,-0.166628 -2.787227,-0.278722 -0.213481,-0.02664 -0.397949,-0.06446 -0.603901,-0.09291 l 0,0.90585 c -0.395305,-0.05453 -0.793886,-0.101873 -1.161344,-0.162588 l 0,-0.905848 c -0.982718,-0.162827 -1.84552,-0.35592 -2.62464,-0.557452 l 0,0.929076 c -0.396181,-0.101946 -0.772202,-0.21504 -1.114891,-0.325177 l 0,-0.929075 c -0.677603,-0.21912 -1.255313,-0.452204 -1.718791,-0.696808 l 0,0.929076 c -0.360995,-0.189254 -0.677088,-0.38076 -0.9058483,-0.580671 l 0,-0.929077 C 9.517252,34.82137 9.3209252,34.4733 9.3125907,34.129771 z m 1.4865203,10.312743 c -0.164032,-0.08682 -0.322644,-0.168049 -0.464536,-0.255496 0.137587,0.08967 0.299259,0.168268 0.464536,0.255496 z m 14.6794,-6.433851 c 0.440864,9.83e-4 0.885446,0.007 1.323933,0 l 0,0.90585 c -0.438487,0.0071 -0.883069,9.82e-4 -1.323933,0 l 0,-0.90585 z"
       id="path3141"
       inkscape:connector-curvature="0" />
    <path
       id="path5396"
       d="m 10.759534,36.970988 0,6.200883 c 1.329867,0.710207 3.586559,1.346591 6.67333,1.771681 l 0,-6.200883 c -3.086771,-0.42509 -5.343463,-1.061472 -6.67333,-1.771681 z m 28.85871,0.21654 c -0.194611,0.115425 -0.409465,0.224269 -0.669301,0.33465 -1.407524,0.597931 -3.547077,1.046468 -6.023716,1.338603 l 0,6.181198 c 2.476639,-0.292136 4.616192,-0.720987 6.023716,-1.318919 0.260011,-0.110455 0.474602,-0.238829 0.669301,-0.354334 l 0,-6.181198 z m -19.744397,1.830736 0,6.181198 c 3.456788,0.30537 7.265301,0.329025 10.68914,0.07874 l 0,-6.200884 c -3.423997,0.250333 -7.232144,0.246336 -10.68914,-0.05906 z"
       style="fill:#2980b9;fill-opacity:1;fill-rule:evenodd;stroke:none"
       inkscape:connector-curvature="0" />
    <g
       id="g5661"
       transform="matrix(0.7432607,0,0,0.7432607,0.20764685,0.65981336)">
      <path
         style="fill:#2dc3a9;fill-opacity:1;fill-rule:evenodd;stroke:none"
         d="m 44.336404,21.185282 c -1.590853,0 -2.075026,0.415005 -2.628367,-0.622508 -0.55334,-1.037514 0.207503,-1.590854 1.936692,-3.527546 1.729189,-1.936691 4.426724,-5.395069 6.294248,-8.6459443 1.867524,-3.2508752 2.351697,-6.9167558 3.596713,-6.6400855 1.245016,0.2766702 1.936691,3.1125401 1.590853,6.2250801 -0.345837,3.1125397 -8.715112,13.6951767 -8.715112,13.6951767 l -2.075027,-0.484173 z"
         id="path5641"
         inkscape:connector-curvature="0" />
      <path
         sodipodi:nodetypes="cssssssssssssssc"
         id="path4138"
         d="m 52.982349,2.3717062 c 1.660022,0.622508 0.622508,3.5275454 -0.138335,6.0175775 -0.760843,2.4900323 -5.602572,13.4185063 -10.029296,17.4302243 -4.426724,4.011719 -6.017577,4.772561 -15.28603,7.262593 -9.268452,2.490032 -15.701036,5.94841 -18.7444082,9.683459 -3.0433725,3.735048 -3.3200427,5.533404 -2.4900321,4.980064 0.8300107,-0.55334 5.3950693,-6.570918 10.3059653,-7.954269 4.910897,-1.383351 11.550983,-0.27667 12.726831,0.138335 1.175849,0.415005 0.760844,0.968346 1.798357,-0.207503 1.037513,-1.175848 2.213362,-2.420864 5.464237,-3.043372 3.250875,-0.622508 5.049232,-0.830011 6.50175,-0.899179 1.452519,-0.06917 1.521687,-0.138335 2.628368,-2.005859 1.10668,-1.867524 4.841729,-7.746766 6.363415,-12.242657 C 53.604857,17.035228 55.264879,9.7034673 55.334046,6.936765 55.403214,4.1700627 54.711538,2.0258684 53.743192,1.8183657 52.774846,1.610863 52.982349,2.4408737 52.982349,2.3717062 z"
         style="fill:#9b59b6;fill-rule:evenodd;stroke:none"
         inkscape:connector-curvature="0" />
    </g>
  </g>
</svg>
