<?xml version="1.0" encoding="UTF-8" standalone="no"?>
<!-- Created with Inkscape (http://www.inkscape.org/) -->

<svg
   xmlns:dc="http://purl.org/dc/elements/1.1/"
   xmlns:cc="http://creativecommons.org/ns#"
   xmlns:rdf="http://www.w3.org/1999/02/22-rdf-syntax-ns#"
   xmlns:svg="http://www.w3.org/2000/svg"
   xmlns="http://www.w3.org/2000/svg"
   xmlns:sodipodi="http://sodipodi.sourceforge.net/DTD/sodipodi-0.dtd"
   xmlns:inkscape="http://www.inkscape.org/namespaces/inkscape"
   width="48"
   height="48"
   id="svg2"
   version="1.1"
   inkscape:version="0.48.4 r9939"
   sodipodi:docname="Rekonq-0.3.svg"
   inkscape:output_extension="org.inkscape.output.svgz.inkscape"
   inkscape:export-filename="/home/lionelc/Bureau/rekonq.png"
   inkscape:export-xdpi="82.279053"
   inkscape:export-ydpi="82.279053"
   style="display:inline">
  <defs
     id="defs78" />
  <sodipodi:namedview
     id="base"
     pagecolor="#ffffff"
     bordercolor="#666666"
     borderopacity="1.0"
     inkscape:pageopacity="0.0"
     inkscape:pageshadow="2"
     inkscape:zoom="4.0000004"
     inkscape:cx="74.783321"
     inkscape:cy="-21.809223"
     inkscape:document-units="px"
     inkscape:current-layer="layer3"
     showgrid="false"
     inkscape:snap-bbox="false"
     inkscape:bbox-nodes="false"
     inkscape:bbox-paths="false"
     inkscape:window-width="808"
     inkscape:window-height="846"
     inkscape:window-x="1041"
     inkscape:window-y="98"
     inkscape:window-maximized="0"
     showguides="true"
     inkscape:guide-bbox="true"
     inkscape:object-paths="false"
     inkscape:snap-nodes="false"
     inkscape:object-nodes="true">
    <inkscape:grid
       type="xygrid"
       id="grid6541"
       empspacing="5"
       visible="true"
       enabled="true"
       snapvisiblegridlinesonly="true" />
  </sodipodi:namedview>
  <metadata
     id="metadata7">
    <rdf:RDF>
      <cc:Work
         rdf:about="">
        <dc:format>image/svg+xml</dc:format>
        <dc:type
           rdf:resource="http://purl.org/dc/dcmitype/StillImage" />
        <dc:title />
      </cc:Work>
    </rdf:RDF>
  </metadata>
  <g
     inkscape:groupmode="layer"
     id="layer3"
     inkscape:label="BackItems"
     style="display:inline"
     transform="translate(-16.852375,-2.2811678)">
    <g
       style="display:inline"
       id="g3149"
       transform="matrix(0.1051656,0,0,0.1051656,3.884889,-12.658373)">
      <g
         id="g7038"
         transform="translate(0,280)">
        <path
           sodipodi:nodetypes="ccccc"
           id="path6974"
           d="m 274.05723,107.62108 10.34332,-150.171138 c -37.542,-1.16845 -82.51083,-0.793989 -122.58066,15.732408 l -1.87879,87.126253 114.11613,47.312477 z"
           style="fill:#bdc3c7;fill-opacity:1;stroke:none"
           inkscape:connector-curvature="0" />
      </g>
      <path
         sodipodi:nodetypes="ccccc"
         id="path3882"
         d="m 166.28188,255.58953 c 12.17204,-20.88812 119.22252,-17.7699 119.22252,-17.7699 l 10.41823,-2.42931 c 0,0 -129.50899,-6.27846 -137.71283,22.43356 4.5738,-0.54308 4.20486,0.124 8.07208,-2.23435 z"
         style="fill:#bdc3c7;fill-opacity:1;stroke:none"
         inkscape:connector-curvature="0" />
    </g>
    <g
       style="display:inline"
       id="g3135"
       transform="matrix(0.1051656,0,0,0.1051656,3.884889,-12.658373)">
      <path
         sodipodi:nodetypes="ccccc"
         id="path4010"
         d="M 558.65923,309.45131 548.15504,390.79559 471.3583,412.7429 426.47429,247.54152 c 44.06836,21.31958 100.05225,23.88028 132.18494,61.90979 z"
         style="fill:#bdc3c7;fill-opacity:1;stroke:none"
         inkscape:connector-curvature="0" />
      <path
         sodipodi:nodetypes="czcczcc"
         id="path3880"
         d="m 390.26903,373.74349 c 0,0 159.34464,-33.71849 161.67304,-60.73541 2.3284,-27.01692 -105.84343,-54.07329 -105.84343,-54.07329 l -2.67675,-4.44341 c 0,0 117.05622,28.03924 120.18617,56.83332 3.09197,28.44468 -174.28108,65.89845 -174.28108,65.89845 l 0.94205,-3.47966 z"
         style="fill:#bdc3c7;fill-opacity:1;stroke:none"
         inkscape:connector-curvature="0" />
    </g>
  </g>
  <g
     inkscape:groupmode="layer"
     id="layer5"
     inkscape:label="Globe"
     style="display:inline"
     transform="translate(-16.852375,-2.2811678)">
    <path
       d="M 57.632218,32.838704 C 60.129474,23.517914 54.597483,13.93587 45.276257,11.437683 35.953805,8.9403653 26.372359,14.472332 23.874584,23.79433 c -2.497072,9.321309 3.035086,18.903356 12.355978,21.400674 9.321919,2.497665 18.902672,-3.033762 21.401656,-12.3563 z"
       id="path258"
       style="fill:#34495e;display:inline"
       inkscape:connector-curvature="0" />
    <path
       id="path3516"
       style="fill:#3498db;fill-opacity:1;stroke:none"
       d="m 49.866976,25.027267 c -1.198339,0.106691 0.451828,0.913878 0,0 z M 48.434507,24.0377 c -0.721027,0.135864 0.221099,1.659444 0,0 z m -1.37877,-11.038359 c 1.913247,2.125922 1.708629,1.181831 0,0 z m -2.55403,0.429097 c 0.171582,0.07196 0.294594,0.267939 0.500159,0.331424 1.656642,0.511579 -1.19579,-1.306044 -0.47822,-0.363644 m -2.802293,2.788019 c 0.392886,0.212109 0.945526,0.02216 1.291461,0.06889 0.70452,0.09515 -1.528047,1.552641 -1.355397,0.274327 0.02717,-0.201394 -0.175621,-0.188484 0.103128,-0.373088 m -2.501684,-3.082152 c 0.592446,0.72523 -0.848786,1.454848 -1.241132,2.031326 -0.217881,0.320139 -0.269349,0.769657 -0.479654,1.078676 -0.156995,0.230663 0.263176,0.654414 0.233255,0.875896 -0.0091,0.06695 1.257765,-0.649276 1.521043,-0.850071 0.418428,-0.319112 2.348116,-0.846663 2.477987,-1.037475 0.355812,-0.522796 0.68318,-1.559321 1.175341,-1.934662 0.42976,-0.327754 -0.601496,-0.454841 -0.738107,-0.521882 -0.542243,-0.266106 -2.07984,-0.400532 -2.662248,-0.201228 -0.09334,0.03197 -0.308448,0.481611 -0.375131,0.565045 m -1.224722,-1.344039 c 0.100981,0.271578 0.02971,0.878676 0.264059,1.038374 0.113931,0.07765 1.572107,-0.323988 1.822895,-0.351918 0.09878,-0.01101 0.92977,0.02231 0.878563,-0.127627 -0.08544,-0.250162 -0.938628,-0.111408 -1.127703,-0.240256 -0.198849,-0.135526 -0.83604,-0.664127 -1.074026,-0.637619 -0.341459,0.03804 -0.482012,0.26022 -0.763788,0.319046 z m -1.740327,0.521395 c 2.671346,-0.80458 1.048401,-1.233461 -0.09143,-0.364183 -0.294226,0.224396 -0.337012,0.8338 0.104037,0.401063 m -0.78951,3.112629 c -0.252254,-0.840307 0.837658,-0.912275 1.196323,-1.439257 0.26594,-0.390752 -0.08042,-0.536852 0.08212,-0.868492 0.08544,-0.174278 0.987141,-0.778313 1.133781,-0.585719 0.464765,0.610384 -0.2574,1.048649 -0.716214,1.398552 -0.203606,0.15528 0.124852,0.726129 -0.104069,0.900706 -0.411115,0.313534 -0.362498,-0.345569 -0.615397,-0.259028 -0.09592,0.03279 -0.113882,0.385307 -0.186183,0.467422 -0.207923,0.236174 -0.40956,0.0179 -0.523954,0.105154 -0.135861,0.103614 -0.07376,0.25694 -0.266417,0.280662 z m -1.233692,3.017463 c -1.389317,0.105732 -0.703492,1.977734 0.01816,1.427366 0.0047,-0.0038 -0.0913,-0.235043 -0.0835,-0.292747 0.01641,-0.121494 0.22305,-0.2389 0.161911,-0.417918 -0.01322,-0.03887 -0.437785,-0.10004 -0.267804,-0.229674 0.202864,-0.154712 0.455835,-0.358554 0.171247,-0.487027 z m -8.138111,7.415214 c -0.379425,0.09969 0.414993,1.031755 0.580855,0.905252 0.171183,-0.130541 -0.40764,-0.935233 -0.580855,-0.905252 z m -0.752054,-2.370873 c 0.0072,0.468927 0.336408,0.970592 0.266848,1.408174 -0.02111,0.132728 0.400853,0.670604 0.440891,0.640068 0.119124,-0.09085 -0.557036,-2.002144 -0.707739,-2.048242 z M 39.17622,10.974433 c -0.883271,0.184408 -4.705573,0.796748 -3.443689,1.656718 0.324029,0.220823 1.477294,-0.846506 1.648406,-0.621766 0.264481,0.347357 0.162602,0.253802 -0.197838,0.553797 l -0.08072,0.07706 c -1.941343,0.488538 0.130747,0.639093 -0.594437,0.887249 -0.74412,0.254647 -2.238135,0.03326 -2.648261,0.346002 -0.358529,0.273435 -0.976483,0.217814 -1.331611,0.488644 -0.262977,0.200553 -0.272958,0.979833 -0.313099,1.27708 -0.03736,0.276542 -0.803571,0.612728 -0.527235,0.650049 0.316684,0.04276 2.942592,-1.900015 3.122801,-1.777195 0.810955,0.552667 -0.339642,0.91819 -0.527252,1.30093 -0.105439,0.215095 0.908197,0.03093 0.870621,-0.199064 l 0.08865,-0.0053 c -0.05815,0.179259 -0.670537,0.988647 -0.572523,1.505925 0.04931,0.260368 0.315155,0.627479 0.1045,0.788136 -0.138522,0.105642 -0.289656,0.263903 -0.428791,0.311512 -0.225154,0.07705 -0.56607,0.20769 -0.76938,0.230334 -0.321687,0.03579 -0.490655,-0.278264 -0.624263,-0.453733 -0.157043,-0.206253 -1.502116,0.05922 -1.525688,0.233733 -0.02406,0.177767 0.67382,-0.191687 1.030191,0.05114 0.159894,0.108975 -0.301095,0.588805 -0.315426,0.643474 l -0.01632,0.120934 c -0.02287,0.522886 0.291184,0.132411 0.44277,0.235717 0.536906,0.365899 -1.315375,0.550645 -1.381063,0.464368 -0.162613,-0.213562 0.393612,-0.552457 0.342947,-0.586978 -0.445813,-0.303822 -1.070793,0.429203 -1.293819,0.599288 -0.215092,0.164041 -0.545009,-0.06477 -0.750708,0.09212 -0.311633,0.237657 -1.040682,0.850467 -1.360089,0.959765 -0.241843,0.08277 -0.980044,0.06904 -1.128635,0.287363 -0.362138,0.53209 -0.416531,1.58842 -0.935991,1.984577 -0.122272,0.09325 0.351337,-1.299911 0.384961,-1.548844 0.08413,-0.622966 -0.1092,-0.612108 -0.464685,-0.854378 -0.173924,-0.118529 0.22959,-0.369709 0.106857,-0.530907 -0.0137,-0.01804 -0.397899,0.07167 -0.43765,0.116816 -0.205318,0.233201 -0.323335,0.466036 -0.542172,0.630437 l -0.02892,0.08405 c -0.178774,0.203063 -0.879431,1.619818 -0.758698,1.973347 0.0092,0.02696 0.540332,-0.153679 0.646672,0.1577 0.08282,0.24253 -0.450985,1.105766 -0.579047,1.293934 -0.09815,0.144206 0.05878,0.809485 0.13994,0.916071 0.101412,0.133191 -0.227783,0.403923 -0.274822,0.473038 -0.540873,0.794712 0.115731,1.803307 0.329342,2.507299 l 0.08632,0.01168 c 0.558344,-0.487841 1.255846,1.324592 1.745871,1.519977 0.851998,0.339709 1.067679,1.631579 1.328735,2.395977 0.09681,0.283484 0.643198,0.173508 0.778701,0.351467 0.166905,0.219204 0.314844,0.494861 0.453485,0.676943 1.08068,1.419301 0.89209,3.23108 3.263577,3.818338 l 0.06206,0.06119 c 0.23194,0.07531 0.453341,0.554218 0.710105,0.729199 1.365298,0.930437 -0.05736,1.261419 -0.571121,2.01627 -0.256381,0.376679 -0.134428,0.917616 -0.384499,1.285024 -0.210607,0.309443 -1.053778,-0.296632 -1.343249,-0.07582 -0.233892,0.178369 -0.230523,0.645562 -0.574865,0.813646 -0.15369,0.07511 -0.332815,0.0791 -0.469592,-0.06815 C 28.316129,40.757977 26.96,39.114365 26.737451,38.6797 c -0.222541,-0.434665 -2.35009,-4.517905 -2.389738,-4.875091 -0.03967,-0.357197 -0.667127,-2.869566 -0.50148,-3.445303 0.165646,-0.575746 0.352738,-0.269015 0.519309,-0.721484 0.166578,-0.452479 -0.295758,-1.97502 -0.295758,-1.97502 -0.716596,-2.242954 0.60485,-5.768896 0.666452,-6.094815 0.06166,-0.325921 1.288401,-3.541391 4.334035,-6.255287 2.338164,-2.083487 5.839824,-4.052588 10.119132,-4.377369 l -0.01314,0.03946 z m 4.635018,9.714051 c 0.674434,0.06028 0.911679,-0.883303 0.419479,-1.218739 -0.298386,-0.203347 -0.854187,0.832893 -0.419479,1.218739 z m 1.018521,0.462997 c 0.03919,0.177296 1.33936,-0.164543 1.118843,-0.60533 -0.178782,-0.357376 -0.446952,-0.438503 -0.665072,-0.802282 -0.291248,-0.485738 -0.28043,-0.640321 -0.357614,-0.866305 -0.160285,-0.469332 -0.668202,-0.345328 -0.574115,0.151154 0.06907,0.364499 0.542061,0.574884 0.583659,0.949611 0.02645,0.238451 -0.165901,0.279409 -0.09822,0.532067 0.05752,0.214652 -0.04668,0.46379 -0.0072,0.641085 l 0,0 z m -1.501456,-10.11689 c 0.777227,0.240017 1.139898,0.275203 1.895824,0.495159 0.56411,0.164147 0.594612,0.191357 1.162833,0.368084 0.675931,0.210229 0.796219,0.230948 1.281384,0.542236 0.729336,0.467946 1.025076,1.029891 1.339275,1.442537 0.179786,0.236129 -0.03919,0.653373 0.119738,0.86203 0.131011,0.172061 -0.04366,0.724569 0.0333,0.949872 0.02724,0.07972 0.30338,0.491863 0.140522,0.61606 -0.125578,0.09577 -0.606013,-0.349514 -0.69281,-0.392107 -0.308528,-0.151416 0.576624,-0.191979 0.383375,-0.445789 -0.176655,-0.232011 -0.771053,-0.551759 -1.135565,-0.427023 -0.472381,0.161653 -1.238216,-0.173491 -1.376578,0.529334 0.0063,0.264959 0.07575,0.931533 -0.0517,1.118759 -0.132619,0.19487 -0.557036,0.738483 -0.469823,0.993872 0.02103,0.06163 0.440524,0.892918 0.499799,0.900922 0.153674,0.02075 0.630612,-0.250617 0.653235,-0.235192 0.154208,0.105088 0.675134,1.074032 0.95245,0.862538 0.133631,-0.101903 0.227479,-1.184788 0.195343,-1.354356 -0.03919,-0.206814 -0.353726,-0.220054 -0.482004,-0.388514 -0.13453,-0.176695 0.06094,-0.578043 0.0129,-0.83168 -0.0047,-0.02395 -0.149826,-0.321583 -0.103583,-0.337405 0.549262,-0.187967 0.199479,2.394804 1.486567,1.233214 l 0.06596,-0.02837 c 0.315504,0.278182 -0.223712,0.367868 -0.409775,0.641249 -0.301589,0.443131 1.01123,1.092941 -0.477423,1.602363 -0.103408,0.03541 -0.166468,-0.141001 -0.225982,-0.167351 l -0.04716,-0.0188 c -0.05593,0.02404 -0.358722,0.449406 -0.559546,0.185652 -0.05919,-0.07766 -0.301852,-0.997091 -0.424912,-0.903244 -0.127122,0.09695 0.292205,1.578701 -0.489953,1.32701 l -0.0063,0.04882 c -0.170634,1.263453 -1.605532,1.330853 -1.749576,1.542504 -0.04134,0.06072 0.434925,0.248177 0.531808,0.295735 0.31325,0.153722 0.506787,1.086493 0.296243,1.39587 -0.159863,0.234865 -1.50637,-0.50889 -1.820807,-0.04687 -0.145549,0.213852 0.06078,0.470312 0.02637,0.725026 -0.056,0.414564 -0.454209,0.971237 -0.148162,1.373168 0.113423,0.148969 0.464313,0.0096 0.60704,0.106863 0.183603,0.125133 0.186136,0.316379 0.308463,0.477028 0.05719,0.07515 0.246464,-0.308501 0.267566,-0.324594 0.159991,-0.122019 0.630754,0.103253 0.766066,-0.05825 l 0.06596,-0.02838 c 0.644224,-0.426671 0.200282,-1.018425 0.532182,-1.271553 1.108839,-0.845645 0.220405,-0.323837 0.682293,-1.002491 0.06747,-0.09913 1.027149,0.01633 1.185068,-0.399715 l 0.07321,0.0099 c 0.128389,0.113197 0.836447,0.539943 0.897348,0.718265 0.08012,0.234617 0.694148,0.250035 0.835992,0.436325 0.0407,0.05346 0.204426,0.917986 0.392592,0.774493 1.154127,-0.880196 -2.185,-2.015533 -1.441008,-2.582929 0.399817,-0.304916 2.753181,2.623259 2.779135,2.614379 0.640712,-0.219252 -0.62983,-1.184086 0.07385,-1.44536 0.297637,-0.112231 0.389326,-0.172113 0.480483,-0.358088 0.0083,-0.01701 -0.593218,-1.514528 -0.147764,-1.804968 l 0.03218,-0.0081 c 0.260967,-0.08002 0.457793,0.482384 0.660977,0.443783 0.242783,-0.04612 -0.432901,-0.757781 -0.02159,-0.898535 0.197272,-0.06746 0.243842,0.540432 0.463682,0.616165 0.292976,0.100941 1.341416,0.418316 1.00853,0.907431 -0.209501,0.307813 -0.634834,0.09241 -0.952513,0.180516 -0.497712,0.149724 -0.842898,0.868731 -1.320314,0.975684 0.388195,-0.10001 0.578082,0.93834 0.858536,1.136977 l 0.307699,-0.03564 c 0.147882,-0.08608 0.771116,-0.628453 0.996356,-0.474954 0.137336,0.0936 0.479416,1.27544 0.39586,1.67055 -0.06031,0.285161 -0.104165,0.421153 -0.405785,0.538955 0.0282,0.287887 0.455016,0.314935 0.716741,0.493294 0.201222,0.137136 1.087434,1.888589 1.176423,2.149142 0.132762,0.388733 0.45225,0.710536 0.593824,1.125084 0.02397,0.07019 -0.02716,0.527819 0.148121,0.467818 0.729949,-0.2498 0.486249,-1.897945 0.929101,-2.461857 l 0.0188,-0.04724 c -0.03251,-0.714551 0.255999,-1.936317 -0.193273,-2.526364 -0.240487,-0.315848 -0.431347,0.765583 -0.445726,0.72347 -0.05983,-0.175117 -1.136075,-1.08412 -0.690157,-1.424198 0.210583,-0.16059 0.668601,0.854863 0.845242,0.275861 l 0.01999,-0.07205 0.515341,-0.826813 c 0,0 0.06134,0.113093 -0.478816,-1.568935 -0.72348,-2.252959 -2.143339,-4.507145 -3.428818,-5.957351 -1.197373,-1.351758 -2.559733,-2.448884 -3.757626,-3.213763 -2.093073,-1.336483 -4.268952,-2.116323 -6.75629,-2.525173 z m 4.349808,33.120747 c -0.209373,0.43049 3.541362,-1.564507 4.868528,-3.143206 0.421255,-0.997365 1.053371,-1.751255 1.857468,-2.48028 0.68701,-0.523941 0.278502,-2.141011 0.927785,-2.636179 1.402892,-1.069912 1.902659,-3.604393 2.090596,-5.4703 -0.158725,0.182502 -0.19133,0.690603 -0.369643,0.826589 -0.675054,0.514825 -2.262583,-4.3386 -2.990061,-4.78328 l -0.296443,0.03549 c -0.654493,0.380995 -1.310762,-0.238899 -1.857419,-0.05183 -0.512178,0.175274 -0.09695,0.94201 -0.389333,1.042066 -0.301717,0.103252 -2.362527,-0.913429 -2.335768,-1.111563 0.0092,-0.06754 0.02963,-0.134217 0.0024,-0.198757 l -0.01632,-0.136568 c -0.206506,-0.589448 -0.344542,-0.435178 -0.936868,-0.416788 -0.628779,0.01954 -1.094859,-0.01153 -1.624142,0.24683 -0.187138,0.09134 -0.451636,0.333857 -0.659742,0.394661 -0.35708,0.104332 -0.790873,-0.09663 -1.138433,-0.03063 l -0.07026,-7.34e-4 c -0.245514,0.04553 -0.263198,0.363443 -0.445821,0.502722 -0.199591,0.152209 -0.464439,0.301575 -0.60469,0.507647 -0.38069,0.559361 -0.123362,0.996194 -0.615204,1.236285 l -0.04437,0.003 c -0.761677,0.311204 -0.978729,0.856438 -1.426113,1.513777 -0.263589,0.3873 -1.104052,0.533794 -0.813728,1.209469 l 0.01147,0.04553 c 0.269691,0.567408 0.08364,1.122291 -0.09336,1.667382 l -0.0243,0.04952 c -0.214757,0.283791 -0.253823,0.893805 -0.196228,1.257673 l 0.02757,0.05648 c 0.308311,0.377365 0.549827,0.799198 0.961578,1.079807 0.177285,0.120812 0.15443,0.474499 0.312589,0.613954 0.194571,0.171543 0.524088,0.245286 0.750939,0.426857 0.246231,0.197083 0.168992,0.297246 0.529314,0.440917 0.103471,0.04124 0.277546,0.177324 0.383049,0.157269 0.228053,-0.04328 0.43326,-0.233796 0.670474,-0.278869 0.661711,-0.125703 1.220045,0.179821 1.859745,-0.03909 0.394609,-0.135045 0.740663,-0.567152 1.150582,-0.645029 0.10493,-0.01985 0.313537,0.27231 0.349926,0.33752 l 0.0431,0.0061 c 0.218797,0.103438 0.116226,0.40183 0.362512,0.374408 0.122534,-0.01361 0.262069,-0.184508 0.37443,-0.169333 1.352069,0.182614 0.004,1.326689 0.452992,1.917089 0.0925,0.121487 0.118081,0.200653 0.225807,0.215214 l 0.05687,0.03407 c 0.362242,0.470826 0.171749,2.198946 -0.341346,2.267174 l -0.0231,0.04083 c -0.834455,0.327851 -0.313369,1.450592 -0.506738,1.734699 -0.141972,0.321855 -0.227989,0.81206 -0.451813,0.978774 l 0,0 0.0015,0.372995 0,4.1e-5 z M 54.38839,20.057642 c 0.195702,0.41073 0.33432,0.834841 0.71028,1.091054 0.668927,0.455874 1.16789,2.003245 0.567742,1.594253 -0.320244,-0.218248 -2.199954,-2.593944 -1.278022,-2.685307 z"
       sodipodi:nodetypes="cccccccsccssccssssssssccsssssccsccssssssssccssssccsccssccssccsssssssccsssssssccssssssssssssccsssssccssssccssssscsssscssccccccsssssccscsssssssscsssssssssccssccssccsssssssssccssccssssscsccssssccccsscssssccssscccsssccccscsccsssccsssccssccsccccccssssssssccssscccccccccsccssc"
       inkscape:connector-curvature="0" />
  </g>
  <g
     inkscape:groupmode="layer"
     id="layer6"
     inkscape:label="ForeItems"
     style="display:inline"
     transform="translate(-16.852375,-2.2811678)">
    <g
       transform="matrix(0.1051656,0,0,0.1051656,-42.387981,-12.658373)"
       id="g6709">
      <path
         sodipodi:nodetypes="ccccccccccccccccc"
         id="path3838"
         d="m 1003.6841,312.67226 c -61.1354,38.55867 -174.65238,64.31429 -174.65238,64.31429 l 0.97305,11.44464 69.34104,8.73826 5.8956,12.41429 -36.17917,77.9663 9.10149,6.27535 53.91201,-50.29503 9.77067,3.91198 13.87432,63.41108 8.91898,0.086 16.3189,-76.2838 8.02301,-8.77516 4.0493,8.01346 2.22605,-4.2318 -1.25359,-43.82546 9.68072,-73.1644 z"
         style="fill:#bdc3c7;fill-opacity:1;stroke:none"
         inkscape:connector-curvature="0" />
      <path
         sodipodi:nodetypes="ccccc"
         id="path3870"
         d="m 938.62894,443.4154 3.45968,3.72299 13.6505,63.91394 -2.06659,-2.70752 -15.04359,-64.92941 z"
         style="fill:#bdc3c7;fill-opacity:1;stroke:none"
         inkscape:connector-curvature="0" />
    </g>
    <path
       sodipodi:nodetypes="ccccc"
       id="path3126"
       d="m 44.927765,26.64659 c 0,0 16.683218,-4.103754 17.002451,-6.387278 l 1.213711,-0.137594 c 0.102604,3.109005 -18.315228,6.890809 -18.315228,6.890809 l 0.09907,-0.365937 z"
       style="fill:#bdc3c7;fill-opacity:1;stroke:none"
       inkscape:connector-curvature="0" />
    <path
       style="fill:#bdc3c7;fill-opacity:1;stroke:none;display:inline"
       d="m 21.868032,30.842929 -1.248851,3.338007 0.275148,-0.0527 1.331141,-3.322556 -0.357438,0.03735 z"
       id="path3886-3-4-6"
       sodipodi:nodetypes="ccccc"
       inkscape:connector-curvature="0" />
    <path
       style="fill:#bdc3c7;fill-opacity:1;stroke:none;display:inline"
       d="m 19.847069,26.667692 -0.521716,0.886284 0.153953,-0.03407 0.501473,-0.740333 -0.13371,-0.111866 z"
       id="path3886-3-4-6-9"
       sodipodi:nodetypes="ccccc"
       inkscape:connector-curvature="0" />
    <path
       style="fill:#bdc3c7;fill-opacity:1;stroke:none"
       d="m 26.41163,22.72476 -0.149156,1.04408 -2.610199,-0.149155 -0.149157,0.894932 0.969505,8.576383 -0.745778,0.745776 -1.267809,-2.983103 -0.596621,0.223738 -1.218818,3.126047 -0.596629,-0.149166 0.249332,-6.109123 -0.522042,-1.044081 -0.447471,0.671196 -0.223728,-0.447466 0.74577,-3.430552 c 0,0 0.253656,-7.303535 0.758387,-9.40922 0.534843,3.291791 3.186242,6.051887 5.804414,8.439714 z"
       id="path3878"
       sodipodi:nodetypes="ccccccccccccccccc"
       inkscape:connector-curvature="0" />
    <path
       style="fill:#bdc3c7;fill-opacity:1;stroke:none"
       d="m 26.355701,22.72476 -0.167798,1.04408 0.354236,0 0.223728,-1.081371 -0.410166,0.0373 z"
       id="path3886"
       inkscape:connector-curvature="0" />
    <path
       sodipodi:nodetypes="ccccc"
       style="fill:#bdc3c7;fill-opacity:1;stroke:none;display:inline"
       d="m 23.667092,23.570451 -0.180941,1.096669 0.380532,0.05257 0.223726,-1.081371 -0.423317,-0.06784 z"
       id="path3886-3"
       inkscape:connector-curvature="0" />
    <path
       style="fill:#bdc3c7;stroke:none"
       d="m 23.518509,24.615003 0.342772,0.07909 0.791017,8.516561 -0.316413,-0.184569 -0.817376,-8.411088 z"
       id="path3910"
       sodipodi:nodetypes="ccccc"
       inkscape:connector-curvature="0" />
    <path
       style="fill:#bdc3c7;fill-opacity:1;stroke:none;display:inline"
       d="m 24.399271,33.05003 -0.668777,0.754043 0.222406,0.07909 0.67197,-0.659507 -0.225599,-0.173641 z"
       id="path3886-3-4"
       sodipodi:nodetypes="ccccc"
       inkscape:connector-curvature="0" />
    <path
       sodipodi:nodetypes="cccccc"
       id="path3143"
       d="m 26.29829,22.718126 0.464462,-0.0068 c 0,0 -6.448847,-6.380546 -5.354674,-8.540076 l -0.857342,0.196278 c -0.849623,2.519984 5.694825,8.350201 5.747554,8.350201 l 0,-8e-6 z"
       style="fill:#bdc3c7;fill-opacity:1;stroke:none"
       inkscape:connector-curvature="0" />
    <g
       style="display:inline"
       id="g3691"
       transform="matrix(0.1051656,0,0,0.1051656,17.164052,29.68016)">
      <path
         sodipodi:nodetypes="cccccsc"
         id="path3689"
         d="m 258.97257,-200.99428 c -20.23479,1.21171 -54.03579,78.84772 -73.71601,127.72184 l 2.86913,17.12468 c 26.32207,-58.08682 53.72083,-116.12038 93.15492,-111.99384 9.16246,2.72151 11.38513,3.83283 13.43877,4.70302 0,0 -5.71376,-21.45681 -17.34949,-31.22535 -8.59631,-7.21686 -14.67358,-6.55334 -18.39732,-6.33035 z"
         style="fill:#bdc3c7;fill-opacity:1;stroke:none;display:inline"
         inkscape:connector-curvature="0" />
      <path
         sodipodi:nodetypes="ccccc"
         id="path3691"
         d="m 184.51676,-67.34188 -42.92097,-1.4496 c 2.91291,-59.72038 30.09571,-120.78242 52.28383,-136.97015 24.05386,1.01782 51.44166,2.70172 73.96704,5.24802 -33.69846,-1.52454 -72.27993,110.22734 -83.3299,133.17173 z"
         style="fill:#bdc3c7;fill-opacity:1;stroke:none;display:inline"
         inkscape:connector-curvature="0" />
    </g>
  </g>
  <g
     inkscape:groupmode="layer"
     id="layer10"
     inkscape:label="HeadAndTail"
     style="display:inline"
     transform="translate(-16.852375,-2.2811678)">
    <g
       style="display:inline"
       id="g3673"
       transform="matrix(0.1051656,0,0,0.1051656,33.990547,29.469826)">
      <path
         sodipodi:nodetypes="ccccccccc"
         id="path2867"
         d="m 15.08982,-12.95566 23.94001,-54.27794 1.18577,-26.46218 41.08325,-135.71188 5.46473,-0.12366 -18.94896,98.09999 1.58968,44.24579 -44.24857,86.62311 -10.06591,-12.39323 z"
         style="fill:#bdc3c7;fill-opacity:1;stroke:none;display:inline"
         inkscape:connector-curvature="0" />
      <path
         sodipodi:nodetypes="ccccc"
         id="path3876"
         d="m -30.42133,-121.07629 11.8544,-20.04802 -33.77005,-92.22707 -5.0275,1.39397 26.94315,110.88112 z"
         inkscape:connector-curvature="0"
         style="fill:#bdc3c7;fill-opacity:1;stroke:none;display:inline" />
      <path
         style="fill:#bdc3c7;fill-opacity:1;stroke:none;display:inline"
         d="m -31.12844,-121.7834 56.74828,1.53817 2.73227,-17.64012 -46.91904,-3.59251 -12.56151,19.69446 z"
         id="path3059"
         sodipodi:nodetypes="ccccc"
         inkscape:connector-curvature="0" />
      <path
         sodipodi:nodetypes="czccccccccccc"
         id="path2865"
         d="m 15.08856,-12.93545 c 0,0 -20.46656,7.34915 -31.2246,5.9054 C -26.89408,-8.47379 -40.57822,-17.43 -40.57822,-17.43 l -6.15494,-55.7262 -9.68059,-35.03576 -12.95136,-121.12343 12.16073,-2.10567 31.16494,100.85894 43.26144,3.99682 52.71959,-107.20114 11.65736,4.51743 -41.58816,135.39771 -0.47068,25.52319"
         style="fill:#bdc3c7;fill-opacity:1;stroke:none;display:inline"
         inkscape:connector-curvature="0" />
      <g
         id="g7439">
        <path
           sodipodi:nodetypes="ccccccccccccccccccccccccsc"
           id="path7410"
           transform="translate(-160,-240)"
           d="m 103.65625,131.75 8.75,31.34375 c 0,0 5.49391,4.39718 13.03125,8.71875 L 116,141.28125 C 108.80717,136.21955 103.65625,131.75 103.65625,131.75 z m 16.09375,12.09375 6.5,28.4375 c 2.24282,1.25861 4.63265,2.48391 7.125,3.59375 l -6.8125,-27.84375 c -2.3574,-1.34651 -4.63302,-2.74779 -6.8125,-4.1875 z m 80.5625,1.78125 c 0,0 -2.52163,0.76595 -6.5,1.875 l -12.9375,28.46875 c 10.53634,-2.29634 19.03125,-4.6875 19.03125,-4.6875 L 200.3125,145.625 z m -22.1875,5.84375 c -2.87539,0.65206 -5.84927,1.28125 -8.84375,1.84375 l -11.8125,26.53125 c 3.18966,-0.28535 6.58741,-0.7447 10.0625,-1.3125 l 10.59375,-27.0625 z m -40,2.03125 1.90625,24.90625 c 1.66261,0.51659 9.29868,1.36135 10.94643,1.65908 l -0.82143,-24.50283 c -1.61728,0.01 -3.11893,-0.0654 -4.5,-0.21875 -2.38578,-0.26483 -4.93197,-0.9208 -7.53125,-1.84375 z"
           style="fill:#ecf0f1;fill-opacity:1;stroke:none;display:inline"
           inkscape:connector-curvature="0" />
        <path
           style="fill:#ecf0f1;fill-opacity:1;stroke:none;display:inline"
           d="m -56.34375,-108.25 8.75,31.34375 c 0,0 -0.76984,0.53387 6.7675,4.85544 l -14.70153,-33.31708 -0.81597,-2.88211 z m 16.09375,12.09375 10.36938,30.49168 c 2.24282,1.25861 3.2052,1.42837 5.69755,2.53821 l -3.59575,-25.87398 c -2.3574,-1.34651 -10.2917,-5.7162 -12.47118,-7.15591 z m 80.5625,1.78125 c 0,0 -2.52163,0.76595 -6.5,1.875 l -5.8334,26.83136 c 10.53634,-2.29634 11.92715,-3.05011 11.92715,-3.05011 L 40.3125,-94.375 z m -15.47687,4.28525 c -2.87539,0.65206 -7.74521,1.90363 -10.73969,2.46613 l -9.17847,26.57186 c 3.18966,-0.28535 6.2291,-1.11854 9.70419,-1.68634 l 10.21397,-27.35165 z m -42.08448,4.94214 2.60016,24.44404 c 1.66261,0.51659 8.21003,0.43399 9.85778,0.73172 l -0.28803,-24.68123 c -1.61728,0.01 -7.88374,0.15018 -9.26481,-0.003 -2.38578,-0.26483 -0.30582,0.43159 -2.9051,-0.49136 l 0,-1.7e-4 z"
           id="path7435"
           sodipodi:nodetypes="ccccccccccccccccccccccccscc"
           inkscape:connector-curvature="0" />
      </g>
      <g
         id="g7545">
        <g
           transform="translate(-320,0)"
           id="g7547">
          <path
             style="fill:#e74c3c;fill-opacity:1;stroke:none;display:inline"
             d="m 323.81263,-66.43938 20.25443,-4.72377 7.29557,-16.63018 -19.65248,7.65714 -7.89752,13.69681 z"
             id="path7549"
             sodipodi:nodetypes="ccccc"
             inkscape:connector-curvature="0" />
        </g>
        <g
           transform="translate(-40,0)"
           id="g7555">
          <path
             style="fill:#e74c3c;fill-opacity:1;stroke:none;display:inline"
             d="M 12.6788,-70.16719 7.44162,-82.60516 -7.35786,-93.23975 0.03856,-76.98027 12.6788,-70.16719 z"
             id="path7557"
             sodipodi:nodetypes="ccccc"
             inkscape:connector-curvature="0" />
        </g>
      </g>
    </g>
    <g
       transform="matrix(0.1051656,0,0,0.1051656,3.884889,-37.898118)"
       style="display:inline"
       id="g3273">
      <path
         sodipodi:nodetypes="ccccc"
         id="path2818"
         d="m 285.16688,640.48637 c -31.86468,107.74206 23.81781,237.85729 76.09127,154.85543 -13.11969,0.30546 -39.46341,-0.32529 -44.14102,-4.80417 -22.03876,-16.97722 -35.285,-85.29346 -30.29825,-145.35734 l -1.652,-4.69392 z"
         style="fill:#bdc3c7;fill-opacity:1;stroke:none"
         inkscape:connector-curvature="0" />
      <path
         sodipodi:nodetypes="czzccc"
         id="path3693"
         d="m 285.34193,640.7413 c 0,0 -8.16435,1.74742 -11.44098,1.23205 -3.27663,-0.51537 -9.08752,-3.19166 -9.08752,-3.19166 0,0 -27.71946,124.17469 20.14944,180.89609 9.34391,1.26268 31.27024,1.56914 44.45482,2.47547 -46.52901,-10.5267 -55.05025,-94.79553 -44.07576,-181.41195 z"
         style="fill:#bdc3c7;fill-opacity:1;stroke:none"
         inkscape:connector-curvature="0" />
    </g>
  </g>
</svg>
