<?xml version="1.0" encoding="UTF-8" standalone="no"?>
<!-- Created using Karbon, part of Calligra: http://www.calligra.org/karbon -->

<svg
   xmlns:dc="http://purl.org/dc/elements/1.1/"
   xmlns:cc="http://creativecommons.org/ns#"
   xmlns:rdf="http://www.w3.org/1999/02/22-rdf-syntax-ns#"
   xmlns:svg="http://www.w3.org/2000/svg"
   xmlns="http://www.w3.org/2000/svg"
   xmlns:sodipodi="http://sodipodi.sourceforge.net/DTD/sodipodi-0.dtd"
   xmlns:inkscape="http://www.inkscape.org/namespaces/inkscape"
   width="38.4pt"
   height="38.4pt"
   id="svg2"
   version="1.1"
   inkscape:version="0.48.4 r9939"
   sodipodi:docname="showfoto.svg">
  <metadata
     id="metadata15">
    <rdf:RDF>
      <cc:Work
         rdf:about="">
        <dc:format>image/svg+xml</dc:format>
        <dc:type
           rdf:resource="http://purl.org/dc/dcmitype/StillImage" />
      </cc:Work>
    </rdf:RDF>
  </metadata>
  <sodipodi:namedview
     pagecolor="#ffffff"
     bordercolor="#666666"
     borderopacity="1"
     objecttolerance="10"
     gridtolerance="10"
     guidetolerance="10"
     inkscape:pageopacity="0"
     inkscape:pageshadow="2"
     inkscape:window-width="640"
     inkscape:window-height="480"
     id="namedview13"
     showgrid="false"
     inkscape:zoom="4.9166667"
     inkscape:cx="24"
     inkscape:cy="24"
     inkscape:window-x="1146"
     inkscape:window-y="82"
     inkscape:window-maximized="0"
     inkscape:current-layer="svg2" />
  <defs
     id="defs4" />
  <g
     id="layer1">
    <path
       id="shape0"
       transform="translate(2.65747,2.65745)"
       stroke-miterlimit="0"
       d="M 42.5171,20.9203 C 42.33,9.21343 32.7127,-0.138719 21.0052,0.00155762 9.29766,0.141834 -0.0928262,9.72173 6.92479e-4,21.4297 0.0942111,33.1377 9.63653,42.5664 21.3448,42.5196 33.0531,42.4729 42.5198,32.9683 42.5198,21.2599"
       inkscape:connector-curvature="0"
       style="fill:#2c3e50;stroke-miterlimit:0" />
    <path
       id="shape1"
       transform="translate(6.20626,6.24)"
       stroke-miterlimit="0"
       d="M 35.4331,17.7166 C 35.4331,7.93198 27.5012,0 17.7166,0 7.93198,0 0,7.93198 0,17.7166 c 0,9.7846 7.93198,17.7165 17.7166,17.7165 9.7846,0 17.7165,-7.9319 17.7165,-17.7165"
       inkscape:connector-curvature="0"
       style="fill:#d35400;stroke-miterlimit:0" />
    <path
       id="shape2"
       transform="translate(12.4239,12.4239)"
       stroke-miterlimit="0"
       d="M 23.0315,11.5158 C 23.0315,5.15578 17.8758,0 11.5158,0 5.15578,0 0,5.15578 0,11.5158 c 0,6.36 5.15578,11.5157 11.5158,11.5157 6.36,0 11.5157,-5.1557 11.5157,-11.5157"
       inkscape:connector-curvature="0"
       style="fill:#e67e22;stroke-miterlimit:0" />
    <path
       id="shape3"
       transform="translate(16.4623,16.4509)"
       stroke-miterlimit="0"
       d="M 14.9228,7.46141 C 14.9228,3.34058 11.5822,0 7.46141,0 3.34058,0 0,3.34058 0,7.46141 c 0,4.12079 3.34058,7.46139 7.46141,7.46139 4.12079,0 7.46139,-3.3406 7.46139,-7.46139"
       inkscape:connector-curvature="0"
       style="fill:#2c3e50;stroke-miterlimit:0" />
    <path
       id="shape4"
       transform="matrix(0.905973,0.423334,-0.423334,0.905973,26.7124,14.1186)"
       stroke-miterlimit="0"
       d="M 6.39107,3.12865 C 6.39107,1.40074 4.96039,0 3.19553,0 1.43068,0 0,1.40074 0,3.12865 0,4.85657 1.43068,6.2573 3.19553,6.2573 c 1.76486,0 3.19554,-1.40073 3.19554,-3.12865"
       inkscape:connector-curvature="0"
       style="fill:#bdc3c7;stroke-miterlimit:0" />
    <path
       id="shape41"
       transform="matrix(0.963066,0.269266,-0.269266,0.963066,18.1556,26.2131)"
       stroke-miterlimit="0"
       d="M 3.14996,2.54506 C 3.54534,1.64627 3.19723,0.581014 2.37243,0.165742 1.54764,-0.249531 0.558491,0.142438 0.163111,1.04123 -0.232275,1.94003 0.115834,3.00528 0.940632,3.42056 1.76543,3.83583 2.75458,3.44386 3.14996,2.54506"
       inkscape:connector-curvature="0"
       style="fill:#bdc3c7;stroke-miterlimit:0" />
  </g>
</svg>
