<?xml version="1.0" encoding="UTF-8" standalone="no"?>
<!-- Generator: Adobe Illustrator 18.0.0, SVG Export Plug-In . SVG Version: 6.00 Build 0)  -->

<svg
   xmlns:dc="http://purl.org/dc/elements/1.1/"
   xmlns:cc="http://creativecommons.org/ns#"
   xmlns:rdf="http://www.w3.org/1999/02/22-rdf-syntax-ns#"
   xmlns:svg="http://www.w3.org/2000/svg"
   xmlns="http://www.w3.org/2000/svg"
   xmlns:sodipodi="http://sodipodi.sourceforge.net/DTD/sodipodi-0.dtd"
   xmlns:inkscape="http://www.inkscape.org/namespaces/inkscape"
   version="1.1"
   id="图层_1"
   x="0px"
   y="0px"
   viewBox="0 0 16 16"
   style="enable-background:new 0 0 16 16;"
   xml:space="preserve"
   inkscape:version="0.48.5 r10040"
   width="100%"
   height="100%"
   sodipodi:docname="drive-harddisk-ieee1394-symbolic.svg"><metadata
     id="metadata21"><rdf:RDF><cc:Work
         rdf:about=""><dc:format>image/svg+xml</dc:format><dc:type
           rdf:resource="http://purl.org/dc/dcmitype/StillImage" /></cc:Work></rdf:RDF></metadata><defs
     id="defs19" /><sodipodi:namedview
     pagecolor="#ffffff"
     bordercolor="#666666"
     borderopacity="1"
     objecttolerance="10"
     gridtolerance="10"
     guidetolerance="10"
     inkscape:pageopacity="0"
     inkscape:pageshadow="2"
     inkscape:window-width="640"
     inkscape:window-height="480"
     id="namedview17"
     showgrid="false"
     showguides="true"
     inkscape:guide-bbox="true"
     inkscape:zoom="19.1875"
     inkscape:cx="8"
     inkscape:cy="9.4604712"
     inkscape:window-x="75"
     inkscape:window-y="34"
     inkscape:window-maximized="0"
     inkscape:current-layer="图层_1" /><path
     inkscape:connector-curvature="0"
     id="path5"
     d="m 8,4.93 c -1.692,0 -3.064,1.372 -3.064,3.064 0,1.692 1.372,3.064 3.064,3.064 1.692,0 3.064,-1.372 3.064,-3.064 C 11.064,6.302 9.692,4.93 8,4.93 z m 0,5.106 C 6.872,10.036 5.957,9.121 5.957,7.993 5.957,6.865 6.872,5.951 8,5.951 c 1.128,0 2.043,0.915 2.043,2.043 0,1.128 -0.915,2.042 -2.043,2.042 z"
     style="fill:#4d4d4d" /><rect
     id="rect7"
     height="1"
     width="4"
     style="fill:#4d4d4d"
     y="12"
     x="6" /><rect
     id="rect9"
     height="1"
     width="4"
     style="fill:#4d4d4d"
     y="14"
     x="6" /><rect
     id="rect11"
     height="1.0209903"
     width="4.0859609"
     style="fill:#4d4d4d"
     transform="matrix(-0.70710678,0.70710678,-0.70710678,-0.70710678,0,0)"
     y="-7.2236557"
     x="-2.0475411" /><rect
     id="rect13"
     height="1.0209903"
     width="4.0859609"
     style="fill:#4d4d4d"
     transform="matrix(-0.70710678,0.70710678,-0.70710678,-0.70710678,0,0)"
     y="-5.1814737"
     x="-2.0470498" /><rect
     id="rect15"
     height="3.0639706"
     width="4.0859609"
     style="fill:#4d4d4d"
     transform="matrix(-0.70710678,-0.70710678,0.70710678,-0.70710678,0,0)"
     y="4.089654"
     x="-13.352515" /></svg>