<?xml version="1.0" encoding="UTF-8" standalone="no"?>
<!-- Generator: Adobe Illustrator 18.0.0, SVG Export Plug-In . SVG Version: 6.00 Build 0)  -->

<svg
   xmlns:dc="http://purl.org/dc/elements/1.1/"
   xmlns:cc="http://creativecommons.org/ns#"
   xmlns:rdf="http://www.w3.org/1999/02/22-rdf-syntax-ns#"
   xmlns:svg="http://www.w3.org/2000/svg"
   xmlns="http://www.w3.org/2000/svg"
   xmlns:sodipodi="http://sodipodi.sourceforge.net/DTD/sodipodi-0.dtd"
   xmlns:inkscape="http://www.inkscape.org/namespaces/inkscape"
   version="1.1"
   id="图层_1"
   x="0px"
   y="0px"
   viewBox="0 0 16 16"
   style="enable-background:new 0 0 16 16;"
   xml:space="preserve"
   inkscape:version="0.48.5 r10040"
   width="100%"
   height="100%"
   sodipodi:docname="drive-removable-media-symbolic.svg"><metadata
     id="metadata15"><rdf:RDF><cc:Work
         rdf:about=""><dc:format>image/svg+xml</dc:format><dc:type
           rdf:resource="http://purl.org/dc/dcmitype/StillImage" /></cc:Work></rdf:RDF></metadata><defs
     id="defs13" /><sodipodi:namedview
     pagecolor="#ffffff"
     bordercolor="#666666"
     borderopacity="1"
     objecttolerance="10"
     gridtolerance="10"
     guidetolerance="10"
     inkscape:pageopacity="0"
     inkscape:pageshadow="2"
     inkscape:window-width="640"
     inkscape:window-height="480"
     id="namedview11"
     showgrid="false"
     inkscape:zoom="19.1875"
     inkscape:cx="7.9478827"
     inkscape:cy="8"
     inkscape:window-x="75"
     inkscape:window-y="34"
     inkscape:window-maximized="0"
     inkscape:current-layer="图层_1" /><path
     style="fill:#9FA0A0;"
     d="M2,1v14h12V1H2z M13,14H3V2h10V14z"
     id="path3" /><path
     inkscape:connector-curvature="0"
     id="path7"
     d="M 12,11.5 C 12,11.224 11.776,11 11.5,11 h -7 C 4.224,11 4,11.224 4,11.5 l 0,0 C 4,11.776 4.224,12 4.5,12 h 7 c 0.276,0 0.5,-0.224 0.5,-0.5 l 0,0 z"
     style="fill:#4d4d4d" /><path
     inkscape:connector-curvature="0"
     id="path9"
     d="m 8.296,4.121 3.416,5.417 c 0.115,0.2 -0.029,0.45 -0.26,0.45 H 4.62 c -0.231,0 -0.375,-0.25 -0.26,-0.45 L 7.776,4.121 c 0.116,-0.2 0.404,-0.2 0.52,0 z"
     style="fill:#4d4d4d" /></svg>