<?xml version="1.0" encoding="UTF-8" standalone="no"?>
<!-- Generator: Adobe Illustrator 18.0.0, SVG Export Plug-In . SVG Version: 6.00 Build 0)  -->

<svg
   xmlns:dc="http://purl.org/dc/elements/1.1/"
   xmlns:cc="http://creativecommons.org/ns#"
   xmlns:rdf="http://www.w3.org/1999/02/22-rdf-syntax-ns#"
   xmlns:svg="http://www.w3.org/2000/svg"
   xmlns="http://www.w3.org/2000/svg"
   xmlns:sodipodi="http://sodipodi.sourceforge.net/DTD/sodipodi-0.dtd"
   xmlns:inkscape="http://www.inkscape.org/namespaces/inkscape"
   version="1.1"
   id="图层_1"
   x="0px"
   y="0px"
   viewBox="0 0 16 16"
   style="enable-background:new 0 0 16 16;"
   xml:space="preserve"
   inkscape:version="0.48.5 r10040"
   width="100%"
   height="100%"
   sodipodi:docname="drive-harddisk-scsi-symbolic.svg"><metadata
     id="metadata13"><rdf:RDF><cc:Work
         rdf:about=""><dc:format>image/svg+xml</dc:format><dc:type
           rdf:resource="http://purl.org/dc/dcmitype/StillImage" /></cc:Work></rdf:RDF></metadata><defs
     id="defs11" /><sodipodi:namedview
     pagecolor="#ffffff"
     bordercolor="#666666"
     borderopacity="1"
     objecttolerance="10"
     gridtolerance="10"
     guidetolerance="10"
     inkscape:pageopacity="0"
     inkscape:pageshadow="2"
     inkscape:window-width="640"
     inkscape:window-height="480"
     id="namedview9"
     showgrid="false"
     inkscape:zoom="19.1875"
     inkscape:cx="7.9478827"
     inkscape:cy="8"
     inkscape:window-x="75"
     inkscape:window-y="34"
     inkscape:window-maximized="0"
     inkscape:current-layer="图层_1" /><path
     inkscape:connector-curvature="0"
     id="path5"
     d="m 8.805,15 h -1.6 c -0.11,0 -0.2,-0.09 -0.2,-0.2 V 8.2 c 0,-0.11 0.09,-0.2 0.2,-0.2 h 1.6 c 0.11,0 0.2,0.09 0.2,0.2 v 6.6 c 0,0.11 -0.089,0.2 -0.2,0.2 z"
     style="fill:#4d4d4d" /><path
     inkscape:connector-curvature="0"
     id="path7"
     d="M 6.005,11 3.147,8.141 C 3.069,8.063 3.069,7.936 3.147,7.858 L 7.864,3.141 c 0.078,-0.078 0.205,-0.078 0.283,0 l 4.717,4.717 c 0.078,0.078 0.078,0.205 0,0.283 L 10.005,11 v 2 l 4.859,-4.859 c 0.078,-0.078 0.078,-0.205 0,-0.283 L 8.147,1.141 C 8.069,1.063 7.942,1.063 7.864,1.141 L 1.147,7.859 c -0.078,0.078 -0.078,0.205 0,0.283 L 6.005,13 v -2 z"
     style="fill:#4d4d4d" /></svg>