<?xml version="1.0" encoding="UTF-8" standalone="no"?>
<!-- Generator: Adobe Illustrator 18.0.0, SVG Export Plug-In . SVG Version: 6.00 Build 0)  -->

<svg
   xmlns:dc="http://purl.org/dc/elements/1.1/"
   xmlns:cc="http://creativecommons.org/ns#"
   xmlns:rdf="http://www.w3.org/1999/02/22-rdf-syntax-ns#"
   xmlns:svg="http://www.w3.org/2000/svg"
   xmlns="http://www.w3.org/2000/svg"
   xmlns:sodipodi="http://sodipodi.sourceforge.net/DTD/sodipodi-0.dtd"
   xmlns:inkscape="http://www.inkscape.org/namespaces/inkscape"
   version="1.1"
   id="图层_1"
   x="0px"
   y="0px"
   viewBox="0 0 16 16"
   style="enable-background:new 0 0 16 16;"
   xml:space="preserve"
   inkscape:version="0.48.5 r10040"
   width="100%"
   height="100%"
   sodipodi:docname="drive-harddisk-usb-symbolic.svg"><metadata
     id="metadata9"><rdf:RDF><cc:Work
         rdf:about=""><dc:format>image/svg+xml</dc:format><dc:type
           rdf:resource="http://purl.org/dc/dcmitype/StillImage" /></cc:Work></rdf:RDF></metadata><defs
     id="defs7" /><sodipodi:namedview
     pagecolor="#ffffff"
     bordercolor="#666666"
     borderopacity="1"
     objecttolerance="10"
     gridtolerance="10"
     guidetolerance="10"
     inkscape:pageopacity="0"
     inkscape:pageshadow="2"
     inkscape:window-width="678"
     inkscape:window-height="480"
     id="namedview5"
     showgrid="false"
     inkscape:zoom="19.1875"
     inkscape:cx="8"
     inkscape:cy="8"
     inkscape:window-x="75"
     inkscape:window-y="34"
     inkscape:window-maximized="0"
     inkscape:current-layer="图层_1" /><path
     style="fill:#4d4d4d;fill-opacity:1"
     d="M12.116,6.088V3.863H9.891v2.225h0.831v1.039c0,0.313-0.037,0.437-0.29,0.673L7.963,9.476V2.718  h1.375L7.703,0.006L6.009,2.718h1.4v8.395L4.941,9.435c-0.253-0.236-0.29-0.359-0.29-0.673V7.635  C5.107,7.497,5.446,7.091,5.446,6.59c0-0.613-0.498-1.107-1.108-1.107c-0.612,0-1.108,0.494-1.108,1.107  c0,0.539,0.393,0.967,0.903,1.066v1.147H4.131c0,0.702,0.441,0.961,0.441,0.961l2.837,1.991v0.945  c-0.796,0.124-1.405,0.805-1.405,1.635c0,0.917,0.743,1.66,1.661,1.66c0.917,0,1.662-0.742,1.662-1.66c0-0.816-0.59-1.49-1.365-1.63  V10.12L10.8,8.13c0,0,0.441-0.26,0.441-0.961h-0.002V6.088H12.116z"
     id="path3" /></svg>