<?xml version="1.0" encoding="UTF-8" standalone="no"?>
<!-- Generator: Adobe Illustrator 18.0.0, SVG Export Plug-In . SVG Version: 6.00 Build 0)  -->

<svg
   xmlns:dc="http://purl.org/dc/elements/1.1/"
   xmlns:cc="http://creativecommons.org/ns#"
   xmlns:rdf="http://www.w3.org/1999/02/22-rdf-syntax-ns#"
   xmlns:svg="http://www.w3.org/2000/svg"
   xmlns="http://www.w3.org/2000/svg"
   xmlns:sodipodi="http://sodipodi.sourceforge.net/DTD/sodipodi-0.dtd"
   xmlns:inkscape="http://www.inkscape.org/namespaces/inkscape"
   version="1.1"
   id="图层_1"
   x="0px"
   y="0px"
   viewBox="0 0 16 16"
   style="enable-background:new 0 0 16 16;"
   xml:space="preserve"
   inkscape:version="0.48.5 r10040"
   width="100%"
   height="100%"
   sodipodi:docname="folder-music-symbolic.svg"><metadata
     id="metadata11"><rdf:RDF><cc:Work
         rdf:about=""><dc:format>image/svg+xml</dc:format><dc:type
           rdf:resource="http://purl.org/dc/dcmitype/StillImage" /></cc:Work></rdf:RDF></metadata><defs
     id="defs9" /><sodipodi:namedview
     pagecolor="#ffffff"
     bordercolor="#666666"
     borderopacity="1"
     objecttolerance="10"
     gridtolerance="10"
     guidetolerance="10"
     inkscape:pageopacity="0"
     inkscape:pageshadow="2"
     inkscape:window-width="1301"
     inkscape:window-height="744"
     id="namedview7"
     showgrid="false"
     inkscape:zoom="30.9375"
     inkscape:cx="2.6666667"
     inkscape:cy="8"
     inkscape:window-x="65"
     inkscape:window-y="24"
     inkscape:window-maximized="1"
     inkscape:current-layer="图层_1" /><rect
     x="5.005"
     y="2"
     style="fill:#FFFFFF;"
     width="1"
     height="6"
     id="rect3" /><path
     style="fill:#4d4d4d;fill-opacity:1"
     d="M13.538,1.911l-7.99-0.872c-0.296-0.032-0.543,0.2-0.543,0.497V3v6v0.149  c-1-0.234-1.407-0.215-2.166,0.121c-1.272,0.563-1.971,1.782-1.555,2.724c0.417,0.942,1.782,1.249,3.054,0.687  c1.008-0.446,1.641-1.304,1.657-2.109l0.01-0.004L6.003,9h0.002V3.974l7,0.844v6.331c-1-0.234-1.407-0.215-2.166,0.121  c-1.272,0.563-1.971,1.782-1.555,2.724c0.417,0.942,1.782,1.249,3.054,0.687c1.008-0.446,1.641-1.304,1.657-2.109l0.01-0.004  l0.015-10.16C14.02,2.152,13.791,1.938,13.538,1.911z"
     id="path5" /></svg>