<?xml version="1.0" encoding="UTF-8" standalone="no"?>
<!-- Generator: Adobe Illustrator 18.0.0, SVG Export Plug-In . SVG Version: 6.00 Build 0)  -->

<svg
   xmlns:dc="http://purl.org/dc/elements/1.1/"
   xmlns:cc="http://creativecommons.org/ns#"
   xmlns:rdf="http://www.w3.org/1999/02/22-rdf-syntax-ns#"
   xmlns:svg="http://www.w3.org/2000/svg"
   xmlns="http://www.w3.org/2000/svg"
   xmlns:sodipodi="http://sodipodi.sourceforge.net/DTD/sodipodi-0.dtd"
   xmlns:inkscape="http://www.inkscape.org/namespaces/inkscape"
   version="1.1"
   id="图层_1"
   x="0px"
   y="0px"
   viewBox="0 0 16 16"
   style="enable-background:new 0 0 16 16;"
   xml:space="preserve"
   inkscape:version="0.48.5 r10040"
   width="100%"
   height="100%"
   sodipodi:docname="input-tablet-symbolic.svg"><metadata
     id="metadata13"><rdf:RDF><cc:Work
         rdf:about=""><dc:format>image/svg+xml</dc:format><dc:type
           rdf:resource="http://purl.org/dc/dcmitype/StillImage" /></cc:Work></rdf:RDF></metadata><defs
     id="defs11" /><sodipodi:namedview
     pagecolor="#ffffff"
     bordercolor="#666666"
     borderopacity="1"
     objecttolerance="10"
     gridtolerance="10"
     guidetolerance="10"
     inkscape:pageopacity="0"
     inkscape:pageshadow="2"
     inkscape:window-width="1301"
     inkscape:window-height="744"
     id="namedview9"
     showgrid="false"
     inkscape:zoom="16.125"
     inkscape:cx="-2.2325581"
     inkscape:cy="8"
     inkscape:window-x="65"
     inkscape:window-y="24"
     inkscape:window-maximized="1"
     inkscape:current-layer="图层_1" /><g
     id="g3"
     style="fill:#4d4d4d;fill-opacity:1"><path
       style="fill:#4d4d4d;fill-opacity:1"
       d="M13.505,3h-8.5h-1h-1.5c-0.827,0-1.5,0.673-1.5,1.5V8v1v3.5c0,0.827,0.673,1.5,1.5,1.5h1.5h1h8.5   c0.827,0,1.5-0.673,1.5-1.5v-8C15.005,3.673,14.333,3,13.505,3z M2.005,4.5c0-0.275,0.225-0.5,0.5-0.5h1.5v4h-2V4.5z M2.505,13   c-0.275,0-0.5-0.225-0.5-0.5V9h2v4H2.505z M14.005,12.5c0,0.275-0.225,0.5-0.5,0.5h-8.5V9V8V4h8.5c0.275,0,0.5,0.225,0.5,0.5V12.5z   "
       id="path5" /><polygon
       style="fill:#4d4d4d;fill-opacity:1"
       points="6.005,6 6.005,12 12.005,12 13.005,12 13.005,5 6.005,5  "
       id="polygon7" /></g></svg>