<?xml version="1.0" encoding="UTF-8" standalone="no"?>
<!-- Created with Inkscape (http://www.inkscape.org/) -->

<svg
   xmlns:dc="http://purl.org/dc/elements/1.1/"
   xmlns:cc="http://creativecommons.org/ns#"
   xmlns:rdf="http://www.w3.org/1999/02/22-rdf-syntax-ns#"
   xmlns:svg="http://www.w3.org/2000/svg"
   xmlns="http://www.w3.org/2000/svg"
   xmlns:sodipodi="http://sodipodi.sourceforge.net/DTD/sodipodi-0.dtd"
   xmlns:inkscape="http://www.inkscape.org/namespaces/inkscape"
   width="16"
   height="16"
   id="svg3869"
   version="1.1"
   inkscape:version="0.91 r13725"
   sodipodi:docname="media-optical-audio.svg">
  <defs
     id="defs3871" />
  <sodipodi:namedview
     id="base"
     pagecolor="#ffffff"
     bordercolor="#666666"
     borderopacity="1.0"
     inkscape:pageopacity="0.0"
     inkscape:pageshadow="2"
     inkscape:zoom="11.313708"
     inkscape:cx="-15.493946"
     inkscape:cy="9.6747909"
     inkscape:document-units="px"
     inkscape:current-layer="layer1"
     showgrid="true"
     fit-margin-top="0"
     fit-margin-left="0"
     fit-margin-right="0"
     fit-margin-bottom="0"
     inkscape:window-width="1366"
     inkscape:window-height="633"
     inkscape:window-x="0"
     inkscape:window-y="33"
     inkscape:window-maximized="1"
     inkscape:showpageshadow="false"
     inkscape:snap-bbox="true"
     inkscape:object-nodes="true">
    <inkscape:grid
       type="xygrid"
       id="grid4132" />
    <sodipodi:guide
       position="4,18"
       orientation="18,0"
       id="guide4138" />
    <sodipodi:guide
       position="5,3"
       orientation="0,18"
       id="guide4140" />
    <sodipodi:guide
       position="20,2.0000174"
       orientation="-18,0"
       id="guide4142" />
    <sodipodi:guide
       position="2,21"
       orientation="0,-18"
       id="guide4144" />
    <sodipodi:guide
       position="3,19.000017"
       orientation="16,0"
       id="guide4146" />
    <sodipodi:guide
       position="2,4"
       orientation="0,16"
       id="guide4148" />
    <sodipodi:guide
       position="21,20"
       orientation="-16,0"
       id="guide4150" />
    <sodipodi:guide
       position="2,20"
       orientation="0,-16"
       id="guide4152" />
  </sodipodi:namedview>
  <metadata
     id="metadata3874">
    <rdf:RDF>
      <cc:Work
         rdf:about="">
        <dc:format>image/svg+xml</dc:format>
        <dc:type
           rdf:resource="http://purl.org/dc/dcmitype/StillImage" />
        <dc:title />
      </cc:Work>
    </rdf:RDF>
  </metadata>
  <g
     inkscape:label="Capa 1"
     inkscape:groupmode="layer"
     id="layer1"
     transform="translate(-326,-540.3622)">
    <g
       id="g4158"
       transform="translate(-1,1)"
       style="fill:#ffffff;fill-opacity:1">
      <g
         inkscape:label="Capa 1"
         id="layer1-1"
         transform="translate(327,-497)"
         style="fill:#ffffff;fill-opacity:1">
        <g
           id="layer1-0"
           inkscape:label="Capa 1"
           style="fill:#ffffff;fill-opacity:1">
          <path
             style="opacity:1;fill:#ffffff;fill-opacity:1;stroke:none"
             d="m 8,1038.3622 c -3.324,0 -6,2.676 -6,6 0,3.324 2.676,6 6,6 3.324,0 6,-2.676 6,-6 0,-3.324 -2.676,-6 -6,-6 z m 3.259277,4.125 c 0.0371,0 0.07715,0 0.118653,0.01 l 0.0015,0 c 0.563002,0.048 0.961426,0.2388 1.183594,0.5684 0.246941,0.3664 0.212516,0.8134 0.169922,1.0473 -0.0038,0.021 -0.02135,0.037 -0.04248,0.041 -0.02121,0 -0.04187,0 -0.05273,-0.024 -0.04421,-0.075 -0.118532,-0.1901 -0.225587,-0.3047 -0.259711,-0.2779 -0.583337,-0.4248 -0.93457,-0.4248 -0.02922,0 -0.05945,10e-4 -0.08935,0 l 0,2.0771 c 0,0.385 -0.288637,0.7012 -0.687013,0.7515 -0.03613,0 -0.07231,0.01 -0.108398,0.01 -0.38432,0 -0.707967,-0.2603 -0.751464,-0.605 -0.02344,-0.1857 0.0349,-0.3703 0.164062,-0.52 0.129147,-0.1497 0.313948,-0.2465 0.52002,-0.2725 0.118255,-0.015 0.238464,0 0.350097,0.029 l 0,-2.1181 c 0,-0.1217 0.09995,-0.2637 0.383789,-0.2637 z M 8,1043.6122 c 0.4154993,0 0.75,0.3345 0.75,0.75 0,0.4155 -0.3345007,0.75 -0.75,0.75 -0.4154992,0 -0.75,-0.3345 -0.75,-0.75 0,-0.4155 0.3345008,-0.75 0.75,-0.75 z"
             id="rect4119"
             inkscape:connector-curvature="0" />
        </g>
      </g>
      <g
         style="fill:#ffffff;fill-opacity:1"
         transform="matrix(0.01368809,0,0,0.01368809,339.89972,541.8622)"
         id="g3" />
    </g>
  </g>
</svg>
