<?xml version="1.0" encoding="UTF-8" standalone="no"?>
<svg
   xmlns:dc="http://purl.org/dc/elements/1.1/"
   xmlns:cc="http://creativecommons.org/ns#"
   xmlns:rdf="http://www.w3.org/1999/02/22-rdf-syntax-ns#"
   xmlns:svg="http://www.w3.org/2000/svg"
   xmlns="http://www.w3.org/2000/svg"
   xmlns:sodipodi="http://sodipodi.sourceforge.net/DTD/sodipodi-0.dtd"
   xmlns:inkscape="http://www.inkscape.org/namespaces/inkscape"
   viewBox="0 0 22 22"
   version="1.1"
   id="svg4"
   sodipodi:docname="folder-open-recent.svg"
   inkscape:version="1.0.2 (e86c870879, 2021-01-15)">
  <metadata
     id="metadata10">
    <rdf:RDF>
      <cc:Work
         rdf:about="">
        <dc:format>image/svg+xml</dc:format>
        <dc:type
           rdf:resource="http://purl.org/dc/dcmitype/StillImage" />
        <dc:title></dc:title>
      </cc:Work>
    </rdf:RDF>
  </metadata>
  <defs
     id="defs8" />
  <sodipodi:namedview
     pagecolor="#ffffff"
     bordercolor="#666666"
     borderopacity="1"
     objecttolerance="10"
     gridtolerance="10"
     guidetolerance="10"
     inkscape:pageopacity="0"
     inkscape:pageshadow="2"
     inkscape:window-width="1501"
     inkscape:window-height="1046"
     id="namedview6"
     showgrid="false"
     inkscape:zoom="11.49"
     inkscape:cx="11"
     inkscape:cy="12.255627"
     inkscape:window-x="537"
     inkscape:window-y="55"
     inkscape:window-maximized="0"
     inkscape:current-layer="svg4" />
  <path
     d="m43.887-36.699c-1.108 0-2 .892-2 2v81.61l111 .24v-70.04c0-1.108-.892-2-2-2h-60.17c-2.039.18-2.301-.09-3.308-1.435-1.429-1.912-3.586-7.06-4.992-8.929-1.129-1.633-1.312-1.443-3.184-1.443z"
     color="#ffffff"
     transform="matrix(.19082 0 0 .19082-7.58 10.02)"
     fill="#566060"
     id="path2" />
  <path
     style="fill:#000000;stroke:#ffffff;stroke-width:1.43023px;stroke-linecap:butt;stroke-linejoin:miter;stroke-opacity:1"
     d="m 10.677591,6.9444754 c -6.11e-4,8.5032036 -0.0505,8.2214456 0,0 z"
     id="path877" />
  <path
     style="fill:none;stroke:#ffffff;stroke-width:1.24772px;stroke-linecap:butt;stroke-linejoin:miter;stroke-opacity:1"
     d="m 10.873904,13.747954 c 4.602618,2.510296 4.792149,1.104778 0,0 z"
     id="path901" />
</svg>
