<?xml version="1.0" encoding="UTF-8" standalone="no"?>
<svg
   xmlns:dc="http://purl.org/dc/elements/1.1/"
   xmlns:cc="http://creativecommons.org/ns#"
   xmlns:rdf="http://www.w3.org/1999/02/22-rdf-syntax-ns#"
   xmlns:svg="http://www.w3.org/2000/svg"
   xmlns="http://www.w3.org/2000/svg"
   xmlns:sodipodi="http://sodipodi.sourceforge.net/DTD/sodipodi-0.dtd"
   xmlns:inkscape="http://www.inkscape.org/namespaces/inkscape"
   viewBox="0 0 22 22"
   id="svg2"
   version="1.1"
   inkscape:version="0.91 r13725"
   sodipodi:docname="view-list-details (1).svg">
  <metadata
     id="metadata10">
    <rdf:RDF>
      <cc:Work
         rdf:about="">
        <dc:format>image/svg+xml</dc:format>
        <dc:type
           rdf:resource="http://purl.org/dc/dcmitype/StillImage" />
      </cc:Work>
    </rdf:RDF>
  </metadata>
  <sodipodi:namedview
     pagecolor="#ffffff"
     bordercolor="#666666"
     borderopacity="1"
     objecttolerance="10"
     gridtolerance="10"
     guidetolerance="10"
     inkscape:pageopacity="0"
     inkscape:pageshadow="2"
     inkscape:window-width="1920"
     inkscape:window-height="1048"
     id="namedview8"
     showgrid="false"
     inkscape:zoom="30.018595"
     inkscape:cx="10.944327"
     inkscape:cy="12.736157"
     inkscape:window-x="0"
     inkscape:window-y="0"
     inkscape:window-maximized="1"
     inkscape:current-layer="svg2" />
  <defs
     id="defs3051">
    <inkscape:path-effect
       effect="spiro"
       id="path-effect4154"
       is_visible="true" />
    <style
       type="text/css"
       id="current-color-scheme">
      .ColorScheme-Text {
        color:#4d4d4d;
      }
      </style>
    <inkscape:path-effect
       is_visible="true"
       id="path-effect4201"
       effect="spiro" />
    <inkscape:path-effect
       effect="spiro"
       id="path-effect4191"
       is_visible="true" />
    <inkscape:path-effect
       is_visible="true"
       id="path-effect4187"
       effect="spiro" />
    <inkscape:path-effect
       effect="spiro"
       id="path-effect4177"
       is_visible="true" />
    <inkscape:path-effect
       is_visible="true"
       id="path-effect4173"
       effect="spiro" />
    <inkscape:path-effect
       effect="spiro"
       id="path-effect4169"
       is_visible="true" />
  </defs>
  <path
     style="color:#4d4d4d;opacity:1;fill:#000000;fill-opacity:1;stroke:none;stroke-width:1;stroke-linecap:butt;stroke-linejoin:round;stroke-miterlimit:4;stroke-dasharray:none;stroke-dashoffset:0;stroke-opacity:1"
     d="m -69.338576,3.6699219 a 1.5058446,1.5058446 0 0 0 -1.058594,0.5039062 1.5058446,1.5058446 0 0 0 0.02344,2.0273438 1.5058446,1.5058446 0 0 0 2.019531,0.1660156 1.5058446,1.5058446 0 0 0 0.355469,-1.9960937 l -0.382813,-0.4101563 a 1.5058446,1.5058446 0 0 0 -0.957031,-0.2910156 z m 6.06836,0 a 1.5058446,1.5058446 0 0 0 -1.058594,0.5039062 1.5058446,1.5058446 0 0 0 0.02344,2.0273438 1.5058446,1.5058446 0 0 0 2.019532,0.1660156 1.5058446,1.5058446 0 0 0 0.355469,-1.9960937 l -0.382813,-0.4101563 a 1.5058446,1.5058446 0 0 0 -0.957031,-0.2910156 z m 5.933594,0 a 1.5058446,1.5058446 0 0 0 -1.058594,0.5039062 1.5058446,1.5058446 0 0 0 0.02148,2.0273438 1.5058446,1.5058446 0 0 0 2.021485,0.1660156 1.5058446,1.5058446 0 0 0 0.355469,-1.9960937 l -0.382809,-0.4101563 a 1.5058446,1.5058446 0 0 0 -0.957031,-0.2910156 z m -12.001954,6.0390625 a 1.5058446,1.5058446 0 0 0 -1.058594,0.5039066 1.5058446,1.5058446 0 0 0 0.02344,2.027343 1.5058446,1.5058446 0 0 0 2.019532,0.166016 1.5058446,1.5058446 0 0 0 0.355468,-1.996094 L -68.381545,10 a 1.5058446,1.5058446 0 0 0 -0.957031,-0.2910156 z m 6.06836,0 a 1.5058446,1.5058446 0 0 0 -1.058594,0.5039066 1.5058446,1.5058446 0 0 0 0.02344,2.027343 1.5058446,1.5058446 0 0 0 2.019531,0.166016 1.5058446,1.5058446 0 0 0 0.355469,-1.996094 L -62.313185,10 a 1.5058446,1.5058446 0 0 0 -0.957031,-0.2910156 z m 5.933594,0 a 1.5058446,1.5058446 0 0 0 -1.058594,0.5039066 1.5058446,1.5058446 0 0 0 0.02148,2.027343 1.5058446,1.5058446 0 0 0 2.021485,0.166016 1.5058446,1.5058446 0 0 0 0.355469,-1.996094 L -56.379591,10 A 1.5058446,1.5058446 0 0 0 -57.336622,9.7089844 Z M -69.338576,15.8125 a 1.5058446,1.5058446 0 0 0 -1.058594,0.503906 1.5058446,1.5058446 0 0 0 0.02344,2.027344 1.5058446,1.5058446 0 0 0 2.019532,0.166016 1.5058446,1.5058446 0 0 0 0.355468,-1.996094 l -0.382812,-0.410156 A 1.5058446,1.5058446 0 0 0 -69.338576,15.8125 Z m 6.06836,0 a 1.5058446,1.5058446 0 0 0 -1.058594,0.503906 1.5058446,1.5058446 0 0 0 0.02344,2.027344 1.5058446,1.5058446 0 0 0 2.019531,0.166016 1.5058446,1.5058446 0 0 0 0.355469,-1.996094 l -0.382813,-0.410156 A 1.5058446,1.5058446 0 0 0 -63.270216,15.8125 Z m 5.933594,0 a 1.5058446,1.5058446 0 0 0 -1.058594,0.503906 1.5058446,1.5058446 0 0 0 0.02148,2.027344 1.5058446,1.5058446 0 0 0 2.021485,0.166016 1.5058446,1.5058446 0 0 0 0.355469,-1.996094 l -0.382809,-0.410156 A 1.5058446,1.5058446 0 0 0 -57.336622,15.8125 Z"
     id="path4143"
     class="ColorScheme-Text"
     inkscape:connector-curvature="0" />
  <path
     style="color:#4d4d4d;opacity:1;fill:currentColor;fill-opacity:1;stroke:none"
     d="m -31.2091,3.6699219 a 1.5058446,1.5058446 0 0 0 -1.058593,0.5039062 1.5058446,1.5058446 0 0 0 0.02148,2.0273438 1.5058446,1.5058446 0 0 0 2.021484,0.1660156 1.5058446,1.5058446 0 0 0 0.353516,-1.9960937 L -30.252068,3.9609375 A 1.5058446,1.5058446 0 0 0 -31.2091,3.6699219 Z m 4.623047,1.140625 a 0.29774722,0.29774722 0 0 0 0.03125,0.59375 l 11.097657,0 a 0.29774722,0.29774722 0 1 0 0,-0.59375 l -11.097657,0 a 0.29774722,0.29774722 0 0 0 -0.03125,0 z M -31.2091,9.7089844 a 1.5058446,1.5058446 0 0 0 -1.058593,0.5039066 1.5058446,1.5058446 0 0 0 0.02148,2.027343 1.5058446,1.5058446 0 0 0 2.021484,0.166016 1.5058446,1.5058446 0 0 0 0.353516,-1.996094 L -30.252068,10 A 1.5058446,1.5058446 0 0 0 -31.2091,9.7089844 Z m 4.654297,1.2343746 a 0.2978515,0.2978515 0 1 0 0,0.595703 l 11.097657,0 a 0.2978515,0.2978515 0 0 0 0,-0.595703 l -11.097657,0 z M -31.2091,15.8125 a 1.5058446,1.5058446 0 0 0 -1.058593,0.503906 1.5058446,1.5058446 0 0 0 0.02148,2.027344 1.5058446,1.5058446 0 0 0 2.021484,0.166016 1.5058446,1.5058446 0 0 0 0.353516,-1.996094 l -0.380859,-0.410156 A 1.5058446,1.5058446 0 0 0 -31.2091,15.8125 Z m 4.623047,1.298828 a 0.29774722,0.29774722 0 0 0 0.03125,0.59375 l 11.097657,0 a 0.29774722,0.29774722 0 1 0 0,-0.59375 l -11.097657,0 a 0.29774722,0.29774722 0 0 0 -0.03125,0 z"
     id="path4161"
     inkscape:connector-curvature="0"
     class="ColorScheme-Text" />
  <path
     style="opacity:1;fill:currentColor;fill-opacity:1;stroke:none"
     d="M 3.2460938,3.6699219 A 1.5058446,1.5058446 0 0 0 2.1855469,4.1738281 1.5058446,1.5058446 0 0 0 2.2089844,6.2011719 1.5058446,1.5058446 0 0 0 4.2304688,6.3671875 1.5058446,1.5058446 0 0 0 4.5839844,4.3710938 L 4.203125,3.9609375 A 1.5058446,1.5058446 0 0 0 3.2460938,3.6699219 Z M 7.8769531,4.890625 a 0.21706287,0.21706287 0 1 0 0.021484,0.4335938 l 11.0996099,0 a 0.21700557,0.21700557 0 1 0 0,-0.4335938 l -11.0996099,0 a 0.21700557,0.21700557 0 0 0 -0.021484,0 z M 9.03125,9.0039062 a 1.5058446,1.5058446 0 0 0 -1.0605469,0.5019532 1.5058446,1.5058446 0 0 0 0.023437,2.0292966 1.5058446,1.5058446 0 0 0 2.0214849,0.166016 1.5058446,1.5058446 0 0 0 0.353516,-1.998047 L 9.9882812,9.2949219 A 1.5058446,1.5058446 0 0 0 9.03125,9.0039062 Z m 3.365234,1.3007818 a 0.23174155,0.23174155 0 0 0 0.02344,0.46289 l 6.697266,0 a 0.231445,0.231445 0 0 0 0,-0.46289 l -6.697266,0 a 0.23129743,0.23129743 0 0 0 -0.02344,0 z M 9.03125,14.759766 a 1.5058446,1.5058446 0 0 0 -1.0605469,0.503906 1.5058446,1.5058446 0 0 0 0.023437,2.027344 1.5058446,1.5058446 0 0 0 2.0214849,0.166015 1.5058446,1.5058446 0 0 0 0.353516,-1.996093 L 9.9882812,15.050781 A 1.5058446,1.5058446 0 0 0 9.03125,14.759766 Z m 3.388672,1.300781 a 0.2314455,0.2314455 0 1 0 0,0.462891 l 6.697266,0 a 0.2314455,0.2314455 0 0 0 0,-0.462891 l -6.697266,0 z"
     id="path4179"
     inkscape:connector-curvature="0"
     class="ColorScheme-Text" />
</svg>
