<?xml version="1.0" encoding="UTF-8" standalone="no"?>
<svg
   xmlns:dc="http://purl.org/dc/elements/1.1/"
   xmlns:cc="http://creativecommons.org/ns#"
   xmlns:rdf="http://www.w3.org/1999/02/22-rdf-syntax-ns#"
   xmlns:svg="http://www.w3.org/2000/svg"
   xmlns="http://www.w3.org/2000/svg"
   xmlns:sodipodi="http://sodipodi.sourceforge.net/DTD/sodipodi-0.dtd"
   xmlns:inkscape="http://www.inkscape.org/namespaces/inkscape"
   viewBox="0 0 22 22"
   id="svg2"
   version="1.1"
   inkscape:version="0.91 r13725"
   sodipodi:docname="view-list-icons (1).svg">
  <metadata
     id="metadata10">
    <rdf:RDF>
      <cc:Work
         rdf:about="">
        <dc:format>image/svg+xml</dc:format>
        <dc:type
           rdf:resource="http://purl.org/dc/dcmitype/StillImage" />
      </cc:Work>
    </rdf:RDF>
  </metadata>
  <sodipodi:namedview
     pagecolor="#ffffff"
     bordercolor="#666666"
     borderopacity="1"
     objecttolerance="10"
     gridtolerance="10"
     guidetolerance="10"
     inkscape:pageopacity="0"
     inkscape:pageshadow="2"
     inkscape:window-width="1920"
     inkscape:window-height="1048"
     id="namedview8"
     showgrid="false"
     inkscape:zoom="24.20466"
     inkscape:cx="28.377136"
     inkscape:cy="9.2354091"
     inkscape:window-x="0"
     inkscape:window-y="0"
     inkscape:window-maximized="1"
     inkscape:current-layer="svg2" />
  <defs
     id="defs3051">
    <inkscape:path-effect
       effect="spiro"
       id="path-effect4154"
       is_visible="true" />
    <style
       type="text/css"
       id="current-color-scheme">
      .ColorScheme-Text {
        color:#4d4d4d;
      }
      </style>
    <inkscape:path-effect
       is_visible="true"
       id="path-effect4201"
       effect="spiro" />
    <inkscape:path-effect
       effect="spiro"
       id="path-effect4191"
       is_visible="true" />
    <inkscape:path-effect
       is_visible="true"
       id="path-effect4187"
       effect="spiro" />
    <inkscape:path-effect
       effect="spiro"
       id="path-effect4177"
       is_visible="true" />
    <inkscape:path-effect
       is_visible="true"
       id="path-effect4173"
       effect="spiro" />
    <inkscape:path-effect
       effect="spiro"
       id="path-effect4169"
       is_visible="true" />
  </defs>
  <path
     style="color:#4d4d4d;opacity:1;fill:#000000;fill-opacity:1;stroke:none;stroke-width:1;stroke-linecap:butt;stroke-linejoin:round;stroke-miterlimit:4;stroke-dasharray:none;stroke-dashoffset:0;stroke-opacity:1"
     d="m -35.041586,3.6699219 a 1.5058446,1.5058446 0 0 0 -1.058594,0.5039062 1.5058446,1.5058446 0 0 0 0.02344,2.0273438 1.5058446,1.5058446 0 0 0 2.019531,0.1660156 1.5058446,1.5058446 0 0 0 0.355469,-1.9960937 l -0.382813,-0.4101563 a 1.5058446,1.5058446 0 0 0 -0.957031,-0.2910156 z m 6.06836,0 a 1.5058446,1.5058446 0 0 0 -1.058594,0.5039062 1.5058446,1.5058446 0 0 0 0.02344,2.0273438 1.5058446,1.5058446 0 0 0 2.019532,0.1660156 1.5058446,1.5058446 0 0 0 0.355469,-1.9960937 l -0.382813,-0.4101563 a 1.5058446,1.5058446 0 0 0 -0.957031,-0.2910156 z m 5.933594,0 a 1.5058446,1.5058446 0 0 0 -1.058594,0.5039062 1.5058446,1.5058446 0 0 0 0.02148,2.0273438 1.5058446,1.5058446 0 0 0 2.021485,0.1660156 1.5058446,1.5058446 0 0 0 0.355469,-1.9960937 l -0.382809,-0.4101563 a 1.5058446,1.5058446 0 0 0 -0.957031,-0.2910156 z m -12.001954,6.0390625 a 1.5058446,1.5058446 0 0 0 -1.058594,0.5039066 1.5058446,1.5058446 0 0 0 0.02344,2.027343 1.5058446,1.5058446 0 0 0 2.019532,0.166016 1.5058446,1.5058446 0 0 0 0.355468,-1.996094 L -34.084555,10 a 1.5058446,1.5058446 0 0 0 -0.957031,-0.2910156 z m 6.06836,0 a 1.5058446,1.5058446 0 0 0 -1.058594,0.5039066 1.5058446,1.5058446 0 0 0 0.02344,2.027343 1.5058446,1.5058446 0 0 0 2.019531,0.166016 1.5058446,1.5058446 0 0 0 0.355469,-1.996094 L -28.016195,10 a 1.5058446,1.5058446 0 0 0 -0.957031,-0.2910156 z m 5.933594,0 a 1.5058446,1.5058446 0 0 0 -1.058594,0.5039066 1.5058446,1.5058446 0 0 0 0.02148,2.027343 1.5058446,1.5058446 0 0 0 2.021485,0.166016 1.5058446,1.5058446 0 0 0 0.355469,-1.996094 L -22.082601,10 A 1.5058446,1.5058446 0 0 0 -23.039632,9.7089844 Z M -35.041586,15.8125 a 1.5058446,1.5058446 0 0 0 -1.058594,0.503906 1.5058446,1.5058446 0 0 0 0.02344,2.027344 1.5058446,1.5058446 0 0 0 2.019532,0.166016 1.5058446,1.5058446 0 0 0 0.355468,-1.996094 l -0.382812,-0.410156 A 1.5058446,1.5058446 0 0 0 -35.041586,15.8125 Z m 6.06836,0 a 1.5058446,1.5058446 0 0 0 -1.058594,0.503906 1.5058446,1.5058446 0 0 0 0.02344,2.027344 1.5058446,1.5058446 0 0 0 2.019531,0.166016 1.5058446,1.5058446 0 0 0 0.355469,-1.996094 l -0.382813,-0.410156 A 1.5058446,1.5058446 0 0 0 -28.973226,15.8125 Z m 5.933594,0 a 1.5058446,1.5058446 0 0 0 -1.058594,0.503906 1.5058446,1.5058446 0 0 0 0.02148,2.027344 1.5058446,1.5058446 0 0 0 2.021485,0.166016 1.5058446,1.5058446 0 0 0 0.355469,-1.996094 l -0.382809,-0.410156 A 1.5058446,1.5058446 0 0 0 -23.039632,15.8125 Z"
     id="path4143"
     class="ColorScheme-Text"
     inkscape:connector-curvature="0" />
  <path
     style="opacity:1;fill:currentColor;fill-opacity:1;stroke:none"
     d="M 3.0878906,3.6699219 A 1.5058446,1.5058446 0 0 0 2.0292969,4.1738281 1.5058446,1.5058446 0 0 0 2.0507812,6.2011719 1.5058446,1.5058446 0 0 0 4.0722656,6.3671875 1.5058446,1.5058446 0 0 0 4.4257812,4.3710938 L 4.0449219,3.9609375 A 1.5058446,1.5058446 0 0 0 3.0878906,3.6699219 Z m 4.6230469,1.140625 a 0.29774722,0.29774722 0 0 0 0.03125,0.59375 l 11.0976565,0 a 0.29774722,0.29774722 0 1 0 0,-0.59375 l -11.0976565,0 a 0.29774722,0.29774722 0 0 0 -0.03125,0 z M 3.0878906,9.7089844 a 1.5058446,1.5058446 0 0 0 -1.0585937,0.5039066 1.5058446,1.5058446 0 0 0 0.021484,2.027343 1.5058446,1.5058446 0 0 0 2.0214844,0.166016 1.5058446,1.5058446 0 0 0 0.3535156,-1.996094 L 4.0449219,10 A 1.5058446,1.5058446 0 0 0 3.0878906,9.7089844 Z m 4.6542969,1.2343746 a 0.2978515,0.2978515 0 0 0 0,0.595703 l 11.0976565,0 a 0.2978515,0.2978515 0 0 0 0,-0.595703 l -11.0976565,0 z M 3.0878906,15.8125 a 1.5058446,1.5058446 0 0 0 -1.0585937,0.503906 1.5058446,1.5058446 0 0 0 0.021484,2.027344 1.5058446,1.5058446 0 0 0 2.0214844,0.166016 1.5058446,1.5058446 0 0 0 0.3535156,-1.996094 L 4.0449219,16.103516 A 1.5058446,1.5058446 0 0 0 3.0878906,15.8125 Z m 4.6230469,1.298828 a 0.29774722,0.29774722 0 0 0 0.03125,0.59375 l 11.0976565,0 a 0.29774722,0.29774722 0 1 0 0,-0.59375 l -11.0976565,0 a 0.29774722,0.29774722 0 0 0 -0.03125,0 z"
     id="path4161"
     inkscape:connector-curvature="0"
     class="ColorScheme-Text" />
  <path
     style="opacity:1;fill:#000000;fill-opacity:1;stroke:none;stroke-width:1;stroke-linecap:butt;stroke-linejoin:round;stroke-miterlimit:4;stroke-dasharray:none;stroke-dashoffset:0;stroke-opacity:1"
     id="path4179"
     sodipodi:type="arc"
     sodipodi:cx="37.607983"
     sodipodi:cy="5.1748891"
     sodipodi:rx="1.5058446"
     sodipodi:ry="1.5058446"
     sodipodi:start="5.7200897"
     sodipodi:end="5.3463275"
     sodipodi:open="true"
     d="m 38.881335,4.3710596 a 1.5058446,1.5058446 0 0 1 -0.35422,1.9966259 1.5058446,1.5058446 0 0 1 -2.020966,-0.16638 1.5058446,1.5058446 0 0 1 -0.02291,-2.027674 1.5058446,1.5058446 0 0 1 2.01669,-0.2120027" />
  <path
     d="m 44.666194,9.421272 a 1.5058446,1.5058446 0 0 1 -0.35422,1.996626 1.5058446,1.5058446 0 0 1 -2.020966,-0.16638 1.5058446,1.5058446 0 0 1 -0.02291,-2.0276741 1.5058446,1.5058446 0 0 1 2.016691,-0.2120028"
     sodipodi:open="true"
     sodipodi:end="5.3463275"
     sodipodi:start="5.7200897"
     sodipodi:ry="1.5058446"
     sodipodi:rx="1.5058446"
     sodipodi:cy="10.225101"
     sodipodi:cx="43.392841"
     sodipodi:type="arc"
     id="path4181"
     style="opacity:1;fill:#000000;fill-opacity:1;stroke:none;stroke-width:1;stroke-linecap:butt;stroke-linejoin:round;stroke-miterlimit:4;stroke-dasharray:none;stroke-dashoffset:0;stroke-opacity:1" />
  <path
     inkscape:connector-curvature="0"
     inkscape:original-d="m 42.196162,5.1074633 11.09869,0"
     inkscape:path-effect="#path-effect4187"
     id="path4185"
     d="m 42.196162,5.1074633 11.09869,0"
     style="fill:none;fill-rule:evenodd;stroke:#000000;stroke-width:0.43396774;stroke-linecap:round;stroke-linejoin:miter;stroke-miterlimit:4;stroke-dasharray:none;stroke-opacity:1" />
  <path
     style="fill:none;fill-rule:evenodd;stroke:#000000;stroke-width:0.46254861;stroke-linecap:round;stroke-linejoin:miter;stroke-miterlimit:4;stroke-dasharray:none;stroke-opacity:1"
     d="m 46.717012,10.25303 6.69758,0"
     id="path4189"
     inkscape:path-effect="#path-effect4191"
     inkscape:original-d="m 46.717012,10.25303 6.69758,0"
     inkscape:connector-curvature="0" />
  <path
     style="opacity:1;fill:#000000;fill-opacity:1;stroke:none;stroke-width:1;stroke-linecap:butt;stroke-linejoin:round;stroke-miterlimit:4;stroke-dasharray:none;stroke-dashoffset:0;stroke-opacity:1"
     id="path4197"
     sodipodi:type="arc"
     sodipodi:cx="43.392841"
     sodipodi:cy="15.981743"
     sodipodi:rx="1.5058446"
     sodipodi:ry="1.5058446"
     sodipodi:start="5.7200897"
     sodipodi:end="5.3463275"
     sodipodi:open="true"
     d="m 44.666194,15.177913 a 1.5058446,1.5058446 0 0 1 -0.35422,1.996626 1.5058446,1.5058446 0 0 1 -2.020966,-0.16638 1.5058446,1.5058446 0 0 1 -0.02291,-2.027674 1.5058446,1.5058446 0 0 1 2.016691,-0.212002" />
  <path
     inkscape:connector-curvature="0"
     inkscape:original-d="m 46.717012,16.009672 6.69758,0"
     inkscape:path-effect="#path-effect4201"
     id="path4199"
     d="m 46.717012,16.009672 6.69758,0"
     style="fill:none;fill-rule:evenodd;stroke:#000000;stroke-width:0.46254861;stroke-linecap:round;stroke-linejoin:miter;stroke-miterlimit:4;stroke-dasharray:none;stroke-opacity:1" />
</svg>
