<?xml version="1.0" encoding="UTF-8" standalone="no"?>
<svg
   xmlns:dc="http://purl.org/dc/elements/1.1/"
   xmlns:cc="http://creativecommons.org/ns#"
   xmlns:rdf="http://www.w3.org/1999/02/22-rdf-syntax-ns#"
   xmlns:svg="http://www.w3.org/2000/svg"
   xmlns="http://www.w3.org/2000/svg"
   xmlns:sodipodi="http://sodipodi.sourceforge.net/DTD/sodipodi-0.dtd"
   xmlns:inkscape="http://www.inkscape.org/namespaces/inkscape"
   viewBox="0 0 22 22"
   id="svg2"
   version="1.1"
   inkscape:version="0.91 r13725"
   sodipodi:docname="graphics.svg">
  <metadata
     id="metadata10">
    <rdf:RDF>
      <cc:Work
         rdf:about="">
        <dc:format>image/svg+xml</dc:format>
        <dc:type
           rdf:resource="http://purl.org/dc/dcmitype/StillImage" />
      </cc:Work>
    </rdf:RDF>
  </metadata>
  <sodipodi:namedview
     pagecolor="#ffffff"
     bordercolor="#666666"
     borderopacity="1"
     objecttolerance="10"
     gridtolerance="10"
     guidetolerance="10"
     inkscape:pageopacity="0"
     inkscape:pageshadow="2"
     inkscape:window-width="1920"
     inkscape:window-height="1048"
     id="namedview8"
     showgrid="false"
     inkscape:zoom="5.3065876"
     inkscape:cx="-39.766184"
     inkscape:cy="4.519758"
     inkscape:window-x="0"
     inkscape:window-y="0"
     inkscape:window-maximized="1"
     inkscape:current-layer="g4193" />
  <defs
     id="defs3051">
    <inkscape:path-effect
       effect="spiro"
       id="path-effect4186"
       is_visible="true" />
    <inkscape:path-effect
       is_visible="true"
       id="path-effect4182"
       effect="spiro" />
    <inkscape:path-effect
       is_visible="true"
       id="path-effect4178"
       effect="spiro" />
    <inkscape:path-effect
       is_visible="true"
       id="path-effect4174"
       effect="spiro" />
    <inkscape:path-effect
       is_visible="true"
       id="path-effect4164"
       effect="spiro" />
    <inkscape:path-effect
       effect="spiro"
       id="path-effect4157"
       is_visible="true" />
    <inkscape:path-effect
       is_visible="true"
       id="path-effect4143"
       effect="spiro" />
    <inkscape:path-effect
       effect="spiro"
       id="path-effect4154"
       is_visible="true" />
    <style
       type="text/css"
       id="current-color-scheme">
      .ColorScheme-Text {
        color:#4d4d4d;
      }
      </style>
    <inkscape:path-effect
       effect="spiro"
       id="path-effect4154-3"
       is_visible="true" />
    <inkscape:path-effect
       effect="spiro"
       id="path-effect4748"
       is_visible="true" />
    <inkscape:path-effect
       effect="spiro"
       id="path-effect4752"
       is_visible="true" />
    <inkscape:path-effect
       effect="spiro"
       id="path-effect4756"
       is_visible="true" />
    <style
       id="current-color-scheme-6"
       type="text/css">
      .ColorScheme-Text {
        color:#4d4d4d;
      }
      </style>
  </defs>
  <g
     id="g4156"
     transform="matrix(1.0781972,0,0,1.0781972,-8.0732255,-37.3698)">
    <g
       id="g4193"
       transform="translate(-23.450616,-65.141629)">
      <path
         sodipodi:nodetypes="csc"
         inkscape:connector-curvature="0"
         id="path4184"
         d="m 48.156785,128.12364 c 6.642652,-4.98567 12.585003,-3.02754 17.285851,0.40127 0.08699,0.0635 -1.514042,1.57438 -2.031161,2.28762"
         style="fill:none;fill-rule:evenodd;stroke:#4d4d4d;stroke-width:0.92747414;stroke-linecap:butt;stroke-linejoin:miter;stroke-miterlimit:4;stroke-dasharray:none;stroke-opacity:1" />
      <path
         d="m 59.469469,128.77471 a 3.3513787,3.3513787 0 0 1 -0.788331,4.44366 3.3513787,3.3513787 0 0 1 -4.49783,-0.37029 3.3513787,3.3513787 0 0 1 -0.05098,-4.51276 3.3513787,3.3513787 0 0 1 4.488315,-0.47181"
         sodipodi:open="true"
         sodipodi:end="5.3463325"
         sodipodi:start="5.7200853"
         sodipodi:ry="3.3513787"
         sodipodi:rx="3.3513787"
         sodipodi:cy="130.56371"
         sodipodi:cx="56.635529"
         sodipodi:type="arc"
         id="path4189"
         style="opacity:1;fill:none;fill-opacity:1;stroke:#4d4d4d;stroke-width:0.92747414;stroke-linecap:butt;stroke-linejoin:round;stroke-miterlimit:4;stroke-dasharray:none;stroke-dashoffset:0;stroke-opacity:1" />
      <path
         style="opacity:1;fill:currentColor;fill-opacity:1;stroke:none"
         d="m 40.686651,105.92393 c -2.771806,0.13965 -5.660186,1.79956 -8.171555,5.47789 l 0.766253,0.52171 c 2.743357,-4.01812 5.73763,-5.334 8.488562,-5.04677 2.750932,0.28724 5.339949,2.23949 7.122711,5.0359 l 0.782557,-0.49816 c -1.896011,-2.97404 -4.690545,-5.13415 -7.80926,-5.45978 -0.38984,-0.0407 -0.783296,-0.0507 -1.179268,-0.0308 z m 0.360483,1.21369 c -2.02466,0 -3.673668,1.649 -3.673668,3.67366 0,2.02466 1.649008,3.67548 3.673668,3.67548 2.024659,0 3.675478,-1.65082 3.675478,-3.67548 0,-2.02466 -1.650819,-3.67366 -3.675478,-3.67366 z m 0,0.86588 c 1.555488,0 2.807782,1.25229 2.807782,2.80778 0,1.55549 -1.252294,2.80779 -2.807782,2.80779 -1.555488,0 -2.805972,-1.2523 -2.805972,-2.80779 0,-1.55549 1.250484,-2.80778 2.805972,-2.80778 z"
         id="path3369"
         inkscape:connector-curvature="0"
         class="ColorScheme-Text" />
    </g>
  </g>
</svg>
