<?xml version="1.0" encoding="UTF-8" standalone="no"?>
<svg
   xmlns:dc="http://purl.org/dc/elements/1.1/"
   xmlns:cc="http://creativecommons.org/ns#"
   xmlns:rdf="http://www.w3.org/1999/02/22-rdf-syntax-ns#"
   xmlns:svg="http://www.w3.org/2000/svg"
   xmlns="http://www.w3.org/2000/svg"
   xmlns:sodipodi="http://sodipodi.sourceforge.net/DTD/sodipodi-0.dtd"
   xmlns:inkscape="http://www.inkscape.org/namespaces/inkscape"
   viewBox="0 0 22 22"
   id="svg2"
   version="1.1"
   inkscape:version="0.91 r13725"
   sodipodi:docname="view-right-new.svg">
  <metadata
     id="metadata10">
    <rdf:RDF>
      <cc:Work
         rdf:about="">
        <dc:format>image/svg+xml</dc:format>
        <dc:type
           rdf:resource="http://purl.org/dc/dcmitype/StillImage" />
      </cc:Work>
    </rdf:RDF>
  </metadata>
  <sodipodi:namedview
     pagecolor="#ffffff"
     bordercolor="#666666"
     borderopacity="1"
     objecttolerance="10"
     gridtolerance="10"
     guidetolerance="10"
     inkscape:pageopacity="0"
     inkscape:pageshadow="2"
     inkscape:window-width="1920"
     inkscape:window-height="1055"
     id="namedview8"
     showgrid="false"
     inkscape:zoom="39.033508"
     inkscape:cx="15.481667"
     inkscape:cy="8.6797338"
     inkscape:window-x="0"
     inkscape:window-y="0"
     inkscape:window-maximized="1"
     inkscape:current-layer="g4156" />
  <defs
     id="defs3051">
    <inkscape:path-effect
       effect="spiro"
       id="path-effect4186"
       is_visible="true" />
    <inkscape:path-effect
       is_visible="true"
       id="path-effect4182"
       effect="spiro" />
    <inkscape:path-effect
       is_visible="true"
       id="path-effect4178"
       effect="spiro" />
    <inkscape:path-effect
       is_visible="true"
       id="path-effect4174"
       effect="spiro" />
    <inkscape:path-effect
       is_visible="true"
       id="path-effect4164"
       effect="spiro" />
    <inkscape:path-effect
       effect="spiro"
       id="path-effect4157"
       is_visible="true" />
    <inkscape:path-effect
       is_visible="true"
       id="path-effect4143"
       effect="spiro" />
    <inkscape:path-effect
       effect="spiro"
       id="path-effect4154"
       is_visible="true" />
    <style
       type="text/css"
       id="current-color-scheme">
      .ColorScheme-Text {
        color:#4d4d4d;
      }
      </style>
    <inkscape:path-effect
       effect="spiro"
       id="path-effect4154-3"
       is_visible="true" />
    <inkscape:path-effect
       effect="spiro"
       id="path-effect4748"
       is_visible="true" />
    <inkscape:path-effect
       effect="spiro"
       id="path-effect4752"
       is_visible="true" />
    <inkscape:path-effect
       effect="spiro"
       id="path-effect4756"
       is_visible="true" />
  </defs>
  <g
     id="g4156"
     transform="matrix(1.0781972,0,0,1.0781972,-8.0732255,-37.3698)">
    <g
       id="g4159"
       transform="matrix(-1,0,0,1,72.457774,0)" />
    <g
       transform="matrix(0.69883149,0,0,0.69883149,20.930784,33.39091)"
       style="fill:none;fill-opacity:0.93043476;stroke:#4d4d4d;stroke-width:0.89999998;stroke-miterlimit:4;stroke-dasharray:none;stroke-opacity:1"
       id="g4755" />
    <path
       style="opacity:1;fill:currentColor;fill-opacity:1;stroke:none"
       d="m 11.399101,38.219066 0,0.485475 0,0.487286 1.342301,0.0091 c 1.294954,0.0092 1.345167,0.01102 1.434687,0.07789 0.05101,0.0381 0.123111,0.111992 0.161221,0.163032 0.06927,0.09276 0.07051,0.09377 0.07971,5.843812 0.01032,6.460307 0.0295,5.955206 -0.237303,6.131835 l -0.137672,0.09058 -1.320564,0.01087 -1.322375,0.0091 0,0.470982 0,0.470983 1.438309,-0.01087 1.43831,-0.0091 0.255418,-0.126804 c 0.435635,-0.215374 0.746126,-0.618266 0.831466,-1.081449 0.02566,-0.13931 0.03664,-1.915266 0.03623,-5.896345 -6.34e-4,-6.18627 0.0049,-5.94409 -0.186582,-6.32204 -0.18297,-0.361073 -0.604318,-0.678783 -1.016236,-0.766253 -0.114528,-0.02432 -0.645408,-0.03804 -1.487219,-0.03804 l -1.309695,0 z m 9.789199,3.756995 -0.0054,1.550621 -0.0072,1.550621 -1.632137,0.0054 -1.633948,0.0072 0,0.438376 0,0.440188 3.729822,0 3.731634,0 0,-0.440188 0,-0.440187 -1.652063,0 -1.652063,0 0,-1.556056 0,-1.556055 -0.438377,0 -0.440188,0 z m 0.0308,4.467092 -0.01449,0.894868 c -0.0087,0.492209 -0.0163,1.11891 -0.0163,1.391211 l 0,0.494532 0.451057,0 0.451057,0 0,-1.3894 0,-1.391211 -0.434754,0 -0.436565,0 z"
       id="path3372"
       inkscape:connector-curvature="0"
       class="ColorScheme-Text" />
  </g>
</svg>
