<svg xmlns="http://www.w3.org/2000/svg" viewBox="0 0 48 48"><defs><linearGradient gradientUnits="userSpaceOnUse" y2="307.75" x2="-328.21" y1="649.74" x1="-324.94"><stop stop-color="#016ed4"/><stop offset="1" stop-color="#00b1ff"/></linearGradient><linearGradient id="0" y1="546.93" x2="0" y2="516.48" gradientUnits="userSpaceOnUse"><stop stop-color="#2b65bd"/><stop offset="1" stop-color="#64a3dc"/></linearGradient><linearGradient y2="528.8" x2="361.57" y1="513.8" x1="346.57" gradientUnits="userSpaceOnUse"><stop stop-color="#2e5d89"/><stop offset="1" stop-color="#1b92f4"/></linearGradient><linearGradient y1="545.8" x2="0" y2="517.8" gradientUnits="userSpaceOnUse"><stop stop-color="#3889e9"/><stop offset="1" stop-color="#5ea5fb"/></linearGradient></defs><g transform="matrix(1.69565 0 0 1.69565 87.77-1753.37)" fill="#fff" fill-opacity="1"><circle cx="400.57" cy="531.8" r="14" fill="url(#0)" stroke="url(#0)" stroke-width="1.427" transform="matrix(.96196 0 0 .96195-422.94 536.63)"/><path d="m505.99-87.12v3.12h3.12l7.88-7.88-3.12-3.12zm13.76-7.51c.33-.33.33-.85 0-1.18l-1.95-1.95c-.33-.33-.85-.33-1.18 0l-1.63 1.64 3.12 3.12z" fill="#fff" transform="matrix(1.05438 0 0 1.05438-578.5 1144.14)" enable-background="new"/></g></svg>