<?xml version="1.0" encoding="UTF-8" standalone="no"?>
<svg
   xmlns:dc="http://purl.org/dc/elements/1.1/"
   xmlns:cc="http://creativecommons.org/ns#"
   xmlns:rdf="http://www.w3.org/1999/02/22-rdf-syntax-ns#"
   xmlns:svg="http://www.w3.org/2000/svg"
   xmlns="http://www.w3.org/2000/svg"
   xmlns:sodipodi="http://sodipodi.sourceforge.net/DTD/sodipodi-0.dtd"
   xmlns:inkscape="http://www.inkscape.org/namespaces/inkscape"
   viewBox="0 0 16 16"
   id="svg2"
   version="1.1"
   inkscape:version="0.91 r13725"
   sodipodi:docname="drive-harddisk.svg">
  <metadata
     id="metadata14">
    <rdf:RDF>
      <cc:Work
         rdf:about="">
        <dc:format>image/svg+xml</dc:format>
        <dc:type
           rdf:resource="http://purl.org/dc/dcmitype/StillImage" />
      </cc:Work>
    </rdf:RDF>
  </metadata>
  <defs
     id="defs12" />
  <sodipodi:namedview
     pagecolor="#ffffff"
     bordercolor="#666666"
     borderopacity="1"
     objecttolerance="10"
     gridtolerance="10"
     guidetolerance="10"
     inkscape:pageopacity="0"
     inkscape:pageshadow="2"
     inkscape:window-width="1366"
     inkscape:window-height="684"
     id="namedview10"
     showgrid="false"
     inkscape:zoom="14.75"
     inkscape:cx="-12.771124"
     inkscape:cy="8"
     inkscape:window-x="0"
     inkscape:window-y="0"
     inkscape:window-maximized="1"
     inkscape:current-layer="svg2" />
  <g
     fill="#fff"
     id="g4">
    <path
       d="m31.8 27l-.5 5h-26.5l-.5-5h6.4 14.8 6.3m2.2-2h-10-22l.497 7.2c.1 1 .698 1.8 1.698 1.8h27.711c1 0 1.598-.8 1.698-1.8z"
       transform="matrix(.37943 0 0 .31178 1.17 3.459)"
       id="path6"
       style="fill:#566060;fill-opacity:1" />
    <path
       d="m3.738 1.947c-.403 0-.645.282-.686.686l-1.088 8.59.082.404h3.145 5.648 2.982l.242-.404-1.09-8.59c-.081-.403-.278-.686-.682-.686m-2.81 1.737c.54.047.82.39.217.793-1.378.921-2.224 1.365-3.043 2.613.133-.092.29-.175.473-.232 1.52-.479 3.52 1.084 4.514 2.033-1.863-1.078-2.832-.939-4.807-.975-.234-.004-.385-.054-.471-.129.096.562.29 1.155.652 1.891-.881-1.054-2.307-3.152-1.725-4.633.325-.828 1.126-1.184 1.078-.219-.053 1.058-.132 1.825-.051 2.605.383-1.365 1.173-3.313 2.559-3.689.215-.058.423-.074.604-.059"
       transform="matrix(.99999 0 0 .99999 0 .007)"
       id="path8"
       style="fill:#566060;fill-opacity:1" />
  </g>
</svg>
