<?xml version="1.0" encoding="UTF-8" standalone="no"?>
<svg
   xmlns:dc="http://purl.org/dc/elements/1.1/"
   xmlns:cc="http://creativecommons.org/ns#"
   xmlns:rdf="http://www.w3.org/1999/02/22-rdf-syntax-ns#"
   xmlns:svg="http://www.w3.org/2000/svg"
   xmlns="http://www.w3.org/2000/svg"
   xmlns:sodipodi="http://sodipodi.sourceforge.net/DTD/sodipodi-0.dtd"
   xmlns:inkscape="http://www.inkscape.org/namespaces/inkscape"
   viewBox="0 0 16 16"
   id="svg2"
   version="1.1"
   inkscape:version="1.0.2 (e86c870879, 2021-01-15)"
   sodipodi:docname="drive-harddisk-root.svg">
  <metadata
     id="metadata14">
    <rdf:RDF>
      <cc:Work
         rdf:about="">
        <dc:format>image/svg+xml</dc:format>
        <dc:type
           rdf:resource="http://purl.org/dc/dcmitype/StillImage" />
        <dc:title></dc:title>
      </cc:Work>
    </rdf:RDF>
  </metadata>
  <defs
     id="defs12" />
  <sodipodi:namedview
     pagecolor="#ffffff"
     bordercolor="#666666"
     borderopacity="1"
     objecttolerance="10"
     gridtolerance="10"
     guidetolerance="10"
     inkscape:pageopacity="0"
     inkscape:pageshadow="2"
     inkscape:window-width="1644"
     inkscape:window-height="967"
     id="namedview10"
     showgrid="false"
     inkscape:zoom="14.75"
     inkscape:cx="6.5257139"
     inkscape:cy="7.8644068"
     inkscape:window-x="518"
     inkscape:window-y="64"
     inkscape:window-maximized="0"
     inkscape:current-layer="svg2"
     inkscape:document-rotation="0" />
  <g
     fill="#fff"
     id="g4">
    <path
       d="m 31.8,27 -0.5,5 H 4.8 L 4.3,27 h 6.4 14.8 6.3 M 34,25 H 24 2 l 0.497,7.2 c 0.1,1 0.698,1.8 1.698,1.8 h 27.711 c 1,0 1.598,-0.8 1.698,-1.8 z"
       transform="matrix(0.37943,0,0,0.31178,1.17,3.459)"
       id="path6"
       style="fill:#ff2a2a;fill-opacity:1" />
    <path
       d="m 3.738,1.947 c -0.403,0 -0.645,0.282 -0.686,0.686 l -1.088,8.59 0.082,0.404 h 3.145 5.648 2.982 l 0.242,-0.404 -1.09,-8.59 C 12.892,2.23 12.695,1.947 12.291,1.947 m -2.81,1.737 c 0.54,0.047 0.82,0.39 0.217,0.793 C 8.32,5.398 7.474,5.842 6.655,7.09 6.788,6.998 6.945,6.915 7.128,6.858 8.648,6.379 10.648,7.942 11.642,8.891 9.779,7.813 8.81,7.952 6.835,7.916 6.601,7.912 6.45,7.862 6.364,7.787 6.46,8.349 6.654,8.942 7.016,9.678 6.135,8.624 4.709,6.526 5.291,5.045 5.616,4.217 6.417,3.861 6.369,4.826 6.316,5.884 6.237,6.651 6.318,7.431 6.701,6.066 7.491,4.118 8.877,3.742 9.092,3.684 9.3,3.668 9.481,3.683"
       transform="matrix(0.99999,0,0,0.99999,0,0.007)"
       id="path8"
       style="fill:#566060;fill-opacity:1" />
  </g>
</svg>
