<?xml version="1.0" encoding="UTF-8" standalone="no"?>
<!-- Created with Inkscape (http://www.inkscape.org/) -->

<svg
   xmlns:dc="http://purl.org/dc/elements/1.1/"
   xmlns:cc="http://creativecommons.org/ns#"
   xmlns:rdf="http://www.w3.org/1999/02/22-rdf-syntax-ns#"
   xmlns:svg="http://www.w3.org/2000/svg"
   xmlns="http://www.w3.org/2000/svg"
   xmlns:sodipodi="http://sodipodi.sourceforge.net/DTD/sodipodi-0.dtd"
   xmlns:inkscape="http://www.inkscape.org/namespaces/inkscape"
   width="16"
   height="16"
   id="svg2"
   version="1.1"
   inkscape:version="0.91 r13725"
   viewBox="0 0 16 16"
   sodipodi:docname="application-pdf.svg">
  <defs
     id="defs4" />
  <sodipodi:namedview
     id="base"
     pagecolor="#9c9c9c"
     bordercolor="#666666"
     borderopacity="1.0"
     inkscape:pageopacity="0"
     inkscape:pageshadow="2"
     inkscape:zoom="11.2"
     inkscape:cx="-0.45623828"
     inkscape:cy="9.4711147"
     inkscape:document-units="px"
     inkscape:current-layer="layer1-3"
     showgrid="false"
     inkscape:showpageshadow="false"
     borderlayer="true"
     inkscape:window-width="1366"
     inkscape:window-height="687"
     inkscape:window-x="0"
     inkscape:window-y="0"
     inkscape:window-maximized="1"
     units="px"
     inkscape:snap-bbox="true"
     inkscape:object-nodes="true"
     showguides="false">
    <inkscape:grid
       type="xygrid"
       id="grid4101" />
    <sodipodi:guide
       position="2,14.000017"
       orientation="12,0"
       id="guide4071" />
    <sodipodi:guide
       position="2,2.0000174"
       orientation="0,12"
       id="guide4073" />
    <sodipodi:guide
       position="14,2.0000174"
       orientation="-12,0"
       id="guide4075" />
    <sodipodi:guide
       position="14,14.000017"
       orientation="0,-12"
       id="guide4077" />
  </sodipodi:namedview>
  <metadata
     id="metadata7">
    <rdf:RDF>
      <cc:Work
         rdf:about="">
        <dc:format>image/svg+xml</dc:format>
        <dc:type
           rdf:resource="http://purl.org/dc/dcmitype/StillImage" />
        <dc:title />
      </cc:Work>
    </rdf:RDF>
  </metadata>
  <g
     inkscape:label="Capa 1"
     inkscape:groupmode="layer"
     id="layer1"
     transform="translate(0,-1036.3622)">
    <g
       transform="translate(-412.88298,512.00351)"
       id="layer1-4"
       inkscape:label="Capa 1">
      <g
         style="fill:#ffffff;fill-opacity:1"
         inkscape:label="Capa 1"
         id="layer1-7"
         transform="translate(392.57143,-514.5642)" />
      <g
         transform="translate(341.79698,500.25245)"
         id="g4240">
        <rect
           style="opacity:1;fill:#ffffff;fill-opacity:0.40983605;stroke:none"
           id="rect4236-8"
           width="44"
           height="1"
           x="10"
           y="3" />
        <g
           transform="translate(-392.98822,-511.27795)"
           id="layer1-1"
           inkscape:label="Capa 1"
           inkscape:transform-center-x="5.4653607"
           inkscape:transform-center-y="-9.4924686">
          <g
             transform="translate(0.41988239,0.03484499)"
             inkscape:label="Capa 1"
             id="layer1-3">
            <g
               transform="matrix(0.51954876,0,0,0.51954876,428.17429,8.751972)"
               id="layer1-9"
               inkscape:label="Layer 1"
               style="fill:#ffffff;fill-opacity:1">
              <g
                 inkscape:label="Capa 1"
                 id="layer1-8"
                 transform="translate(-384.28833,504.67735)"
                 style="fill:#ffffff;fill-opacity:1">
                <g
                   id="g4231"
                   transform="matrix(1.5263052,0,0,1.5263052,376.31698,-1040.1258)"
                   style="fill:#ffffff;fill-opacity:1">
                  <g
                     id="g4178"
                     transform="translate(-0.98298832,0)"
                     style="fill:#ffffff;fill-opacity:1">
                    <path
                       style="fill:#ffffff;fill-opacity:1"
                       sodipodi:nodetypes="cccccccccccccccccccccccsccsccccccccscccscccccccscssc"
                       inkscape:connector-curvature="0"
                       id="path5"
                       d="m 68.517279,1026.7252 c -0.309087,-0.3045 -0.994584,-0.4658 -2.037707,-0.4795 -0.706106,-0.011 -1.555981,0.054 -2.449902,0.1795 -0.400274,-0.2309 -0.812771,-0.4822 -1.136651,-0.7849 -0.871132,-0.8134 -1.59829,-1.9426 -2.051404,-3.1842 0.02952,-0.116 0.05465,-0.2179 0.07805,-0.3219 0,0 0.490684,-2.7872 0.360794,-3.7294 -0.01787,-0.1292 -0.02887,-0.1668 -0.06362,-0.2673 l -0.04262,-0.109 c -0.133456,-0.3078 -0.395148,-0.6339 -0.805429,-0.6162 l -0.240602,-0.011 -0.0066,-10e-5 c -0.457506,0 -0.830389,0.234 -0.928274,0.5837 -0.297524,1.0969 0.0094,2.7379 0.565827,4.8634 l -0.142413,0.3462 c -0.398366,0.9711 -0.897574,1.9492 -1.338033,2.8119 l -0.05727,0.1124 c -0.463377,0.9069 -0.883832,1.6767 -1.264978,2.3288 l -0.393539,0.2081 c -0.02866,0.015 -0.70311,0.3718 -0.861308,0.4675 -1.342033,0.8013 -2.231344,1.711 -2.378889,2.4328 -0.04697,0.2303 -0.012,0.5251 0.226774,0.6617 l 0.380625,0.1915 c 0.165111,0.083 0.339225,0.1246 0.5176,0.1246 0.955844,0 2.065538,-1.1907 3.594209,-3.8585 1.764968,-0.5747 3.774449,-1.0522 5.535592,-1.3156 1.342123,0.7557 2.99281,1.2805 4.034666,1.2805 0.184987,0 0.344446,-0.018 0.474032,-0.052 0.199816,-0.053 0.368229,-0.1669 0.470902,-0.3214 0.202115,-0.3043 0.243121,-0.7232 0.188242,-1.1523 -0.01635,-0.1272 -0.118063,-0.2847 -0.228077,-0.3921 z m -14.276771,5.0861 c 0.174288,-0.4766 0.864263,-1.4188 1.884421,-2.2548 0.06414,-0.052 0.222122,-0.2 0.366796,-0.3375 -1.066816,1.7015 -1.781231,2.3797 -2.251217,2.5923 z m 6.042325,-13.9144 c 0.307265,0 0.482032,0.7746 0.496555,1.5006 0.01449,0.7261 -0.155328,1.2357 -0.365969,1.6127 -0.174462,-0.5582 -0.25878,-1.438 -0.25878,-2.0135 0,0 -0.01282,-1.0998 0.128194,-1.0998 z m -1.802452,9.9157 c 0.214033,-0.3831 0.436719,-0.7871 0.664277,-1.2157 0.554693,-1.049 0.905009,-1.8697 1.165919,-2.5445 0.518906,0.9442 1.165137,1.7467 1.924823,2.3898 0.09475,0.08 0.195155,0.1608 0.300605,0.2412 -1.544845,0.3056 -2.880051,0.6774 -4.055624,1.1292 z m 9.740071,-0.086 c -0.0941,0.058 -0.36362,0.093 -0.536995,0.093 -0.559519,0 -1.251805,-0.2558 -2.222304,-0.6719 0.372883,-0.028 0.71481,-0.042 1.021423,-0.042 0.561213,0 0.727461,0 1.276237,0.1375 0.548783,0.14 0.555697,0.4243 0.461639,0.4831 z" />
                  </g>
                </g>
              </g>
            </g>
          </g>
        </g>
      </g>
    </g>
  </g>
</svg>
