<svg xmlns="http://www.w3.org/2000/svg" xmlns:xlink="http://www.w3.org/1999/xlink" viewBox="0 0 64 64"><defs><linearGradient xlink:href="#1" id="3" x1="-686.74" y1="570.48" x2="-672.81" y2="-54.13" gradientUnits="userSpaceOnUse"/><linearGradient gradientUnits="userSpaceOnUse" y2="354.29" x2="-704.05" y1="647.77" x1="-701.19" id="2"><stop stop-color="#93cfff"/><stop offset="1" stop-color="#cde8fe"/></linearGradient><linearGradient xlink:href="#1" id="0" x1="59.12" y1="-13.295" x2="59.15" y2="-37.783" gradientUnits="userSpaceOnUse" gradientTransform="matrix(4.17478 0 0 4.16765-1066.12 447.73)"/><linearGradient id="1"><stop stop-color="#289bf7"/><stop offset="1" stop-color="#71b9f1"/></linearGradient></defs><g transform="matrix(.0376 0 0 .0376 57.58 26.442)" opacity=".98" stroke-width="26.22" stroke="#60abe7" fill="#60aae5"><path d="m-880.52 294.78c-4.626 0-8.349 3.718-8.349 8.335v161.41l461.02 1v-121.2c0-4.618-3.724-8.335-8.35-8.335h-265.48c-8.51.751-9.607-.377-13.812-5.981-5.964-7.968-14.969-21.443-20.84-29.21-4.712-6.805-5.477-6.02-13.292-6.02z" transform="matrix(3.35434 0 0 3.35434 1528.57-1442.15)" fill="url(#0)" stroke="none" color="#000"/><rect y="356.85" x="-890.28" height="295.13" width="463.85" transform="matrix(3.35434 0 0 3.35434 1528.57-1442.15)" opacity="1" fill="url(#2)" stroke="url(#2)" stroke-width="2.378" rx="9.63"/><path d="m-680.29-60.935c-43.29 0-84.42 8.518-123.94 25.47-78.49 33.665-135.95 90.73-169.67 169.35-16.9 39.39-25.15 80.65-25.15 123.94 0 43.3 8.245 84.87 25.15 124.26 33.725 78.62 91.19 136 169.67 169.67 39.52 16.952 80.65 25.524 123.94 25.524 43.29 0 84.77-8.662 124.32-25.524 79.14-33.756 136.33-91.19 170-169.67 16.951-39.52 25.47-80.965 25.47-124.26 0-43.29-8.511-84.42-25.47-123.94-33.666-78.49-90.86-135.59-170-169.35-39.557-16.871-81.02-25.47-124.32-25.47m0 137.76c10.823 0 20.268 8.741 20.268 19.563v180.84l97.76 98.47c7.5 7.553 8.03 19.18 0 27.2-6.98 6.986-19.894 6.986-26.879 0l-104.43-104.37c-4.186-4.193-5.903-9.43-5.202-15.716 0-1.043-.705-2.413-.705-2.764v-183.66c0-10.822 9.06-19.563 19.18-19.563" fill="url(#3)" stroke="none"/></g></svg>