<svg xmlns="http://www.w3.org/2000/svg" xmlns:xlink="http://www.w3.org/1999/xlink" viewBox="0 0 64 64"><defs><linearGradient xlink:href="#1" id="3" x1="-405.97" y1="451.12" x2="-418.26" y2="273.82" gradientUnits="userSpaceOnUse"/><linearGradient gradientUnits="userSpaceOnUse" y2="354.29" x2="-704.05" y1="647.77" x1="-701.19" id="2"><stop stop-color="#93cfff"/><stop offset="1" stop-color="#cde8fe"/></linearGradient><linearGradient xlink:href="#1" id="0" x1="59.12" y1="-13.295" x2="59.15" y2="-37.783" gradientUnits="userSpaceOnUse" gradientTransform="matrix(4.17478 0 0 4.16765-1066.12 447.73)"/><linearGradient id="1"><stop stop-color="#289bf7"/><stop offset="1" stop-color="#71b9f1"/></linearGradient></defs><g transform="matrix(.12614 0 0 .12614 85.51-10.1)"><path d="m-880.52 294.78c-4.626 0-8.349 3.718-8.349 8.335v161.41l461.02 1v-121.2c0-4.618-3.724-8.335-8.35-8.335h-265.48c-8.51.751-9.607-.377-13.812-5.981-5.964-7.968-14.969-21.443-20.84-29.21-4.712-6.805-5.477-6.02-13.292-6.02z" transform="translate(234.13-140.27)" fill="url(#0)" color="#000"/><rect y="356.85" x="-890.28" height="295.13" width="463.85" transform="translate(234.13-140.27)" fill="url(#2)" stroke="url(#2)" stroke-width="2.378" rx="9.63"/><path d="m-517.54 271.25c-5.337 0-9.672 4.339-9.672 9.672v170.92c0 5.337 4.339 9.672 9.672 9.672h183.48c5.337 0 9.655-4.339 9.655-9.672v-170.92c0-5.337-4.322-9.672-9.655-9.672h-183.48m91.45 29.1c16.942 0 31.524 11.483 31.524 33.405 0 14.257-6.677 28.747-15.415 37.746h.05c-3.352 10.19 2.01 12.613 2.855 12.89 20.309 6.977 46.01 24.372 45.44 51.16h-128.37c-.514-28.05 31.974-47.3 43.919-51.16 1.281-.464 7.421-3.802 3.994-12.791-8.791-8.978-15.432-23.529-15.432-37.845 0-21.928 14.488-33.405 31.441-33.405" fill="url(#3)"/></g></svg>