<svg xmlns="http://www.w3.org/2000/svg" xmlns:xlink="http://www.w3.org/1999/xlink" viewBox="0 0 64 64"><defs><linearGradient xlink:href="#1" id="3" x1="-425.33" y1="458.99" x2="-423.11" y2="275.54" gradientUnits="userSpaceOnUse"/><linearGradient gradientUnits="userSpaceOnUse" y2="354.29" x2="-704.05" y1="647.77" x1="-701.19" id="2"><stop stop-color="#93cfff"/><stop offset="1" stop-color="#cde8fe"/></linearGradient><linearGradient xlink:href="#1" id="0" x1="59.12" y1="-13.295" x2="59.15" y2="-37.783" gradientUnits="userSpaceOnUse" gradientTransform="matrix(4.17478 0 0 4.16765-1066.12 447.73)"/><linearGradient id="1"><stop stop-color="#289bf7"/><stop offset="1" stop-color="#71b9f1"/></linearGradient></defs><g transform="matrix(.12614 0 0 .12614 85.51-10.1)"><path d="m-880.52 294.78c-4.626 0-8.349 3.718-8.349 8.335v161.41l461.02 1v-121.2c0-4.618-3.724-8.335-8.35-8.335h-265.48c-8.51.751-9.607-.377-13.812-5.981-5.964-7.968-14.969-21.443-20.84-29.21-4.712-6.805-5.477-6.02-13.292-6.02z" transform="translate(234.13-140.27)" fill="url(#0)" color="#000"/><rect y="356.85" x="-890.28" height="295.13" width="463.85" transform="translate(234.13-140.27)" fill="url(#2)" stroke="url(#2)" stroke-width="2.378" rx="9.63"/><path d="m-424.22685 271.67323a95.135 95.135 0 0 0 -95.126 95.13995 95.135 95.135 0 0 0 95.126 95.12612 95.135 95.135 0 0 0 95.13996 -95.12612 95.135 95.135 0 0 0 -95.13996 -95.13995m24.01 42.36c.35.018.764.178 1.091.276 1.676.481 3.098 1.918 3.576 3.604l17.33 63.12 9.09-12.317c.926-1.37 2.331-2.317 3.977-2.361h6.738 3.038.262c.199 0 .414.215.414.414v9.693c0 .199-.201.276-.4.276h-.276-3.038-4.115l-13.339 18.545c-2.283 3.01-7.977 1.958-9.09-1.657l-15.81-56.2-10.867 35.847c-.665 2.037-2.814 3.421-4.943 3.466h-7.567-1.519-3.715-1.367-3.853l-14.72 48.716c-.737 2.641-3.851 4.391-6.462 3.604-1.676-.482-3.098-1.918-3.576-3.604l-17.468-63.24-8.934 12.317c-.926 1.371-2.483 2.165-4.129 2.209h-6.6-3.3-.414c-.199 0-.276-.077-.276-.276v-9.693c0-.199.077-.414.276-.414h.414 3.3 4.129l13.339-18.269c2.283-3.01 7.964-1.957 9.07 1.657l15.686 56.2 10.991-35.985c.665-2.037 2.69-3.56 4.819-3.604h7.705 1.367 3.715 1.519 3.714l14.844-48.44c.553-1.981 2.4-3.467 4.405-3.742.334-.045.617-.138.967-.138" fill="url(#3)"/></g></svg>