<svg xmlns="http://www.w3.org/2000/svg" xmlns:xlink="http://www.w3.org/1999/xlink" viewBox="0 0 64 64"><defs><linearGradient xlink:href="#1" id="3" x1="-424.65" y1="459.86" x2="-425.09" y2="276.05" gradientUnits="userSpaceOnUse"/><linearGradient gradientUnits="userSpaceOnUse" y2="354.29" x2="-704.05" y1="647.77" x1="-701.19" id="2"><stop stop-color="#93cfff"/><stop offset="1" stop-color="#cde8fe"/></linearGradient><linearGradient xlink:href="#1" id="0" x1="59.12" y1="-13.295" x2="59.15" y2="-37.783" gradientUnits="userSpaceOnUse" gradientTransform="matrix(4.17478 0 0 4.16765-1066.12 447.73)"/><linearGradient id="1"><stop stop-color="#289bf7"/><stop offset="1" stop-color="#71b9f1"/></linearGradient></defs><g transform="matrix(.12614 0 0 .12614 85.51-10.1)"><path d="m-880.52 294.78c-4.626 0-8.349 3.718-8.349 8.335v161.41l461.02 1v-121.2c0-4.618-3.724-8.335-8.35-8.335h-265.48c-8.51.751-9.607-.377-13.812-5.981-5.964-7.968-14.969-21.443-20.84-29.21-4.712-6.805-5.477-6.02-13.292-6.02z" transform="translate(234.13-140.27)" fill="url(#0)" color="#000"/><rect y="356.85" x="-890.28" height="295.13" width="463.85" transform="translate(234.13-140.27)" fill="url(#2)" stroke="url(#2)" stroke-width="2.378" rx="9.63"/><path d="m-490.13 455.03l63.815-110.34c0 0-18.346-32.526-27.832-48.7-1.254-2.138-3.02-5.621-4.642-8.127-1.357-2.101-2.226-3.773-2.226-3.773 0 0-.199-.175-.299 0-21.241 37.16-63.724 112.02-63.724 112.02l34.908 58.921m3.53.785h126.66l36.54-58.29-129.37-.134-33.827 58.43m28.2-174.41h70.22l63.997 112.62h-69.918l-64.29-112.62" fill="url(#3)"/></g></svg>