<svg xmlns="http://www.w3.org/2000/svg" xmlns:xlink="http://www.w3.org/1999/xlink" viewBox="0 0 64 64"><defs><linearGradient xlink:href="#1" id="3" x1="-421.58" y1="442.67" x2="-425.56" y2="281.02" gradientUnits="userSpaceOnUse"/><linearGradient gradientUnits="userSpaceOnUse" y2="354.29" x2="-704.05" y1="647.77" x1="-701.19" id="2"><stop stop-color="#93cfff"/><stop offset="1" stop-color="#cde8fe"/></linearGradient><linearGradient xlink:href="#1" id="0" x1="59.12" y1="-13.295" x2="59.15" y2="-37.783" gradientUnits="userSpaceOnUse" gradientTransform="matrix(4.17478 0 0 4.16765-1066.12 447.73)"/><linearGradient id="1"><stop stop-color="#289bf7"/><stop offset="1" stop-color="#71b9f1"/></linearGradient></defs><g transform="matrix(.12614 0 0 .12614 85.51-10.1)"><path d="m-880.52 294.78c-4.626 0-8.349 3.718-8.349 8.335v161.41l461.02 1v-121.2c0-4.618-3.724-8.335-8.35-8.335h-265.48c-8.51.751-9.607-.377-13.812-5.981-5.964-7.968-14.969-21.443-20.84-29.21-4.712-6.805-5.477-6.02-13.292-6.02z" transform="translate(234.13-140.27)" fill="url(#0)" color="#000"/><rect y="356.85" x="-890.28" height="295.13" width="463.85" transform="translate(234.13-140.27)" fill="url(#2)" stroke="url(#2)" stroke-width="2.378" rx="9.63"/><path d="m-336.52 316.66c-4.955-4.769-10.932-7.154-17.936-7.154h-22.2l-5.05-12.974c-1.255-3.116-3.55-5.803-6.888-8.06-3.336-2.258-6.755-3.388-10.257-3.388h-50.739c-3.502 0-6.921 1.13-10.257 3.388-3.336 2.259-5.632 4.946-6.887 8.06l-5.05 12.974h-22.2c-7 0-12.982 2.385-17.937 7.154-4.954 4.77-7.432 10.526-7.432 17.268v85.48c0 6.742 2.478 12.499 7.432 17.267 4.955 4.771 10.933 7.156 17.937 7.156h139.53c7 0 12.981-2.385 17.936-7.156 4.954-4.768 7.432-10.525 7.432-17.267v-85.48c.0001-6.742-2.476-12.498-7.43-17.268m-56.34 90.2c-8.687 8.364-19.14 12.546-31.364 12.546-12.223 0-22.676-4.181-31.364-12.546-8.688-8.363-13.03-18.428-13.03-30.19 0-11.767 4.345-21.83 13.03-30.19 8.687-8.364 19.14-12.546 31.364-12.546 12.223 0 22.676 4.183 31.364 12.546 8.688 8.363 13.03 18.427 13.03 30.19 0 11.766-4.345 21.83-13.03 30.19m-31.364-57.671c-7.862 0-14.584 2.687-20.17 8.06-5.583 5.375-8.374 11.845-8.374 19.414 0 7.569 2.791 14.04 8.374 19.414 5.583 5.374 12.304 8.06 20.17 8.06 7.861 0 14.584-2.687 20.17-8.06 5.583-5.375 8.374-11.845 8.374-19.414 0-7.569-2.791-14.04-8.374-19.414-5.583-5.375-12.306-8.06-20.17-8.06" fill="url(#3)"/></g></svg>