<svg xmlns="http://www.w3.org/2000/svg" xmlns:xlink="http://www.w3.org/1999/xlink" viewBox="0 0 64 64"><defs><linearGradient xlink:href="#1" id="3" x1="167.58" y1="26.964" x2="167.7" y2="-19.476" gradientUnits="userSpaceOnUse"/><linearGradient gradientUnits="userSpaceOnUse" y2="354.29" x2="-704.05" y1="647.77" x1="-701.19" id="2"><stop stop-color="#93cfff"/><stop offset="1" stop-color="#cde8fe"/></linearGradient><linearGradient xlink:href="#1" id="0" x1="59.12" y1="-13.295" x2="59.15" y2="-37.783" gradientUnits="userSpaceOnUse" gradientTransform="matrix(4.17478 0 0 4.16765-1066.12 447.73)"/><linearGradient id="1"><stop stop-color="#289bf7"/><stop offset="1" stop-color="#71b9f1"/></linearGradient></defs><g transform="matrix(.4922 0 0 .4922-50.18 33.912)" fill="#60aae5"><path d="m-880.52 294.78c-4.626 0-8.349 3.718-8.349 8.335v161.41l461.02 1v-121.2c0-4.618-3.724-8.335-8.35-8.335h-265.48c-8.51.751-9.607-.377-13.812-5.981-5.964-7.968-14.969-21.443-20.84-29.21-4.712-6.805-5.477-6.02-13.292-6.02z" transform="matrix(.25628 0 0 .25628 335.69-125.36)" fill="url(#0)" color="#000"/><rect y="356.85" x="-890.28" height="295.13" width="463.85" transform="matrix(.25628 0 0 .25628 335.69-125.36)" fill="url(#2)" stroke="url(#2)" stroke-width="2.378" rx="9.63"/><path d="m166.91-20.469c-.865 1.01-6.419 4.399-7.357 4.976-2.308 1.731-3.03 4.254-2.885 5.48.035.296.074.579.127.861.116.064.22.15.306.262l8.29 10.841c.172-.058.34-.124.52-.163v-4.01c0-.553.447-1 1-1 .553 0 1 .447 1 1v4.02c.306.065.597.157.877.278l8.266-11.397c.038-.225.066-.451.095-.686.144-1.226-.577-3.749-2.885-5.48-.938-.577-6.487-3.966-7.353-4.976m14.992 11.603c-1.091-.12-2.03.036-2.591.294-.177.082-.348.165-.516.25l-8.389 11.567c.226.247.419.517.587.806l3.837-1.246c.522-.171 1.086.117 1.258.643.171.524-.117 1.091-.643 1.262l-3.837 1.246c.016.159.052.312.052.476 0 .016-.008.032-.008.048l13.456 4.524c.176-.029.353-.062.532-.099 1.211-.242 3.386-1.705 4.317-4.436.26-1.07 1.767-7.397 2.46-8.532-1.225-.511-6.165-4.747-7-5.46-1.179-.83-2.421-1.222-3.512-1.341m-29.857.175c-1.091.12-2.336.511-3.516 1.341-.838.713-5.781 4.945-7.01 5.456.693 1.135 2.201 7.467 2.46 8.536.933 2.73 3.111 4.194 4.321 4.436.273.055.537.099.802.135l13.09-4.409c-.001-.126-.036-.245-.036-.373 0-.163.032-.321.048-.48l-3.837-1.246c-.525-.171-.813-.732-.643-1.258.17-.526.734-.812 1.258-.643l3.837 1.246c.231-.394.507-.756.837-1.067l-8.147-10.659c-.088-.116-.144-.244-.175-.377-.229-.122-.461-.237-.706-.349-.56-.258-1.496-.409-2.587-.29m14.865 12.369c-.067 0-.133.015-.198.02-.462.033-.891.175-1.262.409-.018.011-.039.02-.056.032-.19.126-.355.28-.508.448-.445.489-.726 1.132-.726 1.845 0 .251.044.487.107.718.006.021.014.042.02.063.339 1.135 1.38 1.968 2.623 1.968.022 0 .042-.007.064-.008.022 0 .046-.003.067-.004 1.207-.057 2.204-.893 2.512-2.02.006-.021.011-.041.016-.063.053-.212.091-.431.091-.659 0-.906-.446-1.7-1.123-2.202-.018-.013-.031-.028-.048-.04-.449-.316-.99-.508-1.579-.508m4.29 4.758c-.197.422-.459.805-.766 1.147l2.369 3.262c.325.447.23 1.073-.218 1.397-.178.129-.382.187-.587.187-.31 0-.616-.141-.813-.409l-2.361-3.254c-.223.1-.457.17-.698.234v13.984c.079.151.159.302.246.456.604 1.076 2.671 2.694 5.555 2.738 1.097-.084 7.583-.605 8.877-.298.105-1.326 2.606-7.332 3.02-8.349.851-2.758-.05-5.223-.889-6.131-.165-.178-.333-.349-.504-.516l-13.234-4.448m-8.428.286l-13.254 4.464c-.104.106-.206.216-.31.329-.837.907-1.739 3.375-.889 6.131.419 1.018 2.922 7.02 3.03 8.349 1.294-.309 7.775.214 8.873.298 2.884-.044 4.951-1.662 5.555-2.738.125-.223.24-.442.349-.663v-13.789c-.396-.066-.774-.172-1.131-.329l-2.361 3.246c-.195.271-.5.413-.81.413-.204 0-.409-.061-.587-.19-.446-.323-.547-.949-.222-1.397l2.369-3.262c-.236-.263-.438-.55-.611-.861z" fill="url(#3)"/></g></svg>