<svg xmlns="http://www.w3.org/2000/svg" xmlns:xlink="http://www.w3.org/1999/xlink" viewBox="0 0 64 64"><defs><linearGradient xlink:href="#1" id="3" x1="-31.485" y1="38.37" x2="-31.395" y2="29.28" gradientUnits="userSpaceOnUse"/><linearGradient gradientUnits="userSpaceOnUse" y2="354.29" x2="-704.05" y1="647.77" x1="-701.19" id="2"><stop stop-color="#93cfff"/><stop offset="1" stop-color="#cde8fe"/></linearGradient><linearGradient xlink:href="#1" id="0" x1="59.12" y1="-13.295" x2="59.15" y2="-37.783" gradientUnits="userSpaceOnUse" gradientTransform="matrix(4.17478 0 0 4.16765-1066.12 447.73)"/><linearGradient id="1"><stop stop-color="#289bf7"/><stop offset="1" stop-color="#71b9f1"/></linearGradient></defs><g transform="translate(163.12-812.44)"><g transform="matrix(.95853 0 0 .95853-546.99 329.96)"><path d="m-880.52 294.78c-4.626 0-8.349 3.718-8.349 8.335v161.41l461.02 1v-121.2c0-4.618-3.724-8.335-8.35-8.335h-265.48c-8.51.751-9.607-.377-13.812-5.981-5.964-7.968-14.969-21.443-20.84-29.21-4.712-6.805-5.477-6.02-13.292-6.02z" transform="matrix(.1316 0 0 .1316 520.5 474.37)" fill="url(#0)" color="#000"/><rect y="356.85" x="-890.28" height="295.13" width="463.85" transform="matrix(.1316 0 0 .1316 520.5 474.37)" fill="url(#2)" stroke="url(#2)" stroke-width="2.378" rx="9.63"/></g><path d="m-31.24 29.445c-2.455 0-4.764.955-6.5 2.691l.992.992c1.471-1.471 3.427-2.283 5.508-2.283 2.081 0 4.04.812 5.508 2.283l.992-.992c-1.736-1.736-4.045-2.691-6.5-2.691m0 2.49c-1.79 0-3.472.697-4.738 1.963l.99.99c1-1 2.332-1.553 3.748-1.553 1.416 0 2.747.552 3.748 1.553l.99-.99c-1.266-1.266-2.948-1.963-4.738-1.963m0 2.492c-1.124 0-2.182.437-2.977 1.232l.992.992c.53-.53 1.235-.822 1.984-.822.75 0 1.454.292 1.984.822l.992-.992c-.795-.795-1.852-1.232-2.977-1.232m0 2.785c-.364 0-.728.14-1.01.418-.001.001-.02.019-.029.029l1.035 1.037 1.037-1.033c-.001-.011-.021-.023-.031-.033-.278-.278-.642-.418-1.01-.418" transform="matrix(2.37788 0 0 2.37788-56.827 768.25)" fill="url(#3)"/></g></svg>