<svg xmlns="http://www.w3.org/2000/svg" xmlns:xlink="http://www.w3.org/1999/xlink" viewBox="0 0 64 64"><defs><linearGradient xlink:href="#1" id="3" x1="271.59" y1="1673.94" x2="305.54" y2="197.44" gradientUnits="userSpaceOnUse"/><linearGradient gradientUnits="userSpaceOnUse" y2="354.29" x2="-704.05" y1="647.77" x1="-701.19" id="2"><stop stop-color="#93cfff"/><stop offset="1" stop-color="#cde8fe"/></linearGradient><linearGradient xlink:href="#1" id="0" x1="59.12" y1="-13.295" x2="59.15" y2="-37.783" gradientUnits="userSpaceOnUse" gradientTransform="matrix(4.17478 0 0 4.16765-1066.12 447.73)"/><linearGradient id="1"><stop stop-color="#289bf7"/><stop offset="1" stop-color="#71b9f1"/></linearGradient></defs><g transform="matrix(.01647 0 0 .0163 27.539 20.732)" fill="#599dd5"><path d="m-880.52 294.78c-4.626 0-8.349 3.718-8.349 8.335v161.41l461.02 1v-121.2c0-4.618-3.724-8.335-8.35-8.335h-265.48c-8.51.751-9.607-.377-13.812-5.981-5.964-7.968-14.969-21.443-20.84-29.21-4.712-6.805-5.477-6.02-13.292-6.02z" transform="matrix(7.65942 0 0 7.73765 5313.51-2976.4)" fill="url(#0)" color="#000"/><rect y="356.85" x="-890.28" height="295.13" width="463.85" transform="matrix(7.65942 0 0 7.73765 5313.51-2976.4)" fill="url(#2)" stroke="url(#2)" stroke-width="2.378" rx="9.63"/><path d="m-498.03 1018.12l148.83 157.74 124.02-131.45v630.95h396.87 198.44 396.87v-630.95l124.02 131.45 148.83-157.74-768.94-814.97-768.94 814.97m1066.6-709.82v78.868l198.44 210.32v-289.18h-198.44z" fill="url(#3)"/></g></svg>