<?xml version="1.0" encoding="UTF-8" standalone="no"?>
<svg
   xmlns:dc="http://purl.org/dc/elements/1.1/"
   xmlns:cc="http://creativecommons.org/ns#"
   xmlns:rdf="http://www.w3.org/1999/02/22-rdf-syntax-ns#"
   xmlns:svg="http://www.w3.org/2000/svg"
   xmlns="http://www.w3.org/2000/svg"
   xmlns:xlink="http://www.w3.org/1999/xlink"
   xmlns:sodipodi="http://sodipodi.sourceforge.net/DTD/sodipodi-0.dtd"
   xmlns:inkscape="http://www.inkscape.org/namespaces/inkscape"
   viewBox="0 0 64 64"
   id="svg2"
   version="1.1"
   inkscape:version="0.91 r13725"
   sodipodi:docname="user-desktop.svg">
  <metadata
     id="metadata29">
    <rdf:RDF>
      <cc:Work
         rdf:about="">
        <dc:format>image/svg+xml</dc:format>
        <dc:type
           rdf:resource="http://purl.org/dc/dcmitype/StillImage" />
      </cc:Work>
    </rdf:RDF>
  </metadata>
  <sodipodi:namedview
     pagecolor="#ffffff"
     bordercolor="#666666"
     borderopacity="1"
     objecttolerance="10"
     gridtolerance="10"
     guidetolerance="10"
     inkscape:pageopacity="0"
     inkscape:pageshadow="2"
     inkscape:window-width="804"
     inkscape:window-height="480"
     id="namedview27"
     showgrid="false"
     inkscape:zoom="3.6875"
     inkscape:cx="32"
     inkscape:cy="32"
     inkscape:window-x="0"
     inkscape:window-y="0"
     inkscape:window-maximized="0"
     inkscape:current-layer="svg2" />
  <defs
     id="defs4">
    <linearGradient
       gradientUnits="userSpaceOnUse"
       y2="354.29"
       x2="-704.05"
       y1="647.77"
       x1="-701.19"
       id="3">
      <stop
         stop-color="#93cfff"
         id="stop7" />
      <stop
         offset="1"
         stop-color="#cde8fe"
         id="stop9" />
    </linearGradient>
    <linearGradient
       xlink:href="#1"
       id="4"
       x1="514.64"
       y1="128.74"
       x2="504.97"
       y2="-331.02"
       gradientUnits="userSpaceOnUse"
       gradientTransform="matrix(0.04851,0,0,0.04851,7.739,40.387189)" />
    <linearGradient
       xlink:href="#1"
       id="2"
       x1="59.12"
       y1="-13.295"
       x2="59.15"
       y2="-37.783"
       gradientUnits="userSpaceOnUse"
       gradientTransform="matrix(4.17478 0 0 4.16765-1066.12 447.73)" />
    <linearGradient
       xlink:href="#1"
       id="0"
       gradientUnits="userSpaceOnUse"
       x1="462"
       x2="497.7" />
    <linearGradient
       id="1">
      <stop
         stop-color="#289bf7"
         id="stop15" />
      <stop
         offset="1"
         stop-color="#71b9f1"
         id="stop17" />
    </linearGradient>
    <clipPath
       id="3-5">
      <path
         inkscape:connector-curvature="0"
         d="M 0,792 612,792 612,0 0,0 0,792"
         id="path38" />
    </clipPath>
    <clipPath
       id="4-5">
      <path
         inkscape:connector-curvature="0"
         d="m 558.89,526.62 37.604,0 0,-14.904 -37.604,0 0,14.904"
         id="path35" />
    </clipPath>
    <clipPath
       id="5">
      <path
         inkscape:connector-curvature="0"
         d="m 596.5,511.72 c -6.962,6.661 -20.973,17.643 -31.626,14.277 -5.954,-1.882 -8.839,-7.319 -2.055,-7.441 13.837,-0.25 20.622,0.731 33.681,-6.836"
         id="path32" />
    </clipPath>
    <linearGradient
       xlink:href="#1"
       id="B"
       x1="564.19"
       y1="506.51001"
       x2="564"
       y2="548.15002"
       gradientUnits="userSpaceOnUse" />
    <clipPath
       id="6">
      <path
         inkscape:connector-curvature="0"
         d="m 556.75,546.2 27.01,0 0,-29.575 -27.01,0 0,29.575"
         id="path29" />
    </clipPath>
    <clipPath
       id="7">
      <path
         inkscape:connector-curvature="0"
         d="m 556.75,516.63 c 2.252,9.368 8.092,26.19 18.874,29.12 6.02,1.639 11.393,-1.373 5.753,-5.147 -11.502,-7.696 -17.738,-10.542 -24.627,-23.971"
         id="path22" />
    </clipPath>
    <linearGradient
       xlink:href="#1"
       id="A"
       x1="562.34998"
       y1="504.57001"
       x2="562.66998"
       y2="546.40997"
       gradientUnits="userSpaceOnUse" />
    <clipPath
       id="8">
      <path
         inkscape:connector-curvature="0"
         d="m 547.05,542.87 13.05,0 0,-38.14 -13.05,0 0,38.14"
         id="path15" />
    </clipPath>
    <linearGradient
       xlink:href="#1"
       id="9"
       x1="559.16998"
       y1="505.95001"
       x2="560.09003"
       y2="546.66998"
       gradientUnits="userSpaceOnUse" />
  </defs>
  <g
     transform="matrix(.04851 0 0 .04851 7.739 41.702)"
     fill="url(#0)"
     id="g19">
    <path
       d="m-880.52 294.78c-4.626 0-8.349 3.718-8.349 8.335v161.41l461.02 1v-121.2c0-4.618-3.724-8.335-8.35-8.335h-265.48c-8.51.751-9.607-.377-13.812-5.981-5.964-7.968-14.969-21.443-20.84-29.21-4.712-6.805-5.477-6.02-13.292-6.02z"
       transform="matrix(2.6001 0 0 2.6001 2211.78-1432.43)"
       fill="url(#2)"
       color="#000"
       id="path21" />
    <rect
       y="356.85"
       x="-890.28"
       height="295.13"
       width="463.85"
       transform="matrix(2.6001 0 0 2.6001 2211.78-1432.43)"
       fill="url(#3)"
       stroke="url(#3)"
       stroke-width="2.378"
       rx="9.63"
       id="rect23" />
  </g>
  <g
     id="g4219"
     transform="translate(-0.147822,0.59988056)">
    <path
       sodipodi:nodetypes="csscscsccccscscsccccscscscc"
       style="fill:url(#4)"
       inkscape:connector-curvature="0"
       id="path25"
       d="m 51.118291,33.095505 c -0.538946,0 -0.99688,0.189092 -1.373997,0.566355 -0.377117,0.377262 -0.566354,0.835148 -0.566354,1.373997 0,0.538946 0.189092,0.996735 0.566354,1.373997 0.377262,0.377117 0.835148,0.566355 1.373997,0.566355 0.538946,0 0.996735,-0.189189 1.373998,-0.566355 0.377116,-0.377262 0.566354,-0.834906 0.566354,-1.373997 0,-0.538946 -0.189189,-0.996881 -0.566354,-1.373997 -0.377117,-0.377117 -0.835052,-0.566355 -1.373998,-0.566355 m -9.211078,0.0039 c -0.538947,0 -0.996881,0.187152 -1.373998,0.564365 -0.377116,0.377263 -0.564365,0.835149 -0.564365,1.373998 0,0.538946 0.187152,0.996735 0.564365,1.373997 0.377263,0.377117 0.835148,0.566354 1.373998,0.566354 0.538946,0 0.996735,-0.189189 1.373997,-0.566354 0.377117,-0.377262 0.566354,-0.834906 0.566354,-1.373997 0,-0.538946 -0.189189,-0.996881 -0.566354,-1.373998 -0.377117,-0.377116 -0.835051,-0.564365 -1.373997,-0.564365 m 4.550238,0 c -0.538947,0 -0.996881,0.187152 -1.373998,0.564365 -0.377116,0.377263 -0.564365,0.835149 -0.564365,1.373998 0,0.538946 0.187152,0.996735 0.564365,1.373997 0.377263,0.377117 0.835148,0.566354 1.373998,0.566354 0.538946,0 0.996735,-0.189189 1.373997,-0.566354 0.377117,-0.377262 0.566354,-0.834906 0.566354,-1.373997 0,-0.538946 -0.189189,-0.996881 -0.566354,-1.373998 -0.377117,-0.377116 -0.835051,-0.564365 -1.373997,-0.564365" />
    <g
       id="g62"
       clip-path="url(#3-5)"
       transform="matrix(0.47564678,0,0,-0.47477745,-248.96557,285.47534)"
       style="fill:#56aef3;enable-background:new">
      <g
         id="g64"
         transform="translate(-3.997,-1.449)"
         clip-path="url(#4-5)">
        <g
           id="g66"
           clip-path="url(#5)">
          <path
             id="path68"
             d="m 596.5,511.72 c -6.962,6.661 -20.973,17.643 -31.626,14.277 -5.954,-1.882 -8.839,-7.319 -2.055,-7.441 13.837,-0.25 20.622,0.731 33.681,-6.836"
             inkscape:connector-curvature="0"
             style="fill:url(#B);fill-rule:evenodd" />
        </g>
      </g>
      <g
         id="g70"
         transform="translate(-2.485,0.663)"
         clip-path="url(#6)">
        <g
           id="g72"
           clip-path="url(#7)">
          <path
             id="path74"
             d="m 556.75,516.63 c 2.252,9.368 8.092,26.19 18.874,29.12 6.02,1.639 11.393,-1.373 5.753,-5.147 -11.502,-7.696 -17.738,-10.542 -24.627,-23.971"
             inkscape:connector-curvature="0"
             style="fill:url(#A);fill-rule:evenodd" />
        </g>
      </g>
      <g
         id="g76"
         clip-path="url(#8)">
        <path
           id="path78"
           d="m 560.09,504.74 c -6.172,7.399 -16.178,22.12 -12.09,32.524 2.281,5.812 7.902,8.321 7.563,1.544 -0.691,-13.823 -2.131,-20.525 4.531,-34.07"
           inkscape:connector-curvature="0"
           style="fill:url(#9);fill-rule:evenodd" />
      </g>
    </g>
  </g>
</svg>
