<svg xmlns="http://www.w3.org/2000/svg" xmlns:xlink="http://www.w3.org/1999/xlink" viewBox="0 0 48 48"><defs><linearGradient xlink:href="#5" id="4" y1="537.2" x2="0" y2="512.03" gradientUnits="userSpaceOnUse"/><linearGradient xlink:href="#1" id="3" x1="409.95" y1="540.2" x2="407.38" y2="505.67" gradientUnits="userSpaceOnUse"/><linearGradient id="5"><stop stop-color="#d3d3d3"/><stop offset="1" stop-color="#fcf9f9"/></linearGradient><linearGradient xlink:href="#5" id="2" x1="407.71" y1="544.54" x2="408.58" y2="502.78" gradientUnits="userSpaceOnUse"/><linearGradient id="1"><stop stop-color="#c61423"/><stop offset="1" stop-color="#ff4c63"/></linearGradient><linearGradient y1="545.8" x2="0" y2="517.8" gradientUnits="userSpaceOnUse"><stop stop-color="#3889e9"/><stop offset="1" stop-color="#5ea5fb"/></linearGradient><linearGradient x1="193.28" y1="478.61" x2="167.68" y2="723.23" gradientUnits="userSpaceOnUse"><stop stop-color="#ff9300"/><stop offset="1" stop-color="#ffff02"/></linearGradient><linearGradient xlink:href="#1" id="0" gradientUnits="userSpaceOnUse" y1="545.14" x2="0" y2="518.14"/></defs><g transform="translate(-384.65-499.91)"><g transform="matrix(1.71428 0 0 1.71428-278.04-387.75)"><circle cx="400.57" cy="531.8" r="14" fill="url(#0)"/><circle r="14" cy="531.8" cx="400.57" fill="#5ea5fb" fill-opacity="0"/></g><g fill-rule="evenodd"><circle cx="408.57" cy="523.8" r="21.6" fill="url(#2)"/><circle cx="408.57" cy="523.8" r="19" fill="url(#3)"/></g><path d="m418.52 531.38h-.217l-8.364-18.11c-.246-.534-.781-.875-1.368-.875-.588 0-1.122.342-1.368.875l-8.364 18.11h-.217c-.832 0-1.507.675-1.507 1.507 0 .832.675 1.507 1.507 1.507h3.467c.832 0 1.507-.675 1.507-1.507 0-.809-.638-1.467-1.438-1.504l6.414-13.887 6.414 13.887c-.8.036-1.438.695-1.438 1.504 0 .832.675 1.507 1.507 1.507h3.467c.832 0 1.507-.675 1.507-1.507 0-.832-.675-1.507-1.507-1.507" fill="url(#4)"/></g></svg>