<svg xmlns="http://www.w3.org/2000/svg" viewBox="0 0 48 48"><defs><linearGradient id="3" y1="19.371" x2="0" y2="-7.344" gradientUnits="userSpaceOnUse"><stop stop-color="#bfc1c1"/><stop offset="1" stop-color="#f1f2f3"/></linearGradient><linearGradient id="2" x1="408.52" y1="506.48" x2="409.27" y2="533.2" gradientUnits="userSpaceOnUse" gradientTransform="matrix(-.55046 0 0-.55168 244.17 292.89)"><stop stop-color="#222c35"/><stop offset="1" stop-color="#545e67"/></linearGradient><linearGradient id="0" x1="398.3" y1="509.53" x2="419.77" y2="531" gradientUnits="userSpaceOnUse" gradientTransform="matrix(.4325 0 0 .43346-157.44-219.19)"><stop stop-color="#18222a"/><stop offset="1" stop-color="#566069"/></linearGradient><linearGradient gradientTransform="matrix(.55046 0 0 .55168-205.63-280.64)" id="1" x1="407.38" y1="529.56" x2="407.51" y2="509.98" gradientUnits="userSpaceOnUse"><stop stop-color="#08f"/><stop offset="1" stop-color="#02c3ff"/></linearGradient></defs><g transform="matrix(1.71427 0 0 1.71427-69.21 13.512)" enable-background="new"><path d="m61.53 5.232c-.101.09-.25.095-.357.013l-3.56-2.709-1.687 10.09c-.006.038-.02.073-.04.105-.338 1.446-2.184 2.525-4.355 2.525-2.433 0-4.413-1.347-4.413-3 0-1.656 1.979-3 4.413-3 .999 0 1.949.223 2.721.633l2.231-12.653c.02-.115.11-.208.228-.229.113-.02.232.032.292.134l4.582 7.744c.069.118.046.265-.055.355" fill="#fff" fill-opacity=".846"/><g transform="matrix(1.04373 0 0 1.04373 34.15-.21)"><rect width="26.716" height="26.716" x="6.02" y="-7.344" fill="url(#3)" rx="13.358"/><path d="m11.565821 6.125004a7.706427 7.723482 0 0 1 7.706426 -7.72348 7.706427 7.723482 0 0 1 7.706425 7.72348 7.706427 7.723482 0 0 1 -7.706425 7.723485 7.706427 7.723482 0 0 1 -7.706426 -7.723485" fill="url(#2)"/><ellipse cy="6.125" cx="19.272" rx="6.06" ry="6.068" fill="url(#0)"/><ellipse cx="19.272" cy="6.125" rx="5.505" ry="5.517" fill="url(#1)"/></g></g></svg>