<svg xmlns="http://www.w3.org/2000/svg" viewBox="0 0 48 48"><defs><linearGradient id="0" gradientUnits="userSpaceOnUse" y1="1052.61" x2="0" y2="1003.81"><stop stop-color="#0074e3"/><stop offset="1" stop-color="#03b8ff"/></linearGradient></defs><g transform="translate(0-1004.36)"><circle cx="24" cy="1028.36" r="24" fill="url(#0)"/><path d="m18.09 1018.72c-2.318 0-4.02.168-5.251.392v18.576h3.409v-7.096c.447.083 1.034.113 1.677.113 2.431 0 4.582-.642 5.951-2.01 1.062-1.01 1.619-2.487 1.619-4.275 0-1.76-.727-3.242-1.845-4.164-1.201-1.01-3.045-1.536-5.56-1.536m.141 2.626c2.375 0 3.828 1.118 3.828 3.213 0 2.207-1.564 3.464-4.134 3.464-.698 0-1.257-.026-1.677-.139v-6.37c.364-.083 1.033-.168 1.983-.168m13.157 2.43c-3.157 0-5.14 1.872-5.14 4.275-.028 1.592 1.091 3.047 3.745 3.968 1.676.587 2.234 1.061 2.234 1.983 0 .894-.67 1.509-2.179 1.509-1.229 0-2.712-.501-3.494-.976l-.67 2.485c1.01.559 2.488.979 4.136.979 3.604 0 5.532-1.816 5.532-4.274-.028-2.01-1.174-3.268-3.632-4.162-1.732-.615-2.377-1.033-2.377-1.9 0-.838.671-1.426 1.9-1.426 1.201 0 2.292.448 2.879.783l.67-2.432c-.782-.419-2.096-.811-3.604-.811" fill="#d9effd"/></g></svg>