<svg xmlns="http://www.w3.org/2000/svg" viewBox="0 0 48 48"><defs><linearGradient id="0" gradientUnits="userSpaceOnUse" y1="1052.61" x2="0" y2="1003.81"><stop stop-color="#b8a1a7"/><stop offset="1" stop-color="#ebebeb"/></linearGradient></defs><g transform="translate(0-1004.36)"><circle cx="24" cy="1028.36" r="24" fill="url(#0)"/><path d="m24.29 1018.72v15.319c0 1.337-.049 2.782-.098 3.665h2.693l.12-2.061h.05c.71 1.444 2.153 2.354 3.891 2.354 2.839 0 5.09-2.649 5.09-6.659.025-4.358-2.472-6.95-5.336-6.95-1.64 0-2.812.749-3.351 1.712h-.05v-7.379h-3.01m-12.327.841v18.02h3.288v-7.645h6.629v-2.701h-6.629v-4.972h7.111v-2.701h-10.399m18 7.367c1.933 0 3.01 1.871 3.01 4.305 0 2.379-1.075 4.117-2.984 4.117-1.224 0-2.301-.908-2.595-2.324-.073-.294-.098-.616-.098-.964v-1.95c0-.267.024-.588.073-.856.27-1.283 1.224-2.327 2.595-2.327" fill="#242222" fill-opacity=".688"/></g></svg>