<svg xmlns="http://www.w3.org/2000/svg" viewBox="0 0 48 48"><defs><linearGradient id="0" gradientUnits="userSpaceOnUse" y1="1052.61" x2="0" y2="1003.81"><stop stop-color="#00ca00"/><stop offset="1" stop-color="#65ff65"/></linearGradient></defs><g transform="translate(0-1004.36)"><circle cx="24" cy="1028.36" r="24" fill="url(#0)"/><path d="m13.09 1018.72c-1.857 0-3.614.14-4.987.394v18.629c1.017.14 2.393.254 4.224.254 3.332 0 6.05-.871 7.758-2.585 1.628-1.63 2.671-4.159 2.671-7.53 0-3.232-1.017-5.481-2.671-6.97-1.576-1.462-3.791-2.191-6.995-2.191m.279 2.698c3.917 0 6.105 2.389 6.079 6.576 0 4.778-2.387 7.249-6.416 7.249-.023 0-.047 0-.07 0-.636 0-1.297.0001-1.729-.083v-13.547c.432-.113 1.144-.196 2.136-.196m9.734 2.696l3.549 13.687h2.834l1.529-5.565c.345-1.349.665-2.698.911-4.385h.05c.271 1.658.542 2.951.911 4.385l1.431 5.565h2.809l3.773-13.687h-2.982l-1.333 6.072c-.32 1.602-.591 3.091-.788 4.581h-.05c-.271-1.49-.591-2.979-.961-4.581l-1.503-6.072h-2.465l-1.551 6.24c-.345 1.405-.74 2.923-.986 4.413h-.05c-.222-1.49-.492-2.979-.763-4.44l-1.258-6.212h-3.105" fill="#035903"/></g></svg>