<svg xmlns="http://www.w3.org/2000/svg" viewBox="0 0 48 48"><defs><linearGradient id="0" gradientUnits="userSpaceOnUse" y1="1052.61" x2="0" y2="1003.81"><stop stop-color="#673508"/><stop offset="1" stop-color="#ce873f"/></linearGradient></defs><g transform="translate(0-1004.36)"><circle cx="24" cy="1028.36" r="24" fill="url(#0)"/><path d="m17.17 1018.72c-1.939 0-3.934.169-5.03.394v18.632c.871.111 2.331.251 4.242.251 3.456 0 5.677-.589 7.03-1.77 1.096-.899 1.827-2.22 1.827-3.906 0-2.613-1.827-4.188-3.823-4.694v-.056c2.052-.759 3.147-2.362 3.147-4.104 0-1.602-.784-2.837-1.965-3.539-1.292-.899-2.867-1.21-5.424-1.21zm.366 2.558c2.191 0 3.539.815 3.539 2.585 0 1.601-1.349 2.726-3.737 2.726h-1.77v-5.171c.366-.085.956-.14 1.968-.14m17.505 2.527c-1.462 0-3.063.983-3.737 2.922h-.11l-.113-2.613h-3.01c.084 1.236.113 2.556.113 4.41v9.274h3.456v-7.081c0-.393.055-.76.11-1.069.31-1.545 1.435-2.613 3.092-2.613.422 0 .73.057 1.012.112v-3.26c-.281-.055-.479-.085-.816-.085zm-19.472 5.314h1.714c2.389 0 4.3.898 4.3 3.09 0 2.332-1.967 3.175-4.187 3.175-.786 0-1.377-.0001-1.827-.085v-6.18" fill="#fff" fill-opacity=".853"/></g></svg>