<svg xmlns="http://www.w3.org/2000/svg" viewBox="0 0 48 48"><defs><linearGradient gradientTransform="matrix(.49433 0 0 .4778 86.64 13.1)" gradientUnits="userSpaceOnUse" y2="-26.05" x2="-125.19" y1="73.5" x1="-123.97" id="0"><stop stop-color="#c52828"/><stop offset="1" stop-color="#ff5454"/></linearGradient></defs><g fill-rule="evenodd"><rect height="48" width="48" fill="url(#0)" rx="2.982" stroke-width="1"/><path d="m17.993 1015.12c.011-.018.038 25.594.038 25.632.036.033 10.694-25.644 10.663-25.632h-10.7m18.846 0c0 0 11.07 25.726 11.06 25.644 0 .036.008-25.576.008-25.644h-11.07m-4.01 9.758c.069-.053-4.593 10.716-4.637 10.703h4.923c-.022.026 2.141 5.155 2.141 5.206h4.564c.007.014-6.959-15.877-6.991-15.909" fill="#fce3e3" transform="matrix(1.27036 0 0 1.27036-17.857-1281.87)"/></g></svg>