<svg xmlns="http://www.w3.org/2000/svg" viewBox="0 0 48 48"><defs><linearGradient id="0" gradientUnits="userSpaceOnUse" y1="1052.61" x2="0" y2="1003.81"><stop stop-color="#fd8c00"/><stop offset="1" stop-color="#ffc645"/></linearGradient></defs><g transform="translate(0-1004.36)"><circle cx="24" cy="1028.36" r="24" fill="url(#0)"/><path d="m31.542 1018.72c-1.145 0-1.928.811-1.928 1.872 0 1.034.755 1.842 1.9 1.842 1.201 0 1.955-.809 1.955-1.842-.028-1.062-.754-1.872-1.928-1.872m-13.577.447l-6.03 18.83h3.547l1.621-5.336h5.979l1.704 5.336h3.687l-6.119-18.83h-4.385m2.038 2.738h.058c.279 1.09.586 2.374.949 3.519l1.481 4.639h-4.834l1.453-4.639c.335-1.117.614-2.429.894-3.519m9.807 2.485v13.607h3.464v-13.607h-3.464" fill="#2e1400" fill-opacity=".741"/></g></svg>