<svg xmlns="http://www.w3.org/2000/svg" viewBox="0 0 48 48"><defs><linearGradient id="0" gradientUnits="userSpaceOnUse" y1="1052.61" x2="0" y2="1003.81"><stop stop-color="#fec600"/><stop offset="1" stop-color="#ffe636"/></linearGradient></defs><g transform="translate(0-1004.36)"><circle cx="24" cy="1028.36" r="24" fill="url(#0)"/><path d="m9.456 1018.72v19.277h3.519v-8.18h7.093v-2.889h-7.093v-5.319h7.608v-2.889h-11.127m11.564 5.349l3.815 13.928h3.045l1.642-5.663c.371-1.372.717-2.747.981-4.463h.053c.291 1.688.581 3 .979 4.463l1.536 5.663h3.02l4.054-13.928h-3.205l-1.431 6.177c-.345 1.63-.636 3.145-.848 4.661h-.053c-.291-1.516-.634-3.03-1.032-4.661l-1.616-6.177h-2.648l-1.669 6.348c-.371 1.43-.795 2.975-1.059 4.49h-.053c-.238-1.516-.53-3.03-.821-4.518l-1.35-6.32h-3.338" fill="#826a03"/></g></svg>