<svg xmlns="http://www.w3.org/2000/svg" viewBox="0 0 48 48"><defs><linearGradient id="0" gradientUnits="userSpaceOnUse" y1="1052.61" x2="0" y2="1003.81"><stop stop-color="#7f66db"/><stop offset="1" stop-color="#bea7ff"/></linearGradient></defs><g transform="translate(0-1004.36)"><circle cx="24" cy="1028.36" r="24" fill="url(#0)"/><path d="m10.925 1018.72v19.277h11.642v-2.889h-8.122v-5.662h7.264v-2.859h-7.264v-4.977h7.693v-2.889h-11.212m21.609 5.03c-2.125 0-3.515 1.318-4.066 2.405h-.078l-.158-2.088h-2.834c.078 1.201.105 2.545.105 4.147v9.782h3.253v-8.18c0-.4.028-.83.133-1.145.341-1.059 1.232-2.058 2.518-2.058 1.758 0 2.44 1.517 2.44 3.519v7.864h3.228v-8.265c0-4.405-2.31-5.979-4.541-5.979" fill="#14125d" fill-opacity=".774"/></g></svg>