<svg xmlns="http://www.w3.org/2000/svg" viewBox="0 0 48 48"><defs><linearGradient id="0" gradientUnits="userSpaceOnUse" y1="44.28" x2="0" y2="-4.517"><stop stop-color="#8549a0"/><stop offset="1" stop-color="#c16fe3"/></linearGradient></defs><g transform="translate(80.13 3.968)"><circle r="24" cy="20.04" cx="-56.13" fill="url(#0)"/><path d="m-65.44 10.04l-6.161 19.677h3.622l1.654-5.576h6.104l1.74 5.576h3.766l-6.247-19.677h-4.477m2.081 2.859h.057c.285 1.138.6 2.483.971 3.68l1.51 4.846h-4.935l1.484-4.846c.342-1.168.626-2.541.911-3.68m16.716 2.279c-4.45 0-6.789 3.707-6.789 7.648 0 4.35 2.655 7.214 7.161 7.214 1.998 0 3.651-.411 4.849-.906l-.513-2.482c-1.056.409-2.226.641-3.852.641-2.225 0-4.193-1.108-4.279-3.677h9.299c.057-.321.115-.847.115-1.518 0-3.124-1.457-6.919-5.992-6.919m-.198 2.453c2.339 0 2.909 2.16 2.88 3.474h-6.104c.142-1.46 1.056-3.474 3.224-3.474" fill="#3d2248"/></g></svg>