<svg xmlns="http://www.w3.org/2000/svg" viewBox="0 0 48 48"><defs><linearGradient id="0" gradientUnits="userSpaceOnUse" y1="1052.61" x2="0" y2="1003.81"><stop stop-color="#cb0c69"/><stop offset="1" stop-color="#fa4ea9"/></linearGradient></defs><g transform="translate(0-1004.36)"><circle cx="24" cy="1028.36" r="24" fill="url(#0)"/><path d="m29.75 1018.72v7.38h-.048c-.539-.963-1.714-1.712-3.356-1.712-2.867 0-5.369 2.595-5.344 6.953 0 4.01 2.256 6.657 5.098 6.657 1.74 0 3.184-.908 3.896-2.352h.05l.123 2.058h2.696c-.049-.883-.098-2.328-.098-3.665v-15.319h-3.02m-14.616.964v18.02h3.293v-18.02h-3.293m11.948 7.244c1.373 0 2.328 1.044 2.598 2.327.049.267.07.588.07.856v1.95c0 .348-.022.67-.095.964-.294 1.417-1.373 2.324-2.598 2.324-1.912 0-2.989-1.737-2.989-4.117 0-2.433 1.078-4.305 3.01-4.305" fill="#36040f" fill-opacity=".835"/></g></svg>