<svg xmlns="http://www.w3.org/2000/svg" viewBox="0 0 48 48"><defs><linearGradient id="0" gradientUnits="userSpaceOnUse" y1="1087.59" x2="0" y2="1038.79"><stop stop-color="#0cb096"/><stop offset="1" stop-color="#34d6b6"/></linearGradient></defs><g transform="translate(0-1004.36)"><path d="m14.985 1018.72l-5.951 18.971h3.499l1.599-5.376h5.896l1.682 5.376h3.635l-6.03-18.971h-4.327m2.01 2.759h.055c.276 1.097.578 2.393.936 3.547l1.458 4.671h-4.764l1.433-4.671c.33-1.125.606-2.449.881-3.547m9.726 2.726v7.922c0 4.403 2.244 5.871 4.709 5.871 2.41 0 3.738-1.385 4.32-2.354h.055l.168 2.048h2.989c-.056-1.108-.11-2.436-.11-4.04v-9.443h-3.406v8.142c0 .388-.082.747-.193 1.052-.36.859-1.248 1.827-2.605 1.827-1.801 0-2.52-1.439-2.52-3.682v-7.339h-3.406" fill="#fff" fill-opacity=".846" transform="matrix(.98431 0 0 .98431.377 16.13)"/><circle r="24" cy="1063.35" cx="-57.52" fill="url(#0)" transform="translate(81.52-34.985)"/><path d="m14.647 1018.36l-6.174 19.682h3.63l1.659-5.578h6.117l1.745 5.578h3.771l-6.258-19.682h-4.49m2.089 2.862h.057c.286 1.139.599 2.482.971 3.68l1.513 4.846h-4.943l1.487-4.846c.343-1.168.628-2.541.914-3.68m10.09 2.828v8.219c0 4.568 2.328 6.091 4.885 6.091 2.5 0 3.878-1.437 4.482-2.443h.057l.174 2.125h3.102c-.058-1.149-.115-2.528-.115-4.195v-9.797h-3.534v8.448c0 .403-.086.775-.201 1.091-.374.892-1.295 1.896-2.703 1.896-1.868 0-2.615-1.493-2.615-3.82v-7.614h-3.534" fill="#075447"/></g></svg>