<svg xmlns="http://www.w3.org/2000/svg" viewBox="0 0 48 48"><defs><linearGradient id="0" gradientUnits="userSpaceOnUse" y1="1052.61" x2="0" y2="1003.81"><stop stop-color="#001f2e"/><stop offset="1" stop-color="#004e64"/></linearGradient></defs><g transform="translate(0-1004.36)"><circle cx="24" cy="1028.36" r="24" fill="url(#0)"/><path d="m13.12 1018.72v19.277h11.438v-2.947h-7.922v-16.33h-3.517m20.936 5.03c-1.488 0-3.119 1-3.805 2.977h-.115l-.113-2.661h-3.06c.086 1.258.115 2.603.115 4.491v9.438h3.517v-7.206c0-.401.058-.773.115-1.087.314-1.573 1.457-2.661 3.145-2.661.429 0 .743.056 1.029.113v-3.316c-.286-.057-.486-.088-.828-.088" fill="#89ceeb"/></g></svg>