<svg xmlns="http://www.w3.org/2000/svg" viewBox="0 0 48 48"><defs><linearGradient id="0" x1="216.93" y1="324.65" x2="216.25" y2="298.86" gradientUnits="userSpaceOnUse"><stop stop-color="#141414"/><stop offset="1" stop-color="#2d2d2f"/></linearGradient><linearGradient id="1" x1="473.15" y1="537.45" x2="472.86" y2="514.08" gradientUnits="userSpaceOnUse"><stop stop-color="#197cf1"/><stop offset="1" stop-color="#20bcfa"/></linearGradient></defs><g transform="matrix(.93632 0 0 .93678-410.42-466.11)"><path d="m216 302c-6.06 0-11 4.935-11 11 0 6.06 4.935 11 11 11 6.06 0 11-4.935 11-11 0-6.06-4.935-11-11-11m-11.723 4.492l-1.244-1.462c-.537-.642-.452-1.606.191-2.145l4.196-3.585c.642-.536 1.675-.41 2.214.233l1.462 1.719c-2.745 1.08-5.05 3.039-6.571 5.53zm24.797-1.5l-1.562 1.867c-1.502-2.503-3.797-4.477-6.535-5.574l1.45-1.732c.532-.646 1.564-.782 2.21-.25l4.229 3.546c.646.533.739 1.497.208 2.143" transform="matrix(1.91725 0 0 1.91631 49.746-73.71)" fill="url(#0)"/><path d="m463.26 514.3c.868 0 1.579.711 1.579 1.578v10.809l6.129 4.792c.71.526.817 1.525.291 2.209-.289.395-.765.602-1.238.602-.342 0-.682-.13-.971-.341l-6.759-5.259c-.368-.289-.608-.74-.608-1.239v-11.573c0-.868.71-1.578 1.578-1.578" opacity=".99" fill="url(#1)"/></g></svg>