<svg xmlns="http://www.w3.org/2000/svg" viewBox="0 0 48 48"><defs><linearGradient y1="545.8" x2="0" y2="517.8" gradientUnits="userSpaceOnUse"><stop stop-color="#3889e9"/><stop offset="1" stop-color="#5ea5fb"/></linearGradient><linearGradient id="0" gradientUnits="userSpaceOnUse" y1="545.14" x2="0" y2="518.14"><stop stop-color="#30cf41"/><stop offset="1" stop-color="#47f383"/></linearGradient></defs><circle r="14" cy="531.8" cx="400.57" fill="url(#0)" transform="matrix(1.71429 0 0 1.71429-662.69-887.65)"/><path d="m64.6 236.82c0 157.43 128.19 375.18 241.4 375.18 106.58 0 241.4-217.74 241.4-375.18 0-157.43-108.08-236.82-241.4-236.82-133.32 0-241.4 79.39-241.4 236.82m304.12 116.42c29.475-29.475 70.6-40.19 108.55-32.17 8.02 37.954-2.698 79.08-32.17 108.55-29.475 29.475-70.6 40.19-108.55 32.17-8.02-37.955 2.698-79.08 32.17-108.55zm-233.99-32.17c37.954-8.02 79.08 2.698 108.55 32.17 29.475 29.475 40.19 70.6 32.17 108.55-37.954 8.02-79.08-2.698-108.55-32.17-29.475-29.476-40.19-70.6-32.17-108.55" transform="matrix(.05229 0 0 .05229 7.92 9.193)" fill="#195c28"/></svg>