<svg xmlns="http://www.w3.org/2000/svg" viewBox="0 0 48 48"><defs><linearGradient id="0" x1="62.4" y1="29.832" x2="61.709" y2="-15.09" gradientUnits="userSpaceOnUse"><stop stop-color="#2e3e46"/><stop offset="1" stop-color="#435a64"/></linearGradient></defs><g transform="matrix(.99999 0 0 .99999-38.37 15.882)" enable-background="new" fill-rule="evenodd"><circle r="24" cy="8.125" cx="62.37" fill="url(#0)"/><g fill="#fff" fill-opacity=".85"><path d="m64.24 6.295c0 1.367.035 2.504-.625 3.715-.531.984-1.375 1.59-2.316 1.59-1.285 0-2.031-1.023-2.031-2.535 0-2.984 2.555-3.527 4.973-3.527v.758m3.375 8.531c-.219.207-.539.223-.789.086-1.109-.965-1.309-1.414-1.922-2.336-1.836 1.961-3.133 2.547-5.516 2.547-2.816 0-5.01-1.816-5.01-5.453 0-2.84 1.473-4.777 3.566-5.723 1.813-.836 4.352-.984 6.293-1.215v-.453c0-.832.063-1.816-.402-2.535-.41-.645-1.191-.91-1.879-.91-1.277 0-2.414.684-2.691 2.102-.059.316-.277.625-.582.641l-3.246-.363c-.273-.066-.574-.297-.5-.734.75-4.109 4.305-5.352 7.484-5.352 1.629 0 3.758.453 5.04 1.742 1.629 1.59 1.473 3.711 1.473 6.02v5.453c0 1.641.648 2.359 1.262 3.246.215.313.262.695-.008.93-.684.602-1.898 1.703-2.566 2.324l-.012-.012"/><path d="m72.876 17.823c-2.848 2.148-6.973 3.297-10.527 3.297-4.98 0-9.465-1.887-12.859-5.03-.266-.246-.027-.582.293-.391 3.66 2.184 8.191 3.496 12.867 3.496 3.152 0 6.625-.668 9.813-2.059.484-.207.887.324.414.684"/><path d="m74.06 16.435c-.363-.477-2.406-.227-3.32-.113-.281.035-.324-.215-.07-.395 1.625-1.172 4.297-.836 4.605-.441.313.395-.078 3.137-1.609 4.445-.234.203-.457.094-.352-.172.34-.879 1.113-2.848.746-3.324"/></g></g></svg>