<svg xmlns="http://www.w3.org/2000/svg" viewBox="0 0 48 48"><defs><linearGradient id="0" y1="542.8" x2="0" y2="507.8" gradientUnits="userSpaceOnUse" gradientTransform="matrix(1.09091 0 0 1.06528-373.34-565.93)"><stop stop-color="#ff3069"/><stop offset="1" stop-color="#ffa548"/></linearGradient></defs><g transform="matrix(.99999 0 0 .99999-48.37 30.882)" enable-background="new"><rect width="48" height="36.22" x="48.37" y="-24.985" fill="url(#0)" rx="1.704"/><path d="m82.63-12.53c-.579-.564-1.278-.846-2.097-.846h-2.595l-.591-1.535c-.147-.369-.415-.687-.805-.954-.39-.267-.79-.401-1.199-.401h-5.932c-.409 0-.809.134-1.199.401-.39.267-.658.585-.805.954l-.591 1.535h-2.595c-.819 0-1.518.282-2.097.846-.579.564-.869 1.245-.869 2.043v10.114c0 .798.29 1.479.869 2.043.579.564 1.278.847 2.097.847h16.311c.819 0 1.517-.282 2.097-.847.579-.564.869-1.245.869-2.043v-10.114c0-.798-.29-1.479-.869-2.043m-6.586 10.673c-1.016.99-2.238 1.484-3.667 1.484-1.429 0-2.651-.495-3.667-1.484-1.016-.989-1.523-2.18-1.523-3.572 0-1.392.508-2.583 1.523-3.572 1.016-.99 2.238-1.484 3.667-1.484 1.429 0 2.651.495 3.667 1.484 1.016.989 1.523 2.18 1.523 3.572 0 1.392-.508 2.583-1.523 3.572m-3.667-6.823c-.919 0-1.705.318-2.358.954-.653.636-.979 1.401-.979 2.297 0 .896.326 1.661.979 2.297.653.636 1.438.954 2.358.954.919 0 1.705-.318 2.358-.954.653-.636.979-1.402.979-2.297 0-.896-.326-1.661-.979-2.297-.653-.636-1.439-.954-2.358-.954" opacity=".795"/></g></svg>