<?xml version="1.0" encoding="UTF-8" standalone="no"?>
<svg
   xmlns:dc="http://purl.org/dc/elements/1.1/"
   xmlns:cc="http://creativecommons.org/ns#"
   xmlns:rdf="http://www.w3.org/1999/02/22-rdf-syntax-ns#"
   xmlns:svg="http://www.w3.org/2000/svg"
   xmlns="http://www.w3.org/2000/svg"
   xmlns:xlink="http://www.w3.org/1999/xlink"
   xmlns:sodipodi="http://sodipodi.sourceforge.net/DTD/sodipodi-0.dtd"
   xmlns:inkscape="http://www.inkscape.org/namespaces/inkscape"
   viewBox="0 0 48 48"
   id="svg2"
   version="1.1"
   inkscape:version="0.91 r13725"
   sodipodi:docname="applications-office.svg">
  <metadata
     id="metadata21">
    <rdf:RDF>
      <cc:Work
         rdf:about="">
        <dc:format>image/svg+xml</dc:format>
        <dc:type
           rdf:resource="http://purl.org/dc/dcmitype/StillImage" />
      </cc:Work>
    </rdf:RDF>
  </metadata>
  <sodipodi:namedview
     pagecolor="#ffffff"
     bordercolor="#666666"
     borderopacity="1"
     objecttolerance="10"
     gridtolerance="10"
     guidetolerance="10"
     inkscape:pageopacity="0"
     inkscape:pageshadow="2"
     inkscape:window-width="806"
     inkscape:window-height="687"
     id="namedview19"
     showgrid="false"
     inkscape:zoom="4.9166667"
     inkscape:cx="24"
     inkscape:cy="24"
     inkscape:window-x="560"
     inkscape:window-y="0"
     inkscape:window-maximized="0"
     inkscape:current-layer="svg2" />
  <defs
     id="defs4">
    <linearGradient
       xlink:href="#2"
       id="0"
       x1="396.11"
       y1="545.48"
       x2="397.66"
       y2="516.98"
       gradientUnits="userSpaceOnUse" />
    <linearGradient
       xlink:href="#2"
       id="1"
       x1="403.44"
       y1="545.15"
       x2="402.47"
       y2="518.08"
       gradientUnits="userSpaceOnUse" />
    <linearGradient
       id="2">
      <stop
         stop-color="#dce2ff"
         id="stop9" />
      <stop
         offset="1"
         stop-color="#f8feff"
         id="stop11" />
    </linearGradient>
    <linearGradient
       inkscape:collect="always"
       xlink:href="#linearGradient4178"
       id="linearGradient4247"
       x1="30.711863"
       y1="103.11864"
       x2="29.898296"
       y2="54.915257"
       gradientUnits="userSpaceOnUse"
       gradientTransform="translate(-6.9152499,-55.322038)" />
    <linearGradient
       y2="155.59"
       x2="20.030001"
       y1="261.26001"
       x1="18.6"
       gradientUnits="userSpaceOnUse"
       id="linearGradient4178"
       gradientTransform="matrix(0.43355,0,0,0.43481,-57.018323,-61.893693)">
      <stop
         id="stop4180"
         stop-color="#2a2c2f"
         style="stop-color:#18191b;stop-opacity:1" />
      <stop
         id="stop4182"
         stop-color="#424649"
         offset="1" />
    </linearGradient>
    <linearGradient
       gradientTransform="matrix(1.9378772,0,0,1.9319044,-769.03542,-1012.1716)"
       inkscape:collect="always"
       xlink:href="#2"
       id="linearGradient4163-1"
       x1="407.7587"
       y1="543.61151"
       x2="407.97034"
       y2="529.81995"
       gradientUnits="userSpaceOnUse" />
    <linearGradient
       gradientTransform="matrix(1.9378772,0,0,1.9319044,-769.03542,-1012.1716)"
       inkscape:collect="always"
       xlink:href="#2"
       id="linearGradient4155-2"
       x1="407.7587"
       y1="543.61151"
       x2="407.97034"
       y2="529.81995"
       gradientUnits="userSpaceOnUse" />
  </defs>
  <ellipse
     style="opacity:1;fill:url(#linearGradient4247);fill-opacity:1;stroke:#3daee6;stroke-width:0;stroke-linecap:round;stroke-linejoin:round;stroke-miterlimit:4;stroke-dasharray:none;stroke-opacity:1"
     id="path4239"
     cx="24"
     cy="24"
     rx="23.999992"
     ry="23.999994" />
  <path
     inkscape:connector-curvature="0"
     d="M 23.556357,13.669657 13.394129,26.67717 c -1.904933,2.438063 -1.372017,6.782916 1.065833,8.687774 2.439787,1.904858 6.78257,1.371652 8.689441,-1.066411 L 33.311631,21.29102 34.58094,19.664356 c 1.271248,-1.626663 0.914678,-4.522588 -0.711201,-5.791849 -1.625879,-1.271193 -4.523005,-0.913791 -5.792315,0.710941 l -1.271247,1.626663 -7.621671,9.756118 -1.271247,1.626664 c -0.635624,0.813331 -0.457339,2.260328 0.354631,2.895924 0.813909,0.635597 2.261503,0.457862 2.897126,-0.35547 l 8.892919,-11.380849 1.625879,1.271193 -8.892919,11.380849 c -1.271247,1.626663 -4.166435,1.982134 -5.792314,0.710941 -1.625879,-1.271193 -1.982449,-4.167118 -0.711201,-5.79185 l 1.271247,-1.626663 8.892918,-11.380849 c 1.904934,-2.438064 6.249654,-2.971269 8.689442,-1.066412 2.439787,1.904858 2.972703,6.249711 1.06777,8.687774 L 34.93751,22.564145 24.775282,35.571658 C 22.234725,38.823053 16.44241,39.533994 13.190652,36.993539 9.9388938,34.453085 9.2276929,28.661236 11.76825,25.407909 l 10.162228,-13.007513 1.625879,1.271193 z"
     id="path17-4"
     style="fill:url(#linearGradient4163-1);fill-opacity:1;stroke:url(#linearGradient4155-2);stroke-width:0;stroke-linecap:round;stroke-linejoin:round;stroke-miterlimit:4;stroke-dasharray:none;stroke-opacity:0.8" />
</svg>
