<svg xmlns="http://www.w3.org/2000/svg" viewBox="0 0 48 48"><defs><linearGradient id="0" gradientUnits="userSpaceOnUse" y1="-2.471" x2="0" y2="-51.27"><stop stop-color="#0a80fd"/><stop offset="1" stop-color="#56c5fa"/></linearGradient></defs><g transform="matrix(.22655 0 0 .22655-51.801 16.962)" enable-background="new"><circle r="24" cy="-26.715" cx="77.37" fill="url(#0)" transform="matrix(4.414 0 0 4.414-6.926 149)"/><path d="m393.89 23.683c-.836.749-2.068.788-2.96.111l-29.488-22.44-13.97 83.58c-.051.317-.166.606-.329.868-2.801 11.981-18.09 20.911-36.07 20.911-20.15 0-36.552-11.161-36.552-24.881 0-13.72 16.394-24.885 36.552-24.885 8.276 0 16.14 1.85 22.539 5.246l18.478-104.8c.166-.955.915-1.719 1.886-1.898.935-.162 1.918.265 2.417 1.109l37.955 64.15c.574.975.38 2.191-.46 2.94" fill="#e0f2fe"/></g></svg>