<svg xmlns="http://www.w3.org/2000/svg" xmlns:xlink="http://www.w3.org/1999/xlink" viewBox="0 0 48 48"><defs><linearGradient xlink:href="#0" id="3" x1="44.16" y1="490.59" x2="44.26" y2="461.93" gradientUnits="userSpaceOnUse"/><linearGradient xlink:href="#0" id="4" gradientUnits="userSpaceOnUse" gradientTransform="matrix(1.0021 0 0 1-.15.002)" x1="72.85" y1="491.15" x2="72.29" y2="462.68"/><linearGradient xlink:href="#0" id="2" x1="96.68" y1="490.36" x2="96.33" y2="462.83" gradientUnits="userSpaceOnUse"/><linearGradient id="0"><stop stop-color="#2e3436"/><stop offset="1" stop-color="#555753"/></linearGradient><linearGradient id="1" x1="70.03" y1="569.24" x2="66.53" y2="491.06" gradientUnits="userSpaceOnUse"><stop stop-color="#c52828"/><stop offset="1" stop-color="#ff5454"/></linearGradient></defs><g transform="matrix(.39785 0 0 .39785-4.684-181.71)"><rect y="465.17" x="11.899" height="106.82" width="120.4" fill="url(#1)" rx="5.03"/><g fill-rule="evenodd"><path d="m18.538 462.2h107.12c3.856 0 6.711 3.098 6.711 6.947v14.953 6.947h-120.54v-6.947-14.953c0-3.848 2.855-6.947 6.711-6.947z" fill="url(#4)" stroke="url(#4)" stroke-linejoin="round" stroke-linecap="round" stroke-width=".107"/><g fill="#fff"><g fill-opacity=".948" stroke-width="1.125"><path d="m79.77 490.5h19.1l14.926-13.205-14.926-14.606h-19.1l13.531 14.606z" stroke="url(#2)"/><path d="m31.676 490.5h19.1l14.926-13.205-14.926-14.606h-19.1l13.531 14.606z" stroke="url(#3)"/></g><path d="m-23.993 537.97l-42.14 24.329v-48.658z" transform="matrix(.62275 0 0 .75085 100.16 126.8)" stroke="#fff" stroke-linejoin="round" stroke-linecap="round" stroke-width="4.792"/></g></g></g></svg>