<svg xmlns="http://www.w3.org/2000/svg" viewBox="0 0 48 48"><defs><linearGradient id="0" gradientUnits="userSpaceOnUse" y1="17.529" x2="0" y2="-31.27"><stop stop-color="#0a80fd"/><stop offset="1" stop-color="#56c5fa"/></linearGradient></defs><g transform="matrix(.99999 0 0 .99999-23.371 30.722)" enable-background="new"><circle r="24" cy="-6.715" cx="47.37" fill="url(#0)"/><path d="M47.375-24.630859A18.15655 18.15655 0 0 0 29.21875 -6.474609 18.15655 18.15655 0 0 0 47.375 11.681641 18.15655 18.15655 0 0 0 65.53125 -6.474609 18.15655 18.15655 0 0 0 47.375 -24.630859m-3.607 10.574c.286.0001.572.111.789.33.435.438.432 1.145-.006 1.58l-6.096 6.05 6.05 6.096c.435.438.432 1.145-.006 1.58-.438.435-1.145.433-1.58-.006l-6.84-6.889c-.217-.219-.327-.505-.326-.791.0001-.286.111-.571.33-.789l6.891-6.84c.219-.218.505-.325.791-.324zm6.813 0c.286-.0001.574.107.793.324l6.889 6.84c.219.218.329.503.33.789.0001.286-.107.572-.324.791l-6.84 6.889c-.435.438-1.142.441-1.58.006-.438-.435-.441-1.142-.006-1.58l6.05-6.096-6.096-6.05c-.438-.435-.441-1.142-.006-1.58.217-.219.503-.329.789-.33" fill="#fff" fill-opacity=".846"/></g></svg>