<svg xmlns="http://www.w3.org/2000/svg" xmlns:xlink="http://www.w3.org/1999/xlink" viewBox="0 0 48 48"><defs><linearGradient xlink:href="#1" id="0" gradientUnits="userSpaceOnUse" x1="409.24" y1="548.5" x2="409.63" y2="499.31"/><linearGradient id="1"><stop stop-color="#69159f"/><stop offset="1" stop-color="#b92ff5"/></linearGradient><linearGradient xlink:href="#1" id="2" x1="409.24" y1="547.86" x2="409.62" y2="499.95" gradientUnits="userSpaceOnUse"/></defs><g transform="matrix(.98188 0 0 .98188-377.83-490.56)"><circle r="24.443" cy="524.05" cx="409.24" fill="url(#0)"/><circle r="23.81" cy="524.05" cx="409.24" fill="none" stroke="url(#2)" stroke-width="1.018"/><g transform="matrix(1.74592 0 0 1.74592 278.66 482.81)" enable-background="new" fill="#fff" fill-opacity=".85"><path d="m83.68 28.418c.203.348.187.781-.037 1.115-2.492 3.722-7.185 5.609-11.724 4.335-3.519-.987-6.239-3.668-7.295-7.116-.046-.149-.18-.251-.336-.25l-1.245.005c-.271.0001-.441-.291-.306-.526l2.11-3.686.416-.729c.134-.235.473-.237.609-.003l.711 1.219 1.853 3.176c.136.234-.031.527-.302.529l-1.376.006c.92 2.587 3.034 4.589 5.731 5.346 3.64 1.021 7.401-.49 9.396-3.474.435-.65 1.388-.644 1.782.032l.013.022"/><path d="m85.04 20.746c-1-3.567-3.769-6.354-7.37-7.364-4.542-1.274-9.232.613-11.724 4.335-.224.334-.24.768-.037 1.115l.013.022c.394.675 1.348.682 1.782.032 1.994-2.984 5.753-4.496 9.396-3.474 2.694.756 4.809 2.755 5.729 5.342l-1.376.006c-.271.0001-.438.295-.302.529l1.855 3.18.711 1.219c.136.234.475.232.609-.003l.416-.729 2.108-3.69c.134-.235-.036-.527-.307-.526l-1.504.007"/></g></g></svg>