<svg xmlns="http://www.w3.org/2000/svg" viewBox="0 0 48 48"><defs><linearGradient id="3" gradientUnits="userSpaceOnUse" gradientTransform="matrix(.4084-.0003.00031.38931 36.647-88.77)" x1="23.69" y1="264.74" x2="24.303" y2="154.71"><stop stop-color="#4fd127"/><stop offset="1" stop-color="#c6f61a"/></linearGradient><linearGradient id="2" gradientUnits="userSpaceOnUse" gradientTransform="matrix(.4084-.0003.00031.38931 36.647-88.77)" x1="23.69" y1="264.74" x2="24.303" y2="154.71"><stop stop-color="#eb4646"/><stop offset="1" stop-color="#ff8651"/></linearGradient><linearGradient y2="147.64" x2="3.419" y1="204.55" x1=".967" gradientUnits="userSpaceOnUse" id="0" gradientTransform="matrix(.4084-.0003.00031.38931 36.751-88.66)"><stop stop-color="#ffbc00"/><stop offset="1" stop-color="#ffec00"/></linearGradient><linearGradient gradientTransform="matrix(.4084-.0003.00031.38931 36.647-88.77)" id="1" gradientUnits="userSpaceOnUse" x1="23.69" y1="264.74" x2="26.18" y2="157.46"><stop stop-color="#0976da"/><stop offset="1" stop-color="#5de5f0"/></linearGradient></defs><g transform="matrix(.99999 0 0 .99999-38.37 25.882)" enable-background="new"><g transform="matrix(1.06644 0 0 1.06644 12.839 6.423)" fill-rule="evenodd"><path d="m27.08-30.28h19.505v22.563h-22.608v-19.653c0-3.124 2.938-2.91 3.103-2.91" fill="url(#0)"/><path d="m26.978 14.721h19.505v-22.563h-22.608v19.653c0 3.124 2.938 2.91 3.103 2.91" fill="url(#2)"/><path d="m65.922-30.28h-19.505v22.563h22.608v-19.653c0-3.124-2.938-2.91-3.103-2.91" fill="url(#3)"/><path d="m65.875 14.72h-19.505v-22.563h22.608v19.653c0 3.124-2.938 2.91-3.103 2.91" fill="url(#1)"/></g><path d="m59.998-14.963l.19.04c2.207-.733 7.16 2.153 6.06 4.725-.28.404-.232 1.121.105 1.573l-6.194 6.185c-.347-.346-1.118-.339-1.473 0l-10.243 9.814c-.934.895-.2 1.655.195 2.056l1.837 1.834c.402.399 1.463.937 2.217.14l9.667-10.17c.337-.354.34-1.114 0-1.463 0 0 .005-.005 0-.005l6.219-6.205c.657.591 1.277.642 1.865.481 1.136-.31 1.769.799 2.449 1.61l-.307.302c-.454.459-.412 1.231.097 1.74.509.508 1.286.551 1.74.097l2.032-2.026c.454-.459.412-1.231-.1-1.737-.459-.461-1.126-.521-1.59-.192-1.393-1.56-.662-1.794-2.499-3.825l-3.443-3.511c-2.479-2.427-5.7-2.425-8.82-1.46" opacity=".9" fill="#fff" fill-opacity=".85"/></g></svg>