<svg xmlns="http://www.w3.org/2000/svg" xmlns:xlink="http://www.w3.org/1999/xlink" viewBox="0 0 48 48"><defs><linearGradient xlink:href="#1" id="9" x1="-547.09" y1="610.48" x2="-550.77" y2="547.63" gradientUnits="userSpaceOnUse"/><linearGradient xlink:href="#1" id="A" gradientUnits="userSpaceOnUse" x1="-532.95" y1="553.43" x2="-566.61" y2="527.72"/><linearGradient xlink:href="#E" id="F" x1="-973.36" y1="656.65" x2="-974.07" y2="608.43" gradientUnits="userSpaceOnUse"/><linearGradient id="B" x1="-547.97" y1="796.63" x2="-549.62" y2="579.12" gradientUnits="userSpaceOnUse"><stop stop-color="#ff9300"/><stop offset="1" stop-color="#ffd702"/></linearGradient><linearGradient xlink:href="#E" id="D" x1="-1007.5" y1="656.65" x2="-1008.21" y2="608.43" gradientUnits="userSpaceOnUse"/><linearGradient id="E"><stop stop-color="#161719"/><stop offset="1" stop-color="#424649"/></linearGradient><linearGradient xlink:href="#1" id="C" x1="-547.6" y1="715.9" x2="-548.97" y2="592.41" gradientUnits="userSpaceOnUse"/><linearGradient xlink:href="#1" id="8" x1="-593.7" y1="606.68" x2="-632.97" y2="581.68" gradientUnits="userSpaceOnUse"/><linearGradient xlink:href="#1" id="0" gradientUnits="userSpaceOnUse" x1="-620.17" y1="588.04" x2="-653.83" y2="562.33"/><linearGradient id="1"><stop stop-color="#ffbc00"/><stop offset="1" stop-color="#ffec00"/></linearGradient><linearGradient xlink:href="#1" id="7" x1="-609.7" x2="-649.12" gradientUnits="userSpaceOnUse"/><linearGradient xlink:href="#1" id="2" x1="-546.7" y1="728.46" x2="-546.89" y2="757.39" gradientUnits="userSpaceOnUse"/><linearGradient xlink:href="#1" id="3" x1="-594.72" y1="693.31" x2="-623.47" y2="725.15" gradientUnits="userSpaceOnUse"/><linearGradient xlink:href="#1" id="6" x1="-482.49" x2="-439.06" gradientUnits="userSpaceOnUse"/><linearGradient xlink:href="#1" id="4" x1="-504.62" y1="699.02" x2="-468.02" y2="725.15" gradientUnits="userSpaceOnUse"/><linearGradient xlink:href="#1" id="5" x1="-483.59" x2="-437.96" gradientUnits="userSpaceOnUse"/></defs><g transform="matrix(.20118 0 0 .20118 133.81-105.94)"><g><g transform="matrix(-1 0 0 1-1091.92 6.7)"><g><g fill-rule="evenodd" stroke-linejoin="round" stroke-linecap="round" stroke-width="2.2"><path d="m-566.7 720.02l21.21 37.38 23.23-37.881z" transform="matrix(-1 0 0 1-1091.93 0)" fill="url(#2)" stroke="url(#2)"/><path d="m-608.58 684.83l-14.888 41.25 47.647-11.534z" transform="matrix(-1 0 0 1-1091.93 0)" fill="url(#3)" stroke="url(#3)"/><path d="m-482.91 684.82l14.888 41.25-47.647-11.534z" transform="matrix(-1 0 0 1-1091.93 0)" fill="url(#4)" stroke="url(#4)"/><path d="m-477.44 632.82l38.39 21.21-43.44 22.728z" transform="matrix(-1 0 0 1-1091.93 0)" fill="url(#5)" stroke="url(#6)"/><path d="m-614.17 633.65l-38.39 21.21 43.44 22.728z" transform="matrix(-1 0 0 1-1091.93 0)" fill="url(#7)" stroke="url(#7)"/></g><g><g transform="matrix(-1 0 0 1-1091.93 0)"><use xlink:href="#G"/><circle cx="-632.36" cy="573.04" r="18.527" fill="url(#0)"/></g><path d="m-628.82 583.65l22.22 57.58 34.35-52.53-58.59-15.15z" fill="url(#8)" fill-rule="evenodd" id="G"/><g><path d="m-556.89 548.8l-20.2 50.51h60.61l-22.22-50.51z" transform="matrix(-1 0 0 1-1091.93 0)" fill="url(#9)" fill-rule="evenodd"/><circle cy="538.43" cx="-545.14" r="18.527" fill="url(#A)"/></g></g></g><circle cx="-632.36" cy="573.04" r="18.527" fill="url(#0)"/></g><ellipse cx="-545.81" cy="656.9" rx="75.49" ry="75.26" fill="url(#B)"/><ellipse cx="-545.81" cy="656.9" rx="62.59" ry="62.4" fill="url(#C)"/></g><g transform="translate(443.55 17.968)"><ellipse ry="21.429" rx="10.714" cy="630.93" cx="-1006.43" fill="url(#D)"/><ellipse ry="21.429" rx="10.714" cy="630.93" cx="-972.29" fill="url(#F)"/></g></g></svg>