<svg xmlns="http://www.w3.org/2000/svg" viewBox="0 0 48 48"><defs><linearGradient gradientUnits="userSpaceOnUse" y2="227.95" x2="-424.98" y1="519.48" x1="-423.09" id="0"><stop stop-color="#e01728"/><stop offset="1" stop-color="#ff566a"/></linearGradient><linearGradient y2="23.362" x2="-208.33" y1="315.36" x1="-206.67" gradientTransform="matrix(.99785 0 0 1-218.94 203)" gradientUnits="userSpaceOnUse" id="1"><stop stop-color="#c71625"/><stop offset="1" stop-color="#ff6d7b"/></linearGradient><linearGradient id="2" y1="446.04" x2="0" y2="304.47" gradientUnits="userSpaceOnUse"><stop stop-color="#f7abb2"/><stop offset="1" stop-color="#f9dce0"/></linearGradient></defs><g transform="matrix(.099 0 0 .099 65.889-9.608)"><path d="m43.887-36.699c-1.108 0-2 .892-2 2v38.729l111 .24v-29.08c0-1.108-.892-2-2-2h-60.17c-2.039.18-2.301-.09-3.308-1.435-1.429-1.912-3.586-5.145-4.992-7.01-1.129-1.633-1.312-1.443-3.184-1.443z" fill="#e64150" color="#000" transform="matrix(-4.16765 0 0 4.16765-18.57 316.72)"/><rect width="463.85" height="295.13" x="-655.5" y="225.84" fill="url(#0)" rx="9.63"/><rect width="462.85" height="295.13" x="-654.92" y="225.8" fill="none" stroke="url(#1)" stroke-linecap="round" stroke-width="2" rx="9.63"/><path d="m-472.99 304.47l-26.544 123.87h26.544l11.509-53.09h65.17l-58.981 53.09 17.696 17.696c26.544-17.696 53.09 14.157 79.63-12.387l-5.305-21.242-7.967 6.204c-12.02 6.907-21.901-.871-35.927-3.01l40.35-40.35 8.848-26.544h-97.33l4.424-17.696h66.36l8.848-26.544z" fill="url(#2)" fill-rule="evenodd"/></g></svg>