<svg xmlns="http://www.w3.org/2000/svg" viewBox="0 0 48 48"><defs><linearGradient id="0" x1="249.94" y1="-1.192" x2="249.97" y2="-30.34" gradientUnits="userSpaceOnUse"><stop stop-color="#a0d5ff"/><stop offset="1" stop-color="#edf7f7"/></linearGradient><linearGradient gradientTransform="matrix(1.0478 0 0 .99815 44.42 7.936)" gradientUnits="userSpaceOnUse" y2="504.66" x2="409.81" y1="544.81" x1="409.56" id="1"><stop stop-color="#197cf1"/><stop offset="1" stop-color="#20bcfa"/></linearGradient><linearGradient gradientTransform="matrix(1.09091 0 0 1.03922-37.15-17.741)" gradientUnits="userSpaceOnUse" y2="504.66" x2="409.81" y1="544.81" x1="409.56" id="2"><stop stop-color="#a0d5ff"/><stop offset="1" stop-color="#fff"/></linearGradient></defs><g transform="translate(-384.57-499.8)"><g transform="matrix(1.04115 0 0 1.04115-83.39-26)"><path transform="matrix(.41386 0 0 .41663 366.98 519.7)" d="m204.25-29.481c-1.108 0-2 .892-2 2v81.61l104.06.24v-70.04c0-1.108-.892-2-2-2h-48.601c-2.039.18-2.301-.09-3.308-1.435-1.429-1.912-3.586-7.06-4.992-8.929-1.129-1.633-1.312-1.443-3.184-1.443z" fill="url(#0)" color="#000"/><rect width="46.1" height="33.937" x="449.47" y="514.8" fill="url(#1)" rx="1.597"/></g><path d="m409.1 509.97h21.803c.921 0 1.663.742 1.663 1.663v32.01c0 .921-.742 1.663-1.663 1.663h-18.756c-1.969-5.614-2.062-10.946-1.09-16.12h-6.94c-.196-6.489 1.954-12.872 4.984-19.215" opacity=".85" fill="url(#2)"/></g></svg>