<svg xmlns="http://www.w3.org/2000/svg" viewBox="0 0 48 48"><defs><linearGradient id="5" x1="-226.75" x2="-170.39" gradientUnits="userSpaceOnUse"><stop stop-color="#de4000"/><stop offset="1" stop-color="#fab600"/></linearGradient><linearGradient id="4" x1="-335.91" y1="120.49" x2="-268.99" y2="82.48" gradientUnits="userSpaceOnUse"><stop stop-color="#ec3a00"/><stop offset="1" stop-color="#ffb900" stop-opacity=".016"/></linearGradient><linearGradient id="6" x1="-262.74" y1="196.2" x2="-132.2" y2="241.35" gradientUnits="userSpaceOnUse" gradientTransform="matrix(1 0 0 1.0085 2.747 1.166)"><stop stop-color="#f24d00"/><stop offset="1" stop-color="#ffb000"/></linearGradient><linearGradient id="3" gradientUnits="userSpaceOnUse" x1="276.07" y1="521.3" x2="263.68" y2="24.896"><stop stop-color="#fc5500"/><stop offset="1" stop-color="#ffc200"/></linearGradient><linearGradient id="1" gradientUnits="userSpaceOnUse" y1="537.65" x2="0" y2="494.02"><stop stop-color="#178aff"/><stop offset="1" stop-color="#1bbded"/></linearGradient><linearGradient id="0" gradientUnits="userSpaceOnUse" y1="542.2" x2="0" y2="526.2"><stop stop-color="#d0d0d0"/><stop offset="1" stop-color="#f1eeee"/></linearGradient><linearGradient id="2" gradientUnits="userSpaceOnUse" x1="395.93" y1="539.09" x2="396.05" y2="513.03"><stop stop-color="#5043e2"/><stop offset="1" stop-color="#418dff"/></linearGradient></defs><g transform="matrix(.12911 0 0 .12911 45.519-3.628)" fill="url(#1)"><circle r="13.408" cx="396.62" cy="526.61" transform="matrix(13.0743 0 0 13.0743-5346.94-6674.14)" fill="url(#2)"/><path d="m334.58 501.66c-2.546 0-4.969.486-7.209 1.338-.163.15-.375.265-.542.25-.023-.002-.046-.017-.069-.026-1.104.462-2.151 1.028-3.144 1.67.129.209.167.443-.099.556-.045.019-.606.076-.802.071-2.824 2.052-5.089 4.811-6.536 8.03.023-.003.043-.014.067-.016.22-.003.536.06.747.104.195.04.352.171.52.183.478.036.593-.336.984-.544.403.057.671-.068 1.035-.028.248.028.427.293.621.308.163.016.306-.152.463-.128.153.024.417.357.442.544.032.233-.171.442-.104.698.244.248.687.299 1.035.442.227-.187.03-.534 0-.804-.003-.119.016-.225 0-.335-.021-.186-.101-.357-.103-.516-.003-.736.594-1.081 1.088-1.372.214-.127.382-.349.568-.442.262-.131.457-.162.674-.284.392-.22.728-.397 1.035-.647.142-.334.014-.782.026-1.112.142-.087.264.038.414.026.237-.049.256-.383.39-.516.078-.077.291-.131.388-.207.236-.185.312-.464.518-.544.074-.03.244-.022.361-.053.153-.041.371-.222.621-.308.163-.057.535-.068.597-.13.077-.078-.0001-.297.026-.414.125-.584 1.01-.708 1.526-.905.365-.138.739-.391 1.139-.313-.079.278-.452.179-.388.516.087.468.714-.134.879-.203.316-.133.857-.214 1.271-.365.363-.133 1.015-.335.672-.751-.286-.016-.423.335-.672.442-.172.028-.139-.144-.286-.158-.139-.016-.217.129-.361.104-.142-.024-.342-.247-.365-.414-.057-.432.365-.61.544-.932-.118-.391-.659-.08-.986-.233.031-.233.272-.393.544-.438.223-.038.723-.018.855.1.077.065.004.229.13.337.132.119.294.107.465.079.062-.295-.383-.221-.335-.416.35-.229.918-.041 1.346-.104.246-.036.505-.21.723-.333.208-.118.477-.324.698-.13.06.211-.192.281-.309.386-.396.352-.804.756-1.112 1.165.189.184.532.092.852.13.125.016.282.053.414.077.154.028.319.02.44.051.217.053.276.286.491.286.354-.0001.358-.384.158-.623.063-.244.163-.371.077-.542-.159-.319-.745-.016-.775-.414-.019-.258.216-.247.309-.44-.043-.499.409-.535.361-.982-.021-.187-.179-.19-.309-.365-.065-.086-.1-.251-.175-.325-.604-.054-1.215-.087-1.833-.087m-10.416 4.072h.002c.121.017.266.147.412.158.138.003.252-.076.337-.053.216.057.308.384.104.544-.169.021-.235-.074-.363-.051-.351.06-.486.748-.749.725-.248-.021-.382-.625-.13-.804.016-.157-.114-.182-.106-.337.075-.095.287-.198.493-.181m-1.165.081c.072.002.126.02.154.051-.034.276-.25.258-.463.386-.368.222-.581.56-.698 1.035-.034.138-.397.504-.572.467-.41-.087.113-.843.207-.958.104-.127.243-.239.365-.386.118-.142.195-.335.309-.414.125-.087.482-.19.698-.181m3.063.93c.131.002.25.024.304.077-.084.342-.821.252-1.09.128.017-.129.219-.164.388-.181.119-.003.267-.028.398-.024m-1.675.631c.087-.002.176.017.268.041-.238.199-.496.312-.905.442-.197.062-.536.139-.57-.081-.041-.269.288-.207.467-.231.226-.031.474-.163.739-.171m25.704 1.534c-.031.073-.053.146-.049.217.016.125.153.245.183.414.016.089-.042.283 0 .365.125.242.451.068.684.081-.265-.365-.53-.731-.818-1.076m1.323 1.78c-.037.178-.158.411-.256.56-.226.343-.532.359-.855.542-.27.153-.386.408-.544.674-.171.287-.278.461-.207.877-.231.459-.581.74-1.06.958-.142.064-.335.087-.465.181-.104.074-.162.274-.309.44-.182.202-.372.287-.467.442-.074.119-.1.356-.181.516-.11.217-.346.324-.491.544-.066.102-.11.308-.183.442-.164.298-.444.513-.414.775.03.253.317.298.337.518.003.125-.082.201-.077.337.003.199.138.338.154.491.038.384-.131.538-.203.8-.034.125-.02.267-.053.365-.063.192-.332.366-.337.593-.002.162.166.292.179.518.003.156-.077.323-.049.467.055.282.558.609.777.828.293.293.676.519.802.828.106.262.105.603.309.8.151.146.402.237.595.388.18.142.377.264.57.414.315.246.791.738 1.293.7.262-.019.531-.233.828-.286.306-.055.703-.083 1.011-.051.236.024.48.165.725.154.259-.016.557-.208.852-.337.237-.103.528-.218.848-.302.146-.985.225-1.993.225-3.02 0-4.133-1.236-7.964-3.351-11.157m-33.383 6.783c-.43.024-.712.043-.956.154-.56.255-.452 1.012-1.011 1.191-.194.062-.459.065-.672.104-.184.034-.408.134-.597.13-.053-.0001-.127-.04-.193-.061-.05.355-.091.714-.122 1.074.532.102.807.807 1.277 1.041.129.064.297.067.463.104.134.03.236.087.365.13.274.093.609.082.828.179.33.146.572.766.855.932.016.167-.033.392.026.516.134.182.323.142.544.26.264.142.345.51.595.623.087.038.303.034.44.075.343.104.455.501.749.414.193-.057.178-.255.209-.44.127-.138.267-.357.465-.361.322-.016.35.332.467.645.066.176.239.33.284.516.08.322.04 1.284-.028 1.476-.081.236-.4.336-.597.597-.093.123-.137.302-.207.388-.127.154-.315.195-.41.337-.053.08-.105.252-.158.361-.155.329-.363.563-.233.958.055.163.309.272.309.463.0001.225-.479.427-.516.674-.028.184.149.512.207.751.043.181.384.294.491.414.182.204.327.493.493.749.328.504.585 1.118.905 1.606.169.256.406.486.518.751.057.134.05.294.102.414.185.417 1 .853 1.423 1.06.197.096.416.13.597.231.274.153.818.564.956.804.123.216.2.742.26 1.086.08.454.0001.803.026 1.295.016.266.102.534.104.8.0001.093-.049.163-.053.258 0 .016.004.033.004.049 2.542 1.15 5.359 1.806 8.34 1.806.539 0 1.071-.028 1.599-.069.023-.04.044-.081.073-.118.121-.159.229-.299.309-.44.077-.473-.188-.803-.077-1.216.124-.465.766-.748 1.216-.958.155-.072.313-.189.44-.233.312-.108.701-.05.986-.154.485-.177.536-.698.775-1.139.113-.209.262-.419.284-.568.019-.134-.049-.26-.028-.418.023-.156.164-.291.207-.463.057-.224.081-.553.081-.802 0-.205-.096-.385-.104-.57-.034-.671.242-.746.491-1.112.125-.181.171-.388.258-.518.417-.622 1.14-.922 1.088-1.863-.017-.311-.213-1.014-.442-1.114-.131-.057-.431-.003-.621-.077-.612-.228-.971-.986-1.605-1.035-.135-.016-.26.055-.412.053-.251-.016-.629-.176-.907-.207-.176-.019-.412.053-.518 0-.162-.079-.178-.376-.309-.465-.104-.072-.307-.096-.465-.158-.255-.098-.457-.212-.751-.233-.091-.003-.204.044-.309.028-.163-.028-.291-.22-.442-.311-.188-.114-.362-.17-.44-.333.17-.557-.3-.713-.414-1.035-.055-.151-.03-.333-.077-.467-.068-.193-.258-.304-.467-.465-.374-.288-.707-.559-1.242-.625-.235-.03-.469.071-.753.053-.301-.019-.679-.283-.905-.54-.219-.251-.326-.477-.516-.597-.181-.116-.421-.113-.544-.231-.055-.051-.046-.139-.104-.26-.091-.188-.243-.293-.13-.518-.206-.106-.212.197-.438.158-.201-.286-.371-.421-.828-.337-.209.038-.326.303-.57.309-.2.016-.357-.223-.621-.26-.199-.028-.426.054-.568.028-.221-.044-.289-.228-.491-.361-.148-.097-.435-.263-.518-.26-.26.016-.445.553-.804.363-.174-.221.284-.337.077-.544-.157-.157-.289.071-.414.158-.144.099-.279.197-.438.256-.355.133-.578.063-.855.207-.257.133-.268.356-.414.621-.119.217-.391.533-.57.546-.217.016-.424-.303-.621-.388-.593-.257-.88.228-1.372.235-.457.016-1.109-.738-1.086-1.167.003-.262.151-.659.181-.984.028-.258.204-.413.207-.649.003-.314-.417-.556-.621-.593-.483-.089-1.155.195-1.709-.028-.106-.175.124-.297.183-.467.034-.097.014-.226.049-.333.061-.165.234-.293.311-.467.058-.133.072-.325.13-.491.068-.188.192-.309.207-.442.019-.174-.047-.376-.183-.491m6.918 5.478c.175.016.197.379.018.408-.194.03-.292-.303-.104-.39.032-.016.062-.017.087-.016v-.002" transform="matrix(8.69668 0 0 8.69668-3070.7-4327.53)" opacity=".447" fill="#272370"/><path d="m532.57 174.03l-6.178 39.625c0 0-8.829-73.36-19.651-100.79-16.587-42.03-23.966-41.688-24.02-41.626 11.11 28.23 9.09 43.4 9.09 43.4 0 0-19.683-53.645-71.72-70.71-57.649-18.897-88.84-13.73-92.44-12.753-.547-.004-1.075-.005-1.577-.005.424.033.839.077 1.263.11-.019.011-.047.022-.042.028.233.285 63.7 11.09 74.956 26.56 0 0-26.958 0-53.787 7.731-1.213.347 98.71 12.481 119.14 112.33 0 0-10.955-22.852-24.502-26.733 8.909 27.1 6.622 78.53-1.862 104.09-1.092 3.287-2.209-14.209-18.921-21.745 5.355 38.36-.32 99.2-26.931 115.95-2.074 1.305 16.682-60.06 3.771-36.33-74.33 113.96-162.19 52.59-201.69 25.579 20.243 4.406 58.674-.686 75.68-13.341.022-.015.04-.028.062-.045 18.473-12.631 29.412-21.854 39.24-19.672 9.83 2.194 16.374-7.671 8.739-16.423-7.644-8.769-26.2-20.821-51.31-14.254-17.708 4.638-39.654 24.23-73.15 4.392-25.71-15.234-28.13-27.889-28.359-36.654.634-3.107 1.434-6.01 2.383-8.659 2.959-8.265 11.933-10.759 16.924-12.728 8.467 1.454 15.761 4.095 23.421 8.02.099-2.549.131-5.933-.009-9.771.734-1.459.28-5.86-.897-11.24-.678-5.369-1.781-10.924-3.517-15.985.006-.0001.001-.005.016-.007.029-.001.056-.021.082-.037.041-.023.076-.059.108-.099.006-.001.016-.017.023-.027.043-.064.08-.142.103-.243.531-2.405 6.262-7.04 13.395-12.03 6.392-4.469 13.907-9.217 19.827-12.892 5.24-3.254 9.229-5.668 10.08-6.301.321-.243.707-.527 1.127-.852.078-.061.156-.121.236-.185.049-.038.099-.077.149-.117 2.817-2.244 7.02-6.483 7.905-15.405.002-.022.005-.042.006-.064.026-.262.048-.528.067-.799.015-.188.026-.378.038-.571.007-.148.017-.295.023-.445.016-.352.026-.711.031-1.075 0-.021.0001-.04.002-.061.012-.864-.003-1.764-.054-2.709-.028-.528-.065-1-.155-1.438-.004-.023-.001-.048-.015-.071-.009-.042-.019-.085-.03-.127-.019-.076-.04-.152-.063-.224-.003-.009-.006-.017-.009-.024-.027-.083-.058-.164-.09-.242-.002-.003-.002-.005-.003-.008-.913-2.139-4.333-2.947-18.459-3.187-.013-.0001-.026-.0001-.039-.0001-5.764-.098-13.301-.102-23.18-.062-17.317.07-26.889-16.929-29.944-23.506 4.188-23.16 16.29-39.657 36.17-50.847.376-.212.302-.387-.142-.509 3.887-2.352-47-.064-70.41 29.707-20.775-5.164-38.882-4.816-54.49-1.154-2.997-.084-6.731-.458-11.164-1.381-10.379-9.404-25.24-26.772-26.03-47.5 0 0-.048.038-.131.106-.011-.199-.03-.396-.038-.595 0 0-31.623 24.304-26.89 90.56-.012 1.061-.034 2.076-.062 3.06-8.558 11.608-12.805 21.365-13.12 23.519-7.581 15.44-15.276 38.675-21.538 73.949 0 0 4.379-13.888 13.169-29.618-6.464 19.803-11.544 50.603-8.561 96.8 0 0 .789-10.243 3.58-24.997 2.181 28.652 11.729 64.02 35.864 105.62 46.33 79.85 117.54 120.18 196.25 126.36 13.977 1.152 28.15 1.179 42.41.096 1.311-.092 2.621-.188 3.931-.299 16.13-1.132 32.361-3.568 48.562-7.481 221.44-53.54 197.37-320.94 197.37-320.94" transform="matrix(.6971 0 0 .69604-352.55 42.24)" fill="url(#3)"/><g fill-rule="evenodd"><path d="m-328.74 133.5c9.444-17.436 18.319-28.874 37.579-32.29-10.833-10.328-13.918-16.07-18.906-33.725-19.268 20.841-19.14 42.494-18.673 66.01" fill="url(#4)"/><path d="m-208.66 177.1c11.229-14.766 46.34-22.761 36.03-43.12-24.18-6.162-39.33 5.305-48.945-17.389-8.297 31.981 2.876 47.39 12.917 60.51" fill="url(#5)"/><path d="m-228.84 197.98c-47.28 4.698-39.13 30.09-35.778 55.49l12.11-10.09c8.495 24.705 58.644 20.754 86.45 12.11 12.664-3.938 23.918-2.969 28.817-.962 13.796 2.961 12.874-8.73 6.842-12.208-33.02-37.592-63.52 34.659-104.22-26.704-2.488-3.752-.037-9.9 5.786-17.635" fill="url(#6)"/></g></g></svg>