<?xml version="1.0" encoding="UTF-8" standalone="no"?>
<svg
   xmlns:dc="http://purl.org/dc/elements/1.1/"
   xmlns:cc="http://creativecommons.org/ns#"
   xmlns:rdf="http://www.w3.org/1999/02/22-rdf-syntax-ns#"
   xmlns:svg="http://www.w3.org/2000/svg"
   xmlns="http://www.w3.org/2000/svg"
   xmlns:xlink="http://www.w3.org/1999/xlink"
   xmlns:sodipodi="http://sodipodi.sourceforge.net/DTD/sodipodi-0.dtd"
   xmlns:inkscape="http://www.inkscape.org/namespaces/inkscape"
   width="48"
   height="48"
   version="1.1"
   id="svg38"
   sodipodi:docname="gi.svg"
   inkscape:version="0.91 r13725">
  <metadata
     id="metadata42">
    <rdf:RDF>
      <cc:Work
         rdf:about="">
        <dc:format>image/svg+xml</dc:format>
        <dc:type
           rdf:resource="http://purl.org/dc/dcmitype/StillImage" />
      </cc:Work>
    </rdf:RDF>
  </metadata>
  <sodipodi:namedview
     pagecolor="#ffffff"
     bordercolor="#666666"
     borderopacity="1"
     objecttolerance="10"
     gridtolerance="10"
     guidetolerance="10"
     inkscape:pageopacity="0"
     inkscape:pageshadow="2"
     inkscape:window-width="1920"
     inkscape:window-height="1050"
     id="namedview40"
     showgrid="false"
     inkscape:zoom="4.9166666"
     inkscape:cx="6.7677268"
     inkscape:cy="60.007911"
     inkscape:window-x="0"
     inkscape:window-y="0"
     inkscape:window-maximized="1"
     inkscape:current-layer="svg38" />
  <defs
     id="defs22">
    <linearGradient
       id="linearGradient4488">
      <stop
         id="stop4490"
         style="stop-color:#000000;stop-opacity:0.046875"
         offset="0" />
      <stop
         id="stop4492"
         style="stop-color:#000000;stop-opacity:0"
         offset="1" />
    </linearGradient>
    <linearGradient
       id="linearGradient4154">
      <stop
         offset="0"
         style="stop-color:#000000;stop-opacity:1"
         id="stop2" />
      <stop
         offset="1"
         style="stop-color:#000000;stop-opacity:0"
         id="stop4" />
    </linearGradient>
    <linearGradient
       id="linearGradient4192">
      <stop
         style="stop-color:#272b2d;stop-opacity:1"
         offset="0"
         id="stop7" />
      <stop
         style="stop-color:#33393e;stop-opacity:1"
         offset="1"
         id="stop9" />
    </linearGradient>
    <linearGradient
       id="linearGradient4140">
      <stop
         style="stop-color:#279646;stop-opacity:1"
         offset="0"
         id="stop12" />
      <stop
         style="stop-color:#76ff68;stop-opacity:1"
         offset="1"
         id="stop14" />
    </linearGradient>
    <linearGradient
       xlink:href="#linearGradient4140"
       id="linearGradient4146"
       x1="24.705"
       y1="43.939"
       x2="25.061"
       y2="4.405"
       gradientUnits="userSpaceOnUse"
       gradientTransform="translate(-51.050847)" />
    <linearGradient
       xlink:href="#linearGradient4192"
       id="linearGradient4166"
       x1="31"
       y1="34"
       x2="31"
       y2="24"
       gradientUnits="userSpaceOnUse" />
    <linearGradient
       xlink:href="#linearGradient4192"
       id="linearGradient4168"
       x1="18"
       y1="34"
       x2="18"
       y2="24"
       gradientUnits="userSpaceOnUse" />
    <linearGradient
       xlink:href="#linearGradient4154"
       id="linearGradient4182"
       x1="13"
       y1="24"
       x2="30"
       y2="41"
       gradientUnits="userSpaceOnUse" />
    <linearGradient
       xlink:href="#linearGradient4154"
       id="linearGradient4190"
       x1="29"
       y1="26"
       x2="36"
       y2="33"
       gradientUnits="userSpaceOnUse" />
    <style
       id="style4511">.cls-1{fill:#8e8e8e;}.cls-2{fill:none;stroke:#8e8e8e;stroke-linecap:square;stroke-miterlimit:10;}</style>
    <linearGradient
       gradientUnits="userSpaceOnUse"
       x2="13"
       y2="4"
       x1="43"
       y1="40"
       id="a">
      <stop
         id="stop2-36753"
         stop-color="#f27935" />
      <stop
         id="stop4-562"
         stop-color="#f2784b"
         offset="1" />
    </linearGradient>
    <linearGradient
       gradientUnits="userSpaceOnUse"
       x2="38"
       y2="41"
       x1="24.13"
       y1="27.13"
       id="b">
      <stop
         id="stop7-912"
         stop-color="#292c2f" />
      <stop
         id="stop9-70"
         stop-opacity="0"
         offset="1" />
    </linearGradient>
    <linearGradient
       id="a-36753"
       y1="527.8"
       y2="504.8"
       gradientUnits="userSpaceOnUse"
       x2="0"
       gradientTransform="translate(-384.57 504.56)">
      <stop
         stop-color="#ffffff"
         id="stop2-56" />
      <stop
         offset="1"
         stop-color="#ffffff"
         stop-opacity="0"
         id="stop4-29" />
    </linearGradient>
    <linearGradient
       id="b-1"
       y1="4"
       x1="8"
       y2="18"
       gradientUnits="userSpaceOnUse"
       x2="22"
       gradientTransform="translate(-3.0508475,1008.6312)">
      <stop
         stop-color="#292c2f"
         id="stop7-27" />
      <stop
         offset="1"
         stop-opacity="0"
         id="stop9-0" />
    </linearGradient>
    <linearGradient
       id="c"
       y1="520.8"
       y2="503.8"
       gradientUnits="userSpaceOnUse"
       x2="0"
       gradientTransform="translate(-384.57 504.56)">
      <stop
         stop-color="#197cf1"
         id="stop12-936" />
      <stop
         offset="1"
         stop-color="#20bcfa"
         id="stop14-06" />
    </linearGradient>
    <linearGradient
       id="d"
       y1="1050.34"
       y2="1038.36"
       gradientUnits="userSpaceOnUse"
       x2="0"
       gradientTransform="matrix(-2.83522 0 0 2.83875 47.655-1933.28)">
      <stop
         stop-color="#c61423"
         id="stop17" />
      <stop
         offset="1"
         stop-color="#dc2b41"
         id="stop19" />
    </linearGradient>
    <linearGradient
       id="e"
       y1="543.8"
       y2="503.8"
       gradientUnits="userSpaceOnUse"
       x2="0"
       gradientTransform="matrix(1.125 0 0 1-435.64 504.56)">
      <stop
         stop-color="#1d1e1e"
         id="stop22" />
      <stop
         offset="1"
         stop-color="#44484c"
         id="stop24" />
    </linearGradient>
    <linearGradient
       gradientTransform="translate(7.9999995,-1)"
       x2="28.613508"
       gradientUnits="userSpaceOnUse"
       y2="24.613508"
       x1="8"
       y1="4"
       id="b-3">
      <stop
         id="stop7-6"
         stop-color="#292c2f" />
      <stop
         id="stop9-7"
         stop-opacity="0"
         offset="1" />
    </linearGradient>
    <linearGradient
       id="d-5"
       y1="1050.34"
       y2="1038.36"
       gradientUnits="userSpaceOnUse"
       x2="0"
       gradientTransform="matrix(-2.83522,0,0,2.83875,-0.43047605,-1931.599)">
      <stop
         stop-color="#c61423"
         id="stop17-3" />
      <stop
         offset="1"
         stop-color="#dc2b41"
         id="stop19-5" />
    </linearGradient>
    <linearGradient
       id="d-2"
       y1="1050.34"
       y2="1038.36"
       gradientUnits="userSpaceOnUse"
       x2="0"
       gradientTransform="matrix(-1.0879841,0,0,1.0893387,-14.257079,-100.39215)">
      <stop
         stop-color="#c61423"
         id="stop17-9" />
      <stop
         offset="1"
         stop-color="#dc2b41"
         id="stop19-1" />
    </linearGradient>
    <linearGradient
       id="c-29"
       y1="523.8"
       x1="403.57"
       y2="536.8"
       x2="416.57"
       gradientUnits="userSpaceOnUse"
       gradientTransform="translate(-335.65475,-499.8)">
      <stop
         stop-color="#292c2f"
         id="stop2-1" />
      <stop
         offset="1"
         stop-opacity="0"
         id="stop4-2" />
    </linearGradient>
    <linearGradient
       xlink:href="#b-2"
       id="linearGradient4189"
       x1="14.369"
       y1="22.522"
       x2="26.522"
       y2="22.522"
       gradientUnits="userSpaceOnUse" />
    <linearGradient
       x1="428.816"
       gradientTransform="translate(-384.57,-499.8)"
       gradientUnits="userSpaceOnUse"
       x2="388.865"
       y2="499.679"
       y1="547.634"
       id="a-8">
      <stop
         stop-color="#2a2c2f"
         id="stop8" />
      <stop
         stop-color="#536161"
         offset="1"
         id="stop10" />
    </linearGradient>
    <linearGradient
       x1="36"
       gradientUnits="userSpaceOnUse"
       x2="14"
       y2="12"
       y1="44"
       id="b-2">
      <stop
         style="stop-color:#bfc9c9;stop-opacity:1"
         stop-color="#536161"
         id="stop13" />
      <stop
         style="stop-color:#fbfbfb;stop-opacity:1"
         stop-color="#f4f5f5"
         offset="1"
         id="stop15" />
    </linearGradient>
    <linearGradient
       xlink:href="#a-8"
       id="linearGradient4424"
       x1="25"
       y1="44"
       x2="25"
       y2="4"
       gradientUnits="userSpaceOnUse"
       gradientTransform="translate(48.915254)" />
    <linearGradient
       xlink:href="#b-2"
       id="linearGradient4428"
       gradientUnits="userSpaceOnUse"
       x1="31.586"
       y1="36.345"
       x2="1.203"
       y2="6.723" />
    <style
       id="style4511-26">.cls-1{fill:#8e8e8e;}.cls-2{fill:none;stroke:#8e8e8e;stroke-linecap:square;stroke-miterlimit:10;}</style>
    <linearGradient
       id="linearGradient3235">
      <stop
         id="stop3237"
         offset="0"
         style="stop-color:#fce94f;stop-opacity:1" />
      <stop
         style="stop-color:#fce94f;stop-opacity:1"
         offset="0.5"
         id="stop3239" />
      <stop
         id="stop3241"
         offset="0.75"
         style="stop-color:#edd400;stop-opacity:1" />
      <stop
         id="stop3243"
         offset="1"
         style="stop-color:#c4a000;stop-opacity:1" />
    </linearGradient>
    <linearGradient
       id="linearGradient19744">
      <stop
         id="stop19746"
         offset="0"
         style="stop-color:#ffffff;stop-opacity:1;" />
      <stop
         style="stop-color:#edd400;stop-opacity:1"
         offset="0.74871767"
         id="stop19748" />
      <stop
         id="stop19750"
         offset="1"
         style="stop-color:#ffffff;stop-opacity:1;" />
    </linearGradient>
    <linearGradient
       id="linearGradient14664">
      <stop
         style="stop-color:#ffffff;stop-opacity:1;"
         offset="0"
         id="stop14666" />
      <stop
         style="stop-color:#eeeeec;stop-opacity:1"
         offset="1"
         id="stop14668" />
    </linearGradient>
    <linearGradient
       id="linearGradient12294">
      <stop
         id="stop12296"
         offset="0"
         style="stop-color:#fef8c4;stop-opacity:1" />
      <stop
         id="stop12298"
         offset="1"
         style="stop-color:#edd400;stop-opacity:1" />
    </linearGradient>
    <linearGradient
       id="linearGradient8285">
      <stop
         style="stop-color:#ff6c6c;stop-opacity:1;"
         offset="0"
         id="stop8287" />
      <stop
         style="stop-color:#cc0000;stop-opacity:1;"
         offset="1"
         id="stop8289" />
    </linearGradient>
    <linearGradient
       id="linearGradient3570">
      <stop
         style="stop-color:#ffffff;stop-opacity:1;"
         offset="0"
         id="stop3572" />
      <stop
         style="stop-color:#fce94f;stop-opacity:1;"
         offset="1"
         id="stop3574" />
    </linearGradient>
    <linearGradient
       id="linearGradient2188">
      <stop
         style="stop-color:#c4a000;stop-opacity:1"
         offset="0"
         id="stop2190" />
      <stop
         id="stop3626"
         offset="0.20552924"
         style="stop-color:#edd400;stop-opacity:1" />
      <stop
         id="stop2848"
         offset="0.5"
         style="stop-color:#fce94f;stop-opacity:1" />
      <stop
         style="stop-color:#edd400;stop-opacity:1"
         offset="0.75"
         id="stop2850" />
      <stop
         style="stop-color:#c4a000;stop-opacity:1"
         offset="1"
         id="stop2192" />
    </linearGradient>
    <linearGradient
       x2="11.786"
       gradientUnits="userSpaceOnUse"
       y2="11.998"
       x1="34.5"
       y1="32.998"
       id="a-70">
      <stop
         id="stop2-3675"
         stop-color="#dd1627" />
      <stop
         id="stop4-35"
         stop-color="#df3e52"
         offset="1" />
    </linearGradient>
    <linearGradient
       gradientTransform="translate(-52)"
       gradientUnits="userSpaceOnUse"
       x2="73.03"
       y2="35.663"
       x1="46.23"
       y1="10.38"
       id="b-367">
      <stop
         id="stop7-5"
         stop-opacity=".731"
         stop-color="#f8bac0" />
      <stop
         id="stop9-3"
         stop-opacity="0"
         stop-color="#f8bac0"
         offset="1" />
    </linearGradient>
    <path
       d="m.735 43.06l23.265-42.35 23.09 42.31c0 0-2.212-.155-5.272-.291-2.851-.127-1.794.114-8.278-1.089-4.911-.91-8.522-2.865-15.253-2.727-7.453.153-17.549 4.149-17.549 4.149"
       id="c-62" />
    <linearGradient
       id="a-367535"
       y1="543.8"
       y2="503.8"
       x2="0"
       gradientUnits="userSpaceOnUse"
       gradientTransform="matrix(1.125 0 0 1-51.07 0)">
      <stop
         stop-color="#2a2c2f"
         id="stop2-62" />
      <stop
         offset="1"
         stop-color="#424649"
         id="stop4-91" />
    </linearGradient>
    <linearGradient
       id="b-27"
       y1="540.92"
       y2="522.55"
       x2="0"
       gradientUnits="userSpaceOnUse"
       gradientTransform="matrix(1 0 0 1.14286 0-77.4)">
      <stop
         stop-color="#197cf1"
         id="stop7-0" />
      <stop
         offset="1"
         stop-color="#05a0eb"
         id="stop9-93" />
    </linearGradient>
    <linearGradient
       id="c-6"
       y1="542.8"
       y2="533.8"
       gradientUnits="userSpaceOnUse"
       x2="0"
       gradientTransform="translate(0-28)">
      <stop
         stop-color="#bcb4a1"
         id="stop12-93" />
      <stop
         offset="1"
         stop-color="#c5bfad"
         id="stop14-6" />
    </linearGradient>
    <linearGradient
       id="d-06"
       y1="540.8"
       y2="531.8"
       gradientUnits="userSpaceOnUse"
       x2="0">
      <stop
         stop-color="#1e1f21"
         id="stop17-2" />
      <stop
         offset="1"
         stop-color="#242628"
         id="stop19-61" />
    </linearGradient>
    <linearGradient
       xlink:href="#d-06"
       id="e-8"
       y1="528.8"
       y2="519.8"
       gradientUnits="userSpaceOnUse"
       x2="0" />
    <linearGradient
       id="f"
       y1="20"
       x1="32"
       y2="30"
       x2="42"
       gradientUnits="userSpaceOnUse">
      <stop
         stop-color="#383e51"
         id="stop23" />
      <stop
         offset="1"
         stop-color="#655c6f"
         stop-opacity="0"
         id="stop25" />
    </linearGradient>
    <linearGradient
       xlink:href="#f"
       id="g"
       y1="531.8"
       x1="404.57"
       y2="543.8"
       x2="416.57"
       gradientUnits="userSpaceOnUse"
       gradientTransform="translate(-384.57-499.8)" />
    <linearGradient
       xlink:href="#f"
       id="h"
       y1="531.8"
       x1="404.57"
       y2="543.8"
       gradientUnits="userSpaceOnUse"
       x2="416.57"
       gradientTransform="translate(0-12)" />
    <linearGradient
       xlink:href="#f"
       id="i"
       y1="531.8"
       x1="404.57"
       y2="543.8"
       gradientUnits="userSpaceOnUse"
       x2="416.57"
       gradientTransform="translate(-12-12)" />
    <linearGradient
       xlink:href="#f"
       id="j"
       y1="531.8"
       x1="404.57"
       y2="543.8"
       gradientUnits="userSpaceOnUse"
       x2="416.57"
       gradientTransform="translate(-12)" />
    <style
       id="style4511-9">.cls-1{fill:#8e8e8e;}.cls-2{fill:none;stroke:#8e8e8e;stroke-linecap:square;stroke-miterlimit:10;}</style>
    <path
       d="m.735 43.06l23.265-42.35 23.09 42.31c0 0-2.212-.155-5.272-.291-2.851-.127-1.794.114-8.278-1.089-4.911-.91-8.522-2.865-15.253-2.727-7.453.153-17.549 4.149-17.549 4.149"
       id="c-09" />
    <linearGradient
       id="linearGradient4222">
      <stop
         offset="0"
         style="stop-color:#0166d0;stop-opacity:1"
         id="stop2-35" />
      <stop
         offset="1"
         style="stop-color:#51a6ff;stop-opacity:1"
         id="stop4-62" />
    </linearGradient>
    <linearGradient
       id="linearGradient4198">
      <stop
         style="stop-color:#208dff;stop-opacity:1"
         offset="0"
         id="stop7-9" />
      <stop
         style="stop-color:#51a6ff;stop-opacity:1"
         offset="1"
         id="stop9-1" />
    </linearGradient>
    <linearGradient
       xlink:href="#linearGradient4222"
       id="linearGradient4204"
       x1="402.571"
       y1="543.798"
       x2="402.571"
       y2="519.798"
       gradientUnits="userSpaceOnUse"
       gradientTransform="matrix(0.78135593,0,0,0.78135593,-346.93123,-382.93369)" />
    <linearGradient
       xlink:href="#linearGradient4198"
       id="linearGradient4212"
       x1="414.571"
       y1="543.798"
       x2="414.571"
       y2="519.798"
       gradientUnits="userSpaceOnUse"
       gradientTransform="matrix(0.78135593,0,0,0.78135593,-346.93123,-382.93369)" />
    <linearGradient
       xlink:href="#linearGradient4198"
       id="linearGradient4220"
       x1="24"
       y1="35"
       x2="24"
       y2="4"
       gradientUnits="userSpaceOnUse"
       gradientTransform="matrix(1,0,0,0.99924452,384.57143,499.82444)" />
    <linearGradient
       xlink:href="#linearGradient4227"
       id="linearGradient4244"
       x1="12"
       y1="21"
       x2="29"
       y2="38"
       gradientUnits="userSpaceOnUse" />
    <linearGradient
       id="linearGradient4227">
      <stop
         offset="0"
         style="stop-color:#292c2f;stop-opacity:1"
         id="stop16" />
      <stop
         offset="1"
         style="stop-color:#000000;stop-opacity:0;"
         id="stop18" />
    </linearGradient>
    <linearGradient
       id="linearGradient4454">
      <stop
         id="stop7-36"
         offset="0"
         style="stop-color:#d21e1e;stop-opacity:1" />
      <stop
         id="stop9-75"
         offset="1"
         style="stop-color:#e05e4c;stop-opacity:1" />
    </linearGradient>
    <linearGradient
       gradientTransform="translate(-384.57001,-499.79999)"
       gradientUnits="userSpaceOnUse"
       y2="525.725"
       x2="391.89"
       y1="544.092"
       x1="403.421"
       id="linearGradient4213"
       xlink:href="#linearGradient4454" />
    <linearGradient
       id="linearGradient4472">
      <stop
         id="stop13-1"
         offset="0"
         style="stop-color:#ffa92d;stop-opacity:1" />
      <stop
         id="stop15-2"
         offset="1"
         style="stop-color:#ffc169;stop-opacity:1" />
    </linearGradient>
    <linearGradient
       gradientTransform="translate(-384.57001,-499.79999)"
       gradientUnits="userSpaceOnUse"
       y2="505.319"
       x2="391.154"
       y1="523.203"
       x1="401.296"
       id="linearGradient4235"
       xlink:href="#linearGradient4472" />
    <linearGradient
       id="linearGradient4422-8">
      <stop
         id="stop19-3"
         offset="0"
         style="stop-color:#377d50;stop-opacity:1" />
      <stop
         id="stop21"
         offset="1"
         style="stop-color:#54d883;stop-opacity:1" />
    </linearGradient>
    <linearGradient
       gradientTransform="translate(-384.57001,-499.79999)"
       gradientUnits="userSpaceOnUse"
       y2="503.798"
       x2="413.779"
       y1="523.798"
       x1="424.602"
       id="linearGradient4257"
       xlink:href="#linearGradient4422-8" />
    <linearGradient
       id="linearGradient4438">
      <stop
         id="stop25-6"
         offset="0"
         style="stop-color:#375a7d;stop-opacity:1" />
      <stop
         id="stop27"
         offset="1"
         style="stop-color:#54a3d8;stop-opacity:1" />
    </linearGradient>
    <linearGradient
       gradientTransform="translate(-384.57001,-499.79999)"
       gradientUnits="userSpaceOnUse"
       y2="525.748"
       x2="412.118"
       y1="543.488"
       x1="420.884"
       id="linearGradient4279"
       xlink:href="#linearGradient4438" />
    <linearGradient
       gradientTransform="translate(0.00142264,-0.00198746)"
       gradientUnits="userSpaceOnUse"
       y2="44"
       x2="44"
       y1="4"
       x1="4"
       id="linearGradient4220-3"
       xlink:href="#linearGradient4154" />
    <linearGradient
       id="a-2"
       y1="4"
       x1="24"
       y2="44"
       x2="4"
       gradientUnits="userSpaceOnUse">
      <stop
         stop-color="#197cf1"
         id="stop2-367" />
      <stop
         offset="1"
         stop-color="#20bcfa"
         id="stop4-5" />
    </linearGradient>
    <linearGradient
       id="b-7"
       y1="44"
       x1="44"
       y2="4"
       x2="24"
       gradientUnits="userSpaceOnUse">
      <stop
         stop-color="#c61423"
         id="stop7-3" />
      <stop
         offset="1"
         stop-color="#dc2b41"
         id="stop9-56" />
    </linearGradient>
    <linearGradient
       id="c-0"
       x1="44"
       x2="4"
       gradientUnits="userSpaceOnUse">
      <stop
         stop-color="#42a603"
         id="stop12-06" />
      <stop
         offset="1"
         stop-color="#78da06"
         id="stop14-26" />
    </linearGradient>
    <linearGradient
       id="d-1"
       y1="522.8"
       y2="538.8"
       x1="400.57"
       gradientUnits="userSpaceOnUse"
       x2="416.57">
      <stop
         stop-color="#292c2f"
         id="stop17-8" />
      <stop
         offset="1"
         stop-opacity="0"
         id="stop19-29" />
    </linearGradient>
    <linearGradient
       gradientTransform="matrix(.70711.70711-.70711.70711 105.4-635.69)"
       x2="378.58"
       gradientUnits="userSpaceOnUse"
       y2="523.86"
       x1="430.51"
       y1="522.99"
       id="b-3-7">
      <stop
         id="stop7-67"
         stop-color="#fcfcfc" />
      <stop
         id="stop9-53"
         stop-color="#e9eaeb"
         offset="1" />
    </linearGradient>
    <linearGradient
       gradientTransform="translate(45.719-.92)"
       x2="3.614"
       gradientUnits="userSpaceOnUse"
       y2="49.804"
       x1="-28.649"
       y1="19.869"
       id="c-5">
      <stop
         id="stop12-6" />
      <stop
         id="stop14-2"
         stop-opacity="0"
         offset="1" />
    </linearGradient>
    <linearGradient
       gradientTransform="matrix(.70711.70711-.70711.70711 105.48-635.28)"
       x2="402.03"
       gradientUnits="userSpaceOnUse"
       y2="523.7"
       x1="388.34"
       y1="522.18"
       id="d-9">
      <stop
         id="stop17-1"
         stop-color="#ffffff" />
      <stop
         id="stop19-2"
         stop-color="#eff0f1"
         offset="1" />
    </linearGradient>
    <linearGradient
       gradientTransform="matrix(.70711.70711-.70711.70711 105.48-635.28)"
       x2="425.86"
       gradientUnits="userSpaceOnUse"
       y2="527.34"
       x1="422.48"
       y1="527.21"
       id="e-792">
      <stop
         id="stop22-9"
         stop-color="#f9f9f9" />
      <stop
         id="stop24-20"
         stop-color="#f6f6f6"
         offset="1" />
    </linearGradient>
    <linearGradient
       gradientUnits="userSpaceOnUse"
       x2="23.912"
       y2="24.326"
       x1="9.642"
       y1="8.627"
       id="f-02">
      <stop
         id="stop27-1"
         stop-color="#491309" />
      <stop
         id="stop29"
         stop-color="#b6642d"
         offset="1" />
    </linearGradient>
    <linearGradient
       gradientUnits="userSpaceOnUse"
       x2="33.609"
       y2="34.953"
       x1="32.641"
       y1="33.922"
       id="h-3">
      <stop
         id="stop37"
         stop-color="#cfcfcf" />
      <stop
         id="stop39"
         stop-opacity="0"
         stop-color="#ededed"
         offset="1" />
    </linearGradient>
    <linearGradient
       gradientTransform="matrix(.70711.70711-.70711.70711 105.48-635.28)"
       x2="409.82"
       gradientUnits="userSpaceOnUse"
       y2="523.27"
       x1="385.61"
       y1="522.24"
       id="o">
      <stop
         id="stop62"
         stop-color="#ffffff" />
      <stop
         id="stop64"
         stop-color="#dfe1e3"
         offset="1" />
    </linearGradient>
    <path
       d="M25 15A9 9 0 1 1 7 15 9 9 0 1 1 25 15"
       color="#000000"
       id="p" />
    <linearGradient
       xlink:href="#linearGradient4299"
       id="linearGradient4415"
       x1="408.571"
       y1="543.773"
       x2="408.632"
       y2="503.67"
       gradientUnits="userSpaceOnUse" />
    <linearGradient
       id="linearGradient4227-5">
      <stop
         offset="0"
         style="stop-color:#2e3436;stop-opacity:1"
         id="stop8-7" />
      <stop
         offset="1"
         style="stop-color:#555753;stop-opacity:1"
         id="stop10-0" />
    </linearGradient>
    <linearGradient
       xlink:href="#linearGradient4227-5"
       id="linearGradient4437"
       x1="408.571"
       y1="535.199"
       x2="408.571"
       y2="512.397"
       gradientUnits="userSpaceOnUse"
       gradientTransform="matrix(0.96481792,0,0,0.96481792,14.374377,18.428304)" />
    <linearGradient
       id="linearGradient4299">
      <stop
         offset="0"
         style="stop-color:#1064d3;stop-opacity:1"
         id="stop14-3" />
      <stop
         offset="1"
         style="stop-color:#14c6fd;stop-opacity:1"
         id="stop16-6" />
    </linearGradient>
    <linearGradient
       xlink:href="#linearGradient4154"
       id="linearGradient4392"
       x1="9.077"
       y1="9.083"
       x2="42.946"
       y2="42.953"
       gradientUnits="userSpaceOnUse" />
    <linearGradient
       id="linearGradient4258">
      <stop
         id="stop2-36"
         offset="0"
         style="stop-color:#000019;stop-opacity:1" />
      <stop
         id="stop4-7"
         offset="1"
         style="stop-color:#000019;stop-opacity:0.29064038" />
    </linearGradient>
    <linearGradient
       id="linearGradient4223">
      <stop
         id="stop7-6-2"
         offset="0"
         style="stop-color:#c6cdd1;stop-opacity:1" />
      <stop
         id="stop9-7-3"
         offset="1"
         style="stop-color:#e0e5e7;stop-opacity:1" />
    </linearGradient>
    <linearGradient
       id="linearGradient4217">
      <stop
         id="stop12-5"
         style="stop-color:#1f93b9;stop-opacity:1"
         offset="0" />
      <stop
         id="stop14-5"
         style="stop-color:#1a5c9b;stop-opacity:1"
         offset="1" />
    </linearGradient>
    <linearGradient
       id="linearGradient4191">
      <stop
         id="stop17-3-7"
         offset="0"
         style="stop-color:#dc2b41;stop-opacity:1" />
      <stop
         id="stop19-5-5"
         offset="1"
         style="stop-color:#c61423;stop-opacity:1" />
    </linearGradient>
    <linearGradient
       gradientTransform="translate(-50.199325,-1.1505466)"
       gradientUnits="userSpaceOnUse"
       y2="29"
       x2="24"
       y1="7"
       x1="24"
       id="linearGradient4197"
       xlink:href="#linearGradient4217" />
    <linearGradient
       gradientTransform="translate(-50.199325,0.84945337)"
       gradientUnits="userSpaceOnUse"
       y2="41"
       x2="24"
       y1="30"
       x1="24"
       id="linearGradient4207"
       xlink:href="#linearGradient4191" />
    <linearGradient
       gradientTransform="translate(-51.199325,0.84945337)"
       gradientUnits="userSpaceOnUse"
       y2="41"
       x2="11"
       y1="30"
       x1="11"
       id="linearGradient4215"
       xlink:href="#linearGradient4191" />
    <linearGradient
       gradientTransform="translate(-51.199325,-1.1505466)"
       gradientUnits="userSpaceOnUse"
       y2="4"
       x2="29"
       y1="44"
       x1="29"
       id="linearGradient4229"
       xlink:href="#linearGradient4223" />
    <radialGradient
       gradientTransform="translate(-51.199325,-1.1505466)"
       gradientUnits="userSpaceOnUse"
       r="19"
       fy="24"
       fx="24"
       cy="24"
       cx="24"
       id="radialGradient4264"
       xlink:href="#linearGradient4258" />
    <path
       id="c-2"
       d="m.735 43.06l23.265-42.35 23.09 42.31c0 0-2.212-.155-5.272-.291-2.851-.127-1.794.114-8.278-1.089-4.911-.91-8.522-2.865-15.253-2.727-7.453.153-17.549 4.149-17.549 4.149" />
    <linearGradient
       id="linearGradient4214">
      <stop
         offset="0"
         style="stop-color:#2f74c8;stop-opacity:1"
         id="stop41" />
      <stop
         offset="1"
         style="stop-color:#4699d7;stop-opacity:1"
         id="stop43" />
    </linearGradient>
    <linearGradient
       id="linearGradient4410">
      <stop
         style="stop-color:#383e51;stop-opacity:1"
         offset="0"
         id="stop48" />
      <stop
         style="stop-color:#655c6f;stop-opacity:0"
         offset="1"
         id="stop50" />
    </linearGradient>
    <linearGradient
       gradientTransform="matrix(0.97435896,0,0,0.96217953,-40.3793,-0.5771)"
       gradientUnits="userSpaceOnUse"
       y2="4"
       x2="23.649"
       y1="43.494"
       x1="23.649"
       id="linearGradient10438-5"
       xlink:href="#linearGradient4214" />
    <linearGradient
       id="linearGradient10454-6">
      <stop
         id="stop4727"
         offset="0"
         style="stop-color:#f38230;stop-opacity:1" />
      <stop
         id="stop4729"
         offset="1"
         style="stop-color:#fec335;stop-opacity:1" />
    </linearGradient>
    <linearGradient
       gradientTransform="translate(-41.33689,-1.72838)"
       gradientUnits="userSpaceOnUse"
       y2="4"
       x2="24"
       y1="44"
       x1="24"
       id="linearGradient4286-2"
       xlink:href="#linearGradient10454-6" />
    <linearGradient
       gradientUnits="userSpaceOnUse"
       y2="546.798"
       x2="419.571"
       y1="528.798"
       x1="401.571"
       id="linearGradient4243-0"
       xlink:href="#linearGradient4410"
       gradientTransform="translate(-425.90832,-501.52638)" />
    <linearGradient
       y2="546.798"
       x2="419.571"
       y1="528.798"
       x1="401.571"
       gradientTransform="translate(-431.40826,-516.82638)"
       gradientUnits="userSpaceOnUse"
       id="linearGradient4355-6"
       xlink:href="#linearGradient4410" />
    <linearGradient
       xlink:href="#linearGradient4300-8-4"
       id="linearGradient4309"
       x1="31"
       y1="44"
       x2="9.638"
       y2="7"
       gradientUnits="userSpaceOnUse"
       gradientTransform="matrix(0.75304829,0,0,0.75304829,-49.251481,5.0998124)" />
    <linearGradient
       id="linearGradient4903">
      <stop
         offset="0"
         style="stop-color:#eef1f2;stop-opacity:1"
         id="stop3" />
      <stop
         offset="1"
         style="stop-color:#f9fafb;stop-opacity:1"
         id="stop5" />
    </linearGradient>
    <linearGradient
       id="linearGradient4303">
      <stop
         style="stop-color:#197cf1;stop-opacity:1"
         offset="0"
         id="stop8-3" />
      <stop
         style="stop-color:#21c9fb;stop-opacity:1"
         offset="1"
         id="stop10-6" />
    </linearGradient>
    <linearGradient
       xlink:href="#linearGradient4303"
       id="linearGradient4498"
       x1="414.635"
       y1="531.769"
       x2="409.79"
       y2="523.379"
       gradientUnits="userSpaceOnUse"
       gradientTransform="matrix(0.75304829,0,0,0.75304829,-281.01401,-371.27218)" />
    <linearGradient
       xlink:href="#linearGradient4903"
       id="linearGradient4506"
       x1="413.504"
       y1="537.256"
       x2="405.396"
       y2="519.755"
       gradientUnits="userSpaceOnUse"
       gradientTransform="matrix(0.75304829,0,0,0.75304829,-338.85233,-371.27221)" />
    <linearGradient
       xlink:href="#linearGradient4227"
       id="linearGradient4518"
       x1="423.571"
       y1="527.798"
       x2="423.571"
       y2="544.668"
       gradientUnits="userSpaceOnUse"
       gradientTransform="matrix(0.53248555,-0.53248555,0.53248555,0.53248555,-522.90404,-29.338448)" />
    <linearGradient
       id="linearGradient4300-8-4">
      <stop
         style="stop-color:#f27935;stop-opacity:1"
         offset="0"
         id="stop21-3" />
      <stop
         style="stop-color:#f2784b;stop-opacity:1"
         offset="1"
         id="stop23-7" />
    </linearGradient>
    <linearGradient
       gradientTransform="matrix(0.32420382,0,0,0.32420382,387.58449,502.85674)"
       xlink:href="#linearGradient3347"
       id="linearGradient3359"
       x1="-23.688"
       y1="-24.028"
       x2="146.725"
       y2="140.728"
       gradientUnits="userSpaceOnUse" />
    <linearGradient
       id="linearGradient3347">
      <stop
         style="stop-color:#006680;stop-opacity:1;"
         offset="0"
         id="stop3-3" />
      <stop
         offset=".252"
         style="stop-color:#80b3ff;stop-opacity:1"
         id="stop5-6" />
      <stop
         style="stop-color:#0066ff;stop-opacity:1"
         offset=".459"
         id="stop7-7" />
      <stop
         offset=".899"
         style="stop-color:#002255;stop-opacity:1"
         id="stop9-5" />
      <stop
         style="stop-color:#006680;stop-opacity:0;"
         offset="1"
         id="stop11" />
    </linearGradient>
    <linearGradient
       gradientTransform="matrix(0.32420382,0,0,0.32420382,387.58449,502.85674)"
       xlink:href="#linearGradient3360"
       id="linearGradient3366"
       x1="-1.414"
       y1="88.048"
       x2="154.149"
       y2="89.816"
       gradientUnits="userSpaceOnUse" />
    <linearGradient
       id="linearGradient3360">
      <stop
         style="stop-color:#ffcc00;stop-opacity:1;"
         offset="0"
         id="stop15-35" />
      <stop
         offset=".245"
         style="stop-color:#ffff00;stop-opacity:1"
         id="stop17-6" />
      <stop
         offset=".586"
         style="stop-color:#ff0000;stop-opacity:1"
         id="stop19-291" />
      <stop
         style="stop-color:#ffcc00;stop-opacity:0;"
         offset="1"
         id="stop21-2" />
    </linearGradient>
    <linearGradient
       gradientUnits="userSpaceOnUse"
       x2="44"
       y2="24"
       x1="26.425"
       y1="37.11"
       id="a-7">
      <stop
         id="stop2-0"
         stop-color="#2980b9" />
      <stop
         id="stop4-9"
         stop-color="#1d99f3"
         offset="1" />
    </linearGradient>
    <linearGradient
       gradientUnits="userSpaceOnUse"
       x2="24.539"
       y2="10.624"
       x1="25.869"
       y1="39.24"
       id="b-36"
       xlink:href="#a-7" />
    <linearGradient
       gradientUnits="userSpaceOnUse"
       x2="37.922"
       y2="39.34"
       x1="8.84"
       y1="9.386"
       id="c-06">
      <stop
         id="stop8-2"
         stop-color="#faf8f8" />
      <stop
         id="stop10-61"
         stop-color="#bfd2d2"
         offset="1" />
    </linearGradient>
    <linearGradient
       gradientUnits="userSpaceOnUse"
       x2="24.839"
       y2="17.991"
       x1="27.04"
       y1="16.621"
       id="d-8">
      <stop
         id="stop13-7"
         stop-color="#fcfcfc" />
      <stop
         id="stop15-3"
         stop-color="#c7c7c7"
         offset="1" />
    </linearGradient>
    <linearGradient
       gradientUnits="userSpaceOnUse"
       x2="35.973"
       y2="31"
       x1="31.537"
       y1="27.6"
       id="e-9">
      <stop
         id="stop18-2" />
      <stop
         id="stop20"
         stop-opacity="0"
         offset="1" />
    </linearGradient>
    <linearGradient
       gradientTransform="translate(-10 5)"
       gradientUnits="userSpaceOnUse"
       x2="37"
       y2="30"
       x1="26"
       y1="19"
       id="f-0"
       xlink:href="#e-9" />
    <linearGradient
       gradientUnits="userSpaceOnUse"
       x2="19.574"
       y2="22.495"
       x1="3.783"
       y1="23.644"
       id="g-5">
      <stop
         id="stop24-2"
         stop-color="#2980b9" />
      <stop
         id="stop26"
         stop-color="#34495e"
         offset="1" />
    </linearGradient>
    <style
       id="style4552">.cls-1{fill:#8e8e8e;}.cls-2{fill:none;stroke:#8e8e8e;stroke-linecap:square;stroke-miterlimit:10;}</style>
    <linearGradient
       gradientTransform="matrix(0.65656345,0,0,0.65656345,61.545895,14.228869)"
       gradientUnits="userSpaceOnUse"
       x2="24.839001"
       y2="17.990999"
       x1="27.040001"
       y1="16.621"
       id="d-6">
      <stop
         id="stop4583-7"
         stop-color="#fcfcfc" />
      <stop
         id="stop4585-5"
         stop-color="#c7c7c7"
         offset="1" />
    </linearGradient>
    <linearGradient
       gradientTransform="matrix(0.65656345,0,0,0.65656345,61.545895,14.228869)"
       gradientUnits="userSpaceOnUse"
       x2="24.539"
       y2="10.624"
       x1="25.868999"
       y1="39.240002"
       id="b-3-3"
       xlink:href="#a-7" />
    <linearGradient
       id="a-3"
       y1="543.8"
       y2="512.8"
       x2="0"
       gradientUnits="userSpaceOnUse">
      <stop
         stop-color="#cea476"
         id="stop2-6" />
      <stop
         offset="1"
         stop-color="#dab58b"
         id="stop4-75" />
    </linearGradient>
    <linearGradient
       id="b-35"
       y1="512.8"
       y2="503.8"
       x2="0"
       gradientUnits="userSpaceOnUse">
      <stop
         stop-color="#ebc69a"
         id="stop7-62" />
      <stop
         offset="1"
         stop-color="#f4e0c8"
         stop-opacity="0"
         id="stop9-9" />
    </linearGradient>
    <linearGradient
       xlink:href="#b-35"
       id="c-1"
       y1="512.8"
       y2="503.8"
       gradientUnits="userSpaceOnUse"
       x2="0"
       gradientTransform="translate(0-1025.6)" />
    <linearGradient
       xlink:href="#a-3"
       id="d-2-9"
       y1="512.8"
       y2="503.8"
       x2="0"
       gradientUnits="userSpaceOnUse" />
    <linearGradient
       id="e-7"
       y1="516.8"
       x1="399.57"
       y2="534.8"
       x2="417.57"
       gradientUnits="userSpaceOnUse">
      <stop
         stop-color="#292c2f"
         id="stop14-0" />
      <stop
         offset="1"
         stop-opacity="0"
         id="stop16-9" />
    </linearGradient>
    <linearGradient
       id="a-36"
       y1="543.8"
       y2="503.8"
       x2="0"
       gradientUnits="userSpaceOnUse">
      <stop
         stop-color="#2a2c2f"
         id="stop2-7" />
      <stop
         offset="1"
         stop-color="#424649"
         id="stop4-53" />
    </linearGradient>
    <linearGradient
       id="b-5"
       y1="532.8"
       y2="506.8"
       x2="0"
       gradientUnits="userSpaceOnUse">
      <stop
         stop-color="#989a9b"
         id="stop7-629" />
      <stop
         offset="1"
         stop-color="#f6f6f7"
         id="stop9-12" />
    </linearGradient>
    <linearGradient
       id="c-7"
       y1="522.8"
       x1="403.57"
       y2="534.8"
       x2="413.26"
       gradientUnits="userSpaceOnUse">
      <stop
         stop-color="#020303"
         id="stop12-0" />
      <stop
         offset="1"
         stop-color="#424649"
         stop-opacity="0"
         id="stop14-9" />
    </linearGradient>
    <linearGradient
       xlink:href="#c-7"
       id="d-3"
       y1="521.8"
       x1="400.77"
       y2="533.6"
       gradientUnits="userSpaceOnUse"
       x2="412.57" />
    <path
       fill-rule="evenodd"
       id="e-6"
       d="m426.57 529.8l-16 11-8-8-2-9 17-5z" />
    <linearGradient
       id="a-367"
       y1="536.8"
       y2="503.8"
       x2="0"
       gradientUnits="userSpaceOnUse">
      <stop
         stop-color="#2a2c2f"
         id="stop2-5" />
      <stop
         offset="1"
         stop-color="#424649"
         id="stop4-3" />
    </linearGradient>
    <linearGradient
       id="b-56"
       y1="547.8"
       y2="536.8"
       x2="0"
       gradientUnits="userSpaceOnUse"
       gradientTransform="matrix(1 0 0 .54545 0 244)">
      <stop
         stop-color="#c6cdd1"
         id="stop7-2" />
      <stop
         offset="1"
         stop-color="#e0e5e7"
         id="stop9-91" />
    </linearGradient>
    <linearGradient
       id="c-27"
       y1="5.342"
       x1="42.799"
       y2="31.357"
       x2="11.999"
       gradientUnits="userSpaceOnUse">
      <stop
         stop-color="#4ce0c6"
         id="stop12-09" />
      <stop
         offset="1"
         stop-color="#3b85b5"
         id="stop14-36" />
    </linearGradient>
    <linearGradient
       id="d-0"
       y1="22.346"
       x1="29.855"
       y2="28.506"
       x2="54.32"
       gradientUnits="userSpaceOnUse">
      <stop
         stop-color="#ffc169"
         id="stop17-62" />
      <stop
         offset="1"
         stop-color="#ffa92d"
         id="stop19-6" />
    </linearGradient>
    <linearGradient
       id="e-1"
       y1="41.22"
       x1="24.392"
       y2="25.343"
       x2="20.643"
       gradientUnits="userSpaceOnUse">
      <stop
         stop-color="#334545"
         id="stop22-8" />
      <stop
         offset="1"
         stop-color="#536161"
         id="stop24-7" />
    </linearGradient>
    <linearGradient
       xlink:href="#e-1"
       id="f-9"
       y1="568.8"
       x1="431.57"
       y2="562.8"
       x2="439.57"
       gradientUnits="userSpaceOnUse"
       gradientTransform="matrix(-1 0 0 1 839.14-40)" />
    <linearGradient
       xlink:href="#e-1"
       id="g-2"
       y1="40.899"
       x1="56.03"
       y2="32.475"
       x2="40.647"
       gradientUnits="userSpaceOnUse" />
    <linearGradient
       xlink:href="#e-1"
       id="h-0"
       y1="32.15"
       x1="60.895"
       y2="27.06"
       x2="53.41"
       gradientUnits="userSpaceOnUse" />
    <linearGradient
       xlink:href="#e-1"
       id="i-9"
       y1="36.527"
       x1="33.32"
       y2="31.348"
       x2="24.78"
       gradientUnits="userSpaceOnUse" />
    <linearGradient
       xlink:href="#e-1"
       id="j-2"
       y1="36.765"
       x1="34"
       y2="49.571"
       x2="40.25"
       gradientUnits="userSpaceOnUse" />
    <linearGradient
       id="a-3675"
       y1="543.8"
       y2="503.8"
       x2="0"
       gradientUnits="userSpaceOnUse"
       gradientTransform="matrix(1.125 0 0 1-51.07 0)">
      <stop
         stop-color="#2a2c2f"
         id="stop2-3" />
      <stop
         offset="1"
         stop-color="#424649"
         id="stop4-56" />
    </linearGradient>
    <linearGradient
       id="b-2-9"
       y1="540.92"
       y2="522.55"
       x2="0"
       gradientUnits="userSpaceOnUse"
       gradientTransform="matrix(1 0 0 1.14286 0-77.4)">
      <stop
         stop-color="#197cf1"
         id="stop7-91" />
      <stop
         offset="1"
         stop-color="#05a0eb"
         id="stop9-2" />
    </linearGradient>
    <linearGradient
       id="c-70"
       y1="542.8"
       y2="533.8"
       gradientUnits="userSpaceOnUse"
       x2="0"
       gradientTransform="translate(0-28)">
      <stop
         stop-color="#bcb4a1"
         id="stop12-9" />
      <stop
         offset="1"
         stop-color="#c5bfad"
         id="stop14-360" />
    </linearGradient>
    <linearGradient
       id="d-62"
       y1="540.8"
       y2="531.8"
       gradientUnits="userSpaceOnUse"
       x2="0">
      <stop
         stop-color="#1e1f21"
         id="stop17-61" />
      <stop
         offset="1"
         stop-color="#242628"
         id="stop19-8" />
    </linearGradient>
    <linearGradient
       xlink:href="#d-62"
       id="e-79"
       y1="528.8"
       y2="519.8"
       gradientUnits="userSpaceOnUse"
       x2="0" />
    <style
       id="style4511-2">.cls-1{fill:#8e8e8e;}.cls-2{fill:none;stroke:#8e8e8e;stroke-linecap:square;stroke-miterlimit:10;}</style>
    <linearGradient
       gradientTransform="matrix(0.30380027,0,0,0.30380027,-63.205442,2.2158784)"
       inkscape:collect="always"
       xlink:href="#linearGradient4488"
       id="linearGradient4160"
       x1="288.11157"
       y1="141.78452"
       x2="287.57547"
       y2="79.007812"
       gradientUnits="userSpaceOnUse" />
    <linearGradient
       inkscape:collect="always"
       xlink:href="#linearGradient4657"
       id="linearGradient8597"
       gradientUnits="userSpaceOnUse"
       gradientTransform="matrix(0.0312547,0,0,0.0312547,350.75163,5.8918003)"
       x1="-8602.3096"
       y1="726.4201"
       x2="-8190.2402"
       y2="384.62048" />
    <linearGradient
       id="linearGradient4657"
       inkscape:collect="always">
      <stop
         id="stop4659"
         offset="0"
         style="stop-color:#94886c;stop-opacity:1" />
      <stop
         id="stop4661"
         offset="1"
         style="stop-color:#443d31;stop-opacity:1" />
    </linearGradient>
    <linearGradient
       inkscape:collect="always"
       xlink:href="#linearGradient4657"
       id="linearGradient8599"
       gradientUnits="userSpaceOnUse"
       gradientTransform="matrix(0.0312547,0,0,0.0312547,350.75163,5.8918003)"
       x1="-8812.5537"
       y1="418.98694"
       x2="-8407.6123"
       y2="432.57532" />
    <linearGradient
       y2="867.11853"
       x2="-8606.5762"
       y1="813.8103"
       x1="-8869.8232"
       gradientTransform="matrix(0.0312547,0,0,0.0312547,350.75163,5.8918003)"
       gradientUnits="userSpaceOnUse"
       id="linearGradient4730"
       xlink:href="#linearGradient4657"
       inkscape:collect="always" />
    <radialGradient
       r="97.423851"
       fy="588.94122"
       fx="-8559.9053"
       cy="588.94122"
       cx="-8559.9053"
       gradientTransform="matrix(0.05615176,5.3679241e-8,-5.0732187e-8,0.05306895,563.86813,-6.9550679)"
       gradientUnits="userSpaceOnUse"
       id="radialGradient4734"
       xlink:href="#linearGradient4710"
       inkscape:collect="always" />
    <linearGradient
       inkscape:collect="always"
       id="linearGradient4710">
      <stop
         style="stop-color:#ffffff;stop-opacity:1"
         offset="0"
         id="stop4712" />
      <stop
         style="stop-color:#e9e9e9;stop-opacity:0"
         offset="1"
         id="stop4714-9" />
    </linearGradient>
    <radialGradient
       r="97.422852"
       fy="552.72363"
       fx="-8762.5752"
       cy="552.72363"
       cx="-8762.5752"
       gradientTransform="matrix(0.05947166,3.202248e-8,-3.2277832e-8,0.0599459,598.00491,-9.9662247)"
       gradientUnits="userSpaceOnUse"
       id="radialGradient4736"
       xlink:href="#linearGradient4710"
       inkscape:collect="always" />
    <linearGradient
       y2="867.11853"
       x2="-8606.5762"
       y1="813.8103"
       x1="-8869.8232"
       gradientTransform="matrix(0.0312547,0,0,0.0312547,350.80556,5.8558457)"
       gradientUnits="userSpaceOnUse"
       id="linearGradient4742-6"
       xlink:href="#linearGradient4657"
       inkscape:collect="always" />
    <linearGradient
       gradientUnits="userSpaceOnUse"
       y2="30.18508"
       x2="-1.6420547"
       y1="33.017094"
       x1="-29.849033"
       id="linearGradient4814-4"
       xlink:href="#linearGradient4808-8"
       inkscape:collect="always" />
    <linearGradient
       id="linearGradient4808-8"
       inkscape:collect="always">
      <stop
         id="stop4810"
         offset="0"
         style="stop-color:#bc711d;stop-opacity:1" />
      <stop
         id="stop4812"
         offset="1"
         style="stop-color:#eb9d49;stop-opacity:1" />
    </linearGradient>
    <linearGradient
       gradientTransform="translate(2.0000002e-6,-1e-6)"
       y2="34.177151"
       x2="6.0485873"
       y1="27.936554"
       x1="5.9543524"
       gradientUnits="userSpaceOnUse"
       id="linearGradient4826"
       xlink:href="#linearGradient4828"
       inkscape:collect="always" />
    <linearGradient
       id="linearGradient4828"
       inkscape:collect="always">
      <stop
         id="stop4830"
         offset="0"
         style="stop-color:#fbfbfb;stop-opacity:1" />
      <stop
         id="stop4832-0"
         offset="1"
         style="stop-color:#d9d9d9;stop-opacity:1" />
    </linearGradient>
    <linearGradient
       gradientUnits="userSpaceOnUse"
       y2="31.515162"
       x2="33.203915"
       y1="31.429367"
       x1="13.845107"
       id="linearGradient4870"
       xlink:href="#linearGradient4996"
       inkscape:collect="always" />
    <linearGradient
       inkscape:collect="always"
       id="linearGradient4996">
      <stop
         style="stop-color:#000000;stop-opacity:1"
         offset="0"
         id="stop4998" />
      <stop
         style="stop-color:#b9b9b9;stop-opacity:0.99215686"
         offset="1"
         id="stop5000" />
    </linearGradient>
    <linearGradient
       y2="30.154734"
       x2="-4.797893"
       y1="30.219427"
       x1="1.2463274"
       gradientUnits="userSpaceOnUse"
       id="linearGradient4750"
       xlink:href="#linearGradient4488"
       inkscape:collect="always" />
    <inkscape:path-effect
       is_visible="true"
       id="path-effect4836-4-1"
       effect="spiro" />
    <linearGradient
       inkscape:collect="always"
       xlink:href="#linearGradient4657"
       id="linearGradient4592"
       gradientUnits="userSpaceOnUse"
       gradientTransform="matrix(0.0312547,0,0,0.0312547,350.75163,5.8918003)"
       x1="-8602.3096"
       y1="726.4201"
       x2="-8190.2402"
       y2="384.62048" />
    <linearGradient
       inkscape:collect="always"
       xlink:href="#linearGradient4657"
       id="linearGradient4594"
       gradientUnits="userSpaceOnUse"
       gradientTransform="matrix(0.0312547,0,0,0.0312547,350.75163,5.8918003)"
       x1="-8812.5537"
       y1="418.98694"
       x2="-8407.6123"
       y2="432.57532" />
    <linearGradient
       inkscape:collect="always"
       xlink:href="#linearGradient4657"
       id="linearGradient4596"
       gradientUnits="userSpaceOnUse"
       gradientTransform="matrix(0.0312547,0,0,0.0312547,350.75163,5.8918003)"
       x1="-8812.5537"
       y1="418.98694"
       x2="-8407.6123"
       y2="432.57532" />
  </defs>
  <style
     id="style4485"
     type="text/css">
	.st0{fill:#005C75;}
	.st1{fill:url(#SVGID_1_);}
	.st2{opacity:0.45;fill:#231F20;}
	.st3{fill:#FFFFFF;}
</style>
  <path
     style="opacity:1;fill:url(#linearGradient4160);fill-opacity:1;stroke:none;stroke-width:1.10000002;stroke-linecap:square;stroke-linejoin:bevel;stroke-miterlimit:4;stroke-dasharray:none;stroke-dashoffset:0;stroke-opacity:0.078125"
     d="m 2.4332147,26.442743 0,1.668528 c 0,9.574276 5.5832168,17.282199 17.1457273,17.282199 l 6.930445,0 c 15.132351,0 17.836399,-11.322632 17.836399,-17.282199 l 0,-1.668528 c 0,5.959567 -2.704048,17.282198 -17.836399,17.282198 l -6.930445,0 c -11.5625105,0 -17.1457273,-7.707923 -17.1457273,-17.282198 z"
     id="path4147"
     inkscape:connector-curvature="0" />
  <path
     style="opacity:1;fill:#e3e7ea;fill-opacity:1;stroke:#000000;stroke-width:0.3341803;stroke-linecap:square;stroke-linejoin:bevel;stroke-miterlimit:4;stroke-dasharray:none;stroke-dashoffset:0;stroke-opacity:0.078125"
     d="m 19.046357,2.9645209 8.495066,0 c 13.907739,0 16.804384,11.2468651 16.804384,17.2820841 l 0,7.123176 c 0,5.959564 -2.704172,17.282082 -17.836524,17.282082 l -6.930103,0 c -11.5625118,0 -17.145935,-7.707808 -17.145935,-17.282082 l 0,-7.123176 c 0,-9.574274 5.4701791,-17.2820841 16.613112,-17.2820841 z"
     id="rect4144"
     inkscape:connector-curvature="0"
     sodipodi:nodetypes="sssssssss" />
  <g
     id="g4673"
     transform="translate(-61.126615,-1.7384124)">
    <g
       id="g4675">
      <path
         id="path4677"
         d="m 94.120135,15.057667 a 14.689953,14.689953 0 0 1 -0.411315,0.67094 14.689953,14.689953 0 0 1 -0.888685,1.169 14.689953,14.689953 0 0 1 -1.000879,1.074378 14.689953,14.689953 0 0 1 -1.103195,0.969081 14.689953,14.689953 0 0 1 -1.194396,0.85413 14.689953,14.689953 0 0 1 -1.273689,0.730639 14.689953,14.689953 0 0 1 -0.516068,0.230933 14.689953,14.689953 0 0 1 -0.82422,0.368889 14.689953,14.689953 0 0 1 -1.277355,0.424441 3.0449308,3.0449308 0 0 1 0.163602,0.186185 3.0449308,3.0449308 0 0 1 0.177027,0.247595 3.0449308,3.0449308 0 0 1 0.151453,0.264019 3.0449308,3.0449308 0 0 1 0.124345,0.277812 3.0449308,3.0449308 0 0 1 0.09596,0.288801 3.0449308,3.0449308 0 0 1 0.06666,0.296981 3.0449308,3.0449308 0 0 1 0.0367,0.30217 3.0449308,3.0449308 0 0 1 0.0076,0.215362 3.0449308,3.0449308 0 0 1 -0.0029,0.06104 3.0449308,3.0449308 0 0 1 -0.01221,0.242957 3.0449308,3.0449308 0 0 1 -0.04548,0.300948 3.0449308,3.0449308 0 0 1 -0.07527,0.294904 3.0449308,3.0449308 0 0 1 -0.104385,0.28593 3.0449308,3.0449308 0 0 1 -0.132408,0.274032 3.0449308,3.0449308 0 0 1 -0.159081,0.259499 3.0449308,3.0449308 0 0 1 -0.184169,0.242285 3.0449308,3.0449308 0 0 1 -0.207491,0.222689 3.0449308,3.0449308 0 0 1 -0.228673,0.200898 3.0449308,3.0449308 0 0 1 -0.247533,0.177027 3.0449308,3.0449308 0 0 1 -0.264015,0.151453 3.0449308,3.0449308 0 0 1 -0.277815,0.124346 3.0449308,3.0449308 0 0 1 -0.288864,0.09596 3.0449308,3.0449308 0 0 1 -0.29698,0.06666 3.0449308,3.0449308 0 0 1 -0.302167,0.0367 3.0449308,3.0449308 0 0 1 -0.215366,0.0076 3.0449308,3.0449308 0 0 1 -0.303999,-0.01521 3.0449308,3.0449308 0 0 1 -0.300949,-0.04548 3.0449308,3.0449308 0 0 1 -0.294907,-0.07534 3.0449308,3.0449308 0 0 1 -0.285869,-0.104384 3.0449308,3.0449308 0 0 1 -0.274089,-0.132342 3.0449308,3.0449308 0 0 1 -0.259499,-0.159081 3.0449308,3.0449308 0 0 1 -0.242288,-0.184236 3.0449308,3.0449308 0 0 1 -0.222691,-0.207486 3.0449308,3.0449308 0 0 1 -0.200892,-0.228612 3.0449308,3.0449308 0 0 1 -0.177032,-0.247598 3.0449308,3.0449308 0 0 1 -0.151449,-0.264017 3.0449308,3.0449308 0 0 1 -0.124347,-0.27781 3.0449308,3.0449308 0 0 1 -0.09597,-0.288863 3.0449308,3.0449308 0 0 1 -0.06666,-0.296982 3.0449308,3.0449308 0 0 1 -0.0367,-0.302107 3.0449308,3.0449308 0 0 1 -0.0076,-0.215428 3.0449308,3.0449308 0 0 1 0.01525,-0.303999 3.0449308,3.0449308 0 0 1 0.04548,-0.300949 3.0449308,3.0449308 0 0 1 0.07527,-0.294903 3.0449308,3.0449308 0 0 1 0.104385,-0.285874 3.0449308,3.0449308 0 0 1 0.132408,-0.274088 3.0449308,3.0449308 0 0 1 0.04834,-0.07888 14.689953,14.689953 0 0 1 -0.01463,-0.0071 14.689953,14.689953 0 0 1 -0.652198,-0.03266 14.689953,14.689953 0 0 1 -0.43543,-0.06581 3.0449308,3.0449308 0 0 1 0.0353,0.07888 3.0449308,3.0449308 0 0 1 0.09603,0.288858 3.0449308,3.0449308 0 0 1 0.06666,0.296983 3.0449308,3.0449308 0 0 1 0.03662,0.302107 3.0449308,3.0449308 0 0 1 0.0076,0.215428 3.0449308,3.0449308 0 0 1 -0.01521,0.303999 3.0449308,3.0449308 0 0 1 -0.04548,0.300888 3.0449308,3.0449308 0 0 1 -0.07527,0.294907 3.0449308,3.0449308 0 0 1 -0.104384,0.285931 3.0449308,3.0449308 0 0 1 -0.132404,0.274088 3.0449308,3.0449308 0 0 1 -0.159086,0.259438 3.0449308,3.0449308 0 0 1 -0.184164,0.242346 3.0449308,3.0449308 0 0 1 -0.20749,0.222689 3.0449308,3.0449308 0 0 1 -0.228674,0.200898 3.0449308,3.0449308 0 0 1 -0.247596,0.177027 3.0449308,3.0449308 0 0 1 -0.264018,0.151453 3.0449308,3.0449308 0 0 1 -0.277812,0.124285 3.0449308,3.0449308 0 0 1 -0.288801,0.09603 3.0449308,3.0449308 0 0 1 -0.296982,0.06666 3.0449308,3.0449308 0 0 1 -0.302168,0.03661 3.0449308,3.0449308 0 0 1 -0.215362,0.0076 3.0449308,3.0449308 0 0 1 -0.304005,-0.01521 3.0449308,3.0449308 0 0 1 -0.300948,-0.04548 3.0449308,3.0449308 0 0 1 -0.294903,-0.07527 3.0449308,3.0449308 0 0 1 -0.285935,-0.104385 3.0449308,3.0449308 0 0 1 -0.274026,-0.132403 3.0449308,3.0449308 0 0 1 -0.259501,-0.159082 3.0449308,3.0449308 0 0 1 -0.242283,-0.184169 3.0449308,3.0449308 0 0 1 -0.22269,-0.207491 3.0449308,3.0449308 0 0 1 -0.200898,-0.228672 3.0449308,3.0449308 0 0 1 -0.177027,-0.247595 3.0449308,3.0449308 0 0 1 -0.15145,-0.26402 3.0449308,3.0449308 0 0 1 -0.124349,-0.277812 3.0449308,3.0449308 0 0 1 -0.09597,-0.288801 3.0449308,3.0449308 0 0 1 -0.06666,-0.296981 3.0449308,3.0449308 0 0 1 -0.0367,-0.30217 3.0449308,3.0449308 0 0 1 -0.0076,-0.215362 3.0449308,3.0449308 0 0 1 0.01521,-0.303999 3.0449308,3.0449308 0 0 1 0.04548,-0.300953 3.0449308,3.0449308 0 0 1 0.07533,-0.294902 3.0449308,3.0449308 0 0 1 0.104384,-0.285932 3.0449308,3.0449308 0 0 1 0.132342,-0.274031 3.0449308,3.0449308 0 0 1 0.159086,-0.259499 3.0449308,3.0449308 0 0 1 0.184231,-0.242285 3.0449308,3.0449308 0 0 1 0.20749,-0.222689 3.0449308,3.0449308 0 0 1 0.228607,-0.200897 3.0449308,3.0449308 0 0 1 0.201203,-0.143879 14.689953,14.689953 0 0 1 -0.646459,-0.312243 14.689953,14.689953 0 0 1 -1.251835,-0.767511 14.689953,14.689953 0 0 1 -0.06263,-0.04761 14.689953,14.689953 0 0 0 -0.0545,0.360524 14.689953,14.689953 0 0 0 -0.07337,1.466529 14.689953,14.689953 0 0 0 0.03682,1.039158 14.689953,14.689953 0 0 0 0.176969,1.457681 14.689953,14.689953 0 0 0 0.01802,0.08033 4.6663313,3.3957954 45 0 1 0.05073,0.04248 4.6663313,3.3957954 45 0 1 0.239415,0.227391 4.6663313,3.3957954 45 0 1 0.317433,0.34142 4.6663313,3.3957954 45 0 1 0.290203,0.361991 4.6663313,3.3957954 45 0 1 0.260233,0.378963 4.6663313,3.3957954 45 0 1 0.227511,0.392089 4.6663313,3.3957954 45 0 1 0.192597,0.401428 4.6663313,3.3957954 45 0 1 0.155721,0.406616 4.6663313,3.3957954 45 0 1 0.117327,0.40784 4.6663313,3.3957954 45 0 1 0.07771,0.404903 4.6663313,3.3957954 45 0 1 0.03735,0.39801 4.6663313,3.3957954 45 0 1 -0.0033,0.387082 4.6663313,3.3957954 45 0 1 -0.04407,0.37231 4.6663313,3.3957954 45 0 1 -0.08437,0.353813 4.6663313,3.3957954 45 0 1 -0.0057,0.01558 14.689953,14.689953 0 0 0 0.26841,0.467968 14.689953,14.689953 0 0 0 0.854131,1.194391 14.689953,14.689953 0 0 0 0.969142,1.103195 14.689953,14.689953 0 0 0 1.074379,1.000884 14.689953,14.689953 0 0 0 1.168938,0.888619 14.689953,14.689953 0 0 0 0.709699,0.435124 14.689953,14.689953 0 0 0 0.288806,0.07375 14.689953,14.689953 0 0 0 1.451875,0.219454 14.689953,14.689953 0 0 0 1.466529,0.07338 14.689953,14.689953 0 0 0 1.039157,-0.03683 14.689953,14.689953 0 0 0 1.457681,-0.176907 14.689953,14.689953 0 0 0 1.432706,-0.321582 14.689953,14.689953 0 0 0 1.393462,-0.46302 14.689953,14.689953 0 0 0 1.133712,-0.5074 14.689953,14.689953 0 0 0 0.06116,-0.04371 14.689953,14.689953 0 0 0 1.103194,-0.969141 14.689953,14.689953 0 0 0 1.000879,-1.074379 14.689953,14.689953 0 0 0 0.888686,-1.169001 14.689953,14.689953 0 0 0 0.767448,-1.251773 14.689953,14.689953 0 0 0 0.638707,-1.322222 14.689953,14.689953 0 0 0 0.503495,-1.379357 14.689953,14.689953 0 0 0 0.363336,-1.422759 14.689953,14.689953 0 0 0 0.219391,-1.451879 14.689953,14.689953 0 0 0 0.06342,-1.267769 14.689953,14.689953 0 0 0 0.0099,-0.198762 14.689953,14.689953 0 0 0 -0.03675,-1.039157 14.689953,14.689953 0 0 0 -0.17697,-1.457677 14.689953,14.689953 0 0 0 -0.321581,-1.432709 14.689953,14.689953 0 0 0 -0.124714,-0.375303 14.689953,14.689953 0 0 0 -0.338306,-1.018218 14.689953,14.689953 0 0 0 -0.36981,-0.826297 z"
         style="opacity:1;fill:url(#linearGradient4592);fill-opacity:1;stroke:none;stroke-width:2;stroke-linecap:square;stroke-linejoin:miter;stroke-miterlimit:4;stroke-dasharray:none;stroke-dashoffset:0;stroke-opacity:1"
         inkscape:connector-curvature="0" />
      <path
         id="path4679"
         d="m 74.327851,15.474905 a 14.689953,14.689953 0 0 0 -0.06867,0.142233 14.689953,14.689953 0 0 0 -0.353385,0.968102 14.689953,14.689953 0 0 0 -0.150109,0.411259 14.689953,14.689953 0 0 0 -0.363275,1.422758 14.689953,14.689953 0 0 0 -0.164941,1.091353 14.689953,14.689953 0 0 0 0.06263,0.04761 14.689953,14.689953 0 0 0 1.251835,0.767509 14.689953,14.689953 0 0 0 0.646459,0.312242 3.0449308,3.0449308 0 0 1 0.0464,-0.03315 3.0449308,3.0449308 0 0 1 0.264015,-0.151449 3.0449308,3.0449308 0 0 1 0.277811,-0.124351 3.0449308,3.0449308 0 0 1 0.288864,-0.09596 3.0449308,3.0449308 0 0 1 0.296981,-0.06666 3.0449308,3.0449308 0 0 1 0.302107,-0.0367 3.0449308,3.0449308 0 0 1 0.215428,-0.0076 3.0449308,3.0449308 0 0 1 0.303938,0.01521 3.0449308,3.0449308 0 0 1 0.300949,0.04548 3.0449308,3.0449308 0 0 1 0.294903,0.07534 3.0449308,3.0449308 0 0 1 0.285935,0.104385 3.0449308,3.0449308 0 0 1 0.260109,0.125628 3.0449308,3.0449308 0 0 1 0.01398,0.0067 3.0449308,3.0449308 0 0 1 0.259438,0.15908 3.0449308,3.0449308 0 0 1 0.242346,0.184232 3.0449308,3.0449308 0 0 1 0.222691,0.20749 3.0449308,3.0449308 0 0 1 0.01015,0.01159 3.0449308,3.0449308 0 0 1 0.1907,0.217016 3.0449308,3.0449308 0 0 1 0.177027,0.247595 3.0449308,3.0449308 0 0 1 0.151453,0.264014 3.0449308,3.0449308 0 0 1 0.089,0.198944 14.689953,14.689953 0 0 0 0.435426,0.0658 14.689953,14.689953 0 0 0 0.652199,0.03266 14.689953,14.689953 0 0 0 0.01843,8.24e-4 3.0449308,3.0449308 0 0 1 0.106955,-0.174405 3.0449308,3.0449308 0 0 1 0.184173,-0.242347 3.0449308,3.0449308 0 0 1 0.20749,-0.222689 3.0449308,3.0449308 0 0 1 0.228669,-0.200897 3.0449308,3.0449308 0 0 1 0.247538,-0.177027 3.0449308,3.0449308 0 0 1 0.264015,-0.151454 3.0449308,3.0449308 0 0 1 0.02297,-0.01026 14.689953,14.689953 0 0 1 -0.446353,-0.06745 14.689953,14.689953 0 0 1 -1.422701,-0.363278 14.689953,14.689953 0 0 1 -1.379357,-0.503553 14.689953,14.689953 0 0 1 -1.322223,-0.638644 14.689953,14.689953 0 0 1 -0.978233,-0.599761 14.689953,14.689953 0 0 1 -0.480478,-0.546961 14.689953,14.689953 0 0 1 -0.854135,-1.194391 14.689953,14.689953 0 0 1 -0.730638,-1.27369 14.689953,14.689953 0 0 1 -0.108542,-0.24247 z m 13.404057,5.281863 a 14.689953,14.689953 0 0 1 -0.71245,0.159935 14.689953,14.689953 0 0 1 -1.457739,0.176969 14.689953,14.689953 0 0 1 -0.444341,0.01575 3.0449308,3.0449308 0 0 1 0.0107,0.0065 3.0449308,3.0449308 0 0 1 0.242285,0.184173 3.0449308,3.0449308 0 0 1 0.222689,0.207487 3.0449308,3.0449308 0 0 1 0.03731,0.04249 14.689953,14.689953 0 0 0 1.277355,-0.424441 14.689953,14.689953 0 0 0 0.82422,-0.36889 z"
         style="opacity:1;fill:url(#linearGradient4594);fill-opacity:1;stroke:none;stroke-width:2;stroke-linecap:square;stroke-linejoin:miter;stroke-miterlimit:4;stroke-dasharray:none;stroke-dashoffset:0;stroke-opacity:1"
         inkscape:connector-curvature="0" />
      <path
         inkscape:connector-curvature="0"
         style="opacity:1;fill:#1a2020;fill-opacity:1;stroke:none;stroke-width:2;stroke-linecap:square;stroke-linejoin:miter;stroke-miterlimit:4;stroke-dasharray:none;stroke-dashoffset:0;stroke-opacity:1"
         d="m 69.852876,22.506849 a 4.6663313,3.3957954 45 0 0 -0.377009,0.03225 4.6663313,3.3957954 45 0 0 -0.359616,0.07265 4.6663313,3.3957954 45 0 0 -0.05493,0.01826 4.6663313,3.3957954 45 0 0 -0.283613,0.09413 4.6663313,3.3957954 45 0 0 -0.314134,0.150963 4.6663313,3.3957954 45 0 0 -0.286661,0.188015 4.6663313,3.3957954 45 0 0 -0.256205,0.223239 4.6663313,3.3957954 45 0 0 -0.161584,0.178128 4.6663313,3.3957954 45 0 0 -0.198515,0.277997 4.6663313,3.3957954 45 0 0 -0.161951,0.306441 4.6663313,3.3957954 45 0 0 -0.123798,0.331778 4.6663313,3.3957954 45 0 0 -0.0843,0.353812 4.6663313,3.3957954 45 0 0 -0.04415,0.372308 4.6663313,3.3957954 45 0 0 -0.0033,0.387082 4.6663313,3.3957954 45 0 0 0.03735,0.398011 4.6663313,3.3957954 45 0 0 0.07772,0.404908 4.6663313,3.3957954 45 0 0 0.117329,0.407835 4.6663313,3.3957954 45 0 0 0.155721,0.406615 4.6663313,3.3957954 45 0 0 0.192596,0.401428 4.6663313,3.3957954 45 0 0 0.227511,0.392088 4.6663313,3.3957954 45 0 0 0.260172,0.378964 4.6663313,3.3957954 45 0 0 0.290264,0.361992 4.6663313,3.3957954 45 0 0 0.317432,0.341424 4.6663313,3.3957954 45 0 0 0.23941,0.227391 4.6663313,3.3957954 45 0 0 0.356319,0.298503 4.6663313,3.3957954 45 0 0 0.374387,0.269206 4.6663313,3.3957954 45 0 0 0.388669,0.23734 4.6663313,3.3957954 45 0 0 0.399106,0.202972 4.6663313,3.3957954 45 0 0 0.405519,0.166714 4.6663313,3.3957954 45 0 0 0.407897,0.128622 4.6663313,3.3957954 45 0 0 0.406191,0.08943 4.6663313,3.3957954 45 0 0 0.400451,0.0492 4.6663313,3.3957954 45 0 0 0.390682,0.0085 4.6663313,3.3957954 45 0 0 0.37701,-0.03225 4.6663313,3.3957954 45 0 0 0.359612,-0.07265 4.6663313,3.3957954 45 0 0 0.263042,-0.08729 4.6663313,3.3957954 45 0 0 0.07551,-0.02511 4.6663313,3.3957954 45 0 0 0.314134,-0.150964 4.6663313,3.3957954 45 0 0 0.2866,-0.188015 4.6663313,3.3957954 45 0 0 0.256204,-0.223239 4.6663313,3.3957954 45 0 0 0.161585,-0.178128 4.6663313,3.3957954 45 0 0 0.198514,-0.277994 4.6663313,3.3957954 45 0 0 0.162014,-0.306444 4.6663313,3.3957954 45 0 0 0.117939,-0.316209 4.6663313,3.3957954 45 0 0 0.0057,-0.01558 4.6663313,3.3957954 45 0 0 0.08437,-0.353814 4.6663313,3.3957954 45 0 0 0.04407,-0.372309 4.6663313,3.3957954 45 0 0 0.0033,-0.387082 4.6663313,3.3957954 45 0 0 -0.03735,-0.39801 4.6663313,3.3957954 45 0 0 -0.07771,-0.404904 4.6663313,3.3957954 45 0 0 -0.117329,-0.40784 4.6663313,3.3957954 45 0 0 -0.155721,-0.406616 4.6663313,3.3957954 45 0 0 -0.192596,-0.401427 4.6663313,3.3957954 45 0 0 -0.227511,-0.392089 4.6663313,3.3957954 45 0 0 -0.260234,-0.378963 4.6663313,3.3957954 45 0 0 -0.290202,-0.361992 4.6663313,3.3957954 45 0 0 -0.317434,-0.34142 4.6663313,3.3957954 45 0 0 -0.239414,-0.227391 4.6663313,3.3957954 45 0 0 -0.05072,-0.04248 4.6663313,3.3957954 45 0 0 -0.305587,-0.255957 4.6663313,3.3957954 45 0 0 -0.374386,-0.269268 4.6663313,3.3957954 45 0 0 -0.388728,-0.23734 4.6663313,3.3957954 45 0 0 -0.399049,-0.202972 4.6663313,3.3957954 45 0 0 -0.405519,-0.166714 4.6663313,3.3957954 45 0 0 -0.407897,-0.128619 4.6663313,3.3957954 45 0 0 -0.406253,-0.08937 4.6663313,3.3957954 45 0 0 -0.400389,-0.0492 4.6663313,3.3957954 45 0 0 -0.390682,-0.0085 z"
         id="path4681" />
      <path
         inkscape:connector-curvature="0"
         style="opacity:1;fill:url(#linearGradient4596);fill-opacity:1;stroke:none;stroke-width:2;stroke-linecap:square;stroke-linejoin:miter;stroke-miterlimit:4;stroke-dasharray:none;stroke-dashoffset:0;stroke-opacity:1"
         d="m 74.327851,15.474905 a 14.689953,14.689953 0 0 0 -0.06867,0.142233 14.689953,14.689953 0 0 0 -0.353385,0.968102 14.689953,14.689953 0 0 0 -0.150109,0.411259 14.689953,14.689953 0 0 0 -0.363275,1.422758 14.689953,14.689953 0 0 0 -0.164941,1.091353 14.689953,14.689953 0 0 0 0.06263,0.04761 14.689953,14.689953 0 0 0 1.251835,0.767509 14.689953,14.689953 0 0 0 0.646459,0.312242 3.0449308,3.0449308 0 0 1 0.0464,-0.03315 3.0449308,3.0449308 0 0 1 0.264015,-0.151449 3.0449308,3.0449308 0 0 1 0.277811,-0.124351 3.0449308,3.0449308 0 0 1 0.288864,-0.09596 3.0449308,3.0449308 0 0 1 0.296981,-0.06666 3.0449308,3.0449308 0 0 1 0.302107,-0.0367 3.0449308,3.0449308 0 0 1 0.215428,-0.0076 3.0449308,3.0449308 0 0 1 0.303938,0.01521 3.0449308,3.0449308 0 0 1 0.300949,0.04548 3.0449308,3.0449308 0 0 1 0.294903,0.07534 3.0449308,3.0449308 0 0 1 0.285935,0.104385 3.0449308,3.0449308 0 0 1 0.260109,0.125628 3.0449308,3.0449308 0 0 1 0.01398,0.0067 3.0449308,3.0449308 0 0 1 0.259438,0.15908 3.0449308,3.0449308 0 0 1 0.242346,0.184232 3.0449308,3.0449308 0 0 1 0.222691,0.20749 3.0449308,3.0449308 0 0 1 0.01015,0.01159 3.0449308,3.0449308 0 0 1 0.1907,0.217016 3.0449308,3.0449308 0 0 1 0.177027,0.247595 3.0449308,3.0449308 0 0 1 0.151453,0.264014 3.0449308,3.0449308 0 0 1 0.089,0.198944 14.689953,14.689953 0 0 0 0.435426,0.0658 14.689953,14.689953 0 0 0 0.652199,0.03266 14.689953,14.689953 0 0 0 0.01843,8.24e-4 3.0449308,3.0449308 0 0 1 0.106955,-0.174405 3.0449308,3.0449308 0 0 1 0.184173,-0.242347 3.0449308,3.0449308 0 0 1 0.20749,-0.222689 3.0449308,3.0449308 0 0 1 0.228669,-0.200897 3.0449308,3.0449308 0 0 1 0.247538,-0.177027 3.0449308,3.0449308 0 0 1 0.264015,-0.151454 3.0449308,3.0449308 0 0 1 0.02297,-0.01026 14.689953,14.689953 0 0 1 -0.446353,-0.06745 14.689953,14.689953 0 0 1 -1.422701,-0.363278 14.689953,14.689953 0 0 1 -1.379357,-0.503553 14.689953,14.689953 0 0 1 -1.322223,-0.638644 14.689953,14.689953 0 0 1 -0.978233,-0.599761 14.689953,14.689953 0 0 1 -0.480478,-0.546961 14.689953,14.689953 0 0 1 -0.854135,-1.194391 14.689953,14.689953 0 0 1 -0.730638,-1.27369 14.689953,14.689953 0 0 1 -0.108542,-0.24247 z m 13.404057,5.281863 a 14.689953,14.689953 0 0 1 -0.71245,0.159935 14.689953,14.689953 0 0 1 -1.457739,0.176969 14.689953,14.689953 0 0 1 -0.444341,0.01575 3.0449308,3.0449308 0 0 1 0.0107,0.0065 3.0449308,3.0449308 0 0 1 0.242285,0.184173 3.0449308,3.0449308 0 0 1 0.222689,0.207487 3.0449308,3.0449308 0 0 1 0.03731,0.04249 14.689953,14.689953 0 0 0 1.277355,-0.424441 14.689953,14.689953 0 0 0 0.82422,-0.36889 z"
         id="path4683" />
      <path
         inkscape:connector-curvature="0"
         style="opacity:1;fill:url(#linearGradient4730);fill-opacity:1;stroke:none;stroke-width:2;stroke-linecap:square;stroke-linejoin:miter;stroke-miterlimit:4;stroke-dasharray:none;stroke-dashoffset:0;stroke-opacity:1"
         d="m 80.204654,33.896925 a 14.689953,14.689953 0 0 1 -0.709705,-0.435123 14.689953,14.689953 0 0 1 -1.168938,-0.88862 14.689953,14.689953 0 0 1 -1.074379,-1.000884 14.689953,14.689953 0 0 1 -0.969137,-1.103193 14.689953,14.689953 0 0 1 -0.854135,-1.194393 14.689953,14.689953 0 0 1 -0.26841,-0.467967 4.6663313,3.3957954 45 0 1 -0.117939,0.316209 4.6663313,3.3957954 45 0 1 -0.162014,0.306445 4.6663313,3.3957954 45 0 1 -0.198514,0.277993 4.6663313,3.3957954 45 0 1 -0.161585,0.178128 4.6663313,3.3957954 45 0 1 -0.256204,0.223238 4.6663313,3.3957954 45 0 1 -0.2866,0.188016 4.6663313,3.3957954 45 0 1 -0.314134,0.150962 4.6663313,3.3957954 45 0 1 -0.07551,0.02511 14.689953,14.689953 0 0 0 0.360894,0.336232 14.689953,14.689953 0 0 0 1.168934,0.888623 14.689953,14.689953 0 0 0 1.251839,0.767511 14.689953,14.689953 0 0 0 1.322223,0.638706 14.689953,14.689953 0 0 0 1.379356,0.503491 14.689953,14.689953 0 0 0 1.13396,0.289534 z"
         id="path4685" />
      <path
         inkscape:connector-curvature="0"
         style="opacity:1;fill:url(#linearGradient8597);fill-opacity:1;stroke:none;stroke-width:2;stroke-linecap:square;stroke-linejoin:miter;stroke-miterlimit:4;stroke-dasharray:none;stroke-dashoffset:0;stroke-opacity:1"
         d="m 94.120135,15.057667 a 14.689953,14.689953 0 0 1 -0.411315,0.67094 14.689953,14.689953 0 0 1 -0.888685,1.169 14.689953,14.689953 0 0 1 -1.000879,1.074378 14.689953,14.689953 0 0 1 -1.103195,0.969081 14.689953,14.689953 0 0 1 -1.194396,0.85413 14.689953,14.689953 0 0 1 -1.273689,0.730639 14.689953,14.689953 0 0 1 -0.516068,0.230933 14.689953,14.689953 0 0 1 -0.82422,0.368889 14.689953,14.689953 0 0 1 -1.277355,0.424441 3.0449308,3.0449308 0 0 1 0.163602,0.186185 3.0449308,3.0449308 0 0 1 0.177027,0.247595 3.0449308,3.0449308 0 0 1 0.151453,0.264019 3.0449308,3.0449308 0 0 1 0.124345,0.277812 3.0449308,3.0449308 0 0 1 0.09596,0.288801 3.0449308,3.0449308 0 0 1 0.06666,0.296981 3.0449308,3.0449308 0 0 1 0.0367,0.30217 3.0449308,3.0449308 0 0 1 0.0076,0.215362 3.0449308,3.0449308 0 0 1 -0.0029,0.06104 3.0449308,3.0449308 0 0 1 -0.01221,0.242957 3.0449308,3.0449308 0 0 1 -0.04548,0.300948 3.0449308,3.0449308 0 0 1 -0.07527,0.294904 3.0449308,3.0449308 0 0 1 -0.104385,0.28593 3.0449308,3.0449308 0 0 1 -0.132408,0.274032 3.0449308,3.0449308 0 0 1 -0.159081,0.259499 3.0449308,3.0449308 0 0 1 -0.184169,0.242285 3.0449308,3.0449308 0 0 1 -0.207491,0.222689 3.0449308,3.0449308 0 0 1 -0.228673,0.200898 3.0449308,3.0449308 0 0 1 -0.247533,0.177027 3.0449308,3.0449308 0 0 1 -0.264015,0.151453 3.0449308,3.0449308 0 0 1 -0.277815,0.124346 3.0449308,3.0449308 0 0 1 -0.288864,0.09596 3.0449308,3.0449308 0 0 1 -0.29698,0.06666 3.0449308,3.0449308 0 0 1 -0.302167,0.0367 3.0449308,3.0449308 0 0 1 -0.215366,0.0076 3.0449308,3.0449308 0 0 1 -0.303999,-0.01521 3.0449308,3.0449308 0 0 1 -0.300949,-0.04548 3.0449308,3.0449308 0 0 1 -0.294907,-0.07534 3.0449308,3.0449308 0 0 1 -0.285869,-0.104384 3.0449308,3.0449308 0 0 1 -0.274089,-0.132342 3.0449308,3.0449308 0 0 1 -0.259499,-0.159081 3.0449308,3.0449308 0 0 1 -0.242288,-0.184236 3.0449308,3.0449308 0 0 1 -0.222691,-0.207486 3.0449308,3.0449308 0 0 1 -0.200892,-0.228612 3.0449308,3.0449308 0 0 1 -0.177032,-0.247598 3.0449308,3.0449308 0 0 1 -0.151449,-0.264017 3.0449308,3.0449308 0 0 1 -0.124347,-0.27781 3.0449308,3.0449308 0 0 1 -0.09597,-0.288863 3.0449308,3.0449308 0 0 1 -0.06666,-0.296982 3.0449308,3.0449308 0 0 1 -0.0367,-0.302107 3.0449308,3.0449308 0 0 1 -0.0076,-0.215428 3.0449308,3.0449308 0 0 1 0.01525,-0.303999 3.0449308,3.0449308 0 0 1 0.04548,-0.300949 3.0449308,3.0449308 0 0 1 0.07527,-0.294903 3.0449308,3.0449308 0 0 1 0.104385,-0.285874 3.0449308,3.0449308 0 0 1 0.132408,-0.274088 3.0449308,3.0449308 0 0 1 0.04834,-0.07888 14.689953,14.689953 0 0 1 -0.01463,-0.0071 14.689953,14.689953 0 0 1 -0.652198,-0.03266 14.689953,14.689953 0 0 1 -0.43543,-0.06581 3.0449308,3.0449308 0 0 1 0.0353,0.07888 3.0449308,3.0449308 0 0 1 0.09603,0.288858 3.0449308,3.0449308 0 0 1 0.06666,0.296983 3.0449308,3.0449308 0 0 1 0.03662,0.302107 3.0449308,3.0449308 0 0 1 0.0076,0.215428 3.0449308,3.0449308 0 0 1 -0.01521,0.303999 3.0449308,3.0449308 0 0 1 -0.04548,0.300888 3.0449308,3.0449308 0 0 1 -0.07527,0.294907 3.0449308,3.0449308 0 0 1 -0.104384,0.285931 3.0449308,3.0449308 0 0 1 -0.132404,0.274088 3.0449308,3.0449308 0 0 1 -0.159086,0.259438 3.0449308,3.0449308 0 0 1 -0.184164,0.242346 3.0449308,3.0449308 0 0 1 -0.20749,0.222689 3.0449308,3.0449308 0 0 1 -0.228674,0.200898 3.0449308,3.0449308 0 0 1 -0.247596,0.177027 3.0449308,3.0449308 0 0 1 -0.264018,0.151453 3.0449308,3.0449308 0 0 1 -0.277812,0.124285 3.0449308,3.0449308 0 0 1 -0.288801,0.09603 3.0449308,3.0449308 0 0 1 -0.296982,0.06666 3.0449308,3.0449308 0 0 1 -0.302168,0.03661 3.0449308,3.0449308 0 0 1 -0.215362,0.0076 3.0449308,3.0449308 0 0 1 -0.304005,-0.01521 3.0449308,3.0449308 0 0 1 -0.300948,-0.04548 3.0449308,3.0449308 0 0 1 -0.294903,-0.07527 3.0449308,3.0449308 0 0 1 -0.285935,-0.104385 3.0449308,3.0449308 0 0 1 -0.274026,-0.132403 3.0449308,3.0449308 0 0 1 -0.259501,-0.159082 3.0449308,3.0449308 0 0 1 -0.242283,-0.184169 3.0449308,3.0449308 0 0 1 -0.22269,-0.207491 3.0449308,3.0449308 0 0 1 -0.200898,-0.228672 3.0449308,3.0449308 0 0 1 -0.177027,-0.247595 3.0449308,3.0449308 0 0 1 -0.15145,-0.26402 3.0449308,3.0449308 0 0 1 -0.124349,-0.277812 3.0449308,3.0449308 0 0 1 -0.09597,-0.288801 3.0449308,3.0449308 0 0 1 -0.06666,-0.296981 3.0449308,3.0449308 0 0 1 -0.0367,-0.30217 3.0449308,3.0449308 0 0 1 -0.0076,-0.215362 3.0449308,3.0449308 0 0 1 0.01521,-0.303999 3.0449308,3.0449308 0 0 1 0.04548,-0.300953 3.0449308,3.0449308 0 0 1 0.07533,-0.294902 3.0449308,3.0449308 0 0 1 0.104384,-0.285932 3.0449308,3.0449308 0 0 1 0.132342,-0.274031 3.0449308,3.0449308 0 0 1 0.159086,-0.259499 3.0449308,3.0449308 0 0 1 0.184231,-0.242285 3.0449308,3.0449308 0 0 1 0.20749,-0.222689 3.0449308,3.0449308 0 0 1 0.228607,-0.200897 3.0449308,3.0449308 0 0 1 0.201203,-0.143879 14.689953,14.689953 0 0 1 -0.646459,-0.312243 14.689953,14.689953 0 0 1 -1.251835,-0.767511 14.689953,14.689953 0 0 1 -0.06263,-0.04761 14.689953,14.689953 0 0 0 -0.0545,0.360524 14.689953,14.689953 0 0 0 -0.07337,1.466529 14.689953,14.689953 0 0 0 0.03682,1.039158 14.689953,14.689953 0 0 0 0.176969,1.457681 14.689953,14.689953 0 0 0 0.01802,0.08033 4.6663313,3.3957954 45 0 1 0.05073,0.04248 4.6663313,3.3957954 45 0 1 0.239415,0.227391 4.6663313,3.3957954 45 0 1 0.317433,0.34142 4.6663313,3.3957954 45 0 1 0.290203,0.361991 4.6663313,3.3957954 45 0 1 0.260233,0.378963 4.6663313,3.3957954 45 0 1 0.227511,0.392089 4.6663313,3.3957954 45 0 1 0.192597,0.401428 4.6663313,3.3957954 45 0 1 0.155721,0.406616 4.6663313,3.3957954 45 0 1 0.117327,0.40784 4.6663313,3.3957954 45 0 1 0.07771,0.404903 4.6663313,3.3957954 45 0 1 0.03735,0.39801 4.6663313,3.3957954 45 0 1 -0.0033,0.387082 4.6663313,3.3957954 45 0 1 -0.04407,0.37231 4.6663313,3.3957954 45 0 1 -0.08437,0.353813 4.6663313,3.3957954 45 0 1 -0.0057,0.01558 14.689953,14.689953 0 0 0 0.26841,0.467968 14.689953,14.689953 0 0 0 0.854131,1.194391 14.689953,14.689953 0 0 0 0.969142,1.103195 14.689953,14.689953 0 0 0 1.074379,1.000884 14.689953,14.689953 0 0 0 1.168938,0.888619 14.689953,14.689953 0 0 0 0.709699,0.435124 14.689953,14.689953 0 0 0 0.288806,0.07375 14.689953,14.689953 0 0 0 1.451875,0.219454 14.689953,14.689953 0 0 0 1.466529,0.07338 14.689953,14.689953 0 0 0 1.039157,-0.03683 14.689953,14.689953 0 0 0 1.457681,-0.176907 14.689953,14.689953 0 0 0 1.432706,-0.321582 14.689953,14.689953 0 0 0 1.393462,-0.46302 14.689953,14.689953 0 0 0 1.133712,-0.5074 14.689953,14.689953 0 0 0 0.06116,-0.04371 14.689953,14.689953 0 0 0 1.103194,-0.969141 14.689953,14.689953 0 0 0 1.000879,-1.074379 14.689953,14.689953 0 0 0 0.888686,-1.169001 14.689953,14.689953 0 0 0 0.767448,-1.251773 14.689953,14.689953 0 0 0 0.638707,-1.322222 14.689953,14.689953 0 0 0 0.503495,-1.379357 14.689953,14.689953 0 0 0 0.363336,-1.422759 14.689953,14.689953 0 0 0 0.219391,-1.451879 14.689953,14.689953 0 0 0 0.06342,-1.267769 14.689953,14.689953 0 0 0 0.0099,-0.198762 14.689953,14.689953 0 0 0 -0.03675,-1.039157 14.689953,14.689953 0 0 0 -0.17697,-1.457677 14.689953,14.689953 0 0 0 -0.321581,-1.432709 14.689953,14.689953 0 0 0 -0.124714,-0.375303 14.689953,14.689953 0 0 0 -0.338306,-1.018218 14.689953,14.689953 0 0 0 -0.36981,-0.826297 z"
         id="path4687" />
      <path
         inkscape:connector-curvature="0"
         style="opacity:1;fill:url(#radialGradient4734);fill-opacity:1;stroke:#000000;stroke-width:0.0625094;stroke-linecap:square;stroke-linejoin:miter;stroke-miterlimit:4;stroke-dasharray:none;stroke-dashoffset:0;stroke-opacity:1"
         d="m 83.408751,20.584131 a 3.0449308,3.0449308 0 0 0 -0.215368,0.0076 3.0449308,3.0449308 0 0 0 -0.302168,0.03661 3.0449308,3.0449308 0 0 0 -0.296982,0.06666 3.0449308,3.0449308 0 0 0 -0.288862,0.09603 3.0449308,3.0449308 0 0 0 -0.254861,0.114029 3.0449308,3.0449308 0 0 0 -0.02297,0.01026 3.0449308,3.0449308 0 0 0 -0.264014,0.151454 3.0449308,3.0449308 0 0 0 -0.247539,0.177027 3.0449308,3.0449308 0 0 0 -0.228668,0.200897 3.0449308,3.0449308 0 0 0 -0.207491,0.22269 3.0449308,3.0449308 0 0 0 -0.184173,0.242346 3.0449308,3.0449308 0 0 0 -0.106955,0.174405 3.0449308,3.0449308 0 0 0 -0.0037,0.0062 3.0449308,3.0449308 0 0 0 -0.04835,0.07886 3.0449308,3.0449308 0 0 0 -0.132408,0.274088 3.0449308,3.0449308 0 0 0 -0.104374,0.285874 3.0449308,3.0449308 0 0 0 -0.07528,0.294903 3.0449308,3.0449308 0 0 0 -0.04548,0.300949 3.0449308,3.0449308 0 0 0 -0.01525,0.303999 3.0449308,3.0449308 0 0 0 0.0076,0.215428 3.0449308,3.0449308 0 0 0 0.0367,0.302107 3.0449308,3.0449308 0 0 0 0.06666,0.296983 3.0449308,3.0449308 0 0 0 0.09596,0.288862 3.0449308,3.0449308 0 0 0 0.124347,0.277812 3.0449308,3.0449308 0 0 0 0.151448,0.264014 3.0449308,3.0449308 0 0 0 0.177032,0.2476 3.0449308,3.0449308 0 0 0 0.200898,0.228611 3.0449308,3.0449308 0 0 0 0.222689,0.207486 3.0449308,3.0449308 0 0 0 0.242285,0.184235 3.0449308,3.0449308 0 0 0 0.259499,0.159081 3.0449308,3.0449308 0 0 0 0.274092,0.132342 3.0449308,3.0449308 0 0 0 0.285866,0.104385 3.0449308,3.0449308 0 0 0 0.294907,0.07533 3.0449308,3.0449308 0 0 0 0.300949,0.04548 3.0449308,3.0449308 0 0 0 0.304003,0.01521 3.0449308,3.0449308 0 0 0 0.215362,-0.0076 3.0449308,3.0449308 0 0 0 0.302169,-0.0367 3.0449308,3.0449308 0 0 0 0.296982,-0.06666 3.0449308,3.0449308 0 0 0 0.288863,-0.09596 3.0449308,3.0449308 0 0 0 0.277811,-0.124346 3.0449308,3.0449308 0 0 0 0.264015,-0.151455 3.0449308,3.0449308 0 0 0 0.247533,-0.177026 3.0449308,3.0449308 0 0 0 0.228678,-0.200897 3.0449308,3.0449308 0 0 0 0.207487,-0.22269 3.0449308,3.0449308 0 0 0 0.184172,-0.242285 3.0449308,3.0449308 0 0 0 0.159078,-0.259499 3.0449308,3.0449308 0 0 0 0.132407,-0.27403 3.0449308,3.0449308 0 0 0 0.104385,-0.285931 3.0449308,3.0449308 0 0 0 0.07527,-0.294904 3.0449308,3.0449308 0 0 0 0.04548,-0.300948 3.0449308,3.0449308 0 0 0 0.01221,-0.242956 3.0449308,3.0449308 0 0 0 0.0029,-0.06104 3.0449308,3.0449308 0 0 0 -0.0076,-0.215362 3.0449308,3.0449308 0 0 0 -0.0367,-0.302169 3.0449308,3.0449308 0 0 0 -0.06666,-0.296981 3.0449308,3.0449308 0 0 0 -0.09596,-0.288802 3.0449308,3.0449308 0 0 0 -0.124346,-0.277811 3.0449308,3.0449308 0 0 0 -0.15145,-0.264019 3.0449308,3.0449308 0 0 0 -0.177031,-0.247595 3.0449308,3.0449308 0 0 0 -0.1636,-0.186185 3.0449308,3.0449308 0 0 0 -0.03728,-0.04248 3.0449308,3.0449308 0 0 0 -0.22269,-0.207487 3.0449308,3.0449308 0 0 0 -0.242285,-0.184173 3.0449308,3.0449308 0 0 0 -0.0107,-0.0065 3.0449308,3.0449308 0 0 0 -0.248816,-0.15255 3.0449308,3.0449308 0 0 0 -0.274089,-0.132404 3.0449308,3.0449308 0 0 0 -0.285868,-0.104384 3.0449308,3.0449308 0 0 0 -0.294908,-0.07527 3.0449308,3.0449308 0 0 0 -0.300948,-0.04548 3.0449308,3.0449308 0 0 0 -0.304001,-0.01521 z"
         id="path4689" />
      <path
         style="opacity:1;fill:url(#radialGradient4736);fill-opacity:1;stroke:#000000;stroke-width:0.0625094;stroke-linecap:square;stroke-linejoin:miter;stroke-miterlimit:4;stroke-dasharray:none;stroke-dashoffset:0;stroke-opacity:1"
         d="m 76.879995,20.122089 c -0.07187,0 -0.143729,0.0024 -0.215428,0.0076 -0.101253,0.0072 -0.202076,0.01942 -0.302107,0.0367 -0.100039,0.01728 -0.199162,0.0395 -0.296981,0.06666 -0.09782,0.02717 -0.194234,0.05918 -0.288863,0.09596 -0.09461,0.03678 -0.187335,0.07829 -0.277812,0.124349 -0.09048,0.04604 -0.178589,0.0966 -0.264014,0.15145 -0.01558,0.01092 -0.03104,0.02194 -0.0464,0.03315 -0.06899,0.04522 -0.13611,0.09321 -0.201203,0.143878 -0.07951,0.06312 -0.1558,0.130165 -0.228608,0.200898 -0.07283,0.07072 -0.142084,0.145051 -0.207489,0.22269 -0.06541,0.07764 -0.126899,0.158505 -0.184231,0.242285 -0.05733,0.08379 -0.110413,0.170404 -0.159086,0.259499 -0.04865,0.08908 -0.09283,0.180541 -0.132342,0.27403 -0.03954,0.09351 -0.07438,0.18894 -0.104385,0.285931 -0.03002,0.09699 -0.05515,0.195408 -0.07532,0.294904 -0.02016,0.0995 -0.03534,0.199937 -0.04548,0.300952 -0.01015,0.10101 -0.01521,0.202476 -0.01521,0.304 0,0.07185 0.0024,0.143688 0.0076,0.215362 0.0072,0.101275 0.01942,0.202121 0.0367,0.30217 0.01724,0.100039 0.0395,0.199161 0.06666,0.29698 0.02714,0.09781 0.05918,0.194193 0.09596,0.288802 0.03678,0.09462 0.07829,0.187339 0.12435,0.277812 0.04604,0.09048 0.0966,0.178593 0.151449,0.264019 0.05484,0.08543 0.113926,0.168066 0.177028,0.247595 0.06312,0.07953 0.130164,0.155844 0.200901,0.228672 0.07073,0.07283 0.145045,0.142081 0.22269,0.207492 0.07764,0.06539 0.1585,0.126856 0.24228,0.184168 0.0838,0.05733 0.170405,0.110413 0.259504,0.159081 0.08908,0.04868 0.180532,0.09286 0.274027,0.132404 0.09351,0.03954 0.188938,0.07438 0.28593,0.104385 0.09698,0.02998 0.195413,0.05511 0.294903,0.07527 0.0995,0.02016 0.199937,0.03535 0.300949,0.04548 0.101021,0.01015 0.202476,0.01522 0.304004,0.01522 0.07185,-5e-6 0.143684,-0.0024 0.215362,-0.0076 0.101274,-0.0072 0.202122,-0.01938 0.302172,-0.03662 0.10004,-0.01728 0.199158,-0.0395 0.296979,-0.06667 0.09781,-0.02717 0.194192,-0.05922 0.288799,-0.09603 0.09463,-0.03678 0.187341,-0.07825 0.277812,-0.124284 0.09048,-0.04604 0.178594,-0.0966 0.26402,-0.151453 0.08543,-0.05485 0.168066,-0.113927 0.247595,-0.177027 0.07953,-0.06312 0.155844,-0.130161 0.228673,-0.200897 0.07283,-0.07073 0.142085,-0.145047 0.20749,-0.222691 0.06539,-0.07766 0.126859,-0.158541 0.18417,-0.242345 0.05732,-0.08377 0.110412,-0.170359 0.159082,-0.259439 0.04867,-0.0891 0.09287,-0.180577 0.132402,-0.274088 0.03954,-0.09351 0.07439,-0.188939 0.104385,-0.28593 0.02998,-0.09699 0.05511,-0.195414 0.07527,-0.294909 0.02016,-0.09948 0.03535,-0.199894 0.04548,-0.300885 0.01015,-0.10101 0.01521,-0.202478 0.01521,-0.304 0,-0.07187 -0.0024,-0.14373 -0.0076,-0.215429 -0.0072,-0.101241 -0.01938,-0.202077 -0.03661,-0.302107 -0.01724,-0.10004 -0.0395,-0.199162 -0.06666,-0.296981 -0.02717,-0.09783 -0.05922,-0.194235 -0.09601,-0.288858 -0.01138,-0.02647 -0.02317,-0.05275 -0.0353,-0.07888 -0.02729,-0.06735 -0.05697,-0.133709 -0.089,-0.198943 -0.04604,-0.09048 -0.0966,-0.178589 -0.151455,-0.264014 -0.05484,-0.08544 -0.113925,-0.168067 -0.177027,-0.247596 -0.06009,-0.07531 -0.123738,-0.147734 -0.190699,-0.217016 -0.217386,-0.223653 -0.466413,-0.414177 -0.74865,-0.569115 -0.08467,-0.04597 -0.171468,-0.08789 -0.26011,-0.125628 -0.09351,-0.03954 -0.188939,-0.07439 -0.285934,-0.104384 -0.09699,-0.03002 -0.195406,-0.05515 -0.294904,-0.07534 -0.0995,-0.02016 -0.199936,-0.03535 -0.300947,-0.04548 -0.100999,-0.01015 -0.202437,-0.01521 -0.303939,-0.01521 z"
         id="path4691"
         inkscape:connector-curvature="0"
         sodipodi:nodetypes="ccccccccccccccccccccscccccccccccccccccccccccccccccccccccccccccccc" />
      <circle
         style="opacity:1;fill:#1a2020;fill-opacity:1;stroke:none;stroke-width:2;stroke-linecap:square;stroke-linejoin:miter;stroke-miterlimit:4;stroke-dasharray:none;stroke-dashoffset:0;stroke-opacity:1"
         id="circle4693"
         cx="84.032104"
         cy="23.902218"
         r="2.1480033" />
      <circle
         r="1.878482"
         cy="23.632702"
         cx="77.832718"
         id="circle4695"
         style="opacity:1;fill:#1a2020;fill-opacity:1;stroke:none;stroke-width:2;stroke-linecap:square;stroke-linejoin:miter;stroke-miterlimit:4;stroke-dasharray:none;stroke-dashoffset:0;stroke-opacity:1" />
      <path
         inkscape:connector-curvature="0"
         style="opacity:1;fill:#f7f7f7;fill-opacity:0.821875;stroke:none;stroke-width:2;stroke-linecap:square;stroke-linejoin:miter;stroke-miterlimit:4;stroke-dasharray:none;stroke-dashoffset:0;stroke-opacity:1"
         d="m 77.819894,21.754657 a 1.878482,1.878482 0 0 0 -1.385949,0.627112 0.77558595,0.71034491 0 0 0 0.66886,0.352528 0.77558595,0.71034491 0 0 0 0.77563,-0.710372 0.77558595,0.71034491 0 0 0 -0.05854,-0.269268 z"
         id="path4697" />
      <path
         inkscape:connector-curvature="0"
         style="opacity:1;fill:#f7f7f7;fill-opacity:0.821875;stroke:none;stroke-width:2;stroke-linecap:square;stroke-linejoin:miter;stroke-miterlimit:4;stroke-dasharray:none;stroke-dashoffset:0;stroke-opacity:1"
         d="m 83.809383,21.768211 a 2.1480033,2.1480033 0 0 0 -1.349206,0.674052 0.77558595,0.71034491 0 0 0 0.625709,0.292034 0.77558595,0.71034491 0 0 0 0.775628,-0.710372 0.77558595,0.71034491 0 0 0 -0.05213,-0.255714 z"
         id="path4699" />
      <path
         id="path4703"
         d="m 69.594977,23.129622 a 2.1172643,1.5407815 45 0 0 -0.171061,0.01465 2.1172643,1.5407815 45 0 0 -0.163169,0.03294 2.1172643,1.5407815 45 0 0 -0.0249,0.0083 2.1172643,1.5407815 45 0 0 -0.128688,0.04271 2.1172643,1.5407815 45 0 0 -0.14253,0.0685 2.1172643,1.5407815 45 0 0 -0.13007,0.08531 2.1172643,1.5407815 45 0 0 -0.116243,0.101297 2.1172643,1.5407815 45 0 0 -0.07332,0.08083 2.1172643,1.5407815 45 0 0 -0.09007,0.126135 2.1172643,1.5407815 45 0 0 -0.07348,0.139043 2.1172643,1.5407815 45 0 0 -0.05617,0.150538 2.1172643,1.5407815 45 0 0 -0.03827,0.160537 2.1172643,1.5407815 45 0 0 -0.02004,0.168929 2.1172643,1.5407815 45 0 0 -0.0017,0.175628 2.1172643,1.5407815 45 0 0 0.01695,0.180591 2.1172643,1.5407815 45 0 0 0.03526,0.183719 2.1172643,1.5407815 45 0 0 0.05325,0.185051 2.1172643,1.5407815 45 0 0 0.07066,0.184495 2.1172643,1.5407815 45 0 0 0.08739,0.182139 2.1172643,1.5407815 45 0 0 0.103226,0.177902 2.1172643,1.5407815 45 0 0 0.11805,0.171946 2.1172643,1.5407815 45 0 0 0.131702,0.164249 2.1172643,1.5407815 45 0 0 0.144031,0.154913 2.1172643,1.5407815 45 0 0 0.108631,0.103172 2.1172643,1.5407815 45 0 0 0.161671,0.135443 2.1172643,1.5407815 45 0 0 0.169873,0.122148 2.1172643,1.5407815 45 0 0 0.176349,0.107682 2.1172643,1.5407815 45 0 0 0.18109,0.0921 2.1172643,1.5407815 45 0 0 0.183995,0.07564 2.1172643,1.5407815 45 0 0 0.185076,0.05836 2.1172643,1.5407815 45 0 0 0.184301,0.04057 2.1172643,1.5407815 45 0 0 0.181699,0.0223 2.1172643,1.5407815 45 0 0 0.177266,0.0038 2.1172643,1.5407815 45 0 0 0.17106,-0.01463 2.1172643,1.5407815 45 0 0 0.163168,-0.03294 2.1172643,1.5407815 45 0 0 0.119353,-0.03963 2.1172643,1.5407815 45 0 0 0.03426,-0.01138 2.1172643,1.5407815 45 0 0 0.14253,-0.0685 2.1172643,1.5407815 45 0 0 0.130045,-0.08531 2.1172643,1.5407815 45 0 0 0.116243,-0.101296 2.1172643,1.5407815 45 0 0 0.07332,-0.08083 2.1172643,1.5407815 45 0 0 0.09007,-0.126136 2.1172643,1.5407815 45 0 0 0.07351,-0.139042 2.1172643,1.5407815 45 0 0 0.05351,-0.143475 2.1172643,1.5407815 45 0 0 0.0024,-0.0071 2.1172643,1.5407815 45 0 0 0.03827,-0.160533 2.1172643,1.5407815 45 0 0 0.02001,-0.16893 2.1172643,1.5407815 45 0 0 0.0017,-0.175632 2.1172643,1.5407815 45 0 0 -0.01695,-0.18059 2.1172643,1.5407815 45 0 0 -0.03526,-0.183719 2.1172643,1.5407815 45 0 0 -0.05324,-0.185051 2.1172643,1.5407815 45 0 0 -0.07066,-0.184495 2.1172643,1.5407815 45 0 0 -0.08738,-0.18214 2.1172643,1.5407815 45 0 0 -0.103238,-0.177901 2.1172643,1.5407815 45 0 0 -0.118074,-0.171948 2.1172643,1.5407815 45 0 0 -0.131675,-0.164247 2.1172643,1.5407815 45 0 0 -0.144026,-0.154914 2.1172643,1.5407815 45 0 0 -0.108642,-0.103182 2.1172643,1.5407815 45 0 0 -0.02302,-0.01926 2.1172643,1.5407815 45 0 0 -0.138655,-0.116135 2.1172643,1.5407815 45 0 0 -0.169872,-0.122177 2.1172643,1.5407815 45 0 0 -0.17638,-0.107682 2.1172643,1.5407815 45 0 0 -0.181059,-0.09209 2.1172643,1.5407815 45 0 0 -0.183996,-0.07564 2.1172643,1.5407815 45 0 0 -0.185076,-0.05836 2.1172643,1.5407815 45 0 0 -0.18433,-0.04054 2.1172643,1.5407815 45 0 0 -0.18167,-0.0223 2.1172643,1.5407815 45 0 0 -0.177266,-0.0037 z"
         style="opacity:1;fill:#ffffff;fill-opacity:0.08994709;stroke:none;stroke-width:2;stroke-linecap:square;stroke-linejoin:miter;stroke-miterlimit:4;stroke-dasharray:none;stroke-dashoffset:0;stroke-opacity:1"
         inkscape:connector-curvature="0" />
      <path
         id="path4705"
         d="m 74.327851,15.474905 a 14.689953,14.689953 0 0 0 -0.06867,0.142233 14.689953,14.689953 0 0 0 -0.353385,0.968102 14.689953,14.689953 0 0 0 -0.150109,0.411259 14.689953,14.689953 0 0 0 -0.363275,1.422758 14.689953,14.689953 0 0 0 -0.164941,1.091353 14.689953,14.689953 0 0 0 0.06263,0.04761 14.689953,14.689953 0 0 0 1.251835,0.767509 14.689953,14.689953 0 0 0 0.646459,0.312242 3.0449308,3.0449308 0 0 1 0.0464,-0.03315 3.0449308,3.0449308 0 0 1 0.264015,-0.151449 3.0449308,3.0449308 0 0 1 0.277811,-0.124351 3.0449308,3.0449308 0 0 1 0.288864,-0.09596 3.0449308,3.0449308 0 0 1 0.296981,-0.06666 3.0449308,3.0449308 0 0 1 0.302107,-0.0367 3.0449308,3.0449308 0 0 1 0.215428,-0.0076 3.0449308,3.0449308 0 0 1 0.303938,0.01521 3.0449308,3.0449308 0 0 1 0.300949,0.04548 3.0449308,3.0449308 0 0 1 0.294903,0.07534 3.0449308,3.0449308 0 0 1 0.285935,0.104385 3.0449308,3.0449308 0 0 1 0.260109,0.125628 3.0449308,3.0449308 0 0 1 0.01398,0.0067 3.0449308,3.0449308 0 0 1 0.259438,0.15908 3.0449308,3.0449308 0 0 1 0.242346,0.184232 3.0449308,3.0449308 0 0 1 0.222691,0.20749 3.0449308,3.0449308 0 0 1 0.01015,0.01159 3.0449308,3.0449308 0 0 1 0.1907,0.217016 3.0449308,3.0449308 0 0 1 0.177027,0.247595 3.0449308,3.0449308 0 0 1 0.151453,0.264014 3.0449308,3.0449308 0 0 1 0.089,0.198944 14.689953,14.689953 0 0 0 0.435426,0.0658 14.689953,14.689953 0 0 0 0.652199,0.03266 14.689953,14.689953 0 0 0 0.01843,8.24e-4 3.0449308,3.0449308 0 0 1 0.106955,-0.174405 3.0449308,3.0449308 0 0 1 0.184173,-0.242347 3.0449308,3.0449308 0 0 1 0.20749,-0.222689 3.0449308,3.0449308 0 0 1 0.228669,-0.200897 3.0449308,3.0449308 0 0 1 0.247538,-0.177027 3.0449308,3.0449308 0 0 1 0.264015,-0.151454 3.0449308,3.0449308 0 0 1 0.02297,-0.01026 14.689953,14.689953 0 0 1 -0.446353,-0.06745 14.689953,14.689953 0 0 1 -1.422701,-0.363278 14.689953,14.689953 0 0 1 -1.379357,-0.503553 14.689953,14.689953 0 0 1 -1.322223,-0.638644 14.689953,14.689953 0 0 1 -0.978233,-0.599761 14.689953,14.689953 0 0 1 -0.480478,-0.546961 14.689953,14.689953 0 0 1 -0.854135,-1.194391 14.689953,14.689953 0 0 1 -0.730638,-1.27369 14.689953,14.689953 0 0 1 -0.108542,-0.24247 z m 13.404057,5.281863 a 14.689953,14.689953 0 0 1 -0.71245,0.159935 14.689953,14.689953 0 0 1 -1.457739,0.176969 14.689953,14.689953 0 0 1 -0.444341,0.01575 3.0449308,3.0449308 0 0 1 0.0107,0.0065 3.0449308,3.0449308 0 0 1 0.242285,0.184173 3.0449308,3.0449308 0 0 1 0.222689,0.207487 3.0449308,3.0449308 0 0 1 0.03731,0.04249 14.689953,14.689953 0 0 0 1.277355,-0.424441 14.689953,14.689953 0 0 0 0.82422,-0.36889 z"
         style="opacity:1;fill:url(#linearGradient8599);fill-opacity:1;stroke:none;stroke-width:2;stroke-linecap:square;stroke-linejoin:miter;stroke-miterlimit:4;stroke-dasharray:none;stroke-dashoffset:0;stroke-opacity:1"
         inkscape:connector-curvature="0" />
      <path
         id="path4707"
         d="m 80.258586,33.86097 a 14.689953,14.689953 0 0 1 -0.709705,-0.435123 14.689953,14.689953 0 0 1 -1.168938,-0.88862 14.689953,14.689953 0 0 1 -1.074379,-1.000884 14.689953,14.689953 0 0 1 -0.969137,-1.103193 14.689953,14.689953 0 0 1 -0.854135,-1.194393 14.689953,14.689953 0 0 1 -0.26841,-0.467967 4.6663313,3.3957954 45 0 1 -0.117939,0.316209 4.6663313,3.3957954 45 0 1 -0.162014,0.306445 4.6663313,3.3957954 45 0 1 -0.198514,0.277993 4.6663313,3.3957954 45 0 1 -0.161585,0.178128 4.6663313,3.3957954 45 0 1 -0.256204,0.223238 4.6663313,3.3957954 45 0 1 -0.2866,0.188016 4.6663313,3.3957954 45 0 1 -0.314134,0.150962 4.6663313,3.3957954 45 0 1 -0.07551,0.02511 14.689953,14.689953 0 0 0 0.360894,0.336232 14.689953,14.689953 0 0 0 1.168934,0.888623 14.689953,14.689953 0 0 0 1.251839,0.767511 14.689953,14.689953 0 0 0 1.322223,0.638706 14.689953,14.689953 0 0 0 1.379356,0.503491 14.689953,14.689953 0 0 0 1.13396,0.289534 z"
         style="opacity:1;fill:url(#linearGradient4742-6);fill-opacity:1;stroke:none;stroke-width:2;stroke-linecap:square;stroke-linejoin:miter;stroke-miterlimit:4;stroke-dasharray:none;stroke-dashoffset:0;stroke-opacity:1"
         inkscape:connector-curvature="0" />
      <path
         sodipodi:nodetypes="cccc"
         inkscape:connector-curvature="0"
         d="m 75.592797,31.282456 c 6.599684,1.280443 9.955683,0.330594 13.482428,-3.341684 0.0244,3.122865 -3.060705,3.930595 -4.781991,4.193309 -3.030243,0.468315 -5.184672,0.428815 -8.701657,-0.851625"
         style="fill:#211f19;fill-opacity:0.5152838;fill-rule:nonzero;stroke:none"
         id="path4909-3" />
    </g>
    <g
       inkscape:transform-center-y="-56.096317"
       inkscape:transform-center-x="-26.031805"
       transform="matrix(0.21821133,0.05846955,-0.05846955,0.21821133,94.832156,25.548197)"
       id="g4709">
      <path
         style="fill:none"
         inkscape:connector-curvature="0"
         d="M 0,0 48,0 48,48 0,48 Z"
         id="path4711" />
      <path
         style="fill:url(#linearGradient4814-4);fill-opacity:1"
         sodipodi:nodetypes="csccccccc"
         inkscape:transform-center-y="78.319958"
         inkscape:transform-center-x="-193.63891"
         inkscape:connector-curvature="0"
         d="m -30.348235,29.824711 -2.498003,2.47598 c -0.628647,0.623104 -1.703153,1.500299 -1.703153,1.500299 L 6.0485893,34.177149 13.26349,32.865942 13.208122,29.199185 5.9543545,27.936553 -28.951172,28.44454 Z"
         id="path4713" />
      <path
         id="path4715"
         d="m -2.1544174,34.134069 8.2030087,0.04308 7.2149007,-1.311207 -0.05537,-3.666757 -7.2537675,-1.262632 -7.4699958,0.112798 c -0.6387761,6.084718 0,0 -0.6387761,6.084718 z"
         inkscape:connector-curvature="0"
         inkscape:transform-center-x="-193.63891"
         inkscape:transform-center-y="78.319958"
         sodipodi:nodetypes="ccccccc"
         style="fill:url(#linearGradient4826);fill-opacity:1" />
      <path
         style="fill:url(#linearGradient4870);fill-opacity:1"
         id="path4717"
         d="m 13.447428,35.25939 c 3.280175,1.828748 8.56561,1.748938 11.789074,-0.178018 2.551503,-1.525262 6.184609,-1.05239 7.859381,-0.118678 0.552785,-2.437062 -1.049612,-5.085582 -4.032491,-6.748583 -4.380174,-2.442015 -11.414321,-2.335799 -15.718764,0.237357 -3.223462,1.926953 -3.177374,4.979172 0.1028,6.807922 z"
         inkscape:connector-curvature="0"
         inkscape:transform-center-x="-193.63891"
         inkscape:transform-center-y="78.319958"
         sodipodi:nodetypes="sscsss" />
      <path
         inkscape:connector-curvature="0"
         inkscape:original-d="m -1.585296,28.083231 -4.2405073,-1e-6 -1.0247147,6.051942 4.6960705,-0.0011 z"
         inkscape:path-effect="#path-effect4836-4-1"
         id="path4719"
         d="m -1.585296,28.083231 -4.2405073,-1e-6 -1.0247147,6.051942 4.6960705,-0.0011 0.5691515,-6.050841 z"
         style="fill:url(#linearGradient4750);fill-opacity:1;fill-rule:evenodd;stroke:none;stroke-width:0.13835086px;stroke-linecap:butt;stroke-linejoin:miter;stroke-opacity:1" />
    </g>
  </g>
</svg>
