<svg xmlns="http://www.w3.org/2000/svg" viewBox="0 0 48 48"><defs><linearGradient id="0" x1="211.38" y1="214.74" x2="207.4" y2="118.42" gradientUnits="userSpaceOnUse"><stop stop-color="#e02d2d"/><stop offset="1" stop-color="#f75151"/></linearGradient></defs><rect width="97.1" height="100.46" x="160.84" y="115.15" fill="url(#0)" rx="5.581" stroke-width="1" fill-rule="evenodd" transform="matrix(.43254 0 0 .4778-66.57-55.02)"/><g transform="translate(-.351-.958)" fill="#fff" fill-opacity=".851"><path d="m33.494 17.606c-1.045-1.03-2.488-1.544-4.331-1.544-.51 0-1.03.09-1.562.267-.531.179-1.024.419-1.482.723-.456.302-.85.587-1.179.853-.33.266-.642.549-.938.846-.296-.299-.61-.581-.938-.846-.33-.266-.722-.55-1.179-.853-.456-.302-.95-.544-1.482-.723-.531-.179-1.051-.267-1.562-.267-1.843 0-3.286.515-4.331 1.544-1.045 1.03-1.568 2.458-1.568 4.285 0 .557.096 1.13.29 1.718.194.59.413 1.093.661 1.507.246.414.526.821.838 1.214.312.395.541.666.685.816.144.149.258.258.339.323l7.7 7.499c.149.15.33.224.542.224.214 0 .395-.075.542-.224l7.688-7.475c1.885-1.902 2.825-3.769 2.825-5.606 0-1.827-.523-3.256-1.568-4.285"/><path d="m12.296 4.187c-.313-.309-.746-.463-1.299-.463-.153 0-.309.027-.468.08-.159.054-.307.126-.444.217-.137.091-.255.176-.354.256-.099.08-.192.165-.281.254-.089-.09-.183-.174-.281-.254-.099-.08-.216-.165-.354-.256-.137-.091-.285-.163-.444-.217-.159-.054-.315-.08-.468-.08-.553 0-.986.155-1.299.463-.313.309-.47.737-.47 1.285 0 .167.029.339.087.515.058.177.124.328.198.452.074.124.158.246.252.364.094.119.162.2.205.245.043.045.077.077.102.097l2.31 2.25c.045.045.099.067.163.067.064 0 .119-.023.163-.067l2.306-2.242c.565-.571.848-1.131.848-1.682 0-.548-.157-.977-.47-1.285"/><path d="m42.1 40.916c-.313-.309-.746-.463-1.299-.463-.153 0-.309.027-.468.08-.159.054-.307.126-.444.217-.137.091-.255.176-.354.256-.099.08-.192.165-.281.254-.089-.09-.183-.174-.281-.254-.099-.08-.216-.165-.354-.256-.137-.091-.285-.163-.444-.217-.159-.054-.315-.08-.468-.08-.553 0-.986.155-1.299.463-.313.309-.47.737-.47 1.285 0 .167.029.339.087.515.058.177.124.328.198.452.074.124.158.246.252.364.094.119.162.2.205.245.043.045.077.077.102.097l2.31 2.25c.045.045.099.067.163.067.064 0 .119-.023.163-.067l2.306-2.242c.565-.571.848-1.131.848-1.682 0-.548-.157-.977-.47-1.285"/></g></svg>