<svg xmlns="http://www.w3.org/2000/svg" viewBox="0 0 48 48"><defs><linearGradient id="0" gradientUnits="userSpaceOnUse" y1="20.995" x2="0" y2="-25.291"><stop stop-color="#c52828"/><stop offset="1" stop-color="#ff5454"/></linearGradient></defs><g transform="matrix(.99999 0 0 .99999-38.37 25.882)" enable-background="new"><circle r="24" cy="-1.875" cx="62.37" fill="url(#0)"/><path d="m56.37-13.275c-6.636 0-12 5.361-12 12 0 6.638 5.365 11.999 12 12 6.928-.002 11.52-4.867 11.52-11.727 0-.789-.087-1.39-.189-1.99h-11.334v4.117h6.809c-.273 1.764-2.057 5.174-6.809 5.174-4.095 0-7.441-3.392-7.441-7.574 0-4.182 3.343-7.574 7.441-7.574 2.334 0 3.892.996 4.783 1.848l3.264-3.133c-2.091-1.959-4.8-3.141-8.04-3.141m18 6v3h-3v3h3v3h3v-3h3v-3h-3v-3h-3" fill="#fce5e5"/></g></svg>