<svg xmlns="http://www.w3.org/2000/svg" viewBox="0 0 48 48"><defs><linearGradient id="0" gradientUnits="userSpaceOnUse" x1="62.6" y1="11.846" x2="62.15" y2="-35.476"><stop stop-color="#d3d3d3"/><stop offset="1" stop-color="#fcf9f9"/></linearGradient></defs><g transform="matrix(.99999 0 0 .99999-38.469 35.815)" enable-background="new"><circle r="24" cy="-11.815" cx="62.47" fill="url(#0)"/><flowRoot font-size="10" letter-spacing="0" line-height="125%" word-spacing="0" text-align="start" transform="matrix(1.71431 0 0 1.71431 22.537-41.547)" font-family="sans-serif"><flowRegion><path d="m22 3h27v15h-27z"/></flowRegion><flowPara>Plasm</flowPara></flowRoot><path transform="matrix(.88193 0 0 .88193 76.1-30.12)" d="m-21.22 5.777l-8.193 2.76-1.695 8.506 6.496 5.748 8.193-2.76 1.695-8.506-6.496-5.748m15.365 3.15l-8.193 2.76-1.697 8.506 6.498 5.748 8.191-2.76 1.697-8.508-6.496-5.746m-10.324 11.836l-8.193 2.76-1.695 8.508 6.496 5.746 8.193-2.76 1.695-8.506-6.496-5.748z" fill-opacity=".649"/></g></svg>