<svg xmlns="http://www.w3.org/2000/svg" viewBox="0 0 48 48"><defs><linearGradient gradientTransform="matrix(1.05233 0 0 1.02761 36.493-16.08)" gradientUnits="userSpaceOnUse" y2="507.8" x2="0" y1="542.8" id="0"><stop stop-color="#030303"/><stop offset="1" stop-color="#272727"/></linearGradient></defs><g transform="matrix(1.03666 0 0 1.03666-459.41-518.13)"><rect y="505.74" x="443.29" height="34.939" width="46.3" fill="url(#0)" rx="1.644" stroke-width="1"/><g transform="matrix(.83318 0 0 .83318 174.92 77.2)" fill="#fdfdfd"><circle cx="373.37" cy="518.74" r="2.25"/><circle cx="367.84" cy="518.78" r="2.25"/><circle cx="362.41" cy="518.84" r="2.25"/></g><g transform="matrix(.8 0 0 .8 139.64 103.55)" fill="#fdfdfd"><path d="m398.57 515.8h1v8h-1z"/><path d="m400.57 515.8h1v8h-1z"/><path d="m402.57 515.8h1v8h-1z"/><g transform="scale(-1 1)"><path d="m-418.57 515.8h1v8h-1z"/><path d="m-416.57 515.8h1v8h-1z"/><path d="m-414.57 515.8h1v8h-1z"/></g><path d="m398.57 527.8h1v8h-1z"/><path d="m400.57 527.8h1v8h-1z"/><path d="m402.57 527.8h1v8h-1z"/><g transform="scale(-1 1)"><path d="m-418.57 527.8h1v8h-1z"/><path d="m-416.57 527.8h1v8h-1z"/><path d="m-414.57 527.8h1v8h-1z"/></g><path d="m404.57 523.8h1v4h-1z"/><path d="m408.57 523.8h1v4h-1z"/><path d="m412.57 523.8h1v4h-1z"/></g></g></svg>