<svg xmlns="http://www.w3.org/2000/svg" xmlns:xlink="http://www.w3.org/1999/xlink" viewBox="0 0 48 48"><defs><linearGradient xlink:href="#2" id="3" x1="96.68" y1="490.36" x2="96.33" y2="462.83" gradientUnits="userSpaceOnUse"/><linearGradient xlink:href="#2" id="4" x1="44.16" y1="490.59" x2="44.26" y2="461.93" gradientUnits="userSpaceOnUse"/><linearGradient id="2"><stop stop-color="#2e3436"/><stop offset="1" stop-color="#555753"/></linearGradient><linearGradient id="0" x1="70.03" y1="569.24" x2="66.53" y2="491.06" gradientUnits="userSpaceOnUse"><stop stop-color="#0a80fd"/><stop offset="1" stop-color="#56c5fa"/></linearGradient><linearGradient xlink:href="#2" id="1" x1="72.85" y1="491.15" x2="72.29" y2="462.68" gradientUnits="userSpaceOnUse" gradientTransform="matrix(1.0021 0 0 1-.15.002)"/></defs><g transform="matrix(.39868 0 0 .39868-4.744-182.14)"><g><rect y="465.17" x="11.899" height="106.82" width="120.4" fill="url(#0)" rx="5.03"/><g fill-rule="evenodd"><path d="m18.538 462.2h107.12c3.856 0 6.711 3.098 6.711 6.947v14.953 6.947h-120.54v-6.947-14.953c0-3.848 2.855-6.947 6.711-6.947z" fill="url(#1)" stroke="url(#1)" stroke-linejoin="round" stroke-linecap="round" stroke-width=".107"/><g fill="#fff" fill-opacity=".948" stroke-width="1.125"><path d="m79.77 490.5h19.1l14.926-13.205-14.926-14.606h-19.1l13.531 14.606z" stroke="url(#3)"/><path d="m31.676 490.5h19.1l14.926-13.205-14.926-14.606h-19.1l13.531 14.606z" stroke="url(#4)"/></g></g></g><g transform="matrix(9.0176 0 0 9.0142-3466.85-4065.31)" fill="#0b3969"><g transform="matrix(.01087-.00473.00473.01087 385.98 508.89)" opacity=".83"><path d="m65.46 55.53l-61.28 8.9 44.33 43.23-10.46 61.02 54.81-28.82 54.81 28.82-10.46-61.02 44.33-43.23-61.28-8.9-27.4-55.53z"/><path d="m326.21 248.92l-35.94 72.82-80.34 11.68 58.13 56.66-13.72 80.03 71.87-37.79 71.87 37.79-13.73-80.03 58.14-56.66-80.35-11.68z"/><path d="m392.87 78.2l23.66 33.74 15.65-38.11 33.75-23.639-38.11-15.663-23.66-33.741-15.65 38.12-33.74 23.649z"/><path d="m120.34 242.63l-21.15-23.82-8.64 30.66-23.815 21.13 30.635 8.65 21.15 23.82 8.66-30.65 23.8-21.14z"/><path d="m93.35 372.76l-14.368-43.57-14.352 43.57-43.58 14.37 43.58 14.35 14.352 43.58 14.368-43.58 43.58-14.35z"/><path d="m264.38 170.49l-16.93 42.65 38.95-24.23 42.66 16.93-24.23-38.97 16.92-42.64-38.95 24.23-42.65-16.94z"/></g><g transform="matrix(-.01066-.01426-.01425.01066 400.46 511.97)" opacity=".766"><g><path d="m264.41 48.53c4.334-3.385 7.922-1.652 7.972 3.848l.562 64.61c.046 5.5 3.815 12.518 8.373 15.597l53.55 36.17c4.56 3.078 4.02 7.03-1.194 8.77l-61.28 20.504c-5.218 1.744-10.729 7.498-12.246 12.783l-17.851 62.1c-1.521 5.286-5.439 5.993-8.711 1.571l-38.438-51.942c-3.271-4.421-10.445-7.885-15.942-7.695l-64.58 2.217c-5.498.188-7.381-3.322-4.188-7.799l37.523-52.607c3.194-4.478 4.27-12.371 2.393-17.541l-22.06-60.732c-1.879-5.169.877-8.05 6.122-6.393l61.63 19.431c5.246 1.654 13.09.239 17.421-3.145l50.948-39.753"/><path d="m280.7 4.524c1.922-3.979 6.703-5.647 10.685-3.727 3.979 1.92 5.646 6.703 3.727 10.682l-7.827 16.211c-1.92 3.979-6.702 5.647-10.682 3.728-3.979-1.92-5.647-6.703-3.727-10.682l7.824-16.212"/></g><g><path d="m93.9 168.53c-4.294 1.042-8.618-1.589-9.665-5.884-1.042-4.293 1.59-8.62 5.882-9.664l17.492-4.253c4.293-1.045 8.621 1.588 9.664 5.881 1.043 4.294-1.589 8.62-5.883 9.665l-17.49 4.255"/><path d="m149.99 29.23c-2.031-3.925-.499-8.75 3.424-10.783 3.925-2.031 8.751-.5 10.784 3.422l8.279 15.986c2.03 3.922.499 8.75-3.423 10.781-3.924 2.032-8.752.5-10.784-3.424l-8.28-15.982"/></g><g><path d="m286.28 261.4c1.854 4.01 6.604 5.76 10.618 3.907 4.01-1.854 5.763-6.606 3.908-10.616l-7.552-16.343c-1.854-4.01-6.604-5.762-10.615-3.907-4.01 1.854-5.761 6.605-3.908 10.616l7.549 16.343"/><path d="m360.46 130.82c4.335-.851 7.16-5.05 6.312-9.389-.852-4.336-5.05-7.164-9.389-6.314l-17.665 3.462c-4.337.849-7.163 5.05-6.314 9.386.853 4.336 5.05 7.164 9.392 6.313l17.664-3.458"/></g></g></g></g></svg>