<svg xmlns="http://www.w3.org/2000/svg" viewBox="0 0 48 48"><defs><linearGradient id="0" gradientUnits="userSpaceOnUse" x1="52.23" y1="12.279" x2="52.52" y2="-35.26"><stop stop-color="#14a102"/><stop offset="1" stop-color="#80e950"/></linearGradient></defs><g transform="matrix(.99999 0 0 .99999-28.371 35.882)" enable-background="new"><path d="m74.62-25.74c-.015-1.123-.879-2.051-1.997-2.153-9.291-.869-16.873-5.834-19.373-7.651-.522-.381-1.23-.381-1.753 0-2.495 1.816-10.08 6.782-19.368 7.651-1.118.103-1.977 1.03-1.997 2.153-.112 7.328 1.064 32.21 21.683 37.745.366.098.752.098 1.118 0 20.618-5.532 21.795-30.417 21.687-37.745" fill="url(#0)"/><path d="m52.35-30.04c-.236 0-.473.073-.674.221-1.917 1.409-7.744 5.263-14.885 5.937-.859.08-1.52.799-1.535 1.67-.086 5.686.818 24.991 16.664 29.29.281.076.578.076.859 0 15.846-4.292 16.751-23.601 16.668-29.29-.011-.871-.674-1.59-1.533-1.67-7.141-.674-12.969-4.528-14.891-5.937-.201-.148-.437-.221-.674-.221m2.986 10.186c2.78 0 5.03 2.248 5.03 5.03 0 2.78-2.248 5.03-5.03 5.03-.651 0-1.241-.119-1.773-.297l-2.662 2.662h-1.775v1.775h-1.773v1.773h-2.957v-2.957l6.211-6.211c-.177-.591-.297-1.182-.297-1.773 0-2.78 2.248-5.03 5.03-5.03m1.479 1.773c-1.01 0-1.773.77-1.773 1.775 0 1.01.768 1.773 1.773 1.773 1.01 0 1.775-.768 1.775-1.773 0-1.01-.77-1.775-1.775-1.775" opacity=".675" fill="#fff"/></g></svg>