<svg xmlns="http://www.w3.org/2000/svg" viewBox="0 0 48 48"><defs><linearGradient id="0" y1="542.8" x2="0" y2="507.8" gradientUnits="userSpaceOnUse" gradientTransform="matrix(1.09091 0 0 1.06528-403.34-555.93)"><stop stop-color="#00a661"/><stop offset="1" stop-color="#37ce97"/></linearGradient></defs><g transform="matrix(.99999 0 0 .99999-18.371 20.882)" enable-background="new"><rect y="-14.985" x="18.375" height="36.22" width="48" fill="url(#0)" rx="1.704"/><path d="m51.945 10.516l-4.129-4.129c.995-1.436 1.493-3.038 1.493-4.803 0-1.148-.223-2.245-.668-3.292-.445-1.047-1.047-1.95-1.806-2.708-.758-.758-1.661-1.36-2.708-1.806-1.048-.445-2.145-.668-3.293-.668-1.148 0-2.245.223-3.292.668-1.047.445-1.95 1.047-2.708 1.806-.758.758-1.36 1.661-1.806 2.708-.445 1.047-.668 2.145-.668 3.292 0 1.148.223 2.245.668 3.292.445 1.047 1.047 1.95 1.806 2.708.758.759 1.661 1.36 2.708 1.806 1.047.445 2.145.668 3.292.668 1.766 0 3.367-.498 4.803-1.493l4.129 4.117c.289.305.65.457 1.083.457.417 0 .779-.152 1.083-.457.305-.305.457-.666.457-1.083 0-.425-.148-.786-.445-1.083m-7.301-5.122c-1.055 1.055-2.325 1.583-3.81 1.583-1.485 0-2.754-.528-3.81-1.583-1.055-1.055-1.583-2.325-1.583-3.81 0-1.485.528-2.755 1.583-3.81 1.055-1.055 2.325-1.583 3.81-1.583 1.485 0 2.754.528 3.81 1.583 1.055 1.055 1.583 2.325 1.583 3.81 0 1.485-.528 2.754-1.583 3.81" opacity=".721" fill-opacity=".847"/></g></svg>