<?xml version="1.0" encoding="UTF-8" standalone="no"?>
<svg
   xmlns:dc="http://purl.org/dc/elements/1.1/"
   xmlns:cc="http://creativecommons.org/ns#"
   xmlns:rdf="http://www.w3.org/1999/02/22-rdf-syntax-ns#"
   xmlns:svg="http://www.w3.org/2000/svg"
   xmlns="http://www.w3.org/2000/svg"
   xmlns:xlink="http://www.w3.org/1999/xlink"
   xmlns:sodipodi="http://sodipodi.sourceforge.net/DTD/sodipodi-0.dtd"
   xmlns:inkscape="http://www.inkscape.org/namespaces/inkscape"
   viewBox="0 0 48 48"
   id="svg2"
   version="1.1"
   inkscape:version="0.91 r13725"
   sodipodi:docname="leocad.svg">
  <metadata
     id="metadata21">
    <rdf:RDF>
      <cc:Work
         rdf:about="">
        <dc:format>image/svg+xml</dc:format>
        <dc:type
           rdf:resource="http://purl.org/dc/dcmitype/StillImage" />
        <dc:title></dc:title>
      </cc:Work>
    </rdf:RDF>
  </metadata>
  <sodipodi:namedview
     pagecolor="#7f7f7f"
     bordercolor="#666666"
     borderopacity="1"
     objecttolerance="10"
     gridtolerance="10"
     guidetolerance="10"
     inkscape:pageopacity="0"
     inkscape:pageshadow="2"
     inkscape:window-width="1366"
     inkscape:window-height="687"
     id="namedview19"
     showgrid="false"
     inkscape:zoom="6.9532167"
     inkscape:cx="18.386622"
     inkscape:cy="22.990302"
     inkscape:window-x="0"
     inkscape:window-y="0"
     inkscape:window-maximized="1"
     inkscape:current-layer="svg2"
     showguides="false"
     inkscape:showpageshadow="false" />
  <defs
     id="defs4">
    <linearGradient
       inkscape:collect="always"
       xlink:href="#0"
       id="linearGradient4197"
       x1="-29.086506"
       y1="16.881355"
       x2="-30.099936"
       y2="-29.491526"
       gradientUnits="userSpaceOnUse"
       gradientTransform="translate(56.542371,30.508475)" />
    <linearGradient
       y2="-26.05"
       x2="-125.19"
       y1="73.5"
       x1="-123.97"
       gradientTransform="matrix(0.49433,0,0,0.4778,86.64,13.1)"
       gradientUnits="userSpaceOnUse"
       id="0">
      <stop
         id="stop4144"
         stop-color="#e1e1e1" />
      <stop
         id="stop4146"
         stop-color="#f4f4ff"
         offset="1" />
    </linearGradient>
    <linearGradient
       gradientTransform="matrix(0.49433,0,0,0.4778,125.02,-12.773)"
       id="0-2"
       x1="-123.97"
       y1="73.5"
       x2="-125.19"
       y2="-26.049999"
       gradientUnits="userSpaceOnUse">
      <stop
         stop-color="#c52828"
         id="stop7" />
      <stop
         stop-color="#ff5454"
         offset="1"
         id="stop9" />
    </linearGradient>
    <linearGradient
       inkscape:collect="always"
       xlink:href="#0-2"
       id="linearGradient4268"
       x1="24.139645"
       y1="40.682926"
       x2="23.860355"
       y2="6.3103456"
       gradientUnits="userSpaceOnUse" />
  </defs>
  <path
     inkscape:connector-curvature="0"
     d="m 2.980209,-0.0017601 42.039582,0 c 1.65198,0 2.98197,1.329987 2.98197,2.981971 l 0,42.0395791 c 0,1.651983 -1.32999,2.98197 -2.98197,2.98197 l -42.039582,0 c -1.651983,0 -2.98197,-1.329987 -2.98197,-2.98197 l 0,-42.0395791 c 0,-1.651984 1.329987,-2.981971 2.98197,-2.981971"
     id="path11-0"
     style="fill:url(#linearGradient4197);fill-opacity:1.0;fill-rule:evenodd" />
  <g
     transform="matrix(0.10387413,0,0,0.10387413,-0.84575703,-1.611717)"
     id="g13"
     style="fill:#fefefe;stroke:#fef9d9;stroke-width:7.46700001;stroke-linecap:round;stroke-linejoin:round;fill-opacity:0.85483873;stroke-opacity:1" />
  <g
     transform="matrix(0.7080973,0,0,0.7080973,7.0007081,7)"
     id="g3">
    <g
       id="Lego_Square">
      <g
         id="g6">
        <path
           d="M 24.171875 7 C 22.46182 7 21.172583 7.7446261 21.171875 8.7324219 L 21.171875 9.9863281 C 21.146056 9.995983 21.118843 9.9949078 21.09375 10.007812 L 19.15625 11.007812 C 19.073486 11.050372 19.004675 11.109634 18.947266 11.175781 C 18.456156 10.973453 17.850824 10.853516 17.173828 10.853516 C 15.464481 10.853516 14.175781 11.596897 14.175781 12.583984 L 14.175781 13.652344 C 14.067886 13.655381 13.960237 13.675548 13.859375 13.730469 L 10.158203 15.742188 C 10.030528 15.811422 9.9437783 15.919327 9.8808594 16.039062 C 9.8633092 16.065819 9.8516661 16.092204 9.8378906 16.121094 C 9.8255425 16.154624 9.8177351 16.187642 9.8105469 16.222656 C 9.79041 16.288694 9.7578125 16.350855 9.7578125 16.421875 L 9.7578125 32.714844 C 9.7578125 32.969759 9.8953819 33.20599 10.119141 33.332031 L 23.578125 40.908203 C 23.587201 40.913338 23.598182 40.911314 23.607422 40.916016 C 23.698422 40.962504 23.796462 40.987761 23.896484 40.992188 C 23.906568 40.992621 23.91569 41 23.925781 41 C 24.014396 41 24.096785 40.96237 24.179688 40.929688 C 24.210088 40.917703 24.24446 40.922583 24.273438 40.90625 L 24.277344 40.904297 C 24.279189 40.903242 24.281365 40.903416 24.283203 40.902344 C 24.284856 40.901385 24.285466 40.899408 24.287109 40.898438 L 37.867188 33.273438 C 38.090946 33.148812 38.228516 32.911165 38.228516 32.65625 L 38.242188 16.451172 C 38.242188 16.199797 38.109964 15.966593 37.892578 15.839844 C 37.869079 15.826097 37.840992 15.829189 37.816406 15.818359 C 37.784903 15.793346 37.7611 15.762091 37.724609 15.742188 L 34.021484 13.730469 C 34.005726 13.721941 33.988737 13.722068 33.972656 13.714844 L 33.972656 12.572266 C 33.972656 11.58447 32.683956 10.839844 30.974609 10.839844 C 30.248906 10.839844 29.607265 10.97919 29.099609 11.208984 C 29.064233 11.180884 29.035729 11.146517 28.994141 11.125 L 27.232422 10.214844 C 27.212274 10.20438 27.190543 10.205615 27.169922 10.197266 L 27.169922 8.7324219 C 27.169922 7.7446261 25.881222 7 24.171875 7 z M 22.234375 10.0625 C 22.750952 10.310004 23.415652 10.460938 24.171875 10.460938 C 24.927633 10.460938 25.591325 10.309539 26.107422 10.0625 L 26.107422 12.025391 C 26.107422 12.230031 25.376349 12.695312 24.171875 12.695312 C 22.966693 12.695312 22.234375 12.230031 22.234375 12.025391 L 22.234375 10.0625 z M 21.171875 11.560547 L 21.171875 12.025391 C 21.171875 13.012478 22.46182 13.755859 24.171875 13.755859 C 25.882638 13.755859 27.17063 13.012478 27.169922 12.025391 L 27.169922 11.775391 L 28.03125 12.220703 C 27.993932 12.333812 27.974609 12.45087 27.974609 12.572266 L 27.974609 15.865234 C 27.974609 16.852322 29.264554 17.595703 30.974609 17.595703 C 32.684664 17.595703 33.973364 16.852322 33.972656 15.865234 L 33.972656 15.314453 L 36.072266 16.457031 L 23.929688 23.255859 L 11.884766 16.414062 L 14.175781 15.167969 L 14.175781 15.876953 C 14.175781 16.864041 15.464481 17.609375 17.173828 17.609375 C 18.883175 17.609375 20.171875 16.864041 20.171875 15.876953 L 20.171875 12.583984 C 20.171875 12.424891 20.127774 12.275235 20.064453 12.130859 L 21.171875 11.560547 z M 29.037109 13.902344 C 29.553532 14.149847 30.218387 14.302734 30.974609 14.302734 C 31.730415 14.302734 32.393752 14.149692 32.910156 13.902344 L 32.910156 15.865234 C 32.910156 16.059253 32.23219 16.533203 30.974609 16.533203 C 29.769428 16.533203 29.037109 16.069874 29.037109 15.865234 L 29.037109 13.902344 z M 15.236328 13.914062 C 15.752948 14.161881 16.417393 14.314453 17.173828 14.314453 C 17.929126 14.314453 18.593214 14.163154 19.109375 13.916016 L 19.109375 15.876953 C 19.109375 16.070972 18.431409 16.546875 17.173828 16.546875 C 15.916247 16.546875 15.236328 16.070972 15.236328 15.876953 L 15.236328 13.914062 z M 24.126953 14.634766 C 22.417606 14.634766 21.126953 15.3801 21.126953 16.367188 L 21.126953 19.660156 C 21.126953 20.647244 22.417606 21.392578 24.126953 21.392578 C 25.8363 21.392578 27.123047 20.647244 27.123047 19.660156 L 27.123047 16.367188 C 27.123047 15.3801 25.8363 14.634766 24.126953 14.634766 z M 22.189453 17.697266 C 22.705978 17.945026 23.370873 18.097656 24.126953 18.097656 C 24.88189 18.097656 25.544636 17.946203 26.060547 17.699219 L 26.060547 19.660156 C 26.060547 19.854175 25.384534 20.330078 24.126953 20.330078 C 22.921772 20.330078 22.189453 19.864796 22.189453 19.660156 L 22.189453 17.697266 z "
           transform="matrix(1.4122353,0,0,1.4122353,-9.8866471,-9.8856471)"
           id="path8"
           style="fill-opacity:1;fill:url(#linearGradient4268)" />
      </g>
      <g
         id="g12" />
      <g
         id="g18" />
      <g
         id="g24" />
      <g
         id="g30" />
    </g>
    <g
       id="g44" />
    <g
       id="g46" />
    <g
       id="g48" />
    <g
       id="g50" />
    <g
       id="g52" />
    <g
       id="g54" />
    <g
       id="g56" />
    <g
       id="g58" />
    <g
       id="g60" />
    <g
       id="g62" />
    <g
       id="g64" />
    <g
       id="g66" />
    <g
       id="g68" />
    <g
       id="g70" />
    <g
       id="g72" />
  </g>
</svg>
