<svg xmlns="http://www.w3.org/2000/svg" viewBox="0 0 48 48"><defs><linearGradient id="0" x1="-50.12" y1="23.743" x2="-50.69" y2="-22.476" gradientUnits="userSpaceOnUse"><stop stop-color="#dce2ff"/><stop offset="1" stop-color="#f8feff"/></linearGradient><linearGradient id="1" gradientUnits="userSpaceOnUse" x1="10.366" y1="50.599" x2="10.11" y2="-.747"><stop stop-color="#ff9300"/><stop offset="1" stop-color="#ffd702"/></linearGradient><linearGradient id="2" gradientUnits="userSpaceOnUse" y1="18.758" x2="0" y2="1.078"><stop stop-color="#ffbf01"/><stop offset="1" stop-color="#ffd402"/></linearGradient></defs><g transform="matrix(.96852 0 0 .96852 73.79 23.802)" enable-background="new"><g fill-rule="evenodd"><rect y="-23.11" x="-73.941" height="46.644" width="45.08" fill="url(#0)" rx="2.898" stroke-width=".464"/><path transform="matrix(.97176 0 0 .97176-74.72-23.11)" d="m3.784 0h34.14 6.291c1.652 0 2.982 1.33 2.982 2.982v42.04c0 1.652-1.33 2.982-2.982 2.982h-40.43c-1.652 0-2.982-1.33-2.982-2.982v-42.04c0-1.652 1.33-2.982 2.982-2.982" fill="none" stroke="url(#1)" stroke-linejoin="round" stroke-linecap="round" stroke-width="3"/><path d="m26.11 1.091l19.929 17.668.006-17.68" transform="translate(-75.4-23.792)" fill="url(#2)"/></g><path d="m-58.784-7.795c-2.67 0-4.82 2.149-4.82 4.82 0 2.67 2.149 4.82 4.82 4.82 2.67 0 4.82-2.149 4.82-4.82 0-2.67-2.15-4.82-4.82-4.82zm9.207.194v9.214h9.214v-9.214h-9.214zm-12.65 12.199v9.639h6.885v-9.639h-6.885zm16.911.589l-5.177 8.904 10.299.031-5.122-8.936z" fill="#ffa200" stroke="#ffa200" stroke-linejoin="round" stroke-linecap="round" stroke-width=".968"/></g></svg>