<svg xmlns="http://www.w3.org/2000/svg" viewBox="0 0 48 48"><defs><linearGradient id="0" x1="417.74" y1="1126.52" x2="483.76" y2="-491.13" gradientUnits="userSpaceOnUse"><stop stop-color="#dce2ff"/><stop offset="1" stop-color="#f8feff"/></linearGradient><linearGradient id="1" gradientUnits="userSpaceOnUse" x1="10.366" y1="50.599" x2="10.11" y2="-.747"><stop stop-color="#974eb7"/><stop offset="1" stop-color="#d164ff"/></linearGradient><linearGradient id="2" gradientUnits="userSpaceOnUse" y1="18.758" x2="0" y2="1.078"><stop stop-color="#bb5ce4"/><stop offset="1" stop-color="#cf63fc"/></linearGradient></defs><g transform="matrix(.02824 0 0 .02824 12.378 15.683)" fill="#a654c9" enable-background="new"><g fill-rule="evenodd"><rect y="-505.29" x="-361.52" height="1599.51" width="1546.03" fill="url(#0)" rx="99.37" stroke-width="15.922"/><path transform="matrix(33.3231 0 0 33.3231-388.26-505.29)" d="m3.784 0h34.14 6.291c1.652 0 2.982 1.33 2.982 2.982v42.04c0 1.652-1.33 2.982-2.982 2.982h-40.43c-1.652 0-2.982-1.33-2.982-2.982v-42.04c0-1.652 1.33-2.982 2.982-2.982" fill="none" stroke="url(#1)" stroke-linejoin="round" stroke-linecap="round" stroke-width="3"/><path d="m26.11 1.091l19.929 17.668.006-17.68" transform="matrix(34.2917 0 0 34.2917-411.5-528.54)" fill="url(#2)"/></g><path d="m411.5 823c210.4 0 381-48.4 381-108v-136.2c-2.5 1.9-5 3.7-7.699 5.5-22.701 15.2-54 28.5-93 39.601-75.4 21.299-174.9 33.1-280.3 33.1-105.4 0-204.9-11.8-280.3-33.1-39-11.1-70.3-24.4-93-39.601-2.7-1.8-5.2-3.6-7.7-5.5v136.2c0 59.6 170.6 108 381 108"/><path d="m411.5 617c203.3 0 369.4-45.1 380.4-102 .4-2 .6-4 .6-6v-137.2c-2.5 1.9-5 3.7-7.699 5.5-19.1 12.8-44.4 24.3-75.3 34.2-5.699 1.8-11.6 3.6-17.699 5.4-6.1 1.699-12.301 3.399-18.701 5-14.799 3.699-30.3 7-46.5 10-63.7 11.8-137.8 18.1-215.1 18.1-77.3 0-151.4-6.3-215.2-18.1-16.2-3-31.7-6.4-46.5-10-6.4-1.601-12.6-3.2-18.7-5-6.1-1.7-12-3.5-17.7-5.4-30.9-9.9-56.2-21.4-75.3-34.2-2.7-1.8-5.2-3.6-7.7-5.5v137.2c0 2 .2 4 .6 6 11.1 56.9 177.2 102 380.5 102"/><path d="m196.3 391.1c20.7 4 42.8 7.5 66.1 10.301 45.8 5.5 96.2 8.6 149.1 8.6 52.9 0 103.3-3.1 149.1-8.6 23.3-2.801 45.4-6.301 66.1-10.301 94.2-18.3 158-48.3 165.2-82.6.5-2.2.699-4.3.699-6.5v-194c0-59.6-170.6-108-381-108-210.4 0-381 48.4-381 108v194c0 2.2.2 4.3.7 6.5 7.101 34.3 70.802 64.3 165 82.6"/></g></svg>