<svg xmlns="http://www.w3.org/2000/svg" viewBox="0 0 48 48"><defs><linearGradient id="0" x1="25.276" y1="47.535" x2="24.709" y2="1.316" gradientUnits="userSpaceOnUse"><stop stop-color="#dce2ff"/><stop offset="1" stop-color="#f8feff"/></linearGradient><linearGradient id="1" gradientUnits="userSpaceOnUse" x1="10.366" y1="50.599" x2="10.11" y2="-.747"><stop stop-color="#242425"/><stop offset="1" stop-color="#2c2c2e"/></linearGradient><linearGradient id="2" gradientUnits="userSpaceOnUse" y1="18.758" x2="0" y2="1.078"><stop stop-color="#29292b"/><stop offset="1" stop-color="#2c2c2e"/></linearGradient></defs><g transform="matrix(.96852 0 0 .96852.759.762)" enable-background="new" fill-rule="evenodd"><rect y=".678" x="1.458" height="46.644" width="45.08" fill="url(#0)" rx="2.898" stroke-width=".464"/><path transform="matrix(.97176 0 0 .97176.678.678)" d="m3.784 0h34.14 6.291c1.652 0 2.982 1.33 2.982 2.982v42.04c0 1.652-1.33 2.982-2.982 2.982h-40.43c-1.652 0-2.982-1.33-2.982-2.982v-42.04c0-1.652 1.33-2.982 2.982-2.982" fill="none" stroke="url(#1)" stroke-linejoin="round" stroke-linecap="round" stroke-width="3"/><path d="m26.11 1.091l19.929 17.668.006-17.68" fill="url(#2)"/></g></svg>