<?xml version="1.0" encoding="UTF-8" standalone="no"?>
<svg
   xmlns:dc="http://purl.org/dc/elements/1.1/"
   xmlns:cc="http://creativecommons.org/ns#"
   xmlns:rdf="http://www.w3.org/1999/02/22-rdf-syntax-ns#"
   xmlns:svg="http://www.w3.org/2000/svg"
   xmlns="http://www.w3.org/2000/svg"
   xmlns:sodipodi="http://sodipodi.sourceforge.net/DTD/sodipodi-0.dtd"
   xmlns:inkscape="http://www.inkscape.org/namespaces/inkscape"
   viewBox="0 0 48 48"
   id="svg2"
   version="1.1"
   inkscape:version="0.91 r13725"
   sodipodi:docname="library-internet-radio.svg">
  <metadata
     id="metadata21">
    <rdf:RDF>
      <cc:Work
         rdf:about="">
        <dc:format>image/svg+xml</dc:format>
        <dc:type
           rdf:resource="http://purl.org/dc/dcmitype/StillImage" />
        <dc:title></dc:title>
      </cc:Work>
    </rdf:RDF>
  </metadata>
  <sodipodi:namedview
     pagecolor="#ffffff"
     bordercolor="#666666"
     borderopacity="1"
     objecttolerance="10"
     gridtolerance="10"
     guidetolerance="10"
     inkscape:pageopacity="0"
     inkscape:pageshadow="2"
     inkscape:window-width="1366"
     inkscape:window-height="687"
     id="namedview19"
     showgrid="false"
     inkscape:zoom="4.9166667"
     inkscape:cx="1.0620722"
     inkscape:cy="17.151374"
     inkscape:window-x="0"
     inkscape:window-y="0"
     inkscape:window-maximized="1"
     inkscape:current-layer="svg2" />
  <defs
     id="defs4">
    <linearGradient
       id="0"
       x1="61.57"
       y1="22.939"
       x2="60.753"
       y2="-27.706"
       gradientUnits="userSpaceOnUse">
      <stop
         stop-color="#197cf1"
         id="stop7" />
      <stop
         offset="1"
         stop-color="#21c9fb"
         id="stop9" />
    </linearGradient>
  </defs>
  <path
     d="m41.36-25.875h42.04c1.652 0 2.982 1.33 2.982 2.982v42.04c0 1.652-1.33 2.982-2.982 2.982h-42.04c-1.652 0-2.982-1.33-2.982-2.982v-42.04c0-1.652 1.33-2.982 2.982-2.982"
     transform="matrix(.99999 0 0 .99999-38.38 25.875)"
     fill="url(#0)"
     fill-rule="evenodd"
     id="path11" />
  <g
     transform="matrix(0.10387413,0,0,0.10387413,-0.84575703,-1.611717)"
     id="g13"
     style="fill:#daeffe;stroke:#daeffe;stroke-width:7.46700001;stroke-linecap:round;stroke-linejoin:round" />
  <g
     transform="matrix(1.06664,0,0,1.06664,-42.53447,24.93371)"
     style="fill:#daeffe;fill-opacity:1"
     id="g15">
    <path
       inkscape:connector-curvature="0"
       d="m 55.13,-13.966 c 0.437,-0.437 0.437,-1.145 0,-1.582 -0.437,-0.437 -1.145,-0.437 -1.581,0 -4.865,4.865 -4.865,12.781 0,17.646 0.218,0.218 0.505,0.328 0.791,0.328 0.286,0 0.572,-0.109 0.791,-0.327 0.437,-0.437 0.437,-1.145 0,-1.581 -3.993,-3.993 -3.993,-10.491 0,-14.484"
       id="path17"
       style="fill:#daeffe;fill-opacity:1" />
    <path
       inkscape:connector-curvature="0"
       d="m 71.2,-15.548 c -0.437,-0.437 -1.145,-0.437 -1.582,0 -0.437,0.437 -0.437,1.145 0,1.582 1.935,1.934 3,4.506 3,7.242 0,2.736 -1.065,5.308 -3,7.242 -0.437,0.437 -0.437,1.145 0,1.581 0.218,0.218 0.505,0.328 0.791,0.328 0.286,0 0.572,-0.109 0.791,-0.327 2.357,-2.357 3.655,-5.49 3.655,-8.824 0,-3.333 -1.298,-6.466 -3.655,-8.823"
       id="path19"
       style="fill:#daeffe;fill-opacity:1" />
    <path
       inkscape:connector-curvature="0"
       d="m 56.56,-0.913 c 0.218,0.218 0.505,0.328 0.791,0.328 0.286,0 0.572,-0.109 0.791,-0.327 0.437,-0.437 0.437,-1.145 0,-1.581 -2.332,-2.332 -2.332,-6.128 0,-8.46 0.437,-0.437 0.437,-1.145 0,-1.582 -0.437,-0.437 -1.145,-0.437 -1.581,0 -3.204,3.204 -3.204,8.418 0,11.622"
       id="path21"
       style="fill:#daeffe;fill-opacity:1" />
    <path
       inkscape:connector-curvature="0"
       d="m 66.6,-0.912 c 0.218,0.218 0.505,0.327 0.791,0.327 0.286,0 0.572,-0.109 0.791,-0.328 1.552,-1.552 2.407,-3.616 2.407,-5.811 0,-2.195 -0.855,-4.259 -2.407,-5.811 -0.437,-0.437 -1.145,-0.437 -1.581,0 -0.437,0.437 -0.437,1.145 0,1.581 1.13,1.13 1.752,2.632 1.752,4.23 0,1.598 -0.622,3.1 -1.752,4.23 -0.437,0.437 -0.437,1.145 0,1.582"
       id="path23"
       style="fill:#daeffe;fill-opacity:1" />
    <path
       inkscape:connector-curvature="0"
       d="m 62.37,-3.884 c 1.569,0 2.84,-1.272 2.84,-2.84 0,-1.569 -1.271,-2.84 -2.84,-2.84 -1.569,0 -2.84,1.271 -2.84,2.84 0,1.569 1.272,2.84 2.84,2.84"
       id="path25"
       style="fill:#daeffe;fill-opacity:1" />
    <path
       inkscape:connector-curvature="0"
       d="m 63.44,-2.305 c -0.149,-0.461 -0.579,-0.774 -1.064,-0.774 -0.485,0 -0.914,0.313 -1.064,0.774 l -4.848,14.967 c -0.19,0.587 0.132,1.218 0.719,1.408 0.115,0.037 0.231,0.055 0.345,0.055 0.472,0 0.91,-0.301 1.064,-0.774 l 0.591,-1.824 6.387,0 0.591,1.824 c 0.19,0.587 0.821,0.909 1.408,0.719 0.587,-0.19 0.91,-0.821 0.719,-1.408 L 63.44,-2.305 m -1.064,3.974 0.936,2.89 -1.873,0 0.936,-2.89 z m -2.469,7.623 0.808,-2.496 3.321,0 0.808,2.496 -4.938,0"
       id="path27"
       style="fill:#daeffe;fill-opacity:1" />
  </g>
</svg>
