<svg xmlns="http://www.w3.org/2000/svg" viewBox="0 0 48 48"><defs><linearGradient id="0" x1="25.276" y1="47.535" x2="24.709" y2="1.316" gradientUnits="userSpaceOnUse"><stop stop-color="#dce2ff"/><stop offset="1" stop-color="#f8feff"/></linearGradient><linearGradient id="1" x1="10.366" y1="50.599" x2="10.11" y2="-.747" gradientUnits="userSpaceOnUse"><stop stop-color="#dc3c30"/><stop offset="1" stop-color="#ff786d"/></linearGradient><linearGradient id="2" y1="18.758" x2="0" y2="1.078" gradientUnits="userSpaceOnUse"><stop stop-color="#f26156"/><stop offset="1" stop-color="#fe766b"/></linearGradient></defs><g transform="matrix(.96853 0 0 .96853.755.755)"><rect y=".678" x="1.458" height="46.644" width="45.08" fill="url(#0)" fill-rule="evenodd" rx="2.898" stroke-width=".464"/><path d="m17.799 1020.34c2.099 0 3.801 1.699 3.801 3.798h-3.801c.0001 0 .0001-3.798 0-3.798m-1.069 1.033v3.801h3.801c0 2.102-1.701 3.801-3.801 3.801-2.1 0-3.8-1.7-3.8-3.801 0-2.1 1.7-3.801 3.8-3.801" transform="matrix(2.04314 0 0 2.04314-20.17-2067.33)" fill="#eb554a"/><g fill-rule="evenodd"><g transform="matrix(.97176 0 0 .97176.678.678)"><path d="m28.49 20.529c-.757 0-1.365.611-1.365 1.367 0 .757.609 1.365 1.365 1.365h11.529c.757 0 1.365-.609 1.365-1.365 0-.757-.609-1.367-1.365-1.367h-11.529m.016 4.832c-.757 0-1.367.609-1.367 1.365v.045c0 .757.611 1.365 1.367 1.365h11.336c.757 0 1.367-.609 1.367-1.365v-.045c0-.757-.611-1.365-1.367-1.365h-11.336m.016 4.99c-.753 0-1.359.606-1.359 1.359 0 .753.606 1.359 1.359 1.359h11.504c.753 0 1.359-.606 1.359-1.359 0-.753-.606-1.359-1.359-1.359h-11.504" fill="#ea5549"/><path d="m3.784 0h34.14 6.291c1.652 0 2.982 1.33 2.982 2.982v42.04c0 1.652-1.33 2.982-2.982 2.982h-40.43c-1.652 0-2.982-1.33-2.982-2.982v-42.04c0-1.652 1.33-2.982 2.982-2.982" fill="none" stroke="url(#1)" stroke-linejoin="round" stroke-linecap="round" stroke-width="3"/></g><path d="m26.11 1.091l19.929 17.668.006-17.68" fill="url(#2)"/></g></g></svg>