<svg xmlns="http://www.w3.org/2000/svg" viewBox="0 0 48 48"><defs><linearGradient id="0" x1="93.25" y1="47.535" x2="92.68" y2="1.316" gradientUnits="userSpaceOnUse"><stop stop-color="#dce2ff"/><stop offset="1" stop-color="#f8feff"/></linearGradient><linearGradient id="1" gradientUnits="userSpaceOnUse" x1="10.366" y1="50.599" x2="10.11" y2="-.747"><stop stop-color="#1e56e6"/><stop offset="1" stop-color="#1f9aed"/></linearGradient><linearGradient id="2" gradientUnits="userSpaceOnUse" y1="18.758" x2="0" y2="1.078"><stop stop-color="#1f81ea"/><stop offset="1" stop-color="#1f98ed"/></linearGradient></defs><g transform="matrix(.96853 0 0 .96853-65.08.755)"><g fill-rule="evenodd"><rect width="45.08" height="46.644" x="69.43" y=".678" fill="url(#0)" rx="2.898" stroke-width=".464"/><path d="m3.784 0h34.14 6.291c1.652 0 2.982 1.33 2.982 2.982v42.04c0 1.652-1.33 2.982-2.982 2.982h-40.43c-1.652 0-2.982-1.33-2.982-2.982v-42.04c0-1.652 1.33-2.982 2.982-2.982" transform="matrix(.97176 0 0 .97176 68.65.678)" fill="none" stroke="url(#1)" stroke-linejoin="round" stroke-linecap="round" stroke-width="3"/><path transform="translate(67.973)" d="m26.11 1.091l19.929 17.668.006-17.68" fill="url(#2)"/></g><path d="m80.47 32.69v5.123h5.123l12.939-12.939-5.123-5.123zm22.594-12.331c.542-.542.542-1.396 0-1.938l-3.202-3.202c-.542-.542-1.396-.542-1.938 0l-2.676 2.693 5.123 5.123z" fill="#1e70e9"/></g></svg>