<svg xmlns="http://www.w3.org/2000/svg" viewBox="0 0 48 48"><defs><linearGradient id="0" x1="150.28" y1="47.535" x2="149.71" y2="1.316" gradientUnits="userSpaceOnUse"><stop stop-color="#dce2ff"/><stop offset="1" stop-color="#f8feff"/></linearGradient><linearGradient id="1" gradientUnits="userSpaceOnUse" x1="10.366" y1="50.599" x2="10.11" y2="-.747"><stop stop-color="#566069"/><stop offset="1" stop-color="#6c7884"/></linearGradient><linearGradient id="2" gradientUnits="userSpaceOnUse" y1="18.758" x2="0" y2="1.078"><stop stop-color="#646f7a"/><stop offset="1" stop-color="#6b7783"/></linearGradient></defs><g transform="matrix(.96853 0 0 .96853-120.31.752)"><g fill-rule="evenodd"><rect width="45.08" height="46.644" x="126.46" y=".678" fill="url(#0)" rx="2.898" stroke-width=".464"/><path d="m3.784 0h34.14 6.291c1.652 0 2.982 1.33 2.982 2.982v42.04c0 1.652-1.33 2.982-2.982 2.982h-40.43c-1.652 0-2.982-1.33-2.982-2.982v-42.04c0-1.652 1.33-2.982 2.982-2.982" transform="matrix(.97176 0 0 .97176 125.68.678)" fill="none" stroke="url(#1)" stroke-linejoin="round" stroke-linecap="round" stroke-width="3"/><path d="m26.11 1.091l19.929 17.668.006-17.68" transform="translate(125)" fill="url(#2)"/></g><path d="m155.15 34.26c-3.472-2.715-1.022-13.883-1.022-13.883 0 0 3.801 0 4.244 0 .443 0 2.179-.278 2.179-2.358 0-2.558-2.122-2.401-2.122-2.401 0 0-11.632 0-15.625 0-2.565 0-4.88 2.937-6.209 5.04-.707 1.122-.307 1.436.907.907 4.258-1.865 5.459-1.193 5.459-1.193.3 1.436.4 7.917-.693 10.474-1.107 2.408-3.151 5.459-.15 7.252 2.344 1.329 4.801-1.401 4.558-6.04-.114-2.458-.307-11.674-.307-11.674h3.916c-.122 1.436-.786 8.767-.093 13.11.721 7.252 8.602 5.844 10.07 1.737.364-1.136.279-2.01.006-2.665-.5-1.222-1.336-1.286-1.243-.714.057.364.022.721-.036 1.043-.172.993-2.201 2.55-3.844 1.372z" opacity=".9" fill="#5e6973"/></g></svg>