<?xml version="1.0" encoding="UTF-8" standalone="no"?>
<svg
   xmlns:dc="http://purl.org/dc/elements/1.1/"
   xmlns:cc="http://creativecommons.org/ns#"
   xmlns:rdf="http://www.w3.org/1999/02/22-rdf-syntax-ns#"
   xmlns:svg="http://www.w3.org/2000/svg"
   xmlns="http://www.w3.org/2000/svg"
   xmlns:xlink="http://www.w3.org/1999/xlink"
   xmlns:sodipodi="http://sodipodi.sourceforge.net/DTD/sodipodi-0.dtd"
   xmlns:inkscape="http://www.inkscape.org/namespaces/inkscape"
   viewBox="0 0 48 48"
   id="svg2"
   version="1.1"
   inkscape:version="0.91 r13725"
   sodipodi:docname="lightworks.svg">
  <metadata
     id="metadata21">
    <rdf:RDF>
      <cc:Work
         rdf:about="">
        <dc:format>image/svg+xml</dc:format>
        <dc:type
           rdf:resource="http://purl.org/dc/dcmitype/StillImage" />
        <dc:title></dc:title>
      </cc:Work>
    </rdf:RDF>
  </metadata>
  <sodipodi:namedview
     pagecolor="#7f7f7f"
     bordercolor="#666666"
     borderopacity="1"
     objecttolerance="10"
     gridtolerance="10"
     guidetolerance="10"
     inkscape:pageopacity="0"
     inkscape:pageshadow="2"
     inkscape:window-width="1366"
     inkscape:window-height="687"
     id="namedview19"
     showgrid="false"
     inkscape:zoom="6.9532167"
     inkscape:cx="-9.7298611"
     inkscape:cy="22.990302"
     inkscape:window-x="0"
     inkscape:window-y="0"
     inkscape:window-maximized="1"
     inkscape:current-layer="svg2"
     showguides="false"
     inkscape:showpageshadow="false" />
  <defs
     id="defs4">
    <linearGradient
       y2="-26.05"
       x2="-125.19"
       y1="73.5"
       x1="-123.97"
       gradientTransform="matrix(0.49433,0,0,0.4778,86.64,13.1)"
       gradientUnits="userSpaceOnUse"
       id="0">
      <stop
         id="stop4144"
         stop-color="#e1e1e1" />
      <stop
         id="stop4146"
         stop-color="#f4f4ff"
         offset="1" />
    </linearGradient>
    <linearGradient
       gradientTransform="matrix(0.49433,0,0,0.4778,125.02,-12.773)"
       id="0-2"
       x1="-123.97"
       y1="73.5"
       x2="-125.19"
       y2="-26.049999"
       gradientUnits="userSpaceOnUse">
      <stop
         stop-color="#c52828"
         id="stop7" />
      <stop
         stop-color="#ff5454"
         offset="1"
         id="stop9" />
    </linearGradient>
    <linearGradient
       gradientTransform="matrix(1.71427,0,0,1.71427,-120.83512,4.5458532)"
       inkscape:collect="always"
       xlink:href="#0-2-6"
       id="linearGradient4235"
       x1="53.905548"
       y1="20.853516"
       x2="54.023933"
       y2="-3.2314517"
       gradientUnits="userSpaceOnUse" />
    <linearGradient
       gradientTransform="matrix(1.7143071,0,0,1.7143071,-660.19316,-935.43211)"
       id="0-2-6"
       gradientUnits="userSpaceOnUse"
       x1="400.51001"
       y1="546.07001"
       x2="400.70001"
       y2="517.77002">
      <stop
         stop-color="#2f3f47"
         id="stop13" />
      <stop
         offset="1"
         stop-color="#425963"
         id="stop15" />
    </linearGradient>
  </defs>
  <g
     transform="matrix(0.10387413,0,0,0.10387413,-0.84575703,-1.611717)"
     id="g13"
     style="fill:#fefefe;stroke:#fef9d9;stroke-width:7.46700001;stroke-linecap:round;stroke-linejoin:round;fill-opacity:0.85483873;stroke-opacity:1" />
  <g
     id="g4187"
     transform="translate(51.613119,4.044574)">
    <rect
       width="47.999561"
       height="43.977882"
       x="-51.6129"
       y="-2.0335152"
       rx="2.069124"
       id="rect13-1"
       style="fill:url(#linearGradient4235);fill-opacity:1" />
    <path
       style="fill:#e2e3e3;fill-opacity:1"
       d="m -20.567472,9.9587128 7.614787,0 5.9502314,-5.2645227 -5.9502314,-5.8233753 -7.614787,0 5.394808,5.8233753 z"
       id="path17-5"
       inkscape:connector-curvature="0" />
    <path
       style="fill:#e2e3e3;fill-opacity:1"
       d="m -47.736937,9.9587128 7.614787,0 5.950231,-5.2645227 -5.950231,-5.8233753 -7.614787,0 5.394808,5.8233753 z"
       id="path19-3"
       inkscape:connector-curvature="0" />
    <path
       style="fill:#e2e3e3;fill-opacity:1"
       d="m -34.298775,9.9587128 7.614788,0 5.950231,-5.2645227 -5.950231,-5.8233753 -7.614788,0 5.394808,5.8233753 z"
       id="path21-9"
       inkscape:connector-curvature="0" />
    <path
       style="fill:#e2e3e3;fill-opacity:1;stroke:none"
       d="m -33.520395,14.841374 c -0.579194,5.51e-4 -1.152279,0.07809 -1.605543,0.2299 -1.5523,0.520741 -2.726992,1.677281 -3.261338,3.210793 -0.205457,0.589603 -0.235294,0.80322 -0.235402,1.648902 -2.55e-4,1.650881 0.36642,2.573673 1.470636,3.686436 0.531672,0.535811 0.830267,0.758892 1.338392,1.001554 0.750048,0.358157 1.490548,0.540098 2.237707,0.549778 l 0.521072,0.01114 0.140193,-0.634149 c 0.440164,-1.976703 2.035695,-3.581388 4.044276,-4.069786 l 0.571332,-0.139814 -0.0027,-0.43098 c -0.0069,-2.117542 -1.537206,-4.182902 -3.578723,-4.830693 -0.475947,-0.150918 -1.060726,-0.22781 -1.639928,-0.22715 z m 11.696385,0.01529 c -0.792514,0 -1.08155,0.03849 -1.624061,0.211531 -2.044528,0.648562 -3.574169,2.709853 -3.581385,4.830545 l 0,0.43076 0.571325,0.140148 c 2.012534,0.489278 3.595872,2.091432 4.04956,4.098605 l 0.137553,0.605222 0.47611,0 c 0.262619,0 0.745375,-0.0594 1.071245,-0.126942 3.89511,-0.817079 5.434644,-5.655875 2.721748,-8.556688 -1.080679,-1.155663 -2.196012,-1.633173 -3.822086,-1.633173 z m -6.475065,6.828478 -0.354439,0.0594 c -0.568905,0.09132 -1.44711,0.603903 -1.970559,1.152145 -0.510074,0.534271 -0.961616,1.381933 -1.036857,1.942383 l -0.04495,0.335721 1.703405,0 1.703412,0 0,-1.744273 0,-1.744167 z m 1.269619,0 0,1.744164 0,1.744162 1.703412,0 1.7034,0 -0.05554,-0.359481 c -0.09296,-0.592457 -0.518032,-1.386217 -1.026277,-1.918619 -0.523442,-0.548131 -1.401651,-1.061171 -1.970557,-1.152031 l -0.354432,-0.0594 z m 5.141963,4.767187 c -0.04123,0 -0.08191,0.01114 -0.119021,0.01114 -0.300107,0.0275 -0.304926,0.03081 -0.486688,0.658021 -0.279226,0.963161 -0.686146,1.653302 -1.404516,2.375783 -0.717053,0.721159 -1.510049,1.17139 -2.504848,1.42175 l -0.584561,0.145422 -0.02381,0.512601 c -0.03235,0.66363 0.167295,1.606883 0.484043,2.283164 1.04835,2.238062 3.570089,3.430902 5.961929,2.819632 3.256532,-0.831932 4.878058,-4.373935 3.375077,-7.375508 -0.456949,-0.912559 -1.383095,-1.816983 -2.322349,-2.267323 -0.707236,-0.339021 -1.756873,-0.593228 -2.375253,-0.58146 z m -2.869878,0.01114 c -0.195065,0 -0.40659,0 -0.626872,0.01114 l -1.602891,0.02095 -0.02381,1.635811 -0.02115,1.635813 0.275082,-0.05611 c 0.15233,-0.02969 0.544356,-0.182159 0.870228,-0.33561 0.721538,-0.340011 1.193371,-0.739423 1.602891,-1.355754 0.347693,-0.523271 0.678913,-1.39084 0.571334,-1.49831 -0.02911,-0.02859 -0.459564,-0.05061 -1.0448,-0.05172 z m -8.263114,0.0275 -0.663901,0.02421 c -1.370824,0.044 -2.491086,0.528 -3.462364,1.498532 -1.045579,1.044452 -1.480207,2.111782 -1.478582,3.630883 8.49e-4,1.055011 0.117291,1.592251 0.518432,2.412631 0.348968,0.713573 1.422679,1.800593 2.16365,2.188123 1.123344,0.587511 2.483981,0.75152 3.687182,0.44385 1.979077,-0.50567 3.423178,-2.004971 3.835316,-3.979583 0.07089,-0.339789 0.116845,-0.84799 0.103147,-1.128492 l -0.02381,-0.509961 -0.618947,-0.150582 c -1.472728,-0.361018 -2.811958,-1.435718 -3.47294,-2.782671 -0.1932,-0.393799 -0.4035,-0.92565 -0.468174,-1.181182 l -0.119022,-0.465299 z m 1.378071,0 0.02642,0.253659 c 0.05004,0.464422 0.524416,1.308561 1.01834,1.812913 0.475999,0.48587 1.092183,0.864602 1.74837,1.072942 0.589328,0.186998 0.556932,0.278849 0.531657,-1.511624 l -0.02379,-1.62789 -1.650513,0 -1.650503,0 z"
       id="rect3071-7-3-2"
       inkscape:connector-curvature="0" />
  </g>
</svg>
