<svg xmlns="http://www.w3.org/2000/svg" viewBox="0 0 48 48"><defs><linearGradient id="0" x1="16.955" y1="7.07" x2="17.589" y2="-40.902" gradientUnits="userSpaceOnUse"><stop stop-color="#3889e9"/><stop offset="1" stop-color="#5ea5fb"/></linearGradient><linearGradient id="1" gradientUnits="userSpaceOnUse" x1="16.639" y1="1.442" x2="17.351" y2="-34.839"><stop stop-color="#e7f0f4"/><stop offset="1" stop-color="#f4faff"/></linearGradient></defs><g transform="matrix(.99999 0 0 .99999 6.629 40.722)" enable-background="new"><circle r="24" cy="-16.715" cx="17.373" fill="url(#0)"/><path d="m17.498046-35.496094a19 19 0 0 0 -18.999999 19 19 19 0 0 0 18.999999 19 19 19 0 0 0 19 -19 19 19 0 0 0 -19 -19m-6.398 8.219c.406 0 .944-.043 1.377.215l14.639 9.225c1.202.715.994 1.559.994 1.559 0 0 .207.844-.994 1.559l-14.639 9.223c-.433.258-.971.215-1.377.215-1.623 0-1.615-1.302-1.615-1.57v-18.854c0-.318-.008-1.57 1.615-1.57" fill="url(#1)"/></g></svg>