<svg xmlns="http://www.w3.org/2000/svg" viewBox="0 0 48 48"><defs><linearGradient gradientUnits="userSpaceOnUse" y2="517.8" x2="0" y1="545.8"><stop stop-color="#3889e9"/><stop offset="1" stop-color="#5ea5fb"/></linearGradient><linearGradient y2="518.14" x2="0" y1="545.14" gradientUnits="userSpaceOnUse" id="0"><stop stop-color="#197ff1"/><stop offset="1" stop-color="#21c6fb"/></linearGradient></defs><g transform="matrix(.99999 0 0 .99999-38.37 25.882)" enable-background="new"><g transform="matrix(1.71429 0 0 1.71429-624.32-913.53)"><circle r="14" cy="531.8" cx="400.57" fill="url(#0)"/><circle cx="400.57" cy="531.8" r="14" fill="#5ea5fb" fill-opacity="0"/></g><path d="m531 753.02v-32.607-43.3l256-160.65v120.01l-256 160.65v-44.1m-244.36 33.981c-26.09 0-47.643-22.19-47.643-48.28v-38.755l260-162.43v122.84l-203.39 126.63h-8.97m-47.643-248.16l260-162.43v124.75l-260 162.43v-124.75m292-20.942l256-160.65v122.84l-256 160.65v-122.84m-292-134.46l260-162.43v47.986 32.607 38.432l-260 162.43v-119.02m292-26.663l194.14-121.77h15.424c26.09 0 46.43 22.19 46.43 48.29v37.581l-256 160.65v-124.75" fill="#fff" fill-opacity=".851" transform="matrix(.0486 0 0-.0486 37.443 23.866)"/></g></svg>