<svg xmlns="http://www.w3.org/2000/svg" viewBox="0 0 48 48"><defs><clipPath><path transform="matrix(15.33333 0 0 11.5 415-125.5)" d="m-24 13c0 1.105-.672 2-1.5 2-.828 0-1.5-.895-1.5-2 0-1.105.672-2 1.5-2 .828 0 1.5.895 1.5 2" fill="#1890d0"/></clipPath><clipPath><path transform="matrix(15.33333 0 0 11.5 415-125.5)" d="m-24 13c0 1.105-.672 2-1.5 2-.828 0-1.5-.895-1.5-2 0-1.105.672-2 1.5-2 .828 0 1.5.895 1.5 2" fill="#1890d0"/></clipPath><linearGradient gradientUnits="userSpaceOnUse" y2="1.017" x2="26.442" y1="47.39" x1="27.456" id="0"><stop stop-color="#2e3436"/><stop offset="1" stop-color="#555753"/></linearGradient><linearGradient gradientUnits="userSpaceOnUse" y2="6.183" x2="4.673" y1="23.749" x1="4.906" id="1"><stop stop-color="#197ff1"/><stop stop-color="#21c6fb" offset="1"/></linearGradient></defs><g transform="matrix(1.71427 0 0 1.71427 15.789-1.488)" enable-background="new"><path d="m2.98-.002h42.04c1.652 0 2.982 1.33 2.982 2.982v42.04c0 1.652-1.33 2.982-2.982 2.982h-42.04c-1.652 0-2.982-1.33-2.982-2.982v-42.04c0-1.652 1.33-2.982 2.982-2.982" fill="url(#0)" fill-rule="evenodd" transform="matrix(.5833 0 0 .5833-9.209.869)"/><path d="m3.636 21.654l-1.133-1.808 1.074-1.769c.591-.973 1.104-1.822 1.142-1.887.045-.078.45.513 1.202 1.749.624 1.027 1.134 1.885 1.134 1.908 0 .05-2.14 3.467-2.225 3.554-.033.033-.57-.753-1.193-1.747m-5.92.946l-1.407-.69.589-1.094c.324-.602.554-1.122.511-1.156-.043-.034-.39-.289-.772-.566-4.163-3.02-3.853-7.954.679-10.801 3.762-2.363 9.645-2.621 13.815-.606 2.055.993 3.437 2.275 4.203 3.9.391.829.533 1.433.538 2.287.013 2.177-1.245 4.208-3.533 5.702l-.222.145.538 1.019c.296.56.551 1.05.566 1.089.027.067-2.766 1.466-2.926 1.466-.042 0-1.282-2.266-2.756-5.04-1.474-2.77-2.705-5.04-2.736-5.04-.031 0-1.262 2.256-2.735 5.01-1.565 2.93-2.734 5.02-2.812 5.03-.074.011-.767-.291-1.541-.67m3.784-10.21c1.375-2.522 2.484-4.601 2.465-4.619-.019-.019-.41.013-.87.07-6.04.747-9.08 4.673-6.04 7.805.6.618 1.8 1.468 1.916 1.357.015-.014 1.153-2.09 2.528-4.613m10.289 3.911c1.012-.724 1.72-1.758 1.879-2.746.426-2.648-2.526-5.066-6.935-5.681-.566-.079-1.049-.123-1.074-.099-.038.037 3.614 6.843 4.684 8.732l.31.547.284-.173c.156-.095.54-.356.852-.579" fill="url(#1)"/></g></svg>