<svg xmlns="http://www.w3.org/2000/svg" xmlns:xlink="http://www.w3.org/1999/xlink" viewBox="0 0 48 48"><defs><linearGradient xlink:href="#0" id="3" x1="90.72" y1="1035.16" x2="155.06" y2="818.42" gradientUnits="userSpaceOnUse"/><linearGradient xlink:href="#0" id="2" y1="543.8" x2="0" y2="507.8" gradientUnits="userSpaceOnUse"/><linearGradient id="0"><stop stop-color="#197ff1"/><stop offset="1" stop-color="#21c6fb"/></linearGradient><linearGradient id="1" y1="542.05" x2="0" y2="507.05" gradientUnits="userSpaceOnUse"><stop stop-color="#1d1e1e"/><stop offset="1" stop-color="#44484c"/></linearGradient></defs><g transform="matrix(1.15663 0 0 1.15663-444.74-582.85)"><circle cx="405.28" cy="524.8" r="20" fill="url(#1)" stroke="url(#2)" stroke-linejoin="round" stroke-linecap="round" stroke-width="1.5"/><g transform="matrix(.06433 0 0 .06433 313.06 442)" fill="url(#3)" fill-rule="evenodd"><path d="m1442.96 1196.84l-.242 234.32-59.46-20.418-.418-274.2 75.897 21.19c48.583 13.786 78.31 40.584 77.83 87.55-.483 54.625-25.865 75.82-68.853 55.84v-101.28c0-14.941-24.754-25.851-24.754-2.995"/><path d="m1370.71 1303.15l-8.941 2.881-86.55 31.04c-18.219 8.355-33.437 13.758-33.534 27.371.457 17.231 27.459 25.614 66.997 32.22 21.07 4.223 42.596 1.392 61.03-2.512l.015-32.465c0 0-34.17 13.278-42.29 14.383l-16.439-.09c-12.204-.067-17.887-7.884-5.73-12.08l65.44-24.763.011-35.99"/><path d="m1524.5 1317.78c-22.722-.075-54.19 6.117-69.787 13.373v37l41.13-15.04 32.581-10.358c33.932-5.587 47.42 6.262 14.373 16.16l-88.08 32.23-.107 35.882 128.69-46.3c14.203-4.953 34.18-14.952 34.22-27.24-3.447-19.03-32.07-30.13-76.52-34.839-3.987-.411-7.993-.669-11.973-.788-1.516-.044-3.02-.083-4.537-.088z"/></g></g></svg>