<svg xmlns="http://www.w3.org/2000/svg" xmlns:xlink="http://www.w3.org/1999/xlink" viewBox="0 0 48 48"><defs><path id="1" d="m22 3h27v15h-27z"/><linearGradient gradientUnits="userSpaceOnUse" y2="513.98" x2="0" y1="547.44" id="0"><stop stop-color="#197cf1"/><stop offset="1" stop-color="#20bcfa"/></linearGradient></defs><g transform="translate(-384.57-499.8)"><flowRoot transform="translate(389.57 520.8)" font-family="sans-serif" letter-spacing="0" word-spacing="0" text-align="start" line-height="125%" font-size="10"><flowRegion><use xlink:href="#1"/></flowRegion><flowPara>Plasm</flowPara></flowRoot><g transform="matrix(1.57636 0 0 1.57636-222.96-314.39)"><g transform="matrix(.65763 0 0 .65763 163.45 180.5)"><g transform="translate(3.262 3.486)" fill="url(#0)"><rect y="513.13" x="334.23" height="34.939" width="46.3" rx="1.644"/><flowRoot transform="matrix(1.52062 0 0 1.52062 386.51 514.7)" font-family="sans-serif" text-align="start" word-spacing="0" line-height="125%" letter-spacing="0" font-size="10"><flowRegion><use xlink:href="#1"/></flowRegion><flowPara>Plasm</flowPara></flowRoot></g><g transform="matrix(1.06438 0 0 1.0611 845.06 672.03)" fill="#fff" fill-opacity=".85" color="#000"><ellipse cx="-462.61" cy="-130.51" rx="2.5" ry="2.5"/><ellipse cx="-458.11" cy="-123.01" rx="3" ry="3"/><ellipse cx="-460.61" cy="-138.51" rx="1.5" ry="1.5"/><path d="m-452.11-140.01l-2.844 2.844 4.375 4.375-4.531 5.156 3 2.625 7-8-7-7"/></g></g><flowRoot transform="translate(352.74 519.84)" font-family="sans-serif" letter-spacing="0" word-spacing="0" text-align="start" line-height="125%" font-size="10"><flowRegion><use xlink:href="#1"/></flowRegion><flowPara>Plasm</flowPara></flowRoot></g></g></svg>