<svg xmlns="http://www.w3.org/2000/svg" xmlns:xlink="http://www.w3.org/1999/xlink" viewBox="0 0 48 48"><defs><clipPath><rect y="507.8" x="392.57" height="32" width="32" fill="none" rx="16"/></clipPath><clipPath><rect y="507.8" x="392.57" height="32" width="32" fill="none" rx="16"/></clipPath><clipPath><rect y="507.8" x="392.57" height="32" width="32" fill="none" rx="16"/></clipPath><clipPath><rect y="8" x="8" height="32" width="32" fill="none" rx="16"/></clipPath><clipPath><rect y="507.8" x="392.57" height="32" width="32" fill="none" rx="16"/></clipPath><clipPath><rect y="507.8" x="392.57" height="32" width="32" fill="none" rx="16"/></clipPath><clipPath><rect width="32" height="32" x="392.57" y="507.8" fill="none" rx="16"/></clipPath><clipPath><rect width="32" height="32" x="8" y="8" fill="none" rx="16"/></clipPath><clipPath><rect width="32" height="32" x="392.57" y="507.8" fill="none" rx="16"/></clipPath><clipPath><rect y="507.8" x="392.57" height="32" width="32" fill="none" rx="16"/></clipPath><clipPath><rect width="32" height="32" x="392.57" y="507.8" fill="none" rx="16"/></clipPath><clipPath><path d="m0 706.47h1490.93v-706.47h-1490.93v706.47"/></clipPath><clipPath><rect y="8" x="8" height="32" width="32" fill="none" rx="16"/></clipPath><clipPath><path d="m22.2 686.12h1447.73v-667.19h-1447.73v667.19"/></clipPath><clipPath><rect y="8" x="8" height="32" width="32" fill="none" rx="16"/></clipPath><clipPath><rect y="507.8" x="392.57" height="32" width="32" fill="none" rx="16"/></clipPath><clipPath><rect y="507.8" x="392.57" height="32" width="32" fill="none" rx="16"/></clipPath><clipPath><rect y="507.8" x="392.57" height="32" width="32" fill="none" rx="16"/></clipPath><linearGradient gradientUnits="userSpaceOnUse" y2="82.95" x2="0" y1="502.54" id="1"><stop stop-color="#e8d800"/><stop offset="1" stop-color="#feff68"/></linearGradient><linearGradient gradientUnits="userSpaceOnUse" y2="517.8" x2="0" y1="546.8" id="0"><stop stop-color="#ff9300"/><stop offset="1" stop-color="#ffd702"/></linearGradient></defs><g transform="translate(-384.57-499.8)"><flowRoot transform="translate(355.62 516.06)" font-family="sans-serif" text-align="start" word-spacing="0" line-height="125%" letter-spacing="0" font-size="10"><flowRegion><path d="m22 3h27v15h-27z" id="2"/></flowRegion><flowPara>Plasm</flowPara></flowRoot><g transform="matrix(1.71429 0 0 1.71429-278.12-387.86)"><rect y="517.8" x="386.57" height="28" width="28" fill="url(#0)" rx="14"/><flowRoot transform="translate(355.62 516.06)" font-family="sans-serif" text-align="start" word-spacing="0" line-height="125%" letter-spacing="0" font-size="10"><flowRegion><use xlink:href="#2"/></flowRegion><flowPara>Plasm</flowPara></flowRoot><path d="m139.16 51.42l-35.776-35.864c-59.976 45.645-99.65 116.63-103.39 196.84h50.17c3.742-66.41 37.877-124.64 88.991-160.98m335.81 160.98h50.17c-3.742-80.22-43.41-151.2-103.59-196.84l-35.863 35.864c51.4 36.34 85.53 94.57 89.28 160.98zm-49.39 12.582c0-77-53.39-141.46-125.42-158.49v-17.09c0-20.787-16.761-37.614-37.592-37.614-20.831 0-37.592 16.827-37.592 37.614v17.09c-72.03 17.02-125.42 81.51-125.42 158.49v137.92l-50.15 50.11v25.08h426.34v-25.08l-50.15-50.11c0 0 0-137.92 0-137.92m-163.02 288.37c3.523 0 6.761-.219 10.06-1.01 16.236-3.238 29.824-14.529 36.06-29.627 2.516-5.952 4.048-12.494 4.048-19.54h-100.35c0 27.593 22.582 50.17 50.17 50.17" fill="#342300" transform="matrix(.02516 0 0 .02516 393.82 525.34)"/></g></g></svg>