<svg xmlns="http://www.w3.org/2000/svg" viewBox="0 0 48 48"><defs><linearGradient gradientTransform="matrix(2.63417 0 0 2.27513 149.15-57.929)" gradientUnits="userSpaceOnUse" id="0" y2="49.956" x2="0" y1=".854"><stop stop-color="#f4f4f4"/><stop offset="1" stop-color="#dbdbdb"/></linearGradient></defs><g transform="matrix(.44037 0 0 .44037-49.23 24.07)" color="#000"><path d="m163.61-54.655c-6.932.077-14.385.709-19.464 5.47-7.779 7.293-6.797 12.337-7.561 22.318-1.56 20.375-.956 48.3 3.187 68.36 1.215 5.885 6.766 10.03 12.653 11.159 4.519.87 9.192 1.529 13.872 1.688 4.68-.159 9.353-.818 13.872-1.688 5.888-1.133 11.438-5.274 12.653-11.159 4.143-20.06 4.747-47.985 3.187-68.36-.764-9.981.218-15.03-7.561-22.318-5.079-4.761-12.532-5.393-19.464-5.47-.906-.001-1.805-.0001-2.687 0-.882-.0001-1.781-.001-2.687 0" fill="url(#0)"/><g transform="matrix(.8168 0 0 .81429 538.04 144.56)" fill="#a8a8a8"><ellipse ry="2.5" rx="2.5" cy="-130.51" cx="-462.61"/><ellipse ry="3" rx="3" cy="-123.01" cx="-458.11"/><ellipse ry="1.5" rx="1.5" cy="-138.51" cx="-460.61"/><path d="m-452.11-140.01l-2.844 2.844 4.375 4.375-4.531 5.156 3 2.625 7-8-7-7"/></g></g></svg>