<svg xmlns="http://www.w3.org/2000/svg" viewBox="0 0 48 48"><defs><linearGradient gradientUnits="userSpaceOnUse" y2="528.82" x2="451.76" y1="556.82" x1="452.11" id="0"><stop stop-color="#42a603"/><stop offset="1" stop-color="#78da06"/></linearGradient><linearGradient gradientUnits="userSpaceOnUse" y2="528.79" x2="451.34" y1="556.79" x1="451.69" id="1"><stop stop-color="#197cf1"/><stop offset="1" stop-color="#21c9fb"/></linearGradient></defs><g transform="matrix(1.73162 0 0 1.73162-669.41-896.96)"><rect y="528.02" x="440.55" height="29.671" width="22.411" fill="url(#0)" fill-rule="evenodd" rx="1" stroke-width="1" transform="matrix(.93424 0 0 .93424-18.245 24.694)"/><g transform="matrix(.93424 0 0 .93424-24.573 24.727)"><rect y="527.99" x="440.13" height="29.671" width="22.411" fill="url(#1)" fill-rule="evenodd" rx="1"/><path d="m409 531l-5.244 6.733c-.983 1.262-.708 3.511.55 4.497 1.259.986 3.5.71 4.484-.552l5.244-6.733.655-.842c.656-.842.472-2.341-.367-2.998-.839-.658-2.334-.473-2.989.368l-.656.842-3.933 5.05-.656.842c-.328.421-.236 1.17.183 1.499.42.329 1.167.237 1.495-.184l4.589-5.891.839.658-4.589 5.891c-.656.842-2.15 1.026-2.989.368-.839-.658-1.023-2.157-.367-2.998l.656-.842 4.589-5.891c.983-1.262 3.225-1.538 4.484-.552 1.259.986 1.534 3.235.551 4.497l-.656.842-5.244 6.733c-1.311 1.683-4.3 2.051-5.978.736-1.678-1.315-2.045-4.313-.734-5.997l5.244-6.733.839.658" fill="#fff" fill-opacity=".852" transform="matrix(.85019 0 0 .84757 103.44 88.3)"/></g></g></svg>