<svg xmlns="http://www.w3.org/2000/svg" viewBox="0 0 48 48"><defs><linearGradient gradientUnits="userSpaceOnUse" y2="545.15" x2="0" y1="518.08" id="0"><stop stop-color="#faf7f7"/><stop offset="1" stop-color="#d4d4d4"/></linearGradient><linearGradient gradientUnits="userSpaceOnUse" y2="518.08" x2="402.47" y1="545.15" x1="403.44" id="1"><stop stop-color="#d3d3d3"/><stop offset="1" stop-color="#fcf9f9"/></linearGradient><linearGradient id="2" y1="552" x2="0" y2="510" gradientUnits="userSpaceOnUse"><stop stop-color="#2a2c2f"/><stop offset="1" stop-color="#424649"/></linearGradient></defs><g transform="matrix(1.6013 0 0 1.6013-617.36-827.48)"><circle r="14.226" cy="531.74" cx="400.52" fill="url(#1)" stroke="url(#0)" stroke-width="1.524"/><path d="m433.47 528c-1.662 0-3 1.338-3 3 0 1.662 1.338 3 3 3 1.662 0 3-1.338 3-3 0-1.662-1.338-3-3-3m-7.5 0c-1.662 0-3 1.338-3 3 0 1.662 1.338 3 3 3 1.662 0 3-1.338 3-3 0-1.662-1.338-3-3-3m15 0c-1.662 0-3 1.338-3 3 0 1.662 1.338 3 3 3 1.662 0 3-1.338 3-3 0-1.662-1.338-3-3-3" fill="url(#2)" transform="matrix(.95161 0 0 .95161-12.01 26.554)"/></g></svg>