<svg xmlns="http://www.w3.org/2000/svg" xmlns:xlink="http://www.w3.org/1999/xlink" viewBox="0 0 48 48"><defs><clipPath><path d="m69.63 12.145h-.052c-22.727-.292-46.47 4.077-46.709 4.122-2.424.451-4.946 2.974-5.397 5.397-.044.237-4.414 23.983-4.122 46.71-.292 22.777 4.078 46.523 4.122 46.761.451 2.423 2.974 4.945 5.398 5.398.237.044 23.982 4.413 46.709 4.121 22.779.292 46.524-4.077 46.761-4.121 2.423-.452 4.946-2.976 5.398-5.399.044-.236 4.413-23.981 4.121-46.709.292-22.777-4.077-46.523-4.121-46.761-.453-2.423-2.976-4.946-5.398-5.397-.238-.045-23.984-4.414-46.71-4.122"/></clipPath><linearGradient xlink:href="#1" id="3" x1="22.649" y1="13.164" x2="22.503" y2="1.368" gradientUnits="userSpaceOnUse"/><linearGradient xlink:href="#1" id="4" x1="-35.784" y1="25.991" x2="-35.811" y2="11.143" gradientUnits="userSpaceOnUse"/><linearGradient xlink:href="#1" id="2" x1="-35.03" y1="5.231" x2="-34.32" y2="-8.396" gradientUnits="userSpaceOnUse"/><linearGradient id="0" x1="-33.967" y1="34.569" x2="-34.983" y2="-8.143" gradientUnits="userSpaceOnUse"><stop stop-color="#74cb32"/><stop stop-color="#abeb6b" offset="1"/></linearGradient><linearGradient id="1"><stop stop-color="#141414"/><stop stop-color="#2d2d2f" offset="1"/></linearGradient></defs><g transform="translate(57.56 10.576)"><rect rx="2.01" y="-7.267" x="-57.56" height="42.587" width="48" fill="url(#0)"/><path d="m-54.913-8.451h42.707c1.537 0 2.676 1.235 2.676 2.77v5.961 2.77h-48.06v-2.77-5.961c0-1.534 1.138-2.77 2.676-2.77z" fill="url(#2)" stroke="#2c3e1b" stroke-linejoin="round" stroke-linecap="round" stroke-width=".043"/><path d="m9.906 3.07l4.676 5.05-4.676 4.564h6.602l5.158-4.564-5.158-5.05h-6.602zm16.621 0l4.676 5.05-4.676 4.564h6.6l5.158-4.564-5.158-5.05h-6.6z" transform="translate(-57.56-10.576)" fill="#a4e764" stroke="url(#3)" stroke-width=".389"/><path d="m-28.329 18.872l-10.462 7.283v-14.566z" fill="url(#4)" stroke="url(#4)" stroke-linejoin="round" stroke-linecap="round" stroke-width="1.306"/></g></svg>