<svg xmlns="http://www.w3.org/2000/svg" viewBox="0 0 48 48"><defs><clipPath id="1"><path transform="matrix(15.33333 0 0 11.5 415-125.5)" d="m-24 13c0 1.105-.672 2-1.5 2-.828 0-1.5-.895-1.5-2 0-1.105.672-2 1.5-2 .828 0 1.5.895 1.5 2" fill="#1890d0"/></clipPath><linearGradient id="0" x1="-10.767" y1="4.675" x2="-11.233" y2="-22.851" gradientUnits="userSpaceOnUse" gradientTransform="matrix(1.77384 0 0 1.71427 42.46 39.38)"><stop stop-color="#c52828"/><stop stop-color="#ff5454" offset="1"/></linearGradient></defs><g enable-background="new"><rect height="48" width="48" rx="3.085" fill="url(#0)" stroke-width="1.714"/></g><g transform="matrix(1.41648 0 0 1.41648-9.995-9.989)" fill="#f9ebeb"><g clip-path="url(#1)"><g><path d="m34.422 33.785c.598-.176 1.063-.551 1.348-1.066.234-.422.246-.488.223-1.043-.031-.785-.238-1.188-1.418-2.723-1.492-1.957-1.996-2.633-1.996-2.688 0-.027.25-.242.559-.477 1.133-.867 2.074-2.258 2.469-3.652.172-.594.199-.84.199-1.734.004-1.23-.145-1.918-.621-2.863-.77-1.535-2.199-2.652-4.051-3.176-.594-.164-1.406-.309-1.746-.313h-.164v4.555l.359.152c.504.215.887.582 1.156 1.117.199.395.23.535.23 1.043.004.508-.023.648-.203.98-.281.535-.773.973-1.738 1.559-.934.563-1.305.926-1.531 1.484-.301.738-.176 1.887.285 2.645.109.168.918 1.277 1.809 2.461.891 1.184 1.742 2.34 1.895 2.57.48.695.91 1.063 1.461 1.219.328.09 1.09.066 1.48-.047"/><path d="m16.922 34v-7.121c0-6.566 0-6.59.16-6.988.344-.855 1.246-1.383 2.266-1.324 1.273.063 2.074.941 2.125 1.602v13.82c-.27 0 4.93 0 4.914 0l.023-7.164.02-6.645.184-.348c.246-.465.789-.957 1.215-1.109l.352-.125v-4.605l-.457.059c-1.113.141-2.422.641-3.32 1.266l-.461.32-.469-.332c-2.238-1.57-5.309-1.75-7.781-.465-1.41.738-2.641 2.055-3.203 3.426-.461 1.145-.438.699-.465 8.324l-.027 7.398"/></g></g></g></svg>