<svg xmlns="http://www.w3.org/2000/svg" xmlns:xlink="http://www.w3.org/1999/xlink" viewBox="0 0 48 48"><defs><linearGradient gradientTransform="matrix(.53361 0 0 .53476-223.16-206.18)" xlink:href="#1" id="8" x1="543.95" y1="484.81" x2="543.74" y2="427.54" gradientUnits="userSpaceOnUse"/><linearGradient gradientUnits="userSpaceOnUse" y2="35.17" x2="0" y1="38.442" id="5" xlink:href="#3"/><linearGradient y2="31.988" x2="69.26" y1="34.14" x1="69.39" gradientUnits="userSpaceOnUse" id="7" xlink:href="#3"/><linearGradient y2="507.67" x2="390.88" y1="531.8" x1="391.57" gradientTransform="matrix(.68488 0 0 .84437-199.89-395.47)" gradientUnits="userSpaceOnUse" id="6"><stop stop-color="#d3d3d3"/><stop offset="1" stop-color="#fcf9f9"/></linearGradient><linearGradient y2="32.484" x2="80.37" y1="54.46" x1="80.978" gradientUnits="userSpaceOnUse" id="4" xlink:href="#3"/><linearGradient id="3"><stop stop-color="#222c35"/><stop offset="1" stop-color="#545e67"/></linearGradient><linearGradient y2="35.427" x2="80.06" y1="53.46" x1="80.34" gradientUnits="userSpaceOnUse" id="0" xlink:href="#1"/><linearGradient y2="50.747" x2="88.18" y1="36.87" x1="74.3" gradientUnits="userSpaceOnUse" id="2" xlink:href="#3"/><linearGradient id="1"><stop stop-color="#ff433a"/><stop offset="1" stop-color="#ff9436"/></linearGradient></defs><g transform="matrix(.99999 0 0 .99999-48.37-9.118)" enable-background="new"><rect y="21.871" x="45.917" height="31.543" width="40.986" transform="matrix(.9925-.12226.12173.99256 0 0)" fill="url(#8)" rx="1.23"/><path d="m51.623 43.84l8.01-3.442 2.866 1.365 5.88-2.682 6.301 1.198 4.476.376 3.207-1.463 3.999-1.442 5.04-6.582 1.414 11.249-38.893 4.78c-1.803.426-1.995-.959-1.995-.959z" fill="#512811" fill-rule="evenodd"/><circle transform="matrix(.99253-.12199.12199.99253 0 0)" r="4.5" cy="30.736" cx="55.43" fill-opacity=".68"/><rect width="3.793" height="1.897" x="66.865" y="32.25" fill="url(#7)" rx=".632"/><rect width="32.874" height="20.265" x="63.5" y="33.3" fill="url(#6)" rx=".948"/><path d="M69.42076 43.506768A11.518638 11.518638 0 0 1 80.939397 31.988133 11.518638 11.518638 0 0 1 92.45803 43.506768 11.518638 11.518638 0 0 1 80.939397 55.02541 11.518638 11.518638 0 0 1 69.42076 43.506768" fill="url(#4)"/><circle r="9.05" cy="43.507" cx="80.939" fill="url(#2)"/><circle cx="80.939" cy="43.507" r="8.228" fill="url(#0)"/><circle cx="67.18" cy="36.804" r="1.638" fill="url(#5)" fill-rule="evenodd"/></g></svg>