<svg xmlns="http://www.w3.org/2000/svg" viewBox="0 0 48 48"><defs><clipPath><path d="m69.63 12.145h-.052c-22.727-.292-46.47 4.077-46.709 4.122-2.424.451-4.946 2.974-5.397 5.397-.044.237-4.414 23.983-4.122 46.71-.292 22.777 4.078 46.523 4.122 46.761.451 2.423 2.974 4.945 5.398 5.398.237.044 23.982 4.413 46.709 4.121 22.779.292 46.524-4.077 46.761-4.121 2.423-.452 4.946-2.976 5.398-5.399.044-.236 4.413-23.981 4.121-46.709.292-22.777-4.077-46.523-4.121-46.761-.453-2.423-2.976-4.946-5.398-5.397-.238-.045-23.984-4.414-46.71-4.122"/></clipPath><clipPath><path transform="matrix(15.33333 0 0 11.5 415-125.5)" d="m-24 13c0 1.105-.672 2-1.5 2-.828 0-1.5-.895-1.5-2 0-1.105.672-2 1.5-2 .828 0 1.5.895 1.5 2" fill="#1890d0"/></clipPath><clipPath><path transform="matrix(15.33333 0 0 11.5 415-125.5)" d="m-24 13c0 1.105-.672 2-1.5 2-.828 0-1.5-.895-1.5-2 0-1.105.672-2 1.5-2 .828 0 1.5.895 1.5 2" fill="#1890d0"/></clipPath><linearGradient id="0" x1="-29.09" y1="73.29" x2="-29.915" y2="40.643" gradientUnits="userSpaceOnUse"><stop stop-color="#c52828"/><stop offset="1" stop-color="#ff5454"/></linearGradient><linearGradient id="1" x1="-10.767" y1="4.675" x2="-11.233" y2="-22.851" gradientUnits="userSpaceOnUse" gradientTransform="matrix(1.77384 0 0 1.71427-10.735 74.02)"><stop stop-color="#e1e1e1"/><stop offset="1" stop-color="#f4f4ff"/></linearGradient></defs><g transform="translate(53.2-34.643)"><rect rx="3.085" width="48" height="48" x="-53.2" y="34.643" fill="url(#1)"/><path d="m-19.496 42.652c.157.053.197.158.118.315-.052.158-.092.302-.118.433-.052.184-.079.38-.079.59.026.184.026.367 0 .551-.026.341-.052.695-.079 1.062 0 .367-.039.721-.118 1.062-.026.158-.066.315-.118.472-.052.131-.105.276-.157.433-.026.131-.039.276-.039.433 0 .158-.026.302-.079.433-.052.262-.092.525-.118.787-.026.262-.066.538-.118.826-.026.131-.052.276-.079.433 0 .158-.013.315-.039.472-.026.131-.052.262-.079.394-.026.131-.066.262-.118.394-.052.262-.105.525-.157.787-.052.262-.105.538-.157.826-.105.289-.171.472-.197.551 0 .053-.026.092-.079.118-.131 0-.184-.053-.157-.158.026-.131.026-.262 0-.394-.026-.105-.052-.197-.079-.276 0-.079 0-.171 0-.276-.026-.105-.039-.197-.039-.276 0-.105-.013-.21-.039-.315 0-.079 0-.158 0-.236 0-.105-.013-.197-.039-.276-.026-.105-.066-.197-.118-.276-.052-.105-.105-.223-.157-.354-.052-.131-.105-.262-.157-.394-.052-.158-.105-.302-.157-.433-.052-.079-.118-.158-.197-.236-.052-.079-.105-.171-.157-.276-.079-.262-.131-.407-.157-.433-.026-.027-.052-.065-.079-.118-.052-.131-.079-.249-.079-.354 0-.105-.026-.21-.079-.315-.079-.105-.118-.183-.118-.236 0-.079-.026-.144-.079-.197-.315-.315-.551-.525-.708-.63-.236-.21-.393-.328-.472-.354-.052-.027-.131-.065-.236-.118-.105-.052-.249-.105-.433-.158-.184-.079-.341-.144-.472-.197-.105-.105-.197-.144-.275-.118-.079 0-.144-.014-.197-.041-.131-.052-.262-.105-.393-.158-.131-.079-.262-.131-.393-.158-.131-.052-.249-.079-.354-.079-.105 0-.21-.014-.315-.041-.157-.052-.315-.092-.472-.118-.157-.052-.302-.105-.433-.158-.079-.052-.17-.092-.275-.118-.079-.053-.144-.092-.197-.118-.105.027-.197.027-.275 0-.052-.027-.105-.041-.157-.041-.131-.027-.289-.052-.472-.079-.157-.027-.302-.052-.433-.079-.341 0-.603-.014-.787-.041-.184-.053-.38-.053-.59 0-.21.027-.407.092-.59.197-.184.105-.354.223-.511.354-.157.184-.315.328-.472.433-.157.079-.289.171-.393.276-.184.262-.315.459-.393.59-.052.131-.105.276-.157.433-.131.21-.197.341-.197.394.026.053.026.105 0 .158-.052.105-.105.197-.157.276-.026.079-.052.144-.079.197-.079.394-.118.643-.118.747.026.105.066.223.118.354.026.131.026.249 0 .354 0 .105 0 .223 0 .354.026.21.026.328 0 .354-.026.027-.039.066-.039.118-.105.315-.144.669-.118 1.062.105.42.157.708.157.866 0 .131.026.249.079.354.026.079.052.144.079.197.026.053.066.118.118.197.052.079.079.158.079.236 0 .079.026.144.079.197.052.131.157.302.315.511.157.158.249.276.275.354.052.079.105.184.157.315.079.105.157.21.236.315.052.053.105.118.157.197.079.053.131.144.157.276.21.053.393.131.551.236.157.105.328.223.511.354.236.21.393.315.472.315.105 0 .184.027.236.079.131.105.249.171.354.197.105 0 .21.014.315.041.157.105.262.144.315.118.052-.027.105-.014.157.041.052.027.131.041.236.041.105-.027.223-.027.354 0 .105.027.223.053.354.079.157.027.315.066.472.118.289.027.577.079.866.158.184.079.289.118.315.118.026-.027.066-.027.118 0 .079.027.157.053.236.079.105 0 .184.027.236.079.367.105.656.158.866.158.079.027.157.053.236.079.105 0 .184.014.236.041.131.079.223.118.275.118.079 0 .131.014.157.041.131.027.249.053.354.079.131 0 .249.027.354.079.131.131.21.197.236.197.052-.027.105-.027.157 0 .131.131.236.197.315.197.079 0 .144.014.197.041.262.131.511.249.748.354.236.079.459.197.669.354.341.262.59.512.748.748.184.21.341.42.472.63.184.315.289.498.315.551.105.262.17.407.197.433.052.027.079.066.079.118.052.105.079.236.079.394.026.131.052.262.079.394.026.21.039.42.039.629.026.21.039.459.039.748-.026.21-.039.328-.039.354.026.027.039.066.039.118-.026.131-.066.289-.118.472-.026.158-.066.315-.118.472-.079.315-.144.511-.197.59-.026.079-.066.184-.118.315-.131.289-.249.577-.354.866-.105.289-.223.538-.354.748-.131.184-.223.302-.275.354-.026.027-.066.065-.118.118-.157.262-.236.42-.236.472.026.053.026.105 0 .158-.21.262-.328.433-.354.511-.026.079-.066.144-.118.197-.236.262-.367.407-.393.433-.026 0-.052.014-.079.041-.052.052-.105.144-.157.276-.052.105-.118.197-.197.276-.21.183-.341.289-.393.315-.026 0-.052.014-.079.041-.131.158-.223.249-.275.276-.052.027-.105.065-.157.118l-.354.276c-.367.184-.63.341-.787.472-.367.183-.63.315-.787.394-.157.052-.315.105-.472.158-.131.052-.262.118-.393.197-.105.052-.236.105-.393.158-.157.105-.328.184-.511.236-.184.079-.38.158-.59.236-.131.053-.328.105-.59.158-.236.079-.459.131-.669.158-.315.053-.656.105-1.023.158-.341.053-.682.053-1.023 0-.079.027-.184.041-.315.041-.105 0-.236-.014-.393-.041-.131-.027-.275-.052-.433-.079-.131-.027-.223-.053-.275-.079-.184-.105-.328-.171-.433-.197-.105 0-.223-.027-.354-.079-.105-.053-.21-.105-.315-.158-.105-.027-.223-.066-.354-.118-.21-.131-.354-.21-.433-.236-.052 0-.105-.014-.157-.041-.184-.21-.315-.315-.393-.315-.052 0-.105-.027-.157-.079-.052-.053-.118-.118-.197-.197-.052-.079-.118-.144-.197-.197-.079-.052-.157-.079-.236-.079-.052-.027-.105-.079-.157-.158-.105-.027-.236-.144-.393-.354-.131-.184-.21-.276-.236-.276-.026 0-.052-.027-.079-.079-.21-.184-.328-.302-.354-.354 0-.053-.026-.105-.079-.158-.105-.131-.184-.289-.236-.472-.079-.158-.144-.289-.197-.394-.052-.079-.105-.171-.157-.276-.052-.105-.118-.197-.197-.276-.131-.184-.21-.276-.236-.276-.026-.027-.052-.065-.079-.118-.157-.184-.223-.302-.197-.354.026-.053.013-.105-.039-.158-.079-.158-.144-.262-.197-.315-.026-.053-.039-.105-.039-.158-.052-.289-.052-.564 0-.826.052-.262.118-.498.197-.708.052-.105.092-.197.118-.276.052-.105.105-.21.157-.315.079-.184.17-.367.275-.551.105-.21.184-.42.236-.63.105-.105.21-.197.315-.276.105-.105.21-.223.315-.354.105-.105.197-.223.275-.354.105-.131.223-.249.354-.354.079-.052.17-.105.275-.158.131-.053.236-.118.315-.197.079-.079.157-.144.236-.197.079-.052.17-.118.275-.197.184-.131.315-.223.393-.276.105-.053.262-.105.472-.158.393-.079.643-.144.748-.197.131-.079.236-.118.315-.118.052-.027.118-.027.197 0 .105 0 .197 0 .275 0 .157-.027.341-.041.551-.041.21 0 .38.027.511.079.341.236.538.407.59.511.236.289.393.485.472.59.079.079.144.171.197.276.157.184.249.328.275.433.026.079.066.144.118.197.184.21.275.38.275.511.026.105.066.21.118.315.026.105.052.197.079.276.026.079.039.158.039.236.052.498.052.931 0 1.298-.079.262-.118.433-.118.511 0 .053 0 .105 0 .158-.184.289-.302.472-.354.551-.026.053-.105.144-.236.276-.079.079-.157.158-.236.236-.079.053-.17.131-.275.236-.026.027-.079.079-.157.158-.079.079-.157.131-.236.158-.105.053-.315.079-.629.079-.315-.027-.511-.052-.59-.079-.262-.131-.407-.197-.433-.197-.026 0-.066-.014-.118-.041-.21-.184-.315-.262-.315-.236 0 0-.013-.014-.039-.041-.236-.21-.354-.367-.354-.472 0-.131-.013-.249-.039-.354 0-.131 0-.223 0-.276.026-.079.066-.184.118-.315.052-.079.118-.183.197-.315.079-.131.184-.223.315-.276.341-.158.577-.197.708-.118.157.079.354.118.59.118-.052.184-.131.315-.236.394-.079.079-.184.158-.315.236-.131.105-.275.184-.433.236-.131.053-.17.184-.118.394.472.262.787.38.944.354.157-.053.367-.131.629-.236.131-.052.249-.092.354-.118.131-.053.249-.105.354-.158.131-.446.17-.826.118-1.141-.052-.315-.131-.656-.236-1.023-.105-.367-.197-.59-.275-.669-.052-.079-.079-.184-.079-.315-.079-.105-.184-.171-.315-.197-.105-.052-.21-.105-.315-.158-.079-.105-.184-.183-.315-.236-.105-.079-.223-.118-.354-.118-.131 0-.289.066-.472.197l-.393.197c-.21.105-.328.171-.354.197 0 .027-.026.052-.079.079-.341.21-.564.38-.669.511-.079.131-.17.249-.275.354-.105.079-.21.183-.315.315-.079.131-.17.249-.275.354-.184.105-.302.197-.354.276-.052.079-.105.171-.157.276-.026.053-.066.131-.118.236-.052.105-.092.21-.118.315 0 .053 0 .131 0 .236.026.105.026.21 0 .315 0 .21 0 .38 0 .511 0 .105.039.276.118.511.079.236.118.407.118.511.157.131.236.236.236.315 0 .053.026.105.079.158.105.183.21.328.315.433.105.079.223.171.354.276.236.236.42.459.551.669.157.184.328.341.511.472.236.158.459.276.669.354.236.079.538.092.905.041.21-.053.459-.079.748-.079.289 0 .538-.027.748-.079.131-.027.262-.066.393-.118.157-.052.328-.105.511-.158.105-.052.21-.079.315-.079.131 0 .275-.027.433-.079.184-.053.367-.105.551-.158.21-.053.433-.079.669-.079.157-.105.328-.183.511-.236.184-.053.354-.131.511-.236.079-.052.157-.092.236-.118.105-.027.197-.066.275-.118l.472-.236c.472-.289.852-.734 1.141-1.338.052-.131.105-.249.157-.354.052-.105.105-.223.157-.354.157-.289.262-.511.315-.669.052-.105.118-.21.197-.315.079-.131.131-.262.157-.394 0-.131-.026-.249-.079-.354-.026-.131-.039-.276-.039-.433 0-.105 0-.21 0-.315.026-.131.039-.262.039-.394v-.708c0-.315.026-.577.079-.787.052-.236.066-.498.039-.787-.026-.21-.079-.42-.157-.63-.052-.21-.118-.42-.197-.629-.105-.158-.184-.236-.236-.236-.026-.027-.039-.065-.039-.118-.184-.289-.302-.433-.354-.433-.026 0-.052-.014-.079-.041-.262-.158-.407-.301-.433-.433-.289-.052-.446-.092-.472-.118-.026-.027-.066-.041-.118-.041-.315-.131-.551-.223-.708-.276-.131-.053-.275-.105-.433-.158-.367-.079-.59-.118-.669-.118-.079-.027-.184-.065-.315-.118-.131-.105-.249-.158-.354-.158-.105 0-.184-.014-.236-.041-.262-.079-.42-.131-.472-.158-.026-.027-.066-.041-.118-.041-.315-.079-.472-.118-.472-.118-.236-.105-.446-.158-.629-.158-.157-.027-.328-.066-.511-.118-.262-.079-.472-.118-.629-.118-.262-.105-.459-.171-.59-.197-.131-.052-.249-.065-.354-.041-.105 0-.21-.027-.315-.079-.315-.158-.577-.262-.787-.315-.105-.053-.21-.118-.315-.197-.079-.079-.17-.144-.275-.197-.315-.105-.472-.158-.472-.158 0-.027-.026-.053-.079-.079-.079-.052-.157-.105-.236-.158-.052-.052-.144-.105-.275-.158-.105-.078-.21-.157-.315-.236-.105-.105-.184-.223-.236-.354l-.354-.315c-.289-.21-.459-.341-.511-.394-.026-.079-.105-.144-.236-.197-.079-.21-.17-.394-.275-.551-.079-.158-.144-.315-.197-.472-.079-.131-.144-.262-.197-.394-.052-.053-.092-.131-.118-.236 0-.131-.026-.236-.079-.315-.052-.079-.092-.171-.118-.276-.026-.131-.066-.249-.118-.354-.079-.262-.131-.394-.157-.394 0 0 0-.014 0-.041-.131-.341-.236-.577-.315-.708-.052-.131-.105-.262-.157-.394-.026-.105-.039-.21-.039-.315 0-.105 0-.21 0-.315-.026-.184-.052-.328-.079-.433 0-.131.026-.289.079-.472.052-.158.105-.315.157-.472.052-.183.105-.367.157-.551.131-.472.236-.787.315-.944.052-.131.105-.249.157-.354.052-.131.105-.262.157-.394.131-.21.197-.341.197-.394.052-.21.118-.394.197-.551.157-.289.38-.59.669-.905.157-.158.249-.249.275-.276.052-.052.105-.105.157-.158.157-.21.262-.328.315-.354.079-.052.144-.118.197-.197.21-.21.328-.328.354-.354.026-.027.079-.065.157-.118.131-.105.249-.223.354-.354.131-.131.249-.223.354-.276.289-.079.498-.158.629-.236.157-.079.328-.144.511-.197.262-.079.472-.105.629-.079.157 0 .315-.014.472-.041.105-.027.197-.052.275-.079.105-.052.223-.079.354-.079.131-.027.249-.027.354 0 .131 0 .262 0 .393 0 .131 0 .236-.014.315-.041.105-.027.21-.027.315 0 .157 0 .341.027.551.079.105.027.21.041.315.041.105-.027.197-.027.275 0 .367.131.616.21.748.236.131.053.275.118.433.197.184.053.341.105.472.158.289.131.498.21.629.236.131.027.223.053.275.079.184.079.354.171.511.276.157.079.328.171.511.276.131.053.223.105.275.158.052.027.131.065.236.118.157.079.275.144.354.197.079.027.17.066.275.118.079.105.262.171.551.197.393.079.748.118 1.062.118.341-.027.59-.065.748-.118.236-.079.42-.197.551-.354.131-.158.275-.288.433-.394.079-.21.184-.38.315-.511.157-.131.302-.262.433-.394.052-.079.105-.144.157-.197.052-.079.118-.158.197-.236.184-.183.289-.301.315-.354.026-.079.079-.131.157-.158h.079" fill="url(#0)"/></g></svg>