<svg xmlns="http://www.w3.org/2000/svg" viewBox="0 0 48 48"><defs><linearGradient id="0" x1="54.19" y1="22.898" x2="53.629" y2="-28.23" gradientUnits="userSpaceOnUse"><stop stop-color="#0a80fd"/><stop offset="1" stop-color="#56c5fa"/></linearGradient></defs><g transform="matrix(.99999 0 0 .99999-33.431 25.722)" enable-background="new"><path d="m79.74 3.382c.341-1.561.523-3.181.523-4.844 0-12.467-10.11-22.573-22.574-22.573-1.316 0-2.606.114-3.86.33-2.02-1.271-4.404-2.01-6.965-2.01-7.23 0-13.09 5.861-13.09 13.09 0 2.417.658 4.679 1.799 6.622-.299 1.466-.457 2.985-.457 4.54 0 12.467 10.11 22.574 22.573 22.574 1.412 0 2.793-.131 4.133-.379 1.843.991 3.95 1.553 6.189 1.553 7.23 0 13.09-5.861 13.09-13.09 0-2.089-.492-4.062-1.362-5.814" fill="url(#0)"/><path d="m62.39 3.972c-.501 4.738-7.541 3.337-10.277 1.468-1.134-.934-2.102-.634-2.97.234-.601.901-.634 2.369.467 3.27 4.605 3.804 16.884 3.604 17.12-4.872.234-8.876-14.281-5.739-13.38-11.211.701-3.47 6.306-2.736 8.776-1.168 2 1.468 4.405-1.435 2.136-3.27-4.605-3.537-14.381-2.369-15.15 4.104-1.034 9.476 12.846 6.507 13.28 11.445z" fill-opacity=".85" stroke-width="1.135" fill="#fff" stroke="#e2f3fe"/></g></svg>