<svg xmlns="http://www.w3.org/2000/svg" xmlns:xlink="http://www.w3.org/1999/xlink" viewBox="0 0 48 48"><defs><linearGradient id="3" x1="63.44" y1="46.08" x2="58.43" y2="4.511" gradientUnits="userSpaceOnUse"><stop stop-color="#2a2c2f"/><stop offset="1" stop-color="#424649"/></linearGradient><linearGradient xlink:href="#1" id="2" x1="-1092.91" y1="203.1" x2="-1060.26" y2="104.85" gradientUnits="userSpaceOnUse" gradientTransform="matrix(.35784 0 0 .3517 429.08-23.823)"/><linearGradient xlink:href="#1" id="0" x1="79.11" y1="33.27" x2="79.02" y2="14.708" gradientUnits="userSpaceOnUse"/><linearGradient id="1"><stop stop-color="#ff9300"/><stop offset="1" stop-color="#ffd702"/></linearGradient></defs><g transform="matrix(.99999 0 0 .99999-38.37 5.882)" enable-background="new"><rect transform="matrix(.94958-.31353.30858.9512 0 0)" y="15.76" x="35.25" height="40.32" width="32.12" fill="url(#2)" rx=".984"/><rect transform="matrix(.99188-.12716.13593.99072 0 0)" y="4.133" x="43.35" height="44.08" width="35.798" fill="url(#3)" rx="1.076"/><g fill="#fff" fill-opacity=".851"><path d="m57.733 12.926c-.367-.251-.867-.157-1.118.21l-4.071 5.95c-.12.176-.166.393-.127.602.039.21.16.395.336.515l5.925 4.053c.183.125.4.165.602.127.202-.038.39-.153.515-.336.251-.367.157-.867-.21-1.118l-5.261-3.599 3.617-5.286c.251-.367.157-.867-.21-1.117"/><path d="m76.4 14.589l-5.926-4.053c-.366-.251-.867-.157-1.117.21-.251.367-.157.867.21 1.118l5.262 3.599-3.617 5.286c-.251.367-.157.867.21 1.118.183.125.4.165.602.127.202-.038.39-.153.515-.336l4.071-5.95c.12-.176.166-.393.127-.602-.04-.209-.16-.395-.337-.515"/><path d="m67.76 10.828c-.398-.196-.88-.032-1.076.367l-5.684 11.557c-.196.398-.032.88.367 1.076.162.08.338.1.502.069.24-.045.458-.199.574-.436l5.684-11.557c.196-.398.032-.88-.366-1.076"/></g><circle r="9.767" cy="23.836" cx="79.45" transform="matrix(.99409.10856-.10856.99409 0 0)" fill="url(#0)"/><path d="m78.23 34.735c-.206 1.953-3.107 1.375-4.235.605-.468-.385-.866-.261-1.224.096-.248.371-.261.976.192 1.347 1.897 1.568 6.957 1.485 7.05-2.01.096-3.657-5.885-2.365-5.514-4.62.289-1.43 2.599-1.128 3.616-.481.825.605 1.815-.591.88-1.348-1.897-1.457-5.926-.976-6.242 1.691-.426 3.905 5.294 2.681 5.472 4.716z" fill-opacity=".851" stroke-width=".4" fill="#fff" stroke="#ffefda"/></g></svg>