<svg xmlns="http://www.w3.org/2000/svg" viewBox="0 0 48 48"><defs><linearGradient id="0" gradientUnits="userSpaceOnUse" y1="22.369" x2="0" y2="-26.429"><stop stop-color="#d8d8d8"/><stop offset="1" stop-color="#fff"/></linearGradient><linearGradient id="1" y1="-17.875" x2="0" y2="17.12" gradientUnits="userSpaceOnUse"><stop stop-color="#0a80fd"/><stop offset="1" stop-color="#56c5fa"/></linearGradient></defs><g transform="matrix(.99999 0 0 .99999-38.37 25.882)" enable-background="new"><circle r="24" cy="-1.875" cx="62.37" fill="url(#0)"/><path d="m62.42-17.875c-.103-.003-.202.037-.273.112-1.026 1.07-2.068 2.271-3.01 3.414 0 0-.002.003-.003.004-2.321 2.895-4.086 5.87-5.365 9.05-1.191 2.967-1.888 5.534-2.521 9.272-.139.819-.279 1.811-.376 2.609-.048.399-.086.749-.107 1.01-.011.129-.017.236-.018.322 0 .043 0 .079.003.123.002.022.004.046.015.087.011.04.002.123.165.223.088.054.1.043.121.049.022.005.039.009.056.012.035.006.073.0001.116.014.086.009.192.018.304.024.89.049 2.203.275 3.073.53.587.172.974.314 1.548.569.133.059.254.113.344.152.045.02.082.035.11.047.013.006.025.0001.036.014 0 0 0 0 .002 0 0 0 .002 0 .002 0 .004.002.008.004.015.008 0 0-.002-.003-.003-.003.002 0 .003 0 .005.002.005.002.0001.004.021.008.004 0 .008.004.013.006-.003 0-.012 0-.014 0 .025.014.056.031.096.053.097.053.23.127.376.209 1.404.789 2.455 1.603 4.132 3.21.221.212.427.404.583.546.078.071.143.13.194.173.026.022.047.04.07.057.012.009.023.018.042.03.0001.006.022.013.043.024.022.0001.043.031.143.036.12.006.144-.021.169-.031.025-.011.037-.018.048-.025.021-.013.033-.022.045-.031.025-.018.047-.037.075-.061.055-.047.126-.11.211-.186.17-.153.395-.361.637-.59 1.387-1.316 2.059-1.872 3.03-2.513 2.11-1.4 3.99-2.02 6.876-2.265l.234-.02c.188-.016.333-.173.332-.362v-.138c0-.287-.068-.879-.16-1.613-.092-.734-.21-1.569-.316-2.203-.633-3.772-1.353-6.429-2.559-9.434-1.087-2.707-2.643-5.44-4.502-7.915-.004-.006-.009-.011-.013-.016-1.252-1.482-2.462-3.037-3.783-4.479-.066-.072-.159-.115-.257-.118" fill="url(#1)"/></g></svg>