<svg xmlns="http://www.w3.org/2000/svg" viewBox="0 0 48 48"><defs><linearGradient gradientUnits="userSpaceOnUse" y2="-40.76" x2="248.04" y1="-6.236" x1="248.2" id="0"><stop stop-color="#a0d5ff"/><stop offset="1" stop-color="#edf7f7"/></linearGradient><linearGradient id="1" x1="409.56" y1="544.81" x2="409.81" y2="504.66" gradientUnits="userSpaceOnUse" gradientTransform="matrix(1.2171 0 0 1.15944-88.7-83.994)"><stop stop-color="#197cf1"/><stop offset="1" stop-color="#20bcfa"/></linearGradient><linearGradient gradientUnits="userSpaceOnUse" y2="512.63" x2="408.16" y1="518.7" x1="408.15" id="2"><stop stop-color="#a0d5ff"/><stop offset="1" stop-color="#fff"/></linearGradient></defs><g transform="matrix(.89631 0 0 .89631-342.2-442.24)" enable-background="new"><path transform="matrix(.48074 0 0 .48395 285.98 510.46)" d="m204.25-29.481c-1.108 0-2 .892-2 2v81.61l104.06.24v-70.04c0-1.108-.892-2-2-2h-48.601c-2.039.18-2.301-.09-3.308-1.435-1.429-1.912-3.586-7.06-4.992-8.929-1.129-1.633-1.312-1.443-3.184-1.443z" fill="url(#0)" color="#000"/><rect width="53.55" height="39.42" x="381.8" y="504.77" fill="url(#1)" rx="1.855" stroke-width="1.162"/><rect y="514.43" x="400.47" height="3" width="16.2" fill="url(#2)" fill-rule="evenodd" rx="1.319"/></g></svg>