<svg xmlns="http://www.w3.org/2000/svg" xmlns:xlink="http://www.w3.org/1999/xlink" viewBox="0 0 48 48"><defs><linearGradient id="3" x1="-67.12" y1="44.929" x2="-67.53" y2="11.167" gradientUnits="userSpaceOnUse"><stop stop-color="#197ff1"/><stop stop-color="#21c6fb" offset="1"/></linearGradient><linearGradient gradientTransform="matrix(.43089 0 0 .43377-176.39 16.09)" gradientUnits="userSpaceOnUse" y2="-40.76" x2="248.04" y1="-6.236" x1="248.2" id="2" xlink:href="#1"/><linearGradient xlink:href="#1" id="0" x1="-67.06" y1="22.419" x2="-67.19" y2="17.944" gradientUnits="userSpaceOnUse"/><linearGradient y2="517.77" x2="400.7" y1="546.07" x1="400.51" gradientUnits="userSpaceOnUse" id="1"><stop stop-color="#2e3e46"/><stop stop-color="#435a64" offset="1"/></linearGradient></defs><g transform="translate(90.51-.814)"><path d="m-88.38 3.304c-.477 0-.862.387-.862.868v35.4l44.839.104v-30.381c0-.481-.384-.868-.862-.868h-20.942c-.879.078-.991-.039-1.425-.622-.616-.829-1.545-3.062-2.151-3.873-.486-.708-.565-.626-1.372-.626z" fill="url(#2)" color="#000"/><rect rx="1.663" y="10.992" x="-90.51" height="35.33" width="47.997" fill="url(#3)"/><rect rx="1.182" width="14.52" height="2.689" x="-73.77" y="19.65" fill="url(#0)" fill-rule="evenodd"/></g></svg>