<svg xmlns="http://www.w3.org/2000/svg" viewBox="0 0 48 48"><defs><linearGradient id="0" y1="509.8" x2="0" y2="503.8" gradientUnits="userSpaceOnUse"><stop stop-color="#c61423"/><stop offset="1" stop-color="#dc2b41"/></linearGradient><linearGradient id="1" x1="342.01" y1="550.66" x2="341.08" y2="511.1" gradientUnits="userSpaceOnUse"><stop stop-color="#197cf1"/><stop offset="1" stop-color="#20bcfa"/></linearGradient></defs><g transform="translate(-384.57-499.8)"><path d="m358.77 517c-4.823-3.925-11.228-6.087-18.03-6.087-6.806 0-13.21 2.162-18.03 6.087-4.865 3.96-7.545 9.236-7.545 14.859 0 5.366 2.442 10.417 6.895 14.309-.08.181-.144.371-.185.57l-1.463 7.196c-.174.855.06 1.365.286 1.643.262.32.65.497 1.093.497.335 0 .694-.099 1.069-.293l8.509-4.421c2.946.948 6.113 1.446 9.373 1.446 6.806 0 13.21-2.162 18.03-6.087 4.865-3.959 7.545-9.236 7.545-14.859 0-5.623-2.679-10.9-7.545-14.859" fill="url(#1)" transform="matrix(.9383 0 0 .9383 89.12 23.531)"/><g transform="matrix(2.48911 0 0 2.48911-634.22-754)"><ellipse cx="425.57" cy="506.8" rx="3" ry="3" fill="url(#0)"/><path d="m425.57 504.8c-.277 0-.5.223-.5.5v.293l-.207-.207c-.196-.196-.511-.196-.707 0-.196.196-.196.511 0 .707l.207.207h-.293c-.277 0-.5.223-.5.5 0 .277.223.5.5.5h.293l-.207.207c-.196.196-.196.511 0 .707.196.196.511.196.707 0l.207-.207v.293c0 .277.223.5.5.5.277 0 .5-.223.5-.5v-.293l.207.207c.196.196.511.196.707 0 .196-.196.196-.511 0-.707l-.207-.207h.293c.277 0 .5-.223.5-.5 0-.277-.223-.5-.5-.5h-.293l.207-.207c.196-.196.196-.511 0-.707-.196-.196-.511-.196-.707 0l-.207.207v-.293c0-.277-.223-.5-.5-.5" fill="#fff" fill-opacity=".855"/></g></g></svg>