<svg xmlns="http://www.w3.org/2000/svg" viewBox="0 0 48 48"><defs><linearGradient gradientTransform="matrix(.09396-.01075-.00879-.07712 3.813 58.971)" id="0" gradientUnits="userSpaceOnUse" x1="258.66" y1="1.708" x2="257.5" y2="564.01"><stop stop-color="#e9e9e9"/><stop offset="1" stop-color="#f9f9f9"/></linearGradient><linearGradient gradientTransform="matrix(1.0074 0 0 .87928-451.92-424.55)" gradientUnits="userSpaceOnUse" y2="502.38" x2="466.49" y1="542.68" x1="466.38" id="1"><stop stop-color="#197df1"/><stop offset="1" stop-color="#20bcfa"/></linearGradient></defs><g transform="matrix(.99999 0 0 .99999 1.479-9.148)" enable-background="new"><path d="m38.979 18.424c-.088-.77.607-1.498 1.608-1.756l-.244-2.141c-1.033-.025-1.874-.578-1.962-1.348-.088-.77.607-1.498 1.608-1.756l-.258-2.266-2.277.26c-.039.889-.763 1.65-1.729 1.76-.966.111-1.843-.468-2.081-1.325l-2.58.295c-.039.889-.763 1.65-1.729 1.76-.966.111-1.843-.468-2.081-1.325l-2.218.254c-.077.855-.786 1.574-1.723 1.682-.938.107-1.79-.434-2.058-1.249l-2.608.298c-.077.855-.786 1.574-1.723 1.682-.938.107-1.79-.434-2.058-1.249l-2.045.234c-.077.855-.786 1.574-1.723 1.682-.938.107-1.79-.434-2.058-1.249l-2.608.298c-.077.855-.786 1.574-1.723 1.682-.938.107-1.79-.434-2.058-1.249l-2.291.262.285 2.497c1.033.025 1.874.578 1.962 1.348.088.77-.607 1.498-1.608 1.756l.224 1.961c1.16-.08 2.151.502 2.247 1.341.096.839-.74 1.63-1.887 1.814l.221 1.941c1.119-.043 2.059.53 2.152 1.346.093.816-.695 1.587-1.794 1.798l.186 1.632c.046-.007.093-.014.141-.02 1.22-.139 2.289.455 2.388 1.329.1.873-.808 1.694-2.028 1.834-.047.005-.094.009-.141.013l.23 2.02c1.119-.043 2.059.53 2.152 1.346.093.816-.695 1.587-1.794 1.798l.249 2.186c1.076-.008 1.967.555 2.058 1.349.09.793-.651 1.543-1.701 1.778l.24 2.103c1.16-.08 2.151.502 2.247 1.341.096.839-.74 1.63-1.887 1.814l.221 1.935c1.16-.08 2.151.502 2.247 1.341.096.839-.74 1.63-1.887 1.814l.238 2.086 2.089-.239c-.024-.087-.042-.176-.052-.267-.114-1 .656-1.911 1.72-2.033 1.064-.122 2.02.591 2.133 1.592.001.092.013.183.009.272l2.58-.295c-.024-.087-.042-.176-.052-.267-.114-1 .656-1.911 1.72-2.033 1.064-.122 2.02.591 2.133 1.592.001.092.013.183.009.272l2.02-.231c-.024-.087-.042-.176-.052-.267-.114-1 .656-1.911 1.72-2.033 1.064-.122 2.02.591 2.133 1.592.001.092.013.183.009.272l2.58-.295c-.024-.087-.042-.176-.052-.267-.114-1 .656-1.911 1.72-2.033 1.064-.122 2.02.591 2.133 1.592.001.092.013.183.009.272l2.193-.251c-.014-.063-.025-.126-.033-.192-.114-1 .656-1.911 1.72-2.033 1.064-.122 2.02.591 2.133 1.592.007.065.011.13.011.194l2.559-.293c-.014-.063-.025-.126-.033-.192-.114-1 .656-1.911 1.72-2.033 1.064-.122 2.02.591 2.133 1.592.007.065.011.13.011.194l2.454-.281-.238-2.091c-1.119.043-2.059-.53-2.152-1.346-.093-.816.695-1.587 1.794-1.798l-.24-2.1c-1.119.043-2.059-.53-2.152-1.346-.093-.816.695-1.587 1.794-1.798l-.213-1.869c-1.119.043-2.059-.53-2.152-1.346-.093-.816.695-1.587 1.794-1.798l-.239-2.1c-1.119.043-2.059-.53-2.152-1.346-.093-.816.695-1.587 1.794-1.798l-.204-1.792c-1.119.043-2.059-.53-2.152-1.346-.093-.816.695-1.587 1.794-1.798l-.239-2.1c-1.119.043-2.059-.53-2.152-1.346-.093-.816.695-1.587 1.794-1.798l-.224-1.966c-1.033-.025-1.874-.578-1.962-1.348" fill="url(#0)"/><rect transform="matrix(.99352-.11362.11328.99356 0 0)" y="17.11" x="3.087" height="35.787" width="30.826" fill="url(#1)" rx=".528"/><path d="m21.12 24.21q3.893-.518 6.908 1.81 3.02 2.328 3.521 6.126.285 2.136-.455 3.66-.715 1.521-2.448 1.751-1.78.237-2.889-1.379-.932 1.888-3.092 2.175-1.946.259-3.456-.917-1.513-1.2-1.794-3.312-.278-2.089.868-3.642 1.146-1.554 2.997-1.8 1.828-.243 3.225.996l.095-.013-.142-1.068 1.709-.228.825 6.195q.082.617.481 1.071.422.451 1.134.356 1.685-.224 1.233-3.619-.417-3.133-2.889-5-2.471-1.869-5.604-1.452-3.133.417-5.03 2.868-1.896 2.451-1.479 5.584.417 3.133 2.889 5 2.471 1.869 5.604 1.452 1.685-.224 2.926-1.066l.88 1.525q-1.56.981-3.578 1.25-3.94.525-6.976-1.776-3.039-2.325-3.548-6.146-.506-3.798 1.819-6.837 2.349-3.042 6.265-3.564m-.681 11.758q.965.717 2.152.559 1.187-.158 1.907-1.099.744-.945.56-2.321-.183-1.377-1.148-2.094-.941-.72-2.128-.562-1.187.158-1.931 1.103-.72.941-.537 2.318.183 1.377 1.125 2.097" fill="#0b3757"/></g></svg>