<svg xmlns="http://www.w3.org/2000/svg" viewBox="0 0 48 48"><defs><linearGradient gradientUnits="userSpaceOnUse" x1="346.57" y1="513.8" x2="361.57" y2="528.8"><stop stop-color="#2e5d89"/><stop offset="1" stop-color="#1b92f4"/></linearGradient><linearGradient id="1" x1="257.2" y1="667.31" x2="254.8" y2="-175.87" gradientUnits="userSpaceOnUse"><stop stop-color="#e4e4e4"/><stop offset="1" stop-color="#eee"/></linearGradient><linearGradient id="0" gradientUnits="userSpaceOnUse" x1="401.1" y1="546.69" x2="400" y2="516.26"><stop stop-color="#155bc2"/><stop offset="1" stop-color="#369dff"/></linearGradient><linearGradient y1="545.8" x2="0" y2="517.8" gradientUnits="userSpaceOnUse"><stop stop-color="#3889e9"/><stop offset="1" stop-color="#5ea5fb"/></linearGradient><linearGradient gradientUnits="userSpaceOnUse" y2="307.75" x2="-328.21" y1="649.74" x1="-324.94"><stop stop-color="#016ed4"/><stop offset="1" stop-color="#00b1ff"/></linearGradient></defs><circle r="14" cy="531.8" cx="400.57" fill="url(#0)" stroke="url(#0)" stroke-width="1.427" transform="matrix(1.6301 0 0 1.63115-628.95-843.46)"/><path d="m490.59 125.18c-44.4-6.384-91.69-11.01-141.04-13.61l82.44-82.44-32-32-112.28 112.28c-10.503-.184-21.08-.278-31.721-.278l-128-128-32 32 97.1 97.1c-60.46 2.121-118.17 7.262-171.69 14.956-13.766 53.863-21.405 132.25-21.405 194.82 0 62.57 7.639 103.21 21.402 157.07 71.821 10.326 151.17 16.06 234.6 16.06 83.43 0 162.77-5.729 234.59-16.06 13.767-53.862 21.406-113.37 21.406-175.94 0-62.57-7.639-122.08-21.406-175.95m196.08 130.82c0 114.3-45.37 223.91-126.14 304.73-80.77 80.82-190.31 126.22-304.53 126.22-114.22 0-223.76-45.4-304.53-126.22-80.77-80.82-126.14-190.43-126.14-304.73 0-114.3 45.37-223.91 126.14-304.73 80.77-80.82 190.31-126.22 304.53-126.22 114.22 0 223.76 45.4 304.53 126.22 80.77 80.82 126.14 190.43 126.14 304.73z" transform="matrix(.05299 0 0 .05299 10.439 10.44)" fill="url(#1)"/></svg>