<svg xmlns="http://www.w3.org/2000/svg" xmlns:xlink="http://www.w3.org/1999/xlink" viewBox="0 0 48 48"><defs><linearGradient y2=".063" x2="202.58" y1="385.21" x1="209.55" gradientUnits="userSpaceOnUse" id="5"><stop stop-color="#8645a3"/><stop offset="1" stop-color="#d164ff"/></linearGradient><linearGradient x1="0" x2="47" gradientUnits="userSpaceOnUse"><stop stop-color="#a9a3d4"/><stop offset=".47" stop-color="#87baff"/><stop offset="1" stop-color="#89ec85"/></linearGradient><linearGradient id="6"><stop stop-color="#f4501b"/><stop offset="1" stop-color="#fdbc4b"/></linearGradient><linearGradient xlink:href="#6" id="4" y1="-15.394" x2="0" y2="-39.39" gradientUnits="userSpaceOnUse"/><linearGradient gradientUnits="userSpaceOnUse" y2="-31.865" x2="-61.694" y1="-.386" x1="-61.865" id="3"><stop stop-color="#bbbec4"/><stop offset="1" stop-color="#dddfe2"/></linearGradient><linearGradient id="0" gradientUnits="userSpaceOnUse" y1="5.383" x2="0" y2="2.392"><stop stop-color="#040404"/><stop offset="1" stop-color="#121212" stop-opacity=".908"/></linearGradient><linearGradient id="2" gradientUnits="userSpaceOnUse" gradientTransform="matrix(.35005 0 0 .34422-84.47-33.606)" x1="10.09" x2="122.72"><stop stop-color="#1a1a1a"/><stop offset=".111" stop-color="#2c2c2e"/><stop offset=".29" stop-color="#2b2b2d"/><stop offset=".512" stop-color="#2a2b2d"/><stop offset=".752" stop-color="#2b2b2d"/><stop offset=".897" stop-color="#323232"/><stop offset="1" stop-color="#171717"/></linearGradient><linearGradient xlink:href="#6" id="1" gradientUnits="userSpaceOnUse" gradientTransform="matrix(.71218 0 0 1.40915-381.68-762.3)" y1="544.31" x2="0" y2="542.96"/></defs><g transform="matrix(.99999 0 0 .99999-38.37 25.882)" enable-background="new"><g transform="matrix(1.04635 0 0 1.04635 123.51 15.193)"><path d="m-80.94.075l.35 5.517c0 .572.468 1.033 1.05 1.033h36.624c.582 0 1.05-.461 1.05-1.033l.35-5.517h-39.42" fill="url(#2)"/><path d="m-77.79-32.27h32.776c.582 0 1.05.461 1.05 1.033l2.451 31.14c0 .572-.468 1.033-1.05 1.033h-37.33c-.582 0-1.05-.461-1.05-1.033l2.1-31.14c0-.572.468-1.033 1.05-1.033" fill="url(#3)"/><rect y="3.494" x="-69.24" height="1.083" width="16.15" fill="url(#1)" rx=".542"/><ellipse cx="-46.39" cy="4.074" rx="1.495" ry="1.495" opacity=".452" fill="url(#0)"/><g fill="#e3e8ea" stroke-width="1.317"><path d="m-46.39 4.113c.034 0 .063-.012.088-.037.025-.025.037-.054.037-.088v-.623c0-.034-.012-.063-.037-.088-.025-.025-.054-.037-.088-.037-.034 0-.063.012-.088.037-.025.025-.037.054-.037.088v.623c0 .034.012.063.037.088.025.025.054.037.088.037" opacity=".668"/><path d="m-45.724 3.779c-.052-.104-.126-.192-.221-.263-.027-.021-.058-.029-.093-.024-.034.005-.062.021-.082.049-.021.027-.029.058-.024.092.005.034.021.062.048.082.064.048.113.107.147.176.035.069.052.143.052.222 0 .068-.013.132-.039.193-.026.061-.062.114-.107.159-.045.045-.098.08-.159.107-.061.026-.126.039-.193.039-.068 0-.132-.013-.193-.039-.061-.026-.114-.062-.159-.107-.045-.045-.08-.098-.107-.159-.026-.061-.039-.126-.039-.193 0-.079.017-.153.052-.222.035-.069.084-.128.148-.176.027-.021.043-.048.048-.082.005-.034-.003-.065-.024-.092-.02-.028-.047-.044-.081-.049-.034-.005-.065.004-.093.024-.095.071-.168.158-.221.263-.052.105-.078.216-.078.334 0 .101.02.198.059.29.04.092.093.172.16.239.067.067.146.12.239.16.092.04.189.059.29.059.101 0 .198-.02.29-.059.092-.04.172-.093.239-.16.067-.067.12-.146.16-.239.04-.092.059-.189.059-.29 0-.118-.026-.229-.078-.334" opacity=".668"/></g></g><path d="m202.81 58.7c3.02 1.463 6.876.595 8.618-1.937 1.743-2.533.71-5.771-2.309-7.233-3.02-1.462-6.876-.595-8.619 1.938-1.742 2.532-.709 5.77 2.309 7.231zm-12.916 34.24c-2.775 0-5.405-.518-7.765-1.439l-4.385 6.594c3.663 1.522 7.786 2.382 12.15 2.382 2.538 0 4.992-.295 7.324-.837.413-2.127 1.918-4.087 4.317-5.25 2.395-1.16 5.167-1.275 7.567-.514 4.666-3.85 7.703-9.09 8.145-14.923l-8.994-.11c-.828 7.902-8.728 14.1-18.358 14.1zm0-30.939c9.631 0 17.531 6.196 18.358 14.1l8.994-.11c-.443-5.833-3.479-11.07-8.146-14.922-2.399.76-5.171.645-7.566-.515-2.399-1.162-3.904-3.122-4.316-5.249-2.332-.541-4.786-.837-7.324-.837-4.364 0-8.487.86-12.15 2.382l4.385 6.593c2.36-.921 4.99-1.439 7.765-1.439zm-18.434 15.47c0-5.234 3.099-9.856 7.838-12.655l-4.613-6.486c-5.522 3.097-9.631 7.83-11.337 13.374 1.993 1.363 3.267 3.44 3.267 5.767 0 2.327-1.274 4.404-3.267 5.767 1.706 5.545 5.814 10.278 11.337 13.374l4.614-6.486c-4.739-2.799-7.838-7.421-7.838-12.656zm31.35 18.774c-3.02 1.462-4.052 4.7-2.31 7.232 1.743 2.533 5.6 3.401 8.619 1.938 3.02-1.462 4.051-4.7 2.309-7.232-1.742-2.532-5.6-3.4-8.618-1.938zm-45.06-24.07c-3.486 0-6.311 2.37-6.311 5.296 0 2.925 2.825 5.295 6.311 5.295 3.485 0 6.31-2.37 6.31-5.295 0-2.925-2.825-5.296-6.31-5.296" fill="#a1a7ae" stroke="#909296" stroke-width=".302" transform="matrix(.36634 0 0 .36634-9.559-31.13)"/><g><circle cx="-46.787" cy="-27.394" r="12" transform="matrix(1.04635 0 0 1.04635 122.33 15.345)" fill="url(#4)"/><path d="m74.874-11.219l2.7-2.7 2.1 2.1-6.3 6.3-6.3-6.3 2.1-2.1 2.7 2.7v-9.9h3v9.9" fill="#fff" fill-opacity=".854"/></g></g></svg>