<svg xmlns="http://www.w3.org/2000/svg" viewBox="0 0 48 48"><defs><linearGradient gradientTransform="matrix(.41708-.0003.00032.39759 21.425-105.4)" id="0" gradientUnits="userSpaceOnUse" x1=".967" y1="204.55" x2=".807" y2="147.64"><stop stop-color="#1f75d3"/><stop offset="1" stop-color="#2896ff"/></linearGradient><linearGradient gradientUnits="userSpaceOnUse" y2="-23.742" x2="0" y1=".293" id="1"><stop stop-color="#e7f0f4"/><stop offset="1" stop-color="#f4faff"/></linearGradient><linearGradient id="2" gradientUnits="userSpaceOnUse" x1="22.548" y1="267" x2="21.17" y2="148.12" gradientTransform="matrix(.41708-.0003.00032.39759 21.418-105.51)"><stop stop-color="#197cf1"/><stop offset="1" stop-color="#20bcfa"/></linearGradient></defs><g transform="matrix(.99999 0 0 .99999-8.371 45.882)" enable-background="new"><g fill-rule="evenodd"><path d="m11.551-45.78h19.92v23.04h-23.09v-20.07c0-3.191 3-2.971 3.169-2.971" fill="url(#0)"/><path d="m31.396-45.781v22.918h-23.02v20.07c0 3.191 3 2.971 3.168 2.971h19.92 19.807c.168 0 3.168.22 3.168-2.971v-19.947h.047v-20.07c0-3.191-3-2.973-3.168-2.973h-19.92" fill="url(#2)"/></g><path d="M42.917916-24.878359A13.456333 13.456333 0 0 0 29.462838 -11.421328 13.456333 13.456333 0 0 0 42.917916 2.03375 13.456333 13.456333 0 0 0 56.37495 -11.421328 13.456333 13.456333 0 0 0 42.917916 -24.878359m3.396 5.992c.05.003.108.025.154.039.237.068.438.271.506.51l2.451 8.928 1.285-1.742c.131-.194.33-.328.563-.334h.953.43.037c.028 0 .059.03.059.059v1.371c0 .028-.028.039-.057.039h-.039-.43-.582l-1.887 2.623c-.323.425-1.128.277-1.285-.234l-2.236-7.949-1.537 5.07c-.094.288-.398.484-.699.49h-1.07-.215-.525-.193-.545l-2.082 6.891c-.104.374-.545.621-.914.51-.237-.068-.438-.271-.506-.51l-2.471-8.945-1.264 1.742c-.131.194-.351.306-.584.313h-.934-.467-.059c-.028 0-.039-.011-.039-.039v-1.371c0-.028.011-.059.039-.059h.059.467.584l1.887-2.584c.323-.425 1.126-.277 1.283.234l2.219 7.949 1.555-5.09c.094-.288.38-.503.682-.51h1.09.193.525.215.525l2.1-6.852c.078-.28.339-.49.623-.529.047-.006.087-.02.137-.02z" fill="url(#1)"/><g fill="#fff"><g fill-opacity=".851"><path d="m23.22-11.308c-.016-1.646 1.343-2.436 1.403-2.475-.764-1.117-1.953-1.271-2.377-1.288-1.012-.103-1.975.596-2.489.596-.512 0-1.305-.581-2.145-.566-1.103.016-2.121.642-2.689 1.63-1.146 1.989-.294 4.936.824 6.55.546.79 1.197 1.677 2.052 1.645.823-.033 1.134-.533 2.13-.533.995 0 1.275.533 2.146.516.886-.016 1.447-.805 1.989-1.597.627-.916.885-1.803.9-1.849-.02-.009-1.727-.663-1.744-2.63m-1.637-4.831c.454-.55.76-1.314.676-2.076-.654.027-1.446.435-1.915.985-.421.487-.789 1.265-.69 2.01.73.057 1.474-.371 1.928-.92"/><path d="m37.32-35.01l-.004-3.901 4.375-.652v4.553h-4.371m5.1-4.669l5.832-.931v5.6h-5.832v-4.669m5.833 5.469l-.0001 5.6-5.832-.9v-4.7h5.833m-6.562 4.598l-4.371-.657v-3.941h4.372v4.598"/></g><path d="m20.266-39.961c-1.337.043 3.562 6.803-.211 6.371 3.147.872 3.867-3.189 3.225-5.176-.636-1.968-.967-.74-2.864-1.177-.057-.013-.107-.019-.149-.018m-3.749.942c-2.068-.003-1 .692-2 2.361-.957 1.594 7.558-1.261 5.931 2.306 1.801-2.723-1.838-4.664-3.927-4.666m1.455 3.051c-1.655-.004-3.32 1.877-3.786 3.303-.642 1.966.348 1.168 1.625 2.636 1.22 1.403 1.137-7.579 4.03-4.929-.572-.719-1.218-1.01-1.866-1.01m7.113.319c-1.117.107-5.193 5.287-5.875 1.925.143 3.262 4.229 2.692 5.92 1.467 1.675-1.214.404-1.149.234-3.089-.02-.232-.119-.319-.279-.304m-6.01 1.08c-3.058 1.144-1.253 4.854.434 6.084 1.672 1.218 1.218.03 3.01-.732 1.711-.727-6.857-3.423-3.444-5.352" fill-rule="evenodd" fill-opacity=".85"/></g></g></svg>