<?xml version="1.0" encoding="UTF-8" standalone="no"?>
<svg
   xmlns:dc="http://purl.org/dc/elements/1.1/"
   xmlns:cc="http://creativecommons.org/ns#"
   xmlns:rdf="http://www.w3.org/1999/02/22-rdf-syntax-ns#"
   xmlns:svg="http://www.w3.org/2000/svg"
   xmlns="http://www.w3.org/2000/svg"
   xmlns:sodipodi="http://sodipodi.sourceforge.net/DTD/sodipodi-0.dtd"
   xmlns:inkscape="http://www.inkscape.org/namespaces/inkscape"
   viewBox="0 0 48 48"
   id="svg2"
   version="1.1"
   inkscape:version="0.91 r13725"
   sodipodi:docname="vbox.svg">
  <metadata
     id="metadata43">
    <rdf:RDF>
      <cc:Work
         rdf:about="">
        <dc:format>image/svg+xml</dc:format>
        <dc:type
           rdf:resource="http://purl.org/dc/dcmitype/StillImage" />
      </cc:Work>
    </rdf:RDF>
  </metadata>
  <sodipodi:namedview
     pagecolor="#ffffff"
     bordercolor="#666666"
     borderopacity="1"
     objecttolerance="10"
     gridtolerance="10"
     guidetolerance="10"
     inkscape:pageopacity="0"
     inkscape:pageshadow="2"
     inkscape:window-width="1366"
     inkscape:window-height="687"
     id="namedview41"
     showgrid="false"
     inkscape:zoom="4.9166667"
     inkscape:cx="24"
     inkscape:cy="24"
     inkscape:window-x="0"
     inkscape:window-y="0"
     inkscape:window-maximized="1"
     inkscape:current-layer="g23" />
  <defs
     id="defs4">
    <linearGradient
       gradientTransform="matrix(.41708-.0003.00032.39759 21.425-105.4)"
       id="0"
       gradientUnits="userSpaceOnUse"
       x1=".967"
       y1="204.55"
       x2=".807"
       y2="147.64">
      <stop
         stop-color="#1f75d3"
         id="stop7" />
      <stop
         offset="1"
         stop-color="#2896ff"
         id="stop9" />
    </linearGradient>
    <linearGradient
       gradientUnits="userSpaceOnUse"
       y2="-23.742"
       x2="0"
       y1=".293"
       id="1">
      <stop
         stop-color="#e7f0f4"
         id="stop12" />
      <stop
         offset="1"
         stop-color="#f4faff"
         id="stop14" />
    </linearGradient>
    <linearGradient
       id="2"
       gradientUnits="userSpaceOnUse"
       x1="22.548"
       y1="267"
       x2="21.17"
       y2="148.12"
       gradientTransform="matrix(.41708-.0003.00032.39759 21.418-105.51)">
      <stop
         stop-color="#197cf1"
         id="stop17" />
      <stop
         offset="1"
         stop-color="#20bcfa"
         id="stop19" />
    </linearGradient>
    <linearGradient
       id="0-6"
       y1="542.8"
       x2="0"
       y2="507.8"
       gradientUnits="userSpaceOnUse"
       gradientTransform="matrix(0.63636,0,0,0.62142,-205.63,-319.99)">
      <stop
         id="stop4176"
         stop-color="#197cf1" />
      <stop
         id="stop4178"
         stop-color="#20bcfa"
         offset="1" />
    </linearGradient>
  </defs>
  <g
     transform="matrix(.99999 0 0 .99999-8.371 45.882)"
     enable-background="new"
     id="g21">
    <g
       fill-rule="evenodd"
       id="g23">
      <path
         d="m11.551-45.78h19.92v23.04h-23.09v-20.07c0-3.191 3-2.971 3.169-2.971"
         fill="url(#0)"
         id="path25" />
      <path
         d="m31.396-45.781v22.918h-23.02v20.07c0 3.191 3 2.971 3.168 2.971h19.92 19.807c.168 0 3.168.22 3.168-2.971v-19.947h.047v-20.07c0-3.191-3-2.973-3.168-2.973h-19.92"
         fill="url(#2)"
         id="path27" />
    </g>
    <path
       d="M42.917916-24.878359A13.456333 13.456333 0 0 0 29.462838 -11.421328 13.456333 13.456333 0 0 0 42.917916 2.03375 13.456333 13.456333 0 0 0 56.37495 -11.421328 13.456333 13.456333 0 0 0 42.917916 -24.878359m3.396 5.992c.05.003.108.025.154.039.237.068.438.271.506.51l2.451 8.928 1.285-1.742c.131-.194.33-.328.563-.334h.953.43.037c.028 0 .059.03.059.059v1.371c0 .028-.028.039-.057.039h-.039-.43-.582l-1.887 2.623c-.323.425-1.128.277-1.285-.234l-2.236-7.949-1.537 5.07c-.094.288-.398.484-.699.49h-1.07-.215-.525-.193-.545l-2.082 6.891c-.104.374-.545.621-.914.51-.237-.068-.438-.271-.506-.51l-2.471-8.945-1.264 1.742c-.131.194-.351.306-.584.313h-.934-.467-.059c-.028 0-.039-.011-.039-.039v-1.371c0-.028.011-.059.039-.059h.059.467.584l1.887-2.584c.323-.425 1.126-.277 1.283.234l2.219 7.949 1.555-5.09c.094-.288.38-.503.682-.51h1.09.193.525.215.525l2.1-6.852c.078-.28.339-.49.623-.529.047-.006.087-.02.137-.02z"
       fill="url(#1)"
       id="path29" />
    <g
       fill="#fff"
       id="g31">
      <g
         fill-opacity=".851"
         id="g33">
        <path
           d="m23.22-11.308c-.016-1.646 1.343-2.436 1.403-2.475-.764-1.117-1.953-1.271-2.377-1.288-1.012-.103-1.975.596-2.489.596-.512 0-1.305-.581-2.145-.566-1.103.016-2.121.642-2.689 1.63-1.146 1.989-.294 4.936.824 6.55.546.79 1.197 1.677 2.052 1.645.823-.033 1.134-.533 2.13-.533.995 0 1.275.533 2.146.516.886-.016 1.447-.805 1.989-1.597.627-.916.885-1.803.9-1.849-.02-.009-1.727-.663-1.744-2.63m-1.637-4.831c.454-.55.76-1.314.676-2.076-.654.027-1.446.435-1.915.985-.421.487-.789 1.265-.69 2.01.73.057 1.474-.371 1.928-.92"
           id="path35" />
        <path
           d="m37.32-35.01l-.004-3.901 4.375-.652v4.553h-4.371m5.1-4.669l5.832-.931v5.6h-5.832v-4.669m5.833 5.469l-.0001 5.6-5.832-.9v-4.7h5.833m-6.562 4.598l-4.371-.657v-3.941h4.372v4.598"
           id="path37" />
      </g>
    </g>
  </g>
  <g
     id="g4180"
     transform="matrix(1.0128555,0,0,1.0128555,-74.646324,7.0983665)"
     style="enable-background:new">
    <path
       id="path4184"
       d="m 86.115031,-1.9530322 -2.133,0.205 0,8.787 2.11,-0.319 0,-3.746 2.839,4.157 2.224,-0.706 -2.908,-3.997 2.931,-3.769 -2.27,-0.52 -2.817,3.769 0.023,-3.86 m -4.836,2.142 c -0.024,0.002 -0.05,0.009 -0.068,0.027 l -0.839,0.839 c -0.035,0.035 -0.04,0.089 -0.013,0.132 l 0.98,1.618 c -0.174,0.292 -0.315,0.606 -0.415,0.939 l -1.8,0.374 c -0.05,0.011 -0.087,0.058 -0.087,0.109 l 0,1.185 c 0,0.05 0.038,0.093 0.087,0.105 l 1.746,0.424 c 0.093,0.385 0.238,0.754 0.428,1.089 l -1.012,1.54 c -0.028,0.043 -0.023,0.1 0.013,0.137 l 0.839,0.839 c 0.035,0.035 0.089,0.04 0.132,0.013 l 1.586,-0.962 c 0.311,0.18 0.648,0.323 1,0.419 l 0.369,1.7780002 c 0.011,0.05 0.054,0.087 0.105,0.087 l 1.185,0 c 0.05,0 0.093,-0.034 0.105,-0.082 l 0.438,-1.7870002 c 0.366,-0.099 0.711,-0.245 1.03,-0.433 l 1.563,1.025 c 0.043,0.028 0.1,0.023 0.137,-0.013 l 0.834,-0.839 c 0.036,-0.035 0.044,-0.089 0.018,-0.132 l -0.57,-0.939 -0.187,0.059 c -0.027,0.009 -0.057,-0.004 -0.073,-0.027 0,0 -0.36,-0.529 -0.829,-1.217 -0.562,1.099 -1.707,1.85 -3.03,1.85 -1.875,0 -3.395,-1.521 -3.395,-3.395 0,-1.379 0.825,-2.563 2.01,-3.095 l 0,-0.875 c -0.215,0.075 -0.423,0.166 -0.62,0.273 0,0 0,-0.004 0,-0.005 l -1.6,-1.048 c -0.022,-0.015 -0.044,-0.016 -0.068,-0.013"
       inkscape:connector-curvature="0"
       style="fill:#ffffff;fill-opacity:0.85" />
  </g>
</svg>
