<svg xmlns="http://www.w3.org/2000/svg" viewBox="0 0 48 48"><defs><linearGradient gradientTransform="matrix(.41708-.0003.00032.39759 21.425-105.4)" id="0" gradientUnits="userSpaceOnUse" x1=".967" y1="204.55" x2=".807" y2="147.64"><stop stop-color="#1f75d3"/><stop offset="1" stop-color="#2896ff"/></linearGradient><linearGradient gradientUnits="userSpaceOnUse" y2="-23.742" x2="0" y1=".293" id="1"><stop stop-color="#e7f0f4"/><stop offset="1" stop-color="#f4faff"/></linearGradient><linearGradient id="2" gradientUnits="userSpaceOnUse" x1="22.548" y1="267" x2="21.17" y2="148.12" gradientTransform="matrix(.41708-.0003.00032.39759 21.418-105.51)"><stop stop-color="#197cf1"/><stop offset="1" stop-color="#20bcfa"/></linearGradient></defs><g enable-background="new"><g transform="matrix(.99999 0 0 .99999-8.371 45.882)"><g fill-rule="evenodd"><path d="m11.551-45.78h19.92v23.04h-23.09v-20.07c0-3.191 3-2.971 3.169-2.971" fill="url(#0)"/><path d="m31.396-45.781v22.918h-23.02v20.07c0 3.191 3 2.971 3.168 2.971h19.92 19.807c.168 0 3.168.22 3.168-2.971v-19.947h.047v-20.07c0-3.191-3-2.973-3.168-2.973h-19.92" fill="url(#2)"/></g><path d="M42.917916-24.878359A13.456333 13.456333 0 0 0 29.462838 -11.421328 13.456333 13.456333 0 0 0 42.917916 2.03375 13.456333 13.456333 0 0 0 56.37495 -11.421328 13.456333 13.456333 0 0 0 42.917916 -24.878359m3.396 5.992c.05.003.108.025.154.039.237.068.438.271.506.51l2.451 8.928 1.285-1.742c.131-.194.33-.328.563-.334h.953.43.037c.028 0 .059.03.059.059v1.371c0 .028-.028.039-.057.039h-.039-.43-.582l-1.887 2.623c-.323.425-1.128.277-1.285-.234l-2.236-7.949-1.537 5.07c-.094.288-.398.484-.699.49h-1.07-.215-.525-.193-.545l-2.082 6.891c-.104.374-.545.621-.914.51-.237-.068-.438-.271-.506-.51l-2.471-8.945-1.264 1.742c-.131.194-.351.306-.584.313h-.934-.467-.059c-.028 0-.039-.011-.039-.039v-1.371c0-.028.011-.059.039-.059h.059.467.584l1.887-2.584c.323-.425 1.126-.277 1.283.234l2.219 7.949 1.555-5.09c.094-.288.38-.503.682-.51h1.09.193.525.215.525l2.1-6.852c.078-.28.339-.49.623-.529.047-.006.087-.02.137-.02z" fill="url(#1)"/><g fill-opacity=".851" fill="#fff"><path d="m23.22-11.308c-.016-1.646 1.343-2.436 1.403-2.475-.764-1.117-1.953-1.271-2.377-1.288-1.012-.103-1.975.596-2.489.596-.512 0-1.305-.581-2.145-.566-1.103.016-2.121.642-2.689 1.63-1.146 1.989-.294 4.936.824 6.55.546.79 1.197 1.677 2.052 1.645.823-.033 1.134-.533 2.13-.533.995 0 1.275.533 2.146.516.886-.016 1.447-.805 1.989-1.597.627-.916.885-1.803.9-1.849-.02-.009-1.727-.663-1.744-2.63m-1.637-4.831c.454-.55.76-1.314.676-2.076-.654.027-1.446.435-1.915.985-.421.487-.789 1.265-.69 2.01.73.057 1.474-.371 1.928-.92"/><path d="m37.32-35.01l-.004-3.901 4.375-.652v4.553h-4.371m5.1-4.669l5.832-.931v5.6h-5.832v-4.669m5.833 5.469v5.6l-5.832-.9v-4.7h5.833m-6.562 4.598l-4.371-.657v-3.941h4.372v4.598"/></g></g><path d="m86.12-1.953l-2.133.205v8.787l2.11-.319v-3.746l2.839 4.157 2.224-.706-2.908-3.997 2.931-3.769-2.27-.52-2.817 3.769.023-3.86m-4.836 2.142c-.024.002-.05.009-.068.027l-.839.839c-.035.035-.04.089-.013.132l.98 1.618c-.174.292-.315.606-.415.939l-1.8.374c-.05.011-.087.058-.087.109v1.185c0 .05.038.093.087.105l1.746.424c.093.385.238.754.428 1.089l-1.012 1.54c-.028.043-.023.1.013.137l.839.839c.035.035.089.04.132.013l1.586-.962c.311.18.648.323 1 .419l.369 1.778c.011.05.054.087.105.087h1.185c.05 0 .093-.034.105-.082l.438-1.787c.366-.099.711-.245 1.03-.433l1.563 1.025c.043.028.1.023.137-.013l.834-.839c.036-.035.044-.089.018-.132l-.57-.939-.187.059c-.027.009-.057-.004-.073-.027 0 0-.36-.529-.829-1.217-.562 1.099-1.707 1.85-3.03 1.85-1.875 0-3.395-1.521-3.395-3.395 0-1.379.825-2.563 2.01-3.095v-.875c-.215.075-.423.166-.62.273 0 0 0-.004 0-.005l-1.6-1.048c-.022-.015-.044-.016-.068-.013" fill="#fff" fill-opacity=".85" transform="matrix(1.01286 0 0 1.01286-74.65 7.098)"/></g></svg>