<svg xmlns="http://www.w3.org/2000/svg" viewBox="0 0 48 48"><defs><linearGradient gradientUnits="userSpaceOnUse" y2="-29.389" x2="-127.3" y1="69.3" x1="-126.09" id="0"><stop stop-color="#197cf1"/><stop offset="1" stop-color="#20bcfa"/></linearGradient><linearGradient id="1" y1="923.15" x2="0" y2="859.58" gradientUnits="userSpaceOnUse"><stop stop-color="#2e3436"/><stop offset="1" stop-color="#555753"/></linearGradient></defs><g transform="matrix(.4638 0 0 .4638 19.729-51.858)"><g transform="translate(135.91 142.57)"><rect y="-30.751" x="-176.95" height="99.6" width="96.27" fill="url(#0)" fill-rule="evenodd" rx="6.187"/><g transform="matrix(.78937 0 0 .78937-225.96-659.6)"><path d="m85.61 858.08l-.026-25.794 28.927-4.31v30.1h-28.901m33.722-30.872l38.56-6.156v37.03h-38.56v-30.872m38.569 36.16l-.009 37.03-38.56-5.952v-31.08h38.569m-43.39 30.403l-28.904-4.347-.002-26.06h28.905v30.403" fill="#eff9fe"/><circle cy="892.17" cx="153.76" r="35.59" fill="url(#1)"/></g></g><path d="m49.907 182.33c0-.554-.419-.899-1.259-1.034l-11.281-1.64-5.056-10.225c-.284-.614-.652-.921-1.101-.921-.449 0-.816.307-1.101.921l-5.057 10.225-11.281 1.64c-.839.135-1.258.479-1.258 1.034 0 .315.187.674.562 1.079l8.18 7.955-1.933 11.236c-.03.21-.045.36-.045.45 0 .315.079.58.236.798.157.217.393.326.708.326.27 0 .569-.089.899-.269l10.09-5.304 10.09 5.304c.315.18.615.269.899.269.3 0 .529-.108.686-.326.157-.217.236-.483.236-.798 0-.195-.008-.345-.023-.45l-1.933-11.236 8.158-7.955c.39-.389.584-.749.584-1.079" fill="#fefefe" fill-opacity=".855" stroke-width="1.317"/></g></svg>