<svg xmlns="http://www.w3.org/2000/svg" viewBox="0 0 48 48"><defs><linearGradient gradientUnits="userSpaceOnUse" y2="-29.389" x2="-127.3" y1="69.3" x1="-126.09" id="0"><stop stop-color="#197cf1"/><stop offset="1" stop-color="#20bcfa"/></linearGradient><linearGradient id="1" y1="923.15" x2="0" y2="859.58" gradientUnits="userSpaceOnUse"><stop stop-color="#2e3436"/><stop offset="1" stop-color="#555753"/></linearGradient></defs><g transform="matrix(.4638 0 0 .4638 19.729-51.858)"><g transform="translate(135.91 142.57)"><rect y="-30.751" x="-176.95" height="99.6" width="96.27" fill="url(#0)" fill-rule="evenodd" rx="6.187"/><g transform="matrix(.78937 0 0 .78937-225.96-659.6)"><path d="m85.61 858.08l-.026-25.794 28.927-4.31v30.1h-28.901m33.722-30.872l38.56-6.156v37.03h-38.56v-30.872m38.569 36.16l-.009 37.03-38.56-5.952v-31.08h38.569m-43.39 30.403l-28.904-4.347-.002-26.06h28.905v30.403" fill="#eff9fe"/><circle cy="892.17" cx="153.76" r="35.59" fill="url(#1)"/></g></g><path d="m23.787 173.99c-2.02-3.068-7.144.307-4.383 3.594 2.673 3.112 5.347 6.486 8.108 9.949l-8.809 11.176c-2.498 2.98 2.454 6.574 4.69 3.375l7.933-10.562 8.06 10.343c2.367 3.243 7.188.088 4.777-3.199l-8.941-11.132c2.63-3.462 5.391-6.837 8.02-9.949 2.498-2.849-1.928-6.662-4.207-3.682l-7.626 9.554-7.626-9.467" fill="#eff8fe"/></g></svg>