<svg xmlns="http://www.w3.org/2000/svg" viewBox="0 0 48 48"><defs><linearGradient id="0" x1="391" y1="546.81" x2="390.2" y2="510.45" gradientUnits="userSpaceOnUse"><stop stop-color="#23262c"/><stop offset="1" stop-color="#525b63"/></linearGradient><linearGradient id="1" x1="341.06" y1="553.67" x2="340.28" y2="510.18" gradientUnits="userSpaceOnUse"><stop stop-color="#2e3e46"/><stop offset="1" stop-color="#47606a"/></linearGradient><linearGradient id="2" x1="22.515" y1="31.786" x2="22.22" y2="11.876" gradientUnits="userSpaceOnUse"><stop stop-color="#ff9300"/><stop offset="1" stop-color="#ffd702"/></linearGradient></defs><g transform="matrix(1.02338 0 0 1.02338-.513-.648)"><path d="m358.77 517c-4.823-3.925-11.228-6.087-18.03-6.087-6.806 0-13.21 2.162-18.03 6.087-4.865 3.96-7.545 9.236-7.545 14.859 0 5.366 2.442 10.417 6.895 14.309-.08.181-.144.371-.185.57l-1.463 7.196c-.174.855.06 1.365.286 1.643.262.32.65.497 1.093.497.335 0 .694-.099 1.069-.293l8.509-4.421c2.946.948 6.113 1.446 9.373 1.446 6.806 0 13.21-2.162 18.03-6.087 4.865-3.959 7.545-9.236 7.545-14.859 0-5.623-2.679-10.9-7.545-14.859" fill="url(#1)" transform="matrix(.91687 0 0 .91687-288.37-465.01)"/><path d="m14.453 15.716l2.591-2.591 6.909 6.909 6.909-6.909 2.591 2.591-6.909 6.909 6.909 6.909-2.591 2.591-6.909-6.909-6.909 6.909-2.591-2.591 6.909-6.909" fill="url(#2)"/></g></svg>