<svg xmlns="http://www.w3.org/2000/svg" viewBox="0 0 48 48"><defs><linearGradient id="0" x1="63.69" y1="22.344" x2="63.1" y2="-25.22" gradientUnits="userSpaceOnUse"><stop stop-color="#e3203a"/><stop offset="1" stop-color="#fd5420"/></linearGradient></defs><g transform="matrix(.99999 0 0 .99999-38.37 25.882)" enable-background="new"><rect y="-25.875" x="39.18" height="48" width="46.4" fill="url(#0)" fill-rule="evenodd" rx="2.982" stroke-width="1"/><path d="m75.17-11.12l-8.44 1.389c.122 5.249-5.474 8.896-10.724-.992l-9.929 1.39c1.545 5.347 7.094 6.01 10.795 8.817-1.85 2.638-10.256 1.049-10.03 9.28l8.44-1.39c-.122-5.249 9.618-9.668 14.867.22l9.929-1.39c-1.549-5.36-7.445-5.87-11.145-8.699 1.834-3.831 7.901-.386 6.238-8.626" fill="#fcdfe0"/></g></svg>