<svg xmlns="http://www.w3.org/2000/svg" viewBox="0 0 48 48"><defs><linearGradient gradientTransform="matrix(.90419 0 0 .90537-498.98-767.64)" gradientUnits="userSpaceOnUse" y2="828.21" x2="0" y1="860.43" id="0"><stop stop-color="#d5dbff"/><stop offset="1" stop-color="#f9ffff"/></linearGradient><linearGradient id="1" gradientUnits="userSpaceOnUse" x1="66.06" y1="32.83" x2="66.38" y2="19.07"><stop stop-color="#016ed4"/><stop offset="1" stop-color="#00b1ff"/></linearGradient><linearGradient id="2" gradientUnits="userSpaceOnUse" x1="66.06" y1="32.83" x2="66.38" y2="19.07"><stop stop-color="#fe3f3c"/><stop offset="1" stop-color="#ff8729"/></linearGradient></defs><g transform="matrix(1.71427 0 0 1.71427-69.21 13.512)" enable-background="new"><ellipse ry="13.321" rx="13.312" cy="6.125" cx="54.37" fill="url(#0)" stroke="url(#0)" stroke-width="1.358"/><g transform="translate(-11.667-20.417)"><path d="m66.04 21.21c-3.603 0-6.708 2.124-8.134 5.188-.044.093-.044.202 0 .296 1.426 3.065 4.531 5.188 8.134 5.188 3.603 0 6.708-2.124 8.134-5.188.044-.093.044-.202 0-.296-1.426-3.065-4.531-5.188-8.134-5.188m0 9.02c-2.034 0-3.681-1.649-3.681-3.681 0-2.034 1.649-3.681 3.681-3.681 2.034 0 3.681 1.649 3.681 3.681 0 2.033-1.649 3.681-3.681 3.681" fill="url(#2)"/><circle r="2.357" cy="26.541" cx="66.04" fill="url(#1)"/></g></g></svg>