<svg xmlns="http://www.w3.org/2000/svg" viewBox="0 0 48 48"><defs><linearGradient id="0" x1="29.652" y1="6.598" x2="26.28" y2="-32.11" gradientUnits="userSpaceOnUse"><stop stop-color="#016ed4"/><stop offset="1" stop-color="#00b1ff"/></linearGradient><linearGradient gradientTransform="matrix(2.65715 0 0 2.66061-1647.51-2290.95)" gradientUnits="userSpaceOnUse" y2="844.95" x2="0" y1="867.5" id="1"><stop stop-color="#2a2c2f"/><stop offset="1" stop-color="#4d5153"/></linearGradient><linearGradient id="2" x1="27.967" y1="2.33" x2="27.29" y2="-20.21" gradientUnits="userSpaceOnUse"><stop stop-color="#ff9300"/><stop offset="1" stop-color="#ffd702"/></linearGradient></defs><g transform="matrix(.99999 0 0 .99999-3.361 35.882)" enable-background="new"><ellipse cx="27.36" cy="-11.875" rx="22.821" ry="22.836" fill="url(#1)" stroke="url(#1)" stroke-width="2.328"/><path d="m31.469-21.432c-5.15 1.373-9.111 5.976-13.674 9.163 1.945-.796 4.389-2.046 5.386-2.133l-3.217 3.568 2.483-1.084c-1.11 3.3-2.426 6.382-5.629 7.589l10.56 8.123 11.06-8.682c-4.319.118-8.157-.389-8.568-5.35-.105-.594.048-4.722 5.981-6.609-.599-.411-2.605-.135-4.02-.14-.062-.56.284-2.981 4.861-3.252-1.149-1.181-2.596-1.272-4.651-.63-.218-.21-.346-.188-.56-.56" fill="url(#2)"/><path d="m20.314-27.871c-5.74 2.662-9.723 8.467-9.723 15.213 0 9.267 7.515 16.782 16.787 16.782 9.267 0 16.782-7.515 16.782-16.782 0-6.662-3.887-12.411-9.512-15.11l-.175.175c4.442 2.492 7.453 7.235 7.453 12.691 0 7.327-5.408 13.36-12.45 14.374l-2.098 3.536-2.098-3.536c-7.04-1.014-12.45-7.05-12.45-14.374 0-5.513 3.073-10.295 7.589-12.765-.03-.066-.074-.14-.105-.21" fill="url(#0)"/></g></svg>