<svg xmlns="http://www.w3.org/2000/svg" viewBox="0 0 48 48"><defs><linearGradient gradientTransform="matrix(.90417 0 0 .90535-551.46-761.78)" id="0" y1="870.09" x2="0" y2="831.44" gradientUnits="userSpaceOnUse"><stop stop-color="#2e3e46"/><stop offset="1" stop-color="#47606a"/></linearGradient><linearGradient id="1" x1="337.81" y1="551.87" x2="338" y2="547.47" gradientUnits="userSpaceOnUse"><stop stop-color="#ff9300"/><stop offset="1" stop-color="#ffd702"/></linearGradient></defs><g transform="matrix(1.71427 0 0 1.71427-69.21 13.512)" enable-background="new"><ellipse cy="9.04" cx="28.13" rx="13.312" ry="13.321" fill="url(#0)" stroke="url(#0)" stroke-width="1.358" transform="translate(26.25-2.916)"/><path d="m336.57 547.48c-.345-.525-1.223.053-.75.615.457.533.915 1.11 1.387 1.702l-1.507 1.913c-.428.51.42 1.125.803.577l1.358-1.808 1.38 1.77c.405.555 1.23.015.817-.548l-1.53-1.905c.45-.592.923-1.17 1.373-1.702.428-.487-.33-1.14-.72-.63l-1.305 1.635-1.305-1.62" fill="url(#1)" transform="matrix(2.99013 0 0 2.99013-955.93-1638.1)"/></g></svg>