<svg xmlns="http://www.w3.org/2000/svg" viewBox="0 0 48 48"><defs><linearGradient id="0" gradientUnits="userSpaceOnUse" y1="18.563" x2="0" y2="-27.722"><stop stop-color="#4da70e"/><stop offset="1" stop-color="#9ded46"/></linearGradient></defs><g transform="matrix(.99999 0 0 .99999-53.901 28.312)" enable-background="new"><circle r="24" cy="-4.307" cx="77.906" fill="url(#0)"/><path d="m81.23-1.389c-.151-.049-1.103-.478-.508-2.287h-.008c1.551-1.597 2.736-4.168 2.736-6.699 0-3.891-2.588-5.931-5.595-5.931-3.01 0-5.583 2.039-5.583 5.931 0 2.541 1.179 5.122 2.739 6.716.608 1.596-.479 2.188-.707 2.27-2.12.686-7.888 4.104-7.797 9.08h22.788c.102-4.756-4.461-7.844-8.07-9.08" fill="#fff" fill-opacity=".847" stroke-width="1.317"/></g></svg>