<svg xmlns="http://www.w3.org/2000/svg" viewBox="0 0 48 48"><defs><linearGradient gradientTransform="matrix(1.16158 0 0 1.13429-46.652-84.969)" gradientUnits="userSpaceOnUse" y2="507.8" x2="0" y1="542.8" id="0"><stop stop-color="#2e3436"/><stop offset="1" stop-color="#555753"/></linearGradient></defs><g transform="matrix(.93916 0 0 .93916-377.76-455)"><rect y="491.02" x="402.38" height="38.566" width="51.11" fill="url(#0)" rx="1.815" stroke-width="1.104"/><g transform="matrix(.91967 0 0 .91967 106.14 17.994)" fill="#76e049"><circle cx="373.37" cy="518.74" r="2.25"/><circle cx="367.84" cy="518.78" r="2.25"/><circle cx="362.41" cy="518.84" r="2.25"/></g><g transform="matrix(.11489 0 0 .10931 407.66 498.26)" fill="#76e049"><path d="m133.52 78.1c-.488-.489-1.113-.733-1.873-.733h-78.22c-.76 0-1.385.244-1.874.733-.488.489-.732 1.113-.732 1.874v5.215c0 .76.244 1.385.732 1.873.489.488 1.114.733 1.874.733h78.22c.76 0 1.385-.245 1.873-.733.488-.488.732-1.113.732-1.873v-5.215c.0001-.761-.243-1.385-.732-1.874"/><path d="m8.38 1.022c-.543-.543-1.168-.815-1.874-.815-.706 0-1.33.272-1.873.815l-4.074 4.074c-.543.543-.814 1.167-.814 1.874 0 .707.271 1.331.814 1.874l32.02 32.02-32.02 32.02c-.543.543-.814 1.168-.814 1.873 0 .707.271 1.331.814 1.874l4.074 4.073c.543.544 1.167.814 1.873.814.706 0 1.331-.271 1.874-.814l37.967-37.966c.543-.543.814-1.169.814-1.875 0-.706-.271-1.331-.814-1.874l-37.967-37.966"/></g></g></svg>