<svg xmlns="http://www.w3.org/2000/svg" viewBox="0 0 64 64"><defs><linearGradient id="0" x1="754.93" y1="215.56" x2="754.3" y2="184.77" gradientUnits="userSpaceOnUse"><stop stop-color="#49b903"/><stop offset="1" stop-color="#8cff07"/></linearGradient><linearGradient id="1" x1="754.23" y1="205.71" x2="754.62" y2="151.9" gradientUnits="userSpaceOnUse"><stop stop-color="#141414"/><stop offset="1" stop-color="#2d2d2f"/></linearGradient></defs><g transform="matrix(.92857 0 0 .92857-668.61-134.36)"><path d="m734.4 205.73c0 .793.521 1.436 1.314 1.436h37.33c.793 0 1.558-.643 1.558-1.436v-18.667h-40.21v18.667" fill="url(#0)"/><path d="m774.6 187.06v-28.718c0-.793-.78-1.436-1.572-1.436h-9.915v-4.308c0-.793-.78-1.436-1.572-1.436h-14.359c-.793 0-1.299.643-1.299 1.436v4.308h-10.188c-.793 0-1.299.643-1.299 1.436v28.718h40.21" fill="url(#1)"/></g></svg>