<svg xmlns="http://www.w3.org/2000/svg" viewBox="0 0 64 64"><defs><linearGradient id="0" x1="760.91" y1="212.68" x2="760.86" y2="185.26" gradientUnits="userSpaceOnUse"><stop stop-color="#49b903"/><stop offset="1" stop-color="#8cff07"/></linearGradient><linearGradient id="1" x1="761.2" y1="212.68" x2="761.15" y2="159.6" gradientUnits="userSpaceOnUse"><stop stop-color="#141414"/><stop offset="1" stop-color="#2d2d2f"/></linearGradient></defs><g transform="matrix(.92857 0 0 .92857-674.27-141.01)"><path d="m740.49 212.88c0 .793.521 1.436 1.314 1.436h37.33c.793 0 1.558-.643 1.558-1.436v-28.678h-40.21v28.678" fill="url(#0)"/><path d="m780.69 184.21v-18.707c0-.793-.78-1.436-1.572-1.436h-9.915v-4.308c0-.793-.78-1.436-1.572-1.436h-14.359c-.793 0-1.299.643-1.299 1.436v4.308h-10.188c-.793 0-1.299.643-1.299 1.436v18.707h40.21" fill="url(#1)"/></g></svg>