<svg xmlns="http://www.w3.org/2000/svg" viewBox="0 0 64 64"><defs><linearGradient id="0" x1="763.02" y1="222.4" x2="763.27" y2="182.15" gradientUnits="userSpaceOnUse"><stop stop-color="#49b903"/><stop offset="1" stop-color="#8cff07"/></linearGradient><linearGradient id="1" x1="762.44" y1="224.15" x2="762.4" y2="166.11" gradientUnits="userSpaceOnUse"><stop stop-color="#141414"/><stop offset="1" stop-color="#2d2d2f"/></linearGradient></defs><g transform="matrix(.92857 0 0 .92857-675.96-148.22)"><path d="m782.52 220.65c0 .793-.765 1.436-1.558 1.436h-37.33c-.793 0-1.314-.643-1.314-1.436v-38.769h40.21v38.769" fill="url(#0)"/><path d="m782.52 181.88v-8.615c0-.793-.78-1.436-1.572-1.436h-9.915v-4.308c0-.793-.78-1.436-1.572-1.436h-14.359c-.793 0-1.299.643-1.299 1.436v4.308h-10.188c-.793 0-1.299.643-1.299 1.436v8.615h40.21" fill="url(#1)"/></g></svg>