<svg xmlns="http://www.w3.org/2000/svg" viewBox="0 0 64 64"><defs><linearGradient id="0" gradientUnits="userSpaceOnUse" y1="222" x2="0" y2="168"><stop stop-color="#197ff1"/><stop offset="1" stop-color="#21c6fb"/></linearGradient></defs><g transform="matrix(.92857 0 0 .92857-691.94-149.37)"><circle cx="779.63" cy="195.32" r="28" fill="url(#0)"/><g fill="#fff" fill-rule="evenodd" fill-opacity=".855"><path d="m779.62639 179.16433a3.589743 3.589743 0 0 1 3.58975 3.58975 3.589743 3.589743 0 0 1 -3.58975 3.58974 3.589743 3.589743 0 0 1 -3.58974 -3.58974 3.589743 3.589743 0 0 1 3.58974 -3.58975"/><path d="m779.24 189.93h.764c1.278 0 2.314 1.028 2.314 2.307v16.925c0 1.278-1.035 2.307-2.314 2.307h-.764c-1.278 0-2.307-1.028-2.307-2.307v-16.925c0-1.278 1.028-2.307 2.307-2.307"/></g></g></svg>