<svg xmlns="http://www.w3.org/2000/svg" viewBox="0 0 64 64"><defs><linearGradient id="0" x1="-74.929" y1="52.2" x2="-75.26" y2="2.356" gradientUnits="userSpaceOnUse" gradientTransform="matrix(1.31168 0 0 1.25592 73.6-13.266)"><stop stop-color="#259ee1"/><stop offset="1" stop-color="#19b4fd"/></linearGradient></defs><g transform="matrix(.81955 0 0 .81955 52.757 10.945)" fill="#fff"><rect width="53.688" height="73.859" x="-52.17" y="-11.239" fill="url(#0)" rx="3.05" stroke-width="1.22"/><path d="m74.22656 31.31836a11 11 0 0 0 -11 11 11 11 0 0 0 11 11 11 11 0 0 0 11 -11 11 11 0 0 0 -11 -11m-.166 4.529c2.618 0 4.739 2.123 4.74 4.74 0 .197-.017.391-.041.582-.396 3.703-4.324 7.979-4.324 7.979-.071.077-.139.129-.205.164l-.004.002-.133.041-.133-.041-.002-.002c-.066-.035-.136-.085-.207-.164 0 0-3.986-4.268-4.391-7.971-.025-.194-.041-.389-.041-.59 0-2.618 2.122-4.74 4.74-4.74m0 1.691c-1.681 0-3.049 1.368-3.049 3.049 0 1.681 1.368 3.049 3.049 3.049 1.681 0 3.049-1.368 3.049-3.049 0-1.681-1.368-3.049-3.049-3.049" transform="matrix(1.33111 0 0 1.33111-124.13-30.639)" fill="#fff" fill-opacity=".85"/></g></svg>