<svg xmlns="http://www.w3.org/2000/svg" viewBox="0 0 64 64"><defs><linearGradient id="0" x1="-74.929" y1="52.2" x2="-75.26" y2="2.356" gradientUnits="userSpaceOnUse" gradientTransform="matrix(1.07499 0 0 1.02929 56.689.117)"><stop stop-color="#9154ae"/><stop offset="1" stop-color="#ba8bcf"/></linearGradient></defs><g transform="translate(56.39.089)"><rect width="44" height="60.27" x="-46.39" y="1.779" fill="url(#0)" rx="2.5"/><path d="m-17.747 39.36c-3.623-2.833-1.066-14.486-1.066-14.486 0 0 3.966 0 4.428 0 .462 0 2.274-.291 2.274-2.46 0-2.669-2.214-2.505-2.214-2.505 0 0-12.137 0-16.305 0-2.676 0-5.092 3.064-6.479 5.256-.738 1.171-.321 1.499.947.947 4.444-1.946 5.696-1.245 5.696-1.245.313 1.499.417 8.261-.723 10.93-1.156 2.513-3.288 5.696-.157 7.567 2.445 1.387 5.01-1.461 4.756-6.308-.119-2.565-.321-12.182-.321-12.182h4.086c-.127 1.499-.82 9.148-.097 13.681.753 7.567 8.976 6.099 10.512 1.812.38-1.185.291-2.095.007-2.781-.522-1.275-1.394-1.342-1.297-.745.06.38.022.753-.037 1.089-.179 1.036-2.296 2.661-4.01 1.432" opacity=".9" fill="#41274d"/></g></svg>