<svg xmlns="http://www.w3.org/2000/svg" viewBox="0 0 64 64"><defs><linearGradient id="0" x1="-74.929" y1="52.2" x2="-75.26" y2="2.356" gradientUnits="userSpaceOnUse" gradientTransform="matrix(1.07499 0 0 1.02929 56.689.25)"><stop stop-color="#cd3336"/><stop offset="1" stop-color="#ed7b66"/></linearGradient></defs><g transform="translate(56.39-.177)"><rect width="44" height="60.53" x="-46.39" y="1.911" fill="url(#0)" rx="2.5" stroke-width="1"/><path d="m-22.606 19.677l-15.179 2.679v19.643l15.179 2.679v-25m2.93 3.571c-.286.003-.576.017-.865.028l-1.172.028v2.26 2.26l.446.056c.89.112 2.984.078 4.381-.056 3.758-.36 6.126-1.393 5.72-2.483-.456-1.223-4.226-2.129-8.51-2.093m8.677 3.069l-.335.391c-.441.53-1.659 1.095-3.153 1.423-.923.203-1.92.28-4.213.335l-3.01.056v1.758 1.73l2.93-.084c2.321-.055 3.226-.134 4.269-.363 1.505-.329 2.678-.802 3.125-1.283l.307-.335.056-1.814.028-1.814m-19.894 1.562h.893c.744 0 .921.035.977.223.037.125.557 2.049 1.172 4.269.615 2.22 1.141 4.096 1.172 4.185.041.119-.155.175-.698.167-.41-.006-.808-.049-.893-.084-.084-.034-.237-.5-.363-1.032l-.251-.949h-1.172-1.2l-.195.865-.167.893-.837.028-.809.028.056-.223c.039-.129.498-1.765 1-3.627.506-1.862 1.01-3.67 1.116-4.046l.195-.698m.837 2.01c-.037.001-.208.575-.391 1.311-.195.785-.381 1.521-.419 1.646-.06.201.041.251.781.251h.837l-.391-1.535c-.21-.841-.398-1.605-.419-1.674m19.06.558l-.391.419c-1.019 1.103-4.306 1.798-8.343 1.758l-1.897-.028-.056 1.674-.028 1.674.223.084c.488.147 5.143-.04 6.306-.251 1.623-.294 3.111-.796 3.655-1.256l.446-.391.056-1.842.028-1.842m0 4.02l-.391.474c-.951 1.096-3.874 1.742-7.98 1.758h-2.344v1.702 1.702l.698.056c1.413.1 1.927.078 3.655-.056 2.924-.226 5.156-.82 5.887-1.59l.391-.419.056-1.814.028-1.814" fill="#fff" fill-opacity=".85" color="#000"/></g></svg>