<svg xmlns="http://www.w3.org/2000/svg" viewBox="0 0 64 64"><defs><linearGradient id="0" x1="-74.929" y1="52.2" x2="-75.26" y2="2.356" gradientUnits="userSpaceOnUse" gradientTransform="matrix(1.07499 0 0 1.02929 56.689-.015)"><stop stop-color="#259ee1"/><stop offset="1" stop-color="#19b4fd"/></linearGradient></defs><g transform="translate(56.39.089)"><rect width="44" height="60.53" x="-46.39" y="1.646" fill="url(#0)" rx="2.5"/><path d="m-24.338 31.497c1.042 0 .65 1.232 0 1.519-1.092.482-2.21-.471-2.438-1.519-.345-1.58.923-3.02 2.438-3.241 1.979-.291 3.723 1.307 3.934 3.241.258 2.36-1.637 4.408-3.934 4.611-2.693.238-5.01-1.954-5.204-4.611-.221-3.033 2.232-5.628 5.204-5.816 3.329-.21 6.166 2.517 6.346 5.816.199 3.644-2.764 6.741-6.346 6.917-3.913.192-7.233-3.03-7.403-6.917-.184-4.211 3.253-7.778 7.403-7.944 4.46-.179 8.233 3.502 8.395 7.944.173 4.746-3.711 8.756-8.395 8.915-4.979.169-9.182-3.95-9.337-8.915-.164-5.255 4.145-9.687 9.337-9.84 5.474-.161 10.09 4.376 10.239 9.84.157 5.742-4.56 10.58-10.239 10.727-5.95.155-10.961-4.784-11.11-10.727-.151-6.212 4.958-11.44 11.11-11.583 6.41-.149 11.803 5.176 11.943 11.583.146 6.666-5.342 12.272-11.943 12.411-5.367.113-10.297-3.392-12.05-8.476" fill="#104563" fill-rule="evenodd"/></g></svg>