<svg xmlns="http://www.w3.org/2000/svg" viewBox="0 0 64 64"><defs><linearGradient id="0" x1="-74.929" y1="52.2" x2="-75.26" y2="2.356" gradientUnits="userSpaceOnUse" gradientTransform="matrix(1.07499 0 0 1.02929 56.689-.015)"><stop stop-color="#a04c9b"/><stop offset="1" stop-color="#d663cc"/></linearGradient></defs><g transform="translate(56.39.089)"><rect width="44" height="60.53" x="-46.39" y="1.646" fill="url(#0)" rx="2.5"/><path d="m422.93 557.59q-3.738 0-6.277-2.156-2.492-2.156-2.492-5.702 0-3.833 2.971-5.99 2.971-2.204 7.331-2.204 3.881 0 6.373 1.438v-.671q0-2.588-1.773-4.121-1.773-1.581-4.361-1.581-1.917 0-3.498.91-1.533.91-2.108 2.492l-4.03-1.725q.815-2.108 3.21-3.881 2.396-1.821 6.325-1.821 4.504 0 7.475 2.635 2.971 2.635 2.971 7.427v14.184h-4.217v-3.258h-.192q-2.635 4.03-7.715 4.03m.719-4.03q2.731 0 4.936-2.01 2.252-2.06 2.252-4.84-1.869-1.533-5.606-1.533-3.21 0-4.84 1.39-1.629 1.39-1.629 3.258 0 1.725 1.485 2.731 1.485 1.01 3.402 1.01" fill="#fff" fill-opacity=".862" transform="matrix(.87954 0 0 .87954-397.85-447.51)"/></g></svg>