<svg xmlns="http://www.w3.org/2000/svg" viewBox="0 0 64 64"><defs><linearGradient id="0" x1="-74.929" y1="52.2" x2="-75.26" y2="2.356" gradientUnits="userSpaceOnUse" gradientTransform="matrix(1.07499 0 0 1.02929 56.689-.015)"><stop stop-color="#de2b5b"/><stop offset="1" stop-color="#f73667"/></linearGradient></defs><g transform="translate(56.39.089)"><rect width="44" height="60.53" x="-46.39" y="1.646" fill="url(#0)" rx="2.5"/><path ns2:knockout="Off" d="m76.13 102.37c-7.997-2.877-12.747-6.408-17.955-14.288-1.278-2.171-3.628-7.02-3.539-13.34-.208-6.305 2.978-13.57 8.924-17.447 5.742-4.092 13.152-4.153 17.56-2.537 4.547 1.688 6.391 4.5 6.443 4.366-.139.035 2.436 2.201 3.584 6.916 1.279 4.532-.02 12.04-6.271 15.12-2.875 1.541-6.609 1.82-9.537.718-2.928-1.181-5.05-3.774-5.761-6.483-1.543-5.981 2.995-9.296 4.997-9.636 8.145-2.716 12.27 10.03 2.744 11.11 4.342 1.45 8.818-3.01 7.967-7.545-.172-4.54-5.668-9.05-11.73-7.199-1.583.437-3.98 1.548-5.856 4.047-1.924 2.484-2.797 6.377-1.797 10.161.975 3.805 3.94 7.447 8.07 9.08 4.172 1.539 8.817 1.099 12.653-.897 8.189-4.051 9.828-13.922 8.201-19.353-1.436-5.837-4.607-8.51-4.443-8.551-.059.159-2.34-3.309-7.977-5.414-5.512-2.01-14.11-1.868-20.987 2.957-7.04 4.516-10.857 13.39-10.58 20.542-.095 7.263 2.612 12.822 4.089 15.293 5.954 9.08 12.776 11.918 21.2 12.372" fill="#fff" fill-opacity=".854" ns2:layer="yes" ns2:dimmedPercent="50" ns2:rgbTrio="#4F008000FFFF" transform="matrix(.45815 0 0 .45815-57.888-2.992)"/></g></svg>