<svg xmlns="http://www.w3.org/2000/svg" viewBox="0 0 64 64"><defs><linearGradient id="0" x1="-74.929" y1="52.2" x2="-75.26" y2="2.356" gradientUnits="userSpaceOnUse" gradientTransform="matrix(1.07499 0 0 1.02929 56.689-.015)"><stop stop-color="#309bd5"/><stop offset="1" stop-color="#1ab4fd"/></linearGradient></defs><g transform="translate(56.39.089)"><rect width="44" height="60.53" x="-46.39" y="1.646" fill="url(#0)" rx="2.5"/><path d="m34.729-1.216c.334-.503.195-1.178-.308-1.512-.504-.333-1.178-.195-1.512.309l-4.04 6.108c-.168-.027-.335-.052-.509-.052-1.802 0-3.273 1.469-3.273 3.273 0 .347.069.675.169.989l-3.897 4.969c-.503-.314-1.091-.504-1.726-.504-1.76 0-3.19 1.4-3.26 3.142l-6.165 3.59c-.6-.77-1.526-1.277-2.577-1.277-1.804 0-3.273 1.469-3.273 3.273 0 .709.233 1.364.617 1.9l-4.802 7.319c-.331.505-.191 1.18.313 1.511.184.121.393.179.598.179.356 0 .705-.172.913-.492l4.773-7.272c.276.074.563.128.861.128 1.76 0 3.19-1.397 3.26-3.143l6.165-3.588c.599.771 1.525 1.276 2.576 1.276 1.804 0 3.273-1.468 3.273-3.273 0-.346-.068-.675-.167-.988l3.895-4.968c.503.313 1.091.503 1.726.503 1.803 0 3.273-1.468 3.273-3.273 0-.837-.325-1.592-.841-2.171l3.934-5.955m-27.09 23.398c-.602 0-1.091-.488-1.091-1.091 0-.601.489-1.091 1.091-1.091.602 0 1.091.49 1.091 1.091 0 .603-.489 1.091-1.091 1.091m12-5.455c-.602 0-1.091-.488-1.091-1.091 0-.601.489-1.091 1.091-1.091.602 0 1.091.49 1.091 1.091 0 .603-.489 1.091-1.091 1.091m8.727-8.727c-.602 0-1.091-.489-1.091-1.091 0-.601.489-1.091 1.091-1.091.602 0 1.091.49 1.091 1.091 0 .602-.49 1.091-1.091 1.091m-21.819 21.819c-.603 0-1.091.49-1.091 1.091 0 .603.488 1.091 1.091 1.091.603 0 1.091-.488 1.091-1.091 0-.601-.487-1.091-1.091-1.091m5.455 0c-.603 0-1.091.49-1.091 1.091 0 .603.488 1.091 1.091 1.091.603 0 1.091-.488 1.091-1.091 0-.601-.487-1.091-1.091-1.091m5.455 0c-.603 0-1.091.49-1.091 1.091 0 .603.488 1.091 1.091 1.091.603 0 1.091-.488 1.091-1.091 0-.601-.487-1.091-1.091-1.091m5.455 0c-.603 0-1.091.49-1.091 1.091 0 .603.488 1.091 1.091 1.091.604 0 1.091-.488 1.091-1.091 0-.601-.487-1.091-1.091-1.091m5.455 0c-.603 0-1.091.49-1.091 1.091 0 .603.488 1.091 1.091 1.091.604 0 1.091-.488 1.091-1.091 0-.601-.487-1.091-1.091-1.091m5.455 0c-.603 0-1.091.49-1.091 1.091 0 .603.488 1.091 1.091 1.091.604 0 1.091-.488 1.091-1.091 0-.601-.487-1.091-1.091-1.091m-32.728-3.273c.603 0 1.091-.488 1.091-1.091 0-.601-.488-1.091-1.091-1.091-.603 0-1.091.49-1.091 1.091 0 .603.488 1.091 1.091 1.091m0-5.455c.603 0 1.091-.488 1.091-1.091 0-.601-.488-1.091-1.091-1.091-.603 0-1.091.49-1.091 1.091 0 .603.488 1.091 1.091 1.091m0-5.455c.603 0 1.091-.488 1.091-1.091 0-.601-.488-1.091-1.091-1.091-.603 0-1.091.489-1.091 1.091 0 .603.488 1.091 1.091 1.091m0-5.455c.603 0 1.091-.487 1.091-1.091 0-.602-.488-1.091-1.091-1.091-.603 0-1.091.489-1.091 1.091 0 .605.488 1.091 1.091 1.091m0-5.455c.603 0 1.091-.487 1.091-1.091 0-.602-.488-1.091-1.091-1.091-.603 0-1.091.489-1.091 1.091 0 .605.488 1.091 1.091 1.091m0-5.455c.603 0 1.091-.487 1.091-1.091 0-.602-.488-1.091-1.091-1.091-.603 0-1.091.489-1.091 1.091 0 .605.488 1.091 1.091 1.091" fill="#fff" fill-opacity=".854" transform="matrix(.68748 0 0 .68748-36.39 21.911)"/></g></svg>