<svg xmlns="http://www.w3.org/2000/svg" viewBox="0 0 64 64"><defs><linearGradient id="0" x1="-74.929" y1="52.2" x2="-75.26" y2="2.356" gradientUnits="userSpaceOnUse" gradientTransform="matrix(1.07499 0 0 1.02929 56.689-.015)"><stop stop-color="#4d5052"/><stop offset="1" stop-color="#6f7376"/></linearGradient></defs><g transform="translate(56.39.089)"><rect width="44" height="60.53" x="-46.39" y="1.646" fill="url(#0)" rx="2.5"/><path d="m358.77 517c-4.823-3.925-11.228-6.087-18.03-6.087-6.806 0-13.21 2.162-18.03 6.087-4.865 3.96-7.545 9.236-7.545 14.859 0 5.366 2.442 10.417 6.895 14.309-.08.181-.144.371-.185.57l-1.463 7.196c-.174.855.06 1.365.286 1.643.262.32.65.497 1.093.497.335 0 .694-.099 1.069-.293l8.509-4.421c2.946.948 6.113 1.446 9.373 1.446 6.806 0 13.21-2.162 18.03-6.087 4.865-3.959 7.545-9.236 7.545-14.859 0-5.623-2.679-10.9-7.545-14.859" fill="#fff" fill-opacity=".85" transform="matrix(.53241 0 0 .53143-205.8-251.59)"/></g></svg>