<svg xmlns="http://www.w3.org/2000/svg" viewBox="0 0 64 64"><defs><linearGradient id="0" x1="-74.929" y1="52.2" x2="-75.26" y2="2.356" gradientUnits="userSpaceOnUse" gradientTransform="matrix(1.07499 0 0 1.02929 56.689-.015)"><stop stop-color="#197cf1"/><stop offset="1" stop-color="#20bcfa"/></linearGradient></defs><g transform="translate(56.39.089)"><rect width="44" height="60.53" x="-46.39" y="1.646" fill="url(#0)" rx="2.5"/><path d="m423.46 552.97q-4.077 0-6.848-2.352-2.718-2.352-2.718-6.221 0-4.182 3.241-6.534 3.241-2.405 7.998-2.405 4.234 0 6.952 1.568v-.732q0-2.823-1.934-4.496-1.934-1.725-4.757-1.725-2.091 0-3.816.993-1.673.993-2.3 2.718l-4.391-1.882q.889-2.3 3.502-4.234 2.614-1.986 6.9-1.986 4.914 0 8.155 2.875 3.241 2.875 3.241 8.102v15.473h-4.6v-3.555h-.209q-2.875 4.391-8.416 4.391m.784-4.391q2.98 0 5.384-2.196 2.457-2.248 2.457-5.28-2.039-1.673-6.116-1.673-3.502 0-5.28 1.516-1.777 1.516-1.777 3.555 0 1.882 1.62 2.98 1.62 1.098 3.711 1.098" fill="#fff" fill-opacity=".846" transform="matrix(.87954 0 0 .87954-398.46-442.45)"/></g></svg>