<svg xmlns="http://www.w3.org/2000/svg" viewBox="0 0 64 64"><defs><linearGradient id="0" x1="-74.929" y1="52.2" x2="-75.26" y2="2.356" gradientUnits="userSpaceOnUse" gradientTransform="matrix(1.07499 0 0 1.02929 56.689-.015)"><stop stop-color="#2aaa76"/><stop offset="1" stop-color="#44d48b"/></linearGradient></defs><g transform="translate(56.39.089)"><rect width="44" height="60.53" x="-46.39" y="1.646" fill="url(#0)" rx="2.5"/><path d="m430.41 518.99l1.659 1.33-1.561 3.069c-.781 1.415.56 2.794 1.415 3.274.841.472 2.146.529 3.366.512l2.195-3.683 1.659.921-2.878-5.473-5.854.051m.244 7.512l3.561 6.752c.715.938 2.065 1.159 3.464 1.125h3.756v-6.394l-7.122-.051c-1.106.068-2.553-.17-3.659-1.432m22.404-12.442l-1.937.844-1.859-2.889c-.828-1.387-2.653-.851-3.476-.317-.81.526-1.491 1.67-2.068 2.773l2.074 3.756-1.589 1.042 6.06.07 2.794-5.279m-6.521-3.423l-7.481-.077c-1.146.187-1.989 1.291-2.638 2.563l-1.821 3.371 5.449 3.1 3.496-6.368c.478-1.026 1.383-2.209 2.994-2.59m.325 26.05l.22-2.148 3.363-.268c1.583-.071 2.01-1.968 1.955-2.966-.055-.982-.701-2.148-1.361-3.2l-4.207.041-.118-1.931-2.997 5.405 3.144 5.067m6.079-4.193l3.692-6.677c.396-1.12-.136-2.412-.906-3.611l-1.99-3.269-5.283 3.388 3.732 6.225c.642.926 1.212 2.312.755 3.943" stroke="none" transform="matrix(.91853 0 0 .91853-431.78-449.06)" stroke-opacity=".8" fill="#144e36"/></g></svg>