<svg xmlns="http://www.w3.org/2000/svg" viewBox="0 0 64 64"><defs><linearGradient id="0" x1="-74.929" y1="52.2" x2="-75.26" y2="2.356" gradientUnits="userSpaceOnUse" gradientTransform="matrix(1.07499 0 0 1.02929 56.689.25)"><stop stop-color="#197cf1"/><stop offset="1" stop-color="#20bcfa"/></linearGradient></defs><g transform="translate(56.39-.177)"><rect width="44" height="60.53" x="-46.39" y="1.911" fill="url(#0)" rx="2.5" stroke-width="1"/></g><path d="m33.714 20l-14.571 2.571v18.857l14.571 2.571v-24m.857 2.571v2.571h7.714v.857h-7.714v1.714h7.714v.857h-7.714v1.714h7.714v.857h-7.714v1.714h7.714v.857h-7.714v1.714h7.714v.857h-7.714v1.714h7.714v.857h-7.714v2.571h10.286v-18.857h-10.286m-5.04 5.062h.83c.762 0 .81.051.723.429-.052.225-.488 2.223-.964 4.446l-.857 4.045h-.884c-.482 0-.875-.029-.884-.054-.009-.025-.286-1.348-.616-2.946-.33-1.599-.643-2.802-.696-2.652-.053.15-.335 1.464-.616 2.893l-.509 2.598-.804-.054-.83-.054-.67-3.562c-.374-1.949-.726-3.753-.777-4.02-.084-.437-.026-.494.563-.563.82-.096.856-.011 1.339 3.134.207 1.344.374 2.463.402 2.491.028.028.323-1.246.643-2.813.32-1.566.68-2.895.804-2.973.355-.226 1.353-.17 1.446.08.046.125.334 1.476.616 3 .471 2.55.802 3.478.804 2.25.0001-.491.377-2.833.75-4.714l.188-.964" fill="#fff" fill-opacity=".85" color="#000"/></svg>