<svg xmlns="http://www.w3.org/2000/svg" viewBox="0 0 64 64"><defs><linearGradient id="0" x1="-74.929" y1="59.57" x2="-75.26" y2="2.356" gradientUnits="userSpaceOnUse" gradientTransform="matrix(1.07499 0 0 1.02929 56.689-.015)"><stop stop-color="#d1d7df"/><stop offset="1" stop-color="#eaf0f2"/></linearGradient></defs><g transform="translate(56.39.089)"><rect width="44" height="60.53" x="-46.39" y="1.646" fill="url(#0)" rx="2.5"/><path d="m22.4 20c-.665 0-1.201.534-1.201 1.199v21.602c0 .665.536 1.199 1.201 1.199h19.2c.665 0 1.201-.534 1.201-1.199v-21.602c0-.665-.536-1.199-1.201-1.199h-19.2m8.977.666h1.332c.295 0 .533.238.533.533v.135c0 .295-.238.533-.533.533h-1.332c-.295 0-.533-.238-.533-.533v-.135c0-.295.238-.533.533-.533m-.006 1.736h1.334c.295 0 .533.238.533.533v.133c0 .295-.238.533-.533.533h-1.334c-.295 0-.533-.238-.533-.533v-.133c0-.295.238-.533.533-.533m-.016 1.715h1.334c.295 0 .533.238.533.533v.133c0 .295-.238.533-.533.533h-1.334c-.295 0-.533-.238-.533-.533v-.133c0-.295.238-.533.533-.533m.027 1.785h1.334c.295 0 .533.238.533.533v.133c0 .295-.238.533-.533.533h-1.334c-.295 0-.533-.238-.533-.533v-.133c0-.295.238-.533.533-.533m0 1.754h1.334c.295 0 .533.238.533.533v.133c0 .295-.238.533-.533.533h-1.334c-.295 0-.533-.238-.533-.533v-.133c0-.295.238-.533.533-.533m0 1.795h1.334c.295 0 .533.238.533.533v.133c0 .295-.238.533-.533.533h-1.334c-.295 0-.533-.238-.533-.533v-.133c0-.295.238-.533.533-.533m.107 1.814h1.057c.21 0 .381.17.381.381v.758l.588 1.734c.165.483.086 1.021-.211 1.438-.297.416-.778.664-1.287.664-.509 0-.99-.249-1.287-.664-.297-.416-.376-.954-.211-1.438l.59-1.734v-.758c0-.211.171-.381.381-.381m-.047 2.539l-.199.582c-.085.25-.044.527.109.742.305.429 1.023.429 1.328 0 .153-.215.194-.493.109-.742l-.197-.582h-1.15" transform="matrix(.99999 0 0 .99999-56.39-.091)" fill="#3d434a"/></g></svg>