<svg xmlns="http://www.w3.org/2000/svg" viewBox="0 0 64 64"><defs><linearGradient id="0" x1="-74.929" y1="52.2" x2="-75.26" y2="2.356" gradientUnits="userSpaceOnUse" gradientTransform="matrix(1.07499 0 0 1.02929 56.689.25)"><stop stop-color="#8798a9"/><stop offset="1" stop-color="#aeb6be"/></linearGradient></defs><g transform="translate(56.39-.177)"><rect width="44" height="60.53" x="-46.39" y="1.911" fill="url(#0)" rx="2.5" stroke-width="1"/></g><path d="m24.05 16.284l-13.357 2.357v17.286l13.357 2.357v-22m.786 2.357v2.357h7.07v.786h-7.07v1.571h7.07v.786h-7.07v1.571h7.07v.786h-7.07v1.571h7.07v.786h-7.07v1.571h7.07v.786h-7.07v1.571h7.07v.786h-7.07v2.357h9.429v-17.286h-9.429m-4.616 4.641h.761c.698 0 .742.047.663.393-.047.206-.447 2.038-.884 4.076l-.786 3.708h-.81c-.442 0-.802-.026-.81-.049-.009-.023-.262-1.235-.565-2.701-.302-1.466-.589-2.568-.638-2.431-.049.137-.307 1.342-.565 2.652l-.467 2.382-.737-.049-.761-.049-.614-3.266c-.342-1.786-.666-3.441-.712-3.683-.077-.401-.024-.453.516-.516.752-.088.784-.001 1.228 2.873.189 1.232.343 2.258.368 2.283.026.026.296-1.142.589-2.578.294-1.436.623-2.654.737-2.725.326-.207 1.241-.156 1.326.074.043.115.307 1.353.565 2.75.432 2.337.735 3.188.737 2.063.0001-.45.345-2.597.688-4.321l.172-.884" fill="#3d434a" color="#000" transform="matrix(1.09091 0 0 1.09091 7.473 2.236)"/></svg>