<svg xmlns="http://www.w3.org/2000/svg" viewBox="0 0 64 64"><defs><linearGradient id="0" x1="-74.929" y1="52.2" x2="-75.26" y2="2.356" gradientUnits="userSpaceOnUse" gradientTransform="matrix(1.07499 0 0 1.02929 56.689-.015)"><stop stop-color="#8294a4"/><stop offset="1" stop-color="#aeb6be"/></linearGradient></defs><g transform="translate(56.39.089)"><rect width="44" height="60.53" x="-46.39" y="1.646" fill="url(#0)" rx="2.5"/><path d="m353.81 0c-89.89 0-162.56 72.67-162.56 162.56 0 19.12 3.825 38.25 9.562 57.37l-200.81 200.81v95.62h95.62v-57.37h57.37v-57.37h57.37l86.06-86.06c17.213 5.737 36.34 9.562 57.37 9.562 89.89 0 162.56-72.68 162.56-162.56 0-89.89-72.67-162.56-162.56-162.56m47.813 172.12c-32.513 0-57.37-24.862-57.37-57.37 0-32.513 24.862-57.37 57.37-57.37 32.513 0 57.37 24.862 57.37 57.37 0 32.513-24.862 57.37-57.37 57.37z" transform="matrix(.04648 0 0 .04648-36.39 19.911)" fill="#3a4148"/></g></svg>