<svg xmlns="http://www.w3.org/2000/svg" viewBox="0 0 64 64"><defs><linearGradient id="0" x1="-74.929" y1="52.2" x2="-75.26" y2="2.356" gradientUnits="userSpaceOnUse" gradientTransform="matrix(1.07499 0 0 1.02929 56.689-.015)"><stop stop-color="#fa883c"/><stop offset="1" stop-color="#ff923c"/></linearGradient></defs><g transform="translate(56.39.089)"><rect width="44" height="60.53" x="-46.39" y="1.646" fill="url(#0)" rx="2.5"/><path d="m392.75 500.16c-1.209 0-2.181.972-2.181 2.181v39.27c0 1.209.972 2.181 2.181 2.181h34.908c1.209 0 2.185-.972 2.185-2.181v-39.27c0-1.209-.976-2.181-2.185-2.181h-34.908m16.321 1.213h2.425c.537 0 .968.431.968.968v.244c0 .537-.431.968-.968.968h-2.425c-.537 0-.968-.431-.968-.968v-.244c0-.537.431-.968.968-.968m-.008 3.153h2.425c.537 0 .968.435.968.972v.24c0 .537-.431.972-.968.972h-2.425c-.537 0-.972-.435-.972-.972v-.24c0-.537.435-.972.972-.972m-.027 3.119h2.425c.537 0 .968.431.968.968v.244c0 .537-.431.968-.968.968h-2.425c-.537 0-.972-.431-.972-.968v-.244c0-.537.435-.968.972-.968m.046 3.246h2.425c.537 0 .969.431.969.968v.244c0 .537-.431.968-.969.968h-2.425c-.537 0-.968-.431-.968-.968v-.244c0-.537.431-.968.968-.968m0 3.188h2.425c.537 0 .969.431.969.968v.244c0 .537-.431.968-.969.968h-2.425c-.537 0-.968-.431-.968-.968v-.244c0-.537.431-.968.968-.968m0 3.262h2.425c.537 0 .969.435.969.972v.24c0 .537-.431.972-.969.972h-2.425c-.537 0-.968-.435-.968-.972v-.24c0-.537.431-.972.968-.972m.194 3.301h1.925c.382 0 .69.31.69.693v1.379l1.069 3.153c.299.878.156 1.854-.384 2.611-.539.756-1.414 1.209-2.34 1.209-.926 0-1.801-.453-2.34-1.209-.539-.757-.683-1.732-.384-2.611l1.069-3.153v-1.379c0-.384.311-.693.693-.693m-.085 4.618l-.356 1.058c-.154.454-.081.958.198 1.348.555.779 1.859.779 2.413 0 .278-.39.351-.895.198-1.348l-.356-1.058h-2.096" fill="#6d3c1a" transform="matrix(.55 0 0 .55-250.01-255.18)"/></g></svg>