<svg xmlns="http://www.w3.org/2000/svg" viewBox="0 0 64 64"><defs><linearGradient id="0" x1="-74.929" y1="52.2" x2="-75.26" y2="2.356" gradientUnits="userSpaceOnUse" gradientTransform="matrix(1.07499 0 0 1.02929 56.689.117)"><stop stop-color="#14b59e"/><stop offset="1" stop-color="#33d6b6"/></linearGradient></defs><g transform="translate(56.39.089)"><rect width="44" height="60.27" x="-46.39" y="1.779" fill="url(#0)" rx="2.5"/><path d="m14.257 275.6c-31.31-55.21-10-141.8 54.766-206.59 73.55-73.54 175.26-91.08 227.18-39.16.061.068.112.145.195.214-10.392 30.23-43.486 94.57-142.69 129.35-90.87 31.878-125.93 82.56-139.46 116.19m296.55-226.85c-7.871 18.361-21.57 42.36-45.17 65.957-23.725 23.735-57.44 47.05-105.21 63.8-96.94 33.993-124.02 89.64-131.58 116.61.357.36.664.733 1.01 1.083 51.921 51.918 153.63 34.386 227.18-39.17 65.44-65.44 86.49-153.16 53.775-208.28z" fill="#fff" fill-opacity=".85" transform="matrix(.07361 0 0 .07361-36.402 19.898)"/></g></svg>