<svg xmlns="http://www.w3.org/2000/svg" viewBox="0 0 64 64"><defs><linearGradient id="0" x1="-74.929" y1="52.2" x2="-75.26" y2="2.356" gradientUnits="userSpaceOnUse" gradientTransform="matrix(1.07499 0 0 1.02929 56.689-.015)"><stop stop-color="#ff292f"/><stop offset="1" stop-color="#ff4f1c"/></linearGradient></defs><g transform="translate(56.39.089)"><rect width="44" height="60.53" x="-46.39" y="1.646" fill="url(#0)" rx="2.5"/><path d="m471.35 530.05c-.793.223-1.432 1.108-1.432 1.968v13.634c-.804-.441-1.837-.619-2.908-.328-1.933.526-3.144 2.225-2.729 3.795.414 1.57 2.318 2.447 4.251 1.921 1.542-.419 2.605-1.606 2.774-2.858l.045-12.884 10.02-2.811v10.167c-.804-.441-1.837-.619-2.908-.328-1.933.526-3.144 2.225-2.729 3.795.414 1.57 2.318 2.447 4.251 1.921 1.542-.419 2.605-1.606 2.774-2.858l.045-16.773c0-.645-.381-1.127-.895-1.218l-10.56 2.858" fill="#fff" fill-opacity=".854" transform="translate(-499.09-507.28)"/></g></svg>