<svg xmlns="http://www.w3.org/2000/svg" viewBox="0 0 64 64"><defs><linearGradient id="0" x1="-74.929" y1="52.2" x2="-75.26" y2="2.356" gradientUnits="userSpaceOnUse" gradientTransform="matrix(1.07499 0 0 1.02929 56.689-.015)"><stop stop-color="#179985"/><stop offset="1" stop-color="#3cc380"/></linearGradient></defs><g transform="translate(56.39.089)"><rect width="44" height="60.53" x="-46.39" y="1.646" fill="url(#0)" rx="2.5"/><path d="m385.98-46.942c-98.06 0-177.34 79.28-177.34 177.34 0 20.864 4.173 41.727 10.431 62.59l-219.07 219.07v104.32h104.32v-62.59h62.59v-62.59h62.59l93.89-93.89c18.778 6.259 39.641 10.431 62.59 10.431 98.06 0 177.34-79.28 177.34-177.34 0-98.06-79.28-177.34-177.34-177.34m52.16 187.77c-35.469 0-62.59-27.12-62.59-62.59 0-35.469 27.12-62.59 62.59-62.59 35.469 0 62.59 27.12 62.59 62.59 0 35.469-27.12 62.59-62.59 62.59" transform="matrix(.0426 0 0 .0426-36.39 21.911)" fill="#0c4439"/></g></svg>