<svg xmlns="http://www.w3.org/2000/svg" viewBox="0 0 64 64"><defs><linearGradient id="0" x1="-74.929" y1="52.2" x2="-75.26" y2="2.356" gradientUnits="userSpaceOnUse" gradientTransform="matrix(1.07499 0 0 1.02929 56.689.117)"><stop stop-color="#0074e3"/><stop offset="1" stop-color="#03b8ff"/></linearGradient></defs><g transform="translate(56.39.089)"><rect width="44" height="60.27" x="-46.39" y="1.779" fill="url(#0)" rx="2.5"/><path d="m-31.845 21.912c-1.527.012-3.45.12-5.507.471v19.528h4.638v-7.06c0 0 9.138.848 9.311-5.833 0 0 1.205-7.179-8.442-7.101m.471 3.478c2.814.011 3.55 1.01 3.623 2.862 0 3.887-4.964 2.935-4.964 2.935v-5.724c.491-.038.939-.074 1.341-.072m14.467 1.703c-1.126.051-2.237.313-3.225.87-1.83 1.079-2.059 3.713-1.051 5.435 1.26 1.86 3.684 2.127 5.398 3.406.87.578.422 2.044-.58 2.138-1.846.302-3.703-.365-5.362-1.123v2.645c-.23.784.732.803 1.268 1.014 1.993.484 4.152.556 6.123-.072 1.741-.512 2.992-2.247 2.898-4.058-.0001-.485-.093-.953-.254-1.413-.686-1.901-2.815-2.521-4.456-3.333-1.043-.267-2.579-1.572-1.196-2.464 1.554-.488 3.161.239 4.565.87l1.014-2.427c.339-.763-1.306-.752-1.812-1.087-1.066-.3-2.207-.45-3.333-.399" fill="#fff" fill-opacity=".85"/></g></svg>