<svg xmlns="http://www.w3.org/2000/svg" viewBox="0 0 64 64"><defs><linearGradient id="0" x1="-74.929" y1="52.2" x2="-75.26" y2="2.356" gradientUnits="userSpaceOnUse" gradientTransform="matrix(1.07499 0 0 1.02929 56.689.25)"><stop stop-color="#dc3c30"/><stop offset="1" stop-color="#ff786d"/></linearGradient></defs><g transform="translate(56.39-.177)"><rect width="44" height="60.53" x="-46.39" y="1.911" fill="url(#0)" rx="2.5" stroke-width="1"/></g><g transform="matrix(.88123 0 0 .88123 11.238 8.866)" fill="#fff" fill-opacity=".846"><path d="m17.799 1020.34c2.099 0 3.801 1.699 3.801 3.798h-3.801c.0001 0 .0001-3.798 0-3.798m-1.069 1.033v3.801h3.801c0 2.102-1.701 3.801-3.801 3.801-2.1 0-3.8-1.7-3.8-3.801 0-2.1 1.7-3.801 3.8-3.801" transform="matrix(2.10251 0 0 2.10251-21.451-2128.1)"/><g transform="translate(0-.3)" fill-rule="evenodd"><rect width="14.261" height="2.732" x="27.12" y="21.481" rx="1.366"/><rect width="14.07" height="2.777" x="27.14" y="26.311" rx="1.366"/><rect width="14.224" height="2.719" x="27.16" y="31.1" rx="1.36"/></g></g></svg>