<svg xmlns="http://www.w3.org/2000/svg" viewBox="0 0 64 64"><defs><linearGradient gradientTransform="matrix(1.07499 0 0 1.02929 56.689.25)" gradientUnits="userSpaceOnUse" y2="2.356" x2="-75.26" y1="61.05" x1="-74.929" id="0"><stop stop-color="#d1d7df"/><stop offset="1" stop-color="#e8eef0"/></linearGradient></defs><rect y="1.911" x="-46.39" height="60.53" width="44" fill="url(#0)" rx="2.5" stroke-width="1" transform="translate(56.39-.177)"/><path d="m15.844-4.997c-6.01 0-10.847 4.838-10.847 10.847v106.31c0 6.01 4.838 10.847 10.847 10.847h193.08c6.01 0 10.847-4.838 10.847-10.847v-106.31c0-6.01-4.838-10.847-10.847-10.847h-193.08m16.271 27.12h21.695l21.695 27.12 21.695-27.12h21.695v73.76h-21.695v-42.31l-21.695 27.12-21.695-27.12v42.31h-21.695v-73.76m124.75 0h21.695v37.966h21.695l-32.542 35.797-32.542-35.797h21.695v-37.966" fill="#000" stroke="none" fill-opacity=".715" transform="matrix(.125 0 0 .125 17.954 24.628)"/></svg>