<svg xmlns="http://www.w3.org/2000/svg" viewBox="0 0 64 64"><defs><linearGradient id="0" x1="-74.929" y1="52.2" x2="-75.26" y2="2.356" gradientUnits="userSpaceOnUse" gradientTransform="matrix(1.31168 0 0 1.25592 74.46-13.1)"><stop stop-color="#2aaa76"/><stop offset="1" stop-color="#3ec380"/></linearGradient></defs><g transform="matrix(.81955 0 0 .81955 52.06 10.81)" fill="#fff"><rect width="53.688" height="73.859" x="-51.32" y="-11.07" fill="url(#0)" rx="3.05"/><g transform="matrix(1.33111 0 0 1.33111-53.37-13.586)"><g transform="matrix(0 .86557-.86557 0 908.75 10.18)" fill-rule="evenodd"><path d="m11.447 1036.94h11.637v-24.498h-11.533c-1.268-.094-1.783.023-1.783 1.172v22.09c-.08 1.261.446 1.234 1.679 1.234" fill="#144e36"/><path d="m33.844 1036.94h-5.282l-2.708-2.274v-19.951l1.856-2.274h6.135c.848-.094.917.023.917 1.172v22.09c.053 1.261-.092 1.234-.917 1.234z" fill="none" stroke="#144e36" stroke-width=".812"/><path d="m31.842 1038.1l-10.03-1.171v-24.486l9.946-.932c1.23-.094 1.296.245 1.296 1.394l-.084 23.369c.077 1.261.067 1.828-1.129 1.828" fill="#144e36"/></g><g fill="#34b67b" transform="matrix(.75387 0 0 .75387-304.18-389.12)"><path d="m431.48 560.29l-7.139.032-.007-1.539q3.195-3.31 4.092-4.318.798-.924 1.075-1.393.276-.486.273-1.189-.003-.719-.562-1.269-.559-.55-1.492-.545-.851.004-1.373.525-.522.504-.667 1.09l-1.378-.563q.275-.905 1.155-1.712.881-.807 2.289-.813 1.556-.007 2.559.959 1 .966 1.01 2.321.007 1.673-1.77 3.588l-3.261 3.377 5.191-.023.006 1.472"/><path d="m436.45 560.53q-1.13.005-2.197-.71-1.067-.715-1.483-2.135l1.373-.592q.266.936.874 1.452.608.516 1.427.512.917-.004 1.569-.593.669-.589.665-1.459-.004-.853-.694-1.436-.674-.583-1.624-.578l-.966.004-.006-1.439.851-.004q.884-.004 1.455-.508.587-.505.584-1.341-.003-.786-.578-1.236-.559-.449-1.394-.446-1.441.006-1.942 1.498l-1.394-.596q.324-.922 1.156-1.645.832-.723 2.175-.729 1.506-.007 2.509.892 1 .882 1.01 2.254.007 1.656-1.496 2.466v.067q.82.348 1.347 1.065.543.717.548 1.704.007 1.522-1.086 2.531-1.093.992-2.681.999"/></g></g></g></svg>