<svg xmlns="http://www.w3.org/2000/svg" viewBox="0 0 64 64"><defs><linearGradient id="0" x1="-74.929" y1="52.2" x2="-75.26" y2="2.356" gradientUnits="userSpaceOnUse" gradientTransform="matrix(1.07499 0 0 1.02929 56.689-.015)"><stop stop-color="#2daf7b"/><stop offset="1" stop-color="#44d68c"/></linearGradient></defs><g transform="translate(56.39.089)"><rect width="44" height="60.53" x="-46.39" y="1.646" fill="url(#0)" rx="2.5"/><g transform="matrix(.51833 0 0 .51833-211.02-244.91)"><rect width="46.3" height="34.939" x="385.01" y="507.31" fill="#144d36" rx="1.644" stroke-width="1" transform="translate(-48.12 9.285)"/><path d="m47.33 99.99l53.04-53.12c2.064-1.956 3.096-4.399 3.096-7.333 0-2.934-1.033-5.377-3.096-7.333l-6.111-6.192c-2.01-2.01-4.453-3.02-7.332-3.02-2.824 0-5.296 1-7.414 3.02l-39.515 39.596-39.596-39.597c-2.01-2.01-4.454-3.02-7.333-3.02-2.824 0-5.296 1-7.414 3.02l-6.11 6.192c-2.01 2.01-3.02 4.455-3.02 7.333 0 2.879 1 5.324 3.02 7.333l53.04 53.12c2.118 2.01 4.59 3.02 7.414 3.02 2.879 0 5.323-1.01 7.333-3.02" fill="#39c384" transform="matrix(.14063 0 0 .14063 354.05 526.38)"/></g></g></svg>