<svg xmlns="http://www.w3.org/2000/svg" viewBox="0 0 64 64"><defs><linearGradient id="0" x1="-74.929" y1="52.2" x2="-75.26" y2="2.356" gradientUnits="userSpaceOnUse" gradientTransform="matrix(1.31168 0 0 1.25592 74.46-12.613)"><stop stop-color="#f4a01c"/><stop offset="1" stop-color="#fac632"/></linearGradient></defs><g transform="matrix(.81955 0 0 .81955 52.06 10.41)" fill="#fff"><rect width="53.688" height="73.859" x="-51.32" y="-10.586" fill="url(#0)" rx="3.05"/><path d="m75.62 16.695c-1.886 0-3.405 1.518-3.405 3.405v2.27h5.674v1.135h-5.674-2.27c-2.515 0-4.539 2.025-4.539 4.539v2.27c0 2.515 2.025 4.539 4.539 4.539v-2.27c0-2.089 1.405-3.823 3.32-4.355.167-.046.337-.082.51-.113.232-.036.466-.071.709-.071h4.539 3.659c.542-.602.88-1.392.88-2.27v-5.674c0-1.886-1.518-3.405-3.405-3.405zm10.214 6.809v2.27c0 2.089-1.405 3.823-3.32 4.355-.167.046-.337.082-.51.113-.232.036-.466.071-.709.071h-4.539-3.659c-.542.602-.88 1.392-.88 2.27v5.674c0 1.886 1.518 3.405 3.405 3.405h4.539c1.886 0 3.405-1.518 3.405-3.405v-2.27h-5.674v-1.135h5.674 2.27c2.515 0 4.539-2.025 4.539-4.539v-2.27c0-2.515-2.025-4.539-4.539-4.539" transform="matrix(1.17294 0 0 1.17294-115.83-7.882)" fill="#6b470d"/></g></svg>