<svg xmlns="http://www.w3.org/2000/svg" viewBox="0 0 64 64"><defs><linearGradient id="0" x1="-74.929" y1="52.2" x2="-75.26" y2="2.356" gradientUnits="userSpaceOnUse" gradientTransform="matrix(1.07499 0 0 1.02929 56.689.25)"><stop stop-color="#7737c5"/><stop offset="1" stop-color="#9371ff"/></linearGradient></defs><g transform="translate(56.39-.177)"><rect width="44" height="60.53" x="-46.39" y="1.911" fill="url(#0)" rx="2.5" stroke-width="1"/><path d="m4.215 110c1.135 2.725 3.798 4.5 6.748 4.5h92.57c4.04 0 7.309-3.271 7.309-7.31v-21.923c0-4.04-3.271-7.309-7.309-7.309-4.04 0-7.31 3.271-7.31 7.309v14.615h-67.7l33.475-33.697c2.68-2.699 2.844-7 .373-9.896l-35.563-41.669h69.42v4.872c0 4.04 3.271 7.308 7.31 7.308 4.04 0 7.309-3.271 7.309-7.308v-12.18c0-4.04-3.271-7.309-7.309-7.309h-92.57c-2.851 0-5.442 1.659-6.636 4.249-1.194 2.59-.772 5.637 1.077 7.805l41.484 48.604-41.11 41.38c-2.081 2.094-2.697 5.233-1.564 7.959" transform="matrix(.20961 0 0 .20961-36.39 20.18)" fill="#ede6fc"/></g></svg>