<svg xmlns="http://www.w3.org/2000/svg" xmlns:xlink="http://www.w3.org/1999/xlink" viewBox="0 0 64 64"><defs><linearGradient id="0" x1="-74.929" y1="52.2" x2="-75.26" y2="2.356" gradientUnits="userSpaceOnUse" gradientTransform="matrix(1.07499 0 0 1.02929 56.689-.015)"><stop stop-color="#2db07b"/><stop offset="1" stop-color="#43d38b"/></linearGradient></defs><g transform="translate(56.39.089)"><rect width="44" height="60.53" x="-46.39" y="1.646" fill="url(#0)" rx="2.5"/><g transform="matrix(1.08108 0 0 1.08108-433.96-550.61)" fill="#144d36"><path d="m424.65 552.01q-4.992 0-8.214-3.358-3.222-3.404-3.222-8.486 0-5.083 3.222-8.441 3.222-3.404 8.214-3.404 3.721 0 6.172 1.815 2.451 1.815 3.585 4.583l-3.812 1.588q-1.724-4.175-6.217-4.175-2.768 0-4.901 2.269-2.088 2.269-2.088 5.763 0 3.494 2.088 5.763 2.133 2.269 4.901 2.269 4.674 0 6.444-4.175l3.721 1.588q-1.135 2.723-3.676 4.583-2.496 1.815-6.217 1.815" transform="matrix(.92871 0 0 .92871-18.508 37.28)"/><g transform="translate(-94.55-1.432)" stroke="#144d36"><path d="m491.34 527.93v3.754h3.754v1.576h-3.754v3.754h-1.576v-3.754h-3.754v-1.576h3.754v-3.754h1.576z" stroke-width=".606" transform="matrix(.66042 0 0 .66042 159.83 180.71)" id="1"/><use transform="translate(0 8.25)" xlink:href="#1"/></g></g></g></svg>