<svg xmlns="http://www.w3.org/2000/svg" viewBox="0 0 64 64"><defs><linearGradient gradientTransform="matrix(1.07499 0 0 1.02929 168.23 4.672)" gradientUnits="userSpaceOnUse" y2="2.356" x2="-75.26" y1="60.31" x1="-74.58" id="0"><stop stop-color="#d1d7df"/><stop offset="1" stop-color="#eaf0f2"/></linearGradient></defs><rect y="6.333" x="65.15" height="60.53" width="44" fill="url(#0)" rx="2.5" stroke-width="1" transform="translate(-55.15-4.598)"/><path d="m-103.01 50.705q-.261.275-.66.275-.399 0-.674-.275-.261-.275-.261-.66 0-.385.261-.66.275-.275.674-.275.399 0 .66.275.275.275.275.66 0 .385-.275.66m-.014-2.86h-1.293v-.646q0-.619.261-1.059.261-.454.921-1.059.371-.344.522-.509.165-.179.316-.481.165-.316.165-.646 0-.633-.412-1.017-.399-.385-1.114-.385-1.183 0-1.623 1.32l-1.183-.495q.289-.784.99-1.403.715-.633 1.815-.633 1.251 0 2.035.742.784.729.784 1.87 0 .495-.261 1-.261.509-.468.729-.192.206-.55.536-.041.041-.069.069-.839.756-.839 1.513v.55" transform="matrix(2.34564 0 0 2.36511 275.13-76.57)" fill="#3d434a"/></svg>