<svg xmlns="http://www.w3.org/2000/svg" viewBox="0 0 64 64"><defs><linearGradient id="0" x1="-74.929" y1="52.2" x2="-75.26" y2="2.356" gradientUnits="userSpaceOnUse" gradientTransform="matrix(1.07499 0 0 1.02929 56.689.25)"><stop stop-color="#ff721a"/><stop offset="1" stop-color="#fbb521"/></linearGradient></defs><g transform="translate(56.39-.177)"><rect width="44" height="60.53" x="-46.39" y="1.911" fill="url(#0)" rx="2.5" stroke-width="1"/><path d="m-110.62088 12.566252a11.00023 11.00023 0 0 0 -10.9992 11.0008 11.00023 11.00023 0 0 0 10.9992 10.999202 11.00023 11.00023 0 0 0 11.0008 -10.999202 11.00023 11.00023 0 0 0 -11.0008 -11.0008m2.777 4.898c.04.002.088.021.126.032.194.056.358.222.414.417l2 7.298 1.051-1.424c.107-.158.269-.268.46-.273h.779.351.03c.023 0 .048.025.048.048v1.121c0 .023-.023.032-.046.032h-.032-.351-.476l-1.542 2.144c-.264.348-.922.226-1.051-.192l-1.828-6.498-1.257 4.145c-.077.236-.325.396-.572.401h-.875-.176-.429-.158-.445l-1.702 5.633c-.085.305-.445.508-.747.417-.194-.056-.358-.222-.414-.417l-2.02-7.313-1.033 1.424c-.107.159-.287.25-.477.255h-.763-.382-.048c-.023 0-.032-.009-.032-.032v-1.121c0-.023.009-.048.032-.048h.048.382.477l1.542-2.112c.264-.347.921-.226 1.049.192l1.814 6.498 1.271-4.161c.077-.236.311-.412.557-.417h.891.158.429.176.429l1.716-5.601c.064-.229.278-.401.509-.433.039-.005.071-.016.112-.016" fill="#fff" fill-opacity=".854" transform="matrix(1.09091 0 0 1.09091 96.28 6.468)"/></g></svg>