<?xml version="1.0" encoding="UTF-8" standalone="no"?>
<svg
   xmlns:dc="http://purl.org/dc/elements/1.1/"
   xmlns:cc="http://creativecommons.org/ns#"
   xmlns:rdf="http://www.w3.org/1999/02/22-rdf-syntax-ns#"
   xmlns:svg="http://www.w3.org/2000/svg"
   xmlns="http://www.w3.org/2000/svg"
   xmlns:sodipodi="http://sodipodi.sourceforge.net/DTD/sodipodi-0.dtd"
   xmlns:inkscape="http://www.inkscape.org/namespaces/inkscape"
   id="svg2"
   height="15"
   width="15"
   version="1.0"
   inkscape:version="0.91 r13725"
   sodipodi:docname="toolbar.svg">
  <sodipodi:namedview
     pagecolor="#ffffff"
     bordercolor="#666666"
     borderopacity="1"
     objecttolerance="10"
     gridtolerance="10"
     guidetolerance="10"
     inkscape:pageopacity="0"
     inkscape:pageshadow="2"
     inkscape:window-width="1366"
     inkscape:window-height="687"
     id="namedview16"
     showgrid="false"
     inkscape:zoom="15.733333"
     inkscape:cx="7.5"
     inkscape:cy="7.5"
     inkscape:window-x="0"
     inkscape:window-y="0"
     inkscape:window-maximized="1"
     inkscape:current-layer="svg2" />
  <metadata
     id="metadata7">
    <rdf:RDF>
      <cc:Work
         rdf:about="">
        <dc:format>image/svg+xml</dc:format>
        <dc:type
           rdf:resource="http://purl.org/dc/dcmitype/StillImage" />
        <dc:title />
        <cc:license
           rdf:resource="http://creativecommons.org/licenses/by-nc-sa/3.0/" />
        <dc:creator>
          <cc:Agent>
            <dc:title>obnosim</dc:title>
          </cc:Agent>
        </dc:creator>
      </cc:Work>
      <cc:Work
         rdf:about="">
        <dc:format>image/svg+xml</dc:format>
        <dc:type
           rdf:resource="http://purl.org/dc/dcmitype/StillImage" />
      </cc:Work>
      <cc:License
         rdf:about="http://creativecommons.org/licenses/by-nc-sa/3.0/">
        <cc:permits
           rdf:resource="http://creativecommons.org/ns#Reproduction" />
        <cc:permits
           rdf:resource="http://creativecommons.org/ns#Distribution" />
        <cc:requires
           rdf:resource="http://creativecommons.org/ns#Notice" />
        <cc:requires
           rdf:resource="http://creativecommons.org/ns#Attribution" />
        <cc:prohibits
           rdf:resource="http://creativecommons.org/ns#CommercialUse" />
        <cc:permits
           rdf:resource="http://creativecommons.org/ns#DerivativeWorks" />
        <cc:requires
           rdf:resource="http://creativecommons.org/ns#ShareAlike" />
      </cc:License>
    </rdf:RDF>
  </metadata>
  <defs
     id="defs5">
    <style
       id="current-color-scheme"
       type="text/css">.ColorScheme-Text {
        color:#7B7C7E;
      }
      .ColorScheme-Background{
        color:#EFF0F1;
      }
      .ColorScheme-Highlight{
        color:#3DAEE6;
      }
      .ColorScheme-ViewText {
        color:#7B7C7E;
      }
      .ColorScheme-ViewBackground{
        color:#FCFCFC;
      }
      .ColorScheme-ViewHover {
        color:#3DAEE6;
      }
      .ColorScheme-ViewFocus{
        color:#1E92FF;
      }
      .ColorScheme-ButtonText {
        color:#7B7C7E;
      }
      .ColorScheme-ButtonBackground{
        color:#EFF0F1;
      }
      .ColorScheme-ButtonHover {
        color:#3DAEE6;
      }
      .ColorScheme-ButtonFocus{
        color:#1E92FF;
      }</style>
  </defs>
  <rect
     id="hint-tile-center"
     style="fill:#5284dd;fill-opacity:1"
     height="2.0771"
     width="2.0329"
     y="-5.3402"
     x="-3.7397" />
  <path
     id="center"
     style="opacity:1;color:#fcfcfc;fill:#000000;fill-opacity:0.85338348"
     d="m2.0001 2.0003v11h11v-11h-11z"
     class="ColorScheme-ViewBackground" />
  <path
     id="right"
     style="opacity:1;color:#fcfcfc;fill:#000000;fill-opacity:0.85338348"
     d="m13 2.0003v11h2c.000668-.0183 0-.0344 0-.0529v-10.894c0-.0185.000668-.03453 0-.05288h-2z"
     class="ColorScheme-ViewBackground" />
  <path
     id="top"
     style="opacity:1;color:#fcfcfc;fill:#000000;fill-opacity:0.85338348"
     d="m2.0001.00029778v2h11v-2c-.0041-.00067.0042 0 .0000010 0h-10.988c-.004 0-.008-.00067-.0119 0z"
     class="ColorScheme-ViewBackground" />
  <path
     id="left"
     style="opacity:1;color:#fcfcfc;fill:#000000;fill-opacity:0.85338348"
     d="m.000376 2.0003c-.00067.01835 0 .03439 0 .05288v10.894c0 .0185-.00067.0345 0 .0529h2v-11h-2z"
     class="ColorScheme-ViewBackground" />
  <path
     id="bottom"
     style="opacity:1;color:#fcfcfc;fill:#000000;fill-opacity:0.85338348"
     d="m2.0001 13v2h11v-1.9997z"
     class="ColorScheme-ViewBackground" />
  <path
     id="topleft"
     style="opacity:1;color:#fcfcfc;fill:#000000;fill-opacity:0.85338348"
     d="m.000043.00029778v2h1.9998v-2c-.000746-.00067.000763 0 0 0h-1.9976c-.000728 0-.0015-.00067-.0022 0z"
     class="ColorScheme-ViewBackground" />
  <path
     id="topright"
     style="opacity:1;color:#fcfcfc;fill:#000000;fill-opacity:0.85338348"
     d="m13 .00064278v1.9997h1.9998v-1.9997c-.000746-0.00067.000763 0 0 0h-1.9976c-.000728 0-.0015-0.00067-.0022 0z"
     class="ColorScheme-ViewBackground" />
  <path
     id="bottomright"
     style="opacity:1;color:#fcfcfc;fill:#000000;fill-opacity:0.85338348"
     d="m13 13v1.9997h1.9998v-1.9997c-.000746-.00067.000763 0 0 0h-1.9976c-.000728 0-.0015-.00067-.0022 0z"
     class="ColorScheme-ViewBackground" />
  <path
     id="bottomleft"
     style="opacity:1;color:#fcfcfc;fill:#000000;fill-opacity:0.85338348"
     d="m.000083 13v1.9997h1.9998v-1.9997c-.000746-.00067.000763 0 0 0h-1.9976c-.000728 0-.0015-.00067-.0022 0z"
     class="ColorScheme-ViewBackground" />
</svg>
