<svg xmlns="http://www.w3.org/2000/svg" viewBox="0 0 48 48"><defs><clipPath><path d="m0 706.47h1490.93v-706.47h-1490.93v706.47"/></clipPath><clipPath><path d="m22.2 686.12h1447.73v-667.19h-1447.73v667.19"/></clipPath><clipPath><path d="m69.63 12.145h-.052c-22.727-.292-46.47 4.077-46.709 4.122-2.424.451-4.946 2.974-5.397 5.397-.044.237-4.414 23.983-4.122 46.71-.292 22.777 4.078 46.523 4.122 46.761.451 2.423 2.974 4.945 5.398 5.398.237.044 23.982 4.413 46.709 4.121 22.779.292 46.524-4.077 46.761-4.121 2.423-.452 4.946-2.976 5.398-5.399.044-.236 4.413-23.981 4.121-46.709.292-22.777-4.077-46.523-4.121-46.761-.453-2.423-2.976-4.946-5.398-5.397-.238-.045-23.984-4.414-46.71-4.122"/></clipPath><linearGradient id="0" x1="341.19" y1="541.06" x2="341.5" y2="538.04" gradientUnits="userSpaceOnUse"><stop stop-color="#197cf1"/><stop offset="1" stop-color="#20bcfa"/></linearGradient><linearGradient id="1" x1="340.32" y1="555.57" x2="339.29" y2="525.1" gradientUnits="userSpaceOnUse"><stop stop-color="#3f4952"/><stop offset="1" stop-color="#67747f"/></linearGradient></defs><g transform="matrix(1.15114 0 0 1.15114-367.8-597.58)"><path d="m355.39 524.33h-11.773l-3.424 4.566-3.045-4.566h-11.819l-5.818 8.727v22.547h41.698v-23.455z" fill="url(#1)"/><path d="m345.8 536.26h-6.02l-1.752 2.336 1.136 1.664h9.616z" transform="matrix(1.95458 0 0 1.95458-320.67-523.83)" fill="url(#0)"/></g></svg>