<svg xmlns="http://www.w3.org/2000/svg" viewBox="0 0 22 22"><defs><clipPath><path d="m0 706.47h1490.93v-706.47h-1490.93v706.47"/></clipPath><clipPath><path d="m22.2 686.12h1447.73v-667.19h-1447.73v667.19"/></clipPath><clipPath><path fill="#f2f2f2" d="m7 1023.36h1v1h-1z"/></clipPath><clipPath><path fill="#00f" fill-opacity=".514" d="m-7 1024.36h34v34h-34z"/></clipPath><clipPath><path fill="#aade87" fill-opacity=".472" d="m-6 1028.36h32v32h-32z"/></clipPath></defs><g transform="matrix(-.74074 0 0-.74074 306.94 405.04)" fill="#fff"><g fill-rule="evenodd"><rect y="523.1" x="400.02" height="2.2" width="13" rx=".686" stroke-width=".167"/><rect y="528.55" x="400.02" height="2.2" width="13" rx=".686"/><g stroke-width=".167"><rect y="533.6" x="400.02" height="2.2" width="13" rx=".686"/><rect y="538.6" x="386.02" height="2.2" width="27" rx=".668"/></g></g><path d="m345.44 248.29l-194.29 194.28c-12.359 12.365-32.397 12.365-44.75 0-12.354-12.354-12.354-32.391 0-44.744l171.91-171.91-171.91-171.9c-12.354-12.359-12.354-32.394 0-44.748 12.354-12.359 32.391-12.359 44.75 0l194.29 194.28c6.177 6.18 9.262 14.271 9.262 22.366 0 8.099-3.091 16.196-9.267 22.373" transform="matrix(.00001.02656-.02656.00001 398.54 526.38)"/></g></svg>