<svg xmlns="http://www.w3.org/2000/svg" viewBox="0 0 22 22"><defs><clipPath><path d="m0 706.47h1490.93v-706.47h-1490.93v706.47"/></clipPath><clipPath><path d="m22.2 686.12h1447.73v-667.19h-1447.73v667.19"/></clipPath><clipPath><path fill="#f2f2f2" d="m7 1023.36h1v1h-1z"/></clipPath><clipPath><path fill="#00f" fill-opacity=".514" d="m-7 1024.36h34v34h-34z"/></clipPath><clipPath><path fill="#f2f2f2" d="m7 1023.36h1v1h-1z"/></clipPath><clipPath><path fill="#aade87" fill-opacity=".472" d="m-6 1028.36h32v32h-32z"/></clipPath></defs><g transform="matrix(1.02786 0 0 1.02786-401.88-532.33)" fill="#fff"><path d="m379.47 535.02q-1.072 0-1.801-.619-.715-.619-.715-1.636 0-1.1.853-1.719.853-.633 2.104-.633 1.114 0 1.829.413v-.192q0-.742-.509-1.183-.509-.454-1.251-.454-.55 0-1 .261-.44.261-.605.715l-1.155-.495q.234-.605.921-1.114.688-.523 1.815-.523 1.293 0 2.145.756.853.756.853 2.131v4.07h-1.21v-.935h-.055q-.756 1.155-2.214 1.155m.206-1.155q.784 0 1.416-.577.646-.591.646-1.389-.536-.44-1.609-.44-.921 0-1.389.399-.467.399-.467.935 0 .495.426.784.426.289.976.289" transform="translate(15.83-7.03)"/><path d="m377.01 542.8v-1.1l3.836-4.482h-3.726v-1.155h5.28v1.1l-3.836 4.482h3.891v1.155h-5.445" transform="translate(15.724-6.417)"/><path d="m345.44 248.29l-194.29 194.28c-12.359 12.365-32.397 12.365-44.75 0-12.354-12.354-12.354-32.391 0-44.744l171.91-171.91-171.91-171.9c-12.354-12.359-12.354-32.394 0-44.748 12.354-12.359 32.391-12.359 44.75 0l194.29 194.28c6.177 6.18 9.262 14.271 9.262 22.366 0 8.099-3.091 16.196-9.267 22.373" transform="matrix(-.00008-.02213.02213-.00008 400.63 538.53)"/></g></svg>