<?xml version="1.0" encoding="UTF-8" standalone="no"?>
<svg
   xmlns:dc="http://purl.org/dc/elements/1.1/"
   xmlns:cc="http://creativecommons.org/ns#"
   xmlns:rdf="http://www.w3.org/1999/02/22-rdf-syntax-ns#"
   xmlns:svg="http://www.w3.org/2000/svg"
   xmlns="http://www.w3.org/2000/svg"
   xmlns:sodipodi="http://sodipodi.sourceforge.net/DTD/sodipodi-0.dtd"
   xmlns:inkscape="http://www.inkscape.org/namespaces/inkscape"
   viewBox="0 0 22 22"
   id="svg2"
   version="1.1"
   inkscape:version="0.91 r13725"
   sodipodi:docname="appointment.svg">
  <metadata
     id="metadata10">
    <rdf:RDF>
      <cc:Work
         rdf:about="">
        <dc:format>image/svg+xml</dc:format>
        <dc:type
           rdf:resource="http://purl.org/dc/dcmitype/StillImage" />
        <dc:title></dc:title>
      </cc:Work>
    </rdf:RDF>
  </metadata>
  <defs
     id="defs8" />
  <sodipodi:namedview
     pagecolor="#ffffff"
     bordercolor="#666666"
     borderopacity="1"
     objecttolerance="10"
     gridtolerance="10"
     guidetolerance="10"
     inkscape:pageopacity="0"
     inkscape:pageshadow="2"
     inkscape:window-width="806"
     inkscape:window-height="480"
     id="namedview6"
     showgrid="false"
     inkscape:zoom="10.727273"
     inkscape:cx="11"
     inkscape:cy="11"
     inkscape:window-x="0"
     inkscape:window-y="0"
     inkscape:window-maximized="0"
     inkscape:current-layer="svg2" />
  <path
     d="m-39.693 3.799c-.808 0-1.577.16-2.314.477-1.465.628-2.538 1.694-3.168 3.162-.316.735-.469 1.504-.469 2.313 0 .808.153 1.585.469 2.32.63 1.468 1.703 2.539 3.168 3.168.738.316 1.506.477 2.314.477.808 0 1.582-.162 2.32-.477 1.478-.63 2.545-1.703 3.174-3.168.316-.738.477-1.512.477-2.32 0-.808-.16-1.575-.477-2.313-.629-1.465-1.696-2.532-3.174-3.162-.738-.315-1.512-.477-2.32-.477m-.369 2.186c.304 0 .553.249.553.553v3.785l2.146 1.678c.249.184.286.534.102.773-.101.138-.268.211-.434.211-.12 0-.239-.045-.34-.119l-2.367-1.842c-.129-.101-.213-.259-.213-.434v-4.053c0-.304.249-.553.553-.553"
     transform="matrix(1.34348 0 0 1.34195 64.3-2.102)"
     opacity=".99"
     fill="#ffffff"
     id="path4" />
</svg>
