<?xml version="1.0" encoding="UTF-8" standalone="no"?>
<svg
   xmlns:dc="http://purl.org/dc/elements/1.1/"
   xmlns:cc="http://creativecommons.org/ns#"
   xmlns:rdf="http://www.w3.org/1999/02/22-rdf-syntax-ns#"
   xmlns:svg="http://www.w3.org/2000/svg"
   xmlns="http://www.w3.org/2000/svg"
   xmlns:sodipodi="http://sodipodi.sourceforge.net/DTD/sodipodi-0.dtd"
   xmlns:inkscape="http://www.inkscape.org/namespaces/inkscape"
   viewBox="0 0 22 22"
   id="svg2"
   version="1.1"
   inkscape:version="0.91 r13725"
   sodipodi:docname="bookmark_add.svg">
  <metadata
     id="metadata10">
    <rdf:RDF>
      <cc:Work
         rdf:about="">
        <dc:format>image/svg+xml</dc:format>
        <dc:type
           rdf:resource="http://purl.org/dc/dcmitype/StillImage" />
        <dc:title></dc:title>
      </cc:Work>
    </rdf:RDF>
  </metadata>
  <defs
     id="defs8" />
  <sodipodi:namedview
     pagecolor="#ffffff"
     bordercolor="#666666"
     borderopacity="1"
     objecttolerance="10"
     gridtolerance="10"
     guidetolerance="10"
     inkscape:pageopacity="0"
     inkscape:pageshadow="2"
     inkscape:window-width="806"
     inkscape:window-height="480"
     id="namedview6"
     showgrid="false"
     inkscape:zoom="10.727273"
     inkscape:cx="11"
     inkscape:cy="11"
     inkscape:window-x="0"
     inkscape:window-y="0"
     inkscape:window-maximized="0"
     inkscape:current-layer="svg2" />
  <path
     d="m135.78 50.46c0-2.01-1.52-3.259-4.564-3.748l-40.897-5.947-18.331-37.07c-1.031-2.227-2.363-3.34-3.992-3.34-1.629 0-2.96 1.113-3.992 3.34l-18.332 37.07-40.899 5.947c-3.041.489-4.562 1.738-4.562 3.748 0 1.141.679 2.445 2.037 3.911l29.656 28.841-7.01 40.736c-.109.761-.163 1.305-.163 1.63 0 1.141.285 2.104.855 2.893.57.788 1.425 1.181 2.566 1.181.978 0 2.064-.324 3.259-.977l36.58-19.229 36.583 19.229c1.142.652 2.228.977 3.258.977 1.089 0 1.916-.392 2.486-1.181.569-.788.854-1.752.854-2.893 0-.706-.027-1.249-.082-1.63l-7.01-40.736 29.574-28.841c1.414-1.412 2.119-2.716 2.119-3.911"
     transform="matrix(.12375 0 0 .12375 2.59 2.958)"
     fill="#ffffff"
     id="path4" />
</svg>
