<?xml version="1.0" encoding="UTF-8" standalone="no"?>
<svg
   xmlns:dc="http://purl.org/dc/elements/1.1/"
   xmlns:cc="http://creativecommons.org/ns#"
   xmlns:rdf="http://www.w3.org/1999/02/22-rdf-syntax-ns#"
   xmlns:svg="http://www.w3.org/2000/svg"
   xmlns="http://www.w3.org/2000/svg"
   xmlns:sodipodi="http://sodipodi.sourceforge.net/DTD/sodipodi-0.dtd"
   xmlns:inkscape="http://www.inkscape.org/namespaces/inkscape"
   viewBox="0 0 22 22"
   id="svg2"
   version="1.1"
   inkscape:version="0.91 r13725"
   sodipodi:docname="button-cancel.svg">
  <metadata
     id="metadata82">
    <rdf:RDF>
      <cc:Work
         rdf:about="">
        <dc:format>image/svg+xml</dc:format>
        <dc:type
           rdf:resource="http://purl.org/dc/dcmitype/StillImage" />
        <dc:title></dc:title>
      </cc:Work>
    </rdf:RDF>
  </metadata>
  <sodipodi:namedview
     pagecolor="#ffffff"
     bordercolor="#666666"
     borderopacity="1"
     objecttolerance="10"
     gridtolerance="10"
     guidetolerance="10"
     inkscape:pageopacity="0"
     inkscape:pageshadow="2"
     inkscape:window-width="806"
     inkscape:window-height="480"
     id="namedview80"
     showgrid="false"
     inkscape:zoom="10.727273"
     inkscape:cx="11"
     inkscape:cy="11"
     inkscape:window-x="526"
     inkscape:window-y="63"
     inkscape:window-maximized="0"
     inkscape:current-layer="svg2" />
  <defs
     id="defs4">
    <clipPath
       id="clipPath6">
      <rect
         y="8"
         x="8"
         height="32"
         width="32"
         fill="none"
         rx="16"
         id="rect8" />
    </clipPath>
    <clipPath
       id="clipPath10">
      <rect
         y="507.8"
         x="392.57"
         height="32"
         width="32"
         fill="none"
         rx="16"
         id="rect12" />
    </clipPath>
    <clipPath
       id="clipPath14">
      <rect
         width="32"
         height="32"
         x="392.57"
         y="507.8"
         fill="none"
         rx="16"
         id="rect16" />
    </clipPath>
    <clipPath
       id="clipPath18">
      <rect
         y="507.8"
         x="392.57"
         height="32"
         width="32"
         fill="none"
         rx="16"
         id="rect20" />
    </clipPath>
    <clipPath
       id="clipPath22">
      <rect
         y="507.8"
         x="392.57"
         height="32"
         width="32"
         fill="none"
         rx="16"
         id="rect24" />
    </clipPath>
    <clipPath
       id="clipPath26">
      <rect
         width="32"
         height="32"
         x="392.57"
         y="507.8"
         fill="none"
         rx="16"
         id="rect28" />
    </clipPath>
    <clipPath
       id="clipPath30">
      <rect
         width="32"
         height="32"
         x="8"
         y="8"
         fill="none"
         rx="16"
         id="rect32" />
    </clipPath>
    <clipPath
       id="clipPath34">
      <rect
         width="32"
         height="32"
         x="392.57"
         y="507.8"
         fill="none"
         rx="16"
         id="rect36" />
    </clipPath>
    <clipPath
       id="clipPath38">
      <rect
         y="507.8"
         x="392.57"
         height="32"
         width="32"
         fill="none"
         rx="16"
         id="rect40" />
    </clipPath>
    <clipPath
       id="clipPath42">
      <rect
         y="507.8"
         x="392.57"
         height="32"
         width="32"
         fill="none"
         rx="16"
         id="rect44" />
    </clipPath>
    <clipPath
       id="clipPath46">
      <rect
         y="8"
         x="8"
         height="32"
         width="32"
         fill="none"
         rx="16"
         id="rect48" />
    </clipPath>
    <clipPath
       id="clipPath50">
      <path
         d="m0 706.47h1490.93v-706.47h-1490.93v706.47"
         id="path52" />
    </clipPath>
    <clipPath
       id="clipPath54">
      <path
         d="m22.2 686.12h1447.73v-667.19h-1447.73v667.19"
         id="path56" />
    </clipPath>
    <clipPath
       id="clipPath58">
      <rect
         y="507.8"
         x="392.57"
         height="32"
         width="32"
         fill="none"
         rx="16"
         id="rect60" />
    </clipPath>
    <clipPath
       id="clipPath62">
      <rect
         y="507.8"
         x="392.57"
         height="32"
         width="32"
         fill="none"
         rx="16"
         id="rect64" />
    </clipPath>
    <clipPath
       id="clipPath66">
      <rect
         y="507.8"
         x="392.57"
         height="32"
         width="32"
         fill="none"
         rx="16"
         id="rect68" />
    </clipPath>
    <clipPath
       id="clipPath70">
      <rect
         y="507.8"
         x="392.57"
         height="32"
         width="32"
         fill="none"
         rx="16"
         id="rect72" />
    </clipPath>
    <clipPath
       id="clipPath74">
      <rect
         y="8"
         x="8"
         height="32"
         width="32"
         fill="none"
         rx="16"
         id="rect76" />
    </clipPath>
  </defs>
  <path
     d="m562.2 609.8c-4.917 0-8.917 4-8.917 8.917 0 4.917 4 8.917 8.917 8.917 4.917 0 8.917-4 8.917-8.917 0-4.917-4-8.917-8.917-8.917m0 3.01c1.082 0 2.096.293 2.969.803l-8.07 8.07c-.51-.873-.803-1.887-.803-2.969 0-3.255 2.648-5.903 5.903-5.903m0 11.806c-1.082 0-2.096-.293-2.969-.803l8.07-8.07c.51.873.803 1.887.803 2.969 0 3.255-2.648 5.903-5.903 5.903"
     fill="#ffffff"
     transform="matrix(-.89713 0 0 .89713 515.36-544.07)"
     id="path78" />
</svg>
