<svg xmlns="http://www.w3.org/2000/svg" viewBox="0 0 22 22"><defs><clipPath><rect y="8" x="8" height="32" width="32" fill="none" rx="16"/></clipPath><clipPath><rect y="507.8" x="392.57" height="32" width="32" fill="none" rx="16"/></clipPath><clipPath><rect width="32" height="32" x="392.57" y="507.8" fill="none" rx="16"/></clipPath><clipPath><rect y="507.8" x="392.57" height="32" width="32" fill="none" rx="16"/></clipPath><clipPath><rect y="507.8" x="392.57" height="32" width="32" fill="none" rx="16"/></clipPath><clipPath><rect width="32" height="32" x="392.57" y="507.8" fill="none" rx="16"/></clipPath><clipPath><rect width="32" height="32" x="8" y="8" fill="none" rx="16"/></clipPath><clipPath><rect width="32" height="32" x="392.57" y="507.8" fill="none" rx="16"/></clipPath><clipPath><rect y="507.8" x="392.57" height="32" width="32" fill="none" rx="16"/></clipPath><clipPath><rect y="507.8" x="392.57" height="32" width="32" fill="none" rx="16"/></clipPath><clipPath><rect y="8" x="8" height="32" width="32" fill="none" rx="16"/></clipPath><clipPath><path d="m0 706.47h1490.93v-706.47h-1490.93v706.47"/></clipPath><clipPath><path d="m22.2 686.12h1447.73v-667.19h-1447.73v667.19"/></clipPath><clipPath><rect y="507.8" x="392.57" height="32" width="32" fill="none" rx="16"/></clipPath><clipPath><rect y="507.8" x="392.57" height="32" width="32" fill="none" rx="16"/></clipPath><clipPath><rect y="507.8" x="392.57" height="32" width="32" fill="none" rx="16"/></clipPath><clipPath><rect y="507.8" x="392.57" height="32" width="32" fill="none" rx="16"/></clipPath><clipPath><rect y="8" x="8" height="32" width="32" fill="none" rx="16"/></clipPath></defs><g transform="translate(-553.72-583.12)" fill="#fff"><path d="m563.29 612.65l-4 7h2v5l4-7h-2z" fill-rule="evenodd" transform="translate(7.437-22.529)"/><g color="#000"><rect y="598.12" x="556.72" height="1" width="7" rx=".5"/><rect y="592.12" x="556.72" height="1" width="8" rx=".5"/><rect y="586.12" x="556.72" height="1" width="10" rx=".5"/><rect y="588.12" x="556.72" height="1" width="6" rx=".5"/><rect y="594.12" x="556.72" height="1" width="4" rx=".5"/><rect y="600.12" x="556.72" height="1" width="2" rx=".5"/></g><rect width="2" height="1" x="563.72" y="601.12" rx=".5"/></g></svg>