<svg xmlns="http://www.w3.org/2000/svg" viewBox="0 0 22 22"><g transform="matrix(1.06667 0 0 1.06667-348.95-570.19)" fill="#fff"><path d="m569.29 610.65c-.552 0-1 .448-1 1 0 .552.448 1 1 1 .552 0 1-.448 1-1 0-.552-.448-1-1-1m0 4c-.552 0-1 .448-1 1 0 .552.448 1 1 1 .552 0 1-.448 1-1 0-.552-.448-1-1-1m0 4c-.552 0-1 .448-1 1 0 .552.448 1 1 1 .552 0 1-.448 1-1 0-.552-.448-1-1-1" color="#000" transform="translate(-225.29-73.29)"/><path d="m312.17 546.36l3.712-9.845h1.43l3.712 9.845h-1.402l-.949-2.668h-4.139l-.962 2.668h-1.402m2.791-3.85h3.272l-1.609-4.441h-.055l-1.609 4.441" transform="matrix(1.42204 0 0 1.42204-114.01-224.59)"/></g></svg>