<svg xmlns="http://www.w3.org/2000/svg" viewBox="0 0 22 22"><g fill="#f2f2f2"><path d="m2 2.998v.002 1 15h1 9v-1h-6v-6h9v-1h-9-1v7h-2v-14h3v4 1h8v-1-4h.293l2.707 2.707v.293 5h1v-5-.699h-.008l.008-.001-3.293-3.293-.008.001v-.001h-.699zm5 1h3.9v4h-3.9"/><path transform="matrix(.5381-.14418.14418.5381-247.1-229.76)" d="m347.2 549.76l-3.065.245.556 3.02-2.341-1.994-1.745 2.532-.245-3.066-3.02.556 1.994-2.341-2.532-1.745 3.065-.245-.556-3.02 2.341 1.994 1.745-2.532.245 3.066 3.02-.556-1.994 2.341z"/></g></svg>