<svg xmlns="http://www.w3.org/2000/svg" xmlns:xlink="http://www.w3.org/1999/xlink" viewBox="0 0 22 22"><defs><clipPath><rect y="507.8" x="392.57" height="32" width="32" fill="url(#2)" rx="16"/></clipPath><clipPath><rect y="507.8" x="392.57" height="32" width="32" fill="url(#2)" rx="16"/></clipPath><clipPath><rect y="507.8" x="392.57" height="32" width="32" fill="url(#2)" rx="16"/></clipPath><clipPath><rect y="507.8" x="392.57" height="32" width="32" fill="url(#2)" rx="16"/></clipPath><clipPath><rect y="8" x="8" height="32" width="32" fill="url(#1)" rx="16"/></clipPath><clipPath><rect width="32" height="32" x="392.57" y="507.8" fill="url(#2)" rx="16"/></clipPath><clipPath><rect y="8" x="8" height="32" width="32" fill="url(#1)" rx="16"/></clipPath><clipPath><rect y="507.8" x="392.57" height="32" width="32" fill="url(#2)" rx="16"/></clipPath><clipPath><rect y="507.8" x="392.57" height="32" width="32" fill="url(#2)" rx="16"/></clipPath><clipPath><rect y="507.8" x="392.57" height="32" width="32" fill="url(#2)" rx="16"/></clipPath><clipPath><rect width="32" height="32" x="392.57" y="507.8" fill="url(#2)" rx="16"/></clipPath><clipPath><rect width="32" height="32" x="392.57" y="507.8" fill="url(#2)" rx="16"/></clipPath><clipPath><rect width="32" height="32" x="392.57" y="507.8" fill="url(#2)" rx="16"/></clipPath><clipPath><rect width="32" height="32" x="392.57" y="507.8" fill="url(#2)" rx="16"/></clipPath><clipPath><rect width="32" height="32" x="392.57" y="507.8" fill="url(#2)" rx="16"/></clipPath><clipPath><rect y="507.8" x="392.57" height="32" width="32" fill="url(#2)" rx="16"/></clipPath><clipPath><rect width="32" height="32" x="8" y="8" fill="url(#1)" rx="16"/></clipPath><clipPath><rect width="32" height="32" x="8" y="8" fill="url(#1)" rx="16"/></clipPath><clipPath><rect y="507.8" x="392.57" height="32" width="32" fill="url(#2)" rx="16"/></clipPath><clipPath><rect y="507.8" x="392.57" height="32" width="32" fill="url(#2)" rx="16"/></clipPath><clipPath><rect width="32" height="32" x="392.57" y="507.8" fill="url(#2)" rx="16"/></clipPath><clipPath><rect width="32" height="32" x="392.57" y="507.8" fill="url(#2)" rx="16"/></clipPath><clipPath><rect width="32" height="32" x="8" y="8" fill="url(#1)" rx="16"/></clipPath><clipPath><path d="m-24 13c0 1.105-.672 2-1.5 2-.828 0-1.5-.895-1.5-2 0-1.105.672-2 1.5-2 .828 0 1.5.895 1.5 2" transform="matrix(15.33333 0 0 11.5 415-125.5)" fill="#1890d0"/></clipPath><clipPath><path d="m69.63 12.145h-.052c-22.727-.292-46.47 4.077-46.709 4.122-2.424.451-4.946 2.974-5.397 5.397-.044.237-4.414 23.983-4.122 46.71-.292 22.777 4.078 46.523 4.122 46.761.451 2.423 2.974 4.945 5.398 5.398.237.044 23.982 4.413 46.709 4.121 22.779.292 46.524-4.077 46.761-4.121 2.423-.452 4.946-2.976 5.398-5.399.044-.236 4.413-23.981 4.121-46.709.292-22.777-4.077-46.523-4.121-46.761-.453-2.423-2.976-4.946-5.398-5.397-.238-.045-23.984-4.414-46.71-4.122"/></clipPath><clipPath><rect width="32" height="32" x="8" y="8" fill="url(#1)" rx="16"/></clipPath><clipPath><rect width="32" height="32" x="392.57" y="507.8" fill="url(#2)" rx="16"/></clipPath><clipPath><rect y="507.8" x="392.57" height="32" width="32" fill="url(#2)" rx="16"/></clipPath><clipPath><rect y="507.8" x="392.57" height="32" width="32" fill="url(#2)" rx="16"/></clipPath><clipPath><rect y="8" x="8" height="32" width="32" fill="url(#1)" rx="16"/></clipPath><clipPath><rect width="32" height="32" x="392.57" y="507.8" fill="url(#2)" rx="16"/></clipPath><clipPath><rect y="8" x="8" height="32" width="32" fill="url(#1)" rx="16"/></clipPath><clipPath><rect width="32" height="32" x="392.57" y="507.8" fill="url(#2)" rx="16"/></clipPath><clipPath><rect width="32" height="32" x="392.57" y="507.8" fill="url(#2)" rx="16"/></clipPath><linearGradient id="0"><stop stop-color="#2a2c2f"/><stop offset="1" stop-color="#424649"/></linearGradient><linearGradient gradientUnits="userSpaceOnUse" x1="398.31" x2="409.33"><stop stop-color="#b9b9b9"/><stop offset="1" stop-color="#d1d1d1"/></linearGradient><linearGradient y2="8" x2="0" y1="40" gradientUnits="userSpaceOnUse" id="1" xlink:href="#0"/><linearGradient y2="507.8" x2="0" y1="539.8" gradientUnits="userSpaceOnUse" id="2" xlink:href="#0"/></defs><path d="m4 3c-.554 0-1 .446-1 1v14c0 .554.446 1 1 1h14c.554 0 1-.446 1-1v-14c0-.554-.446-1-1-1h-14m6.994 3c.822 0 1.489.245 2 .732.515.479.773 1.092.773 1.842 0 .325-.086.656-.258.99-.172.334-.325.572-.461.717-.126.136-.306.312-.541.529l-.068.068c-.551.497-.826.993-.826 1.49v.541h-1.273v-.637c0-.407.084-.754.256-1.043.172-.298.475-.645.908-1.043.244-.226.416-.394.516-.502.108-.117.211-.276.311-.475.108-.208.164-.42.164-.637 0-.416-.137-.749-.408-1-.262-.253-.626-.379-1.096-.379-.777 0-1.311.434-1.6 1.301l-1.166-.488c.19-.515.516-.976.977-1.383.47-.416 1.066-.623 1.789-.623m-.014 8.156c.262 0 .479.091.65.271.181.181.27.397.27.65 0 .253-.089.47-.27.65-.172.181-.388.271-.65.271-.262 0-.483-.091-.664-.271-.172-.181-.258-.397-.258-.65 0-.253.086-.47.258-.65.181-.181.402-.271.664-.271" transform="translate(0-.002)" fill="#fff" fill-rule="evenodd"/></svg>