<svg xmlns="http://www.w3.org/2000/svg" xmlns:xlink="http://www.w3.org/1999/xlink" viewBox="0 0 22 22"><defs><clipPath><rect y="507.8" x="392.57" height="32" width="32" fill="url(#2)" rx="16"/></clipPath><clipPath><rect y="507.8" x="392.57" height="32" width="32" fill="url(#2)" rx="16"/></clipPath><clipPath><rect y="507.8" x="392.57" height="32" width="32" fill="url(#2)" rx="16"/></clipPath><clipPath><rect y="507.8" x="392.57" height="32" width="32" fill="url(#2)" rx="16"/></clipPath><clipPath><rect y="8" x="8" height="32" width="32" fill="url(#1)" rx="16"/></clipPath><clipPath><rect width="32" height="32" x="392.57" y="507.8" fill="url(#2)" rx="16"/></clipPath><clipPath><rect y="8" x="8" height="32" width="32" fill="url(#1)" rx="16"/></clipPath><clipPath><rect y="507.8" x="392.57" height="32" width="32" fill="url(#2)" rx="16"/></clipPath><clipPath><rect y="507.8" x="392.57" height="32" width="32" fill="url(#2)" rx="16"/></clipPath><clipPath><rect y="507.8" x="392.57" height="32" width="32" fill="url(#2)" rx="16"/></clipPath><clipPath><rect width="32" height="32" x="392.57" y="507.8" fill="url(#2)" rx="16"/></clipPath><clipPath><rect width="32" height="32" x="392.57" y="507.8" fill="url(#2)" rx="16"/></clipPath><clipPath><rect width="32" height="32" x="392.57" y="507.8" fill="url(#2)" rx="16"/></clipPath><clipPath><rect width="32" height="32" x="392.57" y="507.8" fill="url(#2)" rx="16"/></clipPath><clipPath><rect width="32" height="32" x="392.57" y="507.8" fill="url(#2)" rx="16"/></clipPath><clipPath><rect y="507.8" x="392.57" height="32" width="32" fill="url(#2)" rx="16"/></clipPath><clipPath><rect width="32" height="32" x="8" y="8" fill="url(#1)" rx="16"/></clipPath><clipPath><rect width="32" height="32" x="8" y="8" fill="url(#1)" rx="16"/></clipPath><clipPath><rect y="507.8" x="392.57" height="32" width="32" fill="url(#2)" rx="16"/></clipPath><clipPath><rect y="507.8" x="392.57" height="32" width="32" fill="url(#2)" rx="16"/></clipPath><clipPath><rect width="32" height="32" x="392.57" y="507.8" fill="url(#2)" rx="16"/></clipPath><clipPath><rect width="32" height="32" x="392.57" y="507.8" fill="url(#2)" rx="16"/></clipPath><clipPath><rect width="32" height="32" x="8" y="8" fill="url(#1)" rx="16"/></clipPath><clipPath><path d="m-24 13c0 1.105-.672 2-1.5 2-.828 0-1.5-.895-1.5-2 0-1.105.672-2 1.5-2 .828 0 1.5.895 1.5 2" transform="matrix(15.33333 0 0 11.5 415-125.5)" fill="#1890d0"/></clipPath><clipPath><path d="m69.63 12.145h-.052c-22.727-.292-46.47 4.077-46.709 4.122-2.424.451-4.946 2.974-5.397 5.397-.044.237-4.414 23.983-4.122 46.71-.292 22.777 4.078 46.523 4.122 46.761.451 2.423 2.974 4.945 5.398 5.398.237.044 23.982 4.413 46.709 4.121 22.779.292 46.524-4.077 46.761-4.121 2.423-.452 4.946-2.976 5.398-5.399.044-.236 4.413-23.981 4.121-46.709.292-22.777-4.077-46.523-4.121-46.761-.453-2.423-2.976-4.946-5.398-5.397-.238-.045-23.984-4.414-46.71-4.122"/></clipPath><clipPath><rect width="32" height="32" x="8" y="8" fill="url(#1)" rx="16"/></clipPath><clipPath><rect width="32" height="32" x="392.57" y="507.8" fill="url(#2)" rx="16"/></clipPath><clipPath><rect y="507.8" x="392.57" height="32" width="32" fill="url(#2)" rx="16"/></clipPath><clipPath><rect y="507.8" x="392.57" height="32" width="32" fill="url(#2)" rx="16"/></clipPath><clipPath><rect y="8" x="8" height="32" width="32" fill="url(#1)" rx="16"/></clipPath><clipPath><rect width="32" height="32" x="392.57" y="507.8" fill="url(#2)" rx="16"/></clipPath><clipPath><rect y="8" x="8" height="32" width="32" fill="url(#1)" rx="16"/></clipPath><clipPath><rect width="32" height="32" x="392.57" y="507.8" fill="url(#2)" rx="16"/></clipPath><clipPath><rect width="32" height="32" x="392.57" y="507.8" fill="url(#2)" rx="16"/></clipPath><linearGradient id="0"><stop stop-color="#2a2c2f"/><stop offset="1" stop-color="#424649"/></linearGradient><linearGradient gradientUnits="userSpaceOnUse" x1="398.31" x2="409.33"><stop stop-color="#b9b9b9"/><stop offset="1" stop-color="#d1d1d1"/></linearGradient><linearGradient y2="8" x2="0" y1="40" gradientUnits="userSpaceOnUse" id="1" xlink:href="#0"/><linearGradient y2="507.8" x2="0" y1="539.8" gradientUnits="userSpaceOnUse" id="2" xlink:href="#0"/></defs><path d="m4 3c-.554 0-1 .446-1 1v14c0 .554.446 1 1 1h14c.554 0 1-.446 1-1v-14c0-.554-.446-1-1-1h-14m4.436 3.4c.646 0 1.17.524 1.17 1.17 0 .646-.524 1.17-1.17 1.17-.646 0-1.17-.524-1.17-1.17 0-.646.524-1.17 1.17-1.17m5.307 0c.646 0 1.17.524 1.17 1.17 0 .646-.524 1.17-1.17 1.17-.646 0-1.172-.524-1.172-1.17 0-.646.526-1.17 1.172-1.17m-6.967 5.314c.159-.013.35.006.578.066 0 0 3.235 1.754 7.293 0 1.823-.484 1.266 1.674 1.266 1.674-1.042 3.2-4.912 2.939-4.912 2.939 0 0-3.87.26-4.912-2.939 0 0-.427-1.651.688-1.74" transform="translate(0-.002)" fill="#fff" fill-rule="evenodd"/></svg>