<svg xmlns="http://www.w3.org/2000/svg" viewBox="0 0 22 22"><g transform="translate(-326-534.36)" fill-rule="evenodd"><g transform="translate(326 534.36)"><path d="M6.75 3A4.75 8 0 0 0 2 11H3A3.75 7 0 0 1 6.75 4 3.75 7 0 0 1 10.5 11H11.5A4.75 8 0 0 0 6.75 3M10.541016 12A4.75 8 0 0 0 15.25 19 4.75 8 0 0 0 19.957031 12H18.957A3.75 7 0 0 1 15.25 18 3.75 7 0 0 1 11.542969 12H10.541" mix-blend-mode="normal" solid-color="#000000" color-interpolation-filters="linearRGB" color="#000" image-rendering="auto" color-rendering="auto" isolation="auto" color-interpolation="sRGB" solid-opacity="1" fill="#f2f2f2" shape-rendering="auto"/><path d="m1 10v3h3v-3h-3m1 1h1v1h-1v-1" fill="#1d99f3"/></g><g fill="#1d99f3"><path d="m335.5 544.36v3h3v-3h-3m1 1h1v1h-1v-1"/><path d="m344 544.36v3h3v-3h-3m1 1h1v1h-1v-1"/></g></g></svg>