<svg xmlns="http://www.w3.org/2000/svg" viewBox="0 0 24 24"><defs><clipPath><path d="m0 706.47h1490.93v-706.47h-1490.93v706.47"/></clipPath><clipPath><path d="m22.2 686.12h1447.73v-667.19h-1447.73v667.19"/></clipPath><clipPath><path fill="#f2f2f2" d="m7 1023.36h1v1h-1z"/></clipPath><clipPath><path fill="#00f" fill-opacity=".514" d="m-7 1024.36h34v34h-34z"/></clipPath><clipPath><path fill="#aade87" fill-opacity=".472" d="m-6 1028.36h32v32h-32z"/></clipPath></defs><path transform="translate(1 .998)" d="m3 3v16h1 6v-1h-6v-14h8v2 1 4h1v-3.861c1.726.444 3 1.993 3 3.861v1h-5v1 6h1 7v-1-5-1h-2v-1c0-2.427-1.713-4.439-4-4.9v-3.1h-9-1m9 10h6v5h-6v-5z" fill="#fff"/></svg>