<svg xmlns="http://www.w3.org/2000/svg" viewBox="0 0 24 24"><defs><clipPath><path fill="#00f" fill-opacity=".514" d="m-7 1024.36h34v34h-34z"/></clipPath><clipPath><path fill="#aade87" fill-opacity=".472" d="m-6 1028.36h32v32h-32z"/></clipPath></defs><path transform="translate(0-.002)" d="m4 4v16h16v-16h-16m1 1h2v2h-2v-2m3 0h2v2h-2v-2zm3 0h2v2h-2v-2m3 0h2v2h-2v-2m3 0h2v2h-2v-2m-12 3h2v2h-2v-2m3 0h2v2h-2v-2zm3 0h2v2h-2v-2m3 0h2v2h-2v-2m3 0h2v2h-2v-2m-12 3h2v2h-2v-2m3 0h2v2h-2v-2m3 0h2v2h-2v-2m3 0h2v2h-2v-2m3 0h2v2h-2v-2m-12 3h2v2h-2v-2m3 0h2v2h-2v-2m3 0h2v2h-2v-2m3 0h2v2h-2v-2m3 0h2v2h-2v-2m-12 3h2v2h-2v-2m3 0h2v2h-2v-2m3 0h2v2h-2v-2m3 0h2v2h-2v-2m3 0h2v2h-2v-2" fill="#fff"/></svg>