<svg xmlns="http://www.w3.org/2000/svg" viewBox="0 0 22 22"><defs><clipPath><path fill="#00f" fill-opacity=".514" d="m-7 1024.36h34v34h-34z"/></clipPath><clipPath><path fill="#aade87" fill-opacity=".472" d="m-6 1028.36h32v32h-32z"/></clipPath><clipPath><path d="m22.2 686.12h1447.73v-667.19h-1447.73v667.19"/></clipPath><clipPath><path fill="#aade87" fill-opacity=".472" d="m-6 1028.36h32v32h-32z"/></clipPath><clipPath><path fill="#00f" fill-opacity=".514" d="m-7 1024.36h34v34h-34z"/></clipPath><clipPath><path d="m0 706.47h1490.93v-706.47h-1490.93v706.47"/></clipPath></defs><g transform="matrix(.95675 0 0 .95675-319.8-509.2)" fill="#fff"><path d="m257.75 113.71c-74.42 0-140.28 35.892-181.77 91.16l-75.978-75.995v242.61h242.61l-82.54-82.53c21.931-66.52 84.47-114.58 158.33-114.58 92.16 0 166.79 74.69 166.79 166.8.0001-125.63-101.82-227.45-227.43-227.45" transform="matrix(0 .02061-.02061 0 356.86 542.09)"/><path d="m15 28l-5 2 6 2 5-2zm-5 3v6l5 2v-6zm11 0l-5 2v6l5-2z" transform="translate(327 507.36)"/></g></svg>