<svg xmlns="http://www.w3.org/2000/svg" viewBox="0 0 22 22"><defs><clipPath><path fill="#f2f2f2" d="m7 1023.36h1v1h-1z"/></clipPath><clipPath><path d="m22.2 686.12h1447.73v-667.19h-1447.73v667.19"/></clipPath><clipPath><path fill="#f2f2f2" d="m7 1023.36h1v1h-1z"/></clipPath><clipPath><path d="m0 706.47h1490.93v-706.47h-1490.93v706.47"/></clipPath><clipPath><path fill="#aade87" fill-opacity=".472" d="m-6 1028.36h32v32h-32z"/></clipPath><clipPath><path fill="#00f" fill-opacity=".514" d="m-7 1024.36h34v34h-34z"/></clipPath><clipPath><path fill="#f2f2f2" d="m7 1023.36h1v1h-1z"/></clipPath></defs><g transform="matrix(.9993 0 0 .9993-.02-1029.66)" fill="#fff"><g color="#000"><rect y="1046.36" x="7" height="1" width="7" rx=".5"/><rect y="1048.36" x="14" height="1" width="1" rx=".5"/><rect y="1048.36" x="12" height="1" width="1" rx=".5"/><rect y="1048.36" x="10" height="1" width="1" rx=".5"/><rect y="1040.36" x="7" height="1" width="8" rx=".5"/><rect y="1034.36" x="7" height="1" width="10" rx=".5"/><rect y="1036.36" x="18" height="1" width="1" rx=".5"/><rect y="1036.36" x="16" height="1" width="1" rx=".5"/><rect y="1036.36" x="14" height="1" width="1" rx=".5"/><rect y="1042.36" x="16" height="1" width="1" rx=".5"/><rect y="1042.36" x="14" height="1" width="1" rx=".5"/><rect y="1042.36" x="12" height="1" width="1" rx=".5"/><rect y="1036.36" x="7" height="1" width="6" rx=".5"/><rect y="1042.36" x="7" height="1" width="4" rx=".5"/><rect y="1048.36" x="7" height="1" width="2" rx=".5"/></g><path d="m4.708 1037.36h-.535v-3.317l-.774.338-.204-.454 1.17-.547h.343v3.981"/><path d="m5.486 1043.38h-2.43v-.513q1.093-1.098 1.399-1.432.273-.307.368-.463.095-.162.095-.396 0-.24-.19-.424-.19-.184-.507-.184-.29 0-.468.173-.178.167-.229.362l-.468-.189q.095-.301.396-.569.301-.267.78-.267.53 0 .87.323.34.323.34.775 0 .557-.608 1.193l-1.115 1.12h1.767v.491"/><path d="m4.368 1049.39q-.407 0-.79-.254-.383-.254-.531-.755l.495-.206q.094.33.312.513.218.183.513.183.33 0 .566-.206.242-.206.242-.513 0-.301-.248-.507-.242-.206-.584-.206h-.348v-.507h.307q.318 0 .525-.177.212-.177.212-.472 0-.277-.206-.436-.2-.159-.501-.159-.519 0-.702.525l-.501-.212q.118-.324.419-.578.301-.253.784-.253.542 0 .902.318.36.312.36.796 0 .584-.542.867v.024q.295.124.483.377.195.254.195.601 0 .536-.395.89-.395.348-.967.348"/></g></svg>