<svg xmlns="http://www.w3.org/2000/svg" viewBox="0 0 22 22"><defs><clipPath><rect y="507.8" x="392.57" height="32" width="32" fill="none" rx="16"/></clipPath><clipPath><rect y="507.8" x="392.57" height="32" width="32" fill="none" rx="16"/></clipPath><clipPath><path d="m69.63 12.145h-.052c-22.727-.292-46.47 4.077-46.709 4.122-2.424.451-4.946 2.974-5.397 5.397-.044.237-4.414 23.983-4.122 46.71-.292 22.777 4.078 46.523 4.122 46.761.451 2.423 2.974 4.945 5.398 5.398.237.044 23.982 4.413 46.709 4.121 22.779.292 46.524-4.077 46.761-4.121 2.423-.452 4.946-2.976 5.398-5.399.044-.236 4.413-23.981 4.121-46.709.292-22.777-4.077-46.523-4.121-46.761-.453-2.423-2.976-4.946-5.398-5.397-.238-.045-23.984-4.414-46.71-4.122"/></clipPath><clipPath><rect y="507.8" x="392.57" height="32" width="32" fill="none" rx="16"/></clipPath><clipPath><rect y="507.8" x="392.57" height="32" width="32" fill="none" rx="16"/></clipPath><clipPath><rect y="507.8" x="392.57" height="32" width="32" fill="none" rx="16"/></clipPath><clipPath><rect y="8" x="8" height="32" width="32" fill="none" rx="16"/></clipPath><clipPath><rect width="32" height="32" x="8" y="8" fill="none" rx="16"/></clipPath><clipPath><path fill="#aade87" fill-opacity=".472" d="m-6 1028.36h32v32h-32z"/></clipPath><clipPath><path fill="#00f" fill-opacity=".514" d="m-7 1024.36h34v34h-34z"/></clipPath><clipPath><rect width="32" height="32" x="392.57" y="507.8" fill="none" rx="16"/></clipPath><clipPath><path fill="#f2f2f2" d="m7 1023.36h1v1h-1z"/></clipPath><clipPath><path fill="#f2f2f2" d="m7 1023.36h1v1h-1z"/></clipPath><clipPath><rect width="32" height="32" x="392.57" y="507.8" fill="none" rx="16"/></clipPath><clipPath><path fill="#f2f2f2" d="m7 1023.36h1v1h-1z"/></clipPath><clipPath><rect width="32" height="32" x="392.57" y="507.8" fill="none" rx="16"/></clipPath><clipPath><rect y="507.8" x="392.57" height="32" width="32" fill="none" rx="16"/></clipPath><clipPath><path fill="#00f" fill-opacity=".514" d="m-7 1024.36h34v34h-34z"/></clipPath><clipPath><path fill="#aade87" fill-opacity=".472" d="m-6 1028.36h32v32h-32z"/></clipPath><clipPath><rect y="8" x="8" height="32" width="32" fill="none" rx="16"/></clipPath><clipPath><path fill="#00f" fill-opacity=".514" d="m-7 1024.36h34v34h-34z"/></clipPath><clipPath><path fill="#f2f2f2" d="m7 1023.36h1v1h-1z"/></clipPath><clipPath><path fill="#f2f2f2" d="m7 1023.36h1v1h-1z"/></clipPath><clipPath><path fill="#f2f2f2" d="m7 1023.36h1v1h-1z"/></clipPath><clipPath><path fill="#aade87" fill-opacity=".472" d="m-6 1028.36h32v32h-32z"/></clipPath><clipPath><rect y="507.8" x="392.57" height="32" width="32" fill="none" rx="16"/></clipPath><clipPath><rect y="507.8" x="392.57" height="32" width="32" fill="none" rx="16"/></clipPath><clipPath><path fill="#00f" fill-opacity=".514" d="m-7 1024.36h34v34h-34z"/></clipPath><clipPath><rect y="507.8" x="392.57" height="32" width="32" fill="none" rx="16"/></clipPath><clipPath><rect y="8" x="8" height="32" width="32" fill="none" rx="16"/></clipPath><clipPath><path fill="#aade87" fill-opacity=".472" d="m-6 1028.36h32v32h-32z"/></clipPath><clipPath><path d="m22.2 686.12h1447.73v-667.19h-1447.73v667.19"/></clipPath><clipPath><path d="m0 706.47h1490.93v-706.47h-1490.93v706.47"/></clipPath></defs><g transform="matrix(1.20295 0 0 1.20295-665.67-699.87)" fill="#fff"><path d="m14.09 3.01c-.066.016-.139.053-.215.111l-3.568 2.758c-.304.235-.853.332-1.221.217l-4.316-1.348c-.367-.115-.559.085-.428.443l1.545 4.215c.131.359.056.906-.168 1.217l-2.627 3.65c-.224.311-.092.554.293.541l4.523-.154c.385-.013.886.228 1.115.535l2.691 3.604c.229.307.505.257.611-.109l1.25-4.309c.106-.367.492-.766.857-.887l4.291-1.424c.365-.121.403-.394.084-.607l-3.75-2.51c-.319-.214-.583-.7-.586-1.082l-.039-4.484c-.003-.286-.145-.424-.344-.377m-3.756 5.227h.783c.033 0 .061.009.086.029.025.02.039.046.041.076l.098.648c.115.038.222.082.318.131l.5-.379c.021-.021.049-.031.084-.031.03 0 .06.012.088.035.303.28.497.48.582.6.016.019.025.045.025.078 0 .028-.001.054-.029.08-.035.049-.095.127-.18.234-.085.107-.147.189-.189.248.061.117.109.233.145.346l.645.1c.031.005.055.018.074.043.019.025.027.053.027.084v.781c0 .028-.009.056-.027.082-.019.026-.042.04-.07.045l-.652.1c-.045.127-.09.233-.137.32.082.117.208.28.377.486.024.028.035.057.035.088 0 .031-.001.059-.031.082-.063.087-.18.214-.35.381-.169.167-.28.25-.332.25-.028 0-.057-.012-.09-.033l-.486-.379c-.103.054-.212.098-.322.133-.038.32-.071.539-.102.656-.016.066-.059.098-.127.098h-.783c-.033 0-.061-.009-.086-.029-.025-.02-.039-.046-.041-.076l-.098-.648c-.115-.038-.22-.082-.316-.131l-.498.377c-.023.021-.053.033-.088.033-.033 0-.062-.013-.088-.039-.296-.268-.49-.465-.582-.592-.016-.023-.023-.051-.023-.082 0-.028.009-.054.027-.08.035-.049.095-.127.18-.234.085-.107.147-.191.189-.25-.063-.117-.112-.233-.145-.348l-.645-.096c-.031-.005-.055-.018-.074-.043-.019-.025-.027-.053-.027-.084v-.781c0-.028.009-.056.027-.082.019-.026.043-.04.068-.045l.654-.1c.033-.108.08-.216.139-.324-.094-.134-.22-.296-.377-.486-.023-.028-.035-.056-.035-.084 0-.023.001-.051.031-.082.061-.085.175-.211.346-.379.17-.168.282-.252.334-.252.031 0 .061.012.092.035l.486.377c.103-.054.21-.098.32-.133.038-.32.071-.539.102-.656.016-.066.059-.098.127-.098" transform="matrix(.83132 0 0 .8313 553.37 581.79)"/><path d="m117.18 31.592c-5.595-9.586-13.185-17.18-22.771-22.771-9.588-5.595-20.06-8.392-31.408-8.392-11.352 0-21.822 2.797-31.408 8.392-9.587 5.594-17.18 13.184-22.772 22.771-5.596 9.587-8.393 20.06-8.393 31.408 0 11.352 2.798 21.82 8.392 31.408 5.595 9.585 13.185 17.18 22.772 22.771 9.587 5.595 20.06 8.392 31.408 8.392 11.352 0 21.822-2.797 31.408-8.392 9.586-5.594 17.18-13.185 22.771-22.771 5.594-9.587 8.391-20.06 8.391-31.408 0-11.352-2.797-21.822-8.39-31.408" transform="matrix(.01348 0 0 .01348 561.43 590.06)"/></g></svg>