<svg xmlns="http://www.w3.org/2000/svg" viewBox="0 0 22 22"><defs><clipPath><rect width="32" height="32" x="8" y="8" fill="none" rx="16"/></clipPath><clipPath><rect y="507.8" x="392.57" height="32" width="32" fill="none" rx="16"/></clipPath><clipPath><rect width="32" height="32" x="392.57" y="507.8" fill="none" rx="16"/></clipPath><clipPath><rect width="32" height="32" x="392.57" y="507.8" fill="none" rx="16"/></clipPath><clipPath><rect width="32" height="32" x="392.57" y="507.8" fill="none" rx="16"/></clipPath><clipPath><rect width="32" height="32" x="392.57" y="507.8" fill="none" rx="16"/></clipPath><clipPath><rect y="507.8" x="392.57" height="32" width="32" fill="none" rx="16"/></clipPath><clipPath><rect width="32" height="32" x="392.57" y="507.8" fill="none" rx="16"/></clipPath><clipPath><rect y="507.8" x="392.57" height="32" width="32" fill="none" rx="16"/></clipPath><clipPath><rect width="32" height="32" x="392.57" y="507.8" fill="none" rx="16"/></clipPath><clipPath><rect y="8" x="8" height="32" width="32" fill="none" rx="16"/></clipPath><clipPath><rect width="32" height="32" x="8" y="8" fill="none" rx="16"/></clipPath><clipPath><path d="m0 706.47h1490.93v-706.47h-1490.93v706.47"/></clipPath><clipPath><rect width="32" height="32" x="392.57" y="507.8" fill="none" rx="16"/></clipPath><clipPath><path fill="#f2f2f2" d="m7 1023.36h1v1h-1z"/></clipPath><clipPath><path fill="#00f" fill-opacity=".514" d="m-7 1024.36h34v34h-34z"/></clipPath><clipPath><path fill="#aade87" fill-opacity=".472" d="m-6 1028.36h32v32h-32z"/></clipPath><clipPath><path d="m22.2 686.12h1447.73v-667.19h-1447.73v667.19"/></clipPath><clipPath><rect width="32" height="32" x="392.57" y="507.8" fill="none" rx="16"/></clipPath><clipPath><path fill="#f2f2f2" d="m7 1023.36h1v1h-1z"/></clipPath><clipPath><rect width="32" height="32" x="392.57" y="507.8" fill="none" rx="16"/></clipPath><clipPath><path fill="#f2f2f2" d="m7 1023.36h1v1h-1z"/></clipPath><clipPath><rect width="32" height="32" x="8" y="8" fill="none" rx="16"/></clipPath></defs><g transform="matrix(.97085 0 0 .97085-260.83-512.82)" fill="#fff"><path d="m8.939 3c-4.283 0-7.766 2.922-7.766 6.514 0 1.948 1.011 3.76 2.783 5 .168 1.015-.414 2.077-.42 2.088-.133.235-.124.523.025.75.134.203.359.322.602.322.026 0 .052-.0001.078-.004.755-.084 1.972-.657 3.621-1.705.355.041.716.063 1.076.063 4.283 0 7.768-2.922 7.768-6.514 0-3.591-3.485-6.514-7.768-6.514m-.752 3.939h.971v1.941h1.943v.971h-1.943v1.941h-.971v-1.941h-1.941v-.971h1.941v-1.941" transform="matrix(1.03003 0 0 1.03003 268.66 528.21)"/><path d="m740.86 187.66c0-12.912 12.526-23.416 27.922-23.416 15.397 0 27.923 10.505 27.923 23.416 0 12.912-12.526 23.416-27.923 23.416-1.295 0-2.594-.075-3.871-.223-5.93 3.767-10.308 5.829-13.02 6.131-.094.001-.189.016-.282.016-.872 0-1.678-.434-2.159-1.163-.537-.815-.572-1.848-.094-2.692.022-.04 2.116-3.861 1.512-7.51-6.37-4.458-10.01-10.973-10.01-17.975" transform="matrix(-.15164 0 0 .15164 402.46 514.88)"/></g></svg>