<svg xmlns="http://www.w3.org/2000/svg" viewBox="0 0 22 22"><defs><clipPath><path fill="#f2f2f2" d="m7 1023.36h1v1h-1z"/></clipPath><clipPath><path d="m69.63 12.145h-.052c-22.727-.292-46.47 4.077-46.709 4.122-2.424.451-4.946 2.974-5.397 5.397-.044.237-4.414 23.983-4.122 46.71-.292 22.777 4.078 46.523 4.122 46.761.451 2.423 2.974 4.945 5.398 5.398.237.044 23.982 4.413 46.709 4.121 22.779.292 46.524-4.077 46.761-4.121 2.423-.452 4.946-2.976 5.398-5.399.044-.236 4.413-23.981 4.121-46.709.292-22.777-4.077-46.523-4.121-46.761-.453-2.423-2.976-4.946-5.398-5.397-.238-.045-23.984-4.414-46.71-4.122"/></clipPath></defs><path d="m4.6 3c-.443 0-.799.358-.799.801v14.398c0 .443.356.801.799.801h12.801c.443 0 .799-.358.799-.801v-14.398c0-.443-.356-.801-.799-.801h-12.801m6.201 4.199c.96 0 1.757.282 2.391.844.633.562.949 1.353.949 2.375v4.537h-1.348v-1.043h-.063c-.562.858-1.384 1.287-2.467 1.287-.797 0-1.466-.23-2.01-.689-.531-.46-.797-1.066-.797-1.822 0-.817.318-1.456.951-1.916.633-.47 1.414-.705 2.344-.705.828 0 1.508.152 2.039.459v-.215c0-.552-.19-.991-.568-1.318-.378-.337-.843-.504-1.395-.504-.409 0-.782.097-1.119.291-.327.194-.551.46-.674.797l-1.287-.553c.174-.45.516-.862 1.027-1.24.511-.388 1.186-.584 2.023-.584m.199 4.03c-.685 0-1.201.149-1.549.445-.347.296-.521.643-.521 1.041 0 .368.16.66.477.875.317.215.679.32 1.088.32.582 0 1.108-.213 1.578-.643.48-.439.721-.956.721-1.549-.398-.327-.996-.49-1.793-.49" transform="translate(0-.032)" stroke-opacity=".55" fill="#fff" stroke-width="2.8" stroke="none"/></svg>