<svg xmlns="http://www.w3.org/2000/svg" viewBox="0 0 22 22"><path d="m410.72 523.82c-.055-.458-.229-.876-.497-1.225l1.837-11.399c.068-.424-.204-.829-.622-.925l-.021-.004c-.419-.097-.84.148-.965.559l-3.346 11.05c-.825.415-1.397 1.26-1.397 2.244 0 1.39 1.13 2.521 2.52 2.521.259 0 .504-.051.739-.123l6.991 3.633c.385.2.858.075 1.094-.288l.001-.016c.236-.363.158-.847-.182-1.117zm-3.735.3c0-.686.559-1.245 1.245-1.245.687 0 1.245.559 1.245 1.245 0 .687-.559 1.245-1.245 1.245-.686 0-1.245-.559-1.245-1.245m1.589-20.319c11.08 0 20 8.92 20 20 0 11.08-8.92 20-20 20-11.08 0-20-8.92-20-20 0-11.08 8.92-20 20-20" fill="#fff" transform="matrix(.4 0 0 .4-152.43-198.52)"/></svg>