<svg xmlns="http://www.w3.org/2000/svg" viewBox="0 0 22 22"><g transform="translate(-421.71-525.79)" fill="#fff"><path d="m4.5 3c-.828 0-1.5.672-1.5 1.5 0 .828.672 1.5 1.5 1.5.828 0 1.5-.672 1.5-1.5 0-.828-.672-1.5-1.5-1.5m2.5 1v1h1v-1h-1m2 0v1h10v-1h-10m0 2v1h3v-1h-3m-4.5 3c-.828 0-1.5.672-1.5 1.5 0 .828.672 1.5 1.5 1.5.828 0 1.5-.672 1.5-1.5 0-.828-.672-1.5-1.5-1.5m2.5 1v1h1v-1h-1m2 0v1h10v-1h-10m0 2v1h1v-1h-1m-4.5 3c-.828 0-1.5.672-1.5 1.5 0 .828.672 1.5 1.5 1.5.828 0 1.5-.672 1.5-1.5 0-.828-.672-1.5-1.5-1.5m2.5 1v1h1v-1h-1" transform="translate(421.71 525.79)"/><path d="m432.71 538.79v5h1v-4h6v3h-2v-1l-3 1.5 3 1.5v-1h3v-1-4h-8"/></g></svg>