<svg xmlns="http://www.w3.org/2000/svg" viewBox="0 0 22 22"><g transform="translate(-421.71-525.79)" fill="#fff"><path transform="translate(421.71 525.79)" d="m4.5 3c-.828 0-1.5.672-1.5 1.5 0 .828.672 1.5 1.5 1.5.828 0 1.5-.672 1.5-1.5 0-.828-.672-1.5-1.5-1.5m2.5 1v1h1v-1h-1m2 0v1h10v-1h-10m0 2v1h3v-1h-3m-4.5 3c-.828 0-1.5.672-1.5 1.5 0 .828.672 1.5 1.5 1.5.828 0 1.5-.672 1.5-1.5 0-.828-.672-1.5-1.5-1.5m0 6c-.828 0-1.5.672-1.5 1.5 0 .828.672 1.5 1.5 1.5.828 0 1.5-.672 1.5-1.5 0-.828-.672-1.5-1.5-1.5"/><path d="m433.71 535.79v1h-2.186l-1.814 2.238-1.814-2.238h-3.186v1h2.76c-.0001.001.836 1.046 1.611 2.01l-1.611 1.986h-2.76v1h3.238c0 0 .893-1.119 1.762-2.201.869 1.082 1.762 2.201 1.762 2.201h2.238v1l2-1.5-2-1.5v1h-1.76l-1.611-1.986c.775-.968 1.612-2.01 1.611-2.01h1.76v1l2-1.5z" fill-rule="evenodd" transform="translate(5 1)"/><path d="m428.71 535.79h1v1h-1z"/></g></svg>