<svg xmlns="http://www.w3.org/2000/svg" viewBox="0 0 22 22"><defs><clipPath><path fill="#f2f2f2" d="m7 1023.36h1v1h-1z"/></clipPath><clipPath><rect width="32" height="32" x="392.57" y="507.8" fill="none" rx="16"/></clipPath><clipPath><path fill="#f2f2f2" d="m7 1023.36h1v1h-1z"/></clipPath><clipPath><rect y="507.8" x="392.57" height="32" width="32" fill="none" rx="16"/></clipPath><clipPath><rect y="8" x="8" height="32" width="32" fill="none" rx="16"/></clipPath><clipPath><path fill="#f2f2f2" d="m7 1023.36h1v1h-1z"/></clipPath><clipPath><path fill="#f2f2f2" d="m7 1023.36h1v1h-1z"/></clipPath><clipPath><path fill="#aade87" fill-opacity=".472" d="m-6 1028.36h32v32h-32z"/></clipPath><clipPath><path fill="#f2f2f2" d="m7 1023.36h1v1h-1z"/></clipPath><clipPath><path fill="#aade87" fill-opacity=".472" d="m-6 1028.36h32v32h-32z"/></clipPath><clipPath><path fill="#00f" fill-opacity=".514" d="m-7 1024.36h34v34h-34z"/></clipPath><clipPath><path fill="#00f" fill-opacity=".514" d="m-7 1024.36h34v34h-34z"/></clipPath><clipPath><rect y="507.8" x="392.57" height="32" width="32" fill="none" rx="16"/></clipPath><clipPath><rect y="507.8" x="392.57" height="32" width="32" fill="none" rx="16"/></clipPath><clipPath><rect y="507.8" x="392.57" height="32" width="32" fill="none" rx="16"/></clipPath><clipPath><rect width="32" height="32" x="8" y="8" fill="none" rx="16"/></clipPath><clipPath><rect width="32" height="32" x="392.57" y="507.8" fill="none" rx="16"/></clipPath><clipPath><rect width="32" height="32" x="392.57" y="507.8" fill="none" rx="16"/></clipPath><clipPath><rect y="507.8" x="392.57" height="32" width="32" fill="none" rx="16"/></clipPath><clipPath><rect y="8" x="8" height="32" width="32" fill="none" rx="16"/></clipPath><clipPath><rect y="507.8" x="392.57" height="32" width="32" fill="none" rx="16"/></clipPath><clipPath><rect y="507.8" x="392.57" height="32" width="32" fill="none" rx="16"/></clipPath><clipPath><rect y="507.8" x="392.57" height="32" width="32" fill="none" rx="16"/></clipPath><clipPath><rect y="8" x="8" height="32" width="32" fill="none" rx="16"/></clipPath><clipPath><rect y="507.8" x="392.57" height="32" width="32" fill="none" rx="16"/></clipPath><clipPath><path fill="#f2f2f2" d="m7 1023.36h1v1h-1z"/></clipPath><clipPath><path fill="#aade87" fill-opacity=".472" d="m-6 1028.36h32v32h-32z"/></clipPath><clipPath><path fill="#f2f2f2" d="m7 1023.36h1v1h-1z"/></clipPath><clipPath><path fill="#00f" fill-opacity=".514" d="m-7 1024.36h34v34h-34z"/></clipPath><clipPath><path fill="#f2f2f2" d="m7 1023.36h1v1h-1z"/></clipPath><clipPath><path fill="#aade87" fill-opacity=".472" d="m-6 1028.36h32v32h-32z"/></clipPath><clipPath><path fill="#00f" fill-opacity=".514" d="m-7 1024.36h34v34h-34z"/></clipPath><clipPath><path fill="#f2f2f2" d="m7 1023.36h1v1h-1z"/></clipPath><clipPath><path fill="#aade87" fill-opacity=".472" d="m-6 1028.36h32v32h-32z"/></clipPath><clipPath><path d="m69.63 12.145h-.052c-22.727-.292-46.47 4.077-46.709 4.122-2.424.451-4.946 2.974-5.397 5.397-.044.237-4.414 23.983-4.122 46.71-.292 22.777 4.078 46.523 4.122 46.761.451 2.423 2.974 4.945 5.398 5.398.237.044 23.982 4.413 46.709 4.121 22.779.292 46.524-4.077 46.761-4.121 2.423-.452 4.946-2.976 5.398-5.399.044-.236 4.413-23.981 4.121-46.709.292-22.777-4.077-46.523-4.121-46.761-.453-2.423-2.976-4.946-5.398-5.397-.238-.045-23.984-4.414-46.71-4.122"/></clipPath><clipPath><path fill="#aade87" fill-opacity=".472" d="m-6 1028.36h32v32h-32z"/></clipPath><clipPath><path fill="#00f" fill-opacity=".514" d="m-7 1024.36h34v34h-34z"/></clipPath><clipPath><path fill="#00f" fill-opacity=".514" d="m-7 1024.36h34v34h-34z"/></clipPath><clipPath><path d="m0 706.47h1490.93v-706.47h-1490.93v706.47"/></clipPath><clipPath><path fill="#00f" fill-opacity=".514" d="m-7 1024.36h34v34h-34z"/></clipPath><clipPath><path d="m22.2 686.12h1447.73v-667.19h-1447.73v667.19"/></clipPath><clipPath><path fill="#aade87" fill-opacity=".472" d="m-6 1028.36h32v32h-32z"/></clipPath><clipPath><path fill="#f2f2f2" d="m7 1023.36h1v1h-1z"/></clipPath><clipPath><path fill="#f2f2f2" d="m7 1023.36h1v1h-1z"/></clipPath><clipPath><path fill="#f2f2f2" d="m7 1023.36h1v1h-1z"/></clipPath><clipPath><path fill="#f2f2f2" d="m7 1023.36h1v1h-1z"/></clipPath><clipPath><path fill="#f2f2f2" d="m7 1023.36h1v1h-1z"/></clipPath><clipPath><path fill="#f2f2f2" d="m7 1023.36h1v1h-1z"/></clipPath><clipPath><path fill="#aade87" fill-opacity=".472" d="m-6 1028.36h32v32h-32z"/></clipPath><clipPath><path fill="#f2f2f2" d="m7 1023.36h1v1h-1z"/></clipPath><clipPath><path fill="#00f" fill-opacity=".514" d="m-7 1024.36h34v34h-34z"/></clipPath></defs><path d="m3.889 3c-.492 0-.889.358-.889.801v14.398c0 .443.396.801.889.801h14.223c.492 0 .889-.358.889-.801v-14.398c0-.443-.396-.801-.889-.801h-14.223m9.963 3.5c.193.034.336.215.336.457l-.016 6.289c-.064.469-.463.915-1.041 1.072-.725.197-1.438-.132-1.594-.721-.155-.589.299-1.225 1.023-1.422.402-.109.788-.044 1.09.121v-3.813l-3.758 1.055-.018 4.832c-.064.469-.461.915-1.039 1.072-.725.197-1.438-.132-1.594-.721-.155-.589.299-1.227 1.023-1.424.402-.109.788-.042 1.09.123v-5.111c0-.323.24-.655.537-.738l3.959-1.072m.215 9.166h4v2 .5h-1.5v.5l-1.5-.75 1.5-.75v.5h1v-1.5h-3v2h-.5v-2.5" transform="translate(.026-.021)" stroke-opacity=".55" fill="#fff" stroke-width="2.8" stroke="none"/></svg>