<svg xmlns="http://www.w3.org/2000/svg" viewBox="0 0 22 22"><g transform="translate(-421.71-525.79)"><path d="m4.5 3c-.828 0-1.5.672-1.5 1.5 0 .828.672 1.5 1.5 1.5.828 0 1.5-.672 1.5-1.5 0-.828-.672-1.5-1.5-1.5m2.5 1v1h1v-1m1 0v1h10v-1zm0 2v1h3v-1zm-4.5 3c-.828 0-1.5.672-1.5 1.5 0 .828.672 1.5 1.5 1.5.828 0 1.5-.672 1.5-1.5 0-.828-.672-1.5-1.5-1.5m2.5 1v1h1v-1zm2 0v1h5v-1zm0 2v1h4v-1zm-4.5 3c-.828 0-1.5.672-1.5 1.5 0 .828.672 1.5 1.5 1.5.828 0 1.5-.672 1.5-1.5 0-.828-.672-1.5-1.5-1.5m2.5 1v1h1v-1zm2 0v1h10v-1zm0 2v1h7v-1z" transform="translate(421.71 525.79)" fill="#fff"/><path d="m440.71 539.79c0 0 0-6 0-6l-4 3z" fill="#1d99f3"/></g></svg>