<svg xmlns="http://www.w3.org/2000/svg" viewBox="0 0 22 22"><defs><clipPath><path fill="#f2f2f2" d="m7 1023.36h1v1h-1z"/></clipPath><clipPath><path fill="#f2f2f2" d="m7 1023.36h1v1h-1z"/></clipPath></defs><path transform="translate(0-.002)" d="m3 3v4h6 1 1v8h-1-1-6v4h9v-4-2h7v-4h-7v-2-4h-9m1 1h7v2h-7v-2m3.5 4c-.277 0-.5.223-.5.5 0 .277.223.5.5.5.277 0 .5-.223.5-.5 0-.277-.223-.5-.5-.5m4.5 2h1 1 4v2h-4-1-1v-2zm-4.5 3c-.277 0-.5.223-.5.5 0 .277.223.5.5.5.277 0 .5-.223.5-.5 0-.277-.223-.5-.5-.5m-3.5 3h7v2h-7v-2z" fill="#fff"/></svg>