<svg xmlns="http://www.w3.org/2000/svg" viewBox="0 0 22 22"><defs><clipPath><path fill="#f2f2f2" d="m7 1023.36h1v1h-1z"/></clipPath></defs><path d="M11 6A10 9.999975 0 0 0 2.314453 11.07031C2.5 11.362 2.76 11.597 3.066 11.76A9 8.999978 0 0 1 11 7 4 4 0 0 0 7 11 4 4 0 0 0 11 15 4 4 0 0 0 15 11 4 4 0 0 0 11.34375 7.01758 9 8.999978 0 0 1 18.931641 11.761719C19.241 11.598 19.504 11.359 19.689 11.06A10 9.999975 0 0 0 11 6M11 8A3 3 0 0 1 14 11 3 3 0 0 1 11 14 3 3 0 0 1 8 11 3 3 0 0 1 11 8M11 9C9.892 9 9 9.892 9 11 9 12.11 9.892 13 11 13 12.11 13 13 12.11 13 11 13 10.795 12.961 10.602 12.904 10.416 12.746 10.76 12.404 11 12 11 11.446 11 11 10.554 11 10 11 9.596 11.24 9.254 11.584 9.1 11.398 9.04 11.205 9 11 9" color="#4d4d4d"/></svg>