<svg xmlns="http://www.w3.org/2000/svg" viewBox="0 0 22 22"><defs><clipPath><path d="m69.63 12.145h-.052c-22.727-.292-46.47 4.077-46.709 4.122-2.424.451-4.946 2.974-5.397 5.397-.044.237-4.414 23.983-4.122 46.71-.292 22.777 4.078 46.523 4.122 46.761.451 2.423 2.974 4.945 5.398 5.398.237.044 23.982 4.413 46.709 4.121 22.779.292 46.524-4.077 46.761-4.121 2.423-.452 4.946-2.976 5.398-5.399.044-.236 4.413-23.981 4.121-46.709.292-22.777-4.077-46.523-4.121-46.761-.453-2.423-2.976-4.946-5.398-5.397-.238-.045-23.984-4.414-46.71-4.122"/></clipPath></defs><path d="m1.15 3c-.417 0-.752.337-.752.754v14.492c0 .417.335.754.752.754h19.699c.417 0 .752-.337.752-.754v-14.492c0-.417-.335-.754-.752-.754h-19.699m7.686 4.801c.15 0 .276.051.381.156l1.65 1.65 1.648-1.65c.105-.105.233-.156.383-.156.15 0 .276.051.381.156l.764.764c.105.105.156.231.156.381 0 .15-.051.278-.156.383l-1.65 1.648 1.65 1.65c.105.105.156.231.156.381 0 .15-.051.278-.156.383l-.764.764c-.105.105-.231.156-.381.156-.15 0-.276-.051-.381-.156l-1.65-1.65-1.65 1.65c-.105.105-.231.156-.381.156-.15 0-.278-.051-.383-.156l-.762-.764c-.105-.105-.158-.233-.158-.383 0-.15.054-.276.158-.381l1.648-1.65-1.648-1.648c-.105-.105-.158-.233-.158-.383 0-.15.054-.276.158-.381l.762-.764c.105-.105.233-.156.383-.156" transform="matrix(.99999 0 0 .99999 0-.002)" fill="#fff" stroke="none"/></svg>