<svg xmlns="http://www.w3.org/2000/svg" viewBox="0 0 22 22"><defs><clipPath><path fill="#f2f2f2" d="m7 1023.36h1v1h-1z"/></clipPath><clipPath><path fill="#f2f2f2" d="m7 1023.36h1v1h-1z"/></clipPath><clipPath><path fill="#f2f2f2" d="m7 1023.36h1v1h-1z"/></clipPath><clipPath><path fill="#00f" fill-opacity=".514" d="m-7 1024.36h34v34h-34z"/></clipPath><clipPath><path fill="#aade87" fill-opacity=".472" d="m-6 1028.36h32v32h-32z"/></clipPath></defs><path d="m144.37 41.38c-7.605-12.438-17.831-22.432-30.676-29.982-12.846-7.55-26.41-11.325-40.695-11.325-14.285 0-27.85 3.774-40.696 11.325-12.846 7.55-23.07 17.544-30.675 29.982-1.086 1.901-1.629 3.775-1.629 5.622 0 1.847.543 3.721 1.629 5.621 7.604 12.439 17.829 22.434 30.675 29.982 12.846 7.551 26.411 11.324 40.696 11.324 14.285 0 27.85-3.761 40.695-11.283 12.845-7.522 23.07-17.53 30.676-30.02 1.086-1.9 1.629-3.773 1.629-5.621 0-1.847-.543-3.721-1.629-5.622m-35.971 32.22c-10.89 6.598-22.69 9.898-35.4 9.898-12.71 0-24.51-3.299-35.4-9.898-10.89-6.599-19.947-15.467-27.17-26.602 8.256-12.819 18.603-22.406 31.04-28.76-3.313 5.648-4.97 11.759-4.97 18.331 0 10.05 3.572 18.643 10.714 25.786 7.142 7.143 15.738 10.714 25.786 10.714 10.05 0 18.643-3.572 25.786-10.714 7.144-7.142 10.714-15.737 10.714-25.786 0-6.572-1.657-12.684-4.971-18.331 12.438 6.354 22.785 15.942 31.04 28.76-7.222 11.135-16.279 20-27.17 26.602" fill="#fff" transform="matrix(.13699 0 0 .13856 1 4.488)"/></svg>