<?xml version="1.0" encoding="UTF-8" standalone="no"?>
<!-- Created with Inkscape (http://www.inkscape.org/) -->

<svg
   xmlns:dc="http://purl.org/dc/elements/1.1/"
   xmlns:cc="http://creativecommons.org/ns#"
   xmlns:rdf="http://www.w3.org/1999/02/22-rdf-syntax-ns#"
   xmlns:svg="http://www.w3.org/2000/svg"
   xmlns="http://www.w3.org/2000/svg"
   xmlns:sodipodi="http://sodipodi.sourceforge.net/DTD/sodipodi-0.dtd"
   xmlns:inkscape="http://www.inkscape.org/namespaces/inkscape"
   width="16"
   height="16"
   id="svg3049"
   version="1.1"
   inkscape:version="0.91 r13725"
   sodipodi:docname="retweet.svg"
   inkscape:export-filename="/home/uri/.kde/share/icons/NITRUX-KDE/16x16/actions/view-right-new.png"
   inkscape:export-xdpi="30"
   inkscape:export-ydpi="30">
  <defs
     id="defs3051" />
  <sodipodi:namedview
     id="base"
     pagecolor="#ffffff"
     bordercolor="#666666"
     borderopacity="1.0"
     inkscape:pageopacity="0.0"
     inkscape:pageshadow="2"
     inkscape:zoom="22.627418"
     inkscape:cx="7.2664178"
     inkscape:cy="9.6939258"
     inkscape:document-units="px"
     inkscape:current-layer="layer1"
     showgrid="true"
     fit-margin-top="0"
     fit-margin-left="0"
     fit-margin-right="0"
     fit-margin-bottom="0"
     inkscape:window-width="1366"
     inkscape:window-height="687"
     inkscape:window-x="0"
     inkscape:window-y="0"
     inkscape:window-maximized="1"
     inkscape:showpageshadow="false"
     borderlayer="true"
     inkscape:snap-bbox="true"
     inkscape:snap-global="true"
     inkscape:object-nodes="true">
    <inkscape:grid
       type="xygrid"
       id="grid4085" />
    <sodipodi:guide
       position="2.0000044,14.00003"
       orientation="12,0"
       id="guide4075" />
    <sodipodi:guide
       position="2.0000044,2.0000296"
       orientation="0,12"
       id="guide4077" />
    <sodipodi:guide
       position="14.000004,2.0000296"
       orientation="-12,0"
       id="guide4079" />
    <sodipodi:guide
       position="14.000004,14.00003"
       orientation="0,-12"
       id="guide4081" />
  </sodipodi:namedview>
  <metadata
     id="metadata3054">
    <rdf:RDF>
      <cc:Work
         rdf:about="">
        <dc:format>image/svg+xml</dc:format>
        <dc:type
           rdf:resource="http://purl.org/dc/dcmitype/StillImage" />
        <dc:title />
      </cc:Work>
    </rdf:RDF>
  </metadata>
  <g
     inkscape:label="Capa 1"
     inkscape:groupmode="layer"
     id="layer1"
     transform="translate(-421.71429,-531.79074)">
    <rect
       style="fill:#4d4d4d;fill-opacity:1;stroke:none"
       id="rect4035"
       width="0"
       height="10.999983"
       x="409.87054"
       y="546.66571" />
    <rect
       style="fill:#4d4d4d;fill-opacity:1;stroke:none"
       id="rect4035-5"
       width="0"
       height="10.999983"
       x="427.91132"
       y="544.61438" />
    <rect
       style="fill:#4d4d4d;fill-opacity:1;stroke:none"
       id="rect4035-8"
       width="0"
       height="10.999983"
       x="409.87054"
       y="546.66571" />
    <rect
       style="fill:#4d4d4d;fill-opacity:1;stroke:none"
       id="rect4035-59"
       width="0"
       height="10.999983"
       x="409.87054"
       y="546.66571" />
    <text
       sodipodi:linespacing="125%"
       id="text3781"
       y="559.42297"
       x="425.30652"
       style="font-style:normal;font-weight:normal;font-size:9px;line-height:125%;font-family:Sans;letter-spacing:0px;word-spacing:0px;fill:#4d4d4d;fill-opacity:1;stroke:none"
       xml:space="preserve"><tspan
         id="tspan3783"
         sodipodi:role="line"
         x="425.30652"
         y="559.42297" /></text>
    <text
       sodipodi:linespacing="125%"
       id="text3781-8"
       y="553.55963"
       x="426.04321"
       style="font-style:normal;font-weight:normal;font-size:9px;line-height:125%;font-family:Sans;letter-spacing:0px;word-spacing:0px;fill:#4d4d4d;fill-opacity:1;stroke:none"
       xml:space="preserve"><tspan
         id="tspan3783-1"
         sodipodi:role="line"
         x="426.04321"
         y="553.55963" /></text>
    <text
       sodipodi:linespacing="125%"
       id="text3781-4"
       y="560.42297"
       x="419.30652"
       style="font-style:normal;font-weight:normal;font-size:9px;line-height:125%;font-family:Sans;letter-spacing:0px;word-spacing:0px;fill:#4d4d4d;fill-opacity:1;stroke:none"
       xml:space="preserve"><tspan
         id="tspan3783-13"
         sodipodi:role="line"
         x="419.30652"
         y="560.42297" /></text>
    <rect
       style="fill:#4d4d4d;fill-opacity:1;stroke:none"
       id="rect4035-9"
       width="0"
       height="10.999983"
       x="409.87054"
       y="546.66571" />
    <rect
       style="fill:#4d4d4d;fill-opacity:1;stroke:none"
       id="rect4035-5-7"
       width="0"
       height="10.999983"
       x="427.91132"
       y="544.61438" />
    <rect
       style="fill:#4d4d4d;fill-opacity:1;stroke:none"
       id="rect4035-9-0"
       width="0"
       height="10.999983"
       x="389.87054"
       y="546.66571" />
    <rect
       style="fill:#4d4d4d;fill-opacity:1;stroke:none"
       id="rect4035-5-7-5"
       width="0"
       height="10.999983"
       x="407.91132"
       y="544.61438" />
    <rect
       style="fill:#4d4d4d;fill-opacity:1;stroke:none"
       id="rect4035-3"
       width="0"
       height="10.999983"
       x="409.87054"
       y="546.66571" />
    <rect
       style="fill:#4d4d4d;fill-opacity:1;stroke:none"
       id="rect4035-5-4"
       width="0"
       height="10.999983"
       x="427.91132"
       y="544.61438" />
    <rect
       style="fill:#4d4d4d;fill-opacity:1;stroke:none"
       id="rect4035-8-7"
       width="0"
       height="10.999983"
       x="409.87054"
       y="546.66571" />
    <rect
       style="fill:#4d4d4d;fill-opacity:1;stroke:none"
       id="rect4035-59-1"
       width="0"
       height="10.999983"
       x="409.87054"
       y="546.66571" />
    <text
       sodipodi:linespacing="125%"
       id="text3781-1"
       y="559.42297"
       x="425.30652"
       style="font-style:normal;font-weight:normal;font-size:9px;line-height:125%;font-family:Sans;letter-spacing:0px;word-spacing:0px;fill:#4d4d4d;fill-opacity:1;stroke:none"
       xml:space="preserve"><tspan
         id="tspan3783-8"
         sodipodi:role="line"
         x="425.30652"
         y="559.42297" /></text>
    <text
       sodipodi:linespacing="125%"
       id="text3781-8-2"
       y="553.55963"
       x="426.04321"
       style="font-style:normal;font-weight:normal;font-size:9px;line-height:125%;font-family:Sans;letter-spacing:0px;word-spacing:0px;fill:#4d4d4d;fill-opacity:1;stroke:none"
       xml:space="preserve"><tspan
         id="tspan3783-1-6"
         sodipodi:role="line"
         x="426.04321"
         y="553.55963" /></text>
    <text
       sodipodi:linespacing="125%"
       id="text3781-4-7"
       y="560.42297"
       x="419.30652"
       style="font-style:normal;font-weight:normal;font-size:9px;line-height:125%;font-family:Sans;letter-spacing:0px;word-spacing:0px;fill:#4d4d4d;fill-opacity:1;stroke:none"
       xml:space="preserve"><tspan
         id="tspan3783-13-8"
         sodipodi:role="line"
         x="419.30652"
         y="560.42297" /></text>
    <rect
       style="fill:#4d4d4d;fill-opacity:1;stroke:none"
       id="rect4035-9-08"
       width="0"
       height="10.999983"
       x="409.87054"
       y="546.66571" />
    <rect
       style="fill:#4d4d4d;fill-opacity:1;stroke:none"
       id="rect4035-5-7-8"
       width="0"
       height="10.999983"
       x="427.91132"
       y="544.61438" />
    <rect
       style="fill:#4d4d4d;fill-opacity:1;stroke:none"
       id="rect4035-9-0-2"
       width="0"
       height="10.999983"
       x="389.87054"
       y="546.66571" />
    <rect
       style="fill:#4d4d4d;fill-opacity:1;stroke:none"
       id="rect4035-5-7-5-2"
       width="0"
       height="10.999983"
       x="407.91132"
       y="544.61438" />
    <rect
       style="fill:#4d4d4d;fill-opacity:1;stroke:none"
       id="rect4035-2"
       width="0"
       height="10.999983"
       x="405.63617"
       y="548.64069" />
    <rect
       style="fill:#4d4d4d;fill-opacity:1;stroke:none"
       id="rect4035-5-0"
       width="0"
       height="10.999983"
       x="423.67694"
       y="546.58936" />
    <rect
       style="fill:#4d4d4d;fill-opacity:1;stroke:none"
       id="rect4035-8-1"
       width="0"
       height="10.999983"
       x="405.63617"
       y="548.64069" />
    <rect
       style="fill:#4d4d4d;fill-opacity:1;stroke:none"
       id="rect4035-59-7"
       width="0"
       height="10.999983"
       x="405.63617"
       y="548.64069" />
    <text
       sodipodi:linespacing="125%"
       id="text3781-41"
       y="561.39795"
       x="421.07214"
       style="font-style:normal;font-weight:normal;font-size:9px;line-height:125%;font-family:Sans;letter-spacing:0px;word-spacing:0px;fill:#4d4d4d;fill-opacity:1;stroke:none"
       xml:space="preserve"><tspan
         id="tspan3783-9"
         sodipodi:role="line"
         x="421.07214"
         y="561.39795" /></text>
    <text
       sodipodi:linespacing="125%"
       id="text3781-8-7"
       y="555.53461"
       x="421.80884"
       style="font-style:normal;font-weight:normal;font-size:9px;line-height:125%;font-family:Sans;letter-spacing:0px;word-spacing:0px;fill:#4d4d4d;fill-opacity:1;stroke:none"
       xml:space="preserve"><tspan
         id="tspan3783-1-2"
         sodipodi:role="line"
         x="421.80884"
         y="555.53461" /></text>
    <text
       sodipodi:linespacing="125%"
       id="text3781-4-3"
       y="562.39795"
       x="415.07214"
       style="font-style:normal;font-weight:normal;font-size:9px;line-height:125%;font-family:Sans;letter-spacing:0px;word-spacing:0px;fill:#4d4d4d;fill-opacity:1;stroke:none"
       xml:space="preserve"><tspan
         id="tspan3783-13-6"
         sodipodi:role="line"
         x="415.07214"
         y="562.39795" /></text>
    <rect
       style="fill:#4d4d4d;fill-opacity:1;stroke:none"
       id="rect4035-9-9"
       width="0"
       height="10.999983"
       x="405.63617"
       y="548.64069" />
    <rect
       style="fill:#4d4d4d;fill-opacity:1;stroke:none"
       id="rect4035-5-7-9"
       width="0"
       height="10.999983"
       x="423.67694"
       y="546.58936" />
    <rect
       style="fill:#4d4d4d;fill-opacity:1;stroke:none"
       id="rect4035-9-0-5"
       width="0"
       height="10.999983"
       x="385.63617"
       y="548.64069" />
    <rect
       style="fill:#4d4d4d;fill-opacity:1;stroke:none"
       id="rect4035-5-7-5-3"
       width="0"
       height="10.999983"
       x="403.67694"
       y="546.58936" />
    <g
       id="g4226"
       transform="matrix(0.02553948,0,0,0.02553948,422.71429,532.79073)"
       style="fill:#ffffff;fill-opacity:1">
      <g
         id="g4182"
         style="fill:#ffffff;fill-opacity:1">
        <g
           id="g4184"
           style="fill:#ffffff;fill-opacity:1">
          <path
             id="path4186"
             d="m 317.769,368.589 c -1.712,-2.094 -4.09,-3.142 -7.132,-3.142 l -164.456,0 0,-109.637 54.814,0 c 4.948,0 9.233,-1.809 12.847,-5.426 3.616,-3.616 5.424,-7.898 5.424,-12.85 0,-4.565 -1.431,-8.47 -4.283,-11.704 L 123.624,116.194 c -3.617,-4.184 -8.28,-6.279 -13.99,-6.279 -5.712,0 -10.373,2.092 -13.988,6.279 L 4.285,225.83 C 1.425,229.064 0,232.969 0,237.534 c 0,4.952 1.811,9.234 5.424,12.85 3.617,3.617 7.902,5.426 12.85,5.426 l 54.818,0 0,118.775 0,45.679 0,3.138 0,3.714 c 0,0.574 0.094,1.67 0.284,3.288 0.191,1.619 0.479,2.714 0.859,3.282 0.378,0.575 0.903,1.335 1.569,2.286 0.662,0.951 1.521,1.622 2.565,1.998 1.047,0.377 2.334,0.568 3.858,0.568 l 274.088,0 c 2.471,0 4.613,-0.903 6.42,-2.711 1.807,-1.807 2.71,-3.948 2.71,-6.42 0,-1.909 -0.663,-3.9 -1.995,-6.002 l -45.681,-54.816 z"
             inkscape:connector-curvature="0"
             style="fill:#ffffff;fill-opacity:1" />
          <path
             id="path4188"
             d="m 542.748,297.788 c -3.614,-3.61 -7.898,-5.424 -12.847,-5.424 l -54.816,0 0,-118.771 0,-45.683 0,-3.14 0,-3.711 c 0,-0.572 -0.096,-1.665 -0.288,-3.287 -0.191,-1.619 -0.479,-2.712 -0.855,-3.284 -0.379,-0.571 -0.903,-1.334 -1.57,-2.284 -0.667,-0.949 -1.522,-1.617 -2.57,-1.999 -1.047,-0.378 -2.327,-0.571 -3.854,-0.571 l -274.088,0 c -2.474,0 -4.611,0.905 -6.423,2.712 -1.805,1.809 -2.708,3.951 -2.708,6.423 0,2.093 0.662,3.996 1.997,5.71 l 45.679,54.818 c 1.713,2.284 4.093,3.426 7.137,3.426 l 164.453,0 0,109.634 -54.816,0 c -4.948,0 -9.232,1.81 -12.847,5.42 -3.617,3.621 -5.427,7.909 -5.427,12.854 0,4.568 1.43,8.466 4.287,11.707 l 91.361,109.632 c 3.806,4.381 8.467,6.567 13.99,6.567 5.514,0 10.174,-2.187 13.983,-6.567 l 91.361,-109.632 c 2.851,-3.241 4.284,-7.139 4.284,-11.707 0.005,-4.942 -1.81,-9.226 -5.423,-12.843 z"
             inkscape:connector-curvature="0"
             style="fill:#ffffff;fill-opacity:1" />
        </g>
      </g>
      <g
         id="g4190"
         style="fill:#ffffff;fill-opacity:1" />
      <g
         id="g4192"
         style="fill:#ffffff;fill-opacity:1" />
      <g
         id="g4194"
         style="fill:#ffffff;fill-opacity:1" />
      <g
         id="g4196"
         style="fill:#ffffff;fill-opacity:1" />
      <g
         id="g4198"
         style="fill:#ffffff;fill-opacity:1" />
      <g
         id="g4200"
         style="fill:#ffffff;fill-opacity:1" />
      <g
         id="g4202"
         style="fill:#ffffff;fill-opacity:1" />
      <g
         id="g4204"
         style="fill:#ffffff;fill-opacity:1" />
      <g
         id="g4206"
         style="fill:#ffffff;fill-opacity:1" />
      <g
         id="g4208"
         style="fill:#ffffff;fill-opacity:1" />
      <g
         id="g4210"
         style="fill:#ffffff;fill-opacity:1" />
      <g
         id="g4212"
         style="fill:#ffffff;fill-opacity:1" />
      <g
         id="g4214"
         style="fill:#ffffff;fill-opacity:1" />
      <g
         id="g4216"
         style="fill:#ffffff;fill-opacity:1" />
      <g
         id="g4218"
         style="fill:#ffffff;fill-opacity:1" />
    </g>
  </g>
</svg>
