<?xml version="1.0" encoding="UTF-8" standalone="no"?>
<!-- Created with Inkscape (http://www.inkscape.org/) -->

<svg
   xmlns:sketch="http://www.bohemiancoding.com/sketch/ns"
   xmlns:dc="http://purl.org/dc/elements/1.1/"
   xmlns:cc="http://creativecommons.org/ns#"
   xmlns:rdf="http://www.w3.org/1999/02/22-rdf-syntax-ns#"
   xmlns:svg="http://www.w3.org/2000/svg"
   xmlns="http://www.w3.org/2000/svg"
   xmlns:sodipodi="http://sodipodi.sourceforge.net/DTD/sodipodi-0.dtd"
   xmlns:inkscape="http://www.inkscape.org/namespaces/inkscape"
   width="22"
   height="22"
   id="svg3869"
   version="1.1"
   inkscape:version="0.91 r13725"
   sodipodi:docname="sort-presence.svg">
  <defs
     id="defs3871">
    <linearGradient
       id="linearGradient4290-48">
      <stop
         style="stop-color:#a5a5a5;stop-opacity:1;"
         offset="0"
         id="stop4292-0" />
      <stop
         style="stop-color:#f5f2f5;stop-opacity:1;"
         offset="1"
         id="stop4294-0" />
    </linearGradient>
    <inkscape:perspective
       sodipodi:type="inkscape:persp3d"
       inkscape:vp_x="0 : 12 : 1"
       inkscape:vp_y="0 : 1000 : 0"
       inkscape:vp_z="24 : 12 : 1"
       inkscape:persp3d-origin="12 : 8 : 1"
       id="perspective4146-9" />
    <inkscape:perspective
       sodipodi:type="inkscape:persp3d"
       inkscape:vp_x="0 : 12 : 1"
       inkscape:vp_y="0 : 1000 : 0"
       inkscape:vp_z="24 : 12 : 1"
       inkscape:persp3d-origin="12 : 8 : 1"
       id="perspective4146" />
    <inkscape:perspective
       id="perspective4146-9-1"
       inkscape:persp3d-origin="12 : 8 : 1"
       inkscape:vp_z="24 : 12 : 1"
       inkscape:vp_y="0 : 1000 : 0"
       inkscape:vp_x="0 : 12 : 1"
       sodipodi:type="inkscape:persp3d" />
    <inkscape:perspective
       id="perspective4146-96"
       inkscape:persp3d-origin="12 : 8 : 1"
       inkscape:vp_z="24 : 12 : 1"
       inkscape:vp_y="0 : 1000 : 0"
       inkscape:vp_x="0 : 12 : 1"
       sodipodi:type="inkscape:persp3d" />
    <clipPath
       id="clipPath16"
       clipPathUnits="userSpaceOnUse">
      <path
         inkscape:connector-curvature="0"
         id="path18"
         d="m 0,706.465 1490.926,0 L 1490.926,0 0,0 0,706.465 Z" />
    </clipPath>
    <clipPath
       id="clipPath24"
       clipPathUnits="userSpaceOnUse">
      <path
         inkscape:connector-curvature="0"
         id="path26"
         d="m 22.1953,686.117 1447.7347,0 0,-667.1902 -1447.7347,0 0,667.1902 z" />
    </clipPath>
  </defs>
  <sodipodi:namedview
     id="base"
     pagecolor="#ffffff"
     bordercolor="#666666"
     borderopacity="1.0"
     inkscape:pageopacity="0.0"
     inkscape:pageshadow="2"
     inkscape:zoom="11.313708"
     inkscape:cx="-13.973835"
     inkscape:cy="7.1082575"
     inkscape:document-units="px"
     inkscape:current-layer="g762"
     showgrid="true"
     fit-margin-top="0"
     fit-margin-left="0"
     fit-margin-right="0"
     fit-margin-bottom="0"
     inkscape:window-width="1366"
     inkscape:window-height="687"
     inkscape:window-x="0"
     inkscape:window-y="0"
     inkscape:window-maximized="1"
     inkscape:showpageshadow="false">
    <inkscape:grid
       type="xygrid"
       id="grid4132" />
    <sodipodi:guide
       position="4,18"
       orientation="18,0"
       id="guide4138" />
    <sodipodi:guide
       position="5,3"
       orientation="0,18"
       id="guide4140" />
    <sodipodi:guide
       position="20,2.0000174"
       orientation="-18,0"
       id="guide4142" />
    <sodipodi:guide
       position="2,21"
       orientation="0,-18"
       id="guide4144" />
    <sodipodi:guide
       position="3,19.000017"
       orientation="16,0"
       id="guide4146" />
    <sodipodi:guide
       position="21,20"
       orientation="-16,0"
       id="guide4150" />
    <sodipodi:guide
       position="2,20"
       orientation="0,-16"
       id="guide4152" />
  </sodipodi:namedview>
  <metadata
     id="metadata3874">
    <rdf:RDF>
      <cc:Work
         rdf:about="">
        <dc:format>image/svg+xml</dc:format>
        <dc:type
           rdf:resource="http://purl.org/dc/dcmitype/StillImage" />
        <dc:title />
      </cc:Work>
    </rdf:RDF>
  </metadata>
  <g
     inkscape:label="Capa 1"
     inkscape:groupmode="layer"
     id="layer1"
     transform="translate(-326,-534.3622)">
    <g
       transform="matrix(0.6659084,0,0,0.6659084,70.25612,191.21391)"
       id="layer1-0"
       inkscape:label="Capa 1">
      <g
         id="g4141" />
      <g
         style="fill:#4d4d4d;fill-opacity:1"
         transform="matrix(0.16438356,0,0,0.16438356,359.99998,523.14233)"
         sketch:type="MSLayerGroup"
         id="list29-2">
        <g
           style="fill:#4d4d4d;fill-opacity:1"
           sketch:type="MSShapeGroup"
           id="g762">
          <g
             transform="translate(173.80916,-19.892341)"
             id="g4166"
             style="fill:#ffffff;fill-opacity:1">
            <path
               d="M 145.227,5.631 C 144.709,5.116 144.1,4.858 143.393,4.858 l -99.072,0 c -0.706,0 -1.317,0.257 -1.833,0.773 -0.516,0.517 -0.774,1.127 -0.774,1.833 l 0,15.644 c 0,0.706 0.258,1.316 0.774,1.833 0.516,0.515 1.127,0.773 1.833,0.773 l 99.072,0 c 0.707,0 1.317,-0.257 1.834,-0.773 0.516,-0.517 0.773,-1.127 0.773,-1.833 l 0,-15.644 c 0,-0.706 -0.258,-1.317 -0.773,-1.833 l 0,0 z"
               id="path770"
               inkscape:connector-curvature="0"
               style="fill:#ffffff;fill-opacity:1" />
          </g>
          <g
             transform="translate(173.80966,-4.3446736)"
             id="g4170"
             style="fill:#ffffff;fill-opacity:1">
            <path
               d="m 143.393,46.572 -99.072,0 c -0.706,0 -1.317,0.257 -1.833,0.774 -0.516,0.516 -0.774,1.127 -0.774,1.833 l 0,15.644 c 0,0.705 0.258,1.316 0.774,1.832 0.516,0.517 1.127,0.774 1.833,0.774 l 99.072,0 c 0.707,0 1.317,-0.257 1.834,-0.774 0.516,-0.516 0.773,-1.127 0.773,-1.832 l 0,-15.644 c 0,-0.706 -0.258,-1.318 -0.773,-1.833 -0.518,-0.516 -1.127,-0.774 -1.834,-0.774 l 0,0 z"
               id="path772"
               inkscape:connector-curvature="0"
               style="fill:#ffffff;fill-opacity:1" />
          </g>
          <g
             transform="translate(173.80916,11.55991)"
             id="g4174"
             style="fill:#ffffff;fill-opacity:1">
            <g
               id="g4168"
               transform="matrix(1.125,0,0,1.125,-6.2516792e-5,-5.160753)"
               style="fill:#ffffff;fill-opacity:1">
              <path
                 style="fill:#ffffff;fill-opacity:1"
                 inkscape:connector-curvature="0"
                 id="path766"
                 d="m 15.644,-25.310273 c -4.346,0 -8.0389996,1.521 -11.0809996,4.562 -3.041,3.042 -4.56199997,6.735 -4.56199997,11.0799997 0,4.3459986 1.51999997,8.0389981 4.56199997,11.0809981 3.042,3.041 6.7359996,4.5620001 11.0809996,4.5620001 4.345,0 8.038,-1.5210001 11.08,-4.5620001 3.041,-3.042 4.562,-6.7349995 4.562,-11.0809981 0,-4.3449997 -1.521,-8.0379997 -4.562,-11.0799997 -3.041,-3.041 -6.734,-4.562 -11.08,-4.562 l 0,0 z" />
              <path
                 style="fill:#ffffff;fill-opacity:1"
                 inkscape:connector-curvature="0"
                 id="path764"
                 d="m 15.643,41.358 c -4.346,0 -8.039,1.52 -11.081,4.562 C 1.521,48.961 0,52.654 0,57 c 0,4.345 1.521,8.039 4.563,11.08 3.042,3.041 6.736,4.562 11.081,4.562 4.345,0 8.038,-1.521 11.08,-4.562 3.041,-3.041 4.562,-6.735 4.562,-11.08 0,-4.346 -1.521,-8.039 -4.563,-11.08 -3.041,-3.041 -6.734,-4.562 -11.08,-4.562 l 0,0 z"
                 transform="translate(5.0013434e-4,-15.904583)" />
              <path
                 style="fill:#ffffff;fill-opacity:1"
                 inkscape:connector-curvature="0"
                 id="path768"
                 d="m 15.644,76.575703 c -4.346,0 -8.04,1.52 -11.081,4.562 -3.041,3.042 -4.562,6.735 -4.562,11.08 0,4.347008 1.52,8.039017 4.562,11.081017 3.042,3.041 6.736,4.562 11.081,4.562 4.345,0 8.038,-1.521 11.08,-4.562 3.041,-3.042 4.562,-6.734009 4.562,-11.081017 0,-4.345 -1.521,-8.039 -4.562,-11.08 -3.041,-3.041 -6.734,-4.562 -11.08,-4.562 l 0,0 z" />
            </g>
            <path
               d="m 143.393,88.286 -99.072,0 c -0.706,0 -1.317,0.258 -1.833,0.774 -0.516,0.516 -0.774,1.127 -0.774,1.832 l 0,15.644 c 0,0.707 0.258,1.317 0.774,1.834 0.516,0.515 1.127,0.772 1.833,0.772 l 99.072,0 c 0.707,0 1.317,-0.257 1.834,-0.772 0.516,-0.517 0.773,-1.127 0.773,-1.834 l 0,-15.644 c 0,-0.705 -0.258,-1.317 -0.773,-1.832 -0.518,-0.515 -1.127,-0.774 -1.834,-0.774 l 0,0 z"
               id="path774"
               inkscape:connector-curvature="0"
               style="fill:#ffffff;fill-opacity:1" />
          </g>
        </g>
      </g>
    </g>
  </g>
</svg>
