<svg xmlns="http://www.w3.org/2000/svg" viewBox="0 0 22 22"><defs><clipPath><path d="m69.63 12.145h-.052c-22.727-.292-46.47 4.077-46.709 4.122-2.424.451-4.946 2.974-5.397 5.397-.044.237-4.414 23.983-4.122 46.71-.292 22.777 4.078 46.523 4.122 46.761.451 2.423 2.974 4.945 5.398 5.398.237.044 23.982 4.413 46.709 4.121 22.779.292 46.524-4.077 46.761-4.121 2.423-.452 4.946-2.976 5.398-5.399.044-.236 4.413-23.981 4.121-46.709.292-22.777-4.077-46.523-4.121-46.761-.453-2.423-2.976-4.946-5.398-5.397-.238-.045-23.984-4.414-46.71-4.122"/></clipPath><clipPath><path fill="#f2f2f2" d="m7 1023.36h1v1h-1z"/></clipPath><clipPath><path fill="#f2f2f2" d="m7 1023.36h1v1h-1z"/></clipPath><clipPath><path fill="#f2f2f2" d="m7 1023.36h1v1h-1z"/></clipPath><clipPath><path fill="#f2f2f2" d="m7 1023.36h1v1h-1z"/></clipPath><clipPath><path fill="#00f" fill-opacity=".514" d="m-7 1024.36h34v34h-34z"/></clipPath><clipPath><path fill="#aade87" fill-opacity=".472" d="m-6 1028.36h32v32h-32z"/></clipPath><clipPath><path fill="#aade87" fill-opacity=".472" d="m-6 1028.36h32v32h-32z"/></clipPath><clipPath><path fill="#00f" fill-opacity=".514" d="m-7 1024.36h34v34h-34z"/></clipPath><clipPath><path fill="#f2f2f2" d="m7 1023.36h1v1h-1z"/></clipPath><clipPath><path fill="#f2f2f2" d="m7 1023.36h1v1h-1z"/></clipPath><clipPath><path fill="#00f" fill-opacity=".514" d="m-7 1024.36h34v34h-34z"/></clipPath><clipPath><path d="m0 706.47h1490.93v-706.47h-1490.93v706.47"/></clipPath><clipPath><path d="m22.2 686.12h1447.73v-667.19h-1447.73v667.19"/></clipPath><clipPath><path fill="#aade87" fill-opacity=".472" d="m-6 1028.36h32v32h-32z"/></clipPath><clipPath><path fill="#aade87" fill-opacity=".472" d="m-6 1028.36h32v32h-32z"/></clipPath><clipPath><path fill="#f2f2f2" d="m7 1023.36h1v1h-1z"/></clipPath><clipPath><path fill="#00f" fill-opacity=".514" d="m-7 1024.36h34v34h-34z"/></clipPath><clipPath><path fill="#f2f2f2" d="m7 1023.36h1v1h-1z"/></clipPath><clipPath><path fill="#f2f2f2" d="m7 1023.36h1v1h-1z"/></clipPath></defs><g transform="matrix(1.0049 0 0 1.0049-551.99-610.84)" fill="#fff"><path d="m483.24 0h-150.29c-27.556 0-66.04 15.94-85.52 35.424l-232.81 232.81c-19.483 19.483-19.483 51.37 0 70.85l179.64 179.64c19.483 19.484 51.37 19.484 70.849 0l232.81-232.81c19.483-19.484 35.424-57.969 35.424-85.52v-150.29c-.0001-27.554-22.544-50.1-50.1-50.1m-66.57 166.67c-27.614 0-50-22.385-50-50 0-27.614 22.386-50 50-50 27.614 0 50 22.386 50 50 0 27.614-22.386 50-50 50z" transform="matrix(.02625 0 0 .02625 552.42 610.82)"/><path d="m15.11 11.643c-.311.0001-.623.044-.934.127-.621.165-1.163.481-1.627.947-.464.466-.776 1.01-.938 1.633-.162.622-.161 1.244.004 1.865.165.621.483 1.165.949 1.629.466.464 1.01.776 1.633.938.622.162 1.244.16 1.865-.006.621-.165 1.165-.481 1.629-.947.464-.466.776-1.01.938-1.633.162-.622.159-1.246-.006-1.867-.165-.621-.481-1.163-.947-1.627-.466-.464-1.012-.776-1.635-.938-.311-.081-.621-.122-.932-.121m.305 1.512c.085 0 .157.03.217.09.058.058.088.128.088.213l.004 1.209 1.207-.004c.085 0 .157.028.215.086.06.06.09.132.09.217l.002.602c0 .085-.03.157-.09.217-.058.058-.128.088-.213.088l-1.209.004.004 1.207c0 .085-.028.157-.086.215-.06.06-.132.09-.217.09l-.6.002c-.085 0-.159-.03-.219-.09-.058-.058-.086-.128-.086-.213l-.004-1.209-1.209.004c-.085 0-.155-.028-.213-.086-.06-.06-.092-.132-.092-.217l-.002-.6c0-.085.03-.158.09-.219.058-.058.128-.086.213-.086l1.209-.004-.004-1.209c0-.084.028-.155.086-.213.06-.06.132-.092.217-.092l.602-.002" transform="matrix(.99509 0 0 .99509 549.28 607.84)" stroke="none" stroke-width="3.43"/></g></svg>