<svg xmlns="http://www.w3.org/2000/svg" viewBox="0 0 22 22"><path d="m4 4v2 1 2 1h1 2c1.108 0 2-.892 2-2 0-.811-.481-1.502-1.172-1.816.106-.206.172-.435.172-.684 0-.831-.669-1.5-1.5-1.5h-1.5-1m11 0v6h2 1c1.108 0 2-.892 2-2v-2c0-1.108-.892-2-2-2h-1-2m-10 1h1.5c.277 0 .5.223.5.5 0 .277-.223.5-.5.5h-1.5v-1m11 0h1 1c.554 0 1 .446 1 1v2c0 .554-.446 1-1 1h-1-1v-4m-11 2h1.5.5c.554 0 1 .446 1 1 0 .554-.446 1-1 1h-2v-2m6 0v1h2v-1h-2zm-6 6v1h2v-1h-2m4 0v1h2v-1h-2m4 0v1h2v-1h-2m4 0v1h2v-1h-2m-11 3l-2 2 2 2v-4m12 0v4l2-2-2-2m-6 1c-.554 0-1 .446-1 1 0 .554.446 1 1 1 .554 0 1-.446 1-1 0-.554-.446-1-1-1" transform="matrix(1.125 0 0 1.125-2.504-2.502)" fill="#fff"/></svg>