<svg xmlns="http://www.w3.org/2000/svg" viewBox="0 0 22 22"><defs><clipPath><path fill="#f2f2f2" d="m7 1023.36h1v1h-1z"/></clipPath><clipPath><rect width="32" height="32" x="392.57" y="507.8" fill="none" rx="16"/></clipPath><clipPath><rect width="32" height="32" x="8" y="8" fill="none" rx="16"/></clipPath><clipPath><rect width="32" height="32" x="392.57" y="507.8" fill="none" rx="16"/></clipPath><clipPath><rect width="32" height="32" x="392.57" y="507.8" fill="none" rx="16"/></clipPath><clipPath><rect width="32" height="32" x="8" y="8" fill="none" rx="16"/></clipPath><clipPath><rect width="32" height="32" x="8" y="8" fill="none" rx="16"/></clipPath><clipPath><rect width="32" height="32" x="392.57" y="507.8" fill="none" rx="16"/></clipPath><clipPath><rect width="32" height="32" x="392.57" y="507.8" fill="none" rx="16"/></clipPath><clipPath><rect width="32" height="32" x="392.57" y="507.8" fill="none" rx="16"/></clipPath><clipPath><rect width="32" height="32" x="392.57" y="507.8" fill="none" rx="16"/></clipPath><clipPath><rect width="32" height="32" x="392.57" y="507.8" fill="none" rx="16"/></clipPath><clipPath><rect width="32" height="32" x="392.57" y="507.8" fill="none" rx="16"/></clipPath><clipPath><rect width="32" height="32" x="392.57" y="507.8" fill="none" rx="16"/></clipPath><clipPath><rect width="32" height="32" x="8" y="8" fill="none" rx="16"/></clipPath><clipPath><rect width="32" height="32" x="392.57" y="507.8" fill="none" rx="16"/></clipPath><clipPath><rect width="32" height="32" x="8" y="8" fill="none" rx="16"/></clipPath><clipPath><rect width="32" height="32" x="392.57" y="507.8" fill="none" rx="16"/></clipPath><clipPath><rect y="507.8" x="392.57" height="32" width="32" fill="none" rx="16"/></clipPath><clipPath><rect y="8" x="8" height="32" width="32" fill="none" rx="16"/></clipPath><clipPath><rect y="507.8" x="392.57" height="32" width="32" fill="none" rx="16"/></clipPath><clipPath><rect y="507.8" x="392.57" height="32" width="32" fill="none" rx="16"/></clipPath><clipPath><path fill="#f2f2f2" d="m7 1023.36h1v1h-1z"/></clipPath><clipPath><path fill="#f2f2f2" d="m7 1023.36h1v1h-1z"/></clipPath><clipPath><path fill="#f2f2f2" d="m7 1023.36h1v1h-1z"/></clipPath><clipPath><path fill="#00f" fill-opacity=".514" d="m-7 1024.36h34v34h-34z"/></clipPath><clipPath><path fill="#f2f2f2" d="m7 1023.36h1v1h-1z"/></clipPath><clipPath><path fill="#f2f2f2" d="m7 1023.36h1v1h-1z"/></clipPath><clipPath><path fill="#f2f2f2" d="m7 1023.36h1v1h-1z"/></clipPath><clipPath><path fill="#aade87" fill-opacity=".472" d="m-6 1028.36h32v32h-32z"/></clipPath><clipPath><path fill="#f2f2f2" d="m7 1023.36h1v1h-1z"/></clipPath><clipPath><path fill="#00f" fill-opacity=".514" d="m-7 1024.36h34v34h-34z"/></clipPath><clipPath><path fill="#f2f2f2" d="m7 1023.36h1v1h-1z"/></clipPath><clipPath><path fill="#aade87" fill-opacity=".472" d="m-6 1028.36h32v32h-32z"/></clipPath><clipPath><path fill="#aade87" fill-opacity=".472" d="m-6 1028.36h32v32h-32z"/></clipPath><clipPath><path fill="#f2f2f2" d="m7 1023.36h1v1h-1z"/></clipPath><clipPath><path fill="#00f" fill-opacity=".514" d="m-7 1024.36h34v34h-34z"/></clipPath><clipPath><path fill="#f2f2f2" d="m7 1023.36h1v1h-1z"/></clipPath><clipPath><path fill="#aade87" fill-opacity=".472" d="m-6 1028.36h32v32h-32z"/></clipPath><clipPath><path fill="#00f" fill-opacity=".514" d="m-7 1024.36h34v34h-34z"/></clipPath><clipPath><path fill="#f2f2f2" d="m7 1023.36h1v1h-1z"/></clipPath><clipPath><path fill="#f2f2f2" d="m7 1023.36h1v1h-1z"/></clipPath><clipPath><path fill="#f2f2f2" d="m7 1023.36h1v1h-1z"/></clipPath><clipPath><path fill="#f2f2f2" d="m7 1023.36h1v1h-1z"/></clipPath><clipPath><path fill="#f2f2f2" d="m7 1023.36h1v1h-1z"/></clipPath><clipPath><rect width="32" height="32" x="392.57" y="507.8" fill="none" rx="16"/></clipPath><clipPath><rect width="32" height="32" x="392.57" y="507.8" fill="none" rx="16"/></clipPath><clipPath><path fill="#00f" fill-opacity=".514" d="m-7 1024.36h34v34h-34z"/></clipPath><clipPath><path fill="#f2f2f2" d="m7 1023.36h1v1h-1z"/></clipPath><clipPath><path fill="#aade87" fill-opacity=".472" d="m-6 1028.36h32v32h-32z"/></clipPath><clipPath><path fill="#f2f2f2" d="m7 1023.36h1v1h-1z"/></clipPath><clipPath><path fill="#aade87" fill-opacity=".472" d="m-6 1028.36h32v32h-32z"/></clipPath><clipPath><path fill="#f2f2f2" d="m7 1023.36h1v1h-1z"/></clipPath><clipPath><path fill="#00f" fill-opacity=".514" d="m-7 1024.36h34v34h-34z"/></clipPath><clipPath><path fill="#f2f2f2" d="m7 1023.36h1v1h-1z"/></clipPath><clipPath><path fill="#aade87" fill-opacity=".472" d="m-6 1028.36h32v32h-32z"/></clipPath><clipPath><path fill="#f2f2f2" d="m7 1023.36h1v1h-1z"/></clipPath><clipPath><path fill="#f2f2f2" d="m7 1023.36h1v1h-1z"/></clipPath><clipPath><path fill="#f2f2f2" d="m7 1023.36h1v1h-1z"/></clipPath><clipPath><path fill="#f2f2f2" d="m7 1023.36h1v1h-1z"/></clipPath><clipPath><path fill="#f2f2f2" d="m7 1023.36h1v1h-1z"/></clipPath><clipPath><path fill="#f2f2f2" d="m7 1023.36h1v1h-1z"/></clipPath><clipPath><path fill="#f2f2f2" d="m7 1023.36h1v1h-1z"/></clipPath><clipPath><path fill="#f2f2f2" d="m7 1023.36h1v1h-1z"/></clipPath><clipPath><path fill="#aade87" fill-opacity=".472" d="m-6 1028.36h32v32h-32z"/></clipPath><clipPath><path fill="#f2f2f2" d="m7 1023.36h1v1h-1z"/></clipPath><clipPath><path fill="#00f" fill-opacity=".514" d="m-7 1024.36h34v34h-34z"/></clipPath><clipPath><path fill="#f2f2f2" d="m7 1023.36h1v1h-1z"/></clipPath><clipPath><path fill="#00f" fill-opacity=".514" d="m-7 1024.36h34v34h-34z"/></clipPath><clipPath><path fill="#f2f2f2" d="m7 1023.36h1v1h-1z"/></clipPath><clipPath><rect y="507.8" x="392.57" height="32" width="32" fill="none" rx="16"/></clipPath><clipPath><rect y="507.8" x="392.57" height="32" width="32" fill="none" rx="16"/></clipPath><clipPath><rect y="507.8" x="392.57" height="32" width="32" fill="none" rx="16"/></clipPath><clipPath><rect y="8" x="8" height="32" width="32" fill="none" rx="16"/></clipPath><clipPath><rect width="32" height="32" x="392.57" y="507.8" fill="none" rx="16"/></clipPath><clipPath><rect width="32" height="32" x="392.57" y="507.8" fill="none" rx="16"/></clipPath><clipPath><rect width="32" height="32" x="8" y="8" fill="none" rx="16"/></clipPath><clipPath><rect width="32" height="32" x="392.57" y="507.8" fill="none" rx="16"/></clipPath><clipPath><rect width="32" height="32" x="392.57" y="507.8" fill="none" rx="16"/></clipPath><clipPath><path fill="#00f" fill-opacity=".514" d="m-7 1024.36h34v34h-34z"/></clipPath><clipPath><path fill="#f2f2f2" d="m7 1023.36h1v1h-1z"/></clipPath><clipPath><path fill="#aade87" fill-opacity=".472" d="m-6 1028.36h32v32h-32z"/></clipPath><clipPath><path fill="#f2f2f2" d="m7 1023.36h1v1h-1z"/></clipPath><clipPath><path fill="#f2f2f2" d="m7 1023.36h1v1h-1z"/></clipPath><clipPath><path fill="#f2f2f2" d="m7 1023.36h1v1h-1z"/></clipPath><clipPath><path fill="#f2f2f2" d="m7 1023.36h1v1h-1z"/></clipPath><clipPath><path fill="#f2f2f2" d="m7 1023.36h1v1h-1z"/></clipPath><clipPath><path fill="#aade87" fill-opacity=".472" d="m-6 1028.36h32v32h-32z"/></clipPath><clipPath><path fill="#f2f2f2" d="m7 1023.36h1v1h-1z"/></clipPath><clipPath><path fill="#00f" fill-opacity=".514" d="m-7 1024.36h34v34h-34z"/></clipPath><clipPath><path fill="#f2f2f2" d="m7 1023.36h1v1h-1z"/></clipPath><clipPath><path fill="#aade87" fill-opacity=".472" d="m-6 1028.36h32v32h-32z"/></clipPath><clipPath><path fill="#00f" fill-opacity=".514" d="m-7 1024.36h34v34h-34z"/></clipPath><clipPath><path fill="#aade87" fill-opacity=".472" d="m-6 1028.36h32v32h-32z"/></clipPath><clipPath><path fill="#aade87" fill-opacity=".472" d="m-6 1028.36h32v32h-32z"/></clipPath><clipPath><path fill="#00f" fill-opacity=".514" d="m-7 1024.36h34v34h-34z"/></clipPath><clipPath><path fill="#00f" fill-opacity=".514" d="m-7 1024.36h34v34h-34z"/></clipPath><clipPath><path fill="#f2f2f2" d="m7 1023.36h1v1h-1z"/></clipPath><clipPath><path fill="#f2f2f2" d="m7 1023.36h1v1h-1z"/></clipPath><clipPath><path fill="#f2f2f2" d="m7 1023.36h1v1h-1z"/></clipPath><clipPath><path fill="#f2f2f2" d="m7 1023.36h1v1h-1z"/></clipPath><clipPath><path fill="#f2f2f2" d="m7 1023.36h1v1h-1z"/></clipPath><clipPath><path fill="#f2f2f2" d="m7 1023.36h1v1h-1z"/></clipPath><clipPath><rect width="32" height="32" x="392.57" y="507.8" fill="none" rx="16"/></clipPath><clipPath><path fill="#f2f2f2" d="m7 1023.36h1v1h-1z"/></clipPath><clipPath><rect width="32" height="32" x="392.57" y="507.8" fill="none" rx="16"/></clipPath><clipPath><rect width="32" height="32" x="8" y="8" fill="none" rx="16"/></clipPath><clipPath><rect width="32" height="32" x="392.57" y="507.8" fill="none" rx="16"/></clipPath><clipPath><rect width="32" height="32" x="8" y="8" fill="none" rx="16"/></clipPath><clipPath><path fill="#f2f2f2" d="m7 1023.36h1v1h-1z"/></clipPath><clipPath><rect width="32" height="32" x="392.57" y="507.8" fill="none" rx="16"/></clipPath><clipPath><rect width="32" height="32" x="8" y="8" fill="none" rx="16"/></clipPath><clipPath><rect width="32" height="32" x="392.57" y="507.8" fill="none" rx="16"/></clipPath><clipPath><rect width="32" height="32" x="392.57" y="507.8" fill="none" rx="16"/></clipPath><clipPath><path fill="#f2f2f2" d="m7 1023.36h1v1h-1z"/></clipPath><clipPath><path fill="#aade87" fill-opacity=".472" d="m-6 1028.36h32v32h-32z"/></clipPath><clipPath><path fill="#00f" fill-opacity=".514" d="m-7 1024.36h34v34h-34z"/></clipPath><clipPath><path fill="#00f" fill-opacity=".514" d="m-7 1024.36h34v34h-34z"/></clipPath><clipPath><path fill="#aade87" fill-opacity=".472" d="m-6 1028.36h32v32h-32z"/></clipPath><clipPath><path fill="#aade87" fill-opacity=".472" d="m-6 1028.36h32v32h-32z"/></clipPath><clipPath><path fill="#f2f2f2" d="m7 1023.36h1v1h-1z"/></clipPath><clipPath><path fill="#00f" fill-opacity=".514" d="m-7 1024.36h34v34h-34z"/></clipPath><clipPath><path d="m69.63 12.145h-.052c-22.727-.292-46.47 4.077-46.709 4.122-2.424.451-4.946 2.974-5.397 5.397-.044.237-4.414 23.983-4.122 46.71-.292 22.777 4.078 46.523 4.122 46.761.451 2.423 2.974 4.945 5.398 5.398.237.044 23.982 4.413 46.709 4.121 22.779.292 46.524-4.077 46.761-4.121 2.423-.452 4.946-2.976 5.398-5.399.044-.236 4.413-23.981 4.121-46.709.292-22.777-4.077-46.523-4.121-46.761-.453-2.423-2.976-4.946-5.398-5.397-.238-.045-23.984-4.414-46.71-4.122"/></clipPath><clipPath><path fill="#aade87" fill-opacity=".472" d="m-6 1028.36h32v32h-32z"/></clipPath><clipPath><path fill="#00f" fill-opacity=".514" d="m-7 1024.36h34v34h-34z"/></clipPath><clipPath><path fill="#aade87" fill-opacity=".472" d="m-6 1028.36h32v32h-32z"/></clipPath><clipPath><path fill="#f2f2f2" d="m7 1023.36h1v1h-1z"/></clipPath><clipPath><path fill="#f2f2f2" d="m7 1023.36h1v1h-1z"/></clipPath><clipPath><path fill="#f2f2f2" d="m7 1023.36h1v1h-1z"/></clipPath><clipPath><path fill="#00f" fill-opacity=".514" d="m-7 1024.36h34v34h-34z"/></clipPath><clipPath><path fill="#f2f2f2" d="m7 1023.36h1v1h-1z"/></clipPath><clipPath><path fill="#aade87" fill-opacity=".472" d="m-6 1028.36h32v32h-32z"/></clipPath><clipPath><path d="m0 706.47h1490.93v-706.47h-1490.93v706.47"/></clipPath><clipPath><path fill="#00f" fill-opacity=".514" d="m-7 1024.36h34v34h-34z"/></clipPath><clipPath><path d="m22.2 686.12h1447.73v-667.19h-1447.73v667.19"/></clipPath><clipPath><path fill="#f2f2f2" d="m7 1023.36h1v1h-1z"/></clipPath><clipPath><path fill="#f2f2f2" d="m7 1023.36h1v1h-1z"/></clipPath><clipPath><rect width="32" height="32" x="392.57" y="507.8" fill="none" rx="16"/></clipPath><clipPath><rect width="32" height="32" x="392.57" y="507.8" fill="none" rx="16"/></clipPath><clipPath><rect y="8" x="8" height="32" width="32" fill="none" rx="16"/></clipPath><clipPath><rect y="507.8" x="392.57" height="32" width="32" fill="none" rx="16"/></clipPath><clipPath><rect y="507.8" x="392.57" height="32" width="32" fill="none" rx="16"/></clipPath><clipPath><rect y="507.8" x="392.57" height="32" width="32" fill="none" rx="16"/></clipPath><clipPath><rect y="507.8" x="392.57" height="32" width="32" fill="none" rx="16"/></clipPath><clipPath><rect y="507.8" x="392.57" height="32" width="32" fill="none" rx="16"/></clipPath><clipPath><rect y="507.8" x="392.57" height="32" width="32" fill="none" rx="16"/></clipPath><clipPath><rect y="507.8" x="392.57" height="32" width="32" fill="none" rx="16"/></clipPath><clipPath><rect y="8" x="8" height="32" width="32" fill="none" rx="16"/></clipPath><clipPath><rect y="507.8" x="392.57" height="32" width="32" fill="none" rx="16"/></clipPath><clipPath><path fill="#00f" fill-opacity=".514" d="m-7 1024.36h34v34h-34z"/></clipPath><clipPath><rect width="32" height="32" x="8" y="8" fill="none" rx="16"/></clipPath><clipPath><path fill="#aade87" fill-opacity=".472" d="m-6 1028.36h32v32h-32z"/></clipPath><clipPath><path fill="#aade87" fill-opacity=".472" d="m-6 1028.36h32v32h-32z"/></clipPath><clipPath><path fill="#00f" fill-opacity=".514" d="m-7 1024.36h34v34h-34z"/></clipPath><clipPath><path fill="#aade87" fill-opacity=".472" d="m-6 1028.36h32v32h-32z"/></clipPath><clipPath><rect width="32" height="32" x="392.57" y="507.8" fill="none" rx="16"/></clipPath><clipPath><path fill="#00f" fill-opacity=".514" d="m-7 1024.36h34v34h-34z"/></clipPath><clipPath><rect width="32" height="32" x="392.57" y="507.8" fill="none" rx="16"/></clipPath><clipPath><path fill="#f2f2f2" d="m7 1023.36h1v1h-1z"/></clipPath><clipPath><rect width="32" height="32" x="392.57" y="507.8" fill="none" rx="16"/></clipPath><clipPath><rect y="507.8" x="392.57" height="32" width="32" fill="none" rx="16"/></clipPath><clipPath><rect y="8" x="8" height="32" width="32" fill="none" rx="16"/></clipPath><clipPath><rect width="32" height="32" x="392.57" y="507.8" fill="none" rx="16"/></clipPath><clipPath><rect width="32" height="32" x="392.57" y="507.8" fill="none" rx="16"/></clipPath><clipPath><rect width="32" height="32" x="392.57" y="507.8" fill="none" rx="16"/></clipPath><clipPath><rect width="32" height="32" x="8" y="8" fill="none" rx="16"/></clipPath><clipPath><rect width="32" height="32" x="392.57" y="507.8" fill="none" rx="16"/></clipPath><clipPath><rect y="507.8" x="392.57" height="32" width="32" fill="none" rx="16"/></clipPath><clipPath><rect y="8" x="8" height="32" width="32" fill="none" rx="16"/></clipPath><clipPath><rect y="507.8" x="392.57" height="32" width="32" fill="none" rx="16"/></clipPath><clipPath><rect y="507.8" x="392.57" height="32" width="32" fill="none" rx="16"/></clipPath><clipPath><rect width="32" height="32" x="8" y="8" fill="none" rx="16"/></clipPath><clipPath><rect y="8" x="8" height="32" width="32" fill="none" rx="16"/></clipPath><clipPath><rect width="32" height="32" x="392.57" y="507.8" fill="none" rx="16"/></clipPath><clipPath><rect y="507.8" x="392.57" height="32" width="32" fill="none" rx="16"/></clipPath><clipPath><rect y="507.8" x="392.57" height="32" width="32" fill="none" rx="16"/></clipPath><clipPath><rect y="507.8" x="392.57" height="32" width="32" fill="none" rx="16"/></clipPath><clipPath><rect width="32" height="32" x="392.57" y="507.8" fill="none" rx="16"/></clipPath><clipPath><rect width="32" height="32" x="392.57" y="507.8" fill="none" rx="16"/></clipPath><clipPath><rect width="32" height="32" x="392.57" y="507.8" fill="none" rx="16"/></clipPath><clipPath><rect width="32" height="32" x="392.57" y="507.8" fill="none" rx="16"/></clipPath><clipPath><rect width="32" height="32" x="392.57" y="507.8" fill="none" rx="16"/></clipPath><clipPath><rect width="32" height="32" x="8" y="8" fill="none" rx="16"/></clipPath></defs><path d="m1.15 3c-.417 0-.752.337-.752.754v14.492c0 .417.335.754.752.754h19.699c.417 0 .752-.337.752-.754v-14.492c0-.417-.335-.754-.752-.754h-19.699m8.148 4.5c1.219 0 2.203.985 2.203 2.203 0 1.219-.985 2.205-2.203 2.205-.285 0-.544-.053-.777-.131l-1.166 1.168h-.779v.777h-.777v.777h-1.297v-1.297l2.723-2.721c-.078-.259-.129-.52-.129-.779 0-1.219.985-2.203 2.203-2.203m6.111.551c1.01 0 1.834.821 1.834 1.832v.746c.144.03.254.157.254.311v2.791c0 .176-.144.32-.32.32h-3.535c-.176 0-.318-.145-.318-.32v-2.791c0-.153.109-.28.254-.311v-.746c0-1.01.821-1.832 1.832-1.832m-5.463.227c-.441 0-.777.337-.777.777 0 .441.337.779.777.779.441 0 .777-.339.777-.779 0-.441-.337-.777-.777-.777m5.463.41c-.659 0-1.195.536-1.195 1.195v.738h2.391v-.738c0-.659-.536-1.195-1.195-1.195" transform="matrix(.99999 0 0 .99999.0001-.002)" fill="#fff" stroke="none"/></svg>