<svg xmlns="http://www.w3.org/2000/svg" viewBox="0 0 22 22"><defs><clipPath><path fill="#00f" fill-opacity=".514" d="m-7 1024.36h34v34h-34z"/></clipPath><clipPath><path fill="#aade87" fill-opacity=".472" d="m-6 1028.36h32v32h-32z"/></clipPath></defs><g transform="matrix(.60668 0 0 .60139-2.63-605.34)" stroke="#1f2a47" fill-rule="evenodd"><path d="m16.637 3.01l-6.04.561h-6.225c-.769-.057-1.082.014-1.082.705v13.285c-.048.758.271.742 1.02.742h6.355l6.02.697c.726 0 .73-.341.684-1.1l.051-14.05c0-.691-.039-.894-.785-.838m-1.219 4.488v1.23h-.621v-.615h-3.988l-2.76 4.738-.357.613-1.324-2.273h-.887v-.615h1.242.002l.965 1.658 2.76-4.734 4.969-.002m-3.105 1.85c.48 0 .912.183 1.242.477v-.477h.621v1.846 1.848h-.621v-.477c-.33.294-.762.477-1.242.477-1.032 0-1.863-.824-1.863-1.848 0-1.023.831-1.846 1.863-1.846m0 .615c-.688 0-1.242.548-1.242 1.23 0 .682.554 1.232 1.242 1.232.688 0 1.242-.55 1.242-1.232 0-.682-.554-1.23-1.242-1.23m-6.826 3.688h9.926c.004 0 .006.138.006.309 0 .171-.002.307-.006.307h-9.926c-.004 0-.006-.136-.006-.307 0-.171.002-.309.006-.309m4.348 1.232h1.23c.004 0 .006.136.006.307 0 .171-.002.309-.006.309h-1.23c-.004 0-.006-.138-.006-.309 0-.171.002-.307.006-.307" transform="matrix(1.64831 0 0 1.6628 4.337 1006.51)" fill="#fff" stroke="none"/><path d="m34.35 1036.94h-1.252l-1.233-2.274v-19.951l.845-2.274h1.64c.386-.094.417.023.417 1.172v22.09c.024 1.261-.042 1.234-.417 1.234z" fill="none" stroke="#fff" stroke-width=".548"/></g></svg>