<svg xmlns="http://www.w3.org/2000/svg" viewBox="0 0 22 22"><defs><clipPath><path fill="#00f" fill-opacity=".514" d="m-7 1024.36h34v34h-34z"/></clipPath><clipPath><path fill="#aade87" fill-opacity=".472" d="m-6 1028.36h32v32h-32z"/></clipPath><clipPath><path d="m69.63 12.145h-.052c-22.727-.292-46.47 4.077-46.709 4.122-2.424.451-4.946 2.974-5.397 5.397-.044.237-4.414 23.983-4.122 46.71-.292 22.777 4.078 46.523 4.122 46.761.451 2.423 2.974 4.945 5.398 5.398.237.044 23.982 4.413 46.709 4.121 22.779.292 46.524-4.077 46.761-4.121 2.423-.452 4.946-2.976 5.398-5.399.044-.236 4.413-23.981 4.121-46.709.292-22.777-4.077-46.523-4.121-46.761-.453-2.423-2.976-4.946-5.398-5.397-.238-.045-23.984-4.414-46.71-4.122"/></clipPath></defs><g transform="matrix(.67651 0 0 .67651-369.84-407.52)"><path d="m117.18 31.592c-5.595-9.586-13.185-17.18-22.771-22.771-9.588-5.595-20.06-8.392-31.408-8.392-11.352 0-21.822 2.797-31.408 8.392-9.587 5.594-17.18 13.184-22.772 22.771-5.596 9.587-8.393 20.06-8.393 31.408 0 11.352 2.798 21.82 8.392 31.408 5.595 9.585 13.185 17.18 22.772 22.771 9.587 5.595 20.06 8.392 31.408 8.392 11.352 0 21.822-2.797 31.408-8.392 9.586-5.594 17.18-13.185 22.771-22.771 5.594-9.587 8.391-20.06 8.391-31.408 0-11.352-2.797-21.822-8.39-31.408m-24.687 46.15c1.032 1.031 1.549 2.255 1.549 3.667 0 1.466-.517 2.716-1.549 3.747l-7.332 7.333c-1.032 1.032-2.281 1.548-3.748 1.548-1.412 0-2.636-.516-3.666-1.548l-14.747-14.747-14.747 14.747c-1.032 1.032-2.254 1.548-3.666 1.548-1.467 0-2.716-.516-3.748-1.548l-7.333-7.333c-1.032-1.031-1.548-2.281-1.548-3.747 0-1.412.516-2.636 1.548-3.667l14.747-14.746-14.747-14.747c-1.032-1.031-1.548-2.254-1.548-3.666 0-1.467.516-2.716 1.548-3.748l7.333-7.332c1.032-1.032 2.281-1.548 3.748-1.548 1.412 0 2.634.516 3.666 1.548l14.747 14.746 14.747-14.746c1.03-1.032 2.254-1.548 3.666-1.548 1.467 0 2.716.516 3.748 1.548l7.332 7.332c1.032 1.032 1.549 2.281 1.549 3.748 0 1.412-.517 2.635-1.549 3.666l-14.746 14.747 14.746 14.746" transform="matrix(.03995 0 0 .03995 569.75 621.61)" fill="#da4453"/><g transform="matrix(.11355 0 0 .11346 543.83 596.08)" fill="#fff" stroke="none" stroke-opacity=".8"><path d="m129.53 225.56c-.133-.919-.625-1.747-1.368-2.303l-37.7-28.19 37.7-28.19c.743-.556 1.235-1.384 1.368-2.303.132-.919-.105-1.852-.662-2.597l-5.989-8.01c-1.159-1.548-3.351-1.865-4.899-.706l-52.16 39c-.883.66-1.404 1.699-1.404 2.803 0 1.104.521 2.143 1.404 2.803l52.16 39c.628.471 1.364.697 2.093.697 1.066 0 2.119-.484 2.806-1.403l5.989-8.01c.556-.745.794-1.678.662-2.597"/><path d="m259.77 192.26l-52.16-39c-1.548-1.158-3.74-.841-4.898.706l-5.989 8.01c-.556.744-.794 1.678-.662 2.597.133.918.624 1.747 1.368 2.303l37.699 28.19-37.699 28.19c-.744.556-1.235 1.385-1.368 2.303-.132.919.105 1.853.662 2.597l5.989 8.01c.688.919 1.74 1.403 2.806 1.403.729 0 1.464-.227 2.093-.697l52.16-39c.883-.66 1.404-1.699 1.404-2.803 0-1.104-.522-2.143-1.405-2.803"/><path d="m196.26 132.44l-9.211-3.895c-.854-.362-1.818-.368-2.679-.02-.86.349-1.547 1.025-1.908 1.88l-55 130.08c-.753 1.78.08 3.834 1.861 4.587l9.211 3.895c.435.185.899.276 1.363.276.447 0 .894-.086 1.316-.257.86-.349 1.546-1.025 1.908-1.88l55-130.08c.752-1.78-.081-3.833-1.861-4.586"/></g></g></svg>