<svg xmlns="http://www.w3.org/2000/svg" viewBox="0 0 22 22"><defs><clipPath><rect y="507.8" x="392.57" height="32" width="32" fill="none" rx="16"/></clipPath><clipPath><path fill="#aade87" fill-opacity=".472" d="m-6 1028.36h32v32h-32z"/></clipPath><clipPath><rect y="8" x="8" height="32" width="32" fill="none" rx="16"/></clipPath><clipPath><rect width="32" height="32" x="392.57" y="507.8" fill="none" rx="16"/></clipPath><clipPath><rect width="32" height="32" x="392.57" y="507.8" fill="none" rx="16"/></clipPath><clipPath><rect width="32" height="32" x="392.57" y="507.8" fill="none" rx="16"/></clipPath><clipPath><rect y="507.8" x="392.57" height="32" width="32" fill="none" rx="16"/></clipPath><clipPath><path fill="#00f" fill-opacity=".514" d="m-7 1024.36h34v34h-34z"/></clipPath><clipPath><path fill="#aade87" fill-opacity=".472" d="m-6 1028.36h32v32h-32z"/></clipPath><clipPath><rect y="507.8" x="392.57" height="32" width="32" fill="none" rx="16"/></clipPath><clipPath><path fill="#00f" fill-opacity=".514" d="m-7 1024.36h34v34h-34z"/></clipPath><clipPath><path fill="#00f" fill-opacity=".514" d="m-7 1024.36h34v34h-34z"/></clipPath><clipPath><path d="m69.63 12.145h-.052c-22.727-.292-46.47 4.077-46.709 4.122-2.424.451-4.946 2.974-5.397 5.397-.044.237-4.414 23.983-4.122 46.71-.292 22.777 4.078 46.523 4.122 46.761.451 2.423 2.974 4.945 5.398 5.398.237.044 23.982 4.413 46.709 4.121 22.779.292 46.524-4.077 46.761-4.121 2.423-.452 4.946-2.976 5.398-5.399.044-.236 4.413-23.981 4.121-46.709.292-22.777-4.077-46.523-4.121-46.761-.453-2.423-2.976-4.946-5.398-5.397-.238-.045-23.984-4.414-46.71-4.122"/></clipPath><clipPath><path fill="#aade87" fill-opacity=".472" d="m-6 1028.36h32v32h-32z"/></clipPath><clipPath><rect width="32" height="32" x="8" y="8" fill="none" rx="16"/></clipPath><clipPath><path d="m0 706.47h1490.93v-706.47h-1490.93v706.47"/></clipPath><clipPath><rect width="32" height="32" x="392.57" y="507.8" fill="none" rx="16"/></clipPath><clipPath><path fill="#aade87" fill-opacity=".472" d="m-6 1028.36h32v32h-32z"/></clipPath><clipPath><path fill="#aade87" fill-opacity=".472" d="m-6 1028.36h32v32h-32z"/></clipPath><clipPath><path fill="#00f" fill-opacity=".514" d="m-7 1024.36h34v34h-34z"/></clipPath><clipPath><path fill="#00f" fill-opacity=".514" d="m-7 1024.36h34v34h-34z"/></clipPath><clipPath><path d="m22.2 686.12h1447.73v-667.19h-1447.73v667.19"/></clipPath><clipPath><rect width="32" height="32" x="392.57" y="507.8" fill="none" rx="16"/></clipPath><clipPath><rect width="32" height="32" x="392.57" y="507.8" fill="none" rx="16"/></clipPath><clipPath><rect width="32" height="32" x="8" y="8" fill="none" rx="16"/></clipPath><clipPath><rect width="32" height="32" x="8" y="8" fill="none" rx="16"/></clipPath><clipPath><rect width="32" height="32" x="392.57" y="507.8" fill="none" rx="16"/></clipPath><clipPath><rect width="32" height="32" x="392.57" y="507.8" fill="none" rx="16"/></clipPath><clipPath><rect width="32" height="32" x="392.57" y="507.8" fill="none" rx="16"/></clipPath></defs><g fill="#fff"><path d="m141.05 124.08l-31.438-31.438c7.577-10.937 11.367-23.13 11.367-36.572 0-8.738-1.697-17.09-5.088-25.07-3.391-7.975-7.974-14.849-13.749-20.623-5.775-5.775-12.647-10.358-20.621-13.749-7.976-3.392-16.333-5.087-25.07-5.087-8.738 0-17.09 1.695-25.07 5.087-7.975 3.391-14.849 7.974-20.623 13.749-5.775 5.775-10.358 12.649-13.749 20.623-3.392 7.975-5.087 16.33-5.087 25.07 0 8.738 1.695 17.09 5.087 25.07 3.391 7.974 7.974 14.847 13.749 20.621 5.775 5.776 12.649 10.358 20.623 13.75 7.975 3.392 16.331 5.087 25.07 5.087 13.445 0 25.635-3.79 36.573-11.367l31.438 31.346c2.199 2.322 4.947 3.483 8.249 3.483 3.177 0 5.929-1.161 8.249-3.483 2.322-2.321 3.483-5.072 3.483-8.249.0001-3.237-1.128-5.987-3.391-8.247m-55.59-39c-8.04 8.04-17.705 12.05-29.01 12.05-11.304 0-20.973-4.02-29.01-12.05-8.04-8.04-12.05-17.704-12.05-29.01 0-11.304 4.02-20.974 12.05-29.01 8.03-8.04 17.705-12.05 29.01-12.05 11.304 0 20.973 4.02 29.01 12.05 8.04 8.03 12.05 17.705 12.05 29.01 0 11.305-4.02 20.973-12.05 29.01" transform="matrix(.11417.00745-.00745.11417 3.93 2.548)"/><path transform="matrix(0-.91012-.91012 0-482.53-276.72)" d="m-311.19-538.8l-6.593.056 3.248-5.737z" fill-rule="evenodd"/></g></svg>