<?xml version="1.0" encoding="UTF-8" standalone="no"?>
<!-- Created with Inkscape (http://www.inkscape.org/) -->

<svg
   xmlns:dc="http://purl.org/dc/elements/1.1/"
   xmlns:cc="http://creativecommons.org/ns#"
   xmlns:rdf="http://www.w3.org/1999/02/22-rdf-syntax-ns#"
   xmlns:svg="http://www.w3.org/2000/svg"
   xmlns="http://www.w3.org/2000/svg"
   xmlns:xlink="http://www.w3.org/1999/xlink"
   xmlns:sodipodi="http://sodipodi.sourceforge.net/DTD/sodipodi-0.dtd"
   xmlns:inkscape="http://www.inkscape.org/namespaces/inkscape"
   width="48"
   height="48"
   id="svg5453"
   version="1.1"
   inkscape:version="0.91 r13725"
   sodipodi:docname="applications-games.svg">
  <defs
     id="defs5455">
    <linearGradient
       id="linearGradient4422">
      <stop
         style="stop-color:#197ff1;stop-opacity:1"
         offset="0"
         id="stop4424" />
      <stop
         style="stop-color:#21c6fb;stop-opacity:1"
         offset="1"
         id="stop4426" />
    </linearGradient>
    <linearGradient
       inkscape:collect="always"
       xlink:href="#linearGradient4613"
       id="linearGradient4650"
       gradientUnits="userSpaceOnUse"
       gradientTransform="matrix(1.714291,0,0,1.714291,-614.32094,-908.51766)"
       x1="403.43668"
       y1="544.98895"
       x2="402.48508"
       y2="518.34387" />
    <linearGradient
       inkscape:collect="always"
       id="linearGradient4613">
      <stop
         style="stop-color:#dc3c30;stop-opacity:1"
         offset="0"
         id="stop4615" />
      <stop
         style="stop-color:#ff786d;stop-opacity:1"
         offset="1"
         id="stop4617" />
    </linearGradient>
  </defs>
  <sodipodi:namedview
     id="base"
     pagecolor="#ffffff"
     bordercolor="#666666"
     borderopacity="1.0"
     inkscape:pageopacity="0"
     inkscape:pageshadow="2"
     inkscape:zoom="4"
     inkscape:cx="-2.0764097"
     inkscape:cy="15.968792"
     inkscape:document-units="px"
     inkscape:current-layer="g4370"
     showgrid="true"
     fit-margin-top="0"
     fit-margin-left="0"
     fit-margin-right="0"
     fit-margin-bottom="0"
     inkscape:window-width="1366"
     inkscape:window-height="634"
     inkscape:window-x="0"
     inkscape:window-y="36"
     inkscape:window-maximized="1"
     inkscape:showpageshadow="false"
     borderlayer="true"
     showguides="false">
    <inkscape:grid
       type="xygrid"
       id="grid4063" />
    <sodipodi:guide
       position="1.1650391e-05,32.000026"
       orientation="32,0"
       id="guide4157" />
    <sodipodi:guide
       position="1.1650391e-05,2.6367188e-05"
       orientation="0,32"
       id="guide4159" />
    <sodipodi:guide
       position="32.000012,2.6367188e-05"
       orientation="-32,0"
       id="guide4161" />
    <sodipodi:guide
       position="32.000012,32.000026"
       orientation="0,-32"
       id="guide4163" />
    <sodipodi:guide
       position="2.0000117,30.000026"
       orientation="28,0"
       id="guide4167" />
    <sodipodi:guide
       position="2.0000117,2.0000264"
       orientation="0,28"
       id="guide4169" />
    <sodipodi:guide
       position="30.000012,2.0000264"
       orientation="-28,0"
       id="guide4171" />
    <sodipodi:guide
       position="30.000012,30.000026"
       orientation="0,-28"
       id="guide4173" />
    <sodipodi:guide
       position="2.0000117,30.000026"
       orientation="28,0"
       id="guide4181" />
    <sodipodi:guide
       position="2.0000117,2.0000264"
       orientation="0,14"
       id="guide4183" />
    <sodipodi:guide
       position="16.000012,2.0000264"
       orientation="-28,0"
       id="guide4185" />
    <sodipodi:guide
       position="16.000012,30.000026"
       orientation="0,-14"
       id="guide4187" />
    <sodipodi:guide
       position="9.0000117,23.000026"
       orientation="14,0"
       id="guide4193" />
    <sodipodi:guide
       position="9.0000117,9.0000264"
       orientation="0,14.000031"
       id="guide4195" />
    <sodipodi:guide
       position="23.000042,9.0000264"
       orientation="-14,0"
       id="guide4197" />
    <sodipodi:guide
       position="23.000042,23.000026"
       orientation="0,-14.000031"
       id="guide4199" />
  </sodipodi:namedview>
  <metadata
     id="metadata5458">
    <rdf:RDF>
      <cc:Work
         rdf:about="">
        <dc:format>image/svg+xml</dc:format>
        <dc:type
           rdf:resource="http://purl.org/dc/dcmitype/StillImage" />
        <dc:title></dc:title>
      </cc:Work>
    </rdf:RDF>
  </metadata>
  <g
     inkscape:label="Capa 1"
     inkscape:groupmode="layer"
     id="layer1"
     transform="translate(-384.57143,-499.798)">
    <g
       style="display:inline;enable-background:new"
       id="g4238"
       transform="translate(225.81911,462.44565)">
      <g
         style="display:inline"
         id="layer1-8"
         transform="matrix(0.22655187,0,0,0.22655187,106.94841,54.31088)">
        <g
           style="display:none"
           id="layer6" />
        <g
           id="g4027" />
        <g
           id="g4061" />
        <g
           id="g3751" />
        <g
           id="g3782" />
        <g
           id="g3725" />
        <g
           id="g4370"
           transform="matrix(4.4140002,0,0,4.4140002,59.275211,39.357303)">
          <g
             id="g4190"
             transform="translate(-9.9999999,-5.000002)">
            <circle
               style="opacity:1;fill:url(#linearGradient4650);fill-opacity:1;stroke:none;stroke-width:1.52419364;stroke-miterlimit:4;stroke-dasharray:none;stroke-dashoffset:0;stroke-opacity:1"
               id="path3377-7"
               cx="72.375"
               cy="3.1250014"
               r="24" />
            <path
               d="m 88.915674,2.9349564 c -0.768293,0 -1.529389,0 -2.309472,0 -0.209682,0 -0.559357,-0.01253 -0.559357,-0.222154 0,-0.780829 0,-1.54875 0,-2.33106801 0,-0.209619 0.0098,-0.484954 -0.199877,-0.484954 -0.781511,0 -1.544096,0 -2.320022,0 -0.210054,0 -0.518401,-0.06497 -0.518401,-0.27459 0,-0.77586399 0,-1.53807599 0,-2.31853199 0,-0.209992 -0.03115,-0.445053 -0.240833,-0.445053 -0.779525,0 -1.544468,0 -2.313444,0 -0.209681,0 -0.483837,-0.105617 -0.483837,-0.315236 0,-0.79144 0,-1.5620294 0,-2.3298884 0,-0.20962 -0.117779,-0.377849 -0.327336,-0.375987 -0.757744,0.0061 -1.533918,0.0068 -2.320518,0.0068 -0.209557,0 -0.390011,0.170153 -0.390011,0.379772 0,0.7861034 0,1.5498664 0,2.3094104 -3.72e-4,0.210364 -0.09687,0.325103 -0.306858,0.325103 -2.850834,0 -5.669586,0 -8.520109,0 -0.20962,0 -0.28787,-0.114739 -0.28787,-0.324358 0,-0.772079 0,-1.5365874 0,-2.3116454 0,-0.209619 -0.215701,-0.379771 -0.42532,-0.379771 -0.778905,0 -1.509966,-7.45e-4 -2.260015,-0.0068 -0.210426,-0.0015 -0.352841,0.166739 -0.352841,0.376359 0,0.775119 0,1.5532794 0,2.3515454 0,0.210054 -0.27006,0.294758 -0.480051,0.294758 -0.783435,0 -1.551728,0 -2.332557,0 -0.209619,0 -0.225567,0.254794 -0.225567,0.464414 0,0.7812 0,1.544157 0,2.32157299 0,0.209991 -0.324358,0.252188 -0.533977,0.252188 -0.780456,0 -1.547571,0 -2.324552,0 -0.209619,0 -0.559419,0.297364 -0.559419,0.507356 0,0.77853201 0,1.54260601 0,2.32455101 0,0.20962 0.0095,0.206207 -0.200124,0.206207 -0.771707,0 -1.531996,0 -2.288871,0 -0.209619,0 -0.54918,0.343284 -0.54918,0.552903 0,2.830046 0,5.626334 0,8.4225596 0,0.210054 0.339499,0.518773 0.54918,0.518773 0.762584,0 1.517909,0 2.287754,0 0.209619,0 0.201304,-0.309526 0.201304,-0.519145 0,-1.797464 0,-3.5763096 0,-5.3604936 0,-0.210053 0.34862,-0.196712 0.558301,-0.196712 0.785359,0 1.557438,0 2.347698,0 0.20962,0 0.511948,-0.01291 0.511948,0.196712 0,1.800876 0,3.5892166 0,5.3946846 0,0.20962 0.10363,0.3794 0.313684,0.3794 0.779277,0 1.566187,0.0011 2.316609,0.0068 0.209619,0.0019 0.407882,-0.166305 0.407882,-0.375987 0,-0.770899 0,-1.542234 0,-2.3161736 0,-0.209681 0.0471,-0.247224 0.257091,-0.247224 4.910042,0 9.789057,0 14.678558,0 0.209682,0 0.37971,0.104065 0.37971,0.313684 0,0.7793386 -0.0011,1.5654416 -0.0071,2.3242416 -0.0016,0.209991 0.166305,0.400249 0.375987,0.400249 0.764011,0 1.530505,0 2.312823,0 0.209185,0 0.231959,-0.277258 0.231959,-0.486877 0,-1.814528 0,-3.5964776 0,-5.3874246 0,-0.209681 0.317532,-0.202049 0.527461,-0.202049 0.791936,0 1.569662,0 2.360357,0 0.209557,0 0.53013,-0.0076 0.53013,0.202049 0,1.796656 0,3.5759366 0,5.3551566 0,0.209619 0.02011,0.519145 0.229786,0.519145 0.765626,0 1.515241,0 2.258775,0 0.209681,0 0.549614,-0.309092 0.549614,-0.518773 0,-2.8182546 0,-5.6164666 0,-8.4381356 1.24e-4,-0.209929 -0.339499,-0.537327 -0.549056,-0.537327 z M 67.817791,2.6953024 c 0,0.209682 -0.23773,0.239654 -0.447349,0.239654 -0.769783,0 -1.539628,0 -2.320022,0 -0.209991,0 -0.270742,-0.02966 -0.270742,-0.239219 0,-0.766743 0,-1.532802 0,-2.31623701 0,-0.209619 0.06112,-0.482658 0.271177,-0.482658 0.778532,0 1.544902,0 2.319277,0 0.209619,0 0.447721,0.273039 0.447721,0.483092 -6.2e-5,0.77201701 -6.2e-5,1.53801501 -6.2e-5,2.31536801 z m 12.152765,0.0061 c 0,0.209619 -0.06348,0.233572 -0.273039,0.233572 -0.767549,0 -1.533547,0 -2.315864,0 -0.210054,0 -0.449273,-0.02395 -0.449273,-0.234007 0,-0.776236 0,-1.542234 0,-2.31735301 0,-0.209247 0.239591,-0.486878 0.449273,-0.486878 0.772761,0 1.538386,0 2.315864,0 0.209557,0 0.273039,0.277196 0.273039,0.486878 0,0.76903801 0,1.53844801 0,2.31778801 z"
               id="path5"
               inkscape:connector-curvature="0"
               style="fill:#ffffff;fill-opacity:0.84677423" />
            <path
               d="m 70.447712,12.350694 c -0.57152,3.72e-4 -1.148004,0.0011 -1.710091,-4.35e-4 -1.228984,-0.0038 -2.465105,-0.0091 -3.694027,-0.01409 -0.209619,-7.45e-4 -0.381695,0.168664 -0.379772,0.378717 0.0061,0.759482 0.005,1.568421 0.0053,2.328337 0,0.209619 0.168229,0.424575 0.37791,0.424575 1.825946,0 3.599829,0 5.37185,0 0.209619,-3.72e-4 0.43711,-0.260876 0.43711,-0.470495 0,-0.75731 0,-1.505436 0,-2.266469 0,-0.210054 -0.198636,-0.380579 -0.408255,-0.380144 z"
               id="path7"
               inkscape:connector-curvature="0"
               style="fill:#ffffff;fill-opacity:0.84677423" />
            <path
               d="m 79.848619,12.342316 c -0.05889,0.0045 -0.09079,0.04673 -0.150792,0.04673 -1.808198,0.0011 -3.587728,0.04021 -5.395802,0.04021 -0.05771,0 -0.115483,0 -0.172077,0 -0.09488,0 -0.235744,0.09116 -0.235744,0.300777 0,0.77512 0,1.524425 0,2.272178 0,0.20962 0.233945,0.465221 0.443936,0.465221 1.786728,0 3.559866,0 5.366823,0 0.209682,0 0.26553,-0.255974 0.26553,-0.465593 0,-0.772823 0,-1.536959 0,-2.299916 6.3e-5,-0.209619 -0.02271,-0.367237 -0.121874,-0.359605 z"
               id="path9"
               inkscape:connector-curvature="0"
               style="fill:#ffffff;fill-opacity:0.84677423" />
            <path
               d="m 62.000454,-6.179509 c 0.772824,0 1.536525,0 2.299544,0 0.209619,0 0.377476,-0.164071 0.375987,-0.373691 -0.0061,-0.759544 -0.0068,-1.524052 -0.0072,-2.283968 0,-0.209619 -0.170153,-0.380144 -0.380145,-0.380144 -0.787282,0 -1.539627,0 -2.288126,0 -0.209619,-3.73e-4 -0.259014,0.176606 -0.259014,0.386598 0,0.759544 0,1.511145 0,2.283968 -6.2e-5,0.209557 0.04927,0.367237 0.258952,0.367237 z"
               id="path11"
               inkscape:connector-curvature="0"
               style="fill:#ffffff;fill-opacity:0.84677423" />
            <path
               d="m 80.407604,-6.159031 c 0.759543,-0.0061 1.49259,-0.0068 2.252506,-0.0072 0.20993,0 0.348559,-0.170525 0.348559,-0.380145 0,-0.787654 0,-1.539938 0,-2.28887 0,-0.20962 -0.05088,-0.382441 -0.260442,-0.382441 -0.758861,0 -1.5104,0 -2.283285,0 -0.209558,0 -0.494386,0.173504 -0.494386,0.383185 0,0.772824 0,1.53696 0,2.299855 0,0.209619 0.227366,0.377476 0.437048,0.375614 z"
               id="path13"
               inkscape:connector-curvature="0"
               style="fill:#ffffff;fill-opacity:0.84677423" />
          </g>
        </g>
      </g>
    </g>
  </g>
</svg>
