<?xml version="1.0" encoding="UTF-8" standalone="no"?>
<!-- Created with Inkscape (http://www.inkscape.org/) -->

<svg
   xmlns:dc="http://purl.org/dc/elements/1.1/"
   xmlns:cc="http://creativecommons.org/ns#"
   xmlns:rdf="http://www.w3.org/1999/02/22-rdf-syntax-ns#"
   xmlns:svg="http://www.w3.org/2000/svg"
   xmlns="http://www.w3.org/2000/svg"
   xmlns:xlink="http://www.w3.org/1999/xlink"
   xmlns:sodipodi="http://sodipodi.sourceforge.net/DTD/sodipodi-0.dtd"
   xmlns:inkscape="http://www.inkscape.org/namespaces/inkscape"
   width="48"
   height="48"
   id="svg5453"
   version="1.1"
   inkscape:version="0.91 r13725"
   sodipodi:docname="applications-engineering.svg"
   viewBox="0 0 48 48">
  <defs
     id="defs5455">
    <linearGradient
       inkscape:collect="always"
       id="linearGradient4360">
      <stop
         style="stop-color:#2f3f47;stop-opacity:1"
         offset="0"
         id="stop4362" />
      <stop
         style="stop-color:#425963;stop-opacity:1"
         offset="1"
         id="stop4364" />
    </linearGradient>
    <linearGradient
       id="linearGradient4232">
      <stop
         id="stop4234-0"
         offset="0"
         style="stop-color:#3889e9;stop-opacity:1" />
      <stop
         id="stop4236"
         offset="1"
         style="stop-color:#5ea5fb;stop-opacity:1" />
    </linearGradient>
    <linearGradient
       inkscape:collect="always"
       xlink:href="#linearGradient4232"
       id="linearGradient3426"
       x1="399.57144"
       y1="545.79797"
       x2="399.57144"
       y2="517.79797"
       gradientUnits="userSpaceOnUse" />
    <linearGradient
       inkscape:collect="always"
       xlink:href="#linearGradient4360"
       id="linearGradient4181"
       gradientUnits="userSpaceOnUse"
       x1="400.5119"
       y1="546.07446"
       x2="400.69922"
       y2="517.77289" />
  </defs>
  <sodipodi:namedview
     id="base"
     pagecolor="#b9b9b9"
     bordercolor="#666666"
     borderopacity="1.0"
     inkscape:pageopacity="0"
     inkscape:pageshadow="2"
     inkscape:zoom="6.2788365"
     inkscape:cx="-4.9759096"
     inkscape:cy="25.117855"
     inkscape:document-units="px"
     inkscape:current-layer="g4277"
     showgrid="false"
     fit-margin-top="0"
     fit-margin-left="0"
     fit-margin-right="0"
     fit-margin-bottom="0"
     inkscape:window-width="1366"
     inkscape:window-height="633"
     inkscape:window-x="0"
     inkscape:window-y="33"
     inkscape:window-maximized="1"
     inkscape:showpageshadow="false"
     borderlayer="true"
     showguides="false"
     inkscape:snap-bbox="true"
     inkscape:bbox-nodes="true"
     inkscape:snap-global="true"
     inkscape:object-nodes="true">
    <inkscape:grid
       type="xygrid"
       id="grid4063" />
    <sodipodi:guide
       position="4.2167969e-05,32.000026"
       orientation="32,0"
       id="guide4625" />
    <sodipodi:guide
       position="4.2167969e-05,2.6367188e-05"
       orientation="0,31.999969"
       id="guide4627" />
    <sodipodi:guide
       position="16,34"
       orientation="-32,0"
       id="guide4629" />
    <sodipodi:guide
       position="32.000012,32.000026"
       orientation="0,-31.999969"
       id="guide4631" />
    <sodipodi:guide
       position="2,26"
       orientation="28,0"
       id="guide4633" />
    <sodipodi:guide
       position="80,-10"
       orientation="0,27.999969"
       id="guide4635" />
    <sodipodi:guide
       position="30,17"
       orientation="-28,0"
       id="guide4637" />
    <sodipodi:guide
       position="30.000012,30.000026"
       orientation="0,-27.999969"
       id="guide4639" />
    <sodipodi:guide
       position="9,27"
       orientation="14,0"
       id="guide4429" />
    <sodipodi:guide
       position="9.0000117,10.000271"
       orientation="0,14.000031"
       id="guide4431" />
    <sodipodi:guide
       position="-200,-520"
       orientation="-14,0"
       id="guide4433" />
    <sodipodi:guide
       position="43,24.000271"
       orientation="0,-14.000031"
       id="guide4435" />
  </sodipodi:namedview>
  <metadata
     id="metadata5458">
    <rdf:RDF>
      <cc:Work
         rdf:about="">
        <dc:format>image/svg+xml</dc:format>
        <dc:type
           rdf:resource="http://purl.org/dc/dcmitype/StillImage" />
        <dc:title></dc:title>
      </cc:Work>
    </rdf:RDF>
  </metadata>
  <g
     inkscape:label="Capa 1"
     inkscape:groupmode="layer"
     id="layer1"
     transform="translate(-384.57143,-499.798)">
    <circle
       r="0"
       cy="531.79791"
       cx="400.57138"
       id="ellipse4233"
       style="opacity:1;fill:url(#linearGradient3426);fill-opacity:1;stroke:none;stroke-width:4;stroke-miterlimit:4;stroke-dasharray:none;stroke-dashoffset:0;stroke-opacity:1" />
    <g
       id="g4265"
       transform="matrix(1.0753113,0,0,1.0753113,-30.117002,-39.985805)">
      <g
         id="g4277"
         transform="matrix(1.039268,0,0,1.039268,-15.714789,-20.900341)">
        <g
           id="g4366"
           transform="matrix(1.5339874,0,0,1.5339874,-206.80099,-291.17272)">
          <circle
             r="13.999958"
             cy="531.79791"
             cx="400.57138"
             id="path3377"
             style="opacity:1;fill:url(#linearGradient4181);fill-opacity:1;stroke:none;stroke-width:1.19965255;stroke-miterlimit:4;stroke-dasharray:none;stroke-dashoffset:0;stroke-opacity:1" />
          <circle
             style="opacity:1;fill:#5ea5fb;fill-opacity:0;stroke:none;stroke-width:4;stroke-miterlimit:4;stroke-dasharray:none;stroke-dashoffset:0;stroke-opacity:1"
             id="circle4174"
             cx="400.57144"
             cy="531.79797"
             r="13.999958" />
          <g
             style="fill:#ffffff;fill-opacity:0.84677423"
             transform="matrix(0.01679572,-0.01733723,0.01733723,0.01679572,390.24647,532.01213)"
             id="g4404">
            <g
               style="fill:#ffffff;fill-opacity:0.84677423"
               id="g4361">
              <g
                 style="fill:#ffffff;fill-opacity:0.84677423"
                 id="Fan">
                <path
                   style="fill:#ffffff;fill-opacity:0.84677423"
                   inkscape:connector-curvature="0"
                   d="M 562.041,0 C 391.347,0 220.653,0 49.959,0 22.368,0 0,22.368 0,49.959 0,220.653 0,391.346 0,562.041 0,589.632 22.368,612 49.959,612 c 170.694,0 341.387,0 512.082,0 C 589.632,612 612,589.632 612,562.041 612,391.347 612,220.654 612,49.959 612,22.368 589.632,0 562.041,0 Z M 49.959,37.469 c 6.898,0 12.49,5.592 12.49,12.49 0,6.898 -5.592,12.49 -12.49,12.49 -6.898,0 -12.49,-5.592 -12.49,-12.49 0,-6.898 5.592,-12.49 12.49,-12.49 z m 0,537.062 c -6.898,0 -12.49,-5.592 -12.49,-12.49 0,-6.898 5.592,-12.49 12.49,-12.49 6.898,0 12.49,5.592 12.49,12.49 0,6.898 -5.592,12.49 -12.49,12.49 z M 306,554.547 C 168.731,554.547 57.453,443.269 57.453,306 57.453,168.731 168.731,57.453 306,57.453 443.269,57.453 554.547,168.731 554.547,306 554.547,443.269 443.269,554.547 306,554.547 Z m 256.041,19.984 c -6.898,0 -12.49,-5.592 -12.49,-12.49 0,-6.898 5.592,-12.49 12.49,-12.49 6.898,0 12.49,5.592 12.49,12.49 0,6.898 -5.592,12.49 -12.49,12.49 z m 0,-512.082 c -6.898,0 -12.49,-5.592 -12.49,-12.49 0,-6.898 5.592,-12.49 12.49,-12.49 6.898,0 12.49,5.592 12.49,12.49 0,6.898 -5.592,12.49 -12.49,12.49 z"
                   id="path4364" />
                <path
                   style="fill:#ffffff;fill-opacity:0.84677423"
                   inkscape:connector-curvature="0"
                   d="m 524.976,260.924 c -1.238,-6.015 -3.819,-10.307 -8.554,-14.218 -37.84,-31.272 -90.317,-29.17 -157.433,6.305 -4.38,-4.38 -9.121,-8.082 -14.434,-11.27 46.257,-41.499 88.423,-58.921 126.495,-52.269 11.225,1.961 18.998,-10.901 12.043,-19.926 -15.437,-20.035 -33.006,-36.347 -54.128,-50.259 -5.13,-3.378 -9.989,-4.586 -16.103,-4.005 -48.869,4.645 -84.49,43.238 -106.863,115.78 -6.195,0 -12.165,0.734 -18.175,2.237 3.365,-62.052 20.86,-104.187 52.486,-126.405 9.324,-6.55 5.725,-21.141 -5.574,-22.607 -25.083,-3.251 -49.04,-2.363 -73.813,2.737 -6.015,1.238 -10.307,3.819 -14.218,8.554 -31.272,37.84 -29.17,90.317 6.305,157.433 -4.38,4.38 -8.082,9.121 -11.27,14.434 -41.499,-46.257 -58.921,-88.423 -52.269,-126.495 1.961,-11.225 -10.901,-18.998 -19.926,-12.044 -20.035,15.437 -36.347,33.006 -50.259,54.128 -3.378,5.13 -4.586,9.989 -4.005,16.103 4.645,48.869 43.238,84.49 115.78,106.863 0,6.195 0.734,12.165 2.237,18.175 -62.052,-3.365 -104.187,-20.86 -126.405,-52.486 -6.55,-9.324 -21.141,-5.725 -22.607,5.574 -3.251,25.083 -2.363,49.04 2.737,73.813 1.238,6.015 3.819,10.307 8.554,14.218 37.84,31.272 90.317,29.17 157.433,-6.305 4.38,4.38 9.121,8.082 14.434,11.27 -46.257,41.499 -88.423,58.921 -126.495,52.269 -11.225,-1.961 -18.998,10.901 -12.043,19.926 15.437,20.035 33.006,36.347 54.128,50.259 5.13,3.378 9.989,4.586 16.103,4.005 48.869,-4.645 84.49,-43.238 106.863,-115.78 6.195,0 12.165,-0.734 18.175,-2.238 -3.365,62.052 -20.86,104.187 -52.486,126.405 -9.324,6.55 -5.725,21.141 5.574,22.607 25.083,3.251 49.04,2.363 73.813,-2.737 6.015,-1.238 10.307,-3.819 14.218,-8.554 31.272,-37.84 29.17,-90.317 -6.305,-157.433 4.38,-4.38 8.082,-9.121 11.27,-14.434 41.499,46.257 58.921,88.423 52.269,126.495 -1.961,11.225 10.901,18.998 19.926,12.043 20.035,-15.437 36.347,-33.006 50.259,-54.128 3.378,-5.13 4.586,-9.989 4.005,-16.103 -4.645,-48.869 -43.238,-84.49 -115.78,-106.863 0,-6.195 -0.734,-12.165 -2.237,-18.175 62.052,3.365 104.187,20.86 126.405,52.486 6.55,9.324 21.141,5.725 22.607,-5.574 3.251,-25.082 2.363,-49.037 -2.737,-73.811 z M 306,368.449 c -34.489,0 -62.449,-27.96 -62.449,-62.449 0,-34.489 27.96,-62.449 62.449,-62.449 34.489,0 62.449,27.96 62.449,62.449 0,34.489 -27.96,62.449 -62.449,62.449 z"
                   id="path4366" />
              </g>
            </g>
            <g
               style="fill:#ffffff;fill-opacity:0.84677423"
               id="g4368" />
            <g
               style="fill:#ffffff;fill-opacity:0.84677423"
               id="g4370" />
            <g
               style="fill:#ffffff;fill-opacity:0.84677423"
               id="g4372" />
            <g
               style="fill:#ffffff;fill-opacity:0.84677423"
               id="g4374" />
            <g
               style="fill:#ffffff;fill-opacity:0.84677423"
               id="g4376" />
            <g
               style="fill:#ffffff;fill-opacity:0.84677423"
               id="g4378" />
            <g
               style="fill:#ffffff;fill-opacity:0.84677423"
               id="g4380" />
            <g
               style="fill:#ffffff;fill-opacity:0.84677423"
               id="g4382" />
            <g
               style="fill:#ffffff;fill-opacity:0.84677423"
               id="g4384" />
            <g
               style="fill:#ffffff;fill-opacity:0.84677423"
               id="g4386" />
            <g
               style="fill:#ffffff;fill-opacity:0.84677423"
               id="g4388" />
            <g
               style="fill:#ffffff;fill-opacity:0.84677423"
               id="g4390" />
            <g
               style="fill:#ffffff;fill-opacity:0.84677423"
               id="g4392" />
            <g
               style="fill:#ffffff;fill-opacity:0.84677423"
               id="g4394" />
            <g
               style="fill:#ffffff;fill-opacity:0.84677423"
               id="g4396" />
          </g>
        </g>
      </g>
    </g>
  </g>
</svg>
