<?xml version="1.0" encoding="UTF-8" standalone="no"?>
<!-- Created with Inkscape (http://www.inkscape.org/) -->

<svg
   xmlns:sketch="http://www.bohemiancoding.com/sketch/ns"
   xmlns:dc="http://purl.org/dc/elements/1.1/"
   xmlns:cc="http://creativecommons.org/ns#"
   xmlns:rdf="http://www.w3.org/1999/02/22-rdf-syntax-ns#"
   xmlns:svg="http://www.w3.org/2000/svg"
   xmlns="http://www.w3.org/2000/svg"
   xmlns:xlink="http://www.w3.org/1999/xlink"
   xmlns:sodipodi="http://sodipodi.sourceforge.net/DTD/sodipodi-0.dtd"
   xmlns:inkscape="http://www.inkscape.org/namespaces/inkscape"
   width="48"
   height="48"
   id="svg5453"
   version="1.1"
   inkscape:version="0.91 r13725"
   sodipodi:docname="applications-development-web.svg"
   viewBox="0 0 48 48">
  <defs
     id="defs5455">
    <linearGradient
       inkscape:collect="always"
       id="linearGradient4428">
      <stop
         style="stop-color:#d0d0d0;stop-opacity:1"
         offset="0"
         id="stop4430" />
      <stop
         style="stop-color:#f1eeee;stop-opacity:1"
         offset="1"
         id="stop4432" />
    </linearGradient>
    <linearGradient
       id="linearGradient4232">
      <stop
         id="stop4234-0"
         offset="0"
         style="stop-color:#3889e9;stop-opacity:1" />
      <stop
         id="stop4236"
         offset="1"
         style="stop-color:#5ea5fb;stop-opacity:1" />
    </linearGradient>
    <linearGradient
       inkscape:collect="always"
       xlink:href="#linearGradient4232"
       id="linearGradient3426"
       x1="399.57144"
       y1="545.79797"
       x2="399.57144"
       y2="517.79797"
       gradientUnits="userSpaceOnUse" />
    <linearGradient
       inkscape:collect="always"
       xlink:href="#linearGradient4232-7-5"
       id="linearGradient4181"
       gradientUnits="userSpaceOnUse"
       x1="397.57144"
       y1="544.79797"
       x2="397.57144"
       y2="517.79797" />
    <linearGradient
       inkscape:collect="always"
       xlink:href="#linearGradient4428"
       id="linearGradient4434"
       x1="412.03708"
       y1="542.20105"
       x2="412.03708"
       y2="526.20105"
       gradientUnits="userSpaceOnUse" />
    <linearGradient
       id="linearGradient4232-7-5">
      <stop
         style="stop-color:#373a3d;stop-opacity:1"
         offset="0"
         id="stop4234-6" />
      <stop
         style="stop-color:#727273;stop-opacity:1"
         offset="1"
         id="stop4236-2-1" />
    </linearGradient>
    <linearGradient
       inkscape:collect="always"
       xlink:href="#linearGradient4232"
       id="linearGradient4830"
       gradientUnits="userSpaceOnUse"
       x1="399.57144"
       y1="545.79797"
       x2="399.57144"
       y2="517.79797" />
    <linearGradient
       inkscape:collect="always"
       xlink:href="#linearGradient4428"
       id="linearGradient4832"
       gradientUnits="userSpaceOnUse"
       x1="412.03708"
       y1="542.20105"
       x2="412.03708"
       y2="526.20105" />
    <linearGradient
       inkscape:collect="always"
       xlink:href="#linearGradient4428"
       id="linearGradient4834"
       gradientUnits="userSpaceOnUse"
       x1="412.03708"
       y1="542.20105"
       x2="412.03708"
       y2="526.20105" />
    <linearGradient
       inkscape:collect="always"
       xlink:href="#linearGradient4428"
       id="linearGradient4185"
       gradientUnits="userSpaceOnUse"
       x1="412.03708"
       y1="542.20105"
       x2="412.03708"
       y2="526.20105" />
  </defs>
  <sodipodi:namedview
     id="base"
     pagecolor="#b9b9b9"
     bordercolor="#666666"
     borderopacity="1.0"
     inkscape:pageopacity="0"
     inkscape:pageshadow="2"
     inkscape:zoom="9.7506638"
     inkscape:cx="3.6271825"
     inkscape:cy="16.138611"
     inkscape:document-units="px"
     inkscape:current-layer="layer1-00"
     showgrid="true"
     fit-margin-top="0"
     fit-margin-left="0"
     fit-margin-right="0"
     fit-margin-bottom="0"
     inkscape:window-width="1366"
     inkscape:window-height="633"
     inkscape:window-x="0"
     inkscape:window-y="33"
     inkscape:window-maximized="1"
     inkscape:showpageshadow="false"
     borderlayer="true"
     showguides="true"
     inkscape:snap-bbox="true"
     inkscape:bbox-nodes="true"
     inkscape:snap-global="true"
     inkscape:object-nodes="true">
    <inkscape:grid
       type="xygrid"
       id="grid4063" />
    <sodipodi:guide
       position="4.2167969e-05,32.000026"
       orientation="32,0"
       id="guide4625" />
    <sodipodi:guide
       position="4.2167969e-05,2.6367188e-05"
       orientation="0,31.999969"
       id="guide4627" />
    <sodipodi:guide
       position="16,34"
       orientation="-32,0"
       id="guide4629" />
    <sodipodi:guide
       position="32.000012,32.000026"
       orientation="0,-31.999969"
       id="guide4631" />
    <sodipodi:guide
       position="2,26"
       orientation="28,0"
       id="guide4633" />
    <sodipodi:guide
       position="2.0000422,2.0000264"
       orientation="0,27.999969"
       id="guide4635" />
    <sodipodi:guide
       position="30,17"
       orientation="-28,0"
       id="guide4637" />
    <sodipodi:guide
       position="30.000012,30.000026"
       orientation="0,-27.999969"
       id="guide4639" />
    <sodipodi:guide
       position="9,27"
       orientation="14,0"
       id="guide4429" />
    <sodipodi:guide
       position="9.0000117,10.000271"
       orientation="0,14.000031"
       id="guide4431" />
    <sodipodi:guide
       position="23,-5"
       orientation="-14,0"
       id="guide4433" />
    <sodipodi:guide
       position="43,24.000271"
       orientation="0,-14.000031"
       id="guide4435" />
  </sodipodi:namedview>
  <metadata
     id="metadata5458">
    <rdf:RDF>
      <cc:Work
         rdf:about="">
        <dc:format>image/svg+xml</dc:format>
        <dc:type
           rdf:resource="http://purl.org/dc/dcmitype/StillImage" />
        <dc:title></dc:title>
      </cc:Work>
    </rdf:RDF>
  </metadata>
  <g
     inkscape:label="Capa 1"
     inkscape:groupmode="layer"
     id="layer1"
     transform="translate(-384.57143,-499.798)">
    <circle
       r="0"
       cy="531.79791"
       cx="400.57138"
       id="ellipse4233"
       style="opacity:1;fill:url(#linearGradient3426);fill-opacity:1;stroke:none;stroke-width:4;stroke-miterlimit:4;stroke-dasharray:none;stroke-dashoffset:0;stroke-opacity:1" />
    <g
       id="g4265"
       transform="matrix(1.0753113,0,0,1.0753113,-30.117002,-39.985805)">
      <g
         id="g4277"
         transform="matrix(1.039268,0,0,1.039268,-15.714789,-20.900341)">
        <g
           transform="translate(389.54665,-513.5363)"
           id="layer1-1"
           inkscape:label="Capa 1">
          <g
             style="fill:none;fill-opacity:1;stroke:#4f96d1;stroke-opacity:1"
             inkscape:label="Capa 1"
             id="layer1-0"
             transform="matrix(0.90537551,0,0,0.90537551,-365.91682,562.06022)" />
          <g
             inkscape:label="Capa 1"
             id="layer1-00"
             transform="translate(-401.01229,510.63371)"
             style="fill:url(#linearGradient4434);fill-opacity:1">
            <g
               id="g4176"
               style="fill:url(#linearGradient4185)"
               transform="matrix(1.5338892,0,0,1.5338892,-212.88166,-292.70447)">
              <circle
                 r="13.999958"
                 cy="531.79791"
                 cx="400.57138"
                 id="path3377"
                 style="opacity:1;fill:url(#linearGradient4181);fill-opacity:1;stroke:none;stroke-width:1.19965255;stroke-miterlimit:4;stroke-dasharray:none;stroke-dashoffset:0;stroke-opacity:1"
                 transform="translate(11.465642,2.9025881)" />
              <circle
                 style="opacity:1;fill:#5ea5fb;fill-opacity:0;stroke:none;stroke-width:4;stroke-miterlimit:4;stroke-dasharray:none;stroke-dashoffset:0;stroke-opacity:1"
                 id="circle4174"
                 cx="400.57144"
                 cy="531.79797"
                 r="13.999958"
                 transform="translate(11.465642,2.9025881)" />
              <g
                 style="fill:url(#linearGradient4834)"
                 inkscape:label="Capa 1"
                 id="layer1-10"
                 transform="matrix(0.9034943,0,0,0.9034943,50.094722,54.161595)">
                <circle
                   r="0"
                   cy="531.79791"
                   cx="400.57138"
                   id="ellipse4233-7"
                   style="opacity:1;fill:url(#linearGradient4830);fill-opacity:1;stroke:none;stroke-width:4;stroke-miterlimit:4;stroke-dasharray:none;stroke-dashoffset:0;stroke-opacity:1" />
                <g
                   style="fill:url(#linearGradient4832)"
                   id="g4290"
                   transform="matrix(1.0508504,0,0,1.0508504,-20.353166,-26.940048)">
                  <path
                     inkscape:connector-curvature="0"
                     style="fill:#ffffff;fill-opacity:0.18548387;fill-rule:nonzero;stroke:none;stroke-width:0.69999957"
                     d="m 400.54101,517.03368 c -1.86199,0 -3.63428,0.35521 -5.27216,0.9789 -0.1191,0.10948 -0.27395,0.19353 -0.39646,0.18312 -0.0173,-0.002 -0.0333,-0.0116 -0.0512,-0.0188 -0.80736,0.33778 -1.57323,0.75163 -2.29943,1.22108 0.0943,0.15317 0.12239,0.32371 -0.0715,0.40657 -0.0326,0.0131 -0.4433,0.0555 -0.58675,0.0525 -2.06511,1.5006 -3.72172,3.51882 -4.78056,5.87487 0.0171,-0.003 0.0318,-0.01 0.0498,-0.0108 0.16071,-0.003 0.39197,0.043 0.54634,0.076 0.14243,0.0293 0.25732,0.12485 0.3806,0.13411 0.34985,0.0268 0.43397,-0.24552 0.71937,-0.39791 0.29494,0.0412 0.49062,-0.0504 0.75691,-0.0206 0.18153,0.0206 0.31267,0.21403 0.45412,0.22491 0.11899,0.0116 0.22369,-0.11151 0.33881,-0.0939 0.11188,0.0176 0.30475,0.26116 0.32296,0.3979 0.0236,0.17018 -0.12521,0.32343 -0.0761,0.51037 0.17829,0.18154 0.5022,0.21834 0.75688,0.32293 0.1659,-0.1367 0.0223,-0.39034 0,-0.5882 -0.003,-0.0874 0.0116,-0.16482 0,-0.2451 -0.0147,-0.13627 -0.0733,-0.26107 -0.0742,-0.37771 -0.003,-0.53863 0.43452,-0.79072 0.79579,-1.00338 0.15638,-0.0927 0.27951,-0.25513 0.41519,-0.32298 0.19167,-0.096 0.33439,-0.11846 0.49304,-0.20761 0.28679,-0.16107 0.53267,-0.29033 0.75692,-0.47285 0.10349,-0.24425 0.01,-0.57174 0.0193,-0.81313 0.10354,-0.0635 0.19277,0.0274 0.30273,0.0189 0.173,-0.0357 0.18739,-0.2802 0.28545,-0.37767 0.0569,-0.0561 0.21319,-0.0957 0.28396,-0.15141 0.17244,-0.13524 0.22859,-0.33957 0.37924,-0.39788 0.0541,-0.0222 0.17861,-0.0149 0.26381,-0.0384 0.11206,-0.0298 0.27157,-0.16227 0.4541,-0.22484 0.11895,-0.0412 0.39143,-0.05 0.43683,-0.095 0.0561,-0.0571 -7.8e-4,-0.21727 0.0193,-0.30275 0.0918,-0.42729 0.73536,-0.51785 1.11582,-0.66174 0.26667,-0.10055 0.54027,-0.28605 0.83329,-0.22924 -0.0575,0.20308 -0.3303,0.13111 -0.28404,0.37774 0.0638,0.34221 0.52214,-0.0977 0.64304,-0.1485 0.23089,-0.0971 0.62684,-0.15677 0.92985,-0.26671 0.2657,-0.0971 0.74206,-0.24539 0.49165,-0.54927 -0.2089,-0.0116 -0.30958,0.24509 -0.49165,0.32292 -0.12574,0.0207 -0.10145,-0.10524 -0.20903,-0.11528 -0.10165,-0.0116 -0.15909,0.094 -0.26387,0.0757 -0.10412,-0.0172 -0.25039,-0.18095 -0.26669,-0.30274 -0.0412,-0.31597 0.26705,-0.44623 0.39793,-0.68194 -0.0869,-0.28578 -0.48192,-0.0583 -0.72085,-0.17008 0.0235,-0.17018 0.1991,-0.28754 0.3979,-0.32005 0.16294,-0.0274 0.52864,-0.0131 0.62569,0.0728 0.0563,0.0485 0.004,0.16714 0.095,0.24651 0.0964,0.0874 0.21512,0.0779 0.34028,0.0579 0.0445,-0.21569 -0.28047,-0.16157 -0.24508,-0.3042 0.25569,-0.16726 0.67164,-0.0301 0.98469,-0.0761 0.18018,-0.0268 0.36936,-0.15378 0.52907,-0.24362 0.15188,-0.0865 0.34919,-0.23672 0.51035,-0.0951 0.0427,0.15455 -0.14035,0.2057 -0.22636,0.28256 -0.28958,0.25764 -0.58796,0.55279 -0.81306,0.85201 0.13807,0.13472 0.38907,0.0668 0.6228,0.095 0.0914,0.0116 0.2061,0.0387 0.30271,0.0566 0.11311,0.0207 0.23315,0.014 0.32148,0.0374 0.15905,0.0386 0.20155,0.20904 0.359,0.20904 0.25897,-4.6e-4 0.26206,-0.28059 0.11528,-0.45558 0.0463,-0.17864 0.11897,-0.27133 0.0566,-0.39647 -0.11665,-0.2333 -0.54459,-0.0116 -0.56657,-0.30274 -0.0134,-0.18874 0.15792,-0.18031 0.22633,-0.32147 -0.0311,-0.36468 0.29908,-0.3911 0.2638,-0.71796 -0.0149,-0.13674 -0.13056,-0.13864 -0.22633,-0.26673 -0.0487,-0.0625 -0.0725,-0.18368 -0.12831,-0.23787 -0.44169,-0.0385 -0.88841,-0.0633 -1.34071,-0.0633 z m -7.61777,2.9785 0.002,0 c 0.0883,0.0116 0.19459,0.10722 0.30131,0.11542 0.10055,0.003 0.18432,-0.0559 0.24652,-0.0385 0.15828,0.0413 0.22502,0.28075 0.0758,0.39789 -0.12373,0.0149 -0.17198,-0.0545 -0.26525,-0.0375 -0.25708,0.0431 -0.35571,0.54724 -0.54786,0.53056 -0.18117,-0.0145 -0.27923,-0.45677 -0.0949,-0.58819 0.0116,-0.11479 -0.0841,-0.13314 -0.0777,-0.24654 0.0547,-0.0696 0.20986,-0.14476 0.36043,-0.13261 z m -0.85203,0.0593 c 0.0527,0.002 0.0921,0.014 0.11244,0.0372 -0.0253,0.20176 -0.18297,0.18852 -0.33881,0.28255 -0.26914,0.16242 -0.4247,0.40995 -0.51033,0.7569 -0.025,0.10054 -0.28999,0.36846 -0.41808,0.34168 -0.30017,-0.0632 0.0834,-0.61658 0.15136,-0.70068 0.0761,-0.0932 0.17748,-0.17493 0.26672,-0.28256 0.0865,-0.10418 0.14293,-0.24492 0.22634,-0.30274 0.0914,-0.0632 0.35222,-0.13871 0.51034,-0.13259 z m 2.24034,0.68046 c 0.096,0.002 0.18259,0.0176 0.22204,0.0566 -0.0617,0.24998 -0.60031,0.18397 -0.79724,0.0935 0.0116,-0.0942 0.1601,-0.1203 0.284,-0.13259 0.0874,-0.003 0.19524,-0.0207 0.2912,-0.0175 z m -1.22537,0.46137 c 0.0638,-0.002 0.12881,0.0116 0.19604,0.0301 -0.17419,0.14571 -0.36259,0.22824 -0.66174,0.32292 -0.14384,0.0449 -0.39223,0.10144 -0.41663,-0.0593 -0.0298,-0.19687 0.21034,-0.15107 0.34167,-0.16868 0.16537,-0.0232 0.34691,-0.1192 0.54066,-0.12547 z m 18.79941,1.12162 c -0.0228,0.0544 -0.0384,0.10672 -0.036,0.15855 0.0116,0.0914 0.11176,0.17923 0.13406,0.30279 0.0116,0.0656 -0.0307,0.20697 0,0.26672 0.0912,0.17672 0.32965,0.0503 0.50028,0.0593 -0.19382,-0.26689 -0.3874,-0.53428 -0.59832,-0.78713 z m 0.96736,1.30183 c -0.0273,0.13043 -0.11577,0.30051 -0.18741,0.40944 -0.16499,0.25094 -0.38911,0.26264 -0.62568,0.39645 -0.19729,0.11186 -0.28224,0.29853 -0.39792,0.49305 -0.12535,0.21015 -0.20299,0.33711 -0.15134,0.64159 -0.16916,0.33551 -0.42528,0.54105 -0.77563,0.70064 -0.10348,0.0468 -0.24517,0.0642 -0.34025,0.13258 -0.0754,0.0547 -0.11871,0.20063 -0.22633,0.32148 -0.13272,0.14774 -0.27191,0.21007 -0.34169,0.32294 -0.0541,0.0874 -0.0723,0.2607 -0.1326,0.37772 -0.0812,0.15898 -0.25288,0.23686 -0.35902,0.39792 -0.0484,0.0742 -0.0811,0.22541 -0.13404,0.32295 -0.11997,0.2179 -0.32478,0.37489 -0.30279,0.56656 0.0222,0.18526 0.2322,0.21768 0.24652,0.37916 0.003,0.0913 -0.0603,0.14709 -0.0566,0.24654 0.003,0.14526 0.101,0.24722 0.11243,0.359 0.0283,0.28102 -0.0954,0.39318 -0.14848,0.5853 -0.0253,0.0918 -0.0141,0.19506 -0.0385,0.26673 -0.0473,0.14064 -0.24263,0.2676 -0.24656,0.43391 -0.002,0.11824 0.12134,0.21327 0.13126,0.3792 0.003,0.11454 -0.0565,0.23651 -0.0357,0.3417 0.0399,0.20592 0.40794,0.44548 0.56806,0.60545 0.21412,0.21418 0.49444,0.37989 0.58674,0.60555 0.0774,0.19162 0.0767,0.44085 0.22635,0.58532 0.1104,0.1066 0.29397,0.1731 0.43539,0.28397 0.13193,0.10336 0.27565,0.19294 0.41663,0.30274 0.23039,0.18028 0.57872,0.53955 0.94574,0.51185 0.19168,-0.0131 0.3881,-0.17042 0.60553,-0.20907 0.22366,-0.0397 0.51391,-0.0609 0.73954,-0.0372 0.17284,0.0172 0.35088,0.12069 0.53055,0.11242 0.18969,-0.0116 0.40725,-0.15237 0.62281,-0.24649 0.17344,-0.0753 0.38631,-0.15918 0.6199,-0.22062 0.10724,-0.72006 0.16436,-1.45778 0.16436,-2.20866 0,-3.02286 -0.90388,-5.82462 -2.45081,-8.15992 z m -24.4162,4.96082 c -0.31446,0.0175 -0.52045,0.0315 -0.69922,0.11245 -0.40954,0.18637 -0.33045,0.73981 -0.73962,0.87078 -0.14143,0.0448 -0.33576,0.0475 -0.4915,0.0758 -0.13455,0.0249 -0.29835,0.0977 -0.43684,0.0949 -0.0385,-4.8e-4 -0.093,-0.0294 -0.14133,-0.0441 -0.036,0.25949 -0.0663,0.52192 -0.0897,0.78566 0.3893,0.0741 0.59021,0.59053 0.93427,0.76122 0.0942,0.047 0.2174,0.0499 0.33875,0.0764 0.0976,0.0222 0.17236,0.0632 0.26666,0.0952 0.20025,0.0677 0.44541,0.0598 0.60557,0.13125 0.24125,0.10708 0.41819,0.56053 0.62568,0.68191 0.0116,0.12232 -0.0242,0.28656 0.0193,0.37768 0.0977,0.13301 0.23637,0.10348 0.39785,0.19031 0.19323,0.10418 0.25235,0.37334 0.43542,0.45558 0.0631,0.0282 0.22161,0.0245 0.32149,0.0552 0.25089,0.0756 0.33278,0.36622 0.54786,0.30277 0.14103,-0.0412 0.12991,-0.18667 0.15279,-0.32151 0.0932,-0.10056 0.19494,-0.26097 0.34024,-0.26383 0.23519,-0.0116 0.25613,0.24304 0.34165,0.47142 0.0486,0.12912 0.17463,0.24157 0.20762,0.37773 0.0587,0.23521 0.0295,0.93926 -0.0207,1.07983 -0.0593,0.17248 -0.29285,0.24561 -0.43682,0.43684 -0.0677,0.0898 -0.0999,0.22099 -0.15138,0.284 -0.0927,0.11295 -0.23049,0.1424 -0.29984,0.24654 -0.0389,0.0587 -0.0772,0.18453 -0.11542,0.26381 -0.11366,0.24088 -0.26573,0.41152 -0.17013,0.70068 0.0397,0.11897 0.22586,0.19874 0.22635,0.33878 5.3e-4,0.16481 -0.35052,0.31237 -0.37769,0.49304 -0.0207,0.13446 0.10858,0.37438 0.15134,0.54931 0.0313,0.13219 0.28105,0.21483 0.359,0.30274 0.13284,0.14918 0.23903,0.36049 0.36039,0.54785 0.24,0.36851 0.42808,0.81794 0.66176,1.17498 0.12345,0.18701 0.29686,0.35514 0.37913,0.54926 0.0417,0.0977 0.036,0.21473 0.0745,0.30276 0.13523,0.30531 0.7326,0.62408 1.04087,0.77564 0.14429,0.0699 0.30441,0.095 0.43683,0.16865 0.2006,0.11187 0.59794,0.41232 0.69923,0.58824 0.0904,0.15809 0.14641,0.54294 0.19028,0.79433 0.0588,0.33226 6.7e-4,0.58738 0.0193,0.9472 0.0116,0.19461 0.0737,0.39024 0.0761,0.58534 7.6e-4,0.0681 -0.036,0.11911 -0.0387,0.18884 -1.1e-4,0.0108 0.004,0.0245 0.004,0.0357 1.85917,0.84134 3.91934,1.32058 6.09974,1.32058 0.39391,0 0.7832,-0.0209 1.16915,-0.0512 0.0174,-0.0291 0.0324,-0.0594 0.0539,-0.0866 0.0891,-0.11667 0.16781,-0.21881 0.22642,-0.32151 0.0561,-0.34564 -0.13787,-0.58705 -0.0566,-0.88949 0.0905,-0.33985 0.56023,-0.54738 0.88961,-0.70074 0.11317,-0.0527 0.2292,-0.13803 0.32141,-0.1701 0.22794,-0.0794 0.51252,-0.0359 0.72086,-0.11243 0.35465,-0.12979 0.39169,-0.5102 0.56657,-0.83333 0.0829,-0.15292 0.19145,-0.30621 0.20762,-0.41516 0.0138,-0.0977 -0.0358,-0.19009 -0.0206,-0.30564 0.0168,-0.1143 0.11967,-0.21318 0.15136,-0.33882 0.0412,-0.16393 0.0593,-0.40413 0.0593,-0.58673 0,-0.14992 -0.0699,-0.28142 -0.0754,-0.41667 -0.0248,-0.49096 0.17733,-0.54587 0.359,-0.81309 0.0912,-0.1327 0.12522,-0.28404 0.18884,-0.37918 0.30497,-0.45495 0.83407,-0.6746 0.79581,-1.36236 -0.0116,-0.22759 -0.1555,-0.74192 -0.32294,-0.81453 -0.0957,-0.0413 -0.31554,-0.003 -0.45413,-0.0566 -0.44739,-0.16683 -0.70993,-0.72144 -1.17352,-0.75691 -0.0987,-0.0116 -0.18987,0.0403 -0.30129,0.0385 -0.18347,-0.0116 -0.46009,-0.12848 -0.66317,-0.15138 -0.12911,-0.0132 -0.30171,0.0381 -0.37921,0 -0.11809,-0.0576 -0.13019,-0.2753 -0.22635,-0.34025 -0.0757,-0.053 -0.22455,-0.07 -0.34022,-0.11526 -0.18639,-0.0709 -0.33419,-0.15512 -0.54924,-0.17009 -0.0662,-0.003 -0.14906,0.0315 -0.22635,0.0207 -0.11898,-0.0207 -0.21314,-0.16096 -0.3229,-0.22779 -0.13759,-0.0841 -0.26469,-0.12428 -0.32153,-0.24365 0.12427,-0.40767 -0.21918,-0.52131 -0.30277,-0.75688 -0.0397,-0.1104 -0.0219,-0.24321 -0.0566,-0.34166 -0.0499,-0.14108 -0.1888,-0.22256 -0.3417,-0.34023 -0.27388,-0.21081 -0.51682,-0.40875 -0.90825,-0.45703 -0.17208,-0.0222 -0.3428,0.052 -0.55074,0.0385 -0.22029,-0.0131 -0.49689,-0.20669 -0.66167,-0.39504 -0.16023,-0.1839 -0.23815,-0.34893 -0.37774,-0.43683 -0.1322,-0.0851 -0.30768,-0.0831 -0.39792,-0.16867 -0.0401,-0.0374 -0.0329,-0.10155 -0.0762,-0.19035 -0.0663,-0.13762 -0.1781,-0.21419 -0.0949,-0.37911 -0.15085,-0.0776 -0.155,0.14391 -0.32004,0.11525 -0.14717,-0.20879 -0.27144,-0.30772 -0.60554,-0.24652 -0.15297,0.0283 -0.23838,0.22156 -0.41662,0.22638 -0.14621,0.0116 -0.26105,-0.16291 -0.45412,-0.19035 -0.14576,-0.0207 -0.31149,0.039 -0.41523,0.0203 -0.16153,-0.0322 -0.21139,-0.16677 -0.35899,-0.26384 -0.10821,-0.0708 -0.31845,-0.19225 -0.37913,-0.19029 -0.19026,0.0116 -0.32584,0.40429 -0.58819,0.26531 -0.12754,-0.16165 0.20768,-0.24678 0.0566,-0.39799 -0.11464,-0.11465 -0.21101,0.0525 -0.30272,0.11541 -0.10513,0.0722 -0.20391,0.14443 -0.32008,0.18743 -0.26001,0.0971 -0.42251,0.0466 -0.62568,0.15139 -0.18814,0.0972 -0.19617,0.26049 -0.30275,0.4541 -0.0874,0.15863 -0.28567,0.38975 -0.41666,0.39933 -0.15862,0.0116 -0.31024,-0.22175 -0.45411,-0.28396 -0.43347,-0.18779 -0.64346,0.1667 -1.00337,0.17152 -0.33405,0.0116 -0.81117,-0.5394 -0.7944,-0.85347 0.003,-0.1916 0.1102,-0.48231 0.1326,-0.71942 0.0207,-0.18854 0.14923,-0.30215 0.15143,-0.4743 0.003,-0.22988 -0.30496,-0.40664 -0.45419,-0.43394 -0.35361,-0.0649 -0.84456,0.1423 -1.24985,-0.0207 -0.0772,-0.12826 0.0908,-0.21692 0.13404,-0.34167 0.0249,-0.0706 0.01,-0.16561 0.0359,-0.24366 0.0445,-0.12056 0.17123,-0.21398 0.22771,-0.34167 0.0416,-0.0972 0.053,-0.23807 0.0949,-0.35898 0.0503,-0.13767 0.14069,-0.22637 0.1514,-0.32292 0.0131,-0.1275 -0.0341,-0.27494 -0.13412,-0.35898 z m 5.06027,4.00645 c 0.12831,0.0116 0.14437,0.27711 0.0129,0.29846 -0.14155,0.0223 -0.21349,-0.22197 -0.0757,-0.28551 0.0234,-0.0116 0.0451,-0.0116 0.0633,-0.0108 l 0,-0.002 z"
                     id="path34-7-3" />
                </g>
              </g>
              <path
                 style="opacity:1;fill:#ffffff;fill-opacity:0.85483871"
                 sketch:type="MSShapeGroup"
                 id="Developer"
                 d="m 410.94535,526.89581 0.11062,0.0234 c 1.28736,-0.42738 4.17669,1.25604 3.53301,2.75631 -0.1631,0.2355 -0.13546,0.65417 0.0612,0.91731 l -3.61311,3.60819 c -0.20243,-0.20208 -0.65243,-0.19772 -0.85924,0 l -5.97525,5.72484 c -0.54468,0.5219 -0.11647,0.96528 0.11362,1.19934 l 1.07183,1.06996 c 0.23449,0.23257 0.85342,0.54659 1.29322,0.0815 l 5.63883,-5.93272 c 0.19662,-0.20644 0.19809,-0.64984 0,-0.85335 0,0 0.003,-0.003 0,-0.003 l 3.62769,-3.61983 c 0.38301,0.34455 0.74475,0.37433 1.08789,0.28059 0.6627,-0.18106 1.03212,0.46616 1.42864,0.93912 l -0.17913,0.17589 c -0.26505,0.2675 -0.2403,0.71815 0.0568,1.01471 0.29708,0.29658 0.75,0.32129 1.01506,0.0568 l 1.18543,-1.18191 c 0.26503,-0.26749 0.2403,-0.71816 -0.0582,-1.01327 -0.26795,-0.26894 -0.65679,-0.30384 -0.92768,-0.1119 -0.81262,-0.91004 -0.38591,-1.0467 -1.45777,-2.2315 l -2.00827,-2.04833 c -1.4461,-1.41594 -3.32476,-1.41449 -5.14515,-0.85189 l 0,0 z"
                 inkscape:connector-curvature="0" />
            </g>
          </g>
        </g>
      </g>
    </g>
  </g>
</svg>
